<?xml version="1.0" standalone="no"?>
<!DOCTYPE svg PUBLIC "-//W3C//DTD SVG 1.1//EN" "http://www.w3.org/Graphics/SVG/1.1/DTD/svg11.dtd" >
<svg xmlns="http://www.w3.org/2000/svg" xmlns:xlink="http://www.w3.org/1999/xlink" version="1.1">
<metadata>
Created by FontForge 20201107 at Wed May 29 09:57:39 2024
 By 
Copyright (C) 2001, 2011 Hoefler &#38; Co. http://www.typography.com |DCNT
</metadata>
<defs>
<font id="GothamNarrow-BoldItalic" horiz-adv-x="722" >
  <font-face 
    font-family="Gotham Narrow"
    font-weight="700"
    font-style="italic"
    font-stretch="semi-condensed"
    units-per-em="2048"
    panose-1="0 0 0 0 0 0 0 0 0 0"
    ascent="1638"
    descent="-410"
    x-height="1108"
    cap-height="1434"
    bbox="-598 -578 2232 2038"
    underline-thickness="102"
    underline-position="-204"
    slope="-14"
    unicode-range="U+0020-FB04"
  />
<missing-glyph horiz-adv-x="1024" 
d="M0 -410v2048h1024v-2048h-1024zM102 -156l353 770l-353 770v-1540zM145 -307h734l-367 799zM512 737l367 799h-734zM922 -156v1540l-353 -770z" />
    <glyph glyph-name="f_f" unicode="ff" horiz-adv-x="1480" 
d="M25 0l204 846h-116l69 262h113l8 37q41 173 123 252q104 98 289 98q110 0 174 -22l-66 -252q-47 14 -98 14t-78.5 -24.5t-40.5 -71.5l-8 -31h199l-70 -262h-190l-205 -846h-307zM766 0l205 846h-117l70 262h112l8 37q40 173 123 252q104 98 289 98q110 0 174 -22
l-65 -252q-47 14 -99 14q-51 0 -78 -24t-40 -72l-9 -31h199l-70 -262h-190l-205 -846h-307z" />
    <glyph glyph-name="fi" unicode="fi" horiz-adv-x="1296" 
d="M729 0l272 1108h306l-271 -1108h-307zM1018 1214l74 279h317l-74 -279h-317zM25 0l204 846h-116l69 262h113l8 37q41 173 123 252q104 98 289 98q110 0 174 -22l-66 -252q-47 14 -98 14t-78.5 -24.5t-40.5 -71.5l-8 -31h199l-70 -262h-190l-205 -846h-307z" />
    <glyph glyph-name="fl" unicode="fl" horiz-adv-x="1296" 
d="M729 0l363 1479h305l-361 -1479h-307zM25 0l204 846h-116l69 262h113l8 37q41 173 123 252q104 98 289 98q110 0 174 -22l-66 -252q-47 14 -98 14t-78.5 -24.5t-40.5 -71.5l-8 -31h199l-70 -262h-190l-205 -846h-307z" />
    <glyph glyph-name="f_f_i" unicode="ffi" horiz-adv-x="2039" 
d="M1473 0l272 1108h305l-270 -1108h-307zM1761 1214l74 279h317l-73 -279h-318zM25 0l204 846h-116l69 262h113l8 37q41 173 123 252q104 98 289 98q110 0 174 -22l-66 -252q-47 14 -98 14t-78.5 -24.5t-40.5 -71.5l-8 -31h199l-70 -262h-190l-205 -846h-307zM766 0
l205 846h-117l70 262h112l8 37q40 173 123 252q104 98 289 98q110 0 174 -22l-65 -252q-47 14 -99 14q-51 0 -78 -24t-40 -72l-9 -31h199l-70 -262h-190l-205 -846h-307z" />
    <glyph glyph-name="f_f_l" unicode="ffl" horiz-adv-x="2039" 
d="M1473 0l362 1479h305l-360 -1479h-307zM25 0l204 846h-116l69 262h113l8 37q41 173 123 252q104 98 289 98q110 0 174 -22l-66 -252q-47 14 -98 14t-78.5 -24.5t-40.5 -71.5l-8 -31h199l-70 -262h-190l-205 -846h-307zM766 0l205 846h-117l70 262h112l8 37
q40 173 123 252q104 98 289 98q110 0 174 -22l-65 -252q-47 14 -99 14q-51 0 -78 -24t-40 -72l-9 -31h199l-70 -262h-190l-205 -846h-307z" />
    <glyph glyph-name=".notdef" horiz-adv-x="1024" 
d="M0 -410v2048h1024v-2048h-1024zM102 -156l353 770l-353 770v-1540zM145 -307h734l-367 799zM512 737l367 799h-734zM922 -156v1540l-353 -770z" />
    <glyph glyph-name=".null" horiz-adv-x="0" 
 />
    <glyph glyph-name="nonmarkingreturn" horiz-adv-x="682" 
 />
    <glyph glyph-name="space" unicode=" " horiz-adv-x="471" 
 />
    <glyph glyph-name="exclam" unicode="!" horiz-adv-x="628" 
d="M215 487l125 906l8 41h361l-9 -41l-317 -906h-168zM14 0l82 326h328l-82 -326h-328z" />
    <glyph glyph-name="quotedbl" unicode="&#x22;" horiz-adv-x="962" 
d="M190 788l142 646h340l-6 -13l-320 -633h-156zM639 788l141 646h340l-4 -13l-321 -633h-156z" />
    <glyph glyph-name="numbersign" unicode="#" horiz-adv-x="1232" 
d="M55 0l92 305h-139l66 258h151l92 311h-155l67 259h166l92 301h263l-91 -301h236l92 301h262l-92 -301h141l-65 -259h-154l-94 -311h160l-66 -258h-170l-94 -305h-262l92 305h-235l-93 -305h-262zM487 563h238l92 311h-235z" />
    <glyph glyph-name="dollar" unicode="$" horiz-adv-x="1128" 
d="M750 1559h202l-41 -154q166 -51 279 -170l-209 -207q-68 65 -150 107l-83 -304q280 -148 280 -376q0 -204 -144.5 -331.5t-363.5 -127.5l-57 -197h-205l66 219q-217 58 -349 222l224 192q92 -111 202 -149l91 325q-66 35 -113.5 69.5t-88 80.5t-61 104.5t-20.5 130.5
q0 193 139.5 318t364.5 125zM526 1038q0 -64 58 -112l67 243q-59 -10 -93 -46.5t-32 -84.5zM713 418q0 55 -56 100l-69 -252q58 18 92 58t33 94z" />
    <glyph glyph-name="percent" unicode="%" horiz-adv-x="1583" 
d="M102 0l666 764l567 670h224l-664 -764l-567 -670h-226zM442 725q-130 0 -206 81.5t-76 227.5q0 92 32 176t91 140q98 98 233 98q131 0 208 -81.5t77 -227.5q0 -87 -33 -171.5t-90 -144.5q-98 -98 -236 -98zM455 901q38 0 80 33q32 35 50.5 90t18.5 113q0 65 -27 101
t-71 36q-45 0 -80 -35q-34 -31 -53 -87t-19 -114q0 -66 27.5 -101.5t73.5 -35.5zM1145 -14q-131 0 -207 81.5t-76 227.5q0 88 32 171.5t89 143.5q106 99 236 99t206 -82t76 -228q0 -91 -32 -174.5t-89 -140.5q-105 -98 -235 -98zM1157 160q35 0 80 35q32 32 51 87.5
t19 112.5q0 66 -27.5 101.5t-73.5 35.5q-39 0 -80 -32q-32 -35 -50.5 -90t-18.5 -113q0 -65 27.5 -101t72.5 -36z" />
    <glyph glyph-name="ampersand" unicode="&#x26;" horiz-adv-x="1249" 
d="M1004 711l196 -129q-98 -173 -194 -285l116 -180l-231 -142l-86 136q-171 -129 -359 -129t-299.5 101t-111.5 269q0 302 348 453q-70 149 -70 268q0 159 112.5 271t301.5 112q160 0 260 -97t100 -233q0 -133 -80.5 -231t-267.5 -174l135 -215q75 100 130 205zM479 236
q96 0 205 75l-186 303q-90 -54 -131 -110.5t-41 -124.5q0 -60 39 -101.5t114 -41.5zM580 1069q0 -74 49 -170q104 42 147 88.5t43 112.5q0 52 -27 85.5t-85 33.5q-56 0 -91.5 -43.5t-35.5 -106.5z" />
    <glyph glyph-name="quotesingle" unicode="'" horiz-adv-x="514" 
d="M190 788l142 646h340l-6 -13l-320 -633h-156z" />
    <glyph glyph-name="parenleft" unicode="(" horiz-adv-x="788" 
d="M600 -104l-197 -183q-165 153 -247 322.5t-82 384.5q0 222 84 418.5t235 347.5q167 167 412 270l110 -223q-168 -89 -276 -197q-260 -260 -260 -616q0 -145 54.5 -272t166.5 -252z" />
    <glyph glyph-name="parenright" unicode=")" horiz-adv-x="788" 
d="M207 1280l196 182q166 -153 248 -322t82 -384q0 -222 -84 -418.5t-235 -347.5q-169 -169 -412 -271l-111 224q172 91 277 196q260 260 260 617q0 145 -54.5 272t-166.5 252z" />
    <glyph glyph-name="asterisk" unicode="*" horiz-adv-x="784" 
d="M518 768l-158 41l86 223l-213 -96l-45 160l230 37l-187 143l117 119l144 -187l26 240l158 -41l-86 -223l213 96l45 -160l-230 -37l187 -143l-119 -119l-141 187z" />
    <glyph glyph-name="plus" unicode="+" horiz-adv-x="1134" 
d="M354 270l76 312h-311l71 278h312l76 311h284l-78 -311h312l-72 -278h-311l-74 -312h-285z" />
    <glyph glyph-name="comma" unicode="," horiz-adv-x="559" 
d="M-129 -330l-23 131q122 12 183 60.5t75 138.5h-126l81 326h330l-69 -275q-48 -197 -157.5 -286t-293.5 -95z" />
    <glyph glyph-name="hyphen" unicode="-" horiz-adv-x="755" 
d="M70 489l75 289h580l-74 -289h-581z" />
    <glyph glyph-name="period" unicode="." horiz-adv-x="559" 
d="M-20 0l81 326h330l-82 -326h-329z" />
    <glyph glyph-name="slash" unicode="/" horiz-adv-x="933" 
d="M-246 -244l1184 1860h285l-1186 -1860h-283z" />
    <glyph glyph-name="zero" unicode="0" horiz-adv-x="1284" 
d="M778 1456q218 0 351 -148t133 -409q0 -197 -72 -409.5t-199 -339.5q-173 -173 -411 -173q-216 0 -349 148t-133 407q0 201 70.5 411.5t200.5 340.5q167 172 409 172zM602 258q84 0 152 68q86 86 138 257t52 318q0 142 -50.5 208.5t-135.5 66.5q-84 0 -152 -68
q-88 -88 -140 -257.5t-52 -318.5q0 -274 188 -274z" />
    <glyph glyph-name="one" unicode="1" horiz-adv-x="806" 
d="M164 0l266 1108l-217 -53l2 270l393 117h215l-352 -1442h-307z" />
    <glyph glyph-name="two" unicode="2" horiz-adv-x="1095" 
d="M-63 0l67 252l588 491q109 91 156 158.5t47 136.5q0 66 -38.5 101t-103.5 35t-127.5 -36.5t-146.5 -115.5l-186 201q202 231 477 231q202 0 323 -106.5t121 -270.5q0 -103 -33.5 -185.5t-98.5 -154t-181 -164.5l-365 -305h508l-72 -268h-935z" />
    <glyph glyph-name="three" unicode="3" horiz-adv-x="1052" 
d="M403 -23q-144 0 -261 57.5t-197 160.5l225 202q58 -71 117 -106t137 -35q88 0 147.5 62.5t59.5 144.5q0 89 -61 132.5t-171 43.5h-77v199l350 329h-441l72 267h846l-62 -234l-403 -356q121 -43 189.5 -133t68.5 -222q0 -101 -37 -194.5t-110 -165.5q-68 -68 -168.5 -110
t-223.5 -42z" />
    <glyph glyph-name="four" unicode="4" horiz-adv-x="1161" 
d="M526 0l72 303h-557l-21 236l846 905h301l-213 -889h156l-66 -252h-151l-72 -303h-295zM346 555h316l118 483z" />
    <glyph glyph-name="five" unicode="5" horiz-adv-x="1079" 
d="M422 -20q-143 0 -261.5 58.5t-195.5 156.5l209 213q65 -71 128.5 -108.5t137.5 -37.5q105 0 173.5 71t68.5 171q0 75 -52.5 121.5t-152.5 46.5q-64 0 -143 -27l-156 125l199 664h764l-72 -273h-485l-66 -241q39 6 92 6q171 0 280 -104t109 -285q0 -111 -40 -213
t-117 -179q-165 -165 -420 -165z" />
    <glyph glyph-name="six" unicode="6" horiz-adv-x="1136" 
d="M539 -23q-203 0 -314 111q-135 135 -135 381q0 122 27.5 262.5t96 294t165.5 250.5q180 180 426 180q214 0 383 -143l-174 -236q-115 99 -230 99q-116 0 -200 -84q-94 -94 -142 -252q40 40 114.5 65t148.5 25q75 0 140.5 -22.5t117 -67t81 -117t29.5 -164.5
q0 -120 -47 -234t-127 -194q-72 -72 -164.5 -113t-195.5 -41zM541 240q82 0 141 59q39 39 59.5 98t20.5 117q0 84 -42.5 126t-117.5 42q-84 0 -143 -59v-2q-38 -36 -59 -91t-21 -116q0 -79 45 -131q47 -43 117 -43z" />
    <glyph glyph-name="seven" unicode="7" horiz-adv-x="1077" 
d="M-20 0l788 1165h-547l70 269h895l-64 -238l-788 -1196h-354z" />
    <glyph glyph-name="eight" unicode="8" horiz-adv-x="1159" 
d="M516 -20q-124 0 -230 46.5t-172.5 137.5t-66.5 209q0 301 311 401q-71 52 -105 115t-34 147q0 76 31 149.5t88.5 134t150 97.5t205.5 37q192 0 312 -102.5t120 -266.5q0 -278 -270 -374q92 -52 137 -120.5t45 -170.5q0 -84 -35.5 -162t-99.5 -140.5t-165 -100t-222 -37.5
zM530 229q86 0 145.5 58t61.5 143q1 81 -49 127.5t-137 46.5q-86 0 -144.5 -58t-60.5 -140q-1 -77 51.5 -127t132.5 -50zM657 856q73 0 128 55t55 133q2 67 -38.5 111.5t-121.5 44.5q-72 0 -125 -56t-53 -130q-2 -67 38.5 -112.5t116.5 -45.5z" />
    <glyph glyph-name="nine" unicode="9" horiz-adv-x="1136" 
d="M420 -23q-228 0 -412 156l178 236q131 -111 252 -111q115 0 199 84q92 92 133 231q-106 -86 -256 -86q-75 0 -140 22t-117 66.5t-82 119t-30 171.5q0 129 45 244.5t127 194.5q151 151 363 151q202 0 317 -115q133 -133 133 -405q0 -115 -28.5 -249.5t-98 -283.5
t-167.5 -247q-179 -179 -416 -179zM616 737q86 0 146 60v2q37 35 57.5 91.5t20.5 121.5q0 92 -47 139q-43 43 -113 43q-82 0 -141 -59q-40 -40 -62 -102t-20 -124q8 -172 159 -172z" />
    <glyph glyph-name="colon" unicode=":" horiz-adv-x="577" 
d="M-12 0l84 326h327l-82 -326h-329zM176 782l84 326h328l-82 -326h-330z" />
    <glyph glyph-name="semicolon" unicode=";" horiz-adv-x="577" 
d="M-121 -330l-22 131q122 12 183 60.5t75 138.5h-127l84 326h327l-69 -275q-48 -197 -157.5 -286t-293.5 -95zM176 782l84 326h328l-82 -326h-330z" />
    <glyph glyph-name="less" unicode="&#x3c;" horiz-adv-x="1134" 
d="M893 203l-762 377l74 282l946 379l-80 -301l-622 -231l512 -230z" />
    <glyph glyph-name="equal" unicode="=" horiz-adv-x="1134" 
d="M88 344l72 277h858l-72 -277h-858zM209 821l72 277h858l-74 -277h-856z" />
    <glyph glyph-name="greater" unicode="&#x3e;" horiz-adv-x="1134" 
d="M68 201l82 301l620 231l-512 230l70 276l762 -377l-74 -282z" />
    <glyph glyph-name="question" unicode="?" horiz-adv-x="968" 
d="M299 487l39 344l12 13q176 20 265.5 75.5t89.5 135.5q0 54 -31.5 83t-91.5 29q-106 0 -236 -100l-156 223q187 160 424 160q191 0 302.5 -100.5t111.5 -253.5q0 -174 -116 -288t-351 -157l-55 -164h-207zM125 0l82 326h328l-82 -326h-328z" />
    <glyph glyph-name="at" unicode="@" horiz-adv-x="1789" 
d="M827 -301q-210 0 -376.5 87.5t-263.5 254.5t-97 387q0 198 70.5 386t190.5 331t292 230t363 87q164 0 302 -53.5t229 -144t141.5 -209t50.5 -250.5q0 -151 -37.5 -278.5t-101.5 -213t-149 -133t-179 -47.5t-159.5 45.5t-90.5 116.5q-70 -78 -139 -121t-158 -43
q-121 0 -198 83t-77 228q0 157 68.5 298t179.5 224t232 83q83 0 133 -34t84 -104l34 117l222 -61l-150 -492q-29 -93 -29 -141q0 -53 30.5 -80t80.5 -27q77 0 151 76.5t122.5 212.5t48.5 291q0 117 -44 221.5t-124.5 183.5t-203.5 125.5t-271 46.5q-141 0 -271.5 -52.5
t-232 -145t-177 -212.5t-115.5 -260.5t-40 -283.5q0 -148 50.5 -271t139 -206t209.5 -128.5t260 -45.5q191 0 387 94l33 -70q-215 -102 -420 -102zM819 332q90 0 172 108t82 246q0 70 -33 113t-94 43q-60 0 -119.5 -51t-97 -133t-37.5 -166q0 -160 127 -160z" />
    <glyph glyph-name="A" unicode="A" horiz-adv-x="1347" 
d="M-109 0l859 1444h301l153 -1444h-317l-25 322h-461l-178 -322h-332zM575 596h256l-22 469z" />
    <glyph glyph-name="B" unicode="B" horiz-adv-x="1251" 
d="M6 0l350 1434h445q116 0 205 -27.5t143 -76t81 -110t27 -133.5q0 -145 -80 -236t-212 -124q184 -88 184 -287q0 -207 -160.5 -323.5t-429.5 -116.5h-553zM379 272h227q111 0 173.5 49.5t62.5 139.5q0 133 -168 133h-223zM518 852h193q114 0 175.5 45.5t61.5 136.5
q0 57 -43 92t-131 35h-188z" />
    <glyph glyph-name="C" unicode="C" horiz-adv-x="1228" 
d="M692 -20q-266 0 -426 159.5t-160 433.5q0 183 69 364.5t190 307.5q107 104 224 156.5t261 52.5q154 0 275 -64.5t204 -179.5l-242 -204q-61 83 -119 122t-139 39q-121 0 -227 -106q-78 -78 -127 -208t-49 -269q0 -143 71 -230.5t193 -87.5q117 0 246 105l174 -219
q-190 -172 -418 -172z" />
    <glyph glyph-name="D" unicode="D" horiz-adv-x="1357" 
d="M6 0l350 1434h361q311 0 467 -156q147 -147 147 -424q0 -165 -64.5 -334.5t-189.5 -294.5q-114 -114 -268.5 -169.5t-368.5 -55.5h-434zM934 1075q-78 78 -242 78h-98l-207 -872h92q237 0 369 135q80 80 121 198t41 230q0 155 -76 231z" />
    <glyph glyph-name="E" unicode="E" horiz-adv-x="1159" 
d="M6 0l350 1434h912l-72 -277h-602l-68 -299h529l-72 -272h-528l-70 -310h614l-73 -276h-920z" />
    <glyph glyph-name="F" unicode="F" horiz-adv-x="1138" 
d="M6 0l350 1434h926l-74 -283h-614l-70 -311h541l-74 -281h-538l-136 -559h-311z" />
    <glyph glyph-name="G" unicode="G" horiz-adv-x="1351" 
d="M690 -20q-87 0 -170.5 22t-159.5 69t-133 114.5t-91 166.5t-34 217q0 189 68.5 364t194.5 298q223 223 536 223q290 0 483 -188l-221 -222q-68 61 -134 93t-152 32q-159 0 -281 -122q-78 -83 -125 -209t-47 -260q0 -146 82 -231t205 -85q74 0 159 29l60 264h-238l72 268
h534l-188 -739q-190 -104 -420 -104z" />
    <glyph glyph-name="H" unicode="H" horiz-adv-x="1335" 
d="M6 0l350 1434h312l-138 -570h433l135 570h311l-350 -1434h-311l141 578h-432l-140 -578h-311z" />
    <glyph glyph-name="I" unicode="I" horiz-adv-x="622" 
d="M20 0l351 1434h311l-350 -1434h-312z" />
    <glyph glyph-name="J" unicode="J" horiz-adv-x="980" 
d="M336 -18q-265 0 -414 211l219 204q55 -69 97 -98t88 -29q63 0 110 47q58 58 101 240l206 877h320l-227 -951q-37 -152 -73.5 -232t-98.5 -142q-127 -127 -328 -127z" />
    <glyph glyph-name="K" unicode="K" horiz-adv-x="1271" 
d="M6 0l350 1434h312l-146 -611l541 611h399l-594 -607l273 -827h-338l-172 602l-223 -225l-91 -377h-311z" />
    <glyph glyph-name="L" unicode="L" horiz-adv-x="1083" 
d="M6 0l350 1434h312l-277 -1151h567l-73 -283h-879z" />
    <glyph glyph-name="M" unicode="M" horiz-adv-x="1531" 
d="M6 0l350 1434h330l139 -598l418 598h363l-351 -1434h-313l219 934l-454 -617h-9l-161 611l-222 -928h-309z" />
    <glyph glyph-name="N" unicode="N" horiz-adv-x="1380" 
d="M6 0l350 1434h289l291 -899l213 899h305l-350 -1434h-268l-306 930l-217 -930h-307z" />
    <glyph glyph-name="O" unicode="O" horiz-adv-x="1427" 
d="M862 1456q164 0 287.5 -74t188.5 -205.5t65 -302.5q0 -186 -70 -377t-196 -317q-203 -203 -494 -203q-248 0 -394.5 160t-146.5 422q0 185 71 377t196 317q203 203 493 203zM682 264q121 0 219 98q82 82 132 224.5t50 265.5q0 151 -66.5 234t-193.5 83q-125 0 -219 -98
q-82 -82 -132 -224t-50 -265q0 -151 66.5 -234.5t193.5 -83.5z" />
    <glyph glyph-name="P" unicode="P" horiz-adv-x="1204" 
d="M6 0l350 1434h355q149 0 247 -31t170 -103q111 -111 111 -299q0 -235 -154 -389q-87 -87 -213.5 -133.5t-279.5 -46.5h-172l-103 -432h-311zM868 1102q-31 30 -70 40.5t-102 10.5h-102l-105 -451h119q148 0 232 84q73 73 73 193q0 71 -45 123z" />
    <glyph glyph-name="Q" unicode="Q" horiz-adv-x="1427" 
d="M862 1456q164 0 287.5 -74t188.5 -205.5t65 -302.5q0 -169 -59 -346t-166 -305l98 -143l-258 -168l-74 131q-141 -66 -301 -66q-248 0 -394.5 160t-146.5 422q0 185 71 377t196 317q203 203 493 203zM682 264q54 0 115 23l-152 223l258 170l98 -174q82 168 82 346
q0 153 -64.5 235t-195.5 82q-126 0 -219 -96q-82 -82 -132 -225.5t-50 -265.5q0 -153 64.5 -235.5t195.5 -82.5z" />
    <glyph glyph-name="R" unicode="R" horiz-adv-x="1282" 
d="M750 0l-175 455h-151l-107 -455h-311l350 1434h412q284 0 418 -134q110 -113 110 -294q0 -222 -133 -361q-60 -60 -104 -88q-67 -43 -158 -68l197 -489h-348zM498 727h166q160 0 243 80q66 69 66 174q0 74 -47 121q-46 51 -178 51h-152z" />
    <glyph glyph-name="S" unicode="S" horiz-adv-x="1105" 
d="M500 -20q-164 0 -300 68t-229 194l232 200q84 -95 159 -141.5t152 -46.5q65 0 106.5 36.5t41.5 92.5q0 45 -37.5 89t-147.5 126q-138 101 -205 193.5t-67 207.5q0 184 123 310q145 145 360 145q273 0 471 -213l-213 -215q-74 79 -135.5 116.5t-132.5 37.5
q-68 0 -105.5 -37t-37.5 -88q0 -48 37 -93t145 -120q134 -95 204 -191t70 -217q0 -186 -129 -315q-67 -67 -162.5 -103t-199.5 -36z" />
    <glyph glyph-name="T" unicode="T" horiz-adv-x="1069" 
d="M244 0l274 1147h-354l76 287h1020l-76 -287h-355l-276 -1147h-309z" />
    <glyph glyph-name="U" unicode="U" horiz-adv-x="1345" 
d="M588 -23q-212 0 -337.5 112t-125.5 321q0 90 35 221l192 803h310l-199 -826q-23 -94 -23 -155q0 -89 49 -139t132 -50q105 0 172 64q75 75 112 229l211 877h309l-221 -920q-65 -260 -192 -387q-150 -150 -424 -150z" />
    <glyph glyph-name="V" unicode="V" horiz-adv-x="1280" 
d="M356 -10l-120 1444h331l39 -988l508 988h346l-827 -1444h-277z" />
    <glyph glyph-name="W" unicode="W" horiz-adv-x="1978" 
d="M297 -10l-53 1444h319l-6 -963l487 967h271l41 -967l446 963h350l-759 -1444h-291l-41 921l-475 -921h-289z" />
    <glyph glyph-name="X" unicode="X" horiz-adv-x="1222" 
d="M-106 0l587 750l-227 684h346l105 -449l303 449h391l-570 -719l240 -715h-346l-121 483l-321 -483h-387z" />
    <glyph glyph-name="Y" unicode="Y" horiz-adv-x="1132" 
d="M266 0l140 578l-228 856h342l105 -576l379 576h368l-659 -879l-138 -555h-309z" />
    <glyph glyph-name="Z" unicode="Z" horiz-adv-x="1200" 
d="M-39 0l62 238l825 925h-594l72 271h995l-61 -238l-828 -926h621l-70 -270h-1022z" />
    <glyph glyph-name="bracketleft" unicode="[" horiz-adv-x="841" 
d="M-27 -266l414 1700h578l-62 -240h-282l-299 -1221h290l-63 -239h-576z" />
    <glyph glyph-name="backslash" unicode="\" horiz-adv-x="933" 
d="M537 -244l-320 1860h252l319 -1860h-251z" />
    <glyph glyph-name="bracketright" unicode="]" horiz-adv-x="841" 
d="M885 1434l-414 -1700h-577l61 239h283l299 1221h-291l63 240h576z" />
    <glyph glyph-name="asciicircum" unicode="^" horiz-adv-x="899" 
d="M164 1034l344 389h207l151 -389h-196l-90 201l-183 -201h-233z" />
    <glyph glyph-name="underscore" unicode="_" horiz-adv-x="1136" 
d="M-215 -328l59 234h1143l-59 -234h-1143z" />
    <glyph glyph-name="grave" unicode="`" horiz-adv-x="1024" 
d="M690 1206l-194 242l260 115l143 -357h-209z" />
    <glyph glyph-name="a" unicode="a" horiz-adv-x="1050" 
d="M276 -18q-130 0 -203 81t-73 209q0 176 113 289q117 117 317 117q125 0 240 -47l4 18q14 61 14 101q0 108 -158 108q-104 0 -239 -59l-68 243q162 76 361 76q196 0 299.5 -79t103.5 -222q0 -79 -33 -215l-143 -602h-297l27 115q-117 -133 -265 -133zM412 188q75 0 125 59
t75 146l17 72q-76 31 -140 31q-87 0 -133 -52q-53 -53 -53 -141q0 -52 29.5 -83.5t79.5 -31.5z" />
    <glyph glyph-name="b" unicode="b" horiz-adv-x="1189" 
d="M590 -16q-181 0 -275 161l-32 -145h-303l356 1479h307l-115 -482q67 66 128 97.5t135 31.5q141 0 238 -118t97 -328q0 -161 -54 -306.5t-152 -244.5q-151 -145 -330 -145zM543 240q78 0 141 63q60 60 94.5 153.5t34.5 198.5q0 101 -42.5 158t-121.5 57q-80 0 -143 -63
q-60 -60 -93.5 -156.5t-33.5 -197.5t45 -157t119 -56z" />
    <glyph glyph-name="c" unicode="c" horiz-adv-x="954" 
d="M502 -20q-201 0 -318.5 125t-117.5 339q0 149 53 287t147 232q167 161 375 161q137 0 224 -50t151 -146l-223 -178q-37 58 -73.5 86t-84.5 28q-74 0 -137 -63q-59 -59 -95 -158.5t-36 -193.5q0 -102 40.5 -156.5t108.5 -54.5q32 0 63.5 13t50 26t60.5 45l152 -195
q-74 -71 -153.5 -109t-186.5 -38z" />
    <glyph glyph-name="d" unicode="d" horiz-adv-x="1183" 
d="M637 0l27 111q-68 -65 -128.5 -96t-134.5 -31q-144 0 -239.5 117.5t-95.5 328.5q0 160 54.5 307t151.5 244q145 145 330 145q181 0 275 -161l120 514h308l-363 -1479h-305zM543 240q80 0 143 63q60 60 93.5 156.5t33.5 197.5t-45 157t-119 56q-78 0 -141 -63
q-60 -60 -94.5 -153.5t-34.5 -198.5q0 -101 42.5 -158t121.5 -57z" />
    <glyph glyph-name="e" unicode="e" horiz-adv-x="1081" 
d="M983 444h-635q5 -106 50.5 -163.5t131.5 -57.5q58 0 104.5 18.5t104.5 61.5l129 -205q-147 -118 -352 -118q-213 0 -331.5 129t-118.5 352q0 143 54 277.5t150 230.5q157 157 373 157q178 0 285.5 -113t107.5 -298q0 -130 -53 -271zM473 815q-61 -61 -98 -180h368
q13 51 13 96q0 68 -34.5 109t-100.5 41q-82 0 -148 -66z" />
    <glyph glyph-name="f" unicode="f" horiz-adv-x="739" 
d="M25 0l204 846h-116l69 262h113l8 37q41 173 123 252q104 98 289 98q110 0 174 -22l-66 -252q-47 14 -98 14t-78.5 -24.5t-40.5 -71.5l-8 -31h199l-70 -262h-190l-205 -846h-307z" />
    <glyph glyph-name="g" unicode="g" horiz-adv-x="1183" 
d="M430 -311q-131 0 -261.5 38t-234.5 109l148 211q162 -119 328 -119q106 0 176 70q55 55 82 166l16 61q-74 -77 -140.5 -109t-146.5 -32q-141 0 -235 95.5t-94 271.5q0 145 56.5 288.5t154.5 241.5q145 145 317 145q186 0 264 -178l39 160h305l-221 -920
q-36 -143 -74.5 -226t-99.5 -144q-129 -129 -379 -129zM522 326q85 0 152 67q46 46 78 125t32 172q0 85 -40.5 133.5t-108.5 48.5q-45 0 -75.5 -15t-63.5 -48q-53 -53 -84 -142.5t-31 -168.5q0 -172 141 -172z" />
    <glyph glyph-name="h" unicode="h" horiz-adv-x="1103" 
d="M-20 0l356 1479h307l-113 -473q120 120 258 120q123 0 195 -74.5t72 -207.5q0 -88 -37 -223l-150 -621h-307l152 623q18 63 18 118q0 107 -106 107q-69 0 -115 -51t-64 -135l-161 -662h-305z" />
    <glyph glyph-name="i" unicode="i" horiz-adv-x="557" 
d="M-10 0l272 1108h305l-270 -1108h-307zM279 1214l73 279h318l-74 -279h-317z" />
    <glyph glyph-name="j" unicode="j" horiz-adv-x="557" 
d="M-86 -313q-98 0 -172 24l63 232q37 -11 62 -11q114 0 141 134l252 1042h305l-262 -1085q-48 -185 -141.5 -260.5t-247.5 -75.5zM276 1214l72 279h318l-72 -279h-318z" />
    <glyph glyph-name="k" unicode="k" horiz-adv-x="1042" 
d="M-25 0l361 1479h307l-172 -725l315 354h388l-445 -416l182 -692h-338l-100 479l-102 -110l-90 -369h-306z" />
    <glyph glyph-name="l" unicode="l" horiz-adv-x="557" 
d="M-10 0l362 1479h305l-360 -1479h-307z" />
    <glyph glyph-name="m" unicode="m" horiz-adv-x="1685" 
d="M-20 0l270 1108h305l-25 -102q62 58 121.5 89t134.5 31q182 0 242 -176q149 176 334 176q128 0 201 -71t73 -195q0 -115 -34 -239l-152 -621h-305l151 627q19 66 19 118q0 103 -107 103q-66 0 -112.5 -48.5t-65.5 -129.5l-164 -670h-305l152 625q18 63 18 118
q0 105 -106 105q-69 0 -114 -50t-65 -136l-161 -662h-305z" />
    <glyph glyph-name="n" unicode="n" horiz-adv-x="1103" 
d="M-20 0l270 1108h305l-25 -102q120 120 258 120q123 0 195 -74.5t72 -207.5q0 -88 -37 -223l-150 -621h-307l152 623q18 63 18 118q0 107 -106 107q-69 0 -115 -51t-64 -135l-161 -662h-305z" />
    <glyph glyph-name="o" unicode="o" horiz-adv-x="1148" 
d="M633 1126q208 0 329 -131.5t121 -347.5q0 -147 -53 -282t-147 -232q-156 -156 -365 -156q-208 0 -329 132t-121 348q0 149 52 283.5t148 230.5q155 155 365 155zM530 240q75 0 132 57q58 58 91 156t33 186q0 110 -44 167.5t-121 57.5q-75 0 -132 -57q-58 -58 -91 -156
t-33 -186q0 -110 44 -167.5t121 -57.5z" />
    <glyph glyph-name="p" unicode="p" horiz-adv-x="1189" 
d="M590 -16q-181 0 -275 161l-106 -452h-305l346 1415h305l-27 -111q67 66 128 97.5t135 31.5q141 0 238 -118t97 -328q0 -161 -54 -306.5t-152 -244.5q-151 -145 -330 -145zM543 240q78 0 141 63q60 60 94.5 153.5t34.5 198.5q0 101 -42.5 158t-121.5 57q-80 0 -143 -63
q-60 -60 -93.5 -156.5t-33.5 -197.5t45 -157t119 -56z" />
    <glyph glyph-name="q" unicode="q" horiz-adv-x="1191" 
d="M401 -16q-144 0 -239.5 117.5t-95.5 328.5q0 160 54.5 306t151.5 243q147 147 332 147q179 0 273 -161l30 143h307l-344 -1415h-307l101 418q-68 -65 -128.5 -96t-134.5 -31zM543 240q80 0 143 63q60 60 93.5 156.5t33.5 197.5t-45 157t-119 56q-78 0 -141 -63
q-60 -60 -94.5 -153.5t-34.5 -198.5q0 -101 42.5 -158t121.5 -57z" />
    <glyph glyph-name="r" unicode="r" horiz-adv-x="747" 
d="M-20 0l270 1108h305l-43 -174q67 105 145 153.5t189 38.5l-86 -317h-17q-135 0 -217.5 -74t-124.5 -248l-116 -487h-305z" />
    <glyph glyph-name="s" unicode="s" horiz-adv-x="874" 
d="M375 -20q-249 0 -436 202l176 185q143 -156 266 -156q46 0 74 25t28 61q0 39 -29.5 68t-123.5 96q-111 78 -162 149t-51 166q0 144 107 246t284 102q215 0 385 -170l-162 -194q-74 72 -128 102.5t-109 30.5q-36 0 -62 -22.5t-26 -57.5q0 -38 26.5 -64t124.5 -96
q120 -83 168.5 -157.5t48.5 -167.5q0 -145 -112.5 -246.5t-286.5 -101.5z" />
    <glyph glyph-name="t" unicode="t" horiz-adv-x="733" 
d="M324 -14q-116 0 -179 57t-63 156q0 57 22 143l123 504h-118l67 262h115l65 270h308l-66 -270h195l-68 -262h-190l-123 -498q-6 -27 -6 -45q0 -21 15.5 -34t45.5 -13q62 0 129 31l-66 -258q-81 -43 -206 -43z" />
    <glyph glyph-name="u" unicode="u" horiz-adv-x="1097" 
d="M317 -18q-123 0 -194.5 74t-71.5 208q0 88 37 223l150 621h307l-152 -623q-18 -63 -18 -118q0 -107 106 -107q69 0 114.5 51t63.5 135l162 662h305l-270 -1108h-305l24 102q-120 -120 -258 -120z" />
    <glyph glyph-name="v" unicode="v" horiz-adv-x="1067" 
d="M254 -8l-90 1116h311l12 -731l355 731h323l-633 -1116h-278z" />
    <glyph glyph-name="w" unicode="w" horiz-adv-x="1538" 
d="M180 -8l-10 1116h309l-30 -674l319 676h268l4 -678l291 676h301l-561 -1116h-276l-9 678l-329 -678h-277z" />
    <glyph glyph-name="x" unicode="x" horiz-adv-x="1032" 
d="M496 1108l77 -307l195 307h356l-440 -557l188 -551h-321l-82 330l-211 -330h-354l456 580l-184 528h320z" />
    <glyph glyph-name="y" unicode="y" horiz-adv-x="1058" 
d="M264 -10l-82 1118h312l2 -746l331 746h326l-586 -1124q-84 -159 -166.5 -228t-201.5 -69q-145 0 -244 96l145 203q51 -45 97 -45q43 0 67 49z" />
    <glyph glyph-name="z" unicode="z" horiz-adv-x="956" 
d="M-57 0l55 219l577 643h-419l63 246h793l-56 -219l-581 -641h438l-63 -248h-807z" />
    <glyph glyph-name="braceleft" unicode="{" horiz-adv-x="868" 
d="M639 -94l-96 -193q-194 36 -275.5 101.5t-81.5 179.5q0 65 54 190q53 124 53 178q0 56 -41.5 83.5t-136.5 27.5h-54l62 232h55q144 0 201 57q35 37 49.5 91t13.5 146q0 238 111 344q67 64 162 93t235 28l25 -204q-87 -11 -135 -26t-78 -44q-39 -39 -50.5 -95.5
t-9.5 -179.5q0 -178 -75 -253q-77 -77 -232 -99q86 -17 131 -66t45 -120q0 -68 -53 -191q-49 -100 -49 -143q0 -45 34 -73t136 -64z" />
    <glyph glyph-name="bar" unicode="|" horiz-adv-x="673" 
d="M20 -244l457 1860h240l-459 -1860h-238z" />
    <glyph glyph-name="braceright" unicode="}" horiz-adv-x="868" 
d="M248 1272l96 192q194 -36 275 -101t81 -179q0 -68 -53 -191q-53 -124 -53 -178q0 -56 41 -83t137 -27h53l-61 -232h-55q-144 0 -201 -57q-36 -37 -50.5 -92t-13.5 -146q0 -234 -110 -344q-67 -64 -162 -93t-235 -28l-25 205q87 11 135 26t78 44q39 39 50 95t9 179
q0 36 2 62.5t8.5 63.5t23.5 70t42 58q76 76 232 98q-86 17 -131.5 66.5t-45.5 120.5q0 65 54 190q49 100 49 144q0 45 -34 73t-136 64z" />
    <glyph glyph-name="asciitilde" unicode="~" horiz-adv-x="940" 
d="M246 455l-158 77q49 120 123.5 190.5t163.5 70.5q80 0 147 -54q62 -49 99 -49q73 0 129 113l157 -78q-49 -120 -123 -190t-163 -70q-79 0 -148 53q-36 29 -56.5 39t-41.5 10q-70 0 -129 -112z" />
    <glyph glyph-name="uni00A0" unicode="&#xa0;" horiz-adv-x="0" 
 />
    <glyph glyph-name="exclamdown" unicode="&#xa1;" horiz-adv-x="628" 
d="M498 946l-125 -905l-8 -41h-361l8 41l318 905h168zM698 1434l-82 -326h-327l82 326h327z" />
    <glyph glyph-name="cent" unicode="&#xa2;" horiz-adv-x="1032" 
d="M768 1444h203l-66 -193q109 -56 182 -168l-215 -159q-33 42 -63 65l-184 -577q83 11 168 71l141 -198q-50 -39 -90 -64t-113 -48t-153 -23h-33l-56 -162h-202l71 207q-118 55 -180.5 167.5t-62.5 276.5q0 145 48.5 278t137.5 222q154 157 391 157h25zM414 647
q0 -112 49 -174l172 557q-59 -15 -107 -63q-54 -54 -84 -145t-30 -175z" />
    <glyph glyph-name="sterling" unicode="&#xa3;" horiz-adv-x="1130" 
d="M-35 0l53 203l146 51l74 307h-142l66 252h135l51 217q47 194 152 299q125 125 334 125q127 0 227.5 -59.5t159.5 -159.5l-242 -176q-67 108 -164 108q-59 0 -102 -43q-49 -53 -70 -145l-37 -166h367l-66 -252h-362l-68 -293h508l-70 -268h-950z" />
    <glyph glyph-name="yen" unicode="&#xa5;" horiz-adv-x="1230" 
d="M332 0l47 199h-305l55 215h303l31 127h-305l57 215h229l-188 678h330l102 -525l352 525h363l-522 -678h239l-55 -215h-305l-33 -127h309l-57 -215h-303l-49 -199h-295z" />
    <glyph glyph-name="section" unicode="&#xa7;" horiz-adv-x="1124" 
d="M1096 743q0 -59 -22.5 -107.5t-60.5 -80t-80.5 -51.5t-88.5 -29q61 -73 61 -178q0 -131 -111 -222t-300 -91q-265 0 -422 170l178 180q124 -121 250 -121q57 0 85.5 21t28.5 53q0 34 -32.5 55.5t-135.5 58.5q-53 19 -89 34t-77.5 35.5t-68.5 42t-51 49t-35.5 61.5
t-11.5 73q0 60 22.5 108t60.5 79t78.5 50t87.5 30q-59 71 -59 180q0 131 111.5 222t300.5 91q265 0 422 -170l-179 -180q-124 121 -249 121q-57 0 -86 -21t-29 -53q0 -34 32.5 -56t135.5 -59q64 -23 105.5 -40.5t89.5 -45t75 -55t45.5 -67.5t18.5 -87zM399 750
q0 -37 25.5 -59t85.5 -50q134 -51 190 -51q42 0 75.5 27t33.5 73q0 38 -26 59.5t-87 49.5q-131 51 -190 51q-41 0 -74 -27t-33 -73z" />
    <glyph glyph-name="dieresis" unicode="&#xa8;" horiz-adv-x="1024" 
d="M342 1212l68 267h284l-69 -267h-283zM735 1212l70 267h282l-67 -267h-285z" />
    <glyph glyph-name="copyright" unicode="&#xa9;" horiz-adv-x="1507" 
d="M739 311q-136 0 -220.5 90.5t-84.5 241.5q0 106 39.5 207.5t110.5 169.5q117 117 272 117q167 0 266 -148l-137 -106q-35 47 -66 69.5t-77 22.5q-74 0 -131 -57q-42 -42 -69.5 -117.5t-27.5 -149.5q0 -85 37 -132.5t103 -47.5q75 0 157 70l93 -123q-120 -107 -265 -107z
M1458 838q0 -183 -65 -356t-187 -298q-209 -209 -495 -209q-178 0 -313 83.5t-205 223.5t-70 314q0 182 66 357.5t186 295.5q209 209 495 209q178 0 313 -83t205 -223t70 -314zM205 602q0 -153 57 -275t173.5 -196t275.5 -74q256 0 432 176q114 114 172.5 274.5t58.5 328.5
q0 150 -57 271t-173.5 195t-275.5 74q-257 0 -430 -176q-114 -114 -173.5 -274.5t-59.5 -323.5z" />
    <glyph glyph-name="ordfeminine" unicode="&#xaa;" horiz-adv-x="710" 
d="M352 815q-72 0 -114.5 44t-42.5 116q0 99 65.5 162t165.5 63q63 0 141 -29l6 23q7 24 7 41q0 63 -82 63q-68 0 -144 -30l-41 133q103 41 211 41q104 0 160.5 -47.5t56.5 -130.5q0 -37 -14 -103l-82 -334h-162l15 58q-67 -70 -146 -70zM426 930q40 0 70 33.5t43 83.5l8 32
q-49 17 -86 17q-48 0 -74.5 -30t-26.5 -71q-1 -30 17 -47.5t49 -17.5zM102 586l33 127h496l-33 -127h-496z" />
    <glyph glyph-name="guillemotleft" unicode="&#xab;" horiz-adv-x="1206" 
d="M313 68l-229 454l4 17l471 471l152 -150l-310 -356l136 -340zM813 68l-227 454l4 17l471 471l151 -150l-309 -356l135 -340z" />
    <glyph glyph-name="registered" unicode="&#xae;" horiz-adv-x="688" 
d="M518 1458q131 0 209 -85.5t78 -213.5q0 -89 -32 -174.5t-93 -146.5q-103 -103 -246 -103q-132 0 -210.5 85.5t-78.5 213.5q0 89 32.5 174.5t92.5 145.5q104 104 248 104zM438 772q121 0 211 90q58 58 87.5 136t29.5 157q0 111 -67 187.5t-185 76.5q-123 0 -211 -88
q-58 -58 -87.5 -136t-29.5 -159q0 -111 67 -187.5t185 -76.5zM420 1026l-27 -117h-102l94 387h119q153 0 153 -120q0 -51 -25 -82.5t-73 -51.5l47 -133h-104l-41 117h-41zM442 1110h37q46 0 64 18q14 14 14 37q0 43 -57 43h-35z" />
    <glyph glyph-name="macron" unicode="&#xaf;" horiz-adv-x="1024" 
d="M344 1206l55 209h652l-54 -209h-653z" />
    <glyph glyph-name="degree" unicode="&#xb0;" horiz-adv-x="837" 
d="M543 1448q133 0 210.5 -83t77.5 -220q0 -177 -122 -299q-98 -98 -238 -98q-135 0 -213 83.5t-78 219.5q0 176 123 299q98 98 240 98zM477 897q70 0 121 51q74 74 74 189q0 73 -36 117t-101 44q-70 0 -119 -49q-76 -76 -76 -190q0 -73 36 -117.5t101 -44.5z" />
    <glyph glyph-name="plusminus" unicode="&#xb1;" horiz-adv-x="1134" 
d="M410 459l75 303l-315 -2l68 264l313 -2l74 303h270l-76 -303l316 2l-68 -264l-315 2l-70 -303h-272zM-4 61l65 254h897l-65 -254h-897z" />
    <glyph glyph-name="two.sup" unicode="&#xb2;" 
d="M166 885l39 147l356 275q53 43 73.5 73t20.5 60t-23 49.5t-63 19.5q-77 0 -174 -86l-104 123q127 127 284 127q122 0 193.5 -60.5t71.5 -158.5q0 -49 -11.5 -84t-54.5 -82t-125 -106l-200 -144h301l-39 -153h-545z" />
    <glyph glyph-name="three.sup" unicode="&#xb3;" 
d="M465 868q-180 0 -287 115l111 125q5 -3 21 -16t22 -17.5t21 -14t25 -13.5t25 -9.5t31.5 -7.5t34.5 -2q54 0 88.5 33.5t34.5 71.5q0 87 -156 90h-45v108l223 170h-270l39 158h506l-33 -131l-258 -191q176 -36 176 -192q0 -119 -86 -198t-223 -79z" />
    <glyph glyph-name="acute" unicode="&#xb4;" horiz-adv-x="1024" 
d="M428 1206l305 357l250 -115l-307 -242h-248z" />
    <glyph glyph-name="mu" unicode="&#xb5;" horiz-adv-x="1204" 
d="M477 -12q-158 0 -211 164h-4q3 -139 -35 -302l-39 -159h-284l344 1407h289l-150 -623q-16 -70 -16 -110q0 -60 34 -93.5t97 -33.5q148 0 194 186l162 674h291l-182 -750q-9 -35 -9 -59q0 -58 82 -58q11 0 56 5l-58 -226q-64 -22 -143 -22q-156 0 -199 131
q-86 -131 -219 -131z" />
    <glyph glyph-name="paragraph" unicode="&#xb6;" horiz-adv-x="1124" 
d="M541 0l100 432q-263 9 -381 127q-113 113 -113 309q0 234 158 392q174 174 518 174h375l-350 -1434h-307z" />
    <glyph glyph-name="periodcentered" unicode="&#xb7;" horiz-adv-x="559" 
d="M94 471l82 328h332l-84 -328h-330z" />
    <glyph glyph-name="cedilla" unicode="&#xb8;" horiz-adv-x="1024" 
d="M352 -328l-229 105l223 243h221z" />
    <glyph glyph-name="one.sup" unicode="&#xb9;" horiz-adv-x="587" 
d="M330 885l141 581l-149 -57l-15 154l256 100h131l-190 -778h-174z" />
    <glyph glyph-name="ordmasculine" unicode="&#xba;" horiz-adv-x="735" 
d="M104 586l33 127h502l-35 -127h-500zM360 1077q0 -53 24.5 -87t70.5 -34q42 0 77 35q33 30 50.5 83.5t17.5 105.5q0 53 -24 86.5t-70 33.5q-44 0 -78 -34q-31 -31 -49.5 -85t-18.5 -104zM764 1182q0 -80 -29.5 -154.5t-85.5 -128.5q-81 -84 -200 -84q-116 0 -184 70.5
t-68 189.5q0 80 29 154.5t85 128.5q86 86 201 86q116 0 184 -71.5t68 -190.5z" />
    <glyph glyph-name="guillemotright" unicode="&#xbb;" horiz-adv-x="1206" 
d="M887 1010l229 -455l-4 -16l-471 -471l-152 149l310 356l-135 340zM387 1010l227 -455l-4 -16l-471 -471l-151 149l309 356l-135 340z" />
    <glyph glyph-name="onequarter" unicode="&#xbc;" horiz-adv-x="1490" 
d="M244 659l139 584l-150 -59l-12 153l254 103h131l-188 -781h-174zM33 0l639 752l559 682h176l-639 -752l-559 -682h-176zM1004 0l38 158h-352l37 161l447 463h184l-119 -487h94l-37 -137h-94l-39 -158h-159zM879 293h200l64 282h-4z" />
    <glyph glyph-name="onehalf" unicode="&#xbd;" horiz-adv-x="1490" 
d="M684 0l39 147l356 275q53 43 74 73t21 60t-23.5 50t-63.5 20q-77 0 -174 -86l-104 123q126 126 285 126q121 0 192.5 -60.5t71.5 -158.5q0 -49 -11.5 -84t-54.5 -82t-125 -106l-200 -143h301l-39 -154h-545zM2 0l639 752l559 682h176l-639 -752l-559 -682h-176zM244 659
l139 584l-150 -59l-12 153l254 103h131l-188 -781h-174z" />
    <glyph glyph-name="threequarters" unicode="&#xbe;" horiz-adv-x="1626" 
d="M1141 0l39 158h-353l37 161l447 463h184l-119 -487h94l-36 -137h-95l-39 -158h-159zM1016 293h201l63 282h-4zM164 0l639 752l559 682h176l-639 -752l-559 -682h-176zM369 643q-172 0 -287 115l111 125q4 -3 16.5 -12.5t17 -13t16 -11.5t18 -11.5t18 -9.5t21 -8.5t22 -6
t25.5 -4.5t28 -1q54 0 88.5 32t34.5 70q0 42 -40.5 66t-117.5 24h-45v109l223 170h-270l41 158h506l-35 -131l-258 -189q176 -41 176 -194q0 -119 -86 -198t-223 -79z" />
    <glyph glyph-name="questiondown" unicode="&#xbf;" horiz-adv-x="968" 
d="M754 946l-39 -344l-13 -12q-176 -20 -265 -75.5t-89 -135.5q0 -54 31.5 -83.5t91.5 -29.5q105 0 236 101l155 -224q-186 -159 -424 -159q-191 0 -302 100.5t-111 253.5q0 174 116 287.5t351 156.5l55 164h207zM928 1434l-82 -326h-328l82 326h328z" />
    <glyph glyph-name="Agrave" unicode="&#xc0;" horiz-adv-x="1347" 
d="M-109 0l859 1444h301l153 -1444h-317l-25 322h-461l-178 -322h-332zM575 596h256l-22 469zM815 1546l-223 201l268 113l166 -314h-211z" />
    <glyph glyph-name="Aacute" unicode="&#xc1;" horiz-adv-x="1347" 
d="M-109 0l859 1444h301l153 -1444h-317l-25 322h-461l-178 -322h-332zM575 596h256l-22 469zM795 1546l309 314l252 -113l-309 -201h-252z" />
    <glyph glyph-name="Acircumflex" unicode="&#xc2;" horiz-adv-x="1347" 
d="M-109 0l859 1444h301l153 -1444h-317l-25 322h-461l-178 -322h-332zM575 596h256l-22 469zM522 1540l316 295h290l170 -295h-223l-121 113l-176 -113h-256z" />
    <glyph glyph-name="Atilde" unicode="&#xc3;" horiz-adv-x="1347" 
d="M-109 0l859 1444h301l153 -1444h-317l-25 322h-461l-178 -322h-332zM575 596h256l-22 469zM698 1536l-161 57q56 130 117 195t157 65q49 0 87 -11t91 -34q64 -34 103 -34q40 0 66.5 22t55.5 70l164 -58q-59 -132 -120 -196t-156 -64q-49 0 -87 11t-91 34q-65 35 -103 35
q-40 0 -67 -22t-56 -70z" />
    <glyph glyph-name="Adieresis" unicode="&#xc4;" horiz-adv-x="1347" 
d="M-109 0l859 1444h301l153 -1444h-317l-25 322h-461l-178 -322h-332zM575 596h256l-22 469zM588 1552l63 252h285l-66 -252h-282zM987 1552l66 252h284l-65 -252h-285z" />
    <glyph glyph-name="Aring" unicode="&#xc5;" horiz-adv-x="1347" 
d="M-109 0l822 1382q-33 47 -33 103q0 99 67 167t191 68q92 0 155.5 -56t63.5 -134q0 -119 -94 -189l141 -1341h-317l-25 322h-461l-178 -322h-332zM575 596h256l-22 469zM905 1401q61 0 96 37t35 80q0 44 -29.5 71t-74.5 27q-61 0 -96 -37.5t-35 -83.5q0 -42 28.5 -68
t75.5 -26z" />
    <glyph glyph-name="AE" unicode="&#xc6;" horiz-adv-x="1824" 
d="M-135 0l981 1434h1089l-73 -277h-568l-65 -299h493l-71 -272h-494l-72 -310h580l-72 -276h-884l75 322h-381l-206 -322h-332zM610 596h246l133 569h-28z" />
    <glyph glyph-name="Ccedilla" unicode="&#xc7;" horiz-adv-x="1228" 
d="M471 -328l-229 105l219 239q-168 61 -261.5 205t-93.5 352q0 183 69 364.5t190 307.5q107 104 224 156.5t261 52.5q154 0 275 -64.5t204 -179.5l-242 -204q-61 83 -119 122t-139 39q-121 0 -227 -106q-78 -78 -127 -208t-49 -269q0 -143 71 -230.5t193 -87.5
q117 0 246 105l174 -219q-190 -172 -418 -172h-30z" />
    <glyph glyph-name="Egrave" unicode="&#xc8;" horiz-adv-x="1159" 
d="M723 1530l-223 201l268 112l166 -313h-211zM6 0l350 1434h912l-72 -277h-602l-68 -299h529l-72 -272h-528l-70 -310h614l-73 -276h-920z" />
    <glyph glyph-name="Eacute" unicode="&#xc9;" horiz-adv-x="1159" 
d="M698 1530l310 313l252 -112l-310 -201h-252zM6 0l350 1434h912l-72 -277h-602l-68 -299h529l-72 -272h-528l-70 -310h614l-73 -276h-920z" />
    <glyph glyph-name="Ecircumflex" unicode="&#xca;" horiz-adv-x="1159" 
d="M6 0l350 1434h912l-72 -277h-602l-68 -299h529l-72 -272h-528l-70 -310h614l-73 -276h-920zM432 1534l316 295h290l170 -295h-223l-121 113l-176 -113h-256z" />
    <glyph glyph-name="Edieresis" unicode="&#xcb;" horiz-adv-x="1159" 
d="M492 1536l63 252h285l-66 -252h-282zM891 1536l65 252h285l-65 -252h-285zM6 0l350 1434h912l-72 -277h-602l-68 -299h529l-72 -272h-528l-70 -310h614l-73 -276h-920z" />
    <glyph glyph-name="Igrave" unicode="&#xcc;" horiz-adv-x="622" 
d="M20 0l351 1434h311l-350 -1434h-312zM440 1530l-223 201l268 112l166 -313h-211z" />
    <glyph glyph-name="Iacute" unicode="&#xcd;" horiz-adv-x="622" 
d="M20 0l351 1434h311l-350 -1434h-312zM420 1530l309 313l252 -112l-309 -201h-252z" />
    <glyph glyph-name="Icircumflex" unicode="&#xce;" horiz-adv-x="622" 
d="M20 0l351 1434h311l-350 -1434h-312zM152 1534l315 295h291l170 -295h-223l-121 113l-176 -113h-256z" />
    <glyph glyph-name="Idieresis" unicode="&#xcf;" horiz-adv-x="622" 
d="M20 0l351 1434h311l-350 -1434h-312zM213 1536l63 252h285l-65 -252h-283zM612 1536l66 252h285l-66 -252h-285z" />
    <glyph glyph-name="Eth" unicode="&#xd0;" horiz-adv-x="1382" 
d="M14 584l72 274h156l141 576h358q313 0 469 -156q146 -146 146 -424q0 -164 -64.5 -335t-187.5 -294q-114 -114 -268 -169.5t-371 -55.5h-432l141 584h-160zM958 1075q-71 78 -241 78h-96l-70 -295h205l-74 -274h-197l-71 -303h90q236 0 368 135q80 80 122 198.5t42 229.5
q0 156 -78 231z" />
    <glyph glyph-name="Ntilde" unicode="&#xd1;" horiz-adv-x="1380" 
d="M698 1520l-161 57q56 130 117 195t157 65q49 0 87 -11t91 -34q65 -35 103 -35q40 0 66.5 22t55.5 70l164 -57q-59 -132 -120 -196t-156 -64q-49 0 -87 11t-91 34q-65 35 -103 35q-40 0 -67 -22t-56 -70zM6 0l350 1434h289l291 -899l213 899h305l-350 -1434h-268l-306 930
l-217 -930h-307z" />
    <glyph glyph-name="Ograve" unicode="&#xd2;" horiz-adv-x="1427" 
d="M831 1546l-223 201l269 113l165 -314h-211zM862 1456q164 0 287.5 -74t188.5 -205.5t65 -302.5q0 -186 -70 -377t-196 -317q-203 -203 -494 -203q-248 0 -394.5 160t-146.5 422q0 185 71 377t196 317q203 203 493 203zM682 264q121 0 219 98q82 82 132 224.5t50 265.5
q0 151 -66.5 234t-193.5 83q-125 0 -219 -98q-82 -82 -132 -224t-50 -265q0 -151 66.5 -234.5t193.5 -83.5z" />
    <glyph glyph-name="Oacute" unicode="&#xd3;" horiz-adv-x="1427" 
d="M795 1546l309 314l252 -113l-309 -201h-252zM862 1456q164 0 287.5 -74t188.5 -205.5t65 -302.5q0 -186 -70 -377t-196 -317q-203 -203 -494 -203q-248 0 -394.5 160t-146.5 422q0 185 71 377t196 317q203 203 493 203zM682 264q121 0 219 98q82 82 132 224.5t50 265.5
q0 151 -66.5 234t-193.5 83q-125 0 -219 -98q-82 -82 -132 -224t-50 -265q0 -151 66.5 -234.5t193.5 -83.5z" />
    <glyph glyph-name="Ocircumflex" unicode="&#xd4;" horiz-adv-x="1427" 
d="M862 1456q164 0 287.5 -74t188.5 -205.5t65 -302.5q0 -186 -70 -377t-196 -317q-203 -203 -494 -203q-248 0 -394.5 160t-146.5 422q0 185 71 377t196 317q203 203 493 203zM682 264q121 0 219 98q82 82 132 224.5t50 265.5q0 151 -66.5 234t-193.5 83q-125 0 -219 -98
q-82 -82 -132 -224t-50 -265q0 -151 66.5 -234.5t193.5 -83.5zM543 1550l315 295h291l170 -295h-223l-121 113l-176 -113h-256z" />
    <glyph glyph-name="Otilde" unicode="&#xd5;" horiz-adv-x="1427" 
d="M717 1536l-162 57q56 130 117 195t157 65q76 0 179 -45q64 -34 102 -34q40 0 67 22t56 70l164 -58q-29 -64 -54.5 -107.5t-58.5 -80t-73.5 -54.5t-90.5 -18q-49 0 -87 11t-91 34q-65 35 -102 35q-40 0 -67 -22t-56 -70zM862 1456q164 0 287.5 -74t188.5 -205.5t65 -302.5
q0 -186 -70 -377t-196 -317q-203 -203 -494 -203q-248 0 -394.5 160t-146.5 422q0 185 71 377t196 317q203 203 493 203zM682 264q121 0 219 98q82 82 132 224.5t50 265.5q0 151 -66.5 234t-193.5 83q-125 0 -219 -98q-82 -82 -132 -224t-50 -265q0 -151 66.5 -234.5
t193.5 -83.5z" />
    <glyph glyph-name="Odieresis" unicode="&#xd6;" horiz-adv-x="1427" 
d="M604 1552l64 252h284l-65 -252h-283zM1004 1552l65 252h285l-66 -252h-284zM862 1456q164 0 287.5 -74t188.5 -205.5t65 -302.5q0 -186 -70 -377t-196 -317q-203 -203 -494 -203q-248 0 -394.5 160t-146.5 422q0 185 71 377t196 317q203 203 493 203zM682 264
q121 0 219 98q82 82 132 224.5t50 265.5q0 151 -66.5 234t-193.5 83q-125 0 -219 -98q-82 -82 -132 -224t-50 -265q0 -151 66.5 -234.5t193.5 -83.5z" />
    <glyph glyph-name="multiply" unicode="&#xd7;" horiz-adv-x="1134" 
d="M254 260l-160 209l332 266l-195 262l232 183l184 -271l330 273l158 -209l-332 -264l194 -260l-229 -185l-186 266z" />
    <glyph glyph-name="Oslash" unicode="&#xd8;" horiz-adv-x="1427" 
d="M862 1456q206 0 338 -108l90 98h285l-244 -258q72 -135 72 -314q0 -186 -70 -377t-196 -317q-203 -203 -494 -203q-207 0 -340 109l-88 -96h-285l242 256q-70 134 -70 313q0 185 71 377t196 317q203 203 493 203zM680 250q128 0 227 104q84 81 136.5 227.5t52.5 278.5
q0 44 -6 84l-576 -645q61 -49 166 -49zM410 575q0 -45 6 -83l575 643q-68 49 -166 49q-129 0 -227 -103q-84 -84 -136 -228.5t-52 -277.5z" />
    <glyph glyph-name="Ugrave" unicode="&#xd9;" horiz-adv-x="1345" 
d="M786 1530l-223 201l268 112l166 -313h-211zM588 -23q-212 0 -337.5 112t-125.5 321q0 90 35 221l192 803h310l-199 -826q-23 -94 -23 -155q0 -89 49 -139t132 -50q105 0 172 64q75 75 112 229l211 877h309l-221 -920q-65 -260 -192 -387q-150 -150 -424 -150z" />
    <glyph glyph-name="Uacute" unicode="&#xda;" horiz-adv-x="1345" 
d="M768 1530l309 313l252 -112l-309 -201h-252zM588 -23q-212 0 -337.5 112t-125.5 321q0 90 35 221l192 803h310l-199 -826q-23 -94 -23 -155q0 -89 49 -139t132 -50q105 0 172 64q75 75 112 229l211 877h309l-221 -920q-65 -260 -192 -387q-150 -150 -424 -150z" />
    <glyph glyph-name="Ucircumflex" unicode="&#xdb;" horiz-adv-x="1345" 
d="M588 -23q-212 0 -337.5 112t-125.5 321q0 90 35 221l192 803h310l-199 -826q-23 -94 -23 -155q0 -89 49 -139t132 -50q105 0 172 64q75 75 112 229l211 877h309l-221 -920q-65 -260 -192 -387q-150 -150 -424 -150zM500 1534l315 295h291l170 -295h-223l-121 113
l-176 -113h-256z" />
    <glyph glyph-name="Udieresis" unicode="&#xdc;" horiz-adv-x="1345" 
d="M559 1536l64 252h284l-65 -252h-283zM958 1536l66 252h285l-66 -252h-285zM588 -23q-212 0 -337.5 112t-125.5 321q0 90 35 221l192 803h310l-199 -826q-23 -94 -23 -155q0 -89 49 -139t132 -50q105 0 172 64q75 75 112 229l211 877h309l-221 -920q-65 -260 -192 -387
q-150 -150 -424 -150z" />
    <glyph glyph-name="Yacute" unicode="&#xdd;" horiz-adv-x="1132" 
d="M266 0l140 578l-228 856h342l105 -576l379 576h368l-659 -879l-138 -555h-309zM645 1530l309 313l252 -112l-309 -201h-252z" />
    <glyph glyph-name="Thorn" unicode="&#xde;" horiz-adv-x="1206" 
d="M6 0l350 1434h312l-52 -207h46q150 0 247.5 -30.5t169.5 -102.5q111 -108 111 -299q0 -235 -154 -389q-87 -87 -213 -134t-278 -47h-174l-54 -225h-311zM440 498h119q144 0 232 82q73 73 73 192q0 71 -45 123q-30 30 -70 41.5t-102 11.5h-102z" />
    <glyph glyph-name="germandbls" unicode="&#xdf;" horiz-adv-x="1118" 
d="M383 -4l63 235q130 -7 203.5 58t73.5 164q0 145 -186 176l51 196q114 24 175.5 97.5t61.5 169.5q0 68 -34.5 104.5t-85.5 36.5q-66 0 -105.5 -44.5t-62.5 -141.5l-254 -1047h-303l258 1061q48 202 157 311q119 119 318 119q187 0 293 -102.5t106 -266.5
q0 -140 -72 -250.5t-204 -156.5q174 -98 174 -277q0 -77 -24.5 -147.5t-76 -131t-124 -102t-176.5 -58.5t-226 -3z" />
    <glyph glyph-name="agrave" unicode="&#xe0;" horiz-adv-x="1050" 
d="M276 -18q-130 0 -203 81t-73 209q0 176 113 289q117 117 317 117q125 0 240 -47l4 18q14 61 14 101q0 108 -158 108q-104 0 -239 -59l-68 243q162 76 361 76q196 0 299.5 -79t103.5 -222q0 -79 -33 -215l-143 -602h-297l27 115q-117 -133 -265 -133zM412 188q75 0 125 59
t75 146l17 72q-76 31 -140 31q-87 0 -133 -52q-53 -53 -53 -141q0 -52 29.5 -83.5t79.5 -31.5zM563 1208l-194 242l260 115l143 -357h-209z" />
    <glyph glyph-name="aacute" unicode="&#xe1;" horiz-adv-x="1050" 
d="M276 -18q-130 0 -203 81t-73 209q0 176 113 289q117 117 317 117q125 0 240 -47l4 18q14 61 14 101q0 108 -158 108q-104 0 -239 -59l-68 243q162 76 361 76q196 0 299.5 -79t103.5 -222q0 -79 -33 -215l-143 -602h-297l27 115q-117 -133 -265 -133zM412 188q75 0 125 59
t75 146l17 72q-76 31 -140 31q-87 0 -133 -52q-53 -53 -53 -141q0 -52 29.5 -83.5t79.5 -31.5zM553 1208l305 357l250 -115l-307 -242h-248z" />
    <glyph glyph-name="acircumflex" unicode="&#xe2;" horiz-adv-x="1050" 
d="M276 -18q-130 0 -203 81t-73 209q0 176 113 289q117 117 317 117q125 0 240 -47l4 18q14 61 14 101q0 108 -158 108q-104 0 -239 -59l-68 243q162 76 361 76q196 0 299.5 -79t103.5 -222q0 -79 -33 -215l-143 -602h-297l27 115q-117 -133 -265 -133zM412 188q75 0 125 59
t75 146l17 72q-76 31 -140 31q-87 0 -133 -52q-53 -53 -53 -141q0 -52 29.5 -83.5t79.5 -31.5zM293 1210l309 322h291l149 -322h-219l-110 142l-176 -142h-244z" />
    <glyph glyph-name="atilde" unicode="&#xe3;" horiz-adv-x="1050" 
d="M276 -18q-130 0 -203 81t-73 209q0 176 113 289q117 117 317 117q125 0 240 -47l4 18q14 61 14 101q0 108 -158 108q-104 0 -239 -59l-68 243q162 76 361 76q196 0 299.5 -79t103.5 -222q0 -79 -33 -215l-143 -602h-297l27 115q-117 -133 -265 -133zM412 188q75 0 125 59
t75 146l17 72q-76 31 -140 31q-87 0 -133 -52q-53 -53 -53 -141q0 -52 29.5 -83.5t79.5 -31.5zM952 1530l162 -55q-56 -132 -117 -199.5t-153 -67.5q-81 0 -166 49q-66 37 -96 37q-38 0 -64.5 -24t-54.5 -74l-162 55q56 134 116 200.5t154 66.5q72 0 166 -48q59 -36 97 -36
t63 22.5t55 73.5z" />
    <glyph glyph-name="adieresis" unicode="&#xe4;" horiz-adv-x="1050" 
d="M276 -18q-130 0 -203 81t-73 209q0 176 113 289q117 117 317 117q125 0 240 -47l4 18q14 61 14 101q0 108 -158 108q-104 0 -239 -59l-68 243q162 76 361 76q196 0 299.5 -79t103.5 -222q0 -79 -33 -215l-143 -602h-297l27 115q-117 -133 -265 -133zM412 188q75 0 125 59
t75 146l17 72q-76 31 -140 31q-87 0 -133 -52q-53 -53 -53 -141q0 -52 29.5 -83.5t79.5 -31.5zM342 1214l68 267h284l-69 -267h-283zM735 1214l70 267h282l-67 -267h-285z" />
    <glyph glyph-name="aring" unicode="&#xe5;" horiz-adv-x="1050" 
d="M276 -18q-130 0 -203 81t-73 209q0 176 113 289q117 117 317 117q125 0 240 -47l4 18q14 61 14 101q0 108 -158 108q-104 0 -239 -59l-68 243q162 76 361 76q196 0 299.5 -79t103.5 -222q0 -79 -33 -215l-143 -602h-297l27 115q-117 -133 -265 -133zM412 188q75 0 125 59
t75 146l17 72q-76 31 -140 31q-87 0 -133 -52q-53 -53 -53 -141q0 -52 29.5 -83.5t79.5 -31.5zM954 1460q0 -103 -67.5 -178.5t-173.5 -75.5q-92 0 -148.5 55.5t-56.5 139.5q0 102 68.5 179t173.5 77q92 0 148 -56.5t56 -140.5zM621 1411q0 -48 28 -77t70 -29q55 0 89 45
t34 100q0 48 -27.5 77t-69.5 29q-56 0 -90 -44.5t-34 -100.5z" />
    <glyph glyph-name="ae" unicode="&#xe6;" horiz-adv-x="1648" 
d="M1083 -20q-262 0 -364 208q-164 -206 -410 -206q-156 0 -232.5 77.5t-76.5 212.5q0 176 113 289q117 117 317 117q125 0 240 -47l4 18q14 66 14 101q0 108 -158 108q-104 0 -239 -59l-68 243q162 76 363 76q228 0 307 -143q151 151 336 151q165 0 270 -114t105 -297
q0 -127 -54 -271h-635q5 -106 51 -163.5t132 -57.5q58 0 104.5 18.5t104.5 61.5l129 -205q-148 -118 -353 -118zM430 188q57 0 124.5 42t115.5 106q-6 35 -6 113q-34 20 -81 33.5t-87 13.5q-94 0 -140 -52q-53 -53 -53 -141q0 -53 31.5 -84t95.5 -31zM1040 815
q-61 -61 -98 -180h369q12 47 12 96q0 68 -34.5 109t-100.5 41q-82 0 -148 -66z" />
    <glyph glyph-name="ccedilla" unicode="&#xe7;" horiz-adv-x="954" 
d="M326 -328l-230 105l217 237q-118 50 -182.5 161t-64.5 269q0 149 53 287t147 232q167 161 375 161q137 0 224 -50t151 -146l-223 -178q-37 58 -73.5 86t-84.5 28q-74 0 -137 -63q-59 -59 -95 -158.5t-36 -193.5q0 -102 40.5 -156.5t108.5 -54.5q32 0 63.5 13t50 26
t60.5 45l152 -195q-74 -69 -149.5 -106t-178.5 -41z" />
    <glyph glyph-name="egrave" unicode="&#xe8;" horiz-adv-x="1081" 
d="M983 444h-635q5 -106 50.5 -163.5t131.5 -57.5q58 0 104.5 18.5t104.5 61.5l129 -205q-147 -118 -352 -118q-213 0 -331.5 129t-118.5 352q0 143 54 277.5t150 230.5q157 157 373 157q178 0 285.5 -113t107.5 -298q0 -130 -53 -271zM473 815q-61 -61 -98 -180h368
q13 51 13 96q0 68 -34.5 109t-100.5 41q-82 0 -148 -66zM596 1208l-195 242l261 115l143 -357h-209z" />
    <glyph glyph-name="eacute" unicode="&#xe9;" horiz-adv-x="1081" 
d="M584 1208l305 357l250 -115l-308 -242h-247zM983 444h-635q5 -106 50.5 -163.5t131.5 -57.5q58 0 104.5 18.5t104.5 61.5l129 -205q-147 -118 -352 -118q-213 0 -331.5 129t-118.5 352q0 143 54 277.5t150 230.5q157 157 373 157q178 0 285.5 -113t107.5 -298
q0 -130 -53 -271zM473 815q-61 -61 -98 -180h368q13 51 13 96q0 68 -34.5 109t-100.5 41q-82 0 -148 -66z" />
    <glyph glyph-name="ecircumflex" unicode="&#xea;" horiz-adv-x="1081" 
d="M324 1210l309 322h291l149 -322h-219l-111 142l-176 -142h-243zM983 444h-635q5 -106 50.5 -163.5t131.5 -57.5q58 0 104.5 18.5t104.5 61.5l129 -205q-147 -118 -352 -118q-213 0 -331.5 129t-118.5 352q0 143 54 277.5t150 230.5q157 157 373 157q178 0 285.5 -113
t107.5 -298q0 -130 -53 -271zM473 815q-61 -61 -98 -180h368q13 51 13 96q0 68 -34.5 109t-100.5 41q-82 0 -148 -66z" />
    <glyph glyph-name="edieresis" unicode="&#xeb;" horiz-adv-x="1081" 
d="M373 1214l67 267h285l-70 -267h-282zM766 1214l70 267h282l-67 -267h-285zM983 444h-635q5 -106 50.5 -163.5t131.5 -57.5q58 0 104.5 18.5t104.5 61.5l129 -205q-147 -118 -352 -118q-213 0 -331.5 129t-118.5 352q0 143 54 277.5t150 230.5q157 157 373 157
q178 0 285.5 -113t107.5 -298q0 -130 -53 -271zM473 815q-61 -61 -98 -180h368q13 51 13 96q0 68 -34.5 109t-100.5 41q-82 0 -148 -66z" />
    <glyph glyph-name="igrave" unicode="&#xec;" horiz-adv-x="559" 
d="M-8 0l270 1108h307l-270 -1108h-307zM326 1206l-195 242l260 115l144 -357h-209z" />
    <glyph glyph-name="iacute" unicode="&#xed;" horiz-adv-x="559" 
d="M319 1206l306 357l249 -115l-307 -242h-248zM-8 0l270 1108h307l-270 -1108h-307z" />
    <glyph glyph-name="icircumflex" unicode="&#xee;" horiz-adv-x="559" 
d="M57 1208l310 322h290l150 -322h-219l-111 142l-176 -142h-244zM-8 0l270 1108h307l-270 -1108h-307z" />
    <glyph glyph-name="idieresis" unicode="&#xef;" horiz-adv-x="559" 
d="M106 1212l68 267h285l-70 -267h-283zM500 1212l69 267h283l-68 -267h-284zM-8 0l270 1108h307l-270 -1108h-307z" />
    <glyph glyph-name="eth" unicode="&#xf0;" horiz-adv-x="1161" 
d="M457 1159l-45 154l159 39q-34 41 -120 127h368l45 -56l223 56l46 -152l-172 -43q133 -222 133 -493q0 -200 -64 -375t-174 -285q-148 -154 -362 -154q-194 0 -309 120t-115 341q0 159 52.5 301.5t143.5 233.5q137 137 312 137q64 0 111 -20t95 -72q-35 104 -104 196z
M516 236q76 0 135 59q58 61 94.5 164t36.5 203q0 103 -39.5 156.5t-109.5 53.5q-82 0 -146 -67q-55 -55 -90 -156t-35 -203q0 -100 39.5 -155t114.5 -55z" />
    <glyph glyph-name="ntilde" unicode="&#xf1;" horiz-adv-x="1103" 
d="M-20 0l270 1108h305l-25 -102q120 120 258 120q123 0 195 -74.5t72 -207.5q0 -88 -37 -223l-150 -621h-307l152 623q18 63 18 118q0 107 -106 107q-69 0 -115 -51t-64 -135l-161 -662h-305zM969 1530l161 -55q-56 -132 -117 -199.5t-153 -67.5q-81 0 -166 49
q-66 37 -96 37q-38 0 -64.5 -24t-54.5 -74l-162 55q27 65 52 109.5t57 82.5t72.5 56.5t89.5 18.5q72 0 166 -48q59 -36 96 -36q38 0 63.5 23t55.5 73z" />
    <glyph glyph-name="ograve" unicode="&#xf2;" horiz-adv-x="1148" 
d="M633 1126q208 0 329 -131.5t121 -347.5q0 -147 -53 -282t-147 -232q-156 -156 -365 -156q-208 0 -329 132t-121 348q0 149 52 283.5t148 230.5q155 155 365 155zM530 240q75 0 132 57q58 58 91 156t33 186q0 110 -44 167.5t-121 57.5q-75 0 -132 -57q-58 -58 -91 -156
t-33 -186q0 -110 44 -167.5t121 -57.5zM616 1208l-194 242l260 115l143 -357h-209z" />
    <glyph glyph-name="oacute" unicode="&#xf3;" horiz-adv-x="1148" 
d="M588 1208l305 357l250 -115l-307 -242h-248zM633 1126q208 0 329 -131.5t121 -347.5q0 -147 -53 -282t-147 -232q-156 -156 -365 -156q-208 0 -329 132t-121 348q0 149 52 283.5t148 230.5q155 155 365 155zM530 240q75 0 132 57q58 58 91 156t33 186q0 110 -44 167.5
t-121 57.5q-75 0 -132 -57q-58 -58 -91 -156t-33 -186q0 -110 44 -167.5t121 -57.5z" />
    <glyph glyph-name="ocircumflex" unicode="&#xf4;" horiz-adv-x="1148" 
d="M344 1210l309 322h291l150 -322h-220l-110 142l-176 -142h-244zM633 1126q208 0 329 -131.5t121 -347.5q0 -147 -53 -282t-147 -232q-156 -156 -365 -156q-208 0 -329 132t-121 348q0 149 52 283.5t148 230.5q155 155 365 155zM530 240q75 0 132 57q58 58 91 156t33 186
q0 110 -44 167.5t-121 57.5q-75 0 -132 -57q-58 -58 -91 -156t-33 -186q0 -110 44 -167.5t121 -57.5z" />
    <glyph glyph-name="otilde" unicode="&#xf5;" horiz-adv-x="1148" 
d="M633 1126q208 0 329 -131.5t121 -347.5q0 -147 -53 -282t-147 -232q-156 -156 -365 -156q-208 0 -329 132t-121 348q0 149 52 283.5t148 230.5q155 155 365 155zM530 240q75 0 132 57q58 58 91 156t33 186q0 110 -44 167.5t-121 57.5q-75 0 -132 -57q-58 -58 -91 -156
t-33 -186q0 -110 44 -167.5t121 -57.5zM1006 1530l161 -55q-56 -132 -117 -199.5t-153 -67.5q-81 0 -166 49q-66 37 -96 37q-38 0 -64.5 -24t-54.5 -74l-162 55q27 65 52 109.5t57 82.5t72.5 56.5t89.5 18.5q72 0 166 -48q59 -36 96 -36q38 0 63.5 23t55.5 73z" />
    <glyph glyph-name="odieresis" unicode="&#xf6;" horiz-adv-x="1148" 
d="M391 1214l68 267h284l-69 -267h-283zM784 1214l70 267h283l-68 -267h-285zM633 1126q208 0 329 -131.5t121 -347.5q0 -147 -53 -282t-147 -232q-156 -156 -365 -156q-208 0 -329 132t-121 348q0 149 52 283.5t148 230.5q155 155 365 155zM530 240q75 0 132 57
q58 58 91 156t33 186q0 110 -44 167.5t-121 57.5q-75 0 -132 -57q-58 -58 -91 -156t-33 -186q0 -110 44 -167.5t121 -57.5z" />
    <glyph glyph-name="divide" unicode="&#xf7;" horiz-adv-x="1134" 
d="M322 180l71 283h303l-71 -283h-303zM121 592l67 258h908l-70 -258h-905zM520 979l72 283h303l-72 -283h-303z" />
    <glyph glyph-name="oslash" unicode="&#xf8;" horiz-adv-x="1148" 
d="M633 1126q163 0 278 -88l72 76h256l-213 -215q57 -108 57 -252q0 -147 -53 -282t-147 -232q-156 -156 -365 -156q-166 0 -278 86l-72 -75h-256l211 217q-55 113 -55 252q0 149 52 283.5t148 230.5q155 155 365 155zM629 877q-82 0 -148 -66q-60 -60 -93.5 -156.5
t-33.5 -189.5v-35l367 418q-44 29 -92 29zM797 639q0 23 -2 33l-367 -416q43 -29 94 -29q82 0 148 66q60 60 93.5 156.5t33.5 189.5z" />
    <glyph glyph-name="ugrave" unicode="&#xf9;" horiz-adv-x="1097" 
d="M317 -18q-123 0 -194.5 74t-71.5 208q0 88 37 223l150 621h307l-152 -623q-18 -63 -18 -118q0 -107 106 -107q69 0 114.5 51t63.5 135l162 662h305l-270 -1108h-305l24 102q-120 -120 -258 -120zM602 1206l-194 242l260 115l143 -357h-209z" />
    <glyph glyph-name="uacute" unicode="&#xfa;" horiz-adv-x="1097" 
d="M590 1206l305 357l250 -115l-307 -242h-248zM317 -18q-123 0 -194.5 74t-71.5 208q0 88 37 223l150 621h307l-152 -623q-18 -63 -18 -118q0 -107 106 -107q69 0 114.5 51t63.5 135l162 662h305l-270 -1108h-305l24 102q-120 -120 -258 -120z" />
    <glyph glyph-name="ucircumflex" unicode="&#xfb;" horiz-adv-x="1097" 
d="M328 1208l309 322h291l149 -322h-219l-110 142l-177 -142h-243zM317 -18q-123 0 -194.5 74t-71.5 208q0 88 37 223l150 621h307l-152 -623q-18 -63 -18 -118q0 -107 106 -107q69 0 114.5 51t63.5 135l162 662h305l-270 -1108h-305l24 102q-120 -120 -258 -120z" />
    <glyph glyph-name="udieresis" unicode="&#xfc;" horiz-adv-x="1097" 
d="M375 1212l67 267h285l-70 -267h-282zM768 1212l70 267h282l-67 -267h-285zM317 -18q-123 0 -194.5 74t-71.5 208q0 88 37 223l150 621h307l-152 -623q-18 -63 -18 -118q0 -107 106 -107q69 0 114.5 51t63.5 135l162 662h305l-270 -1108h-305l24 102q-120 -120 -258 -120z
" />
    <glyph glyph-name="yacute" unicode="&#xfd;" horiz-adv-x="1058" 
d="M264 -10l-82 1118h312l2 -746l331 746h326l-586 -1124q-84 -159 -166.5 -228t-201.5 -69q-145 0 -244 96l145 203q51 -45 97 -45q43 0 67 49zM557 1206l305 357l250 -115l-307 -242h-248z" />
    <glyph glyph-name="thorn" unicode="&#xfe;" horiz-adv-x="1187" 
d="M643 1479l-117 -482q68 66 128 97.5t134 31.5q141 0 238.5 -118t97.5 -328q0 -161 -54 -306.5t-152 -244.5q-151 -145 -330 -145q-181 0 -275 161l-106 -452h-305l434 1786h307zM541 240q78 0 141 63q60 60 94.5 153.5t34.5 198.5q0 101 -42.5 158t-121.5 57
q-80 0 -143 -63q-60 -60 -93.5 -156.5t-33.5 -197.5t45 -157t119 -56z" />
    <glyph glyph-name="ydieresis" unicode="&#xff;" horiz-adv-x="1058" 
d="M264 -10l-82 1118h312l2 -746l331 746h326l-586 -1124q-84 -159 -166.5 -228t-201.5 -69q-145 0 -244 96l145 203q51 -45 97 -45q43 0 67 49zM346 1212l68 267h284l-69 -267h-283zM739 1212l70 267h283l-68 -267h-285z" />
    <glyph glyph-name="Amacron" unicode="&#x100;" horiz-adv-x="1347" 
d="M-109 0l859 1444h301l153 -1444h-317l-25 322h-461l-178 -322h-332zM575 596h256l-22 469zM573 1548l58 213h702l-55 -213h-705z" />
    <glyph glyph-name="amacron" unicode="&#x101;" horiz-adv-x="1050" 
d="M276 -18q-130 0 -203 81t-73 209q0 176 113 289q117 117 317 117q125 0 240 -47l4 18q14 61 14 101q0 108 -158 108q-104 0 -239 -59l-68 243q162 76 361 76q196 0 299.5 -79t103.5 -222q0 -79 -33 -215l-143 -602h-297l27 115q-117 -133 -265 -133zM412 188q75 0 125 59
t75 146l17 72q-76 31 -140 31q-87 0 -133 -52q-53 -53 -53 -141q0 -52 29.5 -83.5t79.5 -31.5zM346 1208l55 209h652l-54 -209h-653z" />
    <glyph glyph-name="Abreve" unicode="&#x102;" horiz-adv-x="1347" 
d="M-109 0l859 1444h301l153 -1444h-317l-25 322h-461l-178 -322h-332zM575 596h256l-22 469zM922 1546q-154 0 -235.5 76t-61.5 215h194q22 -92 142 -92q64 0 102.5 22.5t69.5 69.5h221q-49 -140 -163 -215.5t-269 -75.5z" />
    <glyph glyph-name="abreve" unicode="&#x103;" horiz-adv-x="1050" 
d="M276 -18q-130 0 -203 81t-73 209q0 176 113 289q117 117 317 117q125 0 240 -47l4 18q14 61 14 101q0 108 -158 108q-104 0 -239 -59l-68 243q162 76 361 76q196 0 299.5 -79t103.5 -222q0 -79 -33 -215l-143 -602h-297l27 115q-117 -133 -265 -133zM412 188q75 0 125 59
t75 146l17 72q-76 31 -140 31q-87 0 -133 -52q-53 -53 -53 -141q0 -52 29.5 -83.5t79.5 -31.5zM705 1206q-83 0 -146.5 25t-101 69t-56 99.5t-18.5 120.5h211q5 -50 37 -83.5t84 -33.5q66 0 105.5 29t74.5 88h209q-47 -142 -149 -228t-250 -86z" />
    <glyph glyph-name="Aogonek" unicode="&#x104;" horiz-adv-x="1347" 
d="M1196 -170l-35 -135q-52 -8 -108 -8q-90 -4 -141.5 29t-51.5 94q0 86 113 190h-86l-25 322h-461l-178 -322h-332l859 1444h301l153 -1444h-41q-38 -46 -53.5 -72.5t-15.5 -50.5q0 -53 102 -47zM575 596h256l-22 469z" />
    <glyph glyph-name="aogonek" unicode="&#x105;" horiz-adv-x="1050" 
d="M803 -170l-35 -135q-52 -8 -109 -8q-90 -4 -141 29t-51 94q0 86 113 190h-66l27 115q-117 -133 -265 -133q-130 0 -203 81t-73 209q0 176 113 289q117 117 317 117q125 0 240 -47l4 18q14 61 14 101q0 108 -158 108q-104 0 -239 -59l-68 243q162 76 361 76
q196 0 299.5 -79t103.5 -222q0 -79 -33 -215l-143 -602h-41q-38 -46 -54 -73t-16 -50q0 -53 103 -47zM412 188q75 0 125 59t75 146l17 72q-76 31 -140 31q-87 0 -133 -52q-53 -53 -53 -141q0 -52 29.5 -83.5t79.5 -31.5z" />
    <glyph glyph-name="Cacute" unicode="&#x106;" horiz-adv-x="1228" 
d="M692 -20q-266 0 -426 159.5t-160 433.5q0 183 69 364.5t190 307.5q107 104 224 156.5t261 52.5q154 0 275 -64.5t204 -179.5l-242 -204q-61 83 -119 122t-139 39q-121 0 -227 -106q-78 -78 -127 -208t-49 -269q0 -143 71 -230.5t193 -87.5q117 0 246 105l174 -219
q-190 -172 -418 -172zM795 1546l309 314l252 -113l-309 -201h-252z" />
    <glyph glyph-name="cacute" unicode="&#x107;" horiz-adv-x="954" 
d="M561 1208l305 357l250 -115l-307 -242h-248zM502 -20q-201 0 -318.5 125t-117.5 339q0 149 53 287t147 232q167 161 375 161q137 0 224 -50t151 -146l-223 -178q-37 58 -73.5 86t-84.5 28q-74 0 -137 -63q-59 -59 -95 -158.5t-36 -193.5q0 -102 40.5 -156.5t108.5 -54.5
q32 0 63.5 13t50 26t60.5 45l152 -195q-74 -71 -153.5 -109t-186.5 -38z" />
    <glyph glyph-name="Cdotaccent" unicode="&#x10a;" horiz-adv-x="1228" 
d="M784 1552l64 252h293l-66 -252h-291zM692 -20q-266 0 -426 159.5t-160 433.5q0 183 69 364.5t190 307.5q107 104 224 156.5t261 52.5q154 0 275 -64.5t204 -179.5l-242 -204q-61 83 -119 122t-139 39q-121 0 -227 -106q-78 -78 -127 -208t-49 -269q0 -143 71 -230.5
t193 -87.5q117 0 246 105l174 -219q-190 -172 -418 -172z" />
    <glyph glyph-name="cdotaccent" unicode="&#x10b;" horiz-adv-x="954" 
d="M502 -20q-201 0 -318.5 125t-117.5 339q0 149 53 287t147 232q167 161 375 161q137 0 224 -50t151 -146l-223 -178q-37 58 -73.5 86t-84.5 28q-74 0 -137 -63q-59 -59 -95 -158.5t-36 -193.5q0 -102 40.5 -156.5t108.5 -54.5q32 0 63.5 13t50 26t60.5 45l152 -195
q-74 -71 -153.5 -109t-186.5 -38zM537 1217l69 262h295l-70 -262h-294z" />
    <glyph glyph-name="Ccaron" unicode="&#x10c;" horiz-adv-x="1228" 
d="M692 -20q-266 0 -426 159.5t-160 433.5q0 183 69 364.5t190 307.5q107 104 224 156.5t261 52.5q154 0 275 -64.5t204 -179.5l-242 -204q-61 83 -119 122t-139 39q-121 0 -227 -106q-78 -78 -127 -208t-49 -269q0 -143 71 -230.5t193 -87.5q117 0 246 105l174 -219
q-190 -172 -418 -172zM1399 1845l-316 -295h-290l-168 295h221l123 -114l174 114h256z" />
    <glyph glyph-name="ccaron" unicode="&#x10d;" horiz-adv-x="954" 
d="M510 1210l-150 322h220l110 -139l176 139h242l-307 -322h-291zM502 -20q-201 0 -318.5 125t-117.5 339q0 149 53 287t147 232q167 161 375 161q137 0 224 -50t151 -146l-223 -178q-37 58 -73.5 86t-84.5 28q-74 0 -137 -63q-59 -59 -95 -158.5t-36 -193.5
q0 -102 40.5 -156.5t108.5 -54.5q32 0 63.5 13t50 26t60.5 45l152 -195q-74 -71 -153.5 -109t-186.5 -38z" />
    <glyph glyph-name="Dcaron" unicode="&#x10e;" horiz-adv-x="1357" 
d="M1319 1829l-315 -295h-291l-168 295h221l123 -115l174 115h256zM6 0l350 1434h361q311 0 467 -156q147 -147 147 -424q0 -165 -64.5 -334.5t-189.5 -294.5q-114 -114 -268.5 -169.5t-368.5 -55.5h-434zM934 1075q-78 78 -242 78h-98l-207 -872h92q237 0 369 135
q80 80 121 198t41 230q0 155 -76 231z" />
    <glyph glyph-name="dcaron" unicode="&#x10f;" horiz-adv-x="1183" 
d="M1315 1196l100 426h230v-6l-211 -420h-119zM637 0l27 111q-68 -65 -128.5 -96t-134.5 -31q-144 0 -239.5 117.5t-95.5 328.5q0 160 54.5 307t151.5 244q145 145 330 145q181 0 275 -161l120 514h308l-363 -1479h-305zM543 240q80 0 143 63q60 60 93.5 156.5t33.5 197.5
t-45 157t-119 56q-78 0 -141 -63q-60 -60 -94.5 -153.5t-34.5 -198.5q0 -101 42.5 -158t121.5 -57z" />
    <glyph glyph-name="Dcroat" unicode="&#x110;" horiz-adv-x="1382" 
d="M14 584l72 274h156l141 576h358q313 0 469 -156q146 -146 146 -424q0 -164 -64.5 -335t-187.5 -294q-114 -114 -268 -169.5t-371 -55.5h-432l141 584h-160zM958 1075q-71 78 -241 78h-96l-70 -295h205l-74 -274h-197l-71 -303h90q236 0 368 135q80 80 122 198.5t42 229.5
q0 156 -78 231z" />
    <glyph glyph-name="dcroat" unicode="&#x111;" horiz-adv-x="1189" 
d="M662 1202l45 168h264l26 109h308l-27 -109h121l-43 -168h-119l-295 -1202h-305l27 111q-68 -65 -128.5 -96t-134.5 -31q-144 0 -239.5 117.5t-95.5 328.5q0 160 54.5 307t151.5 244q145 145 330 145q181 0 275 -161l55 237h-270zM543 240q80 0 143 63q60 60 93.5 156.5
t33.5 197.5t-45 157t-119 56q-78 0 -141 -63q-60 -60 -94.5 -153.5t-34.5 -198.5q0 -101 42.5 -158t121.5 -57z" />
    <glyph glyph-name="Emacron" unicode="&#x112;" horiz-adv-x="1159" 
d="M479 1532l58 213h702l-55 -213h-705zM6 0l350 1434h912l-72 -277h-602l-68 -299h529l-72 -272h-528l-70 -310h614l-73 -276h-920z" />
    <glyph glyph-name="emacron" unicode="&#x113;" horiz-adv-x="1081" 
d="M983 444h-635q5 -106 50.5 -163.5t131.5 -57.5q58 0 104.5 18.5t104.5 61.5l129 -205q-147 -118 -352 -118q-213 0 -331.5 129t-118.5 352q0 143 54 277.5t150 230.5q157 157 373 157q178 0 285.5 -113t107.5 -298q0 -130 -53 -271zM473 815q-61 -61 -98 -180h368
q13 51 13 96q0 68 -34.5 109t-100.5 41q-82 0 -148 -66zM381 1208l55 209h651l-53 -209h-653z" />
    <glyph glyph-name="Ebreve" unicode="&#x114;" horiz-adv-x="1159" 
d="M827 1530q-154 0 -235.5 76t-61.5 215h195q11 -46 44 -69t97 -23t102.5 22.5t69.5 69.5h222q-49 -140 -163.5 -215.5t-269.5 -75.5zM6 0l350 1434h912l-72 -277h-602l-68 -299h529l-72 -272h-528l-70 -310h614l-73 -276h-920z" />
    <glyph glyph-name="ebreve" unicode="&#x115;" horiz-adv-x="1081" 
d="M983 444h-635q5 -106 50.5 -163.5t131.5 -57.5q58 0 104.5 18.5t104.5 61.5l129 -205q-147 -118 -352 -118q-213 0 -331.5 129t-118.5 352q0 143 54 277.5t150 230.5q157 157 373 157q178 0 285.5 -113t107.5 -298q0 -130 -53 -271zM473 815q-61 -61 -98 -180h368
q13 51 13 96q0 68 -34.5 109t-100.5 41q-82 0 -148 -66zM735 1206q-83 0 -146.5 25t-100.5 69t-55.5 99.5t-18.5 120.5h211q5 -50 36.5 -83.5t83.5 -33.5q66 0 106 29.5t75 87.5h209q-47 -142 -149.5 -228t-250.5 -86z" />
    <glyph glyph-name="Edotaccent" unicode="&#x116;" horiz-adv-x="1159" 
d="M688 1536l64 252h292l-65 -252h-291zM6 0l350 1434h912l-72 -277h-602l-68 -299h529l-72 -272h-528l-70 -310h614l-73 -276h-920z" />
    <glyph glyph-name="edotaccent" unicode="&#x117;" horiz-adv-x="1081" 
d="M983 444h-635q5 -106 50.5 -163.5t131.5 -57.5q58 0 104.5 18.5t104.5 61.5l129 -205q-147 -118 -352 -118q-213 0 -331.5 129t-118.5 352q0 143 54 277.5t150 230.5q157 157 373 157q178 0 285.5 -113t107.5 -298q0 -130 -53 -271zM473 815q-61 -61 -98 -180h368
q13 51 13 96q0 68 -34.5 109t-100.5 41q-82 0 -148 -66zM561 1217l70 262h295l-70 -262h-295z" />
    <glyph glyph-name="Eogonek" unicode="&#x118;" horiz-adv-x="1159" 
d="M6 0l350 1434h912l-72 -277h-602l-68 -299h529l-72 -272h-528l-70 -310h614l-73 -276h-62q-38 -46 -53.5 -72.5t-15.5 -50.5q0 -53 102 -47l-35 -135q-52 -8 -108 -8q-90 -4 -141.5 29t-51.5 94q0 86 113 190h-668z" />
    <glyph glyph-name="eogonek" unicode="&#x119;" horiz-adv-x="1081" 
d="M739 303l129 -205q-69 -53 -102 -86q-84 -84 -84 -135q0 -53 102 -47l-34 -135q-52 -8 -109 -8q-91 -4 -141.5 29t-50.5 94q0 76 90 170h-23q-213 0 -331.5 129t-118.5 352q0 143 54 277.5t150 230.5q157 157 373 157q178 0 285.5 -113t107.5 -298q0 -130 -53 -271h-635
q5 -106 50.5 -163.5t131.5 -57.5q58 0 104.5 18.5t104.5 61.5zM473 815q-61 -61 -98 -180h368q13 51 13 96q0 68 -34.5 109t-100.5 41q-82 0 -148 -66z" />
    <glyph glyph-name="Ecaron" unicode="&#x11a;" horiz-adv-x="1159" 
d="M1303 1829l-316 -295h-291l-168 295h222l122 -115l175 115h256zM6 0l350 1434h912l-72 -277h-602l-68 -299h529l-72 -272h-528l-70 -310h614l-73 -276h-920z" />
    <glyph glyph-name="ecaron" unicode="&#x11b;" horiz-adv-x="1081" 
d="M532 1210l-149 322h219l111 -139l176 139h241l-307 -322h-291zM983 444h-635q5 -106 50.5 -163.5t131.5 -57.5q58 0 104.5 18.5t104.5 61.5l129 -205q-147 -118 -352 -118q-213 0 -331.5 129t-118.5 352q0 143 54 277.5t150 230.5q157 157 373 157q178 0 285.5 -113
t107.5 -298q0 -130 -53 -271zM473 815q-61 -61 -98 -180h368q13 51 13 96q0 68 -34.5 109t-100.5 41q-82 0 -148 -66z" />
    <glyph glyph-name="Gbreve" unicode="&#x11e;" horiz-adv-x="1351" 
d="M950 1546q-154 0 -235.5 76t-61.5 215h195q11 -46 44 -69t97 -23t102.5 22.5t69.5 69.5h221q-49 -140 -163 -215.5t-269 -75.5zM690 -20q-87 0 -170.5 22t-159.5 69t-133 114.5t-91 166.5t-34 217q0 189 68.5 364t194.5 298q223 223 536 223q290 0 483 -188l-221 -222
q-68 61 -134 93t-152 32q-159 0 -281 -122q-78 -83 -125 -209t-47 -260q0 -146 82 -231t205 -85q74 0 159 29l60 264h-238l72 268h534l-188 -739q-190 -104 -420 -104z" />
    <glyph glyph-name="gbreve" unicode="&#x11f;" horiz-adv-x="1183" 
d="M430 -311q-131 0 -261.5 38t-234.5 109l148 211q162 -119 328 -119q106 0 176 70q55 55 82 166l16 61q-74 -77 -140.5 -109t-146.5 -32q-141 0 -235 95.5t-94 271.5q0 145 56.5 288.5t154.5 241.5q145 145 317 145q186 0 264 -178l39 160h305l-221 -920
q-36 -143 -74.5 -226t-99.5 -144q-129 -129 -379 -129zM522 326q85 0 152 67q46 46 78 125t32 172q0 85 -40.5 133.5t-108.5 48.5q-45 0 -75.5 -15t-63.5 -48q-53 -53 -84 -142.5t-31 -168.5q0 -172 141 -172zM776 1206q-83 0 -146.5 25t-100.5 69t-55.5 99.5t-18.5 120.5
h211q5 -50 36.5 -83.5t83.5 -33.5q66 0 106 29.5t75 87.5h209q-47 -142 -149.5 -228t-250.5 -86z" />
    <glyph glyph-name="Gdotaccent" unicode="&#x120;" horiz-adv-x="1351" 
d="M813 1552l64 252h292l-65 -252h-291zM690 -20q-87 0 -170.5 22t-159.5 69t-133 114.5t-91 166.5t-34 217q0 189 68.5 364t194.5 298q223 223 536 223q290 0 483 -188l-221 -222q-68 61 -134 93t-152 32q-159 0 -281 -122q-78 -83 -125 -209t-47 -260q0 -146 82 -231
t205 -85q74 0 159 29l60 264h-238l72 268h534l-188 -739q-190 -104 -420 -104z" />
    <glyph glyph-name="gdotaccent" unicode="&#x121;" horiz-adv-x="1183" 
d="M430 -311q-131 0 -261.5 38t-234.5 109l148 211q162 -119 328 -119q106 0 176 70q55 55 82 166l16 61q-74 -77 -140.5 -109t-146.5 -32q-141 0 -235 95.5t-94 271.5q0 145 56.5 288.5t154.5 241.5q145 145 317 145q186 0 264 -178l39 160h305l-221 -920
q-36 -143 -74.5 -226t-99.5 -144q-129 -129 -379 -129zM522 326q85 0 152 67q46 46 78 125t32 172q0 85 -40.5 133.5t-108.5 48.5q-45 0 -75.5 -15t-63.5 -48q-53 -53 -84 -142.5t-31 -168.5q0 -172 141 -172zM604 1217l70 262h295l-70 -262h-295z" />
    <glyph glyph-name="Gcommaaccent" unicode="&#x122;" horiz-adv-x="1351" 
d="M352 -578l4 93q157 22 172 143h-122l57 227h268l-51 -196q-34 -134 -113.5 -195t-214.5 -72zM690 -20q-87 0 -170.5 22t-159.5 69t-133 114.5t-91 166.5t-34 217q0 189 68.5 364t194.5 298q223 223 536 223q290 0 483 -188l-221 -222q-68 61 -134 93t-152 32
q-159 0 -281 -122q-78 -83 -125 -209t-47 -260q0 -146 82 -231t205 -85q74 0 159 29l60 264h-238l72 268h534l-188 -739q-190 -104 -420 -104z" />
    <glyph glyph-name="gcommaaccent" unicode="&#x123;" horiz-adv-x="1183" 
d="M430 -311q-131 0 -261.5 38t-234.5 109l148 211q162 -119 328 -119q106 0 176 70q55 55 82 166l16 61q-74 -77 -140.5 -109t-146.5 -32q-141 0 -235 95.5t-94 271.5q0 145 56.5 288.5t154.5 241.5q145 145 317 145q186 0 264 -178l39 160h305l-221 -920
q-36 -143 -74.5 -226t-99.5 -144q-129 -129 -379 -129zM522 326q85 0 152 67q46 46 78 125t32 172q0 85 -40.5 133.5t-108.5 48.5q-45 0 -75.5 -15t-63.5 -48q-53 -53 -84 -142.5t-31 -168.5q0 -172 141 -172zM985 1679l-4 -92q-157 -22 -172 -143h123l-58 -227h-268l51 196
q34 134 113.5 194.5t214.5 71.5z" />
    <glyph glyph-name="Hbar" unicode="&#x126;" horiz-adv-x="1343" 
d="M141 1077l56 211h127l36 146h310l-35 -146h432l35 146h309l-37 -146h135l-57 -211h-129l-262 -1077h-309l141 582h-432l-142 -582h-309l262 1077h-131zM535 866h432l51 217h-432z" />
    <glyph glyph-name="hbar" unicode="&#x127;" horiz-adv-x="1103" 
d="M145 1202l41 168h123l27 109h307l-27 -109h265l-41 -168h-262l-48 -196q120 120 258 120q123 0 195 -74.5t72 -207.5q0 -88 -37 -223l-150 -621h-307l152 623q18 63 18 118q0 107 -106 107q-69 0 -115 -51t-64 -135l-161 -662h-305l288 1202h-123z" />
    <glyph glyph-name="Imacron" unicode="&#x12a;" horiz-adv-x="622" 
d="M20 0l351 1434h311l-350 -1434h-312zM201 1532l57 213h703l-56 -213h-704z" />
    <glyph glyph-name="imacron" unicode="&#x12b;" horiz-adv-x="559" 
d="M-8 0l270 1108h307l-270 -1108h-307zM115 1206l55 209h651l-53 -209h-653z" />
    <glyph glyph-name="Ibreve" unicode="&#x12c;" horiz-adv-x="622" 
d="M20 0l351 1434h311l-350 -1434h-312zM549 1530q-154 0 -235.5 76t-61.5 215h194q22 -92 142 -92q64 0 102.5 22.5t69.5 69.5h221q-49 -140 -163 -215.5t-269 -75.5z" />
    <glyph glyph-name="ibreve" unicode="&#x12d;" horiz-adv-x="559" 
d="M-8 0l270 1108h307l-270 -1108h-307zM467 1204q-83 0 -146.5 25t-101 69t-56 99.5t-18.5 120.5h211q5 -50 37 -83.5t84 -33.5q66 0 105.5 29t74.5 88h209q-47 -142 -149 -228t-250 -86z" />
    <glyph glyph-name="Iogonek" unicode="&#x12e;" horiz-adv-x="622" 
d="M20 0l351 1434h311l-350 -1434h-41q-38 -46 -54 -73t-16 -50q0 -53 103 -47l-35 -135q-52 -8 -109 -8q-90 -4 -141 29t-51 94q0 87 112 190h-80z" />
    <glyph glyph-name="iogonek" unicode="&#x12f;" horiz-adv-x="557" 
d="M-10 0l272 1108h305l-270 -1108h-45q-38 -46 -54 -73t-16 -50q0 -53 103 -47l-35 -135q-52 -8 -109 -8q-90 -4 -141 29t-51 94q0 87 112 190h-71zM279 1214l73 279h318l-74 -279h-317z" />
    <glyph glyph-name="Idotaccent" unicode="&#x130;" horiz-adv-x="622" 
d="M20 0l351 1434h311l-350 -1434h-312zM410 1536l63 252h293l-66 -252h-290z" />
    <glyph glyph-name="dotlessi" unicode="&#x131;" horiz-adv-x="559" 
d="M-8 0l270 1108h307l-270 -1108h-307z" />
    <glyph glyph-name="Kcommaaccent" unicode="&#x136;" horiz-adv-x="1271" 
d="M289 -565l4 92q157 22 172 143h-123l57 228h269l-52 -197q-34 -134 -113 -194.5t-214 -71.5zM6 0l350 1434h312l-146 -611l541 611h399l-594 -607l273 -827h-338l-172 602l-223 -225l-91 -377h-311z" />
    <glyph glyph-name="kcommaaccent" unicode="&#x137;" horiz-adv-x="1042" 
d="M131 -569l4 92q157 22 172 143h-123l58 228h268l-51 -197q-34 -134 -113.5 -194.5t-214.5 -71.5zM-25 0l361 1479h307l-172 -725l315 354h388l-445 -416l182 -692h-338l-100 479l-102 -110l-90 -369h-306z" />
    <glyph glyph-name="Lacute" unicode="&#x139;" horiz-adv-x="1083" 
d="M436 1530l309 313l252 -112l-309 -201h-252zM6 0l350 1434h312l-277 -1151h567l-73 -283h-879z" />
    <glyph glyph-name="lacute" unicode="&#x13a;" horiz-adv-x="557" 
d="M397 1542l310 313l251 -112l-309 -201h-252zM-10 0l362 1479h305l-360 -1479h-307z" />
    <glyph glyph-name="Lcommaaccent" unicode="&#x13b;" horiz-adv-x="1083" 
d="M172 -571l4 92q157 22 172 143h-123l58 227h268l-51 -196q-34 -134 -113.5 -194.5t-214.5 -71.5zM6 0l350 1434h312l-277 -1151h567l-73 -283h-879z" />
    <glyph glyph-name="lcommaaccent" unicode="&#x13c;" horiz-adv-x="557" 
d="M-119 -571l4 92q157 22 172 143h-123l58 227h268l-51 -196q-34 -134 -113.5 -194.5t-214.5 -71.5zM-10 0l362 1479h305l-360 -1479h-307z" />
    <glyph glyph-name="Lcaron" unicode="&#x13d;" horiz-adv-x="1083" 
d="M682 1153l100 426h230v-6l-211 -420h-119zM6 0l350 1434h312l-277 -1151h567l-73 -283h-879z" />
    <glyph glyph-name="lcaron" unicode="&#x13e;" horiz-adv-x="557" 
d="M674 1196l100 426h230v-6l-211 -420h-119zM-10 0l362 1479h305l-360 -1479h-307z" />
    <glyph glyph-name="Ldot" unicode="&#x13f;" horiz-adv-x="1071" 
d="M719 647l69 268h281l-70 -268h-280zM6 0l350 1434h312l-277 -1151h567l-73 -283h-879z" />
    <glyph glyph-name="ldot" unicode="&#x140;" horiz-adv-x="733" 
d="M551 643l65 252h230l-66 -252h-229zM-10 0l362 1479h305l-360 -1479h-307z" />
    <glyph glyph-name="Lslash" unicode="&#x141;" horiz-adv-x="1118" 
d="M12 467l78 295l148 49l153 623h311l-122 -512l329 108l-73 -295l-328 -106l-82 -346h567l-73 -283h-879l125 516z" />
    <glyph glyph-name="lslash" unicode="&#x142;" horiz-adv-x="638" 
d="M16 506l74 293l154 51l153 629h305l-127 -518l156 53l-74 -291l-151 -51l-164 -672h-307l137 557z" />
    <glyph glyph-name="Nacute" unicode="&#x143;" horiz-adv-x="1380" 
d="M793 1530l309 313l252 -112l-310 -201h-251zM6 0l350 1434h289l291 -899l213 899h305l-350 -1434h-268l-306 930l-217 -930h-307z" />
    <glyph glyph-name="nacute" unicode="&#x144;" horiz-adv-x="1103" 
d="M569 1208l305 357l250 -115l-307 -242h-248zM-20 0l270 1108h305l-25 -102q120 120 258 120q123 0 195 -74.5t72 -207.5q0 -88 -37 -223l-150 -621h-307l152 623q18 63 18 118q0 107 -106 107q-69 0 -115 -51t-64 -135l-161 -662h-305z" />
    <glyph glyph-name="Ncommaaccent" unicode="&#x145;" horiz-adv-x="1380" 
d="M287 -565l4 92q157 22 172 143h-123l57 228h269l-52 -197q-34 -134 -113 -194.5t-214 -71.5zM6 0l350 1434h289l291 -899l213 899h305l-350 -1434h-268l-306 930l-217 -930h-307z" />
    <glyph glyph-name="ncommaaccent" unicode="&#x146;" horiz-adv-x="1103" 
d="M131 -569l4 92q157 22 172 143h-123l58 228h268l-51 -197q-34 -134 -113.5 -194.5t-214.5 -71.5zM-20 0l270 1108h305l-25 -102q120 120 258 120q123 0 195 -74.5t72 -207.5q0 -88 -37 -223l-150 -621h-307l152 623q18 63 18 118q0 107 -106 107q-69 0 -115 -51t-64 -135
l-161 -662h-305z" />
    <glyph glyph-name="Ncaron" unicode="&#x147;" horiz-adv-x="1380" 
d="M1397 1829l-316 -295h-290l-168 295h221l123 -115l174 115h256zM6 0l350 1434h289l291 -899l213 899h305l-350 -1434h-268l-306 930l-217 -930h-307z" />
    <glyph glyph-name="ncaron" unicode="&#x148;" horiz-adv-x="1103" 
d="M518 1210l-149 322h219l110 -139l176 139h242l-307 -322h-291zM-20 0l270 1108h305l-25 -102q120 120 258 120q123 0 195 -74.5t72 -207.5q0 -88 -37 -223l-150 -621h-307l152 623q18 63 18 118q0 107 -106 107q-69 0 -115 -51t-64 -135l-161 -662h-305z" />
    <glyph glyph-name="Omacron" unicode="&#x14c;" horiz-adv-x="1427" 
d="M592 1548l57 213h703l-56 -213h-704zM862 1456q164 0 287.5 -74t188.5 -205.5t65 -302.5q0 -186 -70 -377t-196 -317q-203 -203 -494 -203q-248 0 -394.5 160t-146.5 422q0 185 71 377t196 317q203 203 493 203zM682 264q121 0 219 98q82 82 132 224.5t50 265.5
q0 151 -66.5 234t-193.5 83q-125 0 -219 -98q-82 -82 -132 -224t-50 -265q0 -151 66.5 -234.5t193.5 -83.5z" />
    <glyph glyph-name="omacron" unicode="&#x14d;" horiz-adv-x="1148" 
d="M399 1208l56 209h651l-53 -209h-654zM633 1126q208 0 329 -131.5t121 -347.5q0 -147 -53 -282t-147 -232q-156 -156 -365 -156q-208 0 -329 132t-121 348q0 149 52 283.5t148 230.5q155 155 365 155zM530 240q75 0 132 57q58 58 91 156t33 186q0 110 -44 167.5t-121 57.5
q-75 0 -132 -57q-58 -58 -91 -156t-33 -186q0 -110 44 -167.5t121 -57.5z" />
    <glyph glyph-name="Obreve" unicode="&#x14e;" horiz-adv-x="1427" 
d="M938 1546q-154 0 -235.5 76t-61.5 215h195q11 -46 44 -69t97 -23t102.5 22.5t69.5 69.5h221q-49 -140 -163 -215.5t-269 -75.5zM862 1456q164 0 287.5 -74t188.5 -205.5t65 -302.5q0 -186 -70 -377t-196 -317q-203 -203 -494 -203q-248 0 -394.5 160t-146.5 422
q0 185 71 377t196 317q203 203 493 203zM682 264q121 0 219 98q82 82 132 224.5t50 265.5q0 151 -66.5 234t-193.5 83q-125 0 -219 -98q-82 -82 -132 -224t-50 -265q0 -151 66.5 -234.5t193.5 -83.5z" />
    <glyph glyph-name="obreve" unicode="&#x14f;" horiz-adv-x="1148" 
d="M633 1126q208 0 329 -131.5t121 -347.5q0 -147 -53 -282t-147 -232q-156 -156 -365 -156q-208 0 -329 132t-121 348q0 149 52 283.5t148 230.5q155 155 365 155zM530 240q75 0 132 57q58 58 91 156t33 186q0 110 -44 167.5t-121 57.5q-75 0 -132 -57q-58 -58 -91 -156
t-33 -186q0 -110 44 -167.5t121 -57.5zM754 1206q-83 0 -146.5 25t-101 69t-56 99.5t-18.5 120.5h211q5 -50 37 -83.5t84 -33.5q66 0 105.5 29t74.5 88h209q-47 -142 -149 -228t-250 -86z" />
    <glyph glyph-name="Ohungarumlaut" unicode="&#x150;" horiz-adv-x="1427" 
d="M862 1456q164 0 287.5 -74t188.5 -205.5t65 -302.5q0 -186 -70 -377t-196 -317q-203 -203 -494 -203q-248 0 -394.5 160t-146.5 422q0 185 71 377t196 317q203 203 493 203zM682 264q121 0 219 98q82 82 132 224.5t50 265.5q0 151 -66.5 234t-193.5 83q-125 0 -219 -98
q-82 -82 -132 -224t-50 -265q0 -151 66.5 -234.5t193.5 -83.5zM598 1546l307 314l240 -113l-309 -201h-238zM967 1546l309 314l237 -113l-307 -201h-239z" />
    <glyph glyph-name="ohungarumlaut" unicode="&#x151;" horiz-adv-x="1148" 
d="M326 1208l301 357l227 -115l-311 -242h-217zM684 1208l307 357l226 -115l-314 -242h-219zM633 1126q208 0 329 -131.5t121 -347.5q0 -147 -53 -282t-147 -232q-156 -156 -365 -156q-208 0 -329 132t-121 348q0 149 52 283.5t148 230.5q155 155 365 155zM530 240
q75 0 132 57q58 58 91 156t33 186q0 110 -44 167.5t-121 57.5q-75 0 -132 -57q-58 -58 -91 -156t-33 -186q0 -110 44 -167.5t121 -57.5z" />
    <glyph glyph-name="OE" unicode="&#x152;" horiz-adv-x="1830" 
d="M1597 0h-876q-172 0 -284.5 43t-192.5 123q-66 66 -102 173.5t-36 240.5q0 165 64.5 334t189.5 294q114 114 268.5 170t368.5 56h942l-71 -277h-570l-65 -299h493l-71 -272h-494l-71 -310h581zM504 358q77 -77 241 -77h35l207 872h-29q-233 0 -368 -135
q-80 -82 -121 -198.5t-41 -229.5q0 -156 76 -232z" />
    <glyph glyph-name="oe" unicode="&#x153;" horiz-adv-x="1800" 
d="M1702 444h-635q5 -106 50.5 -163.5t131.5 -57.5q58 0 104.5 18.5t104.5 61.5l129 -205q-147 -118 -346 -118q-256 0 -362 184q-71 -84 -163.5 -135.5t-195.5 -51.5q-211 0 -331.5 131.5t-120.5 348.5q0 147 53 282t147 232q155 155 365 155q247 0 352 -194q71 90 169 142
t216 52q173 0 279 -113t106 -298q0 -130 -53 -271zM530 240q75 0 132 57q58 58 91 156t33 186q0 110 -44 167.5t-121 57.5q-75 0 -132 -57q-58 -58 -91 -156t-33 -186q0 -110 44 -167.5t121 -57.5zM1192 815q-61 -61 -98 -180h368q13 51 13 96q0 68 -35 109t-101 41
q-81 0 -147 -66z" />
    <glyph glyph-name="Racute" unicode="&#x154;" horiz-adv-x="1282" 
d="M750 0l-175 455h-151l-107 -455h-311l350 1434h412q284 0 418 -134q110 -113 110 -294q0 -222 -133 -361q-60 -60 -104 -88q-67 -43 -158 -68l197 -489h-348zM498 727h166q160 0 243 80q66 69 66 174q0 74 -47 121q-46 51 -178 51h-152zM700 1530l310 313l252 -112
l-310 -201h-252z" />
    <glyph glyph-name="racute" unicode="&#x155;" horiz-adv-x="747" 
d="M428 1206l305 357l250 -115l-307 -242h-248zM-20 0l270 1108h305l-43 -174q67 105 145 153.5t189 38.5l-86 -317h-17q-135 0 -217.5 -74t-124.5 -248l-116 -487h-305z" />
    <glyph glyph-name="Rcommaaccent" unicode="&#x156;" horiz-adv-x="1282" 
d="M238 -565l4 92q157 22 172 143h-123l57 228h268l-51 -197q-34 -134 -113 -194.5t-214 -71.5zM750 0l-175 455h-151l-107 -455h-311l350 1434h412q284 0 418 -134q110 -113 110 -294q0 -222 -133 -361q-60 -60 -104 -88q-67 -43 -158 -68l197 -489h-348zM498 727h166
q160 0 243 80q66 69 66 174q0 74 -47 121q-46 51 -178 51h-152z" />
    <glyph glyph-name="rcommaaccent" unicode="&#x157;" horiz-adv-x="747" 
d="M-123 -571l4 92q157 22 172 143h-123l58 227h268l-51 -196q-34 -134 -113.5 -194.5t-214.5 -71.5zM-20 0l270 1108h305l-43 -174q67 105 145 153.5t189 38.5l-86 -317h-17q-135 0 -217.5 -74t-124.5 -248l-116 -487h-305z" />
    <glyph glyph-name="Rcaron" unicode="&#x158;" horiz-adv-x="1282" 
d="M1307 1829l-316 -295h-291l-168 295h222l123 -115l174 115h256zM750 0l-175 455h-151l-107 -455h-311l350 1434h412q284 0 418 -134q110 -113 110 -294q0 -222 -133 -361q-60 -60 -104 -88q-67 -43 -158 -68l197 -489h-348zM498 727h166q160 0 243 80q66 69 66 174
q0 74 -47 121q-46 51 -178 51h-152z" />
    <glyph glyph-name="rcaron" unicode="&#x159;" horiz-adv-x="747" 
d="M375 1208l-150 322h219l111 -139l176 139h242l-307 -322h-291zM-20 0l270 1108h305l-43 -174q67 105 145 153.5t189 38.5l-86 -317h-17q-135 0 -217.5 -74t-124.5 -248l-116 -487h-305z" />
    <glyph glyph-name="Sacute" unicode="&#x15a;" horiz-adv-x="1105" 
d="M500 -20q-164 0 -300 68t-229 194l232 200q84 -95 159 -141.5t152 -46.5q65 0 106.5 36.5t41.5 92.5q0 45 -37.5 89t-147.5 126q-138 101 -205 193.5t-67 207.5q0 184 123 310q145 145 360 145q273 0 471 -213l-213 -215q-74 79 -135.5 116.5t-132.5 37.5
q-68 0 -105.5 -37t-37.5 -88q0 -48 37 -93t145 -120q134 -95 204 -191t70 -217q0 -186 -129 -315q-67 -67 -162.5 -103t-199.5 -36zM631 1546l309 314l252 -113l-309 -201h-252z" />
    <glyph glyph-name="sacute" unicode="&#x15b;" horiz-adv-x="874" 
d="M446 1208l306 357l249 -115l-307 -242h-248zM375 -20q-249 0 -436 202l176 185q143 -156 266 -156q46 0 74 25t28 61q0 39 -29.5 68t-123.5 96q-111 78 -162 149t-51 166q0 144 107 246t284 102q215 0 385 -170l-162 -194q-74 72 -128 102.5t-109 30.5q-36 0 -62 -22.5
t-26 -57.5q0 -38 26.5 -64t124.5 -96q120 -83 168.5 -157.5t48.5 -167.5q0 -145 -112.5 -246.5t-286.5 -101.5z" />
    <glyph glyph-name="Scedilla" unicode="&#x15e;" horiz-adv-x="1105" 
d="M322 -328l-230 105l211 229q-207 62 -332 236l232 200q84 -95 159 -141.5t152 -46.5q65 0 106.5 36.5t41.5 92.5q0 45 -37.5 89t-147.5 126q-138 101 -205 193.5t-67 207.5q0 184 123 310q145 145 360 145q273 0 471 -213l-213 -215q-74 79 -135.5 116.5t-132.5 37.5
q-68 0 -105.5 -37t-37.5 -88q0 -48 37 -93t145 -120q134 -95 204 -191t70 -217q0 -186 -129 -315q-64 -64 -157 -99t-195 -40z" />
    <glyph glyph-name="scedilla" unicode="&#x15f;" horiz-adv-x="874" 
d="M215 -328l-229 105l211 231q-143 50 -258 174l176 185q143 -156 266 -156q46 0 74 25t28 61q0 39 -29.5 68t-123.5 96q-111 78 -162 149t-51 166q0 144 107 246t284 102q215 0 385 -170l-162 -194q-74 72 -128 102.5t-109 30.5q-36 0 -62 -22.5t-26 -57.5q0 -38 26.5 -64
t124.5 -96q120 -83 168.5 -157.5t48.5 -167.5q0 -140 -103 -239.5t-265 -106.5z" />
    <glyph glyph-name="Scaron" unicode="&#x160;" horiz-adv-x="1105" 
d="M500 -20q-164 0 -300 68t-229 194l232 200q84 -95 159 -141.5t152 -46.5q65 0 106.5 36.5t41.5 92.5q0 45 -37.5 89t-147.5 126q-138 101 -205 193.5t-67 207.5q0 184 123 310q145 145 360 145q273 0 471 -213l-213 -215q-74 79 -135.5 116.5t-132.5 37.5
q-68 0 -105.5 -37t-37.5 -88q0 -48 37 -93t145 -120q134 -95 204 -191t70 -217q0 -186 -129 -315q-67 -67 -162.5 -103t-199.5 -36zM1235 1845l-315 -295h-291l-168 295h221l123 -114l174 114h256z" />
    <glyph glyph-name="scaron" unicode="&#x161;" horiz-adv-x="874" 
d="M397 1210l-149 322h219l111 -139l176 139h241l-307 -322h-291zM375 -20q-249 0 -436 202l176 185q143 -156 266 -156q46 0 74 25t28 61q0 39 -29.5 68t-123.5 96q-111 78 -162 149t-51 166q0 144 107 246t284 102q215 0 385 -170l-162 -194q-74 72 -128 102.5t-109 30.5
q-36 0 -62 -22.5t-26 -57.5q0 -38 26.5 -64t124.5 -96q120 -83 168.5 -157.5t48.5 -167.5q0 -145 -112.5 -246.5t-286.5 -101.5z" />
    <glyph glyph-name="Tcommaaccent" unicode="&#x162;" horiz-adv-x="1069" 
d="M131 -571l4 92q157 22 172 143h-123l58 227h268l-51 -196q-34 -134 -113.5 -194.5t-214.5 -71.5zM244 0l274 1147h-354l76 287h1020l-76 -287h-355l-276 -1147h-309z" />
    <glyph glyph-name="Tcommaaccent" unicode="&#x21a;" horiz-adv-x="1069" 
d="M131 -571l4 92q157 22 172 143h-123l58 227h268l-51 -196q-34 -134 -113.5 -194.5t-214.5 -71.5zM244 0l274 1147h-354l76 287h1020l-76 -287h-355l-276 -1147h-309z" />
    <glyph glyph-name="tcommaaccent" unicode="&#x163;" horiz-adv-x="733" 
d="M10 -571l4 92q157 22 172 143h-123l58 227h268l-51 -196q-34 -134 -113.5 -194.5t-214.5 -71.5zM324 -14q-116 0 -179 57t-63 156q0 57 22 143l123 504h-118l67 262h115l65 270h308l-66 -270h195l-68 -262h-190l-123 -498q-6 -27 -6 -45q0 -21 15.5 -34t45.5 -13
q62 0 129 31l-66 -258q-81 -43 -206 -43z" />
    <glyph glyph-name="tcommaaccent" unicode="&#x21b;" horiz-adv-x="733" 
d="M10 -571l4 92q157 22 172 143h-123l58 227h268l-51 -196q-34 -134 -113.5 -194.5t-214.5 -71.5zM324 -14q-116 0 -179 57t-63 156q0 57 22 143l123 504h-118l67 262h115l65 270h308l-66 -270h195l-68 -262h-190l-123 -498q-6 -27 -6 -45q0 -21 15.5 -34t45.5 -13
q62 0 129 31l-66 -258q-81 -43 -206 -43z" />
    <glyph glyph-name="Tcaron" unicode="&#x164;" horiz-adv-x="1069" 
d="M1241 1829l-315 -295h-291l-168 295h221l123 -115l174 115h256zM244 0l274 1147h-354l76 287h1020l-76 -287h-355l-276 -1147h-309z" />
    <glyph glyph-name="tcaron" unicode="&#x165;" horiz-adv-x="733" 
d="M698 1196l101 426h229v-6l-211 -420h-119zM324 -14q-116 0 -179 57t-63 156q0 57 22 143l123 504h-118l67 262h115l65 270h308l-66 -270h195l-68 -262h-190l-123 -498q-6 -27 -6 -45q0 -21 15.5 -34t45.5 -13q62 0 129 31l-66 -258q-81 -43 -206 -43z" />
    <glyph glyph-name="Umacron" unicode="&#x16a;" horiz-adv-x="1345" 
d="M547 1532l57 213h703l-56 -213h-704zM588 -23q-212 0 -337.5 112t-125.5 321q0 90 35 221l192 803h310l-199 -826q-23 -94 -23 -155q0 -89 49 -139t132 -50q105 0 172 64q75 75 112 229l211 877h309l-221 -920q-65 -260 -192 -387q-150 -150 -424 -150z" />
    <glyph glyph-name="umacron" unicode="&#x16b;" horiz-adv-x="1097" 
d="M317 -18q-123 0 -194.5 74t-71.5 208q0 88 37 223l150 621h307l-152 -623q-18 -63 -18 -118q0 -107 106 -107q69 0 114.5 51t63.5 135l162 662h305l-270 -1108h-305l24 102q-120 -120 -258 -120zM383 1206l55 209h652l-54 -209h-653z" />
    <glyph glyph-name="Ubreve" unicode="&#x16c;" horiz-adv-x="1345" 
d="M887 1513q-154 0 -235.5 76t-61.5 215h194q22 -92 142 -92q64 0 102.5 22.5t69.5 69.5h221q-49 -140 -163 -215.5t-269 -75.5zM588 -23q-212 0 -337.5 112t-125.5 321q0 90 35 221l192 803h310l-199 -826q-23 -94 -23 -155q0 -89 49 -139t132 -50q105 0 172 64
q75 75 112 229l211 877h309l-221 -920q-65 -260 -192 -387q-150 -150 -424 -150z" />
    <glyph glyph-name="ubreve" unicode="&#x16d;" horiz-adv-x="1097" 
d="M317 -18q-123 0 -194.5 74t-71.5 208q0 88 37 223l150 621h307l-152 -623q-18 -63 -18 -118q0 -107 106 -107q69 0 114.5 51t63.5 135l162 662h305l-270 -1108h-305l24 102q-120 -120 -258 -120zM737 1204q-83 0 -146.5 25t-100.5 69t-55.5 99.5t-18.5 120.5h211
q5 -50 37 -83.5t84 -33.5q66 0 105.5 29t74.5 88h209q-47 -142 -149.5 -228t-250.5 -86z" />
    <glyph glyph-name="Uring" unicode="&#x16e;" horiz-adv-x="1345" 
d="M588 -23q-212 0 -337.5 112t-125.5 321q0 90 35 221l192 803h310l-199 -826q-23 -94 -23 -155q0 -89 49 -139t132 -50q105 0 172 64q75 75 112 229l211 877h309l-221 -920q-65 -260 -192 -387q-150 -150 -424 -150zM946 1905q95 0 157 -55t62 -134q0 -99 -67 -168
t-189 -69q-93 0 -156 55.5t-63 134.5q0 99 67 167.5t189 68.5zM915 1585q62 0 97 36.5t35 82.5q0 43 -30 69.5t-77 26.5q-62 0 -96.5 -36.5t-34.5 -82.5q0 -42 29.5 -69t76.5 -27z" />
    <glyph glyph-name="uring" unicode="&#x16f;" horiz-adv-x="1097" 
d="M973 1432q0 -102 -67.5 -178t-174.5 -76q-92 0 -148.5 55.5t-56.5 138.5q0 102 68.5 179t173.5 77q92 0 148.5 -56t56.5 -140zM639 1382q0 -48 28 -77t70 -29q55 0 89 45t34 100q0 49 -27 78t-69 29q-56 0 -90.5 -45t-34.5 -101zM317 -18q-123 0 -194.5 74t-71.5 208
q0 88 37 223l150 621h307l-152 -623q-18 -63 -18 -118q0 -107 106 -107q69 0 114.5 51t63.5 135l162 662h305l-270 -1108h-305l24 102q-120 -120 -258 -120z" />
    <glyph glyph-name="Uhungarumlaut" unicode="&#x170;" horiz-adv-x="1345" 
d="M588 -23q-212 0 -337.5 112t-125.5 321q0 90 35 221l192 803h310l-199 -826q-23 -94 -23 -155q0 -89 49 -139t132 -50q105 0 172 64q75 75 112 229l211 877h309l-221 -920q-65 -260 -192 -387q-150 -150 -424 -150zM553 1530l307 313l240 -112l-309 -201h-238zM922 1530
l309 313l237 -112l-307 -201h-239z" />
    <glyph glyph-name="uhungarumlaut" unicode="&#x171;" horiz-adv-x="1097" 
d="M317 -18q-123 0 -194.5 74t-71.5 208q0 88 37 223l150 621h307l-152 -623q-18 -63 -18 -118q0 -107 106 -107q69 0 114.5 51t63.5 135l162 662h305l-270 -1108h-305l24 102q-120 -120 -258 -120zM311 1206l301 357l228 -115l-312 -242h-217zM670 1206l307 357l225 -115
l-313 -242h-219z" />
    <glyph glyph-name="Uogonek" unicode="&#x172;" horiz-adv-x="1345" 
d="M678 -170l-35 -135q-52 -8 -108 -8q-90 -4 -141.5 29t-51.5 94q0 83 104 182q-151 33 -236 140.5t-85 277.5q0 90 35 221l192 803h310l-199 -826q-23 -94 -23 -155q0 -89 49 -139t132 -50q105 0 172 64q75 75 112 229l211 877h309l-221 -920q-65 -260 -192 -387
q-138 -138 -383 -150q-3 -4 -11 -14.5t-10.5 -14t-8 -11.5t-7.5 -11t-6 -9.5t-5 -10.5t-3 -9t-2.5 -10t-0.5 -10q0 -53 103 -47z" />
    <glyph glyph-name="uogonek" unicode="&#x173;" horiz-adv-x="1097" 
d="M317 -18q-123 0 -194.5 74t-71.5 208q0 88 37 223l150 621h307l-152 -623q-18 -63 -18 -118q0 -107 106 -107q69 0 114.5 51t63.5 135l162 662h305l-270 -1108h-33q-38 -46 -53.5 -72.5t-15.5 -50.5q0 -53 102 -47l-35 -135q-52 -8 -108 -8q-90 -4 -141.5 29t-51.5 94
q0 86 113 190h-82l24 102q-120 -120 -258 -120z" />
    <glyph glyph-name="Wcircumflex" unicode="&#x174;" horiz-adv-x="1978" 
d="M297 -10l-53 1444h319l-6 -963l487 967h271l41 -967l446 963h350l-759 -1444h-291l-41 921l-475 -921h-289zM807 1534l315 295h291l170 -295h-223l-121 113l-176 -113h-256z" />
    <glyph glyph-name="wcircumflex" unicode="&#x175;" horiz-adv-x="1538" 
d="M532 1208l310 322h291l149 -322h-219l-111 142l-176 -142h-244zM180 -8l-10 1116h309l-30 -674l319 676h268l4 -678l291 676h301l-561 -1116h-276l-9 678l-329 -678h-277z" />
    <glyph glyph-name="Ycircumflex" unicode="&#x176;" horiz-adv-x="1132" 
d="M266 0l140 578l-228 856h342l105 -576l379 576h368l-659 -879l-138 -555h-309zM379 1534l315 295h291l170 -295h-223l-121 113l-176 -113h-256z" />
    <glyph glyph-name="ycircumflex" unicode="&#x177;" horiz-adv-x="1058" 
d="M264 -10l-82 1118h312l2 -746l331 746h326l-586 -1124q-84 -159 -166.5 -228t-201.5 -69q-145 0 -244 96l145 203q51 -45 97 -45q43 0 67 49zM297 1208l309 322h291l150 -322h-220l-110 142l-176 -142h-244z" />
    <glyph glyph-name="Ydieresis" unicode="&#x178;" horiz-adv-x="1132" 
d="M266 0l140 578l-228 856h342l105 -576l379 576h368l-659 -879l-138 -555h-309zM438 1536l64 252h284l-65 -252h-283zM838 1536l65 252h285l-66 -252h-284z" />
    <glyph glyph-name="Zacute" unicode="&#x179;" horiz-adv-x="1200" 
d="M-39 0l62 238l825 925h-594l72 271h995l-61 -238l-828 -926h621l-70 -270h-1022zM690 1530l309 313l252 -112l-309 -201h-252z" />
    <glyph glyph-name="zacute" unicode="&#x17a;" horiz-adv-x="956" 
d="M492 1206l305 357l250 -115l-308 -242h-247zM-57 0l55 219l577 643h-419l63 246h793l-56 -219l-581 -641h438l-63 -248h-807z" />
    <glyph glyph-name="Zdotaccent" unicode="&#x17b;" horiz-adv-x="1200" 
d="M680 1536l63 252h293l-65 -252h-291zM-39 0l62 238l825 925h-594l72 271h995l-61 -238l-828 -926h621l-70 -270h-1022z" />
    <glyph glyph-name="zdotaccent" unicode="&#x17c;" horiz-adv-x="956" 
d="M-57 0l55 219l577 643h-419l63 246h793l-56 -219l-581 -641h438l-63 -248h-807zM471 1214l70 263h295l-70 -263h-295z" />
    <glyph glyph-name="Zcaron" unicode="&#x17d;" horiz-adv-x="1200" 
d="M1294 1829l-315 -295h-291l-168 295h221l123 -115l174 115h256zM-39 0l62 238l825 925h-594l72 271h995l-61 -238l-828 -926h621l-70 -270h-1022z" />
    <glyph glyph-name="zcaron" unicode="&#x17e;" horiz-adv-x="956" 
d="M442 1208l-149 322h219l111 -139l176 139h241l-307 -322h-291zM-57 0l55 219l577 643h-419l63 246h793l-56 -219l-581 -641h438l-63 -248h-807z" />
    <glyph glyph-name="uni018F" unicode="&#x18f;" horiz-adv-x="1388" 
d="M111 483q0 153 63 367h891v33q0 135 -72 216t-213 81q-156 0 -346 -123l-127 239q243 158 494 158q254 0 404.5 -154.5t150.5 -427.5q0 -184 -66.5 -369.5t-193.5 -314.5q-213 -213 -492 -213q-230 0 -361.5 139.5t-131.5 368.5zM881 354q94 97 143 248h-612
q-15 -50 -15 -123q0 -46 12 -86t37.5 -74.5t71.5 -54.5t109 -20q144 0 254 110z" />
    <glyph glyph-name="florin" unicode="&#x192;" horiz-adv-x="985" 
d="M111 -16q-99 0 -181 28l64 242q45 -16 90 -16q85 0 127 112l139 357h-121l66 251h154l77 201q60 149 154.5 220t234.5 71q129 0 224 -43l-64 -256q-69 37 -135 37q-107 0 -156 -125l-41 -105h215l-65 -251h-248l-176 -455q-105 -268 -358 -268z" />
    <glyph glyph-name="Aringacute" unicode="&#x1fa;" horiz-adv-x="1347" 
d="M-109 0l822 1382q-33 47 -33 103q0 99 67 167t191 68q92 0 155.5 -56t63.5 -134q0 -119 -94 -189l141 -1341h-317l-25 322h-461l-178 -322h-332zM838 1772l311 266l250 -113l-309 -153h-252zM575 596h256l-22 469zM905 1401q61 0 96 37t35 80q0 44 -29.5 71t-74.5 27
q-61 0 -96 -37.5t-35 -83.5q0 -42 28.5 -68t75.5 -26z" />
    <glyph glyph-name="aringacute" unicode="&#x1fb;" horiz-adv-x="1050" 
d="M688 1726l303 289l248 -112l-307 -177h-244zM276 -18q-130 0 -203 81t-73 209q0 176 113 289q117 117 317 117q125 0 240 -47l4 18q14 61 14 101q0 108 -158 108q-104 0 -239 -59l-68 243q162 76 361 76q196 0 299.5 -79t103.5 -222q0 -79 -33 -215l-143 -602h-297
l27 115q-117 -133 -265 -133zM412 188q75 0 125 59t75 146l17 72q-76 31 -140 31q-87 0 -133 -52q-53 -53 -53 -141q0 -52 29.5 -83.5t79.5 -31.5zM956 1458q0 -103 -67.5 -178.5t-173.5 -75.5q-92 0 -148.5 55.5t-56.5 139.5q0 102 68.5 179t173.5 77q92 0 148 -56.5
t56 -140.5zM623 1409q0 -48 28 -77t70 -29q55 0 89 45t34 100q0 49 -27 77.5t-69 28.5q-57 0 -91 -44.5t-34 -100.5z" />
    <glyph glyph-name="AEacute" unicode="&#x1fc;" horiz-adv-x="1824" 
d="M1120 1530l310 313l251 -112l-309 -201h-252zM-135 0l981 1434h1089l-73 -277h-568l-65 -299h493l-71 -272h-494l-72 -310h580l-72 -276h-884l75 322h-381l-206 -322h-332zM610 596h246l133 569h-28z" />
    <glyph glyph-name="aeacute" unicode="&#x1fd;" horiz-adv-x="1648" 
d="M823 1206l305 357l250 -115l-307 -242h-248zM1083 -20q-262 0 -364 208q-164 -206 -410 -206q-156 0 -232.5 77.5t-76.5 212.5q0 176 113 289q117 117 317 117q125 0 240 -47l4 18q14 66 14 101q0 108 -158 108q-104 0 -239 -59l-68 243q162 76 363 76q228 0 307 -143
q151 151 336 151q165 0 270 -114t105 -297q0 -127 -54 -271h-635q5 -106 51 -163.5t132 -57.5q58 0 104.5 18.5t104.5 61.5l129 -205q-148 -118 -353 -118zM430 188q57 0 124.5 42t115.5 106q-6 35 -6 113q-34 20 -81 33.5t-87 13.5q-94 0 -140 -52q-53 -53 -53 -141
q0 -53 31.5 -84t95.5 -31zM1040 815q-61 -61 -98 -180h369q12 47 12 96q0 68 -34.5 109t-100.5 41q-82 0 -148 -66z" />
    <glyph glyph-name="Oslashacute" unicode="&#x1fe;" horiz-adv-x="1427" 
d="M862 1456q206 0 338 -108l90 98h285l-244 -258q72 -135 72 -314q0 -186 -70 -377t-196 -317q-203 -203 -494 -203q-207 0 -340 109l-88 -96h-285l242 256q-70 134 -70 313q0 185 71 377t196 317q203 203 493 203zM680 250q128 0 227 104q84 81 136.5 227.5t52.5 278.5
q0 44 -6 84l-576 -645q61 -49 166 -49zM410 575q0 -45 6 -83l575 643q-68 49 -166 49q-129 0 -227 -103q-84 -84 -136 -228.5t-52 -277.5zM795 1546l309 314l252 -113l-309 -201h-252z" />
    <glyph glyph-name="oslashacute" unicode="&#x1ff;" horiz-adv-x="1148" 
d="M633 1126q163 0 278 -88l72 76h256l-213 -215q57 -108 57 -252q0 -147 -53 -282t-147 -232q-156 -156 -365 -156q-166 0 -278 86l-72 -75h-256l211 217q-55 113 -55 252q0 149 52 283.5t148 230.5q155 155 365 155zM629 877q-82 0 -148 -66q-60 -60 -93.5 -156.5
t-33.5 -189.5v-35l367 418q-44 29 -92 29zM797 639q0 23 -2 33l-367 -416q43 -29 94 -29q82 0 148 66q60 60 93.5 156.5t33.5 189.5zM588 1208l305 357l250 -115l-307 -242h-248z" />
    <glyph glyph-name="Scommaaccent" unicode="&#x218;" horiz-adv-x="1105" 
d="M158 -578l4 93q157 22 172 143h-123l57 227h269l-52 -196q-34 -135 -113 -195.5t-214 -71.5zM500 -20q-164 0 -300 68t-229 194l232 200q84 -95 159 -141.5t152 -46.5q65 0 106.5 36.5t41.5 92.5q0 45 -37.5 89t-147.5 126q-138 101 -205 193.5t-67 207.5q0 184 123 310
q145 145 360 145q273 0 471 -213l-213 -215q-74 79 -135.5 116.5t-132.5 37.5q-68 0 -105.5 -37t-37.5 -88q0 -48 37 -93t145 -120q134 -95 204 -191t70 -217q0 -186 -129 -315q-67 -67 -162.5 -103t-199.5 -36z" />
    <glyph glyph-name="scommaaccent" unicode="&#x219;" horiz-adv-x="874" 
d="M31 -571l4 92q157 22 172 143h-123l57 227h269l-52 -196q-34 -134 -113 -194.5t-214 -71.5zM375 -20q-249 0 -436 202l176 185q143 -156 266 -156q46 0 74 25t28 61q0 39 -29.5 68t-123.5 96q-111 78 -162 149t-51 166q0 144 107 246t284 102q215 0 385 -170l-162 -194
q-74 72 -128 102.5t-109 30.5q-36 0 -62 -22.5t-26 -57.5q0 -38 26.5 -64t124.5 -96q120 -83 168.5 -157.5t48.5 -167.5q0 -145 -112.5 -246.5t-286.5 -101.5z" />
    <glyph glyph-name="schwa" unicode="&#x259;" horiz-adv-x="1081" 
d="M47 393q0 130 53 271h635q-5 106 -50.5 163.5t-131.5 57.5q-58 0 -104.5 -18.5t-104.5 -61.5l-129 205q147 118 352 118q213 0 332 -129t119 -352q0 -143 -54 -277t-151 -231q-157 -157 -373 -157q-178 0 -285.5 113t-107.5 298zM610 293q62 62 99 180h-369
q-12 -47 -12 -96q0 -68 34.5 -109t100.5 -41q81 0 147 66z" />
    <glyph glyph-name="circumflex" unicode="&#x2c6;" horiz-adv-x="1024" 
d="M297 1208l309 322h291l150 -322h-220l-110 142l-176 -142h-244z" />
    <glyph glyph-name="caron" unicode="&#x2c7;" horiz-adv-x="1024" 
d="M520 1208l-149 322h219l110 -139l177 139h241l-307 -322h-291z" />
    <glyph glyph-name="breve" unicode="&#x2d8;" horiz-adv-x="1024" 
d="M711 1204q-83 0 -146.5 25t-101 69t-56 99.5t-18.5 120.5h211q5 -50 37 -83.5t84 -33.5q66 0 105.5 29t74.5 88h209q-47 -142 -149 -228t-250 -86z" />
    <glyph glyph-name="dotaccent" unicode="&#x2d9;" horiz-adv-x="1024" 
d="M528 1214l70 263h295l-70 -263h-295z" />
    <glyph glyph-name="ring" unicode="&#x2da;" horiz-adv-x="1024" 
d="M948 1458q0 -103 -67.5 -178.5t-173.5 -75.5q-92 0 -148.5 55.5t-56.5 139.5q0 102 68 179t173 77q92 0 148.5 -56.5t56.5 -140.5zM614 1409q0 -48 28.5 -77t70.5 -29q55 0 89 45t34 100q0 48 -27.5 77t-69.5 29q-57 0 -91 -44.5t-34 -100.5z" />
    <glyph glyph-name="ogonek" unicode="&#x2db;" horiz-adv-x="1024" 
d="M535 -170l-35 -135q-52 -8 -109 -8q-90 -4 -141 29t-51 94q0 88 125 200l196 13q-8 -11 -22.5 -29t-20.5 -26t-15.5 -21t-13.5 -20t-8.5 -16.5t-6 -17.5t-1.5 -16q0 -53 103 -47z" />
    <glyph glyph-name="tilde" unicode="&#x2dc;" horiz-adv-x="1024" 
d="M952 1528l162 -55q-56 -132 -117 -199.5t-153 -67.5q-81 0 -166 49q-66 37 -96 37q-38 0 -64.5 -24t-54.5 -74l-162 55q56 134 116 200.5t154 66.5q72 0 166 -48q59 -36 97 -36t63 22.5t55 73.5z" />
    <glyph glyph-name="hungarumlaut" unicode="&#x2dd;" horiz-adv-x="1024" 
d="M262 1206l301 357l228 -115l-312 -242h-217zM621 1206l307 357l225 -115l-313 -242h-219z" />
    <glyph glyph-name="commaaccent" unicode="&#x326;" horiz-adv-x="1024" 
d="M115 -571l4 92q157 22 172 143h-123l57 227h269l-52 -196q-34 -134 -113 -194.5t-214 -71.5z" />
    <glyph glyph-name="uni0384" unicode="&#x384;" horiz-adv-x="1024" 
d="M498 1206l225 350l233 -112l-245 -238h-213z" />
    <glyph glyph-name="uni0385" unicode="&#x385;" horiz-adv-x="1024" 
d="M858 1208l64 252h243l-63 -252h-244zM248 1208l63 252h244l-61 -252h-246zM532 1208l173 396l245 -54l-243 -342h-175z" />
    <glyph glyph-name="uni0386" unicode="&#x386;" horiz-adv-x="1347" 
d="M-109 0l859 1444h301l153 -1444h-317l-25 322h-461l-178 -322h-332zM575 596h256l-22 469zM133 1049l113 391h293l-236 -391h-170z" />
    <glyph glyph-name="uni0387" unicode="&#x387;" horiz-adv-x="567" 
d="M178 782l78 316h317l-77 -316h-318z" />
    <glyph glyph-name="uni0388" unicode="&#x388;" horiz-adv-x="1159" 
d="M-106 1042l112 392h293l-236 -392h-169zM6 0l350 1434h912l-72 -277h-602l-68 -299h529l-72 -272h-528l-70 -310h614l-73 -276h-920z" />
    <glyph glyph-name="uni0389" unicode="&#x389;" horiz-adv-x="1335" 
d="M6 0l350 1434h312l-138 -570h433l135 570h311l-350 -1434h-311l141 578h-432l-140 -578h-311zM-119 1042l113 392h293l-236 -392h-170z" />
    <glyph glyph-name="uni038A" unicode="&#x38a;" horiz-adv-x="622" 
d="M20 0l351 1434h311l-350 -1434h-312zM-106 1042l112 392h293l-236 -392h-169z" />
    <glyph glyph-name="uni038C" unicode="&#x38c;" horiz-adv-x="1427" 
d="M-78 1059l113 391h293l-236 -391h-170zM862 1456q164 0 287.5 -74t188.5 -205.5t65 -302.5q0 -186 -70 -377t-196 -317q-203 -203 -494 -203q-248 0 -394.5 160t-146.5 422q0 185 71 377t196 317q203 203 493 203zM682 264q121 0 219 98q82 82 132 224.5t50 265.5
q0 151 -66.5 234t-193.5 83q-125 0 -219 -98q-82 -82 -132 -224t-50 -265q0 -151 66.5 -234.5t193.5 -83.5z" />
    <glyph glyph-name="uni038E" unicode="&#x38e;" horiz-adv-x="1132" 
d="M266 0l140 578l-228 856h342l105 -576l379 576h368l-659 -879l-138 -555h-309zM-236 1042l113 392h293l-236 -392h-170z" />
    <glyph glyph-name="uni038F" unicode="&#x38f;" horiz-adv-x="1503" 
d="M881 1184q-160 0 -256 -103q-76 -76 -114 -201t-38 -245q0 -122 28.5 -209.5t78.5 -171.5l-66 -254h-532l65 260h281q-148 236 -148 453q0 337 205 542q203 203 516 203q262 0 408.5 -139.5t146.5 -376.5q0 -192 -92 -352t-272 -330h270l-64 -260h-569l64 254
q150 132 254 305t104 338q0 136 -70.5 211.5t-199.5 75.5zM-76 1059l113 391h293l-236 -391h-170z" />
    <glyph glyph-name="uni0390" unicode="&#x390;" horiz-adv-x="595" 
d="M627 1208l63 252h244l-64 -252h-243zM16 1208l64 252h244l-62 -252h-246zM301 1208l172 396l246 -54l-244 -342h-174zM51 205q0 84 29 190l170 703h291l-183 -750q-10 -45 -10 -59q0 -58 84 -58q6 0 14.5 1t20 2t20.5 2l-57 -226q-64 -22 -145 -22q-117 0 -175.5 56
t-58.5 161z" />
    <glyph glyph-name="uni0391" unicode="&#x391;" horiz-adv-x="1347" 
d="M-109 0l859 1444h301l153 -1444h-317l-25 322h-461l-178 -322h-332zM575 596h256l-22 469z" />
    <glyph glyph-name="uni0392" unicode="&#x392;" horiz-adv-x="1251" 
d="M6 0l350 1434h445q116 0 205 -27.5t143 -76t81 -110t27 -133.5q0 -145 -80 -236t-212 -124q184 -88 184 -287q0 -207 -160.5 -323.5t-429.5 -116.5h-553zM379 272h227q111 0 173.5 49.5t62.5 139.5q0 133 -168 133h-223zM518 852h193q114 0 175.5 45.5t61.5 136.5
q0 57 -43 92t-131 35h-188z" />
    <glyph glyph-name="uni0393" unicode="&#x393;" horiz-adv-x="1069" 
d="M4 0l352 1434h875l-68 -273h-579l-283 -1161h-297z" />
    <glyph glyph-name="uni0394" unicode="&#x394;" horiz-adv-x="1372" 
d="M1061 1442l158 -1223l-78 -219h-1170l25 219l754 1223h311zM823 1065l-475 -801h561z" />
    <glyph glyph-name="uni0395" unicode="&#x395;" horiz-adv-x="1159" 
d="M6 0l350 1434h912l-72 -277h-602l-68 -299h529l-72 -272h-528l-70 -310h614l-73 -276h-920z" />
    <glyph glyph-name="uni0396" unicode="&#x396;" horiz-adv-x="1200" 
d="M-39 0l62 238l825 925h-594l72 271h995l-61 -238l-828 -926h621l-70 -270h-1022z" />
    <glyph glyph-name="uni0397" unicode="&#x397;" horiz-adv-x="1335" 
d="M6 0l350 1434h312l-138 -570h433l135 570h311l-350 -1434h-311l141 578h-432l-140 -578h-311z" />
    <glyph glyph-name="uni0398" unicode="&#x398;" horiz-adv-x="1435" 
d="M102 563q0 182 70.5 374t192.5 314q214 207 493 207q174 0 301 -78.5t189.5 -210t62.5 -297.5q0 -184 -70 -376t-192 -314q-214 -207 -494 -207q-174 0 -301 79t-189.5 210.5t-62.5 298.5zM399 573q0 -157 72 -242t211 -85q142 0 250 108q88 88 135 233.5t47 272.5
q0 157 -72 242.5t-211 85.5q-140 0 -249 -109q-88 -88 -135.5 -233.5t-47.5 -272.5zM1008 852l-64 -260h-436l63 260h437z" />
    <glyph glyph-name="uni0399" unicode="&#x399;" horiz-adv-x="622" 
d="M20 0l351 1434h311l-350 -1434h-312z" />
    <glyph glyph-name="uni039A" unicode="&#x39a;" horiz-adv-x="1271" 
d="M6 0l350 1434h312l-146 -611l541 611h399l-594 -607l273 -827h-338l-172 602l-223 -225l-91 -377h-311z" />
    <glyph glyph-name="uni039B" unicode="&#x39b;" horiz-adv-x="1304" 
d="M1014 1442l145 -1442h-311l-78 971l-551 -971h-325l847 1442h273z" />
    <glyph glyph-name="uni039C" unicode="&#x39c;" horiz-adv-x="1531" 
d="M6 0l350 1434h330l139 -598l418 598h363l-351 -1434h-313l219 934l-454 -617h-9l-161 611l-222 -928h-309z" />
    <glyph glyph-name="uni039D" unicode="&#x39d;" horiz-adv-x="1380" 
d="M6 0l350 1434h289l291 -899l213 899h305l-350 -1434h-268l-306 930l-217 -930h-307z" />
    <glyph glyph-name="uni039E" unicode="&#x39e;" horiz-adv-x="1146" 
d="M985 270l-67 -270h-959l64 270h962zM1260 1434l-68 -271h-942l67 271h943zM1075 856l-67 -268h-854l65 268h856z" />
    <glyph glyph-name="uni039F" unicode="&#x39f;" horiz-adv-x="1427" 
d="M862 1456q164 0 287.5 -74t188.5 -205.5t65 -302.5q0 -186 -70 -377t-196 -317q-203 -203 -494 -203q-248 0 -394.5 160t-146.5 422q0 185 71 377t196 317q203 203 493 203zM682 264q121 0 219 98q82 82 132 224.5t50 265.5q0 151 -66.5 234t-193.5 83q-125 0 -219 -98
q-82 -82 -132 -224t-50 -265q0 -151 66.5 -234.5t193.5 -83.5z" />
    <glyph glyph-name="uni03A0" unicode="&#x3a0;" horiz-adv-x="1333" 
d="M4 0l352 1434h1051l-350 -1434h-295l282 1161h-460l-283 -1161h-297z" />
    <glyph glyph-name="uni03A1" unicode="&#x3a1;" horiz-adv-x="1204" 
d="M6 0l350 1434h355q149 0 247 -31t170 -103q111 -111 111 -299q0 -235 -154 -389q-87 -87 -213.5 -133.5t-279.5 -46.5h-172l-103 -432h-311zM868 1102q-31 30 -70 40.5t-102 10.5h-102l-105 -451h119q148 0 232 84q73 73 73 193q0 71 -45 123z" />
    <glyph glyph-name="uni03A3" unicode="&#x3a3;" horiz-adv-x="1175" 
d="M891 705l-451 -441h596l-63 -264h-1014l57 225l535 512l-295 471l55 226h975l-65 -265h-607z" />
    <glyph glyph-name="uni03A4" unicode="&#x3a4;" horiz-adv-x="1069" 
d="M244 0l274 1147h-354l76 287h1020l-76 -287h-355l-276 -1147h-309z" />
    <glyph glyph-name="uni03A5" unicode="&#x3a5;" horiz-adv-x="1132" 
d="M266 0l140 578l-228 856h342l105 -576l379 576h368l-659 -879l-138 -555h-309z" />
    <glyph glyph-name="uni03A6" unicode="&#x3a6;" horiz-adv-x="1751" 
d="M950 1450h295l-35 -145q232 -33 368 -165t136 -339q0 -270 -178 -451q-216 -216 -614 -225l-35 -141h-297l37 149q-231 30 -367.5 164.5t-136.5 341.5q0 270 178 451q103 103 259.5 160t354.5 63zM424 653q0 -116 69 -184.5t201 -85.5l166 678q-212 -9 -328 -125
q-53 -53 -80.5 -128.5t-27.5 -154.5zM1413 784q0 116 -69.5 186t-200.5 87l-166 -678q212 9 328 125q54 54 81 128t27 152z" />
    <glyph glyph-name="uni03A7" unicode="&#x3a7;" horiz-adv-x="1222" 
d="M-106 0l587 750l-227 684h346l105 -449l303 449h391l-570 -719l240 -715h-346l-121 483l-321 -483h-387z" />
    <glyph glyph-name="uni03A8" unicode="&#x3a8;" horiz-adv-x="1579" 
d="M864 1434h287l-213 -865q144 3 219 78q34 34 54 80t40 121l144 586h293l-154 -627q-57 -229 -170 -342q-167 -165 -490 -168l-71 -297h-293l74 303q-195 25 -301.5 128t-106.5 274q0 114 37 243l115 486h293l-123 -508l-9 -42l-9 -42t-6.5 -34.5t-5 -36.5t-1.5 -32
q0 -79 44.5 -120t141.5 -48z" />
    <glyph glyph-name="uni03A9" unicode="&#x3a9;" horiz-adv-x="1503" 
d="M881 1184q-160 0 -256 -103q-76 -76 -114 -201t-38 -245q0 -122 28.5 -209.5t78.5 -171.5l-66 -254h-532l65 260h281q-148 236 -148 453q0 337 205 542q203 203 516 203q262 0 408.5 -139.5t146.5 -376.5q0 -192 -92 -352t-272 -330h270l-64 -260h-569l64 254
q150 132 254 305t104 338q0 136 -70.5 211.5t-199.5 75.5z" />
    <glyph glyph-name="uni03AA" unicode="&#x3aa;" horiz-adv-x="622" 
d="M20 0l351 1434h311l-350 -1434h-312zM207 1536l63 252h285l-66 -252h-282zM606 1536l66 252h284l-65 -252h-285z" />
    <glyph glyph-name="uni03AB" unicode="&#x3ab;" horiz-adv-x="1132" 
d="M266 0l140 578l-228 856h342l105 -576l379 576h368l-659 -879l-138 -555h-309zM461 1536l63 252h285l-66 -252h-282zM860 1536l66 252h284l-65 -252h-285z" />
    <glyph glyph-name="uni03AC" unicode="&#x3ac;" horiz-adv-x="1263" 
d="M647 1208l225 351l234 -113l-246 -238h-213zM416 -20q-163 0 -259 110t-96 316q0 168 56.5 322.5t154.5 252.5q137 137 318 137q191 0 293 -172l35 152h290l-182 -750q-8 -33 -8 -59q0 -58 82 -58q10 0 55 5l-57 -226q-64 -22 -146 -22q-85 0 -138 38.5t-71 106.5
q-80 -85 -159 -119t-168 -34zM530 231q87 0 156 72q55 55 91 160t36 196q0 97 -48.5 152t-127.5 55q-85 0 -154 -69q-55 -55 -91 -161t-36 -200q0 -98 47 -151.5t127 -53.5z" />
    <glyph glyph-name="uni03AD" unicode="&#x3ad;" horiz-adv-x="1019" 
d="M532 1208l226 351l233 -113l-246 -238h-213zM295 567q-133 77 -133 215q0 137 121 236.5t325 99.5q242 0 432 -157l-157 -197q-133 113 -275 113q-83 0 -126.5 -33.5t-43.5 -87.5q0 -47 36 -72t124 -25h158l-54 -219h-180q-196 0 -196 -121q0 -102 168 -102q151 3 307 82
l76 -223q-85 -48 -197.5 -74.5t-218.5 -26.5q-203 0 -315.5 80t-112.5 213q0 107 67.5 185.5t194.5 113.5z" />
    <glyph glyph-name="uni03AE" unicode="&#x3ae;" horiz-adv-x="1110" 
d="M608 1208l226 351l233 -113l-246 -238h-213zM-20 0l268 1098h289l-29 -119q139 139 274 139q129 0 203 -75.5t74 -204.5q0 -65 -27 -179l-235 -968h-291l233 952q15 66 15 96q0 57 -32.5 87t-92.5 30q-73 0 -124 -50.5t-75 -139.5l-162 -666h-288z" />
    <glyph glyph-name="uni03AF" unicode="&#x3af;" horiz-adv-x="595" 
d="M307 1206l225 350l234 -112l-246 -238h-213zM51 205q0 84 29 190l170 703h291l-183 -750q-10 -45 -10 -59q0 -58 84 -58q6 0 14.5 1t20 2t20.5 2l-57 -226q-64 -22 -145 -22q-117 0 -175.5 56t-58.5 161z" />
    <glyph glyph-name="uni03B0" unicode="&#x3b0;" horiz-adv-x="1122" 
d="M907 1208l64 252h243l-63 -252h-244zM297 1208l63 252h244l-61 -252h-246zM582 1208l172 396l245 -54l-243 -342h-174zM473 -23q-190 0 -296.5 90.5t-106.5 247.5q0 77 26 183l144 600h290l-151 -631q-19 -74 -19 -119q0 -57 34 -88t100 -31q79 0 131 52q49 49 75 153
l158 664h291l-168 -697q-48 -190 -150 -292q-132 -132 -358 -132z" />
    <glyph glyph-name="uni03B1" unicode="&#x3b1;" horiz-adv-x="1263" 
d="M416 -20q-163 0 -259 110t-96 316q0 168 56.5 322.5t154.5 252.5q137 137 318 137q191 0 293 -172l35 152h290l-182 -750q-8 -33 -8 -59q0 -58 82 -58q10 0 55 5l-57 -226q-64 -22 -146 -22q-85 0 -138 38.5t-71 106.5q-80 -85 -159 -119t-168 -34zM530 231q87 0 156 72
q55 55 91 160t36 196q0 97 -48.5 152t-127.5 55q-85 0 -154 -69q-55 -55 -91 -161t-36 -200q0 -98 47 -151.5t127 -53.5z" />
    <glyph glyph-name="uni03B2" unicode="&#x3b2;" horiz-adv-x="1181" 
d="M639 -20q-126 0 -205 46t-131 126l-115 -461h-288l317 1315q33 130 72.5 210.5t101.5 141.5q135 135 367 135q204 0 319 -105.5t115 -271.5q0 -146 -84 -252t-246 -149q211 -94 211 -301q0 -115 -54.5 -214t-155 -159.5t-224.5 -60.5zM498 973l-33 -133h141q160 0 232 75
q67 67 67 181q0 70 -40.5 112.5t-116.5 42.5q-83 0 -148 -59q-61 -61 -102 -219zM588 231q96 0 149.5 65.5t53.5 149.5q0 89 -69.5 135t-227.5 46h-78l-21 -86q-14 -66 -14 -111q0 -96 57.5 -147.5t149.5 -51.5z" />
    <glyph glyph-name="uni03B3" unicode="&#x3b3;" horiz-adv-x="1071" 
d="M465 -309h-291l86 346l-98 1061h295l26 -713l379 713h305l-616 -1061z" />
    <glyph glyph-name="uni03B4" unicode="&#x3b4;" horiz-adv-x="1153" 
d="M719 1247l115 -141q117 -145 177 -273.5t60 -277.5q0 -268 -166 -434q-146 -146 -368 -146q-117 0 -209.5 37.5t-149 101t-86 144t-29.5 170.5q0 207 114 364.5t358 272.5l-158 197l53 217h748l-60 -240zM786 551q0 156 -110 332q-92 -45 -158.5 -99.5t-103.5 -112.5
t-53.5 -114t-16.5 -115q0 -97 51.5 -158t147.5 -61q89 0 153 64q90 93 90 264z" />
    <glyph glyph-name="uni03B5" unicode="&#x3b5;" horiz-adv-x="1019" 
d="M295 567q-133 77 -133 215q0 137 121 236.5t325 99.5q242 0 432 -157l-157 -197q-133 113 -275 113q-83 0 -126.5 -33.5t-43.5 -87.5q0 -47 36 -72t124 -25h158l-54 -219h-180q-196 0 -196 -121q0 -102 168 -102q151 3 307 82l76 -223q-85 -48 -197.5 -74.5t-218.5 -26.5
q-203 0 -315.5 80t-112.5 213q0 107 67.5 185.5t194.5 113.5z" />
    <glyph glyph-name="uni03B6" unicode="&#x3b6;" horiz-adv-x="1011" 
d="M1118 1260l-622 -611q-88 -85 -121 -132t-33 -95q0 -53 37 -86.5t137 -61.5l332 -88l-107 -430h-266l64 248l-162 45q-182 51 -258 134t-76 212q0 105 58 196.5t198 231.5l422 416h-391l61 240h780z" />
    <glyph glyph-name="uni03B7" unicode="&#x3b7;" horiz-adv-x="1110" 
d="M-20 0l268 1098h289l-29 -119q139 139 274 139q129 0 203 -75.5t74 -204.5q0 -65 -27 -179l-235 -968h-291l233 952q15 66 15 96q0 57 -32.5 87t-92.5 30q-73 0 -124 -50.5t-75 -139.5l-162 -666h-288z" />
    <glyph glyph-name="uni03B8" unicode="&#x3b8;" horiz-adv-x="1183" 
d="M502 -25q-196 0 -298 131.5t-102 360.5q0 138 30.5 293t101 315.5t169.5 259.5q156 156 365 156q196 0 296.5 -131t100.5 -359q0 -140 -30 -294.5t-100.5 -315t-170.5 -260.5q-156 -156 -362 -156zM524 221q79 0 148 66q96 96 164 334h-449q-14 -92 -14 -170
q0 -230 151 -230zM598 1180q-92 -92 -162 -328h447q14 88 14 166q0 227 -152 227q-82 0 -147 -65z" />
    <glyph glyph-name="uni03B9" unicode="&#x3b9;" horiz-adv-x="595" 
d="M51 205q0 84 29 190l170 703h291l-183 -750q-10 -45 -10 -59q0 -58 84 -58q6 0 14.5 1t20 2t20.5 2l-57 -226q-64 -22 -145 -22q-117 0 -175.5 56t-58.5 161z" />
    <glyph glyph-name="uni03BA" unicode="&#x3ba;" horiz-adv-x="1081" 
d="M909 0h-305l-119 418l-147 -142l-68 -276h-288l266 1098h289l-105 -430l402 430h368l-479 -480z" />
    <glyph glyph-name="uni03BB" unicode="&#x3bb;" horiz-adv-x="1091" 
d="M209 0h-305l647 1098l-2 16q-5 42 -11.5 60.5t-23.5 35.5q-33 33 -104 33q-46 0 -105 -12l47 242q73 20 154 20q70 0 121 -17.5t96 -62.5t71 -119t37 -215l101 -1079h-291l-41 729z" />
    <glyph glyph-name="uni03BC" unicode="&#x3bc;" horiz-adv-x="1204" 
d="M477 -12q-158 0 -211 164h-4q3 -139 -35 -302l-39 -159h-284l344 1407h289l-150 -623q-16 -70 -16 -110q0 -60 34 -93.5t97 -33.5q148 0 194 186l162 674h291l-182 -750q-9 -35 -9 -59q0 -58 82 -58q11 0 56 5l-58 -226q-64 -22 -143 -22q-156 0 -199 131
q-86 -131 -219 -131z" />
    <glyph glyph-name="uni03BD" unicode="&#x3bd;" horiz-adv-x="1067" 
d="M254 -8l-90 1116h311l12 -731l355 731h323l-633 -1116h-278z" />
    <glyph glyph-name="uni03BE" unicode="&#x3be;" horiz-adv-x="993" 
d="M829 182l-106 -426h-264l61 248l-71 19q-203 52 -302.5 143t-99.5 237q0 142 87 249.5t269 146.5q-66 52 -101.5 115t-35.5 153q0 85 33.5 161.5t94 134.5t152 92t199.5 34q249 0 429 -180l-175 -203q-113 127 -247 127q-96 0 -149.5 -60t-53.5 -139q0 -83 57.5 -128.5
t190.5 -45.5h84l-60 -242h-213q-133 0 -197.5 -52.5t-64.5 -131.5q0 -65 49.5 -108.5t165.5 -73.5z" />
    <glyph glyph-name="uni03BF" unicode="&#x3bf;" horiz-adv-x="1148" 
d="M633 1126q208 0 329 -131.5t121 -347.5q0 -147 -53 -282t-147 -232q-156 -156 -365 -156q-208 0 -329 132t-121 348q0 149 52 283.5t148 230.5q155 155 365 155zM530 240q75 0 132 57q58 58 91 156t33 186q0 110 -44 167.5t-121 57.5q-75 0 -132 -57q-58 -58 -91 -156
t-33 -186q0 -110 44 -167.5t121 -57.5z" />
    <glyph glyph-name="uni03C0" unicode="&#x3c0;" horiz-adv-x="1298" 
d="M713 205q0 88 28 190l107 443h-287l-201 -838h-290l204 838h-149l63 260h1166l-66 -260h-149l-119 -490q-10 -45 -10 -59q0 -58 84 -58q6 0 14.5 1t20 2t20.5 2l-57 -226q-64 -22 -146 -22q-117 0 -175 56t-58 161z" />
    <glyph glyph-name="uni03C1" unicode="&#x3c1;" horiz-adv-x="1179" 
d="M588 -20q-107 0 -175 45.5t-116 126.5l-115 -461h-288l221 903q59 259 178 381q149 143 362 143q207 0 332 -120.5t125 -331.5q0 -151 -54.5 -304t-146.5 -241q-138 -141 -323 -141zM543 231q89 0 155 66q58 58 91.5 163t33.5 195q0 106 -46 160.5t-126 54.5
q-86 0 -153 -67q-58 -55 -92.5 -163t-34.5 -200q0 -101 47.5 -155t124.5 -54z" />
    <glyph glyph-name="uni03C2" unicode="&#x3c2;" horiz-adv-x="983" 
d="M799 184l-105 -428h-268l63 252l-81 29q-338 117 -338 440q0 140 49 270t135 216q151 155 367 155q252 0 395 -209l-203 -176q-73 125 -192 125q-91 0 -154 -63q-52 -52 -80.5 -132t-28.5 -157q0 -102 60 -164.5t209 -105.5z" />
    <glyph glyph-name="uni03C3" unicode="&#x3c3;" horiz-adv-x="1214" 
d="M514 -25q-209 0 -330 125t-121 334q0 145 48 279t137 223q81 81 183.5 121.5t246.5 40.5h612l-61 -252l-254 6q92 -116 92 -285q0 -120 -45.5 -237.5t-126.5 -198.5q-156 -156 -381 -156zM528 227q88 0 154 66q52 52 84.5 147.5t32.5 184.5q0 108 -48 165.5t-130 57.5
q-88 0 -158 -70q-52 -52 -84.5 -149t-32.5 -185q0 -108 47 -162.5t135 -54.5z" />
    <glyph glyph-name="uni03C4" unicode="&#x3c4;" horiz-adv-x="1007" 
d="M1079 1098l-63 -260h-311l-107 -461q-14 -54 -14 -78q0 -40 26 -56t82 -16q25 0 111 11l-58 -230q-85 -18 -167 -18q-141 0 -217 60t-76 177q0 66 24 160l105 451h-291l63 260h893z" />
    <glyph glyph-name="uni03C5" unicode="&#x3c5;" horiz-adv-x="1122" 
d="M473 -23q-190 0 -296.5 90.5t-106.5 247.5q0 77 26 183l144 600h290l-151 -631q-19 -74 -19 -119q0 -57 34 -88t100 -31q79 0 131 52q49 49 75 153l158 664h291l-168 -697q-48 -190 -150 -292q-132 -132 -358 -132z" />
    <glyph glyph-name="uni03C6" unicode="&#x3c6;" horiz-adv-x="1546" 
d="M420 -309l78 317q-199 42 -312.5 170.5t-113.5 317.5q0 117 44 226t122 187q192 192 528 195l92 375h287l-96 -392q198 -42 311 -169.5t113 -315.5q0 -118 -43.5 -227.5t-122.5 -186.5q-191 -191 -527 -194l-73 -303h-287zM352 500q0 -100 55.5 -167t153.5 -87l152 614
q-166 -6 -260 -100q-48 -48 -74.5 -118.5t-26.5 -141.5zM1192 598q0 98 -55.5 165t-153.5 87l-149 -612q161 3 258 100q48 48 74 118t26 142z" />
    <glyph glyph-name="uni03C7" unicode="&#x3c7;" horiz-adv-x="1093" 
d="M465 1098l108 -432l289 432h340l-526 -713l221 -694h-305l-131 475l-336 -475h-344l577 747l-198 660h305z" />
    <glyph glyph-name="uni03C8" unicode="&#x3c8;" horiz-adv-x="1529" 
d="M1133 1479l-302 -1229q133 3 209 76q61 61 86 174l142 598h288l-155 -645q-25 -98 -59 -167.5t-91 -123.5q-157 -157 -481 -166l-74 -305h-286l75 309q-183 19 -290 119.5t-107 265.5q0 81 23 184l127 529h288l-135 -561q-16 -69 -16 -117q0 -77 42.5 -117t131.5 -51
l301 1227h283z" />
    <glyph glyph-name="uni03C9" unicode="&#x3c9;" horiz-adv-x="1628" 
d="M748 881h280l-80 -338q-26 -116 -26 -166q0 -62 29 -99.5t91 -37.5q100 0 153.5 113t53.5 298q0 232 -92 447h293q84 -240 84 -453q0 -309 -133 -489.5t-346 -180.5q-258 0 -305 240q-58 -120 -146.5 -180t-191.5 -60q-110 0 -190.5 52.5t-119.5 140t-39 197.5
q0 184 80.5 373.5t237.5 359.5h328q-178 -187 -267.5 -366t-89.5 -333q0 -74 32 -116.5t87 -42.5q62 0 110 60t81 204z" />
    <glyph glyph-name="uni03CA" unicode="&#x3ca;" horiz-adv-x="595" 
d="M100 1212l68 267h285l-70 -267h-283zM494 1212l69 267h283l-68 -267h-284zM51 205q0 84 29 190l170 703h291l-183 -750q-10 -45 -10 -59q0 -58 84 -58q6 0 14.5 1t20 2t20.5 2l-57 -226q-64 -22 -145 -22q-117 0 -175.5 56t-58.5 161z" />
    <glyph glyph-name="uni03CB" unicode="&#x3cb;" horiz-adv-x="1122" 
d="M381 1212l68 267h284l-69 -267h-283zM774 1212l70 267h282l-67 -267h-285zM473 -23q-190 0 -296.5 90.5t-106.5 247.5q0 77 26 183l144 600h290l-151 -631q-19 -74 -19 -119q0 -57 34 -88t100 -31q79 0 131 52q49 49 75 153l158 664h291l-168 -697q-48 -190 -150 -292
q-132 -132 -358 -132z" />
    <glyph glyph-name="uni03CC" unicode="&#x3cc;" horiz-adv-x="1148" 
d="M614 1208l226 351l233 -113l-246 -238h-213zM633 1126q208 0 329 -131.5t121 -347.5q0 -147 -53 -282t-147 -232q-156 -156 -365 -156q-208 0 -329 132t-121 348q0 149 52 283.5t148 230.5q155 155 365 155zM530 240q75 0 132 57q58 58 91 156t33 186q0 110 -44 167.5
t-121 57.5q-75 0 -132 -57q-58 -58 -91 -156t-33 -186q0 -110 44 -167.5t121 -57.5z" />
    <glyph glyph-name="uni03CD" unicode="&#x3cd;" horiz-adv-x="1122" 
d="M588 1206l225 350l234 -112l-246 -238h-213zM473 -23q-190 0 -296.5 90.5t-106.5 247.5q0 77 26 183l144 600h290l-151 -631q-19 -74 -19 -119q0 -57 34 -88t100 -31q79 0 131 52q49 49 75 153l158 664h291l-168 -697q-48 -190 -150 -292q-132 -132 -358 -132z" />
    <glyph glyph-name="uni03CE" unicode="&#x3ce;" horiz-adv-x="1628" 
d="M844 1206l225 350l234 -112l-246 -238h-213zM748 881h280l-80 -338q-26 -116 -26 -166q0 -62 29 -99.5t91 -37.5q100 0 153.5 113t53.5 298q0 232 -92 447h293q84 -240 84 -453q0 -309 -133 -489.5t-346 -180.5q-258 0 -305 240q-58 -120 -146.5 -180t-191.5 -60
q-110 0 -190.5 52.5t-119.5 140t-39 197.5q0 184 80.5 373.5t237.5 359.5h328q-178 -187 -267.5 -366t-89.5 -333q0 -74 32 -116.5t87 -42.5q62 0 110 60t81 204z" />
    <glyph glyph-name="uni0400" unicode="&#x400;" horiz-adv-x="1159" 
d="M731 1530l-223 201l268 112l166 -313h-211zM6 0l350 1434h912l-72 -277h-602l-68 -299h529l-72 -272h-528l-70 -310h614l-73 -276h-920z" />
    <glyph glyph-name="uni0401" unicode="&#x401;" horiz-adv-x="1159" 
d="M498 1536l63 252h285l-66 -252h-282zM897 1536l66 252h284l-65 -252h-285zM6 0l350 1434h912l-72 -277h-602l-68 -299h529l-72 -272h-528l-70 -310h614l-73 -276h-920z" />
    <glyph glyph-name="uni0402" unicode="&#x402;" horiz-adv-x="1443" 
d="M1065 498q0 79 -54.5 112t-168.5 33q-72 0 -150 -10l-153 -633h-297l284 1159h-342l68 275h1005l-67 -275h-367l-65 -258q73 8 153 8q225 0 340 -99t115 -282q0 -113 -35.5 -218t-99.5 -169q-145 -145 -443 -145h-53l64 258h8q131 0 199 65q28 28 43.5 78.5t15.5 100.5z
" />
    <glyph glyph-name="uni0403" unicode="&#x403;" horiz-adv-x="1069" 
d="M653 1530l310 313l251 -112l-309 -201h-252zM4 0l352 1434h875l-68 -273h-579l-283 -1161h-297z" />
    <glyph glyph-name="uni0404" unicode="&#x404;" horiz-adv-x="1249" 
d="M104 553q0 188 68.5 378t194.5 316q207 207 495 207q158 0 275.5 -59.5t212.5 -184.5l-228 -190q-55 76 -122 118t-158 42q-141 0 -256 -109q-78 -78 -131 -221h510l-62 -254h-500v-23v-10q0 -152 77 -230.5t204 -78.5q146 0 283 117l159 -217q-105 -84 -215 -129
t-243 -45q-257 0 -410.5 150.5t-153.5 422.5z" />
    <glyph glyph-name="uni0405" unicode="&#x405;" horiz-adv-x="1105" 
d="M500 -20q-164 0 -300 68t-229 194l232 200q84 -95 159 -141.5t152 -46.5q65 0 106.5 36.5t41.5 92.5q0 45 -37.5 89t-147.5 126q-138 101 -205 193.5t-67 207.5q0 184 123 310q145 145 360 145q273 0 471 -213l-213 -215q-74 79 -135.5 116.5t-132.5 37.5
q-68 0 -105.5 -37t-37.5 -88q0 -48 37 -93t145 -120q134 -95 204 -191t70 -217q0 -186 -129 -315q-67 -67 -162.5 -103t-199.5 -36z" />
    <glyph glyph-name="uni0406" unicode="&#x406;" horiz-adv-x="622" 
d="M20 0l351 1434h311l-350 -1434h-312z" />
    <glyph glyph-name="uni0407" unicode="&#x407;" horiz-adv-x="622" 
d="M20 0l351 1434h311l-350 -1434h-312zM207 1536l63 252h285l-66 -252h-282zM606 1536l66 252h284l-65 -252h-285z" />
    <glyph glyph-name="uni0408" unicode="&#x408;" horiz-adv-x="980" 
d="M336 -18q-265 0 -414 211l219 204q55 -69 97 -98t88 -29q63 0 110 47q58 58 101 240l206 877h320l-227 -951q-37 -152 -73.5 -232t-98.5 -142q-127 -127 -328 -127z" />
    <glyph glyph-name="uni0409" unicode="&#x409;" horiz-adv-x="1918" 
d="M735 0l285 1169h-25l-802 -1169h-328l1003 1434h512l-110 -457h80q264 0 391 -127q110 -110 110 -291q0 -232 -149 -381q-178 -178 -524 -178h-443zM1546 537q0 80 -45 122q-51 54 -166 54h-131l-108 -445h131q162 0 246 84q35 35 54 85t19 100z" />
    <glyph glyph-name="uni040A" unicode="&#x40a;" horiz-adv-x="1933" 
d="M750 0l141 584h-449l-141 -584h-297l352 1434h295l-141 -576h448l142 576h295l-111 -457h80q264 0 391 -127q111 -111 111 -291q0 -112 -39 -210.5t-111 -170.5q-178 -178 -524 -178h-442zM1561 537q0 79 -43 122q-54 54 -168 54h-131l-109 -445h131q162 0 246 84
q37 35 55.5 85t18.5 100z" />
    <glyph glyph-name="uni040B" unicode="&#x40b;" horiz-adv-x="1470" 
d="M242 0l284 1159h-342l68 275h1005l-67 -275h-367l-65 -260q82 10 166 10q87 0 161 -19.5t135 -61t95.5 -113.5t34.5 -168q0 -80 -29 -199l-80 -348h-297l88 381q21 99 21 123q0 135 -199 135q-88 0 -164 -12l-151 -627h-297z" />
    <glyph glyph-name="uni040C" unicode="&#x40c;" horiz-adv-x="1294" 
d="M739 1530l310 313l251 -112l-309 -201h-252zM4 0l352 1434h295l-147 -590h78l526 590h375l-688 -738l376 -696h-325l-309 598h-95l-141 -598h-297z" />
    <glyph glyph-name="uni040D" unicode="&#x40d;" horiz-adv-x="1394" 
d="M817 1530l-223 201l268 112l166 -313h-211zM1176 1434h292l-350 -1434h-295l215 879l-762 -879h-272l352 1434h293l-209 -850z" />
    <glyph glyph-name="uni040E" unicode="&#x40e;" horiz-adv-x="1253" 
d="M831 1530q-154 0 -235 75.5t-61 215.5h194q11 -46 44 -69t97 -23t102.5 22.5t69.5 69.5h222q-49 -140 -163.5 -215.5t-269.5 -75.5zM1456 1434l-1007 -1434h-332l344 489l-238 945h307l152 -658l440 658h334z" />
    <glyph glyph-name="uni040F" unicode="&#x40f;" horiz-adv-x="1333" 
d="M1407 1434l-350 -1434h-387l-68 -272h-276l69 272h-391l352 1434h295l-284 -1162h462l283 1162h295z" />
    <glyph glyph-name="uni0410" unicode="&#x410;" horiz-adv-x="1347" 
d="M-109 0l859 1444h301l153 -1444h-317l-25 322h-461l-178 -322h-332zM575 596h256l-22 469z" />
    <glyph glyph-name="uni0411" unicode="&#x411;" horiz-adv-x="1259" 
d="M1161 502q0 -207 -131 -338q-92 -92 -226 -128t-312 -36h-488l352 1434h928l-65 -267h-639l-68 -284h145q152 0 248.5 -29t159.5 -92q96 -96 96 -260zM856 481q0 59 -33 92q-28 28 -73.5 39t-126.5 11h-177l-86 -359h195q170 0 246 76q55 55 55 141z" />
    <glyph glyph-name="uni0412" unicode="&#x412;" horiz-adv-x="1251" 
d="M6 0l350 1434h445q116 0 205 -27.5t143 -76t81 -110t27 -133.5q0 -145 -80 -236t-212 -124q184 -88 184 -287q0 -207 -160.5 -323.5t-429.5 -116.5h-553zM379 272h227q111 0 173.5 49.5t62.5 139.5q0 133 -168 133h-223zM518 852h193q114 0 175.5 45.5t61.5 136.5
q0 57 -43 92t-131 35h-188z" />
    <glyph glyph-name="uni0413" unicode="&#x413;" horiz-adv-x="1069" 
d="M4 0l352 1434h875l-68 -273h-579l-283 -1161h-297z" />
    <glyph glyph-name="uni0414" unicode="&#x414;" horiz-adv-x="1497" 
d="M-16 272h129l694 1170h317l123 -1170h133l-135 -544h-276l67 272h-846l-67 -272h-275zM881 1055l-457 -795h524z" />
    <glyph glyph-name="uni0415" unicode="&#x415;" horiz-adv-x="1159" 
d="M6 0l350 1434h912l-72 -277h-602l-68 -299h529l-72 -272h-528l-70 -310h614l-73 -276h-920z" />
    <glyph glyph-name="uni0416" unicode="&#x416;" horiz-adv-x="1941" 
d="M1343 1434l-151 -590h61l510 590h367l-672 -750l344 -684h-321l-277 598h-71l-140 -598h-297l152 598h-66l-536 -598h-367l705 758l-308 676h322l246 -590h63l140 590h296z" />
    <glyph glyph-name="uni0417" unicode="&#x417;" horiz-adv-x="1163" 
d="M338 1073l-111 234q225 147 478 147q219 0 347 -100.5t128 -266.5q0 -141 -82.5 -236.5t-225.5 -145.5q83 -41 136 -113t53 -174q0 -128 -71.5 -229t-193 -155t-268.5 -54q-332 0 -546 217l178 206q89 -78 176.5 -116.5t193.5 -38.5q107 0 171.5 54t64.5 134
q0 160 -234 160h-196l63 252h189q139 0 209.5 51.5t70.5 140.5q0 70 -49 109t-139 39q-161 0 -342 -115z" />
    <glyph glyph-name="uni0418" unicode="&#x418;" horiz-adv-x="1394" 
d="M1176 1434h292l-350 -1434h-295l215 879l-762 -879h-272l352 1434h293l-209 -850z" />
    <glyph glyph-name="uni0419" unicode="&#x419;" horiz-adv-x="1394" 
d="M926 1530q-154 0 -235.5 76t-61.5 215h194q22 -92 142 -92q64 0 102.5 22.5t69.5 69.5h221q-49 -140 -163 -215.5t-269 -75.5zM1176 1434h292l-350 -1434h-295l215 879l-762 -879h-272l352 1434h293l-209 -850z" />
    <glyph glyph-name="uni041A" unicode="&#x41a;" horiz-adv-x="1294" 
d="M4 0l352 1434h295l-147 -590h78l526 590h375l-688 -738l376 -696h-325l-309 598h-95l-141 -598h-297z" />
    <glyph glyph-name="uni041B" unicode="&#x41b;" horiz-adv-x="1304" 
d="M1014 1442l145 -1442h-311l-78 971l-551 -971h-325l847 1442h273z" />
    <glyph glyph-name="uni041C" unicode="&#x41c;" horiz-adv-x="1531" 
d="M6 0l350 1434h330l139 -598l418 598h363l-351 -1434h-313l219 934l-454 -617h-9l-161 611l-222 -928h-309z" />
    <glyph glyph-name="uni041D" unicode="&#x41d;" horiz-adv-x="1335" 
d="M6 0l350 1434h312l-138 -570h433l135 570h311l-350 -1434h-311l141 578h-432l-140 -578h-311z" />
    <glyph glyph-name="uni041E" unicode="&#x41e;" horiz-adv-x="1427" 
d="M862 1456q164 0 287.5 -74t188.5 -205.5t65 -302.5q0 -186 -70 -377t-196 -317q-203 -203 -494 -203q-248 0 -394.5 160t-146.5 422q0 185 71 377t196 317q203 203 493 203zM682 264q121 0 219 98q82 82 132 224.5t50 265.5q0 151 -66.5 234t-193.5 83q-125 0 -219 -98
q-82 -82 -132 -224t-50 -265q0 -151 66.5 -234.5t193.5 -83.5z" />
    <glyph glyph-name="uni041F" unicode="&#x41f;" horiz-adv-x="1333" 
d="M4 0l352 1434h1051l-350 -1434h-295l282 1161h-460l-283 -1161h-297z" />
    <glyph glyph-name="uni0420" unicode="&#x420;" horiz-adv-x="1204" 
d="M6 0l350 1434h355q149 0 247 -31t170 -103q111 -111 111 -299q0 -235 -154 -389q-87 -87 -213.5 -133.5t-279.5 -46.5h-172l-103 -432h-311zM868 1102q-31 30 -70 40.5t-102 10.5h-102l-105 -451h119q148 0 232 84q73 73 73 193q0 71 -45 123z" />
    <glyph glyph-name="uni0421" unicode="&#x421;" horiz-adv-x="1228" 
d="M692 -20q-266 0 -426 159.5t-160 433.5q0 183 69 364.5t190 307.5q107 104 224 156.5t261 52.5q154 0 275 -64.5t204 -179.5l-242 -204q-61 83 -119 122t-139 39q-121 0 -227 -106q-78 -78 -127 -208t-49 -269q0 -143 71 -230.5t193 -87.5q117 0 246 105l174 -219
q-190 -172 -418 -172z" />
    <glyph glyph-name="uni0422" unicode="&#x422;" horiz-adv-x="1069" 
d="M244 0l274 1147h-354l76 287h1020l-76 -287h-355l-276 -1147h-309z" />
    <glyph glyph-name="uni0423" unicode="&#x423;" horiz-adv-x="1253" 
d="M1456 1434l-1007 -1434h-332l344 489l-238 945h307l152 -658l440 658h334z" />
    <glyph glyph-name="uni0424" unicode="&#x424;" horiz-adv-x="1751" 
d="M950 1450h295l-35 -145q232 -33 368 -165t136 -339q0 -270 -178 -451q-216 -216 -614 -225l-35 -141h-297l37 149q-231 30 -367.5 164.5t-136.5 341.5q0 270 178 451q103 103 259.5 160t354.5 63zM424 653q0 -116 69 -184.5t201 -85.5l166 678q-212 -9 -328 -125
q-53 -53 -80.5 -128.5t-27.5 -154.5zM1413 784q0 116 -69.5 186t-200.5 87l-166 -678q212 9 328 125q54 54 81 128t27 152z" />
    <glyph glyph-name="uni0425" unicode="&#x425;" horiz-adv-x="1222" 
d="M-106 0l587 750l-227 684h346l105 -449l303 449h391l-570 -719l240 -715h-346l-121 483l-321 -483h-387z" />
    <glyph glyph-name="uni0426" unicode="&#x426;" horiz-adv-x="1400" 
d="M1407 1434l-285 -1162h170l-135 -544h-276l69 272h-946l352 1434h295l-284 -1162h462l283 1162h295z" />
    <glyph glyph-name="uni0427" unicode="&#x427;" horiz-adv-x="1263" 
d="M692 0l109 461q-94 -17 -178 -17q-71 0 -133.5 12t-118.5 39.5t-96 69.5t-63.5 104.5t-23.5 141.5q0 85 29 201l100 422h295l-106 -457q-21 -71 -21 -119q0 -139 195 -139q102 0 190 18l172 697h295l-350 -1434h-295z" />
    <glyph glyph-name="uni0428" unicode="&#x428;" horiz-adv-x="1994" 
d="M2068 1434l-350 -1434h-1714l352 1434h295l-282 -1162h411l283 1162h297l-283 -1162h412l283 1162h296z" />
    <glyph glyph-name="uni0429" unicode="&#x429;" horiz-adv-x="2064" 
d="M2068 1434l-284 -1162h172l-135 -544h-277l70 272h-1610l352 1434h295l-282 -1162h411l283 1162h297l-283 -1162h412l283 1162h296z" />
    <glyph glyph-name="uni042A" unicode="&#x42a;" horiz-adv-x="1454" 
d="M186 1167l66 267h645l-113 -457h103q264 0 391 -127q108 -108 108 -291q0 -232 -149 -381q-178 -178 -524 -178h-463l287 1167h-351zM1081 537q0 79 -43 122q-54 54 -168 54h-149l-109 -445h152q156 0 246 84q71 71 71 185z" />
    <glyph glyph-name="uni042B" unicode="&#x42b;" horiz-adv-x="1759" 
d="M4 0l352 1434h295l-112 -457h102q264 0 391 -127q109 -109 109 -291q0 -112 -39 -210.5t-111 -170.5q-178 -178 -524 -178h-463zM1186 0l350 1434h297l-350 -1434h-297zM836 537q0 79 -43 122q-54 54 -168 54h-150l-108 -445h151q156 0 246 84q35 35 53.5 85t18.5 100z
" />
    <glyph glyph-name="uni042C" unicode="&#x42c;" horiz-adv-x="1208" 
d="M4 0l352 1434h295l-112 -457h102q264 0 391 -127q109 -109 109 -291q0 -112 -39 -210.5t-111 -170.5q-178 -178 -524 -178h-463zM836 537q0 79 -43 122q-54 54 -168 54h-150l-108 -445h151q156 0 246 84q35 35 53.5 85t18.5 100z" />
    <glyph glyph-name="uni042D" unicode="&#x42d;" horiz-adv-x="1253" 
d="M1227 879q0 -199 -63 -388t-191 -317q-194 -194 -477 -194q-322 0 -506 245l207 193q134 -164 309 -164q152 3 254 102q83 83 129 240h-520l61 254h498v10v10q0 148 -71.5 229t-197.5 81q-151 0 -305 -119l-145 227q222 166 473 166q248 0 396.5 -153.5t148.5 -421.5z
" />
    <glyph glyph-name="uni042E" unicode="&#x42e;" horiz-adv-x="1943" 
d="M4 0l352 1434h295l-139 -576h180q78 256 226 404q196 196 466 196q169 0 292 -79.5t183 -209.5t60 -292q0 -183 -71.5 -381.5t-194.5 -321.5q-199 -199 -467 -199q-128 0 -231 46t-169 125.5t-101.5 184.5t-35.5 226v27h-207l-141 -584h-297zM1212 250q124 0 218 94
q83 83 133.5 233.5t50.5 286.5q0 60 -13.5 114t-42 101.5t-80.5 76t-122 28.5q-123 0 -217 -94q-83 -83 -134 -234t-51 -287q0 -60 13.5 -114t42 -101.5t80.5 -75.5t122 -28z" />
    <glyph glyph-name="uni042F" unicode="&#x42f;" horiz-adv-x="1292" 
d="M1370 1434l-350 -1434h-295l113 471h-181l-368 -471h-357l441 551q-185 117 -185 340q0 231 144 375q86 86 208 127t298 41h532zM1010 1165h-209q-89 0 -143.5 -15.5t-94.5 -55.5q-67 -61 -67 -179q0 -182 231 -182h176z" />
    <glyph glyph-name="uni0430" unicode="&#x430;" horiz-adv-x="1050" 
d="M276 -18q-130 0 -203 81t-73 209q0 176 113 289q117 117 317 117q125 0 240 -47l4 18q14 61 14 101q0 108 -158 108q-104 0 -239 -59l-68 243q162 76 361 76q196 0 299.5 -79t103.5 -222q0 -79 -33 -215l-143 -602h-297l27 115q-117 -133 -265 -133zM412 188q75 0 125 59
t75 146l17 72q-76 31 -140 31q-87 0 -133 -52q-53 -53 -53 -141q0 -52 29.5 -83.5t79.5 -31.5z" />
    <glyph glyph-name="uni0431" unicode="&#x431;" horiz-adv-x="1189" 
d="M539 -23q-199 0 -314 115q-127 127 -127 371q0 126 28 264.5t95.5 285t163.5 242.5q91 93 204.5 141.5t276.5 65.5l314 33l16 -266l-334 -35q-125 -12 -205 -43t-137 -88q-64 -61 -112 -182q143 127 327 127q177 0 275 -104.5t98 -280.5q0 -139 -48 -268.5t-138 -219.5
q-158 -158 -383 -158zM553 221q94 0 166 72q47 47 75.5 128.5t28.5 162.5q0 95 -46.5 148.5t-131.5 53.5q-99 0 -170 -71q-46 -46 -74 -126.5t-28 -160.5q0 -94 47.5 -150.5t132.5 -56.5z" />
    <glyph glyph-name="uni0432" unicode="&#x432;" horiz-adv-x="1064" 
d="M-16 0l268 1098h381q199 0 291 -75t92 -200q0 -98 -61 -172t-162 -104q147 -72 147 -213q0 -156 -125.5 -245t-347.5 -89h-483zM424 655h133q182 0 182 136q0 94 -135 94h-123zM317 213h150q93 0 140.5 38.5t47.5 102.5q0 49 -34 74t-113 25h-131z" />
    <glyph glyph-name="uni0433" unicode="&#x433;" horiz-adv-x="897" 
d="M-16 0l268 1098h729l-68 -264h-438l-203 -834h-288z" />
    <glyph glyph-name="uni0434" unicode="&#x434;" horiz-adv-x="1228" 
d="M-33 262h111l518 844h309l107 -844h110l-125 -506h-260l62 246h-637l-62 -246h-256zM676 778l-303 -528h352z" />
    <glyph glyph-name="uni0435" unicode="&#x435;" horiz-adv-x="1081" 
d="M983 444h-635q5 -106 50.5 -163.5t131.5 -57.5q58 0 104.5 18.5t104.5 61.5l129 -205q-147 -118 -352 -118q-213 0 -331.5 129t-118.5 352q0 143 54 277.5t150 230.5q157 157 373 157q178 0 285.5 -113t107.5 -298q0 -130 -53 -271zM473 815q-61 -61 -98 -180h368
q13 51 13 96q0 68 -34.5 109t-100.5 41q-82 0 -148 -66z" />
    <glyph glyph-name="uni0436" unicode="&#x436;" horiz-adv-x="1599" 
d="M1079 1098l-108 -424h61l350 424h340l-493 -570l237 -528h-301l-178 434h-76l-100 -434h-289l113 434h-64l-370 -434h-340l520 584l-234 514h302l176 -424h67l99 424h288z" />
    <glyph glyph-name="uni0437" unicode="&#x437;" horiz-adv-x="993" 
d="M424 -25q-271 0 -459 160l146 199q146 -117 309 -117q78 0 121 35t43 86q0 50 -39 76t-129 26h-168l53 219h172q184 0 184 119q0 48 -34.5 73.5t-100.5 25.5q-126 0 -280 -82l-95 213q191 110 410 110q187 0 291 -82.5t104 -212.5q0 -109 -67 -182t-174 -106
q79 -37 115 -91.5t36 -138.5q0 -136 -118.5 -233t-319.5 -97z" />
    <glyph glyph-name="uni0438" unicode="&#x438;" horiz-adv-x="1150" 
d="M893 1098h276l-270 -1098h-285l152 610l-520 -610h-262l268 1098h287l-150 -594z" />
    <glyph glyph-name="uni0439" unicode="&#x439;" horiz-adv-x="1150" 
d="M893 1098h276l-270 -1098h-285l152 610l-520 -610h-262l268 1098h287l-150 -594zM758 1204q-83 0 -146.5 25t-101 69t-56 99.5t-18.5 120.5h211q5 -50 37 -83.5t84 -33.5q66 0 105.5 29t74.5 88h209q-47 -142 -149 -228t-250 -86z" />
    <glyph glyph-name="uni043A" unicode="&#x43a;" horiz-adv-x="1085" 
d="M-16 0l268 1098h289l-107 -422h74l346 422h358l-503 -578l233 -520h-303l-182 432h-82l-103 -432h-288z" />
    <glyph glyph-name="uni043B" unicode="&#x43b;" horiz-adv-x="1122" 
d="M844 1106l119 -1106h-297l-50 725l-405 -725h-307l655 1106h285z" />
    <glyph glyph-name="uni043C" unicode="&#x43c;" horiz-adv-x="1300" 
d="M563 207l-139 432l-158 -639h-282l268 1098h280l134 -426l331 426h322l-270 -1098h-283l158 645l-357 -438h-4z" />
    <glyph glyph-name="uni043D" unicode="&#x43d;" horiz-adv-x="1142" 
d="M1161 1098l-270 -1098h-289l100 420h-327l-103 -420h-288l268 1098h289l-101 -412h328l102 412h291z" />
    <glyph glyph-name="uni043E" unicode="&#x43e;" horiz-adv-x="1148" 
d="M633 1126q208 0 329 -131.5t121 -347.5q0 -147 -53 -282t-147 -232q-156 -156 -365 -156q-208 0 -329 132t-121 348q0 149 52 283.5t148 230.5q155 155 365 155zM530 240q75 0 132 57q58 58 91 156t33 186q0 110 -44 167.5t-121 57.5q-75 0 -132 -57q-58 -58 -91 -156
t-33 -186q0 -110 44 -167.5t121 -57.5z" />
    <glyph glyph-name="uni043F" unicode="&#x43f;" horiz-adv-x="1144" 
d="M1163 1098l-270 -1098h-289l203 834h-332l-203 -834h-288l268 1098h911z" />
    <glyph glyph-name="uni0440" unicode="&#x440;" horiz-adv-x="1189" 
d="M590 -16q-181 0 -275 161l-106 -452h-305l346 1415h305l-27 -111q67 66 128 97.5t135 31.5q141 0 238 -118t97 -328q0 -161 -54 -306.5t-152 -244.5q-151 -145 -330 -145zM543 240q78 0 141 63q60 60 94.5 153.5t34.5 198.5q0 101 -42.5 158t-121.5 57q-80 0 -143 -63
q-60 -60 -93.5 -156.5t-33.5 -197.5t45 -157t119 -56z" />
    <glyph glyph-name="uni0441" unicode="&#x441;" horiz-adv-x="954" 
d="M502 -20q-201 0 -318.5 125t-117.5 339q0 149 53 287t147 232q167 161 375 161q137 0 224 -50t151 -146l-223 -178q-37 58 -73.5 86t-84.5 28q-74 0 -137 -63q-59 -59 -95 -158.5t-36 -193.5q0 -102 40.5 -156.5t108.5 -54.5q32 0 63.5 13t50 26t60.5 45l152 -195
q-74 -71 -153.5 -109t-186.5 -38z" />
    <glyph glyph-name="uni0442" unicode="&#x442;" horiz-adv-x="1003" 
d="M195 1098h884l-65 -260h-297l-203 -838h-291l203 838h-295z" />
    <glyph glyph-name="uni0443" unicode="&#x443;" horiz-adv-x="1058" 
d="M264 -10l-82 1118h312l2 -746l331 746h326l-586 -1124q-84 -159 -166.5 -228t-201.5 -69q-145 0 -244 96l145 203q51 -45 97 -45q43 0 67 49z" />
    <glyph glyph-name="uni0444" unicode="&#x444;" horiz-adv-x="1546" 
d="M420 -309l78 317q-199 42 -312.5 170.5t-113.5 317.5q0 117 44 226t122 187q192 192 528 195l92 375h287l-96 -392q198 -42 311 -169.5t113 -315.5q0 -118 -43.5 -227.5t-122.5 -186.5q-191 -191 -527 -194l-73 -303h-287zM352 500q0 -100 55.5 -167t153.5 -87l152 614
q-166 -6 -260 -100q-48 -48 -74.5 -118.5t-26.5 -141.5zM1192 598q0 98 -55.5 165t-153.5 87l-149 -612q161 3 258 100q48 48 74 118t26 142z" />
    <glyph glyph-name="uni0445" unicode="&#x445;" horiz-adv-x="1032" 
d="M496 1108l77 -307l195 307h356l-440 -557l188 -551h-321l-82 330l-211 -330h-354l456 580l-184 528h320z" />
    <glyph glyph-name="uni0446" unicode="&#x446;" horiz-adv-x="1210" 
d="M-16 0l268 1098h289l-203 -834h332l202 834h291l-207 -836h131l-126 -506h-261l62 244h-778z" />
    <glyph glyph-name="uni0447" unicode="&#x447;" horiz-adv-x="1075" 
d="M1092 1098l-269 -1098h-291l80 326q-65 -7 -123 -7q-182 0 -280 73t-98 220q0 69 28 181l74 305h289l-86 -355q-10 -52 -10 -71q0 -94 157 -94q69 0 113 8l125 512h291z" />
    <glyph glyph-name="uni0448" unicode="&#x448;" horiz-adv-x="1703" 
d="M-16 0l268 1098h289l-203 -834h299l203 834h290l-202 -834h299l203 834h290l-268 -1098h-1468z" />
    <glyph glyph-name="uni0449" unicode="&#x449;" horiz-adv-x="1771" 
d="M-16 0l268 1098h289l-203 -834h299l203 834h290l-202 -834h299l203 834h290l-204 -836h133l-127 -506h-260l61 244h-1339z" />
    <glyph glyph-name="uni044A" unicode="&#x44a;" horiz-adv-x="1214" 
d="M1130 446q0 -203 -145.5 -324.5t-409.5 -121.5h-397l205 844h-256l61 254h547l-76 -314h37q216 0 325 -89t109 -249zM848 428q0 125 -156 125h-92l-76 -320h97q108 0 167.5 53.5t59.5 141.5z" />
    <glyph glyph-name="uni044B" unicode="&#x44b;" horiz-adv-x="1513" 
d="M936 446q0 -203 -145.5 -324.5t-409.5 -121.5h-397l268 1098h289l-76 -314h37q216 0 325 -89t109 -249zM971 0l270 1098h289l-268 -1098h-291zM653 428q0 125 -155 125h-92l-76 -320h96q108 0 167.5 53.5t59.5 141.5z" />
    <glyph glyph-name="uni044C" unicode="&#x44c;" horiz-adv-x="1019" 
d="M936 446q0 -203 -145.5 -324.5t-409.5 -121.5h-397l268 1098h289l-76 -314h37q216 0 325 -89t109 -249zM653 428q0 125 -155 125h-92l-76 -320h96q108 0 167.5 53.5t59.5 141.5z" />
    <glyph glyph-name="uni044D" unicode="&#x44d;" horiz-adv-x="991" 
d="M276 666l365 -4q-4 102 -52 154t-134 52q-107 0 -219 -75l-105 215q163 110 348 110q207 0 325 -129t118 -346q0 -142 -48 -279t-141 -233q-149 -156 -375 -156q-239 0 -393 175l170 188q52 -54 104.5 -82.5t120.5 -28.5q102 0 170 68q56 56 80 139l-391 -4z" />
    <glyph glyph-name="uni044E" unicode="&#x44e;" horiz-adv-x="1607" 
d="M-16 0l268 1098h289l-99 -410h131q54 171 160 277q153 153 363 153q207 0 326.5 -129.5t119.5 -341.5q0 -139 -52 -281t-147 -237q-154 -154 -362 -154q-199 0 -317.5 122.5t-126.5 322.5h-162l-103 -420h-288zM989 227q80 0 148 68q56 56 89.5 155t33.5 191
q0 109 -46 167t-127 58q-80 0 -147 -67q-55 -55 -89 -154.5t-34 -191.5q0 -109 45.5 -167.5t126.5 -58.5z" />
    <glyph glyph-name="uni044F" unicode="&#x44f;" horiz-adv-x="1095" 
d="M-74 0l344 426q-135 93 -135 258q0 184 134.5 299t367.5 115h475l-268 -1098h-289l86 352h-104l-279 -352h-332zM768 872h-145q-96 0 -149.5 -49t-53.5 -129q0 -61 38.5 -93t127.5 -32h108z" />
    <glyph glyph-name="uni0450" unicode="&#x450;" horiz-adv-x="1081" 
d="M983 444h-635q5 -106 50.5 -163.5t131.5 -57.5q58 0 104.5 18.5t104.5 61.5l129 -205q-147 -118 -352 -118q-213 0 -331.5 129t-118.5 352q0 143 54 277.5t150 230.5q157 157 373 157q178 0 285.5 -113t107.5 -298q0 -130 -53 -271zM473 815q-61 -61 -98 -180h368
q13 51 13 96q0 68 -34.5 109t-100.5 41q-82 0 -148 -66zM600 1208l-194 242l260 115l143 -357h-209z" />
    <glyph glyph-name="uni0451" unicode="&#x451;" horiz-adv-x="1081" 
d="M381 1214l68 267h284l-69 -267h-283zM774 1214l70 267h282l-67 -267h-285zM983 444h-635q5 -106 50.5 -163.5t131.5 -57.5q58 0 104.5 18.5t104.5 61.5l129 -205q-147 -118 -352 -118q-213 0 -331.5 129t-118.5 352q0 143 54 277.5t150 230.5q157 157 373 157
q178 0 285.5 -113t107.5 -298q0 -130 -53 -271zM473 815q-61 -61 -98 -180h368q13 51 13 96q0 68 -34.5 109t-100.5 41q-82 0 -148 -66z" />
    <glyph glyph-name="uni0452" unicode="&#x452;" horiz-adv-x="1085" 
d="M834 1128h-281l-51 -210q56 6 125 6q181 0 279 -73.5t98 -219.5q0 -64 -29 -180l-105 -435q-44 -180 -136.5 -255.5t-258.5 -75.5q-89 0 -166 18l56 225q52 -10 90 -10q53 0 84 28t49 99l108 455q11 43 11 71q0 95 -156 95q-68 0 -115 -9l-160 -657h-290l276 1128h-178
l57 224h176l31 127h291l-31 -127h283z" />
    <glyph glyph-name="uni0453" unicode="&#x453;" horiz-adv-x="897" 
d="M492 1206l305 357l250 -115l-308 -242h-247zM-16 0l268 1098h729l-68 -264h-438l-203 -834h-288z" />
    <glyph glyph-name="uni0454" unicode="&#x454;" horiz-adv-x="989" 
d="M766 666l-55 -236l-367 4q1 -103 51.5 -156t134.5 -53q60 0 110 17.5t110 58.5l106 -213q-154 -113 -348 -113q-204 0 -323 126.5t-119 342.5q0 139 49.5 276t144.5 236q159 162 381 162q226 0 385 -170l-178 -194q-48 55 -96.5 83.5t-120.5 28.5q-100 0 -172 -69
q-50 -50 -80 -135z" />
    <glyph glyph-name="uni0455" unicode="&#x455;" horiz-adv-x="874" 
d="M375 -20q-249 0 -436 202l176 185q143 -156 266 -156q46 0 74 25t28 61q0 39 -29.5 68t-123.5 96q-111 78 -162 149t-51 166q0 144 107 246t284 102q215 0 385 -170l-162 -194q-74 72 -128 102.5t-109 30.5q-36 0 -62 -22.5t-26 -57.5q0 -38 26.5 -64t124.5 -96
q120 -83 168.5 -157.5t48.5 -167.5q0 -145 -112.5 -246.5t-286.5 -101.5z" />
    <glyph glyph-name="uni0456" unicode="&#x456;" horiz-adv-x="557" 
d="M-10 0l272 1108h305l-270 -1108h-307zM279 1214l73 279h318l-74 -279h-317z" />
    <glyph glyph-name="uni0457" unicode="&#x457;" horiz-adv-x="559" 
d="M109 1212l67 267h285l-70 -267h-282zM502 1212l69 267h283l-68 -267h-284zM-8 0l270 1108h307l-270 -1108h-307z" />
    <glyph glyph-name="uni0458" unicode="&#x458;" horiz-adv-x="557" 
d="M-86 -313q-98 0 -172 24l63 232q37 -11 62 -11q114 0 141 134l252 1042h305l-262 -1085q-48 -185 -141.5 -260.5t-247.5 -75.5zM276 1214l72 279h318l-72 -279h-318z" />
    <glyph glyph-name="uni0459" unicode="&#x459;" horiz-adv-x="1566" 
d="M-121 0l735 1098h492l-78 -314h21q215 0 324.5 -89.5t109.5 -248.5q0 -202 -147 -324t-410 -122h-377l211 868h-6l-574 -868h-301zM1198 428q0 125 -156 125h-71l-76 -320h76q110 0 168.5 53t58.5 142z" />
    <glyph glyph-name="uni045A" unicode="&#x45a;" horiz-adv-x="1603" 
d="M-16 0l268 1098h289l-99 -410h312l100 410h291l-78 -314h18q216 0 325.5 -89.5t109.5 -248.5q0 -203 -145.5 -324.5t-409.5 -121.5h-379l102 420h-313l-103 -420h-288zM1237 428q0 125 -156 125h-73l-76 -320h78q108 0 167.5 53.5t59.5 141.5z" />
    <glyph glyph-name="uni045B" unicode="&#x45b;" horiz-adv-x="1085" 
d="M834 1128h-281l-51 -210q56 6 125 6q181 0 279 -73.5t98 -219.5q0 -64 -29 -180l-109 -451h-291l121 500q11 43 11 71q0 95 -156 95q-68 0 -115 -9l-160 -657h-290l276 1128h-178l57 224h176l31 127h291l-31 -127h283z" />
    <glyph glyph-name="uni045C" unicode="&#x45c;" horiz-adv-x="1085" 
d="M565 1206l305 357l250 -115l-307 -242h-248zM-16 0l268 1098h289l-107 -422h74l346 422h358l-503 -578l233 -520h-303l-182 432h-82l-103 -432h-288z" />
    <glyph glyph-name="uni045D" unicode="&#x45d;" horiz-adv-x="1150" 
d="M618 1206l-194 242l260 115l143 -357h-209zM893 1098h276l-270 -1098h-285l152 610l-520 -610h-262l268 1098h287l-150 -594z" />
    <glyph glyph-name="uni045E" unicode="&#x45e;" horiz-adv-x="1058" 
d="M264 -10l-82 1118h312l2 -746l331 746h326l-586 -1124q-84 -159 -166.5 -228t-201.5 -69q-145 0 -244 96l145 203q51 -45 97 -45q43 0 67 49zM711 1204q-83 0 -146.5 25t-101 69t-56 99.5t-18.5 120.5h211q5 -50 37 -83.5t84 -33.5q66 0 105.5 29t74.5 88h209
q-47 -142 -149 -228t-250 -86z" />
    <glyph glyph-name="uni045F" unicode="&#x45f;" horiz-adv-x="1144" 
d="M-16 0l268 1098h289l-203 -834h332l202 834h291l-270 -1098h-326l-61 -244h-260l61 244h-323z" />
    <glyph glyph-name="uni0462" unicode="&#x462;" horiz-adv-x="1454" 
d="M1188 1053h-385l-49 -201h168q243 0 356 -113q94 -100 94 -256q0 -194 -129 -323q-154 -160 -473 -160h-516l256 1049h-354l61 245h352l39 156h293l-39 -156h385zM1069 463q0 53 -33 86q-43 43 -141 43h-205l-78 -328h213q126 0 193 64q51 58 51 135z" />
    <glyph glyph-name="uni0463" unicode="&#x463;" horiz-adv-x="1222" 
d="M1087 1098l-57 -240h-354l-35 -143h94q202 0 300 -83t98 -226q0 -184 -132.5 -295t-375.5 -111h-447l209 856h-260l59 242h260l95 381h288l-94 -381h352zM848 389q0 105 -137 105h-125l-64 -267h129q96 0 146.5 44t50.5 118z" />
    <glyph glyph-name="uni0472" unicode="&#x472;" horiz-adv-x="1429" 
d="M854 1458q172 0 298.5 -78.5t189.5 -210t63 -297.5q0 -182 -69.5 -374.5t-192.5 -315.5q-207 -207 -490 -207q-172 0 -298.5 78.5t-189.5 210t-63 297.5q0 184 69.5 374t193.5 316q207 207 489 207zM930 346q88 88 139 246h-678v-19q0 -161 74.5 -249t214.5 -88
q143 0 250 110zM827 1198q-141 0 -252 -111q-84 -84 -137 -237h676v10q0 161 -73.5 249.5t-213.5 88.5z" />
    <glyph glyph-name="uni0473" unicode="&#x473;" horiz-adv-x="1138" 
d="M512 -25q-207 0 -326.5 129.5t-119.5 341.5q0 140 50 280.5t144 234.5q154 157 365 157q208 0 328 -129.5t120 -341.5q0 -140 -50 -280t-144 -234q-155 -158 -367 -158zM522 211q94 0 168 74q48 48 90 155h-454q1 -111 52.5 -170t143.5 -59zM449 811q-60 -60 -89 -152
h453q-4 108 -56 166t-141 58q-88 0 -167 -72z" />
    <glyph glyph-name="uni0474" unicode="&#x474;" horiz-adv-x="1353" 
d="M362 -8l-126 1442h311l59 -981l338 632q47 84 85 139.5t81.5 99t93 67t110.5 35.5t142 12h84l-67 -269h-19q-53 0 -86.5 -8t-65.5 -37t-56 -63.5t-68 -108.5l-545 -960h-271z" />
    <glyph glyph-name="uni0475" unicode="&#x475;" horiz-adv-x="1110" 
d="M524 -8h-272l-90 1106h295l22 -725l205 393q100 198 197.5 267t269.5 69h59l-57 -240h-16q-68 0 -109.5 -32t-103.5 -142z" />
    <glyph glyph-name="uni0490" unicode="&#x490;" horiz-adv-x="1069" 
d="M1165 1161h-581l-283 -1161h-297l352 1434h600l66 260h274z" />
    <glyph glyph-name="uni0491" unicode="&#x491;" horiz-adv-x="897" 
d="M1038 1331l-125 -497h-438l-203 -834h-288l268 1098h461l59 233h266z" />
    <glyph glyph-name="uni0492" unicode="&#x492;" horiz-adv-x="1097" 
d="M33 0l143 582h-127l51 204h125l160 648h875l-68 -273h-580l-92 -375h291l-49 -204h-291l-141 -582h-297z" />
    <glyph glyph-name="uni0493" unicode="&#x493;" horiz-adv-x="933" 
d="M20 0l103 422h-119l41 168h119l125 508h729l-68 -264h-438l-59 -244h213l-41 -168h-213l-103 -422h-289z" />
    <glyph glyph-name="uni0496" unicode="&#x496;" horiz-adv-x="1943" 
d="M2130 1434l-672 -750l207 -412h238l-136 -544h-276l70 272h-80l-277 598h-71l-140 -598h-297l152 598h-66l-536 -598h-367l705 758l-308 676h322l246 -590h63l140 590h296l-151 -590h61l510 590h367z" />
    <glyph glyph-name="uni0497" unicode="&#x497;" horiz-adv-x="1638" 
d="M1079 1098l-108 -424h61l350 424h340l-493 -570l119 -266h194l-127 -506h-260l62 244h-52l-178 434h-76l-100 -434h-289l113 434h-64l-370 -434h-340l520 584l-234 514h302l176 -424h67l99 424h288z" />
    <glyph glyph-name="uni0498" unicode="&#x498;" horiz-adv-x="1163" 
d="M254 -272l82 272q-207 44 -354 197l178 206q89 -78 176.5 -116.5t193.5 -38.5q107 0 171.5 54t64.5 134q0 160 -234 160h-196l63 252h189q139 0 209.5 51.5t70.5 140.5q0 70 -49 109t-139 39q-161 0 -342 -115l-111 234q225 147 478 147q219 0 347 -100.5t128 -266.5
q0 -141 -82.5 -236.5t-225.5 -145.5q83 -41 136 -113t53 -174q0 -179 -133 -297.5t-336 -136.5l-55 -256h-283z" />
    <glyph glyph-name="uni0499" unicode="&#x499;" horiz-adv-x="993" 
d="M170 -244l74 240q-164 39 -279 139l146 199q146 -117 309 -117q78 0 121 35t43 86q0 50 -39 76t-129 26h-168l53 219h172q184 0 184 119q0 48 -34.5 73.5t-100.5 25.5q-126 0 -280 -82l-95 213q191 110 410 110q187 0 291 -82.5t104 -212.5q0 -109 -67 -182t-174 -106
q79 -37 115 -91.5t36 -138.5q0 -124 -102 -216t-275 -109l-45 -224h-270z" />
    <glyph glyph-name="uni049A" unicode="&#x49a;" horiz-adv-x="1329" 
d="M1483 1434l-688 -738l229 -424h231l-135 -544h-276l69 272h-67l-309 598h-95l-141 -598h-297l352 1434h295l-147 -590h78l526 590h375z" />
    <glyph glyph-name="uni049B" unicode="&#x49b;" horiz-adv-x="1118" 
d="M-16 0l268 1098h289l-107 -422h74l346 422h358l-503 -578l114 -258h209l-127 -506h-260l62 244h-68l-182 432h-82l-103 -432h-288z" />
    <glyph glyph-name="uni049C" unicode="&#x49c;" horiz-adv-x="1361" 
d="M1219 0h-304l-200 586l-84 -369h-164l94 381h-117l-145 -598h-295l352 1434h293l-143 -590h117l94 403h164l-97 -377l418 564h336l-577 -742z" />
    <glyph glyph-name="uni049D" unicode="&#x49d;" horiz-adv-x="1181" 
d="M1010 0h-287l-133 438l-70 -303h-133l76 305h-84l-107 -440h-288l268 1098h289l-107 -432h84l74 297h129l-74 -285l322 420h329l-473 -572z" />
    <glyph glyph-name="uni04A0" unicode="&#x4a0;" horiz-adv-x="1540" 
d="M250 0l287 1167h-351l66 267h645l-147 -590h77l527 590h375l-689 -738l377 -696h-325l-310 598h-94l-141 -598h-297z" />
    <glyph glyph-name="uni04A1" unicode="&#x4a1;" horiz-adv-x="1280" 
d="M178 0l205 844h-256l61 254h547l-106 -422h73l347 422h358l-504 -578l234 -520h-303l-183 432h-82l-102 -432h-289z" />
    <glyph glyph-name="uni04A2" unicode="&#x4a2;" horiz-adv-x="1413" 
d="M6 0l350 1434h312l-138 -570h433l135 570h311l-285 -1162h181l-136 -544h-276l70 272h-215l141 578h-432l-140 -578h-311z" />
    <glyph glyph-name="uni04A3" unicode="&#x4a3;" horiz-adv-x="1210" 
d="M1161 1098l-207 -836h133l-126 -506h-261l62 244h-160l100 420h-327l-103 -420h-288l268 1098h289l-101 -412h328l102 412h291z" />
    <glyph glyph-name="uni04A4" unicode="&#x4a4;" horiz-adv-x="1763" 
d="M750 0l141 584h-449l-141 -584h-297l352 1434h295l-141 -576h448l142 576h825l-67 -273h-529l-282 -1161h-297z" />
    <glyph glyph-name="uni04A5" unicode="&#x4a5;" horiz-adv-x="1480" 
d="M586 0l102 420h-313l-103 -420h-288l268 1098h289l-99 -410h312l100 410h711l-66 -264h-422l-200 -834h-291z" />
    <glyph glyph-name="uni04AA" unicode="&#x4aa;" horiz-adv-x="1228" 
d="M377 -272l86 288q-168 61 -262.5 205t-94.5 352q0 183 69 364.5t190 307.5q107 104 224 156.5t261 52.5q154 0 275 -64.5t204 -179.5l-242 -204q-61 83 -119 122t-139 39q-121 0 -227 -106q-78 -78 -127 -208t-49 -269q0 -143 71 -230.5t193 -87.5q117 0 246 105
l174 -219q-178 -164 -395 -172l-56 -252h-282z" />
    <glyph glyph-name="uni04AB" unicode="&#x4ab;" horiz-adv-x="954" 
d="M229 -244l80 260q-118 51 -180.5 161t-62.5 267q0 149 53 287t147 232q167 161 375 161q137 0 224 -50t151 -146l-223 -178q-37 58 -73.5 86t-84.5 28q-74 0 -137 -63q-59 -59 -95 -158.5t-36 -193.5q0 -102 40.5 -156.5t108.5 -54.5q32 0 63.5 13t50 26t60.5 45
l152 -195q-134 -128 -295 -145l-47 -226h-271z" />
    <glyph glyph-name="uni04AE" unicode="&#x4ae;" horiz-adv-x="1132" 
d="M266 0l140 578l-228 856h342l105 -576l379 576h368l-659 -879l-138 -555h-309z" />
    <glyph glyph-name="uni04AF" unicode="&#x4af;" horiz-adv-x="1071" 
d="M465 -309h-291l86 346l-98 1061h295l26 -713l379 713h305l-616 -1061z" />
    <glyph glyph-name="uni04B0" unicode="&#x4b0;" horiz-adv-x="1132" 
d="M266 0l90 379h-245l49 205h243l-225 850h342l105 -576l379 576h368l-639 -850h281l-47 -205h-299l-93 -379h-309z" />
    <glyph glyph-name="uni04B1" unicode="&#x4b1;" horiz-adv-x="1071" 
d="M1167 1098l-540 -930h213l-41 -168h-258l-76 -309h-291l76 309h-258l43 168h213l-86 930h295l26 -713l379 713h305z" />
    <glyph glyph-name="uni04B2" unicode="&#x4b2;" horiz-adv-x="1323" 
d="M-106 0l587 750l-227 684h346l105 -449l303 449h391l-570 -719l148 -443h240l-136 -544h-276l69 272h-151l-121 483l-321 -483h-387z" />
    <glyph glyph-name="uni04B3" unicode="&#x4b3;" horiz-adv-x="1083" 
d="M496 1108l77 -307l195 307h356l-440 -557l98 -289h207l-127 -506h-260l62 244h-113l-82 330l-211 -330h-354l456 580l-184 528h320z" />
    <glyph glyph-name="uni04B6" unicode="&#x4b6;" horiz-adv-x="1331" 
d="M692 0l109 461q-94 -17 -178 -17q-71 0 -133.5 12t-118.5 39.5t-96 69.5t-63.5 104.5t-23.5 141.5q0 85 29 201l100 422h295l-106 -457q-21 -71 -21 -119q0 -139 195 -139q102 0 190 18l172 697h295l-284 -1162h170l-136 -544h-276l70 272h-189z" />
    <glyph glyph-name="uni04B7" unicode="&#x4b7;" horiz-adv-x="1142" 
d="M1092 1098l-205 -836h133l-127 -506h-260l61 244h-162l80 326q-65 -7 -123 -7q-182 0 -280 73t-98 220q0 69 28 181l74 305h289l-86 -355q-10 -52 -10 -71q0 -94 157 -94q69 0 113 8l125 512h291z" />
    <glyph glyph-name="uni04B8" unicode="&#x4b8;" horiz-adv-x="1273" 
d="M674 1112h162l-101 -393q76 3 146 18l172 697h295l-351 -1434h-297l113 461q-87 -15 -143 -17l-70 -305h-164l78 314q-150 22 -238 110t-88 252q0 87 29 203l100 416h295l-106 -447q-23 -81 -23 -129q0 -104 99 -129z" />
    <glyph glyph-name="uni04B9" unicode="&#x4b9;" horiz-adv-x="1087" 
d="M666 866l-74 -288q63 0 94 8l129 512h289l-268 -1098h-289l78 326q-54 -7 -95 -7l-51 -213h-131l55 218q-292 37 -292 290q0 62 28 181l74 303h287l-84 -353q-10 -52 -10 -73q0 -61 61 -82l65 276h134z" />
    <glyph glyph-name="uni04BA" unicode="&#x4ba;" horiz-adv-x="1263" 
d="M655 1434l-108 -461q88 16 178 16t165 -20t137 -61.5t97 -114t35 -170.5q0 -85 -29 -201l-100 -422h-295l107 457q20 67 20 118q0 140 -194 140q-98 0 -191 -19l-172 -696h-295l350 1434h295z" />
    <glyph glyph-name="uni04BB" unicode="&#x4bb;" horiz-adv-x="1103" 
d="M-20 0l356 1479h307l-113 -473q120 120 258 120q123 0 195 -74.5t72 -207.5q0 -88 -37 -223l-150 -621h-307l152 623q18 63 18 118q0 107 -106 107q-69 0 -115 -51t-64 -135l-161 -662h-305z" />
    <glyph glyph-name="uni04C0" unicode="&#x4c0;" horiz-adv-x="622" 
d="M20 0l351 1434h311l-350 -1434h-312z" />
    <glyph glyph-name="uni04C1" unicode="&#x4c1;" horiz-adv-x="1941" 
d="M1223 1530q-154 0 -235.5 76t-61.5 215h194q22 -92 142 -92q64 0 102.5 22.5t69.5 69.5h221q-49 -140 -163 -215.5t-269 -75.5zM1343 1434l-151 -590h61l510 590h367l-672 -750l344 -684h-321l-277 598h-71l-140 -598h-297l152 598h-66l-536 -598h-367l705 758l-308 676
h322l246 -590h63l140 590h296z" />
    <glyph glyph-name="uni04C2" unicode="&#x4c2;" horiz-adv-x="1599" 
d="M1079 1098l-108 -424h61l350 424h340l-493 -570l237 -528h-301l-178 434h-76l-100 -434h-289l113 434h-64l-370 -434h-340l520 584l-234 514h302l176 -424h67l99 424h288zM985 1204q-83 0 -146.5 25t-100.5 69t-55.5 99.5t-18.5 120.5h210q5 -50 37 -83.5t84 -33.5
q66 0 106 29.5t75 87.5h208q-47 -142 -149 -228t-250 -86z" />
    <glyph glyph-name="uni04CF" unicode="&#x4cf;" horiz-adv-x="557" 
d="M-10 0l362 1479h305l-360 -1479h-307z" />
    <glyph glyph-name="uni04D0" unicode="&#x4d0;" horiz-adv-x="1347" 
d="M-109 0l859 1444h301l153 -1444h-317l-25 322h-461l-178 -322h-332zM575 596h256l-22 469zM926 1546q-154 0 -235.5 76t-61.5 215h194q22 -92 142 -92q64 0 102.5 22.5t69.5 69.5h221q-49 -140 -163 -215.5t-269 -75.5z" />
    <glyph glyph-name="uni04D1" unicode="&#x4d1;" horiz-adv-x="1050" 
d="M276 -18q-130 0 -203 81t-73 209q0 176 113 289q117 117 317 117q125 0 240 -47l4 18q14 61 14 101q0 108 -158 108q-104 0 -239 -59l-68 243q162 76 361 76q196 0 299.5 -79t103.5 -222q0 -79 -33 -215l-143 -602h-297l27 115q-117 -133 -265 -133zM412 188q75 0 125 59
t75 146l17 72q-76 31 -140 31q-87 0 -133 -52q-53 -53 -53 -141q0 -52 29.5 -83.5t79.5 -31.5zM705 1206q-83 0 -146.5 25t-101 69t-56 99.5t-18.5 120.5h211q5 -50 37 -83.5t84 -33.5q66 0 105.5 29t74.5 88h209q-47 -142 -149 -228t-250 -86z" />
    <glyph glyph-name="uni04D2" unicode="&#x4d2;" horiz-adv-x="1347" 
d="M-109 0l859 1444h301l153 -1444h-317l-25 322h-461l-178 -322h-332zM575 596h256l-22 469zM588 1552l63 252h285l-66 -252h-282zM987 1552l66 252h284l-65 -252h-285z" />
    <glyph glyph-name="uni04D3" unicode="&#x4d3;" horiz-adv-x="1050" 
d="M276 -18q-130 0 -203 81t-73 209q0 176 113 289q117 117 317 117q125 0 240 -47l4 18q14 61 14 101q0 108 -158 108q-104 0 -239 -59l-68 243q162 76 361 76q196 0 299.5 -79t103.5 -222q0 -79 -33 -215l-143 -602h-297l27 115q-117 -133 -265 -133zM412 188q75 0 125 59
t75 146l17 72q-76 31 -140 31q-87 0 -133 -52q-53 -53 -53 -141q0 -52 29.5 -83.5t79.5 -31.5zM342 1214l68 267h284l-69 -267h-283zM735 1214l70 267h282l-67 -267h-285z" />
    <glyph glyph-name="uni04D4" unicode="&#x4d4;" horiz-adv-x="1824" 
d="M-135 0l981 1434h1089l-73 -277h-568l-65 -299h493l-71 -272h-494l-72 -310h580l-72 -276h-884l75 322h-381l-206 -322h-332zM610 596h246l133 569h-28z" />
    <glyph glyph-name="uni04D5" unicode="&#x4d5;" horiz-adv-x="1648" 
d="M1083 -20q-262 0 -364 208q-164 -206 -410 -206q-156 0 -232.5 77.5t-76.5 212.5q0 176 113 289q117 117 317 117q125 0 240 -47l4 18q14 66 14 101q0 108 -158 108q-104 0 -239 -59l-68 243q162 76 363 76q228 0 307 -143q151 151 336 151q165 0 270 -114t105 -297
q0 -127 -54 -271h-635q5 -106 51 -163.5t132 -57.5q58 0 104.5 18.5t104.5 61.5l129 -205q-148 -118 -353 -118zM430 188q57 0 124.5 42t115.5 106q-6 35 -6 113q-34 20 -81 33.5t-87 13.5q-94 0 -140 -52q-53 -53 -53 -141q0 -53 31.5 -84t95.5 -31zM1040 815
q-61 -61 -98 -180h369q12 47 12 96q0 68 -34.5 109t-100.5 41q-82 0 -148 -66z" />
    <glyph glyph-name="uni04D6" unicode="&#x4d6;" horiz-adv-x="1159" 
d="M836 1530q-154 0 -235.5 76t-61.5 215h194q11 -46 44 -69t97 -23t103 22.5t70 69.5h221q-49 -140 -163 -215.5t-269 -75.5zM6 0l350 1434h912l-72 -277h-602l-68 -299h529l-72 -272h-528l-70 -310h614l-73 -276h-920z" />
    <glyph glyph-name="uni04D7" unicode="&#x4d7;" horiz-adv-x="1081" 
d="M983 444h-635q5 -106 50.5 -163.5t131.5 -57.5q58 0 104.5 18.5t104.5 61.5l129 -205q-147 -118 -352 -118q-213 0 -331.5 129t-118.5 352q0 143 54 277.5t150 230.5q157 157 373 157q178 0 285.5 -113t107.5 -298q0 -130 -53 -271zM473 815q-61 -61 -98 -180h368
q13 51 13 96q0 68 -34.5 109t-100.5 41q-82 0 -148 -66zM741 1206q-83 0 -146.5 25t-100.5 69t-55.5 99.5t-18.5 120.5h211q5 -50 37 -83.5t84 -33.5q66 0 105.5 29t74.5 88h209q-47 -142 -149.5 -228t-250.5 -86z" />
    <glyph glyph-name="uni04D8" unicode="&#x4d8;" horiz-adv-x="1388" 
d="M111 483q0 153 63 367h891v33q0 135 -72 216t-213 81q-156 0 -346 -123l-127 239q243 158 494 158q254 0 404.5 -154.5t150.5 -427.5q0 -184 -66.5 -369.5t-193.5 -314.5q-213 -213 -492 -213q-230 0 -361.5 139.5t-131.5 368.5zM881 354q94 97 143 248h-612
q-15 -50 -15 -123q0 -46 12 -86t37.5 -74.5t71.5 -54.5t109 -20q144 0 254 110z" />
    <glyph glyph-name="uni04D9" unicode="&#x4d9;" horiz-adv-x="1081" 
d="M47 393q0 130 53 271h635q-5 106 -50.5 163.5t-131.5 57.5q-58 0 -104.5 -18.5t-104.5 -61.5l-129 205q147 118 352 118q213 0 332 -129t119 -352q0 -143 -54 -277t-151 -231q-157 -157 -373 -157q-178 0 -285.5 113t-107.5 298zM610 293q62 62 99 180h-369
q-12 -47 -12 -96q0 -68 34.5 -109t100.5 -41q81 0 147 66z" />
    <glyph glyph-name="uni04DC" unicode="&#x4dc;" horiz-adv-x="1941" 
d="M885 1536l63 252h285l-66 -252h-282zM1284 1536l66 252h284l-65 -252h-285zM1343 1434l-151 -590h61l510 590h367l-672 -750l344 -684h-321l-277 598h-71l-140 -598h-297l152 598h-66l-536 -598h-367l705 758l-308 676h322l246 -590h63l140 590h296z" />
    <glyph glyph-name="uni04DD" unicode="&#x4dd;" horiz-adv-x="1599" 
d="M627 1212l67 267h285l-70 -267h-282zM1020 1212l70 267h282l-67 -267h-285zM1079 1098l-108 -424h61l350 424h340l-493 -570l237 -528h-301l-178 434h-76l-100 -434h-289l113 434h-64l-370 -434h-340l520 584l-234 514h302l176 -424h67l99 424h288z" />
    <glyph glyph-name="uni04DE" unicode="&#x4de;" horiz-adv-x="1163" 
d="M457 1552l63 252h285l-66 -252h-282zM856 1552l66 252h284l-65 -252h-285zM338 1073l-111 234q225 147 478 147q219 0 347 -100.5t128 -266.5q0 -141 -82.5 -236.5t-225.5 -145.5q83 -41 136 -113t53 -174q0 -128 -71.5 -229t-193 -155t-268.5 -54q-332 0 -546 217
l178 206q89 -78 176.5 -116.5t193.5 -38.5q107 0 171.5 54t64.5 134q0 160 -234 160h-196l63 252h189q139 0 209.5 51.5t70.5 140.5q0 70 -49 109t-139 39q-161 0 -342 -115z" />
    <glyph glyph-name="uni04DF" unicode="&#x4df;" horiz-adv-x="993" 
d="M293 1214l67 267h285l-70 -267h-282zM686 1214l70 267h282l-67 -267h-285zM424 -25q-271 0 -459 160l146 199q146 -117 309 -117q78 0 121 35t43 86q0 50 -39 76t-129 26h-168l53 219h172q184 0 184 119q0 48 -34.5 73.5t-100.5 25.5q-126 0 -280 -82l-95 213
q191 110 410 110q187 0 291 -82.5t104 -212.5q0 -109 -67 -182t-174 -106q79 -37 115 -91.5t36 -138.5q0 -136 -118.5 -233t-319.5 -97z" />
    <glyph glyph-name="uni04E2" unicode="&#x4e2;" horiz-adv-x="1394" 
d="M573 1532l58 213h702l-55 -213h-705zM1176 1434h292l-350 -1434h-295l215 879l-762 -879h-272l352 1434h293l-209 -850z" />
    <glyph glyph-name="uni04E3" unicode="&#x4e3;" horiz-adv-x="1150" 
d="M401 1206l56 209h651l-53 -209h-654zM893 1098h276l-270 -1098h-285l152 610l-520 -610h-262l268 1098h287l-150 -594z" />
    <glyph glyph-name="uni04E4" unicode="&#x4e4;" horiz-adv-x="1394" 
d="M588 1536l63 252h285l-66 -252h-282zM987 1536l66 252h284l-65 -252h-285zM1176 1434h292l-350 -1434h-295l215 879l-762 -879h-272l352 1434h293l-209 -850z" />
    <glyph glyph-name="uni04E5" unicode="&#x4e5;" horiz-adv-x="1150" 
d="M399 1212l68 267h285l-70 -267h-283zM793 1212l69 267h283l-68 -267h-284zM893 1098h276l-270 -1098h-285l152 610l-520 -610h-262l268 1098h287l-150 -594z" />
    <glyph glyph-name="uni04E6" unicode="&#x4e6;" horiz-adv-x="1427" 
d="M621 1552l63 252h285l-66 -252h-282zM1020 1552l65 252h285l-65 -252h-285zM862 1456q164 0 287.5 -74t188.5 -205.5t65 -302.5q0 -186 -70 -377t-196 -317q-203 -203 -494 -203q-248 0 -394.5 160t-146.5 422q0 185 71 377t196 317q203 203 493 203zM682 264
q121 0 219 98q82 82 132 224.5t50 265.5q0 151 -66.5 234t-193.5 83q-125 0 -219 -98q-82 -82 -132 -224t-50 -265q0 -151 66.5 -234.5t193.5 -83.5z" />
    <glyph glyph-name="uni04E7" unicode="&#x4e7;" horiz-adv-x="1148" 
d="M410 1214l67 267h285l-70 -267h-282zM803 1214l69 267h283l-68 -267h-284zM633 1126q208 0 329 -131.5t121 -347.5q0 -147 -53 -282t-147 -232q-156 -156 -365 -156q-208 0 -329 132t-121 348q0 149 52 283.5t148 230.5q155 155 365 155zM530 240q75 0 132 57
q58 58 91 156t33 186q0 110 -44 167.5t-121 57.5q-75 0 -132 -57q-58 -58 -91 -156t-33 -186q0 -110 44 -167.5t121 -57.5z" />
    <glyph glyph-name="uni04E8" unicode="&#x4e8;" horiz-adv-x="1429" 
d="M854 1458q172 0 298.5 -78.5t189.5 -210t63 -297.5q0 -182 -69.5 -374.5t-192.5 -315.5q-207 -207 -490 -207q-172 0 -298.5 78.5t-189.5 210t-63 297.5q0 184 69.5 374t193.5 316q207 207 489 207zM930 346q88 88 139 246h-678v-19q0 -161 74.5 -249t214.5 -88
q143 0 250 110zM827 1198q-141 0 -252 -111q-84 -84 -137 -237h676v10q0 161 -73.5 249.5t-213.5 88.5z" />
    <glyph glyph-name="uni04E9" unicode="&#x4e9;" horiz-adv-x="1138" 
d="M512 -25q-207 0 -326.5 129.5t-119.5 341.5q0 140 50 280.5t144 234.5q154 157 365 157q208 0 328 -129.5t120 -341.5q0 -140 -50 -280t-144 -234q-155 -158 -367 -158zM522 211q94 0 168 74q48 48 90 155h-454q1 -111 52.5 -170t143.5 -59zM449 811q-60 -60 -89 -152
h453q-4 108 -56 166t-141 58q-88 0 -167 -72z" />
    <glyph glyph-name="uni04EE" unicode="&#x4ee;" horiz-adv-x="1253" 
d="M479 1532l58 213h702l-55 -213h-705zM1456 1434l-1007 -1434h-332l344 489l-238 945h307l152 -658l440 658h334z" />
    <glyph glyph-name="uni04EF" unicode="&#x4ef;" horiz-adv-x="1058" 
d="M264 -10l-82 1118h312l2 -746l331 746h326l-586 -1124q-84 -159 -166.5 -228t-201.5 -69q-145 0 -244 96l145 203q51 -45 97 -45q43 0 67 49zM352 1206l56 209h651l-53 -209h-654z" />
    <glyph glyph-name="uni04F0" unicode="&#x4f0;" horiz-adv-x="1253" 
d="M494 1536l63 252h285l-66 -252h-282zM893 1536l65 252h285l-65 -252h-285zM1456 1434l-1007 -1434h-332l344 489l-238 945h307l152 -658l440 658h334z" />
    <glyph glyph-name="uni04F1" unicode="&#x4f1;" horiz-adv-x="1058" 
d="M264 -10l-82 1118h312l2 -746l331 746h326l-586 -1124q-84 -159 -166.5 -228t-201.5 -69q-145 0 -244 96l145 203q51 -45 97 -45q43 0 67 49zM350 1212l68 267h284l-69 -267h-283zM743 1212l70 267h283l-68 -267h-285z" />
    <glyph glyph-name="uni04F2" unicode="&#x4f2;" horiz-adv-x="1253" 
d="M1456 1434l-1007 -1434h-332l344 489l-238 945h307l152 -658l440 658h334zM535 1530l307 313l239 -112l-309 -201h-237zM903 1530l309 313l238 -112l-307 -201h-240z" />
    <glyph glyph-name="uni04F3" unicode="&#x4f3;" horiz-adv-x="1058" 
d="M264 -10l-82 1118h312l2 -746l331 746h326l-586 -1124q-84 -159 -166.5 -228t-201.5 -69q-145 0 -244 96l145 203q51 -45 97 -45q43 0 67 49zM293 1206l301 357l227 -115l-311 -242h-217zM651 1206l307 357l226 -115l-314 -242h-219z" />
    <glyph glyph-name="uni04F4" unicode="&#x4f4;" horiz-adv-x="1263" 
d="M692 0l109 461q-94 -17 -178 -17q-71 0 -133.5 12t-118.5 39.5t-96 69.5t-63.5 104.5t-23.5 141.5q0 85 29 201l100 422h295l-106 -457q-21 -71 -21 -119q0 -139 195 -139q102 0 190 18l172 697h295l-350 -1434h-295zM496 1536l63 252h285l-66 -252h-282zM895 1536
l66 252h284l-65 -252h-285z" />
    <glyph glyph-name="uni04F5" unicode="&#x4f5;" horiz-adv-x="1075" 
d="M338 1212l68 267h284l-69 -267h-283zM731 1212l70 267h282l-67 -267h-285zM1092 1098l-269 -1098h-291l80 326q-65 -7 -123 -7q-182 0 -280 73t-98 220q0 69 28 181l74 305h289l-86 -355q-10 -52 -10 -71q0 -94 157 -94q69 0 113 8l125 512h291z" />
    <glyph glyph-name="uni04F8" unicode="&#x4f8;" horiz-adv-x="1759" 
d="M4 0l352 1434h295l-112 -457h102q264 0 391 -127q109 -109 109 -291q0 -112 -39 -210.5t-111 -170.5q-178 -178 -524 -178h-463zM1186 0l350 1434h297l-350 -1434h-297zM836 537q0 79 -43 122q-54 54 -168 54h-150l-108 -445h151q156 0 246 84q35 35 53.5 85t18.5 100z
M772 1536l64 252h284l-65 -252h-283zM1171 1536l66 252h285l-66 -252h-285z" />
    <glyph glyph-name="uni04F9" unicode="&#x4f9;" horiz-adv-x="1513" 
d="M586 1212l67 267h285l-70 -267h-282zM979 1212l70 267h282l-67 -267h-285zM936 446q0 -203 -145.5 -324.5t-409.5 -121.5h-397l268 1098h289l-76 -314h37q216 0 325 -89t109 -249zM971 0l270 1098h289l-268 -1098h-291zM653 428q0 125 -155 125h-92l-76 -320h96
q108 0 167.5 53.5t59.5 141.5z" />
    <glyph glyph-name="baht" unicode="&#xe3f;" horiz-adv-x="1159" 
d="M-31 0l353 1434h423l54 163h190l-61 -182q144 -34 216.5 -121t72.5 -213q0 -149 -84.5 -247.5t-231.5 -141.5q71 -42 116.5 -105t45.5 -147q0 -199 -149.5 -316.5t-417.5 -123.5l-76 -242h-191l76 242h-336zM444 834h129l105 346h-146zM780 461q0 54 -29.5 91t-84.5 50
l-103 -348q102 6 159.5 61t57.5 146zM305 254h96l107 358h-117zM934 1030q0 45 -26 80.5t-74 52.5l-99 -327q94 11 146.5 60t52.5 134z" />
    <glyph glyph-name="Wgrave" unicode="&#x1e80;" horiz-adv-x="1978" 
d="M1094 1530l-224 201l269 112l166 -313h-211zM297 -10l-53 1444h319l-6 -963l487 967h271l41 -967l446 963h350l-759 -1444h-291l-41 921l-475 -921h-289z" />
    <glyph glyph-name="wgrave" unicode="&#x1e81;" horiz-adv-x="1538" 
d="M180 -8l-10 1116h309l-30 -674l319 676h268l4 -678l291 676h301l-561 -1116h-276l-9 678l-329 -678h-277zM801 1206l-195 242l260 115l144 -357h-209z" />
    <glyph glyph-name="Wacute" unicode="&#x1e82;" horiz-adv-x="1978" 
d="M1073 1530l309 313l252 -112l-309 -201h-252zM297 -10l-53 1444h319l-6 -963l487 967h271l41 -967l446 963h350l-759 -1444h-291l-41 921l-475 -921h-289z" />
    <glyph glyph-name="wacute" unicode="&#x1e83;" horiz-adv-x="1538" 
d="M795 1206l305 357l250 -115l-308 -242h-247zM180 -8l-10 1116h309l-30 -674l319 676h268l4 -678l291 676h301l-561 -1116h-276l-9 678l-329 -678h-277z" />
    <glyph glyph-name="Wdieresis" unicode="&#x1e84;" horiz-adv-x="1978" 
d="M866 1536l64 252h284l-65 -252h-283zM1266 1536l65 252h285l-66 -252h-284zM297 -10l-53 1444h319l-6 -963l487 967h271l41 -967l446 963h350l-759 -1444h-291l-41 921l-475 -921h-289z" />
    <glyph glyph-name="wdieresis" unicode="&#x1e85;" horiz-adv-x="1538" 
d="M582 1212l67 267h285l-70 -267h-282zM975 1212l69 267h283l-67 -267h-285zM180 -8l-10 1116h309l-30 -674l319 676h268l4 -678l291 676h301l-561 -1116h-276l-9 678l-329 -678h-277z" />
    <glyph glyph-name="Ygrave" unicode="&#x1ef2;" horiz-adv-x="1132" 
d="M266 0l140 578l-228 856h342l105 -576l379 576h368l-659 -879l-138 -555h-309zM670 1530l-224 201l269 112l166 -313h-211z" />
    <glyph glyph-name="ygrave" unicode="&#x1ef3;" horiz-adv-x="1058" 
d="M264 -10l-82 1118h312l2 -746l331 746h326l-586 -1124q-84 -159 -166.5 -228t-201.5 -69q-145 0 -244 96l145 203q51 -45 97 -45q43 0 67 49zM569 1206l-194 242l260 115l143 -357h-209z" />
    <glyph glyph-name="enspace" unicode="&#x2002;" horiz-adv-x="1024" 
 />
    <glyph glyph-name="emspace" unicode="&#x2003;" horiz-adv-x="2048" 
 />
    <glyph glyph-name="threeperemspace" unicode="&#x2004;" horiz-adv-x="681" 
 />
    <glyph glyph-name="fourperemspace" unicode="&#x2005;" horiz-adv-x="512" 
 />
    <glyph glyph-name="figurespace" unicode="&#x2007;" horiz-adv-x="1085" 
 />
    <glyph glyph-name="thinspace" unicode="&#x2009;" horiz-adv-x="272" 
 />
    <glyph glyph-name="hairspace" unicode="&#x200a;" horiz-adv-x="153" 
 />
    <glyph glyph-name="endash" unicode="&#x2013;" horiz-adv-x="1005" 
d="M70 492l73 284h832l-72 -284h-833z" />
    <glyph glyph-name="emdash" unicode="&#x2014;" horiz-adv-x="1644" 
d="M70 492l73 284h1471l-74 -284h-1470z" />
    <glyph glyph-name="quoteleft" unicode="&#x2018;" horiz-adv-x="561" 
d="M164 791l69 274q50 195 159 284t292 95l23 -131q-121 -12 -180.5 -59.5t-77.5 -137.5h126l-81 -325h-330z" />
    <glyph glyph-name="quoteright" unicode="&#x2019;" horiz-adv-x="561" 
d="M152 780l-23 129q122 12 183 60.5t75 138.5h-127l82 326h330l-70 -275q-49 -196 -158.5 -285t-291.5 -94z" />
    <glyph glyph-name="quotesinglbase" unicode="&#x201a;" horiz-adv-x="559" 
d="M-129 -330l-23 131q122 12 183 60.5t75 138.5h-126l81 326h330l-69 -275q-48 -197 -157.5 -286t-293.5 -95z" />
    <glyph glyph-name="quotedblleft" unicode="&#x201c;" horiz-adv-x="1050" 
d="M166 788l67 275q50 197 158.5 285t292.5 94l23 -131q-122 -12 -182 -59.5t-74 -137.5h127l-84 -326h-328zM653 788l70 275q50 195 159 284t292 95l22 -131q-121 -12 -180.5 -59.5t-77.5 -137.5h127l-82 -326h-330z" />
    <glyph glyph-name="quotedblright" unicode="&#x201d;" horiz-adv-x="1050" 
d="M152 780l-23 129q122 12 183 60.5t75 138.5h-127l84 326h328l-68 -275q-49 -195 -159 -284.5t-293 -94.5zM641 780l-23 129q121 12 181 60t78 139h-127l81 326h330l-69 -275q-49 -196 -159 -285t-292 -94z" />
    <glyph glyph-name="quotedblbase" unicode="&#x201e;" horiz-adv-x="1048" 
d="M-129 -330l-23 131q122 12 183 60.5t75 138.5h-126l81 326h330l-69 -275q-48 -197 -157.5 -286t-293.5 -95zM358 -330l-22 131q122 12 183 60.5t75 138.5h-127l84 326h328l-68 -275q-50 -197 -159.5 -286t-293.5 -95z" />
    <glyph glyph-name="dagger" unicode="&#x2020;" horiz-adv-x="731" 
d="M276 487l156 555l-227 -22l43 170l215 -23l35 267h186l-94 -267l225 23l-43 -170l-215 22l-111 -555h-170z" />
    <glyph glyph-name="daggerdbl" unicode="&#x2021;" horiz-adv-x="751" 
d="M156 0l96 266l-225 -22l43 170l213 -23l57 326l100 325l-227 -22l45 170l215 -23l35 267h186l-94 -267l225 23l-45 -170l-211 22l-55 -325l-102 -326l225 23l-43 -170l-213 22l-37 -266h-188z" />
    <glyph glyph-name="bullet" unicode="&#x2022;" horiz-adv-x="923" 
d="M559 1024q102 0 158.5 -59t56.5 -160q0 -85 -31.5 -163t-87.5 -134q-84 -84 -196 -84q-103 0 -159 59t-56 160q0 86 31 163.5t87 133.5q84 84 197 84z" />
    <glyph glyph-name="ellipsis" unicode="&#x2026;" horiz-adv-x="1611" 
d="M-20 0l79 319h324l-82 -319h-321zM510 0l80 319h323l-82 -319h-321zM1038 0l82 319h322l-80 -319h-324z" />
    <glyph glyph-name="perthousand" unicode="&#x2030;" horiz-adv-x="2314" 
d="M102 0l666 764l567 670h224l-664 -764l-567 -670h-226zM442 725q-130 0 -206 81.5t-76 227.5q0 92 32 176t91 140q98 98 233 98q131 0 208 -81.5t77 -227.5q0 -87 -33 -171.5t-90 -144.5q-98 -98 -236 -98zM455 901q38 0 80 33q32 35 50.5 90t18.5 113q0 65 -27 101
t-71 36q-45 0 -80 -35q-34 -31 -53 -87t-19 -114q0 -66 27.5 -101.5t73.5 -35.5zM1145 -14q-131 0 -207 81.5t-76 227.5q0 88 32 171.5t89 143.5q106 99 236 99t206 -82t76 -228q0 -91 -32 -174.5t-89 -140.5q-105 -98 -235 -98zM1157 160q35 0 80 35q32 32 51 87.5
t19 112.5q0 66 -27.5 101.5t-73.5 35.5q-39 0 -80 -32q-32 -35 -50.5 -90t-18.5 -113q0 -65 27.5 -101t72.5 -36zM1876 -14q-131 0 -207 81.5t-76 227.5q0 88 32 171.5t89 143.5q106 99 236 99t206 -82t76 -228q0 -91 -32 -174.5t-89 -140.5q-105 -98 -235 -98zM1888 160
q35 0 80 35q32 32 51 87.5t19 112.5q0 66 -27.5 101.5t-73.5 35.5q-38 0 -79 -32q-32 -35 -51 -90.5t-19 -112.5q0 -65 27.5 -101t72.5 -36z" />
    <glyph glyph-name="guilsinglleft" unicode="&#x2039;" horiz-adv-x="704" 
d="M313 68l-229 454l4 17l471 471l152 -150l-310 -356l136 -340z" />
    <glyph glyph-name="guilsinglright" unicode="&#x203a;" horiz-adv-x="704" 
d="M385 1010l229 -455l-4 -16l-471 -471l-151 149l309 356l-135 340z" />
    <glyph glyph-name="fraction" unicode="&#x2044;" horiz-adv-x="180" 
d="M-598 0l639 752l559 682h176l-639 -752l-559 -682h-176z" />
    <glyph glyph-name="zero.sup" unicode="&#x2070;" 
d="M862 1386q0 -120 -39 -234t-112 -187q-97 -97 -226 -97q-123 0 -197.5 77t-74.5 210q0 121 39.5 235t112.5 187q92 98 225 98q123 0 197.5 -77.5t74.5 -211.5zM399 1163q0 -64 28.5 -96.5t72.5 -32.5q38 0 73 35q49 49 76 145t27 166q0 64 -28.5 95.5t-72.5 31.5
q-41 0 -73 -32q-51 -51 -77 -144.5t-26 -167.5z" />
    <glyph glyph-name="four.sup" unicode="&#x2074;" 
d="M500 885l39 157h-353l37 162l447 463h184l-119 -487h94l-36 -138h-95l-39 -157h-159zM375 1178h200l64 282h-4z" />
    <glyph glyph-name="five.sup" unicode="&#x2075;" 
d="M459 868q-77 0 -164.5 33.5t-134.5 89.5l110 125q108 -84 191 -84q64 0 101.5 34t37.5 83q0 42 -32.5 67t-92.5 25q-15 0 -30 -2.5t-23 -5t-20.5 -7t-14.5 -5.5l-98 69l119 369h454l-37 -160h-307l-39 -125q15 4 76 4q106 0 171 -58t65 -161q0 -117 -90.5 -204
t-241.5 -87z" />
    <glyph glyph-name="six.sup" unicode="&#x2076;" 
d="M500 866q-129 0 -194.5 74.5t-65.5 200.5q0 94 44.5 219.5t123.5 204.5q107 110 264 110q20 0 38.5 -2t36.5 -7.5t30.5 -9.5t28.5 -12t22.5 -11t21.5 -12l14 -9l-88 -135q-59 36 -121 36q-86 0 -143 -63q-42 -42 -66 -109q67 48 168 48q79 0 138 -52.5t59 -150.5
q0 -129 -86 -224.5t-225 -95.5zM506 1016q60 0 97.5 42t37.5 101q0 46 -26.5 69t-71.5 23q-63 0 -97 -34v-3q-36 -33 -36 -98q0 -49 26.5 -74.5t69.5 -25.5z" />
    <glyph glyph-name="seven.sup" unicode="&#x2077;" 
d="M205 881l442 614h-313l43 164h506l-39 -141l-451 -637h-188z" />
    <glyph glyph-name="eight.sup" unicode="&#x2078;" 
d="M487 868q-112 0 -192 59.5t-80 159.5q0 83 48 137.5t130 78.5q-90 56 -90 151q0 88 73.5 154.5t205.5 66.5q116 0 188 -58t72 -151q0 -74 -40 -126t-116 -70q52 -32 77 -70t25 -92q0 -97 -80.5 -168.5t-220.5 -71.5zM498 1006q53 0 90 29t37 77q2 42 -31 69t-88 27
q-54 0 -90 -29.5t-37 -76.5q0 -42 31.5 -69t87.5 -27zM573 1348q44 0 76.5 27.5t32.5 72.5q0 36 -25.5 61t-78.5 25q-50 0 -83.5 -27t-33.5 -69q-2 -37 28 -63.5t84 -26.5z" />
    <glyph glyph-name="nine.sup" unicode="&#x2079;" 
d="M408 868q-105 0 -209 72l90 135q66 -47 135 -47q86 0 139 53q47 50 66 115q-58 -49 -168 -49q-81 0 -139 53.5t-58 153.5q0 127 89 224t225 97q129 0 194.5 -75t65.5 -199q0 -97 -41.5 -221t-120.5 -203q-115 -109 -268 -109zM535 1282q60 0 94 37v2q37 34 37 102
q0 52 -26 77.5t-69 25.5q-60 -1 -97.5 -44.5t-37.5 -105.5q0 -46 27 -70t72 -24z" />
    <glyph glyph-name="zero.inf" unicode="&#x2080;" 
d="M588 233q0 -120 -39.5 -234t-112.5 -187q-97 -97 -225 -97q-123 0 -197.5 77t-74.5 210q0 121 39 235t112 187q92 98 225 98q123 0 198 -78t75 -211zM125 10q0 -64 28 -96.5t72 -32.5q39 0 74 35q49 49 75.5 144.5t26.5 166.5q0 64 -28 95.5t-72 31.5q-42 0 -74 -32
q-51 -51 -76.5 -144.5t-25.5 -167.5z" />
    <glyph glyph-name="one.inf" unicode="&#x2081;" horiz-adv-x="587" 
d="M53 -268l142 581l-150 -57l-14 154l256 100h131l-191 -778h-174z" />
    <glyph glyph-name="two.inf" unicode="&#x2082;" 
d="M-111 -268l39 147l357 275q53 43 73.5 73t20.5 60t-23 49.5t-63 19.5q-77 0 -174 -86l-105 123q127 127 285 127q121 0 192.5 -60.5t71.5 -158.5q0 -74 -35.5 -131t-154.5 -141l-201 -144h301l-39 -153h-545z" />
    <glyph glyph-name="three.inf" unicode="&#x2083;" 
d="M188 -285q-179 0 -286 115l110 125q3 -2 20.5 -16t23 -17.5t21 -14t25 -14t25.5 -9t32 -7.5t34 -2q54 0 88 33t34 72q0 87 -155 90h-45v108l223 170h-270l38 158h506l-32 -131l-258 -191q176 -36 176 -192q0 -119 -86 -198t-224 -79z" />
    <glyph glyph-name="four.inf" unicode="&#x2084;" 
d="M225 -268l39 157h-352l37 162l446 463h185l-119 -487h94l-37 -138h-94l-39 -157h-160zM100 25h201l64 282h-5z" />
    <glyph glyph-name="five.inf" unicode="&#x2085;" 
d="M184 -285q-77 0 -164.5 33.5t-134.5 89.5l111 125q108 -84 190 -84q64 0 102 34t38 83q0 42 -32.5 67t-92.5 25q-15 0 -30 -2.5t-23 -5t-20.5 -7t-14.5 -5.5l-99 69l119 369h455l-37 -160h-307l-39 -125q15 4 76 4q105 0 170 -58t65 -161q0 -117 -90.5 -204t-241.5 -87z
" />
    <glyph glyph-name="six.inf" unicode="&#x2086;" 
d="M225 -287q-129 0 -194.5 74.5t-65.5 200.5q0 94 44.5 219.5t123.5 204.5q107 110 264 110q17 0 34.5 -2t31.5 -5t29.5 -8.5t25 -9t23.5 -10.5t19 -10t17 -10t13 -8l-88 -135q-59 36 -121 36q-86 0 -143 -63q-42 -42 -66 -109q67 48 168 48q79 0 138 -52.5t59 -150.5
q0 -129 -86.5 -224.5t-225.5 -95.5zM231 -137q60 0 98 42t38 101q0 45 -27 68.5t-72 23.5q-61 0 -96 -35v-2q-37 -34 -37 -98q0 -49 26.5 -74.5t69.5 -25.5z" />
    <glyph glyph-name="seven.inf" unicode="&#x2087;" 
d="M-61 -272l442 614h-313l43 164h505l-38 -141l-451 -637h-188z" />
    <glyph glyph-name="eight.inf" unicode="&#x2088;" 
d="M211 -285q-112 0 -192 59.5t-80 159.5q0 83 48 137.5t130 78.5q-90 56 -90 151q0 88 73 154.5t205 66.5q116 0 188 -58t72 -151q0 -74 -39.5 -126t-115.5 -70q52 -32 77 -70t25 -92q0 -97 -80.5 -168.5t-220.5 -71.5zM221 -147q53 0 90 29t37 77q2 42 -31 69t-88 27
q-54 0 -90 -29.5t-37 -76.5q0 -42 31.5 -69t87.5 -27zM297 195q44 0 76.5 27.5t32.5 72.5q0 36 -26 61t-79 25q-50 0 -83.5 -27t-33.5 -69q-2 -37 28.5 -63.5t84.5 -26.5z" />
    <glyph glyph-name="nine.inf" unicode="&#x2089;" 
d="M133 -285q-105 0 -209 72l90 135q66 -47 136 -47q86 0 139 53q45 48 65 115q-58 -49 -168 -49q-81 0 -138.5 53.5t-57.5 153.5q0 127 88.5 224t224.5 97q129 0 194.5 -75t65.5 -199q0 -97 -41.5 -221t-120.5 -203q-115 -109 -268 -109zM260 129q60 0 94 37v2
q37 34 37 102q0 52 -25.5 77.5t-68.5 25.5q-60 -1 -97.5 -44.5t-37.5 -105.5q0 -46 27 -70t71 -24z" />
    <glyph glyph-name="colonmonetary" unicode="&#x20a1;" horiz-adv-x="1118" 
d="M1059 1597h135l-86 -241q76 -41 143 -115l-176 -227q-33 36 -69 69l-279 -809q71 23 152 91l139 -213q-189 -151 -383 -154l-86 -240h-137l90 250q-55 9 -101 29l-98 -279h-135l121 342q-99 77 -150 198.5t-51 270.5q0 189 66.5 375t185.5 305q173 173 414 185l59 163
h135l-61 -167q39 -4 104 -23zM793 1176l-304 -875q49 -37 111 -43l307 889q-56 26 -114 29zM377 588q-3 -89 29 -172l256 739q-55 -20 -105 -70q-82 -82 -131 -223.5t-49 -273.5z" />
    <glyph glyph-name="naira" unicode="&#x20a6;" horiz-adv-x="1507" 
d="M1440 408h-201l-100 -408h-308l-98 408h-250l-100 -408h-293l98 408h-192l47 184h190l64 258h-195l50 184h190l98 400h328l96 -400h236l98 400h293l-98 -400h202l-47 -184h-200l-64 -258h203zM610 987l-90 -403h176l-75 403h-11zM969 475h10l86 383h-168z" />
    <glyph glyph-name="rupee" unicode="&#x20a8;" horiz-adv-x="1968" 
d="M625 0l-123 467h-107l-112 -467h-289l350 1434h324q128 0 224.5 -33.5t153.5 -93t85 -134.5t28 -165q0 -104 -30 -191.5t-83.5 -149t-118 -103.5t-141.5 -68l152 -496h-313zM1456 -23q-122 0 -229.5 51t-190.5 146l168 184q134 -155 262 -155q52 0 81.5 28.5t29.5 69.5
q0 17 -7.5 33.5t-16.5 29t-33.5 33t-40.5 33t-56 41.5q-105 78 -153.5 147t-48.5 160q0 142 106.5 243t280.5 101q111 0 204.5 -45.5t161.5 -118.5l-151 -192q-72 72 -125 101.5t-109 29.5q-41 0 -68.5 -26.5t-27.5 -67.5q0 -39 29.5 -68.5t122.5 -95.5
q117 -84 162.5 -154.5t45.5 -162.5q0 -143 -115.5 -244t-281.5 -101zM457 723h116q140 0 211.5 72.5t71.5 189.5q0 85 -52 133.5t-159 48.5h-80z" />
    <glyph glyph-name="won" unicode="&#x20a9;" horiz-adv-x="1990" 
d="M1915 418h-287l-190 -422h-369l14 422h-252l-188 -422h-364l12 422h-285l47 194h244l8 207h-203l52 195h157l15 420h321l-37 -420h213l195 424h344l-6 -424h219l162 420h354l-190 -420h163l-49 -195h-203l-94 -207h246zM1102 1055l-193 -453h189l16 453h-12zM1337 352h13
l161 477h-163zM537 352h10l201 477h-162z" />
    <glyph glyph-name="sheqel" unicode="&#x20aa;" horiz-adv-x="1150" 
d="M-41 0l266 1098h332q266 0 266 -234q0 -59 -14 -114l-78 -312h-143l35 154q16 63 16 125q0 75 -40 104t-118 29h-94l-203 -850h-225zM922 0h-217q-203 0 -282.5 86.5t-60.5 267.5l33 305h144l-17 -210q-6 -64 1.5 -103.5t34 -61.5t63.5 -29t100 -7h39l203 850h227z" />
    <glyph glyph-name="Euro" unicode="&#x20ac;" horiz-adv-x="1271" 
d="M117 793l49 196h135q67 178 184 295q87 87 187 128.5t237 41.5q155 0 268.5 -74.5t170.5 -201.5l-261 -148q-45 75 -91 109.5t-111 34.5q-98 0 -162 -64q-41 -41 -84 -121h322l-52 -196h-331q-21 -71 -33 -144h332l-52 -200h-290q12 -95 59.5 -142t122.5 -47
q59 0 104 22.5t103 77.5l204 -188q-171 -192 -419 -192q-216 0 -346 124t-150 345h-180l51 200h139q7 52 25 144h-131z" />
    <glyph glyph-name="peso" unicode="&#x20b1;" horiz-adv-x="1388" 
d="M1436 829h-160q-39 -149 -146 -256q-180 -180 -464 -180h-172l-93 -393h-311l203 829h-191l45 175h189l106 430h340q143 0 237.5 -29.5t166.5 -101.5q100 -103 110 -299h185zM551 649h133q125 0 205 80q47 47 69 111h-362zM674 1169l-43 -176h348q-13 89 -47 123
q-31 31 -62.5 42t-91.5 11h-104z" />
    <glyph glyph-name="hryvnia" unicode="&#x20b4;" horiz-adv-x="1153" 
d="M1053 475l-459 66l-39 -27h-2q-73 -60 -102.5 -96t-28.5 -76q0 -49 32.5 -76.5t96.5 -27.5q139 0 301 106l113 -233q-213 -131 -437 -131q-200 0 -308.5 89.5t-108.5 245.5q0 79 29.5 145t97.5 134l-166 24l45 119l250 -37l161 115l-360 53l43 117l461 -67l10 8h2
q71 55 100.5 92t28.5 78q0 98 -121 98q-112 0 -270 -98l-111 231q201 127 418 127q191 0 292 -94t101 -236q0 -140 -104 -256l172 -24l-43 -119l-248 35l-27 -19h-2l-133 -96l359 -51z" />
    <glyph glyph-name="numero" unicode="&#x2116;" horiz-adv-x="2027" 
d="M-6 0l354 1434h268l205 -846l207 846h283l-355 -1434h-251l-216 879l-213 -879h-282zM1645 565q-140 0 -219.5 89.5t-77.5 244.5q0 117 42 236.5t111 193.5q115 115 254 115q141 0 221 -89t78 -243q0 -117 -43 -240t-113 -190q-112 -117 -253 -117zM1655 750q47 0 88 41
q42 42 72 144.5t30 182.5q0 144 -100 144q-48 0 -86 -41q-42 -42 -72.5 -146t-30.5 -184q0 -67 25 -104t74 -37zM1212 279l43 159h631l-45 -159h-629z" />
    <glyph glyph-name="published" unicode="&#x2117;" horiz-adv-x="1507" 
d="M653 1128h203q136 0 209.5 -62t73.5 -179q0 -139 -96 -227.5t-263 -88.5h-94l-59 -241h-170zM967 872q0 107 -119 107h-66l-59 -258h70q83 0 127.5 41t46.5 110zM870 1458q178 0 313 -83t205 -223t70 -314q0 -183 -65 -356t-187 -298q-209 -209 -495 -209
q-178 0 -313 83.5t-205 223.5t-70 314q0 182 66 357.5t186 295.5q209 209 495 209zM711 57q256 0 432 176q114 114 172.5 274.5t58.5 328.5q0 150 -57 271t-173.5 195t-275.5 74q-257 0 -430 -176q-114 -114 -173.5 -274.5t-59.5 -323.5q0 -153 57 -275t173.5 -196
t275.5 -74z" />
    <glyph glyph-name="servicemark" unicode="&#x2120;" horiz-adv-x="1255" 
d="M367 786q-74 0 -129.5 30.5t-108.5 88.5l90 86q79 -92 156 -92q41 0 63.5 18t22.5 48q0 27 -18.5 47.5t-77.5 54.5q-72 42 -102 84t-30 96q0 81 56 137q62 62 155 62q125 0 218 -100l-84 -93q-80 80 -144 80q-32 0 -53 -18t-21 -45q0 -29 18 -48t83 -61q70 -44 98.5 -82
t28.5 -94q0 -80 -53 -133q-66 -66 -168 -66zM659 799l152 635h147l62 -252l180 252h156l-152 -635h-131l98 432l-196 -275h-12l-72 275l-98 -432h-134z" />
    <glyph glyph-name="trademark" unicode="&#x2122;" horiz-adv-x="1245" 
d="M236 799l118 510h-157l34 125h453l-33 -125h-157l-119 -510h-139zM647 799l152 635h147l62 -252l180 252h155l-149 -635h-133l98 432l-196 -275h-13l-71 275l-99 -432h-133z" />
    <glyph glyph-name="Omega" unicode="&#x2126;" horiz-adv-x="1503" 
d="M881 1184q-160 0 -256 -103q-76 -76 -114 -201t-38 -245q0 -122 28.5 -209.5t78.5 -171.5l-66 -254h-532l65 260h281q-148 236 -148 453q0 337 205 542q203 203 516 203q262 0 408.5 -139.5t146.5 -376.5q0 -192 -92 -352t-272 -330h270l-64 -260h-569l64 254
q150 132 254 305t104 338q0 136 -70.5 211.5t-199.5 75.5z" />
    <glyph glyph-name="onethird" unicode="&#x2153;" horiz-adv-x="1490" 
d="M995 -16q-180 0 -286 114l110 125q5 -3 21 -16t22 -17.5t21 -14t25 -13.5t25 -9.5t31.5 -7.5t34.5 -2q54 0 88.5 33.5t34.5 71.5q0 87 -155 90h-45v108l223 170h-271l39 158h506l-33 -131l-258 -190q177 -36 177 -193q0 -119 -86 -197.5t-224 -78.5zM244 659l139 584
l-150 -59l-12 153l254 103h131l-188 -781h-174zM-10 0l639 752l559 682h176l-639 -752l-559 -682h-176z" />
    <glyph glyph-name="twothirds" unicode="&#x2154;" horiz-adv-x="1626" 
d="M1133 -16q-181 0 -287 114l110 125q3 -2 20.5 -16t23 -17.5t21 -14t25 -14t25.5 -9t32 -7.5t34 -2q54 0 88.5 33.5t34.5 71.5q0 87 -156 90h-45v108l223 170h-270l39 158h505l-32 -131l-258 -190q176 -36 176 -193q0 -119 -85.5 -197.5t-223.5 -78.5zM57 659l39 148
l357 274q53 43 73.5 73t20.5 60q0 31 -23 50.5t-63 19.5q-77 0 -174 -86l-103 123q126 129 283 129q123 0 193.5 -60.5t70.5 -160.5q0 -74 -35.5 -131.5t-154.5 -141.5l-199 -143h301l-39 -154h-547zM125 0l639 752l559 682h176l-639 -752l-559 -682h-176z" />
    <glyph glyph-name="onefifth" unicode="&#x2155;" horiz-adv-x="1490" 
d="M983 -16q-77 0 -164.5 33t-134.5 89l111 125q108 -84 190 -84q64 0 101.5 34t37.5 83q0 42 -32.5 67t-92.5 25q-15 0 -30 -2.5t-23 -5t-20.5 -7t-14.5 -5.5l-98 70l119 368h454l-36 -160h-308l-38 -125q19 5 75 5q105 0 170.5 -58.5t65.5 -161.5q0 -117 -90.5 -203.5
t-241.5 -86.5zM244 659l139 584l-150 -59l-12 153l254 103h131l-188 -781h-174zM-4 0l639 752l559 682h176l-639 -752l-559 -682h-176z" />
    <glyph glyph-name="twofifths" unicode="&#x2156;" horiz-adv-x="1626" 
d="M1128 -16q-77 0 -164.5 33t-134.5 89l111 125q108 -84 190 -84q64 0 102 34t38 83q0 42 -32.5 67t-92.5 25q-15 0 -30 -2.5t-23 -5t-20.5 -7t-14.5 -5.5l-99 70l119 368h455l-37 -160h-307l-39 -125q19 5 76 5q105 0 170 -58t65 -162q0 -117 -90.5 -203.5t-241.5 -86.5z
M141 0l639 752l559 682h177l-639 -752l-560 -682h-176zM57 659l39 148l357 274q53 43 73.5 73t20.5 60q0 31 -23 50.5t-63 19.5q-77 0 -174 -86l-103 123q126 129 283 129q123 0 193.5 -60.5t70.5 -160.5q0 -74 -35.5 -131.5t-154.5 -141.5l-199 -143h301l-39 -154h-547z
" />
    <glyph glyph-name="threefifths" unicode="&#x2157;" horiz-adv-x="1626" 
d="M1128 -16q-77 0 -164.5 33t-134.5 89l111 125q108 -84 190 -84q64 0 102 34t38 83q0 42 -32.5 67t-92.5 25q-15 0 -30 -2.5t-23 -5t-20.5 -7t-14.5 -5.5l-99 70l119 368h455l-37 -160h-307l-39 -125q19 5 76 5q105 0 170 -58t65 -162q0 -117 -90.5 -203.5t-241.5 -86.5z
M115 0l639 752l559 682h176l-639 -752l-559 -682h-176zM352 643q-171 0 -286 115l110 125q4 -3 16.5 -12.5t17 -13t16 -11.5t18 -11.5t18 -9.5t21 -8.5t22 -6t25.5 -4.5t28 -1q54 0 88.5 32t34.5 70q0 42 -40 66t-117 24h-45v109l223 170h-271l41 158h506l-35 -131
l-258 -189q177 -41 177 -194q0 -119 -86 -198t-224 -79z" />
    <glyph glyph-name="fourfifths" unicode="&#x2158;" horiz-adv-x="1626" 
d="M391 657l37 156h-350l37 164l446 463h184l-118 -488h94l-37 -139h-94l-39 -156h-160zM266 950h199l65 281h-4zM1128 -16q-77 0 -164.5 33t-134.5 89l111 125q108 -84 190 -84q64 0 102 34t38 83q0 42 -32.5 67t-92.5 25q-15 0 -30 -2.5t-23 -5t-20.5 -7t-14.5 -5.5
l-99 70l119 368h455l-37 -160h-307l-39 -125q19 5 76 5q105 0 170 -58t65 -162q0 -117 -90.5 -203.5t-241.5 -86.5zM139 0l639 752l559 682h176l-639 -752l-559 -682h-176z" />
    <glyph glyph-name="onesixth" unicode="&#x2159;" horiz-adv-x="1490" 
d="M1018 -18q-129 0 -194.5 74t-65.5 200q0 94 44.5 219.5t123.5 204.5q108 111 264 111q20 0 39 -2.5t36 -7.5t30.5 -9.5t28.5 -12t22.5 -11.5t20.5 -12t15 -9l-88 -135q-61 37 -120 37q-87 0 -144 -64q-41 -41 -65 -108q65 47 168 47q79 0 137.5 -52.5t58.5 -150.5
q0 -129 -86 -224t-225 -95zM1024 131q60 0 97.5 42t37.5 101q0 46 -26.5 69.5t-71.5 23.5q-61 0 -96 -35v-2q-37 -34 -37 -99q0 -49 26.5 -74.5t69.5 -25.5zM244 659l139 584l-150 -59l-12 153l254 103h131l-188 -781h-174zM4 0l639 752l559 682h176l-639 -752l-559 -682
h-176z" />
    <glyph glyph-name="fivesixths" unicode="&#x215a;" horiz-adv-x="1626" 
d="M1165 -18q-129 0 -194.5 74t-65.5 200q0 94 44.5 219.5t123.5 204.5q108 111 264 111q20 0 39 -2.5t36.5 -7.5t30.5 -9t29 -12.5t22.5 -12t20.5 -11.5t15 -9l-88 -135q-61 37 -121 37q-86 0 -143 -64q-43 -43 -66 -108q65 47 168 47q79 0 138 -52.5t59 -150.5
q0 -129 -86.5 -224t-225.5 -95zM1171 131q60 0 98 42t38 101q0 46 -27 69.5t-72 23.5q-61 0 -96 -35v-2q-37 -34 -37 -99q0 -49 26.5 -74.5t69.5 -25.5zM123 0l639 752l559 682h176l-639 -752l-559 -682h-176zM352 643q-77 0 -166 34t-133 91l111 123q105 -82 190 -82
q64 0 101 33t37 82q0 42 -31.5 67t-91.5 25q-41 0 -88 -21l-101 70l119 369h457l-37 -160h-307l-41 -125q23 6 78 6q105 0 169 -58.5t64 -162.5q0 -118 -89 -204.5t-241 -86.5z" />
    <glyph glyph-name="oneeighth" unicode="&#x215b;" horiz-adv-x="1490" 
d="M1006 -16q-112 0 -192.5 59.5t-80.5 159.5q0 83 48 136.5t130 78.5q-90 56 -90 151q0 88 73.5 155t205.5 67q116 0 188 -58t72 -151q0 -74 -40 -126.5t-116 -70.5q53 -32 78 -70t25 -92q0 -97 -80.5 -168t-220.5 -71zM1016 121q53 0 90 29t37 77q2 42 -31 69.5t-88 27.5
q-54 0 -90 -30t-37 -77q0 -42 31.5 -69t87.5 -27zM1092 463q44 0 76 27.5t32 72.5q0 36 -25.5 61t-78.5 25q-50 0 -83.5 -27t-33.5 -69q-2 -37 28.5 -63.5t84.5 -26.5zM244 659l139 584l-150 -59l-12 153l254 103h131l-188 -781h-174zM-6 0l639 752l559 682h176l-639 -752
l-559 -682h-176z" />
    <glyph glyph-name="threeeighths" unicode="&#x215c;" horiz-adv-x="1626" 
d="M1153 -16q-112 0 -192 59.5t-80 159.5q0 83 48 136.5t130 78.5q-90 56 -90 151q0 88 73 155t205 67q116 0 188 -58t72 -151q0 -74 -39.5 -126.5t-115.5 -70.5q52 -32 77 -70t25 -92q0 -97 -80.5 -168t-220.5 -71zM1163 121q53 0 90 29t37 77q2 42 -31 69.5t-88 27.5
q-54 0 -90 -30t-37 -77q0 -42 31.5 -69t87.5 -27zM1239 463q44 0 76.5 27.5t32.5 72.5q0 36 -26 61t-79 25q-50 0 -83.5 -27t-33.5 -69q-2 -37 28.5 -63.5t84.5 -26.5zM123 0l639 752l559 682h176l-639 -752l-559 -682h-176zM356 643q-171 0 -286 115l110 125
q4 -3 16.5 -12.5t17 -13t16 -11.5t18 -11.5t18 -9.5t21 -8.5t22 -6t25.5 -4.5t28 -1q54 0 88.5 32t34.5 70q0 42 -40 66t-117 24h-45v109l223 170h-270l40 158h506l-34 -131l-259 -189q177 -41 177 -194q0 -119 -86 -198t-224 -79z" />
    <glyph glyph-name="fiveeighths" unicode="&#x215d;" horiz-adv-x="1626" 
d="M1153 -16q-112 0 -192 59.5t-80 159.5q0 83 48 136.5t130 78.5q-90 56 -90 151q0 88 73 155t205 67q116 0 188 -58t72 -151q0 -74 -39.5 -126.5t-115.5 -70.5q52 -32 77 -70t25 -92q0 -97 -80.5 -168t-220.5 -71zM1163 121q53 0 90 29t37 77q2 42 -31 69.5t-88 27.5
q-54 0 -90 -30t-37 -77q0 -42 31.5 -69t87.5 -27zM1239 463q44 0 76.5 27.5t32.5 72.5q0 36 -26 61t-79 25q-50 0 -83.5 -27t-33.5 -69q-2 -37 28.5 -63.5t84.5 -26.5zM123 0l639 752l559 682h176l-639 -752l-559 -682h-176zM352 643q-77 0 -166 34t-133 91l111 123
q105 -82 190 -82q64 0 101 33t37 82q0 42 -31.5 67t-91.5 25q-41 0 -88 -21l-101 70l119 369h457l-37 -160h-307l-41 -125q23 6 78 6q105 0 169 -58.5t64 -162.5q0 -118 -89 -204.5t-241 -86.5z" />
    <glyph glyph-name="seveneighths" unicode="&#x215e;" horiz-adv-x="1626" 
d="M1141 -16q-112 0 -192.5 59.5t-80.5 159.5q0 83 48 136.5t131 78.5q-91 56 -91 151q0 88 73.5 155t205.5 67q116 0 188 -58t72 -151q0 -74 -40 -126.5t-116 -70.5q53 -32 78 -70t25 -92q0 -97 -80.5 -168t-220.5 -71zM1151 121q53 0 90 29t37 77q2 42 -31 69.5t-88 27.5
q-54 0 -90 -30t-37 -77q0 -42 31.5 -69t87.5 -27zM1227 463q44 0 76 27.5t32 72.5q0 36 -25.5 61t-78.5 25q-50 0 -83.5 -27t-33.5 -69q-2 -37 28.5 -63.5t84.5 -26.5zM119 657l440 613h-313l43 164h506l-37 -142l-451 -635h-188zM57 0l639 752l559 682h177l-639 -752
l-560 -682h-176z" />
    <glyph glyph-name="Delta" unicode="&#x2206;" horiz-adv-x="1372" 
d="M1061 1442l158 -1223l-78 -219h-1170l25 219l754 1223h311zM823 1065l-475 -801h561z" />
    <glyph glyph-name="minus" unicode="&#x2212;" horiz-adv-x="1134" 
d="M119 580l71 282h906l-72 -282h-905z" />
    <glyph glyph-name="NUL" horiz-adv-x="0" 
 />
    <glyph glyph-name="CR" horiz-adv-x="458" 
 />
    <glyph glyph-name="Q.alt" horiz-adv-x="1427" 
d="M862 1456q164 0 287.5 -74t188.5 -205.5t65 -302.5q0 -169 -59 -346t-166 -305l98 -143l-258 -168l-74 131q-141 -66 -301 -66q-248 0 -394.5 160t-146.5 422q0 185 71 377t196 317q203 203 493 203zM682 264q54 0 115 23l-152 223l258 170l98 -174q82 168 82 346
q0 153 -64.5 235t-195.5 82q-126 0 -219 -96q-82 -82 -132 -225.5t-50 -265.5q0 -153 64.5 -235.5t195.5 -82.5z" />
    <glyph glyph-name="a.alt" horiz-adv-x="1183" 
d="M401 -16q-144 0 -239.5 117.5t-95.5 328.5q0 160 54.5 307t151.5 244q145 145 330 145q181 0 275 -161l30 143h307l-272 -1108h-305l27 111q-68 -65 -128.5 -96t-134.5 -31zM549 238q71 0 135 61q61 61 95 157.5t34 200.5q0 100 -47 156.5t-121 56.5q-72 0 -137 -65
q-58 -58 -93.5 -153t-35.5 -199q0 -102 43 -158.5t127 -56.5z" />
    <glyph glyph-name="three.alt" horiz-adv-x="1089" 
d="M449 -23q-319 0 -492 242l238 191q59 -78 120 -116t142 -38q98 0 149 58.5t51 134.5q0 70 -49.5 112.5t-150.5 42.5h-115l61 254h136q90 0 158.5 53.5t68.5 141.5q0 56 -37.5 91.5t-101.5 35.5q-68 0 -125.5 -30t-128.5 -95l-170 200q102 103 209.5 153t253.5 50
q104 0 185.5 -30.5t130.5 -82t74 -114.5t25 -133q0 -130 -70 -231.5t-216 -153.5q76 -39 124 -111t48 -174q0 -195 -145.5 -323t-372.5 -128z" />
    <glyph glyph-name="registered.alt" horiz-adv-x="1507" 
d="M870 1458q178 0 313 -83t205 -223t70 -314q0 -183 -65 -356t-187 -298q-209 -209 -495 -209q-178 0 -313 83.5t-205 223.5t-70 314q0 182 66 357.5t186 295.5q209 209 495 209zM711 57q256 0 432 176q114 114 172.5 274.5t58.5 328.5q0 150 -57 271t-173.5 195t-275.5 74
q-257 0 -430 -176q-114 -114 -173.5 -274.5t-59.5 -323.5q0 -153 57 -275t173.5 -196t275.5 -74zM664 592l-60 -256h-170l197 801h207q168 0 241 -76q64 -61 64 -166q0 -125 -74 -199q-53 -53 -139 -80l88 -280h-174l-70 256h-110zM702 735h86q99 0 148 49q37 37 37 97
q0 46 -27 73q-33 33 -110 33h-76z" />
    <glyph glyph-name="acute.cap" horiz-adv-x="1024" 
d="M522 1530l309 313l252 -112l-309 -201h-252z" />
    <glyph glyph-name="grave.cap" horiz-adv-x="1024" 
d="M754 1530l-224 201l269 112l166 -313h-211z" />
    <glyph glyph-name="circumflex.cap" horiz-adv-x="1024" 
d="M369 1534l315 295h291l170 -295h-223l-121 113l-176 -113h-256z" />
    <glyph glyph-name="breve.cap" horiz-adv-x="1024" 
d="M762 1530q-154 0 -235.5 76t-61.5 215h194q22 -92 142 -92q64 0 102.5 22.5t69.5 69.5h221q-49 -140 -163 -215.5t-269 -75.5z" />
    <glyph glyph-name="tilde.cap" horiz-adv-x="1024" 
d="M526 1520l-161 57q56 130 117 195t157 65q49 0 87 -11t91 -34q65 -35 103 -35q40 0 66.5 22t55.5 70l164 -57q-59 -132 -120 -196t-156 -64q-49 0 -87 11t-91 34q-65 35 -103 35q-40 0 -67 -22t-56 -70z" />
    <glyph glyph-name="macron.cap" horiz-adv-x="1024" 
d="M403 1532l58 213h702l-55 -213h-705z" />
    <glyph glyph-name="dieresis.cap" horiz-adv-x="1024" 
d="M418 1536l63 252h285l-66 -252h-282zM817 1536l66 252h284l-65 -252h-285z" />
    <glyph glyph-name="caron.cap" horiz-adv-x="1024" 
d="M1219 1829l-316 -295h-291l-168 295h222l122 -115l175 115h256z" />
    <glyph glyph-name="dotaccent.cap" horiz-adv-x="1024" 
d="M612 1536l64 252h293l-66 -252h-291z" />
    <glyph glyph-name="caron.alt" horiz-adv-x="1024" 
d="M567 1196l101 426h229v-6l-211 -420h-119z" />
    <glyph glyph-name="hungarumlaut.cap" horiz-adv-x="1024" 
d="M385 1530l307 313l240 -112l-309 -201h-238zM754 1530l309 313l237 -112l-307 -201h-239z" />
    <glyph glyph-name="ring.cap" horiz-adv-x="1024" 
d="M496 1952q95 0 157 -55t62 -134q0 -99 -67 -168t-189 -69q-93 0 -156 55.5t-63 134.5q0 99 67 167.5t189 68.5zM465 1632q62 0 96.5 36.5t34.5 82.5q0 43 -30 69.5t-77 26.5q-62 0 -96.5 -36t-34.5 -82q0 -42 30 -69.5t77 -27.5z" />
    <glyph glyph-name="aogonek.alt" horiz-adv-x="1183" 
d="M932 -170l-35 -135q-52 -8 -109 -8q-90 -4 -141 29t-51 94q0 86 113 190h-72l27 111q-68 -65 -128.5 -96t-134.5 -31q-144 0 -239.5 117.5t-95.5 328.5q0 160 54.5 307t151.5 244q145 145 330 145q181 0 275 -161l30 143h307l-272 -1108h-43q-38 -46 -54 -73t-16 -50
q0 -53 103 -47zM549 238q71 0 135 61q61 61 95 157.5t34 200.5q0 100 -47 156.5t-121 56.5q-72 0 -137 -65q-58 -58 -93.5 -153t-35.5 -199q0 -102 43 -158.5t127 -56.5z" />
    <glyph glyph-name="aringacute.alt" horiz-adv-x="1183" 
d="M782 1726l301 289l250 -112l-307 -177h-244zM1051 1458q0 -102 -67.5 -178t-174.5 -76q-92 0 -148.5 55.5t-56.5 139.5q0 102 68.5 179t173.5 77q92 0 148.5 -56.5t56.5 -140.5zM717 1409q0 -48 28 -77t70 -29q55 0 89 45t34 100q0 49 -27 77.5t-69 28.5q-57 0 -91 -44.5
t-34 -100.5zM401 -16q-144 0 -239.5 117.5t-95.5 328.5q0 160 54.5 307t151.5 244q145 145 330 145q181 0 275 -161l30 143h307l-272 -1108h-305l27 111q-68 -65 -128.5 -96t-134.5 -31zM549 238q71 0 135 61q61 61 95 157.5t34 200.5q0 100 -47 156.5t-121 56.5
q-72 0 -137 -65q-58 -58 -93.5 -153t-35.5 -199q0 -102 43 -158.5t127 -56.5z" />
    <glyph glyph-name="aring.alt2" horiz-adv-x="1050" 
d="M514 0l27 115q-117 -133 -265 -133q-130 0 -203 81t-73 209q0 176 113 289q117 117 317 117q125 0 240 -47l4 18q14 61 14 101q0 108 -158 108q-104 0 -239 -59l-68 243q126 59 283 72q-31 42 -31 111q0 98 68.5 171.5t173.5 73.5q93 0 150 -54.5t57 -139.5
q0 -60 -27 -113t-74 -88q164 -71 164 -258q0 -79 -33 -215l-143 -602h-297zM684 1122q57 0 91 44.5t34 99.5q0 49 -27 77.5t-69 28.5q-57 0 -91 -43.5t-34 -101.5q0 -48 27 -76.5t69 -28.5zM412 188q74 0 127.5 61t72.5 144l17 72q-76 31 -140 31q-81 0 -133 -52
q-53 -53 -53 -141q0 -52 29.5 -83.5t79.5 -31.5z" />
    <glyph glyph-name="aringacute.alt2" horiz-adv-x="1050" 
d="M647 1536l301 289l248 -113l-305 -176h-244zM514 0l27 115q-117 -133 -265 -133q-130 0 -203 81t-73 209q0 176 113 289q117 117 317 117q125 0 240 -47l4 18q14 61 14 101q0 108 -158 108q-104 0 -239 -59l-68 243q126 59 283 72q-31 42 -31 111q0 98 68.5 171.5
t173.5 73.5q93 0 150 -54.5t57 -139.5q0 -60 -27 -113t-74 -88q164 -71 164 -258q0 -79 -33 -215l-143 -602h-297zM684 1122q57 0 91 44.5t34 99.5q0 49 -27 77.5t-69 28.5q-57 0 -91 -43.5t-34 -101.5q0 -48 27 -76.5t69 -28.5zM412 188q74 0 127.5 61t72.5 144l17 72
q-76 31 -140 31q-81 0 -133 -52q-53 -53 -53 -141q0 -52 29.5 -83.5t79.5 -31.5z" />
    <glyph glyph-name="i.dot" horiz-adv-x="557" 
d="M-10 0l272 1108h305l-270 -1108h-307zM279 1214l73 279h318l-74 -279h-317z" />
    <glyph glyph-name="aacute.alt" horiz-adv-x="1183" 
d="M649 1208l305 357l250 -115l-307 -242h-248zM401 -16q-144 0 -239.5 117.5t-95.5 328.5q0 160 54.5 307t151.5 244q145 145 330 145q181 0 275 -161l30 143h307l-272 -1108h-305l27 111q-68 -65 -128.5 -96t-134.5 -31zM549 238q71 0 135 61q61 61 95 157.5t34 200.5
q0 100 -47 156.5t-121 56.5q-72 0 -137 -65q-58 -58 -93.5 -153t-35.5 -199q0 -102 43 -158.5t127 -56.5z" />
    <glyph glyph-name="agrave.alt" horiz-adv-x="1183" 
d="M401 -16q-144 0 -239.5 117.5t-95.5 328.5q0 160 54.5 307t151.5 244q145 145 330 145q181 0 275 -161l30 143h307l-272 -1108h-305l27 111q-68 -65 -128.5 -96t-134.5 -31zM549 238q71 0 135 61q61 61 95 157.5t34 200.5q0 100 -47 156.5t-121 56.5q-72 0 -137 -65
q-58 -58 -93.5 -153t-35.5 -199q0 -102 43 -158.5t127 -56.5zM662 1208l-195 242l260 115l143 -357h-208z" />
    <glyph glyph-name="acircumflex.alt" horiz-adv-x="1183" 
d="M389 1210l309 322h291l150 -322h-219l-111 142l-176 -142h-244zM401 -16q-144 0 -239.5 117.5t-95.5 328.5q0 160 54.5 307t151.5 244q145 145 330 145q181 0 275 -161l30 143h307l-272 -1108h-305l27 111q-68 -65 -128.5 -96t-134.5 -31zM549 238q71 0 135 61
q61 61 95 157.5t34 200.5q0 100 -47 156.5t-121 56.5q-72 0 -137 -65q-58 -58 -93.5 -153t-35.5 -199q0 -102 43 -158.5t127 -56.5z" />
    <glyph glyph-name="abreve.alt" horiz-adv-x="1183" 
d="M401 -16q-144 0 -239.5 117.5t-95.5 328.5q0 160 54.5 307t151.5 244q145 145 330 145q181 0 275 -161l30 143h307l-272 -1108h-305l27 111q-68 -65 -128.5 -96t-134.5 -31zM549 238q71 0 135 61q61 61 95 157.5t34 200.5q0 100 -47 156.5t-121 56.5q-72 0 -137 -65
q-58 -58 -93.5 -153t-35.5 -199q0 -102 43 -158.5t127 -56.5zM799 1206q-83 0 -146.5 25t-101 69t-56 99.5t-18.5 120.5h211q5 -50 37 -83.5t84 -33.5q66 0 105.5 29t74.5 88h209q-47 -142 -149 -228t-250 -86z" />
    <glyph glyph-name="atilde.alt" horiz-adv-x="1183" 
d="M401 -16q-144 0 -239.5 117.5t-95.5 328.5q0 160 54.5 307t151.5 244q145 145 330 145q181 0 275 -161l30 143h307l-272 -1108h-305l27 111q-68 -65 -128.5 -96t-134.5 -31zM549 238q71 0 135 61q61 61 95 157.5t34 200.5q0 100 -47 156.5t-121 56.5q-72 0 -137 -65
q-58 -58 -93.5 -153t-35.5 -199q0 -102 43 -158.5t127 -56.5zM1049 1530l161 -55q-56 -132 -117 -199.5t-153 -67.5q-81 0 -166 49q-66 37 -96 37q-38 0 -64.5 -24t-54.5 -74l-162 55q27 65 52 109.5t57 82.5t72.5 56.5t89.5 18.5q72 0 166 -48q59 -36 96 -36q38 0 63.5 23
t55.5 73z" />
    <glyph glyph-name="amacron.alt" horiz-adv-x="1183" 
d="M401 -16q-144 0 -239.5 117.5t-95.5 328.5q0 160 54.5 307t151.5 244q145 145 330 145q181 0 275 -161l30 143h307l-272 -1108h-305l27 111q-68 -65 -128.5 -96t-134.5 -31zM549 238q71 0 135 61q61 61 95 157.5t34 200.5q0 100 -47 156.5t-121 56.5q-72 0 -137 -65
q-58 -58 -93.5 -153t-35.5 -199q0 -102 43 -158.5t127 -56.5zM444 1208l56 209h651l-53 -209h-654z" />
    <glyph glyph-name="adieresis.alt" horiz-adv-x="1183" 
d="M438 1214l68 267h285l-70 -267h-283zM831 1214l70 267h283l-68 -267h-285zM401 -16q-144 0 -239.5 117.5t-95.5 328.5q0 160 54.5 307t151.5 244q145 145 330 145q181 0 275 -161l30 143h307l-272 -1108h-305l27 111q-68 -65 -128.5 -96t-134.5 -31zM549 238q71 0 135 61
q61 61 95 157.5t34 200.5q0 100 -47 156.5t-121 56.5q-72 0 -137 -65q-58 -58 -93.5 -153t-35.5 -199q0 -102 43 -158.5t127 -56.5z" />
    <glyph glyph-name="aring.alt" horiz-adv-x="1183" 
d="M1051 1460q0 -102 -67.5 -178t-174.5 -76q-92 0 -148.5 55.5t-56.5 139.5q0 102 68.5 179t173.5 77q92 0 148.5 -56.5t56.5 -140.5zM717 1411q0 -48 28 -77t70 -29q55 0 89 45t34 100q0 49 -27 77.5t-69 28.5q-57 0 -91 -44.5t-34 -100.5zM401 -16q-144 0 -239.5 117.5
t-95.5 328.5q0 160 54.5 307t151.5 244q145 145 330 145q181 0 275 -161l30 143h307l-272 -1108h-305l27 111q-68 -65 -128.5 -96t-134.5 -31zM549 238q71 0 135 61q61 61 95 157.5t34 200.5q0 100 -47 156.5t-121 56.5q-72 0 -137 -65q-58 -58 -93.5 -153t-35.5 -199
q0 -102 43 -158.5t127 -56.5z" />
    <glyph glyph-name="commaaccent.rot" horiz-adv-x="1024" 
d="M922 1677l-4 -92q-158 -22 -173 -143h123l-57 -228h-268l51 197q34 134 113.5 194.5t214.5 71.5z" />
    <glyph glyph-name="zero.den" 
d="M608 502q0 -120 -39 -234.5t-112 -187.5q-96 -96 -226 -96q-123 0 -197.5 76.5t-74.5 209.5q0 121 39.5 235t112.5 187q93 99 225 99q123 0 197.5 -77.5t74.5 -211.5zM145 279q0 -64 28.5 -96.5t72.5 -32.5q39 0 73 34q49 49 76 145.5t27 166.5q0 64 -28 95.5t-72 31.5
q-41 0 -74 -33q-51 -51 -77 -144.5t-26 -166.5z" />
    <glyph glyph-name="one.den" horiz-adv-x="587" 
d="M74 0l141 582l-149 -58l-15 154l256 100h131l-190 -778h-174z" />
    </font>
</defs>
</svg>
