<?xml version="1.0" standalone="no"?>
<!DOCTYPE svg PUBLIC "-//W3C//DTD SVG 1.1//EN" "http://www.w3.org/Graphics/SVG/1.1/DTD/svg11.dtd" >
<svg xmlns="http://www.w3.org/2000/svg" xmlns:xlink="http://www.w3.org/1999/xlink" version="1.1">
<metadata>
Created by FontForge 20201107 at Wed May 29 09:57:48 2024
 By 
Copyright (C) 2001, 2011 Hoefler &#38; Co. http://www.typography.com |DCNT
</metadata>
<defs>
<font id="GothamCond-Light" horiz-adv-x="491" >
  <font-face 
    font-family="Gotham Cond Light"
    font-weight="300"
    font-stretch="extra-condensed"
    units-per-em="2048"
    panose-1="2 0 0 0 0 0 0 0 0 0"
    ascent="1638"
    descent="-410"
    x-height="1075"
    cap-height="1434"
    bbox="-264 -410 1487 1872"
    underline-thickness="102"
    underline-position="-204"
    unicode-range="U+0020-FB04"
  />
<missing-glyph horiz-adv-x="1024" 
d="M0 -410v2048h1024v-2048h-1024zM145 1536l367 -799l367 799h-734zM102 -156l353 770l-353 770v-1540zM922 1384l-353 -770l353 -770v1540zM512 492l-367 -799h734z" />
    <glyph glyph-name="f_f" unicode="ff" horiz-adv-x="880" 
d="M594 0v995h-111v80h111v125q0 136 63 199q53 53 146 53q42 0 63 -8v-84q-21 8 -61 8q-125 0 -125 -170v-123h176v-80h-176v-995h-86zM152 0v995h-111v80h111v125q0 136 63 199q53 53 145 53q43 0 64 -8v-84q-21 8 -62 8q-124 0 -124 -170v-123h176v-80h-176v-995h-86z
" />
    <glyph glyph-name="fi" unicode="fi" horiz-adv-x="770" 
d="M152 0v995h-111v80h111v125q0 136 63 199q53 53 145 53q43 0 64 -8v-84q-21 8 -62 8q-124 0 -124 -170v-123h176v-80h-176v-995h-86zM563 0v1075h86v-1075h-86zM559 1305v143h94v-143h-94z" />
    <glyph glyph-name="fl" unicode="fl" horiz-adv-x="770" 
d="M152 0v995h-111v80h111v125q0 136 63 199q53 53 145 53q43 0 64 -8v-84q-21 8 -62 8q-124 0 -124 -170v-123h176v-80h-176v-995h-86zM563 0v1448h86v-1448h-86z" />
    <glyph glyph-name="f_f_i" unicode="ffi" horiz-adv-x="1212" 
d="M594 0v995h-111v80h111v125q0 136 63 199q53 53 146 53q42 0 63 -8v-84q-21 8 -61 8q-125 0 -125 -170v-123h176v-80h-176v-995h-86zM152 0v995h-111v80h111v125q0 136 63 199q53 53 145 53q43 0 64 -8v-84q-21 8 -62 8q-124 0 -124 -170v-123h176v-80h-176v-995h-86z
M1006 0v1075h86v-1075h-86zM1001 1305v143h95v-143h-95z" />
    <glyph glyph-name="f_f_l" unicode="ffl" horiz-adv-x="1212" 
d="M594 0v995h-111v80h111v125q0 136 63 199q53 53 146 53q42 0 63 -8v-84q-21 8 -61 8q-125 0 -125 -170v-123h176v-80h-176v-995h-86zM152 0v995h-111v80h111v125q0 136 63 199q53 53 145 53q43 0 64 -8v-84q-21 8 -62 8q-124 0 -124 -170v-123h176v-80h-176v-995h-86z
M1006 0v1448h86v-1448h-86z" />
    <glyph glyph-name=".notdef" horiz-adv-x="1024" 
d="M0 -410v2048h1024v-2048h-1024zM145 1536l367 -799l367 799h-734zM102 -156l353 770l-353 770v-1540zM922 1384l-353 -770l353 -770v1540zM512 492l-367 -799h734z" />
    <glyph glyph-name=".null" horiz-adv-x="0" 
 />
    <glyph glyph-name="nonmarkingreturn" horiz-adv-x="682" 
 />
    <glyph glyph-name="space" unicode=" " horiz-adv-x="323" 
 />
    <glyph glyph-name="exclam" unicode="!" horiz-adv-x="393" 
d="M174 375l-31 915v144h107v-144l-31 -915h-45zM135 0v168h123v-168h-123z" />
    <glyph glyph-name="quotedbl" unicode="&#x22;" horiz-adv-x="452" 
d="M305 938v496h103v-19l-64 -477h-39zM90 938v496h103v-19l-64 -477h-39z" />
    <glyph glyph-name="numbersign" unicode="#" horiz-adv-x="794" 
d="M711 467v-82h-160l-37 -385h-72l37 385h-227l-37 -385h-72l37 385h-135v82h143l48 508h-152v82h160l37 377h71l-37 -377h228l37 377h71l-37 -377h136v-82h-144l-47 -508h152zM307 975l-47 -508h225l50 508h-228z" />
    <glyph glyph-name="dollar" unicode="$" horiz-adv-x="696" 
d="M592 1374v-94q-119 76 -213 84v-586q134 -92 195 -193t61 -231v-6q0 -136 -69 -234.5t-187 -119.5v-197h-70v191q-71 1 -127.5 17t-120.5 52v95q70 -46 126 -64t122 -20v645q-84 51 -137 103t-85 128t-32 172v4q0 122 70.5 209t183.5 109v135h70v-129q104 -3 213 -70z
M549 350v4q0 197 -170 320v-600q85 22 128.5 97.5t41.5 178.5zM141 1120v-4q0 -107 42.5 -175.5t125.5 -125.5v543q-79 -19 -124 -82.5t-44 -155.5z" />
    <glyph glyph-name="percent" unicode="%" horiz-adv-x="1024" 
d="M266 764q-89 0 -150 89t-61 243v16q0 154 61 243t150 89t150 -89t61 -243v-16q0 -154 -61 -243t-150 -89zM266 1366q-61 0 -98 -68.5t-37 -185.5v-16q0 -117 37 -185.5t98 -68.5t98 68.5t37 185.5v16q0 117 -37 185.5t-98 68.5zM481 731l314 703h75l-327 -732l-314 -702
h-75zM758 -10q-89 0 -150 89t-61 243v16q0 154 61 243t150 89t150 -89t61 -243v-16q0 -154 -61 -243t-150 -89zM758 68q61 0 98 68.5t37 185.5v16q0 117 -37 185.5t-98 68.5t-98 -68.5t-37 -185.5v-16q0 -117 37 -185.5t98 -68.5z" />
    <glyph glyph-name="ampersand" unicode="&#x26;" horiz-adv-x="839" 
d="M741 -14l-112 209q-56 -100 -125.5 -154.5t-165.5 -54.5q-126 0 -204.5 102.5t-78.5 243.5v14q0 121 58 240t172 221q-78 134 -110 212.5t-32 151.5v11q0 107 68.5 187.5t173.5 80.5q107 0 169 -77.5t62 -178.5v-12q0 -106 -56 -196.5t-171 -197.5l232 -428
q40 128 65 326l78 -12q-35 -238 -92 -398l141 -247zM350 852q180 157 180 330v6q0 75 -40 129.5t-105 54.5q-70 0 -113 -55t-43 -133v-4q0 -70 25.5 -139.5t95.5 -188.5zM342 68q77 0 134 51t108 149l-262 475q-177 -158 -177 -391v-12q0 -116 55 -194t142 -78z" />
    <glyph glyph-name="quotesingle" unicode="'" horiz-adv-x="237" 
d="M90 938v496h103v-19l-64 -477h-39z" />
    <glyph glyph-name="parenleft" unicode="(" horiz-adv-x="481" 
d="M451 -209v-72q-172 121 -274.5 343.5t-102.5 531.5v2q0 306 102.5 529t274.5 343v-71q-291 -280 -291 -803v-2q0 -528 291 -801z" />
    <glyph glyph-name="parenright" unicode=")" horiz-adv-x="481" 
d="M31 -281v72q291 280 291 803v2q0 521 -291 801v71q172 -121 274.5 -343t102.5 -531v-2q0 -306 -102.5 -529.5t-274.5 -343.5z" />
    <glyph glyph-name="asterisk" unicode="*" horiz-adv-x="569" 
d="M248 885l16 237l-170 -127l-39 64l193 102l-193 103l39 63l170 -127l-16 238h74l-17 -238l170 127l39 -63l-192 -103l192 -102l-39 -64l-170 127l17 -237h-74z" />
    <glyph glyph-name="plus" unicode="+" horiz-adv-x="696" 
d="M307 424v256h-248v82h248v256h82v-256h248v-82h-248v-256h-82z" />
    <glyph glyph-name="comma" unicode="," horiz-adv-x="307" 
d="M66 -211l-25 51q60 26 84 63t20 97h-55v168h127v-145q0 -94 -32.5 -144t-118.5 -90z" />
    <glyph glyph-name="hyphen" unicode="-" horiz-adv-x="548" 
d="M82 565v82h385v-82h-385z" />
    <glyph glyph-name="period" unicode="." horiz-adv-x="307" 
d="M90 0v168h127v-168h-127z" />
    <glyph glyph-name="slash" unicode="/" horiz-adv-x="532" 
d="M-8 -201l446 1774h78l-446 -1774h-78z" />
    <glyph glyph-name="zero" unicode="0" horiz-adv-x="761" 
d="M381 -16q-142 0 -221.5 173.5t-79.5 540.5v33q0 187 21.5 326t61.5 224.5t94.5 127t123.5 41.5q142 0 221.5 -174t79.5 -541v-33q0 -187 -21.5 -326t-61.5 -224t-94.5 -126.5t-123.5 -41.5zM381 66q97 0 154 160.5t57 471.5v33q0 316 -56 476.5t-155 160.5t-155 -159.5
t-56 -473.5v-33q0 -316 56 -476t155 -160z" />
    <glyph glyph-name="one" unicode="1" horiz-adv-x="419" 
d="M197 0v1323l-150 -88v102l158 97h80v-1434h-88z" />
    <glyph glyph-name="two" unicode="2" horiz-adv-x="673" 
d="M51 0v59l346 711q52 109 76.5 188.5t24.5 167.5q0 108 -54 171t-147 63q-102 0 -209 -66v97q98 59 213 59q133 0 211 -85.5t78 -227.5v-9q0 -96 -28 -183.5t-93 -221.5l-307 -635h440v-88h-551z" />
    <glyph glyph-name="three" unicode="3" horiz-adv-x="634" 
d="M229 -16q-108 0 -180 34v88q84 -38 184 -38q103 0 177.5 93t74.5 251v12q0 144 -77.5 217.5t-229.5 87.5v64l283 548h-412v93h520v-60l-295 -575q63 -13 114.5 -39t95 -69t67.5 -110.5t24 -154.5v-14q0 -196 -100.5 -312t-245.5 -116z" />
    <glyph glyph-name="four" unicode="4" horiz-adv-x="702" 
d="M469 0v330h-430v69l436 1045h76v-1036h113v-78h-113v-330h-82zM125 408h344v829z" />
    <glyph glyph-name="five" unicode="5" horiz-adv-x="671" 
d="M250 -16q-92 0 -170 36v89q73 -41 172 -41q109 0 182.5 105.5t73.5 270.5v9q0 166 -63.5 242.5t-161.5 76.5q-66 0 -140 -29l-61 41l29 650h434v-88h-357l-22 -512q67 24 125 24q63 0 117 -23t97.5 -70t68 -126.5t24.5 -183.5v-9q0 -203 -99 -332.5t-249 -129.5z" />
    <glyph glyph-name="six" unicode="6" horiz-adv-x="724" 
d="M371 -16q-91 0 -152 61q-135 135 -135 557v62q0 207 26 360.5t73.5 245.5t110.5 136t142 44q66 0 137 -29v-94q-62 35 -143 35q-67 0 -117.5 -50.5t-79.5 -136t-44 -182t-17 -205.5q103 103 213 103q116 0 196.5 -109t80.5 -323v-8q0 -206 -83.5 -336.5t-207.5 -130.5z
M373 63q91 0 146.5 111.5t55.5 274.5v8q0 171 -57 261.5t-141 90.5q-91 0 -205 -111v-112q0 -147 17 -253.5t47 -163t63.5 -81.5t73.5 -25z" />
    <glyph glyph-name="seven" unicode="7" horiz-adv-x="630" 
d="M139 0l332 1346h-405v88h493v-78l-332 -1356h-88z" />
    <glyph glyph-name="eight" unicode="8" horiz-adv-x="671" 
d="M336 -16q-127 0 -205 106t-78 275v14q0 125 50.5 222t136.5 138q-75 44 -118.5 132t-43.5 208v13q0 166 74.5 262t183.5 96t183.5 -96t74.5 -262v-13q0 -120 -43.5 -208t-118.5 -132q86 -41 136 -138t50 -222v-14q0 -170 -77.5 -275.5t-204.5 -105.5zM336 778
q74 0 122 90.5t48 212.5v9q0 128 -46 204t-124 76t-124 -76t-46 -204v-9q0 -122 48 -212.5t122 -90.5zM336 63q88 0 142 87.5t54 218.5v6q0 138 -57 230.5t-139 92.5q-83 0 -140 -92.5t-57 -230.5v-6q0 -131 54.5 -218.5t142.5 -87.5z" />
    <glyph glyph-name="nine" unicode="9" horiz-adv-x="724" 
d="M295 72q67 0 117 48.5t79 131t43.5 176t16.5 199.5q-104 -101 -211 -101q-118 0 -197.5 110.5t-79.5 330.5v8q0 212 83.5 343.5t207.5 131.5q91 0 152 -61q135 -135 135 -558v-61q0 -207 -26 -360.5t-73.5 -245.5t-110.5 -136t-142 -44q-81 0 -158 34v95q77 -41 164 -41z
M348 608q91 0 205 111v131q0 147 -17 253t-47 162t-63.5 80.5t-73.5 24.5q-93 0 -147.5 -112t-54.5 -281v-8q0 -180 56.5 -270.5t141.5 -90.5z" />
    <glyph glyph-name="colon" unicode=":" horiz-adv-x="327" 
d="M100 907v168h127v-168h-127zM100 0v168h127v-168h-127z" />
    <glyph glyph-name="semicolon" unicode=";" horiz-adv-x="327" 
d="M100 907v168h127v-168h-127zM76 -211l-25 51q60 26 84.5 63t20.5 97h-56v168h127v-145q0 -94 -32.5 -144t-118.5 -90z" />
    <glyph glyph-name="less" unicode="&#x3c;" horiz-adv-x="696" 
d="M590 371l-508 309v82l508 309v-102l-418 -248l418 -248v-102z" />
    <glyph glyph-name="equal" unicode="=" horiz-adv-x="696" 
d="M70 821v84h557v-84h-557zM70 537v84h557v-84h-557z" />
    <glyph glyph-name="greater" unicode="&#x3e;" horiz-adv-x="696" 
d="M106 371v102l418 248l-418 248v102l508 -309v-82z" />
    <glyph glyph-name="question" unicode="?" horiz-adv-x="620" 
d="M221 375l-16 354l10 14q125 48 192.5 129t67.5 215v9q0 118 -67 190t-164 72q-88 0 -195 -58v89q94 53 201 53q134 0 224.5 -96t90.5 -242v-12q0 -272 -270 -404l-19 -313h-55zM195 0v168h122v-168h-122z" />
    <glyph glyph-name="at" unicode="@" horiz-adv-x="1298" 
d="M612 -272q-115 0 -212.5 45t-171 131t-115 222.5t-41.5 309.5q0 159 28 308.5t84 277.5t134 223.5t183.5 150t225.5 54.5q156 0 271 -87.5t172 -232.5t57 -327q0 -168 -38.5 -316.5t-111 -242.5t-162.5 -94q-83 0 -121 61t-26 160q-106 -228 -248 -228q-73 0 -122.5 71
t-49.5 185q0 165 47 313.5t124.5 238t162.5 89.5q138 0 166 -202l33 168l80 -17l-103 -526q-12 -65 -12 -137q0 -49 18.5 -81t57.5 -32q71 0 129.5 94t88 227t29.5 265q0 124 -28 231.5t-82 189.5t-139 129.5t-193 47.5q-115 0 -214 -56t-169 -150t-120.5 -217t-74.5 -258
t-24 -272q0 -322 134 -492.5t353 -170.5q94 0 163 22t147 70l28 -45q-89 -54 -161.5 -77t-176.5 -23zM541 223q48 0 104 56q69 69 120.5 193.5t51.5 264.5q0 98 -36.5 161t-92.5 63q-50 0 -98 -48q-75 -75 -116.5 -217.5t-41.5 -292.5q0 -86 29.5 -133t79.5 -47z" />
    <glyph glyph-name="A" unicode="A" horiz-adv-x="839" 
d="M57 0l314 1440h98l313 -1440h-94l-84 401h-373l-84 -401h-90zM248 483h340l-170 815z" />
    <glyph glyph-name="B" unicode="B" horiz-adv-x="763" 
d="M115 0v1434h184q178 0 287 -109q96 -96 96 -250v-4q0 -147 -72.5 -231t-189.5 -115q133 -30 206.5 -118t73.5 -232v-4q0 -175 -118.5 -273t-321.5 -98h-145zM592 1067v4q0 130 -80.5 205.5t-216.5 75.5h-90v-588h63q158 0 241 80t83 223zM610 373v4q0 147 -87 226
t-247 79h-71v-600h57q164 0 256 75t92 216z" />
    <glyph glyph-name="C" unicode="C" horiz-adv-x="673" 
d="M455 -12q-166 0 -272.5 183t-106.5 527v37q0 174 31 311.5t84 223.5t121.5 131t146.5 45q74 0 139 -35v-96q-80 45 -139 45q-125 0 -209 -165t-84 -460v-37q0 -295 84 -459.5t209 -164.5q71 0 145 47v-92q-67 -41 -149 -41z" />
    <glyph glyph-name="D" unicode="D" horiz-adv-x="819" 
d="M115 0v1434h170q207 0 332.5 -182t125.5 -517v-37q0 -335 -125.5 -516.5t-332.5 -181.5h-170zM283 1352h-78v-1270h82q166 0 266 159t100 457v37q0 296 -102.5 456.5t-267.5 160.5z" />
    <glyph glyph-name="E" unicode="E" horiz-adv-x="665" 
d="M115 0v1434h487v-82h-397v-588h362v-82h-362v-600h403v-82h-493z" />
    <glyph glyph-name="F" unicode="F" horiz-adv-x="626" 
d="M115 0v1434h469v-82h-379v-609h344v-81h-344v-662h-90z" />
    <glyph glyph-name="G" unicode="G" horiz-adv-x="804" 
d="M506 -14q-187 0 -308.5 185.5t-121.5 526.5v37q0 173 35.5 311t96 224t138 131t164.5 45q100 0 174 -45v-98q-86 57 -176 57q-67 0 -128 -40t-109 -115.5t-76.5 -197t-28.5 -272.5v-37q0 -303 96.5 -466.5t249.5 -163.5q53 0 98 18v565h-213v82h299v-698q-55 -29 -95 -39
t-95 -10z" />
    <glyph glyph-name="H" unicode="H" horiz-adv-x="851" 
d="M115 0v1434h90v-672h442v672h90v-1434h-90v680h-442v-680h-90z" />
    <glyph glyph-name="I" unicode="I" horiz-adv-x="348" 
d="M129 0v1434h90v-1434h-90z" />
    <glyph glyph-name="J" unicode="J" horiz-adv-x="483" 
d="M143 -10q-49 0 -102 16v84q53 -16 98 -16q69 0 108.5 42.5t39.5 127.5v1190h90v-1192q0 -121 -70 -191q-61 -61 -164 -61z" />
    <glyph glyph-name="K" unicode="K" horiz-adv-x="757" 
d="M115 0v1434h90v-813l397 813h103l-330 -648l370 -786h-98l-323 688l-119 -233v-455h-90z" />
    <glyph glyph-name="L" unicode="L" horiz-adv-x="581" 
d="M115 0v1434h90v-1352h360v-82h-450z" />
    <glyph glyph-name="M" unicode="M" horiz-adv-x="978" 
d="M115 0v1434h110l264 -801l267 801h108v-1434h-86v1235l-284 -834h-9l-284 834v-1235h-86z" />
    <glyph glyph-name="N" unicode="N" horiz-adv-x="860" 
d="M115 0v1434h98l446 -1205v1205h86v-1434h-88l-456 1233v-1233h-86z" />
    <glyph glyph-name="O" unicode="O" horiz-adv-x="831" 
d="M416 -16q-152 0 -246 185.5t-94 530.5v33q0 345 94 531t246 186t246 -186t94 -531v-33q0 -345 -94 -530.5t-246 -185.5zM416 66q110 0 180 165t70 469v33q0 304 -70 469.5t-180 165.5t-180 -165.5t-70 -469.5v-33q0 -304 70 -469t180 -165z" />
    <glyph glyph-name="P" unicode="P" horiz-adv-x="745" 
d="M115 0v1434h178q190 0 301 -121.5t111 -325.5v-4q0 -208 -110.5 -331.5t-309.5 -123.5h-80v-528h-90zM205 608h88q155 0 238 97.5t83 275.5v4q0 175 -87 271t-238 96h-84v-744z" />
    <glyph glyph-name="Q" unicode="Q" horiz-adv-x="831" 
d="M776 12l-63 -53l-105 133q-82 -108 -192 -108q-152 0 -246 185.5t-94 530.5v33q0 345 94 531t246 186t246 -186t94 -531v-33q0 -335 -105 -540zM416 66q84 0 145 88l-149 174l63 53l123 -156q68 168 68 475v33q0 304 -70 469.5t-180 165.5t-180 -165.5t-70 -469.5v-33
q0 -304 70 -469t180 -165z" />
    <glyph glyph-name="R" unicode="R" horiz-adv-x="784" 
d="M115 0v1434h178q188 0 299 -111q113 -113 113 -311v-4q0 -148 -65 -252.5t-183 -149.5l274 -606h-106l-260 584q-38 -6 -80 -6h-80v-578h-90zM205 657h88q149 0 235 91.5t86 257.5v4q0 169 -86.5 255.5t-238.5 86.5h-84v-695z" />
    <glyph glyph-name="S" unicode="S" horiz-adv-x="681" 
d="M317 -16q-112 0 -247 75v103q145 -92 249 -92q93 0 146 55t53 151v5q0 88 -39 166t-162 241q-148 198 -192.5 283.5t-44.5 181.5v4q0 127 81 210t199 83q106 0 218 -64v-102q-118 80 -220 80q-85 0 -136.5 -55t-51.5 -146v-4q0 -80 40 -154.5t163 -232.5
q134 -169 184.5 -270.5t50.5 -214.5v-4q0 -133 -83 -216t-208 -83z" />
    <glyph glyph-name="T" unicode="T" horiz-adv-x="606" 
d="M258 0v1352h-233v82h557v-82h-234v-1352h-90z" />
    <glyph glyph-name="U" unicode="U" horiz-adv-x="833" 
d="M416 -18q-143 0 -226.5 104t-83.5 283v1065h91v-1067q0 -147 57.5 -225.5t161.5 -78.5t162.5 79t58.5 225v1067h90v-1065q0 -179 -84 -283t-227 -104z" />
    <glyph glyph-name="V" unicode="V" horiz-adv-x="802" 
d="M356 -10l-299 1444h95l251 -1274l252 1274h90l-299 -1444h-90z" />
    <glyph glyph-name="W" unicode="W" horiz-adv-x="1251" 
d="M309 -10l-248 1444h97l194 -1252l234 1252h84l231 -1252l197 1252h92l-248 -1444h-84l-231 1251l-234 -1251h-84z" />
    <glyph glyph-name="X" unicode="X" horiz-adv-x="731" 
d="M567 1434h90l-239 -670l272 -764h-92l-236 666l-231 -666h-90l270 756l-243 678h92l202 -580z" />
    <glyph glyph-name="Y" unicode="Y" horiz-adv-x="720" 
d="M315 0v618l-299 816h99l247 -703l250 703h93l-299 -816v-618h-91z" />
    <glyph glyph-name="Z" unicode="Z" horiz-adv-x="688" 
d="M61 0v53l476 1303h-453v78h547v-54l-475 -1302h475v-78h-570z" />
    <glyph glyph-name="bracketleft" unicode="[" horiz-adv-x="518" 
d="M160 -266v1700h284v-68h-198v-1565h198v-67h-284z" />
    <glyph glyph-name="backslash" unicode="\" horiz-adv-x="532" 
d="M463 -201l-447 1774h78l447 -1774h-78z" />
    <glyph glyph-name="bracketright" unicode="]" horiz-adv-x="518" 
d="M74 -266v67h198v1565h-198v68h284v-1700h-284z" />
    <glyph glyph-name="asciicircum" unicode="^" horiz-adv-x="614" 
d="M129 1092l143 313h70l143 -313h-82l-98 213l-98 -213h-78z" />
    <glyph glyph-name="underscore" unicode="_" horiz-adv-x="925" 
d="M-4 -324v72h934v-72h-934z" />
    <glyph glyph-name="grave" unicode="`" horiz-adv-x="1024" 
d="M571 1180l-168 204l97 52l131 -256h-60z" />
    <glyph glyph-name="a" unicode="a" horiz-adv-x="706" 
d="M303 -18q-108 0 -177 94t-69 237v17q0 153 75.5 248.5t207.5 95.5q93 0 180 -41v135q0 115 -51.5 176.5t-153.5 61.5q-108 0 -198 -50v84q89 47 202 47q132 0 209 -77q78 -78 78 -232v-778h-86v156q-71 -174 -217 -174zM315 57q90 0 147.5 84t57.5 195v215
q-91 43 -176 43q-97 0 -149 -71.5t-52 -188.5v-17q0 -114 45 -187t127 -73z" />
    <glyph glyph-name="b" unicode="b" horiz-adv-x="770" 
d="M420 -16q-77 0 -133.5 61t-91.5 162v-207h-86v1448h86v-580q35 101 91.5 162.5t133.5 61.5q117 0 198.5 -143.5t81.5 -391.5v-39q0 -246 -82 -390t-198 -144zM410 59q88 0 146 122.5t58 338.5v35q0 216 -58 338.5t-146 122.5q-86 0 -153 -124t-67 -329v-51
q0 -205 67 -329t153 -124z" />
    <glyph glyph-name="c" unicode="c" horiz-adv-x="575" 
d="M393 -14q-65 0 -122.5 32t-104 95.5t-73.5 169t-27 241.5v21q0 262 96 403.5t231 141.5q79 0 129 -37v-95q-63 50 -131 50q-43 0 -84.5 -27.5t-76.5 -81.5t-56.5 -144.5t-21.5 -205.5v-29q0 -225 72 -338.5t175 -113.5q65 0 123 49v-90q-57 -41 -129 -41z" />
    <glyph glyph-name="d" unicode="d" horiz-adv-x="770" 
d="M350 -16q-117 0 -198.5 143t-81.5 391v39q0 246 82 390.5t198 144.5q77 0 133.5 -61.5t91.5 -162.5v580h87v-1448h-87v207q-35 -101 -91.5 -162t-133.5 -61zM360 59q86 0 153 124t67 329v51q0 205 -67 329t-153 124q-88 0 -146 -122.5t-58 -338.5v-35q0 -216 58 -338.5
t146 -122.5z" />
    <glyph glyph-name="e" unicode="e" horiz-adv-x="712" 
d="M408 -14q-144 0 -243 139t-99 393v19q0 266 84 410.5t210 144.5q125 0 203 -140t78 -387v-63h-489q4 -212 78 -323t190 -111q50 0 91 14t95 49l10 -88q-58 -33 -102 -45t-106 -12zM152 578h405q0 187 -55.5 310.5t-141.5 123.5q-89 0 -145.5 -112t-62.5 -322z" />
    <glyph glyph-name="f" unicode="f" horiz-adv-x="438" 
d="M152 0v995h-111v80h111v125q0 136 63 199q53 53 145 53q43 0 64 -8v-84q-21 8 -62 8q-124 0 -124 -170v-123h176v-80h-176v-995h-86z" />
    <glyph glyph-name="g" unicode="g" horiz-adv-x="770" 
d="M350 -270q-117 0 -235 43v88q132 -51 239 -51q221 0 221 217v254q-35 -101 -91.5 -162.5t-133.5 -61.5q-114 0 -197 136t-83 372v19q0 233 83 370.5t197 137.5q77 0 133.5 -61.5t91.5 -162.5v207h87v-1044q0 -145 -76 -221q-80 -80 -236 -80zM360 133q85 0 152.5 119
t67.5 313v19q0 194 -67.5 313t-152.5 119q-84 0 -144 -117t-60 -317v-15q0 -200 60 -317t144 -117z" />
    <glyph glyph-name="h" unicode="h" horiz-adv-x="761" 
d="M109 0v1448h86v-530q75 174 221 174q113 0 179.5 -88.5t66.5 -251.5v-752h-87v743q0 135 -45 205t-131 70q-87 0 -145.5 -81t-58.5 -210v-727h-86z" />
    <glyph glyph-name="i" unicode="i" horiz-adv-x="327" 
d="M117 1305v143h94v-143h-94zM121 0v1075h86v-1075h-86z" />
    <glyph glyph-name="j" unicode="j" horiz-adv-x="327" 
d="M117 1305v143h94v-143h-94zM4 -270q-32 0 -59 10v80q24 -8 51 -8q73 0 99 48t26 142v1073h86v-1104q0 -48 -10 -88.5t-32 -76t-63 -56t-98 -20.5z" />
    <glyph glyph-name="k" unicode="k" horiz-adv-x="663" 
d="M109 0v1448h86v-969l309 596h96l-240 -432l263 -643h-95l-219 553l-114 -207v-346h-86z" />
    <glyph glyph-name="l" unicode="l" horiz-adv-x="327" 
d="M121 0v1448h86v-1448h-86z" />
    <glyph glyph-name="m" unicode="m" horiz-adv-x="1204" 
d="M109 0v1075h86v-157q75 174 215 174q151 0 211 -183q81 183 237 183q113 0 179.5 -87t66.5 -249v-756h-86v748q0 133 -44.5 201.5t-125.5 68.5q-86 0 -142.5 -79t-56.5 -208v-731h-86v748q0 133 -44.5 201.5t-125.5 68.5q-86 0 -142 -79t-56 -208v-731h-86z" />
    <glyph glyph-name="n" unicode="n" horiz-adv-x="761" 
d="M109 0v1075h86v-157q75 174 221 174q113 0 179.5 -88.5t66.5 -251.5v-752h-87v743q0 135 -45 205t-131 70q-87 0 -145.5 -81t-58.5 -210v-727h-86z" />
    <glyph glyph-name="o" unicode="o" horiz-adv-x="741" 
d="M371 -16q-127 0 -216 149.5t-89 394.5v19q0 244 90.5 394.5t216.5 150.5t214.5 -150.5t88.5 -394.5v-19q0 -245 -89 -394.5t-216 -149.5zM371 63q93 0 156 128t63 337v19q0 209 -63 337t-156 128t-156 -128t-63 -337v-19q0 -209 63 -337t156 -128z" />
    <glyph glyph-name="p" unicode="p" horiz-adv-x="770" 
d="M109 -266v1341h86v-207q35 101 91.5 162.5t133.5 61.5q117 0 198.5 -143.5t81.5 -391.5v-39q0 -246 -82 -390t-198 -144q-77 0 -133.5 61t-91.5 162v-473h-86zM410 59q88 0 146 122.5t58 338.5v35q0 216 -58 338.5t-146 122.5q-86 0 -153 -124t-67 -329v-51
q0 -205 67 -329t153 -124z" />
    <glyph glyph-name="q" unicode="q" horiz-adv-x="770" 
d="M575 -266v473q-35 -101 -91.5 -162t-133.5 -61q-117 0 -198.5 143t-81.5 391v39q0 246 82 390.5t198 144.5q77 0 133.5 -61.5t91.5 -162.5v207h87v-1341h-87zM360 59q86 0 153 124t67 329v51q0 205 -67 329t-153 124q-88 0 -146 -122.5t-58 -338.5v-35q0 -216 58 -338.5
t146 -122.5z" />
    <glyph glyph-name="r" unicode="r" horiz-adv-x="479" 
d="M109 0v1075h86v-157q34 80 97 127.5t154 41.5v-92h-4q-109 0 -178 -69.5t-69 -204.5v-721h-86z" />
    <glyph glyph-name="s" unicode="s" horiz-adv-x="571" 
d="M266 -12q-104 0 -215 51v90q116 -61 219 -61q70 0 117 43t47 116v4q0 58 -38.5 120.5t-131.5 152.5q-122 117 -166.5 188.5t-44.5 155.5v4q0 108 72.5 171.5t171.5 63.5q100 0 178 -34v-90q-86 45 -182 45q-68 0 -111 -41t-43 -111v-4q0 -57 36.5 -113.5t133.5 -150.5
q116 -111 163.5 -189.5t47.5 -162.5v-5q0 -111 -75 -177t-179 -66z" />
    <glyph glyph-name="t" unicode="t" horiz-adv-x="460" 
d="M332 -8q-93 0 -142 44t-49 144v815h-102v80h102v303h86v-303h174v-80h-174v-802q0 -68 27.5 -93.5t85.5 -25.5q39 0 66 10v-80q-34 -12 -74 -12z" />
    <glyph glyph-name="u" unicode="u" horiz-adv-x="761" 
d="M346 -16q-113 0 -179.5 88.5t-66.5 251.5v751h86v-743q0 -135 45 -205t131 -70q88 0 146.5 81t58.5 210v727h86v-1075h-86v158q-75 -174 -221 -174z" />
    <glyph glyph-name="v" unicode="v" horiz-adv-x="712" 
d="M319 -6l-264 1081h88l213 -930l217 930h84l-264 -1081h-74z" />
    <glyph glyph-name="w" unicode="w" horiz-adv-x="1091" 
d="M289 -6l-223 1081h90l172 -932l182 932h78l178 -932l176 932h84l-223 -1081h-78l-180 905l-178 -905h-78z" />
    <glyph glyph-name="x" unicode="x" horiz-adv-x="679" 
d="M158 1075l182 -442l182 442h90l-223 -516l242 -559h-92l-201 481l-199 -481h-90l240 555l-223 520h92z" />
    <glyph glyph-name="y" unicode="y" horiz-adv-x="708" 
d="M354 158l213 917h86l-325 -1341h-82v2l67 274l-260 1065h88z" />
    <glyph glyph-name="z" unicode="z" horiz-adv-x="593" 
d="M53 0v51l391 948h-370v76h465v-51l-392 -948h381v-76h-475z" />
    <glyph glyph-name="braceleft" unicode="{" horiz-adv-x="544" 
d="M500 -215v-64q-153 7 -223 78t-70 185q0 63 41 184.5t41 196.5q0 77 -57 136.5t-175 59.5h-18v62h18q117 0 174.5 61.5t57.5 136.5q0 74 -41 198t-41 204q0 44 16 84t49 75t92 57.5t136 26.5v-63q-101 -4 -154 -55.5t-53 -133.5q0 -70 41 -188.5t41 -187.5q0 -39 -10 -77
t-31.5 -73.5t-61 -61.5t-92.5 -34q70 -13 115.5 -53t62.5 -88t17 -103q0 -70 -41 -189t-41 -188q0 -81 53 -131.5t154 -54.5z" />
    <glyph glyph-name="bar" unicode="|" horiz-adv-x="442" 
d="M184 -201v1774h74v-1774h-74z" />
    <glyph glyph-name="braceright" unicode="}" horiz-adv-x="544" 
d="M45 -279v64q101 4 154 55t53 133q0 70 -41 188.5t-41 188.5q0 55 17 103.5t63 89t115 53.5q-70 13 -115.5 53t-62.5 88t-17 103q0 69 41 188.5t41 188.5q0 81 -53 131.5t-154 54.5v63q153 -7 223 -77.5t70 -184.5q0 -64 -41 -185t-41 -196q0 -35 12.5 -68t38 -62.5
t72.5 -47.5t108 -18h19v-62h-19q-61 0 -108 -18.5t-72.5 -49t-38 -63.5t-12.5 -67q0 -72 41 -197.5t41 -204.5q0 -44 -16 -84t-49 -75.5t-92 -58t-136 -26.5z" />
    <glyph glyph-name="asciitilde" unicode="~" horiz-adv-x="602" 
d="M391 512q-30 0 -49 11t-53 42q-47 47 -70 47q-33 0 -57 -92l-62 17q38 153 111 153q30 0 49 -11t53 -42q47 -47 70 -47q33 0 57 92l62 -16q-38 -154 -111 -154z" />
    <glyph glyph-name="uni00A0" unicode="&#xa0;" horiz-adv-x="0" 
 />
    <glyph glyph-name="exclamdown" unicode="&#xa1;" horiz-adv-x="393" 
d="M135 1266v168h123v-168h-123zM143 0v143l31 916h45l31 -916v-143h-107z" />
    <glyph glyph-name="cent" unicode="&#xa2;" horiz-adv-x="593" 
d="M383 1440v-170q81 -3 145 -45v-88q-69 41 -145 49v-940q79 3 145 51v-86q-64 -42 -145 -45v-176h-70v180q-241 51 -241 535v20q0 247 63.5 380t177.5 159v176h70zM158 729v-29q0 -387 155 -444v920q-155 -59 -155 -447z" />
    <glyph glyph-name="sterling" unicode="&#xa3;" horiz-adv-x="659" 
d="M66 0v43l102 37v590h-111v75h111v353q0 176 96 272q78 78 195 78q70 0 121 -23v-86q-60 27 -117 27q-84 0 -139 -55q-68 -68 -68 -215v-351h262v-75h-262v-590h379v-80h-569z" />
    <glyph glyph-name="yen" unicode="&#xa5;" horiz-adv-x="700" 
d="M109 563v72h184l-283 799h99l243 -725l244 725h94l-284 -799h186v-72h-199v-203h199v-71h-199v-289h-86v289h-198v71h198v203h-198z" />
    <glyph glyph-name="section" unicode="&#xa7;" horiz-adv-x="737" 
d="M459 430q69 -51 97 -98t28 -113v-6q0 -98 -71 -162.5t-185 -64.5q-97 0 -172 34v91q86 -45 178 -45q73 0 118.5 41t45.5 104v6q0 63 -44.5 109.5t-162.5 115.5q-140 80 -193 143t-53 144v4q0 170 234 271q-69 51 -97 97.5t-28 112.5v7q0 98 71 162.5t185 64.5
q95 0 172 -35v-90q-86 45 -179 45q-73 0 -118 -40.5t-45 -104.5v-6q0 -64 44.5 -110.5t161.5 -115.5q142 -84 194 -144.5t52 -141.5v-5q0 -166 -233 -270zM328 516l65 -41q213 86 213 221v4q0 56 -43 103.5t-153 114.5l-66 40q-213 -86 -213 -221v-4q0 -57 43.5 -104.5
t153.5 -112.5z" />
    <glyph glyph-name="dieresis" unicode="&#xa8;" horiz-adv-x="1024" 
d="M567 1200v137h95v-137h-95zM362 1200v137h95v-137h-95z" />
    <glyph glyph-name="copyright" unicode="&#xa9;" horiz-adv-x="1071" 
d="M535 -20q-145 0 -257 95.5t-170.5 254.5t-58.5 352v72q0 194 58.5 353t170.5 254t257 95q144 0 256 -95t171.5 -254t59.5 -353v-72q0 -193 -59.5 -352t-171.5 -254.5t-256 -95.5zM535 31q132 0 232 90t151 236.5t51 324.5v72q0 178 -51 324.5t-151 236.5t-232 90
q-131 0 -231 -90t-151 -236.5t-51 -324.5v-72q0 -178 51 -324.5t151 -236.5t231 -90zM553 311q-94 0 -154.5 101t-60.5 295v22q0 193 62 293t159 100q46 0 88 -22v-78q-53 29 -84 29q-65 0 -108 -81t-43 -237v-33q0 -156 42.5 -236.5t108.5 -80.5q39 0 86 31v-76
q-47 -27 -96 -27z" />
    <glyph glyph-name="ordfeminine" unicode="&#xaa;" horiz-adv-x="512" 
d="M223 825q-58 0 -96.5 51t-38.5 132v12q0 87 41 137.5t113 50.5q49 0 88 -20v63q0 56 -27 87.5t-74 31.5q-48 0 -108 -29v68q56 29 115 29q89 0 129 -58q34 -46 34 -123v-421h-69v69q-41 -80 -107 -80zM88 659v58h338v-58h-338zM233 887q41 0 69 42.5t28 102.5v96
q-48 19 -82 19q-45 0 -68.5 -34t-23.5 -91v-10q0 -125 77 -125z" />
    <glyph glyph-name="guillemotleft" unicode="&#xab;" horiz-adv-x="694" 
d="M563 88l-248 426v16l248 426l62 -32l-217 -400l217 -403zM313 88l-247 426v16l247 426l62 -32l-217 -400l217 -403z" />
    <glyph glyph-name="registered" unicode="&#xae;" horiz-adv-x="638" 
d="M319 764q100 0 161 90.5t61 224.5v37q0 134 -61 225t-161 91t-160.5 -91t-60.5 -225v-37q0 -134 60.5 -224.5t160.5 -90.5zM319 727q-114 0 -187 100.5t-73 251.5v37q0 151 73 251.5t187 100.5t187.5 -100.5t73.5 -251.5v-37q0 -151 -73.5 -251.5t-187.5 -100.5zM233 909
v391h74q57 0 89 -32t32 -86v-2q0 -81 -61 -109l73 -162h-49l-67 150q-14 -2 -25 -2h-20v-148h-46zM279 1098h28q36 0 57 21t21 61v2q0 35 -21.5 55.5t-56.5 19.5h-28v-159z" />
    <glyph glyph-name="macron" unicode="&#xaf;" horiz-adv-x="1024" 
d="M328 1204v80h368v-80h-368z" />
    <glyph glyph-name="degree" unicode="&#xb0;" horiz-adv-x="507" 
d="M254 823q-89 0 -146 81.5t-57 223.5v17q0 142 57 223.5t146 81.5t146 -81.5t57 -223.5v-17q0 -142 -57 -223.5t-146 -81.5zM254 895q60 0 94.5 62t34.5 171v17q0 109 -34.5 171t-94.5 62t-94.5 -62t-34.5 -171v-17q0 -109 34.5 -171t94.5 -62z" />
    <glyph glyph-name="plusminus" unicode="&#xb1;" horiz-adv-x="696" 
d="M637 680h-248v-256h-82v256h-248v82h248v256h82v-256h248v-82zM637 199h-578v84h578v-84z" />
    <glyph glyph-name="two.sup" unicode="&#xb2;" 
d="M49 954v45l234 330q67 98 67 166q0 51 -32.5 79t-79.5 28q-83 0 -164 -89v84q74 74 170 74q77 0 128.5 -47t51.5 -127q0 -55 -20 -100t-62 -103l-188 -270h278v-70h-383z" />
    <glyph glyph-name="three.sup" unicode="&#xb3;" 
d="M207 946q-84 0 -144 49v80q61 -61 148 -61q60 0 100.5 34t40.5 103t-50.5 104t-158.5 39h-2v49l187 250h-265v70h359v-51l-195 -258q92 -13 145.5 -62.5t53.5 -138.5q0 -96 -62 -151.5t-157 -55.5z" />
    <glyph glyph-name="acute" unicode="&#xb4;" horiz-adv-x="1024" 
d="M393 1180l131 256l97 -52l-168 -204h-60z" />
    <glyph glyph-name="mu" unicode="&#xb5;" horiz-adv-x="817" 
d="M801 80v-76q-35 -12 -68 -12q-66 0 -104.5 33.5t-48.5 115.5q-31 -83 -79 -120t-116 -37q-140 0 -199 168h-2l4 -68q1 -13 3 -42t3 -54t1 -47v-207h-86v1341h86v-729q0 -132 54.5 -207.5t135.5 -75.5q84 0 137 75t53 206v731h87v-868q0 -78 20.5 -106.5t67.5 -28.5
q20 0 51 8z" />
    <glyph glyph-name="paragraph" unicode="&#xb6;" horiz-adv-x="665" 
d="M461 0v528h-2q-198 0 -308 123.5t-110 331.5v4q0 204 111 325.5t301 121.5h98v-1434h-90z" />
    <glyph glyph-name="periodcentered" unicode="&#xb7;" horiz-adv-x="311" 
d="M90 522v174h131v-174h-131z" />
    <glyph glyph-name="cedilla" unicode="&#xb8;" horiz-adv-x="1024" 
d="M479 -225l-94 39l121 206h63z" />
    <glyph glyph-name="one.sup" unicode="&#xb9;" horiz-adv-x="399" 
d="M254 954h-72v623l-137 -76v74l143 88h66v-709z" />
    <glyph glyph-name="ordmasculine" unicode="&#xba;" horiz-adv-x="512" 
d="M256 825q-79 0 -125.5 81.5t-46.5 215.5v21q0 134 46.5 215.5t125.5 81.5t125.5 -81.5t46.5 -215.5v-21q0 -134 -46.5 -215.5t-125.5 -81.5zM96 659v58h324v-58h-324zM256 891q51 0 76.5 66t25.5 165v21q0 99 -25.5 165t-76.5 66q-53 0 -77.5 -65t-24.5 -166v-21
q0 -101 24.5 -166t77.5 -65z" />
    <glyph glyph-name="guillemotright" unicode="&#xbb;" horiz-adv-x="694" 
d="M381 88l-62 33l218 399l-218 404l62 32l248 -426v-16zM131 88l-61 33l217 399l-217 404l61 32l248 -426v-16z" />
    <glyph glyph-name="onequarter" unicode="&#xbc;" horiz-adv-x="1013" 
d="M260 725h-72v623l-137 -76v74l144 88h65v-709zM168 0l297 733l283 703h71l-297 -734l-284 -702h-70zM885 147v-147h-66v147h-276v52l260 514h82v-504h71v-62h-71zM819 209v389h-8l-193 -389h201z" />
    <glyph glyph-name="onehalf" unicode="&#xbd;" horiz-adv-x="1013" 
d="M561 0v45l234 330q67 98 67 166q0 51 -32.5 78.5t-79.5 27.5q-84 0 -164 -88v84q74 74 170 74q77 0 128.5 -47t51.5 -127q0 -55 -20 -100t-62 -103l-188 -270h278v-70h-383zM109 0l297 733l282 703h72l-297 -734l-285 -702h-69zM260 725h-72v623l-137 -76v74l144 88h65
v-709z" />
    <glyph glyph-name="threequarters" unicode="&#xbe;" horiz-adv-x="1105" 
d="M985 147v-147h-65v147h-277v52l260 514h82v-504h72v-62h-72zM920 209v389h-9l-192 -389h201zM266 0l297 733l283 703h72l-297 -734l-285 -702h-70zM209 717q-83 0 -143 49v80q62 -62 147 -62q59 0 100 34.5t41 103.5t-50.5 104t-158.5 39h-2v49l187 250h-264v70h358v-52
l-195 -258q92 -13 145.5 -62t53.5 -138q0 -96 -62 -151.5t-157 -55.5z" />
    <glyph glyph-name="questiondown" unicode="&#xbf;" horiz-adv-x="620" 
d="M303 1266v168h123v-168h-123zM371 -8q-134 0 -225 96.5t-91 241.5v12q0 270 271 403l18 314h55l17 -354l-10 -15q-126 -48 -193.5 -129t-67.5 -215v-8q0 -120 67 -191t165 -71q89 0 194 57v-88q-94 -53 -200 -53z" />
    <glyph glyph-name="Agrave" unicode="&#xc0;" horiz-adv-x="839" 
d="M57 0l314 1440h98l313 -1440h-94l-84 401h-373l-84 -401h-90zM248 483h340l-170 815zM459 1526h-66l-160 168l99 45z" />
    <glyph glyph-name="Aacute" unicode="&#xc1;" horiz-adv-x="839" 
d="M57 0l314 1440h98l313 -1440h-94l-84 401h-373l-84 -401h-90zM248 483h340l-170 815zM385 1526l127 213l98 -45l-159 -168h-66z" />
    <glyph glyph-name="Acircumflex" unicode="&#xc2;" horiz-adv-x="839" 
d="M57 0l314 1440h98l313 -1440h-94l-84 401h-373l-84 -401h-90zM248 483h340l-170 815zM233 1526l148 198h82l147 -198h-86l-104 119l-105 -119h-82z" />
    <glyph glyph-name="Atilde" unicode="&#xc3;" horiz-adv-x="839" 
d="M57 0l314 1440h98l313 -1440h-94l-84 401h-373l-84 -401h-90zM248 483h340l-170 815zM520 1530q-22 0 -41.5 6.5t-28.5 12.5l-36 24q-56 37 -74 37q-19 0 -32.5 -17.5t-26.5 -54.5l-66 16q45 134 117 134q22 0 41.5 -6.5t28.5 -12.5l36 -24q56 -37 74 -37q20 0 33 17
t26 54l66 -16q-45 -133 -117 -133z" />
    <glyph glyph-name="Adieresis" unicode="&#xc4;" horiz-adv-x="839" 
d="M57 0l314 1440h98l313 -1440h-94l-84 401h-373l-84 -401h-90zM248 483h340l-170 815zM477 1546v129h103v-129h-103zM264 1546v129h103v-129h-103z" />
    <glyph glyph-name="Aring" unicode="&#xc5;" horiz-adv-x="839" 
d="M57 0l297 1364q-45 18 -71.5 55t-26.5 86q0 65 48 108.5t116 43.5t114 -43t46 -109q0 -46 -26.5 -83t-70.5 -56l299 -1366h-94l-84 401h-373l-84 -401h-90zM248 483h340l-170 815zM418 1409q43 0 70.5 27.5t27.5 68.5t-28 69t-70 28q-43 0 -71 -28t-28 -69t28 -68.5
t71 -27.5z" />
    <glyph glyph-name="AE" unicode="&#xc6;" horiz-adv-x="1052" 
d="M16 0l404 1434h569v-82h-397v-588h362v-82h-362v-600h403v-82h-493v401h-285l-113 -401h-88zM240 483h262v869h-21z" />
    <glyph glyph-name="Ccedilla" unicode="&#xc7;" horiz-adv-x="673" 
d="M367 -225l-95 39l107 184q-137 39 -220 218t-83 482v37q0 174 31 311.5t84 223.5t121.5 131t146.5 45q74 0 139 -35v-96q-80 45 -139 45q-125 0 -209 -165t-84 -460v-37q0 -295 84 -459.5t209 -164.5q71 0 145 47v-92q-67 -41 -149 -41h-11z" />
    <glyph glyph-name="Egrave" unicode="&#xc8;" horiz-adv-x="665" 
d="M115 0v1434h487v-82h-397v-588h362v-82h-362v-600h403v-82h-493zM401 1516h-65l-160 167l98 46z" />
    <glyph glyph-name="Eacute" unicode="&#xc9;" horiz-adv-x="665" 
d="M115 0v1434h487v-82h-397v-588h362v-82h-362v-600h403v-82h-493zM328 1516l127 213l98 -46l-160 -167h-65z" />
    <glyph glyph-name="Ecircumflex" unicode="&#xca;" horiz-adv-x="665" 
d="M115 0v1434h487v-82h-397v-588h362v-82h-362v-600h403v-82h-493zM176 1526l148 198h82l147 -198h-86l-105 119l-104 -119h-82z" />
    <glyph glyph-name="Edieresis" unicode="&#xcb;" horiz-adv-x="665" 
d="M115 0v1434h487v-82h-397v-588h362v-82h-362v-600h403v-82h-493zM420 1536v129h102v-129h-102zM207 1536v129h102v-129h-102z" />
    <glyph glyph-name="Igrave" unicode="&#xcc;" horiz-adv-x="348" 
d="M129 0v1434h90v-1434h-90zM213 1516h-66l-159 167l98 46z" />
    <glyph glyph-name="Iacute" unicode="&#xcd;" horiz-adv-x="348" 
d="M129 0v1434h90v-1434h-90zM139 1516l127 213l99 -46l-160 -167h-66z" />
    <glyph glyph-name="Icircumflex" unicode="&#xce;" horiz-adv-x="348" 
d="M129 0v1434h90v-1434h-90zM-12 1526l147 198h82l148 -198h-86l-105 119l-104 -119h-82z" />
    <glyph glyph-name="Idieresis" unicode="&#xcf;" horiz-adv-x="348" 
d="M129 0v1434h90v-1434h-90zM231 1536v129h103v-129h-103zM18 1536v129h103v-129h-103z" />
    <glyph glyph-name="Eth" unicode="&#xd0;" horiz-adv-x="831" 
d="M14 682v78h113v674h170q207 0 333 -182t126 -517v-37q0 -335 -126 -516.5t-333 -181.5h-170v682h-113zM666 698v37q0 295 -102.5 456t-268.5 161h-78v-592h180v-78h-180v-600h82q166 0 266.5 159t100.5 457z" />
    <glyph glyph-name="Ntilde" unicode="&#xd1;" horiz-adv-x="860" 
d="M115 0v1434h98l446 -1205v1205h86v-1434h-88l-456 1233v-1233h-86zM530 1511q-22 0 -41.5 6.5t-28.5 12.5l-36 24q-56 37 -74 37q-20 0 -33 -17t-26 -54l-66 16q45 133 117 133q22 0 41.5 -6t29.5 -12.5t36 -24.5q56 -37 73 -37q35 0 60 72l65 -16q-45 -134 -117 -134z
" />
    <glyph glyph-name="Ograve" unicode="&#xd2;" horiz-adv-x="831" 
d="M416 -16q-152 0 -246 185.5t-94 530.5v33q0 345 94 531t246 186t246 -186t94 -531v-33q0 -345 -94 -530.5t-246 -185.5zM416 66q110 0 180 165t70 469v33q0 304 -70 469.5t-180 165.5t-180 -165.5t-70 -469.5v-33q0 -304 70 -469t180 -165zM455 1526h-66l-160 168l99 45z
" />
    <glyph glyph-name="Oacute" unicode="&#xd3;" horiz-adv-x="831" 
d="M416 -16q-152 0 -246 185.5t-94 530.5v33q0 345 94 531t246 186t246 -186t94 -531v-33q0 -345 -94 -530.5t-246 -185.5zM416 66q110 0 180 165t70 469v33q0 304 -70 469.5t-180 165.5t-180 -165.5t-70 -469.5v-33q0 -304 70 -469t180 -165zM381 1526l127 213l98 -45
l-160 -168h-65z" />
    <glyph glyph-name="Ocircumflex" unicode="&#xd4;" horiz-adv-x="831" 
d="M416 -16q-152 0 -246 185.5t-94 530.5v33q0 345 94 531t246 186t246 -186t94 -531v-33q0 -345 -94 -530.5t-246 -185.5zM416 66q110 0 180 165t70 469v33q0 304 -70 469.5t-180 165.5t-180 -165.5t-70 -469.5v-33q0 -304 70 -469t180 -165zM229 1536l148 199h82l147 -199
h-86l-104 119l-105 -119h-82z" />
    <glyph glyph-name="Otilde" unicode="&#xd5;" horiz-adv-x="831" 
d="M416 -16q-152 0 -246 185.5t-94 530.5v33q0 345 94 531t246 186t246 -186t94 -531v-33q0 -345 -94 -530.5t-246 -185.5zM416 66q110 0 180 165t70 469v33q0 304 -70 469.5t-180 165.5t-180 -165.5t-70 -469.5v-33q0 -304 70 -469t180 -165zM516 1530q-22 0 -41.5 6.5
t-28.5 12.5l-36 24q-56 37 -74 37q-35 0 -60 -72l-65 16q45 134 117 134q22 0 41.5 -6.5t28.5 -12.5l36 -24q56 -37 74 -37q20 0 33 17t26 54l66 -16q-45 -133 -117 -133z" />
    <glyph glyph-name="Odieresis" unicode="&#xd6;" horiz-adv-x="831" 
d="M416 -16q-152 0 -246 185.5t-94 530.5v33q0 345 94 531t246 186t246 -186t94 -531v-33q0 -345 -94 -530.5t-246 -185.5zM416 66q110 0 180 165t70 469v33q0 304 -70 469.5t-180 165.5t-180 -165.5t-70 -469.5v-33q0 -304 70 -469t180 -165zM473 1546v129h102v-129h-102z
M260 1546v129h102v-129h-102z" />
    <glyph glyph-name="multiply" unicode="&#xd7;" horiz-adv-x="696" 
d="M535 453l-187 209l-186 -209l-60 53l193 215l-193 215l60 53l186 -209l187 209l59 -53l-193 -215l193 -215z" />
    <glyph glyph-name="Oslash" unicode="&#xd8;" horiz-adv-x="831" 
d="M670 1450h88l-86 -209q84 -185 84 -508v-33q0 -345 -94 -530.5t-246 -185.5q-123 0 -205 116l-49 -116h-88l86 209q-84 185 -84 507v33q0 345 94 531t246 186q123 0 205 -119zM164 733v-33q0 -242 43 -393l379 924q-65 139 -170 139q-110 0 -181 -166.5t-71 -470.5z
M416 63q110 0 181 166.5t71 470.5v33q0 232 -43 391l-379 -923q64 -138 170 -138z" />
    <glyph glyph-name="Ugrave" unicode="&#xd9;" horiz-adv-x="833" 
d="M416 -18q-143 0 -226.5 104t-83.5 283v1065h91v-1067q0 -147 57.5 -225.5t161.5 -78.5t162.5 79t58.5 225v1067h90v-1065q0 -179 -84 -283t-227 -104zM455 1507h-66l-160 168l99 45z" />
    <glyph glyph-name="Uacute" unicode="&#xda;" horiz-adv-x="833" 
d="M416 -18q-143 0 -226.5 104t-83.5 283v1065h91v-1067q0 -147 57.5 -225.5t161.5 -78.5t162.5 79t58.5 225v1067h90v-1065q0 -179 -84 -283t-227 -104zM381 1507l127 213l98 -45l-160 -168h-65z" />
    <glyph glyph-name="Ucircumflex" unicode="&#xdb;" horiz-adv-x="833" 
d="M416 -18q-143 0 -226.5 104t-83.5 283v1065h91v-1067q0 -147 57.5 -225.5t161.5 -78.5t162.5 79t58.5 225v1067h90v-1065q0 -179 -84 -283t-227 -104zM229 1518l148 198h82l147 -198h-86l-104 118l-105 -118h-82z" />
    <glyph glyph-name="Udieresis" unicode="&#xdc;" horiz-adv-x="833" 
d="M416 -18q-143 0 -226.5 104t-83.5 283v1065h91v-1067q0 -147 57.5 -225.5t161.5 -78.5t162.5 79t58.5 225v1067h90v-1065q0 -179 -84 -283t-227 -104zM473 1528v129h102v-129h-102zM260 1528v129h102v-129h-102z" />
    <glyph glyph-name="Yacute" unicode="&#xdd;" horiz-adv-x="720" 
d="M315 0v618l-299 816h99l247 -703l250 703h93l-299 -816v-618h-91zM326 1507l127 213l98 -45l-160 -168h-65z" />
    <glyph glyph-name="Thorn" unicode="&#xde;" horiz-adv-x="745" 
d="M115 0v1434h90v-250h88q190 0 301 -121.5t111 -325.5v-4q0 -208 -110.5 -331t-309.5 -123h-80v-279h-90zM205 358h88q155 0 238 97.5t83 275.5v4q0 175 -87 271t-238 96h-84v-744z" />
    <glyph glyph-name="germandbls" unicode="&#xdf;" horiz-adv-x="745" 
d="M315 -4v74q143 10 214 90.5t71 214.5v6q0 275 -285 328v67q127 46 184.5 140t57.5 210v7q0 114 -50 176.5t-126 62.5q-86 0 -136 -77t-50 -212v-1083h-86v1077q0 178 74 277.5t200 99.5q113 0 186.5 -85.5t73.5 -229.5v-11q0 -136 -61.5 -232t-165.5 -142
q270 -91 270 -365v-12q0 -170 -97.5 -273.5t-273.5 -107.5z" />
    <glyph glyph-name="agrave" unicode="&#xe0;" horiz-adv-x="706" 
d="M303 -18q-108 0 -177 94t-69 237v17q0 153 75.5 248.5t207.5 95.5q93 0 180 -41v135q0 115 -51.5 176.5t-153.5 61.5q-108 0 -198 -50v84q89 47 202 47q132 0 209 -77q78 -78 78 -232v-778h-86v156q-71 -174 -217 -174zM315 57q90 0 147.5 84t57.5 195v215
q-91 43 -176 43q-97 0 -149 -71.5t-52 -188.5v-17q0 -114 45 -187t127 -73zM330 1180l-168 204l96 52l131 -256h-59z" />
    <glyph glyph-name="aacute" unicode="&#xe1;" horiz-adv-x="706" 
d="M303 -18q-108 0 -177 94t-69 237v17q0 153 75.5 248.5t207.5 95.5q93 0 180 -41v135q0 115 -51.5 176.5t-153.5 61.5q-108 0 -198 -50v84q89 47 202 47q132 0 209 -77q78 -78 78 -232v-778h-86v156q-71 -174 -217 -174zM315 57q90 0 147.5 84t57.5 195v215
q-91 43 -176 43q-97 0 -149 -71.5t-52 -188.5v-17q0 -114 45 -187t127 -73zM315 1180l131 256l97 -52l-168 -204h-60z" />
    <glyph glyph-name="acircumflex" unicode="&#xe2;" horiz-adv-x="706" 
d="M303 -18q-108 0 -177 94t-69 237v17q0 153 75.5 248.5t207.5 95.5q93 0 180 -41v135q0 115 -51.5 176.5t-153.5 61.5q-108 0 -198 -50v84q89 47 202 47q132 0 209 -77q78 -78 78 -232v-778h-86v156q-71 -174 -217 -174zM315 57q90 0 147.5 84t57.5 195v215
q-91 43 -176 43q-97 0 -149 -71.5t-52 -188.5v-17q0 -114 45 -187t127 -73zM180 1190l137 250h70l137 -250h-75l-99 153l-98 -153h-72z" />
    <glyph glyph-name="atilde" unicode="&#xe3;" horiz-adv-x="706" 
d="M303 -18q-108 0 -177 94t-69 237v17q0 153 75.5 248.5t207.5 95.5q93 0 180 -41v135q0 115 -51.5 176.5t-153.5 61.5q-108 0 -198 -50v84q89 47 202 47q132 0 209 -77q78 -78 78 -232v-778h-86v156q-71 -174 -217 -174zM315 57q90 0 147.5 84t57.5 195v215
q-91 43 -176 43q-97 0 -149 -71.5t-52 -188.5v-17q0 -114 45 -187t127 -73zM442 1184q-30 0 -49 11t-53 42q-47 47 -70 47q-33 0 -57 -92l-61 16q38 154 110 154q30 0 49.5 -11.5t53.5 -41.5q47 -47 69 -47q34 0 58 92l61 -17q-37 -153 -111 -153z" />
    <glyph glyph-name="adieresis" unicode="&#xe4;" horiz-adv-x="706" 
d="M303 -18q-108 0 -177 94t-69 237v17q0 153 75.5 248.5t207.5 95.5q93 0 180 -41v135q0 115 -51.5 176.5t-153.5 61.5q-108 0 -198 -50v84q89 47 202 47q132 0 209 -77q78 -78 78 -232v-778h-86v156q-71 -174 -217 -174zM315 57q90 0 147.5 84t57.5 195v215
q-91 43 -176 43q-97 0 -149 -71.5t-52 -188.5v-17q0 -114 45 -187t127 -73zM408 1200v137h94v-137h-94zM203 1200v137h94v-137h-94z" />
    <glyph glyph-name="aring" unicode="&#xe5;" horiz-adv-x="706" 
d="M303 -18q-108 0 -177 94t-69 237v17q0 153 75.5 248.5t207.5 95.5q93 0 180 -41v135q0 115 -51.5 176.5t-153.5 61.5q-108 0 -198 -50v84q89 47 202 47q132 0 209 -77q78 -78 78 -232v-778h-86v156q-71 -174 -217 -174zM315 57q90 0 147.5 84t57.5 195v215
q-91 43 -176 43q-97 0 -149 -71.5t-52 -188.5v-17q0 -114 45 -187t127 -73zM350 1182q-69 0 -114.5 46.5t-45.5 114.5t47.5 115t116.5 47q68 0 114 -47t46 -115t-47.5 -114.5t-116.5 -46.5zM352 1235q44 0 73.5 30.5t29.5 77.5t-29.5 78t-73.5 31t-73 -31t-29 -78t29 -77.5
t73 -30.5z" />
    <glyph glyph-name="ae" unicode="&#xe6;" horiz-adv-x="1155" 
d="M303 -18q-108 0 -177 94t-69 237v17q0 153 75.5 248.5t207.5 95.5q93 0 180 -41v135q0 115 -51.5 176.5t-153.5 61.5q-108 0 -198 -50v84q89 47 202 47q208 0 261 -182q38 91 96 139t127 48q125 0 202.5 -139.5t77.5 -387.5v-63h-489q4 -212 78 -323t190 -111
q50 0 91.5 14t95.5 49l10 -88q-57 -33 -101.5 -45t-107.5 -12q-95 0 -171.5 61.5t-119.5 181.5q-33 -108 -97 -177.5t-159 -69.5zM594 578h405q0 187 -55 310.5t-141 123.5q-88 0 -145.5 -112.5t-63.5 -321.5zM315 57q81 0 136.5 79t80.5 192q-21 120 -16 227
q-98 39 -172 39q-97 0 -149 -71.5t-52 -188.5v-17q0 -114 45 -187t127 -73z" />
    <glyph glyph-name="ccedilla" unicode="&#xe7;" horiz-adv-x="575" 
d="M301 -225l-94 39l106 184q-110 34 -178.5 167.5t-68.5 358.5v21q0 262 96 403.5t231 141.5q79 0 129 -37v-95q-63 50 -131 50q-43 0 -84.5 -27.5t-76.5 -81.5t-56.5 -144.5t-21.5 -205.5v-29q0 -225 72 -338.5t175 -113.5q65 0 123 49v-90q-57 -41 -129 -41h-14z" />
    <glyph glyph-name="egrave" unicode="&#xe8;" horiz-adv-x="712" 
d="M408 -14q-144 0 -243 139t-99 393v19q0 266 84 410.5t210 144.5q125 0 203 -140t78 -387v-63h-489q4 -212 78 -323t190 -111q50 0 91 14t95 49l10 -88q-58 -33 -102 -45t-106 -12zM152 578h405q0 187 -55.5 310.5t-141.5 123.5q-89 0 -145.5 -112t-62.5 -322zM340 1180
l-168 204l96 52l131 -256h-59z" />
    <glyph glyph-name="eacute" unicode="&#xe9;" horiz-adv-x="712" 
d="M408 -14q-144 0 -243 139t-99 393v19q0 266 84 410.5t210 144.5q125 0 203 -140t78 -387v-63h-489q4 -212 78 -323t190 -111q50 0 91 14t95 49l10 -88q-58 -33 -102 -45t-106 -12zM152 578h405q0 187 -55.5 310.5t-141.5 123.5q-89 0 -145.5 -112t-62.5 -322zM326 1180
l131 256l96 -52l-168 -204h-59z" />
    <glyph glyph-name="ecircumflex" unicode="&#xea;" horiz-adv-x="712" 
d="M408 -14q-144 0 -243 139t-99 393v19q0 266 84 410.5t210 144.5q125 0 203 -140t78 -387v-63h-489q4 -212 78 -323t190 -111q50 0 91 14t95 49l10 -88q-58 -33 -102 -45t-106 -12zM152 578h405q0 187 -55.5 310.5t-141.5 123.5q-89 0 -145.5 -112t-62.5 -322zM190 1190
l138 250h69l138 -250h-76l-99 153l-98 -153h-72z" />
    <glyph glyph-name="edieresis" unicode="&#xeb;" horiz-adv-x="712" 
d="M408 -14q-144 0 -243 139t-99 393v19q0 266 84 410.5t210 144.5q125 0 203 -140t78 -387v-63h-489q4 -212 78 -323t190 -111q50 0 91 14t95 49l10 -88q-58 -33 -102 -45t-106 -12zM152 578h405q0 187 -55.5 310.5t-141.5 123.5q-89 0 -145.5 -112t-62.5 -322zM418 1200
v137h94v-137h-94zM213 1200v137h94v-137h-94z" />
    <glyph glyph-name="igrave" unicode="&#xec;" horiz-adv-x="327" 
d="M121 0v1075h86v-1075h-86zM143 1180l-168 204l97 52l131 -256h-60z" />
    <glyph glyph-name="iacute" unicode="&#xed;" horiz-adv-x="327" 
d="M121 0v1075h86v-1075h-86zM129 1180l131 256l96 -52l-168 -204h-59z" />
    <glyph glyph-name="icircumflex" unicode="&#xee;" horiz-adv-x="327" 
d="M121 0v1075h86v-1075h-86zM-6 1190l137 250h70l137 -250h-76l-98 153l-98 -153h-72z" />
    <glyph glyph-name="idieresis" unicode="&#xef;" horiz-adv-x="327" 
d="M121 0v1075h86v-1075h-86zM221 1200v137h94v-137h-94zM16 1200v137h95v-137h-95z" />
    <glyph glyph-name="eth" unicode="&#xf0;" horiz-adv-x="739" 
d="M580 1391l-136 -84q228 -352 228 -725v-31q0 -268 -88.5 -417.5t-214.5 -149.5q-124 0 -213.5 148.5t-89.5 395.5v19q0 243 87 394t205 151q45 0 84 -27t82 -84q-48 142 -147 285l-144 -90l-38 61l141 88q-39 51 -100 123h106q42 -49 61 -82l138 86zM369 63
q90 0 153.5 127.5t63.5 337.5v19q0 216 -66.5 340.5t-154.5 124.5t-150.5 -129t-62.5 -336v-19q0 -208 63 -336.5t154 -128.5z" />
    <glyph glyph-name="ntilde" unicode="&#xf1;" horiz-adv-x="761" 
d="M109 0v1075h86v-157q75 174 221 174q113 0 179.5 -88.5t66.5 -251.5v-752h-87v743q0 135 -45 205t-131 70q-87 0 -145.5 -81t-58.5 -210v-727h-86zM475 1184q-30 0 -49 11t-53 42q-47 47 -70 47q-33 0 -57 -92l-62 16q38 154 111 154q30 0 49 -11t53 -42q47 -47 70 -47
q33 0 57 92l62 -17q-38 -153 -111 -153z" />
    <glyph glyph-name="ograve" unicode="&#xf2;" horiz-adv-x="741" 
d="M371 -16q-127 0 -216 149.5t-89 394.5v19q0 244 90.5 394.5t216.5 150.5t214.5 -150.5t88.5 -394.5v-19q0 -245 -89 -394.5t-216 -149.5zM371 63q93 0 156 128t63 337v19q0 209 -63 337t-156 128t-156 -128t-63 -337v-19q0 -209 63 -337t156 -128zM350 1180l-168 204
l97 52l131 -256h-60z" />
    <glyph glyph-name="oacute" unicode="&#xf3;" horiz-adv-x="741" 
d="M371 -16q-127 0 -216 149.5t-89 394.5v19q0 244 90.5 394.5t216.5 150.5t214.5 -150.5t88.5 -394.5v-19q0 -245 -89 -394.5t-216 -149.5zM371 63q93 0 156 128t63 337v19q0 209 -63 337t-156 128t-156 -128t-63 -337v-19q0 -209 63 -337t156 -128zM336 1180l131 256
l96 -52l-168 -204h-59z" />
    <glyph glyph-name="ocircumflex" unicode="&#xf4;" horiz-adv-x="741" 
d="M371 -16q-127 0 -216 149.5t-89 394.5v19q0 244 90.5 394.5t216.5 150.5t214.5 -150.5t88.5 -394.5v-19q0 -245 -89 -394.5t-216 -149.5zM371 63q93 0 156 128t63 337v19q0 209 -63 337t-156 128t-156 -128t-63 -337v-19q0 -209 63 -337t156 -128zM201 1190l137 250h70
l137 -250h-76l-98 153l-99 -153h-71z" />
    <glyph glyph-name="otilde" unicode="&#xf5;" horiz-adv-x="741" 
d="M371 -16q-127 0 -216 149.5t-89 394.5v19q0 244 90.5 394.5t216.5 150.5t214.5 -150.5t88.5 -394.5v-19q0 -245 -89 -394.5t-216 -149.5zM371 63q93 0 156 128t63 337v19q0 209 -63 337t-156 128t-156 -128t-63 -337v-19q0 -209 63 -337t156 -128zM463 1184
q-30 0 -49.5 11.5t-53.5 41.5q-47 47 -69 47q-34 0 -58 -92l-61 16q38 154 111 154q30 0 49 -11t53 -42q47 -47 70 -47q33 0 57 92l61 -17q-37 -153 -110 -153z" />
    <glyph glyph-name="odieresis" unicode="&#xf6;" horiz-adv-x="741" 
d="M371 -16q-127 0 -216 149.5t-89 394.5v19q0 244 90.5 394.5t216.5 150.5t214.5 -150.5t88.5 -394.5v-19q0 -245 -89 -394.5t-216 -149.5zM371 63q93 0 156 128t63 337v19q0 209 -63 337t-156 128t-156 -128t-63 -337v-19q0 -209 63 -337t156 -128zM428 1200v137h94v-137
h-94zM223 1200v137h94v-137h-94z" />
    <glyph glyph-name="divide" unicode="&#xf7;" horiz-adv-x="696" 
d="M293 909v146h110v-146h-110zM637 676h-578v90h578v-90zM293 387v145h110v-145h-110z" />
    <glyph glyph-name="oslash" unicode="&#xf8;" horiz-adv-x="741" 
d="M586 1083h82l-74 -153q82 -161 82 -383v-19q0 -245 -89 -394.5t-216 -149.5q-96 0 -176 92l-39 -84h-82l73 155q-81 146 -81 381v19q0 244 90.5 394.5t216.5 150.5q93 0 174 -93zM150 547v-19q0 -177 40 -290l324 677q-62 99 -143 99q-93 0 -157 -129t-64 -338zM371 61
q93 0 157 129t64 338v19q0 168 -41 289l-324 -676q57 -99 144 -99z" />
    <glyph glyph-name="ugrave" unicode="&#xf9;" horiz-adv-x="761" 
d="M346 -16q-113 0 -179.5 88.5t-66.5 251.5v751h86v-743q0 -135 45 -205t131 -70q88 0 146.5 81t58.5 210v727h86v-1075h-86v158q-75 -174 -221 -174zM356 1171l-168 205l97 51l131 -256h-60z" />
    <glyph glyph-name="uacute" unicode="&#xfa;" horiz-adv-x="761" 
d="M346 -16q-113 0 -179.5 88.5t-66.5 251.5v751h86v-743q0 -135 45 -205t131 -70q88 0 146.5 81t58.5 210v727h86v-1075h-86v158q-75 -174 -221 -174zM342 1171l131 256l96 -51l-168 -205h-59z" />
    <glyph glyph-name="ucircumflex" unicode="&#xfb;" horiz-adv-x="761" 
d="M346 -16q-113 0 -179.5 88.5t-66.5 251.5v751h86v-743q0 -135 45 -205t131 -70q88 0 146.5 81t58.5 210v727h86v-1075h-86v158q-75 -174 -221 -174zM207 1182l137 250h70l137 -250h-76l-98 153l-98 -153h-72z" />
    <glyph glyph-name="udieresis" unicode="&#xfc;" horiz-adv-x="761" 
d="M346 -16q-113 0 -179.5 88.5t-66.5 251.5v751h86v-743q0 -135 45 -205t131 -70q88 0 146.5 81t58.5 210v727h86v-1075h-86v158q-75 -174 -221 -174zM434 1192v137h94v-137h-94zM229 1192v137h95v-137h-95z" />
    <glyph glyph-name="yacute" unicode="&#xfd;" horiz-adv-x="708" 
d="M354 158l213 917h86l-325 -1341h-82v2l67 274l-260 1065h88zM317 1171l132 256l96 -51l-168 -205h-60z" />
    <glyph glyph-name="thorn" unicode="&#xfe;" horiz-adv-x="770" 
d="M109 -266v1714h86v-580q35 101 91.5 162.5t133.5 61.5q117 0 198.5 -143.5t81.5 -391.5v-39q0 -246 -82 -390t-198 -144q-77 0 -133.5 61t-91.5 162v-473h-86zM410 59q88 0 146 122.5t58 338.5v35q0 216 -58 338.5t-146 122.5q-86 0 -153 -124t-67 -329v-51
q0 -205 67 -329t153 -124z" />
    <glyph glyph-name="ydieresis" unicode="&#xff;" horiz-adv-x="708" 
d="M354 158l213 917h86l-325 -1341h-82v2l67 274l-260 1065h88zM410 1192v137h94v-137h-94zM205 1192v137h94v-137h-94z" />
    <glyph glyph-name="Amacron" unicode="&#x100;" horiz-adv-x="839" 
d="M57 0l314 1440h98l313 -1440h-94l-84 401h-373l-84 -401h-90zM248 483h340l-170 815zM225 1550v84h393v-84h-393z" />
    <glyph glyph-name="amacron" unicode="&#x101;" horiz-adv-x="706" 
d="M303 -18q-108 0 -177 94t-69 237v17q0 153 75.5 248.5t207.5 95.5q93 0 180 -41v135q0 115 -51.5 176.5t-153.5 61.5q-108 0 -198 -50v84q89 47 202 47q132 0 209 -77q78 -78 78 -232v-778h-86v156q-71 -174 -217 -174zM315 57q90 0 147.5 84t57.5 195v215
q-91 43 -176 43q-97 0 -149 -71.5t-52 -188.5v-17q0 -114 45 -187t127 -73zM168 1204v80h369v-80h-369z" />
    <glyph glyph-name="Abreve" unicode="&#x102;" horiz-adv-x="839" 
d="M57 0l314 1440h98l313 -1440h-94l-84 401h-373l-84 -401h-90zM248 483h340l-170 815zM422 1532q-80 0 -131.5 41t-61.5 121h76q24 -80 117 -80t117 80h75q-10 -80 -61 -121t-131 -41z" />
    <glyph glyph-name="abreve" unicode="&#x103;" horiz-adv-x="706" 
d="M303 -18q-108 0 -177 94t-69 237v17q0 153 75.5 248.5t207.5 95.5q93 0 180 -41v135q0 115 -51.5 176.5t-153.5 61.5q-108 0 -198 -50v84q89 47 202 47q132 0 209 -77q78 -78 78 -232v-778h-86v156q-71 -174 -217 -174zM315 57q90 0 147.5 84t57.5 195v215
q-91 43 -176 43q-97 0 -149 -71.5t-52 -188.5v-17q0 -114 45 -187t127 -73zM352 1186q-81 0 -130.5 47.5t-59.5 144.5h74q21 -112 116 -112q96 0 117 112h74q-10 -97 -60 -144.5t-131 -47.5z" />
    <glyph glyph-name="Aogonek" unicode="&#x104;" horiz-adv-x="839" 
d="M793 -178v-66q-23 -2 -41 -2q-127 0 -127 96q0 64 80 150h-17l-84 401h-373l-84 -401h-90l314 1440h98l313 -1440h-18q-57 -79 -57 -125q0 -53 86 -53zM248 483h340l-170 815z" />
    <glyph glyph-name="aogonek" unicode="&#x105;" horiz-adv-x="706" 
d="M621 -178v-66q-23 -2 -41 -2q-127 0 -127 96q0 65 79 150h-12v156q-71 -174 -217 -174q-108 0 -177 94t-69 237v17q0 153 75.5 248.5t207.5 95.5q93 0 180 -41v135q0 115 -51.5 176.5t-153.5 61.5q-108 0 -198 -50v84q89 47 202 47q132 0 209 -77q78 -78 78 -232v-778
h-14q-57 -79 -57 -125q0 -53 86 -53zM315 57q90 0 147.5 84t57.5 195v215q-91 43 -176 43q-97 0 -149 -71.5t-52 -188.5v-17q0 -114 45 -187t127 -73z" />
    <glyph glyph-name="Cacute" unicode="&#x106;" horiz-adv-x="673" 
d="M455 -12q-166 0 -272.5 183t-106.5 527v37q0 174 31 311.5t84 223.5t121.5 131t146.5 45q74 0 139 -35v-96q-80 45 -139 45q-125 0 -209 -165t-84 -460v-37q0 -295 84 -459.5t209 -164.5q71 0 145 47v-92q-67 -41 -149 -41zM385 1526l127 213l98 -45l-159 -168h-66z" />
    <glyph glyph-name="cacute" unicode="&#x107;" horiz-adv-x="575" 
d="M393 -14q-65 0 -122.5 32t-104 95.5t-73.5 169t-27 241.5v21q0 262 96 403.5t231 141.5q79 0 129 -37v-95q-63 50 -131 50q-43 0 -84.5 -27.5t-76.5 -81.5t-56.5 -144.5t-21.5 -205.5v-29q0 -225 72 -338.5t175 -113.5q65 0 123 49v-90q-57 -41 -129 -41zM328 1180
l131 256l96 -52l-168 -204h-59z" />
    <glyph glyph-name="Cdotaccent" unicode="&#x10a;" horiz-adv-x="673" 
d="M455 -12q-166 0 -272.5 183t-106.5 527v37q0 174 31 311.5t84 223.5t121.5 131t146.5 45q74 0 139 -35v-96q-80 45 -139 45q-125 0 -209 -165t-84 -460v-37q0 -295 84 -459.5t209 -164.5q71 0 145 47v-92q-67 -41 -149 -41zM369 1546v129h106v-129h-106z" />
    <glyph glyph-name="cdotaccent" unicode="&#x10b;" horiz-adv-x="575" 
d="M393 -14q-65 0 -122.5 32t-104 95.5t-73.5 169t-27 241.5v21q0 262 96 403.5t231 141.5q79 0 129 -37v-95q-63 50 -131 50q-43 0 -84.5 -27.5t-76.5 -81.5t-56.5 -144.5t-21.5 -205.5v-29q0 -225 72 -338.5t175 -113.5q65 0 123 49v-90q-57 -41 -129 -41zM313 1200v137
h103v-137h-103z" />
    <glyph glyph-name="Ccaron" unicode="&#x10c;" horiz-adv-x="673" 
d="M455 -12q-166 0 -272.5 183t-106.5 527v37q0 174 31 311.5t84 223.5t121.5 131t146.5 45q74 0 139 -35v-96q-80 45 -139 45q-125 0 -209 -165t-84 -460v-37q0 -295 84 -459.5t209 -164.5q71 0 145 47v-92q-67 -41 -149 -41zM610 1735l-147 -199h-82l-148 199h86l105 -119
l104 119h82z" />
    <glyph glyph-name="ccaron" unicode="&#x10d;" horiz-adv-x="575" 
d="M393 -14q-65 0 -122.5 32t-104 95.5t-73.5 169t-27 241.5v21q0 262 96 403.5t231 141.5q79 0 129 -37v-95q-63 50 -131 50q-43 0 -84.5 -27.5t-76.5 -81.5t-56.5 -144.5t-21.5 -205.5v-29q0 -225 72 -338.5t175 -113.5q65 0 123 49v-90q-57 -41 -129 -41zM537 1440
l-138 -250h-69l-137 250h75l99 -154l98 154h72z" />
    <glyph glyph-name="Dcaron" unicode="&#x10e;" horiz-adv-x="819" 
d="M115 0v1434h170q207 0 332.5 -182t125.5 -517v-37q0 -335 -125.5 -516.5t-332.5 -181.5h-170zM283 1352h-78v-1270h82q166 0 266 159t100 457v37q0 296 -102.5 456.5t-267.5 160.5zM584 1724l-148 -198h-82l-147 198h86l104 -118l105 118h82z" />
    <glyph glyph-name="dcaron" unicode="&#x10f;" horiz-adv-x="770" 
d="M350 -16q-117 0 -198.5 143t-81.5 391v39q0 246 82 390.5t198 144.5q77 0 133.5 -61.5t91.5 -162.5v580h87v-1448h-87v207q-35 -101 -91.5 -162t-133.5 -61zM360 59q86 0 153 124t67 329v51q0 205 -67 329t-153 124q-88 0 -146 -122.5t-58 -338.5v-35q0 -216 58 -338.5
t146 -122.5zM727 1145l14 303h78v-4l-51 -299h-41z" />
    <glyph glyph-name="Dcroat" unicode="&#x110;" horiz-adv-x="831" 
d="M14 682v78h113v674h170q207 0 333 -182t126 -517v-37q0 -335 -126 -516.5t-333 -181.5h-170v682h-113zM666 698v37q0 295 -102.5 456t-268.5 161h-78v-592h180v-78h-180v-600h82q166 0 266.5 159t100.5 457z" />
    <glyph glyph-name="dcroat" unicode="&#x111;" horiz-adv-x="770" 
d="M358 1227v73h217v148h87v-148h98v-73h-98v-1227h-87v207q-35 -101 -91.5 -162t-133.5 -61q-117 0 -198.5 143t-81.5 391v39q0 246 82 390.5t198 144.5q77 0 133.5 -61.5t91.5 -162.5v359h-217zM360 59q86 0 153 124t67 329v51q0 205 -67 329t-153 124q-88 0 -146 -122.5
t-58 -338.5v-35q0 -216 58 -338.5t146 -122.5z" />
    <glyph glyph-name="Emacron" unicode="&#x112;" horiz-adv-x="665" 
d="M115 0v1434h487v-82h-397v-588h362v-82h-362v-600h403v-82h-493zM168 1540v84h393v-84h-393z" />
    <glyph glyph-name="emacron" unicode="&#x113;" horiz-adv-x="712" 
d="M408 -14q-144 0 -243 139t-99 393v19q0 266 84 410.5t210 144.5q125 0 203 -140t78 -387v-63h-489q4 -212 78 -323t190 -111q50 0 91 14t95 49l10 -88q-58 -33 -102 -45t-106 -12zM152 578h405q0 187 -55.5 310.5t-141.5 123.5q-89 0 -145.5 -112t-62.5 -322zM178 1204
v80h369v-80h-369z" />
    <glyph glyph-name="Ebreve" unicode="&#x114;" horiz-adv-x="665" 
d="M115 0v1434h487v-82h-397v-588h362v-82h-362v-600h403v-82h-493zM365 1522q-80 0 -131.5 40.5t-61.5 120.5h76q24 -79 117 -79q92 0 116 79h76q-10 -80 -61 -120.5t-131 -40.5z" />
    <glyph glyph-name="ebreve" unicode="&#x115;" horiz-adv-x="712" 
d="M408 -14q-144 0 -243 139t-99 393v19q0 266 84 410.5t210 144.5q125 0 203 -140t78 -387v-63h-489q4 -212 78 -323t190 -111q50 0 91 14t95 49l10 -88q-58 -33 -102 -45t-106 -12zM152 578h405q0 187 -55.5 310.5t-141.5 123.5q-89 0 -145.5 -112t-62.5 -322zM362 1186
q-81 0 -130.5 47.5t-59.5 144.5h74q21 -112 116 -112q96 0 117 112h74q-10 -97 -60 -144.5t-131 -47.5z" />
    <glyph glyph-name="Edotaccent" unicode="&#x116;" horiz-adv-x="665" 
d="M115 0v1434h487v-82h-397v-588h362v-82h-362v-600h403v-82h-493zM311 1536v129h107v-129h-107z" />
    <glyph glyph-name="edotaccent" unicode="&#x117;" horiz-adv-x="712" 
d="M408 -14q-144 0 -243 139t-99 393v19q0 266 84 410.5t210 144.5q125 0 203 -140t78 -387v-63h-489q4 -212 78 -323t190 -111q50 0 91 14t95 49l10 -88q-58 -33 -102 -45t-106 -12zM152 578h405q0 187 -55.5 310.5t-141.5 123.5q-89 0 -145.5 -112t-62.5 -322zM311 1200
v137h103v-137h-103z" />
    <glyph glyph-name="Eogonek" unicode="&#x118;" horiz-adv-x="665" 
d="M115 0v1434h487v-82h-397v-588h362v-82h-362v-600h403v-82h-22q-58 -81 -58 -125q0 -53 86 -53v-66q-23 -2 -41 -2q-127 0 -127 96q0 64 80 150h-411z" />
    <glyph glyph-name="eogonek" unicode="&#x119;" horiz-adv-x="712" 
d="M152 578h405q0 187 -55.5 310.5t-141.5 123.5q-89 0 -145.5 -112t-62.5 -322zM606 131l8 -72v-2q-106 -116 -106 -182q0 -53 86 -53v-66q-23 -2 -41 -2q-127 0 -127 96q0 64 76 146q-52 -10 -94 -10q-144 0 -243 139t-99 393v19q0 266 84 410.5t210 144.5q125 0 203 -140
t78 -387v-63h-489q4 -212 78 -323t190 -111q50 0 91 14t95 49z" />
    <glyph glyph-name="Ecaron" unicode="&#x11a;" horiz-adv-x="665" 
d="M115 0v1434h487v-82h-397v-588h362v-82h-362v-600h403v-82h-493zM553 1724l-147 -198h-82l-148 198h86l105 -118l104 118h82z" />
    <glyph glyph-name="ecaron" unicode="&#x11b;" horiz-adv-x="712" 
d="M408 -14q-144 0 -243 139t-99 393v19q0 266 84 410.5t210 144.5q125 0 203 -140t78 -387v-63h-489q4 -212 78 -323t190 -111q50 0 91 14t95 49l10 -88q-58 -33 -102 -45t-106 -12zM152 578h405q0 187 -55.5 310.5t-141.5 123.5q-89 0 -145.5 -112t-62.5 -322zM535 1440
l-138 -250h-69l-138 250h76l99 -154l98 154h72z" />
    <glyph glyph-name="Gbreve" unicode="&#x11e;" horiz-adv-x="804" 
d="M506 -14q-187 0 -308.5 185.5t-121.5 526.5v37q0 173 35.5 311t96 224t138 131t164.5 45q100 0 174 -45v-98q-86 57 -176 57q-67 0 -128 -40t-109 -115.5t-76.5 -197t-28.5 -272.5v-37q0 -303 96.5 -466.5t249.5 -163.5q53 0 98 18v565h-213v82h299v-698q-55 -29 -95 -39
t-95 -10zM461 1532q-80 0 -131.5 41t-61.5 121h76q24 -80 117 -80t117 80h75q-10 -80 -61 -121t-131 -41z" />
    <glyph glyph-name="gbreve" unicode="&#x11f;" horiz-adv-x="770" 
d="M350 -270q-117 0 -235 43v88q132 -51 239 -51q221 0 221 217v254q-35 -101 -91.5 -162.5t-133.5 -61.5q-114 0 -197 136t-83 372v19q0 233 83 370.5t197 137.5q77 0 133.5 -61.5t91.5 -162.5v207h87v-1044q0 -145 -76 -221q-80 -80 -236 -80zM360 133q85 0 152.5 119
t67.5 313v19q0 194 -67.5 313t-152.5 119q-84 0 -144 -117t-60 -317v-15q0 -200 60 -317t144 -117zM397 1186q-81 0 -130.5 47.5t-59.5 144.5h74q21 -112 116 -112q96 0 117 112h74q-10 -97 -60 -144.5t-131 -47.5z" />
    <glyph glyph-name="Gdotaccent" unicode="&#x120;" horiz-adv-x="804" 
d="M506 -14q-187 0 -308.5 185.5t-121.5 526.5v37q0 173 35.5 311t96 224t138 131t164.5 45q100 0 174 -45v-98q-86 57 -176 57q-67 0 -128 -40t-109 -115.5t-76.5 -197t-28.5 -272.5v-37q0 -303 96.5 -466.5t249.5 -163.5q53 0 98 18v565h-213v82h299v-698q-55 -29 -95 -39
t-95 -10zM408 1546v129h106v-129h-106z" />
    <glyph glyph-name="gdotaccent" unicode="&#x121;" horiz-adv-x="770" 
d="M350 -270q-117 0 -235 43v88q132 -51 239 -51q221 0 221 217v254q-35 -101 -91.5 -162.5t-133.5 -61.5q-114 0 -197 136t-83 372v19q0 233 83 370.5t197 137.5q77 0 133.5 -61.5t91.5 -162.5v207h87v-1044q0 -145 -76 -221q-80 -80 -236 -80zM360 133q85 0 152.5 119
t67.5 313v19q0 194 -67.5 313t-152.5 119q-84 0 -144 -117t-60 -317v-15q0 -200 60 -317t144 -117zM346 1200v137h103v-137h-103z" />
    <glyph glyph-name="Gcommaaccent" unicode="&#x122;" horiz-adv-x="804" 
d="M506 -14q-187 0 -308.5 185.5t-121.5 526.5v37q0 173 35.5 311t96 224t138 131t164.5 45q100 0 174 -45v-98q-86 57 -176 57q-67 0 -128 -40t-109 -115.5t-76.5 -197t-28.5 -272.5v-37q0 -303 96.5 -466.5t249.5 -163.5q53 0 98 18v565h-213v82h299v-698q-55 -29 -95 -39
t-95 -10zM416 -387l-23 37q36 19 49 42.5t9 63.5h-43v119h102v-111q0 -59 -21 -91.5t-73 -59.5z" />
    <glyph glyph-name="gcommaaccent" unicode="&#x123;" horiz-adv-x="770" 
d="M350 -270q-117 0 -235 43v88q132 -51 239 -51q221 0 221 217v254q-35 -101 -91.5 -162.5t-133.5 -61.5q-114 0 -197 136t-83 372v19q0 233 83 370.5t197 137.5q77 0 133.5 -61.5t91.5 -162.5v207h87v-1044q0 -145 -76 -221q-80 -80 -236 -80zM360 133q85 0 152.5 119
t67.5 313v19q0 194 -67.5 313t-152.5 119q-84 0 -144 -117t-60 -317v-15q0 -200 60 -317t144 -117zM440 1462l23 -37q-36 -19 -48.5 -42t-8.5 -64h43v-119h-103v111q0 59 21 91.5t73 59.5z" />
    <glyph glyph-name="Hbar" unicode="&#x126;" horiz-adv-x="876" 
d="M14 1137v77h113v220h90v-220h442v220h91v-220h112v-77h-112v-1137h-91v680h-442v-680h-90v1137h-113zM217 762h442v377h-442v-377z" />
    <glyph glyph-name="hbar" unicode="&#x127;" horiz-adv-x="761" 
d="M412 1227h-217v-309q75 174 221 174q113 0 179.5 -88.5t66.5 -251.5v-752h-87v743q0 135 -45 205t-131 70q-87 0 -145.5 -81t-58.5 -210v-727h-86v1227h-99v73h99v148h86v-148h217v-73z" />
    <glyph glyph-name="Imacron" unicode="&#x12a;" horiz-adv-x="348" 
d="M129 0v1434h90v-1434h-90zM-20 1540v84h393v-84h-393z" />
    <glyph glyph-name="imacron" unicode="&#x12b;" horiz-adv-x="327" 
d="M121 0v1075h86v-1075h-86zM-18 1204v80h368v-80h-368z" />
    <glyph glyph-name="Ibreve" unicode="&#x12c;" horiz-adv-x="348" 
d="M129 0v1434h90v-1434h-90zM176 1522q-80 0 -131 40.5t-61 120.5h75q24 -79 117 -79t117 79h76q-10 -80 -61.5 -120.5t-131.5 -40.5z" />
    <glyph glyph-name="ibreve" unicode="&#x12d;" horiz-adv-x="327" 
d="M121 0v1075h86v-1075h-86zM166 1186q-81 0 -131 47.5t-60 144.5h74q21 -112 117 -112t117 112h73q-10 -97 -59.5 -144.5t-130.5 -47.5z" />
    <glyph glyph-name="Iogonek" unicode="&#x12e;" horiz-adv-x="348" 
d="M129 0v1434h90v-1434h-12q-57 -79 -57 -125q0 -53 86 -53v-66q-23 -2 -41 -2q-127 0 -127 96q0 65 79 150h-18z" />
    <glyph glyph-name="iogonek" unicode="&#x12f;" horiz-adv-x="327" 
d="M121 0v1075h86v-1075h-12q-58 -81 -58 -125q0 -53 86 -53v-66q-23 -2 -41 -2q-127 0 -127 96q0 64 80 150h-14zM117 1305v143h94v-143h-94z" />
    <glyph glyph-name="Idotaccent" unicode="&#x130;" horiz-adv-x="348" 
d="M129 0v1434h90v-1434h-90zM123 1536v129h106v-129h-106z" />
    <glyph glyph-name="dotlessi" unicode="&#x131;" horiz-adv-x="327" 
d="M121 0v1075h86v-1075h-86z" />
    <glyph glyph-name="Kcommaaccent" unicode="&#x136;" horiz-adv-x="757" 
d="M115 0v1434h90v-813l397 813h103l-330 -648l370 -786h-98l-323 688l-119 -233v-455h-90zM348 -369l-22 37q36 19 48.5 42.5t8.5 64.5h-43v119h102v-111q0 -59 -21 -92t-73 -60z" />
    <glyph glyph-name="kcommaaccent" unicode="&#x137;" horiz-adv-x="663" 
d="M109 0v1448h86v-969l309 596h96l-240 -432l263 -643h-95l-219 553l-114 -207v-346h-86zM303 -369l-22 37q36 19 48.5 42.5t8.5 64.5h-43v119h102v-111q0 -59 -21 -92t-73 -60z" />
    <glyph glyph-name="Lacute" unicode="&#x139;" horiz-adv-x="581" 
d="M115 0v1434h90v-1352h360v-82h-450zM143 1516l127 213l99 -46l-160 -167h-66z" />
    <glyph glyph-name="lacute" unicode="&#x13a;" horiz-adv-x="327" 
d="M121 0v1448h86v-1448h-86zM133 1516l127 213l98 -46l-159 -167h-66z" />
    <glyph glyph-name="Lcommaaccent" unicode="&#x13b;" horiz-adv-x="581" 
d="M115 0v1434h90v-1352h360v-82h-450zM291 -379l-23 37q36 19 49 42.5t9 63.5h-43v119h102v-110q0 -59 -21 -92t-73 -60z" />
    <glyph glyph-name="lcommaaccent" unicode="&#x13c;" horiz-adv-x="327" 
d="M121 0v1448h86v-1448h-86zM121 -379l-23 37q36 19 49 42.5t9 63.5h-43v119h102v-110q0 -59 -21 -92t-73 -60z" />
    <glyph glyph-name="Lcaron" unicode="&#x13d;" horiz-adv-x="581" 
d="M115 0v1434h90v-1352h360v-82h-450zM285 1133l14 303h78v-4l-51 -299h-41z" />
    <glyph glyph-name="lcaron" unicode="&#x13e;" horiz-adv-x="327" 
d="M121 0v1448h86v-1448h-86zM274 1145l15 303h78v-4l-52 -299h-41z" />
    <glyph glyph-name="Ldot" unicode="&#x13f;" horiz-adv-x="581" 
d="M389 670v137h103v-137h-103zM115 0v1434h90v-1352h360v-82h-450z" />
    <glyph glyph-name="ldot" unicode="&#x140;" horiz-adv-x="425" 
d="M330 655v154h94v-154h-94zM121 0v1448h86v-1448h-86z" />
    <glyph glyph-name="Lslash" unicode="&#x141;" horiz-adv-x="593" 
d="M397 784l-180 -122v-580h361v-82h-451v600l-113 -78v101l113 73v738h90v-676l180 127v-101z" />
    <glyph glyph-name="lslash" unicode="&#x142;" horiz-adv-x="348" 
d="M338 801l-121 -80v-721h-86v662l-121 -82v100l121 80v688h86v-631l121 84v-100z" />
    <glyph glyph-name="Nacute" unicode="&#x143;" horiz-adv-x="860" 
d="M115 0v1434h98l446 -1205v1205h86v-1434h-88l-456 1233v-1233h-86zM393 1507l127 213l98 -45l-159 -168h-66z" />
    <glyph glyph-name="nacute" unicode="&#x144;" horiz-adv-x="761" 
d="M109 0v1075h86v-157q75 174 221 174q113 0 179.5 -88.5t66.5 -251.5v-752h-87v743q0 135 -45 205t-131 70q-87 0 -145.5 -81t-58.5 -210v-727h-86zM348 1180l131 256l96 -52l-167 -204h-60z" />
    <glyph glyph-name="Ncommaaccent" unicode="&#x145;" horiz-adv-x="860" 
d="M115 0v1434h98l446 -1205v1205h86v-1434h-88l-456 1233v-1233h-86zM387 -369l-22 37q36 19 48.5 42.5t8.5 64.5h-43v119h102v-111q0 -59 -21 -92t-73 -60z" />
    <glyph glyph-name="ncommaaccent" unicode="&#x146;" horiz-adv-x="761" 
d="M109 0v1075h86v-157q75 174 221 174q113 0 179.5 -88.5t66.5 -251.5v-752h-87v743q0 135 -45 205t-131 70q-87 0 -145.5 -81t-58.5 -210v-727h-86zM340 -369l-23 37q36 19 49 42.5t9 64.5h-43v119h102v-111q0 -59 -21 -92t-73 -60z" />
    <glyph glyph-name="Ncaron" unicode="&#x147;" horiz-adv-x="860" 
d="M115 0v1434h98l446 -1205v1205h86v-1434h-88l-456 1233v-1233h-86zM621 1716l-148 -198h-82l-147 198h86l104 -119l105 119h82z" />
    <glyph glyph-name="ncaron" unicode="&#x148;" horiz-adv-x="761" 
d="M109 0v1075h86v-157q75 174 221 174q113 0 179.5 -88.5t66.5 -251.5v-752h-87v743q0 135 -45 205t-131 70q-87 0 -145.5 -81t-58.5 -210v-727h-86zM557 1440l-137 -250h-70l-137 250h76l98 -154l98 154h72z" />
    <glyph glyph-name="Omacron" unicode="&#x14c;" horiz-adv-x="831" 
d="M416 -16q-152 0 -246 185.5t-94 530.5v33q0 345 94 531t246 186t246 -186t94 -531v-33q0 -345 -94 -530.5t-246 -185.5zM416 66q110 0 180 165t70 469v33q0 304 -70 469.5t-180 165.5t-180 -165.5t-70 -469.5v-33q0 -304 70 -469t180 -165zM221 1550v84h393v-84h-393z
" />
    <glyph glyph-name="omacron" unicode="&#x14d;" horiz-adv-x="741" 
d="M371 -16q-127 0 -216 149.5t-89 394.5v19q0 244 90.5 394.5t216.5 150.5t214.5 -150.5t88.5 -394.5v-19q0 -245 -89 -394.5t-216 -149.5zM371 63q93 0 156 128t63 337v19q0 209 -63 337t-156 128t-156 -128t-63 -337v-19q0 -209 63 -337t156 -128zM188 1204v80h369v-80
h-369z" />
    <glyph glyph-name="Obreve" unicode="&#x14e;" horiz-adv-x="831" 
d="M416 -16q-152 0 -246 185.5t-94 530.5v33q0 345 94 531t246 186t246 -186t94 -531v-33q0 -345 -94 -530.5t-246 -185.5zM416 66q110 0 180 165t70 469v33q0 304 -70 469.5t-180 165.5t-180 -165.5t-70 -469.5v-33q0 -304 70 -469t180 -165zM418 1532q-80 0 -131.5 41
t-61.5 121h76q24 -80 117 -80t117 80h75q-10 -80 -61 -121t-131 -41z" />
    <glyph glyph-name="obreve" unicode="&#x14f;" horiz-adv-x="741" 
d="M371 -16q-127 0 -216 149.5t-89 394.5v19q0 244 90.5 394.5t216.5 150.5t214.5 -150.5t88.5 -394.5v-19q0 -245 -89 -394.5t-216 -149.5zM371 63q93 0 156 128t63 337v19q0 209 -63 337t-156 128t-156 -128t-63 -337v-19q0 -209 63 -337t156 -128zM373 1186
q-81 0 -131 47.5t-60 144.5h74q21 -112 117 -112q95 0 116 112h74q-10 -97 -59.5 -144.5t-130.5 -47.5z" />
    <glyph glyph-name="Ohungarumlaut" unicode="&#x150;" horiz-adv-x="831" 
d="M416 -16q-152 0 -246 185.5t-94 530.5v33q0 345 94 531t246 186t246 -186t94 -531v-33q0 -345 -94 -530.5t-246 -185.5zM416 66q110 0 180 165t70 469v33q0 304 -70 469.5t-180 165.5t-180 -165.5t-70 -469.5v-33q0 -304 70 -469t180 -165zM281 1526l127 213l92 -43
l-156 -170h-63zM465 1526l127 213l92 -43l-156 -170h-63z" />
    <glyph glyph-name="ohungarumlaut" unicode="&#x151;" horiz-adv-x="741" 
d="M371 -16q-127 0 -216 149.5t-89 394.5v19q0 244 90.5 394.5t216.5 150.5t214.5 -150.5t88.5 -394.5v-19q0 -245 -89 -394.5t-216 -149.5zM371 63q93 0 156 128t63 337v19q0 209 -63 337t-156 128t-156 -128t-63 -337v-19q0 -209 63 -337t156 -128zM424 1180l131 256
l88 -47l-160 -209h-59zM231 1180l131 256l89 -47l-160 -209h-60z" />
    <glyph glyph-name="OE" unicode="&#x152;" horiz-adv-x="1144" 
d="M1087 0h-552q-207 0 -333 181.5t-126 516.5v37q0 335 126 517t333 182h546v-82h-397v-588h363v-82h-363v-600h403v-82zM537 82h57v1270h-62q-166 0 -266 -159.5t-100 -457.5v-37q0 -295 102.5 -455.5t268.5 -160.5z" />
    <glyph glyph-name="oe" unicode="&#x153;" horiz-adv-x="1228" 
d="M371 -16q-127 0 -216 149.5t-89 394.5v19q0 244 90.5 394.5t216.5 150.5q84 0 150.5 -69t103.5 -194q34 129 101.5 196t148.5 67q125 0 202.5 -139.5t77.5 -387.5v-63h-489q4 -212 78 -323t190 -111q50 0 91 14t95 49l11 -88q-57 -33 -101.5 -45t-107.5 -12
q-104 0 -182 70t-113 198q-37 -129 -104.5 -199.5t-153.5 -70.5zM668 578h405q0 187 -55 310.5t-141 123.5q-88 0 -145.5 -112.5t-63.5 -321.5zM371 63q93 0 156 128t63 337v19q0 209 -63 337t-156 128t-156 -128t-63 -337v-19q0 -209 63 -337t156 -128z" />
    <glyph glyph-name="Racute" unicode="&#x154;" horiz-adv-x="784" 
d="M115 0v1434h178q188 0 299 -111q113 -113 113 -311v-4q0 -148 -65 -252.5t-183 -149.5l274 -606h-106l-260 584q-38 -6 -80 -6h-80v-578h-90zM205 657h88q149 0 235 91.5t86 257.5v4q0 169 -86.5 255.5t-238.5 86.5h-84v-695zM324 1516l127 213l98 -46l-160 -167h-65z
" />
    <glyph glyph-name="racute" unicode="&#x155;" horiz-adv-x="479" 
d="M109 0v1075h86v-157q34 80 97 127.5t154 41.5v-92h-4q-109 0 -178 -69.5t-69 -204.5v-721h-86zM223 1180l131 256l97 -52l-168 -204h-60z" />
    <glyph glyph-name="Rcommaaccent" unicode="&#x156;" horiz-adv-x="784" 
d="M115 0v1434h178q188 0 299 -111q113 -113 113 -311v-4q0 -148 -65 -252.5t-183 -149.5l274 -606h-106l-260 584q-38 -6 -80 -6h-80v-578h-90zM205 657h88q149 0 235 91.5t86 257.5v4q0 169 -86.5 255.5t-238.5 86.5h-84v-695zM332 -369l-23 37q36 19 49 42.5t9 64.5h-43
v119h102v-111q0 -59 -21 -92t-73 -60z" />
    <glyph glyph-name="rcommaaccent" unicode="&#x157;" horiz-adv-x="479" 
d="M109 0v1075h86v-157q34 80 97 127.5t154 41.5v-92h-4q-109 0 -178 -69.5t-69 -204.5v-721h-86zM113 -379l-23 37q36 19 48.5 42t8.5 64h-43v119h103v-110q0 -59 -21 -92t-73 -60z" />
    <glyph glyph-name="Rcaron" unicode="&#x158;" horiz-adv-x="784" 
d="M115 0v1434h178q188 0 299 -111q113 -113 113 -311v-4q0 -148 -65 -252.5t-183 -149.5l274 -606h-106l-260 584q-38 -6 -80 -6h-80v-578h-90zM205 657h88q149 0 235 91.5t86 257.5v4q0 169 -86.5 255.5t-238.5 86.5h-84v-695zM549 1724l-148 -198h-82l-147 198h86
l104 -118l105 118h82z" />
    <glyph glyph-name="rcaron" unicode="&#x159;" horiz-adv-x="479" 
d="M109 0v1075h86v-157q34 80 97 127.5t154 41.5v-92h-4q-109 0 -178 -69.5t-69 -204.5v-721h-86zM432 1440l-137 -250h-70l-137 250h76l98 -154l98 154h72z" />
    <glyph glyph-name="Sacute" unicode="&#x15a;" horiz-adv-x="681" 
d="M317 -16q-112 0 -247 75v103q145 -92 249 -92q93 0 146 55t53 151v5q0 88 -39 166t-162 241q-148 198 -192.5 283.5t-44.5 181.5v4q0 127 81 210t199 83q106 0 218 -64v-102q-118 80 -220 80q-85 0 -136.5 -55t-51.5 -146v-4q0 -80 40 -154.5t163 -232.5
q134 -169 184.5 -270.5t50.5 -214.5v-4q0 -133 -83 -216t-208 -83zM319 1526l127 213l99 -45l-160 -168h-66z" />
    <glyph glyph-name="sacute" unicode="&#x15b;" horiz-adv-x="571" 
d="M266 -12q-104 0 -215 51v90q116 -61 219 -61q70 0 117 43t47 116v4q0 58 -38.5 120.5t-131.5 152.5q-122 117 -166.5 188.5t-44.5 155.5v4q0 108 72.5 171.5t171.5 63.5q100 0 178 -34v-90q-86 45 -182 45q-68 0 -111 -41t-43 -111v-4q0 -57 36.5 -113.5t133.5 -150.5
q116 -111 163.5 -189.5t47.5 -162.5v-5q0 -111 -75 -177t-179 -66zM252 1180l131 256l96 -52l-168 -204h-59z" />
    <glyph glyph-name="Scedilla" unicode="&#x15e;" horiz-adv-x="681" 
d="M301 -225l-94 39l98 170q-109 3 -235 75v103q145 -92 249 -92q93 0 146 55t53 151v5q0 88 -39 166t-162 241q-148 198 -192.5 283.5t-44.5 181.5v4q0 127 81 210t199 83q106 0 218 -64v-102q-118 80 -220 80q-85 0 -136.5 -55t-51.5 -146v-4q0 -80 40 -154.5t163 -232.5
q134 -169 184.5 -270.5t50.5 -214.5v-4q0 -119 -62 -196.5t-167 -96.5z" />
    <glyph glyph-name="scedilla" unicode="&#x15f;" horiz-adv-x="571" 
d="M242 -225l-95 39l101 174q-99 3 -197 51v90q116 -61 219 -61q70 0 117 43t47 116v4q0 58 -38.5 120.5t-131.5 152.5q-122 117 -166.5 188.5t-44.5 155.5v4q0 108 72.5 171.5t171.5 63.5q100 0 178 -34v-90q-86 45 -182 45q-68 0 -111 -41t-43 -111v-4q0 -57 36.5 -113.5
t133.5 -150.5q116 -111 163.5 -189.5t47.5 -162.5v-5q0 -94 -56 -156.5t-142 -80.5z" />
    <glyph glyph-name="Scaron" unicode="&#x160;" horiz-adv-x="681" 
d="M317 -16q-112 0 -247 75v103q145 -92 249 -92q93 0 146 55t53 151v5q0 88 -39 166t-162 241q-148 198 -192.5 283.5t-44.5 181.5v4q0 127 81 210t199 83q106 0 218 -64v-102q-118 80 -220 80q-85 0 -136.5 -55t-51.5 -146v-4q0 -80 40 -154.5t163 -232.5
q134 -169 184.5 -270.5t50.5 -214.5v-4q0 -133 -83 -216t-208 -83zM545 1735l-148 -199h-82l-147 199h86l104 -119l105 119h82z" />
    <glyph glyph-name="scaron" unicode="&#x161;" horiz-adv-x="571" 
d="M266 -12q-104 0 -215 51v90q116 -61 219 -61q70 0 117 43t47 116v4q0 58 -38.5 120.5t-131.5 152.5q-122 117 -166.5 188.5t-44.5 155.5v4q0 108 72.5 171.5t171.5 63.5q100 0 178 -34v-90q-86 45 -182 45q-68 0 -111 -41t-43 -111v-4q0 -57 36.5 -113.5t133.5 -150.5
q116 -111 163.5 -189.5t47.5 -162.5v-5q0 -111 -75 -177t-179 -66zM461 1440l-137 -250h-70l-137 250h76l98 -154l98 154h72z" />
    <glyph glyph-name="Tcommaaccent" unicode="&#x162;" horiz-adv-x="606" 
d="M258 0v1352h-233v82h557v-82h-234v-1352h-90zM260 -379l-22 37q36 19 48.5 42t8.5 64h-43v119h102v-110q0 -59 -21 -92t-73 -60z" />
    <glyph glyph-name="Tcommaaccent" unicode="&#x21a;" horiz-adv-x="606" 
d="M258 0v1352h-233v82h557v-82h-234v-1352h-90zM260 -379l-22 37q36 19 48.5 42t8.5 64h-43v119h102v-110q0 -59 -21 -92t-73 -60z" />
    <glyph glyph-name="tcommaaccent" unicode="&#x163;" horiz-adv-x="460" 
d="M332 -8q-93 0 -142 44t-49 144v815h-102v80h102v303h86v-303h174v-80h-174v-802q0 -68 27.5 -93.5t85.5 -25.5q39 0 66 10v-80q-34 -12 -74 -12zM229 -379l-22 37q36 19 48.5 42t8.5 64h-43v119h103v-110q0 -59 -21.5 -92t-73.5 -60z" />
    <glyph glyph-name="tcommaaccent" unicode="&#x21b;" horiz-adv-x="460" 
d="M332 -8q-93 0 -142 44t-49 144v815h-102v80h102v303h86v-303h174v-80h-174v-802q0 -68 27.5 -93.5t85.5 -25.5q39 0 66 10v-80q-34 -12 -74 -12zM229 -379l-22 37q36 19 48.5 42t8.5 64h-43v119h103v-110q0 -59 -21.5 -92t-73.5 -60z" />
    <glyph glyph-name="Tcaron" unicode="&#x164;" horiz-adv-x="606" 
d="M258 0v1352h-233v82h557v-82h-234v-1352h-90zM494 1724l-148 -198h-82l-147 198h86l104 -118l105 118h82z" />
    <glyph glyph-name="tcaron" unicode="&#x165;" horiz-adv-x="460" 
d="M332 -8q-93 0 -142 44t-49 144v815h-102v80h102v303h86v-303h174v-80h-174v-802q0 -68 27.5 -93.5t85.5 -25.5q39 0 66 10v-80q-34 -12 -74 -12zM315 1145l15 303h78v-4l-52 -299h-41z" />
    <glyph glyph-name="Umacron" unicode="&#x16a;" horiz-adv-x="833" 
d="M416 -18q-143 0 -226.5 104t-83.5 283v1065h91v-1067q0 -147 57.5 -225.5t161.5 -78.5t162.5 79t58.5 225v1067h90v-1065q0 -179 -84 -283t-227 -104zM221 1532v84h393v-84h-393z" />
    <glyph glyph-name="umacron" unicode="&#x16b;" horiz-adv-x="761" 
d="M346 -16q-113 0 -179.5 88.5t-66.5 251.5v751h86v-743q0 -135 45 -205t131 -70q88 0 146.5 81t58.5 210v727h86v-1075h-86v158q-75 -174 -221 -174zM195 1196v80h368v-80h-368z" />
    <glyph glyph-name="Ubreve" unicode="&#x16c;" horiz-adv-x="833" 
d="M416 -18q-143 0 -226.5 104t-83.5 283v1065h91v-1067q0 -147 57.5 -225.5t161.5 -78.5t162.5 79t58.5 225v1067h90v-1065q0 -179 -84 -283t-227 -104zM418 1513q-80 0 -131.5 41t-61.5 121h76q24 -80 117 -80t117 80h75q-10 -80 -61 -121t-131 -41z" />
    <glyph glyph-name="ubreve" unicode="&#x16d;" horiz-adv-x="761" 
d="M346 -16q-113 0 -179.5 88.5t-66.5 251.5v751h86v-743q0 -135 45 -205t131 -70q88 0 146.5 81t58.5 210v727h86v-1075h-86v158q-75 -174 -221 -174zM379 1178q-81 0 -131 47.5t-60 144.5h74q21 -113 117 -113t117 113h73q-10 -97 -59.5 -144.5t-130.5 -47.5z" />
    <glyph glyph-name="Uring" unicode="&#x16e;" horiz-adv-x="833" 
d="M416 -18q-143 0 -226.5 104t-83.5 283v1065h91v-1067q0 -147 57.5 -225.5t161.5 -78.5t162.5 79t58.5 225v1067h90v-1065q0 -179 -84 -283t-227 -104zM416 1489q-68 0 -114 43t-46 108t48 108.5t116 43.5t114 -43t46 -109q0 -65 -48 -108t-116 -43zM418 1544
q43 0 70.5 27.5t27.5 68.5q0 42 -28 69.5t-70 27.5q-43 0 -71 -28t-28 -69t28 -68.5t71 -27.5z" />
    <glyph glyph-name="uring" unicode="&#x16f;" horiz-adv-x="761" 
d="M346 -16q-113 0 -179.5 88.5t-66.5 251.5v751h86v-743q0 -135 45 -205t131 -70q88 0 146.5 81t58.5 210v727h86v-1075h-86v158q-75 -174 -221 -174zM377 1153q-68 0 -114 47t-46 115t47.5 115t116.5 47q68 0 114 -47t46 -115t-47.5 -115t-116.5 -47zM379 1206q44 0 73 31
t29 78t-29 77.5t-73 30.5t-73.5 -30.5t-29.5 -77.5t29.5 -78t73.5 -31z" />
    <glyph glyph-name="Uhungarumlaut" unicode="&#x170;" horiz-adv-x="833" 
d="M416 -18q-143 0 -226.5 104t-83.5 283v1065h91v-1067q0 -147 57.5 -225.5t161.5 -78.5t162.5 79t58.5 225v1067h90v-1065q0 -179 -84 -283t-227 -104zM281 1507l127 213l92 -43l-156 -170h-63zM465 1507l127 213l92 -43l-156 -170h-63z" />
    <glyph glyph-name="uhungarumlaut" unicode="&#x171;" horiz-adv-x="761" 
d="M346 -16q-113 0 -179.5 88.5t-66.5 251.5v751h86v-743q0 -135 45 -205t131 -70q88 0 146.5 81t58.5 210v727h86v-1075h-86v158q-75 -174 -221 -174zM430 1171l131 256l88 -47l-160 -209h-59zM238 1171l131 256l88 -47l-160 -209h-59z" />
    <glyph glyph-name="Uogonek" unicode="&#x172;" horiz-adv-x="833" 
d="M492 -178v-66q-23 -2 -41 -2q-127 0 -127 96q0 59 63 134q-131 11 -206 112.5t-75 272.5v1065h91v-1067q0 -147 57.5 -225.5t161.5 -78.5t162.5 79t58.5 225v1067h90v-1065q0 -167 -73.5 -270t-202.5 -115q-45 -64 -45 -109q0 -53 86 -53z" />
    <glyph glyph-name="uogonek" unicode="&#x173;" horiz-adv-x="761" 
d="M670 -178v-66q-23 -2 -41 -2q-127 0 -127 96q0 64 80 150h-15v158q-75 -174 -221 -174q-113 0 -179.5 88.5t-66.5 251.5v751h86v-743q0 -135 45 -205t131 -70q88 0 146.5 81t58.5 210v727h86v-1075h-12q-57 -79 -57 -125q0 -53 86 -53z" />
    <glyph glyph-name="Wcircumflex" unicode="&#x174;" horiz-adv-x="1251" 
d="M309 -10l-248 1444h97l194 -1252l234 1252h84l231 -1252l197 1252h92l-248 -1444h-84l-231 1251l-234 -1251h-84zM436 1526l148 198h82l147 -198h-86l-104 119l-105 -119h-82z" />
    <glyph glyph-name="wcircumflex" unicode="&#x175;" horiz-adv-x="1091" 
d="M289 -6l-223 1081h90l172 -932l182 932h78l178 -932l176 932h84l-223 -1081h-78l-180 905l-178 -905h-78zM373 1182l137 250h70l137 -250h-76l-98 153l-99 -153h-71z" />
    <glyph glyph-name="Ycircumflex" unicode="&#x176;" horiz-adv-x="720" 
d="M315 0v618l-299 816h99l247 -703l250 703h93l-299 -816v-618h-91zM174 1518l148 198h81l148 -198h-86l-105 118l-104 -118h-82z" />
    <glyph glyph-name="ycircumflex" unicode="&#x177;" horiz-adv-x="708" 
d="M354 158l213 917h86l-325 -1341h-82v2l67 274l-260 1065h88zM182 1182l137 250h70l137 -250h-75l-99 153l-98 -153h-72z" />
    <glyph glyph-name="Ydieresis" unicode="&#x178;" horiz-adv-x="720" 
d="M315 0v618l-299 816h99l247 -703l250 703h93l-299 -816v-618h-91zM418 1528v129h102v-129h-102zM205 1528v129h102v-129h-102z" />
    <glyph glyph-name="Zacute" unicode="&#x179;" horiz-adv-x="688" 
d="M61 0v53l476 1303h-453v78h547v-54l-475 -1302h475v-78h-570zM317 1516l127 213l99 -46l-160 -167h-66z" />
    <glyph glyph-name="zacute" unicode="&#x17a;" horiz-adv-x="593" 
d="M53 0v51l391 948h-370v76h465v-51l-392 -948h381v-76h-475zM268 1180l131 256l97 -52l-168 -204h-60z" />
    <glyph glyph-name="Zdotaccent" unicode="&#x17b;" horiz-adv-x="688" 
d="M61 0v53l476 1303h-453v78h547v-54l-475 -1302h475v-78h-570zM301 1536v129h107v-129h-107z" />
    <glyph glyph-name="zdotaccent" unicode="&#x17c;" horiz-adv-x="593" 
d="M53 0v51l391 948h-370v76h465v-51l-392 -948h381v-76h-475zM254 1200v137h102v-137h-102z" />
    <glyph glyph-name="Zcaron" unicode="&#x17d;" horiz-adv-x="688" 
d="M61 0v53l476 1303h-453v78h547v-54l-475 -1302h475v-78h-570zM543 1724l-148 -198h-82l-147 198h86l104 -118l105 118h82z" />
    <glyph glyph-name="zcaron" unicode="&#x17e;" horiz-adv-x="593" 
d="M53 0v51l391 948h-370v76h465v-51l-392 -948h381v-76h-475zM477 1440l-137 -250h-70l-137 250h76l98 -154l99 154h71z" />
    <glyph glyph-name="uni018F" unicode="&#x18f;" horiz-adv-x="794" 
d="M129 1288l-10 90q97 72 217 72q178 0 280.5 -180.5t102.5 -524.5v-24q0 -364 -86 -550.5t-234 -186.5q-144 0 -228.5 180.5t-84.5 523.5v82h543q0 293 -81 443.5t-218 150.5q-100 0 -201 -76zM401 66q102 0 165 161.5t63 460.5h-453q0 -306 59.5 -464t165.5 -158z" />
    <glyph glyph-name="florin" unicode="&#x192;" horiz-adv-x="661" 
d="M100 -10q-28 0 -82 14v84q42 -14 82 -14q99 0 113 153l57 570h-116v73h122l35 342q11 111 64.5 171.5t144.5 60.5q62 0 113 -23v-90q-55 25 -113 25q-51 0 -83.5 -41t-39.5 -119l-32 -326h202v-73h-209l-57 -576q-12 -121 -60.5 -176t-140.5 -55z" />
    <glyph glyph-name="Aringacute" unicode="&#x1fa;" horiz-adv-x="839" 
d="M57 0l297 1364q-45 18 -71.5 55t-26.5 86q0 65 48 108.5t116 43.5t114 -43t46 -109q0 -46 -26.5 -83t-70.5 -56l299 -1366h-94l-84 401h-373l-84 -401h-90zM248 483h340l-170 815zM418 1409q43 0 70.5 27.5t27.5 68.5t-28 69t-70 28q-43 0 -71 -28t-28 -69t28 -68.5
t71 -27.5zM383 1700l129 172l92 -41l-151 -131h-70z" />
    <glyph glyph-name="aringacute" unicode="&#x1fb;" horiz-adv-x="706" 
d="M311 1569l138 205l88 -48l-162 -157h-64zM303 -18q-108 0 -177 94t-69 237v17q0 153 75.5 248.5t207.5 95.5q93 0 180 -41v135q0 115 -51.5 176.5t-153.5 61.5q-108 0 -198 -50v84q89 47 202 47q132 0 209 -77q78 -78 78 -232v-778h-86v156q-71 -174 -217 -174zM315 57
q90 0 147.5 84t57.5 195v215q-91 43 -176 43q-97 0 -149 -71.5t-52 -188.5v-17q0 -114 45 -187t127 -73zM348 1182q-69 0 -114.5 46.5t-45.5 114.5t47.5 115t116.5 47q68 0 114 -47t46 -115t-47.5 -114.5t-116.5 -46.5zM350 1235q44 0 73.5 30.5t29.5 77.5t-29.5 78
t-73.5 31t-73 -31t-29 -78t29 -77.5t73 -30.5z" />
    <glyph glyph-name="AEacute" unicode="&#x1fc;" horiz-adv-x="1052" 
d="M16 0l404 1434h569v-82h-397v-588h362v-82h-362v-600h403v-82h-493v401h-285l-113 -401h-88zM240 483h262v869h-21zM549 1516l127 213l98 -46l-160 -167h-65z" />
    <glyph glyph-name="aeacute" unicode="&#x1fd;" horiz-adv-x="1155" 
d="M303 -18q-108 0 -177 94t-69 237v17q0 153 75.5 248.5t207.5 95.5q93 0 180 -41v135q0 115 -51.5 176.5t-153.5 61.5q-108 0 -198 -50v84q89 47 202 47q208 0 261 -182q38 91 96 139t127 48q125 0 202.5 -139.5t77.5 -387.5v-63h-489q4 -212 78 -323t190 -111
q50 0 91.5 14t95.5 49l10 -88q-57 -33 -101.5 -45t-107.5 -12q-95 0 -171.5 61.5t-119.5 181.5q-33 -108 -97 -177.5t-159 -69.5zM594 578h405q0 187 -55 310.5t-141 123.5q-88 0 -145.5 -112.5t-63.5 -321.5zM315 57q81 0 136.5 79t80.5 192q-21 120 -16 227
q-98 39 -172 39q-97 0 -149 -71.5t-52 -188.5v-17q0 -114 45 -187t127 -73zM532 1180l132 256l96 -52l-168 -204h-60z" />
    <glyph glyph-name="Oslashacute" unicode="&#x1fe;" horiz-adv-x="831" 
d="M670 1450h88l-86 -209q84 -185 84 -508v-33q0 -345 -94 -530.5t-246 -185.5q-123 0 -205 116l-49 -116h-88l86 209q-84 185 -84 507v33q0 345 94 531t246 186q123 0 205 -119zM164 733v-33q0 -242 43 -393l379 924q-65 139 -170 139q-110 0 -181 -166.5t-71 -470.5z
M416 63q110 0 181 166.5t71 470.5v33q0 232 -43 391l-379 -923q64 -138 170 -138zM381 1526l127 213l98 -45l-160 -168h-65z" />
    <glyph glyph-name="oslashacute" unicode="&#x1ff;" horiz-adv-x="741" 
d="M586 1083h82l-74 -153q82 -161 82 -383v-19q0 -245 -89 -394.5t-216 -149.5q-96 0 -176 92l-39 -84h-82l73 155q-81 146 -81 381v19q0 244 90.5 394.5t216.5 150.5q93 0 174 -93zM150 547v-19q0 -177 40 -290l324 677q-62 99 -143 99q-93 0 -157 -129t-64 -338zM371 61
q93 0 157 129t64 338v19q0 168 -41 289l-324 -676q57 -99 144 -99zM336 1180l131 256l96 -52l-168 -204h-59z" />
    <glyph glyph-name="Scommaaccent" unicode="&#x218;" horiz-adv-x="681" 
d="M317 -16q-112 0 -247 75v103q145 -92 249 -92q93 0 146 55t53 151v5q0 88 -39 166t-162 241q-148 198 -192.5 283.5t-44.5 181.5v4q0 127 81 210t199 83q106 0 218 -64v-102q-118 80 -220 80q-85 0 -136.5 -55t-51.5 -146v-4q0 -80 40 -154.5t163 -232.5
q134 -169 184.5 -270.5t50.5 -214.5v-4q0 -133 -83 -216t-208 -83zM279 -379l-23 37q36 19 48.5 42t8.5 64h-43v119h103v-110q0 -59 -21 -92t-73 -60z" />
    <glyph glyph-name="scommaaccent" unicode="&#x219;" horiz-adv-x="571" 
d="M266 -12q-104 0 -215 51v90q116 -61 219 -61q70 0 117 43t47 116v4q0 58 -38.5 120.5t-131.5 152.5q-122 117 -166.5 188.5t-44.5 155.5v4q0 108 72.5 171.5t171.5 63.5q100 0 178 -34v-90q-86 45 -182 45q-68 0 -111 -41t-43 -111v-4q0 -57 36.5 -113.5t133.5 -150.5
q116 -111 163.5 -189.5t47.5 -162.5v-5q0 -111 -75 -177t-179 -66zM231 -379l-22 37q36 19 48.5 42t8.5 64h-43v119h103v-110q0 -59 -21.5 -92t-73.5 -60z" />
    <glyph glyph-name="schwa" unicode="&#x259;" horiz-adv-x="712" 
d="M305 1090q144 0 243 -139.5t99 -393.5v-18q0 -267 -84.5 -411t-210.5 -144q-125 0 -202.5 139t-77.5 387v63h489q-4 212 -78.5 323.5t-189.5 111.5q-49 0 -91 -14.5t-96 -49.5l-10 88q58 33 102.5 45.5t106.5 12.5zM561 498h-405q0 -187 55 -311t141 -124q89 0 146 113
t63 322z" />
    <glyph glyph-name="circumflex" unicode="&#x2c6;" horiz-adv-x="1024" 
d="M340 1190l137 250h70l137 -250h-76l-98 153l-98 -153h-72z" />
    <glyph glyph-name="caron" unicode="&#x2c7;" horiz-adv-x="1024" 
d="M684 1440l-137 -250h-70l-137 250h76l98 -154l98 154h72z" />
    <glyph glyph-name="breve" unicode="&#x2d8;" horiz-adv-x="1024" 
d="M512 1186q-81 0 -130.5 47.5t-59.5 144.5h73q21 -112 117 -112t117 112h73q-10 -97 -59.5 -144.5t-130.5 -47.5z" />
    <glyph glyph-name="dotaccent" unicode="&#x2d9;" horiz-adv-x="1024" 
d="M461 1200v137h102v-137h-102z" />
    <glyph glyph-name="ring" unicode="&#x2da;" horiz-adv-x="1024" 
d="M510 1182q-69 0 -114.5 46.5t-45.5 114.5t47.5 115t116.5 47q68 0 114 -47t46 -115t-47.5 -114.5t-116.5 -46.5zM512 1235q44 0 73 30.5t29 77.5t-29 78t-73 31t-73 -31t-29 -78t29 -77.5t73 -30.5z" />
    <glyph glyph-name="ogonek" unicode="&#x2db;" horiz-adv-x="1024" 
d="M592 -178v-66q-23 -2 -41 -2q-127 0 -127 96q0 64 88 158h57q-63 -84 -63 -133q0 -53 86 -53z" />
    <glyph glyph-name="tilde" unicode="&#x2dc;" horiz-adv-x="1024" 
d="M602 1184q-30 0 -49 11t-53 42q-47 47 -70 47q-33 0 -57 -92l-62 16q38 154 111 154q30 0 49 -11t53 -42q47 -47 70 -47q33 0 57 92l62 -17q-37 -153 -111 -153z" />
    <glyph glyph-name="hungarumlaut" unicode="&#x2dd;" horiz-adv-x="1024" 
d="M489 1180l132 256l88 -47l-160 -209h-60zM297 1180l131 256l88 -47l-160 -209h-59z" />
    <glyph glyph-name="commaaccent" unicode="&#x326;" horiz-adv-x="1024" 
d="M475 -379l-22 37q36 19 48.5 42t8.5 64h-43v119h102v-110q0 -59 -21 -92t-73 -60z" />
    <glyph glyph-name="uni0384" unicode="&#x384;" horiz-adv-x="1024" 
d="M410 1180l94 260l94 -47l-131 -213h-57z" />
    <glyph glyph-name="uni0385" unicode="&#x385;" horiz-adv-x="1024" 
d="M604 1200v137h90v-137h-90zM346 1200v137h90v-137h-90zM469 1200l43 264l90 -22l-76 -242h-57z" />
    <glyph glyph-name="uni0386" unicode="&#x386;" horiz-adv-x="839" 
d="M57 0l314 1440h98l313 -1440h-94l-84 401h-373l-84 -401h-90zM248 483h340l-170 815zM84 1124l14 310h90l-49 -310h-55z" />
    <glyph glyph-name="uni0387" unicode="&#x387;" horiz-adv-x="327" 
d="M100 907v168h127v-168h-127z" />
    <glyph glyph-name="uni0388" unicode="&#x388;" horiz-adv-x="665" 
d="M115 0v1434h487v-82h-397v-588h362v-82h-362v-600h403v-82h-493zM-90 1124l14 310h90l-49 -310h-55z" />
    <glyph glyph-name="uni0389" unicode="&#x389;" horiz-adv-x="851" 
d="M115 0v1434h90v-672h442v672h90v-1434h-90v680h-442v-680h-90zM-90 1124l14 310h90l-49 -310h-55z" />
    <glyph glyph-name="uni038A" unicode="&#x38a;" horiz-adv-x="348" 
d="M129 0v1434h90v-1434h-90zM-76 1124l15 310h90l-49 -310h-56z" />
    <glyph glyph-name="uni038C" unicode="&#x38c;" horiz-adv-x="831" 
d="M416 -16q-152 0 -246 185.5t-94 530.5v33q0 345 94 531t246 186t246 -186t94 -531v-33q0 -345 -94 -530.5t-246 -185.5zM416 66q110 0 180 165t70 469v33q0 304 -70 469.5t-180 165.5t-180 -165.5t-70 -469.5v-33q0 -304 70 -469t180 -165zM-57 1124l14 310h90l-49 -310
h-55z" />
    <glyph glyph-name="uni038E" unicode="&#x38e;" horiz-adv-x="720" 
d="M315 0v618l-299 816h99l247 -703l250 703h93l-299 -816v-618h-91zM-168 1124l14 310h91l-50 -310h-55z" />
    <glyph glyph-name="uni038F" unicode="&#x38f;" horiz-adv-x="860" 
d="M430 1450q159 0 251.5 -144.5t92.5 -426.5v-9q0 -395 -211 -788l221 2v-84h-303v76q203 389 203 794v9q0 244 -65.5 366.5t-188.5 122.5t-188.5 -122.5t-65.5 -366.5v-9q0 -405 203 -794v-76h-303v84l219 -2q-209 389 -209 788v9q0 282 92.5 426.5t251.5 144.5zM-57 1124
l14 310h90l-49 -310h-55z" />
    <glyph glyph-name="uni0390" unicode="&#x390;" horiz-adv-x="346" 
d="M104 193v882h86v-868q0 -78 21 -106.5t68 -28.5q20 0 51 8v-76q-34 -12 -68 -12q-76 0 -117 47t-41 154zM236 1200v137h90v-137h-90zM-23 1200v137h91v-137h-91zM100 1200l43 264l90 -22l-75 -242h-58z" />
    <glyph glyph-name="uni0391" unicode="&#x391;" horiz-adv-x="839" 
d="M57 0l314 1440h98l313 -1440h-94l-84 401h-373l-84 -401h-90zM248 483h340l-170 815z" />
    <glyph glyph-name="uni0392" unicode="&#x392;" horiz-adv-x="763" 
d="M115 0v1434h184q178 0 287 -109q96 -96 96 -250v-4q0 -147 -72.5 -231t-189.5 -115q133 -30 206.5 -118t73.5 -232v-4q0 -175 -118.5 -273t-321.5 -98h-145zM592 1067v4q0 130 -80.5 205.5t-216.5 75.5h-90v-588h63q158 0 241 80t83 223zM610 373v4q0 147 -87 226
t-247 79h-71v-600h57q164 0 256 75t92 216z" />
    <glyph glyph-name="uni0393" unicode="&#x393;" horiz-adv-x="581" 
d="M115 0v1434h450v-82h-360v-1352h-90z" />
    <glyph glyph-name="uni0394" unicode="&#x394;" horiz-adv-x="835" 
d="M68 0l-11 59l310 1381h102l309 -1381l-10 -59h-700zM152 84h528l-264 1227z" />
    <glyph glyph-name="uni0395" unicode="&#x395;" horiz-adv-x="665" 
d="M115 0v1434h487v-82h-397v-588h362v-82h-362v-600h403v-82h-493z" />
    <glyph glyph-name="uni0396" unicode="&#x396;" horiz-adv-x="688" 
d="M61 0v53l476 1303h-453v78h547v-54l-475 -1302h475v-78h-570z" />
    <glyph glyph-name="uni0397" unicode="&#x397;" horiz-adv-x="851" 
d="M115 0v1434h90v-672h442v672h90v-1434h-90v680h-442v-680h-90z" />
    <glyph glyph-name="uni0398" unicode="&#x398;" horiz-adv-x="831" 
d="M416 -16q-152 0 -246 185.5t-94 530.5v33q0 345 94 531t246 186t246 -186t94 -531v-33q0 -345 -94 -530.5t-246 -185.5zM416 66q110 0 180 165t70 469v33q0 304 -70 469.5t-180 165.5t-180 -165.5t-70 -469.5v-33q0 -304 70 -469t180 -165zM565 762v-82h-299v82h299z" />
    <glyph glyph-name="uni0399" unicode="&#x399;" horiz-adv-x="348" 
d="M129 0v1434h90v-1434h-90z" />
    <glyph glyph-name="uni039A" unicode="&#x39a;" horiz-adv-x="757" 
d="M115 0v1434h90v-813l397 813h103l-330 -648l370 -786h-98l-323 688l-119 -233v-455h-90z" />
    <glyph glyph-name="uni039B" unicode="&#x39b;" horiz-adv-x="819" 
d="M457 1440l305 -1440h-94l-260 1278l-261 -1278h-90l305 1440h95z" />
    <glyph glyph-name="uni039C" unicode="&#x39c;" horiz-adv-x="978" 
d="M115 0v1434h110l264 -801l267 801h108v-1434h-86v1235l-284 -834h-9l-284 834v-1235h-86z" />
    <glyph glyph-name="uni039D" unicode="&#x39d;" horiz-adv-x="860" 
d="M115 0v1434h98l446 -1205v1205h86v-1434h-88l-456 1233v-1233h-86z" />
    <glyph glyph-name="uni039E" unicode="&#x39e;" horiz-adv-x="645" 
d="M584 1352h-523v82h523v-82zM555 682h-465v82h465v-82zM588 0h-531v82h531v-82z" />
    <glyph glyph-name="uni039F" unicode="&#x39f;" horiz-adv-x="831" 
d="M416 -16q-152 0 -246 185.5t-94 530.5v33q0 345 94 531t246 186t246 -186t94 -531v-33q0 -345 -94 -530.5t-246 -185.5zM416 66q110 0 180 165t70 469v33q0 304 -70 469.5t-180 165.5t-180 -165.5t-70 -469.5v-33q0 -304 70 -469t180 -165z" />
    <glyph glyph-name="uni03A0" unicode="&#x3a0;" horiz-adv-x="851" 
d="M115 0v1434h622v-1434h-90v1352h-442v-1352h-90z" />
    <glyph glyph-name="uni03A1" unicode="&#x3a1;" horiz-adv-x="745" 
d="M115 0v1434h178q190 0 301 -121.5t111 -325.5v-4q0 -208 -110.5 -331.5t-309.5 -123.5h-80v-528h-90zM205 608h88q155 0 238 97.5t83 275.5v4q0 175 -87 271t-238 96h-84v-744z" />
    <glyph glyph-name="uni03A3" unicode="&#x3a3;" horiz-adv-x="681" 
d="M446 717l-284 -639h463v-78h-564v53l295 664l-295 665v52h557v-78h-456z" />
    <glyph glyph-name="uni03A4" unicode="&#x3a4;" horiz-adv-x="606" 
d="M258 0v1352h-233v82h557v-82h-234v-1352h-90z" />
    <glyph glyph-name="uni03A5" unicode="&#x3a5;" horiz-adv-x="720" 
d="M315 0v618l-299 816h99l247 -703l250 703h93l-299 -816v-618h-91z" />
    <glyph glyph-name="uni03A6" unicode="&#x3a6;" horiz-adv-x="1130" 
d="M520 -16v170q-210 12 -336.5 162t-126.5 401v10q0 251 126.5 401t336.5 162v174h90v-174q210 -12 336.5 -161.5t126.5 -399.5v-8q0 -254 -126.5 -404.5t-336.5 -162.5v-170h-90zM147 727v-10q0 -217 101 -343.5t274 -137.5v972q-173 -11 -274 -137.5t-101 -343.5z
M983 721v8q0 215 -102.5 343t-272.5 136v-972q173 11 274 139t101 346z" />
    <glyph glyph-name="uni03A7" unicode="&#x3a7;" horiz-adv-x="731" 
d="M567 1434h90l-239 -670l272 -764h-92l-236 666l-231 -666h-90l270 756l-243 678h92l202 -580z" />
    <glyph glyph-name="uni03A8" unicode="&#x3a8;" horiz-adv-x="1122" 
d="M1024 1434v-652q0 -112 -28 -191t-84 -126t-130.5 -68.5t-175.5 -23.5v-373h-90v373q-103 2 -177.5 23.5t-130 68.5t-83 125.5t-27.5 191.5v652h90v-650q0 -97 22 -161.5t67 -100t101 -50.5t138 -17v979h90v-979q65 2 112.5 11t90 30.5t69 57.5t41.5 92.5t15 133.5v654
h90z" />
    <glyph glyph-name="uni03A9" unicode="&#x3a9;" horiz-adv-x="860" 
d="M430 1450q159 0 251.5 -144.5t92.5 -426.5v-9q0 -395 -211 -788l221 2v-84h-303v76q203 389 203 794v9q0 244 -65.5 366.5t-188.5 122.5t-188.5 -122.5t-65.5 -366.5v-9q0 -405 203 -794v-76h-303v84l219 -2q-209 389 -209 788v9q0 282 92.5 426.5t251.5 144.5z" />
    <glyph glyph-name="uni03AA" unicode="&#x3aa;" horiz-adv-x="348" 
d="M129 0v1434h90v-1434h-90zM231 1536v129h103v-129h-103zM18 1536v129h103v-129h-103z" />
    <glyph glyph-name="uni03AB" unicode="&#x3ab;" horiz-adv-x="720" 
d="M315 0v618l-299 816h99l247 -703l250 703h93l-299 -816v-618h-91zM418 1528v129h102v-129h-102zM205 1528v129h102v-129h-102z" />
    <glyph glyph-name="uni03AC" unicode="&#x3ac;" horiz-adv-x="817" 
d="M801 80v-76q-35 -12 -68 -12q-76 0 -117 47t-41 154v12q-35 -100 -91.5 -160.5t-133.5 -60.5q-117 0 -198.5 143t-81.5 391v39q0 246 82 390.5t198 144.5q77 0 133.5 -61.5t91.5 -162.5v207h87v-868q0 -78 20.5 -106.5t67.5 -28.5q20 0 51 8zM360 59q86 0 153 124t67 329
v51q0 205 -67 329t-153 124q-88 0 -146 -122.5t-58 -338.5v-35q0 -216 58 -338.5t146 -122.5zM371 1180l94 260l94 -47l-131 -213h-57z" />
    <glyph glyph-name="uni03AD" unicode="&#x3ad;" horiz-adv-x="587" 
d="M455 504h-80q-105 0 -164 -61.5t-59 -166.5v-6q0 -96 52 -151.5t152 -55.5q91 0 185 43v-88q-87 -34 -189 -34q-136 0 -211 75t-75 207v8q0 100 49 172t139 101q-72 24 -125 86.5t-53 161.5v6q0 130 79 210.5t203 80.5q90 0 170 -41v-90q-90 51 -170 51
q-91 0 -143.5 -59.5t-52.5 -153.5v-4q0 -100 60.5 -155.5t154.5 -55.5h78v-80zM291 1180l94 260l94 -47l-131 -213h-57z" />
    <glyph glyph-name="uni03AE" unicode="&#x3ae;" horiz-adv-x="761" 
d="M195 0h-86v1075h86v-157q75 174 221 174q113 0 179.5 -88.5t66.5 -251.5v-1018h-87v1009q0 135 -45 205t-131 70q-87 0 -145.5 -81t-58.5 -210v-727zM358 1180l95 260l94 -47l-131 -213h-58z" />
    <glyph glyph-name="uni03AF" unicode="&#x3af;" horiz-adv-x="346" 
d="M104 193v882h86v-868q0 -78 21 -106.5t68 -28.5q20 0 51 8v-76q-34 -12 -68 -12q-76 0 -117 47t-41 154zM125 1180l94 260l94 -47l-131 -213h-57z" />
    <glyph glyph-name="uni03B0" unicode="&#x3b0;" horiz-adv-x="753" 
d="M377 -16q-135 0 -206 89t-71 255v747h86v-749q0 -263 191 -263q190 0 190 263v749h86v-747q0 -166 -70.5 -255t-205.5 -89zM463 1192v137h90v-137h-90zM205 1192v137h90v-137h-90zM328 1192l43 264l90 -22l-76 -242h-57z" />
    <glyph glyph-name="uni03B1" unicode="&#x3b1;" horiz-adv-x="817" 
d="M801 80v-76q-35 -12 -68 -12q-76 0 -117 47t-41 154v12q-35 -100 -91.5 -160.5t-133.5 -60.5q-117 0 -198.5 143t-81.5 391v39q0 246 82 390.5t198 144.5q77 0 133.5 -61.5t91.5 -162.5v207h87v-868q0 -78 20.5 -106.5t67.5 -28.5q20 0 51 8zM360 59q86 0 153 124t67 329
v51q0 205 -67 329t-153 124q-88 0 -146 -122.5t-58 -338.5v-35q0 -216 58 -338.5t146 -122.5z" />
    <glyph glyph-name="uni03B2" unicode="&#x3b2;" horiz-adv-x="763" 
d="M442 -14q-169 0 -249 223v-475h-84v1372q0 161 77 253.5t213 92.5q127 0 207 -94t80 -246v-10q0 -145 -68.5 -243t-164.5 -134q50 -16 92 -42.5t78.5 -68.5t57.5 -105.5t21 -143.5v-9q0 -177 -70.5 -273.5t-189.5 -96.5zM436 63q82 0 131 73t49 220v6q0 146 -79.5 234
t-225.5 88h-121v-186q0 -193 69.5 -314t176.5 -121zM190 1106v-354h115q141 0 218 99.5t77 248.5v6q0 124 -55 195t-148 71q-98 0 -152.5 -71t-54.5 -195z" />
    <glyph glyph-name="uni03B3" unicode="&#x3b3;" horiz-adv-x="712" 
d="M399 -266h-86v301l-258 1040h88l213 -915l217 915h84l-258 -1040v-301z" />
    <glyph glyph-name="uni03B4" unicode="&#x3b4;" horiz-adv-x="747" 
d="M154 1370v78h464v-80h-366l184 -252q140 -193 190 -340.5t50 -312.5v-8q0 -220 -87.5 -345.5t-217.5 -125.5q-134 0 -219.5 121t-85.5 341v11q0 184 70 338.5t212 308.5zM590 455v8q0 144 -40.5 275t-158.5 302q-127 -147 -183 -279t-56 -304v-11q0 -183 59.5 -283
t159.5 -100q96 0 157.5 104.5t61.5 287.5z" />
    <glyph glyph-name="uni03B5" unicode="&#x3b5;" horiz-adv-x="587" 
d="M455 504h-80q-105 0 -164 -61.5t-59 -166.5v-6q0 -96 52 -151.5t152 -55.5q91 0 185 43v-88q-87 -34 -189 -34q-136 0 -211 75t-75 207v8q0 100 49 172t139 101q-72 24 -125 86.5t-53 161.5v6q0 130 79 210.5t203 80.5q90 0 170 -41v-90q-90 51 -170 51
q-91 0 -143.5 -59.5t-52.5 -153.5v-4q0 -100 60.5 -155.5t154.5 -55.5h78v-80z" />
    <glyph glyph-name="uni03B6" unicode="&#x3b6;" horiz-adv-x="647" 
d="M594 59v-272h-84v211l-184 61q-149 48 -209 119t-60 184v5q0 72 30.5 156.5t117.5 252.5l291 592h-367v80h467v-51l-320 -652q-79 -161 -106 -236.5t-27 -135.5v-4q0 -87 47 -139.5t168 -92.5z" />
    <glyph glyph-name="uni03B7" unicode="&#x3b7;" horiz-adv-x="761" 
d="M195 0h-86v1075h86v-157q75 174 221 174q113 0 179.5 -88.5t66.5 -251.5v-1018h-87v1009q0 135 -45 205t-131 70q-87 0 -145.5 -81t-58.5 -210v-727z" />
    <glyph glyph-name="uni03B8" unicode="&#x3b8;" horiz-adv-x="778" 
d="M389 -16q-67 0 -120.5 40t-95 124t-63.5 225.5t-22 333.5v24q0 192 22 333t63.5 224.5t95 123.5t120.5 40t120.5 -40t95 -123.5t63.5 -224.5t22 -333v-24q0 -192 -22 -333.5t-63.5 -225.5t-95 -124t-120.5 -40zM389 63q99 0 156 149.5t61 469.5h-434q0 -317 59 -468
t158 -151zM389 1372q-64 0 -110.5 -60t-75 -199t-31.5 -351h434q-3 212 -31.5 351t-75 199t-110.5 60z" />
    <glyph glyph-name="uni03B9" unicode="&#x3b9;" horiz-adv-x="346" 
d="M104 193v882h86v-868q0 -78 21 -106.5t68 -28.5q20 0 51 8v-76q-34 -12 -68 -12q-76 0 -117 47t-41 154z" />
    <glyph glyph-name="uni03BA" unicode="&#x3ba;" horiz-adv-x="681" 
d="M195 1075v-631l333 631h97l-250 -448l266 -627h-94l-225 539l-127 -228v-311h-86v1075h86z" />
    <glyph glyph-name="uni03BB" unicode="&#x3bb;" horiz-adv-x="712" 
d="M143 0h-84l265 1096l-27 125q-20 89 -47.5 120t-79.5 31q-24 0 -51 -6v78q19 8 65 8q73 0 116.5 -43t68.5 -154l293 -1255h-89l-211 948z" />
    <glyph glyph-name="uni03BC" unicode="&#x3bc;" horiz-adv-x="817" 
d="M801 80v-76q-35 -12 -68 -12q-66 0 -104.5 33.5t-48.5 115.5q-31 -83 -79 -120t-116 -37q-140 0 -199 168h-2l4 -68q1 -13 3 -42t3 -54t1 -47v-207h-86v1341h86v-729q0 -132 54.5 -207.5t135.5 -75.5q84 0 137 75t53 206v731h87v-868q0 -78 20.5 -106.5t67.5 -28.5
q20 0 51 8z" />
    <glyph glyph-name="uni03BD" unicode="&#x3bd;" horiz-adv-x="712" 
d="M319 -6l-264 1081h88l213 -930l217 930h84l-264 -1081h-74z" />
    <glyph glyph-name="uni03BE" unicode="&#x3be;" horiz-adv-x="610" 
d="M553 1413v-90q-81 47 -162 47q-109 0 -169 -73t-60 -197v-4q0 -137 64.5 -215t181.5 -78h69v-78h-69q-121 0 -189.5 -75.5t-68.5 -219.5v-6q0 -51 9 -90.5t33.5 -81.5t74 -76.5t124.5 -60.5l166 -56v-272h-84v211l-111 37q-92 30 -153.5 71.5t-92.5 93t-43 102t-12 114.5
v8q0 264 211 340q-198 87 -198 332v6q0 152 85.5 251t229.5 99q94 0 164 -39z" />
    <glyph glyph-name="uni03BF" unicode="&#x3bf;" horiz-adv-x="741" 
d="M371 -16q-127 0 -216 149.5t-89 394.5v19q0 244 90.5 394.5t216.5 150.5t214.5 -150.5t88.5 -394.5v-19q0 -245 -89 -394.5t-216 -149.5zM371 63q93 0 156 128t63 337v19q0 209 -63 337t-156 128t-156 -128t-63 -337v-19q0 -209 63 -337t156 -128z" />
    <glyph glyph-name="uni03C0" unicode="&#x3c0;" horiz-adv-x="845" 
d="M588 193v802h-342v-995h-86v995h-142v80h797v-80h-141v-788q0 -78 20.5 -106.5t67.5 -28.5q20 0 51 8v-76q-34 -12 -68 -12q-76 0 -116.5 46.5t-40.5 154.5z" />
    <glyph glyph-name="uni03C1" unicode="&#x3c1;" horiz-adv-x="761" 
d="M100 -266v860q0 259 79 378.5t212 119.5q146 0 223.5 -143t77.5 -402v-29q0 -246 -82 -390t-198 -144q-77 0 -134 61.5t-92 161.5v-473h-86zM401 59q88 0 146.5 123t58.5 338v27q0 222 -53.5 343.5t-163.5 121.5q-100 0 -153.5 -97.5t-53.5 -320.5v-82q0 -205 66.5 -329
t152.5 -124z" />
    <glyph glyph-name="uni03C2" unicode="&#x3c2;" horiz-adv-x="575" 
d="M438 -213v211l-90 51q-151 85 -216.5 211t-65.5 320v14q0 233 88.5 364.5t234.5 131.5q80 0 133 -37v-95q-63 50 -133 50q-107 0 -172 -108t-65 -304v-14q0 -172 58.5 -278t188.5 -179l123 -68v-270h-84z" />
    <glyph glyph-name="uni03C3" unicode="&#x3c3;" horiz-adv-x="749" 
d="M371 -16q-128 0 -216.5 146.5t-88.5 389.5v19q0 244 90 390t225 146h348v-80l-209 2q71 -68 113.5 -183.5t42.5 -274.5v-19q0 -243 -88.5 -389.5t-216.5 -146.5zM371 63q93 0 156 126t63 331v19q0 204 -62.5 330t-156.5 126t-156.5 -125.5t-62.5 -330.5v-19
q0 -205 63 -331t156 -126z" />
    <glyph glyph-name="uni03C4" unicode="&#x3c4;" horiz-adv-x="561" 
d="M537 995h-222v-802q0 -69 26 -95t83 -26q40 0 90 16v-76q-46 -20 -102 -20q-92 0 -137.5 49t-45.5 152v802h-213v80h521v-80z" />
    <glyph glyph-name="uni03C5" unicode="&#x3c5;" horiz-adv-x="753" 
d="M377 -16q-135 0 -206 89t-71 255v747h86v-749q0 -263 191 -263q190 0 190 263v749h86v-747q0 -166 -70.5 -255t-205.5 -89z" />
    <glyph glyph-name="uni03C6" unicode="&#x3c6;" horiz-adv-x="1028" 
d="M557 -266h-86v262q-181 12 -293 155.5t-112 380.5v11q0 234 112.5 379t292.5 157v369h86v-369q180 -12 293 -157t113 -379v-11q0 -234 -113.5 -379t-292.5 -157v-262zM877 532v11q0 196 -86.5 320t-233.5 136v-925q147 12 233.5 137t86.5 321zM152 543v-11
q0 -196 86 -321t233 -137v925q-147 -12 -233 -135.5t-86 -320.5z" />
    <glyph glyph-name="uni03C7" unicode="&#x3c7;" horiz-adv-x="686" 
d="M139 1075l205 -555l203 555h86l-244 -633l273 -708h-87l-233 626l-231 -626h-86l272 704l-244 637h86z" />
    <glyph glyph-name="uni03C8" unicode="&#x3c8;" horiz-adv-x="1077" 
d="M582 -266h-86v266q-81 2 -148 24t-124.5 67t-90.5 127t-33 194v663h86v-661q0 -324 310 -336v1370h86v-1370q48 2 89 11.5t83 33t71 59t47.5 94t18.5 134.5v665h86v-663q0 -90 -22 -161t-59 -116.5t-88.5 -76t-106.5 -43.5t-119 -15v-266z" />
    <glyph glyph-name="uni03C9" unicode="&#x3c9;" horiz-adv-x="1163" 
d="M539 874h86v-325q0 -244 53.5 -365t148.5 -121q83 0 125.5 94.5t42.5 254.5v2q0 172 -38 328t-115 333h86q75 -179 114 -336t39 -329v-2q0 -191 -65 -305.5t-185 -114.5q-110 0 -168 82.5t-83 244.5q-18 -157 -80 -242t-170 -85q-120 0 -184 114t-64 308v2q0 316 154 663
h83q-77 -181 -114 -338.5t-37 -324.5v-2q0 -161 42.5 -254t123.5 -93q97 0 151 121t54 365v325z" />
    <glyph glyph-name="uni03CA" unicode="&#x3ca;" horiz-adv-x="346" 
d="M104 193v882h86v-868q0 -78 21 -106.5t68 -28.5q20 0 51 8v-76q-34 -12 -68 -12q-76 0 -117 47t-41 154zM207 1200v137h94v-137h-94zM2 1200v137h94v-137h-94z" />
    <glyph glyph-name="uni03CB" unicode="&#x3cb;" horiz-adv-x="753" 
d="M377 -16q-135 0 -206 89t-71 255v747h86v-749q0 -263 191 -263q190 0 190 263v749h86v-747q0 -166 -70.5 -255t-205.5 -89zM434 1192v137h94v-137h-94zM229 1192v137h95v-137h-95z" />
    <glyph glyph-name="uni03CC" unicode="&#x3cc;" horiz-adv-x="741" 
d="M371 -16q-127 0 -216 149.5t-89 394.5v19q0 244 90.5 394.5t216.5 150.5t214.5 -150.5t88.5 -394.5v-19q0 -245 -89 -394.5t-216 -149.5zM371 63q93 0 156 128t63 337v19q0 209 -63 337t-156 128t-156 -128t-63 -337v-19q0 -209 63 -337t156 -128zM346 1180l94 260
l95 -47l-132 -213h-57z" />
    <glyph glyph-name="uni03CD" unicode="&#x3cd;" horiz-adv-x="753" 
d="M377 -16q-135 0 -206 89t-71 255v747h86v-749q0 -263 191 -263q190 0 190 263v749h86v-747q0 -166 -70.5 -255t-205.5 -89zM352 1171l94 261l95 -48l-131 -213h-58z" />
    <glyph glyph-name="uni03CE" unicode="&#x3ce;" horiz-adv-x="1163" 
d="M539 874h86v-325q0 -244 53.5 -365t148.5 -121q83 0 125.5 94.5t42.5 254.5v2q0 172 -38 328t-115 333h86q75 -179 114 -336t39 -329v-2q0 -191 -65 -305.5t-185 -114.5q-110 0 -168 82.5t-83 244.5q-18 -157 -80 -242t-170 -85q-120 0 -184 114t-64 308v2q0 316 154 663
h83q-77 -181 -114 -338.5t-37 -324.5v-2q0 -161 42.5 -254t123.5 -93q97 0 151 121t54 365v325zM555 1171l94 261l94 -48l-131 -213h-57z" />
    <glyph glyph-name="uni0400" unicode="&#x400;" horiz-adv-x="665" 
d="M115 0v1434h487v-82h-397v-588h362v-82h-362v-600h403v-82h-493zM401 1516h-65l-160 167l98 46z" />
    <glyph glyph-name="uni0401" unicode="&#x401;" horiz-adv-x="665" 
d="M115 0v1434h487v-82h-397v-588h362v-82h-362v-600h403v-82h-493zM420 1536v129h102v-129h-102zM207 1536v129h102v-129h-102z" />
    <glyph glyph-name="uni0402" unicode="&#x402;" horiz-adv-x="890" 
d="M578 1434v-82h-244v-504q90 22 166 22q170 0 254 -101.5t84 -328.5v-8q0 -123 -23 -210t-66.5 -135.5t-98 -69.5t-126.5 -21h-16v82h4q57 0 96.5 13.5t73 50t50 108.5t16.5 182v8q0 181 -58.5 264.5t-193.5 83.5q-80 0 -162 -24v-764h-90v1352h-219v82h553z" />
    <glyph glyph-name="uni0403" unicode="&#x403;" horiz-adv-x="581" 
d="M115 0v1434h450v-82h-360v-1352h-90zM285 1516l127 213l98 -46l-160 -167h-65z" />
    <glyph glyph-name="uni0404" unicode="&#x404;" horiz-adv-x="700" 
d="M465 -12q-179 0 -284 178.5t-105 531.5v37q0 350 107.5 530.5t285.5 180.5q91 0 156 -35v-96q-74 45 -156 45q-137 0 -218 -152t-85 -444h383v-82h-383q1 -300 83 -454t220 -154q88 0 162 47v-92q-67 -41 -166 -41z" />
    <glyph glyph-name="uni0405" unicode="&#x405;" horiz-adv-x="681" 
d="M317 -16q-112 0 -247 75v103q145 -92 249 -92q93 0 146 55t53 151v5q0 88 -39 166t-162 241q-148 198 -192.5 283.5t-44.5 181.5v4q0 127 81 210t199 83q106 0 218 -64v-102q-118 80 -220 80q-85 0 -136.5 -55t-51.5 -146v-4q0 -80 40 -154.5t163 -232.5
q134 -169 184.5 -270.5t50.5 -214.5v-4q0 -133 -83 -216t-208 -83z" />
    <glyph glyph-name="uni0406" unicode="&#x406;" horiz-adv-x="348" 
d="M129 0v1434h90v-1434h-90z" />
    <glyph glyph-name="uni0407" unicode="&#x407;" horiz-adv-x="348" 
d="M129 0v1434h90v-1434h-90zM231 1536v129h103v-129h-103zM18 1536v129h103v-129h-103z" />
    <glyph glyph-name="uni0408" unicode="&#x408;" horiz-adv-x="483" 
d="M143 -10q-49 0 -102 16v84q53 -16 98 -16q69 0 108.5 42.5t39.5 127.5v1190h90v-1192q0 -121 -70 -191q-61 -61 -164 -61z" />
    <glyph glyph-name="uni0409" unicode="&#x409;" horiz-adv-x="1120" 
d="M502 0v1352h-6l-392 -1352h-88l418 1434h158v-537h76q190 0 300.5 -120t110.5 -322v-4q0 -205 -110.5 -328t-309.5 -123h-157zM592 82h76q153 0 237 96.5t84 270.5v4q0 171 -87.5 266.5t-237.5 95.5h-72v-733z" />
    <glyph glyph-name="uni040A" unicode="&#x40a;" horiz-adv-x="1253" 
d="M635 0v680h-430v-680h-90v1434h90v-672h430v672h90v-537h76q190 0 300.5 -120t110.5 -322v-4q0 -205 -110 -328t-309 -123h-158zM725 82h76q153 0 237 96.5t84 270.5v4q0 171 -87.5 266.5t-237.5 95.5h-72v-733z" />
    <glyph glyph-name="uni040B" unicode="&#x40b;" horiz-adv-x="931" 
d="M578 1434v-82h-244v-506q108 24 196 24q159 0 233.5 -75.5t74.5 -237.5v-557h-90v549q0 128 -50 183.5t-178 55.5q-84 0 -186 -26v-762h-90v1352h-219v82h553z" />
    <glyph glyph-name="uni040C" unicode="&#x40c;" horiz-adv-x="757" 
d="M115 0v1434h90v-668h108l293 668h99l-316 -707l356 -727h-100l-332 684h-108v-684h-90zM346 1507l127 213l98 -45l-159 -168h-66z" />
    <glyph glyph-name="uni040D" unicode="&#x40d;" horiz-adv-x="860" 
d="M745 0h-88v1262l-440 -1262h-102v1434h88v-1233l430 1233h112v-1434zM469 1507h-66l-159 168l98 45z" />
    <glyph glyph-name="uni040E" unicode="&#x40e;" horiz-adv-x="727" 
d="M303 0h-92l131 455l-311 979h92l264 -852l231 852h93zM379 1513q-80 0 -131.5 41t-61.5 121h76q24 -80 117 -80t117 80h75q-10 -80 -61 -121t-131 -41z" />
    <glyph glyph-name="uni040F" unicode="&#x40f;" horiz-adv-x="851" 
d="M381 -229v229h-266v1434h90v-1352h442v1352h90v-1434h-268v-229h-88z" />
    <glyph glyph-name="uni0410" unicode="&#x410;" horiz-adv-x="839" 
d="M57 0l314 1440h98l313 -1440h-94l-84 401h-373l-84 -401h-90zM248 483h340l-170 815z" />
    <glyph glyph-name="uni0411" unicode="&#x411;" horiz-adv-x="761" 
d="M115 0v1434h528v-82h-438v-516h92q189 0 298.5 -113t109.5 -299v-4q0 -189 -109 -304.5t-307 -115.5h-174zM205 82h92q152 0 234.5 89.5t82.5 246.5v4q0 154 -86 243t-235 89h-88v-672z" />
    <glyph glyph-name="uni0412" unicode="&#x412;" horiz-adv-x="763" 
d="M115 0v1434h184q178 0 287 -109q96 -96 96 -250v-4q0 -147 -72.5 -231t-189.5 -115q133 -30 206.5 -118t73.5 -232v-4q0 -175 -118.5 -273t-321.5 -98h-145zM592 1067v4q0 130 -80.5 205.5t-216.5 75.5h-90v-588h63q158 0 241 80t83 223zM610 373v4q0 147 -87 226
t-247 79h-71v-600h57q164 0 256 75t92 216z" />
    <glyph glyph-name="uni0413" unicode="&#x413;" horiz-adv-x="581" 
d="M115 0v1434h450v-82h-360v-1352h-90z" />
    <glyph glyph-name="uni0414" unicode="&#x414;" horiz-adv-x="888" 
d="M16 82h90l283 1358h111l280 -1358h92v-311h-86v229h-684v-229h-86v311zM442 1315l-245 -1233h491z" />
    <glyph glyph-name="uni0415" unicode="&#x415;" horiz-adv-x="665" 
d="M115 0v1434h487v-82h-397v-588h362v-82h-362v-600h403v-82h-493z" />
    <glyph glyph-name="uni0416" unicode="&#x416;" horiz-adv-x="1167" 
d="M49 1434h101l278 -668h111v668h90v-668h110l281 668h98l-303 -709l340 -725h-100l-318 684h-108v-684h-90v684h-113l-315 -684h-99l338 727z" />
    <glyph glyph-name="uni0417" unicode="&#x417;" horiz-adv-x="686" 
d="M82 1305v90q98 55 211 55q152 0 232.5 -94.5t80.5 -253.5v-6q0 -143 -65.5 -235.5t-167.5 -133.5q239 -72 239 -350v-4q0 -174 -94.5 -281.5t-261.5 -107.5q-115 0 -186 43v94q90 -51 188 -51q128 0 196 79.5t68 223.5v4q0 149 -76.5 227t-224.5 78h-55v82h55
q128 0 211.5 86t83.5 244v6q0 127 -58.5 195.5t-164.5 68.5t-211 -59z" />
    <glyph glyph-name="uni0418" unicode="&#x418;" horiz-adv-x="860" 
d="M745 0h-88v1262l-440 -1262h-102v1434h88v-1233l430 1233h112v-1434z" />
    <glyph glyph-name="uni0419" unicode="&#x419;" horiz-adv-x="860" 
d="M745 0h-88v1262l-440 -1262h-102v1434h88v-1233l430 1233h112v-1434zM420 1513q-80 0 -131.5 41t-61.5 121h76q24 -80 117 -80t117 80h75q-10 -80 -61 -121t-131 -41z" />
    <glyph glyph-name="uni041A" unicode="&#x41a;" horiz-adv-x="757" 
d="M115 0v1434h90v-668h108l293 668h99l-316 -707l356 -727h-100l-332 684h-108v-684h-90z" />
    <glyph glyph-name="uni041B" unicode="&#x41b;" horiz-adv-x="819" 
d="M457 1440l305 -1440h-94l-260 1278l-261 -1278h-90l305 1440h95z" />
    <glyph glyph-name="uni041C" unicode="&#x41c;" horiz-adv-x="978" 
d="M115 0v1434h110l264 -801l267 801h108v-1434h-86v1235l-284 -834h-9l-284 834v-1235h-86z" />
    <glyph glyph-name="uni041D" unicode="&#x41d;" horiz-adv-x="851" 
d="M115 0v1434h90v-672h442v672h90v-1434h-90v680h-442v-680h-90z" />
    <glyph glyph-name="uni041E" unicode="&#x41e;" horiz-adv-x="831" 
d="M416 -16q-152 0 -246 185.5t-94 530.5v33q0 345 94 531t246 186t246 -186t94 -531v-33q0 -345 -94 -530.5t-246 -185.5zM416 66q110 0 180 165t70 469v33q0 304 -70 469.5t-180 165.5t-180 -165.5t-70 -469.5v-33q0 -304 70 -469t180 -165z" />
    <glyph glyph-name="uni041F" unicode="&#x41f;" horiz-adv-x="851" 
d="M115 0v1434h622v-1434h-90v1352h-442v-1352h-90z" />
    <glyph glyph-name="uni0420" unicode="&#x420;" horiz-adv-x="745" 
d="M115 0v1434h178q190 0 301 -121.5t111 -325.5v-4q0 -208 -110.5 -331.5t-309.5 -123.5h-80v-528h-90zM205 608h88q155 0 238 97.5t83 275.5v4q0 175 -87 271t-238 96h-84v-744z" />
    <glyph glyph-name="uni0421" unicode="&#x421;" horiz-adv-x="673" 
d="M455 -12q-166 0 -272.5 183t-106.5 527v37q0 174 31 311.5t84 223.5t121.5 131t146.5 45q74 0 139 -35v-96q-80 45 -139 45q-125 0 -209 -165t-84 -460v-37q0 -295 84 -459.5t209 -164.5q71 0 145 47v-92q-67 -41 -149 -41z" />
    <glyph glyph-name="uni0422" unicode="&#x422;" horiz-adv-x="606" 
d="M258 0v1352h-233v82h557v-82h-234v-1352h-90z" />
    <glyph glyph-name="uni0423" unicode="&#x423;" horiz-adv-x="727" 
d="M303 0h-92l131 455l-311 979h92l264 -852l231 852h93z" />
    <glyph glyph-name="uni0424" unicode="&#x424;" horiz-adv-x="1130" 
d="M520 -16v170q-210 12 -336.5 162t-126.5 401v10q0 251 126.5 401t336.5 162v174h90v-174q210 -12 336.5 -161.5t126.5 -399.5v-8q0 -254 -126.5 -404.5t-336.5 -162.5v-170h-90zM147 727v-10q0 -217 101 -343.5t274 -137.5v972q-173 -11 -274 -137.5t-101 -343.5z
M983 721v8q0 215 -102.5 343t-272.5 136v-972q173 11 274 139t101 346z" />
    <glyph glyph-name="uni0425" unicode="&#x425;" horiz-adv-x="731" 
d="M567 1434h90l-239 -670l272 -764h-92l-236 666l-231 -666h-90l270 756l-243 678h92l202 -580z" />
    <glyph glyph-name="uni0426" unicode="&#x426;" horiz-adv-x="868" 
d="M750 -229v229h-635v1434h90v-1352h442v1352h90v-1352h101v-311h-88z" />
    <glyph glyph-name="uni0427" unicode="&#x427;" horiz-adv-x="802" 
d="M598 0v588q-112 -25 -197 -25q-159 0 -233 76t-74 238v557h90v-549q0 -128 49.5 -184t178.5 -56q83 0 186 25v764h90v-1434h-90z" />
    <glyph glyph-name="uni0428" unicode="&#x428;" horiz-adv-x="1310" 
d="M115 0v1434h90v-1352h405v1352h90v-1352h406v1352h90v-1434h-1081z" />
    <glyph glyph-name="uni0429" unicode="&#x429;" horiz-adv-x="1327" 
d="M115 0v1434h90v-1352h405v1352h90v-1352h406v1352h90v-1352h100v-311h-88v229h-1093z" />
    <glyph glyph-name="uni042A" unicode="&#x42a;" horiz-adv-x="884" 
d="M254 0v1352h-229v82h319v-537h88q190 0 301 -120t111 -322v-4q0 -205 -110.5 -328t-309.5 -123h-170zM344 82h88q153 0 237.5 96.5t84.5 270.5v4q0 171 -88 266.5t-238 95.5h-84v-733z" />
    <glyph glyph-name="uni042B" unicode="&#x42b;" horiz-adv-x="1058" 
d="M115 0v1434h90v-537h88q190 0 301 -120t111 -322v-4q0 -205 -110.5 -328t-309.5 -123h-170zM205 82h88q153 0 237 96.5t84 270.5v4q0 171 -87.5 266.5t-237.5 95.5h-84v-733zM854 0v1434h90v-1434h-90z" />
    <glyph glyph-name="uni042C" unicode="&#x42c;" horiz-adv-x="745" 
d="M115 0v1434h90v-537h88q190 0 301 -120t111 -322v-4q0 -205 -110.5 -328t-309.5 -123h-170zM205 82h88q153 0 237 96.5t84 270.5v4q0 171 -87.5 266.5t-237.5 95.5h-84v-733z" />
    <glyph glyph-name="uni042D" unicode="&#x42d;" horiz-adv-x="700" 
d="M152 682v80h383q-4 292 -86.5 445t-215.5 153q-80 0 -157 -47v92q77 41 160 41q178 0 283.5 -178.5t105.5 -532.5v-37q0 -349 -109 -529.5t-285 -180.5q-89 0 -161 35v96q74 -45 161 -45q137 0 218.5 154.5t85.5 453.5h-383z" />
    <glyph glyph-name="uni042E" unicode="&#x42e;" horiz-adv-x="1134" 
d="M115 0v1434h90v-672h194q4 333 94 510.5t236 177.5q148 0 239 -186t91 -531v-33q0 -345 -91 -530.5t-239 -185.5q-147 0 -236.5 179.5t-93.5 516.5h-194v-680h-90zM729 66q108 0 174 164t66 470v33q0 306 -66 470.5t-174 164.5t-174 -164.5t-66 -470.5v-33
q0 -306 66 -470t174 -164z" />
    <glyph glyph-name="uni042F" unicode="&#x42f;" horiz-adv-x="784" 
d="M670 1434v-1434h-90v578h-84q-26 0 -76 4l-264 -582h-105l279 604q-119 44 -185 148t-65 245v4q0 203 112.5 318t313.5 115h164zM580 1352h-78q-158 0 -245 -87.5t-87 -260.5v-5q0 -163 87 -252.5t237 -89.5h86v695z" />
    <glyph glyph-name="uni0430" unicode="&#x430;" horiz-adv-x="706" 
d="M303 -18q-108 0 -177 94t-69 237v17q0 153 75.5 248.5t207.5 95.5q93 0 180 -41v135q0 115 -51.5 176.5t-153.5 61.5q-108 0 -198 -50v84q89 47 202 47q132 0 209 -77q78 -78 78 -232v-778h-86v156q-71 -174 -217 -174zM315 57q90 0 147.5 84t57.5 195v215
q-91 43 -176 43q-97 0 -149 -71.5t-52 -188.5v-17q0 -114 45 -187t127 -73z" />
    <glyph glyph-name="uni0431" unicode="&#x431;" horiz-adv-x="745" 
d="M379 -16q-103 0 -170 67q-69 69 -100 190.5t-31 327.5v27q0 151 5 251.5t20 196.5t41.5 155t71 108.5t108 77t151.5 42.5l162 27v-82l-162 -26q-62 -11 -107 -28.5t-79.5 -48t-56.5 -68.5t-38.5 -98.5t-25.5 -130t-16 -169.5q41 102 106.5 155.5t144.5 53.5
q127 0 202 -134.5t75 -351.5v-24q0 -237 -80.5 -377.5t-220.5 -140.5zM379 63q106 0 160.5 118t54.5 321v24q0 118 -21 207.5t-67.5 144t-112.5 54.5q-103 0 -167 -112t-64 -273v-49q0 -210 56.5 -322.5t160.5 -112.5z" />
    <glyph glyph-name="uni0432" unicode="&#x432;" horiz-adv-x="704" 
d="M109 0v1075h163q163 0 256 -68.5t93 -199.5v-2q0 -202 -213 -262q111 -23 171 -87t60 -163v-4q0 -142 -99.5 -215.5t-291.5 -73.5h-139zM195 580h69q129 0 200 58.5t71 162.5v4q0 190 -261 190h-79v-415zM195 502v-422h59q299 0 299 207v4q0 104 -74 157.5t-215 53.5h-69
z" />
    <glyph glyph-name="uni0433" unicode="&#x433;" horiz-adv-x="516" 
d="M109 0v1075h395v-80h-309v-995h-86z" />
    <glyph glyph-name="uni0434" unicode="&#x434;" horiz-adv-x="798" 
d="M442 1081l254 -1001h90v-293h-79v213h-615v-213h-80v293h90l254 1001h86zM399 946l-213 -866h420z" />
    <glyph glyph-name="uni0435" unicode="&#x435;" horiz-adv-x="712" 
d="M408 -14q-144 0 -243 139t-99 393v19q0 266 84 410.5t210 144.5q125 0 203 -140t78 -387v-63h-489q4 -212 78 -323t190 -111q50 0 91 14t95 49l10 -88q-58 -33 -102 -45t-106 -12zM152 578h405q0 187 -55.5 310.5t-141.5 123.5q-89 0 -145.5 -112t-62.5 -322z" />
    <glyph glyph-name="uni0436" unicode="&#x436;" horiz-adv-x="1060" 
d="M573 1075v-495h115l213 495h94l-237 -534l258 -541h-94l-234 500h-115v-500h-86v500h-114l-236 -500h-92l258 535l-237 540h96l211 -495h114v495h86z" />
    <glyph glyph-name="uni0437" unicode="&#x437;" horiz-adv-x="591" 
d="M47 18v91q88 -46 178 -46q99 0 155 57t56 159v6q0 104 -60.5 161.5t-170.5 57.5h-72v80h72q103 0 164 61t61 166v4q0 93 -47.5 145t-134.5 52q-95 0 -185 -51v88q87 43 185 43q127 0 197.5 -74t70.5 -199v-6q0 -107 -57.5 -174t-132.5 -92q196 -56 196 -260v-11
q0 -127 -79.5 -209.5t-217.5 -82.5q-97 0 -178 34z" />
    <glyph glyph-name="uni0438" unicode="&#x438;" horiz-adv-x="763" 
d="M109 0v1075h84v-889l366 889h96v-1075h-84v909l-374 -909h-88z" />
    <glyph glyph-name="uni0439" unicode="&#x439;" horiz-adv-x="763" 
d="M109 0v1075h84v-889l366 889h96v-1075h-84v909l-374 -909h-88zM379 1178q-81 0 -131 47.5t-60 144.5h74q21 -113 117 -113t117 113h73q-10 -97 -59.5 -144.5t-130.5 -47.5z" />
    <glyph glyph-name="uni043A" unicode="&#x43a;" horiz-adv-x="688" 
d="M195 1075v-495h114l219 495h97l-244 -534l266 -541h-96l-242 500h-114v-500h-86v1075h86z" />
    <glyph glyph-name="uni043B" unicode="&#x43b;" horiz-adv-x="729" 
d="M406 1081l268 -1081h-88l-221 940l-226 -940h-84l269 1081h82z" />
    <glyph glyph-name="uni043C" unicode="&#x43c;" horiz-adv-x="849" 
d="M109 0v1075h100l215 -616l219 616h98v-1075h-84v893l-229 -625h-6l-229 625v-893h-84z" />
    <glyph glyph-name="uni043D" unicode="&#x43d;" horiz-adv-x="765" 
d="M109 0v1075h86v-491h376v491h86v-1075h-86v504h-376v-504h-86z" />
    <glyph glyph-name="uni043E" unicode="&#x43e;" horiz-adv-x="741" 
d="M371 -16q-127 0 -216 149.5t-89 394.5v19q0 244 90.5 394.5t216.5 150.5t214.5 -150.5t88.5 -394.5v-19q0 -245 -89 -394.5t-216 -149.5zM371 63q93 0 156 128t63 337v19q0 209 -63 337t-156 128t-156 -128t-63 -337v-19q0 -209 63 -337t156 -128z" />
    <glyph glyph-name="uni043F" unicode="&#x43f;" horiz-adv-x="765" 
d="M109 0v1075h548v-1075h-86v995h-376v-995h-86z" />
    <glyph glyph-name="uni0440" unicode="&#x440;" horiz-adv-x="770" 
d="M109 -266v1341h86v-207q35 101 91.5 162.5t133.5 61.5q117 0 198.5 -143.5t81.5 -391.5v-39q0 -246 -82 -390t-198 -144q-77 0 -133.5 61t-91.5 162v-473h-86zM410 59q88 0 146 122.5t58 338.5v35q0 216 -58 338.5t-146 122.5q-86 0 -153 -124t-67 -329v-51
q0 -205 67 -329t153 -124z" />
    <glyph glyph-name="uni0441" unicode="&#x441;" horiz-adv-x="575" 
d="M393 -14q-65 0 -122.5 32t-104 95.5t-73.5 169t-27 241.5v21q0 262 96 403.5t231 141.5q79 0 129 -37v-95q-63 50 -131 50q-43 0 -84.5 -27.5t-76.5 -81.5t-56.5 -144.5t-21.5 -205.5v-29q0 -225 72 -338.5t175 -113.5q65 0 123 49v-90q-57 -41 -129 -41z" />
    <glyph glyph-name="uni0442" unicode="&#x442;" horiz-adv-x="544" 
d="M229 0v995h-209v80h504v-80h-209v-995h-86z" />
    <glyph glyph-name="uni0443" unicode="&#x443;" horiz-adv-x="708" 
d="M354 158l213 917h86l-325 -1341h-82v2l67 274l-260 1065h88z" />
    <glyph glyph-name="uni0444" unicode="&#x444;" horiz-adv-x="1028" 
d="M557 -266h-86v262q-181 12 -293 155.5t-112 380.5v11q0 234 112.5 379t292.5 157v369h86v-369q180 -12 293 -157t113 -379v-11q0 -234 -113.5 -379t-292.5 -157v-262zM877 532v11q0 196 -86.5 320t-233.5 136v-925q147 12 233.5 137t86.5 321zM152 543v-11
q0 -196 86 -321t233 -137v925q-147 -12 -233 -135.5t-86 -320.5z" />
    <glyph glyph-name="uni0445" unicode="&#x445;" horiz-adv-x="679" 
d="M158 1075l182 -442l182 442h90l-223 -516l242 -559h-92l-201 481l-199 -481h-90l240 555l-223 520h92z" />
    <glyph glyph-name="uni0446" unicode="&#x446;" horiz-adv-x="778" 
d="M674 -213v213h-565v1075h86v-995h376v995h86v-995h97v-293h-80z" />
    <glyph glyph-name="uni0447" unicode="&#x447;" horiz-adv-x="720" 
d="M526 0v434q-99 -18 -168 -18q-144 0 -207 65.5t-63 204.5v389h86v-383q0 -105 42 -149.5t149 -44.5q75 0 161 18v559h86v-1075h-86z" />
    <glyph glyph-name="uni0448" unicode="&#x448;" horiz-adv-x="1167" 
d="M109 0v1075h86v-995h346v995h86v-995h346v995h86v-1075h-950z" />
    <glyph glyph-name="uni0449" unicode="&#x449;" horiz-adv-x="1179" 
d="M109 0v1075h86v-995h346v995h86v-995h346v995h86v-995h96v-293h-80v213h-966z" />
    <glyph glyph-name="uni044A" unicode="&#x44a;" horiz-adv-x="776" 
d="M221 0v995h-201v80h201h86v-362h37q185 0 288 -93t103 -258v-4q0 -166 -104 -262t-291 -96h-119zM307 633v-553h47q139 0 218 73.5t79 202.5v4q0 132 -80.5 202.5t-218.5 70.5h-45z" />
    <glyph glyph-name="uni044B" unicode="&#x44b;" horiz-adv-x="954" 
d="M195 1075v-362h36q185 0 288.5 -93t103.5 -258v-4q0 -166 -104.5 -262t-291.5 -96h-118v1075h86zM195 633v-553h47q139 0 218 73.5t79 202.5v4q0 132 -80.5 202.5t-218.5 70.5h-45zM760 0v1075h86v-1075h-86z" />
    <glyph glyph-name="uni044C" unicode="&#x44c;" horiz-adv-x="663" 
d="M109 0v1075h86v-362h36q185 0 288.5 -93t103.5 -258v-4q0 -166 -104.5 -262t-291.5 -96h-118zM195 80h47q139 0 218 73.5t79 202.5v4q0 132 -80.5 202.5t-218.5 70.5h-45v-553z" />
    <glyph glyph-name="uni044D" unicode="&#x44d;" horiz-adv-x="610" 
d="M117 584h342q-7 216 -80 320t-184 104q-77 0 -142 -41v88q65 35 144 35q72 0 133 -30.5t110 -93t77 -169t28 -246.5v-21q0 -141 -28 -247.5t-77 -170t-110.5 -95t-134.5 -31.5q-84 0 -142 34v93q68 -45 144 -45q111 0 184.5 106t77.5 330h-342v80z" />
    <glyph glyph-name="uni044E" unicode="&#x44e;" horiz-adv-x="1024" 
d="M195 504v-504h-86v1075h86v-491h163q7 230 94.5 369t206.5 139q123 0 211 -150.5t88 -394.5v-19q0 -243 -88.5 -393.5t-212.5 -150.5q-120 0 -207.5 143t-91.5 377h-163zM657 63q92 0 153.5 128t61.5 337v19q0 209 -61.5 337t-153.5 128q-90 0 -151.5 -128t-61.5 -337
v-19q0 -209 61.5 -337t151.5 -128z" />
    <glyph glyph-name="uni044F" unicode="&#x44f;" horiz-adv-x="718" 
d="M152 0h-99l223 451q-98 36 -150.5 111.5t-51.5 180.5v2q0 83 28.5 147.5t79.5 103.5t117 59t145 20h166v-1075h-86v426h-90q-26 0 -72 4zM524 995h-82q-282 0 -282 -247v-3q0 -118 73.5 -179.5t210.5 -61.5h80v491z" />
    <glyph glyph-name="uni0450" unicode="&#x450;" horiz-adv-x="712" 
d="M408 -14q-144 0 -243 139t-99 393v19q0 266 84 410.5t210 144.5q125 0 203 -140t78 -387v-63h-489q4 -212 78 -323t190 -111q50 0 91 14t95 49l10 -88q-58 -33 -102 -45t-106 -12zM152 578h405q0 187 -55.5 310.5t-141.5 123.5q-89 0 -145.5 -112t-62.5 -322zM340 1180
l-168 204l96 52l131 -256h-59z" />
    <glyph glyph-name="uni0451" unicode="&#x451;" horiz-adv-x="712" 
d="M408 -14q-144 0 -243 139t-99 393v19q0 266 84 410.5t210 144.5q125 0 203 -140t78 -387v-63h-489q4 -212 78 -323t190 -111q50 0 91 14t95 49l10 -88q-58 -33 -102 -45t-106 -12zM152 578h405q0 187 -55.5 310.5t-141.5 123.5q-89 0 -145.5 -112t-62.5 -322zM418 1200
v137h94v-137h-94zM213 1200v137h94v-137h-94z" />
    <glyph glyph-name="uni0452" unicode="&#x452;" horiz-adv-x="731" 
d="M465 1167h-270v-295q105 19 170 19q145 0 209.5 -65.5t64.5 -204.5v-641q0 -250 -215 -250q-33 0 -78 10v80q41 -8 70 -8q81 0 109 45.5t28 140.5v616q0 105 -43.5 150t-151.5 45q-84 0 -163 -21v-788h-86v1167h-168v80h168v201h86v-201h270v-80z" />
    <glyph glyph-name="uni0453" unicode="&#x453;" horiz-adv-x="516" 
d="M109 0v1075h395v-80h-309v-995h-86zM250 1180l131 256l96 -52l-168 -204h-59z" />
    <glyph glyph-name="uni0454" unicode="&#x454;" horiz-adv-x="610" 
d="M494 584v-80h-342q2 -117 24.5 -204t60 -136t82.5 -72.5t99 -23.5q82 0 139 45v-90q-63 -37 -141 -37q-73 0 -134.5 30.5t-110.5 92.5t-77 168.5t-28 246.5v21q0 137 29 244t79 171.5t112.5 97t133.5 32.5q84 0 137 -33v-94q-62 45 -139 45q-51 0 -96.5 -25t-83 -75
t-61 -133.5t-25.5 -190.5h342z" />
    <glyph glyph-name="uni0455" unicode="&#x455;" horiz-adv-x="571" 
d="M266 -12q-104 0 -215 51v90q116 -61 219 -61q70 0 117 43t47 116v4q0 58 -38.5 120.5t-131.5 152.5q-122 117 -166.5 188.5t-44.5 155.5v4q0 108 72.5 171.5t171.5 63.5q100 0 178 -34v-90q-86 45 -182 45q-68 0 -111 -41t-43 -111v-4q0 -57 36.5 -113.5t133.5 -150.5
q116 -111 163.5 -189.5t47.5 -162.5v-5q0 -111 -75 -177t-179 -66z" />
    <glyph glyph-name="uni0456" unicode="&#x456;" horiz-adv-x="327" 
d="M117 1305v143h94v-143h-94zM121 0v1075h86v-1075h-86z" />
    <glyph glyph-name="uni0457" unicode="&#x457;" horiz-adv-x="327" 
d="M121 0v1075h86v-1075h-86zM221 1200v137h94v-137h-94zM16 1200v137h95v-137h-95z" />
    <glyph glyph-name="uni0458" unicode="&#x458;" horiz-adv-x="327" 
d="M117 1305v143h94v-143h-94zM4 -270q-32 0 -59 10v80q24 -8 51 -8q73 0 99 48t26 142v1073h86v-1104q0 -48 -10 -88.5t-32 -76t-63 -56t-98 -20.5z" />
    <glyph glyph-name="uni0459" unicode="&#x459;" horiz-adv-x="1024" 
d="M477 0v1004h-6l-367 -1004h-84l396 1075h147v-362h29q185 0 288 -93t103 -258v-4q0 -166 -104 -262t-291 -96h-111zM563 80h39q139 0 218 73.5t79 202.5v4q0 132 -80.5 202.5t-218.5 70.5h-37v-553z" />
    <glyph glyph-name="uni045A" unicode="&#x45a;" horiz-adv-x="1110" 
d="M649 1075v-362h29q185 0 288 -93t103 -258v-4q0 -166 -104 -262t-291 -96h-111v504h-368v-504h-86v1075h86v-491h368v491h86zM649 633v-553h39q139 0 218 73.5t79 202.5v4q0 132 -80.5 202.5t-218.5 70.5h-37z" />
    <glyph glyph-name="uni045B" unicode="&#x45b;" horiz-adv-x="731" 
d="M465 1167h-270v-295q105 19 170 19q145 0 209.5 -65.5t64.5 -204.5v-621h-86v614q0 105 -43.5 150t-151.5 45q-84 0 -163 -21v-788h-86v1167h-168v80h168v201h86v-201h270v-80z" />
    <glyph glyph-name="uni045C" unicode="&#x45c;" horiz-adv-x="688" 
d="M195 1075v-495h114l219 495h97l-244 -534l266 -541h-96l-242 500h-114v-500h-86v1075h86zM311 1171l131 256l97 -51l-168 -205h-60z" />
    <glyph glyph-name="uni045D" unicode="&#x45d;" horiz-adv-x="763" 
d="M109 0v1075h84v-889l366 889h96v-1075h-84v909l-374 -909h-88zM358 1171l-168 205l97 51l131 -256h-60z" />
    <glyph glyph-name="uni045E" unicode="&#x45e;" horiz-adv-x="708" 
d="M354 158l213 917h86l-325 -1341h-82v2l67 274l-260 1065h88zM354 1178q-81 0 -130.5 47.5t-59.5 144.5h74q21 -113 116 -113q96 0 117 113h74q-10 -97 -60 -144.5t-131 -47.5z" />
    <glyph glyph-name="uni045F" unicode="&#x45f;" horiz-adv-x="765" 
d="M344 -213v213h-235v1075h86v-995h376v995h86v-1075h-233v-213h-80z" />
    <glyph glyph-name="uni0462" unicode="&#x462;" horiz-adv-x="876" 
d="M344 1464v-266h272v-82h-272v-293h88q187 0 295.5 -111.5t108.5 -293.5v-4q0 -185 -108 -299.5t-304 -114.5h-170v1116h-229v82h229v266h90zM344 82h88q150 0 231.5 88t81.5 242v4q0 150 -85 237.5t-232 87.5h-84v-659z" />
    <glyph glyph-name="uni0463" unicode="&#x463;" horiz-adv-x="776" 
d="M578 995h-271v-282h37q185 0 288 -93t103 -258v-4q0 -166 -104 -262t-291 -96h-119v995h-201v80h201v373h86v-373h271v-80zM307 633v-553h47q139 0 218 73.5t79 202.5v4q0 132 -80.5 202.5t-218.5 70.5h-45z" />
    <glyph glyph-name="uni0472" unicode="&#x472;" horiz-adv-x="823" 
d="M412 -16q-149 0 -242.5 186t-93.5 530v33q0 344 93.5 530.5t242.5 186.5t242.5 -186.5t93.5 -530.5v-33q0 -344 -93.5 -530t-242.5 -186zM412 66q108 0 175.5 158.5t71.5 455.5h-495q1 -296 70 -455t178 -159zM412 1368q-108 0 -176 -157t-72 -449h495q-4 290 -73 448
t-174 158z" />
    <glyph glyph-name="uni0473" unicode="&#x473;" horiz-adv-x="733" 
d="M367 -16q-126 0 -213.5 149.5t-87.5 394.5v19q0 244 88.5 394.5t214.5 150.5q127 0 213 -149.5t86 -395.5v-19q0 -245 -87.5 -394.5t-213.5 -149.5zM367 63q89 0 152 121.5t67 319.5h-439q4 -200 66 -320.5t154 -120.5zM367 1012q-89 0 -152.5 -118t-67.5 -310h437
q-7 194 -67.5 311t-149.5 117z" />
    <glyph glyph-name="uni0474" unicode="&#x474;" horiz-adv-x="862" 
d="M356 -10l-299 1444h95l251 -1274l170 844q24 117 45.5 193t43.5 125.5t51 74t59.5 33t77.5 8.5h4v-82h-2q-48 0 -74 -20t-54.5 -99.5t-64.5 -249.5l-213 -997h-90z" />
    <glyph glyph-name="uni0475" unicode="&#x475;" horiz-adv-x="729" 
d="M315 -6l-260 1081h88l209 -930l146 635q27 125 58.5 190t69 87t97.5 22h2v-80h-2q-37 0 -59.5 -16.5t-43 -67t-45.5 -153.5l-186 -768h-74z" />
    <glyph glyph-name="uni0490" unicode="&#x490;" horiz-adv-x="581" 
d="M115 0v1434h370v208h80v-290h-360v-1352h-90z" />
    <glyph glyph-name="uni0491" unicode="&#x491;" horiz-adv-x="516" 
d="M109 0v1075h315v195h80v-275h-309v-995h-86z" />
    <glyph glyph-name="uni0492" unicode="&#x492;" horiz-adv-x="593" 
d="M127 0v666h-113v77h113v691h451v-82h-361v-609h176v-77h-176v-666h-90z" />
    <glyph glyph-name="uni0493" unicode="&#x493;" horiz-adv-x="532" 
d="M125 0v481h-98v80h98v514h395v-80h-309v-434h149v-80h-149v-481h-86z" />
    <glyph glyph-name="uni0496" unicode="&#x496;" horiz-adv-x="1220" 
d="M49 1434h101l278 -668h111v668h90v-668h110l281 668h98l-303 -709l301 -643h94v-311h-88v229h-67l-318 684h-108v-684h-90v684h-113l-315 -684h-99l338 727z" />
    <glyph glyph-name="uni0497" unicode="&#x497;" horiz-adv-x="1081" 
d="M573 1075v-495h115l213 495h94l-237 -534l219 -461h92v-293h-80v213h-67l-234 500h-115v-500h-86v500h-114l-236 -500h-92l258 535l-237 540h96l211 -495h114v495h86z" />
    <glyph glyph-name="uni0498" unicode="&#x498;" horiz-adv-x="686" 
d="M264 -229v213h-8q-115 0 -186 43v94q90 -51 188 -51q128 0 196 79.5t68 223.5v4q0 149 -76.5 227t-224.5 78h-55v82h55q128 0 211.5 86t83.5 244v6q0 127 -58.5 195.5t-164.5 68.5t-211 -59v90q98 55 211 55q152 0 232.5 -94.5t80.5 -253.5v-6q0 -143 -65.5 -235.5
t-167.5 -133.5q239 -72 239 -350v-4q0 -148 -68.5 -249t-191.5 -130v-223h-88z" />
    <glyph glyph-name="uni0499" unicode="&#x499;" horiz-adv-x="591" 
d="M229 -213v197h-4q-97 0 -178 34v91q88 -46 178 -46q99 0 155 57t56 159v6q0 104 -60.5 161.5t-170.5 57.5h-72v80h72q103 0 164 61t61 166v4q0 93 -47.5 145t-134.5 52q-95 0 -185 -51v88q87 43 185 43q127 0 197.5 -74t70.5 -199v-6q0 -107 -57.5 -174t-132.5 -92
q196 -56 196 -260v-11q0 -107 -55.5 -183t-157.5 -99v-207h-80z" />
    <glyph glyph-name="uni049A" unicode="&#x49a;" horiz-adv-x="808" 
d="M115 0v1434h90v-668h108l293 668h99l-316 -707l316 -645h94v-311h-88v229h-66l-332 684h-108v-684h-90z" />
    <glyph glyph-name="uni049B" unicode="&#x49b;" horiz-adv-x="710" 
d="M195 1075v-495h114l219 495h97l-244 -534l227 -461h90v-293h-80v213h-67l-242 500h-114v-500h-86v1075h86z" />
    <glyph glyph-name="uni049C" unicode="&#x49c;" horiz-adv-x="845" 
d="M432 1196l-4 -428l268 666h97l-291 -707l332 -727h-99l-307 678l4 -418h-84v424h-143v-684h-90v1434h90v-668h143v430h84z" />
    <glyph glyph-name="uni049D" unicode="&#x49d;" horiz-adv-x="768" 
d="M719 0h-94l-217 500h-7l5 -353h-76v353h-135v-500h-86v1075h86v-495h135v370h76l-5 -370h9l192 495h94l-217 -534z" />
    <glyph glyph-name="uni04A0" unicode="&#x4a0;" horiz-adv-x="897" 
d="M254 0v1352h-229v82h229h90v-668h109l292 668h99l-316 -707l357 -727h-101l-331 684h-109v-684h-90z" />
    <glyph glyph-name="uni04A1" unicode="&#x4a1;" horiz-adv-x="800" 
d="M760 0h-96l-242 500h-115v-500h-86v995h-201v80h201h86v-495h115l219 495h96l-243 -534z" />
    <glyph glyph-name="uni04A2" unicode="&#x4a2;" horiz-adv-x="868" 
d="M750 -229v229h-103v680h-442v-680h-90v1434h90v-672h442v672h90v-1352h101v-311h-88z" />
    <glyph glyph-name="uni04A3" unicode="&#x4a3;" horiz-adv-x="778" 
d="M674 -213v213h-103v504h-376v-504h-86v1075h86v-491h376v491h86v-995h97v-293h-80z" />
    <glyph glyph-name="uni04A4" unicode="&#x4a4;" horiz-adv-x="1067" 
d="M635 0v680h-430v-680h-90v1434h90v-672h430v672h416v-82h-326v-1352h-90z" />
    <glyph glyph-name="uni04A5" unicode="&#x4a5;" horiz-adv-x="956" 
d="M195 1075v-491h368v491h381v-80h-295v-995h-86v504h-368v-504h-86v1075h86z" />
    <glyph glyph-name="uni04AA" unicode="&#x4aa;" horiz-adv-x="673" 
d="M360 -229v233q-130 46 -207 224t-77 470v37q0 174 31 311.5t84 223.5t121.5 131t146.5 45q74 0 139 -35v-96q-80 45 -139 45q-125 0 -209 -165t-84 -460v-37q0 -295 84 -459.5t209 -164.5q71 0 145 47v-92q-67 -41 -149 -41h-6v-217h-89z" />
    <glyph glyph-name="uni04AB" unicode="&#x4ab;" horiz-adv-x="575" 
d="M311 -213v213q-70 22 -123.5 84t-87.5 175.5t-34 264.5v21q0 262 96 403.5t231 141.5q79 0 129 -37v-95q-63 50 -131 50q-43 0 -84.5 -27.5t-76.5 -81.5t-56.5 -144.5t-21.5 -205.5v-29q0 -225 72 -338.5t175 -113.5q65 0 123 49v-90q-57 -41 -129 -41h-2v-199h-80z" />
    <glyph glyph-name="uni04AE" unicode="&#x4ae;" horiz-adv-x="720" 
d="M315 0v618l-299 816h99l247 -703l250 703h93l-299 -816v-618h-91z" />
    <glyph glyph-name="uni04AF" unicode="&#x4af;" horiz-adv-x="712" 
d="M399 -266h-86v301l-258 1040h88l213 -915l217 915h84l-258 -1040v-301z" />
    <glyph glyph-name="uni04B0" unicode="&#x4b0;" horiz-adv-x="720" 
d="M315 0v561h-192v78h184l-291 795h99l247 -703l250 703h93l-293 -795h186v-78h-192v-561h-91z" />
    <glyph glyph-name="uni04B1" unicode="&#x4b1;" horiz-adv-x="712" 
d="M356 160l217 915h84l-247 -995h157v-80h-168v-266h-86v266h-168v80h158l-248 995h88z" />
    <glyph glyph-name="uni04B2" unicode="&#x4b2;" horiz-adv-x="763" 
d="M598 0l-236 666l-231 -666h-90l270 756l-243 678h92l202 -580l205 580h90l-239 -670l244 -682h92v-311h-88v229h-68z" />
    <glyph glyph-name="uni04B3" unicode="&#x4b3;" horiz-adv-x="696" 
d="M158 1075l182 -442l182 442h90l-223 -516l207 -479h88v-293h-80v213h-65l-201 481l-199 -481h-90l240 555l-223 520h92z" />
    <glyph glyph-name="uni04B6" unicode="&#x4b6;" horiz-adv-x="819" 
d="M700 -229v229h-102v588q-112 -25 -197 -25q-159 0 -233 76t-74 238v557h90v-549q0 -128 49.5 -184t178.5 -56q83 0 186 25v764h90v-1352h100v-311h-88z" />
    <glyph glyph-name="uni04B7" unicode="&#x4b7;" horiz-adv-x="733" 
d="M629 -213v213h-103v434q-99 -18 -168 -18q-144 0 -207 65.5t-63 204.5v389h86v-383q0 -105 42 -149.5t149 -44.5q75 0 161 18v559h86v-995h97v-293h-80z" />
    <glyph glyph-name="uni04B8" unicode="&#x4b8;" horiz-adv-x="811" 
d="M606 0v586q-79 -20 -170 -23l2 -319h-84l2 321q-139 10 -200.5 82.5t-61.5 224.5v562h90v-553q0 -114 38 -169t134 -65l-2 428h84l-2 -430q77 3 170 25v764h90v-1434h-90z" />
    <glyph glyph-name="uni04B9" unicode="&#x4b9;" horiz-adv-x="729" 
d="M393 150h-76l2 268q-71 4 -118 22.5t-71 54.5t-33 79t-9 106v395h86v-389q0 -96 28 -137.5t117 -48.5l-2 393h76l-2 -395q81 0 144 18v559h86v-1075h-86v434q-85 -18 -144 -18z" />
    <glyph glyph-name="uni04BA" unicode="&#x4ba;" horiz-adv-x="802" 
d="M205 1434v-588q108 24 196 24q159 0 233.5 -75.5t74.5 -237.5v-557h-91v549q0 128 -50 183.5t-177 55.5q-87 0 -186 -24v-764h-90v1434h90z" />
    <glyph glyph-name="uni04BB" unicode="&#x4bb;" horiz-adv-x="761" 
d="M109 0v1448h86v-530q75 174 221 174q113 0 179.5 -88.5t66.5 -251.5v-752h-87v743q0 135 -45 205t-131 70q-87 0 -145.5 -81t-58.5 -210v-727h-86z" />
    <glyph glyph-name="uni04C0" unicode="&#x4c0;" horiz-adv-x="348" 
d="M129 0v1434h90v-1434h-90z" />
    <glyph glyph-name="uni04C1" unicode="&#x4c1;" horiz-adv-x="1167" 
d="M49 1434h101l278 -668h111v668h90v-668h110l281 668h98l-303 -709l340 -725h-100l-318 684h-108v-684h-90v684h-113l-315 -684h-99l338 727zM584 1522q-80 0 -131.5 40.5t-61.5 120.5h76q24 -79 117 -79q92 0 116 79h76q-10 -80 -61 -120.5t-131 -40.5z" />
    <glyph glyph-name="uni04C2" unicode="&#x4c2;" horiz-adv-x="1060" 
d="M573 1075v-495h115l213 495h94l-237 -534l258 -541h-94l-234 500h-115v-500h-86v500h-114l-236 -500h-92l258 535l-237 540h96l211 -495h114v495h86zM530 1186q-81 0 -130.5 47.5t-59.5 144.5h74q21 -112 116 -112q96 0 117 112h74q-10 -97 -60 -144.5t-131 -47.5z" />
    <glyph glyph-name="uni04CF" unicode="&#x4cf;" horiz-adv-x="327" 
d="M121 0v1448h86v-1448h-86z" />
    <glyph glyph-name="uni04D0" unicode="&#x4d0;" horiz-adv-x="839" 
d="M57 0l314 1440h98l313 -1440h-94l-84 401h-373l-84 -401h-90zM248 483h340l-170 815zM422 1532q-80 0 -131.5 41t-61.5 121h76q24 -80 117 -80t117 80h75q-10 -80 -61 -121t-131 -41z" />
    <glyph glyph-name="uni04D1" unicode="&#x4d1;" horiz-adv-x="706" 
d="M303 -18q-108 0 -177 94t-69 237v17q0 153 75.5 248.5t207.5 95.5q93 0 180 -41v135q0 115 -51.5 176.5t-153.5 61.5q-108 0 -198 -50v84q89 47 202 47q132 0 209 -77q78 -78 78 -232v-778h-86v156q-71 -174 -217 -174zM315 57q90 0 147.5 84t57.5 195v215
q-91 43 -176 43q-97 0 -149 -71.5t-52 -188.5v-17q0 -114 45 -187t127 -73zM352 1186q-81 0 -130.5 47.5t-59.5 144.5h74q21 -112 116 -112q96 0 117 112h74q-10 -97 -60 -144.5t-131 -47.5z" />
    <glyph glyph-name="uni04D2" unicode="&#x4d2;" horiz-adv-x="839" 
d="M57 0l314 1440h98l313 -1440h-94l-84 401h-373l-84 -401h-90zM248 483h340l-170 815zM477 1546v129h103v-129h-103zM264 1546v129h103v-129h-103z" />
    <glyph glyph-name="uni04D3" unicode="&#x4d3;" horiz-adv-x="706" 
d="M303 -18q-108 0 -177 94t-69 237v17q0 153 75.5 248.5t207.5 95.5q93 0 180 -41v135q0 115 -51.5 176.5t-153.5 61.5q-108 0 -198 -50v84q89 47 202 47q132 0 209 -77q78 -78 78 -232v-778h-86v156q-71 -174 -217 -174zM315 57q90 0 147.5 84t57.5 195v215
q-91 43 -176 43q-97 0 -149 -71.5t-52 -188.5v-17q0 -114 45 -187t127 -73zM408 1200v137h94v-137h-94zM203 1200v137h94v-137h-94z" />
    <glyph glyph-name="uni04D4" unicode="&#x4d4;" horiz-adv-x="1052" 
d="M16 0l404 1434h569v-82h-397v-588h362v-82h-362v-600h403v-82h-493v401h-285l-113 -401h-88zM240 483h262v869h-21z" />
    <glyph glyph-name="uni04D5" unicode="&#x4d5;" horiz-adv-x="1155" 
d="M303 -18q-108 0 -177 94t-69 237v17q0 153 75.5 248.5t207.5 95.5q93 0 180 -41v135q0 115 -51.5 176.5t-153.5 61.5q-108 0 -198 -50v84q89 47 202 47q208 0 261 -182q38 91 96 139t127 48q125 0 202.5 -139.5t77.5 -387.5v-63h-489q4 -212 78 -323t190 -111
q50 0 91.5 14t95.5 49l10 -88q-57 -33 -101.5 -45t-107.5 -12q-95 0 -171.5 61.5t-119.5 181.5q-33 -108 -97 -177.5t-159 -69.5zM594 578h405q0 187 -55 310.5t-141 123.5q-88 0 -145.5 -112.5t-63.5 -321.5zM315 57q81 0 136.5 79t80.5 192q-21 120 -16 227
q-98 39 -172 39q-97 0 -149 -71.5t-52 -188.5v-17q0 -114 45 -187t127 -73z" />
    <glyph glyph-name="uni04D6" unicode="&#x4d6;" horiz-adv-x="665" 
d="M115 0v1434h487v-82h-397v-588h362v-82h-362v-600h403v-82h-493zM365 1522q-80 0 -131.5 40.5t-61.5 120.5h76q24 -79 117 -79q92 0 116 79h76q-10 -80 -61 -120.5t-131 -40.5z" />
    <glyph glyph-name="uni04D7" unicode="&#x4d7;" horiz-adv-x="712" 
d="M408 -14q-144 0 -243 139t-99 393v19q0 266 84 410.5t210 144.5q125 0 203 -140t78 -387v-63h-489q4 -212 78 -323t190 -111q50 0 91 14t95 49l10 -88q-58 -33 -102 -45t-106 -12zM152 578h405q0 187 -55.5 310.5t-141.5 123.5q-89 0 -145.5 -112t-62.5 -322zM362 1186
q-81 0 -130.5 47.5t-59.5 144.5h74q21 -112 116 -112q96 0 117 112h74q-10 -97 -60 -144.5t-131 -47.5z" />
    <glyph glyph-name="uni04D8" unicode="&#x4d8;" horiz-adv-x="794" 
d="M129 1288l-10 90q97 72 217 72q178 0 280.5 -180.5t102.5 -524.5v-24q0 -364 -86 -550.5t-234 -186.5q-144 0 -228.5 180.5t-84.5 523.5v82h543q0 293 -81 443.5t-218 150.5q-100 0 -201 -76zM401 66q102 0 165 161.5t63 460.5h-453q0 -306 59.5 -464t165.5 -158z" />
    <glyph glyph-name="uni04D9" unicode="&#x4d9;" horiz-adv-x="712" 
d="M305 1090q144 0 243 -139.5t99 -393.5v-18q0 -267 -84.5 -411t-210.5 -144q-125 0 -202.5 139t-77.5 387v63h489q-4 212 -78.5 323.5t-189.5 111.5q-49 0 -91 -14.5t-96 -49.5l-10 88q58 33 102.5 45.5t106.5 12.5zM561 498h-405q0 -187 55 -311t141 -124q89 0 146 113
t63 322z" />
    <glyph glyph-name="uni04DC" unicode="&#x4dc;" horiz-adv-x="1167" 
d="M49 1434h101l278 -668h111v668h90v-668h110l281 668h98l-303 -709l340 -725h-100l-318 684h-108v-684h-90v684h-113l-315 -684h-99l338 727zM639 1536v129h102v-129h-102zM426 1536v129h102v-129h-102z" />
    <glyph glyph-name="uni04DD" unicode="&#x4dd;" horiz-adv-x="1060" 
d="M573 1075v-495h115l213 495h94l-237 -534l258 -541h-94l-234 500h-115v-500h-86v500h-114l-236 -500h-92l258 535l-237 540h96l211 -495h114v495h86zM586 1200v137h94v-137h-94zM381 1200v137h94v-137h-94z" />
    <glyph glyph-name="uni04DE" unicode="&#x4de;" horiz-adv-x="686" 
d="M82 1305v90q98 55 211 55q152 0 232.5 -94.5t80.5 -253.5v-6q0 -143 -65.5 -235.5t-167.5 -133.5q239 -72 239 -350v-4q0 -174 -94.5 -281.5t-261.5 -107.5q-115 0 -186 43v94q90 -51 188 -51q128 0 196 79.5t68 223.5v4q0 149 -76.5 227t-224.5 78h-55v82h55
q128 0 211.5 86t83.5 244v6q0 127 -58.5 195.5t-164.5 68.5t-211 -59zM369 1546v129h102v-129h-102zM156 1546v129h102v-129h-102z" />
    <glyph glyph-name="uni04DF" unicode="&#x4df;" horiz-adv-x="591" 
d="M47 18v91q88 -46 178 -46q99 0 155 57t56 159v6q0 104 -60.5 161.5t-170.5 57.5h-72v80h72q103 0 164 61t61 166v4q0 93 -47.5 145t-134.5 52q-95 0 -185 -51v88q87 43 185 43q127 0 197.5 -74t70.5 -199v-6q0 -107 -57.5 -174t-132.5 -92q196 -56 196 -260v-11
q0 -127 -79.5 -209.5t-217.5 -82.5q-97 0 -178 34zM324 1200v137h94v-137h-94zM119 1200v137h94v-137h-94z" />
    <glyph glyph-name="uni04E2" unicode="&#x4e2;" horiz-adv-x="860" 
d="M745 0h-88v1262l-440 -1262h-102v1434h88v-1233l430 1233h112v-1434zM236 1532v84h393v-84h-393z" />
    <glyph glyph-name="uni04E3" unicode="&#x4e3;" horiz-adv-x="763" 
d="M109 0v1075h84v-889l366 889h96v-1075h-84v909l-374 -909h-88zM197 1196v80h368v-80h-368z" />
    <glyph glyph-name="uni04E4" unicode="&#x4e4;" horiz-adv-x="860" 
d="M745 0h-88v1262l-440 -1262h-102v1434h88v-1233l430 1233h112v-1434zM487 1528v129h103v-129h-103zM274 1528v129h103v-129h-103z" />
    <glyph glyph-name="uni04E5" unicode="&#x4e5;" horiz-adv-x="763" 
d="M109 0v1075h84v-889l366 889h96v-1075h-84v909l-374 -909h-88zM436 1192v137h94v-137h-94zM231 1192v137h95v-137h-95z" />
    <glyph glyph-name="uni04E6" unicode="&#x4e6;" horiz-adv-x="831" 
d="M416 -16q-152 0 -246 185.5t-94 530.5v33q0 345 94 531t246 186t246 -186t94 -531v-33q0 -345 -94 -530.5t-246 -185.5zM416 66q110 0 180 165t70 469v33q0 304 -70 469.5t-180 165.5t-180 -165.5t-70 -469.5v-33q0 -304 70 -469t180 -165zM473 1546v129h102v-129h-102z
M260 1546v129h102v-129h-102z" />
    <glyph glyph-name="uni04E7" unicode="&#x4e7;" horiz-adv-x="741" 
d="M371 -16q-127 0 -216 149.5t-89 394.5v19q0 244 90.5 394.5t216.5 150.5t214.5 -150.5t88.5 -394.5v-19q0 -245 -89 -394.5t-216 -149.5zM371 63q93 0 156 128t63 337v19q0 209 -63 337t-156 128t-156 -128t-63 -337v-19q0 -209 63 -337t156 -128zM428 1200v137h94v-137
h-94zM223 1200v137h94v-137h-94z" />
    <glyph glyph-name="uni04E8" unicode="&#x4e8;" horiz-adv-x="823" 
d="M412 -16q-149 0 -242.5 186t-93.5 530v33q0 344 93.5 530.5t242.5 186.5t242.5 -186.5t93.5 -530.5v-33q0 -344 -93.5 -530t-242.5 -186zM412 66q108 0 175.5 158.5t71.5 455.5h-495q1 -296 70 -455t178 -159zM412 1368q-108 0 -176 -157t-72 -449h495q-4 290 -73 448
t-174 158z" />
    <glyph glyph-name="uni04E9" unicode="&#x4e9;" horiz-adv-x="733" 
d="M367 -16q-126 0 -213.5 149.5t-87.5 394.5v19q0 244 88.5 394.5t214.5 150.5q127 0 213 -149.5t86 -395.5v-19q0 -245 -87.5 -394.5t-213.5 -149.5zM367 63q89 0 152 121.5t67 319.5h-439q4 -200 66 -320.5t154 -120.5zM367 1012q-89 0 -152.5 -118t-67.5 -310h437
q-7 194 -67.5 311t-149.5 117z" />
    <glyph glyph-name="uni04EE" unicode="&#x4ee;" horiz-adv-x="727" 
d="M303 0h-92l131 455l-311 979h92l264 -852l231 852h93zM182 1532v84h393v-84h-393z" />
    <glyph glyph-name="uni04EF" unicode="&#x4ef;" horiz-adv-x="708" 
d="M354 158l213 917h86l-325 -1341h-82v2l67 274l-260 1065h88zM170 1196v80h369v-80h-369z" />
    <glyph glyph-name="uni04F0" unicode="&#x4f0;" horiz-adv-x="727" 
d="M303 0h-92l131 455l-311 979h92l264 -852l231 852h93zM434 1528v129h103v-129h-103zM221 1528v129h103v-129h-103z" />
    <glyph glyph-name="uni04F1" unicode="&#x4f1;" horiz-adv-x="708" 
d="M354 158l213 917h86l-325 -1341h-82v2l67 274l-260 1065h88zM410 1192v137h94v-137h-94zM205 1192v137h94v-137h-94z" />
    <glyph glyph-name="uni04F2" unicode="&#x4f2;" horiz-adv-x="727" 
d="M303 0h-92l131 455l-311 979h92l264 -852l231 852h93zM242 1507l127 213l92 -43l-156 -170h-63zM426 1507l127 213l92 -43l-156 -170h-63z" />
    <glyph glyph-name="uni04F3" unicode="&#x4f3;" horiz-adv-x="708" 
d="M354 158l213 917h86l-325 -1341h-82v2l67 274l-260 1065h88zM406 1171l131 256l88 -47l-160 -209h-59zM213 1171l131 256l88 -47l-160 -209h-59z" />
    <glyph glyph-name="uni04F4" unicode="&#x4f4;" horiz-adv-x="802" 
d="M598 0v588q-112 -25 -197 -25q-159 0 -233 76t-74 238v557h90v-549q0 -128 49.5 -184t178.5 -56q83 0 186 25v764h90v-1434h-90zM446 1528v129h103v-129h-103zM233 1528v129h103v-129h-103z" />
    <glyph glyph-name="uni04F5" unicode="&#x4f5;" horiz-adv-x="720" 
d="M526 0v434q-99 -18 -168 -18q-144 0 -207 65.5t-63 204.5v389h86v-383q0 -105 42 -149.5t149 -44.5q75 0 161 18v559h86v-1075h-86zM408 1192v137h94v-137h-94zM203 1192v137h94v-137h-94z" />
    <glyph glyph-name="uni04F8" unicode="&#x4f8;" horiz-adv-x="1058" 
d="M115 0v1434h90v-537h88q190 0 301 -120t111 -322v-4q0 -205 -110.5 -328t-309.5 -123h-170zM205 82h88q153 0 237 96.5t84 270.5v4q0 171 -87.5 266.5t-237.5 95.5h-84v-733zM854 0v1434h90v-1434h-90zM584 1528v129h102v-129h-102zM371 1528v129h102v-129h-102z" />
    <glyph glyph-name="uni04F9" unicode="&#x4f9;" horiz-adv-x="954" 
d="M195 1075v-362h36q185 0 288.5 -93t103.5 -258v-4q0 -166 -104.5 -262t-291.5 -96h-118v1075h86zM195 633v-553h47q139 0 218 73.5t79 202.5v4q0 132 -80.5 202.5t-218.5 70.5h-45zM760 0v1075h86v-1075h-86zM535 1192v137h94v-137h-94zM330 1192v137h94v-137h-94z" />
    <glyph glyph-name="baht" unicode="&#xe3f;" horiz-adv-x="763" 
d="M326 -246h-76l24 246h-34h-125v1434h172q61 0 114 -15l19 176h74l-21 -200q93 -43 145 -127t52 -193v-4q0 -144 -72 -228t-190 -116v-4q129 -32 200.5 -119t71.5 -229v-4q0 -148 -87 -242t-241 -121zM205 764h43q64 0 100 8l49 563q-63 17 -114 17h-78v-588zM590 373v4
q0 218 -187 282l-49 -567q113 24 174.5 95t61.5 186zM205 82h37q33 0 47 2l51 592q-40 6 -84 6h-51v-600zM580 1067v4q0 159 -121 234l-45 -512q166 70 166 274z" />
    <glyph glyph-name="Wgrave" unicode="&#x1e80;" horiz-adv-x="1251" 
d="M309 -10l-248 1444h97l194 -1252l234 1252h84l231 -1252l197 1252h92l-248 -1444h-84l-231 1251l-234 -1251h-84zM662 1516h-66l-160 167l99 46z" />
    <glyph glyph-name="wgrave" unicode="&#x1e81;" horiz-adv-x="1091" 
d="M289 -6l-223 1081h90l172 -932l182 932h78l178 -932l176 932h84l-223 -1081h-78l-180 905l-178 -905h-78zM524 1180l-168 204l97 52l131 -256h-60z" />
    <glyph glyph-name="Wacute" unicode="&#x1e82;" horiz-adv-x="1251" 
d="M309 -10l-248 1444h97l194 -1252l234 1252h84l231 -1252l197 1252h92l-248 -1444h-84l-231 1251l-234 -1251h-84zM588 1516l127 213l98 -46l-160 -167h-65z" />
    <glyph glyph-name="wacute" unicode="&#x1e83;" horiz-adv-x="1091" 
d="M289 -6l-223 1081h90l172 -932l182 932h78l178 -932l176 932h84l-223 -1081h-78l-180 905l-178 -905h-78zM508 1180l131 256l96 -52l-168 -204h-59z" />
    <glyph glyph-name="Wdieresis" unicode="&#x1e84;" horiz-adv-x="1251" 
d="M309 -10l-248 1444h97l194 -1252l234 1252h84l231 -1252l197 1252h92l-248 -1444h-84l-231 1251l-234 -1251h-84zM680 1536v129h102v-129h-102zM467 1536v129h102v-129h-102z" />
    <glyph glyph-name="wdieresis" unicode="&#x1e85;" horiz-adv-x="1091" 
d="M289 -6l-223 1081h90l172 -932l182 932h78l178 -932l176 932h84l-223 -1081h-78l-180 905l-178 -905h-78zM600 1200v137h94v-137h-94zM395 1200v137h94v-137h-94z" />
    <glyph glyph-name="Ygrave" unicode="&#x1ef2;" horiz-adv-x="720" 
d="M315 0v618l-299 816h99l247 -703l250 703h93l-299 -816v-618h-91zM399 1507h-65l-160 168l98 45z" />
    <glyph glyph-name="ygrave" unicode="&#x1ef3;" horiz-adv-x="708" 
d="M354 158l213 917h86l-325 -1341h-82v2l67 274l-260 1065h88zM332 1171l-168 205l96 51l131 -256h-59z" />
    <glyph glyph-name="enspace" unicode="&#x2002;" horiz-adv-x="1024" 
 />
    <glyph glyph-name="emspace" unicode="&#x2003;" horiz-adv-x="2048" 
 />
    <glyph glyph-name="threeperemspace" unicode="&#x2004;" horiz-adv-x="681" 
 />
    <glyph glyph-name="fourperemspace" unicode="&#x2005;" horiz-adv-x="512" 
 />
    <glyph glyph-name="figurespace" unicode="&#x2007;" horiz-adv-x="737" 
 />
    <glyph glyph-name="thinspace" unicode="&#x2009;" horiz-adv-x="204" 
 />
    <glyph glyph-name="hairspace" unicode="&#x200a;" horiz-adv-x="102" 
 />
    <glyph glyph-name="endash" unicode="&#x2013;" horiz-adv-x="815" 
d="M82 565v82h651v-82h-651z" />
    <glyph glyph-name="emdash" unicode="&#x2014;" horiz-adv-x="1183" 
d="M82 565v82h1020v-82h-1020z" />
    <glyph glyph-name="quoteleft" unicode="&#x2018;" horiz-adv-x="307" 
d="M86 1051v151q0 94 33 144t119 90l24 -52q-60 -26 -84 -62.5t-20 -96.5h55v-174h-127z" />
    <glyph glyph-name="quoteright" unicode="&#x2019;" horiz-adv-x="307" 
d="M70 1055l-25 51q60 26 84.5 63t20.5 97h-56v168h127v-146q0 -94 -32.5 -143.5t-118.5 -89.5z" />
    <glyph glyph-name="quotesinglbase" unicode="&#x201a;" horiz-adv-x="307" 
d="M66 -211l-25 51q60 26 84 63t20 97h-55v168h127v-145q0 -94 -32.5 -144t-118.5 -90z" />
    <glyph glyph-name="quotedblleft" unicode="&#x201c;" horiz-adv-x="573" 
d="M352 1051v151q0 94 33 144t119 90l24 -52q-60 -26 -84 -62.5t-20 -96.5h55v-174h-127zM86 1051v151q0 94 33 144t119 90l24 -52q-60 -26 -84 -62.5t-20 -96.5h55v-174h-127z" />
    <glyph glyph-name="quotedblright" unicode="&#x201d;" horiz-adv-x="573" 
d="M336 1055l-25 51q60 26 84.5 63t20.5 97h-56v168h127v-146q0 -94 -32.5 -143.5t-118.5 -89.5zM70 1055l-25 51q60 26 84.5 63t20.5 97h-56v168h127v-146q0 -94 -32.5 -143.5t-118.5 -89.5z" />
    <glyph glyph-name="quotedblbase" unicode="&#x201e;" horiz-adv-x="573" 
d="M332 -211l-25 51q60 26 84.5 63t20.5 97h-56v168h127v-145q0 -94 -32.5 -144t-118.5 -90zM66 -211l-25 51q60 26 84 63t20 97h-55v168h127v-145q0 -94 -32.5 -144t-118.5 -90z" />
    <glyph glyph-name="dagger" unicode="&#x2020;" horiz-adv-x="473" 
d="M195 487l16 594l-174 -20v88l174 -21l-23 306h99l-23 -306l172 21v-88l-172 20l17 -594h-86z" />
    <glyph glyph-name="daggerdbl" unicode="&#x2021;" horiz-adv-x="493" 
d="M197 0l24 305l-174 -20v88l174 -21l-20 365l20 364l-174 -20v88l174 -21l-22 306h98l-23 -306l172 21v-88l-172 20l21 -364l-21 -365l172 21v-88l-172 20l21 -305h-98z" />
    <glyph glyph-name="bullet" unicode="&#x2022;" horiz-adv-x="636" 
d="M319 500q-75 0 -120 54t-45 159v24q0 105 45 159t120 54t120.5 -54t45.5 -159v-24q0 -105 -45.5 -159t-120.5 -54z" />
    <glyph glyph-name="ellipsis" unicode="&#x2026;" horiz-adv-x="966" 
d="M745 0v174h132v-174h-132zM418 0v174h131v-174h-131zM90 0v174h131v-174h-131z" />
    <glyph glyph-name="perthousand" unicode="&#x2030;" horiz-adv-x="1542" 
d="M266 842q61 0 98 68.5t37 185.5v16q0 117 -37 185.5t-98 68.5t-98 -68.5t-37 -185.5v-16q0 -117 37 -185.5t98 -68.5zM266 764q-89 0 -150 89t-61 243v16q0 154 61 243t150 89t150 -89t61 -243v-16q0 -154 -61 -243t-150 -89zM870 1434l-327 -732l-314 -702h-75l327 731
l314 703h75zM758 68q61 0 98 68.5t37 185.5v16q0 117 -37 185.5t-98 68.5t-98 -68.5t-37 -185.5v-16q0 -117 37 -185.5t98 -68.5zM758 -10q-89 0 -150 89t-61 243v16q0 154 61 243t150 89t150 -89t61 -243v-16q0 -154 -61 -243t-150 -89zM1276 68q61 0 98 68.5t37 185.5v16
q0 117 -37 185.5t-98 68.5t-98 -68.5t-37 -185.5v-16q0 -117 37 -185.5t98 -68.5zM1276 -10q-89 0 -150 89t-61 243v16q0 154 61 243t150 89t150 -89t61 -243v-16q0 -154 -61 -243t-150 -89z" />
    <glyph glyph-name="guilsinglleft" unicode="&#x2039;" horiz-adv-x="444" 
d="M313 88l-247 426v16l247 426l62 -32l-217 -400l217 -403z" />
    <glyph glyph-name="guilsinglright" unicode="&#x203a;" horiz-adv-x="444" 
d="M131 88l-61 33l217 399l-217 404l61 32l248 -426v-16z" />
    <glyph glyph-name="fraction" unicode="&#x2044;" horiz-adv-x="122" 
d="M-264 0l297 733l282 703h72l-297 -734l-285 -702h-69z" />
    <glyph glyph-name="zero.sup" unicode="&#x2070;" 
d="M246 946q-95 0 -144 84.5t-49 269.5v15q0 356 193 356q95 0 143.5 -84.5t48.5 -269.5v-14q0 -357 -192 -357zM246 1604q-119 0 -119 -287v-14q0 -145 31.5 -217t87.5 -72t87.5 70.5t31.5 215.5v15q0 289 -119 289z" />
    <glyph glyph-name="four.sup" unicode="&#x2074;" 
d="M383 1102v-148h-66v148h-276v51l260 514h82v-504h72v-61h-72zM317 1163v389h-8l-192 -389h200z" />
    <glyph glyph-name="five.sup" unicode="&#x2075;" 
d="M215 946q-86 0 -143 43v80q62 -55 143 -55q69 0 102 43.5t33 116.5q0 77 -36 113t-95 36q-54 0 -96 -25l-49 23l22 342h297v-70h-233l-19 -217q40 15 84 15q90 0 145.5 -55t55.5 -160t-57.5 -167.5t-153.5 -62.5z" />
    <glyph glyph-name="six.sup" unicode="&#x2076;" 
d="M248 946q-72 0 -117 45q-72 79 -72 262v29q0 201 62 295t170 94q55 0 98 -24v-76q-44 31 -98 31q-142 0 -158 -248q59 51 129 51q77 0 126.5 -56t49.5 -167q0 -106 -52.5 -171t-137.5 -65zM250 1014q56 0 86.5 45.5t30.5 124.5q0 76 -31.5 114.5t-83.5 38.5
q-70 0 -119 -55v-41q0 -227 117 -227z" />
    <glyph glyph-name="seven.sup" unicode="&#x2077;" 
d="M182 954h-73l245 639h-293v70h367v-59z" />
    <glyph glyph-name="eight.sup" unicode="&#x2078;" 
d="M246 946q-87 0 -139 53t-52 144q0 60 29 107.5t80 70.5q-42 24 -67 67t-25 97q0 89 49 137.5t125 48.5t125 -48.5t49 -137.5q0 -54 -25 -97t-67 -67q51 -23 79.5 -69.5t28.5 -106.5q0 -92 -51.5 -145.5t-138.5 -53.5zM246 1606q-47 0 -76 -33.5t-29 -87.5q0 -57 29.5 -95
t75.5 -38t75 38t29 95q0 54 -28.5 87.5t-75.5 33.5zM246 1286q-54 0 -87.5 -39.5t-33.5 -101.5q0 -58 32.5 -95.5t88.5 -37.5t88.5 37.5t32.5 95.5q0 62 -33.5 101.5t-87.5 39.5z" />
    <glyph glyph-name="nine.sup" unicode="&#x2079;" 
d="M250 1671q72 0 117 -45q71 -78 71 -262v-29q0 -200 -62 -294.5t-169 -94.5q-57 0 -113 29v74q54 -33 113 -33q71 0 110.5 62t47.5 175q-59 -51 -129 -51q-77 0 -127 57.5t-50 170.5q0 109 53 175t138 66zM246 1270q70 0 119 55v51q0 228 -117 228q-56 0 -86.5 -48
t-30.5 -129t31 -119t84 -38z" />
    <glyph glyph-name="zero.inf" unicode="&#x2080;" 
d="M246 -276q-95 0 -144 84.5t-49 269.5v14q0 357 193 357q95 0 143.5 -84.5t48.5 -270.5v-14q0 -356 -192 -356zM246 381q-119 0 -119 -287v-14q0 -145 31.5 -217t87.5 -72t87.5 71t31.5 216v14q0 289 -119 289z" />
    <glyph glyph-name="one.inf" unicode="&#x2081;" horiz-adv-x="399" 
d="M254 -268h-72v622l-137 -75v73l143 88h66v-708z" />
    <glyph glyph-name="two.inf" unicode="&#x2082;" 
d="M49 -268v45l234 329q67 98 67 166q0 51 -32.5 79t-79.5 28q-84 0 -164 -88v84q74 74 170 74q77 0 128.5 -47.5t51.5 -127.5q0 -55 -20 -99t-62 -103l-188 -271h278v-69h-383z" />
    <glyph glyph-name="three.inf" unicode="&#x2083;" 
d="M207 -276q-84 0 -144 49v80q62 -62 148 -62q60 0 100.5 34t40.5 103t-50.5 104.5t-158.5 39.5h-2v49l187 250h-265v69h359v-51l-195 -258q92 -13 145.5 -62.5t53.5 -138.5q0 -96 -62 -151t-157 -55z" />
    <glyph glyph-name="four.inf" unicode="&#x2084;" 
d="M383 -121v-147h-66v147h-276v51l260 514h82v-503h72v-62h-72zM317 -59v389h-8l-192 -389h200z" />
    <glyph glyph-name="five.inf" unicode="&#x2085;" 
d="M215 -276q-86 0 -143 43v79q62 -55 143 -55q69 0 102 43.5t33 116.5q0 77 -36 113t-95 36q-55 0 -96 -24l-49 22l22 342h297v-69h-233l-19 -217q38 14 84 14q90 0 145.5 -55t55.5 -160q0 -104 -57 -166.5t-154 -62.5z" />
    <glyph glyph-name="six.inf" unicode="&#x2086;" 
d="M248 -276q-72 0 -117 45q-72 79 -72 262v28q0 201 62 295.5t170 94.5q53 0 98 -25v-76q-44 31 -98 31q-142 0 -158 -248q59 51 129 51q77 0 126.5 -56t49.5 -167q0 -106 -52.5 -170.5t-137.5 -64.5zM250 -209q56 0 86.5 45.5t30.5 124.5q0 76 -31.5 115t-83.5 39
q-69 0 -119 -56v-41q0 -227 117 -227z" />
    <glyph glyph-name="seven.inf" unicode="&#x2087;" 
d="M182 -268h-73l245 639h-293v69h367v-59z" />
    <glyph glyph-name="eight.inf" unicode="&#x2088;" 
d="M246 -276q-87 0 -139 52.5t-52 143.5q0 60 29 107.5t80 70.5q-42 24 -67 67t-25 97q0 89 49.5 138t124.5 49t124.5 -49t49.5 -138q0 -54 -25 -97t-67 -67q51 -23 79.5 -69.5t28.5 -106.5q0 -92 -51.5 -145t-138.5 -53zM246 383q-47 0 -76 -33.5t-29 -87.5q0 -57 29.5 -95
t75.5 -38t75 38t29 95q0 54 -28.5 87.5t-75.5 33.5zM246 63q-54 0 -87.5 -39.5t-33.5 -101.5q0 -58 32.5 -95.5t88.5 -37.5t88.5 37.5t32.5 95.5q0 62 -33.5 101.5t-87.5 39.5z" />
    <glyph glyph-name="nine.inf" unicode="&#x2089;" 
d="M250 449q71 0 117 -46q71 -78 71 -262v-28q0 -200 -62 -294.5t-169 -94.5q-59 0 -113 28v74q54 -33 113 -33q70 0 110 62.5t48 175.5q-59 -51 -129 -51q-77 0 -127 57t-50 170q0 110 53 176t138 66zM246 47q70 0 119 55v52q0 227 -117 227q-56 0 -86.5 -47.5
t-30.5 -128.5t31 -119.5t84 -38.5z" />
    <glyph glyph-name="colonmonetary" unicode="&#x20a1;" horiz-adv-x="735" 
d="M580 1595h73l-18 -178q27 -12 57 -35v-98q-69 44 -74 47l-131 -1253q6 -2 29 -2q88 0 182 78v-97q-30 -21 -50.5 -32.5t-58.5 -22t-83 -10.5q-4 0 -11 1t-10 1l-26 -236h-74l27 248q-49 17 -105 60l-33 -308h-73l41 379q-138 192 -138 561v37q0 269 73 439t200 233
l18 188h74l-16 -161q31 8 67 8q15 0 43 -4zM436 1343l-121 -1157q53 -71 115 -94l131 1260q-21 6 -45 6q-33 0 -80 -15zM190 735v-37q0 -264 74 -428l109 1037q-87 -68 -135 -212.5t-48 -359.5z" />
    <glyph glyph-name="naira" unicode="&#x20a6;" horiz-adv-x="983" 
d="M950 496h-143v-496h-133l-148 496h-264v-496h-86v496h-143v71h143v307h-143v72h143v488h141l146 -488h258v488h86v-488h143v-72h-143v-307h143v-71zM262 874v-307h236l-95 307h-141zM489 874l95 -307h137v307h-232zM262 1331v-389h121zM721 123v377h-117z" />
    <glyph glyph-name="rupee" unicode="&#x20a8;" horiz-adv-x="1200" 
d="M94 0v1434h142q174 0 278 -113.5t104 -314.5v-5q0 -152 -57 -256.5t-164 -152.5l244 -592h-100l-232 569q-28 -4 -61 -4h-68v-565h-86zM180 641h76q130 0 203 93.5t73 264.5v5q0 174 -81 263t-220 89h-51v-715zM907 -12q-102 0 -207 51v86q114 -62 211 -62
q67 0 112.5 45.5t45.5 118.5v4q0 58 -37 121.5t-127 153.5q-117 117 -160 189t-43 153v4q0 108 69.5 171.5t166.5 63.5t172 -34v-86q-86 45 -176 45q-67 0 -107.5 -42.5t-40.5 -113.5v-4q0 -57 35.5 -115t128.5 -151q111 -111 157 -189t46 -161v-5q0 -111 -72.5 -177
t-173.5 -66z" />
    <glyph glyph-name="won" unicode="&#x20a9;" horiz-adv-x="1267" 
d="M1149 1434l-62 -486h168v-71h-178l-39 -312h217v-71h-225l-63 -500h-109l-84 500h-282l-82 -500h-109l-63 500h-226v71h215l-39 312h-176v71h168l-61 486h92l51 -486h238l78 486h116l78 -486h234l55 486h88zM557 877l-51 -312h254l-49 312h-154zM268 877l35 -312h131
l51 312h-217zM784 877l52 -312h131l32 312h-215zM633 1333l-64 -385h131l-61 385h-6zM354 100h6l64 394h-113zM909 100h6l43 394h-112z" />
    <glyph glyph-name="sheqel" unicode="&#x20aa;" horiz-adv-x="813" 
d="M299 285l-39 430h80l39 -408q11 -126 42.5 -178.5t113.5 -52.5h108v968h82v-1044h-205q-108 0 -158.5 66t-62.5 219zM455 350v383q0 129 -33 182.5t-111 53.5h-141v-969h-82v1044h238q105 0 157 -72.5t52 -234.5v-387h-80z" />
    <glyph glyph-name="Euro" unicode="&#x20ac;" horiz-adv-x="735" 
d="M659 1407v-98q-83 47 -139 47q-105 0 -181.5 -112.5t-100.5 -317.5h325v-72h-332q-4 -26 -4 -119v-37q0 -73 2 -108h334v-72h-325q24 -211 101.5 -326.5t180.5 -113.5q75 0 146 51v-96q-71 -41 -160 -41q-134 0 -233.5 136t-127.5 390h-122v72h116q-2 33 -2 108v37
q0 93 4 119h-118v72h124q28 246 131.5 381t241.5 135q74 0 139 -35z" />
    <glyph glyph-name="peso" unicode="&#x20b1;" horiz-adv-x="882" 
d="M150 0v944h-144v72h144v418h157q184 0 294 -112.5t118 -305.5h143v-72h-145q-8 -193 -119 -311.5t-299 -118.5h-59v-514h-90zM240 594h67q146 0 229 94t91 258h-387v-352zM240 1352v-338h387q-7 160 -93.5 249t-230.5 89h-63z" />
    <glyph glyph-name="hryvnia" unicode="&#x20b4;" horiz-adv-x="679" 
d="M66 870l8 72l323 -53q65 97 90 159.5t25 125.5v4q0 86 -46.5 136t-131.5 50q-102 0 -215 -78v100q112 64 221 64q121 0 191.5 -73t70.5 -197v-4q0 -72 -24.5 -140t-85.5 -164l163 -26l-8 -70l-198 31l-9 -10v-2l-100 -142v-2q-4 -4 -4 -6l289 -47l-9 -70l-325 52
q-66 -98 -91.5 -164.5t-25.5 -136.5v-3q0 -98 50.5 -152t144.5 -54q104 0 241 90v-101q-124 -75 -248 -75q-129 0 -203.5 76t-74.5 214v5q0 75 25.5 146.5t87.5 170.5l-162 27l8 71l197 -32l18 24v2l96 135z" />
    <glyph glyph-name="numero" unicode="&#x2116;" horiz-adv-x="1263" 
d="M115 0v1434h108l350 -1211v1211h84v-1434h-100l-358 1239v-1239h-84zM991 582q-95 0 -151 110t-56 314v14q0 204 56 314t151 110t151 -110t56 -314v-14q0 -204 -56 -314t-151 -110zM991 659q60 0 92.5 92t32.5 255v14q0 162 -32.5 254t-92.5 92t-92.5 -92t-32.5 -254v-14
q0 -163 32.5 -255t92.5 -92zM788 362v80h406v-80h-406z" />
    <glyph glyph-name="published" unicode="&#x2117;" horiz-adv-x="1071" 
d="M535 -20q-145 0 -257 95.5t-170.5 254.5t-58.5 352v72q0 194 58.5 353t170.5 254t257 95q144 0 256 -95t171.5 -254t59.5 -353v-72q0 -193 -59.5 -352t-171.5 -254.5t-256 -95.5zM535 31q132 0 232 90t151 236.5t51 324.5v72q0 178 -51 324.5t-151 236.5t-232 90
q-131 0 -231 -90t-151 -236.5t-51 -324.5v-72q0 -178 51 -324.5t151 -236.5t231 -90zM397 336v788h113q101 0 164 -66t63 -184v-4q0 -119 -62.5 -186.5t-164.5 -69.5h-43v-278h-70zM467 684h47q73 2 112.5 48t39.5 136v2q0 90 -41.5 137.5t-112.5 47.5h-45v-371z" />
    <glyph glyph-name="servicemark" unicode="&#x2120;" horiz-adv-x="849" 
d="M416 788v646h82l98 -316l98 316h80v-646h-61v527l-113 -357h-8l-115 357v-527h-61zM188 782q-63 0 -120 31v72q64 -43 118 -43q37 0 58.5 21.5t21.5 62.5q0 33 -17 65.5t-67 91.5q-67 80 -90.5 121t-23.5 88q0 65 40.5 106.5t102.5 41.5q53 0 100 -27v-72q-59 39 -100 39
q-35 0 -56.5 -23.5t-21.5 -60.5q0 -31 17.5 -60.5t68.5 -88.5q64 -75 88.5 -121t24.5 -98q0 -65 -41.5 -105.5t-102.5 -40.5z" />
    <glyph glyph-name="trademark" unicode="&#x2122;" horiz-adv-x="796" 
d="M362 788v646h82l99 -316l98 316h80v-646h-62v527l-112 -357h-8l-115 357v-527h-62zM111 788v586h-103v60h271v-60h-105v-586h-63z" />
    <glyph glyph-name="Omega" unicode="&#x2126;" horiz-adv-x="860" 
d="M430 1450q159 0 251.5 -144.5t92.5 -426.5v-9q0 -395 -211 -788l221 2v-84h-303v76q203 389 203 794v9q0 244 -65.5 366.5t-188.5 122.5t-188.5 -122.5t-65.5 -366.5v-9q0 -405 203 -794v-76h-303v84l219 -2q-209 389 -209 788v9q0 282 92.5 426.5t251.5 144.5z" />
    <glyph glyph-name="onethird" unicode="&#x2153;" horiz-adv-x="1013" 
d="M748 -8q-84 0 -144 49v80q62 -62 148 -62q59 0 100 34.5t41 103.5t-50.5 104t-158.5 39h-2v49l186 250h-264v70h359v-52l-195 -258q92 -13 145.5 -62t53.5 -138q0 -96 -62 -151.5t-157 -55.5zM258 725h-72v623l-137 -76v74l144 88h65v-709zM106 0l297 733l283 703h72
l-297 -734l-285 -702h-70z" />
    <glyph glyph-name="twothirds" unicode="&#x2154;" horiz-adv-x="1105" 
d="M850 -8q-83 0 -143 49v80q62 -62 147 -62q59 0 100 34.5t41 103.5t-50.5 104t-158.5 39h-2v49l187 250h-264v70h358v-52l-195 -258q92 -13 145.5 -62t53.5 -138q0 -96 -62 -151.5t-157 -55.5zM43 725v45l233 330q68 100 68 166q0 51 -32.5 78.5t-80.5 27.5
q-83 0 -163 -88v84q74 74 170 74q77 0 128.5 -47t51.5 -127q0 -55 -20 -100t-62 -103l-189 -270h279v-70h-383zM231 0l297 733l283 703h72l-297 -734l-285 -702h-70z" />
    <glyph glyph-name="onefifth" unicode="&#x2155;" horiz-adv-x="1013" 
d="M735 -8q-86 0 -143 43v80q63 -56 143 -56q69 0 102 43.5t33 116.5q0 77 -36 113.5t-95 36.5q-54 0 -96 -25l-49 23l22 342h297v-70h-233l-18 -217q38 14 83 14q90 0 145.5 -55t55.5 -160q0 -104 -57 -166.5t-154 -62.5zM260 725h-72v623l-137 -76v74l144 88h65v-709z
M109 0l297 733l282 703h72l-297 -734l-285 -702h-69z" />
    <glyph glyph-name="twofifths" unicode="&#x2156;" horiz-adv-x="1105" 
d="M868 -8q-86 0 -143 43v80q63 -56 143 -56q69 0 102.5 43.5t33.5 116.5q0 77 -36.5 113.5t-95.5 36.5q-54 0 -96 -25l-49 23l23 342h297v-70h-234l-18 -217q38 14 84 14q90 0 145 -55t55 -160q0 -104 -57 -166.5t-154 -62.5zM242 0l297 733l282 703h72l-297 -734
l-285 -702h-69zM43 725v45l233 330q68 100 68 166q0 51 -32.5 78.5t-80.5 27.5q-83 0 -163 -88v84q74 74 170 74q77 0 128.5 -47t51.5 -127q0 -55 -20 -100t-62 -103l-189 -270h279v-70h-383z" />
    <glyph glyph-name="threefifths" unicode="&#x2157;" horiz-adv-x="1105" 
d="M868 -8q-86 0 -143 43v80q63 -56 143 -56q69 0 102.5 43.5t33.5 116.5q0 77 -36.5 113.5t-95.5 36.5q-54 0 -96 -25l-49 23l23 342h297v-70h-234l-18 -217q38 14 84 14q90 0 145 -55t55 -160q0 -104 -57 -166.5t-154 -62.5zM225 0l297 733l283 703h72l-297 -734
l-285 -702h-70zM188 717q-83 0 -143 49v80q62 -62 148 -62q59 0 100 34.5t41 103.5t-50.5 104t-158.5 39h-2v49l186 250h-264v70h358v-52l-194 -258q92 -13 145.5 -62t53.5 -138q0 -96 -62.5 -151.5t-157.5 -55.5z" />
    <glyph glyph-name="fourfifths" unicode="&#x2158;" horiz-adv-x="1105" 
d="M367 872v-147h-66v147h-276v52l260 514h82v-504h71v-62h-71zM301 934v389h-8l-193 -389h201zM868 -8q-86 0 -143 43v80q63 -56 143 -56q69 0 102.5 43.5t33.5 116.5q0 77 -36.5 113.5t-95.5 36.5q-54 0 -96 -25l-49 23l23 342h297v-70h-234l-18 -217q38 14 84 14
q90 0 145 -55t55 -160q0 -104 -57 -166.5t-154 -62.5zM229 0l297 733l283 703h72l-297 -734l-285 -702h-70z" />
    <glyph glyph-name="onesixth" unicode="&#x2159;" horiz-adv-x="1013" 
d="M750 -8q-72 0 -117 45q-72 79 -72 262v29q0 201 62 295t170 94q53 0 98 -25v-76q-44 31 -98 31q-142 0 -158 -248q60 52 129 52q77 0 126.5 -56.5t49.5 -167.5q0 -106 -52.5 -170.5t-137.5 -64.5zM752 59q56 0 86 45.5t30 124.5q0 77 -31 115.5t-83 38.5q-70 0 -119 -55
v-41q0 -228 117 -228zM260 725h-72v623l-137 -76v74l144 88h65v-709zM119 0l297 733l282 703h72l-297 -734l-285 -702h-69z" />
    <glyph glyph-name="fivesixths" unicode="&#x215a;" horiz-adv-x="1105" 
d="M881 -8q-72 0 -117 45q-72 79 -72 262v29q0 201 62 295t170 94q53 0 98 -25v-76q-44 31 -98 31q-142 0 -158 -248q60 52 129 52q77 0 126.5 -56.5t49.5 -167.5q0 -106 -52.5 -170.5t-137.5 -64.5zM883 59q56 0 86 45.5t30 124.5q0 77 -31 115.5t-83 38.5q-70 0 -119 -55
v-41q0 -228 117 -228zM225 0l297 733l283 703h72l-297 -734l-285 -702h-70zM207 717q-87 0 -144 43v80q63 -56 144 -56q69 0 102 43.5t33 116.5q0 77 -36 113.5t-95 36.5q-54 0 -96 -25l-49 23l22 342h297v-70h-233l-19 -217q38 14 84 14q90 0 145.5 -55t55.5 -160
q0 -104 -57 -166.5t-154 -62.5z" />
    <glyph glyph-name="oneeighth" unicode="&#x215b;" horiz-adv-x="1013" 
d="M748 -8q-87 0 -139 52.5t-52 143.5q0 60 29 108t80 71q-43 24 -68 66.5t-25 96.5q0 89 49.5 138t125.5 49q75 0 124.5 -49t49.5 -138q0 -54 -25 -96.5t-68 -66.5q51 -23 80 -70t29 -107q0 -92 -51.5 -145t-138.5 -53zM748 651q-47 0 -76 -33.5t-29 -87.5q0 -57 29.5 -95
t75.5 -38t75 38t29 95q0 54 -28.5 87.5t-75.5 33.5zM748 332q-54 0 -87.5 -40t-33.5 -102q0 -58 32.5 -95.5t88.5 -37.5t88 37t32 96q0 62 -33 102t-87 40zM260 725h-72v623l-137 -76v74l144 88h65v-709zM119 0l297 733l282 703h72l-297 -734l-285 -702h-69z" />
    <glyph glyph-name="threeeighths" unicode="&#x215c;" horiz-adv-x="1105" 
d="M879 -8q-87 0 -139 52.5t-52 143.5q0 60 29 108t80 71q-42 24 -67 66.5t-25 96.5q0 89 49.5 138t124.5 49t124.5 -49t49.5 -138q0 -54 -25 -96.5t-67 -66.5q51 -23 79.5 -70t28.5 -107q0 -92 -51.5 -145t-138.5 -53zM879 651q-47 0 -76 -33.5t-29 -87.5q0 -57 29.5 -95
t75.5 -38t75 38t29 95q0 54 -28.5 87.5t-75.5 33.5zM879 332q-54 0 -87.5 -40t-33.5 -102q0 -58 32.5 -95.5t88.5 -37.5t88 37t32 96q0 62 -33 102t-87 40zM225 0l297 733l283 703h72l-297 -734l-285 -702h-70zM201 717q-84 0 -144 49v80q62 -62 148 -62q59 0 100 34.5
t41 103.5t-50.5 104t-158.5 39h-2v49l187 250h-265v70h359v-52l-195 -258q92 -13 145.5 -62t53.5 -138q0 -96 -62 -151.5t-157 -55.5z" />
    <glyph glyph-name="fiveeighths" unicode="&#x215d;" horiz-adv-x="1105" 
d="M879 -8q-87 0 -139 52.5t-52 143.5q0 60 29 108t80 71q-42 24 -67 66.5t-25 96.5q0 89 49.5 138t124.5 49t124.5 -49t49.5 -138q0 -54 -25 -96.5t-67 -66.5q51 -23 79.5 -70t28.5 -107q0 -92 -51.5 -145t-138.5 -53zM879 651q-47 0 -76 -33.5t-29 -87.5q0 -57 29.5 -95
t75.5 -38t75 38t29 95q0 54 -28.5 87.5t-75.5 33.5zM879 332q-54 0 -87.5 -40t-33.5 -102q0 -58 32.5 -95.5t88.5 -37.5t88 37t32 96q0 62 -33 102t-87 40zM225 0l297 733l283 703h72l-297 -734l-285 -702h-70zM207 717q-87 0 -144 43v80q63 -56 144 -56q69 0 102 43.5
t33 116.5q0 77 -36 113.5t-95 36.5q-54 0 -96 -25l-49 23l22 342h297v-70h-233l-19 -217q38 14 84 14q90 0 145.5 -55t55.5 -160q0 -104 -57 -166.5t-154 -62.5z" />
    <glyph glyph-name="seveneighths" unicode="&#x215e;" horiz-adv-x="1105" 
d="M840 -8q-87 0 -139 52.5t-52 143.5q0 60 29 108t80 71q-42 24 -67 66.5t-25 96.5q0 89 49.5 138t124.5 49t124.5 -49t49.5 -138q0 -54 -25 -96.5t-67 -66.5q51 -23 79.5 -70t28.5 -107q0 -92 -51.5 -145t-138.5 -53zM840 651q-47 0 -76 -33.5t-29 -87.5q0 -57 29.5 -95
t75.5 -38t75 38t29 95q0 54 -28.5 87.5t-75.5 33.5zM840 332q-54 0 -87.5 -40t-33.5 -102q0 -58 32.5 -95.5t88.5 -37.5t88.5 37.5t32.5 95.5q0 62 -33.5 102t-87.5 40zM182 725h-73l245 639h-293v70h367v-60zM154 0l297 733l282 703h72l-297 -734l-285 -702h-69z" />
    <glyph glyph-name="Delta" unicode="&#x2206;" horiz-adv-x="835" 
d="M68 0l-11 59l310 1381h102l309 -1381l-10 -59h-700zM152 84h528l-264 1227z" />
    <glyph glyph-name="minus" unicode="&#x2212;" horiz-adv-x="696" 
d="M637 676h-578v90h578v-90z" />
    <glyph glyph-name="NUL" horiz-adv-x="0" 
 />
    <glyph glyph-name="CR" horiz-adv-x="337" 
 />
    <glyph glyph-name="Q.alt" horiz-adv-x="831" 
d="M676 -199l-152 211q-54 -28 -108 -28q-152 0 -246 185.5t-94 530.5v33q0 345 94 531t246 186t246 -186t94 -531v-33q0 -230 -44 -391t-122 -246l188 -262h-102zM416 66q110 0 180 165t70 469v33q0 304 -70 469.5t-180 165.5t-180 -165.5t-70 -469.5v-33q0 -304 70 -469
t180 -165z" />
    <glyph glyph-name="a.alt" horiz-adv-x="770" 
d="M350 -16q-117 0 -198.5 143t-81.5 391v39q0 246 82 390.5t198 144.5q77 0 133.5 -61.5t91.5 -162.5v207h87v-1075h-87v207q-35 -101 -91.5 -162t-133.5 -61zM360 59q86 0 153 124t67 329v51q0 205 -67 329t-153 124q-88 0 -146 -122.5t-58 -338.5v-35q0 -216 58 -338.5
t146 -122.5z" />
    <glyph glyph-name="uni039E.alt" horiz-adv-x="755" 
d="M698 82v-82h-641v82h277v600h-244v82h244v588h-273v82h633v-82h-272v-588h244v-82h-244v-600h276z" />
    <glyph glyph-name="uni0424.bgr" horiz-adv-x="1150" 
d="M530 -188v174q-215 17 -336.5 208t-121.5 515v14q0 325 120.5 515.5t337.5 209.5v172h91v-172q215 -20 336.5 -210.5t121.5 -512.5v-14q0 -324 -122 -516t-336 -209v-174h-91zM989 711v14q0 286 -97 454t-271 187v-1298q174 17 271 186.5t97 456.5zM162 723v-14
q0 -287 96 -455.5t272 -185.5v1298q-177 -19 -272.5 -186.5t-95.5 -456.5z" />
    <glyph glyph-name="uni0432.bgr" horiz-adv-x="753" 
d="M385 -14q-287 0 -287 393v727q0 160 77.5 253t213.5 93q127 0 207 -94t80 -246v-10q0 -145 -69 -243t-165 -134q50 -16 92 -42.5t79 -68.5t58 -106t21 -143v-7q0 -167 -81.5 -269.5t-225.5 -102.5zM385 63q108 0 164.5 79t56.5 216v4q0 146 -79.5 234t-225.5 88h-121
v-301q0 -320 205 -320zM180 1106v-354h115q141 0 218 99.5t77 248.5v6q0 124 -55 195t-148 71q-98 0 -152.5 -71t-54.5 -195z" />
    <glyph glyph-name="uni0433.bgr" horiz-adv-x="589" 
d="M301 -12q-113 0 -181.5 60.5t-68.5 172.5v4q0 86 49 164.5t170 190.5q109 106 146 160.5t37 117.5v4q0 70 -44 108t-118 38q-96 0 -182 -45v88q84 36 184 36q112 0 179 -58.5t67 -166.5v-4q0 -83 -45.5 -151t-169.5 -189q-111 -106 -149 -164.5t-38 -124.5v-4
q0 -76 45.5 -116.5t122.5 -40.5q106 0 219 61v-88q-116 -53 -223 -53z" />
    <glyph glyph-name="uni0434.bgr" horiz-adv-x="770" 
d="M350 -270q-117 0 -235 43v88q132 -51 239 -51q221 0 221 217v254q-35 -101 -91.5 -162.5t-133.5 -61.5q-114 0 -197 136t-83 372v19q0 233 83 370.5t197 137.5q77 0 133.5 -61.5t91.5 -162.5v207h87v-1044q0 -145 -76 -221q-80 -80 -236 -80zM360 133q85 0 152.5 119
t67.5 313v19q0 194 -67.5 313t-152.5 119q-84 0 -144 -117t-60 -317v-15q0 -200 60 -317t144 -117z" />
    <glyph glyph-name="uni0436.bgr" horiz-adv-x="1060" 
d="M573 1448v-868h115l213 495h94l-237 -534l258 -541h-94l-234 500h-115v-500h-86v500h-114l-236 -500h-92l258 535l-237 540h96l211 -495h114v868h86z" />
    <glyph glyph-name="uni0438.bgr" horiz-adv-x="761" 
d="M346 -16q-113 0 -179.5 88.5t-66.5 251.5v751h86v-743q0 -135 45 -205t131 -70q88 0 146.5 81t58.5 210v727h86v-1075h-86v158q-75 -174 -221 -174z" />
    <glyph glyph-name="uni0439.bgr" horiz-adv-x="761" 
d="M346 -16q-113 0 -179.5 88.5t-66.5 251.5v751h86v-743q0 -135 45 -205t131 -70q88 0 146.5 81t58.5 210v727h86v-1075h-86v158q-75 -174 -221 -174zM379 1178q-81 0 -131 47.5t-60 144.5h74q21 -113 117 -113t117 113h73q-10 -97 -59.5 -144.5t-130.5 -47.5z" />
    <glyph glyph-name="uni043A.bgr" horiz-adv-x="688" 
d="M647 0h-96l-242 500h-114v-500h-86v1448h86v-868h114l219 495h97l-244 -534z" />
    <glyph glyph-name="uni043F.bgr" horiz-adv-x="761" 
d="M109 0v1075h86v-157q75 174 221 174q113 0 179.5 -88.5t66.5 -251.5v-752h-87v743q0 135 -45 205t-131 70q-87 0 -145.5 -81t-58.5 -210v-727h-86z" />
    <glyph glyph-name="uni0442.bgr" horiz-adv-x="1204" 
d="M109 0v1075h86v-157q75 174 215 174q151 0 211 -183q81 183 237 183q113 0 179.5 -87t66.5 -249v-756h-86v748q0 133 -44.5 201.5t-125.5 68.5q-86 0 -142.5 -79t-56.5 -208v-731h-86v748q0 133 -44.5 201.5t-125.5 68.5q-86 0 -142 -79t-56 -208v-731h-86z" />
    <glyph glyph-name="uni0446.bgr" horiz-adv-x="774" 
d="M670 -213v213h-103v158q-75 -174 -221 -174q-113 0 -179.5 88.5t-66.5 251.5v751h86v-743q0 -135 45 -205t131 -70q88 0 146.5 81t58.5 210v727h86v-995h97v-293h-80z" />
    <glyph glyph-name="uni0448.bgr" horiz-adv-x="1204" 
d="M1096 1075v-1075h-86v158q-75 -174 -215 -174q-151 0 -211 182q-81 -182 -238 -182q-113 0 -179.5 86.5t-66.5 248.5v756h86v-747q0 -133 44.5 -202t125.5 -69q86 0 142.5 79t56.5 208v731h86v-747q0 -133 44.5 -202t125.5 -69q86 0 142.5 79t56.5 208v731h86z" />
    <glyph glyph-name="uni0449.bgr" horiz-adv-x="1216" 
d="M1096 1075v-995h96v-293h-80v213h-102v158q-75 -174 -215 -174q-151 0 -211 182q-81 -182 -238 -182q-113 0 -179.5 86.5t-66.5 248.5v756h86v-747q0 -133 44.5 -202t125.5 -69q86 0 142.5 79t56.5 208v731h86v-747q0 -133 44.5 -202t125.5 -69q86 0 142.5 79t56.5 208
v731h86z" />
    <glyph glyph-name="uni044E.bgr" horiz-adv-x="1024" 
d="M195 504v-504h-86v1448h86v-864h163q7 230 94.5 369t206.5 139q123 0 211 -150.5t88 -394.5v-19q0 -243 -88.5 -393.5t-212.5 -150.5q-120 0 -207.5 143t-91.5 377h-163zM657 63q92 0 153.5 128t61.5 337v19q0 209 -61.5 337t-153.5 128q-90 0 -151.5 -128t-61.5 -337
v-19q0 -209 61.5 -337t151.5 -128z" />
    <glyph glyph-name="aacute.alt" horiz-adv-x="770" 
d="M350 -16q-117 0 -198.5 143t-81.5 391v39q0 246 82 390.5t198 144.5q77 0 133.5 -61.5t91.5 -162.5v207h87v-1075h-87v207q-35 -101 -91.5 -162t-133.5 -61zM360 59q86 0 153 124t67 329v51q0 205 -67 329t-153 124q-88 0 -146 -122.5t-58 -338.5v-35q0 -216 58 -338.5
t146 -122.5zM360 1180l132 256l96 -52l-168 -204h-60z" />
    <glyph glyph-name="abreve.alt" horiz-adv-x="770" 
d="M350 -16q-117 0 -198.5 143t-81.5 391v39q0 246 82 390.5t198 144.5q77 0 133.5 -61.5t91.5 -162.5v207h87v-1075h-87v207q-35 -101 -91.5 -162t-133.5 -61zM360 59q86 0 153 124t67 329v51q0 205 -67 329t-153 124q-88 0 -146 -122.5t-58 -338.5v-35q0 -216 58 -338.5
t146 -122.5zM397 1186q-81 0 -130.5 47.5t-59.5 144.5h74q21 -112 116 -112q96 0 117 112h74q-10 -97 -60 -144.5t-131 -47.5z" />
    <glyph glyph-name="acircumflex.alt" horiz-adv-x="770" 
d="M350 -16q-117 0 -198.5 143t-81.5 391v39q0 246 82 390.5t198 144.5q77 0 133.5 -61.5t91.5 -162.5v207h87v-1075h-87v207q-35 -101 -91.5 -162t-133.5 -61zM360 59q86 0 153 124t67 329v51q0 205 -67 329t-153 124q-88 0 -146 -122.5t-58 -338.5v-35q0 -216 58 -338.5
t146 -122.5zM225 1190l137 250h70l137 -250h-75l-99 153l-98 -153h-72z" />
    <glyph glyph-name="adieresis.alt" horiz-adv-x="770" 
d="M350 -16q-117 0 -198.5 143t-81.5 391v39q0 246 82 390.5t198 144.5q77 0 133.5 -61.5t91.5 -162.5v207h87v-1075h-87v207q-35 -101 -91.5 -162t-133.5 -61zM360 59q86 0 153 124t67 329v51q0 205 -67 329t-153 124q-88 0 -146 -122.5t-58 -338.5v-35q0 -216 58 -338.5
t146 -122.5zM453 1200v137h94v-137h-94zM248 1200v137h94v-137h-94z" />
    <glyph glyph-name="agrave.alt" horiz-adv-x="770" 
d="M350 -16q-117 0 -198.5 143t-81.5 391v39q0 246 82 390.5t198 144.5q77 0 133.5 -61.5t91.5 -162.5v207h87v-1075h-87v207q-35 -101 -91.5 -162t-133.5 -61zM360 59q86 0 153 124t67 329v51q0 205 -67 329t-153 124q-88 0 -146 -122.5t-58 -338.5v-35q0 -216 58 -338.5
t146 -122.5zM375 1180l-168 204l96 52l131 -256h-59z" />
    <glyph glyph-name="amacron.alt" horiz-adv-x="770" 
d="M350 -16q-117 0 -198.5 143t-81.5 391v39q0 246 82 390.5t198 144.5q77 0 133.5 -61.5t91.5 -162.5v207h87v-1075h-87v207q-35 -101 -91.5 -162t-133.5 -61zM360 59q86 0 153 124t67 329v51q0 205 -67 329t-153 124q-88 0 -146 -122.5t-58 -338.5v-35q0 -216 58 -338.5
t146 -122.5zM213 1204v80h369v-80h-369z" />
    <glyph glyph-name="aogonek.alt" horiz-adv-x="770" 
d="M678 -178v-66q-23 -2 -41 -2q-127 0 -127 96q0 64 80 150h-15v207q-35 -101 -91.5 -162t-133.5 -61q-117 0 -198.5 143t-81.5 391v39q0 246 82 390.5t198 144.5q77 0 133.5 -61.5t91.5 -162.5v207h87v-1075h-13q-57 -79 -57 -125q0 -53 86 -53zM360 59q86 0 153 124
t67 329v51q0 205 -67 329t-153 124q-88 0 -146 -122.5t-58 -338.5v-35q0 -216 58 -338.5t146 -122.5z" />
    <glyph glyph-name="aring.alt" horiz-adv-x="770" 
d="M350 -16q-117 0 -198.5 143t-81.5 391v39q0 246 82 390.5t198 144.5q77 0 133.5 -61.5t91.5 -162.5v207h87v-1075h-87v207q-35 -101 -91.5 -162t-133.5 -61zM360 59q86 0 153 124t67 329v51q0 205 -67 329t-153 124q-88 0 -146 -122.5t-58 -338.5v-35q0 -216 58 -338.5
t146 -122.5zM395 1182q-68 0 -113.5 46.5t-45.5 114.5t47 115t116 47q68 0 114 -47t46 -115t-47.5 -114.5t-116.5 -46.5zM397 1235q44 0 73.5 30.5t29.5 77.5t-29.5 78t-73.5 31t-73 -31t-29 -78t29 -77.5t73 -30.5z" />
    <glyph glyph-name="aring.alt2" horiz-adv-x="706" 
d="M303 -18q-108 0 -177 94t-69 237v17q0 153 75.5 248.5t207.5 95.5q93 0 180 -41v135q0 115 -51.5 176.5t-153.5 61.5q-108 0 -198 -50v84q75 31 119 39q-48 45 -48 117q0 68 47.5 115t116.5 47q68 0 114 -47t46 -115q0 -81 -70 -131q49 -18 86 -55q78 -78 78 -232v-778
h-86v156q-71 -174 -217 -174zM315 57q90 0 147.5 84t57.5 195v215q-91 43 -176 43q-97 0 -149 -71.5t-52 -188.5v-17q0 -114 45 -187t127 -73zM248 1196q0 -47 29 -78t73 -31t73.5 31t29.5 78t-29.5 78t-73.5 31t-73 -31t-29 -78z" />
    <glyph glyph-name="aringacute.alt" horiz-adv-x="770" 
d="M356 1569l138 205l88 -48l-162 -157h-64zM350 -16q-117 0 -198.5 143t-81.5 391v39q0 246 82 390.5t198 144.5q77 0 133.5 -61.5t91.5 -162.5v207h87v-1075h-87v207q-35 -101 -91.5 -162t-133.5 -61zM360 59q86 0 153 124t67 329v51q0 205 -67 329t-153 124
q-88 0 -146 -122.5t-58 -338.5v-35q0 -216 58 -338.5t146 -122.5zM393 1182q-69 0 -114.5 46.5t-45.5 114.5t47.5 115t116.5 47q68 0 114 -47t46 -115t-47.5 -114.5t-116.5 -46.5zM395 1235q44 0 73.5 30.5t29.5 77.5t-29.5 78t-73.5 31t-73 -31t-29 -78t29 -77.5t73 -30.5z
" />
    <glyph glyph-name="aringacute.alt2" horiz-adv-x="706" 
d="M311 1393l138 204l88 -47l-162 -157h-64zM303 -18q-108 0 -177 94t-69 237v17q0 153 75.5 248.5t207.5 95.5q93 0 180 -41v135q0 115 -51.5 176.5t-153.5 61.5q-108 0 -198 -50v84q75 31 119 39q-48 45 -48 117q0 68 47.5 115t116.5 47q68 0 114 -47t46 -115
q0 -81 -70 -131q49 -18 86 -55q78 -78 78 -232v-778h-86v156q-71 -174 -217 -174zM315 57q90 0 147.5 84t57.5 195v215q-91 43 -176 43q-97 0 -149 -71.5t-52 -188.5v-17q0 -114 45 -187t127 -73zM248 1196q0 -47 29 -78t73 -31t73.5 31t29.5 78t-29.5 78t-73.5 31t-73 -31
t-29 -78z" />
    <glyph glyph-name="atilde.alt" horiz-adv-x="770" 
d="M350 -16q-117 0 -198.5 143t-81.5 391v39q0 246 82 390.5t198 144.5q77 0 133.5 -61.5t91.5 -162.5v207h87v-1075h-87v207q-35 -101 -91.5 -162t-133.5 -61zM360 59q86 0 153 124t67 329v51q0 205 -67 329t-153 124q-88 0 -146 -122.5t-58 -338.5v-35q0 -216 58 -338.5
t146 -122.5zM487 1184q-30 0 -49 11t-53 42q-47 47 -70 47q-33 0 -57 -92l-61 16q38 154 110 154q30 0 49.5 -11.5t53.5 -41.5q47 -47 69 -47q34 0 58 92l61 -17q-38 -153 -111 -153z" />
    <glyph glyph-name="i.dot" horiz-adv-x="327" 
d="M117 1305v143h94v-143h-94zM121 0v1075h86v-1075h-86z" />
    <glyph glyph-name="uni0386.calt" horiz-adv-x="839" 
d="M57 0l314 1440h98l313 -1440h-94l-84 401h-373l-84 -401h-90zM248 483h340l-170 815z" />
    <glyph glyph-name="uni0388.calt" horiz-adv-x="665" 
d="M115 0v1434h487v-82h-397v-588h362v-82h-362v-600h403v-82h-493z" />
    <glyph glyph-name="uni0389.calt" horiz-adv-x="851" 
d="M115 0v1434h90v-672h442v672h90v-1434h-90v680h-442v-680h-90z" />
    <glyph glyph-name="uni038A.calt" horiz-adv-x="348" 
d="M129 0v1434h90v-1434h-90z" />
    <glyph glyph-name="uni038C.calt" horiz-adv-x="831" 
d="M416 -16q-152 0 -246 185.5t-94 530.5v33q0 345 94 531t246 186t246 -186t94 -531v-33q0 -345 -94 -530.5t-246 -185.5zM416 66q110 0 180 165t70 469v33q0 304 -70 469.5t-180 165.5t-180 -165.5t-70 -469.5v-33q0 -304 70 -469t180 -165z" />
    <glyph glyph-name="uni038E.calt" horiz-adv-x="720" 
d="M315 0v618l-299 816h99l247 -703l250 703h93l-299 -816v-618h-91z" />
    <glyph glyph-name="uni038F.calt" horiz-adv-x="860" 
d="M430 1450q159 0 251.5 -144.5t92.5 -426.5v-9q0 -395 -211 -788l221 2v-84h-303v76q203 389 203 794v9q0 244 -65.5 366.5t-188.5 122.5t-188.5 -122.5t-65.5 -366.5v-9q0 -405 203 -794v-76h-303v84l219 -2q-209 389 -209 788v9q0 282 92.5 426.5t251.5 144.5z" />
    <glyph glyph-name="uni0399.calt" horiz-adv-x="348" 
d="M129 0v1434h90v-1434h-90zM231 1536v129h103v-129h-103zM18 1536v129h103v-129h-103z" />
    <glyph glyph-name="uni03A5.calt" horiz-adv-x="720" 
d="M315 0v618l-299 816h99l247 -703l250 703h93l-299 -816v-618h-91zM418 1528v129h102v-129h-102zM205 1528v129h102v-129h-102z" />
    <glyph glyph-name="uni0431.srb" horiz-adv-x="739" 
d="M365 -16q-132 0 -214.5 142t-82.5 376v12q0 227 80.5 362.5t211.5 135.5q5 0 33 -4l-160 170q-46 47 -66 81t-20 74q0 51 36 83t110 32h319v-80h-315q-64 0 -64 -47q0 -19 11.5 -36.5t46.5 -57.5l205 -230q176 -198 176 -477v-12q0 -240 -83 -382t-224 -142zM367 63
q104 0 161.5 120.5t57.5 324.5v12q0 115 -25 210t-76 153.5t-118 58.5q-103 0 -158 -116t-55 -312v-12q0 -199 57 -319t156 -120z" />
    <glyph glyph-name="three.alt" horiz-adv-x="634" 
d="M215 -16q-84 0 -172 36v84q93 -38 174 -38q123 0 194.5 84.5t71.5 236.5v4q0 152 -81.5 230t-233.5 86v77h2q133 12 220 101.5t87 226.5v4q0 118 -60.5 185t-170.5 67q-99 0 -180 -51v84q92 49 192 49q148 0 228.5 -93t80.5 -235v-8q0 -134 -68.5 -224.5t-185.5 -137.5
q121 -33 190.5 -128t69.5 -235v-4q0 -180 -97.5 -290.5t-260.5 -110.5z" />
    <glyph glyph-name="registered.alt" horiz-adv-x="1071" 
d="M535 -20q-145 0 -257 95.5t-170.5 254.5t-58.5 352v72q0 194 58.5 353t170.5 254t257 95q144 0 256 -95t171.5 -254t59.5 -353v-72q0 -193 -59.5 -352t-171.5 -254.5t-256 -95.5zM535 31q132 0 232 90t151 236.5t51 324.5v72q0 178 -51 324.5t-151 236.5t-232 90
q-131 0 -231 -90t-151 -236.5t-51 -324.5v-72q0 -178 51 -324.5t151 -236.5t231 -90zM383 336v788h121q105 0 166 -61q63 -63 63 -174v-6q0 -78 -33 -134t-90 -83l142 -330h-78l-129 307q-18 -2 -37 -2h-55v-305h-70zM453 709h55q71 0 112.5 43.5t41.5 128.5v4
q0 83 -43 126.5t-115 43.5h-51v-346z" />
    <glyph glyph-name="one.sup_alt" 
d="M444 954h-372v66h159v563l-159 -82v78l166 90h65v-649h141v-66z" />
    <glyph glyph-name="one.inf_alt" 
d="M444 -268h-372v65h159v563l-159 -81v77l166 90h65v-649h141v-65z" />
    <glyph glyph-name="zero.num" 
d="M246 717q-95 0 -144 84.5t-49 269.5v14q0 357 193 357q95 0 143.5 -84.5t48.5 -270.5v-14q0 -356 -192 -356zM246 1374q-119 0 -119 -287v-14q0 -145 31.5 -217t87.5 -72t87.5 71t31.5 216v14q0 289 -119 289z" />
    <glyph glyph-name="one.num" horiz-adv-x="399" 
d="M254 725h-72v623l-137 -76v74l143 88h66v-709z" />
    <glyph glyph-name="one.num_alt" 
d="M444 725h-372v66h159v563l-159 -82v78l166 90h65v-649h141v-66z" />
    <glyph glyph-name="two.num" 
d="M49 725v45l234 330q67 98 67 166q0 51 -32.5 78.5t-79.5 27.5q-84 0 -164 -88v84q74 74 170 74q77 0 128.5 -47t51.5 -127q0 -55 -20 -100t-62 -103l-188 -270h278v-70h-383z" />
    <glyph glyph-name="three.num" 
d="M207 717q-84 0 -144 49v80q62 -62 148 -62q59 0 100 34.5t41 103.5t-50.5 104t-158.5 39h-2v49l187 250h-265v70h359v-52l-195 -258q92 -13 145.5 -62t53.5 -138q0 -96 -62 -151.5t-157 -55.5z" />
    <glyph glyph-name="four.num" 
d="M383 872v-147h-66v147h-276v52l260 514h82v-504h72v-62h-72zM317 934v389h-8l-192 -389h200z" />
    <glyph glyph-name="five.num" 
d="M215 717q-86 0 -143 43v80q63 -56 143 -56q69 0 102 43.5t33 116.5q0 77 -36 113.5t-95 36.5q-54 0 -96 -25l-49 23l22 342h297v-70h-233l-19 -217q38 14 84 14q90 0 145.5 -55t55.5 -160q0 -104 -57 -166.5t-154 -62.5z" />
    <glyph glyph-name="six.num" 
d="M248 717q-72 0 -117 45q-72 79 -72 262v29q0 201 62 295t170 94q53 0 98 -25v-76q-44 31 -98 31q-142 0 -158 -248q60 52 129 52q77 0 126.5 -56.5t49.5 -167.5q0 -106 -52.5 -170.5t-137.5 -64.5zM250 784q56 0 86.5 45.5t30.5 124.5q0 76 -31.5 115t-83.5 39
q-70 0 -119 -55v-41q0 -228 117 -228z" />
    <glyph glyph-name="seven.num" 
d="M182 725h-73l245 639h-293v70h367v-60z" />
    <glyph glyph-name="eight.num" 
d="M246 717q-87 0 -139 52.5t-52 143.5q0 60 29 108t80 71q-42 24 -67 66.5t-25 96.5q0 89 49.5 138t124.5 49t124.5 -49t49.5 -138q0 -54 -25 -96.5t-67 -66.5q51 -23 79.5 -70t28.5 -107q0 -92 -51.5 -145t-138.5 -53zM246 1376q-47 0 -76 -33.5t-29 -87.5q0 -57 29.5 -95
t75.5 -38t75 38t29 95q0 54 -28.5 87.5t-75.5 33.5zM246 1057q-54 0 -87.5 -40t-33.5 -102q0 -58 32.5 -95.5t88.5 -37.5t88.5 37.5t32.5 95.5q0 62 -33.5 102t-87.5 40z" />
    <glyph glyph-name="nine.num" 
d="M250 1442q72 0 117 -45q71 -78 71 -262v-29q0 -200 -62 -294.5t-169 -94.5q-59 0 -113 28v74q54 -33 113 -33q70 0 110 62.5t48 175.5q-59 -51 -129 -51q-77 0 -127 57t-50 170q0 110 53 176t138 66zM246 1040q69 0 119 56v51q0 227 -117 227q-56 0 -86.5 -47.5
t-30.5 -128.5t31 -119.5t84 -38.5z" />
    <glyph glyph-name="zero.den" 
d="M246 -8q-95 0 -144 84.5t-49 269.5v14q0 357 193 357q95 0 143.5 -84.5t48.5 -270.5v-14q0 -356 -192 -356zM246 649q-119 0 -119 -287v-14q0 -145 31.5 -217t87.5 -72t87.5 71t31.5 216v14q0 289 -119 289z" />
    <glyph glyph-name="one.den" horiz-adv-x="399" 
d="M254 0h-72v623l-137 -76v74l143 88h66v-709z" />
    <glyph glyph-name="one.den_alt" 
d="M444 0h-372v66h159v563l-159 -82v78l166 90h65v-649h141v-66z" />
    <glyph glyph-name="two.den" 
d="M49 0v45l234 330q67 98 67 166q0 51 -32.5 78.5t-79.5 27.5q-84 0 -164 -88v84q74 74 170 74q77 0 128.5 -47t51.5 -127q0 -55 -20 -100t-62 -103l-188 -270h278v-70h-383z" />
    <glyph glyph-name="three.den" 
d="M207 -8q-84 0 -144 49v80q62 -62 148 -62q59 0 100 34.5t41 103.5t-50.5 104t-158.5 39h-2v49l187 250h-265v70h359v-52l-195 -258q92 -13 145.5 -62t53.5 -138q0 -96 -62 -151.5t-157 -55.5z" />
    <glyph glyph-name="four.den" 
d="M383 147v-147h-66v147h-276v52l260 514h82v-504h72v-62h-72zM317 209v389h-8l-192 -389h200z" />
    <glyph glyph-name="five.den" 
d="M215 -8q-86 0 -143 43v80q63 -56 143 -56q69 0 102 43.5t33 116.5q0 77 -36 113.5t-95 36.5q-54 0 -96 -25l-49 23l22 342h297v-70h-233l-19 -217q38 14 84 14q90 0 145.5 -55t55.5 -160q0 -104 -57 -166.5t-154 -62.5z" />
    <glyph glyph-name="six.den" 
d="M248 -8q-72 0 -117 45q-72 79 -72 262v29q0 201 62 295t170 94q53 0 98 -25v-76q-44 31 -98 31q-142 0 -158 -248q60 52 129 52q77 0 126.5 -56.5t49.5 -167.5q0 -106 -52.5 -170.5t-137.5 -64.5zM250 59q56 0 86.5 45.5t30.5 124.5q0 76 -31.5 115t-83.5 39
q-70 0 -119 -55v-41q0 -228 117 -228z" />
    <glyph glyph-name="seven.den" 
d="M182 0h-73l245 639h-293v70h367v-60z" />
    <glyph glyph-name="eight.den" 
d="M246 -8q-87 0 -139 52.5t-52 143.5q0 60 29 108t80 71q-42 24 -67 66.5t-25 96.5q0 89 49.5 138t124.5 49t124.5 -49t49.5 -138q0 -54 -25 -96.5t-67 -66.5q51 -23 79.5 -70t28.5 -107q0 -92 -51.5 -145t-138.5 -53zM246 651q-47 0 -76 -33.5t-29 -87.5q0 -57 29.5 -95
t75.5 -38t75 38t29 95q0 54 -28.5 87.5t-75.5 33.5zM246 332q-54 0 -87.5 -40t-33.5 -102q0 -58 32.5 -95.5t88.5 -37.5t88.5 37.5t32.5 95.5q0 62 -33.5 102t-87.5 40z" />
    <glyph glyph-name="nine.den" 
d="M250 717q72 0 117 -45q71 -78 71 -262v-29q0 -200 -62 -294.5t-169 -94.5q-59 0 -113 28v74q54 -33 113 -33q70 0 110 62.5t48 175.5q-59 -51 -129 -51q-77 0 -127 57t-50 170q0 110 53 176t138 66zM246 315q69 0 119 56v51q0 227 -117 227q-56 0 -86.5 -47.5
t-30.5 -128.5t31 -119.5t84 -38.5z" />
    <glyph glyph-name="onehalf.alt" horiz-adv-x="1105" 
d="M414 725h-373v66h160v563l-160 -82v78l166 90h65v-649h142v-66zM688 0v45l234 330q67 98 67 166q0 51 -32.5 78.5t-79.5 27.5q-84 0 -164 -88v84q74 74 170 74q77 0 128.5 -47t51.5 -127q0 -55 -20 -100t-62 -103l-188 -270h278v-70h-383zM246 0l297 733l282 703h72
l-297 -734l-285 -702h-69z" />
    <glyph glyph-name="onethird.alt" horiz-adv-x="1105" 
d="M414 725h-373v66h160v563l-160 -82v78l166 90h65v-649h142v-66zM850 -8q-83 0 -143 49v80q62 -62 147 -62q59 0 100 34.5t41 103.5t-50.5 104t-158.5 39h-2v49l187 250h-264v70h358v-52l-195 -258q92 -13 145.5 -62t53.5 -138q0 -96 -62 -151.5t-157 -55.5zM236 0
l296 733l283 703h72l-297 -734l-285 -702h-69z" />
    <glyph glyph-name="onequarter.alt" horiz-adv-x="1105" 
d="M424 725h-373v66h160v563l-160 -82v78l166 90h66v-649h141v-66zM266 0l297 733l283 703h72l-297 -734l-285 -702h-70zM997 147v-147h-65v147h-277v52l260 514h82v-504h72v-62h-72zM932 209v389h-8l-193 -389h201z" />
    <glyph glyph-name="onefifth.alt" horiz-adv-x="1105" 
d="M414 725h-373v66h160v563l-160 -82v78l166 90h65v-649h142v-66zM858 -8q-86 0 -143 43v80q63 -56 143 -56q69 0 102 43.5t33 116.5q0 77 -36 113.5t-95 36.5q-54 0 -96 -25l-49 23l22 342h297v-70h-233l-19 -217q38 14 84 14q90 0 145.5 -55t55.5 -160q0 -104 -57 -166.5
t-154 -62.5zM246 0l297 733l282 703h72l-297 -734l-285 -702h-69z" />
    <glyph glyph-name="onesixth.alt" horiz-adv-x="1105" 
d="M414 725h-373v66h160v563l-160 -82v78l166 90h65v-649h142v-66zM891 -8q-72 0 -117 45q-72 79 -72 262v29q0 201 62 295t170 94q53 0 98 -25v-76q-44 31 -98 31q-142 0 -158 -248q60 52 129 52q77 0 126.5 -56.5t49.5 -167.5q0 -106 -52.5 -170.5t-137.5 -64.5zM893 59
q56 0 86.5 45.5t30.5 124.5q0 76 -31.5 115t-83.5 39q-70 0 -119 -55v-41q0 -228 117 -228zM256 0l297 733l283 703h71l-297 -734l-284 -702h-70z" />
    <glyph glyph-name="oneeighth.alt" horiz-adv-x="1105" 
d="M414 725h-373v66h160v563l-160 -82v78l166 90h65v-649h142v-66zM889 -8q-87 0 -139 52.5t-52 143.5q0 60 29 108t80 71q-42 24 -67 66.5t-25 96.5q0 89 49.5 138t124.5 49t124.5 -49t49.5 -138q0 -54 -25 -96.5t-67 -66.5q51 -23 79.5 -70t28.5 -107q0 -92 -51.5 -145
t-138.5 -53zM889 651q-47 0 -76 -33.5t-29 -87.5q0 -57 29.5 -95t75.5 -38t75 38t29 95q0 54 -28.5 87.5t-75.5 33.5zM889 332q-54 0 -87.5 -40t-33.5 -102q0 -58 32.5 -95.5t88.5 -37.5t88.5 37.5t32.5 95.5q0 62 -33.5 102t-87.5 40zM256 0l297 733l283 703h71l-297 -734
l-284 -702h-70z" />
    <glyph glyph-name="zero.tab" horiz-adv-x="737" 
d="M369 -16q-150 0 -222.5 170t-72.5 544v33q0 376 72 547.5t223 171.5q150 0 222.5 -170.5t72.5 -544.5v-33q0 -374 -73 -546t-222 -172zM369 1368q-105 0 -155 -155.5t-50 -477.5v-33q0 -636 205 -636q104 0 154 155.5t50 476.5v33q0 323 -49.5 480t-154.5 157z" />
    <glyph glyph-name="one.tab" horiz-adv-x="737" 
d="M678 0h-582v82h262v1241l-256 -170v102l265 179h79v-1352h232v-82z" />
    <glyph glyph-name="two.tab" horiz-adv-x="737" 
d="M653 0h-587v59l358 680q65 126 94 213.5t29 171.5q0 110 -53 173t-144 63q-126 0 -246 -141v108q108 123 254 123q125 0 204 -88t79 -227v-9q0 -98 -32 -190t-105 -229l-326 -619h475v-88z" />
    <glyph glyph-name="three.tab" horiz-adv-x="737" 
d="M305 -16q-138 0 -229 88v98q102 -102 229 -102q120 0 188 84.5t68 242.5v13q0 154 -86.5 228t-253.5 85h-6l-2 63l322 557h-459v93h569v-62l-336 -579q55 -9 102 -25t93 -46t78 -71t51.5 -102.5t19.5 -138.5v-13q0 -193 -95.5 -303t-252.5 -110z" />
    <glyph glyph-name="three.tab_alt" horiz-adv-x="737" 
d="M307 -16q-74 0 -136.5 24t-96.5 58v98q42 -40 105 -69t130 -29q116 0 182 85t66 238q0 154 -89.5 232t-254.5 84h-8v79h8q148 8 242 100t94 238q0 115 -58.5 180.5t-154.5 65.5q-129 0 -240 -111v99q38 39 104 66.5t140 27.5q141 0 221 -91.5t80 -232.5q0 -268 -268 -376
q128 -37 201 -129t73 -234q0 -181 -92 -292t-248 -111z" />
    <glyph glyph-name="four.tab" horiz-adv-x="737" 
d="M494 0v330h-441v71l428 1043h97v-1034h114v-80h-114v-330h-84zM494 410v852h-9l-346 -852h355z" />
    <glyph glyph-name="five.tab" horiz-adv-x="737" 
d="M307 -16q-59 0 -117 21t-94 54v97q101 -88 211 -88q121 0 185.5 101t64.5 275v7q0 165 -65.5 240t-169.5 75q-84 0 -158 -51l-64 41l31 678h463v-88h-385l-23 -531q58 37 148 37q136 0 224.5 -101.5t88.5 -299.5v-7q0 -205 -93 -332.5t-247 -127.5z" />
    <glyph glyph-name="six.tab" horiz-adv-x="737" 
d="M397 891q120 0 200.5 -108t80.5 -322v-8q0 -211 -81 -340t-210 -129q-95 0 -158 63q-137 130 -137 557v58q0 208 26.5 362t75 246t112 136t143.5 44q76 0 147 -41v-94q-82 47 -147 47q-71 0 -123.5 -50.5t-82 -136.5t-44.5 -182t-17 -205q103 103 215 103zM389 63
q92 0 146.5 111t54.5 277v8q0 171 -57 260.5t-144 89.5q-103 0 -207 -119v-112q0 -145 17 -249.5t47.5 -160t65.5 -80.5t77 -25z" />
    <glyph glyph-name="seven.tab" horiz-adv-x="737" 
d="M561 1346h-479v88h569v-78l-401 -1356h-90z" />
    <glyph glyph-name="eight.tab" horiz-adv-x="737" 
d="M369 -16q-133 0 -210 105t-77 276v14q0 128 48 224t138 136q-79 43 -121.5 130.5t-42.5 209.5v13q0 168 74.5 263t190.5 95t190 -95t74 -263v-13q0 -122 -42.5 -209.5t-121.5 -130.5q90 -40 138 -136t48 -224v-14q0 -171 -76.5 -276t-209.5 -105zM369 778q82 0 128 89
t46 214v9q0 130 -44.5 205t-129.5 75t-129.5 -75t-44.5 -205v-9q0 -80 19.5 -148t60 -111.5t94.5 -43.5zM369 63q94 0 147 86t53 220v6q0 141 -55 232t-145 91t-145.5 -91t-55.5 -232v-6q0 -133 53.5 -219.5t147.5 -86.5z" />
    <glyph glyph-name="nine.tab" horiz-adv-x="737" 
d="M350 530q-120 0 -200 109.5t-80 327.5v8q0 215 80.5 345t209.5 130q94 0 158 -64q137 -137 137 -557v-57q0 -208 -26 -362t-74.5 -246t-112 -136t-143.5 -44q-83 0 -168 47v94q95 -53 168 -53q70 0 122 50t81.5 135t44 177.5t16.5 196.5q-98 -101 -213 -101zM358 1370
q-62 0 -108 -53t-69 -141t-23 -199v-8q0 -176 56.5 -266.5t143.5 -90.5q103 0 207 119v125q0 145 -17.5 249.5t-48 160t-65.5 80t-76 24.5z" />
    <glyph glyph-name="dollar.tab" horiz-adv-x="737" 
d="M451 1602l-11 -164q106 -15 189 -74v-94q-116 76 -193 88l-33 -584q145 -95 208 -191t63 -229v-4q0 -151 -88.5 -253t-229.5 -109l-12 -219h-70l13 221q-122 12 -236 90v94q122 -90 240 -102l37 641q-89 53 -143.5 103t-89 124.5t-34.5 169.5v4q0 138 88 230t222 100
l10 158h70zM586 350v4q0 105 -45 180t-144 142l-35 -606q108 7 166 85.5t58 194.5zM147 1114v-4q0 -104 47.5 -172t139.5 -127l31 553q-96 -8 -157 -76.5t-61 -173.5z" />
    <glyph glyph-name="sterling.tab" horiz-adv-x="737" 
d="M186 745v347q0 179 97 276q80 80 204 80q97 0 158 -49l-4 -86q-61 53 -156 53q-86 0 -143 -57q-68 -68 -68 -219v-345h306v-77h-306v-588h422v-80h-616v43l106 37v588h-114v77h114z" />
    <glyph glyph-name="Euro.tab" horiz-adv-x="737" 
d="M25 854v72h125q28 249 130 382.5t242 133.5q84 0 142 -37v-94q-71 45 -142 45q-107 0 -181 -112.5t-99 -317.5h317v-72h-323q-5 -32 -5 -119v-37q0 -73 2 -108h326v-72h-317q24 -214 99 -327t185 -113q80 0 144 51v-94q-65 -43 -154 -43q-143 0 -241 134t-128 392h-122
v72h116q-2 33 -2 108v37q0 80 2 119h-116z" />
    <glyph glyph-name="yen.tab" horiz-adv-x="737" 
d="M117 360h209v203h-209v72h194l-282 799h98l244 -727l243 727h95l-285 -799h197v-72h-209v-203h209v-71h-209v-289h-86v289h-209v71z" />
    <glyph glyph-name="cent.tab" horiz-adv-x="737" 
d="M449 1440v-170q57 -4 109 -29.5t85 -58.5v-90q-36 34 -89 62t-105 32v-938q106 8 194 96v-88q-32 -34 -83.5 -59t-110.5 -31v-176h-70v178q-134 21 -206.5 155t-72.5 382v20q0 249 73 382t206 157v176h70zM186 729v-29q0 -397 193 -446v924q-193 -49 -193 -449z" />
    <glyph glyph-name="numbersign.tab" horiz-adv-x="737" 
d="M33 467h135l37 508h-133v82h139l27 377h71l-26 -377h223l26 377h72l-26 -377h129v-82h-136l-36 -508h133v-82h-140l-26 -385h-72l27 385h-224l-26 -385h-72l27 385h-129v82zM500 975h-224l-36 -508h223z" />
    <glyph glyph-name="paragraph.tab" horiz-adv-x="737" 
d="M524 0v530h-8q-224 0 -344.5 122t-120.5 331v4q0 206 121 326.5t336 120.5h106v-1434h-90z" />
    <glyph glyph-name="section.tab" horiz-adv-x="737" 
d="M328 -14q-92 0 -176 41l2 90q97 -51 178 -51t123.5 40t42.5 103v2q0 68 -44 115.5t-159 115.5q-141 82 -194.5 144.5t-53.5 144.5v4q0 165 229 266q-66 50 -95 99t-29 112v5q0 99 71.5 165t186.5 66q92 0 176 -41l-2 -90q-97 51 -178 51t-123.5 -40t-42.5 -103v-2
q0 -68 44 -116t158 -116q141 -82 194.5 -144.5t53.5 -144.5v-4q0 -165 -229 -266q66 -50 95.5 -99t29.5 -112v-4q0 -99 -71.5 -165t-186.5 -66zM340 956q-207 -81 -207 -217v-4q0 -59 42.5 -106t152.5 -111q2 0 34.5 -20.5t34.5 -20.5q207 81 207 217v4q0 59 -41.5 103.5
t-152.5 113.5q-2 0 -35 20.5t-35 20.5z" />
    <glyph glyph-name="degree.tab" horiz-adv-x="737" 
d="M369 666q-111 0 -185.5 104.5t-74.5 278.5v18q0 174 74.5 278.5t185.5 104.5q109 0 184.5 -105t75.5 -278v-18q0 -173 -75.5 -278t-184.5 -105zM369 739q86 0 135 84t49 226v18q0 142 -49 226.5t-135 84.5t-135.5 -84.5t-49.5 -226.5v-18q0 -142 49.5 -226t135.5 -84z
" />
    <glyph glyph-name="percent.tab" horiz-adv-x="737" 
d="M627 1434h69l-299 -732v-2l-286 -700h-70l299 727v2zM207 1374q-109 0 -109 -244v-10q0 -243 109 -243q55 0 81.5 66.5t26.5 176.5v10q0 111 -27 177.5t-81 66.5zM207 1444q85 0 133.5 -85.5t48.5 -228.5v-8q0 -144 -48.5 -229.5t-133.5 -85.5t-134.5 85.5t-49.5 227.5v8
q0 143 49.5 229.5t134.5 86.5zM530 627q85 0 135 -86t50 -228v-8q0 -142 -50 -228.5t-135 -86.5t-133.5 85t-48.5 228v8q0 144 48.5 230t133.5 86zM530 557q-54 0 -81 -66.5t-27 -177.5v-10q0 -111 27 -177.5t81 -66.5q109 0 109 244v10q0 244 -109 244z" />
    <glyph glyph-name="quotedbl.tab" horiz-adv-x="737" 
d="M442 936l39 498h105l-2 -19l-103 -479h-39zM174 936l39 498h104l-2 -19l-102 -479h-39z" />
    <glyph glyph-name="quotesingle.tab" horiz-adv-x="368" 
d="M133 936l41 498h102l-2 -19l-100 -479h-41z" />
    <glyph glyph-name="period.tab" horiz-adv-x="368" 
d="M109 0v184h151v-184h-151z" />
    <glyph glyph-name="comma.tab" horiz-adv-x="368" 
d="M96 -211l-24 51q60 26 84 63t20 97h-67v184h151v-161q0 -92 -37.5 -142t-126.5 -92z" />
    <glyph glyph-name="colon.tab" horiz-adv-x="368" 
d="M109 889v184h151v-184h-151zM109 0v184h151v-184h-151z" />
    <glyph glyph-name="semicolon.tab" horiz-adv-x="368" 
d="M109 889v184h151v-184h-151zM96 -211l-24 51q60 26 84 63t20 97h-67v184h151v-161q0 -92 -37.5 -142t-126.5 -92z" />
    <glyph glyph-name="twodotleader.tab" horiz-adv-x="737" 
d="M481 0v176h144v-176h-144zM113 0v176h143v-176h-143z" />
    <glyph glyph-name="periodcentered.tab" horiz-adv-x="368" 
d="M109 518v184h151v-184h-151z" />
    <glyph glyph-name="slash.tab" horiz-adv-x="737" 
d="M662 1575l-537 -1778h-78l535 1778h80z" />
    <glyph glyph-name="bar.tab" horiz-adv-x="368" 
d="M147 -203v1778h74v-1778h-74z" />
    <glyph glyph-name="underscore.tab" horiz-adv-x="737" 
d="M-4 -324v72h745v-72h-745z" />
    <glyph glyph-name="plus.tab" horiz-adv-x="737" 
d="M666 680h-256v-264h-82v264h-256v82h256v264h82v-264h256v-82z" />
    <glyph glyph-name="minus.tab" horiz-adv-x="737" 
d="M666 676h-594v90h594v-90z" />
    <glyph glyph-name="divide.tab" horiz-adv-x="737" 
d="M311 915v148h115v-148h-115zM666 676h-594v90h594v-90zM311 379v147h115v-147h-115z" />
    <glyph glyph-name="equal.tab" horiz-adv-x="737" 
d="M655 825h-573v84h573v-84zM655 532h-573v84h573v-84z" />
    <glyph glyph-name="multiply.tab" horiz-adv-x="737" 
d="M563 444l-194 218l-195 -218l-61 54l202 223l-202 223l61 53l195 -217l194 217l62 -53l-203 -223l203 -223z" />
    <glyph glyph-name="less.tab" horiz-adv-x="737" 
d="M618 362l-526 318v82l526 317v-102l-434 -256l434 -256v-103z" />
    <glyph glyph-name="greater.tab" horiz-adv-x="737" 
d="M645 680l-526 -318v103l434 256l-434 256v102l526 -317v-82z" />
    <glyph glyph-name="plusminus.tab" horiz-adv-x="737" 
d="M666 682h-256v-262h-82v262h-256v84h256v262h82v-262h256v-84zM666 188h-594v86h594v-86z" />
    <glyph glyph-name="R_p" horiz-adv-x="1343" 
d="M94 0v1434h142q174 0 278 -113.5t104 -314.5v-5q0 -152 -57 -256.5t-164 -152.5l244 -592h-100l-232 569q-28 -4 -61 -4h-68v-565h-86zM180 641h76q130 0 203 93.5t73 264.5v5q0 174 -81 263t-220 89h-51v-715zM750 -266v1349h84v-192q33 91 83.5 149t118.5 58
q105 0 178.5 -146t73.5 -395v-39q0 -247 -73.5 -389.5t-178.5 -142.5q-129 0 -202 198v-450h-84zM1028 57q78 0 128 123.5t50 339.5v35q0 217 -50.5 344t-127.5 127q-78 0 -138.5 -128t-60.5 -335v-51q0 -205 60 -330t139 -125z" />
    <glyph glyph-name="hcoslug" horiz-adv-x="1421" 
d="M506 37h53q3 45 -39 45q-19 0 -30 -11.5t-11 -31.5q3 -41 43 -41q31 0 37 29h-14q-3 -15 -19 -15q-20 0 -20 25zM520 72q15 0 15 -25h-29q0 25 14 25zM399 160q-16 0 -16 33q0 30 16 30q17 0 17 -30q0 -33 -17 -33zM430 8q-16 0 -16 33q0 31 16 31t16 -31q0 -33 -16 -33z
M430 -2q19 0 31 12t12 31t-12 30t-31 11t-31 -11t-12 -30q0 -20 12 -31.5t31 -11.5zM1118 8q-16 0 -16 33q0 31 16 31q17 0 17 -31q0 -33 -17 -33zM1118 -2q19 0 31 12t12 31t-12 30t-31 11t-31 -11t-12 -30q0 -20 12 -31.5t31 -11.5zM256 166v-14h61v14h-20v33h8
q9 0 12 -17h15v47h-15q-3 -16 -12 -16h-8v37h25q10 0 13.5 -4.5t8.5 -22.5h16v41h-104v-14h14v-84h-14zM399 150q19 0 31 12t12 31q0 18 -12 29t-31 11t-31 -11t-12 -29q0 -20 12 -31.5t31 -11.5zM1319 1434v-1639h-1217v1639h1217zM1020 -2q46 0 49 47h-16q-3 -33 -29 -33
q-33 0 -33 45t29 45q23 0 31 -32h16v45h-16l-2 -13q-15 15 -33 15q-24 0 -39.5 -16.5t-15.5 -45.5q0 -57 59 -57zM762 164q-17 0 -17 26q0 27 17 27q14 0 14 -27q0 -26 -14 -26zM565 14v-14h47v14h-10v52h29v-52h-10v-14h47v14h-13v107l-20 -4q-12 4 -19 4q-38 0 -38 -39v-2
h-15v-14h15v-52h-13zM754 14v-14h53v14h-16v33q9 19 14 19v-3q0 -12 12 -12q14 0 14 15q0 16 -16 16q-14 0 -24 -23v21h-37v-14h12v-52h-12zM721 256v-106h12l8 16q10 -16 29 -16q17 0 25 13.5t8 29.5q0 40 -31 40q-21 0 -27 -18v55h-36v-14h12zM819 154q-14 0 -14 -15
q0 -18 22 -18q26 0 37 33l27 63h10v14h-35v-14h11l-17 -41l-18 41h12v14h-51v-14h10q5 -16 12 -27l21 -40q-3 -17 -17 -17q5 5 2.5 13t-12.5 8zM506 877q0 26 15 42.5t40 16.5q26 0 43 -21.5t17 -56.5q0 -46 -37 -102l-10 10q-26 26 -37.5 38.5t-21 32t-9.5 40.5zM618 180
v-28h15l2 8q10 -10 27 -10q28 0 28 26q0 19 -24.5 25t-24.5 12q0 8 10 8q13 0 21 -14h14v26h-12l-4 -10q-7 10 -23 10q-29 0 -29 -24q0 -19 25 -26t25 -13q0 -8 -11 -8q-12 0 -24 18h-15zM535 449q-47 0 -77 31t-30 79q0 49 33 82q62 -56 151 -168q-30 -24 -77 -24zM586 254
l-25 -4v-19h-14v-14h14v-41q0 -26 25 -26q22 0 28 26l-10 4q-3 -14 -10 -14q-8 0 -8 10v41h26v14h-26v23zM877 627q30 -52 88 -52q43 0 72.5 32t29.5 79t-29.5 77t-72.5 30q-69 0 -123 -78q-9 79 -101 76q19 32 19 69q0 60 -52.5 106t-142.5 46q-99 0 -161 -51.5t-62 -122.5
q0 -42 15 -73.5t49 -68.5q-168 -58 -168 -186q0 -81 65 -136t158 -55q129 0 213 93q50 -53 88 -73t86 -20q68 0 114 52t50 141l-15 4q-20 -30 -39 -44.5t-49 -14.5t-59 19.5t-68 64.5q42 55 95 86zM449 166v-14h45v14h-9v31q0 20 15 20q12 0 12 -14v-37h-8v-14h45v14h-12v39
q0 28 -25 28q-20 0 -29 -22v20h-34v-14h12v-51h-12zM950 68h-37v-15h13q-2 -7 -13 -18l-24 26q22 9 22 25q0 25 -28 25q-17 0 -26 -8t-9 -21t12 -25q-26 -9 -26 -30q0 -29 36 -29q19 0 31 12q9 -12 25 -12q20 0 26 25l-10 2q-4 -11 -8 -11q-5 0 -12 11q10 11 18 28h10v15z
M879 12q-21 0 -21 21q0 10 8 18q19 -19 29 -33q-9 -6 -16 -6zM602 80v6q0 25 12 25q5 0 7 -2q-3 -3 -3 -9q0 -10 13 -10v-10h-29zM870 88q0 10 11 10q12 0 12 -12q0 -11 -10 -18q-13 13 -13 20zM639 700q57 38 86 70q23 -23 29 -49t-2 -52.5t-29 -62.5q-68 78 -84 94z
M696 37h54q3 45 -39 45q-17 0 -29 -12t-12 -31q0 -41 43 -41q27 0 37 29h-15q-3 -15 -18 -15q-21 0 -21 25zM711 72q14 0 14 -25h-29q0 25 15 25zM254 14v-14h59v14h-16v37h45v-37h-16v-14h59v14h-16v84h16v15h-59v-15h16v-32h-45v32h16v15h-59v-15h16v-84h-16zM1180 27
q-15 0 -15 -15q0 -14 15 -14q14 0 14 14q0 15 -14 15z" />
    <glyph glyph-name="space.tab" horiz-adv-x="368" 
 />
    <glyph glyph-name="caron.alt" horiz-adv-x="1024" 
d="M406 1145l14 303h78v-4l-52 -299h-40z" />
    <glyph glyph-name="descendercyrillic" horiz-adv-x="1024" 
d="M471 -213v256h80v-256h-80z" />
    <glyph glyph-name="descendercyrillic.cap" horiz-adv-x="1024" 
d="M467 -229v272h88v-272h-88z" />
    <glyph glyph-name="straightdescendercyrillic" horiz-adv-x="1024" 
d="M471 -213v213h-59v80h139v-293h-80z" />
    <glyph glyph-name="straightdescendercyrillic.cap" horiz-adv-x="1024" 
d="M467 -229v229h-49v82h137v-311h-88z" />
    <glyph glyph-name="acute.cap" horiz-adv-x="1024" 
d="M387 1516l127 213l98 -46l-159 -167h-66z" />
    </font>
</defs>
</svg>
