<?xml version="1.0" standalone="no"?>
<!DOCTYPE svg PUBLIC "-//W3C//DTD SVG 1.1//EN" "http://www.w3.org/Graphics/SVG/1.1/DTD/svg11.dtd" >
<svg xmlns="http://www.w3.org/2000/svg" xmlns:xlink="http://www.w3.org/1999/xlink" version="1.1">
<metadata>
Created by FontForge 20201107 at Wed May 29 09:56:51 2024
 By 
Copyright (C) 2001, 2011 Hoefler &#38; Co. http://www.typography.com |DCNT
</metadata>
<defs>
<font id="GothamXNarrow-BlackItalic" horiz-adv-x="1024" >
  <font-face 
    font-family="Gotham XNarrow Black"
    font-weight="900"
    font-style="italic"
    font-stretch="condensed"
    units-per-em="2048"
    panose-1="0 0 0 0 0 0 0 0 0 0"
    ascent="1638"
    descent="-410"
    x-height="1108"
    cap-height="1434"
    bbox="-236 -520 2011 2003"
    underline-thickness="102"
    underline-position="-204"
    slope="-12"
    unicode-range="U+0020-FB04"
  />
<missing-glyph 
d="M0 -410v2048h1024v-2048h-1024zM102 -156l353 770l-353 770v-1540zM145 -307h734l-367 799zM512 737l367 799h-734zM922 -156v1540l-353 -770z" />
    <glyph glyph-name="f_f" unicode="ff" horiz-adv-x="1253" 
d="M-6 0l184 844h-86l58 264h86l12 59q30 141 106 217q93 93 256 93q90 0 191 -29l-53 -244q-51 15 -82 15q-82 0 -103 -89l-4 -24h166l-57 -262h-164l-182 -844h-328zM618 0l185 844h-86l57 264h86l12 59q30 140 107 217q93 93 256 93q89 0 190 -29l-53 -244q-51 15 -82 15
q-43 0 -67 -22t-35 -67l-4 -24h166l-58 -262h-164l-182 -844h-328z" />
    <glyph glyph-name="fi" unicode="fi" horiz-adv-x="1107" 
d="M584 0l239 1108h330l-240 -1108h-329zM840 1198l59 270h336l-59 -270h-336zM-6 0l184 844h-86l58 264h86l12 59q30 141 106 217q93 93 256 93q90 0 191 -29l-53 -244q-51 15 -82 15q-82 0 -103 -89l-4 -24h166l-57 -262h-164l-182 -844h-328z" />
    <glyph glyph-name="fl" unicode="fl" horiz-adv-x="1107" 
d="M584 0l319 1468h328l-320 -1468h-327zM-6 0l184 844h-86l58 264h86l12 59q30 141 106 217q93 93 256 93q90 0 191 -29l-53 -244q-51 15 -82 15q-82 0 -103 -89l-4 -24h166l-57 -262h-164l-182 -844h-328z" />
    <glyph glyph-name="f_f_i" unicode="ffi" horiz-adv-x="1734" 
d="M1208 0l240 1108h330l-240 -1108h-330zM1464 1198l60 270h336l-60 -270h-336zM-6 0l184 844h-86l58 264h86l12 59q30 141 106 217q93 93 256 93q90 0 191 -29l-53 -244q-51 15 -82 15q-82 0 -103 -89l-4 -24h166l-57 -262h-164l-182 -844h-328zM618 0l185 844h-86l57 264
h86l12 59q30 140 107 217q93 93 256 93q89 0 190 -29l-53 -244q-51 15 -82 15q-43 0 -67 -22t-35 -67l-4 -24h166l-58 -262h-164l-182 -844h-328z" />
    <glyph glyph-name="f_f_l" unicode="ffl" horiz-adv-x="1734" 
d="M1208 0l320 1468h327l-319 -1468h-328zM-6 0l184 844h-86l58 264h86l12 59q30 141 106 217q93 93 256 93q90 0 191 -29l-53 -244q-51 15 -82 15q-82 0 -103 -89l-4 -24h166l-57 -262h-164l-182 -844h-328zM618 0l185 844h-86l57 264h86l12 59q30 140 107 217
q93 93 256 93q89 0 190 -29l-53 -244q-51 15 -82 15q-43 0 -67 -22t-35 -67l-4 -24h166l-58 -262h-164l-182 -844h-328z" />
    <glyph glyph-name=".notdef" 
d="M0 -410v2048h1024v-2048h-1024zM102 -156l353 770l-353 770v-1540zM145 -307h734l-367 799zM512 737l367 799h-734zM922 -156v1540l-353 -770z" />
    <glyph glyph-name=".null" horiz-adv-x="0" 
 />
    <glyph glyph-name="nonmarkingreturn" horiz-adv-x="682" 
 />
    <glyph glyph-name="space" unicode=" " horiz-adv-x="389" 
 />
    <glyph glyph-name="exclam" unicode="!" horiz-adv-x="530" 
d="M164 463l80 895l14 76h391l-16 -76l-307 -895h-162zM-31 0l72 334h354l-73 -334h-353z" />
    <glyph glyph-name="quotedbl" unicode="&#x22;" horiz-adv-x="862" 
d="M121 754l149 680h334l-2 -15l-330 -665h-151zM539 754l149 680h334l-2 -15l-330 -665h-151z" />
    <glyph glyph-name="numbersign" unicode="#" horiz-adv-x="1046" 
d="M145 856l50 291h167l80 287h232l-82 -287h174l80 287h231l-80 -287h119l-49 -291h-152l-73 -270h135l-51 -289h-166l-82 -297h-232l82 297h-172l-84 -297h-229l82 297h-121l49 289h154l74 270h-136zM508 864l-80 -286h186l80 286h-186z" />
    <glyph glyph-name="dollar" unicode="$" horiz-adv-x="960" 
d="M610 1575h217l-39 -166q146 -45 263 -162l-189 -243q-48 55 -113 93t-137 38h-2q-54 0 -88.5 -32.5t-32.5 -76.5q0 -40 33 -78t125 -104h2q63 -51 103.5 -90t76 -87t52 -101t16.5 -115q0 -182 -117 -310.5t-309 -140.5l-49 -213h-215l53 231q-177 48 -311 191l180 260
q160 -168 301 -168h2q55 0 91 33.5t34 83.5q0 40 -28 73t-119 105h-2q-64 48 -106 87t-78.5 87t-54 102.5t-17.5 118.5q0 184 121 307.5t307 135.5z" />
    <glyph glyph-name="percent" unicode="%" horiz-adv-x="1427" 
d="M96 0l590 758l506 676h209l-588 -756l-506 -678h-211zM381 659q-117 0 -181.5 77.5t-64.5 217.5q0 115 37.5 229t108.5 185q82 82 194 82q117 0 181.5 -77.5t64.5 -217.5q0 -117 -36.5 -229.5t-106.5 -184.5q-85 -82 -197 -82zM393 848q27 0 47 20q36 38 59 128.5
t23 160.5q0 105 -59 105q-24 0 -47 -23q-36 -36 -59 -126.5t-23 -162.5q0 -102 59 -102zM1024 -16q-118 0 -183 78.5t-65 218.5q0 115 37.5 227.5t108.5 183.5q81 84 194 84q118 0 183 -77.5t65 -217.5q0 -117 -37 -229.5t-108 -183.5q-84 -84 -195 -84zM1034 174
q26 0 47 21q38 38 60 126.5t22 161.5q0 105 -57 105q-24 0 -47 -23q-38 -34 -60 -123.5t-22 -165.5q0 -102 57 -102z" />
    <glyph glyph-name="ampersand" unicode="&#x26;" horiz-adv-x="1116" 
d="M877 690l223 -96q-74 -198 -178 -328l90 -174l-244 -127l-57 115q-150 -103 -308 -103q-184 0 -294.5 101.5t-110.5 267.5q0 302 338 469q-66 141 -66 262q0 101 44 186.5t133.5 140t207.5 54.5q157 0 255 -89.5t98 -231.5q0 -269 -318 -426l98 -207q31 50 89 186z
M451 246q67 0 137 49l-148 307q-125 -94 -125 -221q0 -59 35.5 -97t100.5 -38zM549 1069q0 -72 35 -156q149 90 149 203q0 42 -21 68t-59 26q-46 0 -75 -41t-29 -100z" />
    <glyph glyph-name="quotesingle" unicode="'" horiz-adv-x="450" 
d="M121 754l149 680h340l-2 -15l-334 -665h-153z" />
    <glyph glyph-name="parenleft" unicode="(" horiz-adv-x="708" 
d="M559 -94l-160 -187q-340 236 -340 719q0 231 71.5 434t219.5 351q163 163 418 233l63 -233q-138 -55 -233 -150q-80 -80 -134 -206t-74.5 -239.5t-20.5 -217.5q0 -162 46.5 -281.5t143.5 -222.5z" />
    <glyph glyph-name="parenright" unicode=")" horiz-adv-x="708" 
d="M164 1270l160 186q340 -236 340 -719q0 -231 -71.5 -433.5t-219.5 -350.5q-165 -165 -418 -234l-64 234q141 56 234 149q80 80 134 205t74.5 239t20.5 220q0 162 -46.5 281.5t-143.5 222.5z" />
    <glyph glyph-name="asterisk" unicode="*" horiz-adv-x="731" 
d="M508 752l-203 45l107 229l-207 -123l-64 195l242 24l-209 125l141 152l134 -201v252l202 -43l-106 -229l207 122l63 -196l-242 -25l209 -123l-141 -151l-133 199v-252z" />
    <glyph glyph-name="plus" unicode="+" horiz-adv-x="999" 
d="M289 276l65 297h-280l65 297h281l63 295h299l-63 -295h280l-65 -297h-281l-65 -297h-299z" />
    <glyph glyph-name="comma" unicode="," horiz-adv-x="487" 
d="M-123 -315l-10 129q208 29 237 188h-157l78 354h352l-70 -317q-38 -178 -140.5 -260.5t-289.5 -93.5z" />
    <glyph glyph-name="hyphen" unicode="-" horiz-adv-x="729" 
d="M53 485l68 310h592l-68 -310h-592z" />
    <glyph glyph-name="period" unicode="." horiz-adv-x="489" 
d="M-53 0l78 354h354l-78 -354h-354z" />
    <glyph glyph-name="slash" unicode="/" horiz-adv-x="802" 
d="M-223 -221l1020 1814h266l-1018 -1814h-268z" />
    <glyph glyph-name="zero" unicode="0" horiz-adv-x="1097" 
d="M684 1460q200 0 310 -130t110 -378q0 -91 -16 -199t-47.5 -224t-88.5 -226t-129 -182q-148 -148 -340 -148q-200 0 -310 131t-110 379q0 125 26.5 271t93 306t161.5 255q145 145 340 145zM506 279q49 0 92 43q73 73 126.5 286t53.5 355q0 192 -116 192q-50 0 -93 -43
q-51 -47 -94 -174t-64.5 -254t-21.5 -213q0 -192 117 -192z" />
    <glyph glyph-name="one" unicode="1" horiz-adv-x="661" 
d="M102 0l236 1092l-184 -48l34 308l316 90h248l-314 -1442h-336z" />
    <glyph glyph-name="two" unicode="2" horiz-adv-x="935" 
d="M-68 0l64 287l491 497q87 87 120.5 140.5t33.5 107.5q0 52 -34 82.5t-85 30.5q-103 0 -237 -113l-133 262q207 162 421 162q182 0 294 -103.5t112 -265.5q0 -114 -51 -214t-183 -232l-333 -332h430l-68 -309h-842z" />
    <glyph glyph-name="three" unicode="3" horiz-adv-x="911" 
d="M348 -25q-240 0 -414 156l164 258q119 -104 242 -104q86 0 133 52t47 120q0 79 -70.5 126.5t-197.5 47.5h-14l22 203l320 296h-396l66 304h786l-61 -281l-365 -334q242 -101 242 -352q0 -209 -141 -350q-142 -142 -363 -142z" />
    <glyph glyph-name="four" unicode="4" horiz-adv-x="1056" 
d="M449 0l55 256h-510l16 248l707 936h362l-194 -912h141l-61 -272h-142l-55 -256h-319zM336 528h231l103 463z" />
    <glyph glyph-name="five" unicode="5" horiz-adv-x="929" 
d="M362 -25q-236 0 -415 164l166 260q127 -112 243 -112q94 0 146.5 68t52.5 155q0 72 -40 112t-112 40q-69 0 -135 -37l-157 102l192 707h715l-66 -304h-454l-62 -221q62 15 107 15q165 0 257.5 -97t92.5 -268q0 -128 -45 -242t-127 -196q-143 -146 -359 -146z" />
    <glyph glyph-name="six" unicode="6" horiz-adv-x="1011" 
d="M461 -25q-184 0 -291 107q-117 117 -117 350q0 226 79.5 482t205.5 382q83 83 175.5 122.5t213.5 39.5q198 0 346 -112l-141 -265q-38 32 -97 59t-122 27q-89 0 -152 -63q-82 -82 -123 -227q96 61 205 61q144 0 234 -93.5t90 -256.5q0 -134 -48.5 -266t-127.5 -211
q-136 -136 -330 -136zM475 250q49 0 86 37q39 39 62.5 113.5t23.5 144.5q0 73 -33.5 106t-81.5 33q-51 0 -86 -35h-2q-37 -41 -60.5 -114.5t-23.5 -135.5q0 -83 35 -118q31 -31 80 -31z" />
    <glyph glyph-name="seven" unicode="7" horiz-adv-x="901" 
d="M8 0l602 1120h-452l69 314h811l-55 -252l-614 -1182h-361z" />
    <glyph glyph-name="eight" unicode="8" horiz-adv-x="1007" 
d="M451 -25q-193 0 -313 103t-120 274q0 142 69.5 251.5t193.5 166.5q-109 106 -109 256q0 89 32 167.5t89.5 137t144.5 93t191 34.5q185 0 296 -99.5t111 -264.5q0 -117 -64 -219.5t-171 -151.5q135 -111 135 -279q0 -96 -33.5 -180.5t-94 -149t-153.5 -102t-204 -37.5z
M461 236q53 0 91.5 41.5t54.5 93.5t16 102q0 71 -33.5 108t-87.5 37q-51 0 -89.5 -40t-55.5 -93t-17 -106q0 -69 34 -106t87 -37zM580 854q63 0 103 65.5t40 149.5q0 60 -29 94.5t-80 34.5q-66 0 -104.5 -68t-38.5 -147q0 -60 30.5 -94.5t78.5 -34.5z" />
    <glyph glyph-name="nine" unicode="9" horiz-adv-x="1011" 
d="M354 -23q-196 0 -366 129l143 263q115 -99 238 -99q88 0 155 64q75 75 115 211q-101 -62 -203 -62q-145 0 -234 96t-89 263q0 138 48.5 270t129.5 213q135 135 330 135q186 0 290 -104q117 -117 117 -350q0 -227 -79.5 -483t-205.5 -382q-84 -84 -176.5 -124t-212.5 -40z
M547 735q51 0 86 35h2q39 39 62.5 117t23.5 149q0 82 -37 119q-31 31 -78 31q-49 0 -88 -39t-62.5 -116.5t-23.5 -149.5q0 -71 30 -108.5t85 -37.5z" />
    <glyph glyph-name="colon" unicode=":" horiz-adv-x="501" 
d="M-47 0l80 354h352l-78 -354h-354zM117 756l78 352h354l-78 -352h-354z" />
    <glyph glyph-name="semicolon" unicode=";" horiz-adv-x="501" 
d="M-115 -315l-10 127q206 29 236 188h-158l80 354h352l-70 -317q-38 -178 -141.5 -261t-288.5 -91zM117 756l78 352h354l-78 -352h-354z" />
    <glyph glyph-name="less" unicode="&#x3c;" horiz-adv-x="999" 
d="M815 178l-729 395l66 297l901 394l-78 -353l-543 -204l455 -207z" />
    <glyph glyph-name="equal" unicode="=" horiz-adv-x="999" 
d="M31 334l65 299h842l-66 -299h-841zM133 811l66 297h843l-65 -297h-844z" />
    <glyph glyph-name="greater" unicode="&#x3e;" horiz-adv-x="999" 
d="M20 178l78 354l543 203l-455 207l72 322l729 -394l-65 -297z" />
    <glyph glyph-name="question" unicode="?" horiz-adv-x="860" 
d="M250 463l43 364l12 15q283 39 283 192q0 51 -31.5 80t-85.5 29q-86 0 -207 -80l-102 274q184 115 370 115q185 0 293.5 -97t108.5 -257q0 -168 -100.5 -284t-294.5 -163l-74 -188h-215zM82 0l74 334h352l-72 -334h-354z" />
    <glyph glyph-name="at" unicode="@" horiz-adv-x="1503" 
d="M672 -293q-282 0 -453.5 179t-171.5 493q0 162 38.5 320t113 294.5t175.5 240.5t235 164t282 60q136 0 248 -46.5t186.5 -127.5t115 -192t40.5 -240q0 -200 -57 -367.5t-159.5 -266.5t-228.5 -99q-91 0 -149.5 45t-77.5 127q-56 -78 -117.5 -122t-140.5 -44
q-96 0 -154.5 70.5t-58.5 201.5q0 149 55.5 302.5t153.5 258.5t207 105q137 0 180 -139l35 125l243 -52l-147 -559q-25 -88 -25 -131q0 -76 74 -76q46 0 95.5 48.5t90 129.5t67 198.5t26.5 242.5q0 109 -33.5 203.5t-96 166t-160.5 113t-220 41.5q-131 0 -250 -58t-208 -157
t-155 -226t-99.5 -269t-33.5 -283q0 -276 146 -433t395 -157q171 0 340 90l37 -74q-186 -100 -383 -100zM676 334q47 0 94 75t74.5 171.5t27.5 167.5q0 94 -67 94q-48 0 -96.5 -75t-76.5 -172t-28 -169q0 -92 72 -92z" />
    <glyph glyph-name="A" unicode="A" horiz-adv-x="1124" 
d="M-125 0l700 1440h365l76 -1440h-340l-6 260h-332l-117 -260h-346zM461 537h205l-7 446z" />
    <glyph glyph-name="B" unicode="B" horiz-adv-x="1067" 
d="M-39 0l311 1434h363q232 0 351.5 -92.5t119.5 -247.5q0 -137 -74 -233t-203 -140q179 -95 179 -275q0 -203 -151.5 -324.5t-434.5 -121.5h-461zM356 295h115q94 0 148.5 47t54.5 129q0 56 -39.5 88.5t-112.5 32.5h-102zM475 852h96q99 0 150 50t51 122q0 115 -151 115
h-82z" />
    <glyph glyph-name="C" unicode="C" horiz-adv-x="999" 
d="M549 -20q-224 0 -351.5 148t-127.5 421q0 204 69 407.5t199 333.5q164 164 379 164q258 0 403 -188l-215 -248q-83 117 -182 117q-75 0 -137 -62q-80 -80 -125 -229.5t-45 -274.5q0 -142 49.5 -205t126.5 -63q89 0 194 92l127 -276q-170 -137 -364 -137z" />
    <glyph glyph-name="D" unicode="D" horiz-adv-x="1136" 
d="M-39 0l311 1434h291q299 0 445 -146q131 -131 131 -383q0 -183 -64 -384.5t-186 -323.5q-197 -197 -545 -197h-383zM737 1075q-59 53 -157 53h-37l-176 -823h43q135 0 229 94q70 70 115 212.5t45 267.5q0 134 -62 196z" />
    <glyph glyph-name="E" unicode="E" horiz-adv-x="944" 
d="M-39 0l311 1434h801l-69 -308h-461l-58 -256h416l-63 -297h-416l-57 -266h473l-70 -307h-807z" />
    <glyph glyph-name="F" unicode="F" horiz-adv-x="909" 
d="M-39 0l311 1434h783l-68 -312h-444l-60 -268h398l-66 -301h-397l-119 -553h-338z" />
    <glyph glyph-name="G" unicode="G" horiz-adv-x="1116" 
d="M573 -23q-231 0 -369 147.5t-138 407.5q0 119 27 248t91.5 266t155.5 228q180 180 428 180q251 0 412 -174l-215 -254q-85 111 -207 111q-91 0 -170 -72q-90 -90 -135 -243t-45 -275q0 -268 194 -268q44 0 76 14l57 268h-166l60 279h479l-168 -768q-195 -95 -367 -95z
" />
    <glyph glyph-name="H" unicode="H" horiz-adv-x="1130" 
d="M-39 0l311 1434h338l-121 -555h295l121 555h336l-311 -1434h-336l123 565h-295l-123 -565h-338z" />
    <glyph glyph-name="I" unicode="I" horiz-adv-x="509" 
d="M-35 0l314 1434h335l-311 -1434h-338z" />
    <glyph glyph-name="J" unicode="J" horiz-adv-x="821" 
d="M274 -18q-109 0 -201.5 42t-150.5 115l174 248q72 -90 148 -90q50 0 88 35q38 38 59 137l209 965h338l-221 -1014q-49 -223 -152 -326q-112 -112 -291 -112z" />
    <glyph glyph-name="K" unicode="K" horiz-adv-x="1081" 
d="M-39 0l311 1434h336l-119 -549l385 549h388l-463 -635l159 -799h-356l-90 526l-137 -172l-76 -354h-338z" />
    <glyph glyph-name="L" unicode="L" horiz-adv-x="864" 
d="M-39 0l311 1434h338l-243 -1123h411l-67 -311h-750z" />
    <glyph glyph-name="M" unicode="M" horiz-adv-x="1296" 
d="M-39 0l311 1434h328l119 -502l338 502h350l-311 -1434h-330l172 786l-348 -497h-4l-125 497l-172 -786h-328z" />
    <glyph glyph-name="N" unicode="N" horiz-adv-x="1159" 
d="M-39 0l311 1434h316l198 -713l156 713h328l-312 -1434h-303l-204 741l-162 -741h-328z" />
    <glyph glyph-name="O" unicode="O" horiz-adv-x="1175" 
d="M721 1460q222 0 342.5 -141.5t120.5 -398.5q0 -198 -74 -425t-207 -360q-162 -162 -377 -162q-221 0 -342 144t-121 399q0 198 74 424.5t207 359.5q160 160 377 160zM547 281q64 0 115 51q86 86 135 268t49 320q0 125 -37 180t-109 55q-61 0 -114 -53q-85 -85 -135 -267
t-50 -321q0 -124 37 -178.5t109 -54.5z" />
    <glyph glyph-name="P" unicode="P" horiz-adv-x="1019" 
d="M-39 0l311 1434h318q260 0 387 -127q104 -101 104 -283q0 -123 -39.5 -236.5t-121.5 -195.5q-166 -166 -453 -166h-78l-92 -426h-336zM705 1102q-39 39 -117 39h-43l-94 -430h45q107 0 170 63q38 38 57.5 97.5t19.5 115.5q0 77 -38 115z" />
    <glyph glyph-name="Q" unicode="Q" horiz-adv-x="1183" 
d="M721 1460q222 0 342.5 -141.5t120.5 -398.5q0 -162 -53 -348t-148 -330l96 -160l-235 -135l-58 104q-123 -76 -260 -76q-222 0 -342.5 142t-120.5 399q0 198 74 424.5t207 359.5q160 160 377 160zM547 274q45 0 86 27l-107 170l236 135l26 -45q60 198 60 359
q0 124 -38 179.5t-110 55.5q-59 0 -112 -53q-86 -86 -137.5 -271.5t-51.5 -318.5q0 -238 148 -238z" />
    <glyph glyph-name="R" unicode="R" horiz-adv-x="1073" 
d="M580 0l-105 457h-80l-98 -457h-336l311 1434h328q286 0 414 -125q104 -104 104 -283q0 -238 -147 -385q-68 -68 -168 -111l133 -530h-356zM457 731h69q113 0 179 66q33 30 51 84t18 106q0 72 -37 109q-41 41 -127 41h-65z" />
    <glyph glyph-name="S" unicode="S" horiz-adv-x="935" 
d="M408 -20q-266 0 -469 217l180 258q149 -168 293 -168q56 0 91.5 31.5t35.5 82.5q0 39 -32 79.5t-116 109.5q-62 49 -104.5 90t-78 90t-52.5 104t-17 119q0 199 129 328q133 133 338 133q248 0 428 -192l-194 -244q-115 131 -240 131q-56 0 -88.5 -31.5t-32.5 -79.5
q0 -39 33 -80.5t125 -111.5q124 -100 184 -190.5t60 -209.5q0 -202 -133 -335q-131 -131 -340 -131z" />
    <glyph glyph-name="T" unicode="T" horiz-adv-x="942" 
d="M176 0l244 1122h-270l69 312h877l-70 -312h-270l-242 -1122h-338z" />
    <glyph glyph-name="U" unicode="U" horiz-adv-x="1118" 
d="M481 -23q-204 0 -318 101.5t-114 281.5q0 86 23 189l192 885h336l-197 -904q-16 -75 -16 -120q0 -60 33.5 -92.5t93.5 -32.5q66 0 109 43q45 45 71 153l207 953h336l-209 -965q-53 -235 -172 -354q-138 -138 -375 -138z" />
    <glyph glyph-name="V" unicode="V" horiz-adv-x="1075" 
d="M246 -6l-62 1440h348v-873l381 873h357l-686 -1440h-338z" />
    <glyph glyph-name="W" unicode="W" horiz-adv-x="1622" 
d="M190 -6l3 1440h346l-35 -830l346 832h289l-13 -832l324 830h356l-622 -1440h-332v754l-330 -754h-332z" />
    <glyph glyph-name="X" unicode="X" horiz-adv-x="1050" 
d="M-119 0l481 745l-157 689h352l66 -400l233 400h371l-463 -717l168 -717h-354l-74 432l-252 -432h-371z" />
    <glyph glyph-name="Y" unicode="Y" 
d="M217 0l119 541l-166 893h346l64 -516l286 516h367l-563 -908l-115 -526h-338z" />
    <glyph glyph-name="Z" unicode="Z" horiz-adv-x="956" 
d="M-70 0l60 270l626 858h-430l66 306h848l-60 -269l-628 -860h446l-65 -305h-863z" />
    <glyph glyph-name="bracketleft" unicode="[" horiz-adv-x="698" 
d="M-66 -266l371 1700h531l-52 -228h-239l-269 -1245h240l-51 -227h-531z" />
    <glyph glyph-name="backslash" unicode="\" horiz-adv-x="798" 
d="M436 -221l-252 1814h244l252 -1814h-244z" />
    <glyph glyph-name="bracketright" unicode="]" horiz-adv-x="698" 
d="M776 1434l-370 -1700h-531l51 227h240l268 1245h-239l51 228h530z" />
    <glyph glyph-name="asciicircum" unicode="^" 
d="M268 1008l299 422h248l117 -422h-207l-66 243l-170 -243h-221z" />
    <glyph glyph-name="underscore" unicode="_" horiz-adv-x="1069" 
d="M-195 -315l52 227h1075l-49 -227h-1078z" />
    <glyph glyph-name="grave" unicode="`" 
d="M659 1182l-215 215l289 100l127 -315h-201z" />
    <glyph glyph-name="a" unicode="a" horiz-adv-x="919" 
d="M199 -20q-101 0 -159 68.5t-58 195.5q0 101 32 196.5t90 153.5q92 92 244 92q101 0 205 -49l6 25q8 31 8 67q0 115 -147 115q-94 0 -209 -47l-35 272q167 55 328 55q188 0 290.5 -83.5t102.5 -243.5q0 -70 -20 -160l-138 -637h-325l22 102q-109 -122 -237 -122zM365 203
q45 0 80.5 36t48.5 101l22 119q-53 24 -96 24q-44 0 -78 -30q-25 -27 -39 -73t-14 -85q0 -92 76 -92z" />
    <glyph glyph-name="b" unicode="b" horiz-adv-x="1015" 
d="M547 -23q-162 0 -240 160l-28 -137h-330l319 1468h328l-104 -485q59 72 119 109.5t134 37.5q118 0 183 -92.5t65 -261.5q0 -184 -60.5 -390t-168.5 -314q-95 -95 -217 -95zM465 266q41 0 76 35q53 53 87 178.5t34 218.5q0 75 -25 110.5t-66 35.5q-40 0 -75 -35
q-53 -53 -87 -178.5t-34 -218.5q0 -75 24.5 -110.5t65.5 -35.5z" />
    <glyph glyph-name="c" unicode="c" horiz-adv-x="802" 
d="M420 -25q-178 0 -284.5 115.5t-106.5 329.5q0 147 50.5 305t162.5 270q135 135 311 135q195 0 321 -167l-186 -220q-59 86 -127 86q-49 0 -92 -43q-57 -57 -87 -157.5t-30 -186.5q0 -87 34 -127.5t87 -40.5q61 0 133 60l111 -244q-131 -115 -297 -115z" />
    <glyph glyph-name="d" unicode="d" horiz-adv-x="1015" 
d="M500 0l28 127q-62 -73 -121.5 -111.5t-132.5 -38.5q-118 0 -182.5 93t-64.5 264q0 184 60.5 389t168.5 313q94 94 217 94q161 0 238 -157l108 495h328l-320 -1468h-327zM446 266q41 0 76 35q53 53 88 178.5t35 218.5q0 75 -24.5 110.5t-65.5 35.5t-76 -35
q-53 -53 -88 -178.5t-35 -218.5q0 -75 24.5 -110.5t65.5 -35.5z" />
    <glyph glyph-name="e" unicode="e" horiz-adv-x="927" 
d="M862 432h-528v-12q0 -166 153 -166q102 0 211 74l82 -248q-160 -105 -344 -105q-196 0 -303.5 115t-107.5 326q0 154 57 316t162 267q137 134 313 134q169 0 259.5 -106.5t90.5 -293.5q0 -128 -45 -301zM465 831q-51 -51 -96 -196h231q14 60 14 108q0 119 -79 119
q-39 0 -70 -31z" />
    <glyph glyph-name="f" unicode="f" horiz-adv-x="626" 
d="M-6 0l184 844h-86l58 264h86l12 59q30 141 106 217q93 93 256 93q90 0 191 -29l-53 -244q-51 15 -82 15q-82 0 -103 -89l-4 -24h166l-57 -262h-164l-182 -844h-328z" />
    <glyph glyph-name="g" unicode="g" horiz-adv-x="1009" 
d="M330 -293q-236 0 -406 80l96 260q153 -78 291 -78q98 0 154 56q46 46 67 145l17 63q-65 -75 -124.5 -112t-133.5 -37q-120 0 -185 87t-65 253q0 157 57 339t150 275q92 92 213 92q160 0 244 -157l28 135h328l-205 -954q-51 -220 -154 -320q-124 -127 -372 -127zM459 356
q43 0 73 35q44 44 73.5 143.5t29.5 178.5q0 135 -88 135q-39 0 -74 -35q-44 -44 -73 -143.5t-29 -180.5q0 -133 88 -133z" />
    <glyph glyph-name="h" unicode="h" horiz-adv-x="976" 
d="M-51 0l319 1468h328l-104 -485q116 147 258 147q108 0 167.5 -64t59.5 -171q0 -60 -19 -141l-161 -754h-330l147 680q13 57 13 82q0 76 -74 76q-47 0 -78 -33t-43 -94l-153 -711h-330z" />
    <glyph glyph-name="i" unicode="i" horiz-adv-x="479" 
d="M-45 0l240 1108h329l-239 -1108h-330zM211 1198l59 270h336l-59 -270h-336z" />
    <glyph glyph-name="j" unicode="j" horiz-adv-x="479" 
d="M-82 -295q-88 0 -154 14l48 226q24 -6 51 -6q43 0 66.5 25t35.5 85l230 1059h329l-235 -1083q-40 -175 -128 -247.5t-243 -72.5zM211 1198l59 270h336l-59 -270h-336z" />
    <glyph glyph-name="k" unicode="k" horiz-adv-x="935" 
d="M-51 0l319 1468h328l-154 -710l254 350h369l-356 -467l112 -641h-342l-51 401l-88 -110l-61 -291h-330z" />
    <glyph glyph-name="l" unicode="l" horiz-adv-x="479" 
d="M-45 0l319 1468h328l-319 -1468h-328z" />
    <glyph glyph-name="m" unicode="m" horiz-adv-x="1482" 
d="M-51 0l241 1108h326l-24 -125q116 147 256 147q166 0 208 -155q129 155 297 155q110 0 169 -64t59 -171q0 -35 -17 -135l-164 -760h-325l147 684q13 67 13 78q0 76 -72 76q-92 0 -121 -127l-154 -711h-325l147 684q13 67 13 78q0 76 -72 76q-92 0 -121 -127l-154 -711
h-327z" />
    <glyph glyph-name="n" unicode="n" horiz-adv-x="976" 
d="M-51 0l241 1108h328l-26 -125q116 147 258 147q108 0 167.5 -64t59.5 -171q0 -60 -19 -141l-161 -754h-330l147 680q13 57 13 82q0 76 -74 76q-47 0 -78 -33t-43 -94l-153 -711h-330z" />
    <glyph glyph-name="o" unicode="o" horiz-adv-x="976" 
d="M422 -27q-189 0 -291 117.5t-102 317.5q0 159 53.5 324t153.5 265q133 136 319 136q189 0 292 -117.5t103 -317.5q0 -159 -53.5 -324t-153.5 -265q-136 -136 -321 -136zM438 256q41 0 76 35q53 53 88 177.5t35 225.5q0 158 -96 158q-41 0 -78 -37q-52 -52 -86.5 -176.5
t-34.5 -224.5q0 -158 96 -158z" />
    <glyph glyph-name="p" unicode="p" horiz-adv-x="1015" 
d="M547 -23q-162 0 -240 160l-92 -424h-328l303 1395h328l-26 -125q59 72 119 109.5t134 37.5q118 0 183 -92.5t65 -261.5q0 -184 -60.5 -390t-168.5 -314q-95 -95 -217 -95zM465 266q41 0 76 35q53 53 87 178.5t34 218.5q0 75 -25 110.5t-66 35.5q-40 0 -75 -35
q-53 -53 -87 -178.5t-34 -218.5q0 -75 24.5 -110.5t65.5 -35.5z" />
    <glyph glyph-name="q" unicode="q" horiz-adv-x="1019" 
d="M274 -23q-118 0 -182.5 93t-64.5 264q0 184 60.5 389t168.5 313q94 94 217 94q161 0 238 -157l30 135h328l-303 -1395h-328l90 414q-62 -73 -121.5 -111.5t-132.5 -38.5zM446 266q41 0 76 35q53 53 88 178.5t35 218.5q0 75 -24.5 110.5t-65.5 35.5t-76 -35
q-53 -53 -88 -178.5t-35 -218.5q0 -75 24.5 -110.5t65.5 -35.5z" />
    <glyph glyph-name="r" unicode="r" horiz-adv-x="655" 
d="M-51 0l241 1108h328l-39 -180q57 103 122.5 152t152.5 42l-82 -374h-15q-111 0 -179 -68.5t-99 -210.5l-100 -469h-330z" />
    <glyph glyph-name="s" unicode="s" horiz-adv-x="774" 
d="M326 -25q-225 0 -400 175l154 233q136 -139 242 -139q35 0 56 19t21 50q0 28 -21.5 53.5t-84.5 77.5q-109 86 -158 157t-49 169q0 153 102.5 256.5t274.5 103.5q203 0 368 -145l-151 -235q-117 114 -213 114q-33 0 -52.5 -17t-19.5 -46q0 -28 18 -47.5t93 -81.5
q110 -92 156.5 -162.5t46.5 -163.5q0 -99 -44.5 -182.5t-133 -136t-205.5 -52.5z" />
    <glyph glyph-name="t" unicode="t" horiz-adv-x="647" 
d="M305 -20q-122 0 -191 54.5t-69 160.5q0 62 16 120l115 529h-86l57 264h86l60 274h325l-59 -274h170l-57 -264h-170l-99 -451q-12 -50 -12 -80q0 -51 66 -51q45 0 92 17l-60 -267q-77 -32 -184 -32z" />
    <glyph glyph-name="u" unicode="u" horiz-adv-x="976" 
d="M231 -23q-109 0 -168 65t-59 173q0 57 16 139l164 754h328l-147 -680q-13 -76 -13 -80q0 -78 76 -78q44 0 75.5 33.5t45.5 93.5l153 711h328l-239 -1108h-328l26 127q-124 -150 -258 -150z" />
    <glyph glyph-name="v" unicode="v" horiz-adv-x="948" 
d="M193 -6l-66 1114h332l-8 -647l272 647h338l-547 -1114h-321z" />
    <glyph glyph-name="w" unicode="w" horiz-adv-x="1335" 
d="M135 -6l-2 1114h322l-29 -569l229 571h260l-16 -571l221 569h322l-486 -1114h-290l-2 547l-236 -547h-293z" />
    <glyph glyph-name="x" unicode="x" horiz-adv-x="927" 
d="M467 1108l51 -285l168 285h348l-381 -557l148 -551h-332l-53 305l-176 -305h-351l392 575l-144 533h330z" />
    <glyph glyph-name="y" unicode="y" horiz-adv-x="946" 
d="M199 14l-66 1094h328l-2 -631l264 631h334l-525 -1092q-84 -174 -165 -243.5t-213 -69.5q-121 0 -224 64l90 243q53 -39 107 -39q44 0 72 43z" />
    <glyph glyph-name="z" unicode="z" horiz-adv-x="813" 
d="M-82 0l51 236l482 604h-345l60 268h729l-51 -234l-479 -604h354l-60 -270h-741z" />
    <glyph glyph-name="braceleft" unicode="{" horiz-adv-x="776" 
d="M590 -78l-70 -205q-395 45 -395 289q0 74 51 193q1 4 7 18.5t7.5 18.5t6.5 16.5t6.5 17.5t5 15.5t5 16t4 15t3 16t1.5 14.5t1 15q0 107 -155 107h-35l53 236h39q115 0 170 55q38 38 47.5 91t7.5 159q-6 97 12.5 176t83.5 145q134 128 441 125l2 -213q-151 -6 -209 -67
q-37 -37 -44.5 -89.5t-2.5 -142.5q5 -97 -8.5 -160t-63.5 -114q-77 -74 -225 -92q184 -50 184 -193q0 -44 -11 -81t-38 -95q-47 -100 -47 -152q0 -54 37 -84.5t129 -50.5z" />
    <glyph glyph-name="bar" unicode="|" horiz-adv-x="557" 
d="M-10 -221l395 1814h240l-396 -1814h-239z" />
    <glyph glyph-name="braceright" unicode="}" horiz-adv-x="776" 
d="M201 1249l69 205q396 -45 396 -289q0 -34 -8.5 -70t-17 -57.5t-26.5 -64.5q-47 -118 -47 -164q0 -107 156 -107h35l-53 -235h-39q-115 0 -170 -55q-38 -38 -48 -91.5t-8 -158.5q6 -97 -12.5 -176.5t-83.5 -145.5q-134 -128 -440 -125l-2 213q150 6 209 68q37 37 44.5 89
t2.5 142q-5 98 8 161t63 114q77 74 226 92q-185 50 -185 192q0 44 11.5 81.5t37.5 95.5q48 102 48 151q0 54 -37 84.5t-129 50.5z" />
    <glyph glyph-name="asciitilde" unicode="~" horiz-adv-x="839" 
d="M221 489l-149 50q40 124 103.5 188t139.5 64q28 0 55 -8t43.5 -16t47.5 -26l25 -12.5t22 -11.5t17 -8t18.5 -5.5t17.5 -1.5q33 0 55.5 23t47.5 74l147 -51q-40 -125 -103.5 -188.5t-138.5 -63.5q-28 0 -55 7.5t-45 16t-47 25.5q-5 3 -16 9t-15 8t-12.5 6t-12.5 6t-11 4.5
t-11.5 3t-10 1.5t-11.5 1q-31 0 -53.5 -22.5t-47.5 -72.5z" />
    <glyph glyph-name="uni00A0" unicode="&#xa0;" horiz-adv-x="0" 
 />
    <glyph glyph-name="exclamdown" unicode="&#xa1;" horiz-adv-x="530" 
d="M440 971l-80 -895l-14 -76h-391l16 76l308 895h161zM635 1434l-72 -334h-354l74 334h352z" />
    <glyph glyph-name="cent" unicode="&#xa2;" horiz-adv-x="843" 
d="M594 1444h211l-45 -170q94 -35 176 -131l-186 -217q-31 44 -62.5 65t-73.5 21q-59 0 -106 -47q-54 -54 -86.5 -158.5t-32.5 -198.5q0 -88 36 -132t93 -44q44 0 77 15.5t73 48.5l104 -238q-130 -113 -303 -113l-41 -157h-211l53 202q-94 48 -145 149t-51 251
q0 152 52 310.5t159 268.5q116 113 270 129z" />
    <glyph glyph-name="sterling" unicode="&#xa3;" horiz-adv-x="962" 
d="M-59 0l47 221l139 58l61 272h-125l60 274h123l35 168q25 121 62 201.5t97 140.5q127 121 316 121q204 0 338 -147l-183 -240q-72 76 -145 76q-55 0 -94 -39t-64 -143l-28 -138h288l-59 -274h-289l-55 -256h397l-63 -295h-858z" />
    <glyph glyph-name="yen" unicode="&#xa5;" horiz-adv-x="1056" 
d="M242 0l41 195h-260l51 233h260l22 104h-260l51 234h191l-143 668h335l72 -502l272 502h367l-436 -668h190l-51 -234h-258l-22 -104h258l-52 -233h-258l-43 -195h-327z" />
    <glyph glyph-name="section" unicode="&#xa7;" horiz-adv-x="1001" 
d="M999 739q0 -107 -68 -177t-169 -101q55 -74 55 -166q0 -132 -104 -226t-277 -94q-216 0 -405 146l139 219q43 -38 115.5 -73.5t134.5 -35.5q38 0 61 17.5t23 48.5q0 27 -32.5 53t-121.5 68q-143 67 -208.5 127t-65.5 151q0 107 67 175.5t170 101.5q-55 74 -55 168
q0 133 102.5 225t276.5 92q225 0 405 -143l-139 -219q-41 35 -116 71.5t-134 36.5q-37 0 -60.5 -17.5t-23.5 -47.5q0 -29 31.5 -53.5t124.5 -67.5q72 -35 115 -60.5t83.5 -59t58 -72.5t17.5 -87zM362 758q0 -32 33 -63t105 -66q70 -41 118 -41q41 0 68 25.5t27 62.5
q0 32 -33 63t-105 66q-70 41 -118 41q-41 0 -68 -25.5t-27 -62.5z" />
    <glyph glyph-name="dieresis" unicode="&#xa8;" 
d="M342 1184l55 256h269l-56 -256h-268zM688 1184l55 256h267l-56 -256h-266z" />
    <glyph glyph-name="copyright" unicode="&#xa9;" horiz-adv-x="1267" 
d="M647 301q-130 0 -204 82.5t-74 230.5q0 117 40.5 236.5t114.5 193.5q100 97 230 97q128 0 223 -109l-125 -145q-42 65 -100 65q-45 0 -82 -37q-44 -44 -70.5 -128t-26.5 -156q0 -142 105 -142q22 0 43 8t32.5 15t32.5 23l68 -162q-97 -72 -207 -72zM1245 891
q0 -92 -13.5 -186.5t-42.5 -195.5t-83 -197t-127 -169q-170 -170 -406 -170q-222 0 -355.5 154.5t-133.5 417.5q0 94 13 187.5t42 193.5t83 195t128 169q170 170 408 170q220 0 353.5 -153t133.5 -416zM164 547q0 -232 110 -364t306 -132q198 0 344 146q86 86 142.5 212
t77.5 243.5t21 236.5q0 230 -109.5 362.5t-303.5 132.5q-107 0 -189.5 -35.5t-156.5 -109.5q-85 -85 -141.5 -211t-78.5 -244.5t-22 -236.5z" />
    <glyph glyph-name="ordfeminine" unicode="&#xaa;" horiz-adv-x="604" 
d="M281 821q-57 0 -89 39t-32 107q0 29 6.5 60t22 63.5t38.5 58t60 41.5t82 16q47 0 110 -26l4 14q4 32 4 35q0 30 -21 46.5t-58 16.5q-66 0 -119 -32l-21 147q88 37 189 37q100 0 154.5 -45t54.5 -131q0 -25 -11 -82l-75 -355h-177l13 58q-62 -68 -135 -68zM371 942
q25 0 45.5 20t27.5 56l15 65q-35 13 -56 13q-35 0 -54 -33t-19 -70q0 -51 41 -51zM72 582l30 141h469l-32 -141h-467z" />
    <glyph glyph-name="guillemotleft" unicode="&#xab;" horiz-adv-x="1021" 
d="M246 82l-205 446l12 60l383 438l178 -125l-266 -360l123 -367zM668 80l-205 461l2 18l412 463l176 -125l-275 -365l115 -358z" />
    <glyph glyph-name="registered" unicode="&#xae;" horiz-adv-x="645" 
d="M483 1458q112 0 180 -77t68 -201q0 -98 -31.5 -196.5t-95.5 -158.5q-88 -88 -207 -88q-114 0 -182 77.5t-68 201.5q0 96 32 192.5t95 161.5q88 88 209 88zM399 776q103 0 174 74q57 57 86 147.5t29 178.5q0 107 -55.5 174t-153.5 67q-100 0 -174 -74q-57 -57 -86 -147
t-29 -178q0 -107 56 -174.5t153 -67.5zM397 1030l-24 -123h-99l80 393h101q71 0 108 -31t37 -87q0 -94 -86 -129l41 -146h-104l-31 123h-23zM414 1110h20q27 0 49 16q17 24 17 48q0 40 -47 40h-19z" />
    <glyph glyph-name="macron" unicode="&#xaf;" 
d="M352 1192l43 201h594l-43 -201h-594z" />
    <glyph glyph-name="degree" unicode="&#xb0;" horiz-adv-x="698" 
d="M502 1448q120 0 187 -80.5t67 -202.5q0 -94 -33 -192.5t-100 -165.5q-86 -86 -203 -86q-120 0 -187 80.5t-67 202.5q0 96 33 194.5t100 165.5q90 84 203 84zM432 903q33 0 60 27q35 35 54 103t19 126q0 109 -76 109q-30 0 -57 -27q-36 -36 -55 -104t-19 -127
q0 -107 74 -107z" />
    <glyph glyph-name="plusminus" unicode="&#xb1;" horiz-adv-x="999" 
d="M319 387l64 289h-285l62 285h284l64 288h291l-66 -288h283l-62 -285h-282l-64 -289h-289zM-47 0l59 266h852l-59 -266h-852z" />
    <glyph glyph-name="acute" unicode="&#xb4;" 
d="M420 1182l244 315l276 -100l-295 -215h-225z" />
    <glyph glyph-name="mu" unicode="&#xb5;" horiz-adv-x="1077" 
d="M426 -12q-125 0 -162 141h-6q0 -166 -31 -309l-24 -107h-318l305 1395h328l-145 -672q-11 -64 -11 -82q0 -39 21 -61.5t59 -22.5q45 0 77 32.5t44 94.5l154 711h327l-161 -754q-9 -37 -9 -49q0 -49 68 -49q17 0 53 4l-55 -248q-79 -28 -158 -28q-143 0 -180 122
q-69 -118 -176 -118z" />
    <glyph glyph-name="paragraph" unicode="&#xb6;" horiz-adv-x="894" 
d="M381 0l98 451q-189 37 -272 120q-103 100 -103 267q0 127 41 239t123 191q166 166 457 166h279l-310 -1434h-313z" />
    <glyph glyph-name="periodcentered" unicode="&#xb7;" horiz-adv-x="489" 
d="M47 463l78 354h354l-78 -354h-354z" />
    <glyph glyph-name="cedilla" unicode="&#xb8;" 
d="M362 -295l-266 92l226 242h217z" />
    <glyph glyph-name="ordmasculine" unicode="&#xba;" horiz-adv-x="608" 
d="M76 582l30 141h457l-31 -141h-456zM342 1059q0 -88 55 -88q22 0 43 18q28 32 47 98t19 117q0 88 -55 88q-29 0 -43 -20q-30 -30 -48 -95t-18 -118zM678 1204q0 -82 -29 -170t-88 -147q-72 -72 -174 -72q-104 0 -161.5 63.5t-57.5 180.5q0 80 30 169t87 146q74 74 174 74
q105 0 162 -64t57 -180z" />
    <glyph glyph-name="guillemotright" unicode="&#xbb;" horiz-adv-x="1021" 
d="M776 1022l205 -447l-12 -59l-383 -438l-178 125l266 360l-123 367zM354 1024l205 -461l-2 -18l-412 -463l-176 125l275 364l-115 359z" />
    <glyph glyph-name="questiondown" unicode="&#xbf;" horiz-adv-x="860" 
d="M682 971l-43 -365l-12 -14q-283 -39 -283 -193q0 -51 31.5 -79.5t85.5 -28.5q86 0 207 80l102 -275q-182 -114 -371 -114q-184 0 -292.5 97t-108.5 257q0 168 100.5 283.5t294.5 162.5l74 189h215zM850 1434l-74 -334h-352l72 334h354z" />
    <glyph glyph-name="Agrave" unicode="&#xc0;" horiz-adv-x="1124" 
d="M-125 0l700 1440h365l76 -1440h-340l-6 260h-332l-117 -260h-346zM461 537h205l-7 446zM655 1520l-213 176l312 96l129 -272h-228z" />
    <glyph glyph-name="Aacute" unicode="&#xc1;" horiz-adv-x="1124" 
d="M-125 0l700 1440h365l76 -1440h-340l-6 260h-332l-117 -260h-346zM461 537h205l-7 446zM645 1520l232 272l303 -96l-285 -176h-250z" />
    <glyph glyph-name="Acircumflex" unicode="&#xc2;" horiz-adv-x="1124" 
d="M-125 0l700 1440h365l76 -1440h-340l-6 260h-332l-117 -260h-346zM461 537h205l-7 446zM444 1520l242 252h270l131 -252h-202l-90 90l-131 -90h-220z" />
    <glyph glyph-name="Atilde" unicode="&#xc3;" horiz-adv-x="1124" 
d="M-125 0l700 1440h365l76 -1440h-340l-6 260h-332l-117 -260h-346zM461 537h205l-7 446zM596 1507l-158 37q43 135 96 196.5t130 61.5q60 0 153 -39q64 -30 105 -30q28 0 47 17t43 62l157 -38q-43 -135 -96.5 -196.5t-130.5 -61.5q-60 0 -151 38q-12 4 -32.5 12t-30 11.5
t-21.5 6.5t-21 3q-29 0 -46.5 -17.5t-43.5 -62.5z" />
    <glyph glyph-name="Adieresis" unicode="&#xc4;" horiz-adv-x="1124" 
d="M-125 0l700 1440h365l76 -1440h-340l-6 260h-332l-117 -260h-346zM461 537h205l-7 446zM463 1522l53 243h272l-53 -243h-272zM819 1522l53 243h273l-53 -243h-273z" />
    <glyph glyph-name="Aring" unicode="&#xc5;" horiz-adv-x="1124" 
d="M-125 0l682 1409q-18 37 -18 82q0 98 71.5 165.5t182.5 67.5q90 0 149 -52.5t59 -131.5q0 -86 -59 -151l72 -1389h-340l-6 260h-332l-115 -260h-346zM459 537h207l-9 446zM758 1409q54 0 88.5 35t34.5 84q0 42 -27 67t-74 25q-54 0 -88.5 -35t-34.5 -84q0 -42 27 -67
t74 -25z" />
    <glyph glyph-name="AE" unicode="&#xc6;" horiz-adv-x="1546" 
d="M-131 0l790 1434h1016l-69 -308h-449l-55 -256h401l-63 -297h-402l-57 -266h459l-70 -307h-790l57 260h-289l-135 -260h-344zM494 537h202l129 591h-24z" />
    <glyph glyph-name="Ccedilla" unicode="&#xc7;" horiz-adv-x="999" 
d="M406 -295l-267 92l207 221q-132 58 -204 193.5t-72 337.5q0 204 69 407.5t199 333.5q164 164 379 164q258 0 403 -188l-215 -248q-83 117 -182 117q-75 0 -137 -62q-80 -80 -125 -229.5t-45 -274.5q0 -142 49.5 -205t126.5 -63q89 0 194 92l127 -276q-170 -137 -364 -137
z" />
    <glyph glyph-name="Egrave" unicode="&#xc8;" horiz-adv-x="944" 
d="M563 1505l-213 176l312 97l129 -273h-228zM-39 0l311 1434h801l-69 -308h-461l-58 -256h416l-63 -297h-416l-57 -266h473l-70 -307h-807z" />
    <glyph glyph-name="Eacute" unicode="&#xc9;" horiz-adv-x="944" 
d="M553 1505l231 273l303 -97l-284 -176h-250zM-39 0l311 1434h801l-69 -308h-461l-58 -256h416l-63 -297h-416l-57 -266h473l-70 -307h-807z" />
    <glyph glyph-name="Ecircumflex" unicode="&#xca;" horiz-adv-x="944" 
d="M-39 0l311 1434h801l-69 -308h-461l-58 -256h416l-63 -297h-416l-57 -266h473l-70 -307h-807zM354 1505l242 252h270l131 -252h-202l-90 90l-132 -90h-219z" />
    <glyph glyph-name="Edieresis" unicode="&#xcb;" horiz-adv-x="944" 
d="M375 1507l53 244h272l-53 -244h-272zM731 1507l53 244h273l-53 -244h-273zM-39 0l311 1434h801l-69 -308h-461l-58 -256h416l-63 -297h-416l-57 -266h473l-70 -307h-807z" />
    <glyph glyph-name="Igrave" unicode="&#xcc;" horiz-adv-x="509" 
d="M-35 0l314 1434h335l-311 -1434h-338zM340 1505l-213 176l311 97l129 -273h-227z" />
    <glyph glyph-name="Iacute" unicode="&#xcd;" horiz-adv-x="509" 
d="M-35 0l314 1434h335l-311 -1434h-338zM332 1505l231 273l303 -97l-284 -176h-250z" />
    <glyph glyph-name="Icircumflex" unicode="&#xce;" horiz-adv-x="509" 
d="M-35 0l314 1434h335l-311 -1434h-338zM131 1505l242 252h270l131 -252h-203l-90 90l-131 -90h-219z" />
    <glyph glyph-name="Idieresis" unicode="&#xcf;" horiz-adv-x="509" 
d="M-35 0l314 1434h335l-311 -1434h-338zM152 1507l53 244h272l-53 -244h-272zM508 1507l53 244h273l-54 -244h-272z" />
    <glyph glyph-name="Eth" unicode="&#xd0;" horiz-adv-x="1187" 
d="M37 582l61 280h103l125 572h288q299 0 445 -146q133 -133 133 -383q0 -183 -64 -384.5t-186 -323.5q-200 -197 -545 -197h-383l125 582h-102zM791 1077q-56 56 -160 56h-41l-60 -273h150l-62 -276h-147l-59 -281h47q139 0 233 94q70 70 115 213.5t45 270.5q0 135 -61 196
z" />
    <glyph glyph-name="Ntilde" unicode="&#xd1;" horiz-adv-x="1159" 
d="M604 1493l-158 37q43 135 96 196.5t130 61.5q60 0 153 -39q66 -31 105 -31q28 0 47 17.5t43 62.5l158 -39q-43 -135 -97 -196.5t-131 -61.5q-58 0 -151 39q-12 4 -32.5 12t-30 11.5t-21.5 6.5t-21 3q-29 0 -46.5 -17.5t-43.5 -62.5zM-39 0l311 1434h316l198 -713l156 713
h328l-312 -1434h-303l-204 741l-162 -741h-328z" />
    <glyph glyph-name="Ograve" unicode="&#xd2;" horiz-adv-x="1175" 
d="M666 1520l-213 176l311 96l129 -272h-227zM721 1460q222 0 342.5 -141.5t120.5 -398.5q0 -198 -74 -425t-207 -360q-162 -162 -377 -162q-221 0 -342 144t-121 399q0 198 74 424.5t207 359.5q160 160 377 160zM547 281q64 0 115 51q86 86 135 268t49 320q0 125 -37 180
t-109 55q-61 0 -114 -53q-85 -85 -135 -267t-50 -321q0 -124 37 -178.5t109 -54.5z" />
    <glyph glyph-name="Oacute" unicode="&#xd3;" horiz-adv-x="1175" 
d="M655 1520l232 272l303 -96l-285 -176h-250zM721 1460q222 0 342.5 -141.5t120.5 -398.5q0 -198 -74 -425t-207 -360q-162 -162 -377 -162q-221 0 -342 144t-121 399q0 198 74 424.5t207 359.5q160 160 377 160zM547 281q64 0 115 51q86 86 135 268t49 320q0 125 -37 180
t-109 55q-61 0 -114 -53q-85 -85 -135 -267t-50 -321q0 -124 37 -178.5t109 -54.5z" />
    <glyph glyph-name="Ocircumflex" unicode="&#xd4;" horiz-adv-x="1175" 
d="M721 1460q222 0 342.5 -141.5t120.5 -398.5q0 -198 -74 -425t-207 -360q-162 -162 -377 -162q-221 0 -342 144t-121 399q0 198 74 424.5t207 359.5q160 160 377 160zM547 281q64 0 115 51q86 86 135 268t49 320q0 125 -37 180t-109 55q-61 0 -114 -53q-85 -85 -135 -267
t-50 -321q0 -124 37 -178.5t109 -54.5zM455 1520l241 252h271l131 -252h-203l-90 90l-131 -90h-219z" />
    <glyph glyph-name="Otilde" unicode="&#xd5;" horiz-adv-x="1175" 
d="M604 1507l-158 37q43 135 96 196.5t130 61.5q60 0 153 -39q64 -30 105 -30q28 0 47 17t43 62l158 -38q-43 -135 -97 -196.5t-131 -61.5q-60 0 -151 38q-12 4 -32.5 12t-30 11.5t-21.5 6.5t-21 3q-29 0 -46.5 -17.5t-43.5 -62.5zM721 1460q222 0 342.5 -141.5
t120.5 -398.5q0 -198 -74 -425t-207 -360q-162 -162 -377 -162q-221 0 -342 144t-121 399q0 198 74 424.5t207 359.5q160 160 377 160zM547 281q64 0 115 51q86 86 135 268t49 320q0 125 -37 180t-109 55q-61 0 -114 -53q-85 -85 -135 -267t-50 -321q0 -124 37 -178.5
t109 -54.5z" />
    <glyph glyph-name="Odieresis" unicode="&#xd6;" horiz-adv-x="1175" 
d="M473 1522l53 243h273l-54 -243h-272zM829 1522l54 243h272l-53 -243h-273zM721 1460q222 0 342.5 -141.5t120.5 -398.5q0 -198 -74 -425t-207 -360q-162 -162 -377 -162q-221 0 -342 144t-121 399q0 198 74 424.5t207 359.5q160 160 377 160zM547 281q64 0 115 51
q86 86 135 268t49 320q0 125 -37 180t-109 55q-61 0 -114 -53q-85 -85 -135 -267t-50 -321q0 -124 37 -178.5t109 -54.5z" />
    <glyph glyph-name="multiply" unicode="&#xd7;" horiz-adv-x="999" 
d="M223 274l-182 215l297 250l-182 238l233 186l176 -237l283 243l182 -215l-295 -249l183 -240l-236 -186l-172 239z" />
    <glyph glyph-name="Oslash" unicode="&#xd8;" horiz-adv-x="1177" 
d="M719 1460q191 0 317 -117l80 101h199l-189 -227q58 -125 58 -285q0 -134 -28.5 -277.5t-93.5 -286.5t-155 -233q-156 -162 -379 -162q-196 0 -317 115l-78 -98h-201l189 227q-58 116 -58 287q0 134 28.5 277t93.5 286t155 233q160 160 379 160zM578 1108
q-57 -57 -103 -176t-67 -230t-21 -186l436 586q-40 61 -123 61q-67 0 -122 -55zM547 270q71 0 123 58q82 82 133 268t57 322l-436 -586q41 -62 123 -62z" />
    <glyph glyph-name="Ugrave" unicode="&#xd9;" horiz-adv-x="1118" 
d="M641 1505l-213 176l311 97l129 -273h-227zM481 -23q-204 0 -318 101.5t-114 281.5q0 86 23 189l192 885h336l-197 -904q-16 -75 -16 -120q0 -60 33.5 -92.5t93.5 -32.5q66 0 109 43q45 45 71 153l207 953h336l-209 -965q-53 -235 -172 -354q-138 -138 -375 -138z" />
    <glyph glyph-name="Uacute" unicode="&#xda;" horiz-adv-x="1118" 
d="M629 1505l231 273l303 -97l-284 -176h-250zM481 -23q-204 0 -318 101.5t-114 281.5q0 86 23 189l192 885h336l-197 -904q-16 -75 -16 -120q0 -60 33.5 -92.5t93.5 -32.5q66 0 109 43q45 45 71 153l207 953h336l-209 -965q-53 -235 -172 -354q-138 -138 -375 -138z" />
    <glyph glyph-name="Ucircumflex" unicode="&#xdb;" horiz-adv-x="1118" 
d="M481 -23q-204 0 -318 101.5t-114 281.5q0 86 23 189l192 885h336l-197 -904q-16 -75 -16 -120q0 -60 33.5 -92.5t93.5 -32.5q66 0 109 43q45 45 71 153l207 953h336l-209 -965q-53 -235 -172 -354q-138 -138 -375 -138zM430 1505l242 252h270l131 -252h-203l-90 90
l-131 -90h-219z" />
    <glyph glyph-name="Udieresis" unicode="&#xdc;" horiz-adv-x="1118" 
d="M449 1507l53 244h272l-53 -244h-272zM805 1507l53 244h272l-53 -244h-272zM481 -23q-204 0 -318 101.5t-114 281.5q0 86 23 189l192 885h336l-197 -904q-16 -75 -16 -120q0 -60 33.5 -92.5t93.5 -32.5q66 0 109 43q45 45 71 153l207 953h336l-209 -965
q-53 -235 -172 -354q-138 -138 -375 -138z" />
    <glyph glyph-name="Yacute" unicode="&#xdd;" 
d="M217 0l119 541l-166 893h346l64 -516l286 516h367l-563 -908l-115 -526h-338zM569 1505l232 273l303 -97l-285 -176h-250z" />
    <glyph glyph-name="Thorn" unicode="&#xde;" horiz-adv-x="1019" 
d="M-39 0l311 1434h336l-43 -193q243 -3 371 -125q102 -105 102 -282q0 -123 -39.5 -237t-121.5 -196q-165 -165 -451 -165h-78l-51 -236h-336zM410 520h43q108 0 170 62q40 40 59.5 99.5t19.5 115.5q0 74 -40 114q-39 39 -117 39h-43z" />
    <glyph glyph-name="germandbls" unicode="&#xdf;" horiz-adv-x="1028" 
d="M379 -2l57 260q103 4 154 64t51 145q0 123 -125 158l47 217q86 28 130 95t44 146q0 56 -25.5 87.5t-68.5 31.5q-52 0 -86.5 -48t-58.5 -146l-219 -1008h-328l223 1024q49 219 158 328q125 125 332 125q183 0 289 -99.5t106 -257.5q0 -136 -68 -237.5t-198 -155.5
q165 -96 165 -281q0 -97 -34.5 -180.5t-103 -148t-182 -97t-259.5 -22.5z" />
    <glyph glyph-name="agrave" unicode="&#xe0;" horiz-adv-x="919" 
d="M199 -20q-101 0 -159 68.5t-58 195.5q0 101 32 196.5t90 153.5q92 92 244 92q101 0 205 -49l6 25q8 31 8 67q0 115 -147 115q-94 0 -209 -47l-35 272q167 55 328 55q188 0 290.5 -83.5t102.5 -243.5q0 -70 -20 -160l-138 -637h-325l22 102q-109 -122 -237 -122zM365 203
q45 0 80.5 36t48.5 101l22 119q-53 24 -96 24q-44 0 -78 -30q-25 -27 -39 -73t-14 -85q0 -92 76 -92zM481 1192l-215 215l289 100l127 -315h-201z" />
    <glyph glyph-name="aacute" unicode="&#xe1;" horiz-adv-x="919" 
d="M199 -20q-101 0 -159 68.5t-58 195.5q0 101 32 196.5t90 153.5q92 92 244 92q101 0 205 -49l6 25q8 31 8 67q0 115 -147 115q-94 0 -209 -47l-35 272q167 55 328 55q188 0 290.5 -83.5t102.5 -243.5q0 -70 -20 -160l-138 -637h-325l22 102q-109 -122 -237 -122zM365 203
q45 0 80.5 36t48.5 101l22 119q-53 24 -96 24q-44 0 -78 -30q-25 -27 -39 -73t-14 -85q0 -92 76 -92zM459 1192l243 315l277 -100l-295 -215h-225z" />
    <glyph glyph-name="acircumflex" unicode="&#xe2;" horiz-adv-x="919" 
d="M199 -20q-101 0 -159 68.5t-58 195.5q0 101 32 196.5t90 153.5q92 92 244 92q101 0 205 -49l6 25q8 31 8 67q0 115 -147 115q-94 0 -209 -47l-35 272q167 55 328 55q188 0 290.5 -83.5t102.5 -243.5q0 -70 -20 -160l-138 -637h-325l22 102q-109 -122 -237 -122zM365 203
q45 0 80.5 36t48.5 101l22 119q-53 24 -96 24q-44 0 -78 -30q-25 -27 -39 -73t-14 -85q0 -92 76 -92zM264 1192l256 287h248l131 -287h-188l-99 111l-141 -111h-207z" />
    <glyph glyph-name="atilde" unicode="&#xe3;" horiz-adv-x="919" 
d="M199 -20q-101 0 -159 68.5t-58 195.5q0 101 32 196.5t90 153.5q92 92 244 92q101 0 205 -49l6 25q8 31 8 67q0 115 -147 115q-94 0 -209 -47l-35 272q167 55 328 55q188 0 290.5 -83.5t102.5 -243.5q0 -70 -20 -160l-138 -637h-325l22 102q-109 -122 -237 -122zM365 203
q45 0 80.5 36t48.5 101l22 119q-53 24 -96 24q-44 0 -78 -30q-25 -27 -39 -73t-14 -85q0 -92 76 -92zM817 1483l156 -37q-80 -256 -225 -256q-61 0 -144 39q-84 31 -102 31q-31 0 -50 -17.5t-40 -62.5l-158 37q43 135 96.5 195.5t130.5 60.5q61 0 144 -39q12 -5 31 -12.5
t28 -11t20.5 -6.5t20.5 -3q30 0 48.5 17.5t43.5 64.5z" />
    <glyph glyph-name="adieresis" unicode="&#xe4;" horiz-adv-x="919" 
d="M199 -20q-101 0 -159 68.5t-58 195.5q0 101 32 196.5t90 153.5q92 92 244 92q101 0 205 -49l6 25q8 31 8 67q0 115 -147 115q-94 0 -209 -47l-35 272q167 55 328 55q188 0 290.5 -83.5t102.5 -243.5q0 -70 -20 -160l-138 -637h-325l22 102q-109 -122 -237 -122zM365 203
q45 0 80.5 36t48.5 101l22 119q-53 24 -96 24q-44 0 -78 -30q-25 -27 -39 -73t-14 -85q0 -92 76 -92zM283 1194l55 256h268l-55 -256h-268zM629 1194l55 256h266l-55 -256h-266z" />
    <glyph glyph-name="aring" unicode="&#xe5;" horiz-adv-x="919" 
d="M199 -20q-101 0 -159 68.5t-58 195.5q0 101 32 196.5t90 153.5q92 92 244 92q101 0 205 -49l6 25q8 31 8 67q0 115 -147 115q-94 0 -209 -47l-35 272q167 55 328 55q188 0 290.5 -83.5t102.5 -243.5q0 -70 -20 -160l-138 -637h-325l22 102q-109 -122 -237 -122zM365 203
q45 0 80.5 36t48.5 101l22 119q-53 24 -96 24q-44 0 -78 -30q-25 -27 -39 -73t-14 -85q0 -92 76 -92zM854 1430q0 -96 -69 -170t-171 -74q-87 0 -141.5 52t-54.5 136q0 96 68.5 169t170.5 73q86 0 141.5 -52t55.5 -134zM535 1382q0 -39 23 -64.5t63 -25.5q49 0 81.5 37.5
t32.5 91.5q0 39 -23 64.5t-63 25.5q-47 0 -80.5 -37.5t-33.5 -91.5z" />
    <glyph glyph-name="ae" unicode="&#xe6;" horiz-adv-x="1419" 
d="M244 -20q-122 0 -192 69t-70 193q0 102 32 198t90 154q92 92 244 92q101 0 205 -49l6 25q8 31 8 67q0 115 -147 115q-94 0 -209 -47l-35 272q167 55 328 55q204 0 287 -114q126 123 276 123q155 0 243.5 -107.5t88.5 -292.5q0 -128 -45 -301h-529v-12q0 -166 154 -166
q102 0 211 74l82 -248q-163 -107 -340 -107q-246 0 -348 181q-146 -174 -340 -174zM373 207q41 0 85 28t77 72q-13 87 -7 150q-51 28 -106 28q-51 0 -78 -30q-27 -27 -41 -70.5t-14 -83.5q0 -94 84 -94zM956 831q-51 -51 -96 -196h232q14 60 14 108q0 119 -80 119
q-39 0 -70 -31z" />
    <glyph glyph-name="ccedilla" unicode="&#xe7;" horiz-adv-x="802" 
d="M295 -295l-266 92l204 219q-98 48 -151 150.5t-53 253.5q0 147 50.5 305t162.5 270q135 135 311 135q195 0 321 -167l-186 -220q-59 86 -127 86q-49 0 -92 -43q-57 -57 -87 -157.5t-30 -186.5q0 -87 34 -127.5t87 -40.5q61 0 133 60l111 -244q-123 -107 -281 -115z" />
    <glyph glyph-name="egrave" unicode="&#xe8;" horiz-adv-x="927" 
d="M862 432h-528v-12q0 -166 153 -166q102 0 211 74l82 -248q-160 -105 -344 -105q-196 0 -303.5 115t-107.5 326q0 154 57 316t162 267q137 134 313 134q169 0 259.5 -106.5t90.5 -293.5q0 -128 -45 -301zM465 831q-51 -51 -96 -196h231q14 60 14 108q0 119 -79 119
q-39 0 -70 -31zM500 1192l-215 215l288 100l127 -315h-200z" />
    <glyph glyph-name="eacute" unicode="&#xe9;" horiz-adv-x="927" 
d="M477 1192l244 315l276 -100l-295 -215h-225zM862 432h-528v-12q0 -166 153 -166q102 0 211 74l82 -248q-160 -105 -344 -105q-196 0 -303.5 115t-107.5 326q0 154 57 316t162 267q137 134 313 134q169 0 259.5 -106.5t90.5 -293.5q0 -128 -45 -301zM465 831
q-51 -51 -96 -196h231q14 60 14 108q0 119 -79 119q-39 0 -70 -31z" />
    <glyph glyph-name="ecircumflex" unicode="&#xea;" horiz-adv-x="927" 
d="M281 1192l256 287h247l131 -287h-188l-98 111l-142 -111h-206zM862 432h-528v-12q0 -166 153 -166q102 0 211 74l82 -248q-160 -105 -344 -105q-196 0 -303.5 115t-107.5 326q0 154 57 316t162 267q137 134 313 134q169 0 259.5 -106.5t90.5 -293.5q0 -128 -45 -301z
M465 831q-51 -51 -96 -196h231q14 60 14 108q0 119 -79 119q-39 0 -70 -31z" />
    <glyph glyph-name="edieresis" unicode="&#xeb;" horiz-adv-x="927" 
d="M299 1194l55 256h269l-56 -256h-268zM645 1194l55 256h267l-56 -256h-266zM862 432h-528v-12q0 -166 153 -166q102 0 211 74l82 -248q-160 -105 -344 -105q-196 0 -303.5 115t-107.5 326q0 154 57 316t162 267q137 134 313 134q169 0 259.5 -106.5t90.5 -293.5
q0 -128 -45 -301zM465 831q-51 -51 -96 -196h231q14 60 14 108q0 119 -79 119q-39 0 -70 -31z" />
    <glyph glyph-name="igrave" unicode="&#xec;" horiz-adv-x="479" 
d="M-45 0l242 1108h327l-239 -1108h-330zM270 1182l-215 215l289 100l127 -315h-201z" />
    <glyph glyph-name="iacute" unicode="&#xed;" horiz-adv-x="479" 
d="M252 1182l244 315l276 -100l-295 -215h-225zM-45 0l242 1108h327l-239 -1108h-330z" />
    <glyph glyph-name="icircumflex" unicode="&#xee;" horiz-adv-x="479" 
d="M53 1182l256 286h248l131 -286h-188l-99 110l-141 -110h-207zM-45 0l242 1108h327l-239 -1108h-330z" />
    <glyph glyph-name="idieresis" unicode="&#xef;" horiz-adv-x="479" 
d="M72 1184l55 256h268l-55 -256h-268zM418 1184l55 256h266l-55 -256h-266zM-45 0l242 1108h327l-239 -1108h-330z" />
    <glyph glyph-name="eth" unicode="&#xf0;" horiz-adv-x="985" 
d="M399 1169l-39 146l134 35q-7 9 -99 118h363l30 -43l162 43l39 -147l-121 -31q99 -214 99 -461q0 -198 -59.5 -402.5t-172.5 -317.5q-139 -136 -315 -136q-186 0 -288.5 116.5t-102.5 313.5q0 91 20 197t69.5 222t119.5 186q106 106 237 106q106 0 180 -80q-23 90 -75 183
zM467 268q62 37 102 209q34 67 42 157t-9 130q-14 87 -86 74q-62 -37 -102 -209q-34 -65 -42 -157t9 -130q15 -87 86 -74z" />
    <glyph glyph-name="ntilde" unicode="&#xf1;" horiz-adv-x="976" 
d="M-51 0l241 1108h328l-26 -125q116 147 258 147q108 0 167.5 -64t59.5 -171q0 -60 -19 -141l-161 -754h-330l147 680q13 57 13 82q0 76 -74 76q-47 0 -78 -33t-43 -94l-153 -711h-330zM854 1483l156 -37q-80 -256 -226 -256q-60 0 -143 39q-84 31 -102 31q-31 0 -50 -17.5
t-40 -62.5l-158 37q43 135 96.5 195.5t130.5 60.5q61 0 144 -39q12 -5 31 -12.5t28 -11t20.5 -6.5t20.5 -3q30 0 48.5 17.5t43.5 64.5z" />
    <glyph glyph-name="ograve" unicode="&#xf2;" horiz-adv-x="976" 
d="M422 -27q-189 0 -291 117.5t-102 317.5q0 159 53.5 324t153.5 265q133 136 319 136q189 0 292 -117.5t103 -317.5q0 -159 -53.5 -324t-153.5 -265q-136 -136 -321 -136zM438 256q41 0 76 35q53 53 88 177.5t35 225.5q0 158 -96 158q-41 0 -78 -37q-52 -52 -86.5 -176.5
t-34.5 -224.5q0 -158 96 -158zM524 1192l-215 215l289 100l127 -315h-201z" />
    <glyph glyph-name="oacute" unicode="&#xf3;" horiz-adv-x="976" 
d="M502 1192l243 315l277 -100l-295 -215h-225zM422 -27q-189 0 -291 117.5t-102 317.5q0 159 53.5 324t153.5 265q133 136 319 136q189 0 292 -117.5t103 -317.5q0 -159 -53.5 -324t-153.5 -265q-136 -136 -321 -136zM438 256q41 0 76 35q53 53 88 177.5t35 225.5
q0 158 -96 158q-41 0 -78 -37q-52 -52 -86.5 -176.5t-34.5 -224.5q0 -158 96 -158z" />
    <glyph glyph-name="ocircumflex" unicode="&#xf4;" horiz-adv-x="976" 
d="M305 1192l256 287h248l131 -287h-188l-99 111l-141 -111h-207zM422 -27q-189 0 -291 117.5t-102 317.5q0 159 53.5 324t153.5 265q133 136 319 136q189 0 292 -117.5t103 -317.5q0 -159 -53.5 -324t-153.5 -265q-136 -136 -321 -136zM438 256q41 0 76 35q53 53 88 177.5
t35 225.5q0 158 -96 158q-41 0 -78 -37q-52 -52 -86.5 -176.5t-34.5 -224.5q0 -158 96 -158z" />
    <glyph glyph-name="otilde" unicode="&#xf5;" horiz-adv-x="976" 
d="M422 -27q-189 0 -291 117.5t-102 317.5q0 159 53.5 324t153.5 265q133 136 319 136q189 0 292 -117.5t103 -317.5q0 -159 -53.5 -324t-153.5 -265q-136 -136 -321 -136zM438 256q41 0 76 35q53 53 88 177.5t35 225.5q0 158 -96 158q-41 0 -78 -37q-52 -52 -86.5 -176.5
t-34.5 -224.5q0 -158 96 -158zM860 1483l156 -37q-80 -256 -225 -256q-61 0 -144 39q-84 31 -102 31q-31 0 -50 -17.5t-40 -62.5l-158 37q43 135 96.5 195.5t130.5 60.5q61 0 144 -39q12 -5 31 -12.5t28 -11t20.5 -6.5t20.5 -3q30 0 48.5 17.5t43.5 64.5z" />
    <glyph glyph-name="odieresis" unicode="&#xf6;" horiz-adv-x="976" 
d="M324 1194l55 256h268l-55 -256h-268zM670 1194l55 256h266l-55 -256h-266zM422 -27q-189 0 -291 117.5t-102 317.5q0 159 53.5 324t153.5 265q133 136 319 136q189 0 292 -117.5t103 -317.5q0 -159 -53.5 -324t-153.5 -265q-136 -136 -321 -136zM438 256q41 0 76 35
q53 53 88 177.5t35 225.5q0 158 -96 158q-41 0 -78 -37q-52 -52 -86.5 -176.5t-34.5 -224.5q0 -158 96 -158z" />
    <glyph glyph-name="divide" unicode="&#xf7;" horiz-adv-x="999" 
d="M268 193l62 280h305l-62 -280h-305zM76 582l61 278h858l-59 -278h-860zM436 969l64 282h305l-64 -282h-305z" />
    <glyph glyph-name="oslash" unicode="&#xf8;" horiz-adv-x="976" 
d="M-102 -12l174 194q-43 93 -43 226q0 159 53.5 324t153.5 265q133 136 319 136q165 0 270 -97l68 80h184l-172 -192q45 -99 45 -226q0 -159 -53.5 -324t-153.5 -265q-136 -136 -321 -136q-167 0 -270 95l-68 -80h-186zM457 823q-52 -52 -86 -162.5t-39 -209.5l291 366
q-26 45 -82 45q-45 0 -84 -39zM436 244q47 0 86 39q51 51 82.5 157.5t40.5 210.5l-291 -362q26 -45 82 -45z" />
    <glyph glyph-name="ugrave" unicode="&#xf9;" horiz-adv-x="976" 
d="M231 -23q-109 0 -168 65t-59 173q0 57 16 139l164 754h328l-147 -680q-13 -76 -13 -80q0 -78 76 -78q44 0 75.5 33.5t45.5 93.5l153 711h328l-239 -1108h-328l26 127q-124 -150 -258 -150zM516 1182l-215 215l289 100l127 -315h-201z" />
    <glyph glyph-name="uacute" unicode="&#xfa;" horiz-adv-x="976" 
d="M494 1182l243 315l277 -100l-295 -215h-225zM231 -23q-109 0 -168 65t-59 173q0 57 16 139l164 754h328l-147 -680q-13 -76 -13 -80q0 -78 76 -78q44 0 75.5 33.5t45.5 93.5l153 711h328l-239 -1108h-328l26 127q-124 -150 -258 -150z" />
    <glyph glyph-name="ucircumflex" unicode="&#xfb;" horiz-adv-x="976" 
d="M297 1182l256 286h248l131 -286h-189l-98 110l-141 -110h-207zM231 -23q-109 0 -168 65t-59 173q0 57 16 139l164 754h328l-147 -680q-13 -76 -13 -80q0 -78 76 -78q44 0 75.5 33.5t45.5 93.5l153 711h328l-239 -1108h-328l26 127q-124 -150 -258 -150z" />
    <glyph glyph-name="udieresis" unicode="&#xfc;" horiz-adv-x="976" 
d="M315 1184l56 256h268l-55 -256h-269zM662 1184l55 256h266l-55 -256h-266zM231 -23q-109 0 -168 65t-59 173q0 57 16 139l164 754h328l-147 -680q-13 -76 -13 -80q0 -78 76 -78q44 0 75.5 33.5t45.5 93.5l153 711h328l-239 -1108h-328l26 127q-124 -150 -258 -150z" />
    <glyph glyph-name="yacute" unicode="&#xfd;" horiz-adv-x="946" 
d="M199 14l-66 1094h328l-2 -631l264 631h334l-525 -1092q-84 -174 -165 -243.5t-213 -69.5q-121 0 -224 64l90 243q53 -39 107 -39q44 0 72 43zM475 1182l244 315l276 -100l-295 -215h-225z" />
    <glyph glyph-name="thorn" unicode="&#xfe;" horiz-adv-x="1015" 
d="M547 -23q-162 0 -240 160l-92 -424h-328l381 1755h328l-104 -485q59 72 119 109.5t134 37.5q118 0 183 -92.5t65 -261.5q0 -184 -60.5 -390t-168.5 -314q-95 -95 -217 -95zM465 266q41 0 76 35q53 53 87 178.5t34 218.5q0 75 -25 110.5t-66 35.5q-40 0 -75 -35
q-53 -53 -87 -178.5t-34 -218.5q0 -75 24.5 -110.5t65.5 -35.5z" />
    <glyph glyph-name="ydieresis" unicode="&#xff;" horiz-adv-x="946" 
d="M199 14l-66 1094h328l-2 -631l264 631h334l-525 -1092q-84 -174 -165 -243.5t-213 -69.5q-121 0 -224 64l90 243q53 -39 107 -39q44 0 72 43zM297 1184l55 256h269l-56 -256h-268zM643 1184l55 256h267l-56 -256h-266z" />
    <glyph glyph-name="Amacron" unicode="&#x100;" horiz-adv-x="1124" 
d="M-125 0l700 1440h365l76 -1440h-340l-6 260h-332l-117 -260h-346zM461 537h205l-7 446zM465 1528l47 207h627l-45 -207h-629z" />
    <glyph glyph-name="amacron" unicode="&#x101;" horiz-adv-x="919" 
d="M199 -20q-101 0 -159 68.5t-58 195.5q0 101 32 196.5t90 153.5q92 92 244 92q101 0 205 -49l6 25q8 31 8 67q0 115 -147 115q-94 0 -209 -47l-35 272q167 55 328 55q188 0 290.5 -83.5t102.5 -243.5q0 -70 -20 -160l-138 -637h-325l22 102q-109 -122 -237 -122zM365 203
q45 0 80.5 36t48.5 101l22 119q-53 24 -96 24q-44 0 -78 -30q-25 -27 -39 -73t-14 -85q0 -92 76 -92zM293 1202l43 201h594l-43 -201h-594z" />
    <glyph glyph-name="Abreve" unicode="&#x102;" horiz-adv-x="1124" 
d="M-125 0l700 1440h365l76 -1440h-340l-6 260h-332l-117 -260h-346zM461 537h205l-7 446zM778 1513q-132 0 -201 63.5t-51 186.5h181q6 -75 102 -75q88 0 125 75h194q-37 -126 -127.5 -188t-222.5 -62z" />
    <glyph glyph-name="abreve" unicode="&#x103;" horiz-adv-x="919" 
d="M199 -20q-101 0 -159 68.5t-58 195.5q0 101 32 196.5t90 153.5q92 92 244 92q101 0 205 -49l6 25q8 31 8 67q0 115 -147 115q-94 0 -209 -47l-35 272q167 55 328 55q188 0 290.5 -83.5t102.5 -243.5q0 -70 -20 -160l-138 -637h-325l22 102q-109 -122 -237 -122zM365 203
q45 0 80.5 36t48.5 101l22 119q-53 24 -96 24q-44 0 -78 -30q-25 -27 -39 -73t-14 -85q0 -92 76 -92zM604 1186q-135 0 -206 70.5t-64 203.5h184q2 -44 27 -70t73 -26q97 0 138 96h188q-35 -132 -125 -203t-215 -71z" />
    <glyph glyph-name="Aogonek" unicode="&#x104;" horiz-adv-x="1124" 
d="M1004 -145l-35 -162q-55 -8 -121 -8q-106 0 -162.5 33t-56.5 96q0 92 119 186h-72l-6 260h-332l-117 -260h-346l700 1440h365l76 -1440h-51q-64 -64 -64 -100q0 -23 23.5 -33t79.5 -12zM461 537h205l-7 446z" />
    <glyph glyph-name="aogonek" unicode="&#x105;" horiz-adv-x="919" 
d="M729 -145l-35 -162q-55 -8 -121 -8q-106 0 -162.5 33t-56.5 96q0 92 119 186h-59l22 102q-109 -122 -237 -122q-101 0 -159 68.5t-58 195.5q0 101 32 196.5t90 153.5q92 92 244 92q101 0 205 -49l6 25q8 31 8 67q0 115 -147 115q-94 0 -209 -47l-35 272q167 55 328 55
q188 0 290.5 -83.5t102.5 -243.5q0 -70 -20 -160l-138 -637h-49q-63 -63 -63 -100q0 -23 23 -33t79 -12zM365 203q45 0 80.5 36t48.5 101l22 119q-53 24 -96 24q-44 0 -78 -30q-25 -27 -39 -73t-14 -85q0 -92 76 -92z" />
    <glyph glyph-name="Cacute" unicode="&#x106;" horiz-adv-x="999" 
d="M549 -20q-224 0 -351.5 148t-127.5 421q0 204 69 407.5t199 333.5q164 164 379 164q258 0 403 -188l-215 -248q-83 117 -182 117q-75 0 -137 -62q-80 -80 -125 -229.5t-45 -274.5q0 -142 49.5 -205t126.5 -63q89 0 194 92l127 -276q-170 -137 -364 -137zM631 1520
l231 272l303 -96l-284 -176h-250z" />
    <glyph glyph-name="cacute" unicode="&#x107;" horiz-adv-x="802" 
d="M455 1192l243 315l277 -100l-295 -215h-225zM420 -25q-178 0 -284.5 115.5t-106.5 329.5q0 147 50.5 305t162.5 270q135 135 311 135q195 0 321 -167l-186 -220q-59 86 -127 86q-49 0 -92 -43q-57 -57 -87 -157.5t-30 -186.5q0 -87 34 -127.5t87 -40.5q61 0 133 60
l111 -244q-131 -115 -297 -115z" />
    <glyph glyph-name="Cdotaccent" unicode="&#x10a;" horiz-adv-x="999" 
d="M623 1522l55 243h280l-53 -243h-282zM549 -20q-224 0 -351.5 148t-127.5 421q0 204 69 407.5t199 333.5q164 164 379 164q258 0 403 -188l-215 -248q-83 117 -182 117q-75 0 -137 -62q-80 -80 -125 -229.5t-45 -274.5q0 -142 49.5 -205t126.5 -63q89 0 194 92l127 -276
q-170 -137 -364 -137z" />
    <glyph glyph-name="cdotaccent" unicode="&#x10b;" horiz-adv-x="802" 
d="M420 -25q-178 0 -284.5 115.5t-106.5 329.5q0 147 50.5 305t162.5 270q135 135 311 135q195 0 321 -167l-186 -220q-59 86 -127 86q-49 0 -92 -43q-57 -57 -87 -157.5t-30 -186.5q0 -87 34 -127.5t87 -40.5q61 0 133 60l111 -244q-131 -115 -297 -115zM446 1194l56 256
h278l-55 -256h-279z" />
    <glyph glyph-name="Ccaron" unicode="&#x10c;" horiz-adv-x="999" 
d="M549 -20q-224 0 -351.5 148t-127.5 421q0 204 69 407.5t199 333.5q164 164 379 164q258 0 403 -188l-215 -248q-83 117 -182 117q-75 0 -137 -62q-80 -80 -125 -229.5t-45 -274.5q0 -142 49.5 -205t126.5 -63q89 0 194 92l127 -276q-170 -137 -364 -137zM1143 1772
l-240 -252h-272l-131 252h205l90 -91l129 91h219z" />
    <glyph glyph-name="ccaron" unicode="&#x10d;" horiz-adv-x="802" 
d="M446 1192l-131 287h191l96 -111l143 111h207l-258 -287h-248zM420 -25q-178 0 -284.5 115.5t-106.5 329.5q0 147 50.5 305t162.5 270q135 135 311 135q195 0 321 -167l-186 -220q-59 86 -127 86q-49 0 -92 -43q-57 -57 -87 -157.5t-30 -186.5q0 -87 34 -127.5t87 -40.5
q61 0 133 60l111 -244q-131 -115 -297 -115z" />
    <glyph glyph-name="Dcaron" unicode="&#x10e;" horiz-adv-x="1136" 
d="M1094 1757l-240 -252h-272l-131 252h204l90 -90l129 90h220zM-39 0l311 1434h291q299 0 445 -146q131 -131 131 -383q0 -183 -64 -384.5t-186 -323.5q-197 -197 -545 -197h-383zM737 1075q-59 53 -157 53h-37l-176 -823h43q135 0 229 94q70 70 115 212.5t45 267.5
q0 134 -62 196z" />
    <glyph glyph-name="dcaron" unicode="&#x10f;" horiz-adv-x="1015" 
d="M1141 1169l90 347h213v-5l-174 -342h-129zM500 0l28 127q-62 -73 -121.5 -111.5t-132.5 -38.5q-118 0 -182.5 93t-64.5 264q0 184 60.5 389t168.5 313q94 94 217 94q161 0 238 -157l108 495h328l-320 -1468h-327zM446 266q41 0 76 35q53 53 88 178.5t35 218.5
q0 75 -24.5 110.5t-65.5 35.5t-76 -35q-53 -53 -88 -178.5t-35 -218.5q0 -75 24.5 -110.5t65.5 -35.5z" />
    <glyph glyph-name="Dcroat" unicode="&#x110;" horiz-adv-x="1187" 
d="M37 582l61 280h103l125 572h288q299 0 445 -146q133 -133 133 -383q0 -183 -64 -384.5t-186 -323.5q-200 -197 -545 -197h-383l125 582h-102zM791 1077q-56 56 -160 56h-41l-60 -273h150l-62 -276h-147l-59 -281h47q139 0 233 94q70 70 115 213.5t45 270.5q0 135 -61 196
z" />
    <glyph glyph-name="dcroat" unicode="&#x111;" horiz-adv-x="1015" 
d="M557 1192l43 190h201l18 86h328l-19 -86h78l-43 -194h-78l-258 -1188h-327l28 127q-62 -73 -121.5 -111.5t-132.5 -38.5q-118 0 -182.5 93t-64.5 264q0 184 60.5 389t168.5 313q94 94 217 94q161 0 238 -157l47 219h-201zM446 266q41 0 76 35q53 53 88 178.5t35 218.5
q0 75 -24.5 110.5t-65.5 35.5t-76 -35q-53 -53 -88 -178.5t-35 -218.5q0 -75 24.5 -110.5t65.5 -35.5z" />
    <glyph glyph-name="Emacron" unicode="&#x112;" horiz-adv-x="944" 
d="M375 1513l47 207h627l-45 -207h-629zM-39 0l311 1434h801l-69 -308h-461l-58 -256h416l-63 -297h-416l-57 -266h473l-70 -307h-807z" />
    <glyph glyph-name="emacron" unicode="&#x113;" horiz-adv-x="927" 
d="M862 432h-528v-12q0 -166 153 -166q102 0 211 74l82 -248q-160 -105 -344 -105q-196 0 -303.5 115t-107.5 326q0 154 57 316t162 267q137 134 313 134q169 0 259.5 -106.5t90.5 -293.5q0 -128 -45 -301zM465 831q-51 -51 -96 -196h231q14 60 14 108q0 119 -79 119
q-39 0 -70 -31zM311 1202l43 201h594l-43 -201h-594z" />
    <glyph glyph-name="Ebreve" unicode="&#x114;" horiz-adv-x="944" 
d="M688 1499q-132 0 -201 63.5t-51 186.5h180q6 -76 103 -76q88 0 125 76h194q-37 -126 -127.5 -188t-222.5 -62zM-39 0l311 1434h801l-69 -308h-461l-58 -256h416l-63 -297h-416l-57 -266h473l-70 -307h-807z" />
    <glyph glyph-name="ebreve" unicode="&#x115;" horiz-adv-x="927" 
d="M862 432h-528v-12q0 -166 153 -166q102 0 211 74l82 -248q-160 -105 -344 -105q-196 0 -303.5 115t-107.5 326q0 154 57 316t162 267q137 134 313 134q169 0 259.5 -106.5t90.5 -293.5q0 -128 -45 -301zM465 831q-51 -51 -96 -196h231q14 60 14 108q0 119 -79 119
q-39 0 -70 -31zM621 1186q-135 0 -206.5 70.5t-64.5 203.5h185q2 -44 27 -70t73 -26q96 0 137 96h189q-35 -132 -125 -203t-215 -71z" />
    <glyph glyph-name="Edotaccent" unicode="&#x116;" horiz-adv-x="944" 
d="M547 1507l55 244h281l-54 -244h-282zM-39 0l311 1434h801l-69 -308h-461l-58 -256h416l-63 -297h-416l-57 -266h473l-70 -307h-807z" />
    <glyph glyph-name="edotaccent" unicode="&#x117;" horiz-adv-x="927" 
d="M862 432h-528v-12q0 -166 153 -166q102 0 211 74l82 -248q-160 -105 -344 -105q-196 0 -303.5 115t-107.5 326q0 154 57 316t162 267q137 134 313 134q169 0 259.5 -106.5t90.5 -293.5q0 -128 -45 -301zM465 831q-51 -51 -96 -196h231q14 60 14 108q0 119 -79 119
q-39 0 -70 -31zM469 1194l55 256h279l-55 -256h-279z" />
    <glyph glyph-name="Eogonek" unicode="&#x118;" horiz-adv-x="944" 
d="M-39 0l311 1434h801l-69 -308h-461l-58 -256h416l-63 -297h-416l-57 -266h473l-70 -307h-61q-64 -64 -64 -100q0 -23 23 -33t79 -12l-34 -162q-55 -8 -121 -8q-106 0 -162.5 33t-56.5 96q0 93 118 186h-528z" />
    <glyph glyph-name="eogonek" unicode="&#x119;" horiz-adv-x="927" 
d="M698 328l82 -248q-115 -75 -143 -103q-43 -43 -43 -75q0 -25 23 -35t79 -12l-34 -162q-55 -8 -121 -8q-217 0 -217 129q0 81 90 161q-186 8 -287.5 122.5t-101.5 318.5q0 154 57 316t162 267q137 134 313 134q169 0 259.5 -106.5t90.5 -293.5q0 -128 -45 -301h-528v-12
q0 -166 153 -166q102 0 211 74zM465 831q-51 -51 -96 -196h231q14 60 14 108q0 119 -79 119q-39 0 -70 -31z" />
    <glyph glyph-name="Ecaron" unicode="&#x11a;" horiz-adv-x="944" 
d="M1065 1757l-240 -252h-272l-131 252h205l90 -90l129 90h219zM-39 0l311 1434h801l-69 -308h-461l-58 -256h416l-63 -297h-416l-57 -266h473l-70 -307h-807z" />
    <glyph glyph-name="ecaron" unicode="&#x11b;" horiz-adv-x="927" 
d="M469 1192l-131 287h190l97 -111l143 111h207l-258 -287h-248zM862 432h-528v-12q0 -166 153 -166q102 0 211 74l82 -248q-160 -105 -344 -105q-196 0 -303.5 115t-107.5 326q0 154 57 316t162 267q137 134 313 134q169 0 259.5 -106.5t90.5 -293.5q0 -128 -45 -301z
M465 831q-51 -51 -96 -196h231q14 60 14 108q0 119 -79 119q-39 0 -70 -31z" />
    <glyph glyph-name="Gbreve" unicode="&#x11e;" horiz-adv-x="1116" 
d="M805 1513q-132 0 -201 63.5t-51 186.5h180q6 -75 103 -75q88 0 125 75h194q-37 -126 -127.5 -188t-222.5 -62zM573 -23q-231 0 -369 147.5t-138 407.5q0 119 27 248t91.5 266t155.5 228q180 180 428 180q251 0 412 -174l-215 -254q-85 111 -207 111q-91 0 -170 -72
q-90 -90 -135 -243t-45 -275q0 -268 194 -268q44 0 76 14l57 268h-166l60 279h479l-168 -768q-195 -95 -367 -95z" />
    <glyph glyph-name="gbreve" unicode="&#x11f;" horiz-adv-x="1009" 
d="M330 -293q-236 0 -406 80l96 260q153 -78 291 -78q98 0 154 56q46 46 67 145l17 63q-65 -75 -124.5 -112t-133.5 -37q-120 0 -185 87t-65 253q0 157 57 339t150 275q92 92 213 92q160 0 244 -157l28 135h328l-205 -954q-51 -220 -154 -320q-124 -127 -372 -127zM459 356
q43 0 73 35q44 44 73.5 143.5t29.5 178.5q0 135 -88 135q-39 0 -74 -35q-44 -44 -73 -143.5t-29 -180.5q0 -133 88 -133zM664 1186q-135 0 -206.5 70.5t-64.5 203.5h185q2 -44 27 -70t73 -26q96 0 137 96h189q-35 -132 -125 -203t-215 -71z" />
    <glyph glyph-name="Gdotaccent" unicode="&#x120;" horiz-adv-x="1116" 
d="M664 1522l55 243h280l-53 -243h-282zM573 -23q-231 0 -369 147.5t-138 407.5q0 119 27 248t91.5 266t155.5 228q180 180 428 180q251 0 412 -174l-215 -254q-85 111 -207 111q-91 0 -170 -72q-90 -90 -135 -243t-45 -275q0 -268 194 -268q44 0 76 14l57 268h-166l60 279
h479l-168 -768q-195 -95 -367 -95z" />
    <glyph glyph-name="gdotaccent" unicode="&#x121;" horiz-adv-x="1009" 
d="M330 -293q-236 0 -406 80l96 260q153 -78 291 -78q98 0 154 56q46 46 67 145l17 63q-65 -75 -124.5 -112t-133.5 -37q-120 0 -185 87t-65 253q0 157 57 339t150 275q92 92 213 92q160 0 244 -157l28 135h328l-205 -954q-51 -220 -154 -320q-124 -127 -372 -127zM459 356
q43 0 73 35q44 44 73.5 143.5t29.5 178.5q0 135 -88 135q-39 0 -74 -35q-44 -44 -73 -143.5t-29 -180.5q0 -133 88 -133zM510 1194l55 256h279l-56 -256h-278z" />
    <glyph glyph-name="Gcommaaccent" unicode="&#x122;" horiz-adv-x="1116" 
d="M264 -520l4 94q76 10 112.5 36.5t47.5 74.5h-123l51 223h269l-43 -191q-28 -120 -108.5 -175.5t-209.5 -61.5zM573 -23q-231 0 -369 147.5t-138 407.5q0 119 27 248t91.5 266t155.5 228q180 180 428 180q251 0 412 -174l-215 -254q-85 111 -207 111q-91 0 -170 -72
q-90 -90 -135 -243t-45 -275q0 -268 194 -268q44 0 76 14l57 268h-166l60 279h479l-168 -768q-195 -95 -367 -95z" />
    <glyph glyph-name="gcommaaccent" unicode="&#x123;" horiz-adv-x="1009" 
d="M877 1622l-5 -94q-76 -10 -112 -36t-47 -75h123l-52 -223h-268l43 190q28 120 108.5 176t209.5 62zM330 -293q-236 0 -406 80l96 260q153 -78 291 -78q98 0 154 56q46 46 67 145l17 63q-65 -75 -124.5 -112t-133.5 -37q-120 0 -185 87t-65 253q0 157 57 339t150 275
q92 92 213 92q160 0 244 -157l28 135h328l-205 -954q-51 -220 -154 -320q-124 -127 -372 -127zM459 356q43 0 73 35q44 44 73.5 143.5t29.5 178.5q0 135 -88 135q-39 0 -74 -35q-44 -44 -73 -143.5t-29 -180.5q0 -133 88 -133z" />
    <glyph glyph-name="Hbar" unicode="&#x126;" horiz-adv-x="1171" 
d="M123 1051l49 235h88l33 148h338l-35 -154h295l35 154h336l-33 -148h88l-49 -235h-90l-228 -1051h-338l123 565h-293l-123 -565h-337l227 1051h-86zM508 874h295l39 183h-295z" />
    <glyph glyph-name="hbar" unicode="&#x127;" horiz-adv-x="976" 
d="M129 1188l43 194h78l18 86h328l-18 -86h202l-43 -190h-200l-45 -209q116 147 258 147q108 0 167.5 -64t59.5 -171q0 -60 -19 -141l-161 -754h-330l147 680q13 57 13 82q0 76 -74 76q-47 0 -78 -33t-43 -94l-153 -711h-330l258 1188h-78z" />
    <glyph glyph-name="Imacron" unicode="&#x12a;" horiz-adv-x="509" 
d="M-35 0l314 1434h335l-311 -1434h-338zM152 1513l47 207h626l-45 -207h-628z" />
    <glyph glyph-name="imacron" unicode="&#x12b;" horiz-adv-x="479" 
d="M-45 0l242 1108h327l-239 -1108h-330zM82 1192l43 201h594l-43 -201h-594z" />
    <glyph glyph-name="Ibreve" unicode="&#x12c;" horiz-adv-x="509" 
d="M-35 0l314 1434h335l-311 -1434h-338zM465 1499q-132 0 -201 63.5t-51 186.5h180q6 -76 103 -76q88 0 125 76h194q-37 -126 -127.5 -188t-222.5 -62z" />
    <glyph glyph-name="ibreve" unicode="&#x12d;" horiz-adv-x="479" 
d="M-45 0l242 1108h327l-239 -1108h-330zM393 1176q-135 0 -206 70.5t-64 203.5h184q2 -44 27.5 -70t73.5 -26q96 0 137 96h188q-35 -132 -125 -203t-215 -71z" />
    <glyph glyph-name="Iogonek" unicode="&#x12e;" horiz-adv-x="509" 
d="M-35 0l314 1434h335l-311 -1434h-51q-64 -64 -64 -100q0 -23 23.5 -33t79.5 -12l-35 -162q-55 -8 -121 -8q-106 0 -162.5 33t-56.5 96q0 87 119 186h-70z" />
    <glyph glyph-name="iogonek" unicode="&#x12f;" horiz-adv-x="479" 
d="M-45 0l240 1108h329l-239 -1108h-47q-64 -64 -64 -100q0 -23 23 -33t79 -12l-34 -162q-55 -8 -121 -8q-106 0 -162.5 33t-56.5 96q0 88 118 186h-65zM211 1198l59 270h336l-59 -270h-336z" />
    <glyph glyph-name="Idotaccent" unicode="&#x130;" horiz-adv-x="509" 
d="M-35 0l314 1434h335l-311 -1434h-338zM324 1507l55 244h280l-53 -244h-282z" />
    <glyph glyph-name="dotlessi" unicode="&#x131;" horiz-adv-x="479" 
d="M-45 0l242 1108h327l-239 -1108h-330z" />
    <glyph glyph-name="Kcommaaccent" unicode="&#x136;" horiz-adv-x="1081" 
d="M205 -506l4 94q76 10 112.5 36.5t47.5 74.5h-123l51 223h268l-43 -190q-28 -120 -108 -176t-209 -62zM-39 0l311 1434h336l-119 -549l385 549h388l-463 -635l159 -799h-356l-90 526l-137 -172l-76 -354h-338z" />
    <glyph glyph-name="kcommaaccent" unicode="&#x137;" horiz-adv-x="935" 
d="M113 -506l4 94q76 10 112 36t47 75h-122l51 223h268l-43 -190q-28 -120 -108 -176t-209 -62zM-51 0l319 1468h328l-154 -710l254 350h369l-356 -467l112 -641h-342l-51 401l-88 -110l-61 -291h-330z" />
    <glyph glyph-name="Lacute" unicode="&#x139;" horiz-adv-x="864" 
d="M352 1505l232 273l303 -97l-285 -176h-250zM-39 0l311 1434h338l-243 -1123h411l-67 -311h-750z" />
    <glyph glyph-name="lacute" unicode="&#x13a;" horiz-adv-x="479" 
d="M332 1532l231 272l303 -96l-284 -176h-250zM-45 0l319 1468h328l-319 -1468h-328z" />
    <glyph glyph-name="Lcommaaccent" unicode="&#x13b;" horiz-adv-x="864" 
d="M90 -508l4 94q76 10 112.5 36.5t47.5 74.5h-123l51 223h269l-43 -190q-28 -120 -108.5 -176t-209.5 -62zM-39 0l311 1434h338l-243 -1123h411l-67 -311h-750z" />
    <glyph glyph-name="lcommaaccent" unicode="&#x13c;" horiz-adv-x="479" 
d="M-123 -508l4 94q76 10 112.5 36.5t47.5 74.5h-123l51 223h269l-43 -190q-28 -120 -108.5 -176t-209.5 -62zM-45 0l319 1468h328l-319 -1468h-328z" />
    <glyph glyph-name="Lcaron" unicode="&#x13d;" horiz-adv-x="864" 
d="M598 1092l90 346h213v-4l-174 -342h-129zM-39 0l311 1434h338l-243 -1123h411l-67 -311h-750z" />
    <glyph glyph-name="lcaron" unicode="&#x13e;" horiz-adv-x="479" 
d="M600 1169l90 347h213v-5l-174 -342h-129zM-45 0l319 1468h328l-319 -1468h-328z" />
    <glyph glyph-name="Ldot" unicode="&#x13f;" horiz-adv-x="864" 
d="M580 641l63 293h260l-65 -293h-258zM-39 0l311 1434h338l-243 -1123h411l-67 -311h-750z" />
    <glyph glyph-name="ldot" unicode="&#x140;" horiz-adv-x="706" 
d="M487 598l64 291h233l-61 -291h-236zM-45 0l319 1468h328l-319 -1468h-328z" />
    <glyph glyph-name="Lslash" unicode="&#x141;" horiz-adv-x="915" 
d="M10 457l72 323l104 35l136 619h337l-108 -496l252 84l-72 -320l-250 -86l-65 -305h411l-67 -311h-750l107 494z" />
    <glyph glyph-name="lslash" unicode="&#x142;" horiz-adv-x="600" 
d="M8 475l68 309l119 45l139 639h328l-111 -503l127 49l-68 -312l-127 -47l-141 -655h-328l113 520z" />
    <glyph glyph-name="Nacute" unicode="&#x143;" horiz-adv-x="1159" 
d="M653 1505l232 273l303 -97l-285 -176h-250zM-39 0l311 1434h316l198 -713l156 713h328l-312 -1434h-303l-204 741l-162 -741h-328z" />
    <glyph glyph-name="nacute" unicode="&#x144;" horiz-adv-x="976" 
d="M498 1192l243 315l277 -100l-295 -215h-225zM-51 0l241 1108h328l-26 -125q116 147 258 147q108 0 167.5 -64t59.5 -171q0 -60 -19 -141l-161 -754h-330l147 680q13 57 13 82q0 76 -74 76q-47 0 -78 -33t-43 -94l-153 -711h-330z" />
    <glyph glyph-name="Ncommaaccent" unicode="&#x145;" horiz-adv-x="1159" 
d="M213 -506l4 94q76 10 112.5 36.5t47.5 74.5h-123l51 223h268l-43 -190q-28 -120 -108 -176t-209 -62zM-39 0l311 1434h316l198 -713l156 713h328l-312 -1434h-303l-204 741l-162 -741h-328z" />
    <glyph glyph-name="ncommaaccent" unicode="&#x146;" horiz-adv-x="976" 
d="M123 -506l4 94q76 10 112.5 36.5t47.5 74.5h-123l51 223h268l-43 -190q-28 -120 -108 -176t-209 -62zM-51 0l241 1108h328l-26 -125q116 147 258 147q108 0 167.5 -64t59.5 -171q0 -60 -19 -141l-161 -754h-330l147 680q13 57 13 82q0 76 -74 76q-47 0 -78 -33t-43 -94
l-153 -711h-330z" />
    <glyph glyph-name="Ncaron" unicode="&#x147;" horiz-adv-x="1159" 
d="M1163 1757l-239 -252h-273l-131 252h205l90 -90l129 90h219zM-39 0l311 1434h316l198 -713l156 713h328l-312 -1434h-303l-204 741l-162 -741h-328z" />
    <glyph glyph-name="ncaron" unicode="&#x148;" horiz-adv-x="976" 
d="M487 1192l-131 287h191l96 -111l143 111h207l-258 -287h-248zM-51 0l241 1108h328l-26 -125q116 147 258 147q108 0 167.5 -64t59.5 -171q0 -60 -19 -141l-161 -754h-330l147 680q13 57 13 82q0 76 -74 76q-47 0 -78 -33t-43 -94l-153 -711h-330z" />
    <glyph glyph-name="Omacron" unicode="&#x14c;" horiz-adv-x="1175" 
d="M473 1528l47 207h627l-45 -207h-629zM721 1460q222 0 342.5 -141.5t120.5 -398.5q0 -198 -74 -425t-207 -360q-162 -162 -377 -162q-221 0 -342 144t-121 399q0 198 74 424.5t207 359.5q160 160 377 160zM547 281q64 0 115 51q86 86 135 268t49 320q0 125 -37 180
t-109 55q-61 0 -114 -53q-85 -85 -135 -267t-50 -321q0 -124 37 -178.5t109 -54.5z" />
    <glyph glyph-name="omacron" unicode="&#x14d;" horiz-adv-x="976" 
d="M336 1202l43 201h594l-43 -201h-594zM422 -27q-189 0 -291 117.5t-102 317.5q0 159 53.5 324t153.5 265q133 136 319 136q189 0 292 -117.5t103 -317.5q0 -159 -53.5 -324t-153.5 -265q-136 -136 -321 -136zM438 256q41 0 76 35q53 53 88 177.5t35 225.5q0 158 -96 158
q-41 0 -78 -37q-52 -52 -86.5 -176.5t-34.5 -224.5q0 -158 96 -158z" />
    <glyph glyph-name="Obreve" unicode="&#x14e;" horiz-adv-x="1175" 
d="M788 1513q-132 0 -200.5 63t-50.5 187h180q6 -75 102 -75q88 0 125 75h195q-37 -126 -127.5 -188t-223.5 -62zM721 1460q222 0 342.5 -141.5t120.5 -398.5q0 -198 -74 -425t-207 -360q-162 -162 -377 -162q-221 0 -342 144t-121 399q0 198 74 424.5t207 359.5
q160 160 377 160zM547 281q64 0 115 51q86 86 135 268t49 320q0 125 -37 180t-109 55q-61 0 -114 -53q-85 -85 -135 -267t-50 -321q0 -124 37 -178.5t109 -54.5z" />
    <glyph glyph-name="obreve" unicode="&#x14f;" horiz-adv-x="976" 
d="M422 -27q-189 0 -291 117.5t-102 317.5q0 159 53.5 324t153.5 265q133 136 319 136q189 0 292 -117.5t103 -317.5q0 -159 -53.5 -324t-153.5 -265q-136 -136 -321 -136zM438 256q41 0 76 35q53 53 88 177.5t35 225.5q0 158 -96 158q-41 0 -78 -37q-52 -52 -86.5 -176.5
t-34.5 -224.5q0 -158 96 -158zM645 1186q-135 0 -206 70.5t-64 203.5h184q2 -44 27 -70t73 -26q97 0 138 96h188q-35 -132 -125 -203t-215 -71z" />
    <glyph glyph-name="Ohungarumlaut" unicode="&#x150;" horiz-adv-x="1175" 
d="M721 1460q222 0 342.5 -141.5t120.5 -398.5q0 -198 -74 -425t-207 -360q-162 -162 -377 -162q-221 0 -342 144t-121 399q0 198 74 424.5t207 359.5q160 160 377 160zM547 281q64 0 115 51q86 86 135 268t49 320q0 125 -37 180t-109 55q-61 0 -114 -53q-85 -85 -135 -267
t-50 -321q0 -124 37 -178.5t109 -54.5zM801 1520l125 149l-226 -149h-225l230 272l249 -88l74 88l268 -92l-272 -180h-223z" />
    <glyph glyph-name="ohungarumlaut" unicode="&#x151;" horiz-adv-x="976" 
d="M637 1192l145 194l-250 -194h-200l239 315l232 -92l69 92l244 -96l-280 -219h-199zM422 -27q-189 0 -291 117.5t-102 317.5q0 159 53.5 324t153.5 265q133 136 319 136q189 0 292 -117.5t103 -317.5q0 -159 -53.5 -324t-153.5 -265q-136 -136 -321 -136zM438 256
q41 0 76 35q53 53 88 177.5t35 225.5q0 158 -96 158q-41 0 -78 -37q-52 -52 -86.5 -176.5t-34.5 -224.5q0 -158 96 -158z" />
    <glyph glyph-name="OE" unicode="&#x152;" horiz-adv-x="1554" 
d="M1380 0h-733q-297 0 -444 147q-133 133 -133 383q0 184 64 385t185 322q197 197 545 197h819l-67 -308h-449l-55 -256h399l-61 -297h-403l-58 -266h461zM473 360q55 -55 156 -55h28l177 823h-35q-138 0 -230 -92q-70 -70 -113.5 -212t-43.5 -269q0 -134 61 -195z" />
    <glyph glyph-name="oe" unicode="&#x153;" horiz-adv-x="1505" 
d="M416 -27q-186 0 -286.5 117.5t-100.5 317.5q0 97 19 199.5t67.5 212t120.5 177.5q133 136 317 136q191 0 291 -152q60 73 138.5 112.5t164.5 39.5q160 0 249 -107t89 -293q0 -128 -45 -301h-529v-12q0 -166 154 -166q102 0 211 74l82 -248q-160 -105 -336 -105
q-215 0 -305 148q-118 -150 -301 -150zM438 256q46 0 76 35q54 50 88.5 175t34.5 228q0 158 -96 158q-43 0 -78 -35q-52 -52 -86.5 -177.5t-34.5 -225.5q0 -158 96 -158zM1042 831q-51 -51 -96 -196h232q14 60 14 108q0 119 -80 119q-39 0 -70 -31z" />
    <glyph glyph-name="Racute" unicode="&#x154;" horiz-adv-x="1073" 
d="M580 0l-105 457h-80l-98 -457h-336l311 1434h328q286 0 414 -125q104 -104 104 -283q0 -238 -147 -385q-68 -68 -168 -111l133 -530h-356zM457 731h69q113 0 179 66q33 30 51 84t18 106q0 72 -37 109q-41 41 -127 41h-65zM567 1505l232 273l303 -97l-285 -176h-250z" />
    <glyph glyph-name="racute" unicode="&#x155;" horiz-adv-x="655" 
d="M342 1182l244 315l276 -100l-295 -215h-225zM-51 0l241 1108h328l-39 -180q57 103 122.5 152t152.5 42l-82 -374h-15q-111 0 -179 -68.5t-99 -210.5l-100 -469h-330z" />
    <glyph glyph-name="Rcommaaccent" unicode="&#x156;" horiz-adv-x="1073" 
d="M182 -506l4 94q76 10 112.5 36.5t47.5 74.5h-123l51 223h269l-43 -190q-28 -120 -108.5 -176t-209.5 -62zM580 0l-105 457h-80l-98 -457h-336l311 1434h328q286 0 414 -125q104 -104 104 -283q0 -238 -147 -385q-68 -68 -168 -111l133 -530h-356zM457 731h69
q113 0 179 66q33 30 51 84t18 106q0 72 -37 109q-41 41 -127 41h-65z" />
    <glyph glyph-name="rcommaaccent" unicode="&#x157;" horiz-adv-x="655" 
d="M-113 -508l4 94q76 10 112.5 36.5t47.5 74.5h-123l52 223h268l-43 -190q-28 -120 -108.5 -176t-209.5 -62zM-51 0l241 1108h328l-39 -180q57 103 122.5 152t152.5 42l-82 -374h-15q-111 0 -179 -68.5t-99 -210.5l-100 -469h-330z" />
    <glyph glyph-name="Rcaron" unicode="&#x158;" horiz-adv-x="1073" 
d="M1081 1757l-239 -252h-273l-131 252h205l90 -90l129 90h219zM580 0l-105 457h-80l-98 -457h-336l311 1434h328q286 0 414 -125q104 -104 104 -283q0 -238 -147 -385q-68 -68 -168 -111l133 -530h-356zM457 731h69q113 0 179 66q33 30 51 84t18 106q0 72 -37 109
q-41 41 -127 41h-65z" />
    <glyph glyph-name="rcaron" unicode="&#x159;" horiz-adv-x="655" 
d="M330 1182l-131 286h190l96 -110l144 110h207l-258 -286h-248zM-51 0l241 1108h328l-39 -180q57 103 122.5 152t152.5 42l-82 -374h-15q-111 0 -179 -68.5t-99 -210.5l-100 -469h-330z" />
    <glyph glyph-name="Sacute" unicode="&#x15a;" horiz-adv-x="935" 
d="M408 -20q-266 0 -469 217l180 258q149 -168 293 -168q56 0 91.5 31.5t35.5 82.5q0 39 -32 79.5t-116 109.5q-62 49 -104.5 90t-78 90t-52.5 104t-17 119q0 199 129 328q133 133 338 133q248 0 428 -192l-194 -244q-115 131 -240 131q-56 0 -88.5 -31.5t-32.5 -79.5
q0 -39 33 -80.5t125 -111.5q124 -100 184 -190.5t60 -209.5q0 -202 -133 -335q-131 -131 -340 -131zM524 1520l232 272l303 -96l-285 -176h-250z" />
    <glyph glyph-name="sacute" unicode="&#x15b;" horiz-adv-x="774" 
d="M391 1192l244 315l276 -100l-295 -215h-225zM326 -25q-225 0 -400 175l154 233q136 -139 242 -139q35 0 56 19t21 50q0 28 -21.5 53.5t-84.5 77.5q-109 86 -158 157t-49 169q0 153 102.5 256.5t274.5 103.5q203 0 368 -145l-151 -235q-117 114 -213 114q-33 0 -52.5 -17
t-19.5 -46q0 -28 18 -47.5t93 -81.5q110 -92 156.5 -162.5t46.5 -163.5q0 -99 -44.5 -182.5t-133 -136t-205.5 -52.5z" />
    <glyph glyph-name="Scedilla" unicode="&#x15e;" horiz-adv-x="935" 
d="M297 -295l-266 92l194 209q-154 52 -286 191l180 258q149 -168 293 -168q56 0 91.5 31.5t35.5 82.5q0 39 -32 79.5t-116 109.5q-62 49 -104.5 90t-78 90t-52.5 104t-17 119q0 199 129 328q133 133 338 133q248 0 428 -192l-194 -244q-115 131 -240 131q-56 0 -88.5 -31.5
t-32.5 -79.5q0 -39 33 -80.5t125 -111.5q124 -100 184 -190.5t60 -209.5q0 -202 -133 -335q-121 -121 -306 -129z" />
    <glyph glyph-name="scedilla" unicode="&#x15f;" horiz-adv-x="774" 
d="M225 -295l-266 92l193 207q-121 41 -226 146l154 233q136 -139 242 -139q35 0 56 19t21 50q0 28 -21.5 53.5t-84.5 77.5q-109 86 -158 157t-49 169q0 153 102.5 256.5t274.5 103.5q203 0 368 -145l-151 -235q-117 114 -213 114q-33 0 -52.5 -17t-19.5 -46q0 -28 18 -47.5
t93 -81.5q110 -92 156.5 -162.5t46.5 -163.5q0 -142 -92 -247t-248 -122z" />
    <glyph glyph-name="Scaron" unicode="&#x160;" horiz-adv-x="935" 
d="M408 -20q-266 0 -469 217l180 258q149 -168 293 -168q56 0 91.5 31.5t35.5 82.5q0 39 -32 79.5t-116 109.5q-62 49 -104.5 90t-78 90t-52.5 104t-17 119q0 199 129 328q133 133 338 133q248 0 428 -192l-194 -244q-115 131 -240 131q-56 0 -88.5 -31.5t-32.5 -79.5
q0 -39 33 -80.5t125 -111.5q124 -100 184 -190.5t60 -209.5q0 -202 -133 -335q-131 -131 -340 -131zM1038 1772l-239 -252h-273l-131 252h205l90 -91l129 91h219z" />
    <glyph glyph-name="scaron" unicode="&#x161;" horiz-adv-x="774" 
d="M381 1192l-131 287h190l97 -111l143 111h207l-258 -287h-248zM326 -25q-225 0 -400 175l154 233q136 -139 242 -139q35 0 56 19t21 50q0 28 -21.5 53.5t-84.5 77.5q-109 86 -158 157t-49 169q0 153 102.5 256.5t274.5 103.5q203 0 368 -145l-151 -235q-117 114 -213 114
q-33 0 -52.5 -17t-19.5 -46q0 -28 18 -47.5t93 -81.5q110 -92 156.5 -162.5t46.5 -163.5q0 -99 -44.5 -182.5t-133 -136t-205.5 -52.5z" />
    <glyph glyph-name="Tcommaaccent" unicode="&#x162;" horiz-adv-x="942" 
d="M102 -508l4 94q76 10 112.5 36.5t47.5 74.5h-123l52 223h268l-43 -190q-28 -120 -108.5 -176t-209.5 -62zM176 0l244 1122h-270l69 312h877l-70 -312h-270l-242 -1122h-338z" />
    <glyph glyph-name="Tcommaaccent" unicode="&#x21a;" horiz-adv-x="942" 
d="M102 -508l4 94q76 10 112.5 36.5t47.5 74.5h-123l52 223h268l-43 -190q-28 -120 -108.5 -176t-209.5 -62zM176 0l244 1122h-270l69 312h877l-70 -312h-270l-242 -1122h-338z" />
    <glyph glyph-name="tcommaaccent" unicode="&#x163;" horiz-adv-x="647" 
d="M2 -516l4 94q76 10 112.5 36.5t47.5 74.5h-123l51 223h268l-43 -191q-28 -120 -108 -175.5t-209 -61.5zM305 -20q-122 0 -191 54.5t-69 160.5q0 62 16 120l115 529h-86l57 264h86l60 274h325l-59 -274h170l-57 -264h-170l-99 -451q-12 -50 -12 -80q0 -51 66 -51
q45 0 92 17l-60 -267q-77 -32 -184 -32z" />
    <glyph glyph-name="tcommaaccent" unicode="&#x21b;" horiz-adv-x="647" 
d="M2 -516l4 94q76 10 112.5 36.5t47.5 74.5h-123l51 223h268l-43 -191q-28 -120 -108 -175.5t-209 -61.5zM305 -20q-122 0 -191 54.5t-69 160.5q0 62 16 120l115 529h-86l57 264h86l60 274h325l-59 -274h170l-57 -264h-170l-99 -451q-12 -50 -12 -80q0 -51 66 -51
q45 0 92 17l-60 -267q-77 -32 -184 -32z" />
    <glyph glyph-name="Tcaron" unicode="&#x164;" horiz-adv-x="942" 
d="M1053 1757l-240 -252h-272l-131 252h204l91 -90l129 90h219zM176 0l244 1122h-270l69 312h877l-70 -312h-270l-242 -1122h-338z" />
    <glyph glyph-name="tcaron" unicode="&#x165;" horiz-adv-x="647" 
d="M631 1169l90 347h213v-5l-174 -342h-129zM305 -20q-122 0 -191 54.5t-69 160.5q0 62 16 120l115 529h-86l57 264h86l60 274h325l-59 -274h170l-57 -264h-170l-99 -451q-12 -50 -12 -80q0 -51 66 -51q45 0 92 17l-60 -267q-77 -32 -184 -32z" />
    <glyph glyph-name="Umacron" unicode="&#x16a;" horiz-adv-x="1118" 
d="M451 1513l47 207h626l-45 -207h-628zM481 -23q-204 0 -318 101.5t-114 281.5q0 86 23 189l192 885h336l-197 -904q-16 -75 -16 -120q0 -60 33.5 -92.5t93.5 -32.5q66 0 109 43q45 45 71 153l207 953h336l-209 -965q-53 -235 -172 -354q-138 -138 -375 -138z" />
    <glyph glyph-name="umacron" unicode="&#x16b;" horiz-adv-x="976" 
d="M231 -23q-109 0 -168 65t-59 173q0 57 16 139l164 754h328l-147 -680q-13 -76 -13 -80q0 -78 76 -78q44 0 75.5 33.5t45.5 93.5l153 711h328l-239 -1108h-328l26 127q-124 -150 -258 -150zM326 1192l43 201h594l-43 -201h-594z" />
    <glyph glyph-name="Ubreve" unicode="&#x16c;" horiz-adv-x="1118" 
d="M764 1493q-132 0 -201 63.5t-51 186.5h180q6 -76 103 -76q88 0 125 76h194q-37 -126 -127.5 -188t-222.5 -62zM481 -23q-204 0 -318 101.5t-114 281.5q0 86 23 189l192 885h336l-197 -904q-16 -75 -16 -120q0 -60 33.5 -92.5t93.5 -32.5q66 0 109 43q45 45 71 153
l207 953h336l-209 -965q-53 -235 -172 -354q-138 -138 -375 -138z" />
    <glyph glyph-name="ubreve" unicode="&#x16d;" horiz-adv-x="976" 
d="M231 -23q-109 0 -168 65t-59 173q0 57 16 139l164 754h328l-147 -680q-13 -76 -13 -80q0 -78 76 -78q44 0 75.5 33.5t45.5 93.5l153 711h328l-239 -1108h-328l26 127q-124 -150 -258 -150zM637 1176q-135 0 -206 70.5t-64 203.5h184q2 -44 27 -70t73 -26q96 0 137 96h189
q-35 -132 -125 -203t-215 -71z" />
    <glyph glyph-name="Uring" unicode="&#x16e;" horiz-adv-x="1118" 
d="M481 -23q-204 0 -318 101.5t-114 281.5q0 86 23 189l192 885h336l-197 -904q-16 -75 -16 -120q0 -60 33.5 -92.5t93.5 -32.5q66 0 109 43q45 45 71 153l207 953h336l-209 -965q-53 -235 -172 -354q-138 -138 -375 -138zM821 1901q92 0 150.5 -52.5t58.5 -132.5
q0 -99 -73 -167t-181 -68q-90 0 -149.5 53t-59.5 131q0 100 71.5 168t182.5 68zM786 1585q54 0 88.5 35t34.5 84q0 42 -26.5 67t-73.5 25q-53 0 -88 -35.5t-35 -81.5q0 -42 27 -68t73 -26z" />
    <glyph glyph-name="uring" unicode="&#x16f;" horiz-adv-x="976" 
d="M883 1409q0 -96 -69 -170t-171 -74q-87 0 -142 52.5t-55 136.5q0 96 68.5 168.5t171.5 72.5q86 0 141.5 -52t55.5 -134zM563 1362q0 -39 23 -64.5t63 -25.5q49 0 82 37.5t33 91.5q0 39 -23 64.5t-63 25.5q-47 0 -81 -37.5t-34 -91.5zM231 -23q-109 0 -168 65t-59 173
q0 57 16 139l164 754h328l-147 -680q-13 -76 -13 -80q0 -78 76 -78q44 0 75.5 33.5t45.5 93.5l153 711h328l-239 -1108h-328l26 127q-124 -150 -258 -150z" />
    <glyph glyph-name="Uhungarumlaut" unicode="&#x170;" horiz-adv-x="1118" 
d="M481 -23q-204 0 -318 101.5t-114 281.5q0 86 23 189l192 885h336l-197 -904q-16 -75 -16 -120q0 -60 33.5 -92.5t93.5 -32.5q66 0 109 43q45 45 71 153l207 953h336l-209 -965q-53 -235 -172 -354q-138 -138 -375 -138zM774 1505l125 150l-225 -150h-225l229 273l250 -88
l73 88l269 -92l-273 -181h-223z" />
    <glyph glyph-name="uhungarumlaut" unicode="&#x171;" horiz-adv-x="976" 
d="M231 -23q-109 0 -168 65t-59 173q0 57 16 139l164 754h328l-147 -680q-13 -76 -13 -80q0 -78 76 -78q44 0 75.5 33.5t45.5 93.5l153 711h328l-239 -1108h-328l26 127q-124 -150 -258 -150zM629 1182l145 194l-250 -194h-200l239 315l232 -92l69 92l244 -96l-281 -219
h-198z" />
    <glyph glyph-name="Uogonek" unicode="&#x172;" horiz-adv-x="1118" 
d="M592 -145l-35 -162q-55 -8 -121 -8q-106 0 -162.5 33t-56.5 96q0 84 115 182q-135 32 -209 127t-74 237q0 86 23 189l192 885h336l-197 -904q-16 -75 -16 -120q0 -60 33.5 -92.5t93.5 -32.5q66 0 109 43q45 45 71 153l207 953h336l-209 -965q-53 -235 -172 -354
q-120 -120 -321 -135q-46 -49 -46 -80q0 -23 23.5 -33t79.5 -12z" />
    <glyph glyph-name="uogonek" unicode="&#x173;" horiz-adv-x="976" 
d="M231 -23q-109 0 -168 65t-59 173q0 57 16 139l164 754h328l-147 -680q-13 -76 -13 -80q0 -78 76 -78q44 0 75.5 33.5t45.5 93.5l153 711h328l-239 -1108h-50q-63 -63 -63 -100q0 -23 23 -33t79 -12l-35 -162q-55 -8 -120 -8q-106 0 -162.5 33t-56.5 96q0 93 118 186h-61
l26 127q-124 -150 -258 -150z" />
    <glyph glyph-name="Wcircumflex" unicode="&#x174;" horiz-adv-x="1622" 
d="M190 -6l3 1440h346l-35 -830l346 832h289l-13 -832l324 830h356l-622 -1440h-332v754l-330 -754h-332zM678 1505l242 252h270l131 -252h-203l-90 90l-131 -90h-219z" />
    <glyph glyph-name="wcircumflex" unicode="&#x175;" horiz-adv-x="1335" 
d="M479 1182l256 286h248l131 -286h-188l-99 110l-141 -110h-207zM135 -6l-2 1114h322l-29 -569l229 571h260l-16 -571l221 569h322l-486 -1114h-290l-2 547l-236 -547h-293z" />
    <glyph glyph-name="Ycircumflex" unicode="&#x176;" 
d="M217 0l119 541l-166 893h346l64 -516l286 516h367l-563 -908l-115 -526h-338zM373 1505l241 252h271l131 -252h-203l-90 90l-131 -90h-219z" />
    <glyph glyph-name="ycircumflex" unicode="&#x177;" horiz-adv-x="946" 
d="M199 14l-66 1094h328l-2 -631l264 631h334l-525 -1092q-84 -174 -165 -243.5t-213 -69.5q-121 0 -224 64l90 243q53 -39 107 -39q44 0 72 43zM279 1182l256 286h247l131 -286h-188l-98 110l-142 -110h-206z" />
    <glyph glyph-name="Ydieresis" unicode="&#x178;" 
d="M217 0l119 541l-166 893h346l64 -516l286 516h367l-563 -908l-115 -526h-338zM391 1507l53 244h273l-53 -244h-273zM748 1507l53 244h272l-53 -244h-272z" />
    <glyph glyph-name="Zacute" unicode="&#x179;" horiz-adv-x="956" 
d="M-70 0l60 270l626 858h-430l66 306h848l-60 -269l-628 -860h446l-65 -305h-863zM541 1505l231 273l303 -97l-284 -176h-250z" />
    <glyph glyph-name="zacute" unicode="&#x17a;" horiz-adv-x="813" 
d="M406 1182l243 315l277 -100l-295 -215h-225zM-82 0l51 236l482 604h-345l60 268h729l-51 -234l-479 -604h354l-60 -270h-741z" />
    <glyph glyph-name="Zdotaccent" unicode="&#x17b;" horiz-adv-x="956" 
d="M535 1507l55 244h280l-53 -244h-282zM-70 0l60 270l626 858h-430l66 306h848l-60 -269l-628 -860h446l-65 -305h-863z" />
    <glyph glyph-name="zdotaccent" unicode="&#x17c;" horiz-adv-x="813" 
d="M-82 0l51 236l482 604h-345l60 268h729l-51 -234l-479 -604h354l-60 -270h-741zM395 1184l56 256h278l-55 -256h-279z" />
    <glyph glyph-name="Zcaron" unicode="&#x17d;" horiz-adv-x="956" 
d="M1055 1757l-240 -252h-272l-131 252h204l91 -90l129 90h219zM-70 0l60 270l626 858h-430l66 306h848l-60 -269l-628 -860h446l-65 -305h-863z" />
    <glyph glyph-name="zcaron" unicode="&#x17e;" horiz-adv-x="813" 
d="M393 1182l-131 286h191l96 -110l143 110h207l-258 -286h-248zM-82 0l51 236l482 604h-345l60 268h729l-51 -234l-479 -604h354l-60 -270h-741z" />
    <glyph glyph-name="uni018F" unicode="&#x18f;" horiz-adv-x="1120" 
d="M59 449q0 154 60 409h676q2 14 2 45q0 240 -195 240q-110 0 -276 -99l-97 293q213 119 410 119q228 0 355.5 -141.5t127.5 -401.5q0 -215 -73.5 -428.5t-200.5 -345.5q-161 -166 -377 -166q-199 0 -305.5 132t-106.5 344zM618 334q81 81 136 266h-361q-18 -71 -18 -156
q0 -74 28 -121t93 -47q64 0 122 58z" />
    <glyph glyph-name="Aringacute" unicode="&#x1fa;" horiz-adv-x="1124" 
d="M-125 0l682 1409q-18 37 -18 82q0 98 71.5 165.5t182.5 67.5q90 0 149 -52.5t59 -131.5q0 -86 -59 -151l72 -1389h-340l-6 260h-332l-115 -260h-346zM705 1761l221 242l299 -92l-277 -150h-243zM459 537h207l-9 446zM758 1409q54 0 88.5 35t34.5 84q0 42 -27 67t-74 25
q-54 0 -88.5 -35t-34.5 -84q0 -42 27 -67t74 -25z" />
    <glyph glyph-name="aringacute" unicode="&#x1fb;" horiz-adv-x="919" 
d="M567 1663l232 254l278 -88l-280 -166h-230zM199 -20q-101 0 -159 68.5t-58 195.5q0 101 32 196.5t90 153.5q92 92 244 92q101 0 205 -49l6 25q8 31 8 67q0 115 -147 115q-94 0 -209 -47l-35 272q167 55 328 55q188 0 290.5 -83.5t102.5 -243.5q0 -70 -20 -160l-138 -637
h-325l22 102q-109 -122 -237 -122zM365 203q45 0 80.5 36t48.5 101l22 119q-53 24 -96 24q-44 0 -78 -30q-25 -27 -39 -73t-14 -85q0 -92 76 -92zM850 1427q0 -96 -69 -169.5t-171 -73.5q-87 0 -141.5 52t-54.5 136q0 96 68.5 169t170.5 73q86 0 141.5 -52.5t55.5 -134.5z
M530 1380q0 -39 23 -64.5t63 -25.5q49 0 82 37.5t33 91.5q0 39 -23 64.5t-63 25.5q-47 0 -81 -37.5t-34 -91.5z" />
    <glyph glyph-name="AEacute" unicode="&#x1fc;" horiz-adv-x="1546" 
d="M926 1505l231 273l303 -97l-284 -176h-250zM-131 0l790 1434h1016l-69 -308h-449l-55 -256h401l-63 -297h-402l-57 -266h459l-70 -307h-790l57 260h-289l-135 -260h-344zM494 537h202l129 591h-24z" />
    <glyph glyph-name="aeacute" unicode="&#x1fd;" horiz-adv-x="1419" 
d="M696 1182l244 315l277 -100l-295 -215h-226zM244 -20q-122 0 -192 69t-70 193q0 102 32 198t90 154q92 92 244 92q101 0 205 -49l6 25q8 31 8 67q0 115 -147 115q-94 0 -209 -47l-35 272q167 55 328 55q204 0 287 -114q126 123 276 123q155 0 243.5 -107.5t88.5 -292.5
q0 -128 -45 -301h-529v-12q0 -166 154 -166q102 0 211 74l82 -248q-163 -107 -340 -107q-246 0 -348 181q-146 -174 -340 -174zM373 207q41 0 85 28t77 72q-13 87 -7 150q-51 28 -106 28q-51 0 -78 -30q-27 -27 -41 -70.5t-14 -83.5q0 -94 84 -94zM956 831q-51 -51 -96 -196
h232q14 60 14 108q0 119 -80 119q-39 0 -70 -31z" />
    <glyph glyph-name="Oslashacute" unicode="&#x1fe;" horiz-adv-x="1177" 
d="M719 1460q191 0 317 -117l80 101h199l-189 -227q58 -125 58 -285q0 -134 -28.5 -277.5t-93.5 -286.5t-155 -233q-156 -162 -379 -162q-196 0 -317 115l-78 -98h-201l189 227q-58 116 -58 287q0 134 28.5 277t93.5 286t155 233q160 160 379 160zM578 1108
q-57 -57 -103 -176t-67 -230t-21 -186l436 586q-40 61 -123 61q-67 0 -122 -55zM547 270q71 0 123 58q82 82 133 268t57 322l-436 -586q41 -62 123 -62zM655 1520l232 272l303 -96l-285 -176h-250z" />
    <glyph glyph-name="oslashacute" unicode="&#x1ff;" horiz-adv-x="976" 
d="M-102 -12l174 194q-43 93 -43 226q0 159 53.5 324t153.5 265q133 136 319 136q165 0 270 -97l68 80h184l-172 -192q45 -99 45 -226q0 -159 -53.5 -324t-153.5 -265q-136 -136 -321 -136q-167 0 -270 95l-68 -80h-186zM457 823q-52 -52 -86 -162.5t-39 -209.5l291 366
q-26 45 -82 45q-45 0 -84 -39zM436 244q47 0 86 39q51 51 82.5 157.5t40.5 210.5l-291 -362q26 -45 82 -45zM500 1192l243 315l277 -100l-295 -215h-225z" />
    <glyph glyph-name="Scommaaccent" unicode="&#x218;" horiz-adv-x="935" 
d="M113 -520l4 94q76 10 112 36t47 75h-122l51 223h268l-43 -191q-28 -120 -108 -175.5t-209 -61.5zM408 -20q-266 0 -469 217l180 258q149 -168 293 -168q56 0 91.5 31.5t35.5 82.5q0 39 -32 79.5t-116 109.5q-62 49 -104.5 90t-78 90t-52.5 104t-17 119q0 199 129 328
q133 133 338 133q248 0 428 -192l-194 -244q-115 131 -240 131q-56 0 -88.5 -31.5t-32.5 -79.5q0 -39 33 -80.5t125 -111.5q124 -100 184 -190.5t60 -209.5q0 -202 -133 -335q-131 -131 -340 -131z" />
    <glyph glyph-name="scommaaccent" unicode="&#x219;" horiz-adv-x="774" 
d="M31 -516l4 94q76 10 112.5 36.5t47.5 74.5h-123l51 223h268l-43 -191q-28 -120 -108 -175.5t-209 -61.5zM326 -25q-225 0 -400 175l154 233q136 -139 242 -139q35 0 56 19t21 50q0 28 -21.5 53.5t-84.5 77.5q-109 86 -158 157t-49 169q0 153 102.5 256.5t274.5 103.5
q203 0 368 -145l-151 -235q-117 114 -213 114q-33 0 -52.5 -17t-19.5 -46q0 -28 18 -47.5t93 -81.5q110 -92 156.5 -162.5t46.5 -163.5q0 -99 -44.5 -182.5t-133 -136t-205.5 -52.5z" />
    <glyph glyph-name="schwa" unicode="&#x259;" horiz-adv-x="927" 
d="M23 375q0 128 45 301h528v12q0 166 -154 166q-102 0 -211 -74l-81 248q160 105 344 105q196 0 303.5 -115t107.5 -326q0 -154 -57 -316t-162 -267q-137 -134 -313 -134q-169 0 -259.5 106.5t-90.5 293.5zM465 276q52 52 96 197h-231q-15 -65 -15 -108q0 -119 80 -119
q40 0 70 30z" />
    <glyph glyph-name="circumflex" unicode="&#x2c6;" 
d="M330 1182l256 286h248l131 -286h-189l-98 110l-141 -110h-207z" />
    <glyph glyph-name="caron" unicode="&#x2c7;" 
d="M522 1182l-131 286h191l96 -110l143 110h207l-258 -286h-248z" />
    <glyph glyph-name="breve" unicode="&#x2d8;" 
d="M672 1176q-135 0 -206.5 70.5t-64.5 203.5h185q2 -44 27 -70t73 -26q96 0 137 96h189q-35 -132 -125 -203t-215 -71z" />
    <glyph glyph-name="dotaccent" unicode="&#x2d9;" 
d="M510 1184l55 256h279l-56 -256h-278z" />
    <glyph glyph-name="ring" unicode="&#x2da;" 
d="M911 1419q0 -96 -68.5 -169.5t-170.5 -73.5q-87 0 -142 52t-55 136q0 96 68.5 169t171.5 73q86 0 141 -52.5t55 -134.5zM592 1372q0 -39 23 -64.5t63 -25.5q49 0 82 37.5t33 91.5q0 39 -23 64.5t-63 25.5q-47 0 -81 -37.5t-34 -91.5z" />
    <glyph glyph-name="ogonek" unicode="&#x2db;" 
d="M557 -145l-35 -162q-55 -8 -121 -8q-106 0 -162.5 33t-56.5 96q0 57 41 108t129 117l195 -10q-52 -52 -72 -79.5t-20 -49.5q0 -23 23 -33t79 -12z" />
    <glyph glyph-name="tilde" unicode="&#x2dc;" 
d="M881 1473l155 -37q-80 -256 -225 -256q-60 0 -143 39q-82 30 -103 30q-31 0 -50 -17.5t-40 -62.5l-158 37q43 134 96.5 195t131.5 61q60 0 143 -39q10 -4 31 -12t28.5 -11t19.5 -6t21 -3q30 0 49 18t44 64z" />
    <glyph glyph-name="hungarumlaut" unicode="&#x2dd;" 
d="M592 1182l145 194l-250 -194h-200l239 315l232 -92l69 92l244 -96l-280 -219h-199z" />
    <glyph glyph-name="commaaccent" unicode="&#x326;" 
d="M156 -508l4 94q76 10 112 36t47 75h-122l51 223h268l-43 -190q-28 -120 -108 -176t-209 -62z" />
    <glyph glyph-name="uni0384" unicode="&#x384;" 
d="M463 1182l174 323l268 -98l-235 -225h-207z" />
    <glyph glyph-name="uni0385" unicode="&#x385;" 
d="M823 1184l56 243h235l-53 -243h-238zM242 1184l53 243h237l-53 -243h-237zM516 1184l133 370l252 -49l-217 -321h-168z" />
    <glyph glyph-name="uni0386" unicode="&#x386;" horiz-adv-x="1124" 
d="M-125 0l700 1440h365l76 -1440h-340l-6 260h-332l-117 -260h-346zM461 537h205l-7 446zM72 1079l94 355h287l-205 -355h-176z" />
    <glyph glyph-name="uni0387" unicode="&#x387;" horiz-adv-x="501" 
d="M117 756l78 352h352l-76 -352h-354z" />
    <glyph glyph-name="uni0388" unicode="&#x388;" horiz-adv-x="944" 
d="M-147 1079l94 355h286l-204 -355h-176zM-39 0l311 1434h801l-69 -308h-461l-58 -256h416l-63 -297h-416l-57 -266h473l-70 -307h-807z" />
    <glyph glyph-name="uni0389" unicode="&#x389;" horiz-adv-x="1130" 
d="M-39 0l311 1434h338l-121 -555h295l121 555h336l-311 -1434h-336l123 565h-295l-123 -565h-338zM-150 1079l95 355h286l-204 -355h-177z" />
    <glyph glyph-name="uni038A" unicode="&#x38a;" horiz-adv-x="509" 
d="M-35 0l314 1434h335l-311 -1434h-338zM-147 1079l94 355h286l-204 -355h-176z" />
    <glyph glyph-name="uni038C" unicode="&#x38c;" horiz-adv-x="1175" 
d="M-96 1083l94 355h287l-205 -355h-176zM721 1460q222 0 342.5 -141.5t120.5 -398.5q0 -198 -74 -425t-207 -360q-162 -162 -377 -162q-221 0 -342 144t-121 399q0 198 74 424.5t207 359.5q160 160 377 160zM547 281q64 0 115 51q86 86 135 268t49 320q0 125 -37 180
t-109 55q-61 0 -114 -53q-85 -85 -135 -267t-50 -321q0 -124 37 -178.5t109 -54.5z" />
    <glyph glyph-name="uni038E" unicode="&#x38e;" 
d="M217 0l119 541l-166 893h346l64 -516l286 516h367l-563 -908l-115 -526h-338zM-223 1079l94 355h287l-205 -355h-176z" />
    <glyph glyph-name="uni038F" unicode="&#x38f;" horiz-adv-x="1208" 
d="M721 1153q-78 0 -137 -59q-71 -71 -107.5 -216t-36.5 -274q0 -162 49 -311l-63 -293h-483l67 303l217 -2q-106 224 -106 432q0 171 48.5 316.5t147.5 244.5q160 166 435 166q230 0 350.5 -120.5t120.5 -338.5q0 -131 -44 -257t-109.5 -225t-168.5 -218l215 2l-67 -303
h-500l63 291q110 152 185 334t75 325q0 101 -40 152t-111 51zM-109 1083l95 355h286l-204 -355h-177z" />
    <glyph glyph-name="uni0390" unicode="&#x390;" horiz-adv-x="546" 
d="M561 1184l55 243h236l-53 -243h-238zM-20 1184l53 243h237l-53 -243h-237zM254 1184l133 370l252 -49l-217 -321h-168zM6 203q0 83 27 186l153 719h330l-164 -754q-6 -25 -6 -49q0 -49 66 -49q17 0 53 4l-53 -248q-79 -28 -168 -28q-238 0 -238 219z" />
    <glyph glyph-name="uni0391" unicode="&#x391;" horiz-adv-x="1124" 
d="M-125 0l700 1440h365l76 -1440h-340l-6 260h-332l-117 -260h-346zM461 537h205l-7 446z" />
    <glyph glyph-name="uni0392" unicode="&#x392;" horiz-adv-x="1067" 
d="M-39 0l311 1434h363q232 0 351.5 -92.5t119.5 -247.5q0 -137 -74 -233t-203 -140q179 -95 179 -275q0 -203 -151.5 -324.5t-434.5 -121.5h-461zM356 295h115q94 0 148.5 47t54.5 129q0 56 -39.5 88.5t-112.5 32.5h-102zM475 852h96q99 0 150 50t51 122q0 115 -151 115
h-82z" />
    <glyph glyph-name="uni0393" unicode="&#x393;" horiz-adv-x="866" 
d="M-39 0l311 1434h752l-68 -310h-415l-242 -1124h-338z" />
    <glyph glyph-name="uni0394" unicode="&#x394;" horiz-adv-x="1144" 
d="M961 1440l86 -1170l-99 -270h-975l2 272l594 1168h392zM686 1042l-344 -737h371z" />
    <glyph glyph-name="uni0395" unicode="&#x395;" horiz-adv-x="944" 
d="M-39 0l311 1434h801l-69 -308h-461l-58 -256h416l-63 -297h-416l-57 -266h473l-70 -307h-807z" />
    <glyph glyph-name="uni0396" unicode="&#x396;" horiz-adv-x="956" 
d="M-70 0l60 270l626 858h-430l66 306h848l-60 -269l-628 -860h446l-65 -305h-863z" />
    <glyph glyph-name="uni0397" unicode="&#x397;" horiz-adv-x="1130" 
d="M-39 0l311 1434h338l-121 -555h295l121 555h336l-311 -1434h-336l123 565h-295l-123 -565h-338z" />
    <glyph glyph-name="uni0398" unicode="&#x398;" horiz-adv-x="1161" 
d="M63 514q0 127 28.5 267t94 284t156.5 235q160 160 373 160q219 0 336.5 -141t117.5 -399q0 -127 -28 -266.5t-93.5 -283.5t-156.5 -235q-162 -162 -373 -162q-219 0 -337 141.5t-118 399.5zM379 510q0 -244 158 -244q71 0 131 60q80 80 133 258h-420q-2 -27 -2 -74z
M565 1108q-77 -77 -131 -248h416q4 46 4 64q0 243 -158 243q-72 0 -131 -59z" />
    <glyph glyph-name="uni0399" unicode="&#x399;" horiz-adv-x="509" 
d="M-35 0l314 1434h335l-311 -1434h-338z" />
    <glyph glyph-name="uni039A" unicode="&#x39a;" horiz-adv-x="1081" 
d="M-39 0l311 1434h336l-119 -549l385 549h388l-463 -635l159 -799h-356l-90 526l-137 -172l-76 -354h-338z" />
    <glyph glyph-name="uni039B" unicode="&#x39b;" horiz-adv-x="1093" 
d="M913 1440l70 -1440h-348l-10 866l-387 -866h-361l690 1440h346z" />
    <glyph glyph-name="uni039C" unicode="&#x39c;" horiz-adv-x="1296" 
d="M-39 0l311 1434h328l119 -502l338 502h350l-311 -1434h-330l172 786l-348 -497h-4l-125 497l-172 -786h-328z" />
    <glyph glyph-name="uni039D" unicode="&#x39d;" horiz-adv-x="1159" 
d="M-39 0l311 1434h316l198 -713l156 713h328l-312 -1434h-303l-204 741l-162 -741h-328z" />
    <glyph glyph-name="uni039E" unicode="&#x39e;" horiz-adv-x="935" 
d="M829 309l-67 -309h-828l66 309h829zM1067 1434l-68 -308h-815l68 308h815zM909 870l-65 -297h-744l66 297h743z" />
    <glyph glyph-name="uni039F" unicode="&#x39f;" horiz-adv-x="1175" 
d="M721 1460q222 0 342.5 -141.5t120.5 -398.5q0 -198 -74 -425t-207 -360q-162 -162 -377 -162q-221 0 -342 144t-121 399q0 198 74 424.5t207 359.5q160 160 377 160zM547 281q64 0 115 51q86 86 135 268t49 320q0 125 -37 180t-109 55q-61 0 -114 -53q-85 -85 -135 -267
t-50 -321q0 -124 37 -178.5t109 -54.5z" />
    <glyph glyph-name="uni03A0" unicode="&#x3a0;" horiz-adv-x="1126" 
d="M-39 0l311 1434h965l-311 -1434h-338l243 1120h-290l-244 -1120h-336z" />
    <glyph glyph-name="uni03A1" unicode="&#x3a1;" horiz-adv-x="1019" 
d="M-39 0l311 1434h318q260 0 387 -127q104 -101 104 -283q0 -123 -39.5 -236.5t-121.5 -195.5q-166 -166 -453 -166h-78l-92 -426h-336zM705 1102q-39 39 -117 39h-43l-94 -430h45q107 0 170 63q38 38 57.5 97.5t19.5 115.5q0 77 -38 115z" />
    <glyph glyph-name="uni03A3" unicode="&#x3a3;" horiz-adv-x="954" 
d="M756 702l-336 -397h438l-65 -305h-865l60 268l409 469l-213 428l60 269h829l-65 -306h-451z" />
    <glyph glyph-name="uni03A4" unicode="&#x3a4;" horiz-adv-x="942" 
d="M176 0l244 1122h-270l69 312h877l-70 -312h-270l-242 -1122h-338z" />
    <glyph glyph-name="uni03A5" unicode="&#x3a5;" 
d="M217 0l119 541l-166 893h346l64 -516l286 516h367l-563 -908l-115 -526h-338z" />
    <glyph glyph-name="uni03A6" unicode="&#x3a6;" horiz-adv-x="1525" 
d="M791 1460h337l-32 -145q200 -38 314 -166t114 -334q-3 -312 -201 -510q-183 -183 -487 -194l-29 -138h-338l31 150q-200 36 -312 164.5t-112 335.5q0 309 198 510q180 180 488 192zM408 629q0 -188 161 -228l140 639q-111 -12 -185 -86q-58 -58 -87 -145t-29 -180z
M1190 809q0 185 -162 225l-139 -637q108 8 184 84q58 58 87.5 146.5t29.5 181.5z" />
    <glyph glyph-name="uni03A7" unicode="&#x3a7;" horiz-adv-x="1050" 
d="M-119 0l481 745l-157 689h352l66 -400l233 400h371l-463 -717l168 -717h-354l-74 432l-252 -432h-371z" />
    <glyph glyph-name="uni03A8" unicode="&#x3a8;" horiz-adv-x="1468" 
d="M764 1434h326l-181 -826q96 8 150 62q47 44 74 168l127 596h331l-137 -646q-46 -221 -158 -333q-150 -150 -446 -160l-64 -295h-342l66 303q-389 55 -389 389q0 97 33 236l106 506h334l-117 -539q-22 -99 -22 -154q0 -60 28.5 -89.5t100.5 -39.5z" />
    <glyph glyph-name="uni03A9" unicode="&#x3a9;" horiz-adv-x="1208" 
d="M721 1153q-78 0 -137 -59q-71 -71 -107.5 -216t-36.5 -274q0 -162 49 -311l-63 -293h-483l67 303l217 -2q-106 224 -106 432q0 171 48.5 316.5t147.5 244.5q160 166 435 166q230 0 350.5 -120.5t120.5 -338.5q0 -131 -44 -257t-109.5 -225t-168.5 -218l215 2l-67 -303
h-500l63 291q110 152 185 334t75 325q0 101 -40 152t-111 51z" />
    <glyph glyph-name="uni03AA" unicode="&#x3aa;" horiz-adv-x="509" 
d="M-35 0l314 1434h335l-311 -1434h-338zM152 1507l53 244h272l-53 -244h-272zM508 1507l53 244h273l-54 -244h-272z" />
    <glyph glyph-name="uni03AB" unicode="&#x3ab;" 
d="M217 0l119 541l-166 893h346l64 -516l286 516h367l-563 -908l-115 -526h-338zM391 1507l53 244h273l-53 -244h-273zM748 1507l53 244h272l-53 -244h-272z" />
    <glyph glyph-name="uni03AC" unicode="&#x3ac;" horiz-adv-x="1099" 
d="M549 1192l174 324l268 -99l-235 -225h-207zM295 -23q-130 0 -199 89t-69 270q0 183 61 388t168 312q94 94 217 94q160 0 238 -159l28 137h330l-164 -754q-6 -25 -6 -49q0 -49 66 -49q17 0 53 4l-53 -248q-82 -28 -168 -28q-96 0 -147.5 37.5t-69.5 111.5
q-74 -86 -142.5 -121t-142.5 -35zM446 268q41 0 76 35q54 50 88.5 174.5t34.5 218.5q0 75 -24.5 110.5t-65.5 35.5t-76 -35q-53 -53 -88 -177.5t-35 -215.5q0 -75 24.5 -110.5t65.5 -35.5z" />
    <glyph glyph-name="uni03AD" unicode="&#x3ad;" horiz-adv-x="845" 
d="M463 1192l174 324l268 -99l-235 -225h-207zM238 575q-136 74 -136 220q0 139 113.5 237t308.5 98q210 0 394 -120l-148 -236q-114 86 -231 86q-63 0 -97 -28t-34 -72q0 -86 141 -86h135l-51 -238h-148q-170 0 -170 -106q0 -85 129 -82q104 0 240 63l59 -258
q-163 -78 -362 -78q-195 0 -294 77.5t-99 209.5q0 104 59 188t191 125z" />
    <glyph glyph-name="uni03AE" unicode="&#x3ae;" horiz-adv-x="976" 
d="M526 1192l174 324l269 -99l-236 -225h-207zM-51 0l241 1108h328l-26 -125q116 147 258 147q108 0 166.5 -64t58.5 -171q0 -55 -17 -135l-225 -1047h-327l208 971q13 50 13 78q0 76 -74 76q-47 0 -78 -33t-43 -94l-153 -711h-330z" />
    <glyph glyph-name="uni03AF" unicode="&#x3af;" horiz-adv-x="546" 
d="M256 1182l174 323l268 -98l-235 -225h-207zM6 203q0 83 27 186l153 719h330l-164 -754q-6 -25 -6 -49q0 -49 66 -49q17 0 53 4l-53 -248q-79 -28 -168 -28q-238 0 -238 219z" />
    <glyph glyph-name="uni03B0" unicode="&#x3b0;" horiz-adv-x="978" 
d="M807 1184l55 243h236l-54 -243h-237zM225 1184l54 243h237l-53 -243h-238zM500 1184l133 370l252 -49l-217 -321h-168zM412 -25q-187 0 -286 87.5t-99 244.5q0 79 22 178l133 623h328l-143 -676q-13 -54 -13 -86q0 -38 21 -59t61 -21q46 0 74 31q31 24 47 102l152 709
h327l-153 -719q-24 -103 -56 -172t-84 -121q-121 -121 -331 -121z" />
    <glyph glyph-name="uni03B1" unicode="&#x3b1;" horiz-adv-x="1099" 
d="M295 -23q-130 0 -199 89t-69 270q0 183 61 388t168 312q94 94 217 94q160 0 238 -159l28 137h330l-164 -754q-6 -25 -6 -49q0 -49 66 -49q17 0 53 4l-53 -248q-82 -28 -168 -28q-96 0 -147.5 37.5t-69.5 111.5q-74 -86 -142.5 -121t-142.5 -35zM446 268q41 0 76 35
q54 50 88.5 174.5t34.5 218.5q0 75 -24.5 110.5t-65.5 35.5t-76 -35q-53 -53 -88 -177.5t-35 -215.5q0 -75 24.5 -110.5t65.5 -35.5z" />
    <glyph glyph-name="uni03B2" unicode="&#x3b2;" horiz-adv-x="1017" 
d="M573 -23q-100 0 -164.5 42t-109.5 120l-94 -426h-318l283 1301q48 228 160 340q127 127 340 127q190 0 294.5 -99.5t104.5 -257.5q0 -141 -74 -249t-221 -160q176 -89 176 -281q0 -62 -15.5 -125.5t-47.5 -123t-76 -106t-106 -74.5t-132 -28zM489 999l-32 -151h80
q92 0 143 51q33 33 50.5 85.5t17.5 105.5q0 56 -26 87t-73 31q-51 0 -88 -37q-45 -45 -72 -172zM487 266q49 0 84 36t49.5 82t14.5 91q0 73 -43.5 106t-145.5 33h-40l-23 -104q-12 -56 -12 -104q0 -66 31 -103t85 -37z" />
    <glyph glyph-name="uni03B3" unicode="&#x3b3;" horiz-adv-x="946" 
d="M453 -287h-328l68 303l-66 1092h330l-8 -645l272 645h338l-537 -1085z" />
    <glyph glyph-name="uni03B4" unicode="&#x3b4;" horiz-adv-x="983" 
d="M662 1206l65 -94q104 -138 153.5 -261.5t49.5 -272.5q0 -142 -41 -266t-125 -208q-129 -129 -326 -129q-194 0 -302.5 112.5t-108.5 301.5q0 90 20 175t64 172.5t122.5 170.5t186.5 152l-133 178l51 231h706l-61 -268zM612 590q0 148 -57 264q-108 -89 -162.5 -209
t-54.5 -233q0 -77 29.5 -117.5t81.5 -40.5q39 0 81 37q40 40 61 120.5t21 178.5z" />
    <glyph glyph-name="uni03B5" unicode="&#x3b5;" horiz-adv-x="845" 
d="M238 575q-136 74 -136 220q0 139 113.5 237t308.5 98q210 0 394 -120l-148 -236q-114 86 -231 86q-63 0 -97 -28t-34 -72q0 -86 141 -86h135l-51 -238h-148q-170 0 -170 -106q0 -85 129 -82q104 0 240 63l59 -258q-163 -78 -362 -78q-195 0 -294 77.5t-99 209.5
q0 104 59 188t191 125z" />
    <glyph glyph-name="uni03B6" unicode="&#x3b6;" horiz-adv-x="854" 
d="M963 1217l-519 -603q-67 -80 -90.5 -119.5t-23.5 -76.5q0 -45 31 -76.5t122 -60.5l254 -82l-94 -428h-297l55 237l-112 41q-156 59 -218.5 137t-62.5 203q0 88 42 174.5t149 210.5l362 422h-309l59 272h707z" />
    <glyph glyph-name="uni03B7" unicode="&#x3b7;" horiz-adv-x="976" 
d="M-51 0l241 1108h328l-26 -125q116 147 258 147q108 0 166.5 -64t58.5 -171q0 -55 -17 -135l-225 -1047h-327l208 971q13 50 13 78q0 76 -74 76q-47 0 -78 -33t-43 -94l-153 -711h-330z" />
    <glyph glyph-name="uni03B8" unicode="&#x3b8;" horiz-adv-x="1005" 
d="M418 -25q-175 0 -269 114.5t-94 334.5q0 141 30.5 310t100 344t162.5 268q131 131 311 131q178 0 271.5 -114.5t93.5 -334.5q0 -141 -30.5 -310t-100 -343t-162.5 -269q-131 -131 -313 -131zM444 254q43 0 80 37q70 70 131 311h-284q-19 -109 -19 -194q0 -154 92 -154z
M555 1161q-71 -71 -131 -307h285q18 98 18 190q0 154 -92 154q-43 0 -80 -37z" />
    <glyph glyph-name="uni03B9" unicode="&#x3b9;" horiz-adv-x="546" 
d="M6 203q0 83 27 186l153 719h330l-164 -754q-6 -25 -6 -49q0 -49 66 -49q17 0 53 4l-53 -248q-79 -28 -168 -28q-238 0 -238 219z" />
    <glyph glyph-name="uni03BA" unicode="&#x3ba;" horiz-adv-x="958" 
d="M823 0h-336l-57 377l-94 -115l-57 -262h-328l239 1108h328l-88 -403l285 403h372l-376 -498z" />
    <glyph glyph-name="uni03BB" unicode="&#x3bb;" horiz-adv-x="956" 
d="M231 0h-340l555 1106q-8 54 -24 70q-28 28 -98 28q-57 0 -88 -6l53 262q57 17 151 17q148 0 226 -78q48 -48 73.5 -131.5t32.5 -241.5l62 -1026h-324v649z" />
    <glyph glyph-name="uni03BC" unicode="&#x3bc;" horiz-adv-x="1077" 
d="M426 -12q-125 0 -162 141h-6q0 -166 -31 -309l-24 -107h-318l305 1395h328l-145 -672q-11 -64 -11 -82q0 -39 21 -61.5t59 -22.5q45 0 77 32.5t44 94.5l154 711h327l-161 -754q-9 -37 -9 -49q0 -49 68 -49q17 0 53 4l-55 -248q-79 -28 -158 -28q-143 0 -180 122
q-69 -118 -176 -118z" />
    <glyph glyph-name="uni03BD" unicode="&#x3bd;" horiz-adv-x="948" 
d="M193 -6l-66 1114h332l-8 -647l272 647h338l-547 -1114h-321z" />
    <glyph glyph-name="uni03BE" unicode="&#x3be;" horiz-adv-x="845" 
d="M721 186l-92 -415h-297l55 237l-74 31q-149 60 -224 143.5t-75 212.5q0 67 17 127.5t53.5 115.5t100.5 97.5t151 63.5q-135 96 -135 270q0 172 119.5 290t322.5 118q222 0 383 -152l-172 -227q-33 29 -52 43.5t-56.5 30.5t-75.5 16q-80 0 -121 -50.5t-41 -115.5
q0 -71 44.5 -108t154.5 -37h67l-57 -269h-170q-103 0 -154 -48.5t-51 -121.5q0 -59 43.5 -100t142.5 -78z" />
    <glyph glyph-name="uni03BF" unicode="&#x3bf;" horiz-adv-x="976" 
d="M422 -27q-189 0 -291 117.5t-102 317.5q0 159 53.5 324t153.5 265q133 136 319 136q189 0 292 -117.5t103 -317.5q0 -159 -53.5 -324t-153.5 -265q-136 -136 -321 -136zM438 256q41 0 76 35q53 53 88 177.5t35 225.5q0 158 -96 158q-41 0 -78 -37q-52 -52 -86.5 -176.5
t-34.5 -224.5q0 -158 96 -158z" />
    <glyph glyph-name="uni03C0" unicode="&#x3c0;" horiz-adv-x="1163" 
d="M600 203q0 83 27 186l90 424h-178l-174 -813h-328l174 813h-125l66 295h1083l-64 -295h-127l-98 -459q-6 -25 -6 -49q0 -49 66 -49q17 0 53 4l-53 -248q-79 -28 -168 -28q-238 0 -238 219z" />
    <glyph glyph-name="uni03C1" unicode="&#x3c1;" horiz-adv-x="1007" 
d="M535 -20q-159 0 -236 157l-94 -424h-328l189 867q35 164 79 264.5t105 161.5q121 124 323 124q190 0 296 -106t106 -311q0 -166 -58 -353t-151 -280q-100 -100 -231 -100zM453 266q40 0 75 35q54 54 88.5 179.5t34.5 221.5q0 146 -90 146q-41 0 -76 -35
q-54 -54 -88.5 -179.5t-34.5 -221.5q0 -146 91 -146z" />
    <glyph glyph-name="uni03C2" unicode="&#x3c2;" horiz-adv-x="804" 
d="M678 188l-94 -417h-295l53 239l-68 43q-126 78 -181.5 178t-55.5 240q0 145 52 291.5t142 236.5q135 129 310 129q208 0 333 -165q-2 -2 -16 -20t-37 -46.5t-43 -52.5q-81 -99 -90 -109q-33 46 -63.5 68t-69.5 22q-51 0 -90 -39q-47 -47 -75 -128t-28 -152
q0 -83 43.5 -139t141.5 -109z" />
    <glyph glyph-name="uni03C3" unicode="&#x3c3;" 
d="M418 -25q-186 0 -288.5 114.5t-102.5 307.5q0 160 51 318t145 252q72 72 169 106.5t247 34.5h485l-63 -281l-211 7q72 -110 72 -263q0 -125 -47.5 -252t-126.5 -206q-138 -138 -330 -138zM434 256q44 0 78 37q53 53 88 169.5t35 213.5q0 153 -96 153q-48 0 -80 -38
q-51 -51 -86 -168t-35 -213q0 -154 96 -154z" />
    <glyph glyph-name="uni03C4" unicode="&#x3c4;" horiz-adv-x="843" 
d="M930 1108l-68 -297h-229l-90 -428q-13 -54 -13 -72q0 -30 20 -43.5t66 -13.5q42 0 89 8l-56 -252q-85 -24 -184 -24q-135 0 -203.5 61.5t-68.5 175.5q0 49 22 162l90 426h-219l66 297h778z" />
    <glyph glyph-name="uni03C5" unicode="&#x3c5;" horiz-adv-x="978" 
d="M412 -25q-187 0 -286 87.5t-99 244.5q0 79 22 178l133 623h328l-143 -676q-13 -54 -13 -86q0 -38 21 -59t61 -21q46 0 74 31q31 24 47 102l152 709h327l-153 -719q-24 -103 -56 -172t-84 -121q-121 -121 -331 -121z" />
    <glyph glyph-name="uni03C6" unicode="&#x3c6;" horiz-adv-x="1394" 
d="M350 -287l66 291q-180 37 -279.5 159t-99.5 312q0 135 45.5 256.5t130.5 206.5q168 168 444 180l78 350h324l-80 -366q179 -37 279 -158t100 -309q0 -136 -45.5 -258t-130.5 -207q-168 -168 -447 -180l-59 -277h-326zM1042 625q0 169 -133 209l-121 -568q89 9 152 72
q49 52 75.5 131t26.5 156zM352 483q0 -167 131 -207l123 566q-88 -9 -151 -72q-49 -49 -76 -129t-27 -158z" />
    <glyph glyph-name="uni03C7" unicode="&#x3c7;" horiz-adv-x="972" 
d="M455 1108l65 -377l211 377h359l-451 -700l178 -695h-330l-84 424l-251 -424h-361l496 740l-160 655h328z" />
    <glyph glyph-name="uni03C8" unicode="&#x3c8;" horiz-adv-x="1388" 
d="M1049 1468l-258 -1177q50 5 80.5 16.5t54.5 36.5q45 45 63 131l133 633h324l-146 -680q-39 -180 -137 -278q-143 -143 -428 -152l-63 -285h-326l64 291q-181 23 -274 119.5t-93 247.5q0 93 25 198l114 539h322l-119 -559q-20 -81 -20 -133t27.5 -81.5t88.5 -39.5
l256 1173h312z" />
    <glyph glyph-name="uni03C9" unicode="&#x3c9;" horiz-adv-x="1452" 
d="M639 885h309l-74 -363q-22 -99 -22 -145q0 -98 74 -98q38 0 67.5 35.5t47 95t26 130t8.5 148.5q0 201 -61 420h323q62 -232 62 -432q0 -333 -122.5 -516t-322.5 -183q-230 0 -286 232q-113 -232 -316 -232q-157 0 -241 101.5t-84 281.5q0 181 76 378.5t206 369.5h353
q-148 -200 -229 -391t-81 -324q0 -114 76 -114q44 0 73.5 42t51.5 150z" />
    <glyph glyph-name="uni03CA" unicode="&#x3ca;" horiz-adv-x="546" 
d="M68 1184l55 256h268l-55 -256h-268zM414 1184l55 256h266l-55 -256h-266zM6 203q0 83 27 186l153 719h330l-164 -754q-6 -25 -6 -49q0 -49 66 -49q17 0 53 4l-53 -248q-79 -28 -168 -28q-238 0 -238 219z" />
    <glyph glyph-name="uni03CB" unicode="&#x3cb;" horiz-adv-x="978" 
d="M313 1184l56 256h268l-55 -256h-269zM659 1184l56 256h266l-55 -256h-267zM412 -25q-187 0 -286 87.5t-99 244.5q0 79 22 178l133 623h328l-143 -676q-13 -54 -13 -86q0 -38 21 -59t61 -21q46 0 74 31q31 24 47 102l152 709h327l-153 -719q-24 -103 -56 -172t-84 -121
q-121 -121 -331 -121z" />
    <glyph glyph-name="uni03CC" unicode="&#x3cc;" horiz-adv-x="976" 
d="M510 1192l174 324l268 -99l-235 -225h-207zM422 -27q-189 0 -291 117.5t-102 317.5q0 159 53.5 324t153.5 265q133 136 319 136q189 0 292 -117.5t103 -317.5q0 -159 -53.5 -324t-153.5 -265q-136 -136 -321 -136zM438 256q41 0 76 35q53 53 88 177.5t35 225.5
q0 158 -96 158q-41 0 -78 -37q-52 -52 -86.5 -176.5t-34.5 -224.5q0 -158 96 -158z" />
    <glyph glyph-name="uni03CD" unicode="&#x3cd;" horiz-adv-x="978" 
d="M500 1182l174 323l268 -98l-235 -225h-207zM412 -25q-187 0 -286 87.5t-99 244.5q0 79 22 178l133 623h328l-143 -676q-13 -54 -13 -86q0 -38 21 -59t61 -21q46 0 74 31q31 24 47 102l152 709h327l-153 -719q-24 -103 -56 -172t-84 -121q-121 -121 -331 -121z" />
    <glyph glyph-name="uni03CE" unicode="&#x3ce;" horiz-adv-x="1452" 
d="M739 1182l174 323l269 -98l-236 -225h-207zM639 885h309l-74 -363q-22 -99 -22 -145q0 -98 74 -98q38 0 67.5 35.5t47 95t26 130t8.5 148.5q0 201 -61 420h323q62 -232 62 -432q0 -333 -122.5 -516t-322.5 -183q-230 0 -286 232q-113 -232 -316 -232q-157 0 -241 101.5
t-84 281.5q0 181 76 378.5t206 369.5h353q-148 -200 -229 -391t-81 -324q0 -114 76 -114q44 0 73.5 42t51.5 150z" />
    <glyph glyph-name="uni0400" unicode="&#x400;" horiz-adv-x="944" 
d="M563 1505l-213 176l312 97l129 -273h-228zM-39 0l311 1434h801l-69 -308h-461l-58 -256h416l-63 -297h-416l-57 -266h473l-70 -307h-807z" />
    <glyph glyph-name="uni0401" unicode="&#x401;" horiz-adv-x="944" 
d="M375 1507l53 244h272l-53 -244h-272zM731 1507l53 244h273l-53 -244h-273zM-39 0l311 1434h801l-69 -308h-461l-58 -256h416l-63 -297h-416l-57 -266h473l-70 -307h-807z" />
    <glyph glyph-name="uni0402" unicode="&#x402;" horiz-adv-x="1247" 
d="M866 492q0 67 -39 93.5t-122 26.5q-25 0 -72 -6l-133 -606h-334l244 1124h-260l67 310h870l-67 -310h-275l-47 -213q36 7 99 7q405 0 405 -375q0 -121 -36 -236.5t-107 -189.5q-64 -65 -153 -93t-216 -28q-56 0 -74 2l60 270h12q75 0 121 43q28 28 42.5 79t14.5 102z" />
    <glyph glyph-name="uni0403" unicode="&#x403;" horiz-adv-x="866" 
d="M510 1505l231 273l303 -97l-284 -176h-250zM-39 0l311 1434h752l-68 -310h-415l-242 -1124h-338z" />
    <glyph glyph-name="uni0404" unicode="&#x404;" horiz-adv-x="1011" 
d="M66 516q0 208 69.5 423.5t200.5 346.5q165 168 405 168q229 0 406 -168l-207 -258q-104 113 -211 113q-90 0 -158 -68q-73 -73 -118 -213l399 4l-61 -284l-394 2v-60q0 -231 181 -231q108 0 231 84l104 -279q-177 -116 -372 -116q-229 0 -352 137.5t-123 398.5z" />
    <glyph glyph-name="uni0405" unicode="&#x405;" horiz-adv-x="935" 
d="M408 -20q-266 0 -469 217l180 258q149 -168 293 -168q56 0 91.5 31.5t35.5 82.5q0 39 -32 79.5t-116 109.5q-62 49 -104.5 90t-78 90t-52.5 104t-17 119q0 199 129 328q133 133 338 133q248 0 428 -192l-194 -244q-115 131 -240 131q-56 0 -88.5 -31.5t-32.5 -79.5
q0 -39 33 -80.5t125 -111.5q124 -100 184 -190.5t60 -209.5q0 -202 -133 -335q-131 -131 -340 -131z" />
    <glyph glyph-name="uni0406" unicode="&#x406;" horiz-adv-x="509" 
d="M-35 0l314 1434h335l-311 -1434h-338z" />
    <glyph glyph-name="uni0407" unicode="&#x407;" horiz-adv-x="509" 
d="M-35 0l314 1434h335l-311 -1434h-338zM152 1507l53 244h272l-53 -244h-272zM508 1507l53 244h273l-54 -244h-272z" />
    <glyph glyph-name="uni0408" unicode="&#x408;" horiz-adv-x="821" 
d="M274 -18q-109 0 -201.5 42t-150.5 115l174 248q72 -90 148 -90q50 0 88 35q38 38 59 137l209 965h338l-221 -1014q-49 -223 -152 -326q-112 -112 -291 -112z" />
    <glyph glyph-name="uni0409" unicode="&#x409;" horiz-adv-x="1642" 
d="M586 0l245 1137h-12l-598 -1137h-352l790 1434h574l-96 -441q241 -3 366 -123q107 -101 107 -282q0 -123 -40.5 -233t-117.5 -187q-168 -168 -475 -168h-391zM1272 553q0 77 -41 115q-40 37 -121 37h-35l-90 -414h37q113 0 176 63q38 38 56 93t18 106z" />
    <glyph glyph-name="uni040A" unicode="&#x40a;" horiz-adv-x="1636" 
d="M582 0l123 565h-285l-123 -565h-336l311 1434h336l-121 -555h285l121 555h334l-97 -441q244 -3 369 -123q105 -102 105 -282q0 -123 -40.5 -233t-117.5 -187q-168 -168 -473 -168h-391zM1268 553q0 74 -41 115q-43 37 -121 37h-37l-90 -414h39q113 0 176 63q38 38 56 93
t18 106z" />
    <glyph glyph-name="uni040B" unicode="&#x40b;" horiz-adv-x="1271" 
d="M166 0l244 1124h-260l67 310h870l-67 -310h-275l-49 -217q54 4 99 4q187 0 295 -81.5t108 -247.5q0 -92 -33 -230l-73 -352h-336l84 408q14 72 14 94q0 52 -35 73t-106 21q-65 0 -86 -4l-127 -592h-334z" />
    <glyph glyph-name="uni040C" unicode="&#x40c;" horiz-adv-x="1081" 
d="M612 1505l232 273l303 -97l-285 -176h-250zM-39 0l311 1434h336l-123 -562h41l353 562h385l-500 -746l203 -688h-351l-151 571h-45l-123 -571h-336z" />
    <glyph glyph-name="uni040D" unicode="&#x40d;" horiz-adv-x="1159" 
d="M649 1505l-213 176l312 97l129 -273h-228zM928 1434h342l-312 -1434h-331l164 752l-506 -752h-324l311 1434h330l-156 -721z" />
    <glyph glyph-name="uni040E" unicode="&#x40e;" horiz-adv-x="1077" 
d="M731 1499q-132 0 -201 63.5t-51 186.5h180q6 -76 103 -76q88 0 125 76h194q-37 -126 -127.5 -188t-222.5 -62zM1274 1434l-821 -1434h-363l258 451l-162 983h340l76 -576l309 576h363z" />
    <glyph glyph-name="uni040F" unicode="&#x40f;" horiz-adv-x="1126" 
d="M1237 1434l-311 -1434h-330l-57 -258h-308l58 258h-328l311 1434h336l-241 -1121h290l242 1121h338z" />
    <glyph glyph-name="uni0410" unicode="&#x410;" horiz-adv-x="1124" 
d="M-125 0l700 1440h365l76 -1440h-340l-6 260h-332l-117 -260h-346zM461 537h205l-7 446z" />
    <glyph glyph-name="uni0411" unicode="&#x411;" horiz-adv-x="1044" 
d="M993 526q0 -107 -36.5 -204.5t-106.5 -167.5q-84 -82 -205.5 -118t-294.5 -36h-389l311 1434h830l-68 -306h-497l-48 -227h23q139 0 232 -26.5t155 -88.5q94 -94 94 -260zM659 489q0 61 -32 93q-39 39 -138 39h-61l-72 -334h66q123 0 182 59q55 55 55 143z" />
    <glyph glyph-name="uni0412" unicode="&#x412;" horiz-adv-x="1067" 
d="M-39 0l311 1434h363q232 0 351.5 -92.5t119.5 -247.5q0 -137 -74 -233t-203 -140q179 -95 179 -275q0 -203 -151.5 -324.5t-434.5 -121.5h-461zM356 295h115q94 0 148.5 47t54.5 129q0 56 -39.5 88.5t-112.5 32.5h-102zM475 852h96q99 0 150 50t51 122q0 115 -151 115
h-82z" />
    <glyph glyph-name="uni0413" unicode="&#x413;" horiz-adv-x="866" 
d="M-39 0l311 1434h752l-68 -310h-415l-242 -1124h-338z" />
    <glyph glyph-name="uni0414" unicode="&#x414;" horiz-adv-x="1335" 
d="M-20 315h126l553 1125h402l63 -1125h131l-127 -573h-307l58 258h-662l-57 -258h-307zM772 1012l-321 -709h335z" />
    <glyph glyph-name="uni0415" unicode="&#x415;" horiz-adv-x="944" 
d="M-39 0l311 1434h801l-69 -308h-461l-58 -256h416l-63 -297h-416l-57 -266h473l-70 -307h-807z" />
    <glyph glyph-name="uni0416" unicode="&#x416;" horiz-adv-x="1648" 
d="M1186 1434l-131 -566h30l363 566h381l-506 -744l199 -690h-351l-143 569h-39l-117 -569h-333l129 569h-35l-373 -569h-383l522 748l-178 686h348l127 -566h35l119 566h336z" />
    <glyph glyph-name="uni0417" unicode="&#x417;" horiz-adv-x="974" 
d="M264 1067l-78 276q198 113 402 113t319 -96t115 -266q0 -280 -287 -394q170 -90 170 -278q0 -190 -138 -317.5t-368 -127.5q-266 0 -467 160l172 262q146 -114 291 -114q85 0 131.5 46t46.5 118q0 133 -196 133h-135l61 280h146q115 0 174 45t59 121q0 60 -39 91.5
t-111 31.5q-112 0 -268 -84z" />
    <glyph glyph-name="uni0418" unicode="&#x418;" horiz-adv-x="1159" 
d="M928 1434h342l-312 -1434h-331l164 752l-506 -752h-324l311 1434h330l-156 -721z" />
    <glyph glyph-name="uni0419" unicode="&#x419;" horiz-adv-x="1159" 
d="M770 1493q-132 0 -201 63.5t-51 186.5h180q6 -76 103 -76q88 0 125 76h194q-37 -126 -127.5 -188t-222.5 -62zM928 1434h342l-312 -1434h-331l164 752l-506 -752h-324l311 1434h330l-156 -721z" />
    <glyph glyph-name="uni041A" unicode="&#x41a;" horiz-adv-x="1081" 
d="M-39 0l311 1434h336l-123 -562h41l353 562h385l-500 -746l203 -688h-351l-151 571h-45l-123 -571h-336z" />
    <glyph glyph-name="uni041B" unicode="&#x41b;" horiz-adv-x="1093" 
d="M913 1440l70 -1440h-348l-10 866l-387 -866h-361l690 1440h346z" />
    <glyph glyph-name="uni041C" unicode="&#x41c;" horiz-adv-x="1296" 
d="M-39 0l311 1434h328l119 -502l338 502h350l-311 -1434h-330l172 786l-348 -497h-4l-125 497l-172 -786h-328z" />
    <glyph glyph-name="uni041D" unicode="&#x41d;" horiz-adv-x="1130" 
d="M-39 0l311 1434h338l-121 -555h295l121 555h336l-311 -1434h-336l123 565h-295l-123 -565h-338z" />
    <glyph glyph-name="uni041E" unicode="&#x41e;" horiz-adv-x="1175" 
d="M721 1460q222 0 342.5 -141.5t120.5 -398.5q0 -198 -74 -425t-207 -360q-162 -162 -377 -162q-221 0 -342 144t-121 399q0 198 74 424.5t207 359.5q160 160 377 160zM547 281q64 0 115 51q86 86 135 268t49 320q0 125 -37 180t-109 55q-61 0 -114 -53q-85 -85 -135 -267
t-50 -321q0 -124 37 -178.5t109 -54.5z" />
    <glyph glyph-name="uni041F" unicode="&#x41f;" horiz-adv-x="1126" 
d="M-39 0l311 1434h965l-311 -1434h-338l243 1120h-290l-244 -1120h-336z" />
    <glyph glyph-name="uni0420" unicode="&#x420;" horiz-adv-x="1019" 
d="M-39 0l311 1434h318q260 0 387 -127q104 -101 104 -283q0 -123 -39.5 -236.5t-121.5 -195.5q-166 -166 -453 -166h-78l-92 -426h-336zM705 1102q-39 39 -117 39h-43l-94 -430h45q107 0 170 63q38 38 57.5 97.5t19.5 115.5q0 77 -38 115z" />
    <glyph glyph-name="uni0421" unicode="&#x421;" horiz-adv-x="999" 
d="M549 -20q-224 0 -351.5 148t-127.5 421q0 204 69 407.5t199 333.5q164 164 379 164q258 0 403 -188l-215 -248q-83 117 -182 117q-75 0 -137 -62q-80 -80 -125 -229.5t-45 -274.5q0 -142 49.5 -205t126.5 -63q89 0 194 92l127 -276q-170 -137 -364 -137z" />
    <glyph glyph-name="uni0422" unicode="&#x422;" horiz-adv-x="942" 
d="M176 0l244 1122h-270l69 312h877l-70 -312h-270l-242 -1122h-338z" />
    <glyph glyph-name="uni0423" unicode="&#x423;" horiz-adv-x="1077" 
d="M1274 1434l-821 -1434h-363l258 451l-162 983h340l76 -576l309 576h363z" />
    <glyph glyph-name="uni0424" unicode="&#x424;" horiz-adv-x="1525" 
d="M791 1460h337l-32 -145q200 -38 314 -166t114 -334q-3 -312 -201 -510q-183 -183 -487 -194l-29 -138h-338l31 150q-200 36 -312 164.5t-112 335.5q0 309 198 510q180 180 488 192zM408 629q0 -188 161 -228l140 639q-111 -12 -185 -86q-58 -58 -87 -145t-29 -180z
M1190 809q0 185 -162 225l-139 -637q108 8 184 84q58 58 87.5 146.5t29.5 181.5z" />
    <glyph glyph-name="uni0425" unicode="&#x425;" horiz-adv-x="1050" 
d="M-119 0l481 745l-157 689h352l66 -400l233 400h371l-463 -717l168 -717h-354l-74 432l-252 -432h-371z" />
    <glyph glyph-name="uni0426" unicode="&#x426;" horiz-adv-x="1214" 
d="M1237 1434l-244 -1121h146l-127 -571h-307l57 258h-801l311 1434h336l-241 -1121h290l242 1121h338z" />
    <glyph glyph-name="uni0427" unicode="&#x427;" horiz-adv-x="1089" 
d="M551 0l98 459q-31 -6 -112 -6q-188 0 -297 82t-109 249q0 90 33 228l90 422h336l-98 -476q-15 -58 -15 -92q0 -53 34.5 -74.5t104.5 -21.5q64 0 105 8l141 656h338l-311 -1434h-338z" />
    <glyph glyph-name="uni0428" unicode="&#x428;" horiz-adv-x="1675" 
d="M1786 1434l-311 -1434h-1514l311 1434h336l-243 -1121h253l242 1121h338l-244 -1121h254l244 1121h334z" />
    <glyph glyph-name="uni0429" unicode="&#x429;" horiz-adv-x="1765" 
d="M1786 1434l-244 -1121h146l-127 -571h-308l58 258h-1350l311 1434h336l-243 -1121h253l242 1121h338l-244 -1121h254l244 1121h334z" />
    <glyph glyph-name="uni042A" unicode="&#x42a;" horiz-adv-x="1234" 
d="M152 1128l67 306h596l-96 -441q257 -3 377 -123q106 -100 106 -282q0 -123 -40.5 -233t-117.5 -187q-168 -168 -475 -168h-401l244 1128h-260zM864 553q0 77 -41 115q-40 37 -121 37h-45l-90 -414h47q114 0 177 63q38 38 55.5 93t17.5 106z" />
    <glyph glyph-name="uni042B" unicode="&#x42b;" horiz-adv-x="1511" 
d="M-39 0l311 1434h336l-96 -441q257 -3 377 -123q106 -100 106 -282q0 -124 -40 -233.5t-117 -186.5q-168 -168 -476 -168h-401zM975 0l311 1434h338l-313 -1434h-336zM657 553q0 77 -41 115q-40 37 -120 37h-45l-91 -414h48q113 0 176 63q38 38 55.5 93t17.5 106z" />
    <glyph glyph-name="uni042C" unicode="&#x42c;" horiz-adv-x="1028" 
d="M-39 0l311 1434h336l-96 -441q257 -3 377 -123q106 -100 106 -282q0 -124 -40 -233.5t-117 -186.5q-168 -168 -476 -168h-401zM657 553q0 77 -41 115q-40 37 -120 37h-45l-91 -414h48q113 0 176 63q38 38 55.5 93t17.5 106z" />
    <glyph glyph-name="uni042D" unicode="&#x42d;" horiz-adv-x="1013" 
d="M1018 911q0 -134 -24 -267.5t-86 -272t-154 -230.5q-161 -161 -389 -161q-254 0 -426 172l194 256q115 -115 234 -115q93 3 153 63q79 79 121 226l-408 -2l62 284l389 -4q0 7 1 19.5t1 19.5v10q0 236 -176 236q-112 0 -236 -86l-102 282q180 113 379 113
q223 0 345 -137.5t122 -405.5z" />
    <glyph glyph-name="uni042E" unicode="&#x42e;" horiz-adv-x="1632" 
d="M-39 0l311 1434h336l-119 -555h117q81 279 223 424q157 157 367 157q216 0 330 -141t114 -393q0 -199 -73 -428.5t-203 -364.5q-157 -160 -367 -160q-216 0 -330 142.5t-114 394.5v55h-133l-123 -565h-336zM1018 281q56 0 102 49q82 85 134.5 269.5t52.5 330.5
q0 225 -131 225q-57 0 -103 -49q-55 -57 -99 -170t-65.5 -227.5t-21.5 -204.5q0 -223 131 -223z" />
    <glyph glyph-name="uni042F" unicode="&#x42f;" horiz-adv-x="1089" 
d="M1202 1434l-311 -1434h-336l98 457h-82l-284 -457h-383l368 563q-133 113 -133 309q0 116 39.5 221t112.5 183q158 158 475 158h436zM803 1137h-72q-122 0 -178 -56q-34 -34 -53 -85t-19 -103q0 -162 174 -162h60z" />
    <glyph glyph-name="uni0430" unicode="&#x430;" horiz-adv-x="919" 
d="M199 -20q-101 0 -159 68.5t-58 195.5q0 101 32 196.5t90 153.5q92 92 244 92q101 0 205 -49l6 25q8 31 8 67q0 115 -147 115q-94 0 -209 -47l-35 272q167 55 328 55q188 0 290.5 -83.5t102.5 -243.5q0 -70 -20 -160l-138 -637h-325l22 102q-109 -122 -237 -122zM365 203
q45 0 80.5 36t48.5 101l22 119q-53 24 -96 24q-44 0 -78 -30q-25 -27 -39 -73t-14 -85q0 -92 76 -92z" />
    <glyph glyph-name="uni0431" unicode="&#x431;" horiz-adv-x="1003" 
d="M446 -25q-175 0 -278 103q-115 112 -115 348q0 93 17 206.5t49.5 234t89 232.5t127.5 183q81 81 188 123.5t269 54.5l241 19l13 -293l-285 -25q-114 -7 -180 -31t-111 -69q-66 -70 -117 -211q127 145 297 145q143 0 226.5 -89.5t83.5 -256.5q0 -150 -49 -298.5
t-142 -241.5q-134 -134 -324 -134zM457 254q43 0 78 35q47 43 75.5 139t28.5 180q0 70 -25 105t-69 35q-43 0 -78 -35q-47 -43 -76 -140t-29 -180q0 -70 25.5 -104.5t69.5 -34.5z" />
    <glyph glyph-name="uni0432" unicode="&#x432;" horiz-adv-x="942" 
d="M-51 0l241 1108h361q205 0 298 -73t93 -199q0 -104 -58 -177t-165 -112q66 -32 103.5 -86t37.5 -125q0 -160 -121.5 -248t-343.5 -88h-446zM410 664h69q70 0 110 33t40 94q0 83 -119 83h-55zM317 236h70q76 0 117 35t41 94q0 90 -123 90h-57z" />
    <glyph glyph-name="uni0433" unicode="&#x433;" horiz-adv-x="741" 
d="M-51 0l241 1108h648l-66 -297h-317l-176 -811h-330z" />
    <glyph glyph-name="uni0434" unicode="&#x434;" horiz-adv-x="1130" 
d="M-37 293h115l420 821h381l63 -821h113l-115 -522h-293l51 231h-508l-51 -231h-291zM614 762l-215 -479h226z" />
    <glyph glyph-name="uni0435" unicode="&#x435;" horiz-adv-x="927" 
d="M862 432h-528v-12q0 -166 153 -166q102 0 211 74l82 -248q-160 -105 -344 -105q-196 0 -303.5 115t-107.5 326q0 154 57 316t162 267q137 134 313 134q169 0 259.5 -106.5t90.5 -293.5q0 -128 -45 -301zM465 831q-51 -51 -96 -196h231q14 60 14 108q0 119 -79 119
q-39 0 -70 -31z" />
    <glyph glyph-name="uni0436" unicode="&#x436;" horiz-adv-x="1413" 
d="M989 1108l-96 -410h39l254 410h352l-381 -584l137 -524h-325l-99 418h-36l-84 -418h-326l98 418h-33l-268 -418h-354l393 584l-133 524h328l88 -410h41l82 410h323z" />
    <glyph glyph-name="uni0437" unicode="&#x437;" horiz-adv-x="835" 
d="M324 -25q-102 0 -209 31.5t-197 91.5l139 240q126 -92 256 -92q62 0 93.5 30t31.5 72t-35.5 65t-126.5 23h-120l51 238h143q84 0 125 27.5t41 74.5q0 84 -110 84q-108 0 -236 -67l-61 249q172 88 360 88q180 0 275.5 -78.5t95.5 -209.5q0 -108 -62.5 -185.5
t-171.5 -115.5q142 -70 142 -224q0 -149 -111 -245.5t-313 -96.5z" />
    <glyph glyph-name="uni0438" unicode="&#x438;" horiz-adv-x="1003" 
d="M741 1108h312l-242 -1108h-315l116 528l-354 -528h-309l241 1108h318l-117 -522z" />
    <glyph glyph-name="uni0439" unicode="&#x439;" horiz-adv-x="1003" 
d="M741 1108h312l-242 -1108h-315l116 528l-354 -528h-309l241 1108h318l-117 -522zM653 1176q-135 0 -206 70.5t-64 203.5h184q2 -44 27.5 -70t73.5 -26q96 0 137 96h188q-35 -132 -125 -203t-215 -71z" />
    <glyph glyph-name="uni043A" unicode="&#x43a;" horiz-adv-x="956" 
d="M-51 0l241 1108h328l-90 -410h39l254 410h364l-387 -584l140 -524h-334l-96 416h-41l-88 -416h-330z" />
    <glyph glyph-name="uni043B" unicode="&#x43b;" horiz-adv-x="978" 
d="M780 1114l72 -1114h-326l-6 657l-291 -657h-340l557 1114h334z" />
    <glyph glyph-name="uni043C" unicode="&#x43c;" horiz-adv-x="1114" 
d="M479 205l-98 360l-123 -565h-309l241 1108h302l94 -371l250 371h327l-239 -1108h-308l121 567l-254 -362h-4z" />
    <glyph glyph-name="uni043D" unicode="&#x43d;" horiz-adv-x="997" 
d="M1049 1108l-242 -1108h-328l86 410h-198l-88 -410h-330l241 1108h328l-86 -399h199l88 399h330z" />
    <glyph glyph-name="uni043E" unicode="&#x43e;" horiz-adv-x="976" 
d="M422 -27q-189 0 -291 117.5t-102 317.5q0 159 53.5 324t153.5 265q133 136 319 136q189 0 292 -117.5t103 -317.5q0 -159 -53.5 -324t-153.5 -265q-136 -136 -321 -136zM438 256q41 0 76 35q53 53 88 177.5t35 225.5q0 158 -96 158q-41 0 -78 -37q-52 -52 -86.5 -176.5
t-34.5 -224.5q0 -158 96 -158z" />
    <glyph glyph-name="uni043F" unicode="&#x43f;" horiz-adv-x="999" 
d="M1049 1108l-240 -1108h-328l174 811h-202l-174 -811h-330l241 1108h859z" />
    <glyph glyph-name="uni0440" unicode="&#x440;" horiz-adv-x="1015" 
d="M547 -23q-162 0 -240 160l-92 -424h-328l303 1395h328l-26 -125q59 72 119 109.5t134 37.5q118 0 183 -92.5t65 -261.5q0 -184 -60.5 -390t-168.5 -314q-95 -95 -217 -95zM465 266q41 0 76 35q53 53 87 178.5t34 218.5q0 75 -25 110.5t-66 35.5q-40 0 -75 -35
q-53 -53 -87 -178.5t-34 -218.5q0 -75 24.5 -110.5t65.5 -35.5z" />
    <glyph glyph-name="uni0441" unicode="&#x441;" horiz-adv-x="802" 
d="M420 -25q-178 0 -284.5 115.5t-106.5 329.5q0 147 50.5 305t162.5 270q135 135 311 135q195 0 321 -167l-186 -220q-59 86 -127 86q-49 0 -92 -43q-57 -57 -87 -157.5t-30 -186.5q0 -87 34 -127.5t87 -40.5q61 0 133 60l111 -244q-131 -115 -297 -115z" />
    <glyph glyph-name="uni0442" unicode="&#x442;" horiz-adv-x="851" 
d="M154 1108h788l-65 -297h-232l-174 -811h-328l174 811h-229z" />
    <glyph glyph-name="uni0443" unicode="&#x443;" horiz-adv-x="946" 
d="M199 14l-66 1094h328l-2 -631l264 631h334l-525 -1092q-84 -174 -165 -243.5t-213 -69.5q-121 0 -224 64l90 243q53 -39 107 -39q44 0 72 43z" />
    <glyph glyph-name="uni0444" unicode="&#x444;" horiz-adv-x="1394" 
d="M350 -287l66 291q-180 37 -279.5 159t-99.5 312q0 135 45.5 256.5t130.5 206.5q168 168 444 180l78 350h324l-80 -366q179 -37 279 -158t100 -309q0 -136 -45.5 -258t-130.5 -207q-168 -168 -447 -180l-59 -277h-326zM1042 625q0 169 -133 209l-121 -568q89 9 152 72
q49 52 75.5 131t26.5 156zM352 483q0 -167 131 -207l123 566q-88 -9 -151 -72q-49 -49 -76 -129t-27 -158z" />
    <glyph glyph-name="uni0445" unicode="&#x445;" horiz-adv-x="927" 
d="M467 1108l51 -285l168 285h348l-381 -557l148 -551h-332l-53 305l-176 -305h-351l392 575l-144 533h330z" />
    <glyph glyph-name="uni0446" unicode="&#x446;" horiz-adv-x="1075" 
d="M-51 0l241 1108h328l-174 -809h203l174 809h328l-177 -815h119l-114 -522h-295l53 229h-686z" />
    <glyph glyph-name="uni0447" unicode="&#x447;" horiz-adv-x="964" 
d="M1014 1108l-240 -1108h-328l70 328q-50 -4 -86 -4q-169 0 -260.5 70t-91.5 210q0 53 26 187l68 317h328l-78 -358q-8 -41 -8 -62q0 -70 102 -70q21 0 66 5l104 485h328z" />
    <glyph glyph-name="uni0448" unicode="&#x448;" horiz-adv-x="1486" 
d="M-51 0l241 1108h324l-174 -809h186l174 809h326l-176 -809h186l176 809h324l-242 -1108h-1345z" />
    <glyph glyph-name="uni0449" unicode="&#x449;" horiz-adv-x="1562" 
d="M-51 0l241 1108h324l-174 -809h186l174 809h326l-176 -809h186l176 809h324l-178 -815h121l-115 -522h-295l53 229h-1173z" />
    <glyph glyph-name="uni044A" unicode="&#x44a;" horiz-adv-x="1087" 
d="M1036 471q0 -74 -18.5 -140.5t-60.5 -127.5t-104.5 -105.5t-155.5 -71t-208 -26.5h-372l178 821h-209l64 287h534l-66 -299h7q198 0 304.5 -88t106.5 -250zM719 444q0 117 -121 117h-33l-65 -311h39q89 0 134.5 59t45.5 135z" />
    <glyph glyph-name="uni044B" unicode="&#x44b;" horiz-adv-x="1372" 
d="M868 471q0 -74 -18.5 -140.5t-60.5 -127.5t-104 -105.5t-155 -71t-208 -26.5h-373l241 1108h326l-65 -299h6q198 0 304.5 -88t106.5 -250zM852 0l242 1108h327l-241 -1108h-328zM551 444q0 117 -121 117h-33l-65 -311h39q89 0 134.5 59t45.5 135z" />
    <glyph glyph-name="uni044C" unicode="&#x44c;" horiz-adv-x="919" 
d="M868 471q0 -74 -18.5 -140.5t-60.5 -127.5t-104 -105.5t-155 -71t-208 -26.5h-373l241 1108h326l-65 -299h6q198 0 304.5 -88t106.5 -250zM551 444q0 117 -121 117h-33l-65 -311h39q89 0 134.5 59t45.5 135z" />
    <glyph glyph-name="uni044D" unicode="&#x44d;" horiz-adv-x="835" 
d="M186 676l312 -4v16q0 166 -136 166q-85 0 -186 -61l-65 258q148 79 295 79q191 0 295 -117.5t104 -336.5q0 -149 -48 -300t-145 -257q-71 -72 -149.5 -109t-183.5 -37q-95 0 -189 34.5t-166 98.5l158 236q96 -84 190 -84q72 0 119 47q48 48 74 131l-332 -4z" />
    <glyph glyph-name="uni044E" unicode="&#x44e;" horiz-adv-x="1417" 
d="M-51 0l241 1108h328l-88 -399h96q53 181 162 290q125 131 313 131q187 0 287.5 -116.5t100.5 -315.5q0 -160 -53 -326.5t-152 -265.5q-137 -131 -314 -131q-187 0 -288 117t-101 318h-114l-88 -410h-330zM885 256q38 0 73 35q53 53 87 176t34 225q0 158 -92 158
q-41 0 -76 -35q-53 -53 -85.5 -176t-32.5 -225q0 -158 92 -158z" />
    <glyph glyph-name="uni044F" unicode="&#x44f;" horiz-adv-x="968" 
d="M-102 0l288 438q-96 90 -96 236q0 60 15.5 118t53 116t93.5 101.5t145 71t199 27.5h422l-240 -1108h-325l71 334h-55l-211 -334h-360zM639 860h-61q-59 0 -98.5 -30t-54.5 -69t-15 -83q0 -111 125 -111h40z" />
    <glyph glyph-name="uni0450" unicode="&#x450;" horiz-adv-x="927" 
d="M862 432h-528v-12q0 -166 153 -166q102 0 211 74l82 -248q-160 -105 -344 -105q-196 0 -303.5 115t-107.5 326q0 154 57 316t162 267q137 134 313 134q169 0 259.5 -106.5t90.5 -293.5q0 -128 -45 -301zM465 831q-51 -51 -96 -196h231q14 60 14 108q0 119 -79 119
q-39 0 -70 -31zM500 1192l-215 215l288 100l127 -315h-200z" />
    <glyph glyph-name="uni0451" unicode="&#x451;" horiz-adv-x="927" 
d="M299 1194l55 256h269l-56 -256h-268zM645 1194l55 256h267l-56 -256h-266zM862 432h-528v-12q0 -166 153 -166q102 0 211 74l82 -248q-160 -105 -344 -105q-196 0 -303.5 115t-107.5 326q0 154 57 316t162 267q137 134 313 134q169 0 259.5 -106.5t90.5 -293.5
q0 -128 -45 -301zM465 831q-51 -51 -96 -196h231q14 60 14 108q0 119 -79 119q-39 0 -70 -31z" />
    <glyph glyph-name="uni0452" unicode="&#x452;" horiz-adv-x="995" 
d="M784 1098h-239l-39 -183q68 5 88 5q168 0 260 -71t92 -210q0 -63 -24 -186l-95 -439q-35 -172 -123.5 -240.5t-242.5 -68.5q-82 0 -144 16l48 224q24 -6 47 -6q40 0 60 20t32 78l98 457q8 36 8 61q0 37 -24 52.5t-78 15.5q-47 0 -66 -5l-135 -618h-327l237 1094h-135
l55 249h133l29 125h328l-29 -125h242z" />
    <glyph glyph-name="uni0453" unicode="&#x453;" horiz-adv-x="741" 
d="M387 1182l244 315l276 -100l-295 -215h-225zM-51 0l241 1108h648l-66 -297h-317l-176 -811h-330z" />
    <glyph glyph-name="uni0454" unicode="&#x454;" horiz-adv-x="833" 
d="M700 676l-51 -244l-311 4v-12q0 -88 37 -130t102 -42q76 0 180 59l68 -256q-132 -80 -293 -80q-191 0 -297 115.5t-106 333.5q0 145 50.5 300.5t149.5 258.5q141 147 349 147q197 0 337 -126l-165 -242q-86 86 -177 86q-74 0 -124 -53q-44 -44 -74 -123z" />
    <glyph glyph-name="uni0455" unicode="&#x455;" horiz-adv-x="774" 
d="M326 -25q-225 0 -400 175l154 233q136 -139 242 -139q35 0 56 19t21 50q0 28 -21.5 53.5t-84.5 77.5q-109 86 -158 157t-49 169q0 153 102.5 256.5t274.5 103.5q203 0 368 -145l-151 -235q-117 114 -213 114q-33 0 -52.5 -17t-19.5 -46q0 -28 18 -47.5t93 -81.5
q110 -92 156.5 -162.5t46.5 -163.5q0 -99 -44.5 -182.5t-133 -136t-205.5 -52.5z" />
    <glyph glyph-name="uni0456" unicode="&#x456;" horiz-adv-x="479" 
d="M-45 0l240 1108h329l-239 -1108h-330zM211 1198l59 270h336l-59 -270h-336z" />
    <glyph glyph-name="uni0457" unicode="&#x457;" horiz-adv-x="479" 
d="M72 1184l55 256h268l-55 -256h-268zM418 1184l55 256h266l-55 -256h-266zM-45 0l242 1108h327l-239 -1108h-330z" />
    <glyph glyph-name="uni0458" unicode="&#x458;" horiz-adv-x="479" 
d="M-82 -295q-88 0 -154 14l48 226q24 -6 51 -6q43 0 66.5 25t35.5 85l230 1059h329l-235 -1083q-40 -175 -128 -247.5t-243 -72.5zM211 1198l59 270h336l-59 -270h-336z" />
    <glyph glyph-name="uni0459" unicode="&#x459;" horiz-adv-x="1441" 
d="M-125 0l614 1108h560l-66 -299q196 -1 302 -89.5t106 -248.5q0 -74 -18.5 -140.5t-60.5 -127.5t-104 -105.5t-155.5 -71t-208.5 -26.5h-363l181 836h-5l-442 -836h-340zM1073 444q0 117 -119 117h-24l-68 -311h33q87 0 132.5 59.5t45.5 134.5z" />
    <glyph glyph-name="uni045A" unicode="&#x45a;" horiz-adv-x="1431" 
d="M-51 0l241 1108h328l-88 -399h195l86 399h325l-65 -299q197 -1 303 -89.5t106 -248.5q0 -74 -18.5 -140.5t-60.5 -127.5t-104 -105.5t-155 -71t-208 -26.5h-363l88 410h-194l-89 -410h-327zM1063 444q0 117 -121 117h-24l-66 -311h31q89 0 134.5 59t45.5 135z" />
    <glyph glyph-name="uni045B" unicode="&#x45b;" horiz-adv-x="995" 
d="M784 1098h-239l-39 -183q68 5 88 5q169 0 260.5 -71.5t91.5 -211.5q0 -61 -24 -184l-99 -453h-327l106 494q8 36 8 61q0 37 -24 52.5t-78 15.5q-47 0 -66 -5l-135 -618h-327l237 1094h-135l55 249h133l29 125h328l-29 -125h242z" />
    <glyph glyph-name="uni045C" unicode="&#x45c;" horiz-adv-x="956" 
d="M489 1182l244 315l277 -100l-295 -215h-226zM-51 0l241 1108h328l-90 -410h39l254 410h364l-387 -584l140 -524h-334l-96 416h-41l-88 -416h-330z" />
    <glyph glyph-name="uni045D" unicode="&#x45d;" horiz-adv-x="1003" 
d="M530 1182l-215 215l289 100l127 -315h-201zM741 1108h312l-242 -1108h-315l116 528l-354 -528h-309l241 1108h318l-117 -522z" />
    <glyph glyph-name="uni045E" unicode="&#x45e;" horiz-adv-x="946" 
d="M199 14l-66 1094h328l-2 -631l264 631h334l-525 -1092q-84 -174 -165 -243.5t-213 -69.5q-121 0 -224 64l90 243q53 -39 107 -39q44 0 72 43zM618 1176q-135 0 -206 70.5t-64 203.5h184q2 -44 27.5 -70t73.5 -26q96 0 137 96h188q-35 -132 -125 -203t-215 -71z" />
    <glyph glyph-name="uni045F" unicode="&#x45f;" horiz-adv-x="999" 
d="M-51 0l241 1108h328l-174 -809h203l174 809h328l-240 -1108h-283l-49 -229h-295l54 229h-287z" />
    <glyph glyph-name="uni0462" unicode="&#x462;" horiz-adv-x="1226" 
d="M1020 1034h-299l-35 -164h49q241 0 350 -112q95 -89 95 -252q0 -211 -138 -352q-151 -154 -448 -154h-428l223 1026h-258l59 281h261l32 151h332l-35 -151h299zM846 477q0 55 -31 86q-37 37 -125 37h-63l-68 -321h74q103 0 158 55q55 58 55 143z" />
    <glyph glyph-name="uni0463" unicode="&#x463;" horiz-adv-x="1089" 
d="M977 1108l-55 -250h-289l-29 -127h29q200 0 298.5 -80t98.5 -229q0 -195 -134 -308.5t-376 -113.5h-399l184 854h-213l58 254h210l80 360h324l-78 -360h291zM713 399q0 97 -121 97h-39l-55 -256h49q78 0 122 43t44 116z" />
    <glyph glyph-name="uni0472" unicode="&#x472;" horiz-adv-x="1161" 
d="M715 1460q219 0 336.5 -141t117.5 -399q0 -127 -28 -266.5t-93.5 -283.5t-156.5 -235q-162 -162 -373 -162q-219 0 -337 141.5t-118 399.5q0 127 28.5 267t94 284t156.5 235q160 160 373 160zM668 326q80 80 133 258h-420q-2 -27 -2 -74q0 -244 158 -244q71 0 131 60z
M696 1167q-72 0 -131 -59q-77 -77 -131 -248h416q4 46 4 64q0 243 -158 243z" />
    <glyph glyph-name="uni0473" unicode="&#x473;" horiz-adv-x="960" 
d="M416 -25q-186 0 -286.5 117.5t-100.5 317.5q0 159 52.5 323t154.5 266q128 131 309 131q186 0 287.5 -116.5t101.5 -315.5q0 -159 -53.5 -321.5t-153.5 -267.5q-134 -134 -311 -134zM426 240q47 0 94 41q49 49 88 172h-291v-50q0 -84 29 -124.5t80 -38.5zM442 825
q-46 -46 -86 -161h287q2 14 2 38v3q0 84 -28.5 124.5t-79.5 38.5q-52 0 -95 -43z" />
    <glyph glyph-name="uni0474" unicode="&#x474;" horiz-adv-x="1142" 
d="M240 -6l-56 1440h348l-4 -873l203 479q40 95 75.5 158.5t77.5 112t92.5 75t112.5 39.5t146 13h80l-70 -308h-14q-78 0 -123.5 -41t-108.5 -176l-419 -919h-340z" />
    <glyph glyph-name="uni0475" unicode="&#x475;" horiz-adv-x="987" 
d="M508 -6h-322l-59 1114h332l-13 -647l138 323q54 131 115 204t131.5 99.5t175.5 26.5q48 0 84 -4l-60 -270h-8q-61 0 -102.5 -34t-92.5 -142z" />
    <glyph glyph-name="uni0490" unicode="&#x490;" horiz-adv-x="866" 
d="M958 1122h-415l-246 -1122h-336l311 1434h449l55 245h305z" />
    <glyph glyph-name="uni0491" unicode="&#x491;" horiz-adv-x="741" 
d="M885 1319l-113 -508h-319l-174 -811h-330l241 1108h363l47 211h285z" />
    <glyph glyph-name="uni0492" unicode="&#x492;" horiz-adv-x="911" 
d="M6 0l117 539h-98l51 233h98l143 662h752l-68 -310h-415l-76 -354h201l-49 -231h-203l-115 -539h-338z" />
    <glyph glyph-name="uni0493" unicode="&#x493;" horiz-adv-x="778" 
d="M-14 0l86 393h-90l41 182h88l116 533h647l-65 -297h-317l-52 -236h154l-39 -182h-156l-84 -393h-329z" />
    <glyph glyph-name="uni0496" unicode="&#x496;" horiz-adv-x="1693" 
d="M1829 1434l-506 -744l109 -377h204l-127 -571h-307l58 258h-89l-143 569h-39l-117 -569h-333l129 569h-35l-373 -569h-383l522 748l-178 686h348l127 -566h35l119 566h336l-131 -566h30l363 566h381z" />
    <glyph glyph-name="uni0497" unicode="&#x497;" horiz-adv-x="1454" 
d="M989 1108l-96 -410h39l254 410h352l-381 -584l62 -231h163l-114 -522h-295l53 229h-57l-99 418h-36l-84 -418h-326l98 418h-33l-268 -418h-354l393 584l-133 524h328l88 -410h41l82 410h323z" />
    <glyph glyph-name="uni0498" unicode="&#x498;" horiz-adv-x="974" 
d="M158 -258l65 256q-162 34 -291 139l172 262q146 -114 291 -114q85 0 131.5 46t46.5 118q0 133 -196 133h-135l61 280h146q115 0 174 45t59 121q0 60 -39 91.5t-111 31.5q-112 0 -268 -84l-78 276q198 113 402 113t319 -96t115 -266q0 -280 -287 -394q170 -90 170 -278
q0 -164 -105 -284.5t-286 -149.5l-49 -246h-307z" />
    <glyph glyph-name="uni0499" unicode="&#x499;" horiz-adv-x="835" 
d="M98 -229l60 225q-126 26 -240 102l139 240q126 -92 256 -92q62 0 93.5 30t31.5 72t-35.5 65t-126.5 23h-120l51 238h143q84 0 125 27.5t41 74.5q0 84 -110 84q-108 0 -236 -67l-61 249q172 88 360 88q180 0 275.5 -78.5t95.5 -209.5q0 -108 -62.5 -185.5t-171.5 -115.5
q142 -70 142 -224q0 -128 -82 -217.5t-234 -113.5l-39 -215h-295z" />
    <glyph glyph-name="uni049A" unicode="&#x49a;" horiz-adv-x="1140" 
d="M1264 1434l-500 -746l110 -375h203l-127 -571h-307l57 258h-84l-151 571h-45l-123 -571h-336l311 1434h336l-123 -562h41l353 562h385z" />
    <glyph glyph-name="uni049B" unicode="&#x49b;" horiz-adv-x="999" 
d="M-51 0l241 1108h328l-90 -410h39l254 410h364l-387 -584l62 -231h170l-115 -522h-295l53 229h-69l-96 416h-41l-88 -416h-330z" />
    <glyph glyph-name="uni049C" unicode="&#x49c;" horiz-adv-x="1179" 
d="M1051 0h-324l-100 567l-66 -354h-141l84 367h-88l-125 -580h-330l311 1434h330l-125 -570h88l82 398h139l-94 -379l318 551h352l-455 -742z" />
    <glyph glyph-name="uni049D" unicode="&#x49d;" horiz-adv-x="1050" 
d="M924 0h-312l-75 432l-54 -289h-123l64 289h-64l-92 -432h-319l241 1108h318l-92 -422h63l62 289h123l-72 -287l246 420h336l-363 -569z" />
    <glyph glyph-name="uni04A0" unicode="&#x4a0;" horiz-adv-x="1288" 
d="M168 0l244 1128h-260l67 306h596l-123 -562h41l352 562h385l-499 -746l203 -688h-351l-151 571h-45l-123 -571h-336z" />
    <glyph glyph-name="uni04A1" unicode="&#x4a1;" horiz-adv-x="1126" 
d="M119 0l178 821h-209l62 287h538l-90 -410h39l254 410h364l-387 -584l140 -524h-334l-96 416h-41l-88 -416h-330z" />
    <glyph glyph-name="uni04A2" unicode="&#x4a2;" horiz-adv-x="1220" 
d="M-39 0l311 1434h338l-121 -555h295l121 555h336l-244 -1121h148l-127 -571h-307l57 258h-174l123 565h-295l-123 -565h-338z" />
    <glyph glyph-name="uni04A3" unicode="&#x4a3;" horiz-adv-x="1060" 
d="M1049 1108l-179 -815h107l-115 -522h-295l54 229h-142l86 410h-198l-88 -410h-330l241 1108h328l-86 -399h199l88 399h330z" />
    <glyph glyph-name="uni04A4" unicode="&#x4a4;" horiz-adv-x="1445" 
d="M582 0l123 565h-285l-123 -565h-336l311 1434h336l-121 -555h285l121 555h711l-68 -310h-375l-243 -1124h-336z" />
    <glyph glyph-name="uni04A5" unicode="&#x4a5;" horiz-adv-x="1241" 
d="M473 0l88 410h-196l-89 -410h-327l241 1108h328l-88 -399h197l86 399h624l-65 -297h-297l-176 -811h-326z" />
    <glyph glyph-name="uni04AA" unicode="&#x4aa;" horiz-adv-x="999" 
d="M242 -258l75 289q-119 62 -183 194t-64 324q0 204 69 407.5t199 333.5q164 164 379 164q258 0 403 -188l-215 -248q-83 117 -182 117q-75 0 -137 -62q-80 -80 -125 -229.5t-45 -274.5q0 -142 49.5 -205t126.5 -63q89 0 194 92l127 -276q-140 -115 -317 -135l-47 -240
h-307z" />
    <glyph glyph-name="uni04AB" unicode="&#x4ab;" horiz-adv-x="802" 
d="M143 -229l68 256q-182 108 -182 393q0 147 50.5 305t162.5 270q135 135 311 135q195 0 321 -167l-186 -220q-59 86 -127 86q-49 0 -92 -43q-57 -57 -87 -157.5t-30 -186.5q0 -87 34 -127.5t87 -40.5q61 0 133 60l111 -244q-104 -90 -240 -110l-39 -209h-295z" />
    <glyph glyph-name="uni04AE" unicode="&#x4ae;" 
d="M217 0l119 541l-166 893h346l64 -516l286 516h367l-563 -908l-115 -526h-338z" />
    <glyph glyph-name="uni04AF" unicode="&#x4af;" horiz-adv-x="946" 
d="M453 -287h-328l68 303l-66 1092h330l-8 -645l272 645h338l-537 -1085z" />
    <glyph glyph-name="uni04B0" unicode="&#x4b0;" 
d="M217 0l76 346h-211l51 232h195l-158 856h346l64 -516l286 516h367l-533 -856h193l-49 -232h-213l-76 -346h-338z" />
    <glyph glyph-name="uni04B1" unicode="&#x4b1;" horiz-adv-x="946" 
d="M1059 1108l-459 -926h166l-39 -182h-211l-63 -287h-328l63 287h-208l40 182h162l-55 926h330l-8 -645l272 645h338z" />
    <glyph glyph-name="uni04B2" unicode="&#x4b2;" horiz-adv-x="1124" 
d="M-119 0l481 745l-157 689h352l66 -400l233 400h371l-463 -717l94 -404h191l-127 -571h-308l58 258h-94l-74 432l-252 -432h-371z" />
    <glyph glyph-name="uni04B3" unicode="&#x4b3;" horiz-adv-x="966" 
d="M467 1108l51 -285l168 285h348l-381 -557l68 -258h172l-115 -522h-295l54 229h-68l-53 305l-176 -305h-351l392 575l-144 533h330z" />
    <glyph glyph-name="uni04B6" unicode="&#x4b6;" horiz-adv-x="1179" 
d="M551 0l98 459q-31 -6 -112 -6q-188 0 -297 82t-109 249q0 90 33 228l90 422h336l-98 -476q-15 -58 -15 -92q0 -53 34.5 -74.5t104.5 -21.5q64 0 105 8l141 656h338l-244 -1121h146l-127 -571h-307l57 258h-174z" />
    <glyph glyph-name="uni04B7" unicode="&#x4b7;" horiz-adv-x="1040" 
d="M1014 1108l-176 -815h118l-114 -522h-295l53 229h-154l70 328q-50 -4 -86 -4q-169 0 -260.5 70t-91.5 210q0 53 26 187l68 317h328l-78 -358q-8 -41 -8 -62q0 -70 102 -70q21 0 66 5l104 485h328z" />
    <glyph glyph-name="uni04B8" unicode="&#x4b8;" horiz-adv-x="1120" 
d="M610 1157h144l-92 -389q60 4 94 10l143 656h332l-311 -1434h-332l100 463q-18 -3 -92 -8l-57 -283h-142l66 287q-156 18 -243 101.5t-87 236.5q0 82 33 225l88 412h330l-99 -463q-16 -75 -16 -111q0 -69 63 -84z" />
    <glyph glyph-name="uni04B9" unicode="&#x4b9;" horiz-adv-x="1003" 
d="M631 909l-70 -297q38 0 68 6l108 490h318l-242 -1108h-317l71 332l-67 -6l-41 -199h-121l45 201q-305 25 -305 280q0 66 26 183l68 317h315l-75 -363q-11 -57 -11 -61q0 -48 48 -63l59 288h123z" />
    <glyph glyph-name="uni04BA" unicode="&#x4ba;" horiz-adv-x="1089" 
d="M612 1434l-98 -459q31 6 113 6q188 0 296.5 -82.5t108.5 -249.5q0 -89 -33 -227l-90 -422h-336l99 475q14 55 14 92q0 53 -34.5 75t-104.5 22q-59 0 -105 -9l-141 -655h-338l311 1434h338z" />
    <glyph glyph-name="uni04BB" unicode="&#x4bb;" horiz-adv-x="976" 
d="M-51 0l319 1468h328l-104 -485q116 147 258 147q108 0 167.5 -64t59.5 -171q0 -60 -19 -141l-161 -754h-330l147 680q13 57 13 82q0 76 -74 76q-47 0 -78 -33t-43 -94l-153 -711h-330z" />
    <glyph glyph-name="uni04C0" unicode="&#x4c0;" horiz-adv-x="509" 
d="M-35 0l314 1434h335l-311 -1434h-338z" />
    <glyph glyph-name="uni04C1" unicode="&#x4c1;" horiz-adv-x="1648" 
d="M1034 1499q-132 0 -201 63.5t-51 186.5h181q6 -76 102 -76q88 0 125 76h194q-37 -126 -127.5 -188t-222.5 -62zM1186 1434l-131 -566h30l363 566h381l-506 -744l199 -690h-351l-143 569h-39l-117 -569h-333l129 569h-35l-373 -569h-383l522 748l-178 686h348l127 -566h35
l119 566h336z" />
    <glyph glyph-name="uni04C2" unicode="&#x4c2;" horiz-adv-x="1413" 
d="M989 1108l-96 -410h39l254 410h352l-381 -584l137 -524h-325l-99 418h-36l-84 -418h-326l98 418h-33l-268 -418h-354l393 584l-133 524h328l88 -410h41l82 410h323zM858 1176q-135 0 -206 70.5t-64 203.5h184q2 -44 27 -70t73 -26q97 0 138 96h188q-35 -132 -125 -203
t-215 -71z" />
    <glyph glyph-name="uni04CF" unicode="&#x4cf;" horiz-adv-x="479" 
d="M-45 0l319 1468h328l-319 -1468h-328z" />
    <glyph glyph-name="uni04D0" unicode="&#x4d0;" horiz-adv-x="1124" 
d="M-125 0l700 1440h365l76 -1440h-340l-6 260h-332l-117 -260h-346zM461 537h205l-7 446zM778 1513q-132 0 -201 63.5t-51 186.5h181q6 -75 102 -75q88 0 125 75h194q-37 -126 -127.5 -188t-222.5 -62z" />
    <glyph glyph-name="uni04D1" unicode="&#x4d1;" horiz-adv-x="919" 
d="M199 -20q-101 0 -159 68.5t-58 195.5q0 101 32 196.5t90 153.5q92 92 244 92q101 0 205 -49l6 25q8 31 8 67q0 115 -147 115q-94 0 -209 -47l-35 272q167 55 328 55q188 0 290.5 -83.5t102.5 -243.5q0 -70 -20 -160l-138 -637h-325l22 102q-109 -122 -237 -122zM365 203
q45 0 80.5 36t48.5 101l22 119q-53 24 -96 24q-44 0 -78 -30q-25 -27 -39 -73t-14 -85q0 -92 76 -92zM604 1186q-135 0 -206 70.5t-64 203.5h184q2 -44 27 -70t73 -26q97 0 138 96h188q-35 -132 -125 -203t-215 -71z" />
    <glyph glyph-name="uni04D2" unicode="&#x4d2;" horiz-adv-x="1124" 
d="M-125 0l700 1440h365l76 -1440h-340l-6 260h-332l-117 -260h-346zM461 537h205l-7 446zM463 1522l53 243h272l-53 -243h-272zM819 1522l53 243h273l-53 -243h-273z" />
    <glyph glyph-name="uni04D3" unicode="&#x4d3;" horiz-adv-x="919" 
d="M199 -20q-101 0 -159 68.5t-58 195.5q0 101 32 196.5t90 153.5q92 92 244 92q101 0 205 -49l6 25q8 31 8 67q0 115 -147 115q-94 0 -209 -47l-35 272q167 55 328 55q188 0 290.5 -83.5t102.5 -243.5q0 -70 -20 -160l-138 -637h-325l22 102q-109 -122 -237 -122zM365 203
q45 0 80.5 36t48.5 101l22 119q-53 24 -96 24q-44 0 -78 -30q-25 -27 -39 -73t-14 -85q0 -92 76 -92zM283 1194l55 256h268l-55 -256h-268zM629 1194l55 256h266l-55 -256h-266z" />
    <glyph glyph-name="uni04D4" unicode="&#x4d4;" horiz-adv-x="1546" 
d="M-131 0l790 1434h1016l-69 -308h-449l-55 -256h401l-63 -297h-402l-57 -266h459l-70 -307h-790l57 260h-289l-135 -260h-344zM494 537h202l129 591h-24z" />
    <glyph glyph-name="uni04D5" unicode="&#x4d5;" horiz-adv-x="1419" 
d="M244 -20q-122 0 -192 69t-70 193q0 102 32 198t90 154q92 92 244 92q101 0 205 -49l6 25q8 31 8 67q0 115 -147 115q-94 0 -209 -47l-35 272q167 55 328 55q204 0 287 -114q126 123 276 123q155 0 243.5 -107.5t88.5 -292.5q0 -128 -45 -301h-529v-12q0 -166 154 -166
q102 0 211 74l82 -248q-163 -107 -340 -107q-246 0 -348 181q-146 -174 -340 -174zM373 207q41 0 85 28t77 72q-13 87 -7 150q-51 28 -106 28q-51 0 -78 -30q-27 -27 -41 -70.5t-14 -83.5q0 -94 84 -94zM956 831q-51 -51 -96 -196h232q14 60 14 108q0 119 -80 119
q-39 0 -70 -31z" />
    <glyph glyph-name="uni04D6" unicode="&#x4d6;" horiz-adv-x="944" 
d="M688 1499q-132 0 -201 63.5t-51 186.5h180q6 -76 103 -76q88 0 125 76h194q-37 -126 -127.5 -188t-222.5 -62zM-39 0l311 1434h801l-69 -308h-461l-58 -256h416l-63 -297h-416l-57 -266h473l-70 -307h-807z" />
    <glyph glyph-name="uni04D7" unicode="&#x4d7;" horiz-adv-x="927" 
d="M862 432h-528v-12q0 -166 153 -166q102 0 211 74l82 -248q-160 -105 -344 -105q-196 0 -303.5 115t-107.5 326q0 154 57 316t162 267q137 134 313 134q169 0 259.5 -106.5t90.5 -293.5q0 -128 -45 -301zM465 831q-51 -51 -96 -196h231q14 60 14 108q0 119 -79 119
q-39 0 -70 -31zM621 1186q-135 0 -206.5 70.5t-64.5 203.5h185q2 -44 27 -70t73 -26q96 0 137 96h189q-35 -132 -125 -203t-215 -71z" />
    <glyph glyph-name="uni04D8" unicode="&#x4d8;" horiz-adv-x="1120" 
d="M59 449q0 154 60 409h676q2 14 2 45q0 240 -195 240q-110 0 -276 -99l-97 293q213 119 410 119q228 0 355.5 -141.5t127.5 -401.5q0 -215 -73.5 -428.5t-200.5 -345.5q-161 -166 -377 -166q-199 0 -305.5 132t-106.5 344zM618 334q81 81 136 266h-361q-18 -71 -18 -156
q0 -74 28 -121t93 -47q64 0 122 58z" />
    <glyph glyph-name="uni04D9" unicode="&#x4d9;" horiz-adv-x="927" 
d="M23 375q0 128 45 301h528v12q0 166 -154 166q-102 0 -211 -74l-81 248q160 105 344 105q196 0 303.5 -115t107.5 -326q0 -154 -57 -316t-162 -267q-137 -134 -313 -134q-169 0 -259.5 106.5t-90.5 293.5zM465 276q52 52 96 197h-231q-15 -65 -15 -108q0 -119 80 -119
q40 0 70 30z" />
    <glyph glyph-name="uni04DC" unicode="&#x4dc;" horiz-adv-x="1648" 
d="M721 1507l53 244h273l-54 -244h-272zM1077 1507l53 244h273l-53 -244h-273zM1186 1434l-131 -566h30l363 566h381l-506 -744l199 -690h-351l-143 569h-39l-117 -569h-333l129 569h-35l-373 -569h-383l522 748l-178 686h348l127 -566h35l119 566h336z" />
    <glyph glyph-name="uni04DD" unicode="&#x4dd;" horiz-adv-x="1413" 
d="M537 1184l55 256h268l-55 -256h-268zM883 1184l55 256h266l-55 -256h-266zM989 1108l-96 -410h39l254 410h352l-381 -584l137 -524h-325l-99 418h-36l-84 -418h-326l98 418h-33l-268 -418h-354l393 584l-133 524h328l88 -410h41l82 410h323z" />
    <glyph glyph-name="uni04DE" unicode="&#x4de;" horiz-adv-x="974" 
d="M346 1522l53 243h273l-54 -243h-272zM702 1522l54 243h272l-53 -243h-273zM264 1067l-78 276q198 113 402 113t319 -96t115 -266q0 -280 -287 -394q170 -90 170 -278q0 -190 -138 -317.5t-368 -127.5q-266 0 -467 160l172 262q146 -114 291 -114q85 0 131.5 46t46.5 118
q0 133 -196 133h-135l61 280h146q115 0 174 45t59 121q0 60 -39 91.5t-111 31.5q-112 0 -268 -84z" />
    <glyph glyph-name="uni04DF" unicode="&#x4df;" horiz-adv-x="835" 
d="M223 1194l56 256h268l-55 -256h-269zM569 1194l56 256h266l-55 -256h-267zM324 -25q-102 0 -209 31.5t-197 91.5l139 240q126 -92 256 -92q62 0 93.5 30t31.5 72t-35.5 65t-126.5 23h-120l51 238h143q84 0 125 27.5t41 74.5q0 84 -110 84q-108 0 -236 -67l-61 249
q172 88 360 88q180 0 275.5 -78.5t95.5 -209.5q0 -108 -62.5 -185.5t-171.5 -115.5q142 -70 142 -224q0 -149 -111 -245.5t-313 -96.5z" />
    <glyph glyph-name="uni04E2" unicode="&#x4e2;" horiz-adv-x="1159" 
d="M457 1513l47 207h626l-45 -207h-628zM928 1434h342l-312 -1434h-331l164 752l-506 -752h-324l311 1434h330l-156 -721z" />
    <glyph glyph-name="uni04E3" unicode="&#x4e3;" horiz-adv-x="1003" 
d="M342 1192l43 201h594l-43 -201h-594zM741 1108h312l-242 -1108h-315l116 528l-354 -528h-309l241 1108h318l-117 -522z" />
    <glyph glyph-name="uni04E4" unicode="&#x4e4;" horiz-adv-x="1159" 
d="M457 1507l53 244h272l-53 -244h-272zM813 1507l53 244h273l-54 -244h-272zM928 1434h342l-312 -1434h-331l164 752l-506 -752h-324l311 1434h330l-156 -721z" />
    <glyph glyph-name="uni04E5" unicode="&#x4e5;" horiz-adv-x="1003" 
d="M332 1184l55 256h268l-55 -256h-268zM678 1184l55 256h266l-55 -256h-266zM741 1108h312l-242 -1108h-315l116 528l-354 -528h-309l241 1108h318l-117 -522z" />
    <glyph glyph-name="uni04E6" unicode="&#x4e6;" horiz-adv-x="1175" 
d="M473 1522l53 243h273l-54 -243h-272zM829 1522l54 243h272l-53 -243h-273zM721 1460q222 0 342.5 -141.5t120.5 -398.5q0 -198 -74 -425t-207 -360q-162 -162 -377 -162q-221 0 -342 144t-121 399q0 198 74 424.5t207 359.5q160 160 377 160zM547 281q64 0 115 51
q86 86 135 268t49 320q0 125 -37 180t-109 55q-61 0 -114 -53q-85 -85 -135 -267t-50 -321q0 -124 37 -178.5t109 -54.5z" />
    <glyph glyph-name="uni04E7" unicode="&#x4e7;" horiz-adv-x="976" 
d="M324 1194l55 256h268l-55 -256h-268zM670 1194l55 256h266l-55 -256h-266zM422 -27q-189 0 -291 117.5t-102 317.5q0 159 53.5 324t153.5 265q133 136 319 136q189 0 292 -117.5t103 -317.5q0 -159 -53.5 -324t-153.5 -265q-136 -136 -321 -136zM438 256q41 0 76 35
q53 53 88 177.5t35 225.5q0 158 -96 158q-41 0 -78 -37q-52 -52 -86.5 -176.5t-34.5 -224.5q0 -158 96 -158z" />
    <glyph glyph-name="uni04E8" unicode="&#x4e8;" horiz-adv-x="1161" 
d="M715 1460q219 0 336.5 -141t117.5 -399q0 -127 -28 -266.5t-93.5 -283.5t-156.5 -235q-162 -162 -373 -162q-219 0 -337 141.5t-118 399.5q0 127 28.5 267t94 284t156.5 235q160 160 373 160zM668 326q80 80 133 258h-420q-2 -27 -2 -74q0 -244 158 -244q71 0 131 60z
M696 1167q-72 0 -131 -59q-77 -77 -131 -248h416q4 46 4 64q0 243 -158 243z" />
    <glyph glyph-name="uni04E9" unicode="&#x4e9;" horiz-adv-x="960" 
d="M416 -25q-186 0 -286.5 117.5t-100.5 317.5q0 159 52.5 323t154.5 266q128 131 309 131q186 0 287.5 -116.5t101.5 -315.5q0 -159 -53.5 -321.5t-153.5 -267.5q-134 -134 -311 -134zM426 240q47 0 94 41q49 49 88 172h-291v-50q0 -84 29 -124.5t80 -38.5zM442 825
q-46 -46 -86 -161h287q2 14 2 38v3q0 84 -28.5 124.5t-79.5 38.5q-52 0 -95 -43z" />
    <glyph glyph-name="uni04EE" unicode="&#x4ee;" horiz-adv-x="1077" 
d="M418 1513l47 207h627l-45 -207h-629zM1274 1434l-821 -1434h-363l258 451l-162 983h340l76 -576l309 576h363z" />
    <glyph glyph-name="uni04EF" unicode="&#x4ef;" horiz-adv-x="946" 
d="M199 14l-66 1094h328l-2 -631l264 631h334l-525 -1092q-84 -174 -165 -243.5t-213 -69.5q-121 0 -224 64l90 243q53 -39 107 -39q44 0 72 43zM309 1192l43 201h594l-43 -201h-594z" />
    <glyph glyph-name="uni04F0" unicode="&#x4f0;" horiz-adv-x="1077" 
d="M418 1507l53 244h272l-53 -244h-272zM774 1507l53 244h273l-53 -244h-273zM1274 1434l-821 -1434h-363l258 451l-162 983h340l76 -576l309 576h363z" />
    <glyph glyph-name="uni04F1" unicode="&#x4f1;" horiz-adv-x="946" 
d="M199 14l-66 1094h328l-2 -631l264 631h334l-525 -1092q-84 -174 -165 -243.5t-213 -69.5q-121 0 -224 64l90 243q53 -39 107 -39q44 0 72 43zM297 1184l55 256h269l-56 -256h-268zM643 1184l55 256h267l-56 -256h-266z" />
    <glyph glyph-name="uni04F2" unicode="&#x4f2;" horiz-adv-x="1077" 
d="M1274 1434l-821 -1434h-363l258 451l-162 983h340l76 -576l309 576h363zM743 1505l125 150l-225 -150h-225l229 273l250 -88l74 88l268 -92l-272 -181h-224z" />
    <glyph glyph-name="uni04F3" unicode="&#x4f3;" horiz-adv-x="946" 
d="M199 14l-66 1094h328l-2 -631l264 631h334l-525 -1092q-84 -174 -165 -243.5t-213 -69.5q-121 0 -224 64l90 243q53 -39 107 -39q44 0 72 43zM610 1182l146 194l-250 -194h-201l240 315l231 -92l70 92l244 -96l-281 -219h-199z" />
    <glyph glyph-name="uni04F4" unicode="&#x4f4;" horiz-adv-x="1089" 
d="M551 0l98 459q-31 -6 -112 -6q-188 0 -297 82t-109 249q0 90 33 228l90 422h336l-98 -476q-15 -58 -15 -92q0 -53 34.5 -74.5t104.5 -21.5q64 0 105 8l141 656h338l-311 -1434h-338zM424 1507l53 244h273l-54 -244h-272zM780 1507l54 244h272l-53 -244h-273z" />
    <glyph glyph-name="uni04F5" unicode="&#x4f5;" horiz-adv-x="964" 
d="M299 1184l55 256h269l-56 -256h-268zM645 1184l55 256h267l-56 -256h-266zM1014 1108l-240 -1108h-328l70 328q-50 -4 -86 -4q-169 0 -260.5 70t-91.5 210q0 53 26 187l68 317h328l-78 -358q-8 -41 -8 -62q0 -70 102 -70q21 0 66 5l104 485h328z" />
    <glyph glyph-name="uni04F8" unicode="&#x4f8;" horiz-adv-x="1511" 
d="M-39 0l311 1434h336l-96 -441q257 -3 377 -123q106 -100 106 -282q0 -124 -40 -233.5t-117 -186.5q-168 -168 -476 -168h-401zM975 0l311 1434h338l-313 -1434h-336zM657 553q0 77 -41 115q-40 37 -120 37h-45l-91 -414h48q113 0 176 63q38 38 55.5 93t17.5 106z
M649 1507l53 244h273l-53 -244h-273zM1006 1507l53 244h272l-53 -244h-272z" />
    <glyph glyph-name="uni04F9" unicode="&#x4f9;" horiz-adv-x="1372" 
d="M514 1184l55 256h269l-56 -256h-268zM860 1184l55 256h267l-56 -256h-266zM868 471q0 -74 -18.5 -140.5t-60.5 -127.5t-104 -105.5t-155 -71t-208 -26.5h-373l241 1108h326l-65 -299h6q198 0 304.5 -88t106.5 -250zM852 0l242 1108h327l-241 -1108h-328zM551 444
q0 117 -121 117h-33l-65 -311h39q89 0 134.5 59t45.5 135z" />
    <glyph glyph-name="Wgrave" unicode="&#x1e80;" horiz-adv-x="1622" 
d="M887 1505l-213 176l311 97l129 -273h-227zM190 -6l3 1440h346l-35 -830l346 832h289l-13 -832l324 830h356l-622 -1440h-332v754l-330 -754h-332z" />
    <glyph glyph-name="wgrave" unicode="&#x1e81;" horiz-adv-x="1335" 
d="M135 -6l-2 1114h322l-29 -569l229 571h260l-16 -571l221 569h322l-486 -1114h-290l-2 547l-236 -547h-293zM698 1182l-215 215l289 100l127 -315h-201z" />
    <glyph glyph-name="Wacute" unicode="&#x1e82;" horiz-adv-x="1622" 
d="M879 1505l231 273l303 -97l-285 -176h-249zM190 -6l3 1440h346l-35 -830l346 832h289l-13 -832l324 830h356l-622 -1440h-332v754l-330 -754h-332z" />
    <glyph glyph-name="wacute" unicode="&#x1e83;" horiz-adv-x="1335" 
d="M680 1182l244 315l276 -100l-295 -215h-225zM135 -6l-2 1114h322l-29 -569l229 571h260l-16 -571l221 569h322l-486 -1114h-290l-2 547l-236 -547h-293z" />
    <glyph glyph-name="Wdieresis" unicode="&#x1e84;" horiz-adv-x="1622" 
d="M696 1507l54 244h272l-53 -244h-273zM1053 1507l53 244h272l-53 -244h-272zM190 -6l3 1440h346l-35 -830l346 832h289l-13 -832l324 830h356l-622 -1440h-332v754l-330 -754h-332z" />
    <glyph glyph-name="wdieresis" unicode="&#x1e85;" horiz-adv-x="1335" 
d="M498 1184l55 256h268l-55 -256h-268zM844 1184l55 256h266l-55 -256h-266zM135 -6l-2 1114h322l-29 -569l229 571h260l-16 -571l221 569h322l-486 -1114h-290l-2 547l-236 -547h-293z" />
    <glyph glyph-name="Ygrave" unicode="&#x1ef2;" 
d="M217 0l119 541l-166 893h346l64 -516l286 516h367l-563 -908l-115 -526h-338zM580 1505l-213 176l311 97l129 -273h-227z" />
    <glyph glyph-name="ygrave" unicode="&#x1ef3;" horiz-adv-x="946" 
d="M199 14l-66 1094h328l-2 -631l264 631h334l-525 -1092q-84 -174 -165 -243.5t-213 -69.5q-121 0 -224 64l90 243q53 -39 107 -39q44 0 72 43zM498 1182l-215 215l288 100l127 -315h-200z" />
    <glyph glyph-name="enspace" unicode="&#x2002;" 
 />
    <glyph glyph-name="emspace" unicode="&#x2003;" horiz-adv-x="2048" 
 />
    <glyph glyph-name="threeperemspace" unicode="&#x2004;" horiz-adv-x="681" 
 />
    <glyph glyph-name="fourperemspace" unicode="&#x2005;" horiz-adv-x="512" 
 />
    <glyph glyph-name="thinspace" unicode="&#x2009;" horiz-adv-x="272" 
 />
    <glyph glyph-name="hairspace" unicode="&#x200a;" horiz-adv-x="153" 
 />
    <glyph glyph-name="endash" unicode="&#x2013;" horiz-adv-x="970" 
d="M53 492l66 296h837l-65 -296h-838z" />
    <glyph glyph-name="emdash" unicode="&#x2014;" horiz-adv-x="1529" 
d="M53 492l66 296h1397l-64 -296h-1399z" />
    <glyph glyph-name="quoteleft" unicode="&#x2018;" horiz-adv-x="507" 
d="M131 776l70 316q36 178 139.5 261t288.5 91l10 -129q-207 -29 -236 -187h158l-78 -352h-352z" />
    <glyph glyph-name="quoteright" unicode="&#x2019;" horiz-adv-x="507" 
d="M121 766l-10 127q205 29 235 188h-156l78 353h353l-70 -316q-38 -178 -141.5 -261t-288.5 -91z" />
    <glyph glyph-name="quotesinglbase" unicode="&#x201a;" horiz-adv-x="489" 
d="M-123 -315l-10 127q207 29 237 188h-159l80 354h352l-70 -317q-38 -178 -141 -261t-289 -91z" />
    <glyph glyph-name="quotedblleft" unicode="&#x201c;" horiz-adv-x="950" 
d="M129 774l70 318q38 175 139.5 258t282.5 94l10 -129q-198 -28 -228 -187h150l-78 -354h-346zM580 774l69 318q38 175 139.5 258t282.5 94l10 -129q-197 -28 -227 -187h147l-77 -354h-344z" />
    <glyph glyph-name="quotedblright" unicode="&#x201d;" horiz-adv-x="950" 
d="M121 766l-10 127q199 29 229 188h-150l78 353h344l-69 -316q-38 -176 -139.5 -258.5t-282.5 -93.5zM571 766l-10 127q197 28 227 188h-149l78 353h346l-70 -316q-38 -176 -139.5 -258.5t-282.5 -93.5z" />
    <glyph glyph-name="quotedblbase" unicode="&#x201e;" horiz-adv-x="929" 
d="M-123 -315l-10 127q199 29 229 188h-151l80 354h344l-70 -317q-38 -175 -139.5 -258t-282.5 -94zM328 -315l-11 127q198 29 228 188h-150l78 354h346l-69 -317q-38 -175 -139.5 -258t-282.5 -94z" />
    <glyph glyph-name="dagger" unicode="&#x2020;" horiz-adv-x="638" 
d="M203 479l145 541l-196 -23l45 205l182 -22l24 254h218l-91 -254l195 22l-45 -205l-186 23l-93 -541h-198z" />
    <glyph glyph-name="daggerdbl" unicode="&#x2021;" horiz-adv-x="657" 
d="M100 0l90 254l-194 -23l43 205l190 -20l33 301l96 303l-196 -23l45 205l182 -22l25 254h215l-88 -254l192 22l-43 -205l-188 23l-33 -303l-96 -301l194 20l-43 -205l-184 23l-23 -254h-217z" />
    <glyph glyph-name="bullet" unicode="&#x2022;" horiz-adv-x="841" 
d="M506 1075q108 0 170.5 -65.5t62.5 -186.5q0 -99 -34 -201t-95 -163q-86 -86 -202 -86q-108 0 -171 66.5t-63 187.5q0 97 34 199t95 163q80 86 203 86z" />
    <glyph glyph-name="ellipsis" unicode="&#x2026;" horiz-adv-x="1495" 
d="M-53 0l78 352h350l-76 -352h-352zM453 0l75 352h353l-78 -352h-350zM956 0l78 352h350l-75 -352h-353z" />
    <glyph glyph-name="perthousand" unicode="&#x2030;" horiz-adv-x="2076" 
d="M96 0l590 758l506 676h209l-588 -756l-506 -678h-211zM381 659q-117 0 -181.5 77.5t-64.5 217.5q0 115 37.5 229t108.5 185q82 82 194 82q117 0 181.5 -77.5t64.5 -217.5q0 -117 -36.5 -229.5t-106.5 -184.5q-85 -82 -197 -82zM393 848q27 0 47 20q36 38 59 128.5
t23 160.5q0 105 -59 105q-24 0 -47 -23q-36 -36 -59 -126.5t-23 -162.5q0 -102 59 -102zM1024 -16q-118 0 -183 78.5t-65 218.5q0 115 37.5 227.5t108.5 183.5q81 84 194 84q118 0 183 -77.5t65 -217.5q0 -117 -37 -229.5t-108 -183.5q-84 -84 -195 -84zM1034 174
q26 0 47 21q38 38 60 126.5t22 161.5q0 105 -57 105q-24 0 -47 -23q-38 -34 -60 -123.5t-22 -165.5q0 -102 57 -102zM1671 -16q-117 0 -181.5 78.5t-64.5 218.5q0 113 37 227t107 184q84 84 196 84q117 0 181.5 -77.5t64.5 -217.5q0 -117 -36.5 -229t-106.5 -184
q-84 -84 -197 -84zM1683 174q27 0 48 21q36 38 58.5 127.5t22.5 160.5q0 105 -59 105q-24 0 -47 -23q-36 -36 -59 -126.5t-23 -162.5q0 -102 59 -102z" />
    <glyph glyph-name="guilsinglleft" unicode="&#x2039;" horiz-adv-x="589" 
d="M238 80l-199 442l14 62l389 440l176 -125l-272 -364l117 -361z" />
    <glyph glyph-name="guilsinglright" unicode="&#x203a;" horiz-adv-x="589" 
d="M350 1020l199 -442l-14 -62l-390 -440l-176 125l273 364l-117 361z" />
    <glyph glyph-name="Euro" unicode="&#x20ac;" horiz-adv-x="1013" 
d="M86 778l45 211h113q69 206 190 322q144 147 348 147q214 0 367 -176l-201 -225q-25 27 -44 44t-52 32.5t-68 15.5q-72 0 -127 -55q-35 -35 -71 -109h262l-45 -207h-281q-9 -40 -22 -114h278l-43 -207h-254q4 -88 47 -130t113 -42q37 0 73 13t50 22t43 30l106 -266
q-156 -109 -313 -109q-200 0 -321 124t-125 354h-140l47 213h109l20 112h-104z" />
    <glyph glyph-name="hryvnia" unicode="&#x20b4;" horiz-adv-x="999" 
d="M918 487l-361 64q-87 -64 -123.5 -105.5t-36.5 -83.5q0 -40 26.5 -63t78.5 -23q114 0 268 101l100 -273q-207 -127 -411 -127q-193 0 -297.5 93t-104.5 254q0 88 30.5 156t96.5 138l-135 25l41 113l199 -37l121 94l-279 51l41 113l367 -66q72 56 101.5 92.5t29.5 73.5
q0 80 -103 80q-107 0 -233 -86l-94 270q182 115 385 115q188 0 287.5 -95t99.5 -243q0 -150 -109 -272l137 -25l-41 -112l-194 34l-121 -94l274 -49z" />
    <glyph glyph-name="numero" unicode="&#x2116;" horiz-adv-x="1718" 
d="M-45 0l315 1434h303l115 -695l154 695h305l-316 -1434h-288l-121 729l-160 -729h-307zM1397 567q-128 0 -196 82.5t-66 224.5q0 128 42 266.5t117 213.5q94 94 222 94t196 -82.5t66 -226.5q0 -123 -44 -263t-118 -214q-92 -95 -219 -95zM1413 776q26 0 49 23
q34 34 63 155t29 193q0 92 -57 92q-28 0 -47 -22q-34 -34 -63 -155t-29 -194q0 -92 55 -92zM1014 283l43 192h567l-43 -192h-567z" />
    <glyph glyph-name="published" unicode="&#x2117;" horiz-adv-x="1267" 
d="M532 1135h185q143 0 209.5 -66.5t66.5 -169.5q0 -143 -91 -240.5t-255 -97.5h-47l-51 -242h-191zM801 885q0 41 -23 62.5t-63 21.5h-27l-53 -244h35q62 0 96.5 47.5t34.5 112.5zM758 1460q220 0 353.5 -153t133.5 -416q0 -92 -13.5 -186.5t-42.5 -195.5t-83 -197
t-127 -169q-170 -170 -406 -170q-222 0 -355.5 154.5t-133.5 417.5q0 94 13 187.5t42 193.5t83 195t128 169q170 170 408 170zM580 51q198 0 344 146q86 86 142.5 212t77.5 243.5t21 236.5q0 230 -109.5 362.5t-303.5 132.5q-107 0 -189.5 -35.5t-156.5 -109.5
q-85 -85 -141.5 -211t-78.5 -244.5t-22 -236.5q0 -232 110 -364t306 -132z" />
    <glyph glyph-name="servicemark" unicode="&#x2120;" horiz-adv-x="1083" 
d="M307 786q-122 0 -215 93l78 118q71 -71 137 -71q58 0 58 49q0 18 -13 34t-51 46q-60 49 -88.5 88t-28.5 94q0 88 60 145q60 60 155 60q117 0 197 -80l-82 -117q-58 58 -115 58q-26 0 -40.5 -13.5t-14.5 -34.5q0 -18 14 -35t54 -49q57 -46 83.5 -85t26.5 -95
q0 -91 -59 -147q-58 -58 -156 -58zM551 795l139 639h152l55 -215l147 215h164l-139 -639h-154l78 354l-153 -225h-4l-56 225l-78 -354h-151z" />
    <glyph glyph-name="trademark" unicode="&#x2122;" horiz-adv-x="1079" 
d="M195 795l104 491h-121l31 148h405l-32 -148h-123l-107 -491h-157zM541 795l139 639h156l55 -213l149 213h164l-139 -639h-154l78 352l-155 -221h-5l-59 221l-76 -352h-153z" />
    <glyph glyph-name="Omega" unicode="&#x2126;" horiz-adv-x="1208" 
d="M721 1153q-78 0 -137 -59q-71 -71 -107.5 -216t-36.5 -274q0 -162 49 -311l-63 -293h-483l67 303l217 -2q-106 224 -106 432q0 171 48.5 316.5t147.5 244.5q160 166 435 166q230 0 350.5 -120.5t120.5 -338.5q0 -131 -44 -257t-109.5 -225t-168.5 -218l215 2l-67 -303
h-500l63 291q110 152 185 334t75 325q0 101 -40 152t-111 51z" />
    <glyph glyph-name="Delta" unicode="&#x2206;" horiz-adv-x="1144" 
d="M961 1440l86 -1170l-99 -270h-975l2 272l594 1168h392zM686 1042l-344 -737h371z" />
    <glyph glyph-name="minus" unicode="&#x2212;" horiz-adv-x="999" 
d="M74 569l67 303h858l-67 -303h-858z" />
    <glyph glyph-name="NUL" horiz-adv-x="0" 
 />
    <glyph glyph-name="CR" horiz-adv-x="360" 
 />
    <glyph glyph-name="Q.alt" horiz-adv-x="1183" 
d="M721 1460q222 0 342.5 -141.5t120.5 -398.5q0 -162 -53 -348t-148 -330l96 -160l-235 -135l-58 104q-123 -76 -260 -76q-222 0 -342.5 142t-120.5 399q0 198 74 424.5t207 359.5q160 160 377 160zM547 274q45 0 86 27l-107 170l236 135l26 -45q60 198 60 359
q0 124 -38 179.5t-110 55.5q-59 0 -112 -53q-86 -86 -137.5 -271.5t-51.5 -318.5q0 -238 148 -238z" />
    <glyph glyph-name="a.alt" horiz-adv-x="1015" 
d="M274 -23q-118 0 -182.5 93t-64.5 264q0 184 60.5 389t168.5 313q94 94 217 94q161 0 238 -157l28 135h328l-240 -1108h-327l28 127q-62 -73 -121.5 -111.5t-132.5 -38.5zM446 266q41 0 76 35q53 53 88 178.5t35 218.5q0 75 -24.5 110.5t-65.5 35.5t-76 -35
q-53 -53 -88 -178.5t-35 -218.5q0 -75 24.5 -110.5t65.5 -35.5z" />
    <glyph glyph-name="uni039E.alt" horiz-adv-x="1073" 
d="M1047 866l-64 -288h-283l-61 -279h328l-66 -299h-967l64 299h324l61 279h-281l64 288h278l60 271h-316l64 297h954l-65 -297h-320l-59 -271h285z" />
    <glyph glyph-name="uni0424.bgr" horiz-adv-x="1554" 
d="M444 -197l45 207q-196 48 -305.5 195t-109.5 381q0 190 62.5 360.5t182.5 290.5q88 89 215 144t267 61l41 188h338l-45 -209q196 -48 305.5 -194.5t109.5 -376.5q0 -191 -62.5 -362t-182.5 -291q-89 -89 -214.5 -144t-267.5 -61l-41 -189h-338zM1217 838q0 242 -156 295
l-184 -842q99 13 178 92q77 77 119.5 198t42.5 257zM408 598q0 -124 37 -196t118 -101l185 844q-102 -13 -179 -94q-75 -75 -118 -197t-43 -256z" />
    <glyph glyph-name="uni0432.bgr" horiz-adv-x="1005" 
d="M465 -23q-209 0 -319.5 97t-110.5 278q0 110 35 256l88 406q47 228 159 340q127 127 340 127q190 0 295 -99.5t105 -257.5q0 -141 -74 -249t-221 -160q176 -89 176 -283q0 -197 -129 -326t-344 -129zM463 252q54 0 92.5 36.5t54 84.5t15.5 98q0 72 -44 107.5t-145 35.5
h-43l-26 -120q-15 -71 -15 -121q0 -59 29.5 -90t81.5 -31zM477 999l-33 -151h80q93 0 144 51q33 33 50 85t17 106q0 56 -25.5 87t-72.5 31q-51 0 -88 -37q-45 -45 -72 -172z" />
    <glyph glyph-name="uni0433.bgr" horiz-adv-x="794" 
d="M283 297q0 -51 67 -51q112 0 277 88l82 -252q-207 -107 -394 -107q-170 0 -258 77t-88 220q0 126 74.5 219t259.5 181q125 61 161 87t36 54q0 25 -16 37t-56 12q-57 0 -123 -23t-112 -51l-68 252q176 90 348 90q168 0 253 -80t85 -219q0 -129 -76.5 -213.5t-261.5 -175.5
q-114 -56 -152 -85.5t-38 -59.5z" />
    <glyph glyph-name="uni0434.bgr" horiz-adv-x="1009" 
d="M330 -293q-236 0 -406 80l96 260q153 -78 291 -78q98 0 154 56q46 46 67 145l17 63q-65 -75 -124.5 -112t-133.5 -37q-120 0 -185 87t-65 253q0 157 57 339t150 275q92 92 213 92q160 0 244 -157l28 135h328l-205 -954q-51 -220 -154 -320q-124 -127 -372 -127zM459 356
q43 0 73 35q44 44 73.5 143.5t29.5 178.5q0 135 -88 135q-39 0 -74 -35q-44 -44 -73 -143.5t-29 -180.5q0 -133 88 -133z" />
    <glyph glyph-name="uni0436.bgr" horiz-adv-x="1413" 
d="M1069 1468l-176 -770h39l254 410h352l-381 -584l137 -524h-325l-99 418h-36l-84 -418h-326l98 418h-33l-268 -418h-354l393 584l-133 524h328l88 -410h43l159 770h324z" />
    <glyph glyph-name="uni0438.bgr" horiz-adv-x="976" 
d="M231 -23q-109 0 -168 65t-59 173q0 57 16 139l164 754h328l-147 -680q-13 -76 -13 -80q0 -78 76 -78q44 0 75.5 33.5t45.5 93.5l153 711h328l-239 -1108h-328l26 127q-124 -150 -258 -150z" />
    <glyph glyph-name="uni0439.bgr" horiz-adv-x="976" 
d="M231 -23q-109 0 -168 65t-59 173q0 57 16 139l164 754h328l-147 -680q-13 -76 -13 -80q0 -78 76 -78q44 0 75.5 33.5t45.5 93.5l153 711h328l-239 -1108h-328l26 127q-124 -150 -258 -150zM639 1174q-135 0 -206 70.5t-64 203.5h184q2 -44 27 -70t73 -26q97 0 138 96h188
q-35 -132 -125 -203t-215 -71z" />
    <glyph glyph-name="uni043A.bgr" horiz-adv-x="956" 
d="M838 0h-334l-96 416h-41l-88 -416h-330l319 1468h328l-168 -770h39l254 410h364l-387 -584z" />
    <glyph glyph-name="uni043F.bgr" horiz-adv-x="976" 
d="M-51 0l241 1108h328l-26 -125q116 147 258 147q108 0 167.5 -64t59.5 -171q0 -60 -19 -141l-161 -754h-330l147 680q13 57 13 82q0 76 -74 76q-47 0 -78 -33t-43 -94l-153 -711h-330z" />
    <glyph glyph-name="uni0442.bgr" horiz-adv-x="1482" 
d="M-51 0l241 1108h326l-24 -125q116 147 256 147q166 0 208 -155q129 155 297 155q110 0 169 -64t59 -171q0 -35 -17 -135l-164 -760h-325l147 684q13 67 13 78q0 76 -72 76q-92 0 -121 -127l-154 -711h-325l147 684q13 67 13 78q0 76 -72 76q-92 0 -121 -127l-154 -711
h-327z" />
    <glyph glyph-name="uni0446.bgr" horiz-adv-x="1052" 
d="M231 -23q-109 0 -168 65t-59 173q0 57 16 139l164 754h328l-147 -680q-13 -76 -13 -80q0 -78 76 -78q44 0 75.5 33.5t45.5 93.5l153 711h328l-176 -815h115l-115 -522h-295l53 229h-149l26 127q-124 -150 -258 -150z" />
    <glyph glyph-name="uni0448.bgr" horiz-adv-x="1482" 
d="M1534 1108l-240 -1108h-325l26 127q-58 -70 -119 -110t-139 -40q-167 0 -209 160q-131 -160 -297 -160q-109 0 -168 65t-59 173q0 46 19 135l161 758h326l-148 -680q-10 -55 -10 -80q0 -76 72 -76q44 0 75.5 33.5t43.5 93.5l153 709h326l-148 -680q-10 -55 -10 -80
q0 -76 72 -76q44 0 75.5 33.5t43.5 93.5l153 709h326z" />
    <glyph glyph-name="uni0449.bgr" horiz-adv-x="1562" 
d="M1534 1108l-176 -815h121l-115 -522h-295l53 229h-153l26 127q-58 -70 -119 -110t-139 -40q-167 0 -209 160q-131 -160 -297 -160q-109 0 -168 65t-59 173q0 46 19 135l161 758h326l-148 -680q-10 -55 -10 -80q0 -76 72 -76q44 0 75.5 33.5t43.5 93.5l153 709h326
l-148 -680q-10 -55 -10 -80q0 -76 72 -76q44 0 75.5 33.5t43.5 93.5l153 709h326z" />
    <glyph glyph-name="uni044E.bgr" horiz-adv-x="1415" 
d="M868 -25q-186 0 -286.5 117.5t-100.5 317.5h-114l-91 -410h-327l319 1468h328l-166 -759h94q53 181 162 290q131 131 313 131q186 0 288 -116.5t102 -315.5q0 -159 -53.5 -325.5t-153.5 -266.5q-131 -131 -314 -131zM883 256q40 0 75 35q53 53 86 176t33 225
q0 158 -92 158q-44 0 -74 -35q-53 -53 -86.5 -176t-33.5 -225q0 -158 92 -158z" />
    <glyph glyph-name="aacute.alt" horiz-adv-x="1015" 
d="M543 1192l243 315l277 -100l-295 -215h-225zM274 -23q-118 0 -182.5 93t-64.5 264q0 184 60.5 389t168.5 313q94 94 217 94q161 0 238 -157l28 135h328l-240 -1108h-327l28 127q-62 -73 -121.5 -111.5t-132.5 -38.5zM446 266q41 0 76 35q53 53 88 178.5t35 218.5
q0 75 -24.5 110.5t-65.5 35.5t-76 -35q-53 -53 -88 -178.5t-35 -218.5q0 -75 24.5 -110.5t65.5 -35.5z" />
    <glyph glyph-name="abreve.alt" horiz-adv-x="1015" 
d="M274 -23q-118 0 -182.5 93t-64.5 264q0 184 60.5 389t168.5 313q94 94 217 94q161 0 238 -157l28 135h328l-240 -1108h-327l28 127q-62 -73 -121.5 -111.5t-132.5 -38.5zM446 266q41 0 76 35q53 53 88 178.5t35 218.5q0 75 -24.5 110.5t-65.5 35.5t-76 -35
q-53 -53 -88 -178.5t-35 -218.5q0 -75 24.5 -110.5t65.5 -35.5zM684 1186q-135 0 -206 70.5t-64 203.5h184q2 -44 27 -70t73 -26q97 0 138 96h188q-35 -132 -125 -203t-215 -71z" />
    <glyph glyph-name="acircumflex.alt" horiz-adv-x="1015" 
d="M344 1192l256 287h248l131 -287h-188l-99 111l-141 -111h-207zM274 -23q-118 0 -182.5 93t-64.5 264q0 184 60.5 389t168.5 313q94 94 217 94q161 0 238 -157l28 135h328l-240 -1108h-327l28 127q-62 -73 -121.5 -111.5t-132.5 -38.5zM446 266q41 0 76 35q53 53 88 178.5
t35 218.5q0 75 -24.5 110.5t-65.5 35.5t-76 -35q-53 -53 -88 -178.5t-35 -218.5q0 -75 24.5 -110.5t65.5 -35.5z" />
    <glyph glyph-name="adieresis.alt" horiz-adv-x="1015" 
d="M362 1194l56 256h268l-55 -256h-269zM709 1194l55 256h266l-55 -256h-266zM274 -23q-118 0 -182.5 93t-64.5 264q0 184 60.5 389t168.5 313q94 94 217 94q161 0 238 -157l28 135h328l-240 -1108h-327l28 127q-62 -73 -121.5 -111.5t-132.5 -38.5zM446 266q41 0 76 35
q53 53 88 178.5t35 218.5q0 75 -24.5 110.5t-65.5 35.5t-76 -35q-53 -53 -88 -178.5t-35 -218.5q0 -75 24.5 -110.5t65.5 -35.5z" />
    <glyph glyph-name="agrave.alt" horiz-adv-x="1015" 
d="M274 -23q-118 0 -182.5 93t-64.5 264q0 184 60.5 389t168.5 313q94 94 217 94q161 0 238 -157l28 135h328l-240 -1108h-327l28 127q-62 -73 -121.5 -111.5t-132.5 -38.5zM446 266q41 0 76 35q53 53 88 178.5t35 218.5q0 75 -24.5 110.5t-65.5 35.5t-76 -35
q-53 -53 -88 -178.5t-35 -218.5q0 -75 24.5 -110.5t65.5 -35.5zM565 1192l-215 215l289 100l127 -315h-201z" />
    <glyph glyph-name="amacron.alt" horiz-adv-x="1015" 
d="M274 -23q-118 0 -182.5 93t-64.5 264q0 184 60.5 389t168.5 313q94 94 217 94q161 0 238 -157l28 135h328l-240 -1108h-327l28 127q-62 -73 -121.5 -111.5t-132.5 -38.5zM446 266q41 0 76 35q53 53 88 178.5t35 218.5q0 75 -24.5 110.5t-65.5 35.5t-76 -35
q-53 -53 -88 -178.5t-35 -218.5q0 -75 24.5 -110.5t65.5 -35.5zM373 1202l43 201h594l-43 -201h-594z" />
    <glyph glyph-name="aogonek.alt" horiz-adv-x="1015" 
d="M819 -145l-35 -162q-55 -8 -120 -8q-106 0 -163 33t-57 96q0 92 119 186h-63l28 127q-62 -73 -121.5 -111.5t-132.5 -38.5q-118 0 -182.5 93t-64.5 264q0 184 60.5 389t168.5 313q94 94 217 94q161 0 238 -157l28 135h328l-240 -1108h-47q-63 -63 -63 -100q0 -23 23 -33
t79 -12zM446 266q41 0 76 35q53 53 88 178.5t35 218.5q0 75 -24.5 110.5t-65.5 35.5t-76 -35q-53 -53 -88 -178.5t-35 -218.5q0 -75 24.5 -110.5t65.5 -35.5z" />
    <glyph glyph-name="aring.alt" horiz-adv-x="1015" 
d="M934 1430q0 -96 -69 -170t-171 -74q-87 0 -141.5 52t-54.5 136q0 96 68.5 169t170.5 73q86 0 141.5 -52t55.5 -134zM614 1382q0 -39 23 -64.5t63 -25.5q49 0 82 37.5t33 91.5q0 39 -23 64.5t-63 25.5q-47 0 -81 -37.5t-34 -91.5zM274 -23q-118 0 -182.5 93t-64.5 264
q0 184 60.5 389t168.5 313q94 94 217 94q161 0 238 -157l28 135h328l-240 -1108h-327l28 127q-62 -73 -121.5 -111.5t-132.5 -38.5zM446 266q41 0 76 35q53 53 88 178.5t35 218.5q0 75 -24.5 110.5t-65.5 35.5t-76 -35q-53 -53 -88 -178.5t-35 -218.5q0 -75 24.5 -110.5
t65.5 -35.5z" />
    <glyph glyph-name="aring.alt2" horiz-adv-x="919" 
d="M414 0l22 102q-109 -122 -237 -122q-101 0 -159 68.5t-58 195.5q0 101 32 196.5t90 153.5q92 92 244 92q101 0 205 -49l6 25q8 31 8 67q0 115 -147 115q-94 0 -209 -47l-35 272q129 40 238 51q-23 41 -23 94q0 95 67.5 166.5t172.5 71.5q87 0 141.5 -51.5t54.5 -136.5
q0 -54 -25 -103.5t-69 -81.5q164 -80 164 -282q0 -70 -20 -160l-138 -637h-325zM596 1126q47 0 80 38t33 93q0 40 -23 66.5t-63 26.5q-49 0 -82 -38t-33 -93q0 -40 24 -66.5t64 -26.5zM365 203q45 0 80.5 36t48.5 101l22 119q-53 24 -96 24q-44 0 -78 -30q-25 -27 -39 -73
t-14 -85q0 -92 76 -92z" />
    <glyph glyph-name="aringacute.alt" horiz-adv-x="1015" 
d="M651 1663l232 254l278 -88l-280 -166h-230zM934 1427q0 -96 -69 -169.5t-171 -73.5q-87 0 -141.5 52t-54.5 136q0 96 68.5 169t170.5 73q86 0 141.5 -52.5t55.5 -134.5zM614 1380q0 -39 23 -64.5t63 -25.5q49 0 82 37.5t33 91.5q0 39 -23 64.5t-63 25.5q-47 0 -81 -37.5
t-34 -91.5zM274 -23q-118 0 -182.5 93t-64.5 264q0 184 60.5 389t168.5 313q94 94 217 94q161 0 238 -157l28 135h328l-240 -1108h-327l28 127q-62 -73 -121.5 -111.5t-132.5 -38.5zM446 266q41 0 76 35q53 53 88 178.5t35 218.5q0 75 -24.5 110.5t-65.5 35.5t-76 -35
q-53 -53 -88 -178.5t-35 -218.5q0 -75 24.5 -110.5t65.5 -35.5z" />
    <glyph glyph-name="aringacute.alt2" horiz-adv-x="919" 
d="M545 1503l231 254l279 -88l-281 -166h-229zM414 0l22 102q-109 -122 -237 -122q-101 0 -159 68.5t-58 195.5q0 101 32 196.5t90 153.5q92 92 244 92q101 0 205 -49l6 25q8 31 8 67q0 115 -147 115q-94 0 -209 -47l-35 272q129 40 238 51q-23 41 -23 94q0 95 67.5 166.5
t172.5 71.5q87 0 141.5 -51.5t54.5 -136.5q0 -54 -25 -103.5t-69 -81.5q164 -80 164 -282q0 -70 -20 -160l-138 -637h-325zM596 1126q47 0 80 38t33 93q0 40 -23 66.5t-63 26.5q-49 0 -82 -38t-33 -93q0 -40 24 -66.5t64 -26.5zM365 203q45 0 80.5 36t48.5 101l22 119
q-53 24 -96 24q-44 0 -78 -30q-25 -27 -39 -73t-14 -85q0 -92 76 -92z" />
    <glyph glyph-name="atilde.alt" horiz-adv-x="1015" 
d="M274 -23q-118 0 -182.5 93t-64.5 264q0 184 60.5 389t168.5 313q94 94 217 94q161 0 238 -157l28 135h328l-240 -1108h-327l28 127q-62 -73 -121.5 -111.5t-132.5 -38.5zM446 266q41 0 76 35q53 53 88 178.5t35 218.5q0 75 -24.5 110.5t-65.5 35.5t-76 -35
q-53 -53 -88 -178.5t-35 -218.5q0 -75 24.5 -110.5t65.5 -35.5zM899 1483l156 -37q-80 -256 -226 -256q-60 0 -143 39q-84 31 -102 31q-31 0 -50 -17.5t-40 -62.5l-158 37q43 135 96.5 195.5t130.5 60.5q61 0 144 -39q12 -5 31 -12.5t28 -11t20.5 -6.5t20.5 -3
q30 0 48.5 17.5t43.5 64.5z" />
    <glyph glyph-name="i.dot" horiz-adv-x="479" 
d="M-45 0l240 1108h329l-239 -1108h-330zM211 1198l59 270h336l-59 -270h-336z" />
    <glyph glyph-name="uni0386.calt" horiz-adv-x="1124" 
d="M-125 0l700 1440h365l76 -1440h-340l-6 260h-332l-117 -260h-346zM461 537h205l-7 446z" />
    <glyph glyph-name="uni0388.calt" horiz-adv-x="944" 
d="M-39 0l311 1434h801l-69 -308h-461l-58 -256h416l-63 -297h-416l-57 -266h473l-70 -307h-807z" />
    <glyph glyph-name="uni0389.calt" horiz-adv-x="1130" 
d="M-39 0l311 1434h338l-121 -555h295l121 555h336l-311 -1434h-336l123 565h-295l-123 -565h-338z" />
    <glyph glyph-name="uni038A.calt" horiz-adv-x="509" 
d="M-35 0l314 1434h335l-311 -1434h-338z" />
    <glyph glyph-name="uni038C.calt" horiz-adv-x="1175" 
d="M721 1460q222 0 342.5 -141.5t120.5 -398.5q0 -198 -74 -425t-207 -360q-162 -162 -377 -162q-221 0 -342 144t-121 399q0 198 74 424.5t207 359.5q160 160 377 160zM547 281q64 0 115 51q86 86 135 268t49 320q0 125 -37 180t-109 55q-61 0 -114 -53q-85 -85 -135 -267
t-50 -321q0 -124 37 -178.5t109 -54.5z" />
    <glyph glyph-name="uni038E.calt" 
d="M217 0l119 541l-166 893h346l64 -516l286 516h367l-563 -908l-115 -526h-338z" />
    <glyph glyph-name="uni038F.calt" horiz-adv-x="1208" 
d="M721 1153q-78 0 -137 -59q-71 -71 -107.5 -216t-36.5 -274q0 -162 49 -311l-63 -293h-483l67 303l217 -2q-106 224 -106 432q0 171 48.5 316.5t147.5 244.5q160 166 435 166q230 0 350.5 -120.5t120.5 -338.5q0 -131 -44 -257t-109.5 -225t-168.5 -218l215 2l-67 -303
h-500l63 291q110 152 185 334t75 325q0 101 -40 152t-111 51z" />
    <glyph glyph-name="uni0399.calt" horiz-adv-x="509" 
d="M-35 0l314 1434h335l-311 -1434h-338zM152 1507l53 244h272l-53 -244h-272zM508 1507l53 244h273l-54 -244h-272z" />
    <glyph glyph-name="uni03A5.calt" 
d="M217 0l119 541l-166 893h346l64 -516l286 516h367l-563 -908l-115 -526h-338zM391 1507l53 244h273l-53 -244h-273zM748 1507l53 244h272l-53 -244h-272z" />
    <glyph glyph-name="uni0431.srb" horiz-adv-x="960" 
d="M420 -25q-190 0 -293.5 108.5t-103.5 297.5q0 132 42.5 268.5t135.5 229.5q105 105 254 125l-62 73q-61 71 -83.5 112.5t-22.5 90.5q0 89 60.5 138.5t180.5 49.5h500l-59 -276l-338 6q-31 0 -31 -22q0 -9 8 -19.5t32 -35.5l11 -11l72 -78q109 -116 155 -209t46 -217
q0 -122 -44.5 -265t-136.5 -235q-131 -131 -323 -131zM424 246q43 0 80 37q51 51 81.5 155.5t30.5 194.5q0 143 -92 143q-43 0 -78 -35q-52 -52 -83 -156.5t-31 -195.5q0 -71 24.5 -107t67.5 -36z" />
    <glyph glyph-name="three.alt" horiz-adv-x="921" 
d="M358 -25q-244 0 -428 170l170 258q124 -120 250 -120q72 0 118 46t46 115q0 66 -53 109t-174 47h-35l57 266h53q135 0 202 46.5t67 123.5q0 52 -39 84.5t-105 32.5q-100 0 -223 -68l-96 265q176 108 383 108q190 0 305 -100.5t115 -257.5q0 -139 -79.5 -239.5
t-227.5 -147.5q182 -92 182 -295q0 -190 -135.5 -316.5t-352.5 -126.5z" />
    <glyph glyph-name="registered.alt" horiz-adv-x="1267" 
d="M758 1460q220 0 353.5 -153t133.5 -416q0 -92 -13.5 -186.5t-42.5 -195.5t-83 -197t-127 -169q-170 -170 -406 -170q-222 0 -355.5 154.5t-133.5 417.5q0 94 13 187.5t42 193.5t83 195t128 169q170 170 408 170zM580 51q198 0 344 146q86 86 142.5 212t77.5 243.5
t21 236.5q0 230 -109.5 362.5t-303.5 132.5q-107 0 -189.5 -35.5t-156.5 -109.5q-85 -85 -141.5 -211t-78.5 -244.5t-22 -236.5q0 -232 110 -364t306 -132zM582 584l-56 -260h-192l178 815h176q170 0 244 -74q57 -57 57 -158q0 -135 -84 -219q-40 -40 -94 -61l72 -303h-201
l-55 260h-45zM614 739h41q66 0 101 35q41 41 41 111q0 38 -23 61q-25 25 -78 25h-30z" />
    <glyph glyph-name="hcoslug" horiz-adv-x="1421" 
d="M506 37h53q3 45 -39 45q-19 0 -30 -11.5t-11 -31.5q3 -41 43 -41q31 0 37 29h-14q-3 -15 -19 -15q-20 0 -20 25zM520 72q15 0 15 -25h-29q0 25 14 25zM399 160q-16 0 -16 33q0 30 16 30q17 0 17 -30q0 -33 -17 -33zM430 8q-16 0 -16 33q0 31 16 31t16 -31q0 -33 -16 -33z
M430 -2q19 0 31 12t12 31t-12 30t-31 11t-31 -11t-12 -30q0 -20 12 -31.5t31 -11.5zM1118 8q-16 0 -16 33q0 31 16 31q17 0 17 -31q0 -33 -17 -33zM1118 -2q19 0 31 12t12 31t-12 30t-31 11t-31 -11t-12 -30q0 -20 12 -31.5t31 -11.5zM256 166v-14h61v14h-20v33h8
q9 0 12 -17h15v47h-15q-3 -16 -12 -16h-8v37h25q10 0 13.5 -4.5t8.5 -22.5h16v41h-104v-14h14v-84h-14zM399 150q19 0 31 12t12 31q0 18 -12 29t-31 11t-31 -11t-12 -29q0 -20 12 -31.5t31 -11.5zM1319 1434v-1639h-1217v1639h1217zM1020 -2q46 0 49 47h-16q-3 -33 -29 -33
q-33 0 -33 45t29 45q23 0 31 -32h16v45h-16l-2 -13q-15 15 -33 15q-24 0 -39.5 -16.5t-15.5 -45.5q0 -57 59 -57zM762 164q-17 0 -17 26q0 27 17 27q14 0 14 -27q0 -26 -14 -26zM565 14v-14h47v14h-10v52h29v-52h-10v-14h47v14h-13v107l-20 -4q-12 4 -19 4q-38 0 -38 -39v-2
h-15v-14h15v-52h-13zM754 14v-14h53v14h-16v33q9 19 14 19v-3q0 -12 12 -12q14 0 14 15q0 16 -16 16q-14 0 -24 -23v21h-37v-14h12v-52h-12zM721 256v-106h12l8 16q10 -16 29 -16q17 0 25 13.5t8 29.5q0 40 -31 40q-21 0 -27 -18v55h-36v-14h12zM819 154q-14 0 -14 -15
q0 -18 22 -18q26 0 37 33l27 63h10v14h-35v-14h11l-17 -41l-18 41h12v14h-51v-14h10q5 -16 12 -27l21 -40q-3 -17 -17 -17q5 5 2.5 13t-12.5 8zM506 877q0 26 15 42.5t40 16.5q26 0 43 -21.5t17 -56.5q0 -46 -37 -102l-10 10q-26 26 -37.5 38.5t-21 32t-9.5 40.5zM618 180
v-28h15l2 8q10 -10 27 -10q28 0 28 26q0 19 -24.5 25t-24.5 12q0 8 10 8q13 0 21 -14h14v26h-12l-4 -10q-7 10 -23 10q-29 0 -29 -24q0 -19 25 -26t25 -13q0 -8 -11 -8q-12 0 -24 18h-15zM535 449q-47 0 -77 31t-30 79q0 49 33 82q62 -56 151 -168q-30 -24 -77 -24zM586 254
l-25 -4v-19h-14v-14h14v-41q0 -26 25 -26q22 0 28 26l-10 4q-3 -14 -10 -14q-8 0 -8 10v41h26v14h-26v23zM877 627q30 -52 88 -52q43 0 72.5 32t29.5 79t-29.5 77t-72.5 30q-69 0 -123 -78q-9 79 -101 76q19 32 19 69q0 60 -52.5 106t-142.5 46q-99 0 -161 -51.5t-62 -122.5
q0 -42 15 -73.5t49 -68.5q-168 -58 -168 -186q0 -81 65 -136t158 -55q129 0 213 93q50 -53 88 -73t86 -20q68 0 114 52t50 141l-15 4q-20 -30 -39 -44.5t-49 -14.5t-59 19.5t-68 64.5q42 55 95 86zM449 166v-14h45v14h-9v31q0 20 15 20q12 0 12 -14v-37h-8v-14h45v14h-12v39
q0 28 -25 28q-20 0 -29 -22v20h-34v-14h12v-51h-12zM950 68h-37v-15h13q-2 -7 -13 -18l-24 26q22 9 22 25q0 25 -28 25q-17 0 -26 -8t-9 -21t12 -25q-26 -9 -26 -30q0 -29 36 -29q19 0 31 12q9 -12 25 -12q20 0 26 25l-10 2q-4 -11 -8 -11q-5 0 -12 11q10 11 18 28h10v15z
M879 12q-21 0 -21 21q0 10 8 18q19 -19 29 -33q-9 -6 -16 -6zM602 80v6q0 25 12 25q5 0 7 -2q-3 -3 -3 -9q0 -10 13 -10v-10h-29zM870 88q0 10 11 10q12 0 12 -12q0 -11 -10 -18q-13 13 -13 20zM639 700q57 38 86 70q23 -23 29 -49t-2 -52.5t-29 -62.5q-68 78 -84 94z
M696 37h54q3 45 -39 45q-17 0 -29 -12t-12 -31q0 -41 43 -41q27 0 37 29h-15q-3 -15 -18 -15q-21 0 -21 25zM711 72q14 0 14 -25h-29q0 25 15 25zM254 14v-14h59v14h-16v37h45v-37h-16v-14h59v14h-16v84h16v15h-59v-15h16v-32h-45v32h16v15h-59v-15h16v-84h-16zM1180 27
q-15 0 -15 -15q0 -14 15 -14q14 0 14 14q0 15 -14 15z" />
    <glyph glyph-name="caron.alt" 
d="M522 1169l90 347h213v-5l-174 -342h-129z" />
    <glyph glyph-name="descendercyrillic" 
d="M250 -229l100 374h264l-69 -374h-295z" />
    <glyph glyph-name="descendercyrillic.cap" 
d="M238 -258l110 422h281l-84 -422h-307z" />
    <glyph glyph-name="straightdescendercyrillic" 
d="M293 293h309l-115 -522h-294l53 229h-17z" />
    <glyph glyph-name="straightdescendercyrillic.cap" 
d="M289 313h325l-127 -571h-307l58 258h-19z" />
    <glyph glyph-name="acute.cap" 
d="M494 1505l231 273l303 -97l-285 -176h-249z" />
    <glyph glyph-name="hungarumlaut.cap" 
d="M680 1505l125 150l-225 -150h-226l230 273l250 -88l73 88l269 -92l-273 -181h-223z" />
    <glyph glyph-name="grave.cap" 
d="M696 1505l-213 176l312 97l129 -273h-228z" />
    <glyph glyph-name="circumflex.cap" 
d="M399 1505l242 252h270l131 -252h-202l-90 90l-132 -90h-219z" />
    <glyph glyph-name="caron.cap" 
d="M1098 1757l-240 -252h-272l-131 252h204l91 -90l129 90h219z" />
    <glyph glyph-name="breve.cap" 
d="M727 1499q-132 0 -201 63.5t-51 186.5h180q6 -76 103 -76q88 0 125 76h194q-37 -126 -127.5 -188t-222.5 -62z" />
    <glyph glyph-name="tilde.cap" 
d="M541 1493l-158 37q43 136 95.5 197t129.5 61q61 0 154 -39q66 -31 104 -31q28 0 47 17.5t43 62.5l158 -39q-43 -135 -96.5 -196.5t-130.5 -61.5q-59 0 -152 39q-12 5 -32.5 12.5t-29.5 11t-21 6.5t-21 3q-29 0 -46.5 -17.5t-43.5 -62.5z" />
    <glyph glyph-name="macron.cap" 
d="M410 1513l47 207h626l-45 -207h-628z" />
    <glyph glyph-name="dieresis.cap" 
d="M408 1507l53 244h272l-53 -244h-272zM764 1507l53 244h273l-54 -244h-272z" />
    <glyph glyph-name="dotaccent.cap" 
d="M580 1507l55 244h280l-53 -244h-282z" />
    <glyph glyph-name="ring.cap" 
d="M729 1919q92 0 150.5 -52t58.5 -132q0 -99 -73 -167.5t-181 -68.5q-90 0 -149.5 53t-59.5 131q0 100 71.5 168t182.5 68zM694 1604q54 0 88.5 34.5t34.5 83.5q0 42 -26.5 67.5t-73.5 25.5q-53 0 -88 -35.5t-35 -81.5q0 -42 27 -68t73 -26z" />
    <glyph glyph-name="uni0384.cap" 
d="M477 1079l94 355h287l-205 -355h-176z" />
    <glyph glyph-name="commaaccent.rot" 
d="M877 1612l-5 -94q-76 -10 -112 -36t-47 -75h123l-52 -223h-268l43 190q28 120 108.5 176t209.5 62z" />
    </font>
</defs>
</svg>
