<?xml version="1.0" standalone="no"?>
<!DOCTYPE svg PUBLIC "-//W3C//DTD SVG 1.1//EN" "http://www.w3.org/Graphics/SVG/1.1/DTD/svg11.dtd" >
<svg xmlns="http://www.w3.org/2000/svg" xmlns:xlink="http://www.w3.org/1999/xlink" version="1.1">
<metadata>
Created by FontForge 20201107 at Wed May 29 09:57:00 2024
 By 
Copyright (C) 2001, 2011 Hoefler &#38; Co. http://www.typography.com |DCNT
</metadata>
<defs>
<font id="GothamCond-Book" horiz-adv-x="737" >
  <font-face 
    font-family="Gotham Cond"
    font-weight="400"
    font-stretch="extra-condensed"
    units-per-em="2048"
    panose-1="0 0 0 0 0 0 0 0 0 0"
    ascent="1638"
    descent="-410"
    x-height="1081"
    cap-height="1434"
    bbox="-272 -410 1530 1884"
    underline-thickness="102"
    underline-position="-204"
    unicode-range="U+0020-FB04"
  />
<missing-glyph horiz-adv-x="1024" 
d="M0 -410v2048h1024v-2048h-1024zM145 1536l367 -799l367 799h-734zM102 -156l353 770l-353 770v-1540zM922 1384l-353 -770l353 -770v1540zM512 492l-367 -799h734z" />
    <glyph glyph-name="f_f" unicode="ff" horiz-adv-x="897" 
d="M586 0v971h-99v110h99v113q0 137 65 199q54 57 162 57q48 0 72 -8v-115q-16 6 -54 6q-116 0 -116 -151v-101h162v-110h-162v-971h-129zM135 0v971h-98v110h98v113q0 136 66 199q57 57 161 57q48 0 72 -8v-115q-14 6 -53 6q-117 0 -117 -151v-101h162v-110h-162v-971h-129
z" />
    <glyph glyph-name="fi" unicode="fi" horiz-adv-x="794" 
d="M135 0v971h-98v110h98v113q0 136 66 199q57 57 161 57q48 0 72 -8v-115q-14 6 -53 6q-117 0 -117 -151v-101h162v-110h-162v-971h-129zM559 0v1081h129v-1081h-129zM555 1278v168h135v-168h-135z" />
    <glyph glyph-name="fl" unicode="fl" horiz-adv-x="794" 
d="M135 0v971h-98v110h98v113q0 136 66 199q57 57 161 57q48 0 72 -8v-115q-14 6 -53 6q-117 0 -117 -151v-101h162v-110h-162v-971h-129zM559 0v1446h129v-1446h-129z" />
    <glyph glyph-name="f_f_i" unicode="ffi" horiz-adv-x="1245" 
d="M586 0v971h-99v110h99v113q0 137 65 199q54 57 162 57q48 0 72 -8v-115q-16 6 -54 6q-116 0 -116 -151v-101h162v-110h-162v-971h-129zM135 0v971h-98v110h98v113q0 136 66 199q57 57 161 57q48 0 72 -8v-115q-14 6 -53 6q-117 0 -117 -151v-101h162v-110h-162v-971h-129
zM1010 0v1081h127v-1081h-127zM1006 1278v168h135v-168h-135z" />
    <glyph glyph-name="f_f_l" unicode="ffl" horiz-adv-x="1245" 
d="M586 0v971h-99v110h99v113q0 137 65 199q54 57 162 57q48 0 72 -8v-115q-16 6 -54 6q-116 0 -116 -151v-101h162v-110h-162v-971h-129zM135 0v971h-98v110h98v113q0 136 66 199q57 57 161 57q48 0 72 -8v-115q-14 6 -53 6q-117 0 -117 -151v-101h162v-110h-162v-971h-129
zM1010 0v1446h127v-1446h-127z" />
    <glyph glyph-name=".notdef" horiz-adv-x="1024" 
d="M0 -410v2048h1024v-2048h-1024zM145 1536l367 -799l367 799h-734zM102 -156l353 770l-353 770v-1540zM922 1384l-353 -770l353 -770v1540zM512 492l-367 -799h734z" />
    <glyph glyph-name=".null" horiz-adv-x="0" 
 />
    <glyph glyph-name="nonmarkingreturn" horiz-adv-x="682" 
 />
    <glyph glyph-name="space" unicode=" " horiz-adv-x="323" 
 />
    <glyph glyph-name="exclam" unicode="!" horiz-adv-x="409" 
d="M172 393l-45 926v115h156v-115l-45 -926h-66zM123 0v199h166v-199h-166z" />
    <glyph glyph-name="quotedbl" unicode="&#x22;" horiz-adv-x="520" 
d="M338 895v539h141v-19l-88 -520h-53zM90 895v539h141v-19l-88 -520h-53z" />
    <glyph glyph-name="numbersign" unicode="#" horiz-adv-x="788" 
d="M711 489v-120h-154l-35 -369h-96l35 369h-201l-35 -369h-94l35 369h-125v120h135l45 463h-143v121h155l35 361h94l-36 -361h202l35 361h96l-34 -361h123v-121h-136l-45 -463h144zM315 952l-45 -463h203l45 463h-203z" />
    <glyph glyph-name="dollar" unicode="$" horiz-adv-x="702" 
d="M600 1380v-137q-114 70 -205 78v-528q136 -110 194 -211t58 -226v-4q0 -135 -68.5 -231.5t-183.5 -122.5v-205h-94v195q-130 9 -238 67v138q69 -43 123.5 -62t114.5 -20v579q-87 66 -137 120t-80.5 128t-30.5 166v4q0 126 68 214.5t180 113.5v141h94v-133q112 -9 205 -64
zM516 354v4q0 145 -121 260v-493q59 26 91 87.5t30 141.5zM184 1110v-4q0 -80 27.5 -132.5t89.5 -111.5v443q-55 -24 -86.5 -75.5t-30.5 -119.5z" />
    <glyph glyph-name="percent" unicode="%" horiz-adv-x="1062" 
d="M270 741q-95 0 -156 90t-61 250v23q0 160 61 250t156 90q94 0 154.5 -90.5t60.5 -249.5v-23q0 -159 -60.5 -249.5t-154.5 -90.5zM270 1343q-52 0 -83 -62t-31 -177v-23q0 -114 31 -175.5t83 -61.5t83.5 61.5t31.5 175.5v23q0 114 -31.5 176.5t-83.5 62.5zM494 735
l315 699h94l-334 -736l-315 -698h-94zM793 -10q-94 0 -154.5 90.5t-60.5 249.5v22q0 159 60.5 249.5t154.5 90.5q95 0 155 -90t60 -250v-22q0 -160 -60 -250t-155 -90zM793 90q52 0 83 62.5t31 177.5v22q0 114 -31 176t-83 62t-83.5 -62t-31.5 -176v-22q0 -114 31.5 -177
t83.5 -63z" />
    <glyph glyph-name="ampersand" unicode="&#x26;" horiz-adv-x="851" 
d="M731 -18l-100 188q-56 -91 -122.5 -138.5t-162.5 -47.5q-131 0 -215 104.5t-84 253.5v12q0 255 227 451q-73 121 -104 200.5t-31 153.5v12q0 112 72 196.5t184 84.5q113 0 179.5 -80.5t66.5 -191.5v-13q0 -109 -54 -199.5t-165 -191.5l203 -379q32 114 57 291l109 -18
q-32 -220 -93 -391l136 -236zM367 868q155 137 155 297v11q0 68 -35.5 115.5t-93.5 47.5q-60 0 -97.5 -48t-37.5 -117v-9q0 -62 24 -126.5t85 -170.5zM358 102q68 0 117 41.5t94 122.5l-239 445q-152 -143 -152 -346v-15q0 -106 50 -177t130 -71z" />
    <glyph glyph-name="quotesingle" unicode="'" horiz-adv-x="272" 
d="M90 895v539h141v-19l-88 -520h-53z" />
    <glyph glyph-name="parenleft" unicode="(" horiz-adv-x="516" 
d="M479 -180v-103q-191 105 -296 331t-105 544v2q0 316 105 541.5t296 330.5v-100q-276 -226 -276 -774v-2q0 -544 276 -770z" />
    <glyph glyph-name="parenright" unicode=")" horiz-adv-x="516" 
d="M37 -283v103q276 223 276 772v2q0 549 -276 772v100q193 -106 298 -330t105 -544v-2q0 -316 -105.5 -542t-297.5 -331z" />
    <glyph glyph-name="asterisk" unicode="*" horiz-adv-x="579" 
d="M242 864l20 236l-164 -129l-51 84l191 96l-191 94l51 86l164 -129l-20 234h98l-23 -234l166 129l49 -86l-190 -94l190 -96l-49 -84l-166 129l23 -236h-98z" />
    <glyph glyph-name="plus" unicode="+" horiz-adv-x="718" 
d="M299 406v253h-244v123h244v254h121v-254h244v-123h-244v-253h-121z" />
    <glyph glyph-name="comma" unicode="," horiz-adv-x="344" 
d="M63 -244l-24 66q136 45 123 178h-74v199h168v-168q0 -115 -44 -177.5t-149 -97.5z" />
    <glyph glyph-name="hyphen" unicode="-" horiz-adv-x="585" 
d="M82 551v127h424v-127h-424z" />
    <glyph glyph-name="period" unicode="." horiz-adv-x="344" 
d="M88 0v199h168v-199h-168z" />
    <glyph glyph-name="slash" unicode="/" horiz-adv-x="559" 
d="M-10 -201l446 1774h111l-447 -1774h-110z" />
    <glyph glyph-name="zero" unicode="0" horiz-adv-x="774" 
d="M387 -18q-149 0 -232 173t-83 537v45q0 366 83 540.5t232 174.5t232 -173t83 -538v-45q0 -366 -83 -540t-232 -174zM387 104q182 0 182 590v43q0 304 -48 448t-134 144t-135 -143t-49 -447v-43q0 -304 49 -448t135 -144z" />
    <glyph glyph-name="one" unicode="1" horiz-adv-x="446" 
d="M193 0v1282l-150 -78v144l174 88h107v-1436h-131z" />
    <glyph glyph-name="two" unicode="2" horiz-adv-x="675" 
d="M49 0v100l324 668q53 111 76.5 188t23.5 156q0 95 -49.5 152t-134.5 57q-102 0 -205 -68v136q109 63 225 63q135 0 216 -86.5t81 -232.5v-11q0 -94 -27.5 -183t-91.5 -218l-286 -590h413v-131h-565z" />
    <glyph glyph-name="three" unicode="3" horiz-adv-x="645" 
d="M233 -18q-104 0 -190 36v129q87 -38 184 -38q96 0 164 82.5t68 222.5v14q0 135 -74.5 203t-216.5 80v90l268 499h-387v134h535v-105l-281 -520q289 -72 289 -375v-16q0 -198 -103 -317t-256 -119z" />
    <glyph glyph-name="four" unicode="4" horiz-adv-x="727" 
d="M455 0v311h-418v103l420 1028h121v-1016h114v-115h-114v-311h-123zM154 426h301v748z" />
    <glyph glyph-name="five" unicode="5" horiz-adv-x="673" 
d="M250 -18q-108 0 -176 38v130q77 -41 170 -41q105 0 171 94.5t66 247.5v10q0 150 -56 219.5t-146 69.5q-61 0 -127 -27l-78 51l30 660h455v-129h-348l-21 -453q52 22 117 22q130 0 217.5 -102t87.5 -309v-10q0 -211 -102.5 -341t-259.5 -130z" />
    <glyph glyph-name="six" unicode="6" horiz-adv-x="733" 
d="M375 -18q-99 0 -164 65q-137 140 -137 567v60q0 168 18 300.5t49.5 221.5t78 147t100.5 83.5t120 25.5q69 0 148 -31v-133q-66 37 -146 37q-60 0 -106 -41t-74 -114t-42.5 -163t-16.5 -198q92 92 198 92q55 0 103 -24.5t87 -74t62 -134t23 -195.5v-18q0 -211 -85.5 -342
t-215.5 -131zM377 100q78 0 126 99t48 252v18q0 156 -49.5 235.5t-124.5 79.5q-84 0 -174 -90v-129q0 -129 14 -223t39.5 -145t55 -74t65.5 -23z" />
    <glyph glyph-name="seven" unicode="7" horiz-adv-x="643" 
d="M133 0l316 1300h-394v134h523v-105l-314 -1329h-131z" />
    <glyph glyph-name="eight" unicode="8" horiz-adv-x="696" 
d="M348 -18q-133 0 -216 107t-83 284v14q0 125 50.5 221.5t131.5 139.5q-75 43 -116 127.5t-41 201.5v13q0 166 78.5 264t195.5 98t196 -98t79 -264v-13q0 -116 -42 -200.5t-116 -128.5q81 -43 131.5 -139.5t50.5 -221.5v-14q0 -177 -83 -284t-216 -107zM348 797
q66 0 107 79t41 197v8q0 121 -40.5 189.5t-107.5 68.5t-108 -68.5t-41 -189.5v-8q0 -118 41.5 -197t107.5 -79zM348 94q78 0 124 77t46 208v8q0 134 -48.5 216.5t-121.5 82.5t-121.5 -82.5t-48.5 -216.5v-8q0 -131 46 -208t124 -77z" />
    <glyph glyph-name="nine" unicode="9" horiz-adv-x="733" 
d="M289 109q79 0 133 70t78.5 178t27.5 249q-96 -90 -198 -90q-117 0 -196 107.5t-79 330.5v15q0 217 86.5 350t216.5 133q95 0 164 -66q135 -138 135 -567v-59q0 -209 -26.5 -362t-76.5 -242.5t-114.5 -131.5t-146.5 -42q-94 0 -168 36v134q81 -43 164 -43zM356 633
q82 0 172 90v147q0 130 -14 223.5t-39 144t-54.5 73t-64.5 22.5q-79 0 -126.5 -100t-47.5 -260v-15q0 -164 49.5 -244.5t124.5 -80.5z" />
    <glyph glyph-name="colon" unicode=":" horiz-adv-x="364" 
d="M98 883v198h168v-198h-168zM98 0v199h168v-199h-168z" />
    <glyph glyph-name="semicolon" unicode=";" horiz-adv-x="364" 
d="M98 883v198h168v-198h-168zM74 -244l-25 66q136 45 123 178h-74v199h168v-168q0 -115 -43.5 -177.5t-148.5 -97.5z" />
    <glyph glyph-name="less" unicode="&#x3c;" horiz-adv-x="718" 
d="M623 330l-547 332v118l547 332v-151l-412 -240l412 -238v-153z" />
    <glyph glyph-name="equal" unicode="=" horiz-adv-x="718" 
d="M63 813v129h592v-129h-592zM63 500v129h592v-129h-592z" />
    <glyph glyph-name="greater" unicode="&#x3e;" horiz-adv-x="718" 
d="M96 330v151l412 240l-412 237v154l547 -332v-118z" />
    <glyph glyph-name="question" unicode="?" horiz-adv-x="630" 
d="M215 393l-18 357l10 12q244 88 244 315v6q0 107 -62 171.5t-153 64.5q-100 0 -189 -55v125q97 53 207 53q142 0 235 -97.5t93 -248.5v-13q0 -272 -263 -393l-20 -297h-84zM180 0v199h166v-199h-166z" />
    <glyph glyph-name="at" unicode="@" horiz-adv-x="1300" 
d="M612 -274q-117 0 -215.5 45t-172 131.5t-115 223.5t-41.5 312q0 198 46 380.5t129 323.5t210 225.5t278 84.5q154 0 269 -87t173 -231t58 -323q0 -170 -38 -320.5t-112.5 -247t-169.5 -96.5q-85 0 -126 56.5t-35 148.5q-103 -207 -236 -207q-74 0 -124 69t-50 183
q0 165 45 314t121 239t160 90q129 0 161 -184l29 154l113 -21l-101 -524q-12 -65 -12 -137q0 -107 72 -107q66 0 122 92t85.5 226.5t29.5 271.5q0 119 -28.5 222.5t-82 183.5t-138 126t-189.5 46q-139 0 -254.5 -83.5t-188.5 -220t-113 -304t-40 -341.5q0 -316 132.5 -484.5
t350.5 -168.5q90 0 161 21.5t147 66.5l32 -51q-88 -52 -163.5 -75t-178.5 -23zM553 250q41 0 86 45q60 60 107 191t47 255q0 85 -30.5 137t-78.5 52q-42 0 -84 -39q-65 -65 -104 -208.5t-39 -276.5q0 -76 26 -116t70 -40z" />
    <glyph glyph-name="A" unicode="A" horiz-adv-x="833" 
d="M43 0l301 1440h143l304 -1440h-136l-75 371h-332l-74 -371h-131zM268 492h291l-145 720z" />
    <glyph glyph-name="B" unicode="B" horiz-adv-x="774" 
d="M104 0v1434h191q198 0 311 -113q94 -94 94 -248v-6q0 -258 -245 -340q264 -73 264 -342v-6q0 -178 -122.5 -278.5t-326.5 -100.5h-166zM569 1055v4q0 120 -71.5 186t-194.5 66h-67v-529h47q138 0 212 71.5t74 201.5zM586 385v6q0 130 -78 201.5t-219 71.5h-53v-541h43
q144 0 225.5 67.5t81.5 194.5z" />
    <glyph glyph-name="C" unicode="C" horiz-adv-x="677" 
d="M455 -12q-173 0 -280 180t-107 528v41q0 176 31.5 314t86 222.5t124.5 128.5t151 44q75 0 147 -35v-139q-80 45 -139 45q-117 0 -191.5 -148.5t-74.5 -431.5v-41q0 -287 74.5 -433t191.5 -146q69 0 143 47v-133q-67 -43 -157 -43z" />
    <glyph glyph-name="D" unicode="D" horiz-adv-x="829" 
d="M104 0v1434h187q216 0 343.5 -180t127.5 -517v-41q0 -336 -127.5 -516t-343.5 -180h-187zM297 1313h-59v-1192h61q149 0 238.5 145.5t89.5 429.5v41q0 283 -91.5 429.5t-238.5 146.5z" />
    <glyph glyph-name="E" unicode="E" horiz-adv-x="667" 
d="M104 0v1434h504v-125h-370v-525h335v-125h-335v-534h376v-125h-510z" />
    <glyph glyph-name="F" unicode="F" horiz-adv-x="628" 
d="M104 0v1434h484v-125h-350v-541h315v-123h-315v-645h-134z" />
    <glyph glyph-name="G" unicode="G" horiz-adv-x="811" 
d="M506 -16q-91 0 -169.5 44.5t-139 130.5t-95 224t-34.5 313v41q0 173 35 310.5t96.5 224t141.5 131.5t173 45q99 0 180 -43v-143q-95 59 -178 59q-134 0 -223.5 -151.5t-89.5 -430.5v-45q0 -292 87.5 -440t223.5 -148q45 0 78 15v514h-191v121h314v-719
q-61 -30 -105.5 -41.5t-103.5 -11.5z" />
    <glyph glyph-name="H" unicode="H" horiz-adv-x="856" 
d="M104 0v1434h134v-652h380v652h134v-1434h-134v659h-380v-659h-134z" />
    <glyph glyph-name="I" unicode="I" horiz-adv-x="364" 
d="M115 0v1434h133v-1434h-133z" />
    <glyph glyph-name="J" unicode="J" horiz-adv-x="516" 
d="M156 -10q-58 0 -117 16v129q52 -18 104 -18q66 0 105 40.5t39 123.5v1153h133v-1160q0 -139 -78 -217q-67 -67 -186 -67z" />
    <glyph glyph-name="K" unicode="K" horiz-adv-x="776" 
d="M104 0v1434h134v-760l346 760h147l-305 -637l336 -797h-144l-278 651l-102 -215v-436h-134z" />
    <glyph glyph-name="L" unicode="L" horiz-adv-x="589" 
d="M104 0v1434h134v-1309h333v-125h-467z" />
    <glyph glyph-name="M" unicode="M" horiz-adv-x="983" 
d="M104 0v1434h148l240 -732l241 732h148v-1434h-129v1137l-256 -756h-9l-256 756v-1137h-127z" />
    <glyph glyph-name="N" unicode="N" horiz-adv-x="864" 
d="M104 0v1434h134l395 -1080v1080h129v-1434h-125l-406 1110v-1110h-127z" />
    <glyph glyph-name="O" unicode="O" horiz-adv-x="839" 
d="M420 -18q-158 0 -255 184t-97 528v45q0 344 97 528.5t255 184.5t254 -184.5t96 -528.5v-45q0 -344 -96 -528t-254 -184zM420 104q97 0 157 150t60 440v45q0 290 -60 440t-157 150t-157 -150t-60 -440v-45q0 -290 60 -440t157 -150z" />
    <glyph glyph-name="P" unicode="P" horiz-adv-x="757" 
d="M104 0v1434h191q197 0 310.5 -120t113.5 -337v-4q0 -217 -111.5 -338.5t-312.5 -126.5h-57v-508h-134zM238 629h63q136 2 210.5 89.5t74.5 250.5v4q0 163 -76 250.5t-209 87.5h-63v-682z" />
    <glyph glyph-name="Q" unicode="Q" horiz-adv-x="843" 
d="M799 37l-80 -76l-103 123q-82 -102 -194 -102q-159 0 -256.5 184t-97.5 528v45q0 344 97 528.5t255 184.5t254 -184.5t96 -528.5v-45q0 -323 -96 -520zM424 102q72 0 119 68l-142 162l78 74l111 -134q47 146 47 422v45q0 290 -60 440t-157 150t-157 -150t-60 -440v-45
q0 -299 60 -445.5t161 -146.5z" />
    <glyph glyph-name="R" unicode="R" horiz-adv-x="792" 
d="M104 0v1434h199q195 0 305 -113q115 -112 115 -320v-6q0 -145 -59 -246t-166 -149l252 -600h-150l-233 561q-12 -4 -60 -4h-69v-557h-134zM238 676h67q132 0 208.5 81t76.5 236v6q0 158 -78 235t-213 77h-61v-635z" />
    <glyph glyph-name="S" unicode="S" horiz-adv-x="677" 
d="M311 -14q-123 0 -250 71v144q143 -88 244 -88q83 0 132.5 49.5t49.5 138.5v2q0 74 -37.5 149t-146.5 216q-148 191 -194 276t-46 186v5q0 136 87 224.5t215 88.5q110 0 217 -57v-146q-113 76 -211 76q-76 0 -124 -49.5t-48 -130.5v-4q0 -69 36.5 -137.5t147.5 -208.5
q138 -171 188 -270.5t50 -213.5v-2q0 -143 -88.5 -231t-221.5 -88z" />
    <glyph glyph-name="T" unicode="T" horiz-adv-x="622" 
d="M244 0v1309h-217v125h569v-125h-219v-1309h-133z" />
    <glyph glyph-name="U" unicode="U" horiz-adv-x="837" 
d="M418 -18q-150 0 -236 104.5t-86 294.5v1053h133v-1059q0 -132 50.5 -201.5t138.5 -69.5q89 0 139.5 69t50.5 202v1059h133v-1053q0 -190 -86.5 -294.5t-236.5 -104.5z" />
    <glyph glyph-name="V" unicode="V" horiz-adv-x="794" 
d="M330 -8l-287 1442h137l219 -1182l222 1182h133l-289 -1442h-135z" />
    <glyph glyph-name="W" unicode="W" horiz-adv-x="1241" 
d="M287 -8l-240 1442h139l170 -1151l205 1151h123l203 -1151l172 1151h135l-240 -1442h-133l-200 1143l-203 -1143h-131z" />
    <glyph glyph-name="X" unicode="X" horiz-adv-x="749" 
d="M555 1434h135l-237 -680l264 -754h-139l-205 612l-203 -612h-135l260 752l-240 682h140l178 -543z" />
    <glyph glyph-name="Y" unicode="Y" 
d="M303 0v604l-291 830h142l217 -658l219 658h135l-289 -830v-604h-133z" />
    <glyph glyph-name="Z" unicode="Z" horiz-adv-x="690" 
d="M57 0v92l437 1221h-416v121h559v-93l-436 -1220h436v-121h-580z" />
    <glyph glyph-name="bracketleft" unicode="[" horiz-adv-x="536" 
d="M152 -266v1700h315v-97h-197v-1507h197v-96h-315z" />
    <glyph glyph-name="backslash" unicode="\" horiz-adv-x="559" 
d="M459 -201l-447 1774h111l446 -1774h-110z" />
    <glyph glyph-name="bracketright" unicode="]" horiz-adv-x="536" 
d="M70 -266v96h196v1507h-196v97h315v-1700h-315z" />
    <glyph glyph-name="asciicircum" unicode="^" horiz-adv-x="724" 
d="M166 1075l143 334h105l145 -334h-100l-99 225l-98 -225h-96z" />
    <glyph glyph-name="underscore" unicode="_" horiz-adv-x="925" 
d="M-4 -319v102h934v-102h-934z" />
    <glyph glyph-name="grave" unicode="`" horiz-adv-x="1024" 
d="M557 1180l-178 202l123 66l141 -268h-86z" />
    <glyph glyph-name="a" unicode="a" horiz-adv-x="708" 
d="M285 -18q-104 0 -170 93t-66 236v21q0 161 72.5 253.5t200.5 92.5q85 0 172 -41v117q0 106 -48.5 162.5t-144.5 56.5q-104 0 -195 -49v123q100 47 209 47q139 0 222 -80q84 -84 84 -248v-766h-129v145q-67 -163 -207 -163zM322 92q76 0 124 68.5t48 163.5v206
q-80 39 -150 39q-83 0 -126.5 -61t-43.5 -168v-21q0 -105 38.5 -166t109.5 -61z" />
    <glyph glyph-name="b" unicode="b" horiz-adv-x="774" 
d="M442 -18q-74 0 -130.5 58t-86.5 146v-186h-127v1446h127v-553q30 89 87 148t130 59q115 0 192 -138t77 -395v-53q0 -255 -77.5 -393.5t-191.5 -138.5zM408 100q76 0 125 111t49 307v45q0 196 -49 307t-125 111t-131.5 -112t-55.5 -300v-57q0 -188 55.5 -300t131.5 -112z
" />
    <glyph glyph-name="c" unicode="c" horiz-adv-x="577" 
d="M391 -16q-143 0 -236.5 137.5t-93.5 400.5v33q0 133 27.5 238.5t74.5 170.5t105.5 98.5t124.5 33.5q82 0 135 -35v-135q-59 47 -129 47q-84 0 -146.5 -106t-62.5 -308v-41q0 -208 62.5 -310t155.5 -102q57 0 120 50v-129q-62 -43 -137 -43z" />
    <glyph glyph-name="d" unicode="d" horiz-adv-x="774" 
d="M332 -18q-113 0 -189.5 137.5t-76.5 394.5v53q0 255 76.5 394t189.5 139q40 0 74 -16.5t60 -47t45 -64t38 -77.5v551h129v-1446h-129v188q-84 -206 -217 -206zM367 100q76 0 131 112t55 300v57q0 188 -55 300t-131 112t-125 -111t-49 -307v-45q0 -196 49 -307t125 -111z
" />
    <glyph glyph-name="e" unicode="e" horiz-adv-x="714" 
d="M410 -16q-148 0 -249.5 140.5t-101.5 393.5v29q0 263 88 407t218 144t209 -140t79 -393v-82h-467q6 -187 73 -283t169 -96q49 0 90 15.5t98 52.5l13 -123q-62 -36 -108.5 -50.5t-110.5 -14.5zM186 590h344q0 173 -46 282t-119 109q-77 0 -126 -100t-53 -291z" />
    <glyph glyph-name="f" unicode="f" horiz-adv-x="446" 
d="M135 0v971h-98v110h98v113q0 136 66 199q57 57 161 57q48 0 72 -8v-115q-14 6 -53 6q-117 0 -117 -151v-101h162v-110h-162v-971h-129z" />
    <glyph glyph-name="g" unicode="g" horiz-adv-x="774" 
d="M346 -270q-120 0 -235 41v125q119 -50 229 -50q105 0 157 49t52 156v213q-83 -205 -217 -205q-113 0 -189.5 133t-76.5 379v17q0 246 76.5 379t189.5 133q40 0 74 -16.5t60 -47t45 -64t38 -77.5v186h129v-1032q0 -153 -82 -235q-84 -84 -250 -84zM367 178q74 0 130 106
t56 287v15q0 181 -56 288t-130 107q-75 0 -124.5 -105t-49.5 -290v-13q0 -188 49.5 -291.5t124.5 -103.5z" />
    <glyph glyph-name="h" unicode="h" horiz-adv-x="765" 
d="M98 0v1446h127v-516q74 170 215 170q109 0 172.5 -86.5t63.5 -239.5v-774h-127v752q0 114 -39.5 174.5t-112.5 60.5t-122.5 -69t-49.5 -179v-739h-127z" />
    <glyph glyph-name="i" unicode="i" horiz-adv-x="342" 
d="M104 1278v168h136v-168h-136zM106 0v1081h130v-1081h-130z" />
    <glyph glyph-name="j" unicode="j" horiz-adv-x="342" 
d="M104 1278v168h136v-168h-136zM16 -270q-46 0 -67 8v110q14 -6 43 -6q64 0 89 42t25 122v1075h130v-1104q0 -111 -54 -179t-166 -68z" />
    <glyph glyph-name="k" unicode="k" horiz-adv-x="681" 
d="M98 0v1446h127v-916l269 551h139l-225 -436l239 -645h-139l-186 518l-97 -184v-334h-127z" />
    <glyph glyph-name="l" unicode="l" horiz-adv-x="342" 
d="M106 0v1446h130v-1446h-130z" />
    <glyph glyph-name="m" unicode="m" horiz-adv-x="1196" 
d="M98 0v1081h127v-149q77 168 209 168q141 0 205 -168q33 71 89.5 119.5t137.5 48.5q108 0 174 -85.5t66 -240.5v-774h-127v756q0 114 -38 172.5t-107 58.5q-73 0 -120.5 -67.5t-47.5 -176.5v-743h-127v756q0 113 -38.5 172t-107.5 59q-73 0 -120.5 -67.5t-47.5 -176.5
v-743h-127z" />
    <glyph glyph-name="n" unicode="n" horiz-adv-x="765" 
d="M98 0v1081h127v-151q74 170 215 170q109 0 172.5 -86.5t63.5 -239.5v-774h-127v752q0 114 -39.5 174.5t-112.5 60.5t-122.5 -69t-49.5 -179v-739h-127z" />
    <glyph glyph-name="o" unicode="o" horiz-adv-x="749" 
d="M375 -18q-134 0 -224 146.5t-90 395.5v31q0 249 90.5 396t225.5 147q134 0 223.5 -147t89.5 -396v-31q0 -248 -91 -395t-224 -147zM375 98q80 0 133 117t53 309v33q0 193 -53 308.5t-133 115.5t-133.5 -115.5t-53.5 -308.5v-33q0 -192 53.5 -309t133.5 -117z" />
    <glyph glyph-name="p" unicode="p" horiz-adv-x="774" 
d="M98 -266v1347h127v-188q30 89 87 148t130 59q115 0 192 -138t77 -395v-53q0 -255 -77.5 -393.5t-191.5 -138.5q-74 0 -130.5 58t-86.5 146v-452h-127zM408 100q76 0 125 111t49 307v45q0 196 -49 307t-125 111t-131.5 -112t-55.5 -300v-57q0 -188 55.5 -300t131.5 -112z
" />
    <glyph glyph-name="q" unicode="q" horiz-adv-x="774" 
d="M549 -266v454q-84 -206 -217 -206q-113 0 -189.5 137.5t-76.5 394.5v53q0 255 76.5 394t189.5 139q40 0 74 -16.5t60 -47t45 -64t38 -77.5v186h129v-1347h-129zM367 100q76 0 131 112t55 300v57q0 188 -55 300t-131 112t-125 -111t-49 -307v-45q0 -196 49 -307t125 -111z
" />
    <glyph glyph-name="r" unicode="r" horiz-adv-x="487" 
d="M98 0v1081h127v-151q32 78 90.5 124t141.5 40v-146h-4q-103 0 -165.5 -67t-62.5 -197v-684h-127z" />
    <glyph glyph-name="s" unicode="s" horiz-adv-x="573" 
d="M264 -14q-106 0 -217 51v129q125 -64 215 -64q63 0 104.5 38.5t41.5 103.5v2q0 52 -34.5 108t-123.5 140q-112 104 -158.5 181.5t-46.5 162.5v4q0 115 75.5 184.5t186.5 69.5q98 0 178 -35v-129q-86 45 -178 45q-61 0 -99 -35t-38 -96v-2q0 -49 34 -101.5t126 -140.5
q113 -113 157.5 -188.5t44.5 -161.5v-4q0 -118 -78.5 -190t-189.5 -72z" />
    <glyph glyph-name="t" unicode="t" horiz-adv-x="471" 
d="M330 -10q-201 0 -201 192v789h-92v110h92v297h129v-297h162v-110h-162v-758q0 -58 24.5 -81t75.5 -23q31 0 64 10v-111q-45 -18 -92 -18z" />
    <glyph glyph-name="u" unicode="u" horiz-adv-x="765" 
d="M326 -18q-109 0 -172.5 86t-63.5 239v774h127v-751q0 -115 39.5 -175.5t112.5 -60.5t122.5 68.5t49.5 177.5v741h127v-1081h-127v150q-74 -168 -215 -168z" />
    <glyph glyph-name="v" unicode="v" horiz-adv-x="720" 
d="M301 -6l-256 1087h129l186 -870l189 870h125l-252 -1087h-121z" />
    <glyph glyph-name="w" unicode="w" horiz-adv-x="1087" 
d="M268 -6l-215 1087h133l148 -852l160 852h106l156 -852l151 852h127l-213 -1087h-119l-159 827l-156 -827h-119z" />
    <glyph glyph-name="x" unicode="x" horiz-adv-x="688" 
d="M186 1081l158 -417l160 417h131l-215 -520l229 -561h-135l-172 455l-172 -455h-133l227 559l-213 522h135z" />
    <glyph glyph-name="y" unicode="y" horiz-adv-x="716" 
d="M358 238l187 843h127l-320 -1347h-125v2l70 282l-252 1063h129z" />
    <glyph glyph-name="z" unicode="z" horiz-adv-x="593" 
d="M45 0v84l365 887h-347v110h484v-84l-363 -886h357v-111h-496z" />
    <glyph glyph-name="braceleft" unicode="{" horiz-adv-x="569" 
d="M520 -190v-91q-163 6 -240 81.5t-77 199.5q0 62 38 172t38 182q0 77 -53.5 133t-159.5 56h-25v96h25q105 0 159 56.5t54 131.5q0 69 -38 184.5t-38 186.5q0 109 78.5 185t238.5 83v-90q-92 -4 -144 -53t-52 -129q0 -68 37.5 -178t37.5 -176q0 -93 -51.5 -162.5
t-154.5 -87.5q103 -18 154.5 -85.5t51.5 -160.5q0 -66 -37.5 -176t-37.5 -178q0 -79 52 -127.5t144 -52.5z" />
    <glyph glyph-name="bar" unicode="|" horiz-adv-x="460" 
d="M178 -201v1774h105v-1774h-105z" />
    <glyph glyph-name="braceright" unicode="}" horiz-adv-x="569" 
d="M49 -281v91q92 4 144.5 53t52.5 127q0 68 -38 179.5t-38 176.5q0 92 52 160.5t155 87.5q-105 19 -156 86t-51 160q0 66 38 176.5t38 179.5q0 78 -52.5 127t-144.5 53v90q163 -7 240.5 -82.5t77.5 -199.5q0 -62 -38 -173t-38 -182q0 -76 53.5 -131t159.5 -55h24v-98h-24
q-106 0 -159.5 -56.5t-53.5 -132.5q0 -70 38 -184t38 -184q0 -50 -18.5 -96t-55 -84.5t-99.5 -62.5t-145 -26z" />
    <glyph glyph-name="asciitilde" unicode="~" horiz-adv-x="643" 
d="M422 514q-34 0 -56 12t-57 41q-33 28 -46.5 36.5t-29.5 8.5q-36 0 -63 -94l-76 23q17 85 50.5 128.5t76.5 43.5q23 0 43.5 -7.5t33 -16.5t36.5 -30q5 -4 13.5 -10.5t12 -9.5t9.5 -7.5t9 -6.5t8 -5t8 -3.5t7.5 -1.5t8.5 -1q39 0 63 95l76 -21q-17 -87 -50.5 -130.5
t-76.5 -43.5z" />
    <glyph glyph-name="uni00A0" unicode="&#xa0;" horiz-adv-x="0" 
 />
    <glyph glyph-name="exclamdown" unicode="&#xa1;" horiz-adv-x="409" 
d="M123 1235v199h166v-199h-166zM127 0v117l45 923h66l45 -923v-117h-156z" />
    <glyph glyph-name="cent" unicode="&#xa2;" horiz-adv-x="600" 
d="M397 1442v-168q83 -7 138 -39v-131q-72 42 -138 45v-864q68 3 138 49v-127q-62 -37 -138 -45v-172h-94v180q-113 30 -175 162t-62 368v33q0 233 63 365t174 164v180h94zM195 737v-41q0 -312 108 -387v813q-108 -77 -108 -385z" />
    <glyph glyph-name="sterling" unicode="&#xa3;" horiz-adv-x="675" 
d="M59 0v76l103 41v526h-107v117h107v319q0 191 98 289q83 80 207 80q81 0 131 -21v-129q-55 25 -117 25q-76 0 -127 -51q-61 -58 -61 -195v-317h246v-117h-246v-524h356v-119h-590z" />
    <glyph glyph-name="yen" unicode="&#xa5;" horiz-adv-x="733" 
d="M111 549v102h170l-269 783h140l217 -686l217 686h135l-268 -783h172v-102h-195v-180h195v-105h-195v-264h-127v264h-192v105h192v180h-192z" />
    <glyph glyph-name="section" unicode="&#xa7;" horiz-adv-x="763" 
d="M506 436q59 -47 83.5 -93t24.5 -110v-4q0 -107 -75.5 -176t-196.5 -69q-100 0 -178 34v129q96 -47 178 -47q65 0 105 36t40 91v6q0 56 -43 100t-155 107q-136 78 -191 140.5t-55 150.5v4q0 79 53 146.5t164 115.5q-60 47 -85 93.5t-25 109.5v4q0 107 76.5 176.5
t197.5 69.5q99 0 176 -35v-129q-96 47 -178 47q-65 0 -105.5 -36t-40.5 -91v-6q0 -56 43.5 -100t155.5 -107q139 -83 193.5 -143t54.5 -148v-4q0 -166 -217 -262zM426 498q170 75 170 188v4q0 52 -43.5 98.5t-159.5 114.5l-55 33q-170 -76 -170 -188v-5q0 -54 42 -98.5
t161 -114.5q6 -4 26.5 -15t28.5 -17z" />
    <glyph glyph-name="dieresis" unicode="&#xa8;" horiz-adv-x="1024" 
d="M563 1196v160h127v-160h-127zM334 1196v160h127v-160h-127z" />
    <glyph glyph-name="copyright" unicode="&#xa9;" horiz-adv-x="1071" 
d="M535 -20q-144 0 -255.5 92.5t-171 252t-59.5 357.5v72q0 200 59.5 359t170.5 251t256 92t256.5 -92t171 -251t59.5 -359v-72q0 -198 -59.5 -357.5t-171.5 -252t-256 -92.5zM535 37q130 0 228 86.5t148 232t50 326.5v72q0 181 -50 326.5t-148 232t-228 86.5t-228 -86.5
t-148 -232t-50 -326.5v-72q0 -181 50 -326.5t148 -232t228 -86.5zM555 311q-97 0 -158 99.5t-61 294.5v26q0 194 63 293.5t162 99.5q46 0 88 -22v-96q-48 28 -82 28q-60 0 -98.5 -74t-38.5 -225v-35q0 -153 38 -226t99 -73q34 0 84 29v-94q-43 -25 -96 -25z" />
    <glyph glyph-name="ordfeminine" unicode="&#xaa;" horiz-adv-x="512" 
d="M215 825q-56 0 -93.5 50t-37.5 131v14q0 89 40 138.5t109 49.5q47 0 86 -20v55q0 113 -96 113q-43 0 -106 -29v84q56 29 116 29q91 0 136 -60q37 -46 37 -131v-413h-87v67q-41 -78 -104 -78zM82 649v68h350v-68h-350zM238 899q35 0 58 35.5t23 87.5v98q-49 17 -71 17
q-38 0 -59 -30.5t-21 -82.5v-12q0 -52 18 -82.5t52 -30.5z" />
    <glyph glyph-name="guillemotleft" unicode="&#xab;" horiz-adv-x="757" 
d="M604 88l-260 434v17l260 432l90 -51l-213 -388l215 -393zM322 88l-261 434v17l261 432l90 -51l-213 -388l215 -393z" />
    <glyph glyph-name="registered" unicode="&#xae;" horiz-adv-x="638" 
d="M319 727q-115 0 -187.5 99.5t-72.5 252.5v37q0 153 72.5 252.5t187.5 99.5t188 -99.5t73 -252.5v-37q0 -153 -73 -252.5t-188 -99.5zM319 766q100 0 159 87.5t59 225.5v37q0 134 -59.5 224t-158.5 90t-158 -90t-59 -224v-37q0 -138 59 -225.5t158 -87.5zM229 909v391h78
q57 0 90 -31.5t33 -88.5v-2q0 -79 -59 -109l69 -160h-57l-64 146q-6 -2 -18 -2h-18v-144h-54zM283 1100h24q70 0 70 78v2q0 35 -19.5 54t-52.5 17h-22v-151z" />
    <glyph glyph-name="macron" unicode="&#xaf;" horiz-adv-x="1024" 
d="M313 1198v102h398v-102h-398z" />
    <glyph glyph-name="degree" unicode="&#xb0;" horiz-adv-x="522" 
d="M262 801q-94 0 -152.5 85t-58.5 230v19q0 145 58.5 229t152.5 84q93 0 151 -84t58 -229v-19q0 -145 -58 -230t-151 -85zM262 895q52 0 82.5 57t30.5 164v19q0 104 -30.5 161.5t-82.5 57.5q-54 0 -84.5 -57t-30.5 -162v-19q0 -108 30 -164.5t85 -56.5z" />
    <glyph glyph-name="plusminus" unicode="&#xb1;" horiz-adv-x="718" 
d="M664 659h-244v-253h-121v253h-244v123h244v254h121v-254h244v-123zM662 145h-605v121h605v-121z" />
    <glyph glyph-name="two.sup" unicode="&#xb2;" horiz-adv-x="491" 
d="M51 950v68l213 305q68 104 68 160q0 45 -29.5 70.5t-73.5 25.5q-80 0 -155 -86v104q72 72 168 72q81 0 133.5 -47t52.5 -131q0 -51 -19 -97t-61 -106l-170 -248h256v-90h-383z" />
    <glyph glyph-name="three.sup" unicode="&#xb3;" horiz-adv-x="491" 
d="M209 942q-83 0 -148 49v99q62 -62 146 -62q55 0 92 31.5t37 93.5q0 124 -195 127h-2v66l170 225h-246v90h365v-68l-182 -237q84 -15 135 -64.5t51 -136.5q0 -100 -62 -156.5t-161 -56.5z" />
    <glyph glyph-name="acute" unicode="&#xb4;" horiz-adv-x="1024" 
d="M373 1180l143 268l123 -66l-178 -202h-88z" />
    <glyph glyph-name="mu" unicode="&#xb5;" horiz-adv-x="821" 
d="M807 113v-107q-43 -16 -88 -16q-121 0 -152 131q-56 -135 -170 -135q-129 0 -182 155h-4q14 -70 14 -225v-182h-127v1347h127v-739q0 -113 46 -176.5t116 -63.5q73 0 118.5 63.5t45.5 174.5v741h127v-878q1 -55 20.5 -76t59.5 -21q28 0 49 7z" />
    <glyph glyph-name="paragraph" unicode="&#xb6;" horiz-adv-x="684" 
d="M444 0v510h-2q-184 5 -294.5 128.5t-110.5 334.5v4q0 217 116.5 337t311.5 120h115v-1434h-136z" />
    <glyph glyph-name="periodcentered" unicode="&#xb7;" horiz-adv-x="348" 
d="M88 514v205h172v-205h-172z" />
    <glyph glyph-name="cedilla" unicode="&#xb8;" horiz-adv-x="1024" 
d="M489 -236l-124 52l129 211h88z" />
    <glyph glyph-name="one.sup" unicode="&#xb9;" horiz-adv-x="399" 
d="M268 950h-96v604l-129 -67v94l145 82h80v-713z" />
    <glyph glyph-name="ordmasculine" unicode="&#xba;" horiz-adv-x="512" 
d="M256 823q-80 0 -128 81t-48 216v25q0 135 48 216t128 81t128 -81t48 -216v-25q0 -135 -48 -216t-128 -81zM90 649v68h336v-68h-336zM256 903q45 0 67.5 59.5t22.5 157.5v25q0 98 -22.5 157.5t-67.5 59.5t-67.5 -59.5t-22.5 -157.5v-25q0 -98 22.5 -157.5t67.5 -59.5z" />
    <glyph glyph-name="guillemotright" unicode="&#xbb;" horiz-adv-x="757" 
d="M436 88l-90 51l213 389l-215 392l92 51l260 -432v-17zM154 88l-91 51l213 389l-215 392l93 51l260 -432v-17z" />
    <glyph glyph-name="onequarter" unicode="&#xbc;" horiz-adv-x="1013" 
d="M274 723h-96v604l-129 -67v94l146 82h79v-713zM156 0l301 737l278 699h88l-301 -738l-280 -698h-86zM891 143v-143h-86v143h-266v74l235 498h117v-492h67v-80h-67zM807 223v363h-10l-170 -363h180z" />
    <glyph glyph-name="onehalf" unicode="&#xbd;" horiz-adv-x="1013" 
d="M561 0v68l213 305q68 104 68 159q0 45 -30 71t-73 26q-80 0 -155 -86v104q72 72 168 72q81 0 133.5 -47t52.5 -131q0 -51 -19 -97t-61 -106l-170 -248h256v-90h-383zM274 723h-96v604l-129 -67v94l146 82h79v-713zM104 0l302 737l278 699h88l-301 -738l-281 -698h-86z
" />
    <glyph glyph-name="threequarters" unicode="&#xbe;" horiz-adv-x="1105" 
d="M211 715q-83 0 -148 49v98q61 -61 146 -61q55 0 92 31.5t37 93.5q0 124 -195 127h-2v65l170 225h-245v91h364v-68l-182 -238q84 -15 135 -64t51 -136q0 -100 -62 -156.5t-161 -56.5zM254 0l301 737l279 699h88l-301 -738l-281 -698h-86zM993 143v-143h-86v143h-266v74
l236 498h116v-492h68v-80h-68zM909 223v363h-10l-170 -363h180z" />
    <glyph glyph-name="questiondown" unicode="&#xbf;" horiz-adv-x="630" 
d="M283 1235v199h166v-199h-166zM377 -8q-142 0 -236 97.5t-94 248.5v12q0 268 262 393l21 297h86l16 -356l-8 -12q-117 -44 -180.5 -119.5t-63.5 -196.5v-6q0 -107 61 -171t152 -64q102 0 191 55v-125q-97 -53 -207 -53z" />
    <glyph glyph-name="Agrave" unicode="&#xc0;" horiz-adv-x="833" 
d="M43 0l301 1440h143l304 -1440h-136l-75 371h-332l-74 -371h-131zM268 492h291l-145 720zM475 1524h-96l-172 164l127 61z" />
    <glyph glyph-name="Aacute" unicode="&#xc1;" horiz-adv-x="833" 
d="M43 0l301 1440h143l304 -1440h-136l-75 371h-332l-74 -371h-131zM268 492h291l-145 720zM365 1524l141 225l127 -61l-172 -164h-96z" />
    <glyph glyph-name="Acircumflex" unicode="&#xc2;" horiz-adv-x="833" 
d="M43 0l301 1440h143l304 -1440h-136l-75 371h-332l-74 -371h-131zM268 492h291l-145 720zM215 1522l147 211h115l148 -211h-109l-98 114l-99 -114h-104z" />
    <glyph glyph-name="Atilde" unicode="&#xc3;" horiz-adv-x="833" 
d="M43 0l301 1440h143l304 -1440h-136l-75 371h-332l-74 -371h-131zM268 492h291l-145 720zM526 1526q-22 0 -42 5.5t-33 13t-37 22.5q-58 37 -78 37q-19 0 -31.5 -17.5t-25.5 -56.5l-86 20q43 158 124 158q32 0 55.5 -10t59.5 -33q59 -35 76 -35q19 0 31.5 17.5t25.5 56.5
l86 -21q-41 -157 -125 -157z" />
    <glyph glyph-name="Adieresis" unicode="&#xc4;" horiz-adv-x="833" 
d="M43 0l301 1440h143l304 -1440h-136l-75 371h-332l-74 -371h-131zM268 492h291l-145 720zM471 1540v154h135v-154h-135zM233 1540v154h136v-154h-136z" />
    <glyph glyph-name="Aring" unicode="&#xc5;" horiz-adv-x="833" 
d="M43 0l285 1366q-36 21 -57 57t-21 80q0 66 49.5 111t118.5 45t116.5 -44.5t47.5 -111.5q0 -43 -22 -78.5t-58 -56.5l289 -1368h-136l-75 371h-332l-74 -371h-131zM268 492h291l-145 720zM416 1411q41 0 66.5 25.5t25.5 66.5t-25.5 66.5t-66.5 25.5t-67.5 -25.5
t-26.5 -66.5t26.5 -66.5t67.5 -25.5z" />
    <glyph glyph-name="AE" unicode="&#xc6;" horiz-adv-x="1071" 
d="M8 0l395 1434h609v-125h-371v-525h336v-125h-336v-534h377v-125h-510v371h-270l-101 -371h-129zM268 492h240v813h-21z" />
    <glyph glyph-name="Ccedilla" unicode="&#xc7;" horiz-adv-x="677" 
d="M381 -236l-125 52l113 184q-137 40 -219 217t-82 479v41q0 176 31.5 314t86 222.5t124.5 128.5t151 44q75 0 147 -35v-139q-80 45 -139 45q-117 0 -191.5 -148.5t-74.5 -431.5v-41q0 -287 74.5 -433t191.5 -146q69 0 143 47v-133q-64 -40 -153 -43z" />
    <glyph glyph-name="Egrave" unicode="&#xc8;" horiz-adv-x="667" 
d="M418 1513h-96l-172 164l126 62zM104 0v1434h504v-125h-370v-525h335v-125h-335v-534h376v-125h-510z" />
    <glyph glyph-name="Eacute" unicode="&#xc9;" horiz-adv-x="667" 
d="M307 1513l142 226l126 -62l-172 -164h-96zM104 0v1434h504v-125h-370v-525h335v-125h-335v-534h376v-125h-510z" />
    <glyph glyph-name="Ecircumflex" unicode="&#xca;" horiz-adv-x="667" 
d="M104 0v1434h504v-125h-370v-525h335v-125h-335v-534h376v-125h-510zM158 1520l147 211h115l147 -211h-108l-99 114l-98 -114h-104z" />
    <glyph glyph-name="Edieresis" unicode="&#xcb;" horiz-adv-x="667" 
d="M414 1530v153h135v-153h-135zM176 1530v153h135v-153h-135zM104 0v1434h504v-125h-370v-525h335v-125h-335v-534h376v-125h-510z" />
    <glyph glyph-name="Igrave" unicode="&#xcc;" horiz-adv-x="364" 
d="M115 0v1434h133v-1434h-133zM242 1513h-97l-172 164l127 62z" />
    <glyph glyph-name="Iacute" unicode="&#xcd;" horiz-adv-x="364" 
d="M115 0v1434h133v-1434h-133zM129 1513l141 226l127 -62l-172 -164h-96z" />
    <glyph glyph-name="Icircumflex" unicode="&#xce;" horiz-adv-x="364" 
d="M115 0v1434h133v-1434h-133zM-20 1520l147 211h115l147 -211h-108l-99 114l-98 -114h-104z" />
    <glyph glyph-name="Idieresis" unicode="&#xcf;" horiz-adv-x="364" 
d="M115 0v1434h133v-1434h-133zM236 1530v153h135v-153h-135zM-2 1530v153h135v-153h-135z" />
    <glyph glyph-name="Eth" unicode="&#xd0;" horiz-adv-x="843" 
d="M14 670v102h103v662h188q216 0 342.5 -180t126.5 -517v-41q0 -337 -126.5 -516.5t-342.5 -179.5h-188v670h-103zM641 696v41q0 283 -92 429.5t-240 146.5h-59v-541h162v-102h-162v-549h63q148 0 238 145.5t90 429.5z" />
    <glyph glyph-name="Ntilde" unicode="&#xd1;" horiz-adv-x="864" 
d="M543 1507q-32 0 -55 9.5t-58 31.5q-58 37 -78 37q-19 0 -31.5 -17.5t-25.5 -56.5l-86 21q43 158 125 158q32 0 55.5 -10t59.5 -33q59 -35 75 -35q19 0 32 17.5t26 56.5l86 -21q-41 -158 -125 -158zM104 0v1434h134l395 -1080v1080h129v-1434h-125l-406 1110v-1110h-127z
" />
    <glyph glyph-name="Ograve" unicode="&#xd2;" horiz-adv-x="839" 
d="M479 1524h-96l-172 164l127 61zM420 -18q-158 0 -255 184t-97 528v45q0 344 97 528.5t255 184.5t254 -184.5t96 -528.5v-45q0 -344 -96 -528t-254 -184zM420 104q97 0 157 150t60 440v45q0 290 -60 440t-157 150t-157 -150t-60 -440v-45q0 -290 60 -440t157 -150z" />
    <glyph glyph-name="Oacute" unicode="&#xd3;" horiz-adv-x="839" 
d="M367 1524l141 225l127 -61l-172 -164h-96zM420 -18q-158 0 -255 184t-97 528v45q0 344 97 528.5t255 184.5t254 -184.5t96 -528.5v-45q0 -344 -96 -528t-254 -184zM420 104q97 0 157 150t60 440v45q0 290 -60 440t-157 150t-157 -150t-60 -440v-45q0 -290 60 -440
t157 -150z" />
    <glyph glyph-name="Ocircumflex" unicode="&#xd4;" horiz-adv-x="839" 
d="M420 -18q-158 0 -255 184t-97 528v45q0 344 97 528.5t255 184.5t254 -184.5t96 -528.5v-45q0 -344 -96 -528t-254 -184zM420 104q97 0 157 150t60 440v45q0 290 -60 440t-157 150t-157 -150t-60 -440v-45q0 -290 60 -440t157 -150zM217 1530l148 211h114l148 -211h-109
l-98 115l-98 -115h-105z" />
    <glyph glyph-name="Otilde" unicode="&#xd5;" horiz-adv-x="839" 
d="M530 1526q-22 0 -42 5.5t-33 13t-37 22.5q-58 37 -78 37q-19 0 -31.5 -17.5t-25.5 -56.5l-86 20q43 158 125 158q32 0 55 -10t59 -33q59 -35 76 -35q19 0 31.5 17.5t25.5 56.5l86 -21q-41 -157 -125 -157zM420 -18q-158 0 -255 184t-97 528v45q0 344 97 528.5t255 184.5
t254 -184.5t96 -528.5v-45q0 -344 -96 -528t-254 -184zM420 104q97 0 157 150t60 440v45q0 290 -60 440t-157 150t-157 -150t-60 -440v-45q0 -290 60 -440t157 -150z" />
    <glyph glyph-name="Odieresis" unicode="&#xd6;" horiz-adv-x="839" 
d="M473 1540v154h135v-154h-135zM236 1540v154h135v-154h-135zM420 -18q-158 0 -255 184t-97 528v45q0 344 97 528.5t255 184.5t254 -184.5t96 -528.5v-45q0 -344 -96 -528t-254 -184zM420 104q97 0 157 150t60 440v45q0 290 -60 440t-157 150t-157 -150t-60 -440v-45
q0 -290 60 -440t157 -150z" />
    <glyph glyph-name="multiply" unicode="&#xd7;" horiz-adv-x="718" 
d="M543 424l-185 209l-184 -209l-90 78l197 219l-197 219l90 78l184 -209l187 209l90 -78l-197 -219l197 -219z" />
    <glyph glyph-name="Oslash" unicode="&#xd8;" horiz-adv-x="839" 
d="M666 1448h102l-84 -203q86 -189 86 -506v-45q0 -344 -96 -528t-254 -184q-126 0 -205 104l-43 -100h-102l84 200q-86 189 -86 508v45q0 344 97 528.5t255 184.5q122 0 203 -106zM420 102q98 0 158.5 150.5t60.5 441.5v45q0 184 -29 326l-344 -832q58 -131 154 -131z
M201 739v-45q0 -184 26 -327l344 833q-58 131 -151 131q-98 0 -158.5 -150.5t-60.5 -441.5z" />
    <glyph glyph-name="Ugrave" unicode="&#xd9;" horiz-adv-x="837" 
d="M477 1505h-96l-172 164l127 62zM418 -18q-150 0 -236 104.5t-86 294.5v1053h133v-1059q0 -132 50.5 -201.5t138.5 -69.5q89 0 139.5 69t50.5 202v1059h133v-1053q0 -190 -86.5 -294.5t-236.5 -104.5z" />
    <glyph glyph-name="Uacute" unicode="&#xda;" horiz-adv-x="837" 
d="M367 1505l141 226l127 -62l-172 -164h-96zM418 -18q-150 0 -236 104.5t-86 294.5v1053h133v-1059q0 -132 50.5 -201.5t138.5 -69.5q89 0 139.5 69t50.5 202v1059h133v-1053q0 -190 -86.5 -294.5t-236.5 -104.5z" />
    <glyph glyph-name="Ucircumflex" unicode="&#xdb;" horiz-adv-x="837" 
d="M418 -18q-150 0 -236 104.5t-86 294.5v1053h133v-1059q0 -132 50.5 -201.5t138.5 -69.5q89 0 139.5 69t50.5 202v1059h133v-1053q0 -190 -86.5 -294.5t-236.5 -104.5zM217 1511l148 211h114l148 -211h-109l-98 115l-98 -115h-105z" />
    <glyph glyph-name="Udieresis" unicode="&#xdc;" horiz-adv-x="837" 
d="M473 1522v153h135v-153h-135zM236 1522v153h135v-153h-135zM418 -18q-150 0 -236 104.5t-86 294.5v1053h133v-1059q0 -132 50.5 -201.5t138.5 -69.5q89 0 139.5 69t50.5 202v1059h133v-1053q0 -190 -86.5 -294.5t-236.5 -104.5z" />
    <glyph glyph-name="Yacute" unicode="&#xdd;" 
d="M303 0v604l-291 830h142l217 -658l219 658h135l-289 -830v-604h-133zM317 1505l142 226l127 -62l-172 -164h-97z" />
    <glyph glyph-name="Thorn" unicode="&#xde;" horiz-adv-x="757" 
d="M104 0v1434h134v-236h63q186 0 302 -120.5t116 -336.5v-4q0 -217 -111.5 -338.5t-312.5 -126.5h-57v-272h-134zM238 393h63q136 2 210.5 89.5t74.5 250.5v4q0 163 -76 250.5t-209 87.5h-63v-682z" />
    <glyph glyph-name="germandbls" unicode="&#xdf;" horiz-adv-x="765" 
d="M340 -4v110q244 20 244 281v6q0 253 -244 299v99q74 28 121 80.5t65.5 111t18.5 127.5v8q0 103 -44 160t-112 57q-75 0 -119.5 -71t-44.5 -195v-1069h-127v1061q0 185 78 288t217 103q124 0 201.5 -89.5t77.5 -232.5v-12q0 -130 -56.5 -222t-152.5 -138q250 -92 250 -359
v-12q0 -176 -98 -281.5t-275 -109.5z" />
    <glyph glyph-name="agrave" unicode="&#xe0;" horiz-adv-x="708" 
d="M285 -18q-104 0 -170 93t-66 236v21q0 161 72.5 253.5t200.5 92.5q85 0 172 -41v117q0 106 -48.5 162.5t-144.5 56.5q-104 0 -195 -49v123q100 47 209 47q139 0 222 -80q84 -84 84 -248v-766h-129v145q-67 -163 -207 -163zM322 92q76 0 124 68.5t48 163.5v206
q-80 39 -150 39q-83 0 -126.5 -61t-43.5 -168v-21q0 -105 38.5 -166t109.5 -61zM319 1182l-178 202l123 66l142 -268h-87z" />
    <glyph glyph-name="aacute" unicode="&#xe1;" horiz-adv-x="708" 
d="M285 -18q-104 0 -170 93t-66 236v21q0 161 72.5 253.5t200.5 92.5q85 0 172 -41v117q0 106 -48.5 162.5t-144.5 56.5q-104 0 -195 -49v123q100 47 209 47q139 0 222 -80q84 -84 84 -248v-766h-129v145q-67 -163 -207 -163zM322 92q76 0 124 68.5t48 163.5v206
q-80 39 -150 39q-83 0 -126.5 -61t-43.5 -168v-21q0 -105 38.5 -166t109.5 -61zM301 1182l143 268l123 -66l-178 -202h-88z" />
    <glyph glyph-name="acircumflex" unicode="&#xe2;" horiz-adv-x="708" 
d="M285 -18q-104 0 -170 93t-66 236v21q0 161 72.5 253.5t200.5 92.5q85 0 172 -41v117q0 106 -48.5 162.5t-144.5 56.5q-104 0 -195 -49v123q100 47 209 47q139 0 222 -80q84 -84 84 -248v-766h-129v145q-67 -163 -207 -163zM322 92q76 0 124 68.5t48 163.5v206
q-80 39 -150 39q-83 0 -126.5 -61t-43.5 -168v-21q0 -105 38.5 -166t109.5 -61zM162 1188l143 260h98l144 -260h-98l-97 147l-96 -147h-94z" />
    <glyph glyph-name="atilde" unicode="&#xe3;" horiz-adv-x="708" 
d="M285 -18q-104 0 -170 93t-66 236v21q0 161 72.5 253.5t200.5 92.5q85 0 172 -41v117q0 106 -48.5 162.5t-144.5 56.5q-104 0 -195 -49v123q100 47 209 47q139 0 222 -80q84 -84 84 -248v-766h-129v145q-67 -163 -207 -163zM322 92q76 0 124 68.5t48 163.5v206
q-80 39 -150 39q-83 0 -126.5 -61t-43.5 -168v-21q0 -105 38.5 -166t109.5 -61zM457 1184q-30 0 -53 11.5t-56 37.5q-51 43 -76 43q-33 0 -57 -88l-80 20q35 170 121 170q30 0 53 -11.5t56 -37.5q54 -43 75 -43q34 0 58 88l80 -20q-35 -170 -121 -170z" />
    <glyph glyph-name="adieresis" unicode="&#xe4;" horiz-adv-x="708" 
d="M285 -18q-104 0 -170 93t-66 236v21q0 161 72.5 253.5t200.5 92.5q85 0 172 -41v117q0 106 -48.5 162.5t-144.5 56.5q-104 0 -195 -49v123q100 47 209 47q139 0 222 -80q84 -84 84 -248v-766h-129v145q-67 -163 -207 -163zM322 92q76 0 124 68.5t48 163.5v206
q-80 39 -150 39q-83 0 -126.5 -61t-43.5 -168v-21q0 -105 38.5 -166t109.5 -61zM406 1198v160h126v-160h-126zM176 1198v160h127v-160h-127z" />
    <glyph glyph-name="aring" unicode="&#xe5;" horiz-adv-x="708" 
d="M285 -18q-104 0 -170 93t-66 236v21q0 161 72.5 253.5t200.5 92.5q85 0 172 -41v117q0 106 -48.5 162.5t-144.5 56.5q-104 0 -195 -49v123q100 47 209 47q139 0 222 -80q84 -84 84 -248v-766h-129v145q-67 -163 -207 -163zM322 92q76 0 124 68.5t48 163.5v206
q-80 39 -150 39q-83 0 -126.5 -61t-43.5 -168v-21q0 -105 38.5 -166t109.5 -61zM352 1180q-72 0 -118 48t-46 120t48 120t120 48t118 -48t46 -120t-48 -120t-120 -48zM354 1243q41 0 69 30.5t28 74.5t-28 74t-69 30t-68.5 -30t-27.5 -74t27.5 -74.5t68.5 -30.5z" />
    <glyph glyph-name="ae" unicode="&#xe6;" horiz-adv-x="1136" 
d="M293 -18q-110 0 -177 91t-67 238v21q0 161 72.5 253.5t200.5 92.5q85 0 172 -41v117q0 106 -48.5 162.5t-144.5 56.5q-101 0 -195 -49v123q96 47 211 47q193 0 254 -166q36 83 92 126.5t123 43.5q131 0 210 -140t79 -393v-82h-465q4 -185 71.5 -282t168.5 -97
q49 0 90 15.5t98 52.5l13 -123q-62 -37 -107.5 -51t-109.5 -14q-96 0 -172 59t-119 174q-32 -104 -95 -169.5t-155 -65.5zM610 590h344q0 174 -46.5 282.5t-121.5 108.5t-123.5 -100t-52.5 -291zM324 92q67 0 117.5 68t72.5 168q-20 99 -16 204q-88 37 -154 37
q-83 0 -126.5 -61t-43.5 -168v-21q0 -104 39.5 -165.5t110.5 -61.5z" />
    <glyph glyph-name="ccedilla" unicode="&#xe7;" horiz-adv-x="577" 
d="M315 -236l-125 52l111 184q-108 37 -174 170t-66 352v33q0 133 27.5 238.5t74.5 170.5t105.5 98.5t124.5 33.5q82 0 135 -35v-135q-59 47 -129 47q-84 0 -146.5 -106t-62.5 -308v-41q0 -208 62.5 -310t155.5 -102q57 0 120 50v-129q-62 -43 -137 -43z" />
    <glyph glyph-name="egrave" unicode="&#xe8;" horiz-adv-x="714" 
d="M410 -16q-148 0 -249.5 140.5t-101.5 393.5v29q0 263 88 407t218 144t209 -140t79 -393v-82h-467q6 -187 73 -283t169 -96q49 0 90 15.5t98 52.5l13 -123q-62 -36 -108.5 -50.5t-110.5 -14.5zM186 590h344q0 173 -46 282t-119 109q-77 0 -126 -100t-53 -291zM332 1182
l-178 202l122 66l142 -268h-86z" />
    <glyph glyph-name="eacute" unicode="&#xe9;" horiz-adv-x="714" 
d="M313 1182l144 268l123 -66l-179 -202h-88zM410 -16q-148 0 -249.5 140.5t-101.5 393.5v29q0 263 88 407t218 144t209 -140t79 -393v-82h-467q6 -187 73 -283t169 -96q49 0 90 15.5t98 52.5l13 -123q-62 -36 -108.5 -50.5t-110.5 -14.5zM186 590h344q0 173 -46 282
t-119 109q-77 0 -126 -100t-53 -291z" />
    <glyph glyph-name="ecircumflex" unicode="&#xea;" horiz-adv-x="714" 
d="M174 1188l143 260h99l143 -260h-98l-96 147l-97 -147h-94zM410 -16q-148 0 -249.5 140.5t-101.5 393.5v29q0 263 88 407t218 144t209 -140t79 -393v-82h-467q6 -187 73 -283t169 -96q49 0 90 15.5t98 52.5l13 -123q-62 -36 -108.5 -50.5t-110.5 -14.5zM186 590h344
q0 173 -46 282t-119 109q-77 0 -126 -100t-53 -291z" />
    <glyph glyph-name="edieresis" unicode="&#xeb;" horiz-adv-x="714" 
d="M418 1198v160h127v-160h-127zM188 1198v160h127v-160h-127zM410 -16q-148 0 -249.5 140.5t-101.5 393.5v29q0 263 88 407t218 144t209 -140t79 -393v-82h-467q6 -187 73 -283t169 -96q49 0 90 15.5t98 52.5l13 -123q-62 -36 -108.5 -50.5t-110.5 -14.5zM186 590h344
q0 173 -46 282t-119 109q-77 0 -126 -100t-53 -291z" />
    <glyph glyph-name="igrave" unicode="&#xec;" horiz-adv-x="342" 
d="M106 0v1081h130v-1081h-130zM139 1180l-178 202l123 66l141 -268h-86z" />
    <glyph glyph-name="iacute" unicode="&#xed;" horiz-adv-x="342" 
d="M121 1180l143 268l123 -66l-178 -202h-88zM106 0v1081h130v-1081h-130z" />
    <glyph glyph-name="icircumflex" unicode="&#xee;" horiz-adv-x="342" 
d="M-18 1186l143 260h98l144 -260h-99l-96 147l-96 -147h-94zM106 0v1081h130v-1081h-130z" />
    <glyph glyph-name="idieresis" unicode="&#xef;" horiz-adv-x="342" 
d="M225 1196v160h127v-160h-127zM-4 1196v160h127v-160h-127zM106 0v1081h130v-1081h-130z" />
    <glyph glyph-name="eth" unicode="&#xf0;" horiz-adv-x="749" 
d="M604 1366l-125 -68q207 -337 207 -706v-39q0 -276 -90 -423.5t-225 -147.5q-130 0 -220 147t-90 395v33q0 241 86 389t199 148q76 0 156 -99q-46 124 -123 248l-146 -78l-45 84l136 74q-62 82 -101 123h150q45 -58 53 -70l135 74zM373 98q78 0 131 115t53 311v33
q0 202 -55 314t-133 112q-76 0 -128.5 -117.5t-52.5 -308.5v-33q0 -194 52.5 -310t132.5 -116z" />
    <glyph glyph-name="ntilde" unicode="&#xf1;" horiz-adv-x="765" 
d="M98 0v1081h127v-151q74 170 215 170q109 0 172.5 -86.5t63.5 -239.5v-774h-127v752q0 114 -39.5 174.5t-112.5 60.5t-122.5 -69t-49.5 -179v-739h-127zM489 1184q-30 0 -52.5 11t-55.5 38q-51 43 -76 43q-33 0 -57 -88l-80 20q35 170 121 170q30 0 52.5 -11t55.5 -38
q54 -43 76 -43q33 0 57 88l80 -20q-35 -170 -121 -170z" />
    <glyph glyph-name="ograve" unicode="&#xf2;" horiz-adv-x="749" 
d="M375 -18q-134 0 -224 146.5t-90 395.5v31q0 249 90.5 396t225.5 147q134 0 223.5 -147t89.5 -396v-31q0 -248 -91 -395t-224 -147zM375 98q80 0 133 117t53 309v33q0 193 -53 308.5t-133 115.5t-133.5 -115.5t-53.5 -308.5v-33q0 -192 53.5 -309t133.5 -117zM344 1182
l-178 202l123 66l141 -268h-86z" />
    <glyph glyph-name="oacute" unicode="&#xf3;" horiz-adv-x="749" 
d="M326 1182l143 268l123 -66l-178 -202h-88zM375 -18q-134 0 -224 146.5t-90 395.5v31q0 249 90.5 396t225.5 147q134 0 223.5 -147t89.5 -396v-31q0 -248 -91 -395t-224 -147zM375 98q80 0 133 117t53 309v33q0 193 -53 308.5t-133 115.5t-133.5 -115.5t-53.5 -308.5v-33
q0 -192 53.5 -309t133.5 -117z" />
    <glyph glyph-name="ocircumflex" unicode="&#xf4;" horiz-adv-x="749" 
d="M186 1188l144 260h98l143 -260h-98l-96 147l-96 -147h-95zM375 -18q-134 0 -224 146.5t-90 395.5v31q0 249 90.5 396t225.5 147q134 0 223.5 -147t89.5 -396v-31q0 -248 -91 -395t-224 -147zM375 98q80 0 133 117t53 309v33q0 193 -53 308.5t-133 115.5t-133.5 -115.5
t-53.5 -308.5v-33q0 -192 53.5 -309t133.5 -117z" />
    <glyph glyph-name="otilde" unicode="&#xf5;" horiz-adv-x="749" 
d="M375 -18q-134 0 -224 146.5t-90 395.5v31q0 249 90.5 396t225.5 147q134 0 223.5 -147t89.5 -396v-31q0 -248 -91 -395t-224 -147zM375 98q80 0 133 117t53 309v33q0 193 -53 308.5t-133 115.5t-133.5 -115.5t-53.5 -308.5v-33q0 -192 53.5 -309t133.5 -117zM479 1184
q-30 0 -52.5 11t-55.5 38q-51 43 -76 43q-33 0 -57 -88l-80 20q35 170 121 170q30 0 52.5 -11t55.5 -38q54 -43 76 -43q33 0 57 88l80 -20q-35 -170 -121 -170z" />
    <glyph glyph-name="odieresis" unicode="&#xf6;" horiz-adv-x="749" 
d="M430 1198v160h127v-160h-127zM201 1198v160h127v-160h-127zM375 -18q-134 0 -224 146.5t-90 395.5v31q0 249 90.5 396t225.5 147q134 0 223.5 -147t89.5 -396v-31q0 -248 -91 -395t-224 -147zM375 98q80 0 133 117t53 309v33q0 193 -53 308.5t-133 115.5t-133.5 -115.5
t-53.5 -308.5v-33q0 -192 53.5 -309t133.5 -117z" />
    <glyph glyph-name="divide" unicode="&#xf7;" horiz-adv-x="718" 
d="M287 918v169h145v-169h-145zM662 657h-605v127h605v-127zM287 354v170h145v-170h-145z" />
    <glyph glyph-name="oslash" unicode="&#xf8;" horiz-adv-x="749" 
d="M590 1092h98l-80 -160q82 -148 82 -377v-31q0 -248 -91 -395t-224 -147q-101 0 -178 86l-37 -78h-99l78 160q-78 153 -78 374v31q0 249 90.5 396t225.5 147q96 0 174 -84zM375 96q82 0 137 117.5t55 310.5v33q0 132 -26 234l-293 -603q53 -92 127 -92zM182 557v-33
q0 -127 27 -233l293 600q-53 92 -127 92q-82 0 -137.5 -116.5t-55.5 -309.5z" />
    <glyph glyph-name="ugrave" unicode="&#xf9;" horiz-adv-x="765" 
d="M326 -18q-109 0 -172.5 86t-63.5 239v774h127v-751q0 -115 39.5 -175.5t112.5 -60.5t122.5 68.5t49.5 177.5v741h127v-1081h-127v150q-74 -168 -215 -168zM348 1171l-178 203l123 66l141 -269h-86z" />
    <glyph glyph-name="uacute" unicode="&#xfa;" horiz-adv-x="765" 
d="M328 1171l143 269l123 -66l-178 -203h-88zM326 -18q-109 0 -172.5 86t-63.5 239v774h127v-751q0 -115 39.5 -175.5t112.5 -60.5t122.5 68.5t49.5 177.5v741h127v-1081h-127v150q-74 -168 -215 -168z" />
    <glyph glyph-name="ucircumflex" unicode="&#xfb;" horiz-adv-x="765" 
d="M190 1178l144 260h98l143 -260h-98l-96 147l-96 -147h-95zM326 -18q-109 0 -172.5 86t-63.5 239v774h127v-751q0 -115 39.5 -175.5t112.5 -60.5t122.5 68.5t49.5 177.5v741h127v-1081h-127v150q-74 -168 -215 -168z" />
    <glyph glyph-name="udieresis" unicode="&#xfc;" horiz-adv-x="765" 
d="M434 1188v160h127v-160h-127zM205 1188v160h127v-160h-127zM326 -18q-109 0 -172.5 86t-63.5 239v774h127v-751q0 -115 39.5 -175.5t112.5 -60.5t122.5 68.5t49.5 177.5v741h127v-1081h-127v150q-74 -168 -215 -168z" />
    <glyph glyph-name="yacute" unicode="&#xfd;" horiz-adv-x="716" 
d="M358 238l187 843h127l-320 -1347h-125v2l70 282l-252 1063h129zM307 1171l144 269l122 -66l-178 -203h-88z" />
    <glyph glyph-name="thorn" unicode="&#xfe;" horiz-adv-x="774" 
d="M98 -266v1712h127v-553q30 89 87 148t130 59q115 0 192 -138t77 -395v-53q0 -255 -77.5 -393.5t-191.5 -138.5q-74 0 -130.5 58t-86.5 146v-452h-127zM408 100q76 0 125 111t49 307v45q0 196 -49 307t-125 111t-131.5 -112t-55.5 -300v-57q0 -188 55.5 -300t131.5 -112z
" />
    <glyph glyph-name="ydieresis" unicode="&#xff;" horiz-adv-x="716" 
d="M358 238l187 843h127l-320 -1347h-125v2l70 282l-252 1063h129zM412 1188v160h127v-160h-127zM182 1188v160h127v-160h-127z" />
    <glyph glyph-name="Amacron" unicode="&#x100;" horiz-adv-x="833" 
d="M43 0l301 1440h143l304 -1440h-136l-75 371h-332l-74 -371h-131zM268 492h291l-145 720zM209 1542v105h422v-105h-422z" />
    <glyph glyph-name="amacron" unicode="&#x101;" horiz-adv-x="708" 
d="M285 -18q-104 0 -170 93t-66 236v21q0 161 72.5 253.5t200.5 92.5q85 0 172 -41v117q0 106 -48.5 162.5t-144.5 56.5q-104 0 -195 -49v123q100 47 209 47q139 0 222 -80q84 -84 84 -248v-766h-129v145q-67 -163 -207 -163zM322 92q76 0 124 68.5t48 163.5v206
q-80 39 -150 39q-83 0 -126.5 -61t-43.5 -168v-21q0 -105 38.5 -166t109.5 -61zM156 1200v103h397v-103h-397z" />
    <glyph glyph-name="Abreve" unicode="&#x102;" horiz-adv-x="833" 
d="M43 0l301 1440h143l304 -1440h-136l-75 371h-332l-74 -371h-131zM268 492h291l-145 720zM420 1524q-87 0 -141 45t-64 135h94q21 -80 111 -80q89 0 110 80h95q-10 -90 -64 -135t-141 -45z" />
    <glyph glyph-name="abreve" unicode="&#x103;" horiz-adv-x="708" 
d="M285 -18q-104 0 -170 93t-66 236v21q0 161 72.5 253.5t200.5 92.5q85 0 172 -41v117q0 106 -48.5 162.5t-144.5 56.5q-104 0 -195 -49v123q100 47 209 47q139 0 222 -80q84 -84 84 -248v-766h-129v145q-67 -163 -207 -163zM322 92q76 0 124 68.5t48 163.5v206
q-80 39 -150 39q-83 0 -126.5 -61t-43.5 -168v-21q0 -105 38.5 -166t109.5 -61zM354 1182q-86 0 -140 51t-64 156h92q21 -109 112 -109q92 0 113 109h92q-10 -105 -64.5 -156t-140.5 -51z" />
    <glyph glyph-name="Aogonek" unicode="&#x104;" horiz-adv-x="833" 
d="M801 -174v-86q-25 -2 -53 -2q-73 0 -109.5 28.5t-36.5 79.5q0 70 78 154h-25l-75 371h-332l-74 -371h-131l301 1440h143l304 -1440h-23q-53 -77 -53 -119q0 -30 21 -42.5t65 -12.5zM268 492h291l-145 720z" />
    <glyph glyph-name="aogonek" unicode="&#x105;" horiz-adv-x="708" 
d="M631 -174v-86q-25 -2 -53 -2q-73 0 -109.5 28.5t-36.5 79.5q0 70 78 154h-18v145q-67 -163 -207 -163q-104 0 -170 93t-66 236v21q0 161 72.5 253.5t200.5 92.5q85 0 172 -41v117q0 106 -48.5 162.5t-144.5 56.5q-104 0 -195 -49v123q100 47 209 47q139 0 222 -80
q84 -84 84 -248v-766h-23q-53 -77 -53 -119q0 -30 21 -42.5t65 -12.5zM322 92q76 0 124 68.5t48 163.5v206q-80 39 -150 39q-83 0 -126.5 -61t-43.5 -168v-21q0 -105 38.5 -166t109.5 -61z" />
    <glyph glyph-name="Cacute" unicode="&#x106;" horiz-adv-x="677" 
d="M455 -12q-173 0 -280 180t-107 528v41q0 176 31.5 314t86 222.5t124.5 128.5t151 44q75 0 147 -35v-139q-80 45 -139 45q-117 0 -191.5 -148.5t-74.5 -431.5v-41q0 -287 74.5 -433t191.5 -146q69 0 143 47v-133q-67 -43 -157 -43zM367 1524l141 225l127 -61l-172 -164
h-96z" />
    <glyph glyph-name="cacute" unicode="&#x107;" horiz-adv-x="577" 
d="M311 1182l144 268l123 -66l-179 -202h-88zM391 -16q-143 0 -236.5 137.5t-93.5 400.5v33q0 133 27.5 238.5t74.5 170.5t105.5 98.5t124.5 33.5q82 0 135 -35v-135q-59 47 -129 47q-84 0 -146.5 -106t-62.5 -308v-41q0 -208 62.5 -310t155.5 -102q57 0 120 50v-129
q-62 -43 -137 -43z" />
    <glyph glyph-name="Cdotaccent" unicode="&#x10a;" horiz-adv-x="677" 
d="M352 1540v154h140v-154h-140zM455 -12q-173 0 -280 180t-107 528v41q0 176 31.5 314t86 222.5t124.5 128.5t151 44q75 0 147 -35v-139q-80 45 -139 45q-117 0 -191.5 -148.5t-74.5 -431.5v-41q0 -287 74.5 -433t191.5 -146q69 0 143 47v-133q-67 -43 -157 -43z" />
    <glyph glyph-name="cdotaccent" unicode="&#x10b;" horiz-adv-x="577" 
d="M391 -16q-143 0 -236.5 137.5t-93.5 400.5v33q0 133 27.5 238.5t74.5 170.5t105.5 98.5t124.5 33.5q82 0 135 -35v-135q-59 47 -129 47q-84 0 -146.5 -106t-62.5 -308v-41q0 -208 62.5 -310t155.5 -102q57 0 120 50v-129q-62 -43 -137 -43zM297 1198v160h135v-160h-135z
" />
    <glyph glyph-name="Ccaron" unicode="&#x10c;" horiz-adv-x="677" 
d="M455 -12q-173 0 -280 180t-107 528v41q0 176 31.5 314t86 222.5t124.5 128.5t151 44q75 0 147 -35v-139q-80 45 -139 45q-117 0 -191.5 -148.5t-74.5 -431.5v-41q0 -287 74.5 -433t191.5 -146q69 0 143 47v-133q-67 -43 -157 -43zM627 1741l-148 -211h-114l-148 211h109
l98 -113l98 113h105z" />
    <glyph glyph-name="ccaron" unicode="&#x10d;" horiz-adv-x="577" 
d="M557 1448l-143 -260h-99l-143 260h98l97 -148l96 148h94zM391 -16q-143 0 -236.5 137.5t-93.5 400.5v33q0 133 27.5 238.5t74.5 170.5t105.5 98.5t124.5 33.5q82 0 135 -35v-135q-59 47 -129 47q-84 0 -146.5 -106t-62.5 -308v-41q0 -208 62.5 -310t155.5 -102
q57 0 120 50v-129q-62 -43 -137 -43z" />
    <glyph glyph-name="Dcaron" unicode="&#x10e;" horiz-adv-x="829" 
d="M606 1731l-147 -211h-115l-147 211h108l98 -113l99 113h104zM104 0v1434h187q216 0 343.5 -180t127.5 -517v-41q0 -336 -127.5 -516t-343.5 -180h-187zM297 1313h-59v-1192h61q149 0 238.5 145.5t89.5 429.5v41q0 283 -91.5 429.5t-238.5 146.5z" />
    <glyph glyph-name="dcaron" unicode="&#x10f;" horiz-adv-x="774" 
d="M737 1145l17 301h100v-4l-59 -297h-58zM332 -18q-113 0 -189.5 137.5t-76.5 394.5v53q0 255 76.5 394t189.5 139q40 0 74 -16.5t60 -47t45 -64t38 -77.5v551h129v-1446h-129v188q-84 -206 -217 -206zM367 100q76 0 131 112t55 300v57q0 188 -55 300t-131 112t-125 -111
t-49 -307v-45q0 -196 49 -307t125 -111z" />
    <glyph glyph-name="Dcroat" unicode="&#x110;" horiz-adv-x="843" 
d="M14 670v102h103v662h188q216 0 342.5 -180t126.5 -517v-41q0 -337 -126.5 -516.5t-342.5 -179.5h-188v670h-103zM641 696v41q0 283 -92 429.5t-240 146.5h-59v-541h162v-102h-162v-549h63q148 0 238 145.5t90 429.5z" />
    <glyph glyph-name="dcroat" unicode="&#x111;" horiz-adv-x="774" 
d="M346 1217v96h203v133h129v-133h90v-99h-90v-1214h-129v188q-84 -206 -217 -206q-113 0 -189.5 137.5t-76.5 394.5v53q0 255 76.5 394t189.5 139q40 0 74 -16.5t60 -47t45 -64t38 -77.5v322h-203zM367 100q76 0 131 112t55 300v57q0 188 -55 300t-131 112t-125 -111
t-49 -307v-45q0 -196 49 -307t125 -111z" />
    <glyph glyph-name="Emacron" unicode="&#x112;" horiz-adv-x="667" 
d="M152 1532v104h421v-104h-421zM104 0v1434h504v-125h-370v-525h335v-125h-335v-534h376v-125h-510z" />
    <glyph glyph-name="emacron" unicode="&#x113;" horiz-adv-x="714" 
d="M410 -16q-148 0 -249.5 140.5t-101.5 393.5v29q0 263 88 407t218 144t209 -140t79 -393v-82h-467q6 -187 73 -283t169 -96q49 0 90 15.5t98 52.5l13 -123q-62 -36 -108.5 -50.5t-110.5 -14.5zM186 590h344q0 173 -46 282t-119 109q-77 0 -126 -100t-53 -291zM168 1200
v103h397v-103h-397z" />
    <glyph glyph-name="Ebreve" unicode="&#x114;" horiz-adv-x="667" 
d="M362 1513q-87 0 -140.5 45.5t-63.5 135.5h94q21 -80 110 -80q90 0 111 80h94q-10 -90 -64 -135.5t-141 -45.5zM104 0v1434h504v-125h-370v-525h335v-125h-335v-534h376v-125h-510z" />
    <glyph glyph-name="ebreve" unicode="&#x115;" horiz-adv-x="714" 
d="M410 -16q-148 0 -249.5 140.5t-101.5 393.5v29q0 263 88 407t218 144t209 -140t79 -393v-82h-467q6 -187 73 -283t169 -96q49 0 90 15.5t98 52.5l13 -123q-62 -36 -108.5 -50.5t-110.5 -14.5zM186 590h344q0 173 -46 282t-119 109q-77 0 -126 -100t-53 -291zM367 1182
q-86 0 -140.5 51t-64.5 156h92q21 -109 113 -109q91 0 112 109h92q-10 -105 -64 -156t-140 -51z" />
    <glyph glyph-name="Edotaccent" unicode="&#x116;" horiz-adv-x="667" 
d="M293 1530v153h139v-153h-139zM104 0v1434h504v-125h-370v-525h335v-125h-335v-534h376v-125h-510z" />
    <glyph glyph-name="edotaccent" unicode="&#x117;" horiz-adv-x="714" 
d="M410 -16q-148 0 -249.5 140.5t-101.5 393.5v29q0 263 88 407t218 144t209 -140t79 -393v-82h-467q6 -187 73 -283t169 -96q49 0 90 15.5t98 52.5l13 -123q-62 -36 -108.5 -50.5t-110.5 -14.5zM186 590h344q0 173 -46 282t-119 109q-77 0 -126 -100t-53 -291zM299 1198
v160h135v-160h-135z" />
    <glyph glyph-name="Eogonek" unicode="&#x118;" horiz-adv-x="667" 
d="M104 0v1434h504v-125h-370v-525h335v-125h-335v-534h376v-125h-28q-54 -79 -54 -119q0 -30 21 -42.5t65 -12.5v-86q-25 -2 -53 -2q-73 0 -109 28.5t-36 79.5q0 70 78 154h-394z" />
    <glyph glyph-name="eogonek" unicode="&#x119;" horiz-adv-x="714" 
d="M186 590h344q0 173 -46 282t-119 109q-77 0 -126 -100t-53 -291zM616 172l11 -111v-2q-105 -115 -105 -178q0 -30 20 -42.5t64 -12.5v-86q-25 -2 -51 -2q-147 0 -147 108q0 69 71 146q-30 -6 -69 -6q-148 0 -249.5 140t-101.5 392v29q0 263 88 407t218 144t209 -140
t79 -393v-82h-467q6 -187 73 -283t169 -96q49 0 90 15.5t98 52.5z" />
    <glyph glyph-name="Ecaron" unicode="&#x11a;" horiz-adv-x="667" 
d="M567 1731l-147 -211h-115l-147 211h108l99 -113l98 113h104zM104 0v1434h504v-125h-370v-525h335v-125h-335v-534h376v-125h-510z" />
    <glyph glyph-name="ecaron" unicode="&#x11b;" horiz-adv-x="714" 
d="M559 1448l-143 -260h-99l-143 260h98l97 -148l96 148h94zM410 -16q-148 0 -249.5 140.5t-101.5 393.5v29q0 263 88 407t218 144t209 -140t79 -393v-82h-467q6 -187 73 -283t169 -96q49 0 90 15.5t98 52.5l13 -123q-62 -36 -108.5 -50.5t-110.5 -14.5zM186 590h344
q0 173 -46 282t-119 109q-77 0 -126 -100t-53 -291z" />
    <glyph glyph-name="Gbreve" unicode="&#x11e;" horiz-adv-x="811" 
d="M467 1524q-87 0 -141 45t-64 135h94q21 -80 111 -80t111 80h94q-10 -90 -64 -135t-141 -45zM506 -16q-91 0 -169.5 44.5t-139 130.5t-95 224t-34.5 313v41q0 173 35 310.5t96.5 224t141.5 131.5t173 45q99 0 180 -43v-143q-95 59 -178 59q-134 0 -223.5 -151.5
t-89.5 -430.5v-45q0 -292 87.5 -440t223.5 -148q45 0 78 15v514h-191v121h314v-719q-61 -30 -105.5 -41.5t-103.5 -11.5z" />
    <glyph glyph-name="gbreve" unicode="&#x11f;" horiz-adv-x="774" 
d="M346 -270q-120 0 -235 41v125q119 -50 229 -50q105 0 157 49t52 156v213q-83 -205 -217 -205q-113 0 -189.5 133t-76.5 379v17q0 246 76.5 379t189.5 133q40 0 74 -16.5t60 -47t45 -64t38 -77.5v186h129v-1032q0 -153 -82 -235q-84 -84 -250 -84zM367 178q74 0 130 106
t56 287v15q0 181 -56 288t-130 107q-75 0 -124.5 -105t-49.5 -290v-13q0 -188 49.5 -291.5t124.5 -103.5zM401 1182q-86 0 -140 51t-64 156h92q21 -109 112 -109q92 0 113 109h92q-10 -105 -64.5 -156t-140.5 -51z" />
    <glyph glyph-name="Gdotaccent" unicode="&#x120;" horiz-adv-x="811" 
d="M397 1540v154h140v-154h-140zM506 -16q-91 0 -169.5 44.5t-139 130.5t-95 224t-34.5 313v41q0 173 35 310.5t96.5 224t141.5 131.5t173 45q99 0 180 -43v-143q-95 59 -178 59q-134 0 -223.5 -151.5t-89.5 -430.5v-45q0 -292 87.5 -440t223.5 -148q45 0 78 15v514h-191
v121h314v-719q-61 -30 -105.5 -41.5t-103.5 -11.5z" />
    <glyph glyph-name="gdotaccent" unicode="&#x121;" horiz-adv-x="774" 
d="M346 -270q-120 0 -235 41v125q119 -50 229 -50q105 0 157 49t52 156v213q-83 -205 -217 -205q-113 0 -189.5 133t-76.5 379v17q0 246 76.5 379t189.5 133q40 0 74 -16.5t60 -47t45 -64t38 -77.5v186h129v-1032q0 -153 -82 -235q-84 -84 -250 -84zM367 178q74 0 130 106
t56 287v15q0 181 -56 288t-130 107q-75 0 -124.5 -105t-49.5 -290v-13q0 -188 49.5 -291.5t124.5 -103.5zM334 1198v160h135v-160h-135z" />
    <glyph glyph-name="Gcommaaccent" unicode="&#x122;" horiz-adv-x="811" 
d="M403 -410l-18 50q42 17 57.5 40.5t14.5 65.5h-60v137h135v-125q0 -71 -30 -107.5t-99 -60.5zM506 -16q-91 0 -169.5 44.5t-139 130.5t-95 224t-34.5 313v41q0 173 35 310.5t96.5 224t141.5 131.5t173 45q99 0 180 -43v-143q-95 59 -178 59q-134 0 -223.5 -151.5
t-89.5 -430.5v-45q0 -292 87.5 -440t223.5 -148q45 0 78 15v514h-191v121h314v-719q-61 -30 -105.5 -41.5t-103.5 -11.5z" />
    <glyph glyph-name="gcommaaccent" unicode="&#x123;" horiz-adv-x="774" 
d="M463 1491l18 -49q-41 -17 -56.5 -41t-14.5 -68h59v-135h-135v125q0 71 30 107.5t99 60.5zM346 -270q-120 0 -235 41v125q119 -50 229 -50q105 0 157 49t52 156v213q-83 -205 -217 -205q-113 0 -189.5 133t-76.5 379v17q0 246 76.5 379t189.5 133q40 0 74 -16.5t60 -47
t45 -64t38 -77.5v186h129v-1032q0 -153 -82 -235q-84 -84 -250 -84zM367 178q74 0 130 106t56 287v15q0 181 -56 288t-130 107q-75 0 -124.5 -105t-49.5 -290v-13q0 -188 49.5 -291.5t124.5 -103.5z" />
    <glyph glyph-name="Hbar" unicode="&#x126;" horiz-adv-x="882" 
d="M14 1116v115h103v203h133v-205h383v205h133v-203h100v-115h-100v-1116h-133v659h-383v-659h-133v1116h-103zM250 782h383v336h-383v-336z" />
    <glyph glyph-name="hbar" unicode="&#x127;" horiz-adv-x="765" 
d="M428 1217h-203v-287q74 170 215 170q109 0 172.5 -86.5t63.5 -239.5v-774h-127v752q0 114 -39.5 174.5t-112.5 60.5t-122.5 -69t-49.5 -179v-739h-127v1214h-90v99h90v133h127v-133h203v-96z" />
    <glyph glyph-name="Imacron" unicode="&#x12a;" horiz-adv-x="364" 
d="M115 0v1434h133v-1434h-133zM-27 1532v104h422v-104h-422z" />
    <glyph glyph-name="imacron" unicode="&#x12b;" horiz-adv-x="342" 
d="M106 0v1081h130v-1081h-130zM-25 1198v102h398v-102h-398z" />
    <glyph glyph-name="Ibreve" unicode="&#x12c;" horiz-adv-x="364" 
d="M115 0v1434h133v-1434h-133zM184 1513q-87 0 -140.5 45.5t-63.5 135.5h94q21 -80 110 -80q90 0 111 80h94q-10 -90 -64 -135.5t-141 -45.5z" />
    <glyph glyph-name="ibreve" unicode="&#x12d;" horiz-adv-x="342" 
d="M106 0v1081h130v-1081h-130zM174 1180q-86 0 -140.5 50.5t-64.5 155.5h92q21 -108 113 -108t113 108h92q-10 -105 -64.5 -155.5t-140.5 -50.5z" />
    <glyph glyph-name="Iogonek" unicode="&#x12e;" horiz-adv-x="364" 
d="M115 0v1434h133v-1434h-19q-53 -77 -53 -119q0 -30 21 -42.5t65 -12.5v-86q-25 -2 -53 -2q-73 0 -109.5 28.5t-36.5 79.5q0 70 78 154h-26z" />
    <glyph glyph-name="iogonek" unicode="&#x12f;" horiz-adv-x="342" 
d="M106 0v1081h130v-1081h-19q-53 -77 -53 -119q0 -30 21 -42.5t65 -12.5v-86q-25 -2 -53 -2q-73 0 -109.5 28.5t-36.5 79.5q0 70 78 154h-23zM104 1278v168h136v-168h-136z" />
    <glyph glyph-name="Idotaccent" unicode="&#x130;" horiz-adv-x="364" 
d="M115 0v1434h133v-1434h-133zM115 1530v153h139v-153h-139z" />
    <glyph glyph-name="dotlessi" unicode="&#x131;" horiz-adv-x="342" 
d="M106 0v1081h130v-1081h-130z" />
    <glyph glyph-name="Kcommaaccent" unicode="&#x136;" horiz-adv-x="776" 
d="M340 -391l-18 49q41 17 56.5 40t14.5 66h-59v138h135v-125q0 -71 -30 -107.5t-99 -60.5zM104 0v1434h134v-760l346 760h147l-305 -637l336 -797h-144l-278 651l-102 -215v-436h-134z" />
    <glyph glyph-name="kcommaaccent" unicode="&#x137;" horiz-adv-x="681" 
d="M295 -391l-19 49q42 17 57.5 40.5t14.5 65.5h-59v138h135v-125q0 -71 -30 -107.5t-99 -60.5zM98 0v1446h127v-916l269 551h139l-225 -436l239 -645h-139l-186 518l-97 -184v-334h-127z" />
    <glyph glyph-name="Lacute" unicode="&#x139;" horiz-adv-x="589" 
d="M141 1513l142 226l127 -62l-172 -164h-97zM104 0v1434h134v-1309h333v-125h-467z" />
    <glyph glyph-name="lacute" unicode="&#x13a;" horiz-adv-x="342" 
d="M127 1513l141 226l127 -62l-172 -164h-96zM106 0v1446h130v-1446h-130z" />
    <glyph glyph-name="Lcommaaccent" unicode="&#x13b;" horiz-adv-x="589" 
d="M272 -401l-18 49q42 17 57.5 40.5t14.5 65.5h-60v137h135v-124q0 -71 -30 -107.5t-99 -60.5zM104 0v1434h134v-1309h333v-125h-467z" />
    <glyph glyph-name="lcommaaccent" unicode="&#x13c;" horiz-adv-x="342" 
d="M111 -401l-19 49q42 17 57.5 40.5t14.5 65.5h-60v137h136v-124q0 -71 -30 -107.5t-99 -60.5zM106 0v1446h130v-1446h-130z" />
    <glyph glyph-name="Lcaron" unicode="&#x13d;" horiz-adv-x="589" 
d="M309 1135l17 301h100v-4l-59 -297h-58zM104 0v1434h134v-1309h333v-125h-467z" />
    <glyph glyph-name="lcaron" unicode="&#x13e;" horiz-adv-x="342" 
d="M299 1145l16 301h101v-4l-60 -297h-57zM106 0v1446h130v-1446h-130z" />
    <glyph glyph-name="Ldot" unicode="&#x13f;" horiz-adv-x="589" 
d="M393 659v160h129v-160h-129zM104 0v1434h134v-1309h333v-125h-467z" />
    <glyph glyph-name="ldot" unicode="&#x140;" horiz-adv-x="462" 
d="M344 647v172h117v-172h-117zM106 0v1446h130v-1446h-130z" />
    <glyph glyph-name="Lslash" unicode="&#x141;" horiz-adv-x="604" 
d="M420 776l-170 -110v-541h336v-125h-469v580l-103 -68v139l103 66v717h133v-631l170 112v-139z" />
    <glyph glyph-name="lslash" unicode="&#x142;" horiz-adv-x="376" 
d="M367 788l-115 -73v-715h-127v631l-115 -76v137l115 72v682h127v-600l115 78v-136z" />
    <glyph glyph-name="Nacute" unicode="&#x143;" horiz-adv-x="864" 
d="M377 1505l141 226l127 -62l-172 -164h-96zM104 0v1434h134l395 -1080v1080h129v-1434h-125l-406 1110v-1110h-127z" />
    <glyph glyph-name="nacute" unicode="&#x144;" horiz-adv-x="765" 
d="M334 1182l143 268l123 -66l-178 -202h-88zM98 0v1081h127v-151q74 170 215 170q109 0 172.5 -86.5t63.5 -239.5v-774h-127v752q0 114 -39.5 174.5t-112.5 60.5t-122.5 -69t-49.5 -179v-739h-127z" />
    <glyph glyph-name="Ncommaaccent" unicode="&#x145;" horiz-adv-x="864" 
d="M373 -391l-19 49q42 17 57.5 40.5t14.5 65.5h-59v138h135v-125q0 -71 -30 -107.5t-99 -60.5zM104 0v1434h134l395 -1080v1080h129v-1434h-125l-406 1110v-1110h-127z" />
    <glyph glyph-name="ncommaaccent" unicode="&#x146;" horiz-adv-x="765" 
d="M326 -391l-19 49q42 17 57.5 40.5t14.5 65.5h-60v138h136v-125q0 -71 -30 -107.5t-99 -60.5zM98 0v1081h127v-151q74 170 215 170q109 0 172.5 -86.5t63.5 -239.5v-774h-127v752q0 114 -39.5 174.5t-112.5 60.5t-122.5 -69t-49.5 -179v-739h-127z" />
    <glyph glyph-name="Ncaron" unicode="&#x147;" horiz-adv-x="864" 
d="M641 1722l-147 -211h-115l-148 211h109l98 -112l99 112h104zM104 0v1434h134l395 -1080v1080h129v-1434h-125l-406 1110v-1110h-127z" />
    <glyph glyph-name="ncaron" unicode="&#x148;" horiz-adv-x="765" 
d="M582 1448l-144 -260h-98l-143 260h98l96 -148l96 148h95zM98 0v1081h127v-151q74 170 215 170q109 0 172.5 -86.5t63.5 -239.5v-774h-127v752q0 114 -39.5 174.5t-112.5 60.5t-122.5 -69t-49.5 -179v-739h-127z" />
    <glyph glyph-name="Omacron" unicode="&#x14c;" horiz-adv-x="839" 
d="M211 1542v105h422v-105h-422zM420 -18q-158 0 -255 184t-97 528v45q0 344 97 528.5t255 184.5t254 -184.5t96 -528.5v-45q0 -344 -96 -528t-254 -184zM420 104q97 0 157 150t60 440v45q0 290 -60 440t-157 150t-157 -150t-60 -440v-45q0 -290 60 -440t157 -150z" />
    <glyph glyph-name="omacron" unicode="&#x14d;" horiz-adv-x="749" 
d="M180 1200v103h398v-103h-398zM375 -18q-134 0 -224 146.5t-90 395.5v31q0 249 90.5 396t225.5 147q134 0 223.5 -147t89.5 -396v-31q0 -248 -91 -395t-224 -147zM375 98q80 0 133 117t53 309v33q0 193 -53 308.5t-133 115.5t-133.5 -115.5t-53.5 -308.5v-33
q0 -192 53.5 -309t133.5 -117z" />
    <glyph glyph-name="Obreve" unicode="&#x14e;" horiz-adv-x="839" 
d="M422 1524q-87 0 -141 45t-64 135h94q21 -80 111 -80q89 0 110 80h95q-10 -90 -64 -135t-141 -45zM420 -18q-158 0 -255 184t-97 528v45q0 344 97 528.5t255 184.5t254 -184.5t96 -528.5v-45q0 -344 -96 -528t-254 -184zM420 104q97 0 157 150t60 440v45q0 290 -60 440
t-157 150t-157 -150t-60 -440v-45q0 -290 60 -440t157 -150z" />
    <glyph glyph-name="obreve" unicode="&#x14f;" horiz-adv-x="749" 
d="M375 -18q-134 0 -224 146.5t-90 395.5v31q0 249 90.5 396t225.5 147q134 0 223.5 -147t89.5 -396v-31q0 -248 -91 -395t-224 -147zM375 98q80 0 133 117t53 309v33q0 193 -53 308.5t-133 115.5t-133.5 -115.5t-53.5 -308.5v-33q0 -192 53.5 -309t133.5 -117zM379 1182
q-86 0 -140.5 51t-64.5 156h92q21 -109 113 -109t113 109h92q-10 -105 -64.5 -156t-140.5 -51z" />
    <glyph glyph-name="Ohungarumlaut" unicode="&#x150;" horiz-adv-x="839" 
d="M420 -18q-158 0 -255 184t-97 528v45q0 344 97 528.5t255 184.5t254 -184.5t96 -528.5v-45q0 -344 -96 -528t-254 -184zM420 104q97 0 157 150t60 440v45q0 290 -60 440t-157 150t-157 -150t-60 -440v-45q0 -290 60 -440t157 -150zM264 1524l142 225l116 -59l-166 -166
h-92zM465 1524l139 225l119 -59l-168 -166h-90z" />
    <glyph glyph-name="ohungarumlaut" unicode="&#x151;" horiz-adv-x="749" 
d="M420 1182l143 268l113 -61l-170 -207h-86zM219 1182l143 268l111 -61l-170 -207h-84zM375 -18q-134 0 -224 146.5t-90 395.5v31q0 249 90.5 396t225.5 147q134 0 223.5 -147t89.5 -396v-31q0 -248 -91 -395t-224 -147zM375 98q80 0 133 117t53 309v33q0 193 -53 308.5
t-133 115.5t-133.5 -115.5t-53.5 -308.5v-33q0 -192 53.5 -309t133.5 -117z" />
    <glyph glyph-name="OE" unicode="&#x152;" horiz-adv-x="1142" 
d="M1090 0h-551q-216 0 -343.5 180t-127.5 516v41q0 337 127.5 517t343.5 180h544v-125h-370v-525h336v-125h-336v-534h377v-125zM532 121h46v1192h-48q-148 0 -237.5 -146t-89.5 -430v-41q0 -283 91 -429t238 -146z" />
    <glyph glyph-name="oe" unicode="&#x153;" horiz-adv-x="1216" 
d="M375 -18q-134 0 -224 146.5t-90 395.5v31q0 249 90.5 396t225.5 147q81 0 145 -60.5t103 -171.5q34 113 98.5 172.5t142.5 59.5q131 0 210 -140t79 -393v-82h-465q4 -185 71.5 -282t168.5 -97q49 0 90 15.5t98 52.5l12 -123q-62 -37 -107.5 -51t-109.5 -14
q-99 0 -174.5 61.5t-111.5 175.5q-37 -116 -102 -177.5t-150 -61.5zM688 590h344q0 173 -46 282t-120 109q-75 0 -123.5 -100t-54.5 -291zM375 98q80 0 133 117t53 309v33q0 193 -53 308.5t-133 115.5t-133.5 -115.5t-53.5 -308.5v-33q0 -192 53.5 -309t133.5 -117z" />
    <glyph glyph-name="Racute" unicode="&#x154;" horiz-adv-x="792" 
d="M104 0v1434h199q195 0 305 -113q115 -112 115 -320v-6q0 -145 -59 -246t-166 -149l252 -600h-150l-233 561q-12 -4 -60 -4h-69v-557h-134zM238 676h67q132 0 208.5 81t76.5 236v6q0 158 -78 235t-213 77h-61v-635zM315 1513l142 226l127 -62l-172 -164h-97z" />
    <glyph glyph-name="racute" unicode="&#x155;" horiz-adv-x="487" 
d="M209 1180l143 268l123 -66l-178 -202h-88zM98 0v1081h127v-151q32 78 90.5 124t141.5 40v-146h-4q-103 0 -165.5 -67t-62.5 -197v-684h-127z" />
    <glyph glyph-name="Rcommaaccent" unicode="&#x156;" horiz-adv-x="792" 
d="M319 -391l-18 49q42 17 57.5 40.5t14.5 65.5h-60v138h136v-125q0 -71 -30.5 -107.5t-99.5 -60.5zM104 0v1434h199q195 0 305 -113q115 -112 115 -320v-6q0 -145 -59 -246t-166 -149l252 -600h-150l-233 561q-12 -4 -60 -4h-69v-557h-134zM238 676h67q132 0 208.5 81
t76.5 236v6q0 158 -78 235t-213 77h-61v-635z" />
    <glyph glyph-name="rcommaaccent" unicode="&#x157;" horiz-adv-x="487" 
d="M109 -401l-19 49q42 17 57.5 40.5t14.5 65.5h-60v137h136v-124q0 -71 -30 -107.5t-99 -60.5zM98 0v1081h127v-151q32 78 90.5 124t141.5 40v-146h-4q-103 0 -165.5 -67t-62.5 -197v-684h-127z" />
    <glyph glyph-name="Rcaron" unicode="&#x158;" horiz-adv-x="792" 
d="M575 1731l-147 -211h-115l-147 211h108l99 -113l98 113h104zM104 0v1434h199q195 0 305 -113q115 -112 115 -320v-6q0 -145 -59 -246t-166 -149l252 -600h-150l-233 561q-12 -4 -60 -4h-69v-557h-134zM238 676h67q132 0 208.5 81t76.5 236v6q0 158 -78 235t-213 77h-61
v-635z" />
    <glyph glyph-name="rcaron" unicode="&#x159;" horiz-adv-x="487" 
d="M455 1446l-144 -260h-98l-143 260h98l96 -148l96 148h95zM98 0v1081h127v-151q32 78 90.5 124t141.5 40v-146h-4q-103 0 -165.5 -67t-62.5 -197v-684h-127z" />
    <glyph glyph-name="Sacute" unicode="&#x15a;" horiz-adv-x="677" 
d="M311 -14q-123 0 -250 71v144q143 -88 244 -88q83 0 132.5 49.5t49.5 138.5v2q0 74 -37.5 149t-146.5 216q-148 191 -194 276t-46 186v5q0 136 87 224.5t215 88.5q110 0 217 -57v-146q-113 76 -211 76q-76 0 -124 -49.5t-48 -130.5v-4q0 -69 36.5 -137.5t147.5 -208.5
q138 -171 188 -270.5t50 -213.5v-2q0 -143 -88.5 -231t-221.5 -88zM299 1524l141 225l127 -61l-172 -164h-96z" />
    <glyph glyph-name="sacute" unicode="&#x15b;" horiz-adv-x="573" 
d="M240 1182l143 268l123 -66l-178 -202h-88zM264 -14q-106 0 -217 51v129q125 -64 215 -64q63 0 104.5 38.5t41.5 103.5v2q0 52 -34.5 108t-123.5 140q-112 104 -158.5 181.5t-46.5 162.5v4q0 115 75.5 184.5t186.5 69.5q98 0 178 -35v-129q-86 45 -178 45q-61 0 -99 -35
t-38 -96v-2q0 -49 34 -101.5t126 -140.5q113 -113 157.5 -188.5t44.5 -161.5v-4q0 -118 -78.5 -190t-189.5 -72z" />
    <glyph glyph-name="Scedilla" unicode="&#x15e;" horiz-adv-x="677" 
d="M311 -236l-125 52l105 170q-114 9 -230 71v144q143 -88 244 -88q83 0 132.5 49.5t49.5 138.5v2q0 74 -37.5 149t-146.5 216q-148 191 -194 276t-46 186v5q0 136 87 224.5t215 88.5q110 0 217 -57v-146q-113 76 -211 76q-76 0 -124 -49.5t-48 -130.5v-4q0 -69 36.5 -137.5
t147.5 -208.5q138 -171 188 -270.5t50 -213.5v-2q0 -120 -64 -202.5t-166 -106.5z" />
    <glyph glyph-name="scedilla" unicode="&#x15f;" horiz-adv-x="573" 
d="M256 -236l-125 52l105 172q-99 6 -189 49v129q125 -64 215 -64q63 0 104.5 38.5t41.5 103.5v2q0 52 -34.5 108t-123.5 140q-112 104 -158.5 181.5t-46.5 162.5v4q0 115 75.5 184.5t186.5 69.5q98 0 178 -35v-129q-86 45 -178 45q-61 0 -99 -35t-38 -96v-2
q0 -49 34 -101.5t126 -140.5q113 -113 157.5 -188.5t44.5 -161.5v-4q0 -97 -54.5 -165t-141.5 -89z" />
    <glyph glyph-name="Scaron" unicode="&#x160;" horiz-adv-x="677" 
d="M311 -14q-123 0 -250 71v144q143 -88 244 -88q83 0 132.5 49.5t49.5 138.5v2q0 74 -37.5 149t-146.5 216q-148 191 -194 276t-46 186v5q0 136 87 224.5t215 88.5q110 0 217 -57v-146q-113 76 -211 76q-76 0 -124 -49.5t-48 -130.5v-4q0 -69 36.5 -137.5t147.5 -208.5
q138 -171 188 -270.5t50 -213.5v-2q0 -143 -88.5 -231t-221.5 -88zM559 1741l-147 -211h-115l-147 211h108l98 -113l99 113h104z" />
    <glyph glyph-name="scaron" unicode="&#x161;" horiz-adv-x="573" 
d="M485 1448l-143 -260h-98l-144 260h99l96 -148l96 148h94zM264 -14q-106 0 -217 51v129q125 -64 215 -64q63 0 104.5 38.5t41.5 103.5v2q0 52 -34.5 108t-123.5 140q-112 104 -158.5 181.5t-46.5 162.5v4q0 115 75.5 184.5t186.5 69.5q98 0 178 -35v-129q-86 45 -178 45
q-61 0 -99 -35t-38 -96v-2q0 -49 34 -101.5t126 -140.5q113 -113 157.5 -188.5t44.5 -161.5v-4q0 -118 -78.5 -190t-189.5 -72z" />
    <glyph glyph-name="Tcommaaccent" unicode="&#x162;" horiz-adv-x="622" 
d="M252 -401l-19 49q42 17 57.5 40.5t14.5 65.5h-59v137h135v-124q0 -71 -30 -107.5t-99 -60.5zM244 0v1309h-217v125h569v-125h-219v-1309h-133z" />
    <glyph glyph-name="Tcommaaccent" unicode="&#x21a;" horiz-adv-x="622" 
d="M252 -401l-19 49q42 17 57.5 40.5t14.5 65.5h-59v137h135v-124q0 -71 -30 -107.5t-99 -60.5zM244 0v1309h-217v125h569v-125h-219v-1309h-133z" />
    <glyph glyph-name="tcommaaccent" unicode="&#x163;" horiz-adv-x="471" 
d="M213 -401l-18 49q41 17 56.5 40t14.5 66h-59v137h135v-124q0 -71 -30 -107.5t-99 -60.5zM330 -10q-201 0 -201 192v789h-92v110h92v297h129v-297h162v-110h-162v-758q0 -58 24.5 -81t75.5 -23q31 0 64 10v-111q-45 -18 -92 -18z" />
    <glyph glyph-name="tcommaaccent" unicode="&#x21b;" horiz-adv-x="471" 
d="M213 -401l-18 49q41 17 56.5 40t14.5 66h-59v137h135v-124q0 -71 -30 -107.5t-99 -60.5zM330 -10q-201 0 -201 192v789h-92v110h92v297h129v-297h162v-110h-162v-758q0 -58 24.5 -81t75.5 -23q31 0 64 10v-111q-45 -18 -92 -18z" />
    <glyph glyph-name="Tcaron" unicode="&#x164;" horiz-adv-x="622" 
d="M518 1731l-147 -211h-115l-147 211h108l98 -113l99 113h104zM244 0v1309h-217v125h569v-125h-219v-1309h-133z" />
    <glyph glyph-name="tcaron" unicode="&#x165;" horiz-adv-x="471" 
d="M336 1145l16 301h101v-4l-60 -297h-57zM330 -10q-201 0 -201 192v789h-92v110h92v297h129v-297h162v-110h-162v-758q0 -58 24.5 -81t75.5 -23q31 0 64 10v-111q-45 -18 -92 -18z" />
    <glyph glyph-name="Umacron" unicode="&#x16a;" horiz-adv-x="837" 
d="M211 1524v104h422v-104h-422zM418 -18q-150 0 -236 104.5t-86 294.5v1053h133v-1059q0 -132 50.5 -201.5t138.5 -69.5q89 0 139.5 69t50.5 202v1059h133v-1053q0 -190 -86.5 -294.5t-236.5 -104.5z" />
    <glyph glyph-name="umacron" unicode="&#x16b;" horiz-adv-x="765" 
d="M326 -18q-109 0 -172.5 86t-63.5 239v774h127v-751q0 -115 39.5 -175.5t112.5 -60.5t122.5 68.5t49.5 177.5v741h127v-1081h-127v150q-74 -168 -215 -168zM184 1190v102h398v-102h-398z" />
    <glyph glyph-name="Ubreve" unicode="&#x16c;" horiz-adv-x="837" 
d="M422 1503q-87 0 -141 45t-64 135h94q21 -79 111 -79q89 0 110 79h95q-10 -90 -64 -135t-141 -45zM418 -18q-150 0 -236 104.5t-86 294.5v1053h133v-1059q0 -132 50.5 -201.5t138.5 -69.5q89 0 139.5 69t50.5 202v1059h133v-1053q0 -190 -86.5 -294.5t-236.5 -104.5z" />
    <glyph glyph-name="ubreve" unicode="&#x16d;" horiz-adv-x="765" 
d="M326 -18q-109 0 -172.5 86t-63.5 239v774h127v-751q0 -115 39.5 -175.5t112.5 -60.5t122.5 68.5t49.5 177.5v741h127v-1081h-127v150q-74 -168 -215 -168zM383 1171q-86 0 -140.5 51t-64.5 156h92q21 -108 113 -108t113 108h92q-10 -105 -64.5 -156t-140.5 -51z" />
    <glyph glyph-name="Uring" unicode="&#x16e;" horiz-adv-x="837" 
d="M418 -18q-150 0 -236 104.5t-86 294.5v1053h133v-1059q0 -132 50.5 -201.5t138.5 -69.5q89 0 139.5 69t50.5 202v1059h133v-1053q0 -190 -86.5 -294.5t-236.5 -104.5zM420 1483q-69 0 -116.5 44.5t-47.5 110.5q0 67 49 112.5t119 45.5q69 0 116.5 -45.5t47.5 -112.5
q0 -65 -49 -110t-119 -45zM422 1546q41 0 67.5 26.5t26.5 65.5q0 41 -26.5 68t-67.5 27t-67.5 -27t-26.5 -68q0 -39 26.5 -65.5t67.5 -26.5z" />
    <glyph glyph-name="uring" unicode="&#x16f;" horiz-adv-x="765" 
d="M381 1155q-72 0 -118 48t-46 120t48 120t120 48t118 -48t46 -120t-48 -120t-120 -48zM383 1219q41 0 68.5 30t27.5 74t-27.5 74t-68.5 30t-68.5 -30t-27.5 -74t27.5 -74t68.5 -30zM326 -18q-109 0 -172.5 86t-63.5 239v774h127v-751q0 -115 39.5 -175.5t112.5 -60.5
t122.5 68.5t49.5 177.5v741h127v-1081h-127v150q-74 -168 -215 -168z" />
    <glyph glyph-name="Uhungarumlaut" unicode="&#x170;" horiz-adv-x="837" 
d="M418 -18q-150 0 -236 104.5t-86 294.5v1053h133v-1059q0 -132 50.5 -201.5t138.5 -69.5q89 0 139.5 69t50.5 202v1059h133v-1053q0 -190 -86.5 -294.5t-236.5 -104.5zM262 1505l141 226l117 -60l-166 -166h-92zM463 1505l139 226l119 -60l-168 -166h-90z" />
    <glyph glyph-name="uhungarumlaut" unicode="&#x171;" horiz-adv-x="765" 
d="M326 -18q-109 0 -172.5 86t-63.5 239v774h127v-751q0 -115 39.5 -175.5t112.5 -60.5t122.5 68.5t49.5 177.5v741h127v-1081h-127v150q-74 -168 -215 -168zM424 1171l143 269l113 -62l-170 -207h-86zM223 1171l144 269l110 -62l-170 -207h-84z" />
    <glyph glyph-name="Uogonek" unicode="&#x172;" horiz-adv-x="837" 
d="M510 -174v-86q-25 -2 -53 -2q-73 0 -109.5 28.5t-36.5 79.5q0 65 64 138q-131 18 -205 119.5t-74 277.5v1053h133v-1059q0 -132 50.5 -201.5t138.5 -69.5q89 0 139.5 69t50.5 202v1059h133v-1053q0 -173 -73.5 -275t-200.5 -120q-43 -64 -43 -105q0 -30 21 -42.5
t65 -12.5z" />
    <glyph glyph-name="uogonek" unicode="&#x173;" horiz-adv-x="765" 
d="M326 -18q-109 0 -172.5 86t-63.5 239v774h127v-751q0 -115 39.5 -175.5t112.5 -60.5t122.5 68.5t49.5 177.5v741h127v-1081h-19q-53 -77 -53 -119q0 -30 21 -42.5t65 -12.5v-86q-25 -2 -53 -2q-73 0 -109.5 28.5t-36.5 79.5q0 70 78 154h-20v150q-74 -168 -215 -168z" />
    <glyph glyph-name="Wcircumflex" unicode="&#x174;" horiz-adv-x="1241" 
d="M287 -8l-240 1442h139l170 -1151l205 1151h123l203 -1151l172 1151h135l-240 -1442h-133l-200 1143l-203 -1143h-131zM414 1520l147 211h115l147 -211h-108l-99 114l-98 -114h-104z" />
    <glyph glyph-name="wcircumflex" unicode="&#x175;" horiz-adv-x="1087" 
d="M350 1182l144 260h98l143 -260h-98l-96 147l-97 -147h-94zM268 -6l-215 1087h133l148 -852l160 852h106l156 -852l151 852h127l-213 -1087h-119l-159 827l-156 -827h-119z" />
    <glyph glyph-name="Ycircumflex" unicode="&#x176;" 
d="M303 0v604l-291 830h142l217 -658l219 658h135l-289 -830v-604h-133zM168 1511l147 211h115l148 -211h-109l-98 115l-99 -115h-104z" />
    <glyph glyph-name="ycircumflex" unicode="&#x177;" horiz-adv-x="716" 
d="M358 238l187 843h127l-320 -1347h-125v2l70 282l-252 1063h129zM168 1178l143 260h99l143 -260h-98l-97 147l-96 -147h-94z" />
    <glyph glyph-name="Ydieresis" unicode="&#x178;" 
d="M303 0v604l-291 830h142l217 -658l219 658h135l-289 -830v-604h-133zM424 1522v153h135v-153h-135zM186 1522v153h136v-153h-136z" />
    <glyph glyph-name="Zacute" unicode="&#x179;" horiz-adv-x="690" 
d="M57 0v92l437 1221h-416v121h559v-93l-436 -1220h436v-121h-580zM301 1513l141 226l127 -62l-172 -164h-96z" />
    <glyph glyph-name="zacute" unicode="&#x17a;" horiz-adv-x="593" 
d="M254 1180l143 268l123 -66l-178 -202h-88zM45 0v84l365 887h-347v110h484v-84l-363 -886h357v-111h-496z" />
    <glyph glyph-name="Zdotaccent" unicode="&#x17b;" horiz-adv-x="690" 
d="M287 1530v153h139v-153h-139zM57 0v92l437 1221h-416v121h559v-93l-436 -1220h436v-121h-580z" />
    <glyph glyph-name="zdotaccent" unicode="&#x17c;" horiz-adv-x="593" 
d="M45 0v84l365 887h-347v110h484v-84l-363 -886h357v-111h-496zM240 1196v160h135v-160h-135z" />
    <glyph glyph-name="Zcaron" unicode="&#x17d;" horiz-adv-x="690" 
d="M561 1731l-147 -211h-115l-147 211h108l98 -113l99 113h104zM57 0v92l437 1221h-416v121h559v-93l-436 -1220h436v-121h-580z" />
    <glyph glyph-name="zcaron" unicode="&#x17e;" horiz-adv-x="593" 
d="M500 1446l-144 -260h-98l-143 260h98l96 -148l97 148h94zM45 0v84l365 887h-347v110h484v-84l-363 -886h357v-111h-496z" />
    <glyph glyph-name="uni018F" unicode="&#x18f;" horiz-adv-x="800" 
d="M123 1247l-12 129q116 76 227 76q183 0 288 -180.5t105 -523.5v-37q0 -359 -90 -544t-244 -185q-152 0 -235.5 179t-83.5 531v96h520q-4 271 -76 403t-194 132q-95 0 -205 -76zM399 104q89 0 143.5 145t55.5 423h-389q-1 -281 48 -424.5t142 -143.5z" />
    <glyph glyph-name="florin" unicode="&#x192;" horiz-adv-x="667" 
d="M111 -10q-37 0 -91 14v119q32 -12 74 -12q93 0 107 141l49 530h-111v107h119l29 303q10 122 70.5 187t160.5 65q58 0 123 -21v-125q-47 21 -104 21q-51 0 -83 -38t-38 -114l-29 -278h193v-107h-201l-49 -542q-12 -131 -66 -190.5t-153 -59.5z" />
    <glyph glyph-name="Aringacute" unicode="&#x1fa;" horiz-adv-x="833" 
d="M43 0l285 1366q-36 21 -57 57t-21 80q0 66 49.5 111t118.5 45t116.5 -44.5t47.5 -111.5q0 -43 -22 -78.5t-58 -56.5l289 -1368h-136l-75 371h-332l-74 -371h-131zM268 492h291l-145 720zM416 1411q41 0 66.5 25.5t25.5 66.5t-25.5 66.5t-66.5 25.5t-67.5 -25.5
t-26.5 -66.5t26.5 -66.5t67.5 -25.5zM365 1700l139 184l123 -57l-160 -127h-102z" />
    <glyph glyph-name="aringacute" unicode="&#x1fb;" horiz-adv-x="708" 
d="M299 1573l141 211l117 -60l-166 -151h-92zM285 -18q-104 0 -170 93t-66 236v21q0 161 72.5 253.5t200.5 92.5q85 0 172 -41v117q0 106 -48.5 162.5t-144.5 56.5q-104 0 -195 -49v123q100 47 209 47q139 0 222 -80q84 -84 84 -248v-766h-129v145q-67 -163 -207 -163z
M322 92q76 0 124 68.5t48 163.5v206q-80 39 -150 39q-83 0 -126.5 -61t-43.5 -168v-21q0 -105 38.5 -166t109.5 -61zM350 1180q-72 0 -118 48t-46 120t48 120t120 48t118 -48t46 -120t-48 -120t-120 -48zM352 1243q41 0 69 30.5t28 74.5t-28 74t-69 30t-68.5 -30t-27.5 -74
t27.5 -74.5t68.5 -30.5z" />
    <glyph glyph-name="AEacute" unicode="&#x1fc;" horiz-adv-x="1071" 
d="M541 1513l141 226l127 -62l-172 -164h-96zM8 0l395 1434h609v-125h-371v-525h336v-125h-336v-534h377v-125h-510v371h-270l-101 -371h-129zM268 492h240v813h-21z" />
    <glyph glyph-name="aeacute" unicode="&#x1fd;" horiz-adv-x="1136" 
d="M508 1180l143 268l123 -66l-178 -202h-88zM293 -18q-110 0 -177 91t-67 238v21q0 161 72.5 253.5t200.5 92.5q85 0 172 -41v117q0 106 -48.5 162.5t-144.5 56.5q-101 0 -195 -49v123q96 47 211 47q193 0 254 -166q36 83 92 126.5t123 43.5q131 0 210 -140t79 -393v-82
h-465q4 -185 71.5 -282t168.5 -97q49 0 90 15.5t98 52.5l13 -123q-62 -37 -107.5 -51t-109.5 -14q-96 0 -172 59t-119 174q-32 -104 -95 -169.5t-155 -65.5zM610 590h344q0 174 -46.5 282.5t-121.5 108.5t-123.5 -100t-52.5 -291zM324 92q67 0 117.5 68t72.5 168
q-20 99 -16 204q-88 37 -154 37q-83 0 -126.5 -61t-43.5 -168v-21q0 -104 39.5 -165.5t110.5 -61.5z" />
    <glyph glyph-name="Oslashacute" unicode="&#x1fe;" horiz-adv-x="839" 
d="M666 1448h102l-84 -203q86 -189 86 -506v-45q0 -344 -96 -528t-254 -184q-126 0 -205 104l-43 -100h-102l84 200q-86 189 -86 508v45q0 344 97 528.5t255 184.5q122 0 203 -106zM420 102q98 0 158.5 150.5t60.5 441.5v45q0 184 -29 326l-344 -832q58 -131 154 -131z
M201 739v-45q0 -184 26 -327l344 833q-58 131 -151 131q-98 0 -158.5 -150.5t-60.5 -441.5zM367 1524l141 225l127 -61l-172 -164h-96z" />
    <glyph glyph-name="oslashacute" unicode="&#x1ff;" horiz-adv-x="749" 
d="M590 1092h98l-80 -160q82 -148 82 -377v-31q0 -248 -91 -395t-224 -147q-101 0 -178 86l-37 -78h-99l78 160q-78 153 -78 374v31q0 249 90.5 396t225.5 147q96 0 174 -84zM375 96q82 0 137 117.5t55 310.5v33q0 132 -26 234l-293 -603q53 -92 127 -92zM182 557v-33
q0 -127 27 -233l293 600q-53 92 -127 92q-82 0 -137.5 -116.5t-55.5 -309.5zM326 1182l143 268l123 -66l-178 -202h-88z" />
    <glyph glyph-name="Scommaaccent" unicode="&#x218;" horiz-adv-x="677" 
d="M262 -401l-18 49q41 17 56.5 40t14.5 66h-59v137h135v-124q0 -71 -30 -107.5t-99 -60.5zM311 -14q-123 0 -250 71v144q143 -88 244 -88q83 0 132.5 49.5t49.5 138.5v2q0 74 -37.5 149t-146.5 216q-148 191 -194 276t-46 186v5q0 136 87 224.5t215 88.5q110 0 217 -57
v-146q-113 76 -211 76q-76 0 -124 -49.5t-48 -130.5v-4q0 -69 36.5 -137.5t147.5 -208.5q138 -171 188 -270.5t50 -213.5v-2q0 -143 -88.5 -231t-221.5 -88z" />
    <glyph glyph-name="scommaaccent" unicode="&#x219;" horiz-adv-x="573" 
d="M217 -401l-18 49q41 17 56.5 40t14.5 66h-59v137h135v-124q0 -71 -30 -107.5t-99 -60.5zM264 -14q-106 0 -217 51v129q125 -64 215 -64q63 0 104.5 38.5t41.5 103.5v2q0 52 -34.5 108t-123.5 140q-112 104 -158.5 181.5t-46.5 162.5v4q0 115 75.5 184.5t186.5 69.5
q98 0 178 -35v-129q-86 45 -178 45q-61 0 -99 -35t-38 -96v-2q0 -49 34 -101.5t126 -140.5q113 -113 157.5 -188.5t44.5 -161.5v-4q0 -118 -78.5 -190t-189.5 -72z" />
    <glyph glyph-name="schwa" unicode="&#x259;" horiz-adv-x="714" 
d="M303 1096q148 0 250 -141t102 -394v-26q0 -265 -87.5 -409t-217.5 -144q-131 0 -210 140t-79 394v80h465q-4 185 -71 282t-168 97q-49 0 -91 -15.5t-98 -52.5l-12 125q62 36 107.5 50t109.5 14zM528 489h-344q0 -173 46 -282t120 -109q75 0 123.5 100.5t54.5 290.5z" />
    <glyph glyph-name="circumflex" unicode="&#x2c6;" horiz-adv-x="1024" 
d="M319 1186l144 260h98l144 -260h-99l-96 147l-96 -147h-95z" />
    <glyph glyph-name="caron" unicode="&#x2c7;" horiz-adv-x="1024" 
d="M705 1446l-144 -260h-98l-144 260h99l96 -148l96 148h95z" />
    <glyph glyph-name="breve" unicode="&#x2d8;" horiz-adv-x="1024" 
d="M512 1180q-86 0 -140.5 50.5t-64.5 155.5h92q21 -108 113 -108t113 108h92q-10 -105 -64.5 -155.5t-140.5 -50.5z" />
    <glyph glyph-name="dotaccent" unicode="&#x2d9;" horiz-adv-x="1024" 
d="M444 1196v160h136v-160h-136z" />
    <glyph glyph-name="ring" unicode="&#x2da;" horiz-adv-x="1024" 
d="M510 1178q-72 0 -118 48t-46 120t48 119.5t120 47.5t118 -47.5t46 -119.5t-48 -120t-120 -48zM512 1241q41 0 68.5 30.5t27.5 74.5t-27.5 74t-68.5 30t-68.5 -30t-27.5 -74t27.5 -74.5t68.5 -30.5z" />
    <glyph glyph-name="ogonek" unicode="&#x2db;" horiz-adv-x="1024" 
d="M606 -174v-86q-25 -2 -53 -2q-73 0 -109 28.5t-36 79.5q0 73 90 166h86q-64 -86 -64 -131q0 -30 21 -42.5t65 -12.5z" />
    <glyph glyph-name="tilde" unicode="&#x2dc;" horiz-adv-x="1024" 
d="M612 1182q-30 0 -52.5 11t-55.5 38q-51 43 -76 43q-33 0 -57 -88l-80 20q35 170 121 170q30 0 52.5 -11t55.5 -38q54 -43 76 -43q33 0 57 88l80 -20q-35 -170 -121 -170z" />
    <glyph glyph-name="hungarumlaut" unicode="&#x2dd;" horiz-adv-x="1024" 
d="M477 1180l144 268l112 -62l-170 -206h-86zM276 1180l144 268l110 -62l-170 -206h-84z" />
    <glyph glyph-name="commaaccent" unicode="&#x326;" horiz-adv-x="1024" 
d="M457 -401l-19 49q42 17 57.5 40.5t14.5 65.5h-59v137h135v-124q0 -71 -30 -107.5t-99 -60.5z" />
    <glyph glyph-name="uni0384" unicode="&#x384;" horiz-adv-x="1024" 
d="M393 1180l99 270l122 -61l-137 -209h-84z" />
    <glyph glyph-name="uni0385" unicode="&#x385;" horiz-adv-x="1024" 
d="M618 1196v158h121v-158h-121zM297 1196v158h121v-158h-121zM453 1196l43 281l120 -27l-88 -254h-75z" />
    <glyph glyph-name="uni0386" unicode="&#x386;" horiz-adv-x="833" 
d="M43 0l301 1440h143l304 -1440h-136l-75 371h-332l-74 -371h-131zM268 492h291l-145 720zM57 1126l17 308h116l-57 -308h-76z" />
    <glyph glyph-name="uni0387" unicode="&#x387;" horiz-adv-x="364" 
d="M98 883v198h168v-198h-168z" />
    <glyph glyph-name="uni0388" unicode="&#x388;" horiz-adv-x="667" 
d="M-111 1126l17 308h117l-58 -308h-76zM104 0v1434h504v-125h-370v-525h335v-125h-335v-534h376v-125h-510z" />
    <glyph glyph-name="uni0389" unicode="&#x389;" horiz-adv-x="856" 
d="M104 0v1434h134v-652h380v652h134v-1434h-134v659h-380v-659h-134zM-111 1126l17 308h117l-58 -308h-76z" />
    <glyph glyph-name="uni038A" unicode="&#x38a;" horiz-adv-x="364" 
d="M115 0v1434h133v-1434h-133zM-100 1126l16 308h117l-58 -308h-75z" />
    <glyph glyph-name="uni038C" unicode="&#x38c;" horiz-adv-x="839" 
d="M-68 1130l17 308h117l-58 -308h-76zM420 -18q-158 0 -255 184t-97 528v45q0 344 97 528.5t255 184.5t254 -184.5t96 -528.5v-45q0 -344 -96 -528t-254 -184zM420 104q97 0 157 150t60 440v45q0 290 -60 440t-157 150t-157 -150t-60 -440v-45q0 -290 60 -440t157 -150z
" />
    <glyph glyph-name="uni038E" unicode="&#x38e;" 
d="M303 0v604l-291 830h142l217 -658l219 658h135l-289 -830v-604h-133zM-184 1126l16 308h117l-58 -308h-75z" />
    <glyph glyph-name="uni038F" unicode="&#x38f;" horiz-adv-x="866" 
d="M434 1452q164 0 258 -144.5t94 -430.5v-13q0 -381 -196 -739h207v-125h-316v117q172 370 172 741v10q0 461 -221 461q-219 0 -219 -461v-8q0 -373 172 -743v-117h-315v125h206q-196 352 -196 739v13q0 286 95 430.5t259 144.5zM-70 1130l17 308h116l-57 -308h-76z" />
    <glyph glyph-name="uni0390" unicode="&#x390;" horiz-adv-x="364" 
d="M262 1196v158h121v-158h-121zM-59 1196v158h120v-158h-120zM96 1196l43 281l121 -27l-88 -254h-76zM94 195v886h127v-858q0 -67 18.5 -92t61.5 -25q17 0 51 9v-107q-46 -16 -90 -16q-168 0 -168 203z" />
    <glyph glyph-name="uni0391" unicode="&#x391;" horiz-adv-x="833" 
d="M43 0l301 1440h143l304 -1440h-136l-75 371h-332l-74 -371h-131zM268 492h291l-145 720z" />
    <glyph glyph-name="uni0392" unicode="&#x392;" horiz-adv-x="774" 
d="M104 0v1434h191q198 0 311 -113q94 -94 94 -248v-6q0 -258 -245 -340q264 -73 264 -342v-6q0 -178 -122.5 -278.5t-326.5 -100.5h-166zM569 1055v4q0 120 -71.5 186t-194.5 66h-67v-529h47q138 0 212 71.5t74 201.5zM586 385v6q0 130 -78 201.5t-219 71.5h-53v-541h43
q144 0 225.5 67.5t81.5 194.5z" />
    <glyph glyph-name="uni0393" unicode="&#x393;" horiz-adv-x="589" 
d="M104 0v1434h467v-125h-333v-1309h-134z" />
    <glyph glyph-name="uni0394" unicode="&#x394;" horiz-adv-x="831" 
d="M63 0l-14 98l293 1342h147l293 -1342l-14 -98h-705zM184 123h459l-229 1110z" />
    <glyph glyph-name="uni0395" unicode="&#x395;" horiz-adv-x="667" 
d="M104 0v1434h504v-125h-370v-525h335v-125h-335v-534h376v-125h-510z" />
    <glyph glyph-name="uni0396" unicode="&#x396;" horiz-adv-x="690" 
d="M57 0v92l437 1221h-416v121h559v-93l-436 -1220h436v-121h-580z" />
    <glyph glyph-name="uni0397" unicode="&#x397;" horiz-adv-x="856" 
d="M104 0v1434h134v-652h380v652h134v-1434h-134v659h-380v-659h-134z" />
    <glyph glyph-name="uni0398" unicode="&#x398;" horiz-adv-x="837" 
d="M420 -18q-158 0 -255 184t-97 528v45q0 344 97 528.5t255 184.5q157 0 253.5 -184.5t96.5 -528.5v-45q0 -344 -96.5 -528t-253.5 -184zM420 102q98 0 158.5 150.5t60.5 441.5v45q0 291 -60.5 441.5t-158.5 150.5q-101 0 -161 -150t-60 -442v-45q0 -292 60 -442t161 -150z
M582 780v-118h-326v118h326z" />
    <glyph glyph-name="uni0399" unicode="&#x399;" horiz-adv-x="364" 
d="M115 0v1434h133v-1434h-133z" />
    <glyph glyph-name="uni039A" unicode="&#x39a;" horiz-adv-x="776" 
d="M104 0v1434h134v-760l346 760h147l-305 -637l336 -797h-144l-278 651l-102 -215v-436h-134z" />
    <glyph glyph-name="uni039B" unicode="&#x39b;" horiz-adv-x="811" 
d="M475 1440l293 -1440h-137l-228 1182l-229 -1182h-131l293 1440h139z" />
    <glyph glyph-name="uni039C" unicode="&#x39c;" horiz-adv-x="983" 
d="M104 0v1434h148l240 -732l241 732h148v-1434h-129v1137l-256 -756h-9l-256 756v-1137h-127z" />
    <glyph glyph-name="uni039D" unicode="&#x39d;" horiz-adv-x="864" 
d="M104 0v1434h134l395 -1080v1080h129v-1434h-125l-406 1110v-1110h-127z" />
    <glyph glyph-name="uni039E" unicode="&#x39e;" horiz-adv-x="651" 
d="M592 1309h-533v125h533v-125zM565 659h-479v125h479v-125zM598 0h-543v125h543v-125z" />
    <glyph glyph-name="uni039F" unicode="&#x39f;" horiz-adv-x="839" 
d="M420 -18q-158 0 -255 184t-97 528v45q0 344 97 528.5t255 184.5t254 -184.5t96 -528.5v-45q0 -344 -96 -528t-254 -184zM420 104q97 0 157 150t60 440v45q0 290 -60 440t-157 150t-157 -150t-60 -440v-45q0 -290 60 -440t157 -150z" />
    <glyph glyph-name="uni03A0" unicode="&#x3a0;" horiz-adv-x="856" 
d="M104 0v1434h648v-1434h-134v1309h-380v-1309h-134z" />
    <glyph glyph-name="uni03A1" unicode="&#x3a1;" horiz-adv-x="757" 
d="M104 0v1434h191q197 0 310.5 -120t113.5 -337v-4q0 -217 -111.5 -338.5t-312.5 -126.5h-57v-508h-134zM238 629h63q136 2 210.5 89.5t74.5 250.5v4q0 163 -76 250.5t-209 87.5h-63v-682z" />
    <glyph glyph-name="uni03A3" unicode="&#x3a3;" horiz-adv-x="684" 
d="M469 717l-264 -596h424v-121h-572v92l277 625l-277 626v91h568v-121h-420z" />
    <glyph glyph-name="uni03A4" unicode="&#x3a4;" horiz-adv-x="622" 
d="M244 0v1309h-217v125h569v-125h-219v-1309h-133z" />
    <glyph glyph-name="uni03A5" unicode="&#x3a5;" 
d="M303 0v604l-291 830h142l217 -658l219 658h135l-289 -830v-604h-133z" />
    <glyph glyph-name="uni03A6" unicode="&#x3a6;" horiz-adv-x="1148" 
d="M508 -16v163q-205 18 -330 170t-125 400v10q0 251 124.5 401t330.5 168v164h133v-164q205 -18 330 -168t125 -399v-10q0 -251 -124.5 -402.5t-330.5 -169.5v-163h-133zM186 729v-14q0 -200 88 -318.5t238 -132.5v916q-152 -18 -239 -134.5t-87 -316.5zM963 719v10
q0 200 -86.5 316.5t-237.5 134.5v-916q150 14 237 133.5t87 321.5z" />
    <glyph glyph-name="uni03A7" unicode="&#x3a7;" horiz-adv-x="749" 
d="M555 1434h135l-237 -680l264 -754h-139l-205 612l-203 -612h-135l260 752l-240 682h140l178 -543z" />
    <glyph glyph-name="uni03A8" unicode="&#x3a8;" horiz-adv-x="1140" 
d="M1051 1434v-664q0 -113 -28.5 -194t-84.5 -128t-129.5 -69.5t-171.5 -24.5v-354h-133v354q-100 2 -173.5 24t-129.5 69t-84.5 128t-28.5 195v664h133v-668q0 -84 19 -140.5t58 -88t87.5 -45t118.5 -15.5v957h133v-957q70 2 118 15t87 43.5t57.5 87t18.5 141.5v670h133z
" />
    <glyph glyph-name="uni03A9" unicode="&#x3a9;" horiz-adv-x="866" 
d="M434 1452q164 0 258 -144.5t94 -430.5v-13q0 -381 -196 -739h207v-125h-316v117q172 370 172 741v10q0 461 -221 461q-219 0 -219 -461v-8q0 -373 172 -743v-117h-315v125h206q-196 352 -196 739v13q0 286 95 430.5t259 144.5z" />
    <glyph glyph-name="uni03AA" unicode="&#x3aa;" horiz-adv-x="364" 
d="M115 0v1434h133v-1434h-133zM236 1530v153h135v-153h-135zM-2 1530v153h135v-153h-135z" />
    <glyph glyph-name="uni03AB" unicode="&#x3ab;" 
d="M303 0v604l-291 830h142l217 -658l219 658h135l-289 -830v-604h-133zM424 1522v153h135v-153h-135zM186 1522v153h136v-153h-136z" />
    <glyph glyph-name="uni03AC" unicode="&#x3ac;" horiz-adv-x="819" 
d="M360 1182l99 270l123 -61l-138 -209h-84zM807 113v-107q-43 -16 -90 -16q-78 0 -121.5 44.5t-44.5 153.5q-77 -206 -219 -206q-113 0 -189.5 137.5t-76.5 394.5v53q0 255 76.5 394t189.5 139q40 0 74 -16.5t60 -47t45 -64t38 -77.5v186h129v-858q0 -69 18 -93t62 -24
q22 0 49 7zM367 100q76 0 131 112t55 300v57q0 188 -55 300t-131 112t-125 -111t-49 -307v-45q0 -196 49 -307t125 -111z" />
    <glyph glyph-name="uni03AD" unicode="&#x3ad;" horiz-adv-x="591" 
d="M283 1182l98 270l123 -61l-137 -209h-84zM465 487h-76q-98 0 -151.5 -51.5t-53.5 -148.5v-4q0 -88 46 -135.5t135 -47.5q82 0 182 43v-125q-89 -36 -195 -36q-140 0 -216.5 76t-76.5 212v9q0 99 47.5 169.5t137.5 100.5q-176 66 -176 250v6q0 130 80 211.5t208 81.5
q95 0 179 -41v-129q-85 51 -168 51q-79 0 -126.5 -51.5t-47.5 -134.5v-5q0 -90 53.5 -138t146.5 -48h72v-115z" />
    <glyph glyph-name="uni03AE" unicode="&#x3ae;" horiz-adv-x="765" 
d="M348 1182l98 270l123 -61l-137 -209h-84zM225 0h-127v1081h127v-151q74 170 215 170q109 0 172.5 -86.5t63.5 -239.5v-1040h-127v1018q0 114 -39.5 174.5t-112.5 60.5t-122.5 -69t-49.5 -179v-739z" />
    <glyph glyph-name="uni03AF" unicode="&#x3af;" horiz-adv-x="364" 
d="M121 1180l98 270l123 -61l-137 -209h-84zM94 195v886h127v-858q0 -67 18.5 -92t61.5 -25q17 0 51 9v-107q-46 -16 -90 -16q-168 0 -168 203z" />
    <glyph glyph-name="uni03B0" unicode="&#x3b0;" horiz-adv-x="759" 
d="M483 1188v158h121v-158h-121zM162 1188v158h121v-158h-121zM317 1188l43 280l121 -26l-88 -254h-76zM381 -18q-145 0 -218 90.5t-73 263.5v745h127v-751q0 -230 164 -230q162 0 162 230v751h127v-745q0 -171 -74 -262.5t-215 -91.5z" />
    <glyph glyph-name="uni03B1" unicode="&#x3b1;" horiz-adv-x="819" 
d="M807 113v-107q-43 -16 -90 -16q-78 0 -121.5 44.5t-44.5 153.5q-77 -206 -219 -206q-113 0 -189.5 137.5t-76.5 394.5v53q0 255 76.5 394t189.5 139q40 0 74 -16.5t60 -47t45 -64t38 -77.5v186h129v-858q0 -69 18 -93t62 -24q22 0 49 7zM367 100q76 0 131 112t55 300v57
q0 188 -55 300t-131 112t-125 -111t-49 -307v-45q0 -196 49 -307t125 -111z" />
    <glyph glyph-name="uni03B2" unicode="&#x3b2;" horiz-adv-x="774" 
d="M461 -16q-158 0 -238 204v-454h-125v1351q0 170 79.5 268.5t225.5 98.5q134 0 216.5 -96.5t82.5 -251.5v-10q0 -139 -62.5 -235.5t-160.5 -135.5q240 -79 240 -354v-11q0 -178 -69.5 -276t-188.5 -98zM434 102q70 0 114 65t44 195v7q0 143 -67.5 220t-200.5 77h-103v-177
q0 -178 58 -282.5t155 -104.5zM221 1092v-324h101q124 0 188.5 88t64.5 229v7q0 115 -47 180t-129 65q-85 0 -131.5 -64t-46.5 -181z" />
    <glyph glyph-name="uni03B3" unicode="&#x3b3;" horiz-adv-x="720" 
d="M424 -266h-127v293l-252 1054h129l186 -854l189 854h125l-250 -1052v-295z" />
    <glyph glyph-name="uni03B4" unicode="&#x3b4;" horiz-adv-x="755" 
d="M150 1339v107h483v-115l-338 2l170 -235q125 -177 174 -323.5t49 -307.5v-8q0 -225 -88.5 -351t-224.5 -126q-140 0 -227 122t-87 347v10q0 179 63.5 328t199.5 305zM561 457v8q0 140 -35.5 262.5t-138.5 273.5q-104 -136 -151.5 -262t-47.5 -278v-10q0 -171 49.5 -262
t137.5 -91q83 0 134.5 93.5t51.5 265.5z" />
    <glyph glyph-name="uni03B5" unicode="&#x3b5;" horiz-adv-x="591" 
d="M465 487h-76q-98 0 -151.5 -51.5t-53.5 -148.5v-4q0 -88 46 -135.5t135 -47.5q82 0 182 43v-125q-89 -36 -195 -36q-140 0 -216.5 76t-76.5 212v9q0 99 47.5 169.5t137.5 100.5q-176 66 -176 250v6q0 130 80 211.5t208 81.5q95 0 179 -41v-129q-85 51 -168 51
q-79 0 -126.5 -51.5t-47.5 -134.5v-5q0 -90 53.5 -138t146.5 -48h72v-115z" />
    <glyph glyph-name="uni03B6" unicode="&#x3b6;" horiz-adv-x="655" 
d="M604 82v-291h-119v203l-166 57q-143 50 -204.5 120.5t-61.5 186.5v4q0 69 27.5 149.5t105.5 236.5l277 583h-342v115h485v-82l-313 -664q-67 -136 -90 -204.5t-23 -120.5v-4q0 -80 43 -128t156 -85z" />
    <glyph glyph-name="uni03B7" unicode="&#x3b7;" horiz-adv-x="765" 
d="M225 0h-127v1081h127v-151q74 170 215 170q109 0 172.5 -86.5t63.5 -239.5v-1040h-127v1018q0 114 -39.5 174.5t-112.5 60.5t-122.5 -69t-49.5 -179v-739z" />
    <glyph glyph-name="uni03B8" unicode="&#x3b8;" horiz-adv-x="782" 
d="M391 -18q-70 0 -125.5 40t-98 123t-65 223t-22.5 330v39q0 189 22.5 328.5t65 222.5t98 122.5t125.5 39.5t125.5 -39.5t98 -122.5t65 -222.5t22.5 -328.5v-39q0 -190 -22.5 -330t-65 -223t-98 -123t-125.5 -40zM391 98q179 0 187 566h-375q0 -293 50.5 -429.5
t137.5 -136.5zM391 1335q-58 0 -98 -53.5t-63.5 -179t-26.5 -326.5h375q-3 200 -27 326.5t-63.5 179.5t-96.5 53z" />
    <glyph glyph-name="uni03B9" unicode="&#x3b9;" horiz-adv-x="364" 
d="M94 195v886h127v-858q0 -67 18.5 -92t61.5 -25q17 0 51 9v-107q-46 -16 -90 -16q-168 0 -168 203z" />
    <glyph glyph-name="uni03BA" unicode="&#x3ba;" horiz-adv-x="698" 
d="M225 1081v-592l287 592h141l-233 -456l242 -625h-142l-190 502l-105 -207v-295h-127v1081h127z" />
    <glyph glyph-name="uni03BB" unicode="&#x3bb;" horiz-adv-x="722" 
d="M174 0h-125l256 1096l-24 108q-17 76 -42.5 103.5t-76.5 27.5q-26 0 -53 -6v113q42 10 81 10q82 0 129.5 -45.5t73.5 -159.5l287 -1247h-129l-186 893z" />
    <glyph glyph-name="uni03BC" unicode="&#x3bc;" horiz-adv-x="821" 
d="M807 113v-107q-43 -16 -88 -16q-121 0 -152 131q-56 -135 -170 -135q-129 0 -182 155h-4q14 -70 14 -225v-182h-127v1347h127v-739q0 -113 46 -176.5t116 -63.5q73 0 118.5 63.5t45.5 174.5v741h127v-878q1 -55 20.5 -76t59.5 -21q28 0 49 7z" />
    <glyph glyph-name="uni03BD" unicode="&#x3bd;" horiz-adv-x="720" 
d="M301 -6l-256 1087h129l186 -870l189 870h125l-252 -1087h-121z" />
    <glyph glyph-name="uni03BE" unicode="&#x3be;" horiz-adv-x="622" 
d="M569 1411v-131q-80 49 -161 49q-97 0 -151 -66t-54 -178v-4q0 -125 57 -194.5t168 -69.5h68v-115h-68q-117 0 -180.5 -70t-63.5 -200v-6q0 -49 10 -88t34.5 -77.5t71.5 -70t116 -55.5l157 -53v-291h-116v203l-107 37q-87 30 -146 71t-91 91.5t-45 103.5t-13 119v6
q0 265 209 342q-188 90 -188 323v7q0 156 87 256t236 100q100 0 170 -39z" />
    <glyph glyph-name="uni03BF" unicode="&#x3bf;" horiz-adv-x="749" 
d="M375 -18q-134 0 -224 146.5t-90 395.5v31q0 249 90.5 396t225.5 147q134 0 223.5 -147t89.5 -396v-31q0 -248 -91 -395t-224 -147zM375 98q80 0 133 117t53 309v33q0 193 -53 308.5t-133 115.5t-133.5 -115.5t-53.5 -308.5v-33q0 -192 53.5 -309t133.5 -117z" />
    <glyph glyph-name="uni03C0" unicode="&#x3c0;" horiz-adv-x="862" 
d="M571 195v768h-292v-963h-129v963h-130v118h809v-118h-131v-740q0 -67 18.5 -92t61.5 -25q16 0 51 9v-107q-46 -16 -90 -16q-168 0 -168 203z" />
    <glyph glyph-name="uni03C1" unicode="&#x3c1;" horiz-adv-x="765" 
d="M90 -266v874q0 251 79.5 370.5t221.5 119.5q153 0 232 -138.5t79 -402.5v-41q0 -257 -77 -395.5t-191 -138.5q-134 0 -217 204v-452h-127zM399 100q76 0 125 111t49 307v39q0 424 -182 424q-86 0 -131 -91.5t-45 -297.5v-80q0 -188 54.5 -300t129.5 -112z" />
    <glyph glyph-name="uni03C2" unicode="&#x3c2;" horiz-adv-x="579" 
d="M412 -209v205l-82 49q-142 85 -205.5 209.5t-63.5 318.5v17q0 242 90 374t240 132q78 0 137 -35v-135q-59 47 -129 47q-96 0 -152.5 -97.5t-56.5 -283.5v-14q0 -167 52 -265.5t176 -167.5l112 -63v-291h-118z" />
    <glyph glyph-name="uni03C3" unicode="&#x3c3;" horiz-adv-x="761" 
d="M375 -18q-134 0 -224 144.5t-90 389.5v31q0 247 91.5 390.5t236.5 143.5h354v-118l-198 4q145 -152 145 -441v-12q0 -241 -91.5 -386.5t-223.5 -145.5zM375 98q80 0 133 113.5t53 302.5v33q0 192 -52.5 305t-133.5 113q-82 0 -134.5 -112t-52.5 -304v-33
q0 -190 53.5 -304t133.5 -114z" />
    <glyph glyph-name="uni03C4" unicode="&#x3c4;" horiz-adv-x="575" 
d="M551 963h-207v-748q0 -60 24 -84.5t74 -24.5q28 0 86 15v-107q-49 -22 -118 -22q-193 0 -193 205v766h-199v118h533v-118z" />
    <glyph glyph-name="uni03C5" unicode="&#x3c5;" horiz-adv-x="759" 
d="M381 -18q-145 0 -218 90.5t-73 263.5v745h127v-751q0 -230 164 -230q162 0 162 230v751h127v-745q0 -171 -74 -262.5t-215 -91.5z" />
    <glyph glyph-name="uni03C6" unicode="&#x3c6;" horiz-adv-x="1050" 
d="M590 -266h-129v260q-178 18 -289 163t-111 378v12q0 229 112 375.5t288 164.5v359h129v-359q177 -18 289 -162.5t112 -377.5v-12q0 -233 -112 -378t-289 -163v-260zM864 535v12q0 183 -74 296t-202 130v-864q128 14 202 127.5t74 298.5zM188 547v-12q0 -184 73.5 -298
t201.5 -128v864q-128 -17 -201.5 -129t-73.5 -297z" />
    <glyph glyph-name="uni03C7" unicode="&#x3c7;" horiz-adv-x="702" 
d="M170 1081l182 -522l183 522h127l-240 -639l264 -708h-129l-207 592l-205 -592h-131l265 708l-238 639h129z" />
    <glyph glyph-name="uni03C8" unicode="&#x3c8;" horiz-adv-x="1095" 
d="M612 -266h-129v266q-85 2 -154 25t-124 70t-85 126.5t-30 186.5v673h127v-671q0 -282 266 -293v1329h127v-1329q45 2 82 10.5t72.5 29t60 52t39.5 82t15 117.5v673h127v-673q0 -107 -30.5 -186.5t-86 -126.5t-124.5 -70t-153 -25v-266z" />
    <glyph glyph-name="uni03C9" unicode="&#x3c9;" horiz-adv-x="1159" 
d="M518 874h123v-346q0 -211 45.5 -317.5t126.5 -106.5q143 0 143 310v2q0 170 -36.5 326.5t-110.5 338.5h129q74 -180 110.5 -334.5t36.5 -332.5v-2q0 -198 -66 -312t-190 -114q-105 0 -165 77t-86 220q-51 -297 -250 -297q-125 0 -189.5 113.5t-64.5 314.5v2q0 176 37 335
t108 330h129q-76 -182 -111.5 -339.5t-35.5 -325.5v-2q0 -152 37 -231t106 -79q82 0 128 106.5t46 317.5v346z" />
    <glyph glyph-name="uni03CA" unicode="&#x3ca;" horiz-adv-x="364" 
d="M213 1196v160h127v-160h-127zM-16 1196v160h127v-160h-127zM94 195v886h127v-858q0 -67 18.5 -92t61.5 -25q17 0 51 9v-107q-46 -16 -90 -16q-168 0 -168 203z" />
    <glyph glyph-name="uni03CB" unicode="&#x3cb;" horiz-adv-x="759" 
d="M434 1188v160h127v-160h-127zM205 1188v160h127v-160h-127zM381 -18q-145 0 -218 90.5t-73 263.5v745h127v-751q0 -230 164 -230q162 0 162 230v751h127v-745q0 -171 -74 -262.5t-215 -91.5z" />
    <glyph glyph-name="uni03CC" unicode="&#x3cc;" horiz-adv-x="749" 
d="M338 1182l98 270l123 -61l-137 -209h-84zM375 -18q-134 0 -224 146.5t-90 395.5v31q0 249 90.5 396t225.5 147q134 0 223.5 -147t89.5 -396v-31q0 -248 -91 -395t-224 -147zM375 98q80 0 133 117t53 309v33q0 193 -53 308.5t-133 115.5t-133.5 -115.5t-53.5 -308.5v-33
q0 -192 53.5 -309t133.5 -117z" />
    <glyph glyph-name="uni03CD" unicode="&#x3cd;" horiz-adv-x="759" 
d="M342 1171l98 271l123 -62l-137 -209h-84zM381 -18q-145 0 -218 90.5t-73 263.5v745h127v-751q0 -230 164 -230q162 0 162 230v751h127v-745q0 -171 -74 -262.5t-215 -91.5z" />
    <glyph glyph-name="uni03CE" unicode="&#x3ce;" horiz-adv-x="1159" 
d="M539 1171l98 271l123 -62l-137 -209h-84zM518 874h123v-346q0 -211 45.5 -317.5t126.5 -106.5q143 0 143 310v2q0 170 -36.5 326.5t-110.5 338.5h129q74 -180 110.5 -334.5t36.5 -332.5v-2q0 -198 -66 -312t-190 -114q-105 0 -165 77t-86 220q-51 -297 -250 -297
q-125 0 -189.5 113.5t-64.5 314.5v2q0 176 37 335t108 330h129q-76 -182 -111.5 -339.5t-35.5 -325.5v-2q0 -152 37 -231t106 -79q82 0 128 106.5t46 317.5v346z" />
    <glyph glyph-name="uni0400" unicode="&#x400;" horiz-adv-x="667" 
d="M418 1513h-96l-172 164l126 62zM104 0v1434h504v-125h-370v-525h335v-125h-335v-534h376v-125h-510z" />
    <glyph glyph-name="uni0401" unicode="&#x401;" horiz-adv-x="667" 
d="M414 1530v153h135v-153h-135zM176 1530v153h135v-153h-135zM104 0v1434h504v-125h-370v-525h335v-125h-335v-534h376v-125h-510z" />
    <glyph glyph-name="uni0402" unicode="&#x402;" horiz-adv-x="901" 
d="M592 1434v-125h-227v-435q78 19 149 19q170 0 255 -106t85 -345v-8q0 -101 -15.5 -177t-42.5 -125t-68 -80t-87.5 -43.5t-105.5 -12.5h-19v121h6q50 0 83 11.5t61 44t41.5 96t13.5 161.5v6q0 177 -49 254.5t-170 77.5q-73 0 -137 -20v-748h-134v1309h-204v125h565z" />
    <glyph glyph-name="uni0403" unicode="&#x403;" horiz-adv-x="589" 
d="M270 1513l142 226l127 -62l-172 -164h-97zM104 0v1434h467v-125h-333v-1309h-134z" />
    <glyph glyph-name="uni0404" unicode="&#x404;" horiz-adv-x="702" 
d="M463 -12q-180 0 -287.5 177.5t-107.5 530.5v41q0 352 111 530.5t292 178.5q90 0 162 -35v-139q-74 45 -156 45q-126 0 -198 -132.5t-76 -402.5h354v-120h-354q4 -279 77 -412t199 -133q85 0 158 47v-133q-67 -43 -174 -43z" />
    <glyph glyph-name="uni0405" unicode="&#x405;" horiz-adv-x="677" 
d="M311 -14q-123 0 -250 71v144q143 -88 244 -88q83 0 132.5 49.5t49.5 138.5v2q0 74 -37.5 149t-146.5 216q-148 191 -194 276t-46 186v5q0 136 87 224.5t215 88.5q110 0 217 -57v-146q-113 76 -211 76q-76 0 -124 -49.5t-48 -130.5v-4q0 -69 36.5 -137.5t147.5 -208.5
q138 -171 188 -270.5t50 -213.5v-2q0 -143 -88.5 -231t-221.5 -88z" />
    <glyph glyph-name="uni0406" unicode="&#x406;" horiz-adv-x="364" 
d="M115 0v1434h133v-1434h-133z" />
    <glyph glyph-name="uni0407" unicode="&#x407;" horiz-adv-x="364" 
d="M115 0v1434h133v-1434h-133zM236 1530v153h135v-153h-135zM-2 1530v153h135v-153h-135z" />
    <glyph glyph-name="uni0408" unicode="&#x408;" horiz-adv-x="516" 
d="M156 -10q-58 0 -117 16v129q52 -18 104 -18q66 0 105 40.5t39 123.5v1153h133v-1160q0 -139 -78 -217q-67 -67 -186 -67z" />
    <glyph glyph-name="uni0409" unicode="&#x409;" horiz-adv-x="1148" 
d="M508 0v1307h-8l-363 -1307h-129l408 1434h223v-519h49q196 0 309 -120t113 -330v-4q0 -214 -115.5 -337.5t-318.5 -123.5h-168zM639 123h57q132 2 206.5 89t74.5 245v4q0 159 -76 245.5t-207 86.5h-55v-670z" />
    <glyph glyph-name="uni040A" unicode="&#x40a;" horiz-adv-x="1247" 
d="M606 0v659h-368v-659h-134v1434h134v-652h368v652h133v-519h47q195 0 309.5 -120.5t114.5 -329.5v-4q0 -215 -115 -338t-321 -123h-168zM739 123h56q132 2 207 89t75 245v4q0 159 -76.5 245.5t-207.5 86.5h-54v-670z" />
    <glyph glyph-name="uni040B" unicode="&#x40b;" horiz-adv-x="940" 
d="M592 1434v-125h-227v-437q89 21 180 21q160 0 234.5 -79t74.5 -249v-565h-133v553q0 116 -42.5 165.5t-154.5 49.5q-65 0 -159 -23v-745h-134v1309h-204v125h565z" />
    <glyph glyph-name="uni040C" unicode="&#x40c;" horiz-adv-x="776" 
d="M342 1505l141 226l127 -62l-172 -164h-96zM104 0v1434h134v-650h92l256 650h145l-289 -705l322 -729h-148l-288 664h-90v-664h-134z" />
    <glyph glyph-name="uni040D" unicode="&#x40d;" horiz-adv-x="864" 
d="M492 1505h-97l-172 164l127 62zM762 0h-131v1139l-389 -1139h-138v1434h129v-1108l379 1108h150v-1434z" />
    <glyph glyph-name="uni040E" unicode="&#x40e;" horiz-adv-x="745" 
d="M385 1505q-87 0 -141 45.5t-64 135.5h94q21 -80 111 -80t111 80h94q-10 -90 -64 -135.5t-141 -45.5zM334 0h-135l125 444l-301 990h137l231 -797l207 797h135z" />
    <glyph glyph-name="uni040F" unicode="&#x40f;" horiz-adv-x="856" 
d="M365 -229v229h-261v1434h134v-1309h380v1309h134v-1434h-263v-229h-124z" />
    <glyph glyph-name="uni0410" unicode="&#x410;" horiz-adv-x="833" 
d="M43 0l301 1440h143l304 -1440h-136l-75 371h-332l-74 -371h-131zM268 492h291l-145 720z" />
    <glyph glyph-name="uni0411" unicode="&#x411;" horiz-adv-x="770" 
d="M104 0v1434h551v-125h-417v-457h59q196 0 309 -111t113 -307v-4q0 -198 -114 -314t-322 -116h-179zM238 123h67q134 0 207.5 80t73.5 223v4q0 142 -76 221.5t-207 79.5h-65v-608z" />
    <glyph glyph-name="uni0412" unicode="&#x412;" horiz-adv-x="774" 
d="M104 0v1434h191q198 0 311 -113q94 -94 94 -248v-6q0 -258 -245 -340q264 -73 264 -342v-6q0 -178 -122.5 -278.5t-326.5 -100.5h-166zM569 1055v4q0 120 -71.5 186t-194.5 66h-67v-529h47q138 0 212 71.5t74 201.5zM586 385v6q0 130 -78 201.5t-219 71.5h-53v-541h43
q144 0 225.5 67.5t81.5 194.5z" />
    <glyph glyph-name="uni0413" unicode="&#x413;" horiz-adv-x="589" 
d="M104 0v1434h467v-125h-333v-1309h-134z" />
    <glyph glyph-name="uni0414" unicode="&#x414;" horiz-adv-x="907" 
d="M18 125h91l266 1315h157l265 -1315h92v-354h-125v229h-623v-229h-123v354zM451 1227l-211 -1106h422z" />
    <glyph glyph-name="uni0415" unicode="&#x415;" horiz-adv-x="667" 
d="M104 0v1434h504v-125h-370v-525h335v-125h-335v-534h376v-125h-510z" />
    <glyph glyph-name="uni0416" unicode="&#x416;" horiz-adv-x="1191" 
d="M41 1434h147l250 -650h94l-2 650h134l-2 -650h92l252 650h145l-283 -707l312 -727h-148l-280 664h-90l2 -664h-134l2 664h-96l-278 -664h-144l308 727z" />
    <glyph glyph-name="uni0417" unicode="&#x417;" horiz-adv-x="688" 
d="M78 1264v133q94 51 217 51q156 0 239.5 -94t83.5 -258v-6q0 -259 -227 -361q112 -36 173 -123.5t61 -220.5v-6q0 -180 -96.5 -286.5t-266.5 -106.5q-118 0 -196 45v137q92 -55 192 -55q112 0 173 70.5t61 201.5v4q0 273 -271 273h-61v120h61q121 0 193.5 75.5t72.5 219.5
v6q0 116 -52 178t-150 62q-102 0 -207 -59z" />
    <glyph glyph-name="uni0418" unicode="&#x418;" horiz-adv-x="864" 
d="M762 0h-131v1139l-389 -1139h-138v1434h129v-1108l379 1108h150v-1434z" />
    <glyph glyph-name="uni0419" unicode="&#x419;" horiz-adv-x="864" 
d="M426 1505q-87 0 -141 45.5t-64 135.5h94q21 -80 111 -80t111 80h94q-10 -90 -64 -135.5t-141 -45.5zM762 0h-131v1139l-389 -1139h-138v1434h129v-1108l379 1108h150v-1434z" />
    <glyph glyph-name="uni041A" unicode="&#x41a;" horiz-adv-x="776" 
d="M104 0v1434h134v-650h92l256 650h145l-289 -705l322 -729h-148l-288 664h-90v-664h-134z" />
    <glyph glyph-name="uni041B" unicode="&#x41b;" horiz-adv-x="811" 
d="M475 1440l293 -1440h-137l-228 1182l-229 -1182h-131l293 1440h139z" />
    <glyph glyph-name="uni041C" unicode="&#x41c;" horiz-adv-x="983" 
d="M104 0v1434h148l240 -732l241 732h148v-1434h-129v1137l-256 -756h-9l-256 756v-1137h-127z" />
    <glyph glyph-name="uni041D" unicode="&#x41d;" horiz-adv-x="856" 
d="M104 0v1434h134v-652h380v652h134v-1434h-134v659h-380v-659h-134z" />
    <glyph glyph-name="uni041E" unicode="&#x41e;" horiz-adv-x="839" 
d="M420 -18q-158 0 -255 184t-97 528v45q0 344 97 528.5t255 184.5t254 -184.5t96 -528.5v-45q0 -344 -96 -528t-254 -184zM420 104q97 0 157 150t60 440v45q0 290 -60 440t-157 150t-157 -150t-60 -440v-45q0 -290 60 -440t157 -150z" />
    <glyph glyph-name="uni041F" unicode="&#x41f;" horiz-adv-x="856" 
d="M104 0v1434h648v-1434h-134v1309h-380v-1309h-134z" />
    <glyph glyph-name="uni0420" unicode="&#x420;" horiz-adv-x="757" 
d="M104 0v1434h191q197 0 310.5 -120t113.5 -337v-4q0 -217 -111.5 -338.5t-312.5 -126.5h-57v-508h-134zM238 629h63q136 2 210.5 89.5t74.5 250.5v4q0 163 -76 250.5t-209 87.5h-63v-682z" />
    <glyph glyph-name="uni0421" unicode="&#x421;" horiz-adv-x="677" 
d="M455 -12q-173 0 -280 180t-107 528v41q0 176 31.5 314t86 222.5t124.5 128.5t151 44q75 0 147 -35v-139q-80 45 -139 45q-117 0 -191.5 -148.5t-74.5 -431.5v-41q0 -287 74.5 -433t191.5 -146q69 0 143 47v-133q-67 -43 -157 -43z" />
    <glyph glyph-name="uni0422" unicode="&#x422;" horiz-adv-x="622" 
d="M244 0v1309h-217v125h569v-125h-219v-1309h-133z" />
    <glyph glyph-name="uni0423" unicode="&#x423;" horiz-adv-x="745" 
d="M334 0h-135l125 444l-301 990h137l231 -797l207 797h135z" />
    <glyph glyph-name="uni0424" unicode="&#x424;" horiz-adv-x="1148" 
d="M508 -16v163q-205 18 -330 170t-125 400v10q0 251 124.5 401t330.5 168v164h133v-164q205 -18 330 -168t125 -399v-10q0 -251 -124.5 -402.5t-330.5 -169.5v-163h-133zM186 729v-14q0 -200 88 -318.5t238 -132.5v916q-152 -18 -239 -134.5t-87 -316.5zM963 719v10
q0 200 -86.5 316.5t-237.5 134.5v-916q150 14 237 133.5t87 321.5z" />
    <glyph glyph-name="uni0425" unicode="&#x425;" horiz-adv-x="749" 
d="M555 1434h135l-237 -680l264 -754h-139l-205 612l-203 -612h-135l260 752l-240 682h140l178 -543z" />
    <glyph glyph-name="uni0426" unicode="&#x426;" horiz-adv-x="884" 
d="M729 -229v229h-625v1434h134v-1309h380v1309h134v-1309h102v-354h-125z" />
    <glyph glyph-name="uni0427" unicode="&#x427;" horiz-adv-x="811" 
d="M573 0v561q-84 -20 -180 -20q-160 0 -234.5 78.5t-74.5 248.5v566h133v-553q0 -118 42 -166.5t155 -48.5q80 0 159 20v748h134v-1434h-134z" />
    <glyph glyph-name="uni0428" unicode="&#x428;" horiz-adv-x="1304" 
d="M104 0v1434h134v-1309h348v1309h133v-1309h348v1309h133v-1434h-1096z" />
    <glyph glyph-name="uni0429" unicode="&#x429;" horiz-adv-x="1335" 
d="M104 0v1434h134v-1309h348v1309h133v-1309h348v1309h133v-1309h103v-354h-125v229h-1074z" />
    <glyph glyph-name="uni042A" unicode="&#x42a;" horiz-adv-x="892" 
d="M240 0v1311h-213v123h346v-519h57q196 0 310 -120t114 -330v-4q0 -216 -114 -338.5t-322 -122.5h-178zM373 123h63q135 2 210 88.5t75 245.5v4q0 159 -77 245.5t-208 86.5h-63v-670z" />
    <glyph glyph-name="uni042B" unicode="&#x42b;" horiz-adv-x="1087" 
d="M104 0v1434h134v-519h57q196 0 310 -120t114 -330v-4q0 -216 -114 -338.5t-322 -122.5h-179zM238 123h63q135 2 210 88.5t75 245.5v4q0 159 -77 245.5t-208 86.5h-63v-670zM850 0v1434h133v-1434h-133z" />
    <glyph glyph-name="uni042C" unicode="&#x42c;" horiz-adv-x="757" 
d="M104 0v1434h134v-519h57q196 0 310 -120t114 -330v-4q0 -216 -114 -338.5t-322 -122.5h-179zM238 123h63q135 2 210 88.5t75 245.5v4q0 159 -77 245.5t-208 86.5h-63v-670z" />
    <glyph glyph-name="uni042D" unicode="&#x42d;" horiz-adv-x="702" 
d="M145 662v118h355q-4 273 -78.5 405t-196.5 132q-78 0 -155 -47v133q81 43 170 43q179 0 286 -177t107 -532v-41q0 -351 -111.5 -529.5t-292.5 -178.5q-88 0 -163 35v139q77 -45 157 -45q124 0 198.5 135.5t78.5 409.5h-355z" />
    <glyph glyph-name="uni042E" unicode="&#x42e;" horiz-adv-x="1155" 
d="M104 0v1434h134v-652h170q6 324 98 497t239 173q154 0 247 -184t93 -529v-45q0 -345 -93 -528.5t-247 -183.5q-150 0 -241.5 174t-95.5 503h-170v-659h-134zM745 104q92 0 149.5 150t57.5 440v45q0 290 -57.5 440t-149.5 150t-148 -149.5t-56 -440.5v-45
q0 -291 56 -440.5t148 -149.5z" />
    <glyph glyph-name="uni042F" unicode="&#x42f;" horiz-adv-x="792" 
d="M688 1434v-1434h-133v557h-72q-39 0 -57 2l-238 -559h-149l258 596q-107 48 -167.5 150t-59.5 241v6q0 205 114 323t322 118h182zM555 1311h-57q-140 0 -217.5 -78t-77.5 -238v-8q0 -152 77 -231.5t209 -79.5h66v635z" />
    <glyph glyph-name="uni0430" unicode="&#x430;" horiz-adv-x="708" 
d="M285 -18q-104 0 -170 93t-66 236v21q0 161 72.5 253.5t200.5 92.5q85 0 172 -41v117q0 106 -48.5 162.5t-144.5 56.5q-104 0 -195 -49v123q100 47 209 47q139 0 222 -80q84 -84 84 -248v-766h-129v145q-67 -163 -207 -163zM322 92q76 0 124 68.5t48 163.5v206
q-80 39 -150 39q-83 0 -126.5 -61t-43.5 -168v-21q0 -105 38.5 -166t109.5 -61z" />
    <glyph glyph-name="uni0431" unicode="&#x431;" horiz-adv-x="753" 
d="M381 -18q-107 0 -178 71q-67 67 -99 192t-32 335v18q0 146 6 248.5t21.5 196t43.5 154t72.5 109t107 76.5t148.5 43l178 29v-121l-164 -26q-70 -12 -117.5 -33.5t-82.5 -56t-57 -91.5t-35 -130t-21 -181q41 99 104.5 146t139.5 47q126 0 201 -128t75 -352v-30
q0 -237 -84 -376.5t-227 -139.5zM381 96q90 0 137 105.5t47 292.5v28q0 171 -45 272t-129 101q-89 0 -141.5 -100t-52.5 -256v-47q0 -191 48 -293.5t136 -102.5z" />
    <glyph glyph-name="uni0432" unicode="&#x432;" horiz-adv-x="710" 
d="M98 0v1081h183q170 0 264 -69.5t94 -202.5v-2q0 -102 -55 -166.5t-144 -91.5q104 -25 159.5 -88t55.5 -160v-6q0 -145 -101.5 -220t-289.5 -75h-166zM223 598h58q111 0 171 52t60 145v2q0 89 -56.5 130.5t-168.5 41.5h-64v-371zM223 492v-379h49q256 0 256 184v6
q0 189 -247 189h-58z" />
    <glyph glyph-name="uni0433" unicode="&#x433;" horiz-adv-x="528" 
d="M98 0v1081h416v-118h-289v-963h-127z" />
    <glyph glyph-name="uni0434" unicode="&#x434;" horiz-adv-x="815" 
d="M475 1087l238 -970h88v-326h-115v209h-557v-209h-115v326h86l238 970h137zM408 899l-181 -784h357z" />
    <glyph glyph-name="uni0435" unicode="&#x435;" horiz-adv-x="714" 
d="M410 -16q-148 0 -249.5 140.5t-101.5 393.5v29q0 263 88 407t218 144t209 -140t79 -393v-82h-467q6 -187 73 -283t169 -96q49 0 90 15.5t98 52.5l13 -123q-62 -36 -108.5 -50.5t-110.5 -14.5zM186 590h344q0 173 -46 282t-119 109q-77 0 -126 -100t-53 -291z" />
    <glyph glyph-name="uni0436" unicode="&#x436;" horiz-adv-x="1071" 
d="M598 1081l-2 -479h94l193 479h137l-223 -534l237 -547h-137l-207 485h-94l2 -485h-127l4 485h-94l-209 -485h-137l239 541l-225 540h141l189 -479h94l-2 479h127z" />
    <glyph glyph-name="uni0437" unicode="&#x437;" horiz-adv-x="593" 
d="M45 18v129q96 -47 178 -47q87 0 136 49.5t49 139.5v6q0 93 -54.5 142.5t-158.5 49.5h-70v115h70q95 0 150.5 52t55.5 147v4q0 83 -41 128.5t-120 45.5q-87 0 -181 -51v125q91 45 193 45q130 0 202 -74.5t72 -204.5v-6q0 -105 -54.5 -172t-131.5 -92q192 -57 192 -260v-10
q0 -133 -80 -215t-223 -82q-98 0 -184 36z" />
    <glyph glyph-name="uni0438" unicode="&#x438;" horiz-adv-x="770" 
d="M98 0v1081h125v-798l320 798h131v-1081h-127v813l-324 -813h-125z" />
    <glyph glyph-name="uni0439" unicode="&#x439;" horiz-adv-x="770" 
d="M98 0v1081h125v-798l320 798h131v-1081h-127v813l-324 -813h-125zM385 1171q-86 0 -140.5 51t-64.5 156h92q21 -108 113 -108t113 108h92q-10 -105 -64.5 -156t-140.5 -51z" />
    <glyph glyph-name="uni043A" unicode="&#x43a;" horiz-adv-x="704" 
d="M225 1081v-479h94l197 479h139l-227 -532l244 -549h-142l-208 483h-97v-483h-127v1081h127z" />
    <glyph glyph-name="uni043B" unicode="&#x43b;" 
d="M434 1087l258 -1087h-129l-194 881l-199 -881h-125l258 1087h131z" />
    <glyph glyph-name="uni043C" unicode="&#x43c;" horiz-adv-x="856" 
d="M98 0v1081h138l192 -551l193 551h137v-1081h-123v821l-205 -557h-4l-205 557v-821h-123z" />
    <glyph glyph-name="uni043D" unicode="&#x43d;" horiz-adv-x="772" 
d="M98 0v1081h127v-475h322v475h129v-1081h-129v487h-322v-487h-127z" />
    <glyph glyph-name="uni043E" unicode="&#x43e;" horiz-adv-x="749" 
d="M375 -18q-134 0 -224 146.5t-90 395.5v31q0 249 90.5 396t225.5 147q134 0 223.5 -147t89.5 -396v-31q0 -248 -91 -395t-224 -147zM375 98q80 0 133 117t53 309v33q0 193 -53 308.5t-133 115.5t-133.5 -115.5t-53.5 -308.5v-33q0 -192 53.5 -309t133.5 -117z" />
    <glyph glyph-name="uni043F" unicode="&#x43f;" horiz-adv-x="772" 
d="M98 0v1081h578v-1081h-129v963h-322v-963h-127z" />
    <glyph glyph-name="uni0440" unicode="&#x440;" horiz-adv-x="774" 
d="M98 -266v1347h127v-188q30 89 87 148t130 59q115 0 192 -138t77 -395v-53q0 -255 -77.5 -393.5t-191.5 -138.5q-74 0 -130.5 58t-86.5 146v-452h-127zM408 100q76 0 125 111t49 307v45q0 196 -49 307t-125 111t-131.5 -112t-55.5 -300v-57q0 -188 55.5 -300t131.5 -112z
" />
    <glyph glyph-name="uni0441" unicode="&#x441;" horiz-adv-x="577" 
d="M391 -16q-143 0 -236.5 137.5t-93.5 400.5v33q0 133 27.5 238.5t74.5 170.5t105.5 98.5t124.5 33.5q82 0 135 -35v-135q-59 47 -129 47q-84 0 -146.5 -106t-62.5 -308v-41q0 -208 62.5 -310t155.5 -102q57 0 120 50v-129q-62 -43 -137 -43z" />
    <glyph glyph-name="uni0442" unicode="&#x442;" horiz-adv-x="565" 
d="M219 0v963h-196v118h520v-118h-197v-963h-127z" />
    <glyph glyph-name="uni0443" unicode="&#x443;" horiz-adv-x="716" 
d="M358 238l187 843h127l-320 -1347h-125v2l70 282l-252 1063h129z" />
    <glyph glyph-name="uni0444" unicode="&#x444;" horiz-adv-x="1050" 
d="M590 -266h-129v260q-178 18 -289 163t-111 378v12q0 229 112 375.5t288 164.5v359h129v-359q177 -18 289 -162.5t112 -377.5v-12q0 -233 -112 -378t-289 -163v-260zM864 535v12q0 183 -74 296t-202 130v-864q128 14 202 127.5t74 298.5zM188 547v-12q0 -184 73.5 -298
t201.5 -128v864q-128 -17 -201.5 -129t-73.5 -297z" />
    <glyph glyph-name="uni0445" unicode="&#x445;" horiz-adv-x="688" 
d="M186 1081l158 -417l160 417h131l-215 -520l229 -561h-135l-172 455l-172 -455h-133l227 559l-213 522h135z" />
    <glyph glyph-name="uni0446" unicode="&#x446;" horiz-adv-x="794" 
d="M653 -209v209h-555v1081h127v-962h322v962h129v-964h94v-326h-117z" />
    <glyph glyph-name="uni0447" unicode="&#x447;" horiz-adv-x="733" 
d="M508 0v414q-92 -15 -150 -15q-143 0 -211.5 65.5t-68.5 211.5v405h129v-393q0 -92 37 -131t129 -39q48 0 135 17v546h129v-1081h-129z" />
    <glyph glyph-name="uni0448" unicode="&#x448;" horiz-adv-x="1171" 
d="M98 0v1081h127v-962h297v962h127v-962h297v962h127v-1081h-975z" />
    <glyph glyph-name="uni0449" unicode="&#x449;" horiz-adv-x="1191" 
d="M98 0v1081h127v-962h297v962h127v-962h297v962h127v-964h94v-326h-116v209h-953z" />
    <glyph glyph-name="uni044A" unicode="&#x44a;" horiz-adv-x="792" 
d="M211 0v965h-188v116h315v-350h29q178 0 283.5 -92t105.5 -266v-4q0 -172 -107 -270.5t-297 -98.5h-141zM338 618v-505h37q117 0 185.5 67.5t68.5 184.5v4q0 122 -68 185.5t-186 63.5h-37z" />
    <glyph glyph-name="uni044B" unicode="&#x44b;" horiz-adv-x="987" 
d="M225 1081v-350h29q178 0 283.5 -92t105.5 -266v-4q0 -172 -106.5 -270.5t-296.5 -98.5h-142v1081h127zM225 618v-505h37q117 0 185.5 67.5t68.5 184.5v4q0 122 -68 185.5t-186 63.5h-37zM762 0v1081h129v-1081h-129z" />
    <glyph glyph-name="uni044C" unicode="&#x44c;" horiz-adv-x="679" 
d="M98 0v1081h127v-350h29q178 0 283.5 -92t105.5 -266v-4q0 -172 -106.5 -270.5t-296.5 -98.5h-142zM225 113h37q117 0 185.5 67.5t68.5 184.5v4q0 122 -68 185.5t-186 63.5h-37v-505z" />
    <glyph glyph-name="uni044D" unicode="&#x44d;" horiz-adv-x="612" 
d="M111 602h313q-7 192 -72 282.5t-164 90.5q-69 0 -137 -41v127q66 35 152 35q153 0 250.5 -133.5t97.5 -401.5v-35q0 -273 -98 -407.5t-256 -134.5q-88 0 -148 32v134q71 -44 141 -44q100 0 165 90.5t69 290.5h-313v115z" />
    <glyph glyph-name="uni044E" unicode="&#x44e;" horiz-adv-x="1050" 
d="M225 487v-487h-127v1081h127v-475h144q12 226 99.5 359t211.5 133q132 0 220.5 -147t88.5 -396v-31q0 -249 -89.5 -395.5t-221.5 -146.5q-127 0 -214.5 136t-94.5 369h-144zM678 98q80 0 132 116.5t52 309.5v33q0 194 -52 309t-132 115q-77 0 -128.5 -115.5t-51.5 -308.5
v-33q0 -193 51.5 -309.5t128.5 -116.5z" />
    <glyph glyph-name="uni044F" unicode="&#x44f;" horiz-adv-x="729" 
d="M182 0h-139l205 442q-88 42 -134.5 117t-45.5 178v2q0 164 99.5 253t278.5 89h185v-1081h-129v406h-70q-50 0 -65 4zM502 969h-60q-121 0 -184 -54t-63 -172v-4q0 -110 62.5 -166.5t184.5 -56.5h60v453z" />
    <glyph glyph-name="uni0450" unicode="&#x450;" horiz-adv-x="714" 
d="M410 -16q-148 0 -249.5 140.5t-101.5 393.5v29q0 263 88 407t218 144t209 -140t79 -393v-82h-467q6 -187 73 -283t169 -96q49 0 90 15.5t98 52.5l13 -123q-62 -36 -108.5 -50.5t-110.5 -14.5zM186 590h344q0 173 -46 282t-119 109q-77 0 -126 -100t-53 -291zM332 1182
l-178 202l122 66l142 -268h-86z" />
    <glyph glyph-name="uni0451" unicode="&#x451;" horiz-adv-x="714" 
d="M418 1198v160h127v-160h-127zM188 1198v160h127v-160h-127zM410 -16q-148 0 -249.5 140.5t-101.5 393.5v29q0 263 88 407t218 144t209 -140t79 -393v-82h-467q6 -187 73 -283t169 -96q49 0 90 15.5t98 52.5l13 -123q-62 -36 -108.5 -50.5t-110.5 -14.5zM186 590h344
q0 173 -46 282t-119 109q-77 0 -126 -100t-53 -291z" />
    <glyph glyph-name="uni0452" unicode="&#x452;" horiz-adv-x="741" 
d="M477 1157h-252v-272q98 16 152 16q144 0 213 -66t69 -212v-635q0 -258 -227 -258q-49 0 -82 8v110q23 -6 58 -6q71 0 97.5 40t26.5 124v604q0 92 -37 131t-130 39q-86 0 -140 -16v-764h-127v1157h-155v109h155v180h127v-180h252v-109z" />
    <glyph glyph-name="uni0453" unicode="&#x453;" horiz-adv-x="528" 
d="M240 1180l143 268l123 -66l-178 -202h-88zM98 0v1081h416v-118h-289v-963h-127z" />
    <glyph glyph-name="uni0454" unicode="&#x454;" horiz-adv-x="610" 
d="M500 602v-115h-312q4 -201 68.5 -291t167.5 -90q79 0 137 44v-130q-67 -36 -149 -36q-156 0 -253.5 134t-97.5 404v33q0 134 29 239.5t78.5 170t113 98t136.5 33.5q83 0 143 -31v-133q-67 43 -137 43q-95 0 -162 -94t-74 -279h312z" />
    <glyph glyph-name="uni0455" unicode="&#x455;" horiz-adv-x="573" 
d="M264 -14q-106 0 -217 51v129q125 -64 215 -64q63 0 104.5 38.5t41.5 103.5v2q0 52 -34.5 108t-123.5 140q-112 104 -158.5 181.5t-46.5 162.5v4q0 115 75.5 184.5t186.5 69.5q98 0 178 -35v-129q-86 45 -178 45q-61 0 -99 -35t-38 -96v-2q0 -49 34 -101.5t126 -140.5
q113 -113 157.5 -188.5t44.5 -161.5v-4q0 -118 -78.5 -190t-189.5 -72z" />
    <glyph glyph-name="uni0456" unicode="&#x456;" horiz-adv-x="342" 
d="M104 1278v168h136v-168h-136zM106 0v1081h130v-1081h-130z" />
    <glyph glyph-name="uni0457" unicode="&#x457;" horiz-adv-x="342" 
d="M225 1196v160h127v-160h-127zM-4 1196v160h127v-160h-127zM106 0v1081h130v-1081h-130z" />
    <glyph glyph-name="uni0458" unicode="&#x458;" horiz-adv-x="342" 
d="M104 1278v168h136v-168h-136zM16 -270q-46 0 -67 8v110q14 -6 43 -6q64 0 89 42t25 122v1075h130v-1104q0 -111 -54 -179t-166 -68z" />
    <glyph glyph-name="uni0459" unicode="&#x459;" horiz-adv-x="1058" 
d="M483 0v973h-6l-334 -973h-125l375 1081h217v-350h23q181 0 285 -92t104 -266v-4q0 -172 -107 -270.5t-297 -98.5h-135zM610 113h31q117 0 185.5 67.5t68.5 184.5v4q0 121 -69 185t-185 64h-31v-505z" />
    <glyph glyph-name="uni045A" unicode="&#x45a;" horiz-adv-x="1114" 
d="M668 1081v-350h20q181 0 285 -92t104 -266v-4q0 -172 -106.5 -270.5t-296.5 -98.5h-135v487h-314v-487h-127v1081h127v-475h314v475h129zM668 618v-505h28q117 0 185.5 67.5t68.5 184.5v4q0 122 -68 185.5t-186 63.5h-28z" />
    <glyph glyph-name="uni045B" unicode="&#x45b;" horiz-adv-x="741" 
d="M477 1157h-252v-272q98 16 152 16q144 0 213 -66t69 -212v-623h-127v610q0 92 -37 131t-130 39q-86 0 -140 -16v-764h-127v1157h-155v109h155v180h127v-180h252v-109z" />
    <glyph glyph-name="uni045C" unicode="&#x45c;" horiz-adv-x="704" 
d="M307 1171l144 269l122 -66l-178 -203h-88zM225 1081v-479h94l197 479h139l-227 -532l244 -549h-142l-208 483h-97v-483h-127v1081h127z" />
    <glyph glyph-name="uni045D" unicode="&#x45d;" horiz-adv-x="770" 
d="M352 1171l-178 203l123 66l141 -269h-86zM98 0v1081h125v-798l320 798h131v-1081h-127v813l-324 -813h-125z" />
    <glyph glyph-name="uni045E" unicode="&#x45e;" horiz-adv-x="716" 
d="M358 238l187 843h127l-320 -1347h-125v2l70 282l-252 1063h129zM360 1171q-86 0 -140 51t-64 156h92q21 -108 112 -108q92 0 113 108h92q-10 -105 -64.5 -156t-140.5 -51z" />
    <glyph glyph-name="uni045F" unicode="&#x45f;" horiz-adv-x="772" 
d="M330 -209v209h-232v1081h127v-962h322v962h129v-1081h-230v-209h-116z" />
    <glyph glyph-name="uni0462" unicode="&#x462;" horiz-adv-x="884" 
d="M373 1460v-237h252v-117h-252v-268h55q193 0 306.5 -111t113.5 -301v-4q0 -191 -116 -306.5t-318 -115.5h-176v1106h-211v117h211v237h135zM373 123h67q129 0 202 79t73 218v4q0 135 -75.5 214t-203.5 79h-63v-594z" />
    <glyph glyph-name="uni0463" unicode="&#x463;" horiz-adv-x="792" 
d="M600 971h-262v-248h27q182 0 286.5 -92t104.5 -262v-7q0 -168 -107.5 -265t-298.5 -97h-139v971h-188v110h188v365h127v-365h262v-110zM338 612v-501h37q118 0 186 66.5t68 182.5v5q0 121 -69 184t-185 63h-37z" />
    <glyph glyph-name="uni0472" unicode="&#x472;" horiz-adv-x="831" 
d="M416 -18q-155 0 -251.5 184.5t-96.5 527.5v45q0 343 96.5 528t251.5 185t251.5 -185t96.5 -528v-45q0 -343 -96.5 -527.5t-251.5 -184.5zM416 102q95 0 155 141.5t64 418.5h-436q4 -278 62.5 -419t154.5 -141zM416 1331q-95 0 -154 -139.5t-63 -411.5h436q-4 271 -64 411
t-155 140z" />
    <glyph glyph-name="uni0473" unicode="&#x473;" horiz-adv-x="743" 
d="M371 -18q-132 0 -221 146.5t-89 395.5v31q0 249 90 396t222 147q133 0 221 -146.5t88 -396.5v-31q0 -249 -89 -395.5t-222 -146.5zM371 96q80 0 133 105.5t57 290.5h-379q4 -185 56.5 -290.5t132.5 -105.5zM371 985q-77 0 -130 -102.5t-59 -282.5h377q-6 180 -58.5 282.5
t-129.5 102.5z" />
    <glyph glyph-name="uni0474" unicode="&#x474;" horiz-adv-x="851" 
d="M328 -8l-285 1442h137l219 -1182l146 774q20 106 41 178t44.5 119t55.5 71.5t66.5 34t85.5 9.5h4v-121h-2q-44 0 -67.5 -18t-48.5 -86t-54 -214l-207 -1007h-135z" />
    <glyph glyph-name="uni0475" unicode="&#x475;" horiz-adv-x="739" 
d="M297 -6l-252 1087h129l182 -870l123 565q27 127 61 194.5t76 91t109 23.5h8v-112h-2q-35 0 -56 -15.5t-40 -62t-41 -139.5l-176 -762h-121z" />
    <glyph glyph-name="uni0490" unicode="&#x490;" horiz-adv-x="589" 
d="M104 0v1434h347v211h120v-336h-333v-1309h-134z" />
    <glyph glyph-name="uni0491" unicode="&#x491;" horiz-adv-x="528" 
d="M98 0v1081h299v193h117v-311h-289v-963h-127z" />
    <glyph glyph-name="uni0492" unicode="&#x492;" horiz-adv-x="604" 
d="M117 0v649h-103v105h103v680h467v-125h-334v-555h166v-105h-166v-649h-133z" />
    <glyph glyph-name="uni0493" unicode="&#x493;" horiz-adv-x="548" 
d="M117 0v469h-92v100h92v512h415v-118h-288v-394h141v-100h-141v-469h-127z" />
    <glyph glyph-name="uni0496" unicode="&#x496;" horiz-adv-x="1245" 
d="M1151 1434l-283 -707l258 -602h103v-354h-125v229h-72l-280 664h-90l2 -664h-134l2 664h-96l-278 -664h-144l308 727l-281 707h147l250 -650h94l-2 650h134l-2 -650h92l252 650h145z" />
    <glyph glyph-name="uni0497" unicode="&#x497;" horiz-adv-x="1097" 
d="M598 1081l-2 -479h94l193 479h137l-223 -534l186 -430h100v-326h-116v209h-70l-207 485h-94l2 -485h-127l4 485h-94l-209 -485h-137l239 541l-225 540h141l189 -479h94l-2 479h127z" />
    <glyph glyph-name="uni0498" unicode="&#x498;" horiz-adv-x="688" 
d="M246 -229v215q-108 3 -180 45v137q92 -55 192 -55q112 0 173 70.5t61 201.5v4q0 273 -271 273h-61v120h61q121 0 193.5 75.5t72.5 219.5v6q0 116 -52 178t-150 62q-102 0 -207 -59v133q94 51 217 51q156 0 239.5 -94t83.5 -258v-6q0 -259 -227 -361q112 -36 173 -123.5
t61 -220.5v-6q0 -149 -67 -248.5t-189 -130.5l2 -229h-125z" />
    <glyph glyph-name="uni0499" unicode="&#x499;" horiz-adv-x="593" 
d="M45 18v129q96 -47 178 -47q87 0 136 49.5t49 139.5v6q0 93 -54.5 142.5t-158.5 49.5h-70v115h70q95 0 150.5 52t55.5 147v4q0 83 -41 128.5t-120 45.5q-87 0 -181 -51v125q91 45 193 45q130 0 202 -74.5t72 -204.5v-6q0 -105 -54.5 -172t-131.5 -92q192 -57 192 -260v-10
q0 -107 -54.5 -183t-153.5 -102l4 -203h-117l2 191q-95 3 -168 36z" />
    <glyph glyph-name="uni049A" unicode="&#x49a;" horiz-adv-x="829" 
d="M731 1434l-289 -705l267 -604h104v-354h-125v229h-72l-288 664h-90v-664h-134v1434h134v-650h92l256 650h145z" />
    <glyph glyph-name="uni049B" unicode="&#x49b;" horiz-adv-x="733" 
d="M225 1081v-479h94l197 479h139l-227 -532l193 -432h98v-326h-117v209h-72l-208 483h-97v-483h-127v1081h127z" />
    <glyph glyph-name="uni049C" unicode="&#x49c;" horiz-adv-x="864" 
d="M449 1208l-5 -422l236 648h139l-268 -701l299 -733h-137l-269 659l5 -409h-91v414h-122v-664h-132v1434h132v-650h122v424h91z" />
    <glyph glyph-name="uni049D" unicode="&#x49d;" horiz-adv-x="788" 
d="M750 0h-136l-192 487h-4l4 -337h-82v337h-115v-487h-127v1081h127v-481h115v356h82l-4 -356h6l176 481h133l-209 -534z" />
    <glyph glyph-name="uni04A0" unicode="&#x4a0;" horiz-adv-x="913" 
d="M27 1311v123h346v-650h92l256 650h145l-288 -705l321 -729h-147l-289 664h-90v-664h-133v1311h-213z" />
    <glyph glyph-name="uni04A1" unicode="&#x4a1;" horiz-adv-x="817" 
d="M23 965v116h315v-479h94l197 479h139l-227 -532l243 -549h-141l-209 483h-96v-483h-127v965h-188z" />
    <glyph glyph-name="uni04A2" unicode="&#x4a2;" horiz-adv-x="884" 
d="M729 -229v229h-111v659h-380v-659h-134v1434h134v-652h380v652h134v-1309h102v-354h-125z" />
    <glyph glyph-name="uni04A3" unicode="&#x4a3;" horiz-adv-x="794" 
d="M653 -209v209h-106v487h-322v-487h-127v1081h127v-475h322v475h129v-964h94v-326h-117z" />
    <glyph glyph-name="uni04A4" unicode="&#x4a4;" horiz-adv-x="1058" 
d="M606 0v659h-368v-659h-134v1434h134v-652h368v652h432v-125h-299v-1309h-133z" />
    <glyph glyph-name="uni04A5" unicode="&#x4a5;" horiz-adv-x="954" 
d="M225 1081v-475h314v475h401v-118h-272v-963h-129v487h-314v-487h-127v1081h127z" />
    <glyph glyph-name="uni04AA" unicode="&#x4aa;" horiz-adv-x="677" 
d="M346 -229l2 235q-129 52 -204.5 226t-75.5 464v41q0 176 31.5 314t86 222.5t124.5 128.5t151 44q75 0 147 -35v-139q-80 45 -139 45q-117 0 -191.5 -148.5t-74.5 -431.5v-41q0 -287 74.5 -433t191.5 -146q69 0 143 47v-133q-61 -40 -143 -43l2 -217h-125z" />
    <glyph glyph-name="uni04AB" unicode="&#x4ab;" horiz-adv-x="577" 
d="M293 -209l2 209q-106 44 -170 174.5t-64 347.5v33q0 133 27.5 238.5t74.5 170.5t105.5 98.5t124.5 33.5q82 0 135 -35v-135q-59 47 -129 47q-84 0 -146.5 -106t-62.5 -308v-41q0 -208 62.5 -310t155.5 -102q57 0 120 50v-129q-52 -37 -122 -43l4 -193h-117z" />
    <glyph glyph-name="uni04AE" unicode="&#x4ae;" 
d="M303 0v604l-291 830h142l217 -658l219 658h135l-289 -830v-604h-133z" />
    <glyph glyph-name="uni04AF" unicode="&#x4af;" horiz-adv-x="720" 
d="M424 -266h-127v293l-252 1054h129l186 -854l189 854h125l-250 -1052v-295z" />
    <glyph glyph-name="uni04B0" unicode="&#x4b0;" 
d="M303 0v518h-184v105h178l-285 811h142l217 -658l219 658h135l-283 -811h176v-105h-182v-518h-133z" />
    <glyph glyph-name="uni04B1" unicode="&#x4b1;" horiz-adv-x="720" 
d="M360 227l189 854h125l-234 -983h152v-98h-168v-266h-127v266h-168v98h152l-236 983h129z" />
    <glyph glyph-name="uni04B2" unicode="&#x4b2;" horiz-adv-x="788" 
d="M578 0l-205 612l-203 -612h-135l260 752l-240 682h140l178 -543l182 543h135l-237 -680l219 -629h100v-354h-125v229h-69z" />
    <glyph glyph-name="uni04B3" unicode="&#x4b3;" horiz-adv-x="710" 
d="M186 1081l158 -417l160 417h131l-215 -520l182 -444h94v-326h-116v209h-66l-172 455l-172 -455h-133l227 559l-213 522h135z" />
    <glyph glyph-name="uni04B6" unicode="&#x4b6;" horiz-adv-x="841" 
d="M573 0v561q-84 -20 -180 -20q-160 0 -234.5 78.5t-74.5 248.5v566h133v-553q0 -118 42 -166.5t155 -48.5q80 0 159 20v748h134v-1309h102v-354h-125v229h-111z" />
    <glyph glyph-name="uni04B7" unicode="&#x4b7;" horiz-adv-x="755" 
d="M508 0v414q-92 -15 -150 -15q-143 0 -211.5 65.5t-68.5 211.5v405h129v-393q0 -92 37 -131t129 -39q48 0 135 17v546h129v-964h94v-326h-117v209h-106z" />
    <glyph glyph-name="uni04B8" unicode="&#x4b8;" horiz-adv-x="825" 
d="M590 0v559q-70 -15 -144 -18l3 -320h-91l2 322q-147 10 -211.5 86.5t-64.5 236.5v568h133v-557q0 -104 30 -150.5t113 -56.5l-2 420h91l-3 -424q62 3 144 20v748h131v-1434h-131z" />
    <glyph glyph-name="uni04B9" unicode="&#x4b9;" horiz-adv-x="751" 
d="M410 145h-84l2 254q-142 7 -196 73t-54 204v405h129v-397q0 -83 24.5 -120t98.5 -44l-4 373h84l-2 -375q41 2 118 17v546h129v-1081h-129v414q-76 -13 -118 -15z" />
    <glyph glyph-name="uni04BA" unicode="&#x4ba;" horiz-adv-x="811" 
d="M238 1434v-562q89 21 180 21q160 0 234.5 -79t74.5 -249v-565h-133v553q0 116 -42.5 165.5t-154.5 49.5q-80 0 -159 -20v-748h-134v1434h134z" />
    <glyph glyph-name="uni04BB" unicode="&#x4bb;" horiz-adv-x="765" 
d="M98 0v1446h127v-516q74 170 215 170q109 0 172.5 -86.5t63.5 -239.5v-774h-127v752q0 114 -39.5 174.5t-112.5 60.5t-122.5 -69t-49.5 -179v-739h-127z" />
    <glyph glyph-name="uni04C0" unicode="&#x4c0;" horiz-adv-x="364" 
d="M115 0v1434h133v-1434h-133z" />
    <glyph glyph-name="uni04C1" unicode="&#x4c1;" horiz-adv-x="1191" 
d="M594 1513q-87 0 -141 45.5t-64 135.5h94q21 -80 111 -80t111 80h94q-10 -90 -64 -135.5t-141 -45.5zM41 1434h147l250 -650h94l-2 650h134l-2 -650h92l252 650h145l-283 -707l312 -727h-148l-280 664h-90l2 -664h-134l2 664h-96l-278 -664h-144l308 727z" />
    <glyph glyph-name="uni04C2" unicode="&#x4c2;" horiz-adv-x="1071" 
d="M598 1081l-2 -479h94l193 479h137l-223 -534l237 -547h-137l-207 485h-94l2 -485h-127l4 485h-94l-209 -485h-137l239 541l-225 540h141l189 -479h94l-2 479h127zM535 1180q-86 0 -140.5 50.5t-64.5 155.5h92q21 -108 113 -108q91 0 112 108h92q-10 -105 -64 -155.5
t-140 -50.5z" />
    <glyph glyph-name="uni04CF" unicode="&#x4cf;" horiz-adv-x="342" 
d="M106 0v1446h130v-1446h-130z" />
    <glyph glyph-name="uni04D0" unicode="&#x4d0;" horiz-adv-x="833" 
d="M43 0l301 1440h143l304 -1440h-136l-75 371h-332l-74 -371h-131zM268 492h291l-145 720zM420 1524q-87 0 -141 45t-64 135h94q21 -80 111 -80q89 0 110 80h95q-10 -90 -64 -135t-141 -45z" />
    <glyph glyph-name="uni04D1" unicode="&#x4d1;" horiz-adv-x="708" 
d="M285 -18q-104 0 -170 93t-66 236v21q0 161 72.5 253.5t200.5 92.5q85 0 172 -41v117q0 106 -48.5 162.5t-144.5 56.5q-104 0 -195 -49v123q100 47 209 47q139 0 222 -80q84 -84 84 -248v-766h-129v145q-67 -163 -207 -163zM322 92q76 0 124 68.5t48 163.5v206
q-80 39 -150 39q-83 0 -126.5 -61t-43.5 -168v-21q0 -105 38.5 -166t109.5 -61zM354 1182q-86 0 -140 51t-64 156h92q21 -109 112 -109q92 0 113 109h92q-10 -105 -64.5 -156t-140.5 -51z" />
    <glyph glyph-name="uni04D2" unicode="&#x4d2;" horiz-adv-x="833" 
d="M43 0l301 1440h143l304 -1440h-136l-75 371h-332l-74 -371h-131zM268 492h291l-145 720zM471 1540v154h135v-154h-135zM233 1540v154h136v-154h-136z" />
    <glyph glyph-name="uni04D3" unicode="&#x4d3;" horiz-adv-x="708" 
d="M285 -18q-104 0 -170 93t-66 236v21q0 161 72.5 253.5t200.5 92.5q85 0 172 -41v117q0 106 -48.5 162.5t-144.5 56.5q-104 0 -195 -49v123q100 47 209 47q139 0 222 -80q84 -84 84 -248v-766h-129v145q-67 -163 -207 -163zM322 92q76 0 124 68.5t48 163.5v206
q-80 39 -150 39q-83 0 -126.5 -61t-43.5 -168v-21q0 -105 38.5 -166t109.5 -61zM406 1198v160h126v-160h-126zM176 1198v160h127v-160h-127z" />
    <glyph glyph-name="uni04D4" unicode="&#x4d4;" horiz-adv-x="1071" 
d="M8 0l395 1434h609v-125h-371v-525h336v-125h-336v-534h377v-125h-510v371h-270l-101 -371h-129zM268 492h240v813h-21z" />
    <glyph glyph-name="uni04D5" unicode="&#x4d5;" horiz-adv-x="1136" 
d="M293 -18q-110 0 -177 91t-67 238v21q0 161 72.5 253.5t200.5 92.5q85 0 172 -41v117q0 106 -48.5 162.5t-144.5 56.5q-101 0 -195 -49v123q96 47 211 47q193 0 254 -166q36 83 92 126.5t123 43.5q131 0 210 -140t79 -393v-82h-465q4 -185 71.5 -282t168.5 -97
q49 0 90 15.5t98 52.5l13 -123q-62 -37 -107.5 -51t-109.5 -14q-96 0 -172 59t-119 174q-32 -104 -95 -169.5t-155 -65.5zM610 590h344q0 174 -46.5 282.5t-121.5 108.5t-123.5 -100t-52.5 -291zM324 92q67 0 117.5 68t72.5 168q-20 99 -16 204q-88 37 -154 37
q-83 0 -126.5 -61t-43.5 -168v-21q0 -104 39.5 -165.5t110.5 -61.5z" />
    <glyph glyph-name="uni04D6" unicode="&#x4d6;" horiz-adv-x="667" 
d="M362 1513q-87 0 -140.5 45.5t-63.5 135.5h94q21 -80 110 -80q90 0 111 80h94q-10 -90 -64 -135.5t-141 -45.5zM104 0v1434h504v-125h-370v-525h335v-125h-335v-534h376v-125h-510z" />
    <glyph glyph-name="uni04D7" unicode="&#x4d7;" horiz-adv-x="714" 
d="M410 -16q-148 0 -249.5 140.5t-101.5 393.5v29q0 263 88 407t218 144t209 -140t79 -393v-82h-467q6 -187 73 -283t169 -96q49 0 90 15.5t98 52.5l13 -123q-62 -36 -108.5 -50.5t-110.5 -14.5zM186 590h344q0 173 -46 282t-119 109q-77 0 -126 -100t-53 -291zM367 1182
q-86 0 -140.5 51t-64.5 156h92q21 -109 113 -109q91 0 112 109h92q-10 -105 -64 -156t-140 -51z" />
    <glyph glyph-name="uni04D8" unicode="&#x4d8;" horiz-adv-x="800" 
d="M123 1247l-12 129q116 76 227 76q183 0 288 -180.5t105 -523.5v-37q0 -359 -90 -544t-244 -185q-152 0 -235.5 179t-83.5 531v96h520q-4 271 -76 403t-194 132q-95 0 -205 -76zM399 104q89 0 143.5 145t55.5 423h-389q-1 -281 48 -424.5t142 -143.5z" />
    <glyph glyph-name="uni04D9" unicode="&#x4d9;" horiz-adv-x="714" 
d="M303 1096q148 0 250 -141t102 -394v-26q0 -265 -87.5 -409t-217.5 -144q-131 0 -210 140t-79 394v80h465q-4 185 -71 282t-168 97q-49 0 -91 -15.5t-98 -52.5l-12 125q62 36 107.5 50t109.5 14zM528 489h-344q0 -173 46 -282t120 -109q75 0 123.5 100.5t54.5 290.5z" />
    <glyph glyph-name="uni04DC" unicode="&#x4dc;" horiz-adv-x="1191" 
d="M645 1530v153h135v-153h-135zM408 1530v153h135v-153h-135zM41 1434h147l250 -650h94l-2 650h134l-2 -650h92l252 650h145l-283 -707l312 -727h-148l-280 664h-90l2 -664h-134l2 664h-96l-278 -664h-144l308 727z" />
    <glyph glyph-name="uni04DD" unicode="&#x4dd;" horiz-adv-x="1071" 
d="M586 1196v160h127v-160h-127zM356 1196v160h127v-160h-127zM598 1081l-2 -479h94l193 479h137l-223 -534l237 -547h-137l-207 485h-94l2 -485h-127l4 485h-94l-209 -485h-137l239 541l-225 540h141l189 -479h94l-2 479h127z" />
    <glyph glyph-name="uni04DE" unicode="&#x4de;" horiz-adv-x="688" 
d="M375 1540v154h135v-154h-135zM137 1540v154h135v-154h-135zM78 1264v133q94 51 217 51q156 0 239.5 -94t83.5 -258v-6q0 -259 -227 -361q112 -36 173 -123.5t61 -220.5v-6q0 -180 -96.5 -286.5t-266.5 -106.5q-118 0 -196 45v137q92 -55 192 -55q112 0 173 70.5t61 201.5
v4q0 273 -271 273h-61v120h61q121 0 193.5 75.5t72.5 219.5v6q0 116 -52 178t-150 62q-102 0 -207 -59z" />
    <glyph glyph-name="uni04DF" unicode="&#x4df;" horiz-adv-x="593" 
d="M330 1198v160h127v-160h-127zM100 1198v160h127v-160h-127zM45 18v129q96 -47 178 -47q87 0 136 49.5t49 139.5v6q0 93 -54.5 142.5t-158.5 49.5h-70v115h70q95 0 150.5 52t55.5 147v4q0 83 -41 128.5t-120 45.5q-87 0 -181 -51v125q91 45 193 45q130 0 202 -74.5
t72 -204.5v-6q0 -105 -54.5 -172t-131.5 -92q192 -57 192 -260v-10q0 -133 -80 -215t-223 -82q-98 0 -184 36z" />
    <glyph glyph-name="uni04E2" unicode="&#x4e2;" horiz-adv-x="864" 
d="M225 1524v104h422v-104h-422zM762 0h-131v1139l-389 -1139h-138v1434h129v-1108l379 1108h150v-1434z" />
    <glyph glyph-name="uni04E3" unicode="&#x4e3;" horiz-adv-x="770" 
d="M188 1190v102h398v-102h-398zM98 0v1081h125v-798l320 798h131v-1081h-127v813l-324 -813h-125z" />
    <glyph glyph-name="uni04E4" unicode="&#x4e4;" horiz-adv-x="864" 
d="M487 1522v153h136v-153h-136zM250 1522v153h135v-153h-135zM762 0h-131v1139l-389 -1139h-138v1434h129v-1108l379 1108h150v-1434z" />
    <glyph glyph-name="uni04E5" unicode="&#x4e5;" horiz-adv-x="770" 
d="M438 1188v160h127v-160h-127zM209 1188v160h127v-160h-127zM98 0v1081h125v-798l320 798h131v-1081h-127v813l-324 -813h-125z" />
    <glyph glyph-name="uni04E6" unicode="&#x4e6;" horiz-adv-x="839" 
d="M473 1540v154h135v-154h-135zM236 1540v154h135v-154h-135zM420 -18q-158 0 -255 184t-97 528v45q0 344 97 528.5t255 184.5t254 -184.5t96 -528.5v-45q0 -344 -96 -528t-254 -184zM420 104q97 0 157 150t60 440v45q0 290 -60 440t-157 150t-157 -150t-60 -440v-45
q0 -290 60 -440t157 -150z" />
    <glyph glyph-name="uni04E7" unicode="&#x4e7;" horiz-adv-x="749" 
d="M430 1198v160h127v-160h-127zM201 1198v160h127v-160h-127zM375 -18q-134 0 -224 146.5t-90 395.5v31q0 249 90.5 396t225.5 147q134 0 223.5 -147t89.5 -396v-31q0 -248 -91 -395t-224 -147zM375 98q80 0 133 117t53 309v33q0 193 -53 308.5t-133 115.5t-133.5 -115.5
t-53.5 -308.5v-33q0 -192 53.5 -309t133.5 -117z" />
    <glyph glyph-name="uni04E8" unicode="&#x4e8;" horiz-adv-x="831" 
d="M416 -18q-155 0 -251.5 184.5t-96.5 527.5v45q0 343 96.5 528t251.5 185t251.5 -185t96.5 -528v-45q0 -343 -96.5 -527.5t-251.5 -184.5zM416 102q95 0 155 141.5t64 418.5h-436q4 -278 62.5 -419t154.5 -141zM416 1331q-95 0 -154 -139.5t-63 -411.5h436q-4 271 -64 411
t-155 140z" />
    <glyph glyph-name="uni04E9" unicode="&#x4e9;" horiz-adv-x="743" 
d="M371 -18q-132 0 -221 146.5t-89 395.5v31q0 249 90 396t222 147q133 0 221 -146.5t88 -396.5v-31q0 -249 -89 -395.5t-222 -146.5zM371 96q80 0 133 105.5t57 290.5h-379q4 -185 56.5 -290.5t132.5 -105.5zM371 985q-77 0 -130 -102.5t-59 -282.5h377q-6 180 -58.5 282.5
t-129.5 102.5z" />
    <glyph glyph-name="uni04EE" unicode="&#x4ee;" horiz-adv-x="745" 
d="M174 1524v104h422v-104h-422zM334 0h-135l125 444l-301 990h137l231 -797l207 797h135z" />
    <glyph glyph-name="uni04EF" unicode="&#x4ef;" horiz-adv-x="716" 
d="M358 238l187 843h127l-320 -1347h-125v2l70 282l-252 1063h129zM162 1190v102h397v-102h-397z" />
    <glyph glyph-name="uni04F0" unicode="&#x4f0;" horiz-adv-x="745" 
d="M436 1522v153h135v-153h-135zM199 1522v153h135v-153h-135zM334 0h-135l125 444l-301 990h137l231 -797l207 797h135z" />
    <glyph glyph-name="uni04F1" unicode="&#x4f1;" horiz-adv-x="716" 
d="M358 238l187 843h127l-320 -1347h-125v2l70 282l-252 1063h129zM412 1188v160h127v-160h-127zM182 1188v160h127v-160h-127z" />
    <glyph glyph-name="uni04F2" unicode="&#x4f2;" horiz-adv-x="745" 
d="M334 0h-135l125 444l-301 990h137l231 -797l207 797h135zM227 1505l142 226l116 -60l-166 -166h-92zM428 1505l139 226l119 -60l-168 -166h-90z" />
    <glyph glyph-name="uni04F3" unicode="&#x4f3;" horiz-adv-x="716" 
d="M358 238l187 843h127l-320 -1347h-125v2l70 282l-252 1063h129zM403 1171l144 269l112 -62l-170 -207h-86zM203 1171l143 269l111 -62l-170 -207h-84z" />
    <glyph glyph-name="uni04F4" unicode="&#x4f4;" horiz-adv-x="811" 
d="M573 0v561q-84 -20 -180 -20q-160 0 -234.5 78.5t-74.5 248.5v566h133v-553q0 -118 42 -166.5t155 -48.5q80 0 159 20v748h134v-1434h-134zM449 1522v153h135v-153h-135zM211 1522v153h135v-153h-135z" />
    <glyph glyph-name="uni04F5" unicode="&#x4f5;" horiz-adv-x="733" 
d="M412 1188v160h127v-160h-127zM182 1188v160h127v-160h-127zM508 0v414q-92 -15 -150 -15q-143 0 -211.5 65.5t-68.5 211.5v405h129v-393q0 -92 37 -131t129 -39q48 0 135 17v546h129v-1081h-129z" />
    <glyph glyph-name="uni04F8" unicode="&#x4f8;" horiz-adv-x="1087" 
d="M104 0v1434h134v-519h57q196 0 310 -120t114 -330v-4q0 -216 -114 -338.5t-322 -122.5h-179zM238 123h63q135 2 210 88.5t75 245.5v4q0 159 -77 245.5t-208 86.5h-63v-670zM850 0v1434h133v-1434h-133zM594 1526v153h135v-153h-135zM356 1526v153h136v-153h-136z" />
    <glyph glyph-name="uni04F9" unicode="&#x4f9;" horiz-adv-x="987" 
d="M549 1192v160h127v-160h-127zM319 1192v160h127v-160h-127zM225 1081v-350h29q178 0 283.5 -92t105.5 -266v-4q0 -172 -106.5 -270.5t-296.5 -98.5h-142v1081h127zM225 618v-505h37q117 0 185.5 67.5t68.5 184.5v4q0 122 -68 185.5t-186 63.5h-37zM762 0v1081h129v-1081
h-129z" />
    <glyph glyph-name="baht" unicode="&#xe3f;" horiz-adv-x="774" 
d="M330 -248h-99l27 248h-2h-152v1434h183q53 0 110 -13l21 183h96l-22 -211q95 -42 147.5 -124t52.5 -196v-6q0 -260 -254 -340q267 -73 267 -342v-6q0 -156 -92 -252t-255 -121zM571 385v6q0 190 -161 250l-45 -508q99 20 152.5 84.5t53.5 167.5zM236 782h32q38 0 76 6
l43 510q-47 13 -94 13h-57v-529zM236 123h28h10l45 539q-7 0 -22.5 1t-22.5 1h-38v-541zM561 1055v4q0 127 -86 194l-39 -434q125 70 125 236z" />
    <glyph glyph-name="Wgrave" unicode="&#x1e80;" horiz-adv-x="1241" 
d="M674 1513h-96l-172 164l126 62zM287 -8l-240 1442h139l170 -1151l205 1151h123l203 -1151l172 1151h135l-240 -1442h-133l-200 1143l-203 -1143h-131z" />
    <glyph glyph-name="wgrave" unicode="&#x1e81;" horiz-adv-x="1087" 
d="M268 -6l-215 1087h133l148 -852l160 852h106l156 -852l151 852h127l-213 -1087h-119l-159 827l-156 -827h-119zM512 1180l-178 202l123 66l141 -268h-86z" />
    <glyph glyph-name="Wacute" unicode="&#x1e82;" horiz-adv-x="1241" 
d="M563 1513l142 226l126 -62l-172 -164h-96zM287 -8l-240 1442h139l170 -1151l205 1151h123l203 -1151l172 1151h135l-240 -1442h-133l-200 1143l-203 -1143h-131z" />
    <glyph glyph-name="wacute" unicode="&#x1e83;" horiz-adv-x="1087" 
d="M489 1180l144 268l123 -66l-178 -202h-89zM268 -6l-215 1087h133l148 -852l160 852h106l156 -852l151 852h127l-213 -1087h-119l-159 827l-156 -827h-119z" />
    <glyph glyph-name="Wdieresis" unicode="&#x1e84;" horiz-adv-x="1241" 
d="M670 1530v153h135v-153h-135zM432 1530v153h135v-153h-135zM287 -8l-240 1442h139l170 -1151l205 1151h123l203 -1151l172 1151h135l-240 -1442h-133l-200 1143l-203 -1143h-131z" />
    <glyph glyph-name="wdieresis" unicode="&#x1e85;" horiz-adv-x="1087" 
d="M594 1196v160h127v-160h-127zM365 1196v160h127v-160h-127zM268 -6l-215 1087h133l148 -852l160 852h106l156 -852l151 852h127l-213 -1087h-119l-159 827l-156 -827h-119z" />
    <glyph glyph-name="Ygrave" unicode="&#x1ef2;" 
d="M303 0v604l-291 830h142l217 -658l219 658h135l-289 -830v-604h-133zM428 1505h-96l-172 164l127 62z" />
    <glyph glyph-name="ygrave" unicode="&#x1ef3;" horiz-adv-x="716" 
d="M358 238l187 843h127l-320 -1347h-125v2l70 282l-252 1063h129zM326 1171l-179 203l123 66l142 -269h-86z" />
    <glyph glyph-name="enspace" unicode="&#x2002;" horiz-adv-x="1024" 
 />
    <glyph glyph-name="emspace" unicode="&#x2003;" horiz-adv-x="2048" 
 />
    <glyph glyph-name="threeperemspace" unicode="&#x2004;" horiz-adv-x="681" 
 />
    <glyph glyph-name="fourperemspace" unicode="&#x2005;" horiz-adv-x="512" 
 />
    <glyph glyph-name="figurespace" unicode="&#x2007;" 
 />
    <glyph glyph-name="thinspace" unicode="&#x2009;" horiz-adv-x="223" 
 />
    <glyph glyph-name="hairspace" unicode="&#x200a;" horiz-adv-x="116" 
 />
    <glyph glyph-name="endash" unicode="&#x2013;" horiz-adv-x="847" 
d="M82 551v125h684v-125h-684z" />
    <glyph glyph-name="emdash" unicode="&#x2014;" horiz-adv-x="1236" 
d="M82 551v125h1073v-125h-1073z" />
    <glyph glyph-name="quoteleft" unicode="&#x2018;" horiz-adv-x="348" 
d="M84 989v174q0 115 45 177t150 98l22 -66q-134 -48 -121 -178h74v-205h-170z" />
    <glyph glyph-name="quoteright" unicode="&#x2019;" horiz-adv-x="348" 
d="M70 991l-23 64q133 47 123 180h-76v199h170v-170q0 -112 -44.5 -175t-149.5 -98z" />
    <glyph glyph-name="quotesinglbase" unicode="&#x201a;" horiz-adv-x="344" 
d="M63 -244l-24 66q136 45 123 178h-74v199h168v-168q0 -115 -44 -177.5t-149 -97.5z" />
    <glyph glyph-name="quotedblleft" unicode="&#x201c;" horiz-adv-x="647" 
d="M385 989v174q0 115 44 177.5t149 97.5l24 -66q-136 -48 -123 -178h74v-205h-168zM84 989v174q0 115 45 177t150 98l22 -66q-134 -48 -121 -178h74v-205h-170z" />
    <glyph glyph-name="quotedblright" unicode="&#x201d;" horiz-adv-x="647" 
d="M369 991l-23 64q133 47 123 180h-76v199h170v-170q0 -112 -44.5 -175t-149.5 -98zM70 991l-23 64q133 47 123 180h-76v199h170v-170q0 -112 -44.5 -175t-149.5 -98z" />
    <glyph glyph-name="quotedblbase" unicode="&#x201e;" horiz-adv-x="645" 
d="M362 -244l-22 66q133 45 123 178h-76v199h170v-168q0 -115 -45 -177t-150 -98zM63 -244l-24 66q136 45 123 178h-74v199h168v-168q0 -115 -44 -177.5t-149 -97.5z" />
    <glyph glyph-name="dagger" unicode="&#x2020;" horiz-adv-x="477" 
d="M186 487l19 584l-168 -20v108l168 -20l-25 295h119l-25 -295l166 20v-108l-166 20l19 -584h-107z" />
    <glyph glyph-name="daggerdbl" unicode="&#x2021;" horiz-adv-x="497" 
d="M188 0l27 295l-168 -21v109l168 -21l-22 355l22 354l-168 -20v108l168 -20l-25 295h119l-24 -295l166 20v-108l-166 20l22 -354l-22 -355l166 21v-109l-166 21l22 -295h-119z" />
    <glyph glyph-name="bullet" unicode="&#x2022;" horiz-adv-x="659" 
d="M330 477q-81 0 -132 60.5t-51 173.5v28q0 113 51 173.5t132 60.5q82 0 132 -60t50 -174v-28q0 -114 -50 -174t-132 -60z" />
    <glyph glyph-name="ellipsis" unicode="&#x2026;" horiz-adv-x="1112" 
d="M846 0v205h172v-205h-172zM469 0v205h172v-205h-172zM94 0v205h172v-205h-172z" />
    <glyph glyph-name="perthousand" unicode="&#x2030;" horiz-adv-x="1585" 
d="M270 844q52 0 83.5 61.5t31.5 175.5v23q0 114 -31.5 176.5t-83.5 62.5t-83 -62t-31 -177v-23q0 -114 31 -175.5t83 -61.5zM270 741q-95 0 -156 90t-61 250v23q0 160 61 250t156 90q94 0 154.5 -90.5t60.5 -249.5v-23q0 -159 -60.5 -249.5t-154.5 -90.5zM903 1434
l-334 -736l-315 -698h-94l334 735l315 699h94zM793 90q52 0 83 62.5t31 177.5v22q0 114 -31 176t-83 62t-83.5 -62t-31.5 -176v-22q0 -114 31.5 -177t83.5 -63zM793 -10q-94 0 -154.5 90.5t-60.5 249.5v22q0 159 60.5 249.5t154.5 90.5q95 0 155 -90t60 -250v-22
q0 -160 -60 -250t-155 -90zM1315 90q52 0 83.5 63t31.5 177v22q0 114 -31.5 176t-83.5 62q-53 0 -85 -62t-32 -176v-22q0 -114 32.5 -177t84.5 -63zM1315 -10q-95 0 -156 90t-61 250v22q0 160 61 250t156 90q94 0 154.5 -90.5t60.5 -249.5v-22q0 -159 -60.5 -249.5
t-154.5 -90.5z" />
    <glyph glyph-name="guilsinglleft" unicode="&#x2039;" horiz-adv-x="475" 
d="M322 88l-261 434v17l261 432l90 -51l-213 -388l215 -393z" />
    <glyph glyph-name="guilsinglright" unicode="&#x203a;" horiz-adv-x="475" 
d="M154 88l-91 51l213 389l-215 392l93 51l260 -432v-17z" />
    <glyph glyph-name="fraction" unicode="&#x2044;" horiz-adv-x="122" 
d="M-272 0l301 737l278 699h88l-301 -738l-280 -698h-86z" />
    <glyph glyph-name="zero.sup" unicode="&#x2070;" horiz-adv-x="491" 
d="M246 942q-99 0 -148 84.5t-49 267.5v21q0 184 48.5 269t148.5 85t148 -84t48 -268v-21q0 -183 -49 -268.5t-147 -85.5zM246 1583q-51 0 -76 -62.5t-25 -205.5v-17q0 -270 101 -270q100 0 100 268v17q0 143 -24.5 206.5t-75.5 63.5z" />
    <glyph glyph-name="four.sup" unicode="&#x2074;" horiz-adv-x="491" 
d="M391 1094v-144h-86v144h-266v73l235 498h117v-491h68v-80h-68zM307 1174v362h-10l-170 -362h180z" />
    <glyph glyph-name="five.sup" unicode="&#x2075;" horiz-adv-x="491" 
d="M215 942q-90 0 -147 45v98q64 -57 141 -57q63 0 95 40t32 106q0 68 -32.5 99.5t-86.5 31.5q-46 0 -90 -23l-59 27l24 352h309v-88h-231q0 -6 -8 -97t-8 -96q50 13 77 13q91 0 147 -55.5t56 -161.5q0 -107 -60.5 -170.5t-158.5 -63.5z" />
    <glyph glyph-name="six.sup" unicode="&#x2076;" horiz-adv-x="491" 
d="M248 942q-71 0 -119 45q-74 74 -74 270v27q0 201 63 293t173 92q59 0 102 -24l-2 -97q-44 33 -98 33q-63 0 -99 -56.5t-42 -162.5q56 45 118 45q73 0 122.5 -55.5t49.5 -169.5q0 -109 -54 -174.5t-140 -65.5zM250 1028q47 0 73.5 41t26.5 113t-27.5 106.5t-72.5 34.5
q-57 0 -98 -47v-47q0 -113 26 -157t72 -44z" />
    <glyph glyph-name="seven.sup" unicode="&#x2077;" horiz-adv-x="491" 
d="M199 950h-97l230 621h-275v90h373v-72z" />
    <glyph glyph-name="eight.sup" unicode="&#x2078;" horiz-adv-x="491" 
d="M246 942q-91 0 -145 53.5t-54 145.5q0 62 28.5 109t76.5 71q-40 24 -64.5 66.5t-24.5 95.5q0 89 52 137.5t131 48.5t130.5 -48.5t51.5 -137.5q0 -54 -24 -96t-64 -66q48 -24 76 -70.5t28 -107.5q0 -92 -53.5 -146.5t-144.5 -54.5zM246 1591q-43 0 -67.5 -29t-24.5 -83
t24.5 -86.5t67.5 -32.5t67.5 32.5t24.5 86.5t-24.5 83t-67.5 29zM246 1278q-47 0 -77 -36.5t-30 -96.5q0 -56 29 -90.5t78 -34.5t77.5 34.5t28.5 90.5q0 60 -29.5 96.5t-76.5 36.5z" />
    <glyph glyph-name="nine.sup" unicode="&#x2079;" horiz-adv-x="491" 
d="M248 1669q71 0 119 -45q73 -73 73 -268v-29q0 -201 -62.5 -293t-172.5 -92q-58 0 -115 31v94q55 -37 113 -37q63 0 99 54.5t42 154.5q-53 -45 -119 -45q-73 0 -122.5 56.5t-49.5 172.5q0 113 54.5 179.5t140.5 66.5zM246 1280q61 0 100 45v55q0 203 -100 203
q-47 0 -74 -41.5t-27 -116.5q0 -74 27.5 -109.5t73.5 -35.5z" />
    <glyph glyph-name="zero.inf" unicode="&#x2080;" horiz-adv-x="491" 
d="M246 -276q-99 0 -148 84.5t-49 267.5v20q0 184 48.5 269.5t148.5 85.5t148 -84.5t48 -268.5v-20q0 -183 -49 -268.5t-147 -85.5zM246 365q-51 0 -76 -63t-25 -206v-16q0 -270 101 -270q100 0 100 268v16q0 143 -24.5 207t-75.5 64z" />
    <glyph glyph-name="one.inf" unicode="&#x2081;" horiz-adv-x="399" 
d="M268 -268h-96v604l-129 -68v94l145 82h80v-712z" />
    <glyph glyph-name="two.inf" unicode="&#x2082;" horiz-adv-x="491" 
d="M51 -268v67l213 305q68 104 68 160q0 45 -29.5 70.5t-73.5 25.5q-80 0 -155 -86v105q72 72 168 72q81 0 133.5 -47.5t52.5 -131.5q0 -51 -19 -96t-61 -106l-170 -248h256v-90h-383z" />
    <glyph glyph-name="three.inf" unicode="&#x2083;" horiz-adv-x="491" 
d="M209 -276q-83 0 -148 49v98q61 -61 146 -61q56 0 92.5 31t36.5 93q0 124 -195 127h-2v66l170 225h-246v90h365v-67l-182 -238q84 -15 135 -64t51 -136q0 -100 -62 -156.5t-161 -56.5z" />
    <glyph glyph-name="four.inf" unicode="&#x2084;" horiz-adv-x="491" 
d="M391 -125v-143h-86v143h-266v74l235 497h117v-491h68v-80h-68zM307 -45v362h-10l-170 -362h180z" />
    <glyph glyph-name="five.inf" unicode="&#x2085;" horiz-adv-x="491" 
d="M215 -276q-90 0 -147 45v98q64 -57 141 -57q63 0 95 39.5t32 105.5q0 68 -32.5 99.5t-86.5 31.5q-46 0 -90 -23l-59 27l24 352h309v-88h-231q0 -6 -8 -96.5t-8 -95.5q46 12 77 12q91 0 147 -55.5t56 -161.5q0 -107 -60.5 -170t-158.5 -63z" />
    <glyph glyph-name="six.inf" unicode="&#x2086;" horiz-adv-x="491" 
d="M248 -276q-71 0 -119 45q-74 74 -74 270v27q0 201 63 293t173 92q57 0 102 -25l-2 -96q-43 32 -98 32q-63 0 -99 -56.5t-42 -162.5q56 45 118 45q73 0 122.5 -55.5t49.5 -169.5q0 -109 -54 -174t-140 -65zM250 -190q47 0 73.5 40.5t26.5 112.5t-27.5 106.5t-72.5 34.5
q-57 0 -98 -47v-47q0 -113 26 -156.5t72 -43.5z" />
    <glyph glyph-name="seven.inf" unicode="&#x2087;" horiz-adv-x="491" 
d="M199 -268h-97l230 620h-275v90h373v-71z" />
    <glyph glyph-name="eight.inf" unicode="&#x2088;" horiz-adv-x="491" 
d="M246 -276q-91 0 -145 53t-54 145q0 62 28.5 109t76.5 71q-40 24 -64.5 66.5t-24.5 95.5q0 89 52 138t131 49t130.5 -49t51.5 -138q0 -54 -24 -96t-64 -66q48 -24 76 -70.5t28 -107.5q0 -92 -53.5 -146t-144.5 -54zM246 373q-43 0 -67.5 -29.5t-24.5 -83.5t24.5 -86.5
t67.5 -32.5t67.5 32.5t24.5 86.5t-24.5 83.5t-67.5 29.5zM246 59q-47 0 -77 -36.5t-30 -96.5q0 -56 29 -90.5t78 -34.5t77.5 34.5t28.5 90.5q0 60 -29.5 96.5t-76.5 36.5z" />
    <glyph glyph-name="nine.inf" unicode="&#x2089;" horiz-adv-x="491" 
d="M248 451q71 0 119 -45q73 -73 73 -269v-28q0 -201 -62.5 -293t-172.5 -92q-59 0 -115 30v94q53 -36 113 -36q63 0 99 54t42 154q-53 -45 -119 -45q-73 0 -122.5 57t-49.5 173q0 113 54.5 179.5t140.5 66.5zM246 61q61 0 100 45v56q0 203 -100 203q-47 0 -74 -41.5
t-27 -116.5q0 -74 27.5 -110t73.5 -36z" />
    <glyph glyph-name="colonmonetary" unicode="&#x20a1;" horiz-adv-x="720" 
d="M563 1595h74l-19 -176q20 -7 58 -28v-142l-78 45l-121 -1173q14 -2 35 -2q76 0 170 67v-135q-88 -59 -190 -59q-19 0 -23 2l-27 -236h-73l28 248q-56 16 -106 60l-33 -308h-74l43 375q-137 188 -137 563v41q0 270 72.5 438.5t197.5 231.5l19 188h74l-17 -161q27 8 70 8
q27 0 41 -2zM414 1290l-107 -1038q46 -79 113 -113l121 1174q-5 0 -15.5 1t-15.5 1q-48 0 -96 -25zM221 737v-41q0 -194 39 -331l88 874q-127 -140 -127 -502z" />
    <glyph glyph-name="naira" unicode="&#x20a6;" horiz-adv-x="1011" 
d="M981 469h-145v-469h-158l-146 471h-227v-471h-127v469h-147v109h147v286h-147v111h147v459h166l141 -463h222v463h129v-459h145v-111h-145v-286h145v-109zM305 1178v-600h189zM707 281v583h-183z" />
    <glyph glyph-name="rupee" unicode="&#x20a8;" horiz-adv-x="1222" 
d="M86 0v1434h168q178 0 282.5 -112.5t104.5 -324.5v-8q0 -296 -201 -399l224 -590h-140l-209 553q-28 -4 -47 -4h-57v-549h-125zM211 662h57q115 0 181.5 85t66.5 242v6q0 162 -71 242t-195 80h-39v-655zM930 -14q-104 0 -211 49v125q112 -62 209 -62q61 0 100 39.5
t39 104.5v4q0 55 -33 110.5t-119 141.5q-107 102 -151.5 179t-44.5 161v4q0 115 73 184.5t179 69.5q92 0 174 -33v-123q-85 43 -172 43q-60 0 -96.5 -37.5t-36.5 -97.5v-4q0 -53 31.5 -104.5t121.5 -141.5q110 -115 152.5 -187.5t42.5 -158.5v-4q0 -118 -75.5 -190
t-182.5 -72z" />
    <glyph glyph-name="won" unicode="&#x20a9;" horiz-adv-x="1304" 
d="M1190 1434l-62 -459h166v-109h-180l-39 -288h219v-111h-233l-64 -473h-149l-76 473h-240l-75 -473h-152l-63 473h-232v108h217l-39 291h-178v109h164l-59 459h135l51 -459h209l70 459h147l72 -459h205l53 459h133zM651 1202l-102 -627h203l-97 627h-4zM383 223h6l100 643
h-178zM918 223h6l69 643h-176z" />
    <glyph glyph-name="sheqel" unicode="&#x20aa;" horiz-adv-x="843" 
d="M307 285l-37 415h92l35 -366q11 -115 41 -163t105 -48h112v936h105v-1059h-228q-104 0 -158 68t-67 217zM465 375v348q0 112 -31 162.5t-100 50.5h-144v-936h-106v1059h268q205 0 205 -293v-391h-92z" />
    <glyph glyph-name="Euro" unicode="&#x20ac;" horiz-adv-x="745" 
d="M678 1411v-141q-83 47 -139 47q-95 0 -162.5 -96.5t-91.5 -280.5h293v-102h-304q-2 -33 -2 -101v-41q0 -59 2 -90h304v-102h-295q24 -192 92.5 -290.5t163.5 -96.5q69 0 143 49v-135q-65 -43 -166 -43q-138 0 -239.5 132t-129.5 384h-122v102h114v90v41q0 68 2 101h-116
v102h125q31 246 135 376t245 130q76 0 148 -35z" />
    <glyph glyph-name="peso" unicode="&#x20b1;" horiz-adv-x="919" 
d="M154 0v911h-148v111h148v412h174q187 0 299.5 -107.5t124.5 -304.5h149v-111h-151q-17 -192 -126 -300.5t-294 -112.5h-43v-498h-133zM287 618h49q122 0 195 77.5t85 217.5h-329v-295zM287 1311v-291h331q-10 141 -85 216t-199 75h-47z" />
    <glyph glyph-name="hryvnia" unicode="&#x20b4;" horiz-adv-x="698" 
d="M61 866l9 78l313 -53q59 89 81.5 147t22.5 115v2q0 79 -42 123.5t-119 44.5q-98 0 -207 -74v140q109 59 223 59q129 0 205 -77t76 -210v-2q0 -71 -23.5 -136.5t-77.5 -154.5l154 -24l-10 -76l-189 31l-10 -15v-2l-92 -131l272 -43l-8 -78l-313 52q-64 -94 -88.5 -158
t-24.5 -129v-2q0 -87 45.5 -135t130.5 -47q98 0 232 84v-142q-125 -67 -244 -67q-141 0 -220 81t-79 222v2q0 76 24.5 148.5t83.5 164.5l-153 25l10 78l190 -31l13 16v2l90 127z" />
    <glyph glyph-name="numero" unicode="&#x2116;" horiz-adv-x="1282" 
d="M104 0v1434h136l311 -1072v1072h121v-1434h-127l-320 1102v-1102h-121zM1006 580q-99 0 -157 108t-58 311v25q0 203 58 311.5t157 108.5q97 0 155 -109t58 -311v-25q0 -202 -58 -310.5t-155 -108.5zM1006 680q51 0 78.5 83t27.5 236v25q0 154 -27.5 236.5t-78.5 82.5
q-109 0 -109 -319v-25q0 -154 27.5 -236.5t81.5 -82.5zM795 352v101h422v-101h-422z" />
    <glyph glyph-name="published" unicode="&#x2117;" horiz-adv-x="1071" 
d="M535 -20q-144 0 -255.5 92.5t-171 252t-59.5 357.5v72q0 200 59.5 359t170.5 251t256 92t256.5 -92t171 -251t59.5 -359v-72q0 -198 -59.5 -357.5t-171.5 -252t-256 -92.5zM535 37q130 0 228 86.5t148 232t50 326.5v72q0 181 -50 326.5t-148 232t-228 86.5t-228 -86.5
t-148 -232t-50 -326.5v-72q0 -181 50 -326.5t148 -232t228 -86.5zM393 336v788h115q106 0 170.5 -66.5t64.5 -187.5v-4q0 -120 -63 -187.5t-166 -72.5h-33v-270h-88zM481 692h35q137 3 137 172v2q0 85 -36.5 128.5t-100.5 43.5h-35v-346z" />
    <glyph glyph-name="servicemark" unicode="&#x2120;" horiz-adv-x="864" 
d="M414 788v646h96l92 -289l90 289h96v-646h-79v490l-105 -326h-6l-104 326v-490h-80zM182 782q-66 0 -123 31v88q65 -41 117 -41q35 0 54.5 19.5t19.5 54.5q0 30 -16 60t-62 79q-66 75 -90.5 117t-24.5 94q0 68 43 112t107 44q49 0 104 -25v-90q-56 37 -100 37
q-30 0 -50 -21t-20 -53q0 -28 15.5 -53.5t62.5 -79.5q65 -72 90 -119t25 -100q0 -68 -44 -111t-108 -43z" />
    <glyph glyph-name="trademark" unicode="&#x2122;" horiz-adv-x="819" 
d="M369 788v646h96l92 -289l92 289h94v-646h-77v490l-107 -326h-6l-104 326v-490h-80zM111 788v568h-97v78h277v-78h-98v-568h-82z" />
    <glyph glyph-name="Omega" unicode="&#x2126;" horiz-adv-x="866" 
d="M434 1452q164 0 258 -144.5t94 -430.5v-13q0 -381 -196 -739h207v-125h-316v117q172 370 172 741v10q0 461 -221 461q-219 0 -219 -461v-8q0 -373 172 -743v-117h-315v125h206q-196 352 -196 739v13q0 286 95 430.5t259 144.5z" />
    <glyph glyph-name="onethird" unicode="&#x2153;" horiz-adv-x="1013" 
d="M748 -8q-83 0 -148 49v98q61 -61 145 -61q55 0 92 31.5t37 93.5q0 124 -194 127h-2v65l170 226h-246v90h365v-68l-183 -237q84 -15 135.5 -64.5t51.5 -136.5q0 -100 -62 -156.5t-161 -56.5zM272 723h-96v604l-129 -67v94l146 82h79v-713zM102 0l301 737l279 699h88
l-301 -738l-281 -698h-86z" />
    <glyph glyph-name="twothirds" unicode="&#x2154;" horiz-adv-x="1105" 
d="M852 -8q-82 0 -147 49v98q61 -61 145 -61q55 0 92 31.5t37 93.5q0 124 -195 127h-2v65l170 226h-245v90h364v-68l-182 -237q84 -15 135 -64.5t51 -136.5q0 -100 -62 -156.5t-161 -56.5zM45 723v68l213 305q68 104 68 159q0 45 -30 71t-73 26q-80 0 -155 -86v104
q72 72 168 72q81 0 133.5 -47t52.5 -131q0 -51 -19 -97t-61 -106l-170 -248h256v-90h-383zM221 0l301 737l279 699h88l-301 -738l-281 -698h-86z" />
    <glyph glyph-name="onefifth" unicode="&#x2155;" horiz-adv-x="1013" 
d="M733 -8q-90 0 -147 45v98q64 -57 141 -57q63 0 95 39.5t32 105.5q0 68 -32.5 99.5t-86.5 31.5q-48 0 -90 -22l-59 26l24 353h310v-88h-232q0 -6 -8 -97t-8 -96q46 12 78 12q90 0 146 -55.5t56 -161.5q0 -107 -60.5 -170t-158.5 -63zM274 723h-96v604l-129 -67v94l146 82
h79v-713zM102 0l301 737l279 699h88l-301 -738l-281 -698h-86z" />
    <glyph glyph-name="twofifths" unicode="&#x2156;" horiz-adv-x="1105" 
d="M45 723v68l213 305q68 104 68 159q0 45 -30 71t-73 26q-80 0 -155 -86v104q72 72 168 72q81 0 133.5 -47t52.5 -131q0 -51 -19 -97t-61 -106l-170 -248h256v-90h-383zM231 0l301 737l279 699h88l-301 -738l-281 -698h-86zM862 -8q-90 0 -147 45v98q64 -57 141 -57
q63 0 95 39.5t32 105.5q0 68 -32.5 99.5t-86.5 31.5q-48 0 -90 -22l-59 26l24 353h310v-88h-232q0 -6 -8 -97t-8 -96q46 12 78 12q90 0 146 -55.5t56 -161.5q0 -107 -60.5 -170t-158.5 -63z" />
    <glyph glyph-name="threefifths" unicode="&#x2157;" horiz-adv-x="1105" 
d="M862 -8q-90 0 -147 45v98q64 -57 141 -57q63 0 95 39.5t32 105.5q0 68 -32.5 99.5t-86.5 31.5q-48 0 -90 -22l-59 26l24 353h310v-88h-232q0 -6 -8 -97t-8 -96q46 12 78 12q90 0 146 -55.5t56 -161.5q0 -107 -60.5 -170t-158.5 -63zM215 0l301 737l279 699h88l-301 -738
l-281 -698h-86zM201 715q-83 0 -148 49v98q61 -61 146 -61q55 0 92 31.5t37 93.5q0 124 -195 127h-2v65l170 225h-246v91h365v-68l-182 -238q84 -15 135 -64t51 -136q0 -100 -62 -156.5t-161 -56.5z" />
    <glyph glyph-name="fourfifths" unicode="&#x2158;" horiz-adv-x="1105" 
d="M375 866v-143h-86v143h-266v74l235 498h117v-492h67v-80h-67zM291 946v363h-10l-170 -363h180zM862 -8q-90 0 -147 45v98q64 -57 141 -57q63 0 95 39.5t32 105.5q0 68 -32.5 99.5t-86.5 31.5q-48 0 -90 -22l-59 26l24 353h310v-88h-232q0 -6 -8 -97t-8 -96q46 12 78 12
q90 0 146 -55.5t56 -161.5q0 -107 -60.5 -170t-158.5 -63zM219 0l301 737l279 699h88l-301 -738l-281 -698h-86z" />
    <glyph glyph-name="onesixth" unicode="&#x2159;" horiz-adv-x="1013" 
d="M748 -8q-71 0 -119 45q-74 74 -74 270v27q0 201 63 293t173 92q57 0 102 -25l-2 -96q-44 33 -98 33q-63 0 -99.5 -56.5t-42.5 -162.5q56 45 119 45q73 0 122.5 -56t49.5 -170q0 -109 -54 -174t-140 -65zM750 78q47 0 73.5 40.5t26.5 112.5t-27.5 107t-72.5 35
q-58 0 -99 -47v-47q0 -113 26.5 -157t72.5 -44zM274 723h-96v604l-129 -67v94l146 82h79v-713zM115 0l301 737l278 699h88l-301 -738l-280 -698h-86z" />
    <glyph glyph-name="fivesixths" unicode="&#x215a;" horiz-adv-x="1105" 
d="M870 -8q-70 0 -118 45q-74 74 -74 270v27q0 201 62.5 293t172.5 92q58 0 103 -25l-2 -96q-44 33 -99 33q-63 0 -99 -56.5t-42 -162.5q56 45 119 45q73 0 122.5 -56t49.5 -170q0 -109 -54.5 -174t-140.5 -65zM872 78q47 0 74 40.5t27 112.5t-28 107t-73 35q-57 0 -98 -47
v-47q0 -113 26 -157t72 -44zM213 715q-90 0 -147 45v98q64 -57 141 -57q63 0 95 39.5t32 105.5q0 68 -32.5 99.5t-86.5 31.5q-48 0 -90 -22l-59 26l24 353h309v-88h-231q0 -6 -8 -97t-8 -96q46 12 77 12q91 0 147 -55.5t56 -161.5q0 -107 -60.5 -170t-158.5 -63zM215 0
l301 737l279 699h88l-301 -738l-281 -698h-86z" />
    <glyph glyph-name="oneeighth" unicode="&#x215b;" horiz-adv-x="1013" 
d="M745 -8q-91 0 -144.5 53t-53.5 145q0 62 28 109.5t76 71.5q-40 24 -64 66t-24 95q0 89 51.5 138t130.5 49t131 -49t52 -138q0 -53 -24 -95t-64 -66q48 -24 76 -70.5t28 -107.5q0 -92 -54 -146.5t-145 -54.5zM745 641q-43 0 -67.5 -29.5t-24.5 -83.5t24.5 -86t67.5 -32
t68 32t25 86t-25 83.5t-68 29.5zM745 328q-47 0 -76.5 -36.5t-29.5 -96.5q0 -56 28.5 -90.5t77.5 -34.5t78 34.5t29 90.5q0 60 -30 96.5t-77 36.5zM274 723h-96v604l-129 -67v94l146 82h79v-713zM111 0l301 737l278 699h88l-301 -738l-280 -698h-86z" />
    <glyph glyph-name="threeeighths" unicode="&#x215c;" horiz-adv-x="1105" 
d="M872 -8q-91 0 -144.5 53t-53.5 145q0 62 28 109.5t76 71.5q-40 24 -64 66t-24 95q0 89 51.5 138t130.5 49t131 -49t52 -138q0 -53 -24 -95t-64 -66q48 -24 76 -70.5t28 -107.5q0 -92 -54 -146.5t-145 -54.5zM872 641q-43 0 -67.5 -29.5t-24.5 -83.5t24.5 -86t67.5 -32
t68 32t25 86t-25 83.5t-68 29.5zM872 328q-47 0 -76.5 -36.5t-29.5 -96.5q0 -56 28.5 -90.5t77.5 -34.5t78 34.5t29 90.5q0 60 -30 96.5t-77 36.5zM215 0l301 737l279 699h88l-301 -738l-281 -698h-86zM209 715q-83 0 -148 49v98q61 -61 146 -61q55 0 92 31.5t37 93.5
q0 124 -195 127h-2v65l170 225h-246v91h365v-68l-182 -238q84 -15 135 -64t51 -136q0 -100 -62 -156.5t-161 -56.5z" />
    <glyph glyph-name="fiveeighths" unicode="&#x215d;" horiz-adv-x="1105" 
d="M872 -8q-91 0 -144.5 53t-53.5 145q0 62 28 109.5t76 71.5q-40 24 -64 66t-24 95q0 89 51.5 138t130.5 49t131 -49t52 -138q0 -53 -24 -95t-64 -66q48 -24 76 -70.5t28 -107.5q0 -92 -54 -146.5t-145 -54.5zM872 641q-43 0 -67.5 -29.5t-24.5 -83.5t24.5 -86t67.5 -32
t68 32t25 86t-25 83.5t-68 29.5zM872 328q-47 0 -76.5 -36.5t-29.5 -96.5q0 -56 28.5 -90.5t77.5 -34.5t78 34.5t29 90.5q0 60 -30 96.5t-77 36.5zM213 715q-90 0 -147 45v98q64 -57 141 -57q63 0 95 39.5t32 105.5q0 68 -32.5 99.5t-86.5 31.5q-48 0 -90 -22l-59 26l24 353
h309v-88h-231q0 -6 -8 -97t-8 -96q46 12 77 12q91 0 147 -55.5t56 -161.5q0 -107 -60.5 -170t-158.5 -63zM215 0l301 737l279 699h88l-301 -738l-281 -698h-86z" />
    <glyph glyph-name="seveneighths" unicode="&#x215e;" horiz-adv-x="1105" 
d="M829 -8q-91 0 -144.5 53t-53.5 145q0 62 28 109.5t76 71.5q-40 24 -64 66t-24 95q0 89 51.5 138t130.5 49t131 -49t52 -138q0 -53 -24 -95t-64 -66q48 -24 76 -70.5t28 -107.5q0 -92 -54 -146.5t-145 -54.5zM829 641q-43 0 -67.5 -29.5t-24.5 -83.5t24.5 -86t67.5 -32
t68 32t25 86t-25 83.5t-68 29.5zM829 328q-47 0 -76.5 -36.5t-29.5 -96.5q0 -56 28.5 -90.5t77.5 -34.5t78 34.5t29 90.5q0 60 -30 96.5t-77 36.5zM205 723h-96l229 620h-275v91h373v-72zM143 0l301 737l279 699h88l-301 -738l-281 -698h-86z" />
    <glyph glyph-name="Delta" unicode="&#x2206;" horiz-adv-x="831" 
d="M63 0l-14 98l293 1342h147l293 -1342l-14 -98h-705zM184 123h459l-229 1110z" />
    <glyph glyph-name="minus" unicode="&#x2212;" horiz-adv-x="718" 
d="M662 655h-605v131h605v-131z" />
    <glyph glyph-name="NUL" horiz-adv-x="0" 
 />
    <glyph glyph-name="CR" horiz-adv-x="333" 
 />
    <glyph glyph-name="Q.alt" horiz-adv-x="839" 
d="M657 -190l-135 192q-44 -20 -102 -20q-158 0 -255 184t-97 528v45q0 344 97 528.5t255 184.5t254 -184.5t96 -528.5v-45q0 -433 -152 -612l185 -272h-146zM420 104q97 0 157 150t60 440v45q0 290 -60 440t-157 150t-157 -150t-60 -440v-45q0 -290 60 -440t157 -150z" />
    <glyph glyph-name="a.alt" horiz-adv-x="774" 
d="M332 -18q-113 0 -189.5 137.5t-76.5 394.5v53q0 255 76.5 394t189.5 139q40 0 74 -16.5t60 -47t45 -64t38 -77.5v186h129v-1081h-129v188q-84 -206 -217 -206zM367 100q76 0 131 112t55 300v57q0 188 -55 300t-131 112t-125 -111t-49 -307v-45q0 -196 49 -307t125 -111z
" />
    <glyph glyph-name="uni039E.alt" horiz-adv-x="768" 
d="M715 125v-125h-660v125h264v534h-233v125h233v525h-260v125h650v-125h-260v-525h233v-125h-233v-534h266z" />
    <glyph glyph-name="uni0424.bgr" horiz-adv-x="1171" 
d="M518 -188v178q-213 25 -332.5 211.5t-119.5 507.5v14q0 321 119.5 507.5t332.5 213.5v176h135v-176q213 -25 334 -213t121 -506v-14q0 -322 -121 -509t-334 -212v-178h-135zM973 709v16q0 266 -84 419.5t-238 178.5v-1214q154 25 238 179.5t84 420.5zM199 725v-16
q0 -266 83.5 -420.5t237.5 -179.5v1214q-154 -25 -237.5 -178.5t-83.5 -419.5z" />
    <glyph glyph-name="uni0432.bgr" horiz-adv-x="763" 
d="M389 -16q-301 0 -301 401v700q0 170 79.5 268.5t225.5 98.5q134 0 216.5 -96.5t82.5 -251.5v-10q0 -139 -62.5 -235.5t-160.5 -135.5q240 -79 240 -354v-7q0 -169 -85.5 -273.5t-234.5 -104.5zM389 98q95 0 144 71.5t49 197.5v4q0 142 -68 218.5t-201 76.5h-102v-275
q0 -293 178 -293zM211 1092v-324h100q124 0 189 88.5t65 228.5v7q0 115 -47 180t-129 65q-85 0 -131.5 -64t-46.5 -181z" />
    <glyph glyph-name="uni0433.bgr" horiz-adv-x="593" 
d="M309 -14q-124 0 -196 66t-72 184v4q0 88 48 166t163 188q102 98 137 149.5t35 106.5v2q0 60 -38 92.5t-103 32.5q-94 0 -183 -47v129q90 37 189 37q120 0 191 -63t71 -177v-4q0 -61 -24 -115.5t-65.5 -104t-121.5 -126.5q-100 -96 -136 -151t-36 -113v-2q0 -65 40 -101.5
t107 -36.5q98 0 217 64v-129q-111 -51 -223 -51z" />
    <glyph glyph-name="uni0434.bgr" horiz-adv-x="774" 
d="M346 -270q-120 0 -235 41v125q119 -50 229 -50q105 0 157 49t52 156v213q-83 -205 -217 -205q-113 0 -189.5 133t-76.5 379v17q0 246 76.5 379t189.5 133q40 0 74 -16.5t60 -47t45 -64t38 -77.5v186h129v-1032q0 -153 -82 -235q-84 -84 -250 -84zM367 178q74 0 130 106
t56 287v15q0 181 -56 288t-130 107q-75 0 -124.5 -105t-49.5 -290v-13q0 -188 49.5 -291.5t124.5 -103.5z" />
    <glyph glyph-name="uni0436.bgr" horiz-adv-x="1071" 
d="M598 1446l-2 -844h94l193 479h137l-223 -534l237 -547h-137l-207 485h-94l2 -485h-127l4 485h-94l-209 -485h-137l239 541l-225 540h141l189 -479h96l-4 844h127z" />
    <glyph glyph-name="uni0438.bgr" horiz-adv-x="765" 
d="M326 -18q-109 0 -172.5 86t-63.5 239v774h127v-751q0 -115 39.5 -175.5t112.5 -60.5t122.5 68.5t49.5 177.5v741h127v-1081h-127v150q-74 -168 -215 -168z" />
    <glyph glyph-name="uni0439.bgr" horiz-adv-x="765" 
d="M326 -18q-109 0 -172.5 86t-63.5 239v774h127v-751q0 -115 39.5 -175.5t112.5 -60.5t122.5 68.5t49.5 177.5v741h127v-1081h-127v150q-74 -168 -215 -168zM383 1171q-86 0 -140.5 51t-64.5 156h92q21 -108 113 -108t113 108h92q-10 -105 -64.5 -156t-140.5 -51z" />
    <glyph glyph-name="uni043A.bgr" horiz-adv-x="704" 
d="M672 0h-142l-208 483h-97v-483h-127v1446h127v-844h94l197 479h139l-227 -532z" />
    <glyph glyph-name="uni043F.bgr" horiz-adv-x="765" 
d="M98 0v1081h127v-151q74 170 215 170q109 0 172.5 -86.5t63.5 -239.5v-774h-127v752q0 114 -39.5 174.5t-112.5 60.5t-122.5 -69t-49.5 -179v-739h-127z" />
    <glyph glyph-name="uni0442.bgr" horiz-adv-x="1196" 
d="M98 0v1081h127v-149q77 168 209 168q141 0 205 -168q33 71 89.5 119.5t137.5 48.5q108 0 174 -85.5t66 -240.5v-774h-127v756q0 114 -38 172.5t-107 58.5q-73 0 -120.5 -67.5t-47.5 -176.5v-743h-127v756q0 113 -38.5 172t-107.5 59q-73 0 -120.5 -67.5t-47.5 -176.5
v-743h-127z" />
    <glyph glyph-name="uni0446.bgr" horiz-adv-x="788" 
d="M647 -209v209h-106v150q-74 -168 -215 -168q-109 0 -172.5 86t-63.5 239v774h127v-751q0 -115 39.5 -175.5t112.5 -60.5t122.5 68.5t49.5 177.5v741h127v-964h96v-326h-117z" />
    <glyph glyph-name="uni0448.bgr" horiz-adv-x="1196" 
d="M1098 1081v-1081h-127v150q-77 -168 -209 -168q-141 0 -205 168q-33 -71 -89.5 -119.5t-137.5 -48.5q-108 0 -174 85t-66 240v774h127v-755q0 -114 38 -173t107 -59q73 0 120.5 67.5t47.5 176.5v743h127v-755q0 -114 38.5 -173t107.5 -59q73 0 120.5 67.5t47.5 176.5v743
h127z" />
    <glyph glyph-name="uni0449.bgr" horiz-adv-x="1218" 
d="M1077 -209v209h-106v150q-77 -168 -209 -168q-141 0 -205 168q-33 -71 -89.5 -119.5t-137.5 -48.5q-108 0 -174 85t-66 240v774h127v-755q0 -114 38 -173t107 -59q73 0 120.5 67.5t47.5 176.5v743h127v-755q0 -114 38.5 -173t107.5 -59q73 0 120.5 67.5t47.5 176.5v743
h127v-964h96v-326h-117z" />
    <glyph glyph-name="uni044E.bgr" horiz-adv-x="1050" 
d="M225 487v-487h-127v1446h127v-840h144q12 226 99.5 359t211.5 133q132 0 220.5 -147t88.5 -396v-31q0 -249 -89.5 -395.5t-221.5 -146.5q-127 0 -214.5 136t-94.5 369h-144zM678 98q80 0 132 116.5t52 309.5v33q0 194 -52 309t-132 115q-77 0 -128.5 -115.5t-51.5 -308.5
v-33q0 -193 51.5 -309.5t128.5 -116.5z" />
    <glyph glyph-name="aacute.alt" horiz-adv-x="774" 
d="M348 1182l144 268l122 -66l-178 -202h-88zM332 -18q-113 0 -189.5 137.5t-76.5 394.5v53q0 255 76.5 394t189.5 139q40 0 74 -16.5t60 -47t45 -64t38 -77.5v186h129v-1081h-129v188q-84 -206 -217 -206zM367 100q76 0 131 112t55 300v57q0 188 -55 300t-131 112
t-125 -111t-49 -307v-45q0 -196 49 -307t125 -111z" />
    <glyph glyph-name="abreve.alt" horiz-adv-x="774" 
d="M332 -18q-113 0 -189.5 137.5t-76.5 394.5v53q0 255 76.5 394t189.5 139q40 0 74 -16.5t60 -47t45 -64t38 -77.5v186h129v-1081h-129v188q-84 -206 -217 -206zM367 100q76 0 131 112t55 300v57q0 188 -55 300t-131 112t-125 -111t-49 -307v-45q0 -196 49 -307t125 -111z
M401 1182q-86 0 -140 51t-64 156h92q21 -109 112 -109q92 0 113 109h92q-10 -105 -64.5 -156t-140.5 -51z" />
    <glyph glyph-name="acircumflex.alt" horiz-adv-x="774" 
d="M209 1188l143 260h99l143 -260h-98l-97 147l-96 -147h-94zM332 -18q-113 0 -189.5 137.5t-76.5 394.5v53q0 255 76.5 394t189.5 139q40 0 74 -16.5t60 -47t45 -64t38 -77.5v186h129v-1081h-129v188q-84 -206 -217 -206zM367 100q76 0 131 112t55 300v57q0 188 -55 300
t-131 112t-125 -111t-49 -307v-45q0 -196 49 -307t125 -111z" />
    <glyph glyph-name="adieresis.alt" horiz-adv-x="774" 
d="M453 1198v160h127v-160h-127zM223 1198v160h127v-160h-127zM332 -18q-113 0 -189.5 137.5t-76.5 394.5v53q0 255 76.5 394t189.5 139q40 0 74 -16.5t60 -47t45 -64t38 -77.5v186h129v-1081h-129v188q-84 -206 -217 -206zM367 100q76 0 131 112t55 300v57q0 188 -55 300
t-131 112t-125 -111t-49 -307v-45q0 -196 49 -307t125 -111z" />
    <glyph glyph-name="agrave.alt" horiz-adv-x="774" 
d="M332 -18q-113 0 -189.5 137.5t-76.5 394.5v53q0 255 76.5 394t189.5 139q40 0 74 -16.5t60 -47t45 -64t38 -77.5v186h129v-1081h-129v188q-84 -206 -217 -206zM367 100q76 0 131 112t55 300v57q0 188 -55 300t-131 112t-125 -111t-49 -307v-45q0 -196 49 -307t125 -111z
M369 1182l-179 202l123 66l142 -268h-86z" />
    <glyph glyph-name="amacron.alt" horiz-adv-x="774" 
d="M332 -18q-113 0 -189.5 137.5t-76.5 394.5v53q0 255 76.5 394t189.5 139q40 0 74 -16.5t60 -47t45 -64t38 -77.5v186h129v-1081h-129v188q-84 -206 -217 -206zM367 100q76 0 131 112t55 300v57q0 188 -55 300t-131 112t-125 -111t-49 -307v-45q0 -196 49 -307t125 -111z
M203 1200v103h397v-103h-397z" />
    <glyph glyph-name="aogonek.alt" horiz-adv-x="774" 
d="M690 -174v-86q-25 -2 -53 -2q-73 0 -109 28.5t-36 79.5q0 71 77 154h-20v188q-84 -206 -217 -206q-113 0 -189.5 137.5t-76.5 394.5v53q0 255 76.5 394t189.5 139q40 0 74 -16.5t60 -47t45 -64t38 -77.5v186h129v-1081h-21q-53 -77 -53 -119q0 -30 21 -42.5t65 -12.5z
M367 100q76 0 131 112t55 300v57q0 188 -55 300t-131 112t-125 -111t-49 -307v-45q0 -196 49 -307t125 -111z" />
    <glyph glyph-name="aring.alt" horiz-adv-x="774" 
d="M399 1180q-71 0 -117 47.5t-46 120.5q0 72 47.5 120t119.5 48t118 -48t46 -120t-48 -120t-120 -48zM401 1243q41 0 69 30.5t28 74.5t-28 74t-69 30t-68.5 -30t-27.5 -74t27.5 -74.5t68.5 -30.5zM332 -18q-113 0 -189.5 137.5t-76.5 394.5v53q0 255 76.5 394t189.5 139
q40 0 74 -16.5t60 -47t45 -64t38 -77.5v186h129v-1081h-129v188q-84 -206 -217 -206zM367 100q76 0 131 112t55 300v57q0 188 -55 300t-131 112t-125 -111t-49 -307v-45q0 -196 49 -307t125 -111z" />
    <glyph glyph-name="aring.alt2" horiz-adv-x="708" 
d="M285 -18q-103 0 -169.5 93t-66.5 236v21q0 161 72.5 253.5t200.5 92.5q85 0 172 -41v117q0 106 -48.5 162.5t-144.5 56.5q-101 0 -195 -49v123q69 28 121 38q-43 46 -43 113q0 72 48 120t120 48t119 -48t47 -120q0 -77 -65 -129q50 -21 84 -55q84 -84 84 -248v-766h-129
v145q-67 -163 -207 -163zM322 92q76 0 124 68.5t48 163.5v206q-80 39 -150 39q-83 0 -126.5 -61t-43.5 -168v-21q0 -105 38.5 -166t109.5 -61zM256 1198q0 -45 27 -74.5t69 -29.5q41 0 69 30t28 74t-28 74.5t-69 30.5q-42 0 -69 -30t-27 -75z" />
    <glyph glyph-name="aringacute.alt" horiz-adv-x="774" 
d="M346 1573l143 211l115 -60l-166 -151h-92zM397 1180q-72 0 -118 48t-46 120t48 120t120 48t118 -48t46 -120t-48 -120t-120 -48zM399 1243q41 0 69 30.5t28 74.5t-28 74t-69 30t-68.5 -30t-27.5 -74t27.5 -74.5t68.5 -30.5zM332 -18q-113 0 -189.5 137.5t-76.5 394.5v53
q0 255 76.5 394t189.5 139q40 0 74 -16.5t60 -47t45 -64t38 -77.5v186h129v-1081h-129v188q-84 -206 -217 -206zM367 100q76 0 131 112t55 300v57q0 188 -55 300t-131 112t-125 -111t-49 -307v-45q0 -196 49 -307t125 -111z" />
    <glyph glyph-name="aringacute.alt2" horiz-adv-x="708" 
d="M299 1405l141 211l117 -60l-166 -151h-92zM285 -18q-103 0 -169.5 93t-66.5 236v21q0 161 72.5 253.5t200.5 92.5q85 0 172 -41v117q0 106 -48.5 162.5t-144.5 56.5q-101 0 -195 -49v123q69 28 121 38q-43 46 -43 113q0 72 48 120t120 48t119 -48t47 -120q0 -77 -65 -129
q50 -21 84 -55q84 -84 84 -248v-766h-129v145q-67 -163 -207 -163zM322 92q76 0 124 68.5t48 163.5v206q-80 39 -150 39q-83 0 -126.5 -61t-43.5 -168v-21q0 -105 38.5 -166t109.5 -61zM256 1198q0 -45 27 -74.5t69 -29.5q41 0 69 30t28 74t-28 74.5t-69 30.5q-42 0 -69 -30
t-27 -75z" />
    <glyph glyph-name="atilde.alt" horiz-adv-x="774" 
d="M332 -18q-113 0 -189.5 137.5t-76.5 394.5v53q0 255 76.5 394t189.5 139q40 0 74 -16.5t60 -47t45 -64t38 -77.5v186h129v-1081h-129v188q-84 -206 -217 -206zM367 100q76 0 131 112t55 300v57q0 188 -55 300t-131 112t-125 -111t-49 -307v-45q0 -196 49 -307t125 -111z
M504 1184q-30 0 -53 11.5t-56 37.5q-51 43 -76 43q-33 0 -57 -88l-80 20q35 170 121 170q30 0 53 -11.5t56 -37.5q54 -43 75 -43q34 0 58 88l80 -20q-35 -170 -121 -170z" />
    <glyph glyph-name="i.dot" horiz-adv-x="342" 
d="M104 1278v168h136v-168h-136zM106 0v1081h130v-1081h-130z" />
    <glyph glyph-name="uni0386.calt" horiz-adv-x="833" 
d="M43 0l301 1440h143l304 -1440h-136l-75 371h-332l-74 -371h-131zM268 492h291l-145 720z" />
    <glyph glyph-name="uni0388.calt" horiz-adv-x="667" 
d="M104 0v1434h504v-125h-370v-525h335v-125h-335v-534h376v-125h-510z" />
    <glyph glyph-name="uni0389.calt" horiz-adv-x="856" 
d="M104 0v1434h134v-652h380v652h134v-1434h-134v659h-380v-659h-134z" />
    <glyph glyph-name="uni038A.calt" horiz-adv-x="364" 
d="M115 0v1434h133v-1434h-133z" />
    <glyph glyph-name="uni038C.calt" horiz-adv-x="839" 
d="M420 -18q-158 0 -255 184t-97 528v45q0 344 97 528.5t255 184.5t254 -184.5t96 -528.5v-45q0 -344 -96 -528t-254 -184zM420 104q97 0 157 150t60 440v45q0 290 -60 440t-157 150t-157 -150t-60 -440v-45q0 -290 60 -440t157 -150z" />
    <glyph glyph-name="uni038E.calt" 
d="M303 0v604l-291 830h142l217 -658l219 658h135l-289 -830v-604h-133z" />
    <glyph glyph-name="uni038F.calt" horiz-adv-x="866" 
d="M434 1452q164 0 258 -144.5t94 -430.5v-13q0 -381 -196 -739h207v-125h-316v117q172 370 172 741v10q0 461 -221 461q-219 0 -219 -461v-8q0 -373 172 -743v-117h-315v125h206q-196 352 -196 739v13q0 286 95 430.5t259 144.5z" />
    <glyph glyph-name="uni0399.calt" horiz-adv-x="364" 
d="M115 0v1434h133v-1434h-133zM236 1530v153h135v-153h-135zM-2 1530v153h135v-153h-135z" />
    <glyph glyph-name="uni03A5.calt" 
d="M303 0v604l-291 830h142l217 -658l219 658h135l-289 -830v-604h-133zM424 1522v153h135v-153h-135zM186 1522v153h136v-153h-136z" />
    <glyph glyph-name="uni0431.srb" horiz-adv-x="745" 
d="M369 -18q-137 0 -222.5 138.5t-85.5 373.5v16q0 221 82 360.5t226 139.5l-144 153q-32 36 -45.5 53t-27 46t-13.5 59q0 57 40.5 91t121.5 34h320v-117h-297q-56 0 -56 -41q0 -16 10.5 -31t47.5 -57l166 -184q99 -105 145.5 -224t46.5 -276v-16q0 -238 -86 -378t-229 -140
zM371 96q90 0 138 107.5t48 296.5v20q0 168 -50 276.5t-136 108.5q-89 0 -136 -103t-47 -286v-20q0 -185 49 -292.5t134 -107.5z" />
    <glyph glyph-name="three.alt" horiz-adv-x="645" 
d="M223 -18q-93 0 -184 38v125q102 -39 172 -39q113 0 180.5 78t67.5 213v4q0 138 -77.5 209.5t-221.5 77.5v113h2q129 12 210 93t81 206v4q0 104 -56.5 163.5t-154.5 59.5q-97 0 -181 -51v123q87 53 203 53q150 0 235 -92.5t85 -243.5v-8q0 -130 -65 -219t-175 -135
q114 -37 180 -128t66 -229v-6q0 -185 -101 -297t-266 -112z" />
    <glyph glyph-name="registered.alt" horiz-adv-x="1071" 
d="M535 -20q-144 0 -255.5 92.5t-171 252t-59.5 357.5v72q0 200 59.5 359t170.5 251t256 92t256.5 -92t171 -251t59.5 -359v-72q0 -198 -59.5 -357.5t-171.5 -252t-256 -92.5zM535 37q130 0 228 86.5t148 232t50 326.5v72q0 181 -50 326.5t-148 232t-228 86.5t-228 -86.5
t-148 -232t-50 -326.5v-72q0 -181 50 -326.5t148 -232t228 -86.5zM375 336v788h127q107 0 168 -61q63 -63 63 -178v-8q0 -157 -115 -213l134 -328h-97l-118 299q-14 -2 -29 -2h-45v-297h-88zM463 717h41q66 0 103.5 39t37.5 121v4q0 81 -39 119t-106 38h-37v-321z" />
    <glyph glyph-name="one.sup_alt" horiz-adv-x="491" 
d="M449 950h-377v84h149v527l-147 -74v98l164 82h77v-633h134v-84z" />
    <glyph glyph-name="one.inf_alt" horiz-adv-x="491" 
d="M449 -268h-377v84h149v526l-147 -74v99l164 82h77v-633h134v-84z" />
    <glyph glyph-name="zero.num" horiz-adv-x="491" 
d="M246 715q-99 0 -148 84.5t-49 267.5v20q0 184 48.5 269.5t148.5 85.5t148 -84t48 -268v-21q0 -183 -49 -268.5t-147 -85.5zM246 1356q-101 0 -101 -269v-16q0 -270 101 -270q100 0 100 268v16q0 143 -24.5 207t-75.5 64z" />
    <glyph glyph-name="one.num" horiz-adv-x="399" 
d="M268 723h-96v604l-129 -67v94l145 82h80v-713z" />
    <glyph glyph-name="one.num_alt" horiz-adv-x="491" 
d="M449 723h-377v84h149v526l-147 -73v98l164 82h77v-633h134v-84z" />
    <glyph glyph-name="two.num" horiz-adv-x="491" 
d="M51 723v68l213 305q68 104 68 159q0 45 -30 71t-73 26q-80 0 -155 -86v104q72 72 168 72q81 0 133.5 -47t52.5 -131q0 -51 -19 -97t-61 -106l-170 -248h256v-90h-383z" />
    <glyph glyph-name="three.num" horiz-adv-x="491" 
d="M209 715q-83 0 -148 49v98q61 -61 146 -61q55 0 92 31.5t37 93.5q0 124 -195 127h-2v65l170 225h-246v91h365v-68l-182 -238q84 -15 135 -64t51 -136q0 -100 -62 -156.5t-161 -56.5z" />
    <glyph glyph-name="four.num" horiz-adv-x="491" 
d="M391 866v-143h-86v143h-266v74l235 498h117v-492h68v-80h-68zM307 946v363h-10l-170 -363h180z" />
    <glyph glyph-name="five.num" horiz-adv-x="491" 
d="M215 715q-90 0 -147 45v98q64 -57 141 -57q63 0 95 39.5t32 105.5q0 68 -32.5 99.5t-86.5 31.5q-48 0 -90 -22l-59 26l24 353h309v-88h-231q0 -6 -8 -97t-8 -96q46 12 77 12q91 0 147 -55.5t56 -161.5q0 -107 -60.5 -170t-158.5 -63z" />
    <glyph glyph-name="six.num" horiz-adv-x="491" 
d="M248 715q-71 0 -119 45q-74 74 -74 268v29q0 201 63 293t173 92q60 0 102 -27l-2 -94q-57 33 -98 33q-63 0 -99 -56.5t-42 -162.5q56 45 118 45q73 0 122.5 -56t49.5 -170q0 -109 -54 -174t-140 -65zM250 801q47 0 73.5 40t26.5 113q0 71 -27.5 106.5t-72.5 35.5
q-57 0 -98 -47v-48q0 -113 26 -156.5t72 -43.5z" />
    <glyph glyph-name="seven.num" horiz-adv-x="491" 
d="M199 723h-97l230 620h-275v91h373v-72z" />
    <glyph glyph-name="eight.num" horiz-adv-x="491" 
d="M246 715q-91 0 -145 53t-54 145q0 62 28.5 109.5t76.5 71.5q-40 24 -64.5 65.5t-24.5 93.5q0 89 52 139t131 50q78 0 130 -50t52 -139q0 -52 -24 -93.5t-64 -65.5q48 -24 76 -71t28 -108q0 -93 -53.5 -146.5t-144.5 -53.5zM246 1364q-43 0 -67.5 -29.5t-24.5 -83.5
t24.5 -86t67.5 -32t67.5 32t24.5 86t-24.5 83.5t-67.5 29.5zM246 1051q-47 0 -77 -36.5t-30 -96.5q0 -56 29 -90.5t78 -34.5t77.5 34.5t28.5 90.5q0 60 -29.5 96.5t-76.5 36.5z" />
    <glyph glyph-name="nine.num" horiz-adv-x="491" 
d="M248 1442q71 0 119 -45q73 -73 73 -271v-26q0 -201 -62.5 -293t-172.5 -92q-63 0 -115 30v95q55 -37 113 -37q63 0 99 54.5t42 154.5q-53 -45 -119 -45q-73 0 -122.5 56.5t-49.5 172.5q0 113 54.5 179.5t140.5 66.5zM246 1053q61 0 100 45v55q0 203 -100 203
q-47 0 -74 -42.5t-27 -117.5q0 -74 27.5 -108.5t73.5 -34.5z" />
    <glyph glyph-name="zero.den" horiz-adv-x="491" 
d="M246 -8q-99 0 -148 84.5t-49 267.5v21q0 184 48.5 269t148.5 85t148 -84t48 -268v-21q0 -183 -49 -268.5t-147 -85.5zM246 633q-51 0 -76 -62.5t-25 -205.5v-17q0 -270 101 -270q100 0 100 268v16q0 143 -24.5 207t-75.5 64z" />
    <glyph glyph-name="one.den" horiz-adv-x="399" 
d="M268 0h-96v604l-129 -67v94l145 82h80v-713z" />
    <glyph glyph-name="one.den_alt" horiz-adv-x="491" 
d="M449 0h-377v84h149v526l-147 -73v98l164 82h77v-633h134v-84z" />
    <glyph glyph-name="two.den" horiz-adv-x="491" 
d="M51 0v68l213 305q68 104 68 159q0 45 -30 71t-73 26q-80 0 -155 -86v104q72 72 168 72q81 0 133.5 -47t52.5 -131q0 -51 -19 -97t-61 -106l-170 -248h256v-90h-383z" />
    <glyph glyph-name="three.den" horiz-adv-x="491" 
d="M209 -8q-83 0 -148 49v98q61 -61 146 -61q55 0 92 31.5t37 93.5q0 124 -195 127h-2v65l170 226h-246v90h365v-68l-182 -237q84 -15 135 -64.5t51 -136.5q0 -100 -62 -156.5t-161 -56.5z" />
    <glyph glyph-name="four.den" horiz-adv-x="491" 
d="M391 143v-143h-86v143h-266v74l235 498h117v-492h68v-80h-68zM307 223v363h-10l-170 -363h180z" />
    <glyph glyph-name="five.den" horiz-adv-x="491" 
d="M215 -8q-90 0 -147 45v98q64 -57 141 -57q63 0 95 39.5t32 105.5q0 68 -32.5 99.5t-86.5 31.5q-48 0 -90 -22l-59 26l24 353h309v-88h-231q0 -6 -8 -97t-8 -96q46 12 77 12q91 0 147 -55.5t56 -161.5q0 -107 -60.5 -170t-158.5 -63z" />
    <glyph glyph-name="six.den" horiz-adv-x="491" 
d="M248 -8q-71 0 -119 45q-74 74 -74 270v27q0 201 63 293t173 92q57 0 102 -25l-2 -96q-44 33 -98 33q-63 0 -99 -56.5t-42 -162.5q56 45 118 45q73 0 122.5 -56t49.5 -170q0 -109 -54 -174t-140 -65zM250 78q47 0 73.5 40.5t26.5 112.5t-27.5 107t-72.5 35q-57 0 -98 -47
v-47q0 -113 26 -157t72 -44z" />
    <glyph glyph-name="seven.den" horiz-adv-x="491" 
d="M199 0h-97l230 621h-275v90h373v-72z" />
    <glyph glyph-name="eight.den" horiz-adv-x="491" 
d="M246 -8q-91 0 -145 53t-54 145q0 62 28.5 109.5t76.5 71.5q-40 24 -64.5 66t-24.5 95q0 89 52 138t131 49t130.5 -49t51.5 -138q0 -53 -24 -95t-64 -66q48 -24 76 -70.5t28 -107.5q0 -92 -53.5 -146.5t-144.5 -54.5zM246 641q-43 0 -67.5 -29.5t-24.5 -83.5t24.5 -86
t67.5 -32t67.5 32t24.5 86t-24.5 83.5t-67.5 29.5zM246 328q-47 0 -77 -36.5t-30 -96.5q0 -56 29 -90.5t78 -34.5t77.5 34.5t28.5 90.5q0 60 -29.5 96.5t-76.5 36.5z" />
    <glyph glyph-name="nine.den" horiz-adv-x="491" 
d="M248 719q71 0 119 -45q73 -73 73 -268v-29q0 -201 -62.5 -293t-172.5 -92q-58 0 -115 31v94q55 -37 113 -37q63 0 99 54.5t42 154.5q-53 -45 -119 -45q-73 0 -122.5 56.5t-49.5 172.5q0 113 54.5 179.5t140.5 66.5zM246 330q61 0 100 45v55q0 203 -100 203
q-47 0 -74 -41.5t-27 -116.5q0 -74 27.5 -109.5t73.5 -35.5z" />
    <glyph glyph-name="onehalf.alt" horiz-adv-x="1105" 
d="M424 723h-377v84h150v526l-148 -73v98l164 82h78v-633h133v-84zM684 0v68l213 305q68 104 68 159q0 45 -30 71t-73 26q-80 0 -155 -86v104q72 72 167 72q81 0 134 -47.5t53 -130.5q0 -51 -19 -97t-61 -106l-170 -248h256v-90h-383zM236 0l301 737l278 699h88l-301 -738
l-280 -698h-86z" />
    <glyph glyph-name="onethird.alt" horiz-adv-x="1105" 
d="M424 723h-377v84h150v526l-148 -73v98l164 82h78v-633h133v-84zM846 -8q-83 0 -148 49v98q61 -61 146 -61q55 0 92 31.5t37 93.5q0 124 -195 127h-2v65l170 226h-246v90h365v-68l-182 -237q84 -15 135 -64.5t51 -136.5q0 -100 -62 -156.5t-161 -56.5zM225 0l301 737
l279 699h88l-301 -738l-281 -698h-86z" />
    <glyph glyph-name="onequarter.alt" horiz-adv-x="1105" 
d="M434 723h-377v84h150v526l-148 -73v98l164 82h78v-633h133v-84zM256 0l301 737l279 699h88l-301 -738l-281 -698h-86zM999 143v-143h-86v143h-266v74l236 498h116v-492h68v-80h-68zM915 223v363h-10l-170 -363h180z" />
    <glyph glyph-name="onefifth.alt" horiz-adv-x="1105" 
d="M424 723h-377v84h150v526l-148 -73v98l164 82h78v-633h133v-84zM852 -8q-90 0 -147 45v98q64 -57 141 -57q63 0 95 39.5t32 105.5q0 68 -32.5 99.5t-86.5 31.5q-48 0 -90 -22l-59 26l24 353h309v-88h-231q0 -6 -8 -97t-8 -96q46 12 77 12q91 0 147 -55.5t56 -161.5
q0 -107 -60.5 -170t-158.5 -63zM236 0l301 737l278 699h88l-301 -738l-280 -698h-86z" />
    <glyph glyph-name="onesixth.alt" horiz-adv-x="1105" 
d="M424 723h-377v84h150v526l-148 -73v98l164 82h78v-633h133v-84zM885 -8q-71 0 -119 45q-74 74 -74 270v27q0 201 63 293t173 92q57 0 102 -25l-2 -96q-44 33 -98 33q-63 0 -99.5 -56.5t-42.5 -162.5q56 45 119 45q73 0 122.5 -56t49.5 -170q0 -109 -54 -174t-140 -65z
M887 78q47 0 73.5 40.5t26.5 112.5t-27.5 107t-72.5 35q-58 0 -99 -47v-47q0 -113 26.5 -157t72.5 -44zM246 0l301 737l278 699h88l-301 -738l-280 -698h-86z" />
    <glyph glyph-name="oneeighth.alt" horiz-adv-x="1105" 
d="M422 723h-377v84h150v526l-148 -73v98l164 82h78v-633h133v-84zM883 -8q-91 0 -145 53t-54 145q0 62 28 109.5t76 71.5q-40 24 -64 66t-24 95q0 89 52 138t131 49t130.5 -49t51.5 -138q0 -53 -24 -95t-64 -66q48 -24 76 -70.5t28 -107.5q0 -92 -53.5 -146.5t-144.5 -54.5
zM883 641q-43 0 -67.5 -29.5t-24.5 -83.5t24.5 -86t67.5 -32t67.5 32t24.5 86t-24.5 83.5t-67.5 29.5zM883 328q-47 0 -77 -36.5t-30 -96.5q0 -56 29 -90.5t78 -34.5t77.5 34.5t28.5 90.5q0 60 -29.5 96.5t-76.5 36.5zM244 0l301 737l278 699h88l-301 -738l-280 -698h-86z
" />
    <glyph glyph-name="zero.tab" 
d="M369 -18q-156 0 -232 169t-76 541v45q0 372 75.5 543.5t232.5 171.5t232 -169t75 -542v-45q0 -371 -76 -542.5t-231 -171.5zM369 1329q-93 0 -134.5 -138t-41.5 -452v-43q0 -311 42.5 -451.5t133.5 -140.5q90 0 133 139.5t43 450.5v43q0 311 -42.5 451.5t-133.5 140.5z
" />
    <glyph glyph-name="one.tab" 
d="M690 0h-602v119h252v1163l-246 -152v142l273 164h104v-1317h219v-119z" />
    <glyph glyph-name="two.tab" 
d="M664 0h-601v100l336 643q63 123 90 208.5t27 160.5q0 97 -48.5 152t-129.5 55q-66 0 -123 -34.5t-119 -98.5v145q111 121 260 121q129 0 212 -90t83 -232v-8q0 -94 -31 -187.5t-104 -236.5l-295 -567h443v-131z" />
    <glyph glyph-name="three.tab" 
d="M297 -18q-138 0 -229 81v136q103 -90 219 -90q114 0 177.5 76.5t63.5 217.5v13q0 142 -82 210t-239 79h-6l-2 90l301 505h-428v134h581v-105l-317 -524q328 -64 328 -383v-14q0 -198 -101.5 -312t-265.5 -114z" />
    <glyph glyph-name="three.tab_alt" 
d="M299 -18q-143 0 -233 75v136q43 -36 103.5 -61.5t121.5 -25.5q110 0 172.5 76.5t62.5 216.5q0 139 -83.5 210.5t-239.5 76.5h-8v115h8q143 11 229 91.5t86 213.5q0 103 -54.5 162t-146.5 59q-118 0 -229 -100v133q39 39 104 65.5t144 26.5q146 0 230.5 -92t84.5 -242
q0 -137 -70 -229t-182 -137q121 -37 189.5 -127t68.5 -232q0 -186 -97.5 -298.5t-260.5 -112.5z" />
    <glyph glyph-name="four.tab" 
d="M469 0v313h-422l-2 105l395 1024h150v-1014h108v-115h-108v-313h-121zM469 428v770h-10l-297 -770h307z" />
    <glyph glyph-name="five.tab" 
d="M301 -18q-60 0 -117.5 20t-93.5 53v135q97 -81 205 -81q114 0 172.5 91t58.5 251v6q0 149 -57.5 217.5t-151.5 68.5q-80 0 -147 -51l-80 53l33 689h483v-129h-375l-22 -471q56 34 137 34q135 0 224 -102.5t89 -306.5v-8q0 -212 -97.5 -340.5t-260.5 -128.5z" />
    <glyph glyph-name="six.tab" 
d="M410 903q118 0 196 -106.5t78 -323.5v-14q0 -214 -83 -345.5t-216 -131.5q-101 0 -168 67q-137 134 -137 569v54q0 780 369 780q76 0 151 -41v-133q-75 47 -145 47q-64 0 -112 -42.5t-75 -118t-41 -162.5t-16 -191q92 92 199 92zM387 102q80 0 125 97.5t45 255.5v16
q0 157 -47.5 236t-124.5 79q-51 0 -91.5 -25t-82.5 -73v-129q0 -128 14 -220t39.5 -142t55.5 -72.5t67 -22.5z" />
    <glyph glyph-name="seven.tab" 
d="M524 1300h-452v134h585v-105l-376 -1329h-134z" />
    <glyph glyph-name="eight.tab" 
d="M369 -18q-140 0 -220.5 105.5t-80.5 285.5v14q0 128 48 223.5t130 137.5q-156 88 -156 329v13q0 170 77.5 266t201.5 96t201 -96t77 -266v-13q0 -241 -155 -329q82 -42 130 -137.5t48 -223.5v-14q0 -180 -80.5 -285.5t-220.5 -105.5zM369 797q71 0 111 77t40 197v10
q0 123 -39.5 190.5t-111.5 67.5t-112 -67.5t-40 -190.5v-10q0 -120 40.5 -197t111.5 -77zM369 94q84 0 130 77t46 208v8q0 136 -48.5 217.5t-127.5 81.5t-127.5 -81.5t-48.5 -217.5v-8q0 -131 46 -208t130 -77z" />
    <glyph glyph-name="nine.tab" 
d="M336 518q-119 0 -198 107t-79 327v17q0 217 83 350t218 133q97 0 168 -68q138 -138 138 -569v-53q0 -780 -369 -780q-78 0 -174 47v133q95 -53 168 -53q63 0 110 42t74 114.5t41 157t16 183.5q-94 -88 -196 -88zM358 1331q-80 0 -125 -99.5t-45 -258.5v-17
q0 -160 48 -241.5t124 -81.5q50 0 89.5 24t85.5 74v143q0 127 -14.5 219t-40 142.5t-55.5 73t-67 22.5z" />
    <glyph glyph-name="dollar.tab" 
d="M469 1597l-10 -159q93 -15 174 -66v-139q-110 69 -182 82l-31 -527q143 -110 202.5 -204t59.5 -222v-4q0 -153 -88 -254.5t-227 -113.5l-13 -217h-96l12 219q-104 11 -213 82v137q120 -84 224 -96l32 575q-131 93 -192.5 184.5t-61.5 223.5v4q0 141 85 234.5t218 105.5
l11 155h96zM549 354v4q0 83 -33 146t-110 125l-29 -512q83 17 128.5 81t43.5 156zM190 1106v-4q0 -79 33 -134.5t103 -115.5l28 465q-74 -14 -119.5 -71t-44.5 -140z" />
    <glyph glyph-name="sterling.tab" 
d="M176 760v313q0 195 98 293q85 82 218 82q97 0 159 -43l-4 -129q-62 47 -145 47q-77 0 -131 -51q-62 -65 -62 -199v-313h279v-117h-279v-522h389v-121h-626v76l104 41v526h-110v117h110z" />
    <glyph glyph-name="Euro.tab" 
d="M25 838v102h122q30 246 132.5 376t246.5 130q81 0 146 -39v-137q-74 47 -140 47q-94 0 -159.5 -97t-89.5 -280h282v-102h-293q-2 -33 -2 -101v-41q0 -59 2 -90h293v-102h-284q24 -194 90.5 -290.5t165.5 -96.5q75 0 139 51v-135q-68 -45 -160 -45q-144 0 -242.5 130.5
t-128.5 385.5h-120v102h112q-2 31 -2 90v41q0 68 2 101h-112z" />
    <glyph glyph-name="yen.tab" 
d="M106 369h199v180h-199v104h177l-260 781h139l209 -691l209 691h135l-262 -781h178v-104h-199v-180h199v-105h-199v-264h-127v264h-199v105z" />
    <glyph glyph-name="cent.tab" 
d="M463 1442v-170q103 -8 184 -76v-133q-86 78 -184 86v-862q97 8 184 88v-127q-75 -75 -184 -86v-172h-94v178q-134 25 -206.5 158.5t-72.5 373.5v33q0 236 73 369.5t206 163.5v176h94zM219 737v-41q0 -331 150 -395v832q-150 -64 -150 -396z" />
    <glyph glyph-name="numbersign.tab" 
d="M31 489h129l33 463h-123v121h131l26 361h95l-27 -361h199l26 361h94l-26 -361h121v-121h-129l-33 -463h123v-120h-131l-27 -369h-94l24 369h-198l-25 -369h-94l27 369h-121v120zM285 952l-33 -463h199l34 463h-200z" />
    <glyph glyph-name="paragraph.tab" 
d="M489 0v512h-6q-206 5 -322 125.5t-116 335.5v4q0 218 123 337.5t334 119.5h123v-1434h-136z" />
    <glyph glyph-name="section.tab" 
d="M330 -16q-90 0 -180 41l2 129q103 -54 174 -54q70 0 107.5 34.5t37.5 90.5v4q0 58 -43 102t-149 109q-131 76 -185.5 140t-54.5 153v4q0 168 211 258q-57 47 -83 95t-26 108v4q0 111 73 179.5t194 68.5q90 0 180 -41l-2 -129q-101 53 -174 53q-70 0 -108 -34.5t-38 -90.5
v-4q0 -58 43 -102t150 -109q131 -75 185 -139.5t54 -153.5v-4q0 -168 -211 -258q57 -48 83 -95t26 -107v-5q0 -111 -72.5 -179t-193.5 -68zM387 899l-61 37q-166 -69 -166 -188v-5q0 -54 40 -98t150 -110l62 -37q166 69 166 188v4q0 52 -41.5 98t-149.5 111z" />
    <glyph glyph-name="degree.tab" 
d="M369 653q-115 0 -190 105.5t-75 281.5v21q0 176 75 281.5t190 105.5t189.5 -105.5t74.5 -281.5v-21q0 -176 -74.5 -281.5t-189.5 -105.5zM369 754q75 0 118 75.5t43 210.5v21q0 135 -43 212t-118 77t-118.5 -77t-43.5 -212v-21q0 -134 43.5 -210t118.5 -76z" />
    <glyph glyph-name="percent.tab" 
d="M616 1434h84l-299 -732h-4l-276 -702h-84l299 729h4zM211 1354q-94 0 -94 -236v-26q0 -238 94 -238t94 238v26q0 236 -94 236zM211 1444q91 0 139.5 -86t48.5 -240v-26q0 -151 -49 -239.5t-139 -88.5q-91 0 -141 87t-50 241v24q0 154 50 241t141 87zM526 670
q91 0 141 -87t50 -241v-25q0 -154 -50 -240.5t-141 -86.5t-139.5 85.5t-48.5 239.5v27q0 151 49 239.5t139 88.5zM526 580q-94 0 -94 -238v-27q0 -235 94 -235q95 0 95 235v27q0 238 -95 238z" />
    <glyph glyph-name="quotedbl.tab" 
d="M442 893l31 541h143l-2 -19l-118 -522h-54zM154 893l28 541h146l-2 -19l-119 -522h-53z" />
    <glyph glyph-name="quotesingle.tab" horiz-adv-x="368" 
d="M121 893l31 541h143l-2 -19l-117 -522h-55z" />
    <glyph glyph-name="period.tab" horiz-adv-x="368" 
d="M96 0v217h176v-217h-176z" />
    <glyph glyph-name="comma.tab" horiz-adv-x="368" 
d="M80 -242l-25 64q129 47 119 178h-78v217h176v-186q0 -113 -45 -175t-147 -98z" />
    <glyph glyph-name="colon.tab" horiz-adv-x="368" 
d="M96 862v217h176v-217h-176zM96 0v217h176v-217h-176z" />
    <glyph glyph-name="semicolon.tab" horiz-adv-x="368" 
d="M96 862v217h176v-217h-176zM80 -242l-25 64q129 47 119 178h-78v217h176v-186q0 -113 -45 -175t-147 -98z" />
    <glyph glyph-name="twodotleader.tab" 
d="M467 0v209h172v-209h-172zM98 0v209h172v-209h-172z" />
    <glyph glyph-name="periodcentered.tab" horiz-adv-x="368" 
d="M96 508v217h176v-217h-176z" />
    <glyph glyph-name="slash.tab" 
d="M678 1575l-533 -1778h-112l532 1778h113z" />
    <glyph glyph-name="bar.tab" horiz-adv-x="368" 
d="M131 -203v1778h107v-1778h-107z" />
    <glyph glyph-name="underscore.tab" 
d="M-4 -319v104h745v-104h-745z" />
    <glyph glyph-name="plus.tab" 
d="M676 662h-248v-259h-119v259h-248v118h248v258h119v-258h248v-118z" />
    <glyph glyph-name="minus.tab" 
d="M674 655h-611v131h611v-131z" />
    <glyph glyph-name="divide.tab" 
d="M297 922v170h143v-170h-143zM674 657h-611v127h611v-127zM297 350v170h143v-170h-143z" />
    <glyph glyph-name="equal.tab" 
d="M666 817h-594v127h594v-127zM666 498h-594v127h594v-127z" />
    <glyph glyph-name="multiply.tab" 
d="M559 420l-190 213l-191 -213l-90 76l203 225l-203 225l90 76l191 -213l190 213l90 -76l-203 -225l203 -225z" />
    <glyph glyph-name="less.tab" 
d="M635 324l-553 340v114l553 340v-151l-416 -246l416 -246v-151z" />
    <glyph glyph-name="greater.tab" 
d="M655 664l-553 -340v151l416 246l-416 246v151l553 -340v-114z" />
    <glyph glyph-name="plusminus.tab" 
d="M676 666h-248v-258h-119v258h-248v120h248v256h119v-256h248v-120zM674 137h-611v121h611v-121z" />
    <glyph glyph-name="R_p" horiz-adv-x="1374" 
d="M86 0v1434h168q178 0 282.5 -112.5t104.5 -324.5v-8q0 -296 -201 -399l224 -590h-140l-209 553q-28 -4 -47 -4h-57v-549h-125zM211 662h57q115 0 181.5 85t66.5 242v6q0 162 -71 242t-195 80h-39v-655zM760 -266v1353h123v-178q78 195 196 195q104 0 174 -139.5
t70 -397.5v-53q0 -255 -70 -392.5t-174 -137.5q-119 0 -196 186v-436h-123zM1047 96q69 0 110 110.5t41 309.5v49q0 200 -41 313t-110 113t-118.5 -114.5t-49.5 -305.5v-61q0 -190 49 -302t119 -112z" />
    <glyph glyph-name="hcoslug" horiz-adv-x="1421" 
d="M506 37h53q3 45 -39 45q-19 0 -30 -11.5t-11 -31.5q3 -41 43 -41q31 0 37 29h-14q-3 -15 -19 -15q-20 0 -20 25zM520 72q15 0 15 -25h-29q0 25 14 25zM399 160q-16 0 -16 33q0 30 16 30q17 0 17 -30q0 -33 -17 -33zM430 8q-16 0 -16 33q0 31 16 31t16 -31q0 -33 -16 -33z
M430 -2q19 0 31 12t12 31t-12 30t-31 11t-31 -11t-12 -30q0 -20 12 -31.5t31 -11.5zM1118 8q-16 0 -16 33q0 31 16 31q17 0 17 -31q0 -33 -17 -33zM1118 -2q19 0 31 12t12 31t-12 30t-31 11t-31 -11t-12 -30q0 -20 12 -31.5t31 -11.5zM256 166v-14h61v14h-20v33h8
q9 0 12 -17h15v47h-15q-3 -16 -12 -16h-8v37h25q10 0 13.5 -4.5t8.5 -22.5h16v41h-104v-14h14v-84h-14zM399 150q19 0 31 12t12 31q0 18 -12 29t-31 11t-31 -11t-12 -29q0 -20 12 -31.5t31 -11.5zM1319 1434v-1639h-1217v1639h1217zM1020 -2q46 0 49 47h-16q-3 -33 -29 -33
q-33 0 -33 45t29 45q23 0 31 -32h16v45h-16l-2 -13q-15 15 -33 15q-24 0 -39.5 -16.5t-15.5 -45.5q0 -57 59 -57zM762 164q-17 0 -17 26q0 27 17 27q14 0 14 -27q0 -26 -14 -26zM565 14v-14h47v14h-10v52h29v-52h-10v-14h47v14h-13v107l-20 -4q-12 4 -19 4q-38 0 -38 -39v-2
h-15v-14h15v-52h-13zM754 14v-14h53v14h-16v33q9 19 14 19v-3q0 -12 12 -12q14 0 14 15q0 16 -16 16q-14 0 -24 -23v21h-37v-14h12v-52h-12zM721 256v-106h12l8 16q10 -16 29 -16q17 0 25 13.5t8 29.5q0 40 -31 40q-21 0 -27 -18v55h-36v-14h12zM819 154q-14 0 -14 -15
q0 -18 22 -18q26 0 37 33l27 63h10v14h-35v-14h11l-17 -41l-18 41h12v14h-51v-14h10q5 -16 12 -27l21 -40q-3 -17 -17 -17q5 5 2.5 13t-12.5 8zM506 877q0 26 15 42.5t40 16.5q26 0 43 -21.5t17 -56.5q0 -46 -37 -102l-10 10q-26 26 -37.5 38.5t-21 32t-9.5 40.5zM618 180
v-28h15l2 8q10 -10 27 -10q28 0 28 26q0 19 -24.5 25t-24.5 12q0 8 10 8q13 0 21 -14h14v26h-12l-4 -10q-7 10 -23 10q-29 0 -29 -24q0 -19 25 -26t25 -13q0 -8 -11 -8q-12 0 -24 18h-15zM535 449q-47 0 -77 31t-30 79q0 49 33 82q62 -56 151 -168q-30 -24 -77 -24zM586 254
l-25 -4v-19h-14v-14h14v-41q0 -26 25 -26q22 0 28 26l-10 4q-3 -14 -10 -14q-8 0 -8 10v41h26v14h-26v23zM877 627q30 -52 88 -52q43 0 72.5 32t29.5 79t-29.5 77t-72.5 30q-69 0 -123 -78q-9 79 -101 76q19 32 19 69q0 60 -52.5 106t-142.5 46q-99 0 -161 -51.5t-62 -122.5
q0 -42 15 -73.5t49 -68.5q-168 -58 -168 -186q0 -81 65 -136t158 -55q129 0 213 93q50 -53 88 -73t86 -20q68 0 114 52t50 141l-15 4q-20 -30 -39 -44.5t-49 -14.5t-59 19.5t-68 64.5q42 55 95 86zM449 166v-14h45v14h-9v31q0 20 15 20q12 0 12 -14v-37h-8v-14h45v14h-12v39
q0 28 -25 28q-20 0 -29 -22v20h-34v-14h12v-51h-12zM950 68h-37v-15h13q-2 -7 -13 -18l-24 26q22 9 22 25q0 25 -28 25q-17 0 -26 -8t-9 -21t12 -25q-26 -9 -26 -30q0 -29 36 -29q19 0 31 12q9 -12 25 -12q20 0 26 25l-10 2q-4 -11 -8 -11q-5 0 -12 11q10 11 18 28h10v15z
M879 12q-21 0 -21 21q0 10 8 18q19 -19 29 -33q-9 -6 -16 -6zM602 80v6q0 25 12 25q5 0 7 -2q-3 -3 -3 -9q0 -10 13 -10v-10h-29zM870 88q0 10 11 10q12 0 12 -12q0 -11 -10 -18q-13 13 -13 20zM639 700q57 38 86 70q23 -23 29 -49t-2 -52.5t-29 -62.5q-68 78 -84 94z
M696 37h54q3 45 -39 45q-17 0 -29 -12t-12 -31q0 -41 43 -41q27 0 37 29h-15q-3 -15 -18 -15q-21 0 -21 25zM711 72q14 0 14 -25h-29q0 25 15 25zM254 14v-14h59v14h-16v37h45v-37h-16v-14h59v14h-16v84h16v15h-59v-15h16v-32h-45v32h16v15h-59v-15h16v-84h-16zM1180 27
q-15 0 -15 -15q0 -14 15 -14q14 0 14 14q0 15 -14 15z" />
    <glyph glyph-name="space.tab" horiz-adv-x="368" 
 />
    </font>
</defs>
</svg>
