<?xml version="1.0" standalone="no"?>
<!DOCTYPE svg PUBLIC "-//W3C//DTD SVG 1.1//EN" "http://www.w3.org/Graphics/SVG/1.1/DTD/svg11.dtd" >
<svg xmlns="http://www.w3.org/2000/svg" xmlns:xlink="http://www.w3.org/1999/xlink" version="1.1">
<metadata>
Created by FontForge 20201107 at Wed May 29 09:57:40 2024
 By 
Copyright (C) 2001, 2011 Hoefler &#38; Co. http://www.typography.com |DCNT
</metadata>
<defs>
<font id="GothamNarrow-Medium" horiz-adv-x="722" >
  <font-face 
    font-family="Gotham Narrow Medium"
    font-weight="500"
    font-stretch="semi-condensed"
    units-per-em="2048"
    panose-1="0 0 0 0 0 0 0 0 0 0"
    ascent="1638"
    descent="-410"
    x-height="1085"
    cap-height="1434"
    bbox="-406 -520 2171 2017"
    underline-thickness="102"
    underline-position="-204"
    unicode-range="U+0020-FB04"
  />
<missing-glyph horiz-adv-x="1024" 
d="M0 -410v2048h1024v-2048h-1024zM145 1536l367 -799l367 799h-734zM102 -156l353 770l-353 770v-1540zM922 1384l-353 -770l353 -770v1540zM512 492l-367 -799h734z" />
    <glyph glyph-name="f_f" unicode="ff" horiz-adv-x="1347" 
d="M178 0v887h-119v192h119v84q0 166 82 248q84 78 227 78q87 0 164 -23v-194q-70 18 -112 18q-129 0 -129 -149v-62h237v-192h-235v-887h-234zM854 0v887h-119v192h119v84q0 169 82 248q78 78 225 78q87 0 164 -23v-194q-70 18 -113 18q-129 0 -129 -149v-62h240v-192h-238
v-887h-231z" />
    <glyph glyph-name="fi" unicode="fi" horiz-adv-x="1191" 
d="M178 0v887h-119v192h119v84q0 166 82 248q84 78 227 78q87 0 164 -23v-194q-70 18 -112 18q-129 0 -129 -149v-62h239v-192h-237v-887h-234zM817 0v1085h234v-1085h-234zM811 1243v227h246v-227h-246z" />
    <glyph glyph-name="fl" unicode="fl" horiz-adv-x="1191" 
d="M178 0v887h-119v192h119v84q0 166 82 248q84 78 227 78q87 0 164 -23v-194q-70 18 -112 18q-129 0 -129 -149v-62h239v-192h-237v-887h-234zM817 0v1479h234v-1479h-234z" />
    <glyph glyph-name="f_f_i" unicode="ffi" horiz-adv-x="1863" 
d="M178 0v887h-119v192h119v84q0 166 82 248q84 78 227 78q87 0 164 -23v-194q-70 18 -112 18q-129 0 -129 -149v-62h237v-192h-235v-887h-234zM854 0v887h-119v192h119v84q0 169 82 248q78 78 225 78q87 0 164 -23v-194q-70 18 -113 18q-129 0 -129 -149v-62h240v-192h-238
v-887h-231zM1491 0v1085h231v-1085h-231zM1483 1243v227h246v-227h-246z" />
    <glyph glyph-name="f_f_l" unicode="ffl" horiz-adv-x="1863" 
d="M178 0v887h-119v192h119v84q0 166 82 248q84 78 227 78q87 0 164 -23v-194q-70 18 -112 18q-129 0 -129 -149v-62h237v-192h-235v-887h-234zM854 0v887h-119v192h119v84q0 169 82 248q78 78 225 78q87 0 164 -23v-194q-70 18 -113 18q-129 0 -129 -149v-62h240v-192h-238
v-887h-231zM1491 0v1479h231v-1479h-231z" />
    <glyph glyph-name=".notdef" horiz-adv-x="1024" 
d="M0 -410v2048h1024v-2048h-1024zM145 1536l367 -799l367 799h-734zM102 -156l353 770l-353 770v-1540zM922 1384l-353 -770l353 -770v1540zM512 492l-367 -799h734z" />
    <glyph glyph-name=".null" horiz-adv-x="0" 
 />
    <glyph glyph-name="nonmarkingreturn" horiz-adv-x="682" 
 />
    <glyph glyph-name="space" unicode=" " horiz-adv-x="471" 
 />
    <glyph glyph-name="exclam" unicode="!" horiz-adv-x="565" 
d="M219 444l-74 918v72h275v-72l-74 -918h-127zM152 0v272h262v-272h-262z" />
    <glyph glyph-name="quotedbl" unicode="&#x22;" horiz-adv-x="886" 
d="M520 823l31 611h258v-13l-178 -598h-111zM113 823l34 611h259v-13l-179 -598h-114z" />
    <glyph glyph-name="numbersign" unicode="#" horiz-adv-x="1239" 
d="M1108 537v-203h-211l-49 -334h-193l47 334h-282l-47 -334h-193l49 334h-163v203h192l53 368h-182v203h213l47 326h193l-47 -326h280l47 326h195l-47 -326h161v-203h-192l-53 -368h182zM502 909l-56 -377h291l56 377h-291z" />
    <glyph glyph-name="dollar" unicode="$" horiz-adv-x="1134" 
d="M1012 1278l-123 -176q-124 99 -234 123v-404q204 -78 294.5 -178.5t90.5 -249.5v-4q0 -157 -104.5 -263t-273.5 -126v-205h-166v205q-244 25 -426 195l131 174q139 -130 299 -162v422q-200 75 -287.5 171t-87.5 249v2q0 153 102 258t269 125v127h166v-129
q199 -21 350 -154zM811 381v2q0 63 -33.5 105.5t-122.5 82.5v-368q75 17 115.5 63.5t40.5 114.5zM352 1065v-2q0 -61 31.5 -101.5t116.5 -80.5v348q-72 -17 -111 -60.5t-37 -103.5z" />
    <glyph glyph-name="percent" unicode="%" horiz-adv-x="1554" 
d="M387 715q-135 0 -219 101t-84 255v14q0 157 86 261t221 104q133 0 218 -102.5t85 -257.5v-15q0 -154 -86 -257t-221 -103zM387 1296q-61 0 -97 -58t-36 -151v-10q0 -96 38 -153.5t99 -57.5t97 58t36 151v10q0 93 -38.5 152t-98.5 59zM721 754l432 680h182l-501 -756
l-433 -678h-178zM1163 -16q-133 0 -217 102t-84 258v14q0 155 85.5 258t219.5 103q133 0 218 -102t85 -255v-14q0 -157 -85.5 -260.5t-221.5 -103.5zM1167 137q62 0 97.5 57.5t35.5 151.5v10q0 96 -37.5 153.5t-99.5 57.5q-59 0 -95 -58t-36 -151v-8q0 -97 37 -155t98 -58z
" />
    <glyph glyph-name="ampersand" unicode="&#x26;" horiz-adv-x="1259" 
d="M1040 -27l-157 181q-174 -174 -391 -174q-183 0 -304.5 111t-121.5 288v6q0 263 280 412q-63 88 -92 161.5t-29 149.5v6q0 142 103.5 243t269.5 101q157 0 253.5 -95t96.5 -237v-6q0 -129 -74 -220.5t-212 -158.5l221 -264q61 107 118 260l183 -78q-69 -189 -164 -340
l194 -225zM543 879q194 86 194 231v4q0 68 -40 111t-103 43q-67 0 -109.5 -46t-42.5 -114v-4q0 -53 22.5 -102.5t78.5 -122.5zM518 180q122 0 238 119l-285 346q-168 -92 -168 -250v-4q0 -94 59.5 -152.5t155.5 -58.5z" />
    <glyph glyph-name="quotesingle" unicode="'" horiz-adv-x="485" 
d="M113 823l34 611h261v-13l-179 -598h-116z" />
    <glyph glyph-name="parenleft" unicode="(" horiz-adv-x="802" 
d="M729 -131l-92 -154q-522 268 -522 873v2q0 298 130.5 518.5t391.5 353.5l92 -151q-197 -129 -290 -305t-93 -418v-2q0 -237 93.5 -414t289.5 -303z" />
    <glyph glyph-name="parenright" unicode=")" horiz-adv-x="802" 
d="M168 -285l-92 154q197 128 290 304t93 415v2q0 240 -93.5 417t-289.5 304l92 151q522 -272 522 -874v-2q0 -296 -131.5 -516t-390.5 -355z" />
    <glyph glyph-name="asterisk" unicode="*" horiz-adv-x="796" 
d="M328 799l28 243l-190 -145l-72 123l221 96l-221 96l72 125l190 -145l-28 246h141l-29 -246l191 145l71 -125l-221 -96l221 -96l-71 -123l-191 145l29 -243h-141z" />
    <glyph glyph-name="plus" unicode="+" horiz-adv-x="1134" 
d="M459 264v350h-346v213h346v351h219v-351h346v-213h-346v-350h-219z" />
    <glyph glyph-name="comma" unicode="," horiz-adv-x="509" 
d="M88 -297l-25 100q179 39 166 197h-104v272h262v-229q0 -161 -74 -241.5t-225 -98.5z" />
    <glyph glyph-name="hyphen" unicode="-" horiz-adv-x="778" 
d="M104 512v229h572v-229h-572z" />
    <glyph glyph-name="period" unicode="." horiz-adv-x="509" 
d="M125 0v272h262v-272h-262z" />
    <glyph glyph-name="slash" unicode="/" horiz-adv-x="927" 
d="M-41 -244l782 1860h201l-782 -1860h-201z" />
    <glyph glyph-name="zero" unicode="0" horiz-adv-x="1284" 
d="M641 -25q-247 0 -394 201t-147 529v22q0 216 66.5 381.5t190.5 257.5t288 92q161 0 284 -91.5t190 -257t67 -380.5v-22q0 -327 -149.5 -529.5t-395.5 -202.5zM645 193q136 0 216.5 138t80.5 376v16q0 238 -82.5 378t-218.5 140t-216.5 -138t-80.5 -376v-16
q0 -238 82 -378t219 -140z" />
    <glyph glyph-name="one" unicode="1" horiz-adv-x="714" 
d="M311 0v1196l-225 -70l-39 209l332 109h166v-1444h-234z" />
    <glyph glyph-name="two" unicode="2" horiz-adv-x="1095" 
d="M88 0v190l438 467q126 135 174 213t48 160q0 96 -58 150.5t-151 54.5q-83 0 -147.5 -42.5t-139.5 -139.5l-156 143q91 129 202 193.5t261 64.5q191 0 310.5 -110t119.5 -293v-4q0 -73 -16 -133.5t-56 -123.5t-90.5 -121.5t-134.5 -142.5l-289 -311h592v-215h-907z" />
    <glyph glyph-name="three" unicode="3" horiz-adv-x="1091" 
d="M520 -25q-279 0 -459 199l148 168q65 -72 138 -109.5t171 -37.5q102 0 169 62.5t67 164.5v4q0 111 -86 170t-240 59h-72l-30 150l348 414h-541v215h838v-187l-365 -413q79 -13 145 -41.5t121 -75.5t86 -119.5t31 -163.5v-6q0 -200 -132 -326.5t-337 -126.5z" />
    <glyph glyph-name="four" unicode="4" horiz-adv-x="1214" 
d="M727 0v309h-633l-33 174l682 959h209v-932h183v-201h-183v-309h-225zM324 510h403v575z" />
    <glyph glyph-name="five" unicode="5" horiz-adv-x="1105" 
d="M518 -25q-253 0 -442 183l135 176q77 -68 150 -102.5t155 -34.5q116 0 186 69.5t70 186.5v2q0 114 -73 178.5t-191 64.5q-109 0 -217 -53l-139 92l38 697h758v-215h-557l-22 -342q77 32 190 32q93 0 173 -27t142.5 -80t98 -139t35.5 -196v-6q0 -219 -136.5 -352.5
t-353.5 -133.5z" />
    <glyph glyph-name="six" unicode="6" horiz-adv-x="1177" 
d="M602 -25q-205 0 -336 131q-82 82 -124 213t-42 343v14q0 365 146 573.5t409 208.5q108 0 194 -33t173 -100l-117 -188q-124 102 -256 102q-74 0 -133 -36.5t-95.5 -100.5t-56.5 -144.5t-22 -173.5q121 131 301 131q88 0 166.5 -29t139 -83.5t95.5 -140.5t35 -193v-4
q0 -214 -137 -352t-340 -138zM598 186q115 0 180.5 74t65.5 193v4q0 118 -66.5 188t-181.5 70q-112 0 -180 -71t-68 -187v-2q0 -120 67.5 -194.5t182.5 -74.5z" />
    <glyph glyph-name="seven" unicode="7" horiz-adv-x="1081" 
d="M184 0l551 1217h-624v217h882v-179l-551 -1255h-258z" />
    <glyph glyph-name="eight" unicode="8" horiz-adv-x="1138" 
d="M569 -20q-213 0 -350 112t-137 295v6q0 244 233 350q-190 106 -190 320v8q0 165 126.5 274t317.5 109q192 0 319.5 -108.5t127.5 -274.5v-8q0 -208 -193 -320q234 -116 234 -346v-8q0 -186 -137.5 -297.5t-350.5 -111.5zM569 829q95 0 157 61t62 157v4q0 92 -61 149
t-158 57t-158 -57t-61 -149v-4q0 -96 62 -157t157 -61zM569 178q116 0 186 63t70 162v5q0 102 -72.5 164.5t-183.5 62.5q-112 0 -183 -62t-71 -165v-5q0 -100 69 -162.5t185 -62.5z" />
    <glyph glyph-name="nine" unicode="9" horiz-adv-x="1175" 
d="M526 195q74 0 133.5 36.5t96.5 99t57.5 140.5t22.5 166q-119 -135 -299 -135q-194 0 -317.5 121t-123.5 333v7q0 215 135.5 355t341.5 140q205 0 338 -133q80 -83 123 -213t43 -340v-14q0 -368 -148 -575.5t-407 -207.5q-111 0 -204 37t-185 109l117 188
q139 -114 276 -114zM580 705q114 0 180.5 72.5t66.5 191.5v4q0 124 -68 199t-184 75q-113 0 -178 -76.5t-65 -197.5v-4q0 -122 67.5 -193t180.5 -71z" />
    <glyph glyph-name="colon" unicode=":" horiz-adv-x="530" 
d="M135 813v272h262v-272h-262zM135 0v272h262v-272h-262z" />
    <glyph glyph-name="semicolon" unicode=";" horiz-adv-x="530" 
d="M135 813v272h262v-272h-262zM98 -297l-24 100q179 39 166 197h-105v272h262v-229q0 -161 -74 -241.5t-225 -98.5z" />
    <glyph glyph-name="less" unicode="&#x3c;" horiz-adv-x="1134" 
d="M983 188l-868 428v211l868 426v-235l-633 -295l633 -297v-238z" />
    <glyph glyph-name="equal" unicode="=" horiz-adv-x="1134" 
d="M125 844v219h885v-219h-885zM125 379v219h885v-219h-885z" />
    <glyph glyph-name="greater" unicode="&#x3e;" horiz-adv-x="1136" 
d="M152 188v236l634 295l-634 297v237l870 -426v-211z" />
    <glyph glyph-name="question" unicode="?" horiz-adv-x="970" 
d="M358 444l-34 340l10 11q330 34 330 243v4q0 86 -58.5 138.5t-156.5 52.5q-149 0 -277 -135l-137 162q175 190 422 190q201 0 321.5 -109.5t120.5 -291.5v-2q0 -171 -99.5 -271t-264.5 -135l-21 -197h-156zM303 0v272h262v-272h-262z" />
    <glyph glyph-name="at" unicode="@" horiz-adv-x="1796" 
d="M899 -315q-227 0 -411 108t-289 300t-105 431q0 185 63.5 356.5t172 298.5t264 203t330.5 76q164 0 310 -62.5t248 -166.5t161 -242.5t59 -286.5q0 -253 -108.5 -407t-270.5 -154q-105 0 -172.5 42.5t-95.5 113.5q-119 -154 -287 -154q-133 0 -222 94.5t-89 251.5
q0 147 58.5 275t154.5 202t204 74q162 0 250 -153l23 125l188 -31l-92 -516q-10 -65 -10 -105q0 -61 34 -95t99 -34q106 0 181 132.5t75 340.5q0 131 -52.5 254t-143 217t-222 150.5t-280.5 56.5q-159 0 -300 -70t-239 -187t-154.5 -273.5t-56.5 -325.5q0 -218 92.5 -392.5
t259 -273t375.5 -98.5q130 0 233.5 29.5t211.5 93.5l38 -61q-114 -69 -229 -103t-256 -34zM823 307q82 0 148 66q48 48 78 125t30 157q0 94 -46 151.5t-126 57.5q-82 0 -147 -65q-46 -49 -76.5 -128t-30.5 -155q0 -99 44.5 -154t125.5 -55z" />
    <glyph glyph-name="A" unicode="A" horiz-adv-x="1380" 
d="M49 0l526 1442h230l526 -1442h-248l-118 338h-557l-119 -338h-240zM481 549h408l-203 575z" />
    <glyph glyph-name="B" unicode="B" horiz-adv-x="1273" 
d="M156 0v1434h512q243 0 366 -123q96 -96 96 -242v-6q0 -216 -210 -322q129 -45 200.5 -126.5t71.5 -215.5v-8q0 -186 -138.5 -288.5t-371.5 -102.5h-526zM895 1026v4q0 92 -63.5 142.5t-180.5 50.5h-264v-398h250q120 0 189 51.5t69 149.5zM956 416v4q0 95 -71.5 148
t-206.5 53h-291v-410h301q124 0 196 54t72 151z" />
    <glyph glyph-name="C" unicode="C" horiz-adv-x="1263" 
d="M727 -20q-182 0 -324 90t-221.5 256.5t-79.5 382.5v14q0 214 82.5 381t228.5 258.5t330 91.5q147 0 253.5 -47.5t197.5 -138.5l-143 -183q-74 72 -149 110t-167 38q-167 0 -277 -142.5t-110 -369.5v-6q0 -230 110.5 -372t278.5 -142q92 0 166 38t154 117l143 -170
q-102 -102 -212 -154t-261 -52z" />
    <glyph glyph-name="D" unicode="D" horiz-adv-x="1374" 
d="M156 0v1434h438q305 0 492.5 -195.5t187.5 -511.5v-18q0 -208 -84.5 -369t-239.5 -250.5t-356 -89.5h-438zM592 1219h-199v-1002h199q197 0 316.5 132.5t119.5 361.5v10q0 227 -120 362.5t-316 135.5z" />
    <glyph glyph-name="E" unicode="E" horiz-adv-x="1163" 
d="M156 0v1434h903v-215h-666v-390h590v-215h-590v-397h674v-217h-911z" />
    <glyph glyph-name="F" unicode="F" horiz-adv-x="1132" 
d="M156 0v1434h899v-220h-662v-401h586v-219h-586v-594h-237z" />
    <glyph glyph-name="G" unicode="G" horiz-adv-x="1372" 
d="M758 -20q-292 0 -474 199t-182 528v16q0 155 49.5 291t135.5 232.5t209 152t264 55.5q142 0 246.5 -39t207.5 -123l-143 -186q-68 61 -141 94t-174 33q-177 0 -292.5 -143.5t-115.5 -364.5v-12q0 -239 116 -377.5t304 -138.5q153 0 254 75v316h-301v209h528v-643
q-223 -174 -491 -174z" />
    <glyph glyph-name="H" unicode="H" horiz-adv-x="1349" 
d="M156 0v1434h237v-603h561v603h240v-1434h-240v610h-561v-610h-237z" />
    <glyph glyph-name="I" unicode="I" horiz-adv-x="571" 
d="M166 0v1434h240v-1434h-240z" />
    <glyph glyph-name="J" unicode="J" horiz-adv-x="972" 
d="M410 -18q-244 0 -379 190l149 164q50 -66 102 -98.5t121 -32.5q89 0 140 61.5t51 182.5v985h240v-996q0 -231 -119 -344q-112 -112 -305 -112z" />
    <glyph glyph-name="K" unicode="K" horiz-adv-x="1282" 
d="M156 0v1434h237v-705l557 705h283l-498 -617l522 -817h-282l-404 629l-178 -215v-414h-237z" />
    <glyph glyph-name="L" unicode="L" horiz-adv-x="1071" 
d="M156 0v1434h237v-1215h615v-219h-852z" />
    <glyph glyph-name="M" unicode="M" horiz-adv-x="1542" 
d="M156 0v1434h247l369 -658l365 658h252v-1434h-236v1014l-381 -664h-6l-379 662v-1012h-231z" />
    <glyph glyph-name="N" unicode="N" horiz-adv-x="1394" 
d="M156 0v1434h219l633 -955v955h233v-1434h-203l-649 985v-985h-233z" />
    <glyph glyph-name="O" unicode="O" horiz-adv-x="1474" 
d="M737 -25q-186 0 -331 93.5t-224.5 259.5t-79.5 377v20q0 211 81 378.5t226.5 261t329.5 93.5q185 0 329.5 -93t224 -259t79.5 -377v-20q0 -211 -81 -378.5t-226 -261.5t-328 -94zM739 197q170 0 278.5 141t108.5 371v14q0 230 -109.5 372t-279.5 142q-172 0 -280.5 -141
t-108.5 -371v-14q0 -229 111 -371.5t280 -142.5z" />
    <glyph glyph-name="P" unicode="P" horiz-adv-x="1189" 
d="M156 0v1434h458q235 0 375.5 -128t140.5 -348v-4q0 -155 -71.5 -266t-189 -165.5t-269.5 -57.5h-207v-465h-237zM393 680h207q135 0 213 72.5t78 195.5v2q0 129 -76.5 199t-214.5 70h-207v-539z" />
    <glyph glyph-name="Q" unicode="Q" horiz-adv-x="1478" 
d="M1399 119l-146 -160l-149 139q-160 -123 -367 -123q-186 0 -331 93.5t-224.5 259.5t-79.5 377v20q0 211 81 378.5t226.5 261t329.5 93.5q185 0 329.5 -93t224 -259t79.5 -377v-20q0 -260 -127 -455zM743 195q111 0 197 57l-215 190l145 160l201 -188q55 126 55 293v18
q0 227 -109.5 369.5t-279.5 142.5q-172 0 -280.5 -139.5t-108.5 -370.5v-18q0 -234 110.5 -374t284.5 -140z" />
    <glyph glyph-name="R" unicode="R" horiz-adv-x="1280" 
d="M156 0v1434h518q247 0 383 -136q119 -119 119 -317v-6q0 -159 -80 -264.5t-217 -155.5l338 -555h-277l-303 506h-244v-506h-237zM393 719h256q138 0 212.5 66.5t74.5 183.5v2q0 122 -74 185t-211 63h-258v-500z" />
    <glyph glyph-name="S" unicode="S" horiz-adv-x="1124" 
d="M571 -18q-299 0 -518 206l144 179q90 -81 179.5 -125.5t196.5 -44.5q103 0 165.5 51.5t62.5 130.5v2q0 72 -57 123t-220 110q-109 42 -180 80t-126 89t-80 115t-25 149v4q0 177 125.5 289t326.5 112q261 0 451 -170l-135 -182q-164 137 -322 137q-96 0 -152.5 -46.5
t-56.5 -119.5v-2q0 -52 23.5 -88.5t88 -75t185.5 -84.5q206 -79 297.5 -174.5t91.5 -247.5v-4q0 -187 -130.5 -300t-334.5 -113z" />
    <glyph glyph-name="T" unicode="T" horiz-adv-x="1122" 
d="M442 0v1212h-376v222h993v-222h-379v-1212h-238z" />
    <glyph glyph-name="U" unicode="U" horiz-adv-x="1339" 
d="M668 -23q-245 0 -388 147.5t-143 424.5v885h238v-885q0 -170 79 -260t218 -90q138 0 216.5 87.5t78.5 256.5v891h237v-879q0 -282 -143.5 -430t-392.5 -148z" />
    <glyph glyph-name="V" unicode="V" horiz-adv-x="1310" 
d="M545 -8l-496 1442h258l352 -1082l353 1082h252l-498 -1442h-221z" />
    <glyph glyph-name="W" unicode="W" horiz-adv-x="1968" 
d="M477 -8l-418 1442h252l281 -1041l293 1045h205l294 -1045l279 1041h248l-418 -1442h-217l-293 1012l-291 -1012h-215z" />
    <glyph glyph-name="X" unicode="X" horiz-adv-x="1280" 
d="M936 1434h264l-422 -701l443 -733h-273l-311 549l-311 -549h-267l441 733l-420 701h272l289 -519z" />
    <glyph glyph-name="Y" unicode="Y" horiz-adv-x="1255" 
d="M508 0v571l-481 863h270l334 -621l334 621h264l-481 -861v-573h-240z" />
    <glyph glyph-name="Z" unicode="Z" horiz-adv-x="1214" 
d="M109 0v176l704 1045h-682v213h979v-177l-704 -1044h704v-213h-1001z" />
    <glyph glyph-name="bracketleft" unicode="[" horiz-adv-x="821" 
d="M168 -266v1700h551v-179h-334v-1343h334v-178h-551z" />
    <glyph glyph-name="backslash" unicode="\" horiz-adv-x="927" 
d="M768 -244l-782 1860h200l783 -1860h-201z" />
    <glyph glyph-name="bracketright" unicode="]" horiz-adv-x="821" 
d="M104 -266v178h332v1343h-332v179h551v-1700h-551z" />
    <glyph glyph-name="asciicircum" unicode="^" horiz-adv-x="987" 
d="M147 1022l261 408h172l260 -408h-172l-176 262l-177 -262h-168z" />
    <glyph glyph-name="underscore" unicode="_" horiz-adv-x="1138" 
d="M-4 -324v183h1147v-183h-1147z" />
    <glyph glyph-name="grave" unicode="`" horiz-adv-x="1024" 
d="M516 1206l-235 224l204 98l199 -322h-168z" />
    <glyph glyph-name="a" unicode="a" horiz-adv-x="1048" 
d="M401 -20q-141 0 -237 89t-96 242v13q0 168 105.5 257t283.5 89q125 0 248 -45v47q0 109 -61 165t-173 56q-116 0 -260 -66l-68 185q175 86 359 86q210 0 319 -109t109 -315v-674h-228v133q-107 -153 -301 -153zM471 154q101 0 168.5 59.5t67.5 151.5v110q-88 37 -201 37
q-100 0 -155.5 -48t-55.5 -134v-6q0 -78 48.5 -123t127.5 -47z" />
    <glyph glyph-name="b" unicode="b" horiz-adv-x="1187" 
d="M680 -20q-74 0 -137.5 28t-102.5 65t-78 91v-164h-231v1479h231v-568q125 195 318 195q83 0 157.5 -34.5t134.5 -100.5t95 -173t35 -241v-27q0 -134 -34.5 -241t-94 -173t-134.5 -101t-159 -35zM616 184q109 0 180.5 94t71.5 254v19q0 159 -72.5 254.5t-179.5 95.5
q-108 0 -183 -96.5t-75 -251.5v-21q0 -155 75 -251.5t183 -96.5z" />
    <glyph glyph-name="c" unicode="c" horiz-adv-x="985" 
d="M569 -25q-212 0 -349.5 156t-137.5 397v21q0 245 140.5 401t355.5 156q111 0 193 -37.5t155 -110.5l-129 -170q-50 52 -101 80.5t-118 28.5q-116 0 -189.5 -97.5t-73.5 -252.5v-10q0 -158 75 -255.5t194 -97.5q67 1 117 29t104 82l125 -154q-73 -79 -158.5 -122.5
t-202.5 -43.5z" />
    <glyph glyph-name="d" unicode="d" horiz-adv-x="1187" 
d="M506 -20q-84 0 -158.5 34.5t-133.5 100.5t-93.5 172.5t-34.5 240.5v29q0 132 34.5 239t93.5 173.5t133.5 101.5t158.5 35q195 0 317 -186v559h234v-1479h-234v174q-123 -194 -317 -194zM569 184q109 0 184.5 96t75.5 252v21q0 156 -75.5 252t-184.5 96t-179.5 -94
t-70.5 -254v-18q0 -159 71.5 -255t178.5 -96z" />
    <glyph glyph-name="e" unicode="e" horiz-adv-x="1075" 
d="M578 -25q-104 0 -195 39.5t-157.5 110.5t-105 176t-38.5 231v15q0 244 131 401.5t332 157.5q144 0 247 -75t153 -202.5t50 -293.5q0 -47 -2 -80h-680q17 -134 92 -207.5t183 -73.5q74 0 133.5 29t116.5 86l120 -144q-160 -170 -380 -170zM311 614h457q-8 135 -65.5 216
t-157.5 81q-97 0 -159.5 -79t-74.5 -218z" />
    <glyph glyph-name="f" unicode="f" horiz-adv-x="671" 
d="M178 0v887h-119v192h119v84q0 166 82 248q84 78 227 78q87 0 164 -23v-194q-70 18 -112 18q-129 0 -129 -149v-62h239v-192h-237v-887h-234z" />
    <glyph glyph-name="g" unicode="g" horiz-adv-x="1187" 
d="M543 -313q-219 0 -412 102l78 182q145 -90 323 -90q293 0 293 285v104q-63 -90 -139 -140t-186 -50q-83 0 -157 33t-132 95.5t-91.5 161t-33.5 220.5v6q0 122 34.5 221t93 161t132 95t154.5 33q192 0 325 -182v161h232v-909q0 -238 -121 -362q-127 -127 -393 -127z
M569 281q109 0 184.5 86t75.5 225v2q0 139 -75.5 224t-184.5 85t-179.5 -83t-70.5 -226v-2q0 -141 71.5 -226t178.5 -85z" />
    <glyph glyph-name="h" unicode="h" horiz-adv-x="1114" 
d="M131 0v1479h231v-551q54 82 124.5 130t172.5 48q158 0 246 -100.5t88 -278.5v-727h-233v659q0 116 -50 177t-143 61q-92 0 -148.5 -64.5t-56.5 -175.5v-657h-231z" />
    <glyph glyph-name="i" unicode="i" horiz-adv-x="518" 
d="M135 1243v227h246v-227h-246zM141 0v1085h234v-1085h-234z" />
    <glyph glyph-name="j" unicode="j" horiz-adv-x="516" 
d="M135 1243v227h246v-227h-246zM82 -315q-51 0 -109 10v184q36 -4 58 -4q110 0 110 129v1081h232v-1099q0 -301 -291 -301z" />
    <glyph glyph-name="k" unicode="k" horiz-adv-x="1042" 
d="M131 0v1479h231v-871l371 477h275l-361 -442l371 -643h-266l-265 465l-125 -154v-311h-231z" />
    <glyph glyph-name="l" unicode="l" horiz-adv-x="518" 
d="M141 0v1479h234v-1479h-234z" />
    <glyph glyph-name="m" unicode="m" horiz-adv-x="1703" 
d="M131 0v1085h231v-157q54 83 123 130.5t168 47.5q97 0 169.5 -46t111.5 -128q131 174 317 174q155 0 243.5 -97.5t88.5 -279.5v-729h-229v659q0 116 -49 177t-136 61q-89 0 -142.5 -63t-53.5 -177v-657h-232v662q0 116 -47.5 175.5t-134.5 59.5q-88 0 -142.5 -65.5
t-54.5 -174.5v-657h-231z" />
    <glyph glyph-name="n" unicode="n" horiz-adv-x="1114" 
d="M131 0v1085h231v-157q54 82 124.5 130t172.5 48q158 0 246 -100.5t88 -278.5v-727h-233v659q0 116 -50 177t-143 61q-92 0 -148.5 -64.5t-56.5 -175.5v-657h-231z" />
    <glyph glyph-name="o" unicode="o" horiz-adv-x="1163" 
d="M582 -25q-215 0 -357.5 158t-142.5 397v19q0 240 143 398.5t359 158.5q141 0 254.5 -72t177 -198.5t63.5 -284.5v-19q0 -158 -64 -285t-178 -199.5t-255 -72.5zM584 180q121 0 193.5 100t72.5 255v12q0 153 -76 254.5t-192 101.5q-121 0 -195 -100.5t-74 -253.5v-12
q0 -153 77 -255t194 -102z" />
    <glyph glyph-name="p" unicode="p" horiz-adv-x="1187" 
d="M131 -309v1394h231v-174q125 195 318 195q83 0 157.5 -34.5t134.5 -100.5t95 -173t35 -241v-27q0 -134 -34.5 -241t-94 -173t-134.5 -101t-159 -35q-74 0 -137.5 28t-102.5 65t-78 91v-473h-231zM616 184q109 0 180.5 94t71.5 254v19q0 159 -72.5 254.5t-179.5 95.5
q-108 0 -183 -96.5t-75 -251.5v-21q0 -155 75 -251.5t183 -96.5z" />
    <glyph glyph-name="q" unicode="q" horiz-adv-x="1185" 
d="M823 -309v483q-123 -194 -317 -194q-84 0 -158.5 34.5t-133.5 100.5t-93.5 172.5t-34.5 240.5v29q0 132 34.5 239t93.5 173.5t133.5 101.5t158.5 35q195 0 317 -186v165h234v-1394h-234zM569 184q109 0 184.5 96t75.5 252v21q0 156 -75.5 252t-184.5 96t-179.5 -94
t-70.5 -254v-18q0 -159 71.5 -255t178.5 -96z" />
    <glyph glyph-name="r" unicode="r" horiz-adv-x="737" 
d="M131 0v1085h231v-211q45 111 127 172.5t199 55.5v-252h-10q-144 0 -230 -95t-86 -274v-481h-231z" />
    <glyph glyph-name="s" unicode="s" horiz-adv-x="888" 
d="M444 -20q-102 0 -207 38t-194 113l107 166q156 -127 301 -127q70 0 109.5 33t39.5 86v4q0 22 -11 41.5t-25.5 33t-48 31.5t-56.5 28.5t-74 31.5q-47 21 -78 36.5t-69 38.5t-61.5 46t-45 53t-31.5 67t-10 80v4q0 145 101.5 231.5t257.5 86.5q188 0 352 -117l-99 -170
q-143 96 -258 96q-64 0 -100.5 -30t-36.5 -76v-4q0 -21 11 -40t25.5 -32.5t47.5 -31.5t56 -29t73 -33q71 -32 118 -59.5t91 -66t65 -87.5t21 -111v-4q0 -153 -105 -240t-266 -87z" />
    <glyph glyph-name="t" unicode="t" horiz-adv-x="731" 
d="M457 -16q-281 0 -281 280v623h-117v198h117v293h234v-293h241v-198h-241v-578q0 -119 114 -119q59 0 125 29v-188q-83 -47 -192 -47z" />
    <glyph glyph-name="u" unicode="u" horiz-adv-x="1112" 
d="M455 -20q-158 0 -246 100.5t-88 275.5v729h229v-659q0 -116 51 -177t144 -61q94 0 148.5 63t54.5 177v657h233v-1085h-233v158q-109 -178 -293 -178z" />
    <glyph glyph-name="v" unicode="v" horiz-adv-x="1064" 
d="M426 -8l-379 1093h244l244 -790l245 790h238l-377 -1093h-215z" />
    <glyph glyph-name="w" unicode="w" horiz-adv-x="1550" 
d="M358 -8l-303 1093h238l184 -731l199 733h198l201 -735l187 733h233l-305 -1093h-213l-203 725l-205 -725h-211z" />
    <glyph glyph-name="x" unicode="x" horiz-adv-x="1038" 
d="M311 1085l211 -364l209 364h244l-326 -530l340 -555h-250l-221 387l-223 -387h-246l340 553l-326 532h248z" />
    <glyph glyph-name="y" unicode="y" horiz-adv-x="1067" 
d="M543 295l237 790h238l-369 -1101q-55 -163 -128.5 -231t-192.5 -68q-118 0 -217 57l65 178q58 -37 127 -37q46 0 75.5 25.5t55.5 89.5l-389 1087h246z" />
    <glyph glyph-name="z" unicode="z" horiz-adv-x="974" 
d="M84 0v160l528 733h-510v192h793v-159l-530 -733h530v-193h-811z" />
    <glyph glyph-name="braceleft" unicode="{" horiz-adv-x="880" 
d="M797 -131l-37 -158q-123 18 -208 51.5t-133 82.5t-68.5 107t-20.5 134q0 29 11 101t11 104q0 106 -50.5 156.5t-164.5 50.5h-49v180h49q114 0 164.5 51t50.5 158q0 32 -11 104t-11 101q0 75 20.5 132t68.5 106t133 82.5t208 51.5l37 -157q-149 -31 -200.5 -84t-51.5 -158
q0 -33 11 -103t11 -106q0 -207 -219 -268q219 -61 219 -269q0 -36 -11 -104t-11 -104q0 -105 51.5 -158t200.5 -84z" />
    <glyph glyph-name="bar" unicode="|" horiz-adv-x="622" 
d="M217 -244v1860h186v-1860h-186z" />
    <glyph glyph-name="braceright" unicode="}" horiz-adv-x="880" 
d="M123 -289l-37 158q150 33 202 85.5t52 156.5q0 36 -12.5 104t-12.5 104q0 214 220 269q-220 62 -220 268q0 36 12.5 106t12.5 103q0 106 -52 157.5t-202 84.5l37 157q123 -18 208 -51.5t133 -82.5t68.5 -106t20.5 -132q0 -29 -11.5 -101t-11.5 -104q0 -107 51.5 -158
t166.5 -51h47v-180h-47q-115 0 -166.5 -50.5t-51.5 -156.5q0 -32 11.5 -104t11.5 -101q0 -76 -20.5 -134t-68.5 -107t-133 -82.5t-208 -51.5z" />
    <glyph glyph-name="asciitilde" unicode="~" horiz-adv-x="921" 
d="M606 498q-69 0 -157 47q-70 39 -113 39q-36 0 -56 -22.5t-42 -78.5l-129 39q30 121 80 179.5t128 58.5q66 0 158 -45q73 -39 111 -39q37 0 60 23.5t44 76.5l125 -39q-30 -121 -80.5 -180t-128.5 -59z" />
    <glyph glyph-name="uni00A0" unicode="&#xa0;" horiz-adv-x="0" 
 />
    <glyph glyph-name="exclamdown" unicode="&#xa1;" horiz-adv-x="565" 
d="M152 1161v273h262v-273h-262zM145 0v72l74 917h127l74 -917v-72h-275z" />
    <glyph glyph-name="cent" unicode="&#xa2;" horiz-adv-x="1015" 
d="M754 1446l-25 -176q119 -35 213 -129l-127 -168q-64 64 -121 86l-96 -690q112 2 223 108l125 -151q-154 -164 -368 -164l-25 -174h-166l27 202q-146 55 -235 194.5t-89 330.5v18q0 237 134 393t339 164l23 156h168zM319 729v-8q0 -109 35 -189t97 -122l92 665
q-101 -18 -162.5 -109.5t-61.5 -236.5z" />
    <glyph glyph-name="sterling" unicode="&#xa3;" horiz-adv-x="1134" 
d="M106 0v152l144 47v381h-144v202h144v209q0 232 119 348q115 115 301 115q244 0 387 -192l-168 -154q-45 59 -94.5 90t-116.5 31q-77 0 -127 -47q-62 -62 -62 -197v-203h420v-202h-420v-371h562v-209h-945z" />
    <glyph glyph-name="yen" unicode="&#xa5;" horiz-adv-x="1220" 
d="M164 537v174h270l-401 723h266l313 -609l316 609h258l-404 -723h275v-174h-334v-148h334v-176h-334v-213h-227v213h-332v176h332v148h-332z" />
    <glyph glyph-name="section" unicode="&#xa7;" horiz-adv-x="1148" 
d="M844 469q104 -77 104 -195v-4q0 -134 -99.5 -212t-270.5 -78q-240 0 -402 153l121 146q129 -113 276 -113q73 0 112.5 28t39.5 72v2q0 46 -52 79t-194 77q-207 59 -296 125t-89 172v4q0 176 211 240q-104 76 -104 194v4q0 134 100 212.5t270 78.5q239 0 402 -154
l-121 -145q-129 113 -277 113q-71 0 -110 -27.5t-39 -71.5v-4q0 -44 51 -78.5t193 -76.5q208 -59 296.5 -124.5t88.5 -172.5v-4q0 -176 -211 -240zM694 563q62 0 106 33.5t44 83.5v2q0 46 -48 79.5t-163 69.5q-127 39 -178 39q-63 0 -105.5 -32.5t-42.5 -83.5v-2
q0 -46 48 -80t161 -70q127 -39 178 -39z" />
    <glyph glyph-name="dieresis" unicode="&#xa8;" horiz-adv-x="1024" 
d="M575 1210v226h230v-226h-230zM219 1210v226h230v-226h-230z" />
    <glyph glyph-name="copyright" unicode="&#xa9;" horiz-adv-x="1511" 
d="M754 -25q-140 0 -263 57t-210.5 154t-138 232t-50.5 287v22q0 151 51.5 286t139.5 233t212 155t263 57q140 0 263 -56.5t210 -154t137.5 -232t50.5 -286.5v-22q0 -201 -87 -369t-240 -265.5t-338 -97.5zM754 49q127 0 237.5 51t188 139t122 209.5t44.5 258.5v24
q0 183 -75 332t-210 235t-303 86q-169 0 -305 -87t-211.5 -237t-75.5 -333v-25q0 -183 75 -332t210 -235t303 -86zM768 322q-150 0 -246 109.5t-96 285.5v12q0 177 98 288t250 111q81 0 138.5 -25t109.5 -73l-86 -108q-77 73 -162 73q-88 0 -145.5 -72.5t-57.5 -193.5v-8
q0 -121 58 -193.5t147 -72.5q51 0 87.5 18.5t78.5 58.5l84 -98q-55 -58 -116 -85t-142 -27z" />
    <glyph glyph-name="ordfeminine" unicode="&#xaa;" horiz-adv-x="712" 
d="M289 825q-78 0 -131.5 49t-53.5 134v8q0 94 57.5 142t157.5 48q70 0 134 -22v20q0 57 -33.5 87t-93.5 30q-75 0 -144 -37l-41 107q93 49 205 49q114 0 176 -62q60 -60 60 -174v-368h-131v69q-64 -80 -162 -80zM98 594v108h498v-108h-498zM328 928q55 0 90 30.5t35 79.5
v56q-49 22 -107 22q-53 0 -81.5 -24.5t-28.5 -69.5v-8q0 -41 25 -63.5t67 -22.5z" />
    <glyph glyph-name="guillemotleft" unicode="&#xab;" horiz-adv-x="1128" 
d="M872 86l-329 446v17l329 446l164 -86l-239 -366l239 -367zM410 86l-330 446v17l330 446l163 -86l-239 -366l241 -367z" />
    <glyph glyph-name="registered" unicode="&#xae;" horiz-adv-x="741" 
d="M371 735q-140 0 -234 102.5t-94 252.5v12q0 150 94 253t234 103t233.5 -103t93.5 -253v-10q0 -150 -94.5 -253.5t-232.5 -103.5zM371 774q122 0 203 92.5t81 225.5v10q0 134 -81 224.5t-203 90.5t-203.5 -91.5t-81.5 -223.5v-12q0 -132 81.5 -224t203.5 -92zM238 913v377
h145q65 0 104 -30.5t39 -90.5v-2q0 -84 -73 -112l86 -142h-97l-73 125h-47v-125h-84zM322 1108h55q65 0 65 55v2q0 25 -17.5 40t-47.5 14h-55v-111z" />
    <glyph glyph-name="macron" unicode="&#xaf;" horiz-adv-x="1024" 
d="M205 1225v166h614v-166h-614z" />
    <glyph glyph-name="degree" unicode="&#xb0;" horiz-adv-x="839" 
d="M420 776q-125 0 -215 95.5t-90 236.5v8q0 139 90 234.5t215 95.5q126 0 215.5 -95t89.5 -235v-8q0 -141 -89.5 -236.5t-215.5 -95.5zM420 909q72 0 118 56t46 143v6q0 88 -46 143.5t-118 55.5t-118 -55.5t-46 -143.5v-6q0 -87 46 -143t118 -56z" />
    <glyph glyph-name="plusminus" unicode="&#xb1;" horiz-adv-x="1134" 
d="M1014 723l-340 2l2 -342h-215l2 342l-340 -2v211l340 -2l-2 340h215l-2 -340l340 2v-211zM1012 18h-889v201h889v-201z" />
    <glyph glyph-name="two.sup" unicode="&#xb2;" 
d="M96 887v121l252 245q69 66 96 104.5t27 82.5q0 46 -32.5 74t-80.5 28q-47 0 -87 -25.5t-85 -76.5l-90 88q60 75 123.5 112t151.5 37q110 0 177.5 -61.5t67.5 -161.5q0 -71 -31 -127.5t-110 -130.5l-188 -180h334v-129h-525z" />
    <glyph glyph-name="three.sup" unicode="&#xb3;" 
d="M348 868q-154 0 -270 111l78 108q88 -88 192 -88q53 0 90 31.5t37 83.5q0 55 -45.5 84t-124.5 29h-61l-19 92l205 211h-309v129h487v-111l-213 -213q101 -11 163.5 -65.5t62.5 -151.5q0 -110 -77 -180t-196 -70z" />
    <glyph glyph-name="acute" unicode="&#xb4;" horiz-adv-x="1024" 
d="M334 1206l198 322l205 -98l-233 -224h-170z" />
    <glyph glyph-name="mu" unicode="&#xb5;" horiz-adv-x="1200" 
d="M1163 190v-184q-63 -18 -135 -18q-170 0 -223 139q-82 -143 -227 -143q-79 0 -144.5 40t-99.5 121h-2q26 -149 26 -249v-205h-227v1394h231v-661q0 -110 54.5 -174t146.5 -64q93 0 149 64t56 174v661h231v-798q1 -56 26 -79.5t77 -23.5q37 0 61 6z" />
    <glyph glyph-name="paragraph" unicode="&#xb6;" horiz-adv-x="1013" 
d="M623 0v494h-27q-152 3 -269 55t-188 158.5t-71 255.5v4q0 147 68 254t185 160t271 53h270v-1434h-239z" />
    <glyph glyph-name="periodcentered" unicode="&#xb7;" horiz-adv-x="509" 
d="M125 492v272h262v-272h-262z" />
    <glyph glyph-name="cedilla" unicode="&#xb8;" horiz-adv-x="1024" 
d="M492 -311l-203 84l176 262h164z" />
    <glyph glyph-name="one.sup" unicode="&#xb9;" horiz-adv-x="587" 
d="M408 887h-146v629l-147 -60l-31 125l213 88h111v-782z" />
    <glyph glyph-name="ordmasculine" unicode="&#xba;" horiz-adv-x="712" 
d="M356 823q-117 0 -193.5 86t-76.5 217v13q0 132 77 218.5t195 86.5q117 0 194 -86t77 -217v-13q0 -132 -78 -218.5t-195 -86.5zM96 594v108h520v-108h-520zM358 942q62 0 99 53t37 133v9q0 80 -38.5 133t-99.5 53q-62 0 -98.5 -51t-36.5 -131v-11q0 -81 37.5 -134.5
t99.5 -53.5z" />
    <glyph glyph-name="guillemotright" unicode="&#xbb;" horiz-adv-x="1128" 
d="M717 86l-164 86l242 367l-244 368l166 88l332 -446v-17zM254 86l-164 86l242 367l-242 368l164 88l332 -446v-17z" />
    <glyph glyph-name="onequarter" unicode="&#xbc;" horiz-adv-x="1492" 
d="M408 662h-146v628l-147 -61l-31 127l213 88h111v-782zM225 0l453 745l403 689h136l-453 -746l-402 -688h-137zM1323 160v-164h-133v164h-344l-15 129l332 491h160v-504h94v-116h-94zM1192 274v344h-2l-229 -344h231z" />
    <glyph glyph-name="onehalf" unicode="&#xbd;" horiz-adv-x="1492" 
d="M872 0v121l252 246q70 66 96.5 104t26.5 82q0 46 -32 74t-80 28q-47 0 -87 -25.5t-85 -76.5l-91 88q60 75 123.5 112.5t151.5 37.5q110 0 178 -62t68 -162q0 -71 -31.5 -127t-110.5 -131l-188 -180h334v-129h-525zM201 0l452 745l404 689h135l-453 -746l-401 -688h-137z
M408 662h-146v628l-147 -61l-31 127l213 88h111v-782z" />
    <glyph glyph-name="threequarters" unicode="&#xbe;" horiz-adv-x="1626" 
d="M1462 160v-164h-133v164h-344l-14 129l332 491h159v-504h94v-116h-94zM1331 274v344h-2l-229 -344h231zM354 0l453 745l403 689h136l-453 -746l-401 -688h-138zM348 645q-159 0 -270 111l78 104q93 -86 192 -86q53 0 90 31.5t37 83.5q0 56 -45 85.5t-125 29.5h-61l-19 92
l205 207h-309v131h487v-111l-213 -213q100 -11 163 -66t63 -153q0 -110 -75.5 -178t-197.5 -68z" />
    <glyph glyph-name="questiondown" unicode="&#xbf;" horiz-adv-x="972" 
d="M408 1161v273h260v-273h-260zM514 -16q-200 0 -321 110t-121 291v2q0 318 364 408l23 194h155l35 -340l-10 -10q-330 -34 -330 -242v-4q0 -88 58.5 -140t156.5 -52q149 0 277 135l137 -162q-180 -190 -424 -190z" />
    <glyph glyph-name="Agrave" unicode="&#xc0;" horiz-adv-x="1380" 
d="M49 0l526 1442h230l526 -1442h-248l-118 338h-557l-119 -338h-240zM481 549h408l-203 575zM784 1550h-180l-237 189l206 94z" />
    <glyph glyph-name="Aacute" unicode="&#xc1;" horiz-adv-x="1380" 
d="M49 0l526 1442h230l526 -1442h-248l-118 338h-557l-119 -338h-240zM481 549h408l-203 575zM592 1550l209 283l209 -94l-240 -189h-178z" />
    <glyph glyph-name="Acircumflex" unicode="&#xc2;" horiz-adv-x="1380" 
d="M49 0l526 1442h230l526 -1442h-248l-118 338h-557l-119 -338h-240zM481 549h408l-203 575zM362 1546l220 264h213l219 -264h-191l-137 115l-137 -115h-187z" />
    <glyph glyph-name="Atilde" unicode="&#xc3;" horiz-adv-x="1380" 
d="M49 0l526 1442h230l526 -1442h-248l-118 338h-557l-119 -338h-240zM481 549h408l-203 575zM844 1552q-67 0 -162 43q-79 33 -111 33q-34 0 -54 -20.5t-40 -69.5l-133 37q30 120 77.5 176.5t125.5 56.5q63 0 166 -43q76 -32 106 -32q35 0 55.5 21t40.5 71l134 -39
q-32 -123 -77.5 -178.5t-127.5 -55.5z" />
    <glyph glyph-name="Adieresis" unicode="&#xc4;" horiz-adv-x="1380" 
d="M49 0l526 1442h230l526 -1442h-248l-118 338h-557l-119 -338h-240zM481 549h408l-203 575zM760 1554v220h233v-220h-233zM383 1554v220h233v-220h-233z" />
    <glyph glyph-name="Aring" unicode="&#xc5;" horiz-adv-x="1382" 
d="M49 0l498 1364q-78 58 -78 154q0 88 64.5 145t158.5 57q92 0 156.5 -57t64.5 -145q0 -92 -77 -156l497 -1362h-248l-120 338h-555l-119 -338h-242zM483 549h408l-203 575zM692 1409q51 0 85 31t34 78t-34 78.5t-85 31.5q-53 0 -86 -31t-33 -79t33 -78.5t86 -30.5z" />
    <glyph glyph-name="AE" unicode="&#xc6;" horiz-adv-x="1830" 
d="M18 0l676 1434h1035v-215h-637v-390h561v-215h-561v-397h645v-217h-883v338h-436l-158 -338h-242zM514 549h340v670h-33z" />
    <glyph glyph-name="Ccedilla" unicode="&#xc7;" horiz-adv-x="1263" 
d="M651 -311l-202 84l147 221q-224 45 -359 237t-135 478v14q0 214 82.5 381t228.5 258.5t330 91.5q147 0 253.5 -47.5t197.5 -138.5l-143 -183q-74 72 -149 110t-167 38q-167 0 -277 -142.5t-110 -369.5v-6q0 -230 110.5 -372t278.5 -142q92 0 166 38t154 117l143 -170
q-95 -95 -197.5 -146.5t-236.5 -57.5z" />
    <glyph glyph-name="Egrave" unicode="&#xc8;" horiz-adv-x="1163" 
d="M707 1538h-181l-237 188l207 95zM156 0v1434h903v-215h-666v-390h590v-215h-590v-397h674v-217h-911z" />
    <glyph glyph-name="Eacute" unicode="&#xc9;" horiz-adv-x="1163" 
d="M512 1538l209 283l209 -95l-240 -188h-178zM156 0v1434h903v-215h-666v-390h590v-215h-590v-397h674v-217h-911z" />
    <glyph glyph-name="Ecircumflex" unicode="&#xca;" horiz-adv-x="1163" 
d="M156 0v1434h903v-215h-666v-390h590v-215h-590v-397h674v-217h-911zM283 1540l219 264h213l219 -264h-191l-137 115l-137 -115h-186z" />
    <glyph glyph-name="Edieresis" unicode="&#xcb;" horiz-adv-x="1163" 
d="M682 1542v219h233v-219h-233zM305 1542v219h234v-219h-234zM156 0v1434h903v-215h-666v-390h590v-215h-590v-397h674v-217h-911z" />
    <glyph glyph-name="Igrave" unicode="&#xcc;" horiz-adv-x="571" 
d="M166 0v1434h240v-1434h-240zM387 1538h-180l-238 188l207 95z" />
    <glyph glyph-name="Iacute" unicode="&#xcd;" horiz-adv-x="571" 
d="M166 0v1434h240v-1434h-240zM195 1538l208 283l209 -95l-239 -188h-178z" />
    <glyph glyph-name="Icircumflex" unicode="&#xce;" horiz-adv-x="571" 
d="M166 0v1434h240v-1434h-240zM-35 1540l219 264h213l219 -264h-190l-137 115l-137 -115h-187z" />
    <glyph glyph-name="Idieresis" unicode="&#xcf;" horiz-adv-x="571" 
d="M166 0v1434h240v-1434h-240zM362 1542v219h234v-219h-234zM-14 1542v219h233v-219h-233z" />
    <glyph glyph-name="Eth" unicode="&#xd0;" horiz-adv-x="1423" 
d="M203 0v614h-133v213h133v607h438q305 0 493.5 -195.5t188.5 -511.5v-18q0 -316 -188.5 -512.5t-493.5 -196.5h-438zM729 614h-289v-397h199q198 0 317 132t119 362v10q0 228 -119.5 363t-316.5 135h-199v-392h289v-213z" />
    <glyph glyph-name="Ntilde" unicode="&#xd1;" horiz-adv-x="1394" 
d="M850 1540q-67 0 -162 43q-79 33 -110 33q-34 0 -55 -20.5t-40 -69.5l-133 37q30 120 77.5 176.5t125.5 56.5q63 0 166 -43q79 -33 106 -33q35 0 56 21t41 71l133 -38q-32 -123 -77.5 -178.5t-127.5 -55.5zM156 0v1434h219l633 -955v955h233v-1434h-203l-649 985v-985
h-233z" />
    <glyph glyph-name="Ograve" unicode="&#xd2;" horiz-adv-x="1474" 
d="M831 1550h-180l-237 189l207 94zM737 -25q-186 0 -331 93.5t-224.5 259.5t-79.5 377v20q0 211 81 378.5t226.5 261t329.5 93.5q185 0 329.5 -93t224 -259t79.5 -377v-20q0 -211 -81 -378.5t-226 -261.5t-328 -94zM739 197q170 0 278.5 141t108.5 371v14q0 230 -109.5 372
t-279.5 142q-172 0 -280.5 -141t-108.5 -371v-14q0 -229 111 -371.5t280 -142.5z" />
    <glyph glyph-name="Oacute" unicode="&#xd3;" horiz-adv-x="1474" 
d="M641 1550l209 283l209 -94l-240 -189h-178zM737 -25q-186 0 -331 93.5t-224.5 259.5t-79.5 377v20q0 211 81 378.5t226.5 261t329.5 93.5q185 0 329.5 -93t224 -259t79.5 -377v-20q0 -211 -81 -378.5t-226 -261.5t-328 -94zM739 197q170 0 278.5 141t108.5 371v14
q0 230 -109.5 372t-279.5 142q-172 0 -280.5 -141t-108.5 -371v-14q0 -229 111 -371.5t280 -142.5z" />
    <glyph glyph-name="Ocircumflex" unicode="&#xd4;" horiz-adv-x="1474" 
d="M737 -25q-186 0 -331 93.5t-224.5 259.5t-79.5 377v20q0 211 81 378.5t226.5 261t329.5 93.5q185 0 329.5 -93t224 -259t79.5 -377v-20q0 -211 -81 -378.5t-226 -261.5t-328 -94zM739 197q170 0 278.5 141t108.5 371v14q0 230 -109.5 372t-279.5 142q-172 0 -280.5 -141
t-108.5 -371v-14q0 -229 111 -371.5t280 -142.5zM410 1552l219 265h213l219 -265h-191l-137 115l-137 -115h-186z" />
    <glyph glyph-name="Otilde" unicode="&#xd5;" horiz-adv-x="1474" 
d="M891 1552q-67 0 -162 43q-79 33 -111 33q-34 0 -54 -20.5t-40 -69.5l-133 37q30 120 77.5 176.5t125.5 56.5q63 0 166 -43q76 -32 106 -32q35 0 56 21t41 71l133 -39q-32 -123 -78 -178.5t-127 -55.5zM737 -25q-186 0 -331 93.5t-224.5 259.5t-79.5 377v20
q0 211 81 378.5t226.5 261t329.5 93.5q185 0 329.5 -93t224 -259t79.5 -377v-20q0 -211 -81 -378.5t-226 -261.5t-328 -94zM739 197q170 0 278.5 141t108.5 371v14q0 230 -109.5 372t-279.5 142q-172 0 -280.5 -141t-108.5 -371v-14q0 -229 111 -371.5t280 -142.5z" />
    <glyph glyph-name="Odieresis" unicode="&#xd6;" horiz-adv-x="1474" 
d="M807 1554v220h233v-220h-233zM430 1554v220h234v-220h-234zM737 -25q-186 0 -331 93.5t-224.5 259.5t-79.5 377v20q0 211 81 378.5t226.5 261t329.5 93.5q185 0 329.5 -93t224 -259t79.5 -377v-20q0 -211 -81 -378.5t-226 -261.5t-328 -94zM739 197q170 0 278.5 141
t108.5 371v14q0 230 -109.5 372t-279.5 142q-172 0 -280.5 -141t-108.5 -371v-14q0 -229 111 -371.5t280 -142.5z" />
    <glyph glyph-name="multiply" unicode="&#xd7;" horiz-adv-x="1134" 
d="M854 276l-287 302l-288 -302l-150 144l299 299l-299 303l152 143l288 -299l289 299l150 -141l-299 -301l299 -301z" />
    <glyph glyph-name="Oslash" unicode="&#xd8;" horiz-adv-x="1474" 
d="M1171 1444h211l-163 -221q153 -201 153 -494v-20q0 -211 -81 -378.5t-226 -261.5t-328 -94q-202 0 -356 113l-76 -98h-211l162 219q-154 203 -154 496v20q0 211 81 378t226.5 261t329.5 94q203 0 355 -112zM739 190q172 0 283 143t111 374v16q0 174 -64 299l-557 -750
q98 -82 227 -82zM344 727v-16q0 -174 64 -299l553 749q-101 82 -224 82q-174 0 -283.5 -142t-109.5 -374z" />
    <glyph glyph-name="Ugrave" unicode="&#xd9;" horiz-adv-x="1339" 
d="M766 1538h-180l-238 188l207 95zM668 -23q-245 0 -388 147.5t-143 424.5v885h238v-885q0 -170 79 -260t218 -90q138 0 216.5 87.5t78.5 256.5v891h237v-879q0 -282 -143.5 -430t-392.5 -148z" />
    <glyph glyph-name="Uacute" unicode="&#xda;" horiz-adv-x="1339" 
d="M571 1538l209 283l209 -95l-239 -188h-179zM668 -23q-245 0 -388 147.5t-143 424.5v885h238v-885q0 -170 79 -260t218 -90q138 0 216.5 87.5t78.5 256.5v891h237v-879q0 -282 -143.5 -430t-392.5 -148z" />
    <glyph glyph-name="Ucircumflex" unicode="&#xdb;" horiz-adv-x="1339" 
d="M668 -23q-245 0 -388 147.5t-143 424.5v885h238v-885q0 -170 79 -260t218 -90q138 0 216.5 87.5t78.5 256.5v891h237v-879q0 -282 -143.5 -430t-392.5 -148zM342 1540l219 264h213l219 -264h-190l-137 115l-138 -115h-186z" />
    <glyph glyph-name="Udieresis" unicode="&#xdc;" horiz-adv-x="1339" 
d="M739 1542v219h234v-219h-234zM362 1542v219h234v-219h-234zM668 -23q-245 0 -388 147.5t-143 424.5v885h238v-885q0 -170 79 -260t218 -90q138 0 216.5 87.5t78.5 256.5v891h237v-879q0 -282 -143.5 -430t-392.5 -148z" />
    <glyph glyph-name="Yacute" unicode="&#xdd;" horiz-adv-x="1255" 
d="M508 0v571l-481 863h270l334 -621l334 621h264l-481 -861v-573h-240zM530 1538l209 283l209 -95l-239 -188h-179z" />
    <glyph glyph-name="Thorn" unicode="&#xde;" horiz-adv-x="1189" 
d="M156 0v1434h239v-222h219q235 0 375.5 -127.5t140.5 -347.5v-4q0 -117 -41 -210.5t-113 -154t-168 -92.5t-208 -32h-207v-244h-237zM393 459h207q135 0 213 72.5t78 195.5v2q0 129 -76.5 197.5t-214.5 68.5h-207v-536z" />
    <glyph glyph-name="germandbls" unicode="&#xdf;" horiz-adv-x="1120" 
d="M535 -4v182q133 7 203.5 66.5t70.5 163.5v4q0 97 -73 158.5t-201 82.5v160q204 103 204 283v2q0 90 -49 142t-129 52q-93 0 -147 -67.5t-54 -184.5v-1040h-229v1032q0 211 118 335t320 124q185 0 292.5 -104.5t107.5 -264.5v-8q0 -230 -211 -346q126 -44 203 -132
t77 -228v-9q0 -192 -134 -299.5t-369 -103.5z" />
    <glyph glyph-name="agrave" unicode="&#xe0;" horiz-adv-x="1048" 
d="M401 -20q-141 0 -237 89t-96 242v13q0 168 105.5 257t283.5 89q125 0 248 -45v47q0 109 -61 165t-173 56q-116 0 -260 -66l-68 185q175 86 359 86q210 0 319 -109t109 -315v-674h-228v133q-107 -153 -301 -153zM471 154q101 0 168.5 59.5t67.5 151.5v110q-88 37 -201 37
q-100 0 -155.5 -48t-55.5 -134v-6q0 -78 48.5 -123t127.5 -47zM453 1206l-236 224l205 98l199 -322h-168z" />
    <glyph glyph-name="aacute" unicode="&#xe1;" horiz-adv-x="1048" 
d="M401 -20q-141 0 -237 89t-96 242v13q0 168 105.5 257t283.5 89q125 0 248 -45v47q0 109 -61 165t-173 56q-116 0 -260 -66l-68 185q175 86 359 86q210 0 319 -109t109 -315v-674h-228v133q-107 -153 -301 -153zM471 154q101 0 168.5 59.5t67.5 151.5v110q-88 37 -201 37
q-100 0 -155.5 -48t-55.5 -134v-6q0 -78 48.5 -123t127.5 -47zM428 1206l199 322l204 -98l-233 -224h-170z" />
    <glyph glyph-name="acircumflex" unicode="&#xe2;" horiz-adv-x="1048" 
d="M401 -20q-141 0 -237 89t-96 242v13q0 168 105.5 257t283.5 89q125 0 248 -45v47q0 109 -61 165t-173 56q-116 0 -260 -66l-68 185q175 86 359 86q210 0 319 -109t109 -315v-674h-228v133q-107 -153 -301 -153zM471 154q101 0 168.5 59.5t67.5 151.5v110q-88 37 -201 37
q-100 0 -155.5 -48t-55.5 -134v-6q0 -78 48.5 -123t127.5 -47zM211 1206l211 293h207l211 -293h-178l-140 135l-139 -135h-172z" />
    <glyph glyph-name="atilde" unicode="&#xe3;" horiz-adv-x="1048" 
d="M401 -20q-141 0 -237 89t-96 242v13q0 168 105.5 257t283.5 89q125 0 248 -45v47q0 109 -61 165t-173 56q-116 0 -260 -66l-68 185q175 86 359 86q210 0 319 -109t109 -315v-674h-228v133q-107 -153 -301 -153zM471 154q101 0 168.5 59.5t67.5 151.5v110q-88 37 -201 37
q-100 0 -155.5 -48t-55.5 -134v-6q0 -78 48.5 -123t127.5 -47zM674 1204q-62 0 -154 45q-69 37 -110 37q-35 0 -55 -21t-40 -73l-129 35q30 125 75.5 182t125.5 57q62 0 154 -45q8 -3 24 -10.5t25 -11t21 -7.5t21.5 -6t18.5 -2q35 0 54.5 22t39.5 75l129 -37
q-31 -127 -74.5 -183.5t-125.5 -56.5z" />
    <glyph glyph-name="adieresis" unicode="&#xe4;" horiz-adv-x="1048" 
d="M401 -20q-141 0 -237 89t-96 242v13q0 168 105.5 257t283.5 89q125 0 248 -45v47q0 109 -61 165t-173 56q-116 0 -260 -66l-68 185q175 86 359 86q210 0 319 -109t109 -315v-674h-228v133q-107 -153 -301 -153zM471 154q101 0 168.5 59.5t67.5 151.5v110q-88 37 -201 37
q-100 0 -155.5 -48t-55.5 -134v-6q0 -78 48.5 -123t127.5 -47zM588 1210v226h229v-226h-229zM231 1210v226h230v-226h-230z" />
    <glyph glyph-name="aring" unicode="&#xe5;" horiz-adv-x="1048" 
d="M401 -20q-141 0 -237 89t-96 242v13q0 168 105.5 257t283.5 89q125 0 248 -45v47q0 109 -61 165t-173 56q-116 0 -260 -66l-68 185q175 86 359 86q210 0 319 -109t109 -315v-674h-228v133q-107 -153 -301 -153zM471 154q101 0 168.5 59.5t67.5 151.5v110q-88 37 -201 37
q-100 0 -155.5 -48t-55.5 -134v-6q0 -78 48.5 -123t127.5 -47zM524 1200q-91 0 -154 61.5t-63 151.5t63 151.5t154 61.5q93 0 156 -60.5t63 -152.5q0 -90 -64 -151.5t-155 -61.5zM524 1288q52 0 87.5 36t35.5 89t-35.5 89t-87.5 36q-51 0 -86 -35.5t-35 -89.5t35 -89.5
t86 -35.5z" />
    <glyph glyph-name="ae" unicode="&#xe6;" horiz-adv-x="1685" 
d="M424 -20q-155 0 -255.5 89.5t-100.5 245.5v9q0 169 105 257.5t282 88.5q123 0 243 -45v47q0 108 -59 164.5t-170 56.5q-127 0 -260 -68l-66 189q171 84 355 84q247 0 336 -164q130 172 327 172q140 0 242.5 -75t153.5 -203t51 -293q0 -47 -2 -80h-682q17 -134 91 -207.5
t185 -73.5q75 0 133 28.5t115 86.5l123 -144q-160 -170 -381 -170q-117 0 -214.5 51t-164.5 146q-174 -192 -387 -192zM924 614h456q-8 135 -66.5 216t-158.5 81q-97 0 -159 -79t-72 -218zM471 156q73 0 142 40t124 111q-20 58 -32 168q-88 37 -201 37q-99 0 -154 -47
t-55 -133v-8q0 -77 49.5 -122.5t126.5 -45.5z" />
    <glyph glyph-name="ccedilla" unicode="&#xe7;" horiz-adv-x="985" 
d="M492 -311l-203 84l147 221q-160 45 -257 189t-97 345v21q0 245 140.5 401t355.5 156q111 0 193 -37.5t155 -110.5l-129 -170q-50 52 -101 80.5t-118 28.5q-116 0 -189.5 -97.5t-73.5 -252.5v-10q0 -158 75 -255.5t194 -97.5q67 1 117 29t104 82l125 -154
q-137 -154 -326 -164z" />
    <glyph glyph-name="egrave" unicode="&#xe8;" horiz-adv-x="1075" 
d="M578 -25q-104 0 -195 39.5t-157.5 110.5t-105 176t-38.5 231v15q0 244 131 401.5t332 157.5q144 0 247 -75t153 -202.5t50 -293.5q0 -47 -2 -80h-680q17 -134 92 -207.5t183 -73.5q74 0 133.5 29t116.5 86l120 -144q-160 -170 -380 -170zM311 614h457q-8 135 -65.5 216
t-157.5 81q-97 0 -159.5 -79t-74.5 -218zM471 1206l-235 224l204 98l199 -322h-168z" />
    <glyph glyph-name="eacute" unicode="&#xe9;" horiz-adv-x="1075" 
d="M446 1206l199 322l205 -98l-234 -224h-170zM578 -25q-104 0 -195 39.5t-157.5 110.5t-105 176t-38.5 231v15q0 244 131 401.5t332 157.5q144 0 247 -75t153 -202.5t50 -293.5q0 -47 -2 -80h-680q17 -134 92 -207.5t183 -73.5q74 0 133.5 29t116.5 86l120 -144
q-160 -170 -380 -170zM311 614h457q-8 135 -65.5 216t-157.5 81q-97 0 -159.5 -79t-74.5 -218z" />
    <glyph glyph-name="ecircumflex" unicode="&#xea;" horiz-adv-x="1075" 
d="M227 1206l211 293h207l211 -293h-178l-139 135l-140 -135h-172zM578 -25q-104 0 -195 39.5t-157.5 110.5t-105 176t-38.5 231v15q0 244 131 401.5t332 157.5q144 0 247 -75t153 -202.5t50 -293.5q0 -47 -2 -80h-680q17 -134 92 -207.5t183 -73.5q74 0 133.5 29t116.5 86
l120 -144q-160 -170 -380 -170zM311 614h457q-8 135 -65.5 216t-157.5 81q-97 0 -159.5 -79t-74.5 -218z" />
    <glyph glyph-name="edieresis" unicode="&#xeb;" horiz-adv-x="1075" 
d="M604 1210v226h230v-226h-230zM248 1210v226h229v-226h-229zM578 -25q-104 0 -195 39.5t-157.5 110.5t-105 176t-38.5 231v15q0 244 131 401.5t332 157.5q144 0 247 -75t153 -202.5t50 -293.5q0 -47 -2 -80h-680q17 -134 92 -207.5t183 -73.5q74 0 133.5 29t116.5 86
l120 -144q-160 -170 -380 -170zM311 614h457q-8 135 -65.5 216t-157.5 81q-97 0 -159.5 -79t-74.5 -218z" />
    <glyph glyph-name="igrave" unicode="&#xec;" horiz-adv-x="518" 
d="M141 0v1085h234v-1085h-234zM186 1206l-235 224l205 98l198 -322h-168z" />
    <glyph glyph-name="iacute" unicode="&#xed;" horiz-adv-x="518" 
d="M170 1206l199 322l204 -98l-233 -224h-170zM141 0v1085h234v-1085h-234z" />
    <glyph glyph-name="icircumflex" unicode="&#xee;" horiz-adv-x="518" 
d="M-51 1206l211 293h207l211 -293h-179l-139 135l-139 -135h-172zM141 0v1085h234v-1085h-234z" />
    <glyph glyph-name="idieresis" unicode="&#xef;" horiz-adv-x="518" 
d="M326 1210v226h229v-226h-229zM-31 1210v226h230v-226h-230zM141 0v1085h234v-1085h-234z" />
    <glyph glyph-name="eth" unicode="&#xf0;" horiz-adv-x="1163" 
d="M932 1352l-146 -49q291 -341 291 -705v-18q0 -270 -138 -437.5t-364 -167.5q-212 0 -352.5 159.5t-140.5 404.5v20q0 114 35 213.5t93.5 166.5t135.5 105.5t160 38.5q73 0 131 -23.5t117 -70.5q-58 113 -176 244l-216 -72l-51 131l158 51q-79 76 -156 136h299l68 -64
l203 68zM582 180q121 0 193.5 98.5t72.5 253.5v13q0 153 -77 251.5t-196 98.5q-120 0 -191 -97.5t-71 -252.5v-10q0 -153 75.5 -254t193.5 -101z" />
    <glyph glyph-name="ntilde" unicode="&#xf1;" horiz-adv-x="1114" 
d="M131 0v1085h231v-157q54 82 124.5 130t172.5 48q158 0 246 -100.5t88 -278.5v-727h-233v659q0 116 -50 177t-143 61q-92 0 -148.5 -64.5t-56.5 -175.5v-657h-231zM711 1204q-62 0 -154 45q-69 37 -111 37q-35 0 -54.5 -21t-39.5 -73l-129 35q30 125 75.5 182t125.5 57
q62 0 154 -45q8 -3 24 -10.5t25 -11t21 -7.5t21.5 -6t18.5 -2q35 0 54.5 22t39.5 75l129 -37q-31 -127 -74.5 -183.5t-125.5 -56.5z" />
    <glyph glyph-name="ograve" unicode="&#xf2;" horiz-adv-x="1163" 
d="M582 -25q-215 0 -357.5 158t-142.5 397v19q0 240 143 398.5t359 158.5q141 0 254.5 -72t177 -198.5t63.5 -284.5v-19q0 -158 -64 -285t-178 -199.5t-255 -72.5zM584 180q121 0 193.5 100t72.5 255v12q0 153 -76 254.5t-192 101.5q-121 0 -195 -100.5t-74 -253.5v-12
q0 -153 77 -255t194 -102zM510 1206l-236 224l205 98l199 -322h-168z" />
    <glyph glyph-name="oacute" unicode="&#xf3;" horiz-adv-x="1163" 
d="M485 1206l199 322l205 -98l-234 -224h-170zM582 -25q-215 0 -357.5 158t-142.5 397v19q0 240 143 398.5t359 158.5q141 0 254.5 -72t177 -198.5t63.5 -284.5v-19q0 -158 -64 -285t-178 -199.5t-255 -72.5zM584 180q121 0 193.5 100t72.5 255v12q0 153 -76 254.5
t-192 101.5q-121 0 -195 -100.5t-74 -253.5v-12q0 -153 77 -255t194 -102z" />
    <glyph glyph-name="ocircumflex" unicode="&#xf4;" horiz-adv-x="1163" 
d="M266 1206l211 293h207l211 -293h-178l-139 135l-140 -135h-172zM582 -25q-215 0 -357.5 158t-142.5 397v19q0 240 143 398.5t359 158.5q141 0 254.5 -72t177 -198.5t63.5 -284.5v-19q0 -158 -64 -285t-178 -199.5t-255 -72.5zM584 180q121 0 193.5 100t72.5 255v12
q0 153 -76 254.5t-192 101.5q-121 0 -195 -100.5t-74 -253.5v-12q0 -153 77 -255t194 -102z" />
    <glyph glyph-name="otilde" unicode="&#xf5;" horiz-adv-x="1163" 
d="M582 -25q-215 0 -357.5 158t-142.5 397v19q0 240 143 398.5t359 158.5q141 0 254.5 -72t177 -198.5t63.5 -284.5v-19q0 -158 -64 -285t-178 -199.5t-255 -72.5zM584 180q121 0 193.5 100t72.5 255v12q0 153 -76 254.5t-192 101.5q-121 0 -195 -100.5t-74 -253.5v-12
q0 -153 77 -255t194 -102zM731 1204q-61 0 -153 45q-69 37 -111 37q-35 0 -54.5 -21t-39.5 -73l-129 35q30 126 75.5 182.5t124.5 56.5q62 0 154 -45q8 -3 24.5 -10.5t25 -10.5t21 -7.5t22 -6.5t18.5 -2q35 0 54.5 22t39.5 75l129 -37q-31 -127 -75 -183.5t-126 -56.5z" />
    <glyph glyph-name="odieresis" unicode="&#xf6;" horiz-adv-x="1163" 
d="M643 1210v226h229v-226h-229zM287 1210v226h229v-226h-229zM582 -25q-215 0 -357.5 158t-142.5 397v19q0 240 143 398.5t359 158.5q141 0 254.5 -72t177 -198.5t63.5 -284.5v-19q0 -158 -64 -285t-178 -199.5t-255 -72.5zM584 180q121 0 193.5 100t72.5 255v12
q0 153 -76 254.5t-192 101.5q-121 0 -195 -100.5t-74 -253.5v-12q0 -153 77 -255t194 -102z" />
    <glyph glyph-name="divide" unicode="&#xf7;" horiz-adv-x="1134" 
d="M442 991v246h250v-246h-250zM1022 618h-909v205h909v-205zM442 205v246h250v-246h-250z" />
    <glyph glyph-name="oslash" unicode="&#xf8;" horiz-adv-x="1163" 
d="M911 1096h195l-141 -181q114 -152 114 -364v-19q0 -157 -64.5 -284.5t-178 -200t-254.5 -72.5q-157 0 -273 82l-57 -69h-195l138 178q-113 151 -113 364v19q0 239 143.5 398t358.5 159q148 0 270 -84zM584 174q123 0 198.5 102.5t75.5 258.5v10q0 98 -37 186l-389 -504
q65 -53 152 -53zM307 549v-12q0 -101 35 -185l389 502q-69 53 -149 53q-125 0 -200 -100.5t-75 -257.5z" />
    <glyph glyph-name="ugrave" unicode="&#xf9;" horiz-adv-x="1112" 
d="M455 -20q-158 0 -246 100.5t-88 275.5v729h229v-659q0 -116 51 -177t144 -61q94 0 148.5 63t54.5 177v657h233v-1085h-233v158q-109 -178 -293 -178zM479 1206l-235 224l205 98l198 -322h-168z" />
    <glyph glyph-name="uacute" unicode="&#xfa;" horiz-adv-x="1112" 
d="M455 1206l198 322l205 -98l-233 -224h-170zM455 -20q-158 0 -246 100.5t-88 275.5v729h229v-659q0 -116 51 -177t144 -61q94 0 148.5 63t54.5 177v657h233v-1085h-233v158q-109 -178 -293 -178z" />
    <glyph glyph-name="ucircumflex" unicode="&#xfb;" horiz-adv-x="1112" 
d="M236 1206l210 293h207l211 -293h-178l-139 135l-139 -135h-172zM455 -20q-158 0 -246 100.5t-88 275.5v729h229v-659q0 -116 51 -177t144 -61q94 0 148.5 63t54.5 177v657h233v-1085h-233v158q-109 -178 -293 -178z" />
    <glyph glyph-name="udieresis" unicode="&#xfc;" horiz-adv-x="1112" 
d="M612 1210v226h230v-226h-230zM256 1210v226h229v-226h-229zM455 -20q-158 0 -246 100.5t-88 275.5v729h229v-659q0 -116 51 -177t144 -61q94 0 148.5 63t54.5 177v657h233v-1085h-233v158q-109 -178 -293 -178z" />
    <glyph glyph-name="yacute" unicode="&#xfd;" horiz-adv-x="1067" 
d="M543 295l237 790h238l-369 -1101q-55 -163 -128.5 -231t-192.5 -68q-118 0 -217 57l65 178q58 -37 127 -37q46 0 75.5 25.5t55.5 89.5l-389 1087h246zM440 1206l199 322l205 -98l-234 -224h-170z" />
    <glyph glyph-name="thorn" unicode="&#xfe;" horiz-adv-x="1187" 
d="M131 -309v1788h231v-568q125 195 318 195q66 0 127.5 -21.5t115 -67t93.5 -109.5t63 -154.5t23 -196.5v-27q0 -133 -35 -240t-94.5 -173.5t-134.5 -101.5t-158 -35q-74 0 -137.5 28t-102.5 65t-78 91v-473h-231zM616 184q108 0 180 95t72 253v19q0 157 -72.5 253.5
t-179.5 96.5q-108 0 -183 -96.5t-75 -251.5v-21q0 -155 75 -251.5t183 -96.5z" />
    <glyph glyph-name="ydieresis" unicode="&#xff;" horiz-adv-x="1067" 
d="M543 295l237 790h238l-369 -1101q-55 -163 -128.5 -231t-192.5 -68q-118 0 -217 57l65 178q58 -37 127 -37q46 0 75.5 25.5t55.5 89.5l-389 1087h246zM596 1210v226h229v-226h-229zM240 1210v226h229v-226h-229z" />
    <glyph glyph-name="Amacron" unicode="&#x100;" horiz-adv-x="1380" 
d="M49 0l526 1442h230l526 -1442h-248l-118 338h-557l-119 -338h-240zM481 549h408l-203 575zM360 1571v170h656v-170h-656z" />
    <glyph glyph-name="amacron" unicode="&#x101;" horiz-adv-x="1048" 
d="M401 -20q-141 0 -237 89t-96 242v13q0 168 105.5 257t283.5 89q125 0 248 -45v47q0 109 -61 165t-173 56q-116 0 -260 -66l-68 185q175 86 359 86q210 0 319 -109t109 -315v-674h-228v133q-107 -153 -301 -153zM471 154q101 0 168.5 59.5t67.5 151.5v110q-88 37 -201 37
q-100 0 -155.5 -48t-55.5 -134v-6q0 -78 48.5 -123t127.5 -47zM217 1225v166h614v-166h-614z" />
    <glyph glyph-name="Abreve" unicode="&#x102;" horiz-adv-x="1380" 
d="M49 0l526 1442h230l526 -1442h-248l-118 338h-557l-119 -338h-240zM481 549h408l-203 575zM688 1546q-136 0 -220.5 66.5t-94.5 189.5h162q18 -49 53.5 -72.5t99.5 -23.5q121 0 156 96h160q-10 -122 -95 -189t-221 -67z" />
    <glyph glyph-name="abreve" unicode="&#x103;" horiz-adv-x="1048" 
d="M401 -20q-141 0 -237 89t-96 242v13q0 168 105.5 257t283.5 89q125 0 248 -45v47q0 109 -61 165t-173 56q-116 0 -260 -66l-68 185q175 86 359 86q210 0 319 -109t109 -315v-674h-228v133q-107 -153 -301 -153zM471 154q101 0 168.5 59.5t67.5 151.5v110q-88 37 -201 37
q-100 0 -155.5 -48t-55.5 -134v-6q0 -78 48.5 -123t127.5 -47zM524 1200q-132 0 -216.5 72.5t-96.5 204.5h158q30 -119 155 -119q126 0 156 119h158q-10 -132 -96 -204.5t-218 -72.5z" />
    <glyph glyph-name="Aogonek" unicode="&#x104;" horiz-adv-x="1380" 
d="M1341 -201v-118q-63 -5 -65 -5q-116 0 -178 43t-62 117q0 80 78 164h-31l-118 338h-557l-119 -338h-240l526 1442h230l526 -1442h-55q-62 -65 -62 -123q0 -78 127 -78zM481 549h408l-203 575z" />
    <glyph glyph-name="aogonek" unicode="&#x105;" horiz-adv-x="1048" 
d="M938 -201v-118q-62 -5 -66 -5q-116 0 -177.5 43t-61.5 117q0 80 78 164h-9v133q-107 -153 -301 -153q-141 0 -237 89t-96 242v13q0 168 105.5 257t283.5 89q125 0 248 -45v47q0 109 -61 165t-173 56q-116 0 -260 -66l-68 185q175 86 359 86q210 0 319 -109t109 -315v-674
h-58q-61 -64 -61 -123q0 -78 127 -78zM471 154q101 0 168.5 59.5t67.5 151.5v110q-88 37 -201 37q-100 0 -155.5 -48t-55.5 -134v-6q0 -78 48.5 -123t127.5 -47z" />
    <glyph glyph-name="Cacute" unicode="&#x106;" horiz-adv-x="1263" 
d="M727 -20q-182 0 -324 90t-221.5 256.5t-79.5 382.5v14q0 214 82.5 381t228.5 258.5t330 91.5q147 0 253.5 -47.5t197.5 -138.5l-143 -183q-74 72 -149 110t-167 38q-167 0 -277 -142.5t-110 -369.5v-6q0 -230 110.5 -372t278.5 -142q92 0 166 38t154 117l143 -170
q-102 -102 -212 -154t-261 -52zM612 1550l209 283l209 -94l-239 -189h-179z" />
    <glyph glyph-name="cacute" unicode="&#x107;" horiz-adv-x="985" 
d="M461 1206l198 322l205 -98l-233 -224h-170zM569 -25q-212 0 -349.5 156t-137.5 397v21q0 245 140.5 401t355.5 156q111 0 193 -37.5t155 -110.5l-129 -170q-50 52 -101 80.5t-118 28.5q-116 0 -189.5 -97.5t-73.5 -252.5v-10q0 -158 75 -255.5t194 -97.5q67 1 117 29
t104 82l125 -154q-73 -79 -158.5 -122.5t-202.5 -43.5z" />
    <glyph glyph-name="Cdotaccent" unicode="&#x10a;" horiz-adv-x="1263" 
d="M590 1554v220h239v-220h-239zM727 -20q-182 0 -324 90t-221.5 256.5t-79.5 382.5v14q0 214 82.5 381t228.5 258.5t330 91.5q147 0 253.5 -47.5t197.5 -138.5l-143 -183q-74 72 -149 110t-167 38q-167 0 -277 -142.5t-110 -369.5v-6q0 -230 110.5 -372t278.5 -142
q92 0 166 38t154 117l143 -170q-102 -102 -212 -154t-261 -52z" />
    <glyph glyph-name="cdotaccent" unicode="&#x10b;" horiz-adv-x="985" 
d="M569 -25q-212 0 -349.5 156t-137.5 397v21q0 245 140.5 401t355.5 156q111 0 193 -37.5t155 -110.5l-129 -170q-50 52 -101 80.5t-118 28.5q-116 0 -189.5 -97.5t-73.5 -252.5v-10q0 -158 75 -255.5t194 -97.5q67 1 117 29t104 82l125 -154q-73 -79 -158.5 -122.5
t-202.5 -43.5zM438 1210v228h234v-228h-234z" />
    <glyph glyph-name="Ccaron" unicode="&#x10c;" horiz-adv-x="1263" 
d="M727 -20q-182 0 -324 90t-221.5 256.5t-79.5 382.5v14q0 214 82.5 381t228.5 258.5t330 91.5q147 0 253.5 -47.5t197.5 -138.5l-143 -183q-74 72 -149 110t-167 38q-167 0 -277 -142.5t-110 -369.5v-6q0 -230 110.5 -372t278.5 -142q92 0 166 38t154 117l143 -170
q-102 -102 -212 -154t-261 -52zM1034 1817l-219 -265h-213l-219 265h190l138 -115l137 115h186z" />
    <glyph glyph-name="ccaron" unicode="&#x10d;" horiz-adv-x="985" 
d="M870 1499l-211 -293h-206l-211 293h176l139 -135l139 135h174zM569 -25q-212 0 -349.5 156t-137.5 397v21q0 245 140.5 401t355.5 156q111 0 193 -37.5t155 -110.5l-129 -170q-50 52 -101 80.5t-118 28.5q-116 0 -189.5 -97.5t-73.5 -252.5v-10q0 -158 75 -255.5
t194 -97.5q67 1 117 29t104 82l125 -154q-73 -79 -158.5 -122.5t-202.5 -43.5z" />
    <glyph glyph-name="Dcaron" unicode="&#x10e;" horiz-adv-x="1374" 
d="M987 1804l-219 -264h-213l-219 264h190l138 -114l137 114h186zM156 0v1434h438q305 0 492.5 -195.5t187.5 -511.5v-18q0 -208 -84.5 -369t-239.5 -250.5t-356 -89.5h-438zM592 1219h-199v-1002h199q197 0 316.5 132.5t119.5 361.5v10q0 227 -120 362.5t-316 135.5z" />
    <glyph glyph-name="dcaron" unicode="&#x10f;" horiz-adv-x="1187" 
d="M1151 1188l23 362h176v-6l-103 -356h-96zM506 -20q-84 0 -158.5 34.5t-133.5 100.5t-93.5 172.5t-34.5 240.5v29q0 132 34.5 239t93.5 173.5t133.5 101.5t158.5 35q195 0 317 -186v559h234v-1479h-234v174q-123 -194 -317 -194zM569 184q109 0 184.5 96t75.5 252v21
q0 156 -75.5 252t-184.5 96t-179.5 -94t-70.5 -254v-18q0 -159 71.5 -255t178.5 -96z" />
    <glyph glyph-name="Dcroat" unicode="&#x110;" horiz-adv-x="1423" 
d="M203 0v614h-133v213h133v607h438q305 0 493.5 -195.5t188.5 -511.5v-18q0 -316 -188.5 -512.5t-493.5 -196.5h-438zM729 614h-289v-397h199q198 0 317 132t119 362v10q0 228 -119.5 363t-316.5 135h-199v-392h289v-213z" />
    <glyph glyph-name="dcroat" unicode="&#x111;" horiz-adv-x="1185" 
d="M537 1221v149h286v109h234v-109h119v-151h-119v-1219h-234v174q-59 -90 -134 -142t-181 -52q-83 0 -158 35t-134.5 101.5t-94.5 173t-35 238.5v29q0 132 34.5 238t93.5 173t134.5 102.5t159.5 35.5q193 0 315 -186v301h-286zM571 184q108 0 183 96.5t75 251.5v21
q0 155 -75 251.5t-183 96.5t-180 -95t-72 -253v-18q0 -158 72.5 -254.5t179.5 -96.5z" />
    <glyph glyph-name="Emacron" unicode="&#x112;" horiz-adv-x="1163" 
d="M281 1559v170h655v-170h-655zM156 0v1434h903v-215h-666v-390h590v-215h-590v-397h674v-217h-911z" />
    <glyph glyph-name="emacron" unicode="&#x113;" horiz-adv-x="1075" 
d="M578 -25q-104 0 -195 39.5t-157.5 110.5t-105 176t-38.5 231v15q0 244 131 401.5t332 157.5q144 0 247 -75t153 -202.5t50 -293.5q0 -47 -2 -80h-680q17 -134 92 -207.5t183 -73.5q74 0 133.5 29t116.5 86l120 -144q-160 -170 -380 -170zM311 614h457q-8 135 -65.5 216
t-157.5 81q-97 0 -159.5 -79t-74.5 -218zM233 1225v166h615v-166h-615z" />
    <glyph glyph-name="Ebreve" unicode="&#x114;" horiz-adv-x="1163" 
d="M608 1534q-136 0 -220.5 66.5t-94.5 189.5h162q18 -49 53.5 -72.5t99.5 -23.5q121 0 156 96h160q-10 -122 -95 -189t-221 -67zM156 0v1434h903v-215h-666v-390h590v-215h-590v-397h674v-217h-911z" />
    <glyph glyph-name="ebreve" unicode="&#x115;" horiz-adv-x="1075" 
d="M578 -25q-104 0 -195 39.5t-157.5 110.5t-105 176t-38.5 231v15q0 244 131 401.5t332 157.5q144 0 247 -75t153 -202.5t50 -293.5q0 -47 -2 -80h-680q17 -134 92 -207.5t183 -73.5q74 0 133.5 29t116.5 86l120 -144q-160 -170 -380 -170zM311 614h457q-8 135 -65.5 216
t-157.5 81q-97 0 -159.5 -79t-74.5 -218zM541 1200q-132 0 -217 72.5t-97 204.5h158q30 -119 156 -119q125 0 155 119h158q-10 -132 -95.5 -204.5t-217.5 -72.5z" />
    <glyph glyph-name="Edotaccent" unicode="&#x116;" horiz-adv-x="1163" 
d="M489 1542v219h240v-219h-240zM156 0v1434h903v-215h-666v-390h590v-215h-590v-397h674v-217h-911z" />
    <glyph glyph-name="edotaccent" unicode="&#x117;" horiz-adv-x="1075" 
d="M578 -25q-104 0 -195 39.5t-157.5 110.5t-105 176t-38.5 231v15q0 244 131 401.5t332 157.5q144 0 247 -75t153 -202.5t50 -293.5q0 -47 -2 -80h-680q17 -134 92 -207.5t183 -73.5q74 0 133.5 29t116.5 86l120 -144q-160 -170 -380 -170zM311 614h457q-8 135 -65.5 216
t-157.5 81q-97 0 -159.5 -79t-74.5 -218zM424 1210v228h233v-228h-233z" />
    <glyph glyph-name="Eogonek" unicode="&#x118;" horiz-adv-x="1163" 
d="M156 0v1434h903v-215h-666v-390h590v-215h-590v-397h674v-217h-70q-61 -64 -61 -123q0 -78 127 -78v-118q-62 -5 -66 -5q-116 0 -177.5 43t-61.5 117q0 80 78 164h-680z" />
    <glyph glyph-name="eogonek" unicode="&#x119;" horiz-adv-x="1075" 
d="M311 614h457q-8 135 -65.5 216t-157.5 81q-97 0 -159.5 -79t-74.5 -218zM838 289l120 -144l-88 -90q-108 -94 -108 -172q0 -46 30.5 -65t98.5 -19v-118q-67 -5 -68 -5q-116 0 -178.5 42.5t-62.5 113.5q0 70 69 152q-35 -9 -73 -9q-104 0 -195 39.5t-157.5 110.5t-105 176
t-38.5 231v15q0 244 131 401.5t332 157.5q144 0 247 -75t153 -202.5t50 -293.5q0 -7 -1 -39.5t-1 -40.5h-680q17 -134 92 -207.5t183 -73.5q74 0 133.5 29t116.5 86z" />
    <glyph glyph-name="Ecaron" unicode="&#x11a;" horiz-adv-x="1163" 
d="M934 1804l-219 -264h-213l-219 264h190l137 -114l138 114h186zM156 0v1434h903v-215h-666v-390h590v-215h-590v-397h674v-217h-911z" />
    <glyph glyph-name="ecaron" unicode="&#x11b;" horiz-adv-x="1075" 
d="M856 1499l-211 -293h-207l-211 293h176l140 -135l139 135h174zM578 -25q-104 0 -195 39.5t-157.5 110.5t-105 176t-38.5 231v15q0 244 131 401.5t332 157.5q144 0 247 -75t153 -202.5t50 -293.5q0 -47 -2 -80h-680q17 -134 92 -207.5t183 -73.5q74 0 133.5 29t116.5 86
l120 -144q-160 -170 -380 -170zM311 614h457q-8 135 -65.5 216t-157.5 81q-97 0 -159.5 -79t-74.5 -218z" />
    <glyph glyph-name="Gbreve" unicode="&#x11e;" horiz-adv-x="1372" 
d="M729 1546q-136 0 -220.5 66.5t-94.5 189.5h161q18 -49 54 -72.5t100 -23.5q121 0 156 96h159q-10 -123 -94.5 -189.5t-220.5 -66.5zM758 -20q-292 0 -474 199t-182 528v16q0 155 49.5 291t135.5 232.5t209 152t264 55.5q142 0 246.5 -39t207.5 -123l-143 -186
q-68 61 -141 94t-174 33q-177 0 -292.5 -143.5t-115.5 -364.5v-12q0 -239 116 -377.5t304 -138.5q153 0 254 75v316h-301v209h528v-643q-223 -174 -491 -174z" />
    <glyph glyph-name="gbreve" unicode="&#x11f;" horiz-adv-x="1187" 
d="M543 -313q-219 0 -412 102l78 182q145 -90 323 -90q293 0 293 285v104q-63 -90 -139 -140t-186 -50q-83 0 -157 33t-132 95.5t-91.5 161t-33.5 220.5v6q0 122 34.5 221t93 161t132 95t154.5 33q192 0 325 -182v161h232v-909q0 -238 -121 -362q-127 -127 -393 -127z
M569 281q109 0 184.5 86t75.5 225v2q0 139 -75.5 224t-184.5 85t-179.5 -83t-70.5 -226v-2q0 -141 71.5 -226t178.5 -85zM604 1200q-132 0 -216.5 72.5t-96.5 204.5h158q30 -119 155 -119q126 0 156 119h158q-10 -132 -96 -204.5t-218 -72.5z" />
    <glyph glyph-name="Gdotaccent" unicode="&#x120;" horiz-adv-x="1372" 
d="M610 1554v220h240v-220h-240zM758 -20q-292 0 -474 199t-182 528v16q0 155 49.5 291t135.5 232.5t209 152t264 55.5q142 0 246.5 -39t207.5 -123l-143 -186q-68 61 -141 94t-174 33q-177 0 -292.5 -143.5t-115.5 -364.5v-12q0 -239 116 -377.5t304 -138.5q153 0 254 75
v316h-301v209h528v-643q-223 -174 -491 -174z" />
    <glyph glyph-name="gdotaccent" unicode="&#x121;" horiz-adv-x="1187" 
d="M543 -313q-219 0 -412 102l78 182q145 -90 323 -90q293 0 293 285v104q-63 -90 -139 -140t-186 -50q-83 0 -157 33t-132 95.5t-91.5 161t-33.5 220.5v6q0 122 34.5 221t93 161t132 95t154.5 33q192 0 325 -182v161h232v-909q0 -238 -121 -362q-127 -127 -393 -127z
M569 281q109 0 184.5 86t75.5 225v2q0 139 -75.5 224t-184.5 85t-179.5 -83t-70.5 -226v-2q0 -141 71.5 -226t178.5 -85zM487 1210v228h234v-228h-234z" />
    <glyph glyph-name="Gcommaaccent" unicode="&#x122;" horiz-adv-x="1372" 
d="M606 -520l-14 76q133 21 127 129h-101v194h222v-170q0 -115 -57 -168t-177 -61zM758 -20q-292 0 -474 199t-182 528v16q0 155 49.5 291t135.5 232.5t209 152t264 55.5q142 0 246.5 -39t207.5 -123l-143 -186q-68 61 -141 94t-174 33q-177 0 -292.5 -143.5t-115.5 -364.5
v-12q0 -239 116 -377.5t304 -138.5q153 0 254 75v316h-301v209h528v-643q-223 -174 -491 -174z" />
    <glyph glyph-name="gcommaaccent" unicode="&#x123;" horiz-adv-x="1187" 
d="M723 1610l14 -76q-133 -21 -127 -129h101v-195h-222v170q0 115 57 168.5t177 61.5zM543 -313q-219 0 -412 102l78 182q145 -90 323 -90q293 0 293 285v104q-63 -90 -139 -140t-186 -50q-83 0 -157 33t-132 95.5t-91.5 161t-33.5 220.5v6q0 122 34.5 221t93 161t132 95
t154.5 33q192 0 325 -182v161h232v-909q0 -238 -121 -362q-127 -127 -393 -127zM569 281q109 0 184.5 86t75.5 225v2q0 139 -75.5 224t-184.5 85t-179.5 -83t-70.5 -226v-2q0 -141 71.5 -226t178.5 -85z" />
    <glyph glyph-name="Hbar" unicode="&#x126;" horiz-adv-x="1384" 
d="M43 1057v176h129v201h240v-201h561v201h237v-201h129v-176h-129v-1057h-237v608h-561v-608h-240v1057h-129zM412 829h561v232h-561v-232z" />
    <glyph glyph-name="hbar" unicode="&#x127;" horiz-adv-x="1114" 
d="M649 1221h-287v-293q62 86 127.5 132t167.5 46q158 0 247 -102t89 -277v-727h-233v662q0 115 -50 175t-143 60q-92 0 -148.5 -64.5t-56.5 -175.5v-657h-231v1219h-121v151h121v109h231v-109h287v-149z" />
    <glyph glyph-name="Imacron" unicode="&#x12a;" horiz-adv-x="571" 
d="M166 0v1434h240v-1434h-240zM-37 1559v170h655v-170h-655z" />
    <glyph glyph-name="imacron" unicode="&#x12b;" horiz-adv-x="518" 
d="M141 0v1085h234v-1085h-234zM-45 1225v166h614v-166h-614z" />
    <glyph glyph-name="Ibreve" unicode="&#x12c;" horiz-adv-x="571" 
d="M166 0v1434h240v-1434h-240zM291 1534q-136 0 -221 67t-95 189h162q18 -49 54 -72.5t100 -23.5t100.5 23.5t54.5 72.5h160q-10 -123 -94.5 -189.5t-220.5 -66.5z" />
    <glyph glyph-name="ibreve" unicode="&#x12d;" horiz-adv-x="518" 
d="M141 0v1085h234v-1085h-234zM262 1200q-132 0 -216.5 72.5t-96.5 204.5h157q30 -119 156 -119t156 119h157q-10 -132 -95.5 -204.5t-217.5 -72.5z" />
    <glyph glyph-name="Iogonek" unicode="&#x12e;" horiz-adv-x="571" 
d="M166 0v1434h240v-1434h-41q-62 -65 -62 -123q0 -78 127 -78v-118q-63 -5 -65 -5q-116 0 -178 43t-62 117q0 80 78 164h-37z" />
    <glyph glyph-name="iogonek" unicode="&#x12f;" horiz-adv-x="518" 
d="M141 0v1085h234v-1085h-37q-62 -65 -62 -123q0 -78 127 -78v-118q-62 -5 -65 -5q-116 0 -178 43t-62 117q0 80 78 164h-35zM135 1243v227h246v-227h-246z" />
    <glyph glyph-name="Idotaccent" unicode="&#x130;" horiz-adv-x="571" 
d="M166 0v1434h240v-1434h-240zM172 1542v219h240v-219h-240z" />
    <glyph glyph-name="dotlessi" unicode="&#x131;" horiz-adv-x="518" 
d="M141 0v1085h234v-1085h-234z" />
    <glyph glyph-name="Kcommaaccent" unicode="&#x136;" horiz-adv-x="1282" 
d="M522 -512l-14 76q133 21 127 129h-100v194h221v-170q0 -115 -57 -168t-177 -61zM156 0v1434h237v-705l557 705h283l-498 -617l522 -817h-282l-404 629l-178 -215v-414h-237z" />
    <glyph glyph-name="kcommaaccent" unicode="&#x137;" horiz-adv-x="1042" 
d="M418 -518l-15 76q133 21 127 129h-100v194h221v-170q0 -115 -56.5 -168t-176.5 -61zM131 0v1479h231v-871l371 477h275l-361 -442l371 -643h-266l-265 465l-125 -154v-311h-231z" />
    <glyph glyph-name="Lacute" unicode="&#x139;" horiz-adv-x="1071" 
d="M215 1538l209 283l209 -95l-240 -188h-178zM156 0v1434h237v-1215h615v-219h-852z" />
    <glyph glyph-name="lacute" unicode="&#x13a;" horiz-adv-x="518" 
d="M176 1561l209 282l209 -94l-240 -188h-178zM141 0v1479h234v-1479h-234z" />
    <glyph glyph-name="Lcommaaccent" unicode="&#x13b;" horiz-adv-x="1071" 
d="M453 -518l-15 76q133 21 127 129h-100v194h221v-170q0 -115 -56.5 -168t-176.5 -61zM156 0v1434h237v-1215h615v-219h-852z" />
    <glyph glyph-name="lcommaaccent" unicode="&#x13c;" horiz-adv-x="518" 
d="M139 -518l-14 76q133 21 127 129h-100v194h221v-170q0 -115 -57 -168t-177 -61zM141 0v1479h234v-1479h-234z" />
    <glyph glyph-name="Lcaron" unicode="&#x13d;" horiz-adv-x="1071" 
d="M522 1075l23 363h176v-6l-103 -357h-96zM156 0v1434h237v-1215h615v-219h-852z" />
    <glyph glyph-name="lcaron" unicode="&#x13e;" horiz-adv-x="518" 
d="M471 1188l23 362h176v-6l-103 -356h-96zM141 0v1479h234v-1479h-234z" />
    <glyph glyph-name="Ldot" unicode="&#x13f;" horiz-adv-x="1071" 
d="M715 647v230h225v-230h-225zM156 0v1434h237v-1215h615v-219h-852z" />
    <glyph glyph-name="ldot" unicode="&#x140;" horiz-adv-x="679" 
d="M500 645v221h198v-221h-198zM141 0v1479h234v-1479h-234z" />
    <glyph glyph-name="Lslash" unicode="&#x141;" horiz-adv-x="1118" 
d="M715 782l-277 -133v-430h619v-219h-854v537l-133 -66v227l133 64v672h235v-557l277 135v-230z" />
    <glyph glyph-name="lslash" unicode="&#x142;" horiz-adv-x="618" 
d="M563 778l-137 -73v-705h-231v580l-140 -74v223l140 74v676h231v-551l137 76v-226z" />
    <glyph glyph-name="Nacute" unicode="&#x143;" horiz-adv-x="1394" 
d="M600 1538l209 283l209 -95l-240 -188h-178zM156 0v1434h219l633 -955v955h233v-1434h-203l-649 985v-985h-233z" />
    <glyph glyph-name="nacute" unicode="&#x144;" horiz-adv-x="1114" 
d="M465 1206l199 322l204 -98l-233 -224h-170zM131 0v1085h231v-157q54 82 124.5 130t172.5 48q158 0 246 -100.5t88 -278.5v-727h-233v659q0 116 -50 177t-143 61q-92 0 -148.5 -64.5t-56.5 -175.5v-657h-231z" />
    <glyph glyph-name="Ncommaaccent" unicode="&#x145;" horiz-adv-x="1394" 
d="M571 -512l-14 76q133 21 127 129h-100v194h221v-170q0 -115 -57 -168t-177 -61zM156 0v1434h219l633 -955v955h233v-1434h-203l-649 985v-985h-233z" />
    <glyph glyph-name="ncommaaccent" unicode="&#x146;" horiz-adv-x="1114" 
d="M434 -518l-14 76q133 21 127 129h-101v194h222v-170q0 -115 -57 -168t-177 -61zM131 0v1085h231v-157q54 82 124.5 130t172.5 48q158 0 246 -100.5t88 -278.5v-727h-233v659q0 116 -50 177t-143 61q-92 0 -148.5 -64.5t-56.5 -175.5v-657h-231z" />
    <glyph glyph-name="Ncaron" unicode="&#x147;" horiz-adv-x="1394" 
d="M1020 1804l-219 -264h-213l-219 264h190l137 -114l138 114h186zM156 0v1434h219l633 -955v955h233v-1434h-203l-649 985v-985h-233z" />
    <glyph glyph-name="ncaron" unicode="&#x148;" horiz-adv-x="1114" 
d="M874 1499l-210 -293h-207l-211 293h176l139 -135l139 135h174zM131 0v1085h231v-157q54 82 124.5 130t172.5 48q158 0 246 -100.5t88 -278.5v-727h-233v659q0 116 -50 177t-143 61q-92 0 -148.5 -64.5t-56.5 -175.5v-657h-231z" />
    <glyph glyph-name="Omacron" unicode="&#x14c;" horiz-adv-x="1474" 
d="M408 1571v170h655v-170h-655zM737 -25q-186 0 -331 93.5t-224.5 259.5t-79.5 377v20q0 211 81 378.5t226.5 261t329.5 93.5q185 0 329.5 -93t224 -259t79.5 -377v-20q0 -211 -81 -378.5t-226 -261.5t-328 -94zM739 197q170 0 278.5 141t108.5 371v14q0 230 -109.5 372
t-279.5 142q-172 0 -280.5 -141t-108.5 -371v-14q0 -229 111 -371.5t280 -142.5z" />
    <glyph glyph-name="omacron" unicode="&#x14d;" horiz-adv-x="1163" 
d="M272 1225v166h615v-166h-615zM582 -25q-215 0 -357.5 158t-142.5 397v19q0 240 143 398.5t359 158.5q141 0 254.5 -72t177 -198.5t63.5 -284.5v-19q0 -158 -64 -285t-178 -199.5t-255 -72.5zM584 180q121 0 193.5 100t72.5 255v12q0 153 -76 254.5t-192 101.5
q-121 0 -195 -100.5t-74 -253.5v-12q0 -153 77 -255t194 -102z" />
    <glyph glyph-name="Obreve" unicode="&#x14e;" horiz-adv-x="1474" 
d="M735 1546q-136 0 -220.5 66.5t-94.5 189.5h162q18 -49 53.5 -72.5t99.5 -23.5q121 0 156 96h160q-10 -122 -95 -189t-221 -67zM737 -25q-186 0 -331 93.5t-224.5 259.5t-79.5 377v20q0 211 81 378.5t226.5 261t329.5 93.5q185 0 329.5 -93t224 -259t79.5 -377v-20
q0 -211 -81 -378.5t-226 -261.5t-328 -94zM739 197q170 0 278.5 141t108.5 371v14q0 230 -109.5 372t-279.5 142q-172 0 -280.5 -141t-108.5 -371v-14q0 -229 111 -371.5t280 -142.5z" />
    <glyph glyph-name="obreve" unicode="&#x14f;" horiz-adv-x="1163" 
d="M582 -25q-215 0 -357.5 158t-142.5 397v19q0 240 143 398.5t359 158.5q141 0 254.5 -72t177 -198.5t63.5 -284.5v-19q0 -158 -64 -285t-178 -199.5t-255 -72.5zM584 180q121 0 193.5 100t72.5 255v12q0 153 -76 254.5t-192 101.5q-121 0 -195 -100.5t-74 -253.5v-12
q0 -153 77 -255t194 -102zM580 1200q-132 0 -217 72.5t-97 204.5h158q30 -119 156 -119q125 0 155 119h158q-10 -132 -95.5 -204.5t-217.5 -72.5z" />
    <glyph glyph-name="Ohungarumlaut" unicode="&#x150;" horiz-adv-x="1474" 
d="M737 -25q-186 0 -331 93.5t-224.5 259.5t-79.5 377v20q0 211 81 378.5t226.5 261t329.5 93.5q185 0 329.5 -93t224 -259t79.5 -377v-20q0 -211 -81 -378.5t-226 -261.5t-328 -94zM739 197q170 0 278.5 141t108.5 371v14q0 230 -109.5 372t-279.5 142q-172 0 -280.5 -141
t-108.5 -371v-14q0 -229 111 -371.5t280 -142.5zM471 1550l209 283l201 -94l-238 -189h-172zM788 1550l211 283l199 -94l-237 -189h-173z" />
    <glyph glyph-name="ohungarumlaut" unicode="&#x151;" horiz-adv-x="1163" 
d="M633 1206l196 322l197 -96l-231 -226h-162zM326 1206l194 322l197 -96l-230 -226h-161zM582 -25q-215 0 -357.5 158t-142.5 397v19q0 240 143 398.5t359 158.5q141 0 254.5 -72t177 -198.5t63.5 -284.5v-19q0 -158 -64 -285t-178 -199.5t-255 -72.5zM584 180
q121 0 193.5 100t72.5 255v12q0 153 -76 254.5t-192 101.5q-121 0 -195 -100.5t-74 -253.5v-12q0 -153 77 -255t194 -102z" />
    <glyph glyph-name="OE" unicode="&#x152;" horiz-adv-x="1916" 
d="M1821 0h-1039q-305 0 -492.5 195.5t-187.5 511.5v18q0 208 84.5 369t239.5 250.5t356 89.5h1030v-215h-634v-390h561v-215h-561v-397h643v-217zM782 217h158v1002h-156q-198 0 -317 -133t-119 -363v-10q0 -228 118.5 -362t315.5 -134z" />
    <glyph glyph-name="oe" unicode="&#x153;" horiz-adv-x="1837" 
d="M571 -25q-101 0 -191 42t-155.5 115.5t-104 177t-38.5 220.5v19q0 238 143 397.5t353 159.5q119 0 214 -55.5t156 -155.5q61 100 153.5 155.5t205.5 55.5q144 0 247 -75t153 -202.5t50 -293.5q0 -5 -1 -33t-1 -47h-680q17 -134 90.5 -207.5t184.5 -73.5q75 0 133.5 28.5
t115.5 86.5l121 -144q-79 -84 -170 -127t-209 -43q-124 0 -227 57.5t-166 160.5q-61 -102 -159.5 -160t-217.5 -58zM1071 614h461q-11 136 -68.5 216.5t-156.5 80.5q-97 0 -160 -79t-76 -218zM578 180q118 0 190 100t72 255v12q0 153 -74.5 254.5t-190.5 101.5
q-118 0 -190 -100.5t-72 -253.5v-12q0 -153 75 -255t190 -102z" />
    <glyph glyph-name="Racute" unicode="&#x154;" horiz-adv-x="1280" 
d="M156 0v1434h518q247 0 383 -136q119 -119 119 -317v-6q0 -159 -80 -264.5t-217 -155.5l338 -555h-277l-303 506h-244v-506h-237zM393 719h256q138 0 212.5 66.5t74.5 183.5v2q0 122 -74 185t-211 63h-258v-500zM522 1538l209 283l209 -95l-240 -188h-178z" />
    <glyph glyph-name="racute" unicode="&#x155;" horiz-adv-x="737" 
d="M309 1206l199 322l205 -98l-234 -224h-170zM131 0v1085h231v-211q45 111 127 172.5t199 55.5v-252h-10q-144 0 -230 -95t-86 -274v-481h-231z" />
    <glyph glyph-name="Rcommaaccent" unicode="&#x156;" horiz-adv-x="1280" 
d="M496 -512l-15 76q133 21 127 129h-100v194h221v-170q0 -115 -56.5 -168t-176.5 -61zM156 0v1434h518q247 0 383 -136q119 -119 119 -317v-6q0 -159 -80 -264.5t-217 -155.5l338 -555h-277l-303 506h-244v-506h-237zM393 719h256q138 0 212.5 66.5t74.5 183.5v2
q0 122 -74 185t-211 63h-258v-500z" />
    <glyph glyph-name="rcommaaccent" unicode="&#x157;" horiz-adv-x="737" 
d="M141 -518l-14 76q133 21 127 129h-100v194h221v-170q0 -115 -57 -168t-177 -61zM131 0v1085h231v-211q45 111 127 172.5t199 55.5v-252h-10q-144 0 -230 -95t-86 -274v-481h-231z" />
    <glyph glyph-name="Rcaron" unicode="&#x158;" horiz-adv-x="1280" 
d="M944 1804l-219 -264h-213l-219 264h190l138 -114l137 114h186zM156 0v1434h518q247 0 383 -136q119 -119 119 -317v-6q0 -159 -80 -264.5t-217 -155.5l338 -555h-277l-303 506h-244v-506h-237zM393 719h256q138 0 212.5 66.5t74.5 183.5v2q0 122 -74 185t-211 63h-258
v-500z" />
    <glyph glyph-name="rcaron" unicode="&#x159;" horiz-adv-x="737" 
d="M717 1499l-211 -293h-207l-211 293h176l139 -135l140 135h174zM131 0v1085h231v-211q45 111 127 172.5t199 55.5v-252h-10q-144 0 -230 -95t-86 -274v-481h-231z" />
    <glyph glyph-name="Sacute" unicode="&#x15a;" horiz-adv-x="1124" 
d="M571 -18q-299 0 -518 206l144 179q90 -81 179.5 -125.5t196.5 -44.5q103 0 165.5 51.5t62.5 130.5v2q0 72 -57 123t-220 110q-109 42 -180 80t-126 89t-80 115t-25 149v4q0 177 125.5 289t326.5 112q261 0 451 -170l-135 -182q-164 137 -322 137q-96 0 -152.5 -46.5
t-56.5 -119.5v-2q0 -52 23.5 -88.5t88 -75t185.5 -84.5q206 -79 297.5 -174.5t91.5 -247.5v-4q0 -187 -130.5 -300t-334.5 -113zM473 1550l209 283l209 -94l-240 -189h-178z" />
    <glyph glyph-name="sacute" unicode="&#x15b;" horiz-adv-x="888" 
d="M354 1206l199 322l205 -98l-234 -224h-170zM444 -20q-102 0 -207 38t-194 113l107 166q156 -127 301 -127q70 0 109.5 33t39.5 86v4q0 22 -11 41.5t-25.5 33t-48 31.5t-56.5 28.5t-74 31.5q-47 21 -78 36.5t-69 38.5t-61.5 46t-45 53t-31.5 67t-10 80v4
q0 145 101.5 231.5t257.5 86.5q188 0 352 -117l-99 -170q-143 96 -258 96q-64 0 -100.5 -30t-36.5 -76v-4q0 -21 11 -40t25.5 -32.5t47.5 -31.5t56 -29t73 -33q71 -32 118 -59.5t91 -66t65 -87.5t21 -111v-4q0 -153 -105 -240t-266 -87z" />
    <glyph glyph-name="Scedilla" unicode="&#x15e;" horiz-adv-x="1124" 
d="M539 -311l-203 84l143 215q-239 25 -426 200l144 179q90 -81 179.5 -125.5t196.5 -44.5q103 0 165.5 51.5t62.5 130.5v2q0 72 -57 123t-220 110q-109 42 -180 80t-126 89t-80 115t-25 149v4q0 177 125.5 289t326.5 112q261 0 451 -170l-135 -182q-164 137 -322 137
q-96 0 -152.5 -46.5t-56.5 -119.5v-2q0 -52 23.5 -88.5t88 -75t185.5 -84.5q206 -79 297.5 -174.5t91.5 -247.5v-4q0 -167 -104 -274.5t-275 -132.5z" />
    <glyph glyph-name="scedilla" unicode="&#x15f;" horiz-adv-x="888" 
d="M408 -311l-203 84l143 215q-171 26 -305 143l107 166q156 -127 301 -127q70 0 109.5 33t39.5 86v4q0 22 -11 41.5t-25.5 33t-48 31.5t-56.5 28.5t-74 31.5q-47 21 -78 36.5t-69 38.5t-61.5 46t-45 53t-31.5 67t-10 80v4q0 145 101.5 231.5t257.5 86.5q188 0 352 -117
l-99 -170q-143 96 -258 96q-64 0 -100.5 -30t-36.5 -76v-4q0 -21 11 -40t25.5 -32.5t47.5 -31.5t56 -29t73 -33q71 -32 118 -59.5t91 -66t65 -87.5t21 -111v-4q0 -133 -79.5 -216.5t-211.5 -104.5z" />
    <glyph glyph-name="Scaron" unicode="&#x160;" horiz-adv-x="1124" 
d="M571 -18q-299 0 -518 206l144 179q90 -81 179.5 -125.5t196.5 -44.5q103 0 165.5 51.5t62.5 130.5v2q0 72 -57 123t-220 110q-109 42 -180 80t-126 89t-80 115t-25 149v4q0 177 125.5 289t326.5 112q261 0 451 -170l-135 -182q-164 137 -322 137q-96 0 -152.5 -46.5
t-56.5 -119.5v-2q0 -52 23.5 -88.5t88 -75t185.5 -84.5q206 -79 297.5 -174.5t91.5 -247.5v-4q0 -187 -130.5 -300t-334.5 -113zM897 1817l-219 -265h-213l-219 265h190l137 -115l138 115h186z" />
    <glyph glyph-name="scaron" unicode="&#x161;" horiz-adv-x="888" 
d="M770 1499l-211 -293h-207l-211 293h176l140 -135l139 135h174zM444 -20q-102 0 -207 38t-194 113l107 166q156 -127 301 -127q70 0 109.5 33t39.5 86v4q0 22 -11 41.5t-25.5 33t-48 31.5t-56.5 28.5t-74 31.5q-47 21 -78 36.5t-69 38.5t-61.5 46t-45 53t-31.5 67t-10 80
v4q0 145 101.5 231.5t257.5 86.5q188 0 352 -117l-99 -170q-143 96 -258 96q-64 0 -100.5 -30t-36.5 -76v-4q0 -21 11 -40t25.5 -32.5t47.5 -31.5t56 -29t73 -33q71 -32 118 -59.5t91 -66t65 -87.5t21 -111v-4q0 -153 -105 -240t-266 -87z" />
    <glyph glyph-name="Tcommaaccent" unicode="&#x162;" horiz-adv-x="1122" 
d="M436 -518l-14 76q133 21 127 129h-100v194h221v-170q0 -115 -57 -168t-177 -61zM442 0v1212h-376v222h993v-222h-379v-1212h-238z" />
    <glyph glyph-name="Tcommaaccent" unicode="&#x21a;" horiz-adv-x="1122" 
d="M436 -518l-14 76q133 21 127 129h-100v194h221v-170q0 -115 -57 -168t-177 -61zM442 0v1212h-376v222h993v-222h-379v-1212h-238z" />
    <glyph glyph-name="tcommaaccent" unicode="&#x163;" horiz-adv-x="731" 
d="M281 -518l-15 76q133 21 127 129h-100v194h221v-170q0 -115 -56.5 -168t-176.5 -61zM457 -16q-281 0 -281 280v623h-117v198h117v293h234v-293h241v-198h-241v-578q0 -119 114 -119q59 0 125 29v-188q-83 -47 -192 -47z" />
    <glyph glyph-name="tcommaaccent" unicode="&#x21b;" horiz-adv-x="731" 
d="M281 -518l-15 76q133 21 127 129h-100v194h221v-170q0 -115 -56.5 -168t-176.5 -61zM457 -16q-281 0 -281 280v623h-117v198h117v293h234v-293h241v-198h-241v-578q0 -119 114 -119q59 0 125 29v-188q-83 -47 -192 -47z" />
    <glyph glyph-name="Tcaron" unicode="&#x164;" horiz-adv-x="1122" 
d="M887 1804l-219 -264h-213l-219 264h190l137 -114l137 114h187zM442 0v1212h-376v222h993v-222h-379v-1212h-238z" />
    <glyph glyph-name="tcaron" unicode="&#x165;" horiz-adv-x="731" 
d="M530 1188l23 362h176v-6l-102 -356h-97zM457 -16q-281 0 -281 280v623h-117v198h117v293h234v-293h241v-198h-241v-578q0 -119 114 -119q59 0 125 29v-188q-83 -47 -192 -47z" />
    <glyph glyph-name="Umacron" unicode="&#x16a;" horiz-adv-x="1339" 
d="M340 1559v170h655v-170h-655zM668 -23q-245 0 -388 147.5t-143 424.5v885h238v-885q0 -170 79 -260t218 -90q138 0 216.5 87.5t78.5 256.5v891h237v-879q0 -282 -143.5 -430t-392.5 -148z" />
    <glyph glyph-name="umacron" unicode="&#x16b;" horiz-adv-x="1112" 
d="M455 -20q-158 0 -246 100.5t-88 275.5v729h229v-659q0 -116 51 -177t144 -61q94 0 148.5 63t54.5 177v657h233v-1085h-233v158q-109 -178 -293 -178zM242 1225v166h614v-166h-614z" />
    <glyph glyph-name="Ubreve" unicode="&#x16c;" horiz-adv-x="1339" 
d="M668 1522q-136 0 -221 67t-95 189h162q18 -49 54 -73t100 -24q120 0 155 97h160q-10 -123 -94.5 -189.5t-220.5 -66.5zM668 -23q-245 0 -388 147.5t-143 424.5v885h238v-885q0 -170 79 -260t218 -90q138 0 216.5 87.5t78.5 256.5v891h237v-879q0 -282 -143.5 -430
t-392.5 -148z" />
    <glyph glyph-name="ubreve" unicode="&#x16d;" horiz-adv-x="1112" 
d="M455 -20q-158 0 -246 100.5t-88 275.5v729h229v-659q0 -116 51 -177t144 -61q94 0 148.5 63t54.5 177v657h233v-1085h-233v158q-109 -178 -293 -178zM549 1200q-132 0 -216.5 72.5t-96.5 204.5h157q30 -119 156 -119t156 119h157q-10 -132 -95.5 -204.5t-217.5 -72.5z
" />
    <glyph glyph-name="Uring" unicode="&#x16e;" horiz-adv-x="1339" 
d="M668 -23q-245 0 -388 147.5t-143 424.5v885h238v-885q0 -170 79 -260t218 -90q138 0 216.5 87.5t78.5 256.5v891h237v-879q0 -282 -143.5 -430t-392.5 -148zM668 1499q-92 0 -157 58t-65 143t65 143t157 58q93 0 158 -57.5t65 -143.5t-65 -143.5t-158 -57.5zM668 1591
q53 0 85.5 31.5t32.5 77.5q0 48 -32.5 78t-85.5 30q-54 0 -86.5 -30t-32.5 -78q0 -45 33 -77t86 -32z" />
    <glyph glyph-name="uring" unicode="&#x16f;" horiz-adv-x="1112" 
d="M549 1180q-91 0 -154 61.5t-63 151.5t63 151.5t154 61.5q93 0 156 -60.5t63 -152.5q0 -90 -64 -151.5t-155 -61.5zM549 1268q51 0 87 36t36 89t-36 89t-87 36t-86 -35.5t-35 -89.5t35 -89.5t86 -35.5zM455 -20q-158 0 -246 100.5t-88 275.5v729h229v-659q0 -116 51 -177
t144 -61q94 0 148.5 63t54.5 177v657h233v-1085h-233v158q-109 -178 -293 -178z" />
    <glyph glyph-name="Uhungarumlaut" unicode="&#x170;" horiz-adv-x="1339" 
d="M668 -23q-245 0 -388 147.5t-143 424.5v885h238v-885q0 -170 79 -260t218 -90q138 0 216.5 87.5t78.5 256.5v891h237v-879q0 -282 -143.5 -430t-392.5 -148zM403 1538l209 283l201 -95l-238 -188h-172zM721 1538l211 283l198 -95l-237 -188h-172z" />
    <glyph glyph-name="uhungarumlaut" unicode="&#x171;" horiz-adv-x="1112" 
d="M455 -20q-158 0 -246 100.5t-88 275.5v729h229v-659q0 -116 51 -177t144 -61q94 0 148.5 63t54.5 177v657h233v-1085h-233v158q-109 -178 -293 -178zM602 1206l197 322l196 -96l-231 -226h-162zM295 1206l194 322l197 -96l-229 -226h-162z" />
    <glyph glyph-name="Uogonek" unicode="&#x172;" horiz-adv-x="1339" 
d="M813 -201v-118q-62 -5 -65 -5q-116 0 -178 43t-62 117q0 76 63 148q-203 27 -318.5 170.5t-115.5 394.5v885h238v-885q0 -170 79 -260t218 -90q138 0 216.5 87.5t78.5 256.5v891h237v-879q0 -264 -126 -410t-347 -165q-45 -53 -45 -103q0 -78 127 -78z" />
    <glyph glyph-name="uogonek" unicode="&#x173;" horiz-adv-x="1112" 
d="M455 -20q-158 0 -246 100.5t-88 275.5v729h229v-659q0 -116 51 -177t144 -61q94 0 148.5 63t54.5 177v657h233v-1085h-47q-62 -65 -62 -123q0 -78 127 -78v-118q-62 -5 -65 -5q-116 0 -178 43t-62 117q0 80 78 164h-24v158q-109 -178 -293 -178z" />
    <glyph glyph-name="Wcircumflex" unicode="&#x174;" horiz-adv-x="1968" 
d="M477 -8l-418 1442h252l281 -1041l293 1045h205l294 -1045l279 1041h248l-418 -1442h-217l-293 1012l-291 -1012h-215zM655 1540l219 264h213l220 -264h-191l-137 115l-137 -115h-187z" />
    <glyph glyph-name="wcircumflex" unicode="&#x175;" horiz-adv-x="1550" 
d="M459 1206l211 293h207l210 -293h-178l-139 135l-139 -135h-172zM358 -8l-303 1093h238l184 -731l199 733h198l201 -735l187 733h233l-305 -1093h-213l-203 725l-205 -725h-211z" />
    <glyph glyph-name="Ycircumflex" unicode="&#x176;" horiz-adv-x="1255" 
d="M508 0v571l-481 863h270l334 -621l334 621h264l-481 -861v-573h-240zM301 1540l219 264h213l219 -264h-190l-137 115l-138 -115h-186z" />
    <glyph glyph-name="ycircumflex" unicode="&#x177;" horiz-adv-x="1067" 
d="M543 295l237 790h238l-369 -1101q-55 -163 -128.5 -231t-192.5 -68q-118 0 -217 57l65 178q58 -37 127 -37q46 0 75.5 25.5t55.5 89.5l-389 1087h246zM219 1206l211 293h207l211 -293h-178l-140 135l-139 -135h-172z" />
    <glyph glyph-name="Ydieresis" unicode="&#x178;" horiz-adv-x="1255" 
d="M508 0v571l-481 863h270l334 -621l334 621h264l-481 -861v-573h-240zM698 1542v219h234v-219h-234zM322 1542v219h233v-219h-233z" />
    <glyph glyph-name="Zacute" unicode="&#x179;" horiz-adv-x="1214" 
d="M109 0v176l704 1045h-682v213h979v-177l-704 -1044h704v-213h-1001zM522 1538l209 283l209 -95l-240 -188h-178z" />
    <glyph glyph-name="zacute" unicode="&#x17a;" horiz-adv-x="974" 
d="M397 1206l199 322l205 -98l-234 -224h-170zM84 0v160l528 733h-510v192h793v-159l-530 -733h530v-193h-811z" />
    <glyph glyph-name="Zdotaccent" unicode="&#x17b;" horiz-adv-x="1214" 
d="M500 1542v219h239v-219h-239zM109 0v176l704 1045h-682v213h979v-177l-704 -1044h704v-213h-1001z" />
    <glyph glyph-name="zdotaccent" unicode="&#x17c;" horiz-adv-x="974" 
d="M84 0v160l528 733h-510v192h793v-159l-530 -733h530v-193h-811zM381 1210v228h233v-228h-233z" />
    <glyph glyph-name="Zcaron" unicode="&#x17d;" horiz-adv-x="1214" 
d="M944 1804l-219 -264h-213l-219 264h190l138 -114l137 114h186zM109 0v176l704 1045h-682v213h979v-177l-704 -1044h704v-213h-1001z" />
    <glyph glyph-name="zcaron" unicode="&#x17e;" horiz-adv-x="974" 
d="M813 1499l-211 -293h-207l-211 293h176l140 -135l139 135h174zM84 0v160l528 733h-510v192h793v-159l-530 -733h530v-193h-811z" />
    <glyph glyph-name="uni018F" unicode="&#x18f;" horiz-adv-x="1386" 
d="M287 1071l-140 168q209 219 510 219q278 0 453.5 -201t175.5 -528v-20q0 -213 -77 -380.5t-214.5 -260.5t-310.5 -93q-188 0 -321 98.5t-197 266t-64 387.5q0 52 4 98h928q-23 198 -126 304t-255 106q-104 0 -191.5 -40t-174.5 -124zM684 193q147 0 240 114t112 316h-686
q14 -200 101.5 -315t232.5 -115z" />
    <glyph glyph-name="florin" unicode="&#x192;" horiz-adv-x="958" 
d="M176 -10q-71 0 -110 10v197q34 -9 75 -9q58 0 90.5 31.5t42.5 102.5l62 415h-143v195h172l30 205q25 156 104 231.5t228 75.5q101 0 172 -23v-198q-74 18 -125 18q-66 0 -102.5 -36t-48.5 -115l-25 -158h238v-195h-267l-65 -448q-24 -158 -103.5 -228.5t-224.5 -70.5z
" />
    <glyph glyph-name="Aringacute" unicode="&#x1fa;" horiz-adv-x="1382" 
d="M49 0l498 1364q-78 58 -78 154q0 88 64.5 145t158.5 57q92 0 156.5 -57t64.5 -145q0 -92 -77 -156l497 -1362h-248l-120 338h-555l-119 -338h-242zM483 549h408l-203 575zM590 1769l213 248l207 -96l-240 -152h-180zM692 1409q51 0 85 31t34 78t-34 78.5t-85 31.5
q-53 0 -86 -31t-33 -79t33 -78.5t86 -30.5z" />
    <glyph glyph-name="aringacute" unicode="&#x1fb;" horiz-adv-x="1048" 
d="M432 1688l203 264l203 -94l-232 -170h-174zM401 -20q-141 0 -237 89t-96 242v13q0 168 105.5 257t283.5 89q125 0 248 -45v47q0 109 -61 165t-173 56q-116 0 -260 -66l-68 185q175 86 359 86q210 0 319 -109t109 -315v-674h-228v133q-107 -153 -301 -153zM471 154
q101 0 168.5 59.5t67.5 151.5v110q-88 37 -201 37q-100 0 -155.5 -48t-55.5 -134v-6q0 -78 48.5 -123t127.5 -47zM524 1200q-91 0 -154 61.5t-63 151.5t63 151.5t154 61.5q93 0 156 -60.5t63 -152.5q0 -90 -64 -151.5t-155 -61.5zM524 1288q52 0 87.5 36t35.5 89t-35.5 89
t-87.5 36q-51 0 -86 -35.5t-35 -89.5t35 -89.5t86 -35.5z" />
    <glyph glyph-name="AEacute" unicode="&#x1fc;" horiz-adv-x="1830" 
d="M981 1538l209 283l209 -95l-240 -188h-178zM18 0l676 1434h1035v-215h-637v-390h561v-215h-561v-397h645v-217h-883v338h-436l-158 -338h-242zM514 549h340v670h-33z" />
    <glyph glyph-name="aeacute" unicode="&#x1fd;" horiz-adv-x="1685" 
d="M741 1206l199 322l205 -98l-234 -224h-170zM424 -20q-155 0 -255.5 89.5t-100.5 245.5v9q0 169 105 257.5t282 88.5q123 0 243 -45v47q0 108 -59 164.5t-170 56.5q-127 0 -260 -68l-66 189q171 84 355 84q247 0 336 -164q130 172 327 172q140 0 242.5 -75t153.5 -203
t51 -293q0 -47 -2 -80h-682q17 -134 91 -207.5t185 -73.5q75 0 133 28.5t115 86.5l123 -144q-160 -170 -381 -170q-117 0 -214.5 51t-164.5 146q-174 -192 -387 -192zM924 614h456q-8 135 -66.5 216t-158.5 81q-97 0 -159 -79t-72 -218zM471 156q73 0 142 40t124 111
q-20 58 -32 168q-88 37 -201 37q-99 0 -154 -47t-55 -133v-8q0 -77 49.5 -122.5t126.5 -45.5z" />
    <glyph glyph-name="Oslashacute" unicode="&#x1fe;" horiz-adv-x="1474" 
d="M1171 1444h211l-163 -221q153 -201 153 -494v-20q0 -211 -81 -378.5t-226 -261.5t-328 -94q-202 0 -356 113l-76 -98h-211l162 219q-154 203 -154 496v20q0 211 81 378t226.5 261t329.5 94q203 0 355 -112zM739 190q172 0 283 143t111 374v16q0 174 -64 299l-557 -750
q98 -82 227 -82zM344 727v-16q0 -174 64 -299l553 749q-101 82 -224 82q-174 0 -283.5 -142t-109.5 -374zM641 1550l209 283l209 -94l-240 -189h-178z" />
    <glyph glyph-name="oslashacute" unicode="&#x1ff;" horiz-adv-x="1163" 
d="M911 1096h195l-141 -181q114 -152 114 -364v-19q0 -157 -64.5 -284.5t-178 -200t-254.5 -72.5q-157 0 -273 82l-57 -69h-195l138 178q-113 151 -113 364v19q0 239 143.5 398t358.5 159q148 0 270 -84zM584 174q123 0 198.5 102.5t75.5 258.5v10q0 98 -37 186l-389 -504
q65 -53 152 -53zM307 549v-12q0 -101 35 -185l389 502q-69 53 -149 53q-125 0 -200 -100.5t-75 -257.5zM485 1206l199 322l205 -98l-234 -224h-170z" />
    <glyph glyph-name="Scommaaccent" unicode="&#x218;" horiz-adv-x="1124" 
d="M440 -520l-14 76q133 21 127 129h-100v194h221v-170q0 -115 -57 -168t-177 -61zM571 -18q-299 0 -518 206l144 179q90 -81 179.5 -125.5t196.5 -44.5q103 0 165.5 51.5t62.5 130.5v2q0 72 -57 123t-220 110q-109 42 -180 80t-126 89t-80 115t-25 149v4q0 177 125.5 289
t326.5 112q261 0 451 -170l-135 -182q-164 137 -322 137q-96 0 -152.5 -46.5t-56.5 -119.5v-2q0 -52 23.5 -88.5t88 -75t185.5 -84.5q206 -79 297.5 -174.5t91.5 -247.5v-4q0 -187 -130.5 -300t-334.5 -113z" />
    <glyph glyph-name="scommaaccent" unicode="&#x219;" horiz-adv-x="888" 
d="M328 -518l-15 76q133 21 127 129h-100v194h221v-170q0 -115 -56.5 -168t-176.5 -61zM444 -20q-102 0 -207 38t-194 113l107 166q156 -127 301 -127q70 0 109.5 33t39.5 86v4q0 22 -11 41.5t-25.5 33t-48 31.5t-56.5 28.5t-74 31.5q-47 21 -78 36.5t-69 38.5t-61.5 46
t-45 53t-31.5 67t-10 80v4q0 145 101.5 231.5t257.5 86.5q188 0 352 -117l-99 -170q-143 96 -258 96q-64 0 -100.5 -30t-36.5 -76v-4q0 -21 11 -40t25.5 -32.5t47.5 -31.5t56 -29t73 -33q71 -32 118 -59.5t91 -66t65 -87.5t21 -111v-4q0 -153 -105 -240t-266 -87z" />
    <glyph glyph-name="schwa" unicode="&#x259;" horiz-adv-x="1075" 
d="M498 1108q138 0 250 -67.5t178.5 -195t66.5 -292.5v-16q0 -244 -131 -402t-332 -158q-144 0 -247 75t-153 203t-50 294v82h682q-17 134 -91.5 207t-185.5 73q-133 0 -247 -114l-123 141q157 170 383 170zM764 469h-459q11 -135 68.5 -216t156.5 -81q96 0 159 80t75 217z
" />
    <glyph glyph-name="circumflex" unicode="&#x2c6;" horiz-adv-x="1024" 
d="M199 1206l211 293h206l211 -293h-178l-139 135l-139 -135h-172z" />
    <glyph glyph-name="caron" unicode="&#x2c7;" horiz-adv-x="1024" 
d="M827 1499l-211 -293h-206l-211 293h176l139 -135l139 135h174z" />
    <glyph glyph-name="breve" unicode="&#x2d8;" horiz-adv-x="1024" 
d="M512 1200q-132 0 -216.5 72.5t-96.5 204.5h157q30 -119 156 -119t156 119h157q-10 -132 -95.5 -204.5t-217.5 -72.5z" />
    <glyph glyph-name="dotaccent" unicode="&#x2d9;" horiz-adv-x="1024" 
d="M395 1210v228h234v-228h-234z" />
    <glyph glyph-name="ring" unicode="&#x2da;" horiz-adv-x="1024" 
d="M512 1200q-91 0 -154 61.5t-63 151.5t63 151.5t154 61.5q93 0 156 -60.5t63 -152.5q0 -90 -64 -151.5t-155 -61.5zM512 1288q52 0 87.5 36t35.5 89t-35.5 89t-87.5 36q-51 0 -86 -35.5t-35 -89.5t35 -89.5t86 -35.5z" />
    <glyph glyph-name="ogonek" unicode="&#x2db;" horiz-adv-x="1024" 
d="M682 -201v-118q-62 -5 -66 -5q-116 0 -177.5 43t-61.5 117q0 87 100 187l156 -7q-78 -81 -78 -139q0 -78 127 -78z" />
    <glyph glyph-name="tilde" unicode="&#x2dc;" horiz-adv-x="1024" 
d="M655 1204q-61 0 -153 45q-69 37 -111 37q-35 0 -54.5 -21t-39.5 -73l-129 35q30 125 75.5 182t125.5 57q61 0 153 -45q8 -3 24.5 -10.5t25 -10.5t21 -7.5t22 -6.5t18.5 -2q35 0 54.5 22t39.5 75l129 -37q-31 -127 -75 -183.5t-126 -56.5z" />
    <glyph glyph-name="hungarumlaut" unicode="&#x2dd;" horiz-adv-x="1024" 
d="M473 1206l197 322l196 -96l-231 -226h-162zM166 1206l194 322l197 -96l-229 -226h-162z" />
    <glyph glyph-name="commaaccent" unicode="&#x326;" horiz-adv-x="1024" 
d="M391 -518l-14 76q133 21 127 129h-101v194h222v-170q0 -115 -57 -168t-177 -61z" />
    <glyph glyph-name="uni0384" unicode="&#x384;" horiz-adv-x="1024" 
d="M360 1206l129 330l205 -92l-180 -238h-154z" />
    <glyph glyph-name="uni0385" unicode="&#x385;" horiz-adv-x="1024" 
d="M678 1210v222h207v-222h-207zM141 1210v222h207v-222h-207zM401 1210l76 367l199 -43l-144 -324h-131z" />
    <glyph glyph-name="uni0386" unicode="&#x386;" horiz-adv-x="1380" 
d="M49 0l526 1442h230l526 -1442h-248l-118 338h-557l-119 -338h-240zM481 549h408l-203 575zM92 1061l25 373h221l-121 -373h-125z" />
    <glyph glyph-name="uni0387" unicode="&#x387;" horiz-adv-x="530" 
d="M135 813v272h262v-272h-262z" />
    <glyph glyph-name="uni0388" unicode="&#x388;" horiz-adv-x="1163" 
d="M-168 1061l25 373h221l-121 -373h-125zM156 0v1434h903v-215h-666v-390h590v-215h-590v-397h674v-217h-911z" />
    <glyph glyph-name="uni0389" unicode="&#x389;" horiz-adv-x="1349" 
d="M156 0v1434h237v-603h561v603h240v-1434h-240v610h-561v-610h-237zM-168 1061l25 373h221l-121 -373h-125z" />
    <glyph glyph-name="uni038A" unicode="&#x38a;" horiz-adv-x="571" 
d="M166 0v1434h240v-1434h-240zM-160 1061l25 373h221l-121 -373h-125z" />
    <glyph glyph-name="uni038C" unicode="&#x38c;" horiz-adv-x="1474" 
d="M-106 1063l24 373h221l-121 -373h-124zM737 -25q-186 0 -331 93.5t-224.5 259.5t-79.5 377v20q0 211 81 378.5t226.5 261t329.5 93.5q185 0 329.5 -93t224 -259t79.5 -377v-20q0 -211 -81 -378.5t-226 -261.5t-328 -94zM739 197q170 0 278.5 141t108.5 371v14
q0 230 -109.5 372t-279.5 142q-172 0 -280.5 -141t-108.5 -371v-14q0 -229 111 -371.5t280 -142.5z" />
    <glyph glyph-name="uni038E" unicode="&#x38e;" horiz-adv-x="1255" 
d="M508 0v571l-481 863h270l334 -621l334 621h264l-481 -861v-573h-240zM-256 1061l25 373h221l-121 -373h-125z" />
    <glyph glyph-name="uni038F" unicode="&#x38f;" horiz-adv-x="1509" 
d="M758 1458q285 0 452.5 -175.5t167.5 -467.5v-6q0 -330 -280 -600l311 2v-211h-541v203q61 61 104.5 116.5t82 126.5t58.5 155.5t20 180.5v4q0 213 -101 332t-276 119q-174 0 -274.5 -117.5t-100.5 -326.5v-5q0 -184 67 -323.5t193 -261.5v-203h-537v211l308 -2
q-133 128 -206 274t-73 326v6q0 186 74.5 331t217.5 228.5t333 83.5zM-104 1063l24 373h221l-121 -373h-124z" />
    <glyph glyph-name="uni0390" unicode="&#x390;" horiz-adv-x="559" 
d="M422 1210v222h207v-222h-207zM-115 1210v222h207v-222h-207zM145 1210l76 367l199 -43l-144 -324h-131zM129 276v809h229v-784q0 -65 25 -91t80 -26q34 0 61 6v-182q-50 -20 -139 -20q-128 0 -192 67.5t-64 220.5z" />
    <glyph glyph-name="uni0391" unicode="&#x391;" horiz-adv-x="1380" 
d="M49 0l526 1442h230l526 -1442h-248l-118 338h-557l-119 -338h-240zM481 549h408l-203 575z" />
    <glyph glyph-name="uni0392" unicode="&#x392;" horiz-adv-x="1273" 
d="M156 0v1434h512q243 0 366 -123q96 -96 96 -242v-6q0 -216 -210 -322q129 -45 200.5 -126.5t71.5 -215.5v-8q0 -186 -138.5 -288.5t-371.5 -102.5h-526zM895 1026v4q0 92 -63.5 142.5t-180.5 50.5h-264v-398h250q120 0 189 51.5t69 149.5zM956 416v4q0 95 -71.5 148
t-206.5 53h-291v-410h301q124 0 196 54t72 151z" />
    <glyph glyph-name="uni0393" unicode="&#x393;" horiz-adv-x="1071" 
d="M156 0v1434h852v-220h-615v-1214h-237z" />
    <glyph glyph-name="uni0394" unicode="&#x394;" horiz-adv-x="1376" 
d="M98 0l-20 176l487 1266h248l487 -1266l-20 -176h-1182zM338 213h694l-346 936z" />
    <glyph glyph-name="uni0395" unicode="&#x395;" horiz-adv-x="1163" 
d="M156 0v1434h903v-215h-666v-390h590v-215h-590v-397h674v-217h-911z" />
    <glyph glyph-name="uni0396" unicode="&#x396;" horiz-adv-x="1214" 
d="M109 0v176l704 1045h-682v213h979v-177l-704 -1044h704v-213h-1001z" />
    <glyph glyph-name="uni0397" unicode="&#x397;" horiz-adv-x="1349" 
d="M156 0v1434h237v-603h561v603h240v-1434h-240v610h-561v-610h-237z" />
    <glyph glyph-name="uni0398" unicode="&#x398;" horiz-adv-x="1474" 
d="M737 -25q-186 0 -331 93.5t-224.5 259.5t-79.5 377v20q0 211 81 378t226.5 261t329.5 94q185 0 329.5 -93t224 -259t79.5 -377v-20q0 -211 -81 -378.5t-226 -261.5t-328 -94zM739 195q175 0 283 139t108 373v18q0 235 -109 375.5t-284 140.5q-178 0 -285.5 -139
t-107.5 -375v-18q0 -236 108.5 -375t286.5 -139zM991 827v-211h-506v211h506z" />
    <glyph glyph-name="uni0399" unicode="&#x399;" horiz-adv-x="571" 
d="M166 0v1434h240v-1434h-240z" />
    <glyph glyph-name="uni039A" unicode="&#x39a;" horiz-adv-x="1282" 
d="M156 0v1434h237v-705l557 705h283l-498 -617l522 -817h-282l-404 629l-178 -215v-414h-237z" />
    <glyph glyph-name="uni039B" unicode="&#x39b;" horiz-adv-x="1343" 
d="M782 1442l514 -1442h-258l-368 1073l-371 -1073h-250l514 1442h219z" />
    <glyph glyph-name="uni039C" unicode="&#x39c;" horiz-adv-x="1542" 
d="M156 0v1434h247l369 -658l365 658h252v-1434h-236v1014l-381 -664h-6l-379 662v-1012h-231z" />
    <glyph glyph-name="uni039D" unicode="&#x39d;" horiz-adv-x="1394" 
d="M156 0v1434h219l633 -955v955h233v-1434h-203l-649 985v-985h-233z" />
    <glyph glyph-name="uni039E" unicode="&#x39e;" horiz-adv-x="1150" 
d="M1047 1217h-943v217h943v-217zM1001 612h-851v219h851v-219zM1055 0h-961v219h961v-219z" />
    <glyph glyph-name="uni039F" unicode="&#x39f;" horiz-adv-x="1474" 
d="M737 -25q-186 0 -331 93.5t-224.5 259.5t-79.5 377v20q0 211 81 378.5t226.5 261t329.5 93.5q185 0 329.5 -93t224 -259t79.5 -377v-20q0 -211 -81 -378.5t-226 -261.5t-328 -94zM739 197q170 0 278.5 141t108.5 371v14q0 230 -109.5 372t-279.5 142q-172 0 -280.5 -141
t-108.5 -371v-14q0 -229 111 -371.5t280 -142.5z" />
    <glyph glyph-name="uni03A0" unicode="&#x3a0;" horiz-adv-x="1343" 
d="M156 0v1434h1032v-1434h-238v1214h-557v-1214h-237z" />
    <glyph glyph-name="uni03A1" unicode="&#x3a1;" horiz-adv-x="1189" 
d="M156 0v1434h458q235 0 375.5 -128t140.5 -348v-4q0 -155 -71.5 -266t-189 -165.5t-269.5 -57.5h-207v-465h-237zM393 680h207q135 0 213 72.5t78 195.5v2q0 129 -76.5 199t-214.5 70h-207v-539z" />
    <glyph glyph-name="uni03A3" unicode="&#x3a3;" horiz-adv-x="1189" 
d="M842 717l-416 -504h672v-213h-987v178l440 539l-436 538v179h975v-213h-662z" />
    <glyph glyph-name="uni03A4" unicode="&#x3a4;" horiz-adv-x="1122" 
d="M442 0v1212h-376v222h993v-222h-379v-1212h-238z" />
    <glyph glyph-name="uni03A5" unicode="&#x3a5;" horiz-adv-x="1255" 
d="M508 0v571l-481 863h270l334 -621l334 621h264l-481 -861v-573h-240z" />
    <glyph glyph-name="uni03A6" unicode="&#x3a6;" horiz-adv-x="1718" 
d="M741 -20v155q-304 12 -478.5 168.5t-174.5 415.5v2q0 259 174 416.5t479 169.5v147h236v-147q305 -12 480 -168.5t175 -415.5v-2q0 -256 -176 -415t-479 -171v-155h-236zM1386 721v2q0 168 -106.5 270t-306.5 109v-760q200 6 306.5 107.5t106.5 271.5zM332 723v-4
q0 -169 106.5 -270t306.5 -107v760q-200 -7 -306.5 -108.5t-106.5 -270.5z" />
    <glyph glyph-name="uni03A7" unicode="&#x3a7;" horiz-adv-x="1280" 
d="M936 1434h264l-422 -701l443 -733h-273l-311 549l-311 -549h-267l441 733l-420 701h272l289 -519z" />
    <glyph glyph-name="uni03A8" unicode="&#x3a8;" horiz-adv-x="1576" 
d="M1454 1434v-560q0 -278 -143.5 -412.5t-405.5 -142.5v-319h-235v319q-261 5 -404 140.5t-143 410.5v564h235v-564q0 -175 77.5 -251.5t238.5 -81.5v897h229v-897q160 5 238 80.5t78 246.5v570h235z" />
    <glyph glyph-name="uni03A9" unicode="&#x3a9;" horiz-adv-x="1509" 
d="M758 1458q285 0 452.5 -175.5t167.5 -467.5v-6q0 -330 -280 -600l311 2v-211h-541v203q61 61 104.5 116.5t82 126.5t58.5 155.5t20 180.5v4q0 213 -101 332t-276 119q-174 0 -274.5 -117.5t-100.5 -326.5v-5q0 -184 67 -323.5t193 -261.5v-203h-537v211l308 -2
q-133 128 -206 274t-73 326v6q0 186 74.5 331t217.5 228.5t333 83.5z" />
    <glyph glyph-name="uni03AA" unicode="&#x3aa;" horiz-adv-x="571" 
d="M166 0v1434h240v-1434h-240zM362 1542v219h234v-219h-234zM-14 1542v219h233v-219h-233z" />
    <glyph glyph-name="uni03AB" unicode="&#x3ab;" horiz-adv-x="1255" 
d="M508 0v571l-481 863h270l334 -621l334 621h264l-481 -861v-573h-240zM698 1540v219h234v-219h-234zM322 1540v219h233v-219h-233z" />
    <glyph glyph-name="uni03AC" unicode="&#x3ac;" horiz-adv-x="1257" 
d="M549 1206l129 330l205 -92l-181 -238h-153zM1221 190v-184q-63 -18 -138 -18q-101 0 -160.5 41t-82.5 131q-61 -84 -138 -132t-186 -48q-85 0 -161.5 35t-137 101.5t-96 173t-35.5 238.5v29q0 132 34.5 238t93.5 173t134.5 102.5t159.5 35.5q193 0 315 -186v165h234v-786
q0 -62 24 -88.5t76 -26.5q37 0 64 6zM571 184q108 0 183 96.5t75 251.5v21q0 155 -75 251.5t-183 96.5t-180 -95t-72 -253v-18q0 -158 72.5 -254.5t179.5 -96.5z" />
    <glyph glyph-name="uni03AD" unicode="&#x3ad;" horiz-adv-x="983" 
d="M428 1206l129 330l205 -92l-180 -238h-154zM707 455h-185q-106 0 -158.5 -36.5t-52.5 -101.5v-4q0 -64 54 -102.5t157 -38.5q156 0 314 104l94 -165q-188 -131 -424 -131q-201 0 -311.5 83t-110.5 226v4q0 95 53.5 159t145.5 97q-177 73 -177 242v4q0 135 111.5 222
t306.5 87q226 0 394 -127l-105 -166q-130 100 -278 100q-96 0 -148.5 -40.5t-52.5 -100.5v-2q0 -133 188 -133h185v-180z" />
    <glyph glyph-name="uni03AE" unicode="&#x3ae;" horiz-adv-x="1114" 
d="M481 1206l129 330l205 -92l-180 -238h-154zM362 0h-231v1085h231v-157q62 86 127.5 132t167.5 46q158 0 247 -102t89 -277v-1036h-233v971q0 115 -50 175t-143 60q-92 0 -148.5 -64.5t-56.5 -175.5v-657z" />
    <glyph glyph-name="uni03AF" unicode="&#x3af;" horiz-adv-x="559" 
d="M176 1206l129 330l205 -92l-180 -238h-154zM129 276v809h229v-784q0 -65 25 -91t80 -26q34 0 61 6v-182q-50 -20 -139 -20q-128 0 -192 67.5t-64 220.5z" />
    <glyph glyph-name="uni03B0" unicode="&#x3b0;" horiz-adv-x="1116" 
d="M721 1210v222h207v-222h-207zM184 1210v222h207v-222h-207zM444 1210l76 367l199 -43l-144 -324h-131zM557 -25q-207 0 -322.5 114.5t-115.5 332.5v663h233v-659q0 -246 207 -246q205 0 205 242v663h233v-657q0 -219 -117 -336t-323 -117z" />
    <glyph glyph-name="uni03B1" unicode="&#x3b1;" horiz-adv-x="1257" 
d="M1221 190v-184q-63 -18 -138 -18q-101 0 -160.5 41t-82.5 131q-61 -84 -138 -132t-186 -48q-85 0 -161.5 35t-137 101.5t-96 173t-35.5 238.5v29q0 132 34.5 238t93.5 173t134.5 102.5t159.5 35.5q193 0 315 -186v165h234v-786q0 -62 24 -88.5t76 -26.5q37 0 64 6z
M571 184q108 0 183 96.5t75 251.5v21q0 155 -75 251.5t-183 96.5t-180 -95t-72 -253v-18q0 -158 72.5 -254.5t179.5 -96.5z" />
    <glyph glyph-name="uni03B2" unicode="&#x3b2;" horiz-adv-x="1169" 
d="M707 -20q-227 0 -345 184v-473h-231v1308q0 229 124.5 361.5t348.5 132.5q208 0 324 -109.5t116 -283.5v-4q0 -135 -66.5 -227t-191.5 -130q148 -39 226 -124.5t78 -237.5v-2q0 -179 -103 -287t-280 -108zM645 182q99 0 156 57t57 156v2q0 125 -84 186.5t-262 61.5h-152
v-104q0 -175 78 -267t207 -92zM360 1006v-187h152q147 0 225 67.5t78 190.5v2q0 96 -56 157t-157 60q-115 0 -178.5 -77t-63.5 -213z" />
    <glyph glyph-name="uni03B3" unicode="&#x3b3;" horiz-adv-x="1064" 
d="M649 -309h-231v342l-371 1052h244l244 -772l245 772h238l-369 -1052v-342z" />
    <glyph glyph-name="uni03B4" unicode="&#x3b4;" horiz-adv-x="1142" 
d="M211 1305v174h737v-193l-440 4l233 -207q167 -149 240.5 -279.5t73.5 -301.5v-2q0 -231 -135 -378t-357 -147q-215 0 -348 143.5t-133 368.5v2q0 126 41 227.5t118.5 183.5t207.5 173zM827 487v2q0 119 -51.5 219.5t-185.5 227.5q-153 -110 -217 -214.5t-64 -229.5v-3
q0 -137 71 -225t187 -88t188 89.5t72 221.5z" />
    <glyph glyph-name="uni03B5" unicode="&#x3b5;" horiz-adv-x="983" 
d="M707 455h-185q-106 0 -158.5 -36.5t-52.5 -101.5v-4q0 -64 54 -102.5t157 -38.5q156 0 314 104l94 -165q-188 -131 -424 -131q-201 0 -311.5 83t-110.5 226v4q0 95 53.5 159t145.5 97q-177 73 -177 242v4q0 135 111.5 222t306.5 87q226 0 394 -127l-105 -166
q-130 100 -278 100q-96 0 -148.5 -40.5t-52.5 -100.5v-2q0 -133 188 -133h185v-180z" />
    <glyph glyph-name="uni03B6" unicode="&#x3b6;" horiz-adv-x="978" 
d="M907 152v-402h-211v227l-204 37q-212 42 -312 133t-100 248v2q0 105 42 193.5t159 238.5l350 455h-475v195h755v-174l-458 -600q-85 -109 -114.5 -166t-29.5 -117v-2q0 -86 62.5 -135t203.5 -74z" />
    <glyph glyph-name="uni03B7" unicode="&#x3b7;" horiz-adv-x="1114" 
d="M362 0h-231v1085h231v-157q62 86 127.5 132t167.5 46q158 0 247 -102t89 -277v-1036h-233v971q0 115 -50 175t-143 60q-92 0 -148.5 -64.5t-56.5 -175.5v-657z" />
    <glyph glyph-name="uni03B8" unicode="&#x3b8;" horiz-adv-x="1187" 
d="M592 -25q-225 0 -358.5 195t-133.5 535v57q0 336 135 531.5t359 195.5q227 0 360 -194.5t133 -532.5v-57q0 -340 -134.5 -535t-360.5 -195zM594 176q123 0 192 121t74 344h-534q6 -222 76 -343.5t192 -121.5zM592 1290q-123 0 -191.5 -118t-74.5 -341h534
q-6 221 -75.5 340t-192.5 119z" />
    <glyph glyph-name="uni03B9" unicode="&#x3b9;" horiz-adv-x="559" 
d="M129 276v809h229v-784q0 -65 25 -91t80 -26q34 0 61 6v-182q-50 -20 -139 -20q-128 0 -192 67.5t-64 220.5z" />
    <glyph glyph-name="uni03BA" unicode="&#x3ba;" horiz-adv-x="1046" 
d="M362 1085v-503l377 503h277l-359 -462l361 -623h-266l-256 442l-134 -170v-272h-231v1085h231z" />
    <glyph glyph-name="uni03BB" unicode="&#x3bb;" horiz-adv-x="1087" 
d="M289 0h-240l391 1085l-20 60q-29 80 -63 111.5t-89 31.5q-50 0 -106 -18v194q91 27 155 27q125 0 193.5 -60.5t118.5 -213.5l413 -1217h-241l-252 805z" />
    <glyph glyph-name="uni03BC" unicode="&#x3bc;" horiz-adv-x="1200" 
d="M1163 190v-184q-63 -18 -135 -18q-170 0 -223 139q-82 -143 -227 -143q-79 0 -144.5 40t-99.5 121h-2q26 -149 26 -249v-205h-227v1394h231v-661q0 -110 54.5 -174t146.5 -64q93 0 149 64t56 174v661h231v-798q1 -56 26 -79.5t77 -23.5q37 0 61 6z" />
    <glyph glyph-name="uni03BD" unicode="&#x3bd;" horiz-adv-x="1064" 
d="M426 -8l-379 1093h244l244 -790l245 790h238l-377 -1093h-215z" />
    <glyph glyph-name="uni03BE" unicode="&#x3be;" horiz-adv-x="980" 
d="M961 1356l-117 -178q-124 104 -254 104q-103 0 -163 -58.5t-60 -156.5v-2q0 -104 73.5 -164.5t198.5 -58.5h141v-195h-176q-140 0 -215.5 -59.5t-75.5 -159.5v-2q0 -98 75 -152.5t251 -80.5l262 -43v-400h-213v227l-176 31q-213 38 -321.5 131t-108.5 264v3
q0 260 272 350q-217 98 -217 329v2q0 172 121.5 287t327.5 115q207 0 375 -133z" />
    <glyph glyph-name="uni03BF" unicode="&#x3bf;" horiz-adv-x="1163" 
d="M582 -25q-215 0 -357.5 158t-142.5 397v19q0 240 143 398.5t359 158.5q141 0 254.5 -72t177 -198.5t63.5 -284.5v-19q0 -158 -64 -285t-178 -199.5t-255 -72.5zM584 180q121 0 193.5 100t72.5 255v12q0 153 -76 254.5t-192 101.5q-121 0 -195 -100.5t-74 -253.5v-12
q0 -153 77 -255t194 -102z" />
    <glyph glyph-name="uni03C0" unicode="&#x3c0;" horiz-adv-x="1263" 
d="M797 276v601h-359v-877h-231v877h-164v208h1149v-208h-166v-576q0 -65 24.5 -91t79.5 -26q35 0 62 6v-182q-50 -20 -139 -20q-128 0 -192 67.5t-64 220.5z" />
    <glyph glyph-name="uni03C1" unicode="&#x3c1;" horiz-adv-x="1171" 
d="M115 -309v858q0 256 131 406.5t354 150.5q217 0 351 -152t134 -401v-21q0 -130 -35.5 -237t-94.5 -174.5t-133 -104t-154 -36.5q-199 0 -322 186v-475h-231zM600 184q108 0 180 95t72 253v21q0 158 -72 254t-182 96q-112 0 -183 -93t-71 -253v-25q0 -155 75 -251.5
t181 -96.5z" />
    <glyph glyph-name="uni03C2" unicode="&#x3c2;" horiz-adv-x="987" 
d="M676 -250v232l-121 26q-235 55 -354 190t-119 361v8q0 232 135.5 385.5t353.5 153.5q116 0 201 -38.5t156 -111.5l-131 -176q-102 117 -224 117q-116 0 -187 -92.5t-71 -235.5v-2q0 -161 88 -251t295 -128l191 -34v-404h-213z" />
    <glyph glyph-name="uni03C3" unicode="&#x3c3;" horiz-adv-x="1210" 
d="M578 -25q-215 0 -355.5 153t-140.5 390v19q0 241 143.5 394.5t378.5 153.5h561v-202l-266 4q174 -142 174 -377v-2q0 -230 -140.5 -381.5t-354.5 -151.5zM580 180q120 0 191 95t71 245v12q0 155 -71.5 253t-192.5 98t-193 -97.5t-72 -250.5v-11q0 -151 74.5 -247.5
t192.5 -96.5z" />
    <glyph glyph-name="uni03C4" unicode="&#x3c4;" horiz-adv-x="987" 
d="M926 877h-332v-549q0 -79 33.5 -112.5t103.5 -33.5q39 0 119 17v-185q-89 -28 -180 -28q-158 0 -233 73t-75 246v572h-317v208h881v-208z" />
    <glyph glyph-name="uni03C5" unicode="&#x3c5;" horiz-adv-x="1116" 
d="M557 -25q-207 0 -322.5 114.5t-115.5 332.5v663h233v-659q0 -246 207 -246q205 0 205 242v663h233v-657q0 -219 -117 -336t-323 -117z" />
    <glyph glyph-name="uni03C6" unicode="&#x3c6;" horiz-adv-x="1525" 
d="M877 -309h-230v305q-262 12 -413.5 160t-151.5 383v6q0 231 151.5 379.5t413.5 165.5v389h230v-389q262 -12 414.5 -161t152.5 -382v-6q0 -232 -153 -382.5t-414 -162.5v-305zM1214 541v2q0 156 -89 248.5t-253 99.5v-698q165 7 253.5 100t88.5 248zM309 545v-2
q0 -155 89 -247.5t253 -102.5v698q-165 -7 -253.5 -99t-88.5 -247z" />
    <glyph glyph-name="uni03C7" unicode="&#x3c7;" horiz-adv-x="1079" 
d="M301 1085l240 -477l243 477h248l-360 -663l399 -731h-254l-278 545l-281 -545h-248l396 729l-359 665h254z" />
    <glyph glyph-name="uni03C8" unicode="&#x3c8;" horiz-adv-x="1507" 
d="M868 -309h-229v305q-247 5 -383.5 130.5t-136.5 367.5v591h231v-585q0 -145 75.5 -219.5t215.5 -79.5v1278h225v-1278q138 2 215.5 77t77.5 220v587h230v-585q0 -246 -138 -372.5t-383 -131.5v-305z" />
    <glyph glyph-name="uni03C9" unicode="&#x3c9;" horiz-adv-x="1599" 
d="M688 872h223v-346q0 -165 49 -251.5t140 -86.5q83 0 129.5 75t46.5 222v2q0 151 -53.5 296t-161.5 302h248q194 -285 194 -604v-2q0 -233 -97.5 -367.5t-277.5 -134.5q-245 0 -331 273q-88 -273 -330 -273q-181 0 -277 135t-96 367v2q0 314 197 604h244
q-108 -159 -159.5 -301.5t-51.5 -298.5v-2q0 -147 45.5 -222t130.5 -73q91 0 139.5 86.5t48.5 251.5v346z" />
    <glyph glyph-name="uni03CA" unicode="&#x3ca;" horiz-adv-x="559" 
d="M315 1210v226h230v-226h-230zM-41 1210v226h229v-226h-229zM129 276v809h229v-784q0 -65 25 -91t80 -26q34 0 61 6v-182q-50 -20 -139 -20q-128 0 -192 67.5t-64 220.5z" />
    <glyph glyph-name="uni03CB" unicode="&#x3cb;" horiz-adv-x="1116" 
d="M618 1210v226h230v-226h-230zM262 1210v226h230v-226h-230zM557 -25q-207 0 -322.5 114.5t-115.5 332.5v663h233v-659q0 -246 207 -246q205 0 205 242v663h233v-657q0 -219 -117 -336t-323 -117z" />
    <glyph glyph-name="uni03CC" unicode="&#x3cc;" horiz-adv-x="1163" 
d="M502 1206l129 330l205 -92l-181 -238h-153zM582 -25q-215 0 -357.5 158t-142.5 397v19q0 240 143 398.5t359 158.5q141 0 254.5 -72t177 -198.5t63.5 -284.5v-19q0 -158 -64 -285t-178 -199.5t-255 -72.5zM584 180q121 0 193.5 100t72.5 255v12q0 153 -76 254.5
t-192 101.5q-121 0 -195 -100.5t-74 -253.5v-12q0 -153 77 -255t194 -102z" />
    <glyph glyph-name="uni03CD" unicode="&#x3cd;" horiz-adv-x="1116" 
d="M479 1206l129 330l205 -92l-180 -238h-154zM557 -25q-207 0 -322.5 114.5t-115.5 332.5v663h233v-659q0 -246 207 -246q205 0 205 242v663h233v-657q0 -219 -117 -336t-323 -117z" />
    <glyph glyph-name="uni03CE" unicode="&#x3ce;" horiz-adv-x="1599" 
d="M719 1206l129 330l205 -92l-181 -238h-153zM688 872h223v-346q0 -165 49 -251.5t140 -86.5q83 0 129.5 75t46.5 222v2q0 151 -53.5 296t-161.5 302h248q194 -285 194 -604v-2q0 -233 -97.5 -367.5t-277.5 -134.5q-245 0 -331 273q-88 -273 -330 -273q-181 0 -277 135
t-96 367v2q0 314 197 604h244q-108 -159 -159.5 -301.5t-51.5 -298.5v-2q0 -147 45.5 -222t130.5 -73q91 0 139.5 86.5t48.5 251.5v346z" />
    <glyph glyph-name="uni0400" unicode="&#x400;" horiz-adv-x="1163" 
d="M707 1538h-181l-237 188l207 95zM156 0v1434h903v-215h-666v-390h590v-215h-590v-397h674v-217h-911z" />
    <glyph glyph-name="uni0401" unicode="&#x401;" horiz-adv-x="1163" 
d="M682 1542v219h233v-219h-233zM305 1542v219h234v-219h-234zM156 0v1434h903v-215h-666v-390h590v-215h-590v-397h674v-217h-911z" />
    <glyph glyph-name="uni0402" unicode="&#x402;" horiz-adv-x="1470" 
d="M1047 1434v-222h-388v-335q110 28 263 28q232 0 354.5 -114t122.5 -340v-2q0 -220 -122.5 -336.5t-350.5 -116.5h-37v211h12q134 0 197 57t63 176v2q0 126 -62.5 187t-205.5 61q-127 0 -234 -28v-662h-237v1212h-359v222h984z" />
    <glyph glyph-name="uni0403" unicode="&#x403;" horiz-adv-x="1071" 
d="M473 1538l209 283l209 -95l-240 -188h-178zM156 0v1434h852v-220h-615v-1214h-237z" />
    <glyph glyph-name="uni0404" unicode="&#x404;" horiz-adv-x="1269" 
d="M729 -20q-183 0 -325.5 90t-222 256t-79.5 381v18q0 213 81.5 379.5t226.5 258t329 91.5q149 0 257 -46.5t202 -133.5l-145 -180q-71 68 -146 103.5t-168 35.5q-154 0 -260 -110t-131 -298h582v-204h-582q17 -195 125 -307.5t266 -112.5q95 0 170.5 37.5t153.5 111.5
l141 -168q-103 -100 -216 -151t-259 -51z" />
    <glyph glyph-name="uni0405" unicode="&#x405;" horiz-adv-x="1124" 
d="M571 -18q-299 0 -518 206l144 179q90 -81 179.5 -125.5t196.5 -44.5q103 0 165.5 51.5t62.5 130.5v2q0 72 -57 123t-220 110q-109 42 -180 80t-126 89t-80 115t-25 149v4q0 177 125.5 289t326.5 112q261 0 451 -170l-135 -182q-164 137 -322 137q-96 0 -152.5 -46.5
t-56.5 -119.5v-2q0 -52 23.5 -88.5t88 -75t185.5 -84.5q206 -79 297.5 -174.5t91.5 -247.5v-4q0 -187 -130.5 -300t-334.5 -113z" />
    <glyph glyph-name="uni0406" unicode="&#x406;" horiz-adv-x="571" 
d="M166 0v1434h240v-1434h-240z" />
    <glyph glyph-name="uni0407" unicode="&#x407;" horiz-adv-x="571" 
d="M166 0v1434h240v-1434h-240zM362 1542v219h234v-219h-234zM-14 1542v219h233v-219h-233z" />
    <glyph glyph-name="uni0408" unicode="&#x408;" horiz-adv-x="972" 
d="M410 -18q-244 0 -379 190l149 164q50 -66 102 -98.5t121 -32.5q89 0 140 61.5t51 182.5v985h240v-996q0 -231 -119 -344q-112 -112 -305 -112z" />
    <glyph glyph-name="uni0409" unicode="&#x409;" horiz-adv-x="1853" 
d="M831 0v1227h-10l-561 -1227h-242l670 1434h381v-482h197q241 0 381.5 -122.5t140.5 -346.5v-2q0 -225 -145.5 -353t-393.5 -128h-418zM1069 217h191q135 0 211.5 68.5t76.5 191.5v2q0 123 -74 190.5t-210 67.5h-195v-520z" />
    <glyph glyph-name="uni040A" unicode="&#x40a;" horiz-adv-x="1959" 
d="M938 0v610h-545v-610h-237v1434h237v-603h545v603h236v-482h198q241 0 380.5 -122.5t139.5 -346.5v-2q0 -226 -144 -353.5t-392 -127.5h-418zM1174 217h194q135 0 211 68.5t76 191.5v2q0 123 -75 190.5t-210 67.5h-196v-520z" />
    <glyph glyph-name="uni040B" unicode="&#x40b;" horiz-adv-x="1517" 
d="M1047 1434v-222h-388v-338q121 31 269 31q473 0 473 -448v-457h-240v430q0 136 -62.5 197t-199.5 61q-139 0 -240 -29v-659h-237v1212h-359v222h984z" />
    <glyph glyph-name="uni040C" unicode="&#x40c;" horiz-adv-x="1292" 
d="M557 1536l209 283l209 -95l-240 -188h-178zM156 0v1434h237l-2 -603h131l439 603h286l-528 -697l557 -737h-289l-463 618h-133l2 -618h-237z" />
    <glyph glyph-name="uni040D" unicode="&#x40d;" horiz-adv-x="1394" 
d="M793 1536h-181l-237 188l207 95zM1241 0h-235v1016l-637 -1016h-213v1434h235v-985l619 985h231v-1434z" />
    <glyph glyph-name="uni040E" unicode="&#x40e;" horiz-adv-x="1259" 
d="M645 1532q-136 0 -220.5 66.5t-94.5 189.5h162q18 -49 53.5 -72.5t99.5 -23.5q121 0 156 96h160q-10 -122 -95 -189t-221 -67zM549 0h-258l235 479l-485 955h262l354 -713l320 713h258z" />
    <glyph glyph-name="uni040F" unicode="&#x40f;" horiz-adv-x="1343" 
d="M559 -274v274h-403v1434h237v-1215h557v1215h238v-1434h-408v-274h-221z" />
    <glyph glyph-name="uni0410" unicode="&#x410;" horiz-adv-x="1380" 
d="M49 0l526 1442h230l526 -1442h-248l-118 338h-557l-119 -338h-240zM481 549h408l-203 575z" />
    <glyph glyph-name="uni0411" unicode="&#x411;" horiz-adv-x="1247" 
d="M156 0v1434h905v-215h-674v-357h283q232 0 364.5 -108.5t132.5 -311.5v-2q0 -209 -137.5 -324.5t-378.5 -115.5h-495zM387 213h275q124 0 196 58.5t72 162.5v2q0 104 -69.5 159.5t-194.5 55.5h-279v-438z" />
    <glyph glyph-name="uni0412" unicode="&#x412;" horiz-adv-x="1273" 
d="M156 0v1434h512q243 0 366 -123q96 -96 96 -242v-6q0 -216 -210 -322q129 -45 200.5 -126.5t71.5 -215.5v-8q0 -186 -138.5 -288.5t-371.5 -102.5h-526zM895 1026v4q0 92 -63.5 142.5t-180.5 50.5h-264v-398h250q120 0 189 51.5t69 149.5zM956 416v4q0 95 -71.5 148
t-206.5 53h-291v-410h301q124 0 196 54t72 151z" />
    <glyph glyph-name="uni0413" unicode="&#x413;" horiz-adv-x="1071" 
d="M156 0v1434h852v-220h-615v-1214h-237z" />
    <glyph glyph-name="uni0414" unicode="&#x414;" horiz-adv-x="1490" 
d="M53 219h125l440 1223h256l437 -1223h129v-493h-223v274h-943v-274h-221v493zM743 1141l-323 -930h643z" />
    <glyph glyph-name="uni0415" unicode="&#x415;" horiz-adv-x="1163" 
d="M156 0v1434h903v-215h-666v-390h590v-215h-590v-397h674v-217h-911z" />
    <glyph glyph-name="uni0416" unicode="&#x416;" horiz-adv-x="1918" 
d="M53 1434h275l413 -607h103l-2 607h235l-4 -607h105l415 607h275l-494 -701l524 -733h-276l-440 623h-109l4 -623h-235l2 623h-111l-440 -623h-273l527 733z" />
    <glyph glyph-name="uni0417" unicode="&#x417;" horiz-adv-x="1163" 
d="M213 1094l-127 170q207 190 492 190q215 0 340.5 -102.5t125.5 -274.5v-2q0 -252 -247 -340q274 -79 274 -338v-2q0 -185 -140.5 -300t-381.5 -115q-278 0 -486 176l130 178q177 -137 356 -137q127 0 204.5 58t77.5 159v2q0 98 -77.5 152t-218.5 53h-201v202h201
q125 0 197.5 57.5t72.5 159.5v2q0 92 -63 144.5t-179 52.5q-178 0 -350 -145z" />
    <glyph glyph-name="uni0418" unicode="&#x418;" horiz-adv-x="1394" 
d="M1241 0h-235v1016l-637 -1016h-213v1434h235v-985l619 985h231v-1434z" />
    <glyph glyph-name="uni0419" unicode="&#x419;" horiz-adv-x="1394" 
d="M692 1532q-136 0 -220.5 66.5t-94.5 189.5h162q18 -49 53.5 -72.5t99.5 -23.5q121 0 156 96h160q-10 -122 -95 -189t-221 -67zM1241 0h-235v1016l-637 -1016h-213v1434h235v-985l619 985h231v-1434z" />
    <glyph glyph-name="uni041A" unicode="&#x41a;" horiz-adv-x="1292" 
d="M156 0v1434h237l-2 -603h131l439 603h286l-528 -697l557 -737h-289l-463 618h-133l2 -618h-237z" />
    <glyph glyph-name="uni041B" unicode="&#x41b;" horiz-adv-x="1343" 
d="M782 1442l514 -1442h-258l-368 1073l-371 -1073h-250l514 1442h219z" />
    <glyph glyph-name="uni041C" unicode="&#x41c;" horiz-adv-x="1542" 
d="M156 0v1434h247l369 -658l365 658h252v-1434h-236v1014l-381 -664h-6l-379 662v-1012h-231z" />
    <glyph glyph-name="uni041D" unicode="&#x41d;" horiz-adv-x="1349" 
d="M156 0v1434h237v-603h561v603h240v-1434h-240v610h-561v-610h-237z" />
    <glyph glyph-name="uni041E" unicode="&#x41e;" horiz-adv-x="1474" 
d="M737 -25q-186 0 -331 93.5t-224.5 259.5t-79.5 377v20q0 211 81 378.5t226.5 261t329.5 93.5q185 0 329.5 -93t224 -259t79.5 -377v-20q0 -211 -81 -378.5t-226 -261.5t-328 -94zM739 197q170 0 278.5 141t108.5 371v14q0 230 -109.5 372t-279.5 142q-172 0 -280.5 -141
t-108.5 -371v-14q0 -229 111 -371.5t280 -142.5z" />
    <glyph glyph-name="uni041F" unicode="&#x41f;" horiz-adv-x="1343" 
d="M156 0v1434h1032v-1434h-238v1214h-557v-1214h-237z" />
    <glyph glyph-name="uni0420" unicode="&#x420;" horiz-adv-x="1189" 
d="M156 0v1434h458q235 0 375.5 -128t140.5 -348v-4q0 -155 -71.5 -266t-189 -165.5t-269.5 -57.5h-207v-465h-237zM393 680h207q135 0 213 72.5t78 195.5v2q0 129 -76.5 199t-214.5 70h-207v-539z" />
    <glyph glyph-name="uni0421" unicode="&#x421;" horiz-adv-x="1263" 
d="M727 -20q-182 0 -324 90t-221.5 256.5t-79.5 382.5v14q0 214 82.5 381t228.5 258.5t330 91.5q147 0 253.5 -47.5t197.5 -138.5l-143 -183q-74 72 -149 110t-167 38q-167 0 -277 -142.5t-110 -369.5v-6q0 -230 110.5 -372t278.5 -142q92 0 166 38t154 117l143 -170
q-102 -102 -212 -154t-261 -52z" />
    <glyph glyph-name="uni0422" unicode="&#x422;" horiz-adv-x="1122" 
d="M442 0v1212h-376v222h993v-222h-379v-1212h-238z" />
    <glyph glyph-name="uni0423" unicode="&#x423;" horiz-adv-x="1259" 
d="M549 0h-258l235 479l-485 955h262l354 -713l320 713h258z" />
    <glyph glyph-name="uni0424" unicode="&#x424;" horiz-adv-x="1718" 
d="M741 -20v155q-304 12 -478.5 168.5t-174.5 415.5v2q0 259 174 416.5t479 169.5v147h236v-147q305 -12 480 -168.5t175 -415.5v-2q0 -256 -176 -415t-479 -171v-155h-236zM1386 721v2q0 168 -106.5 270t-306.5 109v-760q200 6 306.5 107.5t106.5 271.5zM332 723v-4
q0 -169 106.5 -270t306.5 -107v760q-200 -7 -306.5 -108.5t-106.5 -270.5z" />
    <glyph glyph-name="uni0425" unicode="&#x425;" horiz-adv-x="1280" 
d="M936 1434h264l-422 -701l443 -733h-273l-311 549l-311 -549h-267l441 733l-420 701h272l289 -519z" />
    <glyph glyph-name="uni0426" unicode="&#x426;" horiz-adv-x="1396" 
d="M1118 -274v274h-962v1434h237v-1215h557v1215h240v-1215h149v-493h-221z" />
    <glyph glyph-name="uni0427" unicode="&#x427;" horiz-adv-x="1263" 
d="M870 0v514q-129 -33 -278 -33q-471 0 -471 449v504h235v-478q0 -135 63.5 -195.5t201.5 -60.5q137 0 249 35v699h240v-1434h-240z" />
    <glyph glyph-name="uni0428" unicode="&#x428;" horiz-adv-x="1990" 
d="M156 0v1434h237v-1215h484v1215h237v-1215h483v1215h240v-1434h-1681z" />
    <glyph glyph-name="uni0429" unicode="&#x429;" horiz-adv-x="2041" 
d="M156 0v1434h237v-1215h484v1215h237v-1215h483v1215h240v-1215h148v-493h-222v274h-1607z" />
    <glyph glyph-name="uni042A" unicode="&#x42a;" horiz-adv-x="1470" 
d="M428 0v1219h-367v215h605v-482h213q241 0 382.5 -121.5t141.5 -345.5v-4q0 -226 -145 -353.5t-396 -127.5h-434zM666 217h206q136 0 213.5 69t77.5 191v2q0 123 -75 190.5t-211 67.5h-211v-520z" />
    <glyph glyph-name="uni042B" unicode="&#x42b;" horiz-adv-x="1718" 
d="M156 0v1434h237v-482h213q241 0 382.5 -121.5t141.5 -345.5v-4q0 -226 -145 -353.5t-395 -127.5h-434zM1325 0v1434h238v-1434h-238zM393 217h207q136 0 213.5 69t77.5 191v2q0 123 -75 190.5t-212 67.5h-211v-520z" />
    <glyph glyph-name="uni042C" unicode="&#x42c;" horiz-adv-x="1196" 
d="M156 0v1434h237v-482h213q241 0 382.5 -121.5t141.5 -345.5v-4q0 -226 -145 -353.5t-395 -127.5h-434zM393 217h207q136 0 213.5 69t77.5 191v2q0 123 -75 190.5t-212 67.5h-211v-520z" />
    <glyph glyph-name="uni042D" unicode="&#x42d;" horiz-adv-x="1269" 
d="M338 621v204h582q-20 192 -121 300t-252 108q-179 0 -340 -141l-131 174q205 188 483 188q273 0 440.5 -197.5t167.5 -529.5v-18q0 -326 -175 -527.5t-455 -201.5q-273 0 -471 188l139 176q79 -71 157.5 -107t172.5 -36q155 0 261 113t126 307h-584z" />
    <glyph glyph-name="uni042E" unicode="&#x42e;" horiz-adv-x="1945" 
d="M156 0v1434h237v-603h230q30 277 196.5 452t411.5 175q177 0 317 -94.5t217.5 -261t77.5 -373.5v-20q0 -208 -78 -375.5t-218.5 -263t-317.5 -95.5q-247 0 -414 177t-192 458h-230v-610h-237zM1231 197q165 0 265.5 140.5t100.5 371.5v14q0 231 -101.5 372.5
t-266.5 141.5t-266 -140.5t-101 -371.5v-14q0 -231 102 -372.5t267 -141.5z" />
    <glyph glyph-name="uni042F" unicode="&#x42f;" horiz-adv-x="1280" 
d="M1124 1434v-1434h-237v506h-232l-317 -506h-277l349 543q-140 45 -223 152t-83 268v4q0 222 143 344.5t398 122.5h479zM887 1219h-258q-136 0 -210.5 -65.5t-74.5 -186.5v-2q0 -117 75 -181.5t212 -64.5h256v500z" />
    <glyph glyph-name="uni0430" unicode="&#x430;" horiz-adv-x="1048" 
d="M401 -20q-141 0 -237 89t-96 242v13q0 168 105.5 257t283.5 89q125 0 248 -45v47q0 109 -61 165t-173 56q-116 0 -260 -66l-68 185q175 86 359 86q210 0 319 -109t109 -315v-674h-228v133q-107 -153 -301 -153zM471 154q101 0 168.5 59.5t67.5 151.5v110q-88 37 -201 37
q-100 0 -155.5 -48t-55.5 -134v-6q0 -78 48.5 -123t127.5 -47z" />
    <glyph glyph-name="uni0431" unicode="&#x431;" horiz-adv-x="1157" 
d="M580 -25q-197 0 -324 127q-162 162 -162 519v4q0 384 121.5 576t409.5 241l323 55l35 -213l-328 -53q-176 -29 -253.5 -113.5t-102.5 -269.5q62 77 151 120.5t197 43.5q199 0 313.5 -131t114.5 -359v-8q0 -236 -137.5 -387.5t-357.5 -151.5zM584 176q120 0 190 92t70 242
v4q0 143 -66.5 230t-183.5 87q-124 0 -196 -88.5t-72 -230.5v-6q0 -149 70.5 -239.5t187.5 -90.5z" />
    <glyph glyph-name="uni0432" unicode="&#x432;" horiz-adv-x="1062" 
d="M131 0v1085h444q175 0 275 -73t100 -207v-2q0 -175 -172 -242q207 -68 207 -256v-2q0 -147 -111 -225t-299 -78h-444zM356 631h187q90 0 135 38.5t45 106.5v2q0 62 -45 97t-129 34h-193v-278zM356 463v-287h211q92 0 142.5 37t50.5 104v2q0 68 -51 106t-148 38h-205z" />
    <glyph glyph-name="uni0433" unicode="&#x433;" horiz-adv-x="878" 
d="M131 0v1085h696v-211h-465v-874h-231z" />
    <glyph glyph-name="uni0434" unicode="&#x434;" horiz-adv-x="1204" 
d="M725 1094l328 -883h112v-461h-207v252h-712v-252h-207v461h111l329 883h246zM600 834l-219 -633h438z" />
    <glyph glyph-name="uni0435" unicode="&#x435;" horiz-adv-x="1075" 
d="M578 -25q-104 0 -195 39.5t-157.5 110.5t-105 176t-38.5 231v15q0 244 131 401.5t332 157.5q144 0 247 -75t153 -202.5t50 -293.5q0 -47 -2 -80h-680q17 -134 92 -207.5t183 -73.5q74 0 133.5 29t116.5 86l120 -144q-160 -170 -380 -170zM311 614h457q-8 135 -65.5 216
t-157.5 81q-97 0 -159.5 -79t-74.5 -218z" />
    <glyph glyph-name="uni0436" unicode="&#x436;" horiz-adv-x="1593" 
d="M909 1085l-4 -438h103l288 438h263l-371 -532l385 -553h-266l-297 446h-105l4 -446h-225l2 446h-104l-297 -446h-262l383 543l-371 542h266l285 -438h100l-2 438h225z" />
    <glyph glyph-name="uni0437" unicode="&#x437;" horiz-adv-x="976" 
d="M55 111l109 163q145 -102 293 -102q102 0 157.5 39.5t55.5 107.5v3q0 63 -56 98.5t-159 34.5h-181v180h179q96 0 146 36t50 103v2q0 61 -49 98t-135 37q-147 0 -291 -108l-106 158q180 145 415 145q181 0 286 -81.5t105 -217.5v-2q0 -179 -188 -252q209 -66 209 -256v-2
q0 -140 -115.5 -230t-318.5 -90q-230 0 -406 136z" />
    <glyph glyph-name="uni0438" unicode="&#x438;" horiz-adv-x="1142" 
d="M131 0v1085h229v-682l431 682h221v-1085h-230v694l-440 -694h-211z" />
    <glyph glyph-name="uni0439" unicode="&#x439;" horiz-adv-x="1142" 
d="M131 0v1085h229v-682l431 682h221v-1085h-230v694l-440 -694h-211zM567 1200q-132 0 -216.5 72.5t-96.5 204.5h158q30 -119 155 -119q126 0 156 119h158q-10 -132 -96 -204.5t-218 -72.5z" />
    <glyph glyph-name="uni043A" unicode="&#x43a;" horiz-adv-x="1060" 
d="M362 1085v-436h103l291 436h272l-377 -530l387 -555h-268l-301 444h-107v-444h-231v1085h231z" />
    <glyph glyph-name="uni043B" unicode="&#x43b;" horiz-adv-x="1110" 
d="M668 1094l397 -1094h-246l-266 784l-266 -784h-242l397 1094h226z" />
    <glyph glyph-name="uni043C" unicode="&#x43c;" horiz-adv-x="1294" 
d="M131 0v1085h240l276 -487l277 487h239v-1085h-227v715l-287 -496h-6l-287 494v-713h-225z" />
    <glyph glyph-name="uni043D" unicode="&#x43d;" horiz-adv-x="1142" 
d="M131 0v1085h231v-432h416v432h232v-1085h-232v440h-416v-440h-231z" />
    <glyph glyph-name="uni043E" unicode="&#x43e;" horiz-adv-x="1163" 
d="M582 -25q-215 0 -357.5 158t-142.5 397v19q0 240 143 398.5t359 158.5q141 0 254.5 -72t177 -198.5t63.5 -284.5v-19q0 -158 -64 -285t-178 -199.5t-255 -72.5zM584 180q121 0 193.5 100t72.5 255v12q0 153 -76 254.5t-192 101.5q-121 0 -195 -100.5t-74 -253.5v-12
q0 -153 77 -255t194 -102z" />
    <glyph glyph-name="uni043F" unicode="&#x43f;" horiz-adv-x="1140" 
d="M131 0v1085h879v-1085h-232v874h-416v-874h-231z" />
    <glyph glyph-name="uni0440" unicode="&#x440;" horiz-adv-x="1187" 
d="M131 -309v1394h231v-174q125 195 318 195q83 0 157.5 -34.5t134.5 -100.5t95 -173t35 -241v-27q0 -134 -34.5 -241t-94 -173t-134.5 -101t-159 -35q-74 0 -137.5 28t-102.5 65t-78 91v-473h-231zM616 184q109 0 180.5 94t71.5 254v19q0 159 -72.5 254.5t-179.5 95.5
q-108 0 -183 -96.5t-75 -251.5v-21q0 -155 75 -251.5t183 -96.5z" />
    <glyph glyph-name="uni0441" unicode="&#x441;" horiz-adv-x="985" 
d="M569 -25q-212 0 -349.5 156t-137.5 397v21q0 245 140.5 401t355.5 156q111 0 193 -37.5t155 -110.5l-129 -170q-50 52 -101 80.5t-118 28.5q-116 0 -189.5 -97.5t-73.5 -252.5v-10q0 -158 75 -255.5t194 -97.5q67 1 117 29t104 82l125 -154q-73 -79 -158.5 -122.5
t-202.5 -43.5z" />
    <glyph glyph-name="uni0442" unicode="&#x442;" horiz-adv-x="978" 
d="M373 0v877h-320v208h871v-208h-320v-877h-231z" />
    <glyph glyph-name="uni0443" unicode="&#x443;" horiz-adv-x="1067" 
d="M543 295l237 790h238l-369 -1101q-55 -163 -128.5 -231t-192.5 -68q-118 0 -217 57l65 178q58 -37 127 -37q46 0 75.5 25.5t55.5 89.5l-389 1087h246z" />
    <glyph glyph-name="uni0444" unicode="&#x444;" horiz-adv-x="1525" 
d="M877 -309h-230v305q-262 12 -413.5 160t-151.5 383v6q0 231 151.5 379.5t413.5 165.5v389h230v-389q262 -12 414.5 -161t152.5 -382v-6q0 -232 -153 -382.5t-414 -162.5v-305zM1214 541v2q0 156 -89 248.5t-253 99.5v-698q165 7 253.5 100t88.5 248zM309 545v-2
q0 -155 89 -247.5t253 -102.5v698q-165 -7 -253.5 -99t-88.5 -247z" />
    <glyph glyph-name="uni0445" unicode="&#x445;" horiz-adv-x="1038" 
d="M311 1085l211 -364l209 364h244l-326 -530l340 -555h-250l-221 387l-223 -387h-246l340 553l-326 532h248z" />
    <glyph glyph-name="uni0446" unicode="&#x446;" horiz-adv-x="1181" 
d="M922 -250v250h-791v1085h231v-874h416v874h232v-874h120v-461h-208z" />
    <glyph glyph-name="uni0447" unicode="&#x447;" horiz-adv-x="1071" 
d="M707 0v362q-114 -28 -211 -28q-396 0 -396 373v378h232v-358q0 -98 46 -140t150 -42q90 0 179 28v512h233v-1085h-233z" />
    <glyph glyph-name="uni0448" unicode="&#x448;" horiz-adv-x="1689" 
d="M131 0v1085h231v-874h365v874h234v-874h362v874h233v-1085h-1425z" />
    <glyph glyph-name="uni0449" unicode="&#x449;" horiz-adv-x="1730" 
d="M131 0v1085h231v-874h365v874h234v-874h362v874h233v-874h121v-461h-209v250h-1337z" />
    <glyph glyph-name="uni044A" unicode="&#x44a;" horiz-adv-x="1206" 
d="M324 0v881h-279v204h510v-335h174q190 0 304 -96t114 -273v-2q0 -175 -116 -277t-324 -102h-383zM553 559v-369h160q101 0 153 48.5t52 136.5v2q0 86 -52 134t-149 48h-164z" />
    <glyph glyph-name="uni044B" unicode="&#x44b;" horiz-adv-x="1466" 
d="M360 1085v-335h179q190 0 303.5 -96t113.5 -273v-2q0 -175 -116.5 -277t-325.5 -102h-383v1085h229zM360 559v-369h160q101 0 154 48.5t53 136.5v2q0 86 -53 134t-152 48h-162zM1102 0v1085h231v-1085h-231z" />
    <glyph glyph-name="uni044C" unicode="&#x44c;" horiz-adv-x="1013" 
d="M131 0v1085h229v-335h179q190 0 303.5 -96t113.5 -273v-2q0 -175 -116.5 -277t-325.5 -102h-383zM360 190h160q101 0 154 48.5t53 136.5v2q0 86 -53 134t-152 48h-162v-369z" />
    <glyph glyph-name="uni044D" unicode="&#x44d;" horiz-adv-x="997" 
d="M262 641l422 -2q-17 125 -84.5 194.5t-175.5 69.5q-129 0 -254 -100l-109 162q165 141 377 141q215 0 346 -152.5t131 -402.5v-16q0 -248 -137.5 -404t-355.5 -156q-205 0 -367 138l113 166q115 -101 250 -101q109 0 181 73t85 200l-422 -2v192z" />
    <glyph glyph-name="uni044E" unicode="&#x44e;" horiz-adv-x="1593" 
d="M362 440v-440h-231v1085h231v-430h179q29 199 162 325t319 126q139 0 250.5 -72t174 -199t62.5 -284v-19q0 -158 -63 -285t-175 -199.5t-251 -72.5q-190 0 -323 129.5t-158 335.5h-177zM1022 180q116 0 186 100t70 255v12q0 153 -72.5 254.5t-185.5 101.5
q-116 0 -186 -100t-70 -254v-12q0 -154 72.5 -255.5t185.5 -101.5z" />
    <glyph glyph-name="uni044F" unicode="&#x44f;" horiz-adv-x="1081" 
d="M326 0h-260l258 403q-104 40 -163 121t-59 199v2q0 171 111.5 265.5t314.5 94.5h422v-1085h-229v371h-168zM721 901h-186q-97 0 -150 -45.5t-53 -130.5v-2q0 -81 51 -127.5t147 -46.5h191v352z" />
    <glyph glyph-name="uni0450" unicode="&#x450;" horiz-adv-x="1075" 
d="M578 -25q-104 0 -195 39.5t-157.5 110.5t-105 176t-38.5 231v15q0 244 131 401.5t332 157.5q144 0 247 -75t153 -202.5t50 -293.5q0 -47 -2 -80h-680q17 -134 92 -207.5t183 -73.5q74 0 133.5 29t116.5 86l120 -144q-160 -170 -380 -170zM311 614h457q-8 135 -65.5 216
t-157.5 81q-97 0 -159.5 -79t-74.5 -218zM471 1206l-235 224l204 98l199 -322h-168z" />
    <glyph glyph-name="uni0451" unicode="&#x451;" horiz-adv-x="1075" 
d="M604 1210v226h230v-226h-230zM248 1210v226h229v-226h-229zM578 -25q-104 0 -195 39.5t-157.5 110.5t-105 176t-38.5 231v15q0 244 131 401.5t332 157.5q144 0 247 -75t153 -202.5t50 -293.5q0 -47 -2 -80h-680q17 -134 92 -207.5t183 -73.5q74 0 133.5 29t116.5 86
l120 -144q-160 -170 -380 -170zM311 614h457q-8 135 -65.5 216t-157.5 81q-97 0 -159.5 -79t-74.5 -218z" />
    <glyph glyph-name="uni0452" unicode="&#x452;" horiz-adv-x="1083" 
d="M670 1145h-303v-258q110 26 211 26q395 0 395 -370v-500q0 -358 -336 -358q-68 0 -123 14v184q41 -8 76 -8q75 0 112.5 40t38.5 134v473q0 97 -46 138.5t-150 41.5q-85 0 -178 -26v-676h-234v1145h-186v182h186v152h234v-152h303v-182z" />
    <glyph glyph-name="uni0453" unicode="&#x453;" horiz-adv-x="878" 
d="M375 1206l198 322l205 -98l-233 -224h-170zM131 0v1085h696v-211h-465v-874h-231z" />
    <glyph glyph-name="uni0454" unicode="&#x454;" horiz-adv-x="997" 
d="M737 641v-192l-426 2q17 -130 91.5 -201.5t187.5 -71.5q130 0 239 101l113 -156q-161 -148 -369 -148q-218 0 -354.5 155t-136.5 400v19q0 246 140.5 401.5t361.5 155.5q206 0 352 -133l-111 -170q-57 49 -110.5 74.5t-122.5 25.5q-108 0 -185 -71t-94 -193z" />
    <glyph glyph-name="uni0455" unicode="&#x455;" horiz-adv-x="888" 
d="M444 -20q-102 0 -207 38t-194 113l107 166q156 -127 301 -127q70 0 109.5 33t39.5 86v4q0 22 -11 41.5t-25.5 33t-48 31.5t-56.5 28.5t-74 31.5q-47 21 -78 36.5t-69 38.5t-61.5 46t-45 53t-31.5 67t-10 80v4q0 145 101.5 231.5t257.5 86.5q188 0 352 -117l-99 -170
q-143 96 -258 96q-64 0 -100.5 -30t-36.5 -76v-4q0 -21 11 -40t25.5 -32.5t47.5 -31.5t56 -29t73 -33q71 -32 118 -59.5t91 -66t65 -87.5t21 -111v-4q0 -153 -105 -240t-266 -87z" />
    <glyph glyph-name="uni0456" unicode="&#x456;" horiz-adv-x="518" 
d="M135 1243v227h246v-227h-246zM141 0v1085h234v-1085h-234z" />
    <glyph glyph-name="uni0457" unicode="&#x457;" horiz-adv-x="518" 
d="M326 1210v226h229v-226h-229zM-31 1210v226h230v-226h-230zM141 0v1085h234v-1085h-234z" />
    <glyph glyph-name="uni0458" unicode="&#x458;" horiz-adv-x="516" 
d="M135 1243v227h246v-227h-246zM82 -315q-51 0 -109 10v184q36 -4 58 -4q110 0 110 129v1081h232v-1099q0 -301 -291 -301z" />
    <glyph glyph-name="uni0459" unicode="&#x459;" horiz-adv-x="1536" 
d="M670 0v901h-6l-412 -901h-238l500 1085h387v-335h162q188 0 302 -96t114 -273v-2q0 -175 -116 -277t-325 -102h-368zM899 190h145q101 0 153 48.5t52 136.5v2q0 86 -52 134t-150 48h-148v-369z" />
    <glyph glyph-name="uni045A" unicode="&#x45a;" horiz-adv-x="1630" 
d="M995 1085v-335h160q190 0 304 -96t114 -273v-2q0 -175 -116 -277t-324 -102h-371v440h-400v-440h-231v1085h231v-430h400v430h233zM993 559v-369h146q98 0 150 48.5t52 136.5v2q0 86 -51.5 134t-148.5 48h-148z" />
    <glyph glyph-name="uni045B" unicode="&#x45b;" horiz-adv-x="1083" 
d="M670 1145h-303v-258q110 26 211 26q395 0 395 -370v-543h-232v522q0 97 -46 138.5t-150 41.5q-85 0 -178 -26v-676h-234v1145h-186v182h186v152h234v-152h303v-182z" />
    <glyph glyph-name="uni045C" unicode="&#x45c;" horiz-adv-x="1060" 
d="M453 1206l198 322l205 -98l-233 -224h-170zM362 1085v-436h103l291 436h272l-377 -530l387 -555h-268l-301 444h-107v-444h-231v1085h231z" />
    <glyph glyph-name="uni045D" unicode="&#x45d;" horiz-adv-x="1142" 
d="M500 1206l-236 224l205 98l199 -322h-168zM131 0v1085h229v-682l431 682h221v-1085h-230v694l-440 -694h-211z" />
    <glyph glyph-name="uni045E" unicode="&#x45e;" horiz-adv-x="1067" 
d="M543 295l237 790h238l-369 -1101q-55 -163 -128.5 -231t-192.5 -68q-118 0 -217 57l65 178q58 -37 127 -37q46 0 75.5 25.5t55.5 89.5l-389 1087h246zM532 1200q-132 0 -216.5 72.5t-96.5 204.5h158q30 -119 155 -119q126 0 156 119h158q-10 -132 -96 -204.5t-218 -72.5z
" />
    <glyph glyph-name="uni045F" unicode="&#x45f;" horiz-adv-x="1140" 
d="M459 -250v250h-328v1085h231v-874h416v874h232v-1085h-342v-250h-209z" />
    <glyph glyph-name="uni0462" unicode="&#x462;" horiz-adv-x="1464" 
d="M664 1454v-188h405v-197h-405v-240h258q221 0 349 -104t128 -301v-2q0 -193 -133 -307.5t-361 -114.5h-479v1067h-365v199h365v188h238zM662 211h260q111 0 176 57t65 150v4q0 94 -62 146.5t-179 52.5h-260v-410z" />
    <glyph glyph-name="uni0463" unicode="&#x463;" horiz-adv-x="1204" 
d="M918 891h-363v-189h190q185 0 293.5 -89t108.5 -255v-4q0 -165 -112.5 -259.5t-313.5 -94.5h-397v889h-279v196h279v394h231v-394h363v-194zM553 522v-338h172q93 0 143 44.5t50 123.5v2q0 79 -49 123.5t-140 44.5h-176z" />
    <glyph glyph-name="uni0472" unicode="&#x472;" horiz-adv-x="1468" 
d="M731 -25q-181 0 -325 93.5t-224 260.5t-80 376v20q0 210 81 377.5t226 261.5t326 94q182 0 326 -93.5t224.5 -259.5t80.5 -376v-20q0 -210 -81.5 -378t-226.5 -262t-327 -94zM735 186q160 0 265.5 114.5t125.5 315.5h-784q23 -201 128 -315.5t265 -114.5zM731 1247
q-158 0 -262 -112t-127 -308h782q-25 193 -130.5 306.5t-262.5 113.5z" />
    <glyph glyph-name="uni0473" unicode="&#x473;" horiz-adv-x="1153" 
d="M575 -25q-213 0 -353 157.5t-140 397.5v19q0 157 64 284.5t178 200t254 72.5q212 0 352.5 -158t140.5 -397v-19q0 -158 -63.5 -285t-177.5 -199.5t-255 -72.5zM578 170q110 0 182.5 77t89.5 208h-547q19 -132 93.5 -208.5t181.5 -76.5zM573 913q-108 0 -179.5 -74
t-90.5 -204h545q-20 128 -95 203t-180 75z" />
    <glyph glyph-name="uni0474" unicode="&#x474;" horiz-adv-x="1384" 
d="M539 -8l-490 1442h258l346 -1082l232 707q68 214 167 296.5t275 82.5h29v-215h-10q-90 0 -142.5 -46t-95.5 -176l-350 -1009h-219z" />
    <glyph glyph-name="uni0475" unicode="&#x475;" horiz-adv-x="1095" 
d="M414 -8l-367 1093h244l235 -790l142 455q61 195 140.5 267.5t229.5 72.5h31v-195h-4q-68 0 -108.5 -38t-77.5 -144l-250 -721h-215z" />
    <glyph glyph-name="uni0490" unicode="&#x490;" horiz-adv-x="1071" 
d="M156 0v1434h630v262h222v-482h-615v-1214h-237z" />
    <glyph glyph-name="uni0491" unicode="&#x491;" horiz-adv-x="878" 
d="M131 0v1085h483v238h213v-449h-465v-874h-231z" />
    <glyph glyph-name="uni0492" unicode="&#x492;" horiz-adv-x="1116" 
d="M201 0v604h-131v172h131v658h852v-220h-615v-438h303v-172h-303v-604h-237z" />
    <glyph glyph-name="uni0493" unicode="&#x493;" horiz-adv-x="913" 
d="M164 0v434h-119v146h119v505h696v-211h-465v-294h228v-146h-228v-434h-231z" />
    <glyph glyph-name="uni0496" unicode="&#x496;" horiz-adv-x="1947" 
d="M1868 1434l-494 -701l367 -514h182v-493h-221v274h-80l-440 623h-109l4 -623h-235l2 623h-111l-440 -623h-273l527 733l-494 701h275l413 -607h103l-2 607h235l-4 -607h105l415 607h275z" />
    <glyph glyph-name="uni0497" unicode="&#x497;" horiz-adv-x="1619" 
d="M909 1085l-4 -438h103l288 438h263l-371 -532l237 -342h172v-461h-208v250h-82l-297 446h-105l4 -446h-225l2 446h-104l-297 -446h-262l383 543l-371 542h266l285 -438h100l-2 438h225z" />
    <glyph glyph-name="uni0498" unicode="&#x498;" horiz-adv-x="1163" 
d="M449 -274l6 260q-216 21 -392 170l130 178q177 -137 356 -137q127 0 204.5 58t77.5 159v2q0 98 -77.5 152t-218.5 53h-201v202h201q125 0 197.5 57.5t72.5 159.5v2q0 92 -63 144.5t-179 52.5q-178 0 -350 -145l-127 170q207 190 492 190q215 0 340.5 -102.5t125.5 -274.5
v-2q0 -252 -247 -340q274 -79 274 -338v-2q0 -160 -106.5 -269t-296.5 -138l8 -262h-227z" />
    <glyph glyph-name="uni0499" unicode="&#x499;" horiz-adv-x="976" 
d="M55 111l109 163q145 -102 293 -102q102 0 157.5 39.5t55.5 107.5v3q0 63 -56 98.5t-159 34.5h-181v180h179q96 0 146 36t50 103v2q0 61 -49 98t-135 37q-147 0 -291 -108l-106 158q180 145 415 145q181 0 286 -81.5t105 -217.5v-2q0 -179 -188 -252q209 -66 209 -256v-2
q0 -118 -84.5 -201.5t-235.5 -107.5l9 -236h-217l8 232q-178 19 -320 129z" />
    <glyph glyph-name="uni049A" unicode="&#x49a;" horiz-adv-x="1320" 
d="M1247 1434l-528 -697l391 -518h190v-493h-221v274h-92l-463 618h-133l2 -618h-237v1434h237l-2 -603h131l439 603h286z" />
    <glyph glyph-name="uni049B" unicode="&#x49b;" horiz-adv-x="1077" 
d="M362 1085v-436h103l291 436h272l-377 -530l240 -344h164v-461h-209v250h-76l-301 444h-107v-444h-231v1085h231z" />
    <glyph glyph-name="uni049C" unicode="&#x49c;" horiz-adv-x="1366" 
d="M692 1243l-4 -403l352 594h267l-441 -689l463 -745h-268l-375 618l6 -399h-143l2 402h-158v-621h-237v1434h237v-605h158l-2 414h143z" />
    <glyph glyph-name="uni049D" unicode="&#x49d;" horiz-adv-x="1155" 
d="M1114 0h-256l-262 463h-8l2 -311h-119l2 311h-111v-463h-231v1085h231v-438h111l-2 311h119l-2 -311h14l258 438h250l-334 -522z" />
    <glyph glyph-name="uni04A0" unicode="&#x4a0;" horiz-adv-x="1566" 
d="M61 1219v215h605l-2 -603h131l438 603h287l-529 -697l557 -737h-288l-463 618h-133l2 -618h-238v1219h-367z" />
    <glyph glyph-name="uni04A1" unicode="&#x4a1;" horiz-adv-x="1251" 
d="M45 881v204h508v-436h102l291 436h273l-377 -530l387 -555h-268l-302 444h-106v-444h-231v881h-277z" />
    <glyph glyph-name="uni04A2" unicode="&#x4a2;" horiz-adv-x="1400" 
d="M1122 -274v274h-168v610h-561v-610h-237v1434h237v-603h561v603h240v-1215h149v-493h-221z" />
    <glyph glyph-name="uni04A3" unicode="&#x4a3;" horiz-adv-x="1183" 
d="M922 -250v250h-144v440h-416v-440h-231v1085h231v-432h416v432h232v-874h120v-461h-208z" />
    <glyph glyph-name="uni04A4" unicode="&#x4a4;" horiz-adv-x="1796" 
d="M938 0v610h-545v-610h-237v1434h237v-603h545v603h797v-220h-559v-1214h-238z" />
    <glyph glyph-name="uni04A5" unicode="&#x4a5;" horiz-adv-x="1490" 
d="M362 1085v-430h400v430h680v-211h-447v-874h-233v440h-400v-440h-231v1085h231z" />
    <glyph glyph-name="uni04AA" unicode="&#x4aa;" horiz-adv-x="1263" 
d="M600 -274l6 266q-228 42 -366 235t-138 482v14q0 214 82.5 381t228.5 258.5t330 91.5q147 0 253.5 -47.5t197.5 -138.5l-143 -183q-74 72 -149 110t-167 38q-167 0 -277 -142.5t-110 -369.5v-6q0 -230 110.5 -372t278.5 -142q92 0 166 38t154 117l143 -170
q-87 -87 -176.5 -137t-204.5 -63l8 -260h-227z" />
    <glyph glyph-name="uni04AB" unicode="&#x4ab;" horiz-adv-x="985" 
d="M442 -250l9 240q-165 42 -267 187t-102 351v21q0 245 140.5 401t355.5 156q111 0 193 -37.5t155 -110.5l-129 -170q-50 52 -101 80.5t-118 28.5q-116 0 -189.5 -97.5t-73.5 -252.5v-10q0 -158 75 -255.5t194 -97.5q67 1 117 29t104 82l125 -154q-122 -136 -279 -159
l8 -232h-217z" />
    <glyph glyph-name="uni04AE" unicode="&#x4ae;" horiz-adv-x="1255" 
d="M508 0v571l-481 863h270l334 -621l334 621h264l-481 -861v-573h-240z" />
    <glyph glyph-name="uni04AF" unicode="&#x4af;" horiz-adv-x="1064" 
d="M649 -309h-231v342l-371 1052h244l244 -772l245 772h238l-369 -1052v-342z" />
    <glyph glyph-name="uni04B0" unicode="&#x4b0;" horiz-adv-x="1255" 
d="M508 0v418h-295v172h285l-471 844h270l334 -621l334 621h264l-473 -844h286v-172h-294v-418h-240z" />
    <glyph glyph-name="uni04B1" unicode="&#x4b1;" horiz-adv-x="1064" 
d="M535 313l245 772h238l-330 -942h227v-143h-266v-309h-231v309h-266v143h227l-332 942h244z" />
    <glyph glyph-name="uni04B2" unicode="&#x4b2;" horiz-adv-x="1320" 
d="M948 0l-311 549l-311 -549h-267l441 733l-420 701h272l289 -519l295 519h264l-422 -701l309 -514h193v-493h-221v274h-111z" />
    <glyph glyph-name="uni04B3" unicode="&#x4b3;" horiz-adv-x="1060" 
d="M311 1085l211 -364l209 364h244l-326 -530l211 -344h168v-461h-209v250h-80l-221 387l-223 -387h-246l340 553l-326 532h248z" />
    <glyph glyph-name="uni04B6" unicode="&#x4b6;" horiz-adv-x="1316" 
d="M870 0v514q-129 -33 -278 -33q-471 0 -471 449v504h235v-478q0 -135 63.5 -195.5t201.5 -60.5q137 0 249 35v699h240v-1215h150v-493h-222v274h-168z" />
    <glyph glyph-name="uni04B7" unicode="&#x4b7;" horiz-adv-x="1114" 
d="M707 0v362q-114 -28 -211 -28q-396 0 -396 373v378h232v-358q0 -98 46 -140t150 -42q90 0 179 28v512h233v-874h121v-461h-209v250h-145z" />
    <glyph glyph-name="uni04B8" unicode="&#x4b8;" horiz-adv-x="1273" 
d="M881 0v514q-106 -24 -191 -29l2 -319h-143l2 315q-212 11 -321 120.5t-109 330.5v502h235v-478q0 -121 46 -180t149 -71l-2 409h143l-2 -412q113 11 191 33v699h237v-1434h-237z" />
    <glyph glyph-name="uni04B9" unicode="&#x4b9;" horiz-adv-x="1083" 
d="M586 117h-119v217q-367 16 -367 368v383h232v-360q0 -84 32 -124.5t105 -51.5l-2 305h119l-2 -307q75 6 135 26v512h231v-1085h-231v362q-61 -15 -135 -24z" />
    <glyph glyph-name="uni04BA" unicode="&#x4ba;" horiz-adv-x="1265" 
d="M393 1434v-514q128 32 281 32q471 0 471 -448v-504h-238v477q0 135 -63 195.5t-201 60.5t-250 -35v-698h-237v1434h237z" />
    <glyph glyph-name="uni04BB" unicode="&#x4bb;" horiz-adv-x="1114" 
d="M131 0v1479h231v-551q54 82 124.5 130t172.5 48q158 0 246 -100.5t88 -278.5v-727h-233v659q0 116 -50 177t-143 61q-92 0 -148.5 -64.5t-56.5 -175.5v-657h-231z" />
    <glyph glyph-name="uni04C0" unicode="&#x4c0;" horiz-adv-x="571" 
d="M166 0v1434h240v-1434h-240z" />
    <glyph glyph-name="uni04C1" unicode="&#x4c1;" horiz-adv-x="1918" 
d="M956 1534q-136 0 -220.5 66.5t-94.5 189.5h162q18 -49 53.5 -72.5t99.5 -23.5q121 0 156 96h160q-10 -122 -95 -189t-221 -67zM53 1434h275l413 -607h103l-2 607h235l-4 -607h105l415 607h275l-494 -701l524 -733h-276l-440 623h-109l4 -623h-235l2 623h-111l-440 -623
h-273l527 733z" />
    <glyph glyph-name="uni04C2" unicode="&#x4c2;" horiz-adv-x="1593" 
d="M909 1085l-4 -438h103l288 438h263l-371 -532l385 -553h-266l-297 446h-105l4 -446h-225l2 446h-104l-297 -446h-262l383 543l-371 542h266l285 -438h100l-2 438h225zM795 1200q-132 0 -217 72.5t-97 204.5h158q30 -119 156 -119q125 0 155 119h158
q-10 -132 -95.5 -204.5t-217.5 -72.5z" />
    <glyph glyph-name="uni04CF" unicode="&#x4cf;" horiz-adv-x="518" 
d="M141 0v1479h234v-1479h-234z" />
    <glyph glyph-name="uni04D0" unicode="&#x4d0;" horiz-adv-x="1380" 
d="M49 0l526 1442h230l526 -1442h-248l-118 338h-557l-119 -338h-240zM481 549h408l-203 575zM688 1550q-136 0 -220.5 66.5t-94.5 189.5h162q18 -49 53.5 -72.5t99.5 -23.5q121 0 156 96h160q-10 -122 -95 -189t-221 -67z" />
    <glyph glyph-name="uni04D1" unicode="&#x4d1;" horiz-adv-x="1048" 
d="M401 -20q-141 0 -237 89t-96 242v13q0 168 105.5 257t283.5 89q125 0 248 -45v47q0 109 -61 165t-173 56q-116 0 -260 -66l-68 185q175 86 359 86q210 0 319 -109t109 -315v-674h-228v133q-107 -153 -301 -153zM471 154q101 0 168.5 59.5t67.5 151.5v110q-88 37 -201 37
q-100 0 -155.5 -48t-55.5 -134v-6q0 -78 48.5 -123t127.5 -47zM524 1200q-132 0 -216.5 72.5t-96.5 204.5h158q30 -119 155 -119q126 0 156 119h158q-10 -132 -96 -204.5t-218 -72.5z" />
    <glyph glyph-name="uni04D2" unicode="&#x4d2;" horiz-adv-x="1380" 
d="M49 0l526 1442h230l526 -1442h-248l-118 338h-557l-119 -338h-240zM481 549h408l-203 575zM760 1559v219h233v-219h-233zM383 1559v219h233v-219h-233z" />
    <glyph glyph-name="uni04D3" unicode="&#x4d3;" horiz-adv-x="1048" 
d="M401 -20q-141 0 -237 89t-96 242v13q0 168 105.5 257t283.5 89q125 0 248 -45v47q0 109 -61 165t-173 56q-116 0 -260 -66l-68 185q175 86 359 86q210 0 319 -109t109 -315v-674h-228v133q-107 -153 -301 -153zM471 154q101 0 168.5 59.5t67.5 151.5v110q-88 37 -201 37
q-100 0 -155.5 -48t-55.5 -134v-6q0 -78 48.5 -123t127.5 -47zM588 1210v226h229v-226h-229zM231 1210v226h230v-226h-230z" />
    <glyph glyph-name="uni04D4" unicode="&#x4d4;" horiz-adv-x="1830" 
d="M18 0l676 1434h1035v-215h-637v-390h561v-215h-561v-397h645v-217h-883v338h-436l-158 -338h-242zM514 549h340v670h-33z" />
    <glyph glyph-name="uni04D5" unicode="&#x4d5;" horiz-adv-x="1685" 
d="M424 -20q-155 0 -255.5 89.5t-100.5 245.5v9q0 169 105 257.5t282 88.5q123 0 243 -45v47q0 108 -59 164.5t-170 56.5q-127 0 -260 -68l-66 189q171 84 355 84q247 0 336 -164q130 172 327 172q140 0 242.5 -75t153.5 -203t51 -293q0 -47 -2 -80h-682q17 -134 91 -207.5
t185 -73.5q75 0 133 28.5t115 86.5l123 -144q-160 -170 -381 -170q-117 0 -214.5 51t-164.5 146q-174 -192 -387 -192zM924 614h456q-8 135 -66.5 216t-158.5 81q-97 0 -159 -79t-72 -218zM471 156q73 0 142 40t124 111q-20 58 -32 168q-88 37 -201 37q-99 0 -154 -47
t-55 -133v-8q0 -77 49.5 -122.5t126.5 -45.5z" />
    <glyph glyph-name="uni04D6" unicode="&#x4d6;" horiz-adv-x="1163" 
d="M608 1534q-136 0 -220.5 66.5t-94.5 189.5h162q18 -49 53.5 -72.5t99.5 -23.5q121 0 156 96h160q-10 -122 -95 -189t-221 -67zM156 0v1434h903v-215h-666v-390h590v-215h-590v-397h674v-217h-911z" />
    <glyph glyph-name="uni04D7" unicode="&#x4d7;" horiz-adv-x="1075" 
d="M578 -25q-104 0 -195 39.5t-157.5 110.5t-105 176t-38.5 231v15q0 244 131 401.5t332 157.5q144 0 247 -75t153 -202.5t50 -293.5q0 -47 -2 -80h-680q17 -134 92 -207.5t183 -73.5q74 0 133.5 29t116.5 86l120 -144q-160 -170 -380 -170zM311 614h457q-8 135 -65.5 216
t-157.5 81q-97 0 -159.5 -79t-74.5 -218zM541 1200q-132 0 -217 72.5t-97 204.5h158q30 -119 156 -119q125 0 155 119h158q-10 -132 -95.5 -204.5t-217.5 -72.5z" />
    <glyph glyph-name="uni04D8" unicode="&#x4d8;" horiz-adv-x="1386" 
d="M287 1071l-140 168q209 219 510 219q278 0 453.5 -201t175.5 -528v-20q0 -213 -77 -380.5t-214.5 -260.5t-310.5 -93q-188 0 -321 98.5t-197 266t-64 387.5q0 52 4 98h928q-23 198 -126 304t-255 106q-104 0 -191.5 -40t-174.5 -124zM684 193q147 0 240 114t112 316h-686
q14 -200 101.5 -315t232.5 -115z" />
    <glyph glyph-name="uni04D9" unicode="&#x4d9;" horiz-adv-x="1075" 
d="M498 1108q138 0 250 -67.5t178.5 -195t66.5 -292.5v-16q0 -244 -131 -402t-332 -158q-144 0 -247 75t-153 203t-50 294v82h682q-17 134 -91.5 207t-185.5 73q-133 0 -247 -114l-123 141q157 170 383 170zM764 469h-459q11 -135 68.5 -216t156.5 -81q96 0 159 80t75 217z
" />
    <glyph glyph-name="uni04DC" unicode="&#x4dc;" horiz-adv-x="1918" 
d="M1028 1542v219h234v-219h-234zM651 1542v219h234v-219h-234zM53 1434h275l413 -607h103l-2 607h235l-4 -607h105l415 607h275l-494 -701l524 -733h-276l-440 623h-109l4 -623h-235l2 623h-111l-440 -623h-273l527 733z" />
    <glyph glyph-name="uni04DD" unicode="&#x4dd;" horiz-adv-x="1593" 
d="M858 1210v226h229v-226h-229zM502 1210v226h229v-226h-229zM909 1085l-4 -438h103l288 438h263l-371 -532l385 -553h-266l-297 446h-105l4 -446h-225l2 446h-104l-297 -446h-262l383 543l-371 542h266l285 -438h100l-2 438h225z" />
    <glyph glyph-name="uni04DE" unicode="&#x4de;" horiz-adv-x="1163" 
d="M643 1548v219h234v-219h-234zM266 1548v219h234v-219h-234zM213 1094l-127 170q207 190 492 190q215 0 340.5 -102.5t125.5 -274.5v-2q0 -252 -247 -340q274 -79 274 -338v-2q0 -185 -140.5 -300t-381.5 -115q-278 0 -486 176l130 178q177 -137 356 -137q127 0 204.5 58
t77.5 159v2q0 98 -77.5 152t-218.5 53h-201v202h201q125 0 197.5 57.5t72.5 159.5v2q0 92 -63 144.5t-179 52.5q-178 0 -350 -145z" />
    <glyph glyph-name="uni04DF" unicode="&#x4df;" horiz-adv-x="976" 
d="M553 1210v226h229v-226h-229zM197 1210v226h229v-226h-229zM55 111l109 163q145 -102 293 -102q102 0 157.5 39.5t55.5 107.5v3q0 63 -56 98.5t-159 34.5h-181v180h179q96 0 146 36t50 103v2q0 61 -49 98t-135 37q-147 0 -291 -108l-106 158q180 145 415 145
q181 0 286 -81.5t105 -217.5v-2q0 -179 -188 -252q209 -66 209 -256v-2q0 -140 -115.5 -230t-318.5 -90q-230 0 -406 136z" />
    <glyph glyph-name="uni04E2" unicode="&#x4e2;" horiz-adv-x="1394" 
d="M367 1556v170h655v-170h-655zM1241 0h-235v1016l-637 -1016h-213v1434h235v-985l619 985h231v-1434z" />
    <glyph glyph-name="uni04E3" unicode="&#x4e3;" horiz-adv-x="1142" 
d="M260 1225v166h614v-166h-614zM131 0v1085h229v-682l431 682h221v-1085h-230v694l-440 -694h-211z" />
    <glyph glyph-name="uni04E4" unicode="&#x4e4;" horiz-adv-x="1394" 
d="M766 1540v219h233v-219h-233zM389 1540v219h234v-219h-234zM1241 0h-235v1016l-637 -1016h-213v1434h235v-985l619 985h231v-1434z" />
    <glyph glyph-name="uni04E5" unicode="&#x4e5;" horiz-adv-x="1142" 
d="M631 1210v226h229v-226h-229zM274 1210v226h230v-226h-230zM131 0v1085h229v-682l431 682h221v-1085h-230v694l-440 -694h-211z" />
    <glyph glyph-name="uni04E6" unicode="&#x4e6;" horiz-adv-x="1474" 
d="M807 1559v219h233v-219h-233zM430 1559v219h234v-219h-234zM737 -25q-186 0 -331 93.5t-224.5 259.5t-79.5 377v20q0 211 81 378.5t226.5 261t329.5 93.5q185 0 329.5 -93t224 -259t79.5 -377v-20q0 -211 -81 -378.5t-226 -261.5t-328 -94zM739 197q170 0 278.5 141
t108.5 371v14q0 230 -109.5 372t-279.5 142q-172 0 -280.5 -141t-108.5 -371v-14q0 -229 111 -371.5t280 -142.5z" />
    <glyph glyph-name="uni04E7" unicode="&#x4e7;" horiz-adv-x="1163" 
d="M643 1210v226h229v-226h-229zM287 1210v226h229v-226h-229zM582 -25q-215 0 -357.5 158t-142.5 397v19q0 240 143 398.5t359 158.5q141 0 254.5 -72t177 -198.5t63.5 -284.5v-19q0 -158 -64 -285t-178 -199.5t-255 -72.5zM584 180q121 0 193.5 100t72.5 255v12
q0 153 -76 254.5t-192 101.5q-121 0 -195 -100.5t-74 -253.5v-12q0 -153 77 -255t194 -102z" />
    <glyph glyph-name="uni04E8" unicode="&#x4e8;" horiz-adv-x="1468" 
d="M731 -25q-181 0 -325 93.5t-224 260.5t-80 376v20q0 210 81 377.5t226 261.5t326 94q182 0 326 -93.5t224.5 -259.5t80.5 -376v-20q0 -210 -81.5 -378t-226.5 -262t-327 -94zM735 186q160 0 265.5 114.5t125.5 315.5h-784q23 -201 128 -315.5t265 -114.5zM731 1247
q-158 0 -262 -112t-127 -308h782q-25 193 -130.5 306.5t-262.5 113.5z" />
    <glyph glyph-name="uni04E9" unicode="&#x4e9;" horiz-adv-x="1153" 
d="M575 -25q-213 0 -353 157.5t-140 397.5v19q0 157 64 284.5t178 200t254 72.5q212 0 352.5 -158t140.5 -397v-19q0 -158 -63.5 -285t-177.5 -199.5t-255 -72.5zM578 170q110 0 182.5 77t89.5 208h-547q19 -132 93.5 -208.5t181.5 -76.5zM573 913q-108 0 -179.5 -74
t-90.5 -204h545q-20 128 -95 203t-180 75z" />
    <glyph glyph-name="uni04EE" unicode="&#x4ee;" horiz-adv-x="1259" 
d="M317 1556v170h656v-170h-656zM549 0h-258l235 479l-485 955h262l354 -713l320 713h258z" />
    <glyph glyph-name="uni04EF" unicode="&#x4ef;" horiz-adv-x="1067" 
d="M543 295l237 790h238l-369 -1101q-55 -163 -128.5 -231t-192.5 -68q-118 0 -217 57l65 178q58 -37 127 -37q46 0 75.5 25.5t55.5 89.5l-389 1087h246zM225 1225v166h615v-166h-615z" />
    <glyph glyph-name="uni04F0" unicode="&#x4f0;" horiz-adv-x="1259" 
d="M717 1540v219h233v-219h-233zM340 1540v219h233v-219h-233zM549 0h-258l235 479l-485 955h262l354 -713l320 713h258z" />
    <glyph glyph-name="uni04F1" unicode="&#x4f1;" horiz-adv-x="1067" 
d="M543 295l237 790h238l-369 -1101q-55 -163 -128.5 -231t-192.5 -68q-118 0 -217 57l65 178q58 -37 127 -37q46 0 75.5 25.5t55.5 89.5l-389 1087h246zM596 1210v226h229v-226h-229zM240 1210v226h229v-226h-229z" />
    <glyph glyph-name="uni04F2" unicode="&#x4f2;" horiz-adv-x="1259" 
d="M549 0h-258l235 479l-485 955h262l354 -713l320 713h258zM381 1536l209 283l201 -95l-238 -188h-172zM698 1536l211 283l199 -95l-238 -188h-172z" />
    <glyph glyph-name="uni04F3" unicode="&#x4f3;" horiz-adv-x="1067" 
d="M543 295l237 790h238l-369 -1101q-55 -163 -128.5 -231t-192.5 -68q-118 0 -217 57l65 178q58 -37 127 -37q46 0 75.5 25.5t55.5 89.5l-389 1087h246zM586 1206l196 322l197 -96l-231 -226h-162zM279 1206l194 322l197 -96l-230 -226h-161z" />
    <glyph glyph-name="uni04F4" unicode="&#x4f4;" horiz-adv-x="1263" 
d="M870 0v514q-129 -33 -278 -33q-471 0 -471 449v504h235v-478q0 -135 63.5 -195.5t201.5 -60.5q137 0 249 35v699h240v-1434h-240zM684 1540v219h234v-219h-234zM307 1540v219h234v-219h-234z" />
    <glyph glyph-name="uni04F5" unicode="&#x4f5;" horiz-adv-x="1071" 
d="M584 1210v226h229v-226h-229zM227 1210v226h230v-226h-230zM707 0v362q-114 -28 -211 -28q-396 0 -396 373v378h232v-358q0 -98 46 -140t150 -42q90 0 179 28v512h233v-1085h-233z" />
    <glyph glyph-name="uni04F8" unicode="&#x4f8;" horiz-adv-x="1718" 
d="M156 0v1434h237v-482h213q241 0 382.5 -121.5t141.5 -345.5v-4q0 -226 -145 -353.5t-395 -127.5h-434zM1325 0v1434h238v-1434h-238zM393 217h207q136 0 213.5 69t77.5 191v2q0 123 -75 190.5t-212 67.5h-211v-520zM928 1542v219h233v-219h-233zM551 1542v219h233v-219
h-233z" />
    <glyph glyph-name="uni04F9" unicode="&#x4f9;" horiz-adv-x="1466" 
d="M793 1210v226h229v-226h-229zM436 1210v226h230v-226h-230zM360 1085v-335h179q190 0 303.5 -96t113.5 -273v-2q0 -175 -116.5 -277t-325.5 -102h-383v1085h229zM360 559v-369h160q101 0 154 48.5t53 136.5v2q0 86 -53 134t-152 48h-162zM1102 0v1085h231v-1085h-231z
" />
    <glyph glyph-name="baht" unicode="&#xe3f;" horiz-adv-x="1161" 
d="M590 1604h158l-23 -183q152 -27 240 -117.5t88 -234.5v-4q0 -234 -228 -326q83 -32 137.5 -71.5t89.5 -107.5t35 -161v-4q0 -188 -135 -291.5t-362 -103.5h-29l-26 -244h-156l27 244h-273v1434h436zM864 416v4q0 97 -61 150t-178 59l-50 -426h27q124 0 193 55t69 158z
M352 815h154l47 416h-201v-416zM831 1028v2q0 72 -36.5 121t-104.5 68l-45 -400q186 29 186 209zM352 203h84l49 428h-133v-428z" />
    <glyph glyph-name="Wgrave" unicode="&#x1e80;" horiz-adv-x="1968" 
d="M1077 1538h-180l-238 188l207 95zM477 -8l-418 1442h252l281 -1041l293 1045h205l294 -1045l279 1041h248l-418 -1442h-217l-293 1012l-291 -1012h-215z" />
    <glyph glyph-name="wgrave" unicode="&#x1e81;" horiz-adv-x="1550" 
d="M358 -8l-303 1093h238l184 -731l199 733h198l201 -735l187 733h233l-305 -1093h-213l-203 725l-205 -725h-211zM696 1206l-235 224l205 98l198 -322h-168z" />
    <glyph glyph-name="Wacute" unicode="&#x1e82;" horiz-adv-x="1968" 
d="M887 1538l209 283l209 -95l-240 -188h-178zM477 -8l-418 1442h252l281 -1041l293 1045h205l294 -1045l279 1041h248l-418 -1442h-217l-293 1012l-291 -1012h-215z" />
    <glyph glyph-name="wacute" unicode="&#x1e83;" horiz-adv-x="1550" 
d="M678 1206l199 322l204 -98l-233 -224h-170zM358 -8l-303 1093h238l184 -731l199 733h198l201 -735l187 733h233l-305 -1093h-213l-203 725l-205 -725h-211z" />
    <glyph glyph-name="Wdieresis" unicode="&#x1e84;" horiz-adv-x="1968" 
d="M1055 1542v219h233v-219h-233zM678 1542v219h233v-219h-233zM477 -8l-418 1442h252l281 -1041l293 1045h205l294 -1045l279 1041h248l-418 -1442h-217l-293 1012l-291 -1012h-215z" />
    <glyph glyph-name="wdieresis" unicode="&#x1e85;" horiz-adv-x="1550" 
d="M836 1210v226h229v-226h-229zM479 1210v226h230v-226h-230zM358 -8l-303 1093h238l184 -731l199 733h198l201 -735l187 733h233l-305 -1093h-213l-203 725l-205 -725h-211z" />
    <glyph glyph-name="Ygrave" unicode="&#x1ef2;" horiz-adv-x="1255" 
d="M508 0v571l-481 863h270l334 -621l334 621h264l-481 -861v-573h-240zM723 1538h-180l-238 188l207 95z" />
    <glyph glyph-name="ygrave" unicode="&#x1ef3;" horiz-adv-x="1067" 
d="M543 295l237 790h238l-369 -1101q-55 -163 -128.5 -231t-192.5 -68q-118 0 -217 57l65 178q58 -37 127 -37q46 0 75.5 25.5t55.5 89.5l-389 1087h246zM463 1206l-236 224l205 98l199 -322h-168z" />
    <glyph glyph-name="enspace" unicode="&#x2002;" horiz-adv-x="1024" 
 />
    <glyph glyph-name="emspace" unicode="&#x2003;" horiz-adv-x="2048" 
 />
    <glyph glyph-name="threeperemspace" unicode="&#x2004;" horiz-adv-x="681" 
 />
    <glyph glyph-name="fourperemspace" unicode="&#x2005;" horiz-adv-x="512" 
 />
    <glyph glyph-name="figurespace" unicode="&#x2007;" horiz-adv-x="1085" 
 />
    <glyph glyph-name="thinspace" unicode="&#x2009;" horiz-adv-x="266" 
 />
    <glyph glyph-name="hairspace" unicode="&#x200a;" horiz-adv-x="149" 
 />
    <glyph glyph-name="endash" unicode="&#x2013;" horiz-adv-x="1028" 
d="M104 516v221h818v-221h-818z" />
    <glyph glyph-name="emdash" unicode="&#x2014;" horiz-adv-x="1685" 
d="M104 516v221h1477v-221h-1477z" />
    <glyph glyph-name="quoteleft" unicode="&#x2018;" horiz-adv-x="509" 
d="M117 872v232q0 159 73 240t224 100l26 -101q-181 -38 -168 -196h107v-275h-262z" />
    <glyph glyph-name="quoteright" unicode="&#x2019;" horiz-adv-x="509" 
d="M94 864l-24 101q184 38 168 196h-105v273h262v-230q0 -162 -73 -242t-228 -98z" />
    <glyph glyph-name="quotesinglbase" unicode="&#x201a;" horiz-adv-x="509" 
d="M82 -297l-27 100q187 38 174 197h-104v272h262v-229q0 -162 -74.5 -242t-230.5 -98z" />
    <glyph glyph-name="quotedblleft" unicode="&#x201c;" horiz-adv-x="948" 
d="M555 872v232q0 158 74 239.5t225 100.5l25 -101q-181 -38 -168 -196h106v-275h-262zM117 872v232q0 159 73 240t224 100l26 -101q-181 -38 -168 -196h107v-275h-262z" />
    <glyph glyph-name="quotedblright" unicode="&#x201d;" horiz-adv-x="948" 
d="M532 864l-24 101q184 38 168 196h-105v273h263v-230q0 -161 -74.5 -241.5t-227.5 -98.5zM94 864l-24 101q184 38 168 196h-105v273h262v-230q0 -162 -73 -242t-228 -98z" />
    <glyph glyph-name="quotedblbase" unicode="&#x201e;" horiz-adv-x="952" 
d="M524 -297l-26 100q190 39 174 197h-105v272h262v-229q0 -162 -74.5 -242t-230.5 -98zM82 -297l-27 100q187 38 174 197h-104v272h262v-229q0 -162 -74.5 -242t-230.5 -98z" />
    <glyph glyph-name="dagger" unicode="&#x2020;" horiz-adv-x="735" 
d="M293 487l20 564l-221 -19v146l219 -21l-24 277h159l-24 -277l221 21v-146l-223 19l20 -564h-147z" />
    <glyph glyph-name="daggerdbl" unicode="&#x2021;" horiz-adv-x="755" 
d="M297 0l27 274l-222 -18v145l222 -20l-21 336l21 334l-222 -19v146l222 -21l-27 277h160l-23 -277l219 21v-146l-221 19l19 -334l-19 -336l221 20v-145l-219 18l23 -274h-160z" />
    <glyph glyph-name="bullet" unicode="&#x2022;" horiz-adv-x="913" 
d="M457 434q-114 0 -190.5 79.5t-76.5 201.5v14q0 123 77.5 202t189.5 79q111 0 188.5 -79.5t77.5 -201.5v-14q0 -121 -77.5 -201t-188.5 -80z" />
    <glyph glyph-name="ellipsis" unicode="&#x2026;" horiz-adv-x="1531" 
d="M1151 0v268h258v-268h-258zM637 0v268h258v-268h-258zM125 0v268h258v-268h-258z" />
    <glyph glyph-name="perthousand" unicode="&#x2030;" horiz-adv-x="2256" 
d="M391 866q61 0 97 58t36 151v10q0 93 -38.5 152t-98.5 59q-61 0 -97 -58t-36 -151v-10q0 -96 38 -153.5t99 -57.5zM387 715q-135 0 -219 101t-84 255v14q0 157 86 261t221 104q133 0 218 -102.5t85 -257.5v-15q0 -154 -86 -257t-221 -103zM1335 1434l-501 -756l-433 -678
h-178l498 754l432 680h182zM1167 137q62 0 97.5 57.5t35.5 151.5v10q0 96 -37.5 153.5t-99.5 57.5q-59 0 -95 -58t-36 -151v-8q0 -97 37 -155t98 -58zM1163 -16q-133 0 -217 102t-84 258v14q0 155 85.5 258t219.5 103q133 0 218 -102t85 -255v-14q0 -157 -85.5 -260.5
t-221.5 -103.5zM1870 137q61 0 96 57.5t35 151.5v10q0 96 -36.5 153.5t-96.5 57.5q-62 0 -97.5 -57.5t-35.5 -151.5v-8q0 -97 37 -155t98 -58zM1868 -16q-135 0 -219 102t-84 258v14q0 155 85.5 258t219.5 103q133 0 217 -101.5t84 -255.5v-14q0 -156 -85 -260t-218 -104z
" />
    <glyph glyph-name="guilsinglleft" unicode="&#x2039;" horiz-adv-x="665" 
d="M410 86l-330 446v17l330 446l163 -86l-239 -366l241 -367z" />
    <glyph glyph-name="guilsinglright" unicode="&#x203a;" horiz-adv-x="665" 
d="M254 86l-164 86l242 367l-242 368l164 88l332 -446v-17z" />
    <glyph glyph-name="fraction" unicode="&#x2044;" horiz-adv-x="180" 
d="M-406 0l453 745l404 689h135l-453 -746l-401 -688h-138z" />
    <glyph glyph-name="zero.sup" unicode="&#x2070;" 
d="M360 868q-130 0 -207 105.5t-77 290.5v16q0 184 78 290.5t208 106.5q129 0 207 -105.5t78 -289.5v-16q0 -184 -79 -291t-208 -107zM360 1542q-65 0 -101 -66t-36 -196v-14q0 -130 37 -196t102 -66q64 0 101 66t37 196v14q0 129 -38 195.5t-102 66.5z" />
    <glyph glyph-name="four.sup" unicode="&#x2074;" 
d="M565 1047v-164h-133v164h-344l-14 129l332 491h159v-504h94v-116h-94zM434 1161v344h-2l-229 -344h231z" />
    <glyph glyph-name="five.sup" unicode="&#x2075;" 
d="M346 868q-139 0 -266 105l80 110q95 -82 186 -82q65 0 101 35.5t36 93.5q0 56 -37 87.5t-100 31.5q-57 0 -135 -28l-88 49l31 389h438v-133h-322l-14 -172q49 18 119 18q111 0 182.5 -61t71.5 -174q0 -123 -77.5 -196t-205.5 -73z" />
    <glyph glyph-name="six.sup" unicode="&#x2076;" 
d="M365 868q-113 0 -185 72q-46 44 -70 114.5t-24 186.5v10q0 204 81.5 315t229.5 111q113 0 207 -71l-65 -115q-62 55 -146 55q-69 0 -114.5 -58t-49.5 -161q62 59 162 59q101 0 169.5 -62.5t68.5 -182.5q0 -121 -75 -197t-189 -76zM360 995q61 0 96.5 37.5t35.5 102.5
t-34.5 100t-95.5 35q-59 0 -95 -35.5t-36 -99.5v-2q0 -61 37.5 -100.5t91.5 -37.5z" />
    <glyph glyph-name="seven.sup" unicode="&#x2077;" 
d="M313 883h-157l303 641h-348v135h510v-111z" />
    <glyph glyph-name="eight.sup" unicode="&#x2078;" 
d="M362 868q-123 0 -198.5 63t-75.5 167q0 126 121 192q-103 58 -103 172q0 94 72 154.5t184 60.5q110 0 182 -60.5t72 -154.5q0 -118 -104 -172q125 -66 125 -190q0 -105 -76.5 -168.5t-198.5 -63.5zM362 1563q-54 0 -88 -31.5t-34 -79.5q0 -51 34 -82t88 -31
q52 0 86.5 31.5t34.5 81.5q0 48 -34 79.5t-87 31.5zM362 1227q-61 0 -100 -33.5t-39 -89.5q0 -54 38 -87.5t101 -33.5q62 0 100 33t38 88q0 56 -38.5 89.5t-99.5 33.5z" />
    <glyph glyph-name="nine.sup" unicode="&#x2079;" 
d="M360 1675q114 0 183 -69q94 -91 94 -299v-13q0 -204 -80.5 -315t-228.5 -111q-124 0 -219 78l63 115q77 -62 158 -62q69 0 113.5 55t48.5 156q-59 -59 -158 -59q-101 0 -169.5 64.5t-68.5 185.5q0 123 73.5 198.5t190.5 75.5zM360 1268q59 0 95.5 37t36.5 104v2
q0 62 -37.5 102t-92.5 39q-60 0 -95.5 -39t-35.5 -106q0 -65 35.5 -102t93.5 -37z" />
    <glyph glyph-name="zero.inf" unicode="&#x2080;" 
d="M360 -287q-130 0 -207 105.5t-77 290.5v16q0 184 78 290.5t208 106.5q129 0 207 -105.5t78 -289.5v-16q0 -184 -79 -291t-208 -107zM360 387q-65 0 -101 -66t-36 -196v-14q0 -130 37 -196.5t102 -66.5q64 0 101 66.5t37 196.5v14q0 129 -38 195.5t-102 66.5z" />
    <glyph glyph-name="one.inf" unicode="&#x2081;" horiz-adv-x="587" 
d="M408 -268h-146v628l-147 -59l-31 125l213 88h111v-782z" />
    <glyph glyph-name="two.inf" unicode="&#x2082;" 
d="M96 -268v121l252 245q69 66 96 104.5t27 82.5q0 46 -32.5 74t-80.5 28q-47 0 -87 -25.5t-85 -76.5l-90 88q60 75 123.5 112t151.5 37q110 0 177.5 -61.5t67.5 -161.5q0 -71 -31 -127.5t-110 -130.5l-188 -180h334v-129h-525z" />
    <glyph glyph-name="three.inf" unicode="&#x2083;" 
d="M348 -287q-154 0 -270 111l78 108q88 -88 192 -88q53 0 90 31.5t37 83.5q0 55 -45.5 84t-124.5 29h-61l-19 92l205 211h-309v129h487v-111l-213 -213q101 -11 163.5 -65.5t62.5 -151.5q0 -110 -77 -180t-196 -70z" />
    <glyph glyph-name="four.inf" unicode="&#x2084;" 
d="M565 -109v-163h-133v163h-344l-14 129l332 492h159v-504h94v-117h-94zM434 6v344h-2l-229 -344h231z" />
    <glyph glyph-name="five.inf" unicode="&#x2085;" 
d="M346 -287q-139 0 -266 105l80 110q95 -82 186 -82q65 0 101 35.5t36 93.5q0 56 -37 87.5t-100 31.5q-57 0 -135 -28l-88 49l31 389h438v-133h-322l-14 -172q50 18 119 18q111 0 182.5 -61t71.5 -174q0 -123 -77.5 -196t-205.5 -73z" />
    <glyph glyph-name="six.inf" unicode="&#x2086;" 
d="M365 -287q-113 0 -185 72q-46 44 -70 114.5t-24 186.5v10q0 204 81.5 315t229.5 111q113 0 207 -71l-65 -115q-62 55 -146 55q-69 0 -114.5 -58t-49.5 -161q62 59 162 59q101 0 169.5 -62.5t68.5 -182.5q0 -121 -75 -197t-189 -76zM360 -160q61 0 96.5 37.5t35.5 102.5
t-34.5 100t-95.5 35q-59 0 -95 -35.5t-36 -99.5v-3q0 -61 37 -100t92 -37z" />
    <glyph glyph-name="seven.inf" unicode="&#x2087;" 
d="M313 -272h-157l303 641h-348v135h510v-111z" />
    <glyph glyph-name="eight.inf" unicode="&#x2088;" 
d="M362 -287q-123 0 -198.5 63t-75.5 167q0 126 121 192q-103 58 -103 172q0 94 72 154.5t184 60.5q110 0 182 -60.5t72 -154.5q0 -118 -104 -172q125 -66 125 -190q0 -105 -76.5 -168.5t-198.5 -63.5zM362 408q-54 0 -88 -31.5t-34 -79.5q0 -51 34 -82t88 -31
q52 0 86.5 31.5t34.5 81.5q0 48 -34 79.5t-87 31.5zM362 72q-61 0 -100 -33.5t-39 -89.5q0 -54 38 -87.5t101 -33.5q62 0 100 33t38 88q0 56 -38.5 89.5t-99.5 33.5z" />
    <glyph glyph-name="nine.inf" unicode="&#x2089;" 
d="M360 520q114 0 183 -69q94 -91 94 -299v-13q0 -204 -80.5 -315t-228.5 -111q-124 0 -219 78l63 115q77 -62 158 -62q69 0 113.5 55t48.5 156q-59 -59 -158 -59q-101 0 -169.5 64.5t-68.5 185.5q0 123 73.5 198.5t190.5 75.5zM360 113q59 0 95.5 37t36.5 104v2
q0 62 -37.5 102t-92.5 39q-60 0 -95.5 -39t-35.5 -106q0 -65 35.5 -102t93.5 -37z" />
    <glyph glyph-name="colonmonetary" unicode="&#x20a1;" horiz-adv-x="1089" 
d="M831 1597h111l-29 -213q70 -31 125 -75l-100 -193l-59 45l-123 -952q44 11 83 36t89 68l110 -161q-73 -66 -142.5 -103.5t-160.5 -48.5l-30 -242h-111l31 238q-60 2 -142 27l-34 -265h-111l41 312q-139 80 -217 243t-78 392v24q0 292 129 473.5t340 224.5l22 170h111
l-20 -159q61 0 141 -17zM635 1233l-131 -995q67 -36 153 -39l129 1013q-64 23 -120 23q-25 0 -31 -2zM307 725v-25q0 -258 109 -389l114 895q-104 -49 -163.5 -170.5t-59.5 -310.5z" />
    <glyph glyph-name="naira" unicode="&#x20a6;" horiz-adv-x="1513" 
d="M1458 428h-192v-428h-240l-233 430h-320v-430h-225v428h-193v162h193v262h-193v162h193v420h256l227 -422h309v422h226v-420h192v-162h-192v-262h192v-162zM469 1036v-450h246l-240 450h-6zM1038 426h6v430h-235z" />
    <glyph glyph-name="rupee" unicode="&#x20a8;" horiz-adv-x="1955" 
d="M133 0v1434h422q222 0 348.5 -118t126.5 -333v-8q0 -157 -69.5 -260.5t-188.5 -153.5l295 -561h-254l-264 510h-193v-510h-223zM1532 -20q-211 0 -391 143l104 162q143 -119 289 -119q66 0 107.5 32.5t41.5 86.5v4q0 49 -40 85t-158 87q-156 67 -225.5 139t-69.5 188v5
q0 139 98 223t250 84q187 0 336 -109l-92 -168q-137 92 -246 92q-65 0 -103 -30t-38 -78v-4q0 -48 42 -85.5t160 -88.5q156 -71 223.5 -142t67.5 -182v-4q0 -150 -100 -235.5t-256 -85.5zM356 709h193q119 0 188.5 68.5t69.5 191.5v4q0 129 -70 191.5t-194 62.5h-187v-518z
" />
    <glyph glyph-name="won" unicode="&#x20a9;" horiz-adv-x="2007" 
d="M1866 1434l-101 -430h189v-166h-228l-55 -240l283 2v-168h-322l-100 -436h-266l-105 436h-317l-105 -436h-264l-102 436h-322v166h285l-55 240h-230v166h191l-101 430h252l86 -430h293l105 434h260l100 -434h297l86 430h246zM999 1102l-118 -508h245l-118 508h-9z
M1393 315h10l102 529h-233zM612 315h9l118 529h-233z" />
    <glyph glyph-name="sheqel" unicode="&#x20aa;" horiz-adv-x="1167" 
d="M432 285l-53 391h129l41 -301q12 -90 55 -131t123 -41h152v878h174v-1081h-328q-132 0 -204 69t-89 216zM637 412v293q0 174 -158 174h-190v-879h-176v1081h399q122 0 187 -69t65 -203v-397h-127z" />
    <glyph glyph-name="Euro" unicode="&#x20ac;" horiz-adv-x="1261" 
d="M1188 1247l-160 -149q-52 70 -109.5 106.5t-138.5 36.5q-98 0 -171.5 -69.5t-110.5 -194.5h383v-168h-412q-2 -31 -2 -84v-14q0 -51 2 -76h412v-168h-387q38 -134 113.5 -204t180.5 -68q79 0 136 37.5t114 111.5l154 -141q-84 -111 -181 -168.5t-229 -57.5
q-202 0 -341 130t-191 360h-166v168h143q-2 25 -2 72v16q0 55 2 86h-143v168h170q55 221 193 350t335 129q134 0 230 -53.5t176 -155.5z" />
    <glyph glyph-name="peso" unicode="&#x20b1;" horiz-adv-x="1349" 
d="M236 0v860h-191v158h191v416h399q215 0 350 -112t160 -304h186v-158h-188q-24 -196 -170 -305.5t-355 -114.5h-145v-440h-237zM469 645h149q117 0 193 58.5t96 162.5h-438v-221zM469 1225v-213h438q-20 104 -95 158.5t-194 54.5h-149z" />
    <glyph glyph-name="hryvnia" unicode="&#x20b4;" horiz-adv-x="1138" 
d="M90 870l12 107l506 -66l4 4h2q68 68 93 109.5t24 87.5v2q0 58 -43.5 95t-116.5 36q-138 0 -282 -125l-119 168q195 166 422 166q179 0 284 -92t105 -236v-2q0 -121 -104 -247l210 -27l-12 -107l-291 37l-145 -137l416 -51l-15 -109l-501 64l-15 -12h-2
q-69 -69 -96 -114.5t-27 -92.5v-2q0 -65 48.5 -102.5t127.5 -35.5q146 0 304 134l125 -168q-204 -174 -449 -174q-191 0 -298 92.5t-107 238.5v2q0 135 116 269l-211 28l15 107l295 -39l143 137z" />
    <glyph glyph-name="numero" unicode="&#x2116;" horiz-adv-x="2011" 
d="M135 0v1434h209l516 -924v924h217v-1434h-192l-533 954v-954h-217zM1581 573q-148 0 -241 117.5t-93 306.5v21q0 189 93.5 306.5t242.5 117.5q147 0 239.5 -117t92.5 -305v-23q0 -189 -93 -306.5t-241 -117.5zM1583 725q72 0 116 75.5t44 194.5v23q0 122 -44.5 196
t-117.5 74t-117.5 -73t-44.5 -195v-23q0 -122 44.5 -197t119.5 -75zM1260 293v141h641v-141h-641z" />
    <glyph glyph-name="published" unicode="&#x2117;" horiz-adv-x="1511" 
d="M754 -25q-140 0 -263 57t-210.5 154t-138 232t-50.5 287v22q0 151 51.5 286t139.5 233t212 155t263 57q140 0 263 -56.5t210 -154t137.5 -232t50.5 -286.5v-22q0 -201 -87 -369t-240 -265.5t-338 -97.5zM754 49q127 0 237.5 51t188 139t122 209.5t44.5 258.5v24
q0 183 -75 332t-210 235t-303 86q-169 0 -305 -87t-211.5 -237t-75.5 -333v-25q0 -183 75 -332t210 -235t303 -86zM526 340v780h256q130 0 207.5 -69t77.5 -191v-4q0 -126 -81.5 -194.5t-211.5 -73.5h-106v-248h-142zM668 715h106q69 0 109.5 37t40.5 100v4
q0 68 -39.5 102.5t-110.5 34.5h-106v-278z" />
    <glyph glyph-name="servicemark" unicode="&#x2120;" horiz-adv-x="1275" 
d="M635 799v635h125l158 -283l157 283h123v-635h-115v444l-161 -297h-11l-163 297v-444h-113zM293 788q-134 0 -244 93l62 86q100 -78 186 -78q47 0 73.5 20.5t26.5 55.5q0 30 -25.5 50t-99.5 50q-104 40 -150 80t-46 112q0 82 60 134.5t157 52.5q121 0 213 -76l-62 -88
q-87 61 -153 61q-46 0 -72 -20t-26 -53q0 -30 25.5 -49.5t100.5 -49.5q100 -38 147.5 -81.5t47.5 -114.5q0 -85 -61.5 -135t-159.5 -50z" />
    <glyph glyph-name="trademark" unicode="&#x2122;" horiz-adv-x="1247" 
d="M602 799v635h129l156 -283l157 283h123v-635h-112v444l-166 -297h-8l-162 297v-444h-117zM207 799v526h-162v109h442v-109h-161v-526h-119z" />
    <glyph glyph-name="Omega" unicode="&#x2126;" horiz-adv-x="1509" 
d="M758 1458q285 0 452.5 -175.5t167.5 -467.5v-6q0 -330 -280 -600l311 2v-211h-541v203q61 61 104.5 116.5t82 126.5t58.5 155.5t20 180.5v4q0 213 -101 332t-276 119q-174 0 -274.5 -117.5t-100.5 -326.5v-5q0 -184 67 -323.5t193 -261.5v-203h-537v211l308 -2
q-133 128 -206 274t-73 326v6q0 186 74.5 331t217.5 228.5t333 83.5z" />
    <glyph glyph-name="onethird" unicode="&#x2153;" horiz-adv-x="1492" 
d="M1133 -18q-156 0 -271 110l78 109q88 -88 193 -88q53 0 90 31t37 83q0 55 -45.5 84t-124.5 29h-62l-18 92l204 211h-309v129h488v-110l-213 -213q101 -11 163 -65.5t62 -152.5q0 -110 -76.5 -179.5t-195.5 -69.5zM408 662h-146v628l-147 -61l-31 127l213 88h111v-782z
M184 0l453 745l403 689h136l-453 -746l-401 -688h-138z" />
    <glyph glyph-name="twothirds" unicode="&#x2154;" horiz-adv-x="1626" 
d="M1272 -18q-156 0 -271 110l78 109q88 -88 193 -88q53 0 90 31t37 83q0 55 -45.5 84t-124.5 29h-62l-18 92l205 211h-310v129h488v-110l-213 -213q101 -11 163 -65.5t62 -152.5q0 -110 -76.5 -179.5t-195.5 -69.5zM86 662v120l252 246q70 66 96.5 104t26.5 82
q0 46 -32.5 74.5t-80.5 28.5q-47 0 -87.5 -26t-84.5 -79l-90 93q60 74 122.5 110.5t151.5 36.5q110 0 178 -61.5t68 -161.5q0 -71 -31 -127.5t-110 -130.5l-189 -178h334v-131h-524zM317 0l453 745l404 689h135l-453 -746l-401 -688h-138z" />
    <glyph glyph-name="onefifth" unicode="&#x2155;" horiz-adv-x="1492" 
d="M1124 -18q-140 0 -266 104l80 111q95 -82 186 -82q65 0 101.5 35.5t36.5 93.5q0 56 -37.5 87t-100.5 31q-57 0 -135 -28l-88 49l31 389h438v-133h-321l-15 -172q50 18 119 18q111 0 182.5 -61t71.5 -174q0 -122 -77.5 -195t-205.5 -73zM408 662h-146v628l-147 -61
l-31 127l213 88h111v-782zM188 0l453 745l403 689h136l-453 -746l-401 -688h-138z" />
    <glyph glyph-name="twofifths" unicode="&#x2156;" horiz-adv-x="1626" 
d="M1268 -18q-141 0 -267 104l80 111q95 -82 187 -82q65 0 101 35.5t36 93.5q0 56 -37 87t-100 31q-57 0 -135 -28l-89 49l31 389h438v-133h-321l-14 -172q50 18 118 18q111 0 182.5 -61t71.5 -174q0 -123 -77 -195.5t-205 -72.5zM336 0l452 745l404 689h135l-453 -746
l-401 -688h-137zM86 662v120l252 246q70 66 96.5 104t26.5 82q0 46 -32.5 74.5t-80.5 28.5q-47 0 -87.5 -26t-84.5 -79l-90 93q60 74 122.5 110.5t151.5 36.5q110 0 178 -61.5t68 -161.5q0 -71 -31 -127.5t-110 -130.5l-189 -178h334v-131h-524z" />
    <glyph glyph-name="threefifths" unicode="&#x2157;" horiz-adv-x="1626" 
d="M1268 -18q-141 0 -267 104l80 111q95 -82 187 -82q65 0 101 35.5t36 93.5q0 56 -37 87t-100 31q-57 0 -135 -28l-89 49l31 389h438v-133h-321l-14 -172q50 18 118 18q111 0 182.5 -61t71.5 -174q0 -123 -77 -195.5t-205 -72.5zM307 0l453 745l403 689h135l-452 -746
l-402 -688h-137zM340 645q-159 0 -270 111l77 104q93 -86 193 -86q53 0 90 31.5t37 83.5q0 56 -45 85.5t-125 29.5h-61l-19 92l205 207h-309v131h487v-111l-213 -213q100 -11 162.5 -66t62.5 -153q0 -110 -75 -178t-197 -68z" />
    <glyph glyph-name="fourfifths" unicode="&#x2158;" horiz-adv-x="1626" 
d="M551 821v-162h-133v162h-344l-15 131l332 490h160v-504h94v-117h-94zM420 938v340h-2l-230 -340h232zM1268 -18q-141 0 -267 104l80 111q95 -82 187 -82q65 0 101 35.5t36 93.5q0 56 -37 87t-100 31q-57 0 -135 -28l-89 49l31 389h438v-133h-321l-14 -172q50 18 118 18
q111 0 182.5 -61t71.5 -174q0 -123 -77 -195.5t-205 -72.5zM332 0l452 745l404 689h135l-453 -746l-401 -688h-137z" />
    <glyph glyph-name="onesixth" unicode="&#x2159;" horiz-adv-x="1492" 
d="M1139 -18q-114 0 -185 71q-46 44 -70 114.5t-24 186.5v11q0 204 81.5 315t229.5 111q112 0 207 -72l-65 -115q-62 55 -146 55q-69 0 -114 -58t-49 -161q63 60 161 60q101 0 169.5 -62.5t68.5 -183.5t-75 -196.5t-189 -75.5zM1135 109q61 0 96 37t35 102t-34 100t-95 35
q-59 0 -95 -35.5t-36 -99.5v-2q0 -61 37 -100t92 -37zM408 662h-146v628l-147 -61l-31 127l213 88h111v-782zM203 0l452 745l404 689h135l-453 -746l-401 -688h-137z" />
    <glyph glyph-name="fivesixths" unicode="&#x215a;" horiz-adv-x="1626" 
d="M1278 -18q-113 0 -184 71q-46 45 -70.5 115t-24.5 186v11q0 203 82 314.5t230 111.5q112 0 207 -72l-66 -115q-62 55 -145 55q-69 0 -114.5 -58t-49.5 -161q63 60 162 60q101 0 169 -62.5t68 -183.5t-75 -196.5t-189 -75.5zM1274 109q61 0 96 37t35 102t-34 100t-95 35
q-59 0 -95 -35.5t-36 -99.5v-2q0 -61 37 -100t92 -37zM315 0l453 745l403 689h136l-453 -746l-401 -688h-138zM338 645q-139 0 -266 105l80 108q92 -82 186 -82q65 0 101 35.5t36 93.5q0 56 -37 87.5t-100 31.5q-54 0 -135 -29l-88 49l30 390h439v-134h-322l-14 -170
q60 17 119 17q111 0 182.5 -61t71.5 -175q0 -122 -77.5 -194t-205.5 -72z" />
    <glyph glyph-name="oneeighth" unicode="&#x215b;" horiz-adv-x="1492" 
d="M1137 -18q-124 0 -199.5 62.5t-75.5 166.5q0 126 121 192q-102 57 -102 172q0 94 72 155t184 61q110 0 182 -61t72 -155q0 -117 -105 -172q125 -66 125 -190q0 -105 -76 -168t-198 -63zM1137 676q-54 0 -88.5 -31.5t-34.5 -79.5q0 -51 34.5 -81.5t88.5 -30.5q52 0 86 31
t34 81q0 48 -33.5 79.5t-86.5 31.5zM1137 340q-61 0 -100.5 -33.5t-39.5 -89.5q0 -54 38.5 -87.5t101.5 -33.5q62 0 99.5 33t37.5 88q0 56 -38 89.5t-99 33.5zM408 662h-146v628l-147 -61l-31 127l213 88h111v-782zM193 0l452 745l404 689h135l-453 -746l-401 -688h-137z
" />
    <glyph glyph-name="threeeighths" unicode="&#x215c;" horiz-adv-x="1626" 
d="M1280 -18q-123 0 -198.5 62.5t-75.5 166.5q0 127 120 192q-102 57 -102 172q0 94 72 155t184 61q110 0 182 -61t72 -155q0 -118 -104 -172q124 -65 124 -190q0 -105 -76 -168t-198 -63zM1280 676q-54 0 -88.5 -31.5t-34.5 -79.5q0 -51 34.5 -81.5t88.5 -30.5
q52 0 86.5 31t34.5 81q0 48 -34 79.5t-87 31.5zM1280 340q-61 0 -100 -33.5t-39 -89.5q0 -54 38 -87.5t101 -33.5q62 0 99.5 33t37.5 88q0 56 -38 89.5t-99 33.5zM315 0l453 745l403 689h136l-453 -746l-401 -688h-138zM342 645q-159 0 -270 111l78 104q93 -86 192 -86
q53 0 90 31.5t37 83.5q0 56 -45 85.5t-125 29.5h-61l-19 92l205 207h-309v131h487v-111l-213 -213q100 -11 162.5 -66t62.5 -153q0 -110 -75 -178t-197 -68z" />
    <glyph glyph-name="fiveeighths" unicode="&#x215d;" horiz-adv-x="1626" 
d="M1280 -18q-123 0 -198.5 62.5t-75.5 166.5q0 127 120 192q-102 57 -102 172q0 94 72 155t184 61q110 0 182 -61t72 -155q0 -118 -104 -172q124 -65 124 -190q0 -105 -76 -168t-198 -63zM1280 676q-54 0 -88.5 -31.5t-34.5 -79.5q0 -51 34.5 -81.5t88.5 -30.5
q52 0 86.5 31t34.5 81q0 48 -34 79.5t-87 31.5zM1280 340q-61 0 -100 -33.5t-39 -89.5q0 -54 38 -87.5t101 -33.5q62 0 99.5 33t37.5 88q0 56 -38 89.5t-99 33.5zM315 0l453 745l403 689h136l-453 -746l-401 -688h-138zM340 645q-139 0 -266 105l80 108q92 -82 186 -82
q65 0 101 35.5t36 93.5q0 56 -37 87.5t-100 31.5q-54 0 -135 -29l-88 49l30 390h439v-134h-322l-14 -170q59 17 119 17q111 0 182.5 -61t71.5 -175q0 -122 -77.5 -194t-205.5 -72z" />
    <glyph glyph-name="seveneighths" unicode="&#x215e;" horiz-adv-x="1626" 
d="M1264 -18q-124 0 -199.5 62.5t-75.5 166.5q0 126 121 192q-102 57 -102 172q0 94 72 155t184 61q110 0 182 -61t72 -155q0 -117 -105 -172q125 -66 125 -190q0 -105 -76 -168t-198 -63zM1264 676q-54 0 -88.5 -31.5t-34.5 -79.5q0 -51 34.5 -81.5t88.5 -30.5q52 0 86 31
t34 81q0 48 -33.5 79.5t-86.5 31.5zM1264 340q-61 0 -100.5 -33.5t-39.5 -89.5q0 -54 38.5 -87.5t101.5 -33.5q62 0 99.5 33t37.5 88q0 56 -38 89.5t-99 33.5zM319 659h-157l303 637h-348v138h510v-109zM252 0l453 745l403 689h135l-452 -746l-402 -688h-137z" />
    <glyph glyph-name="Delta" unicode="&#x2206;" horiz-adv-x="1376" 
d="M98 0l-20 176l487 1266h248l487 -1266l-20 -176h-1182zM338 213h694l-346 936z" />
    <glyph glyph-name="minus" unicode="&#x2212;" horiz-adv-x="1134" 
d="M1022 610h-909v221h909v-221z" />
    <glyph glyph-name="NUL" horiz-adv-x="0" 
 />
    <glyph glyph-name="CR" horiz-adv-x="466" 
 />
    <glyph glyph-name="Q.alt" horiz-adv-x="1474" 
d="M1143 -199l-199 209q-96 -35 -207 -35q-186 0 -331 93.5t-224.5 259.5t-79.5 377v20q0 211 81 378.5t226.5 261t329.5 93.5q185 0 329.5 -93t224 -259t79.5 -377v-20q0 -171 -55 -317t-154 -245l310 -340v-6h-330zM739 197q170 0 278.5 141t108.5 371v14
q0 230 -109.5 372t-279.5 142q-172 0 -280.5 -141t-108.5 -371v-14q0 -229 111 -371.5t280 -142.5z" />
    <glyph glyph-name="a.alt" horiz-adv-x="1187" 
d="M506 -20q-84 0 -158.5 34.5t-133.5 100.5t-93.5 172.5t-34.5 240.5v29q0 132 34.5 239t93.5 173.5t133.5 101.5t158.5 35q195 0 317 -186v165h234v-1085h-234v174q-123 -194 -317 -194zM569 184q109 0 184.5 96t75.5 252v21q0 156 -75.5 252t-184.5 96t-179.5 -94
t-70.5 -254v-18q0 -159 71.5 -255t178.5 -96z" />
    <glyph glyph-name="three.alt" horiz-adv-x="1081" 
d="M520 -25q-138 0 -256.5 52t-206.5 147l144 166q138 -145 317 -145q110 0 176 58.5t66 158.5v2q0 101 -78.5 157t-230.5 56h-105v202h111q129 0 201.5 59t72.5 159v2q0 87 -61.5 139.5t-161.5 52.5q-85 0 -151 -38t-128 -107l-147 149q91 104 196 158.5t244 54.5
q195 0 319 -104.5t124 -270.5v-2q0 -127 -60 -211t-160 -129q250 -87 250 -333v-5q0 -186 -130.5 -307t-344.5 -121z" />
    <glyph glyph-name="registered.alt" horiz-adv-x="1511" 
d="M754 -25q-140 0 -263 57t-210.5 154t-138 232t-50.5 287v22q0 151 51.5 286t139.5 233t212 155t263 57q140 0 263 -56.5t210 -154t137.5 -232t50.5 -286.5v-22q0 -201 -87 -369t-240 -265.5t-338 -97.5zM754 49q127 0 237.5 51t188 139t122 209.5t44.5 258.5v24
q0 183 -75 332t-210 235t-303 86q-169 0 -305 -87t-211.5 -237t-75.5 -333v-25q0 -183 75 -332t210 -235t303 -86zM494 346v780h284q140 0 217 -77q64 -67 64 -168v-7q0 -87 -41.5 -144t-114.5 -83l180 -301h-161l-162 272h-127v-272h-139zM633 741h139q67 0 106.5 34
t39.5 95v2q0 64 -39.5 95.5t-108.5 31.5h-137v-258z" />
    <glyph glyph-name="acute.cap" horiz-adv-x="1024" 
d="M328 1538l209 283l208 -95l-239 -188h-178z" />
    <glyph glyph-name="grave.cap" horiz-adv-x="1024" 
d="M690 1538h-180l-238 188l207 95z" />
    <glyph glyph-name="circumflex.cap" horiz-adv-x="1024" 
d="M186 1540l220 264h212l220 -264h-191l-137 115l-137 -115h-187z" />
    <glyph glyph-name="breve.cap" horiz-adv-x="1024" 
d="M512 1534q-136 0 -220.5 66.5t-94.5 189.5h161q18 -49 54 -72.5t100 -23.5q121 0 156 96h159q-10 -123 -94.5 -189.5t-220.5 -66.5z" />
    <glyph glyph-name="tilde.cap" horiz-adv-x="1024" 
d="M659 1540q-66 0 -161 43q-79 33 -111 33q-34 0 -54 -20.5t-40 -69.5l-133 37q30 120 77 176.5t125 56.5q63 0 166 -43q79 -33 107 -33q35 0 55.5 21t40.5 71l133 -38q-32 -123 -78 -178.5t-127 -55.5z" />
    <glyph glyph-name="macron.cap" horiz-adv-x="1024" 
d="M184 1559v170h656v-170h-656z" />
    <glyph glyph-name="dieresis.cap" horiz-adv-x="1024" 
d="M584 1542v219h233v-219h-233zM207 1542v219h233v-219h-233z" />
    <glyph glyph-name="caron.cap" horiz-adv-x="1024" 
d="M838 1804l-220 -264h-212l-220 264h191l137 -114l137 114h187z" />
    <glyph glyph-name="dotaccent.cap" horiz-adv-x="1024" 
d="M393 1542v219h240v-219h-240z" />
    <glyph glyph-name="caron.alt" horiz-adv-x="1024" 
d="M403 1188l23 362h176v-6l-102 -356h-97z" />
    <glyph glyph-name="hungarumlaut.cap" horiz-adv-x="1024" 
d="M150 1538l208 283l201 -95l-237 -188h-172zM467 1538l211 283l199 -95l-238 -188h-172z" />
    <glyph glyph-name="ring.cap" horiz-adv-x="1024" 
d="M512 1534q-92 0 -156.5 58t-64.5 143t64.5 142.5t156.5 57.5q93 0 158 -57.5t65 -142.5q0 -86 -65 -143.5t-158 -57.5zM512 1626q53 0 86 32t33 77q0 48 -32.5 78t-86.5 30t-86.5 -30t-32.5 -78q0 -45 33 -77t86 -32z" />
    <glyph glyph-name="aogonek.alt" horiz-adv-x="1187" 
d="M1073 -201v-118q-62 -5 -65 -5q-116 0 -178 43t-62 117q0 80 78 164h-23v174q-123 -194 -317 -194q-84 0 -158.5 34.5t-133.5 100.5t-93.5 172.5t-34.5 240.5v29q0 132 34.5 239t93.5 173.5t133.5 101.5t158.5 35q195 0 317 -186v165h234v-1085h-49q-62 -71 -62 -123
q0 -78 127 -78zM569 184q109 0 184.5 96t75.5 252v21q0 156 -75.5 252t-184.5 96t-179.5 -94t-70.5 -254v-18q0 -159 71.5 -255t178.5 -96z" />
    <glyph glyph-name="aringacute.alt" horiz-adv-x="1187" 
d="M512 1688l203 264l203 -94l-232 -170h-174zM604 1200q-91 0 -154 61.5t-63 151.5t63 151.5t154 61.5q93 0 156 -60.5t63 -152.5q0 -90 -64 -151.5t-155 -61.5zM604 1288q52 0 87.5 36t35.5 89t-35.5 89t-87.5 36q-51 0 -86 -35.5t-35 -89.5t35 -89.5t86 -35.5zM506 -20
q-84 0 -158.5 34.5t-133.5 100.5t-93.5 172.5t-34.5 240.5v29q0 132 34.5 239t93.5 173.5t133.5 101.5t158.5 35q195 0 317 -186v165h234v-1085h-234v174q-123 -194 -317 -194zM569 184q109 0 184.5 96t75.5 252v21q0 156 -75.5 252t-184.5 96t-179.5 -94t-70.5 -254v-18
q0 -159 71.5 -255t178.5 -96z" />
    <glyph glyph-name="aring.alt2" horiz-adv-x="1048" 
d="M401 -20q-141 0 -237 89t-96 242v13q0 168 105.5 257t283.5 89q125 0 248 -45v47q0 109 -61 165t-173 56q-116 0 -260 -66l-68 185q113 55 217 73q-53 59 -53 140q0 90 63.5 151.5t153.5 61.5q91 0 155 -61.5t64 -151.5q0 -87 -65 -152q99 -40 143 -84q109 -109 109 -315
v-674h-228v133q-107 -153 -301 -153zM471 154q101 0 168.5 59.5t67.5 151.5v110q-88 37 -201 37q-100 0 -155.5 -48t-55.5 -134v-6q0 -78 48.5 -123t127.5 -47zM524 1100q52 0 87.5 36t35.5 89q0 51 -36 88t-87 37q-49 0 -85 -37t-36 -88q0 -53 35.5 -89t85.5 -36z" />
    <glyph glyph-name="aringacute.alt2" horiz-adv-x="1048" 
d="M432 1501l203 264l203 -94l-232 -170h-174zM401 -20q-141 0 -237 89t-96 242v13q0 168 105.5 257t283.5 89q125 0 248 -45v47q0 109 -61 165t-173 56q-116 0 -260 -66l-68 185q113 55 217 73q-53 59 -53 140q0 90 63.5 151.5t153.5 61.5q91 0 155 -61.5t64 -151.5
q0 -87 -65 -152q99 -40 143 -84q109 -109 109 -315v-674h-228v133q-107 -153 -301 -153zM471 154q101 0 168.5 59.5t67.5 151.5v110q-88 37 -201 37q-100 0 -155.5 -48t-55.5 -134v-6q0 -78 48.5 -123t127.5 -47zM524 1100q52 0 87.5 36t35.5 89q0 51 -36 88t-87 37
q-49 0 -85 -37t-36 -88q0 -53 35.5 -89t85.5 -36z" />
    <glyph glyph-name="i.dot" horiz-adv-x="518" 
d="M135 1243v227h246v-227h-246zM141 0v1085h234v-1085h-234z" />
    <glyph glyph-name="aacute.alt" horiz-adv-x="1187" 
d="M510 1206l199 322l204 -98l-233 -224h-170zM506 -20q-84 0 -158.5 34.5t-133.5 100.5t-93.5 172.5t-34.5 240.5v29q0 132 34.5 239t93.5 173.5t133.5 101.5t158.5 35q195 0 317 -186v165h234v-1085h-234v174q-123 -194 -317 -194zM569 184q109 0 184.5 96t75.5 252v21
q0 156 -75.5 252t-184.5 96t-179.5 -94t-70.5 -254v-18q0 -159 71.5 -255t178.5 -96z" />
    <glyph glyph-name="agrave.alt" horiz-adv-x="1187" 
d="M506 -20q-84 0 -158.5 34.5t-133.5 100.5t-93.5 172.5t-34.5 240.5v29q0 132 34.5 239t93.5 173.5t133.5 101.5t158.5 35q195 0 317 -186v165h234v-1085h-234v174q-123 -194 -317 -194zM569 184q109 0 184.5 96t75.5 252v21q0 156 -75.5 252t-184.5 96t-179.5 -94
t-70.5 -254v-18q0 -159 71.5 -255t178.5 -96zM530 1206l-235 224l205 98l198 -322h-168z" />
    <glyph glyph-name="acircumflex.alt" horiz-adv-x="1187" 
d="M291 1206l211 293h207l211 -293h-179l-139 135l-139 -135h-172zM506 -20q-84 0 -158.5 34.5t-133.5 100.5t-93.5 172.5t-34.5 240.5v29q0 132 34.5 239t93.5 173.5t133.5 101.5t158.5 35q195 0 317 -186v165h234v-1085h-234v174q-123 -194 -317 -194zM569 184
q109 0 184.5 96t75.5 252v21q0 156 -75.5 252t-184.5 96t-179.5 -94t-70.5 -254v-18q0 -159 71.5 -255t178.5 -96z" />
    <glyph glyph-name="abreve.alt" horiz-adv-x="1187" 
d="M506 -20q-84 0 -158.5 34.5t-133.5 100.5t-93.5 172.5t-34.5 240.5v29q0 132 34.5 239t93.5 173.5t133.5 101.5t158.5 35q195 0 317 -186v165h234v-1085h-234v174q-123 -194 -317 -194zM569 184q109 0 184.5 96t75.5 252v21q0 156 -75.5 252t-184.5 96t-179.5 -94
t-70.5 -254v-18q0 -159 71.5 -255t178.5 -96zM604 1200q-132 0 -216.5 72.5t-96.5 204.5h158q30 -119 155 -119q126 0 156 119h158q-10 -132 -96 -204.5t-218 -72.5z" />
    <glyph glyph-name="atilde.alt" horiz-adv-x="1187" 
d="M506 -20q-84 0 -158.5 34.5t-133.5 100.5t-93.5 172.5t-34.5 240.5v29q0 132 34.5 239t93.5 173.5t133.5 101.5t158.5 35q195 0 317 -186v165h234v-1085h-234v174q-123 -194 -317 -194zM569 184q109 0 184.5 96t75.5 252v21q0 156 -75.5 252t-184.5 96t-179.5 -94
t-70.5 -254v-18q0 -159 71.5 -255t178.5 -96zM754 1204q-62 0 -154 45q-69 37 -111 37q-35 0 -54.5 -21t-39.5 -73l-129 35q30 125 75.5 182t125.5 57q62 0 154 -45q8 -3 24 -10.5t25 -11t21 -7.5t21.5 -6t18.5 -2q35 0 54.5 22t39.5 75l129 -37q-31 -127 -74.5 -183.5
t-125.5 -56.5z" />
    <glyph glyph-name="amacron.alt" horiz-adv-x="1187" 
d="M506 -20q-84 0 -158.5 34.5t-133.5 100.5t-93.5 172.5t-34.5 240.5v29q0 132 34.5 239t93.5 173.5t133.5 101.5t158.5 35q195 0 317 -186v165h234v-1085h-234v174q-123 -194 -317 -194zM569 184q109 0 184.5 96t75.5 252v21q0 156 -75.5 252t-184.5 96t-179.5 -94
t-70.5 -254v-18q0 -159 71.5 -255t178.5 -96zM297 1225v166h614v-166h-614z" />
    <glyph glyph-name="adieresis.alt" horiz-adv-x="1187" 
d="M668 1210v226h229v-226h-229zM311 1210v226h230v-226h-230zM506 -20q-84 0 -158.5 34.5t-133.5 100.5t-93.5 172.5t-34.5 240.5v29q0 132 34.5 239t93.5 173.5t133.5 101.5t158.5 35q195 0 317 -186v165h234v-1085h-234v174q-123 -194 -317 -194zM569 184q109 0 184.5 96
t75.5 252v21q0 156 -75.5 252t-184.5 96t-179.5 -94t-70.5 -254v-18q0 -159 71.5 -255t178.5 -96z" />
    <glyph glyph-name="aring.alt" horiz-adv-x="1187" 
d="M604 1200q-91 0 -154 61.5t-63 151.5t63 151.5t154 61.5q93 0 156 -60.5t63 -152.5q0 -90 -64 -151.5t-155 -61.5zM604 1288q52 0 87.5 36t35.5 89t-35.5 89t-87.5 36q-51 0 -86 -35.5t-35 -89.5t35 -89.5t86 -35.5zM506 -20q-84 0 -158.5 34.5t-133.5 100.5t-93.5 172.5
t-34.5 240.5v29q0 132 34.5 239t93.5 173.5t133.5 101.5t158.5 35q195 0 317 -186v165h234v-1085h-234v174q-123 -194 -317 -194zM569 184q109 0 184.5 96t75.5 252v21q0 156 -75.5 252t-184.5 96t-179.5 -94t-70.5 -254v-18q0 -159 71.5 -255t178.5 -96z" />
    <glyph glyph-name="commaaccent.rot" horiz-adv-x="1024" 
d="M635 1610l14 -76q-136 -18 -127 -129h103v-195h-226v168q0 115 58 169.5t178 62.5z" />
    <glyph glyph-name="zero.den" 
d="M360 -18q-130 0 -207 105.5t-77 289.5v16q0 184 78 291t208 107q129 0 207 -106t78 -290v-16q0 -184 -79 -290.5t-208 -106.5zM360 655q-65 0 -101 -66t-36 -196v-14q0 -130 37 -196t102 -66q64 0 101 66t37 196v14q0 129 -38 195.5t-102 66.5z" />
    <glyph glyph-name="one.den" horiz-adv-x="587" 
d="M408 0h-146v629l-147 -60l-31 125l213 88h111v-782z" />
    <glyph glyph-name="one.sup_alt" 
d="M641 887h-516v125h197v506l-175 -70l-30 127l239 94h109v-657h176v-125z" />
    <glyph glyph-name="one.den_alt" 
d="M641 0h-516v125h197v506l-175 -70l-30 127l239 94h109v-657h176v-125z" />
    <glyph glyph-name="two.den" 
d="M96 0v121l252 246q70 66 96.5 104t26.5 82q0 46 -32.5 74t-80.5 28q-47 0 -87 -25.5t-85 -76.5l-90 88q60 75 123.5 112.5t151.5 37.5q110 0 177.5 -62t67.5 -162q0 -71 -31 -127.5t-110 -130.5l-188 -180h334v-129h-525z" />
    <glyph glyph-name="three.den" 
d="M348 -18q-155 0 -270 110l78 109q88 -88 192 -88q53 0 90 31t37 83q0 55 -45.5 84t-124.5 29h-61l-19 92l205 211h-309v129h487v-110l-213 -213q101 -11 163.5 -66t62.5 -152q0 -110 -77 -179.5t-196 -69.5z" />
    <glyph glyph-name="four.den" 
d="M565 160v-164h-133v164h-344l-14 129l332 491h159v-504h94v-116h-94zM434 274v344h-2l-229 -344h231z" />
    <glyph glyph-name="five.den" 
d="M346 -18q-140 0 -266 104l80 111q95 -82 186 -82q65 0 101 35.5t36 93.5q0 56 -37 87t-100 31q-57 0 -135 -28l-88 49l31 389h438v-133h-322l-14 -172q50 18 119 18q111 0 182.5 -61t71.5 -174q0 -122 -77.5 -195t-205.5 -73z" />
    <glyph glyph-name="six.den" 
d="M365 -18q-114 0 -185 71q-46 44 -70 114.5t-24 186.5v11q0 204 81.5 315t229.5 111q112 0 207 -72l-65 -115q-62 55 -146 55q-69 0 -114.5 -58t-49.5 -161q63 60 162 60q101 0 169.5 -62.5t68.5 -183.5t-75 -196.5t-189 -75.5zM360 109q61 0 96.5 37t35.5 102t-34.5 100
t-95.5 35q-59 0 -95 -35.5t-36 -99.5v-2q0 -61 37 -100t92 -37z" />
    <glyph glyph-name="seven.den" 
d="M313 -4h-157l303 641h-348v135h510v-110z" />
    <glyph glyph-name="eight.den" 
d="M362 -18q-123 0 -198.5 62.5t-75.5 166.5q0 126 121 192q-103 58 -103 172q0 94 72 155t184 61q110 0 182 -61t72 -155q0 -118 -104 -172q125 -66 125 -190q0 -105 -76 -168t-199 -63zM362 676q-54 0 -88 -31.5t-34 -79.5q0 -51 34 -81.5t88 -30.5q52 0 86.5 31t34.5 81
q0 48 -34 79.5t-87 31.5zM362 340q-61 0 -100 -33.5t-39 -89.5q0 -54 38 -87.5t101 -33.5q62 0 100 33t38 88q0 56 -38.5 89.5t-99.5 33.5z" />
    <glyph glyph-name="nine.den" 
d="M360 788q114 0 183 -69q94 -91 94 -299v-12q0 -204 -80.5 -315t-228.5 -111q-126 0 -219 77l63 115q76 -61 158 -61q69 0 113.5 55t48.5 156q-60 -60 -158 -60q-101 0 -169.5 64.5t-68.5 185.5q0 123 73.5 198.5t190.5 75.5zM360 381q59 0 95.5 37t36.5 104v2
q0 62 -37.5 102.5t-92.5 39.5q-60 0 -95.5 -39.5t-35.5 -106.5q0 -65 35.5 -102t93.5 -37z" />
    <glyph glyph-name="one.inf_alt" 
d="M641 -268h-516v125h197v505l-175 -69l-30 127l239 94h109v-657h176v-125z" />
    <glyph glyph-name="zero.num" 
d="M360 645q-130 0 -207 105.5t-77 289.5v15q0 184 78 290.5t208 106.5q129 0 207 -105.5t78 -289.5v-15q0 -186 -78.5 -291.5t-208.5 -105.5zM360 1317q-65 0 -101 -66t-36 -196v-13q0 -131 37 -197.5t102 -66.5q64 0 101 66t37 196v15q0 129 -38 195.5t-102 66.5z" />
    <glyph glyph-name="one.num" horiz-adv-x="587" 
d="M408 662h-146v628l-147 -61l-31 127l213 88h111v-782z" />
    <glyph glyph-name="one.num_alt" 
d="M641 662h-516v124h197v506l-175 -67l-30 127l239 92h109v-658h176v-124z" />
    <glyph glyph-name="two.num" 
d="M96 662v120l252 246q70 66 96.5 104t26.5 82q0 46 -32.5 74.5t-80.5 28.5q-47 0 -87.5 -26t-84.5 -79l-90 93q60 74 123 110.5t152 36.5q110 0 177.5 -61.5t67.5 -161.5q0 -71 -31 -127.5t-110 -130.5l-188 -178h334v-131h-525z" />
    <glyph glyph-name="three.num" 
d="M348 645q-159 0 -270 111l78 104q93 -86 192 -86q53 0 90 31.5t37 83.5q0 56 -45 85.5t-125 29.5h-61l-19 92l205 207h-309v131h487v-111l-213 -213q100 -11 163 -66t63 -153q0 -110 -75.5 -178t-197.5 -68z" />
    <glyph glyph-name="four.num" 
d="M565 821v-162h-133v162h-344l-14 131l332 490h159v-504h94v-117h-94zM434 938v340h-2l-229 -340h231z" />
    <glyph glyph-name="five.num" 
d="M346 645q-139 0 -266 105l80 108q92 -82 186 -82q65 0 101 35.5t36 93.5q0 56 -37 87.5t-100 31.5q-54 0 -135 -29l-88 49l31 390h438v-134h-322l-14 -170q59 17 119 17q111 0 182.5 -61t71.5 -175q0 -122 -77.5 -194t-205.5 -72z" />
    <glyph glyph-name="six.num" 
d="M365 645q-115 0 -185 70q-46 46 -70 115t-24 184v12q0 204 81.5 315t229.5 111q112 0 207 -72l-65 -114q-62 55 -146 55q-69 0 -114.5 -57.5t-49.5 -159.5q69 59 162 59q101 0 169.5 -64t68.5 -184q0 -121 -75 -195.5t-189 -74.5zM360 768q60 0 96 37.5t36 103.5
q0 65 -34.5 100t-95.5 35q-59 0 -95 -35.5t-36 -99.5v-2q0 -61 37.5 -101t91.5 -38z" />
    <glyph glyph-name="seven.num" 
d="M313 659h-157l303 637h-348v138h510v-109z" />
    <glyph glyph-name="eight.num" 
d="M362 645q-124 0 -199 61.5t-75 165.5q0 129 121 193q-103 58 -103 174q0 93 72 153t184 60q110 0 182 -60.5t72 -152.5q0 -120 -104 -174q125 -66 125 -193q0 -103 -76 -165t-199 -62zM362 1335q-54 0 -88 -29.5t-34 -78.5q0 -51 34 -82t88 -31q52 0 86.5 31.5t34.5 81.5
q0 49 -33.5 78.5t-87.5 29.5zM362 1001q-61 0 -100 -33t-39 -89q0 -54 38 -87.5t101 -33.5q62 0 100 33.5t38 87.5q0 56 -38.5 89t-99.5 33z" />
    <glyph glyph-name="nine.num" 
d="M360 1452q111 0 183 -72q46 -44 70 -114.5t24 -186.5v-10q0 -204 -80.5 -314t-228.5 -110q-127 0 -219 76l63 115q73 -62 158 -62q69 0 113.5 55t48.5 156q-59 -59 -158 -59q-102 0 -170 63.5t-68 186.5q0 122 74 199t190 77zM360 1042q59 0 95.5 37.5t36.5 104.5v2
q0 62 -37 101.5t-93 37.5q-60 0 -95.5 -37.5t-35.5 -103.5q0 -68 35.5 -105t93.5 -37z" />
    <glyph glyph-name="onehalf.alt" horiz-adv-x="1626" 
d="M635 662h-516v124h196v506l-174 -67l-30 127l239 92h109v-658h176v-124zM1012 0v121l252 246q69 66 95.5 104t26.5 82q0 46 -32 74t-80 28q-47 0 -87 -25.5t-85 -76.5l-90 88q61 75 123.5 112.5t150.5 37.5q110 0 178 -62t68 -162q0 -71 -31 -127.5t-110 -130.5
l-189 -180h334v-129h-524zM350 0l453 745l403 689h135l-452 -746l-402 -688h-137z" />
    <glyph glyph-name="onethird.alt" horiz-adv-x="1626" 
d="M635 662h-516v124h196v506l-174 -67l-30 127l239 92h109v-658h176v-124zM1266 -18q-156 0 -271 110l78 109q88 -88 193 -88q53 0 90 31t37 83q0 55 -45.5 84t-124.5 29h-62l-18 92l205 211h-310v129h488v-110l-213 -213q101 -11 163 -65.5t62 -152.5q0 -110 -76.5 -179.5
t-195.5 -69.5zM334 0l452 745l404 689h135l-453 -746l-401 -688h-137z" />
    <glyph glyph-name="onequarter.alt" horiz-adv-x="1626" 
d="M637 662h-516v124h196v506l-174 -67l-30 127l239 92h109v-658h176v-124zM365 0l452 745l404 689h135l-453 -746l-401 -688h-137zM1460 160v-164h-133v164h-344l-14 129l331 491h160v-504h94v-116h-94zM1329 274v344h-2l-229 -344h231z" />
    <glyph glyph-name="onefifth.alt" horiz-adv-x="1626" 
d="M635 662h-516v124h196v506l-174 -67l-30 127l239 92h109v-658h176v-124zM1266 -18q-141 0 -267 104l80 111q95 -82 187 -82q65 0 101 35.5t36 93.5q0 56 -37 87t-100 31q-58 0 -136 -28l-88 49l31 389h438v-133h-321l-14 -172q50 18 118 18q111 0 182.5 -61t71.5 -174
q0 -123 -77 -195.5t-205 -72.5zM344 0l453 745l403 689h135l-452 -746l-402 -688h-137z" />
    <glyph glyph-name="onesixth.alt" horiz-adv-x="1626" 
d="M635 662h-516v124h196v506l-174 -67l-30 127l239 92h109v-658h176v-124zM1282 -18q-113 0 -184 71q-46 44 -70 114.5t-24 186.5v11q0 204 81.5 315t229.5 111q112 0 207 -72l-66 -115q-62 55 -145 55q-69 0 -114.5 -58t-49.5 -161q63 60 162 60q101 0 169 -62.5
t68 -183.5t-75 -196.5t-189 -75.5zM1278 109q61 0 96 37t35 102t-34 100t-95 35q-59 0 -95 -35.5t-36 -99.5v-2q0 -61 37 -100t92 -37zM346 0l453 745l403 689h135l-452 -746l-402 -688h-137z" />
    <glyph glyph-name="oneeighth.alt" horiz-adv-x="1626" 
d="M633 662h-516v124h196v506l-174 -67l-30 127l239 92h109v-658h176v-124zM1282 -18q-123 0 -198.5 62.5t-75.5 166.5q0 127 120 192q-102 57 -102 172q0 94 72 155t184 61q110 0 182 -61t72 -155q0 -118 -104 -172q124 -65 124 -190q0 -105 -76 -168t-198 -63zM1282 676
q-54 0 -88.5 -31.5t-34.5 -79.5q0 -51 34.5 -81.5t88.5 -30.5q52 0 86.5 31t34.5 81q0 48 -34 79.5t-87 31.5zM1282 340q-61 0 -100 -33.5t-39 -89.5q0 -54 38 -87.5t101 -33.5q62 0 99.5 33t37.5 88q0 56 -38 89.5t-99 33.5zM344 0l453 745l403 689h135l-452 -746
l-402 -688h-137z" />
    <glyph glyph-name="zero.tab" horiz-adv-x="1085" 
d="M541 -23q-218 0 -340.5 186.5t-122.5 532.5v37q0 348 123.5 535.5t341.5 187.5q217 0 340 -186.5t123 -532.5v-37q0 -347 -124 -535t-341 -188zM541 1249q-109 0 -171.5 -126.5t-62.5 -387.5v-35q0 -262 61.5 -389t174.5 -127q109 0 171 126t62 388v35q0 261 -62.5 388.5
t-172.5 127.5z" />
    <glyph glyph-name="one.tab" horiz-adv-x="1085" 
d="M1018 0h-883v197h346v999l-311 -127l-41 207l418 168h164v-1247h307v-197z" />
    <glyph glyph-name="two.tab" horiz-adv-x="1085" 
d="M981 0h-893v186l432 478q120 132 167.5 212.5t47.5 159.5q0 95 -58 148t-147 53q-86 0 -151.5 -46t-138.5 -142l-154 143q96 134 204.5 198t258.5 64q191 0 307.5 -108.5t116.5 -286.5v-6q0 -125 -54.5 -224t-185.5 -243l-334 -371h582v-215z" />
    <glyph glyph-name="three.tab" horiz-adv-x="1085" 
d="M510 -25q-260 0 -451 191l138 174q71 -71 143 -109t168 -38q105 0 172.5 61.5t67.5 167.5v6q0 109 -81 166t-235 57h-84l-33 148l363 422h-553v213h838v-193l-375 -418q81 -11 149.5 -38t125 -72t88.5 -116t32 -161v-6q0 -201 -133.5 -328t-339.5 -127z" />
    <glyph glyph-name="three.tab_alt" horiz-adv-x="1085" 
d="M518 -25q-133 0 -249.5 52t-205.5 147l138 164q140 -150 319 -150q110 0 176 60.5t66 163.5q0 104 -81.5 161.5t-229.5 57.5h-103v196h113q128 0 204 61.5t76 162.5q0 90 -62 143t-161 51q-91 0 -159.5 -39t-131.5 -110l-141 149q186 213 446 213q198 0 320.5 -103
t122.5 -278q0 -123 -64 -206.5t-166 -129.5q248 -94 248 -344q0 -186 -131 -304t-344 -118z" />
    <glyph glyph-name="four.tab" horiz-adv-x="1085" 
d="M664 0v305h-580l-33 207l559 930h269v-946h159v-191h-159v-305h-215zM666 494v661h-4l-406 -661h410z" />
    <glyph glyph-name="five.tab" horiz-adv-x="1085" 
d="M506 -25q-240 0 -434 175l125 178q79 -69 152.5 -104.5t158.5 -35.5q114 0 184 70.5t70 190.5v2q0 115 -69 178t-189 63q-116 0 -228 -59l-137 90l45 711h748v-213h-557l-25 -361q88 37 203 37q91 0 169 -26t139.5 -77.5t96.5 -136.5t35 -194v-6q0 -216 -137.5 -349
t-349.5 -133z" />
    <glyph glyph-name="six.tab" horiz-adv-x="1085" 
d="M604 924q83 0 155 -28.5t128 -82.5t88.5 -140t32.5 -194v-14q0 -215 -127.5 -352.5t-321.5 -137.5q-190 0 -309 119q-83 83 -122.5 212t-39.5 353v21q0 379 135.5 577.5t392.5 198.5q194 0 340 -117l-104 -188q-116 94 -240 94q-74 0 -132 -36.5t-93 -100t-53.5 -143
t-20.5 -172.5q111 131 291 131zM553 178q107 0 169 76.5t62 200.5v4q0 126 -62 198t-167 72q-109 0 -171 -73t-62 -197v-4q0 -124 63 -200.5t168 -76.5z" />
    <glyph glyph-name="seven.tab" horiz-adv-x="1085" 
d="M733 1214h-620v220h876v-181l-536 -1253h-256z" />
    <glyph glyph-name="eight.tab" horiz-adv-x="1085" 
d="M543 -20q-204 0 -332.5 112.5t-128.5 294.5v8q0 246 221 348q-188 109 -188 320v6q0 167 121.5 276t306.5 109t305.5 -109t120.5 -276v-6q0 -215 -189 -320q221 -105 221 -344v-8q0 -187 -127.5 -299t-330.5 -112zM543 825q91 0 149 62t58 160v4q0 96 -57 154.5
t-150 58.5t-150 -58.5t-57 -154.5v-4q0 -98 57.5 -160t149.5 -62zM543 170q109 0 172 64t63 169v7q0 106 -66.5 168.5t-168.5 62.5q-105 0 -171.5 -62t-66.5 -169v-7q0 -105 64.5 -169t173.5 -64z" />
    <glyph glyph-name="nine.tab" horiz-adv-x="1085" 
d="M481 498q-83 0 -155 28.5t-128 82.5t-88 141.5t-32 197.5v15q0 219 127 357t321 138q191 0 310 -119q81 -81 121 -212t40 -353v-18q0 -380 -135.5 -579.5t-392.5 -199.5q-195 0 -358 125l104 189q137 -103 258 -103q72 0 128 35.5t90.5 97.5t53.5 138t23 164
q-112 -125 -287 -125zM532 1255q-104 0 -166.5 -79t-62.5 -205v-2q0 -130 61 -204.5t166 -74.5q108 0 172 76.5t64 204.5v2q0 127 -64 204.5t-170 77.5z" />
    <glyph glyph-name="dollar.tab" horiz-adv-x="1085" 
d="M731 1595l-20 -172q149 -34 272 -129l-109 -176q-94 75 -194 107l-47 -414q193 -76 279.5 -172t86.5 -242v-2q0 -177 -123 -286.5t-317 -114.5l-24 -232h-160l24 246q-197 43 -338 170l113 174q123 -106 254 -145l47 430q-189 75 -272.5 168t-83.5 239v3
q0 176 120.5 284.5t313.5 108.5l16 155h162zM780 383v2q0 63 -36 109t-126 86l-45 -390q98 4 153.5 56t53.5 137zM336 1063v-2q0 -63 34.5 -108.5t123.5 -86.5l43 379q-95 -4 -148 -53.5t-53 -128.5z" />
    <glyph glyph-name="sterling.tab" horiz-adv-x="1085" 
d="M236 782v209q0 117 29.5 202t94.5 150q111 111 293 111q220 0 363 -172l-148 -160q-49 55 -96.5 83t-109.5 28q-81 0 -127 -49q-62 -62 -62 -195v-207h399v-198h-399v-377h533v-207h-908v147l138 50v387h-136v198h136z" />
    <glyph glyph-name="Euro.tab" horiz-adv-x="1085" 
d="M57 811v162h150q47 230 176 356.5t317 126.5q196 0 336 -153l-127 -164q-94 108 -209 108q-93 0 -161.5 -70.5t-100.5 -203.5h340v-162h-360q-2 -27 -2 -82v-22v-74h362v-162h-342q30 -139 98.5 -212t163.5 -73q65 0 114 29t101 88l127 -156q-150 -170 -354 -170
q-186 0 -312 129t-169 365h-148v162h131q-2 23 -2 72v22q0 53 2 84h-131z" />
    <glyph glyph-name="yen.tab" horiz-adv-x="1085" 
d="M143 375h289v164h-289v161h246l-369 734h252l273 -600l274 600h244l-369 -734h248v-161h-287v-164h287v-164h-287v-211h-223v211h-289v164z" />
    <glyph glyph-name="cent.tab" horiz-adv-x="1085" 
d="M788 1446l-26 -184q126 -34 227 -140l-121 -153q-65 65 -139 96l-100 -698q136 8 243 125l117 -146q-153 -173 -381 -176l-26 -182h-166l28 205q-152 51 -242.5 186t-90.5 330v16q0 241 135.5 394t351.5 161l23 166h167zM326 723v-12q0 -115 40 -195t113 -119l96 682
q-113 -14 -181 -107.5t-68 -248.5z" />
    <glyph glyph-name="numbersign.tab" horiz-adv-x="1085" 
d="M51 532h170l43 375h-155v197h180l39 330h176l-41 -330h250l39 330h174l-39 -330h145v-197h-170l-45 -375h158v-194h-180l-41 -338h-174l41 338h-250l-39 -338h-174l39 338h-146v194zM436 911l-47 -383h258l47 383h-258z" />
    <glyph glyph-name="paragraph.tab" horiz-adv-x="1085" 
d="M674 0v494h-60q-154 3 -271.5 55t-187 158.5t-69.5 255.5v2q0 222 146 345.5t386 123.5h295v-1434h-239z" />
    <glyph glyph-name="section.tab" horiz-adv-x="1085" 
d="M541 -18q-220 0 -375 139l108 151q121 -106 265 -106q65 0 99 26.5t34 71.5v2q0 45 -50.5 81.5t-177.5 78.5q-201 69 -281.5 133t-80.5 170v2q0 87 58 149t163 87q-108 87 -108 202v2q0 122 98 201.5t252 79.5q217 0 375 -139l-109 -152q-125 109 -264 109
q-65 0 -100 -28t-35 -73v-2q0 -44 51 -80.5t178 -78.5q201 -69 282 -133t81 -170v-3q0 -87 -58.5 -148.5t-163.5 -86.5q109 -88 109 -203v-2q0 -122 -98 -201t-252 -79zM422 870q-60 0 -98.5 -30.5t-38.5 -79.5v-2q0 -50 43 -83t149 -69q135 -39 167 -42q10 -1 20 -1
q60 0 98.5 31t38.5 80v2q0 50 -43 82.5t-150 68.5q-134 39 -164 42q-11 1 -22 1z" />
    <glyph glyph-name="degree.tab" horiz-adv-x="1085" 
d="M541 623q-157 0 -268 119t-111 290v8q0 175 112.5 292.5t270.5 117.5q157 0 267 -117.5t110 -292.5v-8q0 -171 -111.5 -290t-269.5 -119zM543 768q102 0 163.5 73.5t61.5 190.5v8q0 116 -64 191.5t-163 75.5q-100 0 -163 -75t-63 -192v-8q0 -116 64 -190t164 -74z" />
    </font>
</defs>
</svg>
