<?xml version="1.0" standalone="no"?>
<!DOCTYPE svg PUBLIC "-//W3C//DTD SVG 1.1//EN" "http://www.w3.org/Graphics/SVG/1.1/DTD/svg11.dtd" >
<svg xmlns="http://www.w3.org/2000/svg" xmlns:xlink="http://www.w3.org/1999/xlink" version="1.1">
<metadata>
Created by FontForge 20201107 at Wed May 29 09:56:53 2024
 By 
Copyright (C) 2001, 2011 Hoefler &#38; Co. http://www.typography.com |DCNT
</metadata>
<defs>
<font id="GothamCond-Black" horiz-adv-x="823" >
  <font-face 
    font-family="Gotham Cond Black"
    font-weight="900"
    font-stretch="extra-condensed"
    units-per-em="2048"
    panose-1="0 0 0 0 0 0 0 0 0 0"
    ascent="1638"
    descent="-410"
    x-height="1108"
    cap-height="1434"
    bbox="-258 -461 1671 1935"
    underline-thickness="102"
    underline-position="-204"
    unicode-range="U+0020-FB04"
  />
<missing-glyph horiz-adv-x="1024" 
d="M0 -410v2048h1024v-2048h-1024zM145 1536l367 -799l367 799h-734zM102 -156l353 770l-353 770v-1540zM922 1384l-353 -770l353 -770v1540zM512 492l-367 -799h734z" />
    <glyph glyph-name="f_f" unicode="ff" horiz-adv-x="1028" 
d="M84 0v868h-64v240h64v49q0 148 76 227q77 74 221 74q69 0 127 -10v-234q-35 5 -43 5q-86 0 -86 -84v-29h127v-238h-123v-868h-299zM598 0v868h-61v238h61v51q0 148 76 227q77 74 221 74q69 0 127 -10v-234q-35 5 -43 5q-86 0 -86 -84v-29h129v-238h-125v-868h-299z" />
    <glyph glyph-name="fi" unicode="fi" horiz-adv-x="927" 
d="M84 0v868h-64v240h64v49q0 148 76 227q77 74 221 74q69 0 127 -10v-234q-35 5 -43 5q-86 0 -86 -84v-29h129v-238h-125v-868h-299zM573 0v1108h299v-1108h-299zM571 1192v262h303v-262h-303z" />
    <glyph glyph-name="fl" unicode="fl" horiz-adv-x="927" 
d="M84 0v868h-64v240h64v49q0 148 76 227q77 74 221 74q69 0 127 -10v-234q-35 5 -43 5q-86 0 -86 -84v-29h129v-238h-125v-868h-299zM573 0v1454h299v-1454h-299z" />
    <glyph glyph-name="f_f_i" unicode="ffi" horiz-adv-x="1441" 
d="M84 0v868h-64v240h64v49q0 148 76 227q77 74 221 74q69 0 127 -10v-234q-35 5 -43 5q-86 0 -86 -84v-29h127v-238h-123v-868h-299zM598 0v868h-61v238h61v51q0 148 76 227q77 74 221 74q69 0 127 -10v-234q-35 5 -43 5q-86 0 -86 -84v-29h129v-238h-125v-868h-299z
M1087 0v1108h299v-1108h-299zM1085 1192v262h304v-262h-304z" />
    <glyph glyph-name="f_f_l" unicode="ffl" horiz-adv-x="1441" 
d="M84 0v868h-64v240h64v49q0 148 76 227q77 74 221 74q69 0 127 -10v-234q-35 5 -43 5q-86 0 -86 -84v-29h127v-238h-123v-868h-299zM598 0v868h-61v238h61v51q0 148 76 227q77 74 221 74q69 0 127 -10v-234q-35 5 -43 5q-86 0 -86 -84v-29h129v-238h-125v-868h-299z
M1087 0v1454h299v-1454h-299z" />
    <glyph glyph-name=".notdef" horiz-adv-x="1024" 
d="M0 -410v2048h1024v-2048h-1024zM145 1536l367 -799l367 799h-734zM102 -156l353 770l-353 770v-1540zM922 1384l-353 -770l353 -770v1540zM512 492l-367 -799h734z" />
    <glyph glyph-name=".null" horiz-adv-x="0" 
 />
    <glyph glyph-name="nonmarkingreturn" horiz-adv-x="682" 
 />
    <glyph glyph-name="space" unicode=" " horiz-adv-x="323" 
 />
    <glyph glyph-name="exclam" unicode="!" horiz-adv-x="473" 
d="M162 459l-113 942v33h375v-33l-111 -942h-151zM68 0v326h338v-326h-338z" />
    <glyph glyph-name="quotedbl" unicode="&#x22;" horiz-adv-x="727" 
d="M420 778v656h287v-17l-170 -639h-117zM66 778v656h288v-17l-172 -639h-116z" />
    <glyph glyph-name="numbersign" unicode="#" horiz-adv-x="839" 
d="M774 575v-268h-133l-29 -307h-196l28 307h-129l-28 -307h-197l29 307h-92v268h118l27 291h-106v271h133l28 297h197l-29 -297h129l29 297h197l-29 -297h92v-271h-119l-26 -291h106zM365 872l-29 -301h137l31 301h-139z" />
    <glyph glyph-name="dollar" unicode="$" horiz-adv-x="761" 
d="M676 1386v-309q-119 70 -221 70h-2q-48 0 -79 -26.5t-30 -69.5v-2q0 -35 25.5 -69t117.5 -126v-2q136 -132 191 -226.5t55 -222.5v-2q0 -138 -66 -237t-180 -141v-242h-213v219q-119 12 -217 70v305q74 -43 132.5 -64.5t119.5 -21.5h2q52 0 84 26t31 74v2q0 36 -28 78.5
t-113 118.5h-2q-65 63 -105 108.5t-75 100.5t-50.5 113t-15.5 128v2q0 136 61.5 234t175.5 139v172h213v-149q93 -8 189 -50z" />
    <glyph glyph-name="percent" unicode="%" horiz-adv-x="1179" 
d="M279 647q-111 0 -174.5 97t-63.5 284v37q0 188 63.5 285.5t174.5 97.5q112 0 175.5 -97.5t63.5 -285.5v-37q0 -184 -65 -282.5t-174 -98.5zM279 1268q-30 0 -42 -41t-12 -148v-65q0 -107 12 -147t42 -40q28 0 41.5 41.5t13.5 145.5v65q0 104 -13.5 146.5t-41.5 42.5z
M522 731l328 703h164l-350 -732l-326 -702h-164zM901 -14q-111 0 -174 98t-63 285v37q0 184 65 283t172 99q112 0 176 -97.5t64 -284.5v-37q0 -186 -64.5 -284.5t-175.5 -98.5zM901 168q28 0 41.5 41t13.5 145v66q0 104 -13.5 146t-41.5 42q-30 0 -41.5 -40.5t-11.5 -147.5
v-66q0 -107 11.5 -146.5t41.5 -39.5z" />
    <glyph glyph-name="ampersand" unicode="&#x26;" horiz-adv-x="950" 
d="M725 -31l-61 107q-113 -99 -265 -99q-161 0 -270 108.5t-109 287.5v12q0 122 54 221t162 187q-67 109 -94 176t-27 147v10q0 139 94 234.5t240 95.5q148 0 234.5 -89.5t86.5 -238.5v-10q0 -117 -52.5 -210t-154.5 -177l115 -209q16 73 29 170l227 -37q-26 -228 -98 -381
l104 -178zM436 920q80 88 80 190v12q0 44 -20 71.5t-52 27.5t-50.5 -27.5t-18.5 -71.5v-14q0 -80 61 -188zM436 233q52 0 99 41l-170 310q-56 -73 -56 -172v-13q0 -76 34 -121t93 -45z" />
    <glyph glyph-name="quotesingle" unicode="'" horiz-adv-x="378" 
d="M66 778v656h292v-17l-176 -639h-116z" />
    <glyph glyph-name="parenleft" unicode="(" horiz-adv-x="593" 
d="M557 -63v-220q-243 49 -372.5 273t-129.5 573v47q0 349 129.5 572t372.5 272v-217q-119 -59 -169 -216t-50 -421v-27q0 -264 50 -420.5t169 -215.5z" />
    <glyph glyph-name="parenright" unicode=")" horiz-adv-x="593" 
d="M37 -283v220q119 59 169 215.5t50 420.5v27q0 264 -50 421t-169 216v217q235 -45 368.5 -267.5t133.5 -580.5v-37q0 -363 -132.5 -583.5t-369.5 -268.5z" />
    <glyph glyph-name="asterisk" unicode="*" horiz-adv-x="645" 
d="M221 799l55 235l-155 -157l-101 172l216 67l-216 68l101 174l155 -158l-55 234h205l-57 -234l155 158l103 -174l-215 -68l215 -67l-103 -172l-155 157l57 -235h-205z" />
    <glyph glyph-name="plus" unicode="+" horiz-adv-x="835" 
d="M283 322v264h-240v270h240v264h270v-264h240v-270h-240v-264h-270z" />
    <glyph glyph-name="comma" unicode="," horiz-adv-x="440" 
d="M55 -303l-26 117q98 23 142 73.5t42 112.5h-156v332h328v-271q0 -314 -330 -364z" />
    <glyph glyph-name="hyphen" unicode="-" horiz-adv-x="665" 
d="M55 492v296h555v-296h-555z" />
    <glyph glyph-name="period" unicode="." horiz-adv-x="440" 
d="M57 0v332h328v-332h-328z" />
    <glyph glyph-name="slash" unicode="/" horiz-adv-x="649" 
d="M-33 -201l475 1774h224l-473 -1774h-226z" />
    <glyph glyph-name="zero" unicode="0" horiz-adv-x="876" 
d="M438 -27q-401 0 -401 699v88q0 700 403 700q194 0 297 -173t103 -525v-88q0 -352 -104 -526.5t-298 -174.5zM438 258q23 0 39.5 15t30 56t20.5 122t7 204v123q0 161 -13 252t-33 119.5t-51 28.5t-50.5 -28.5t-32.5 -119.5t-13 -252v-123q0 -123 6.5 -204t20.5 -122
t30 -56t39 -15z" />
    <glyph glyph-name="one" unicode="1" horiz-adv-x="548" 
d="M174 0v1112l-147 -45v299l235 74h219v-1440h-307z" />
    <glyph glyph-name="two" unicode="2" horiz-adv-x="729" 
d="M37 0v266l266 512q55 109 75.5 163t20.5 97q0 54 -30.5 87.5t-92.5 33.5q-90 0 -210 -65v297q141 65 290 65q156 0 251 -91t95 -255v-10q0 -92 -26.5 -176t-87.5 -197l-230 -424h338v-303h-659z" />
    <glyph glyph-name="three" unicode="3" horiz-adv-x="720" 
d="M270 -23q-141 0 -241 41v291q98 -39 196 -39q75 0 120.5 44.5t45.5 121.5v10q0 90 -65.5 134.5t-194.5 52.5v201l231 307h-315v293h637v-271l-250 -329q59 -20 103 -48t80.5 -71.5t55.5 -108.5t19 -149v-19q0 -212 -117 -336.5t-305 -124.5z" />
    <glyph glyph-name="four" unicode="4" horiz-adv-x="854" 
d="M432 0v244h-407v221l391 971h305v-932h117v-260h-117v-244h-289zM272 504h164v459z" />
    <glyph glyph-name="five" unicode="5" horiz-adv-x="737" 
d="M268 -23q-126 0 -219 39v297q88 -43 184 -43q79 0 127 54t48 149v10q0 88 -36.5 129t-97.5 41q-49 0 -92 -16l-141 82l37 715h579v-291h-350l-14 -228q40 5 65 5q74 0 135.5 -23.5t112 -72t79 -133.5t28.5 -199v-17q0 -239 -121.5 -368.5t-323.5 -129.5z" />
    <glyph glyph-name="six" unicode="6" horiz-adv-x="811" 
d="M420 -27q-142 0 -232 90q-151 151 -151 605v41q0 174 24 306t64 214.5t99.5 133.5t124.5 71t145 20q92 0 192 -29v-280q-80 39 -168 39q-91 0 -139 -68.5t-49 -226.5q68 49 159 49q58 0 108 -20.5t93.5 -65t68.5 -128.5t25 -200v-55q0 -231 -103 -363.5t-261 -132.5z
M416 236q41 0 61.5 49.5t20.5 171.5v55q0 184 -95 184q-43 0 -71 -22v-189q0 -249 84 -249z" />
    <glyph glyph-name="seven" unicode="7" horiz-adv-x="702" 
d="M111 0l254 1133h-338v301h645v-197l-264 -1237h-297z" />
    <glyph glyph-name="eight" unicode="8" horiz-adv-x="817" 
d="M408 -27q-169 0 -273 113t-104 305v17q0 121 44.5 210t117.5 140q-69 51 -107.5 129t-38.5 176v14q0 170 103 276.5t260 106.5t259.5 -105.5t102.5 -275.5v-14q0 -97 -38.5 -176t-108.5 -129q74 -51 118.5 -139.5t44.5 -210.5v-17q0 -191 -104.5 -305.5t-275.5 -114.5z
M410 856q79 0 79 176v15q0 174 -79 174q-80 0 -80 -174v-15q0 -176 80 -176zM410 217q86 0 86 197v18q0 199 -86 199q-88 0 -88 -199v-18q0 -197 88 -197z" />
    <glyph glyph-name="nine" unicode="9" horiz-adv-x="811" 
d="M291 250q88 0 134.5 64t53.5 214q-71 -47 -157 -47q-47 0 -87.5 11.5t-79.5 41.5t-66.5 77t-44.5 122t-17 172v49q0 241 101.5 373.5t262.5 132.5q144 0 232 -88q151 -151 151 -606v-41q0 -173 -24 -304.5t-64 -214t-100 -134.5t-125.5 -72t-145.5 -20q-121 0 -213 36
v279q99 -45 189 -45zM408 721q41 0 71 24v203q0 252 -84 252q-41 0 -61.5 -52t-20.5 -179v-51q0 -110 24 -153.5t71 -43.5z" />
    <glyph glyph-name="colon" unicode=":" horiz-adv-x="450" 
d="M61 778v330h328v-330h-328zM61 0v332h328v-332h-328z" />
    <glyph glyph-name="semicolon" unicode=";" horiz-adv-x="450" 
d="M61 778v330h328v-330h-328zM59 -303l-24 117q98 23 141 73t43 113h-158v332h328v-271q0 -314 -330 -364z" />
    <glyph glyph-name="less" unicode="&#x3c;" horiz-adv-x="835" 
d="M766 203l-709 387v264l709 387v-323l-410 -195l410 -193v-327z" />
    <glyph glyph-name="equal" unicode="=" horiz-adv-x="835" 
d="M51 803v276h735v-276h-735zM51 362v279h735v-279h-735z" />
    <glyph glyph-name="greater" unicode="&#x3e;" horiz-adv-x="835" 
d="M70 203v323l409 193l-409 194v328l708 -387v-264z" />
    <glyph glyph-name="question" unicode="?" horiz-adv-x="696" 
d="M197 459l-33 366l6 11q197 50 197 188v4q0 60 -41.5 94.5t-110.5 34.5q-96 0 -182 -47v285q116 53 250 53q182 0 287.5 -103t105.5 -270v-14q0 -264 -252 -377l-31 -225h-196zM127 0v326h338v-326h-338z" />
    <glyph glyph-name="at" unicode="@" horiz-adv-x="1275" 
d="M604 -279q-121 0 -222.5 45t-177.5 132t-118.5 225t-42.5 315q0 156 30 305t89 277.5t140 226t191 153.5t234 56q147 0 263.5 -86t178.5 -228t62 -311q0 -192 -39.5 -351.5t-121.5 -260t-191 -100.5q-89 0 -137.5 47.5t-61.5 126.5q-85 -166 -207 -166q-79 0 -131.5 67.5
t-52.5 200.5q0 169 43 323.5t116.5 249.5t157.5 95q111 0 150 -137l20 121l219 -35l-96 -592q-12 -61 -12 -119q0 -78 51 -78q49 0 96 85t77 230t30 304q0 144 -49 263t-147 192t-228 73q-128 0 -239.5 -81t-186 -213.5t-116.5 -301t-42 -344.5q0 -301 129.5 -463
t351.5 -162q160 0 295 80l41 -71q-86 -51 -164.5 -72t-181.5 -21zM569 309q18 0 35 17q45 45 78 197.5t33 248.5q0 92 -47 92q-19 0 -35 -16q-45 -49 -78 -201.5t-33 -247.5q0 -90 47 -90z" />
    <glyph glyph-name="A" unicode="A" horiz-adv-x="882" 
d="M-8 0l274 1438h352l273 -1438h-307l-39 258h-215l-39 -258h-299zM369 520h137l-68 451z" />
    <glyph glyph-name="B" unicode="B" horiz-adv-x="858" 
d="M57 0v1434h283q264 0 385 -121q94 -94 94 -250v-16q0 -113 -53.5 -191t-136.5 -121q45 -23 78.5 -48t66 -62.5t49.5 -89t17 -115.5v-19q0 -197 -133.5 -299t-360.5 -102h-289zM520 1001v3q0 147 -151 147h-13v-305h13q70 0 110.5 39t40.5 116zM532 434v8
q0 75 -43.5 114.5t-115.5 39.5h-17v-313h17q71 0 115 39t44 112z" />
    <glyph glyph-name="C" unicode="C" horiz-adv-x="743" 
d="M489 -16q-97 0 -178 41.5t-143 124.5t-96.5 218.5t-34.5 311.5v72q0 147 25.5 265.5t69 198t104 133.5t129 77.5t145.5 23.5q104 0 186 -39v-309q-85 51 -155 51q-191 0 -191 -410v-53q0 -99 10 -172t26.5 -117.5t42 -71.5t52.5 -36.5t62 -9.5q68 0 159 51v-295
q-89 -55 -213 -55z" />
    <glyph glyph-name="D" unicode="D" horiz-adv-x="915" 
d="M57 0v1434h287q263 0 399 -173t136 -509v-70q0 -336 -136 -509t-399 -173h-287zM565 680v74q0 115 -15 195t-43 123t-62.5 61t-79.5 18v-868q45 0 79.5 19t62.5 62.5t43 123t15 192.5z" />
    <glyph glyph-name="E" unicode="E" horiz-adv-x="720" 
d="M57 0v1434h621v-291h-313v-279h278v-286h-278v-285h319v-293h-627z" />
    <glyph glyph-name="F" unicode="F" horiz-adv-x="684" 
d="M57 0v1434h596v-291h-288v-283h253v-287h-253v-573h-308z" />
    <glyph glyph-name="G" unicode="G" horiz-adv-x="882" 
d="M522 -20q-103 0 -190 41.5t-153.5 124.5t-104 218.5t-37.5 311.5v82q0 334 142.5 515t369.5 181q132 0 233 -53v-311q-112 71 -209 71q-104 0 -163.5 -96.5t-59.5 -298.5v-98q0 -119 15.5 -203t43 -126.5t56.5 -60.5t63 -18q9 0 25 4v305h-109v271h387v-779
q-165 -81 -309 -81z" />
    <glyph glyph-name="H" unicode="H" horiz-adv-x="911" 
d="M57 0v1434h308v-566h184v566h307v-1434h-307v575h-184v-575h-308z" />
    <glyph glyph-name="I" unicode="I" horiz-adv-x="428" 
d="M61 0v1434h308v-1434h-308z" />
    <glyph glyph-name="J" unicode="J" horiz-adv-x="636" 
d="M223 -16q-94 0 -196 28v293q70 -24 131 -24q118 0 118 133v1020h308v-1051q0 -204 -101 -305q-94 -94 -260 -94z" />
    <glyph glyph-name="K" unicode="K" horiz-adv-x="870" 
d="M57 0v1434h308v-545l172 545h321l-225 -607l231 -827h-323l-131 504l-45 -131v-373h-308z" />
    <glyph glyph-name="L" unicode="L" horiz-adv-x="657" 
d="M57 0v1434h308v-1141h272v-293h-580z" />
    <glyph glyph-name="M" unicode="M" horiz-adv-x="1046" 
d="M57 0v1434h297l170 -480l168 480h299v-1434h-297v768l-168 -469h-4l-170 469v-768h-295z" />
    <glyph glyph-name="N" unicode="N" horiz-adv-x="927" 
d="M57 0v1434h295l223 -648v648h295v-1434h-280l-238 682v-682h-295z" />
    <glyph glyph-name="O" unicode="O" horiz-adv-x="919" 
d="M461 -27q-200 0 -312 177.5t-112 521.5v90q0 343 112.5 520.5t311.5 177.5q197 0 309.5 -178t112.5 -520v-90q0 -344 -111.5 -521.5t-310.5 -177.5zM461 258q37 0 59 31.5t35.5 124t13.5 256.5v96q0 124 -7 206t-21.5 126.5t-33.5 62t-46 17.5t-45.5 -17.5t-34 -61.5
t-23.5 -127t-8 -206v-96q0 -123 8 -206t23.5 -127t34 -61.5t45.5 -17.5z" />
    <glyph glyph-name="P" unicode="P" horiz-adv-x="837" 
d="M57 0v1434h283q224 0 352.5 -122.5t128.5 -367.5v-16q0 -125 -38.5 -222t-103.5 -154.5t-143 -87.5t-165 -32h-9v-432h-305zM362 705h5q149 10 149 215v24q0 217 -147 217h-7v-456z" />
    <glyph glyph-name="Q" unicode="Q" horiz-adv-x="929" 
d="M930 109l-193 -138l-57 84q-95 -80 -219 -80q-199 0 -311.5 178t-112.5 521v88q0 343 112.5 520.5t311.5 177.5q197 0 309.5 -178t112.5 -520v-88q0 -239 -66 -414zM471 252q32 0 47 18l-104 142l157 110q2 41 2 144v100q0 164 -13 256t-36 124t-61 32t-61 -31.5
t-37.5 -124.5t-14.5 -256v-100q0 -130 8 -213.5t24.5 -126.5t37 -58.5t51.5 -15.5z" />
    <glyph glyph-name="R" unicode="R" horiz-adv-x="866" 
d="M57 0v1434h308q231 0 352 -121q121 -127 121 -344v-21q0 -250 -168 -381l190 -567h-328l-145 467h-25v-467h-305zM362 725h11q70 0 110.5 49t40.5 154v30q0 201 -153 201h-9v-434z" />
    <glyph glyph-name="S" unicode="S" horiz-adv-x="735" 
d="M332 -18q-164 0 -289 71v307q148 -86 252 -86q55 0 86 27t31 80v2q0 36 -27 77.5t-98 112.5q-77 74 -119.5 121.5t-79 104t-51 113t-14.5 128.5v9q0 182 109 292.5t280 110.5q141 0 250 -51v-309q-117 69 -220 69q-51 0 -81.5 -26.5t-30.5 -73.5v-2q0 -38 26 -77t99 -112
q152 -148 208 -245.5t56 -231.5v-8q0 -179 -111.5 -291t-275.5 -112z" />
    <glyph glyph-name="T" unicode="T" horiz-adv-x="733" 
d="M213 0v1141h-188v293h684v-293h-189v-1141h-307z" />
    <glyph glyph-name="U" unicode="U" horiz-adv-x="894" 
d="M446 -23q-179 0 -286 113.5t-107 337.5v1006h307v-1028q0 -144 89 -144q88 0 88 144v1028h307v-1004q0 -115 -29.5 -202.5t-83.5 -142t-126 -81.5t-159 -27z" />
    <glyph glyph-name="V" unicode="V" horiz-adv-x="847" 
d="M262 -4l-270 1438h315l121 -859l123 859h305l-268 -1438h-326z" />
    <glyph glyph-name="W" unicode="W" horiz-adv-x="1290" 
d="M221 -4l-223 1438h319l91 -824l108 824h264l107 -824l90 824h313l-221 -1438h-321l-103 723l-104 -723h-320z" />
    <glyph glyph-name="X" unicode="X" horiz-adv-x="839" 
d="M520 1434h307l-219 -703l228 -731h-320l-98 424l-107 -424h-307l225 727l-217 707h320l90 -396z" />
    <glyph glyph-name="Y" unicode="Y" horiz-adv-x="837" 
d="M266 0v535l-274 899h315l117 -504l115 504h307l-273 -899v-535h-307z" />
    <glyph glyph-name="Z" unicode="Z" horiz-adv-x="735" 
d="M37 0v250l321 893h-311v291h653v-250l-321 -893h321v-291h-663z" />
    <glyph glyph-name="bracketleft" unicode="[" horiz-adv-x="565" 
d="M86 -266v1700h440v-207h-178v-1286h178v-207h-440z" />
    <glyph glyph-name="backslash" unicode="\" horiz-adv-x="649" 
d="M459 -201l-475 1774h225l473 -1774h-223z" />
    <glyph glyph-name="bracketright" unicode="]" horiz-adv-x="565" 
d="M39 -266v207h178v1286h-178v207h440v-1700h-440z" />
    <glyph glyph-name="asciicircum" unicode="^" horiz-adv-x="1024" 
d="M229 1008l162 419h242l162 -419h-189l-96 264l-96 -264h-185z" />
    <glyph glyph-name="underscore" unicode="_" horiz-adv-x="983" 
d="M-4 -309v221h991v-221h-991z" />
    <glyph glyph-name="grave" unicode="`" horiz-adv-x="1024" 
d="M522 1171l-227 195l250 88l160 -283h-183z" />
    <glyph glyph-name="a" unicode="a" horiz-adv-x="770" 
d="M242 -20q-99 0 -160.5 86.5t-61.5 242.5v35q0 178 69.5 264t186.5 86q81 0 152 -41v43q0 154 -147 154q-91 0 -203 -55v278q122 51 268 51q183 0 277 -94q102 -102 102 -307v-723h-297v104q-73 -124 -186 -124zM360 205q29 0 49.5 24.5t20.5 71.5v170q-36 18 -65 18
q-70 0 -70 -124v-41q0 -119 65 -119z" />
    <glyph glyph-name="b" unicode="b" horiz-adv-x="841" 
d="M555 -20q-71 0 -118 40t-85 111v-131h-299v1454h299v-477q43 73 87.5 112t115.5 39q246 0 246 -520v-108q0 -520 -246 -520zM428 252q74 0 74 246v112q0 127 -18 186.5t-56 59.5q-41 0 -59.5 -59t-18.5 -187v-112q0 -246 78 -246z" />
    <glyph glyph-name="c" unicode="c" horiz-adv-x="632" 
d="M414 -20q-179 0 -279 138t-100 400v76q0 256 105.5 394t277.5 138q105 0 180 -34v-291q-71 41 -129 41q-133 0 -133 -256v-62q0 -260 137 -260q56 0 127 47v-284q-86 -47 -186 -47z" />
    <glyph glyph-name="d" unicode="d" horiz-adv-x="841" 
d="M287 -20q-246 0 -246 520v108q0 520 246 520q71 0 115 -38t87 -111v475h299v-1454h-299v133q-38 -72 -84.5 -112.5t-117.5 -40.5zM414 252q41 0 59.5 59t18.5 187v112q0 128 -18.5 187t-59.5 59q-38 0 -56 -59.5t-18 -186.5v-112q0 -127 18 -186.5t56 -59.5z" />
    <glyph glyph-name="e" unicode="e" horiz-adv-x="780" 
d="M442 -25q-184 0 -296.5 142t-112.5 403v64q0 258 104 402t269 144q163 0 255.5 -143t92.5 -414v-147h-426q10 -95 51 -136.5t110 -41.5q102 0 220 80l18 -267q-138 -86 -285 -86zM324 631h153q0 130 -18 185.5t-56 55.5q-37 0 -56 -52.5t-23 -188.5z" />
    <glyph glyph-name="f" unicode="f" horiz-adv-x="514" 
d="M84 0v868h-64v240h64v49q0 148 76 227q77 74 221 74q69 0 127 -10v-234q-35 5 -43 5q-86 0 -86 -84v-29h129v-238h-125v-868h-299z" />
    <glyph glyph-name="g" unicode="g" horiz-adv-x="841" 
d="M360 -274q-146 0 -274 36v265q121 -47 248 -47q160 0 160 159v86q-43 -70 -90.5 -108.5t-116.5 -38.5q-246 0 -246 500v43q0 507 246 507q70 0 117.5 -39.5t84.5 -109.5v129h299v-967q0 -207 -102 -309q-106 -106 -326 -106zM414 344q78 0 78 238v36q0 238 -78 238
q-74 0 -74 -238v-36q0 -238 74 -238z" />
    <glyph glyph-name="h" unicode="h" 
d="M53 0v1454h299v-475q76 149 207 149q107 0 162 -74.5t55 -203.5v-850h-299v770q0 90 -61 90q-30 0 -47 -24t-17 -66v-770h-299z" />
    <glyph glyph-name="i" unicode="i" horiz-adv-x="409" 
d="M53 1192v262h303v-262h-303zM55 0v1108h299v-1108h-299z" />
    <glyph glyph-name="j" unicode="j" horiz-adv-x="409" 
d="M53 1192v262h303v-262h-303zM66 -274q-74 0 -125 10v209q8 -2 32 -2q82 0 82 84v1081h299v-1085q0 -157 -71.5 -227t-216.5 -70z" />
    <glyph glyph-name="k" unicode="k" horiz-adv-x="792" 
d="M53 0v1454h299v-721l129 375h310l-179 -453l179 -655h-314l-90 395l-35 -92v-303h-299z" />
    <glyph glyph-name="l" unicode="l" horiz-adv-x="409" 
d="M55 0v1454h299v-1454h-299z" />
    <glyph glyph-name="m" unicode="m" horiz-adv-x="1236" 
d="M53 0v1108h297v-127q41 71 88 109t119 38q135 0 195 -137q82 137 213 137q102 0 164.5 -74.5t62.5 -205.5v-848h-297v768q0 43 -16 67.5t-45 24.5t-46.5 -24.5t-17.5 -67.5v-768h-297v768q0 92 -59 92q-29 0 -46.5 -24.5t-17.5 -67.5v-768h-297z" />
    <glyph glyph-name="n" unicode="n" 
d="M53 0v1108h299v-129q76 149 207 149q107 0 162 -75t55 -203v-850h-299v770q0 90 -61 90q-30 0 -47 -24t-17 -66v-770h-299z" />
    <glyph glyph-name="o" unicode="o" 
d="M412 -25q-171 0 -274 139t-103 396v86q0 257 103.5 395.5t275.5 138.5q171 0 272.5 -138t101.5 -396v-86q0 -258 -102 -396.5t-274 -138.5zM412 242q42 0 61 62t19 206v88q0 144 -19 206t-61 62t-60 -61.5t-18 -206.5v-88q0 -145 18 -206.5t60 -61.5z" />
    <glyph glyph-name="p" unicode="p" horiz-adv-x="841" 
d="M53 -266v1374h299v-131q43 73 87.5 112t115.5 39q246 0 246 -520v-108q0 -520 -246 -520q-71 0 -118 40t-85 111v-397h-299zM428 252q74 0 74 246v112q0 127 -18 186.5t-56 59.5q-41 0 -59.5 -59t-18.5 -187v-112q0 -246 78 -246z" />
    <glyph glyph-name="q" unicode="q" horiz-adv-x="841" 
d="M489 -266v399q-38 -72 -84.5 -112.5t-117.5 -40.5q-246 0 -246 520v108q0 520 246 520q71 0 115 -38t87 -111v129h299v-1374h-299zM414 252q41 0 59.5 59t18.5 187v112q0 128 -18.5 187t-59.5 59q-38 0 -56 -59.5t-18 -186.5v-112q0 -127 18 -186.5t56 -59.5z" />
    <glyph glyph-name="r" unicode="r" horiz-adv-x="544" 
d="M53 0v1108h297v-154q27 88 69 130t107 38v-358h-6q-168 0 -168 -229v-535h-299z" />
    <glyph glyph-name="s" unicode="s" horiz-adv-x="630" 
d="M289 -25q-131 0 -258 62v285q150 -80 225 -80q72 0 72 63v2q0 26 -19 50.5t-84 86.5q-52 47 -82 78.5t-63 77.5t-47.5 97t-14.5 112v4q0 146 91.5 231.5t242.5 85.5q111 0 215 -36v-287q-118 59 -192 59q-34 0 -52 -15.5t-18 -39.5v-2q0 -33 97 -125q6 -7 10 -10
q53 -49 84 -82t61 -77.5t43.5 -94t13.5 -109.5v-4q0 -148 -92 -240t-233 -92z" />
    <glyph glyph-name="t" unicode="t" horiz-adv-x="532" 
d="M330 -18q-246 0 -246 231v655h-61v240h61v270h299v-270h125v-240h-125v-563q0 -57 57 -57q23 0 66 16v-239q-81 -43 -176 -43z" />
    <glyph glyph-name="u" unicode="u" 
d="M264 -20q-107 0 -162 75t-55 203v850h299v-768q0 -43 16.5 -67.5t45.5 -24.5t46 24.5t17 67.5v768h299v-1108h-299v129q-76 -149 -207 -149z" />
    <glyph glyph-name="v" unicode="v" horiz-adv-x="788" 
d="M242 -4l-240 1112h301l94 -647l92 647h297l-237 -1112h-307z" />
    <glyph glyph-name="w" unicode="w" horiz-adv-x="1124" 
d="M205 -4l-199 1112h299l70 -578l76 578h229l74 -578l71 578h293l-196 -1112h-271l-88 532l-88 -532h-270z" />
    <glyph glyph-name="x" unicode="x" horiz-adv-x="774" 
d="M305 1108l80 -303l88 303h299l-207 -543l211 -565h-305l-84 322l-88 -322h-303l211 565l-205 543h303z" />
    <glyph glyph-name="y" unicode="y" horiz-adv-x="784" 
d="M393 504l94 604h295l-317 -1374h-293v2l70 293l-238 1079h297z" />
    <glyph glyph-name="z" unicode="z" horiz-adv-x="653" 
d="M25 0v215l282 643h-276v250h600v-215l-285 -641h285v-252h-606z" />
    <glyph glyph-name="braceleft" unicode="{" horiz-adv-x="651" 
d="M610 -76v-205q-218 4 -328 92t-110 234q0 61 27.5 150t27.5 145q0 135 -153 135h-37v223h37q71 0 112 33.5t41 99.5q0 56 -27.5 146t-27.5 149q0 146 110 234t328 92v-205q-174 -13 -174 -141q0 -54 30 -144t30 -145q0 -94 -62.5 -153.5t-171.5 -77.5q109 -18 171.5 -77
t62.5 -155q0 -55 -30 -145t-30 -141q0 -131 174 -144z" />
    <glyph glyph-name="bar" unicode="|" horiz-adv-x="473" 
d="M131 -201v1774h211v-1774h-211z" />
    <glyph glyph-name="braceright" unicode="}" horiz-adv-x="651" 
d="M41 -281v205q174 13 174 144q0 51 -29.5 141t-29.5 145q0 96 62 155t171 77q-109 18 -171 76.5t-62 154.5q0 55 29.5 145t29.5 144q0 128 -174 141v205q218 -4 328 -92t110 -234q0 -59 -27.5 -149t-27.5 -146q0 -66 40 -99.5t114 -33.5h36v-223h-36q-71 0 -112.5 -34
t-41.5 -101q0 -56 27.5 -145t27.5 -150q0 -146 -110 -234t-328 -92z" />
    <glyph glyph-name="asciitilde" unicode="~" horiz-adv-x="741" 
d="M512 520q-64 0 -137 39q-5 2 -19 9t-18 8.5t-14.5 6.5t-15.5 6t-12.5 3.5t-14 3t-13.5 0.5q-46 0 -67 -84l-135 33q10 115 55.5 173t107.5 58q61 0 138 -41q32 -15 44 -20t29 -10t33 -5q47 0 68 84l135 -32q-10 -115 -56 -173.5t-108 -58.5z" />
    <glyph glyph-name="uni00A0" unicode="&#xa0;" horiz-adv-x="0" 
 />
    <glyph glyph-name="exclamdown" unicode="&#xa1;" horiz-adv-x="473" 
d="M68 1108v326h338v-326h-338zM49 0v33l113 942h151l111 -942v-33h-375z" />
    <glyph glyph-name="cent" unicode="&#xa2;" horiz-adv-x="647" 
d="M483 1444v-150q59 -8 117 -32v-291q-75 43 -129 43q-133 0 -133 -258v-68q0 -258 137 -258q49 0 127 45v-282q-52 -30 -119 -43v-162h-204v182q-117 48 -179.5 177.5t-62.5 336.5v80q0 197 64 326t178 180v174h204z" />
    <glyph glyph-name="sterling" unicode="&#xa3;" horiz-adv-x="778" 
d="M37 0v213l113 57v285h-107v272h107v179q0 130 25.5 212t84.5 138q98 98 268 98q123 0 191 -22v-291q-56 20 -125 20q-64 0 -98 -37q-41 -41 -41 -133v-164h213v-272h-213v-270h297v-285h-715z" />
    <glyph glyph-name="yen" unicode="&#xa5;" horiz-adv-x="858" 
d="M82 526v228h139l-223 680h307l129 -521l127 521h299l-221 -680h137v-228h-194v-102h194v-227h-194v-197h-303v197h-197v227h197v102h-197z" />
    <glyph glyph-name="section" unicode="&#xa7;" horiz-adv-x="858" 
d="M664 477q77 -83 77 -192v-2q0 -139 -95.5 -222.5t-248.5 -83.5q-127 0 -243 46v264q123 -60 215 -60q40 0 64 17t24 43v2q0 31 -28.5 53t-125.5 70q-75 34 -120 60t-84.5 61t-56.5 77t-17 97v4q0 79 44.5 142.5t129.5 104.5q-80 77 -80 191v4q0 137 96 220t250 83
q124 0 242 -43v-266q-125 61 -213 61q-41 0 -64.5 -17t-23.5 -42v-4q0 -30 29 -53t122 -68q76 -35 121 -60.5t84.5 -60.5t56.5 -77t17 -99v-4q0 -162 -172 -246zM483 594l21 -10q67 51 67 100v2q0 22 -10.5 39t-54.5 46.5t-129 70.5l-21 10q-65 -50 -65 -100v-2
q0 -35 33.5 -64.5t158.5 -91.5z" />
    <glyph glyph-name="dieresis" unicode="&#xa8;" horiz-adv-x="1024" 
d="M543 1176v235h233v-235h-233zM250 1176v235h231v-235h-231z" />
    <glyph glyph-name="copyright" unicode="&#xa9;" horiz-adv-x="1054" 
d="M528 -27q-221 0 -356 192t-135 517v70q0 325 135 516.5t356 191.5q219 0 354.5 -192t135.5 -516v-70q0 -324 -135.5 -516.5t-354.5 -192.5zM528 49q192 0 302 171t110 460v74q0 291 -110 461.5t-302 170.5q-195 0 -304 -170t-109 -462v-74q0 -290 109.5 -460.5
t303.5 -170.5zM561 293q-122 0 -194 100.5t-72 300.5v49q0 199 77 300.5t197 101.5q62 0 117 -25v-190q-51 28 -90 28q-51 0 -79 -50.5t-28 -170.5v-39q0 -127 27.5 -174t81.5 -47q36 0 90 31v-184q-54 -31 -127 -31z" />
    <glyph glyph-name="ordfeminine" unicode="&#xaa;" horiz-adv-x="516" 
d="M180 823q-53 0 -87 47t-34 131v19q0 98 38 144t102 46q42 0 84 -22v22q0 84 -82 84q-45 0 -111 -30v153q79 27 150 27q111 0 161 -68q43 -55 43 -151v-391h-161v57q-39 -68 -103 -68zM59 596v133h402v-133h-402zM246 944q15 0 26 13t11 40v93q-13 10 -35 10
q-39 0 -39 -70v-20q0 -66 37 -66z" />
    <glyph glyph-name="guillemotleft" unicode="&#xab;" horiz-adv-x="884" 
d="M666 90l-271 457v16l271 455l188 -88l-176 -373l178 -375zM295 90l-262 442v43l262 443l188 -88l-174 -373l178 -375z" />
    <glyph glyph-name="registered" unicode="&#xae;" horiz-adv-x="585" 
d="M293 737q-114 0 -183 93t-69 251v35q0 158 69 251t183 93t184 -93t70 -251v-35q0 -158 -70 -251t-184 -93zM293 776q97 0 153 83.5t56 221.5v35q0 138 -56 221.5t-153 83.5t-153 -83.5t-56 -221.5v-35q0 -138 56 -221.5t153 -83.5zM184 903v402h99q135 0 135 -131v-7
q0 -68 -51 -106l59 -158h-96l-45 129h-11v-129h-90zM274 1108h9q43 0 43 57v6q0 54 -45 54h-7v-117z" />
    <glyph glyph-name="macron" unicode="&#xaf;" horiz-adv-x="1024" 
d="M258 1178v184h508v-184h-508z" />
    <glyph glyph-name="degree" unicode="&#xb0;" horiz-adv-x="561" 
d="M281 727q-111 0 -178.5 92t-67.5 246v45q0 153 68.5 244.5t179.5 91.5t178 -91.5t67 -244.5v-45q0 -154 -68 -246t-179 -92zM281 905q57 0 57 160v43q0 162 -57 162q-56 0 -56 -162v-43q0 -88 14 -124t42 -36z" />
    <glyph glyph-name="plusminus" unicode="&#xb1;" horiz-adv-x="835" 
d="M793 627h-240v-265h-270v265h-240v270h240v264h270v-264h240v-270zM791 0h-746v256h746v-256z" />
    <glyph glyph-name="acute" unicode="&#xb4;" horiz-adv-x="1024" 
d="M309 1171l158 283l252 -88l-227 -195h-183z" />
    <glyph glyph-name="mu" unicode="&#xb5;" horiz-adv-x="892" 
d="M883 244v-230q-72 -30 -154 -30q-119 0 -156 102q-28 -57 -56 -77.5t-66 -20.5q-90 0 -132 112h-6q27 -122 27 -266v-100h-287v1374h299v-762q0 -44 17 -69t49 -25t48.5 25t16.5 69v762h299v-807q0 -35 12 -48t42 -13q19 0 47 4z" />
    <glyph glyph-name="paragraph" unicode="&#xb6;" horiz-adv-x="731" 
d="M397 0v459h-2q-58 8 -109.5 29t-100.5 59.5t-84 91.5t-56.5 131.5t-21.5 173.5v8q0 128 36.5 223t102.5 150.5t149 82t185 26.5h172v-1434h-271z" />
    <glyph glyph-name="periodcentered" unicode="&#xb7;" horiz-adv-x="440" 
d="M57 475v330h328v-330h-328z" />
    <glyph glyph-name="cedilla" unicode="&#xb8;" horiz-adv-x="1024" 
d="M535 -266l-267 71l166 236h189z" />
    <glyph glyph-name="ordmasculine" unicode="&#xba;" horiz-adv-x="516" 
d="M258 817q-95 0 -150 74t-55 217v47q0 139 56 215t151 76q93 0 148 -75.5t55 -215.5v-47q0 -143 -55 -217t-150 -74zM63 596v133h390v-133h-390zM258 961q23 0 33 33.5t10 111.5v51q0 78 -10 112t-33 34t-33 -34t-10 -112v-51q0 -78 10 -111.5t33 -33.5z" />
    <glyph glyph-name="guillemotright" unicode="&#xbb;" horiz-adv-x="884" 
d="M590 90l-189 90l177 373l-179 375l191 90l262 -443v-43zM221 90l-188 90l174 373l-178 375l192 90l268 -455v-16z" />
    <glyph glyph-name="questiondown" unicode="&#xbf;" horiz-adv-x="696" 
d="M231 1108v326h338v-326h-338zM414 -14q-183 0 -287 102t-104 272v15q0 268 251 377l29 223h199l33 -365l-9 -12q-96 -25 -146 -72.5t-50 -113.5v-6q0 -60 40.5 -93.5t110.5 -33.5q100 0 183 47v-285q-121 -55 -250 -55z" />
    <glyph glyph-name="Agrave" unicode="&#xc0;" horiz-adv-x="882" 
d="M-8 0l274 1438h352l273 -1438h-307l-39 258h-215l-39 -258h-299zM369 520h137l-68 451zM557 1503h-211l-215 158l279 84z" />
    <glyph glyph-name="Aacute" unicode="&#xc1;" horiz-adv-x="882" 
d="M-8 0l274 1438h352l273 -1438h-307l-39 258h-215l-39 -258h-299zM369 520h137l-68 451zM328 1503l147 242l281 -84l-217 -158h-211z" />
    <glyph glyph-name="Acircumflex" unicode="&#xc2;" horiz-adv-x="882" 
d="M-8 0l274 1438h352l273 -1438h-307l-39 258h-215l-39 -258h-299zM369 520h137l-68 451zM176 1503l152 228h233l152 -228h-187l-84 84l-82 -84h-184z" />
    <glyph glyph-name="Atilde" unicode="&#xc3;" horiz-adv-x="882" 
d="M-8 0l274 1438h352l273 -1438h-307l-39 258h-215l-39 -258h-299zM369 520h137l-68 451zM586 1499q-51 0 -129 35q-74 31 -103 31q-22 0 -33 -15.5t-22 -58.5l-147 31q10 122 47.5 179.5t103.5 57.5q45 0 133 -37q72 -30 99 -30q23 0 33.5 15t21.5 58l147 -28
q-10 -122 -47.5 -180t-103.5 -58z" />
    <glyph glyph-name="Adieresis" unicode="&#xc4;" horiz-adv-x="882" 
d="M-8 0l274 1438h352l273 -1438h-307l-39 258h-215l-39 -258h-299zM369 520h137l-68 451zM479 1507v226h240v-226h-240zM172 1507v226h238v-226h-238z" />
    <glyph glyph-name="Aring" unicode="&#xc5;" horiz-adv-x="882" 
d="M-8 0l272 1430q-18 38 -18 83q0 80 55 132.5t141 52.5t141.5 -52.5t55.5 -132.5q0 -51 -21 -86l273 -1427h-307l-39 258h-215l-39 -258h-299zM369 520h137l-68 451zM442 1421q41 0 65.5 25.5t24.5 64.5t-25 65t-65 26q-38 0 -64 -26.5t-26 -64.5t26 -64t64 -26z" />
    <glyph glyph-name="AE" unicode="&#xc6;" horiz-adv-x="1196" 
d="M-20 0l344 1434h829v-291h-313v-279h278v-286h-278v-285h319v-293h-627v258h-200l-53 -258h-299zM379 520h153v613h-22z" />
    <glyph glyph-name="Ccedilla" unicode="&#xc7;" horiz-adv-x="743" 
d="M465 -266l-266 71l143 205q-140 54 -222.5 223t-82.5 447v72q0 147 25.5 265.5t69 198t104 133.5t129 77.5t145.5 23.5q104 0 186 -39v-309q-85 51 -155 51q-191 0 -191 -410v-53q0 -99 10 -172t26.5 -117.5t42 -71.5t52.5 -36.5t62 -9.5q68 0 159 51v-295
q-74 -45 -165 -53z" />
    <glyph glyph-name="Egrave" unicode="&#xc8;" horiz-adv-x="720" 
d="M485 1491h-211l-215 158l279 84zM57 0v1434h621v-291h-313v-279h278v-286h-278v-285h319v-293h-627z" />
    <glyph glyph-name="Eacute" unicode="&#xc9;" horiz-adv-x="720" 
d="M260 1491l148 242l280 -84l-217 -158h-211zM57 0v1434h621v-291h-313v-279h278v-286h-278v-285h319v-293h-627z" />
    <glyph glyph-name="Ecircumflex" unicode="&#xca;" horiz-adv-x="720" 
d="M57 0v1434h621v-291h-313v-279h278v-286h-278v-285h319v-293h-627zM104 1491l152 227h233l152 -227h-186l-84 84l-82 -84h-185z" />
    <glyph glyph-name="Edieresis" unicode="&#xcb;" horiz-adv-x="720" 
d="M408 1495v225h239v-225h-239zM100 1495v225h238v-225h-238zM57 0v1434h621v-291h-313v-279h278v-286h-278v-285h319v-293h-627z" />
    <glyph glyph-name="Igrave" unicode="&#xcc;" horiz-adv-x="428" 
d="M61 0v1434h308v-1434h-308zM330 1491h-211l-215 158l278 84z" />
    <glyph glyph-name="Iacute" unicode="&#xcd;" horiz-adv-x="428" 
d="M61 0v1434h308v-1434h-308zM104 1491l148 242l280 -84l-217 -158h-211z" />
    <glyph glyph-name="Icircumflex" unicode="&#xce;" horiz-adv-x="428" 
d="M61 0v1434h308v-1434h-308zM-51 1491l151 227h234l151 -227h-186l-84 84l-82 -84h-184z" />
    <glyph glyph-name="Idieresis" unicode="&#xcf;" horiz-adv-x="428" 
d="M61 0v1434h308v-1434h-308zM252 1495v225h240v-225h-240zM-55 1495v225h237v-225h-237z" />
    <glyph glyph-name="Eth" unicode="&#xd0;" horiz-adv-x="944" 
d="M14 602v240h72v592h287q263 0 398.5 -173t135.5 -509v-70q0 -336 -135.5 -509t-398.5 -173h-287v602h-72zM594 680v74q0 115 -15 195t-43.5 123t-63 61t-79.5 18h-4v-313h98v-234h-98v-321h4q45 0 79.5 19t63 62.5t43.5 123t15 192.5z" />
    <glyph glyph-name="Ntilde" unicode="&#xd1;" horiz-adv-x="927" 
d="M608 1485q-51 0 -129 35q-72 30 -102 30q-23 0 -33.5 -15t-21.5 -58l-148 30q20 238 152 238q45 0 133 -37q74 -31 98 -31q22 0 33 15.5t22 58.5l148 -29q-20 -237 -152 -237zM57 0v1434h295l223 -648v648h295v-1434h-280l-238 682v-682h-295z" />
    <glyph glyph-name="Ograve" unicode="&#xd2;" horiz-adv-x="919" 
d="M575 1503h-210l-215 158l278 84zM461 -27q-200 0 -312 177.5t-112 521.5v90q0 343 112.5 520.5t311.5 177.5q197 0 309.5 -178t112.5 -520v-90q0 -344 -111.5 -521.5t-310.5 -177.5zM461 258q37 0 59 31.5t35.5 124t13.5 256.5v96q0 124 -7 206t-21.5 126.5t-33.5 62
t-46 17.5t-45.5 -17.5t-34 -61.5t-23.5 -127t-8 -206v-96q0 -123 8 -206t23.5 -127t34 -61.5t45.5 -17.5z" />
    <glyph glyph-name="Oacute" unicode="&#xd3;" horiz-adv-x="919" 
d="M346 1503l148 242l280 -84l-217 -158h-211zM461 -27q-200 0 -312 177.5t-112 521.5v90q0 343 112.5 520.5t311.5 177.5q197 0 309.5 -178t112.5 -520v-90q0 -344 -111.5 -521.5t-310.5 -177.5zM461 258q37 0 59 31.5t35.5 124t13.5 256.5v96q0 124 -7 206t-21.5 126.5
t-33.5 62t-46 17.5t-45.5 -17.5t-34 -61.5t-23.5 -127t-8 -206v-96q0 -123 8 -206t23.5 -127t34 -61.5t45.5 -17.5z" />
    <glyph glyph-name="Ocircumflex" unicode="&#xd4;" horiz-adv-x="919" 
d="M461 -27q-200 0 -312 177.5t-112 521.5v90q0 343 112.5 520.5t311.5 177.5q197 0 309.5 -178t112.5 -520v-90q0 -344 -111.5 -521.5t-310.5 -177.5zM461 258q37 0 59 31.5t35.5 124t13.5 256.5v96q0 124 -7 206t-21.5 126.5t-33.5 62t-46 17.5t-45.5 -17.5t-34 -61.5
t-23.5 -127t-8 -206v-96q0 -123 8 -206t23.5 -127t34 -61.5t45.5 -17.5zM195 1503l151 228h234l151 -228h-186l-84 84l-82 -84h-184z" />
    <glyph glyph-name="Otilde" unicode="&#xd5;" horiz-adv-x="919" 
d="M604 1499q-51 0 -129 35q-74 31 -102 31q-23 0 -34 -15.5t-22 -58.5l-147 31q20 237 152 237q45 0 133 -37q72 -30 98 -30q23 0 33.5 15t21.5 58l148 -28q-20 -238 -152 -238zM461 -27q-200 0 -312 177.5t-112 521.5v90q0 343 112.5 520.5t311.5 177.5q197 0 309.5 -178
t112.5 -520v-90q0 -344 -111.5 -521.5t-310.5 -177.5zM461 258q37 0 59 31.5t35.5 124t13.5 256.5v96q0 124 -7 206t-21.5 126.5t-33.5 62t-46 17.5t-45.5 -17.5t-34 -61.5t-23.5 -127t-8 -206v-96q0 -123 8 -206t23.5 -127t34 -61.5t45.5 -17.5z" />
    <glyph glyph-name="Odieresis" unicode="&#xd6;" horiz-adv-x="919" 
d="M498 1507v226h239v-226h-239zM190 1507v226h238v-226h-238zM461 -27q-200 0 -312 177.5t-112 521.5v90q0 343 112.5 520.5t311.5 177.5q197 0 309.5 -178t112.5 -520v-90q0 -344 -111.5 -521.5t-310.5 -177.5zM461 258q37 0 59 31.5t35.5 124t13.5 256.5v96q0 124 -7 206
t-21.5 126.5t-33.5 62t-46 17.5t-45.5 -17.5t-34 -61.5t-23.5 -127t-8 -206v-96q0 -123 8 -206t23.5 -127t34 -61.5t45.5 -17.5z" />
    <glyph glyph-name="multiply" unicode="&#xd7;" horiz-adv-x="835" 
d="M604 326l-186 200l-187 -200l-200 182l202 213l-202 213l200 184l187 -203l188 203l199 -184l-201 -213l201 -213z" />
    <glyph glyph-name="Oslash" unicode="&#xd8;" horiz-adv-x="919" 
d="M725 1444h145l-86 -191q99 -181 99 -491v-90q0 -344 -111.5 -521.5t-310.5 -177.5q-134 0 -234 86l-30 -69h-148l86 190q-98 182 -98 492v90q0 343 112.5 520.5t311.5 177.5q131 0 231 -86zM344 670v-80l205 497q-17 54 -37.5 75.5t-50.5 21.5q-39 0 -63 -32.5t-39 -127
t-15 -258.5v-96zM461 252q29 0 48.5 18t35 63t23 128.5t7.5 208.5v96q0 51 -2 76l-202 -496q17 -52 38 -73t52 -21z" />
    <glyph glyph-name="Ugrave" unicode="&#xd9;" horiz-adv-x="894" 
d="M563 1489h-211l-215 158l279 84zM446 -23q-179 0 -286 113.5t-107 337.5v1006h307v-1028q0 -144 89 -144q88 0 88 144v1028h307v-1004q0 -115 -29.5 -202.5t-83.5 -142t-126 -81.5t-159 -27z" />
    <glyph glyph-name="Uacute" unicode="&#xda;" horiz-adv-x="894" 
d="M334 1489l147 242l281 -84l-217 -158h-211zM446 -23q-179 0 -286 113.5t-107 337.5v1006h307v-1028q0 -144 89 -144q88 0 88 144v1028h307v-1004q0 -115 -29.5 -202.5t-83.5 -142t-126 -81.5t-159 -27z" />
    <glyph glyph-name="Ucircumflex" unicode="&#xdb;" horiz-adv-x="894" 
d="M446 -23q-179 0 -286 113.5t-107 337.5v1006h307v-1028q0 -144 89 -144q88 0 88 144v1028h307v-1004q0 -115 -29.5 -202.5t-83.5 -142t-126 -81.5t-159 -27zM182 1489l152 227h233l152 -227h-187l-83 84l-82 -84h-185z" />
    <glyph glyph-name="Udieresis" unicode="&#xdc;" horiz-adv-x="894" 
d="M485 1493v225h240v-225h-240zM178 1493v225h238v-225h-238zM446 -23q-179 0 -286 113.5t-107 337.5v1006h307v-1028q0 -144 89 -144q88 0 88 144v1028h307v-1004q0 -115 -29.5 -202.5t-83.5 -142t-126 -81.5t-159 -27z" />
    <glyph glyph-name="Yacute" unicode="&#xdd;" horiz-adv-x="837" 
d="M266 0v535l-274 899h315l117 -504l115 504h307l-273 -899v-535h-307zM305 1489l148 242l280 -84l-217 -158h-211z" />
    <glyph glyph-name="Thorn" unicode="&#xde;" horiz-adv-x="837" 
d="M57 0v1434h305v-187h5q91 0 171 -28t144 -84.5t101.5 -152t37.5 -220.5v-19q0 -125 -38.5 -222.5t-103.5 -155t-143 -87.5t-165 -32h-9v-246h-305zM362 518h5q149 10 149 215v25q0 217 -147 217h-7v-457z" />
    <glyph glyph-name="germandbls" unicode="&#xdf;" horiz-adv-x="884" 
d="M438 -6v256q57 11 88 58t31 126v8q0 81 -28.5 127.5t-90.5 65.5v219q92 59 92 205v12q0 137 -86 137q-90 0 -90 -188v-1020h-299v1016q0 209 99.5 327.5t296.5 118.5q181 0 276.5 -101t95.5 -253v-18q0 -209 -166 -318q97 -50 147 -131.5t50 -214.5v-12q0 -408 -416 -420
z" />
    <glyph glyph-name="agrave" unicode="&#xe0;" horiz-adv-x="770" 
d="M242 -20q-99 0 -160.5 86.5t-61.5 242.5v35q0 178 69.5 264t186.5 86q81 0 152 -41v43q0 154 -147 154q-91 0 -203 -55v278q122 51 268 51q183 0 277 -94q102 -102 102 -307v-723h-297v104q-73 -124 -186 -124zM360 205q29 0 49.5 24.5t20.5 71.5v170q-36 18 -65 18
q-70 0 -70 -124v-41q0 -119 65 -119zM311 1184l-227 194l250 88l160 -282h-183z" />
    <glyph glyph-name="aacute" unicode="&#xe1;" horiz-adv-x="770" 
d="M242 -20q-99 0 -160.5 86.5t-61.5 242.5v35q0 178 69.5 264t186.5 86q81 0 152 -41v43q0 154 -147 154q-91 0 -203 -55v278q122 51 268 51q183 0 277 -94q102 -102 102 -307v-723h-297v104q-73 -124 -186 -124zM360 205q29 0 49.5 24.5t20.5 71.5v170q-36 18 -65 18
q-70 0 -70 -124v-41q0 -119 65 -119zM281 1184l157 282l252 -88l-227 -194h-182z" />
    <glyph glyph-name="acircumflex" unicode="&#xe2;" horiz-adv-x="770" 
d="M242 -20q-99 0 -160.5 86.5t-61.5 242.5v35q0 178 69.5 264t186.5 86q81 0 152 -41v43q0 154 -147 154q-91 0 -203 -55v278q122 51 268 51q183 0 277 -94q102 -102 102 -307v-723h-297v104q-73 -124 -186 -124zM360 205q29 0 49.5 24.5t20.5 71.5v170q-36 18 -65 18
q-70 0 -70 -124v-41q0 -119 65 -119zM119 1184l162 262h213l161 -262h-176l-94 104l-94 -104h-172z" />
    <glyph glyph-name="atilde" unicode="&#xe3;" horiz-adv-x="770" 
d="M242 -20q-99 0 -160.5 86.5t-61.5 242.5v35q0 178 69.5 264t186.5 86q81 0 152 -41v43q0 154 -147 154q-91 0 -203 -55v278q122 51 268 51q183 0 277 -94q102 -102 102 -307v-723h-297v104q-73 -124 -186 -124zM360 205q29 0 49.5 24.5t20.5 71.5v170q-36 18 -65 18
q-70 0 -70 -124v-41q0 -119 65 -119zM530 1180q-50 0 -131 34q-74 31 -100 31q-24 0 -35 -15.5t-22 -58.5l-144 29q20 236 150 236q43 0 131 -37q74 -31 100 -31q24 0 35.5 15.5t22.5 58.5l143 -29q-20 -233 -150 -233z" />
    <glyph glyph-name="adieresis" unicode="&#xe4;" horiz-adv-x="770" 
d="M242 -20q-99 0 -160.5 86.5t-61.5 242.5v35q0 178 69.5 264t186.5 86q81 0 152 -41v43q0 154 -147 154q-91 0 -203 -55v278q122 51 268 51q183 0 277 -94q102 -102 102 -307v-723h-297v104q-73 -124 -186 -124zM360 205q29 0 49.5 24.5t20.5 71.5v170q-36 18 -65 18
q-70 0 -70 -124v-41q0 -119 65 -119zM416 1188v235h233v-235h-233zM123 1188v235h231v-235h-231z" />
    <glyph glyph-name="aring" unicode="&#xe5;" horiz-adv-x="770" 
d="M242 -20q-99 0 -160.5 86.5t-61.5 242.5v35q0 178 69.5 264t186.5 86q81 0 152 -41v43q0 154 -147 154q-91 0 -203 -55v278q122 51 268 51q183 0 277 -94q102 -102 102 -307v-723h-297v104q-73 -124 -186 -124zM360 205q29 0 49.5 24.5t20.5 71.5v170q-36 18 -65 18
q-70 0 -70 -124v-41q0 -119 65 -119zM385 1174q-79 0 -134.5 55t-55.5 139q0 81 55.5 136t134.5 55q81 0 135.5 -54t54.5 -139q0 -81 -55 -136.5t-135 -55.5zM385 1272q37 0 60.5 26.5t23.5 67.5t-23.5 68.5t-60.5 27.5t-60.5 -27.5t-23.5 -68.5t23.5 -67.5t60.5 -26.5z" />
    <glyph glyph-name="ae" unicode="&#xe6;" horiz-adv-x="1165" 
d="M279 -20q-116 0 -187.5 88t-71.5 245v35q0 176 69.5 261t186.5 85q81 0 152 -41v43q0 154 -147 154q-91 0 -203 -55v278q124 51 268 51q156 0 242 -102q82 108 209 108q159 0 250.5 -143.5t91.5 -413.5v-147h-426q10 -95 51 -136.5t110 -41.5q102 0 220 80l18 -267
q-138 -86 -281 -86q-203 0 -309 189q-38 -84 -102.5 -134t-140.5 -50zM709 631h153q0 130 -18 185.5t-56 55.5q-37 0 -56 -52.5t-23 -188.5zM369 205q28 0 53.5 28.5t42.5 83.5q-19 89 -21 148q-46 24 -79 24q-70 0 -70 -124v-41q0 -119 74 -119z" />
    <glyph glyph-name="ccedilla" unicode="&#xe7;" horiz-adv-x="632" 
d="M401 -266l-266 71l139 199q-239 98 -239 514v76q0 256 105.5 394t277.5 138q105 0 180 -34v-291q-71 41 -129 41q-133 0 -133 -256v-62q0 -260 137 -260q56 0 127 47v-284q-62 -35 -127 -43z" />
    <glyph glyph-name="egrave" unicode="&#xe8;" horiz-adv-x="780" 
d="M442 -25q-184 0 -296.5 142t-112.5 403v64q0 258 104 402t269 144q163 0 255.5 -143t92.5 -414v-147h-426q10 -95 51 -136.5t110 -41.5q102 0 220 80l18 -267q-138 -86 -285 -86zM324 631h153q0 130 -18 185.5t-56 55.5q-37 0 -56 -52.5t-23 -188.5zM330 1184l-228 194
l250 88l160 -282h-182z" />
    <glyph glyph-name="eacute" unicode="&#xe9;" horiz-adv-x="780" 
d="M299 1184l158 282l252 -88l-228 -194h-182zM442 -25q-184 0 -296.5 142t-112.5 403v64q0 258 104 402t269 144q163 0 255.5 -143t92.5 -414v-147h-426q10 -95 51 -136.5t110 -41.5q102 0 220 80l18 -267q-138 -86 -285 -86zM324 631h153q0 130 -18 185.5t-56 55.5
q-37 0 -56 -52.5t-23 -188.5z" />
    <glyph glyph-name="ecircumflex" unicode="&#xea;" horiz-adv-x="780" 
d="M137 1184l162 262h213l162 -262h-176l-95 104l-94 -104h-172zM442 -25q-184 0 -296.5 142t-112.5 403v64q0 258 104 402t269 144q163 0 255.5 -143t92.5 -414v-147h-426q10 -95 51 -136.5t110 -41.5q102 0 220 80l18 -267q-138 -86 -285 -86zM324 631h153
q0 130 -18 185.5t-56 55.5q-37 0 -56 -52.5t-23 -188.5z" />
    <glyph glyph-name="edieresis" unicode="&#xeb;" horiz-adv-x="780" 
d="M436 1188v235h234v-235h-234zM143 1188v235h232v-235h-232zM442 -25q-184 0 -296.5 142t-112.5 403v64q0 258 104 402t269 144q163 0 255.5 -143t92.5 -414v-147h-426q10 -95 51 -136.5t110 -41.5q102 0 220 80l18 -267q-138 -86 -285 -86zM324 631h153q0 130 -18 185.5
t-56 55.5q-37 0 -56 -52.5t-23 -188.5z" />
    <glyph glyph-name="igrave" unicode="&#xec;" horiz-adv-x="409" 
d="M55 0v1108h299v-1108h-299zM133 1171l-227 195l250 88l159 -283h-182z" />
    <glyph glyph-name="iacute" unicode="&#xed;" horiz-adv-x="409" 
d="M102 1171l158 283l252 -88l-227 -195h-183zM55 0v1108h299v-1108h-299z" />
    <glyph glyph-name="icircumflex" unicode="&#xee;" horiz-adv-x="409" 
d="M-59 1171l161 263h213l162 -263h-176l-94 105l-94 -105h-172zM55 0v1108h299v-1108h-299z" />
    <glyph glyph-name="idieresis" unicode="&#xef;" horiz-adv-x="409" 
d="M238 1176v235h233v-235h-233zM-55 1176v235h231v-235h-231zM55 0v1108h299v-1108h-299z" />
    <glyph glyph-name="eth" unicode="&#xf0;" 
d="M719 1315l-94 -31q159 -286 159 -643v-66q0 -300 -98 -450t-280 -150q-171 0 -271 141t-100 400v96q0 243 78.5 373.5t187.5 130.5q42 0 75 -15.5t75 -53.5q-43 103 -76 155l-144 -45l-51 143l103 33q-41 51 -111 121h330l33 -39l133 43zM410 240q42 0 60.5 63.5
t18.5 208.5v86q0 145 -18.5 207.5t-60.5 62.5q-76 0 -76 -270v-86q0 -147 17.5 -209.5t58.5 -62.5z" />
    <glyph glyph-name="ntilde" unicode="&#xf1;" 
d="M53 0v1108h299v-129q76 149 207 149q107 0 162 -75t55 -203v-850h-299v770q0 90 -61 90q-30 0 -47 -24t-17 -66v-770h-299zM561 1180q-50 0 -131 34q-74 31 -100 31q-24 0 -35.5 -15.5t-22.5 -58.5l-143 29q20 236 150 236q43 0 131 -37q74 -31 100 -31q24 0 35 15.5
t22 58.5l144 -29q-20 -233 -150 -233z" />
    <glyph glyph-name="ograve" unicode="&#xf2;" 
d="M412 -25q-171 0 -274 139t-103 396v86q0 257 103.5 395.5t275.5 138.5q171 0 272.5 -138t101.5 -396v-86q0 -258 -102 -396.5t-274 -138.5zM412 242q42 0 61 62t19 206v88q0 144 -19 206t-61 62t-60 -61.5t-18 -206.5v-88q0 -145 18 -206.5t60 -61.5zM340 1184l-227 194
l249 88l160 -282h-182z" />
    <glyph glyph-name="oacute" unicode="&#xf3;" 
d="M309 1184l158 282l252 -88l-227 -194h-183zM412 -25q-171 0 -274 139t-103 396v86q0 257 103.5 395.5t275.5 138.5q171 0 272.5 -138t101.5 -396v-86q0 -258 -102 -396.5t-274 -138.5zM412 242q42 0 61 62t19 206v88q0 144 -19 206t-61 62t-60 -61.5t-18 -206.5v-88
q0 -145 18 -206.5t60 -61.5z" />
    <glyph glyph-name="ocircumflex" unicode="&#xf4;" 
d="M147 1184l162 262h213l162 -262h-176l-94 104l-95 -104h-172zM412 -25q-171 0 -274 139t-103 396v86q0 257 103.5 395.5t275.5 138.5q171 0 272.5 -138t101.5 -396v-86q0 -258 -102 -396.5t-274 -138.5zM412 242q42 0 61 62t19 206v88q0 144 -19 206t-61 62t-60 -61.5
t-18 -206.5v-88q0 -145 18 -206.5t60 -61.5z" />
    <glyph glyph-name="otilde" unicode="&#xf5;" 
d="M412 -25q-171 0 -274 139t-103 396v86q0 257 103.5 395.5t275.5 138.5q171 0 272.5 -138t101.5 -396v-86q0 -258 -102 -396.5t-274 -138.5zM412 242q42 0 61 62t19 206v88q0 144 -19 206t-61 62t-60 -61.5t-18 -206.5v-88q0 -145 18 -206.5t60 -61.5zM559 1180
q-50 0 -131 34q-74 31 -100 31q-24 0 -35.5 -15.5t-22.5 -58.5l-143 29q20 236 149 236q44 0 132 -37q74 -31 100 -31q24 0 35 15.5t22 58.5l144 -29q-20 -233 -150 -233z" />
    <glyph glyph-name="odieresis" unicode="&#xf6;" 
d="M444 1188v235h234v-235h-234zM152 1188v235h231v-235h-231zM412 -25q-171 0 -274 139t-103 396v86q0 257 103.5 395.5t275.5 138.5q171 0 272.5 -138t101.5 -396v-86q0 -258 -102 -396.5t-274 -138.5zM412 242q42 0 61 62t19 206v88q0 144 -19 206t-61 62t-60 -61.5
t-18 -206.5v-88q0 -145 18 -206.5t60 -61.5z" />
    <glyph glyph-name="divide" unicode="&#xf7;" horiz-adv-x="835" 
d="M281 948v258h274v-258h-274zM791 590h-746v262h746v-262zM281 238v258h274v-258h-274z" />
    <glyph glyph-name="oslash" unicode="&#xf8;" 
d="M659 1114h144l-92 -166q77 -138 77 -352v-86q0 -258 -102 -396.5t-274 -138.5q-125 0 -215 78l-33 -61h-141l90 166q-78 140 -78 352v86q0 257 103.5 395.5t275.5 138.5q124 0 213 -77zM322 506v-12l157 313q-21 67 -67 67q-90 0 -90 -274v-94zM412 231q90 0 90 275v94
v10l-158 -311q21 -68 68 -68z" />
    <glyph glyph-name="ugrave" unicode="&#xf9;" 
d="M264 -20q-107 0 -162 75t-55 203v850h299v-768q0 -43 16.5 -67.5t45.5 -24.5t46 24.5t17 67.5v768h299v-1108h-299v129q-76 -149 -207 -149zM336 1169l-227 195l249 88l160 -283h-182z" />
    <glyph glyph-name="uacute" unicode="&#xfa;" 
d="M305 1169l158 283l252 -88l-228 -195h-182zM264 -20q-107 0 -162 75t-55 203v850h299v-768q0 -43 16.5 -67.5t45.5 -24.5t46 24.5t17 67.5v768h299v-1108h-299v129q-76 -149 -207 -149z" />
    <glyph glyph-name="ucircumflex" unicode="&#xfb;" 
d="M143 1169l162 263h213l162 -263h-176l-94 105l-95 -105h-172zM264 -20q-107 0 -162 75t-55 203v850h299v-768q0 -43 16.5 -67.5t45.5 -24.5t46 24.5t17 67.5v768h299v-1108h-299v129q-76 -149 -207 -149z" />
    <glyph glyph-name="udieresis" unicode="&#xfc;" 
d="M440 1174v235h234v-235h-234zM147 1174v235h232v-235h-232zM264 -20q-107 0 -162 75t-55 203v850h299v-768q0 -43 16.5 -67.5t45.5 -24.5t46 24.5t17 67.5v768h299v-1108h-299v129q-76 -149 -207 -149z" />
    <glyph glyph-name="yacute" unicode="&#xfd;" horiz-adv-x="784" 
d="M393 504l94 604h295l-317 -1374h-293v2l70 293l-238 1079h297zM289 1169l157 283l252 -88l-227 -195h-182z" />
    <glyph glyph-name="thorn" unicode="&#xfe;" horiz-adv-x="841" 
d="M53 -266v1720h299v-477q43 73 87.5 112t115.5 39q246 0 246 -520v-108q0 -520 -246 -520q-71 0 -118 40t-85 111v-397h-299zM428 252q74 0 74 246v112q0 127 -18 186.5t-56 59.5q-41 0 -59.5 -59t-18.5 -187v-112q0 -246 78 -246z" />
    <glyph glyph-name="ydieresis" unicode="&#xff;" horiz-adv-x="784" 
d="M393 504l94 604h295l-317 -1374h-293v2l70 293l-238 1079h297zM426 1174v235h233v-235h-233zM133 1174v235h232v-235h-232z" />
    <glyph glyph-name="Amacron" unicode="&#x100;" horiz-adv-x="882" 
d="M-8 0l274 1438h352l273 -1438h-307l-39 258h-215l-39 -258h-299zM369 520h137l-68 451zM180 1509v189h531v-189h-531z" />
    <glyph glyph-name="amacron" unicode="&#x101;" horiz-adv-x="770" 
d="M242 -20q-99 0 -160.5 86.5t-61.5 242.5v35q0 178 69.5 264t186.5 86q81 0 152 -41v43q0 154 -147 154q-91 0 -203 -55v278q122 51 268 51q183 0 277 -94q102 -102 102 -307v-723h-297v104q-73 -124 -186 -124zM360 205q29 0 49.5 24.5t20.5 71.5v170q-36 18 -65 18
q-70 0 -70 -124v-41q0 -119 65 -119zM131 1190v184h508v-184h-508z" />
    <glyph glyph-name="Abreve" unicode="&#x102;" horiz-adv-x="882" 
d="M-8 0l274 1438h352l273 -1438h-307l-39 258h-215l-39 -258h-299zM369 520h137l-68 451zM444 1495q-111 0 -177 55t-70 166h163q12 -67 84 -67q71 0 86 67h164q-6 -111 -72.5 -166t-177.5 -55z" />
    <glyph glyph-name="abreve" unicode="&#x103;" horiz-adv-x="770" 
d="M242 -20q-99 0 -160.5 86.5t-61.5 242.5v35q0 178 69.5 264t186.5 86q81 0 152 -41v43q0 154 -147 154q-91 0 -203 -55v278q122 51 268 51q183 0 277 -94q102 -102 102 -307v-723h-297v104q-73 -124 -186 -124zM360 205q29 0 49.5 24.5t20.5 71.5v170q-36 18 -65 18
q-70 0 -70 -124v-41q0 -119 65 -119zM385 1176q-109 0 -177.5 60t-78.5 183h164q12 -88 92 -88t92 88h164q-10 -123 -78.5 -183t-177.5 -60z" />
    <glyph glyph-name="Aogonek" unicode="&#x104;" horiz-adv-x="882" 
d="M905 -135v-158q-52 -8 -110 -8q-228 0 -228 137q0 84 80 164h-63l-39 258h-215l-39 -258h-299l274 1438h352l273 -1438h-43q-35 -51 -35 -82q0 -29 18 -38.5t74 -14.5zM369 520h137l-68 451z" />
    <glyph glyph-name="aogonek" unicode="&#x105;" horiz-adv-x="770" 
d="M741 -135v-158q-52 -8 -110 -8q-228 0 -228 137q0 84 80 164h-55v104q-73 -124 -186 -124q-99 0 -160.5 86.5t-61.5 242.5v35q0 178 69.5 264t186.5 86q81 0 152 -41v43q0 154 -147 154q-91 0 -203 -55v278q122 51 268 51q183 0 277 -94q102 -102 102 -307v-723h-41
q-35 -51 -35 -82q0 -29 18 -38.5t74 -14.5zM360 205q29 0 49.5 24.5t20.5 71.5v170q-36 18 -65 18q-70 0 -70 -124v-41q0 -119 65 -119z" />
    <glyph glyph-name="Cacute" unicode="&#x106;" horiz-adv-x="743" 
d="M489 -16q-97 0 -178 41.5t-143 124.5t-96.5 218.5t-34.5 311.5v72q0 147 25.5 265.5t69 198t104 133.5t129 77.5t145.5 23.5q104 0 186 -39v-309q-85 51 -155 51q-191 0 -191 -410v-53q0 -99 10 -172t26.5 -117.5t42 -71.5t52.5 -36.5t62 -9.5q68 0 159 51v-295
q-89 -55 -213 -55zM344 1503l148 242l280 -84l-217 -158h-211z" />
    <glyph glyph-name="cacute" unicode="&#x107;" horiz-adv-x="632" 
d="M287 1184l157 282l252 -88l-227 -194h-182zM414 -20q-179 0 -279 138t-100 400v76q0 256 105.5 394t277.5 138q105 0 180 -34v-291q-71 41 -129 41q-133 0 -133 -256v-62q0 -260 137 -260q56 0 127 47v-284q-86 -47 -186 -47z" />
    <glyph glyph-name="Cdotaccent" unicode="&#x10a;" horiz-adv-x="743" 
d="M336 1507v226h250v-226h-250zM489 -16q-97 0 -178 41.5t-143 124.5t-96.5 218.5t-34.5 311.5v72q0 147 25.5 265.5t69 198t104 133.5t129 77.5t145.5 23.5q104 0 186 -39v-309q-85 51 -155 51q-191 0 -191 -410v-53q0 -99 10 -172t26.5 -117.5t42 -71.5t52.5 -36.5
t62 -9.5q68 0 159 51v-295q-89 -55 -213 -55z" />
    <glyph glyph-name="cdotaccent" unicode="&#x10b;" horiz-adv-x="632" 
d="M414 -20q-179 0 -279 138t-100 400v76q0 256 105.5 394t277.5 138q105 0 180 -34v-291q-71 41 -129 41q-133 0 -133 -256v-62q0 -260 137 -260q56 0 127 47v-284q-86 -47 -186 -47zM268 1188v235h246v-235h-246z" />
    <glyph glyph-name="Ccaron" unicode="&#x10c;" horiz-adv-x="743" 
d="M489 -16q-97 0 -178 41.5t-143 124.5t-96.5 218.5t-34.5 311.5v72q0 147 25.5 265.5t69 198t104 133.5t129 77.5t145.5 23.5q104 0 186 -39v-309q-85 51 -155 51q-191 0 -191 -410v-53q0 -99 10 -172t26.5 -117.5t42 -71.5t52.5 -36.5t62 -9.5q68 0 159 51v-295
q-89 -55 -213 -55zM729 1731l-151 -228h-234l-151 228h186l84 -84l82 84h184z" />
    <glyph glyph-name="ccaron" unicode="&#x10d;" horiz-adv-x="632" 
d="M659 1446l-159 -262h-215l-160 262h174l94 -103l94 103h172zM414 -20q-179 0 -279 138t-100 400v76q0 256 105.5 394t277.5 138q105 0 180 -34v-291q-71 41 -129 41q-133 0 -133 -256v-62q0 -260 137 -260q56 0 127 47v-284q-86 -47 -186 -47z" />
    <glyph glyph-name="Dcaron" unicode="&#x10e;" horiz-adv-x="915" 
d="M713 1718l-152 -227h-233l-152 227h186l84 -84l82 84h185zM57 0v1434h287q263 0 399 -173t136 -509v-70q0 -336 -136 -509t-399 -173h-287zM565 680v74q0 115 -15 195t-43 123t-62.5 61t-79.5 18v-868q45 0 79.5 19t62.5 62.5t43 123t15 192.5z" />
    <glyph glyph-name="dcaron" unicode="&#x10f;" horiz-adv-x="841" 
d="M831 1153l19 301h174v-2l-80 -299h-113zM287 -20q-246 0 -246 520v108q0 520 246 520q71 0 115 -38t87 -111v475h299v-1454h-299v133q-38 -72 -84.5 -112.5t-117.5 -40.5zM414 252q41 0 59.5 59t18.5 187v112q0 128 -18.5 187t-59.5 59q-38 0 -56 -59.5t-18 -186.5v-112
q0 -127 18 -186.5t56 -59.5z" />
    <glyph glyph-name="Dcroat" unicode="&#x110;" horiz-adv-x="944" 
d="M14 602v240h72v592h287q263 0 398.5 -173t135.5 -509v-70q0 -336 -135.5 -509t-398.5 -173h-287v602h-72zM594 680v74q0 115 -15 195t-43.5 123t-63 61t-79.5 18h-4v-313h98v-234h-98v-321h4q45 0 79.5 19t63 62.5t43.5 123t15 192.5z" />
    <glyph glyph-name="dcroat" unicode="&#x111;" horiz-adv-x="841" 
d="M344 1180v194h145v80h299v-80h56v-200h-56v-1174h-299v133q-38 -72 -84.5 -112.5t-117.5 -40.5q-246 0 -246 520v108q0 520 246 520q71 0 115 -38t87 -111v201h-145zM414 252q41 0 59.5 59t18.5 187v112q0 128 -18.5 187t-59.5 59q-38 0 -56 -59.5t-18 -186.5v-112
q0 -127 18 -186.5t56 -59.5z" />
    <glyph glyph-name="Emacron" unicode="&#x112;" horiz-adv-x="720" 
d="M109 1497v189h530v-189h-530zM57 0v1434h621v-291h-313v-279h278v-286h-278v-285h319v-293h-627z" />
    <glyph glyph-name="emacron" unicode="&#x113;" horiz-adv-x="780" 
d="M442 -25q-184 0 -296.5 142t-112.5 403v64q0 258 104 402t269 144q163 0 255.5 -143t92.5 -414v-147h-426q10 -95 51 -136.5t110 -41.5q102 0 220 80l18 -267q-138 -86 -285 -86zM324 631h153q0 130 -18 185.5t-56 55.5q-37 0 -56 -52.5t-23 -188.5zM152 1190v184h507
v-184h-507z" />
    <glyph glyph-name="Ebreve" unicode="&#x114;" horiz-adv-x="720" 
d="M373 1483q-111 0 -177.5 55t-70.5 166h164q12 -68 84 -68q71 0 86 68h164q-6 -111 -72.5 -166t-177.5 -55zM57 0v1434h621v-291h-313v-279h278v-286h-278v-285h319v-293h-627z" />
    <glyph glyph-name="ebreve" unicode="&#x115;" horiz-adv-x="780" 
d="M442 -25q-184 0 -296.5 142t-112.5 403v64q0 258 104 402t269 144q163 0 255.5 -143t92.5 -414v-147h-426q10 -95 51 -136.5t110 -41.5q102 0 220 80l18 -267q-138 -86 -285 -86zM324 631h153q0 130 -18 185.5t-56 55.5q-37 0 -56 -52.5t-23 -188.5zM406 1176
q-109 0 -177.5 60t-78.5 183h163q12 -88 93 -88q80 0 92 88h164q-10 -123 -78.5 -183t-177.5 -60z" />
    <glyph glyph-name="Edotaccent" unicode="&#x116;" horiz-adv-x="720" 
d="M248 1495v225h250v-225h-250zM57 0v1434h621v-291h-313v-279h278v-286h-278v-285h319v-293h-627z" />
    <glyph glyph-name="edotaccent" unicode="&#x117;" horiz-adv-x="780" 
d="M442 -25q-184 0 -296.5 142t-112.5 403v64q0 258 104 402t269 144q163 0 255.5 -143t92.5 -414v-147h-426q10 -95 51 -136.5t110 -41.5q102 0 220 80l18 -267q-138 -86 -285 -86zM324 631h153q0 130 -18 185.5t-56 55.5q-37 0 -56 -52.5t-23 -188.5zM283 1188v235h245
v-235h-245z" />
    <glyph glyph-name="Eogonek" unicode="&#x118;" horiz-adv-x="720" 
d="M57 0v1434h621v-291h-313v-279h278v-286h-278v-285h319v-293h-53q-35 -51 -35 -82q0 -29 18 -38.5t74 -14.5v-158q-52 -8 -110 -8q-228 0 -228 137q0 84 80 164h-373z" />
    <glyph glyph-name="eogonek" unicode="&#x119;" horiz-adv-x="780" 
d="M324 631h153q0 130 -18 185.5t-56 55.5q-37 0 -56 -52.5t-23 -188.5zM709 328l18 -260v-2q-94 -94 -94 -148q0 -28 19 -38t73 -15v-158q-47 -8 -109 -8q-227 0 -227 137q0 73 62 144h-9q-185 0 -297 139t-112 401v64q0 258 104 402t269 144q163 0 255.5 -143t92.5 -414
v-147h-426q10 -95 51 -136.5t110 -41.5q102 0 220 80z" />
    <glyph glyph-name="Ecaron" unicode="&#x11a;" horiz-adv-x="720" 
d="M641 1718l-152 -227h-233l-152 227h187l84 -84l82 84h184zM57 0v1434h621v-291h-313v-279h278v-286h-278v-285h319v-293h-627z" />
    <glyph glyph-name="ecaron" unicode="&#x11b;" horiz-adv-x="780" 
d="M674 1446l-160 -262h-215l-160 262h174l95 -103l94 103h172zM442 -25q-184 0 -296.5 142t-112.5 403v64q0 258 104 402t269 144q163 0 255.5 -143t92.5 -414v-147h-426q10 -95 51 -136.5t110 -41.5q102 0 220 80l18 -267q-138 -86 -285 -86zM324 631h153q0 130 -18 185.5
t-56 55.5q-37 0 -56 -52.5t-23 -188.5z" />
    <glyph glyph-name="Gbreve" unicode="&#x11e;" horiz-adv-x="882" 
d="M508 1495q-111 0 -177.5 55t-70.5 166h164q12 -67 84 -67q71 0 86 67h164q-6 -111 -72.5 -166t-177.5 -55zM522 -20q-103 0 -190 41.5t-153.5 124.5t-104 218.5t-37.5 311.5v82q0 334 142.5 515t369.5 181q132 0 233 -53v-311q-112 71 -209 71q-104 0 -163.5 -96.5
t-59.5 -298.5v-98q0 -119 15.5 -203t43 -126.5t56.5 -60.5t63 -18q9 0 25 4v305h-109v271h387v-779q-165 -81 -309 -81z" />
    <glyph glyph-name="gbreve" unicode="&#x11f;" horiz-adv-x="841" 
d="M360 -274q-146 0 -274 36v265q121 -47 248 -47q160 0 160 159v86q-43 -70 -90.5 -108.5t-116.5 -38.5q-246 0 -246 500v43q0 507 246 507q70 0 117.5 -39.5t84.5 -109.5v129h299v-967q0 -207 -102 -309q-106 -106 -326 -106zM414 344q78 0 78 238v36q0 238 -78 238
q-74 0 -74 -238v-36q0 -238 74 -238zM442 1176q-109 0 -177.5 60t-78.5 183h164q12 -88 92 -88q81 0 93 88h163q-10 -123 -78.5 -183t-177.5 -60z" />
    <glyph glyph-name="Gdotaccent" unicode="&#x120;" horiz-adv-x="882" 
d="M383 1507v226h250v-226h-250zM522 -20q-103 0 -190 41.5t-153.5 124.5t-104 218.5t-37.5 311.5v82q0 334 142.5 515t369.5 181q132 0 233 -53v-311q-112 71 -209 71q-104 0 -163.5 -96.5t-59.5 -298.5v-98q0 -119 15.5 -203t43 -126.5t56.5 -60.5t63 -18q9 0 25 4v305
h-109v271h387v-779q-165 -81 -309 -81z" />
    <glyph glyph-name="gdotaccent" unicode="&#x121;" horiz-adv-x="841" 
d="M360 -274q-146 0 -274 36v265q121 -47 248 -47q160 0 160 159v86q-43 -70 -90.5 -108.5t-116.5 -38.5q-246 0 -246 500v43q0 507 246 507q70 0 117.5 -39.5t84.5 -109.5v129h299v-967q0 -207 -102 -309q-106 -106 -326 -106zM414 344q78 0 78 238v36q0 238 -78 238
q-74 0 -74 -238v-36q0 -238 74 -238zM319 1188v235h246v-235h-246z" />
    <glyph glyph-name="Gcommaaccent" unicode="&#x122;" horiz-adv-x="882" 
d="M389 -461l-16 86q68 10 95.5 32t29.5 64h-115v199h240v-168q0 -101 -60.5 -150.5t-173.5 -62.5zM522 -20q-103 0 -190 41.5t-153.5 124.5t-104 218.5t-37.5 311.5v82q0 334 142.5 515t369.5 181q132 0 233 -53v-311q-112 71 -209 71q-104 0 -163.5 -96.5t-59.5 -298.5
v-98q0 -119 15.5 -203t43 -126.5t56.5 -60.5t63 -18q9 0 25 4v305h-109v271h387v-779q-165 -81 -309 -81z" />
    <glyph glyph-name="gcommaaccent" unicode="&#x123;" horiz-adv-x="841" 
d="M555 1569l14 -86q-67 -12 -94 -34.5t-29 -64.5h113v-196h-237v166q0 104 58.5 153t174.5 62zM360 -274q-146 0 -274 36v265q121 -47 248 -47q160 0 160 159v86q-43 -70 -90.5 -108.5t-116.5 -38.5q-246 0 -246 500v43q0 507 246 507q70 0 117.5 -39.5t84.5 -109.5v129
h299v-967q0 -207 -102 -309q-106 -106 -326 -106zM414 344q78 0 78 238v36q0 238 -78 238q-74 0 -74 -238v-36q0 -238 74 -238z" />
    <glyph glyph-name="Hbar" unicode="&#x126;" horiz-adv-x="968" 
d="M14 1047v243h72v144h307v-150h185v150h307v-144h69v-243h-69v-1047h-307v575h-185v-575h-307v1047h-72zM393 862h185v191h-185v-191z" />
    <glyph glyph-name="hbar" unicode="&#x127;" 
d="M498 1180h-146v-201q76 149 207 149q107 0 162 -74.5t55 -203.5v-850h-299v770q0 90 -61 90q-30 0 -47 -24t-17 -66v-770h-299v1174h-57v200h57v80h299v-80h146v-194z" />
    <glyph glyph-name="Imacron" unicode="&#x12a;" horiz-adv-x="428" 
d="M61 0v1434h308v-1434h-308zM-47 1497v189h530v-189h-530z" />
    <glyph glyph-name="imacron" unicode="&#x12b;" horiz-adv-x="409" 
d="M55 0v1108h299v-1108h-299zM-47 1178v184h508v-184h-508z" />
    <glyph glyph-name="Ibreve" unicode="&#x12c;" horiz-adv-x="428" 
d="M61 0v1434h308v-1434h-308zM217 1483q-111 0 -177.5 55t-70.5 166h164q12 -68 84 -68q71 0 86 68h164q-6 -111 -72.5 -166t-177.5 -55z" />
    <glyph glyph-name="ibreve" unicode="&#x12d;" horiz-adv-x="409" 
d="M55 0v1108h299v-1108h-299zM207 1163q-109 0 -177.5 60.5t-78.5 183.5h164q12 -88 92 -88t92 88h164q-10 -123 -78.5 -183.5t-177.5 -60.5z" />
    <glyph glyph-name="Iogonek" unicode="&#x12e;" horiz-adv-x="428" 
d="M61 0v1434h308v-1434h-47q-35 -51 -35 -82q0 -29 18 -38.5t74 -14.5v-158q-52 -8 -111 -8q-227 0 -227 137q0 84 80 164h-60z" />
    <glyph glyph-name="iogonek" unicode="&#x12f;" horiz-adv-x="409" 
d="M55 0v1108h299v-1108h-41q-34 -49 -34 -82q0 -29 18 -38.5t74 -14.5v-158q-52 -8 -111 -8q-227 0 -227 137q0 84 80 164h-58zM53 1192v262h303v-262h-303z" />
    <glyph glyph-name="Idotaccent" unicode="&#x130;" horiz-adv-x="428" 
d="M61 0v1434h308v-1434h-308zM92 1495v225h250v-225h-250z" />
    <glyph glyph-name="dotlessi" unicode="&#x131;" horiz-adv-x="409" 
d="M55 0v1108h299v-1108h-299z" />
    <glyph glyph-name="Kcommaaccent" unicode="&#x136;" horiz-adv-x="870" 
d="M332 -446l-17 86q68 10 95.5 32t29.5 64h-114v198h239v-167q0 -101 -60 -150.5t-173 -62.5zM57 0v1434h308v-545l172 545h321l-225 -607l231 -827h-323l-131 504l-45 -131v-373h-308z" />
    <glyph glyph-name="kcommaaccent" unicode="&#x137;" horiz-adv-x="792" 
d="M291 -446l-17 86q68 10 95.5 32t29.5 64h-114v198h239v-167q0 -101 -60 -150.5t-173 -62.5zM53 0v1454h299v-721l129 375h310l-179 -453l179 -655h-314l-90 395l-35 -92v-303h-299z" />
    <glyph glyph-name="Lacute" unicode="&#x139;" horiz-adv-x="657" 
d="M125 1491l147 242l281 -84l-217 -158h-211zM57 0v1434h308v-1141h272v-293h-580z" />
    <glyph glyph-name="lacute" unicode="&#x13a;" horiz-adv-x="409" 
d="M104 1501l148 242l280 -84l-217 -158h-211zM55 0v1454h299v-1454h-299z" />
    <glyph glyph-name="Lcommaaccent" unicode="&#x13b;" horiz-adv-x="657" 
d="M238 -451l-17 86q68 10 95.5 32.5t29.5 64.5h-115v198h240v-168q0 -101 -60 -150.5t-173 -62.5zM57 0v1434h308v-1141h272v-293h-580z" />
    <glyph glyph-name="lcommaaccent" unicode="&#x13c;" horiz-adv-x="409" 
d="M96 -451l-16 86q68 10 95.5 32.5t29.5 64.5h-115v198h240v-168q0 -101 -60.5 -150.5t-173.5 -62.5zM55 0v1454h299v-1454h-299z" />
    <glyph glyph-name="Lcaron" unicode="&#x13d;" horiz-adv-x="657" 
d="M408 1135l18 301h174v-2l-80 -299h-112zM57 0v1434h308v-1141h272v-293h-580z" />
    <glyph glyph-name="lcaron" unicode="&#x13e;" horiz-adv-x="409" 
d="M397 1153l19 301h174v-2l-80 -299h-113zM55 0v1454h299v-1454h-299z" />
    <glyph glyph-name="Ldot" unicode="&#x13f;" horiz-adv-x="657" 
d="M428 627v278h225v-278h-225zM57 0v1434h308v-1141h272v-293h-580z" />
    <glyph glyph-name="ldot" unicode="&#x140;" horiz-adv-x="632" 
d="M414 590v278h215v-278h-215zM55 0v1454h299v-1454h-299z" />
    <glyph glyph-name="Lslash" unicode="&#x141;" horiz-adv-x="686" 
d="M543 713l-150 -80v-340h273v-293h-580v467l-72 -39v307l72 37v662h307v-496l150 82v-307z" />
    <glyph glyph-name="lslash" unicode="&#x142;" horiz-adv-x="493" 
d="M481 715l-84 -47v-668h-299v502l-86 -47v293l86 47v659h299v-493l84 47v-293z" />
    <glyph glyph-name="Nacute" unicode="&#x143;" horiz-adv-x="927" 
d="M350 1489l148 242l280 -84l-217 -158h-211zM57 0v1434h295l223 -648v648h295v-1434h-280l-238 682v-682h-295z" />
    <glyph glyph-name="nacute" unicode="&#x144;" 
d="M309 1184l158 282l252 -88l-227 -194h-183zM53 0v1108h299v-129q76 149 207 149q107 0 162 -75t55 -203v-850h-299v770q0 90 -61 90q-30 0 -47 -24t-17 -66v-770h-299z" />
    <glyph glyph-name="Ncommaaccent" unicode="&#x145;" horiz-adv-x="927" 
d="M354 -446l-16 86q68 10 95.5 32t29.5 64h-115v198h240v-167q0 -101 -60.5 -150.5t-173.5 -62.5zM57 0v1434h295l223 -648v648h295v-1434h-280l-238 682v-682h-295z" />
    <glyph glyph-name="ncommaaccent" unicode="&#x146;" 
d="M305 -446l-16 86q68 10 95.5 32t29.5 64h-115v198h240v-167q0 -101 -60.5 -150.5t-173.5 -62.5zM53 0v1108h299v-129q76 149 207 149q107 0 162 -75t55 -203v-850h-299v770q0 90 -61 90q-30 0 -47 -24t-17 -66v-770h-299z" />
    <glyph glyph-name="Ncaron" unicode="&#x147;" horiz-adv-x="927" 
d="M735 1716l-151 -227h-234l-151 227h186l84 -84l82 84h184zM57 0v1434h295l223 -648v648h295v-1434h-280l-238 682v-682h-295z" />
    <glyph glyph-name="ncaron" unicode="&#x148;" 
d="M684 1446l-160 -262h-215l-159 262h174l94 -103l94 103h172zM53 0v1108h299v-129q76 149 207 149q107 0 162 -75t55 -203v-850h-299v770q0 90 -61 90q-30 0 -47 -24t-17 -66v-770h-299z" />
    <glyph glyph-name="Omacron" unicode="&#x14c;" horiz-adv-x="919" 
d="M199 1509v189h530v-189h-530zM461 -27q-200 0 -312 177.5t-112 521.5v90q0 343 112.5 520.5t311.5 177.5q197 0 309.5 -178t112.5 -520v-90q0 -344 -111.5 -521.5t-310.5 -177.5zM461 258q37 0 59 31.5t35.5 124t13.5 256.5v96q0 124 -7 206t-21.5 126.5t-33.5 62
t-46 17.5t-45.5 -17.5t-34 -61.5t-23.5 -127t-8 -206v-96q0 -123 8 -206t23.5 -127t34 -61.5t45.5 -17.5z" />
    <glyph glyph-name="omacron" unicode="&#x14d;" 
d="M160 1190v184h508v-184h-508zM412 -25q-171 0 -274 139t-103 396v86q0 257 103.5 395.5t275.5 138.5q171 0 272.5 -138t101.5 -396v-86q0 -258 -102 -396.5t-274 -138.5zM412 242q42 0 61 62t19 206v88q0 144 -19 206t-61 62t-60 -61.5t-18 -206.5v-88q0 -145 18 -206.5
t60 -61.5z" />
    <glyph glyph-name="Obreve" unicode="&#x14e;" horiz-adv-x="919" 
d="M463 1495q-111 0 -177.5 55t-70.5 166h164q12 -67 84 -67q71 0 86 67h164q-6 -111 -72.5 -166t-177.5 -55zM461 -27q-200 0 -312 177.5t-112 521.5v90q0 343 112.5 520.5t311.5 177.5q197 0 309.5 -178t112.5 -520v-90q0 -344 -111.5 -521.5t-310.5 -177.5zM461 258
q37 0 59 31.5t35.5 124t13.5 256.5v96q0 124 -7 206t-21.5 126.5t-33.5 62t-46 17.5t-45.5 -17.5t-34 -61.5t-23.5 -127t-8 -206v-96q0 -123 8 -206t23.5 -127t34 -61.5t45.5 -17.5z" />
    <glyph glyph-name="obreve" unicode="&#x14f;" 
d="M412 -25q-171 0 -274 139t-103 396v86q0 257 103.5 395.5t275.5 138.5q171 0 272.5 -138t101.5 -396v-86q0 -258 -102 -396.5t-274 -138.5zM412 242q42 0 61 62t19 206v88q0 144 -19 206t-61 62t-60 -61.5t-18 -206.5v-88q0 -145 18 -206.5t60 -61.5zM414 1176
q-109 0 -177.5 60t-78.5 183h164q12 -88 92 -88t92 88h164q-10 -123 -78.5 -183t-177.5 -60z" />
    <glyph glyph-name="Ohungarumlaut" unicode="&#x150;" horiz-adv-x="919" 
d="M461 -27q-200 0 -312 177.5t-112 521.5v90q0 343 112.5 520.5t311.5 177.5q197 0 309.5 -178t112.5 -520v-90q0 -344 -111.5 -521.5t-310.5 -177.5zM461 258q37 0 59 31.5t35.5 124t13.5 256.5v96q0 124 -7 206t-21.5 126.5t-33.5 62t-46 17.5t-45.5 -17.5t-34 -61.5
t-23.5 -127t-8 -206v-96q0 -123 8 -206t23.5 -127t34 -61.5t45.5 -17.5zM496 1503l79 133l-161 -133h-191l148 242l227 -74l45 74l244 -78l-203 -164h-188z" />
    <glyph glyph-name="ohungarumlaut" unicode="&#x151;" 
d="M197 1184l157 282l199 -75l43 75l217 -82l-213 -200h-162l88 157l-168 -157h-161zM412 -25q-171 0 -274 139t-103 396v86q0 257 103.5 395.5t275.5 138.5q171 0 272.5 -138t101.5 -396v-86q0 -258 -102 -396.5t-274 -138.5zM412 242q42 0 61 62t19 206v88q0 144 -19 206
t-61 62t-60 -61.5t-18 -206.5v-88q0 -145 18 -206.5t60 -61.5z" />
    <glyph glyph-name="OE" unicode="&#x152;" horiz-adv-x="1216" 
d="M1180 0h-609q-263 0 -398.5 173t-135.5 509v70q0 336 135.5 509t398.5 173h603v-291h-314v-279h279v-286h-279v-285h320v-293zM551 283v868q-45 0 -79.5 -19t-63 -62.5t-43.5 -123t-15 -192.5v-74q0 -115 15 -195t43.5 -123t63 -61t79.5 -18z" />
    <glyph glyph-name="oe" unicode="&#x153;" horiz-adv-x="1245" 
d="M401 -25q-161 0 -263.5 140.5t-102.5 396.5v82q0 254 103.5 395t264.5 141q156 0 242 -139q86 139 236 139q153 0 245.5 -144.5t92.5 -412.5v-147h-428q12 -95 53 -136.5t110 -41.5q99 0 220 80l18 -267q-142 -86 -274 -86q-173 0 -269 146q-87 -146 -248 -146zM788 631
h152q0 130 -18 185.5t-56 55.5t-57.5 -53.5t-20.5 -187.5zM412 242q42 0 61 62t19 206v88q0 144 -19 206t-61 62t-60 -61.5t-18 -206.5v-88q0 -145 18 -206.5t60 -61.5z" />
    <glyph glyph-name="Racute" unicode="&#x154;" horiz-adv-x="866" 
d="M57 0v1434h308q231 0 352 -121q121 -127 121 -344v-21q0 -250 -168 -381l190 -567h-328l-145 467h-25v-467h-305zM362 725h11q70 0 110.5 49t40.5 154v30q0 201 -153 201h-9v-434zM309 1491l148 242l280 -84l-217 -158h-211z" />
    <glyph glyph-name="racute" unicode="&#x155;" horiz-adv-x="544" 
d="M170 1171l158 283l252 -88l-228 -195h-182zM53 0v1108h297v-154q27 88 69 130t107 38v-358h-6q-168 0 -168 -229v-535h-299z" />
    <glyph glyph-name="Rcommaaccent" unicode="&#x156;" horiz-adv-x="866" 
d="M315 -446l-16 86q68 10 95.5 32t29.5 64h-115v198h240v-167q0 -101 -60.5 -150.5t-173.5 -62.5zM57 0v1434h308q231 0 352 -121q121 -127 121 -344v-21q0 -250 -168 -381l190 -567h-328l-145 467h-25v-467h-305zM362 725h11q70 0 110.5 49t40.5 154v30q0 201 -153 201h-9
v-434z" />
    <glyph glyph-name="rcommaaccent" unicode="&#x157;" horiz-adv-x="544" 
d="M100 -451l-16 86q68 10 95.5 32.5t29.5 64.5h-115v198h240v-168q0 -101 -60.5 -150.5t-173.5 -62.5zM53 0v1108h297v-154q27 88 69 130t107 38v-358h-6q-168 0 -168 -229v-535h-299z" />
    <glyph glyph-name="Rcaron" unicode="&#x158;" horiz-adv-x="866" 
d="M694 1718l-151 -227h-234l-151 227h186l84 -84l82 84h184zM57 0v1434h308q231 0 352 -121q121 -127 121 -344v-21q0 -250 -168 -381l190 -567h-328l-145 467h-25v-467h-305zM362 725h11q70 0 110.5 49t40.5 154v30q0 201 -153 201h-9v-434z" />
    <glyph glyph-name="rcaron" unicode="&#x159;" horiz-adv-x="544" 
d="M543 1434l-160 -263h-215l-160 263h174l94 -103l95 103h172zM53 0v1108h297v-154q27 88 69 130t107 38v-358h-6q-168 0 -168 -229v-535h-299z" />
    <glyph glyph-name="Sacute" unicode="&#x15a;" horiz-adv-x="735" 
d="M332 -18q-164 0 -289 71v307q148 -86 252 -86q55 0 86 27t31 80v2q0 36 -27 77.5t-98 112.5q-77 74 -119.5 121.5t-79 104t-51 113t-14.5 128.5v9q0 182 109 292.5t280 110.5q141 0 250 -51v-309q-117 69 -220 69q-51 0 -81.5 -26.5t-30.5 -73.5v-2q0 -38 26 -77t99 -112
q152 -148 208 -245.5t56 -231.5v-8q0 -179 -111.5 -291t-275.5 -112zM272 1503l148 242l280 -84l-217 -158h-211z" />
    <glyph glyph-name="sacute" unicode="&#x15b;" horiz-adv-x="630" 
d="M221 1184l158 282l252 -88l-228 -194h-182zM289 -25q-131 0 -258 62v285q150 -80 225 -80q72 0 72 63v2q0 26 -19 50.5t-84 86.5q-52 47 -82 78.5t-63 77.5t-47.5 97t-14.5 112v4q0 146 91.5 231.5t242.5 85.5q111 0 215 -36v-287q-118 59 -192 59q-34 0 -52 -15.5
t-18 -39.5v-2q0 -33 97 -125q6 -7 10 -10q53 -49 84 -82t61 -77.5t43.5 -94t13.5 -109.5v-4q0 -148 -92 -240t-233 -92z" />
    <glyph glyph-name="Scedilla" unicode="&#x15e;" horiz-adv-x="735" 
d="M385 -266l-266 71l127 183q-120 15 -203 65v307q148 -86 252 -86q55 0 86 27t31 80v2q0 36 -27 77.5t-98 112.5q-77 74 -119.5 121.5t-79 104t-51 113t-14.5 128.5v9q0 182 109 292.5t280 110.5q141 0 250 -51v-309q-117 69 -220 69q-51 0 -81.5 -26.5t-30.5 -73.5v-2
q0 -38 26 -77t99 -112q152 -148 208 -245.5t56 -231.5v-8q0 -142 -71 -242.5t-187 -140.5z" />
    <glyph glyph-name="scedilla" unicode="&#x15f;" horiz-adv-x="630" 
d="M340 -266l-266 71l125 179q-100 17 -168 53v285q150 -80 225 -80q72 0 72 63v2q0 26 -19 50.5t-84 86.5q-52 47 -82 78.5t-63 77.5t-47.5 97t-14.5 112v4q0 146 91.5 231.5t242.5 85.5q111 0 215 -36v-287q-118 59 -192 59q-34 0 -52 -15.5t-18 -39.5v-2q0 -33 97 -125
q6 -7 10 -10q53 -49 84 -82t61 -77.5t43.5 -94t13.5 -109.5v-4q0 -111 -53 -192t-145 -117z" />
    <glyph glyph-name="Scaron" unicode="&#x160;" horiz-adv-x="735" 
d="M332 -18q-164 0 -289 71v307q148 -86 252 -86q55 0 86 27t31 80v2q0 36 -27 77.5t-98 112.5q-77 74 -119.5 121.5t-79 104t-51 113t-14.5 128.5v9q0 182 109 292.5t280 110.5q141 0 250 -51v-309q-117 69 -220 69q-51 0 -81.5 -26.5t-30.5 -73.5v-2q0 -38 26 -77t99 -112
q152 -148 208 -245.5t56 -231.5v-8q0 -179 -111.5 -291t-275.5 -112zM653 1731l-151 -228h-234l-151 228h186l84 -84l82 84h184z" />
    <glyph glyph-name="scaron" unicode="&#x161;" horiz-adv-x="630" 
d="M596 1446l-160 -262h-215l-160 262h175l94 -103l94 103h172zM289 -25q-131 0 -258 62v285q150 -80 225 -80q72 0 72 63v2q0 26 -19 50.5t-84 86.5q-52 47 -82 78.5t-63 77.5t-47.5 97t-14.5 112v4q0 146 91.5 231.5t242.5 85.5q111 0 215 -36v-287q-118 59 -192 59
q-34 0 -52 -15.5t-18 -39.5v-2q0 -33 97 -125q6 -7 10 -10q53 -49 84 -82t61 -77.5t43.5 -94t13.5 -109.5v-4q0 -148 -92 -240t-233 -92z" />
    <glyph glyph-name="Tcommaaccent" unicode="&#x162;" horiz-adv-x="733" 
d="M258 -451l-16 86q68 10 95.5 32.5t29.5 64.5h-115v198h240v-168q0 -101 -60.5 -150.5t-173.5 -62.5zM213 0v1141h-188v293h684v-293h-189v-1141h-307z" />
    <glyph glyph-name="Tcommaaccent" unicode="&#x21a;" horiz-adv-x="733" 
d="M258 -451l-16 86q68 10 95.5 32.5t29.5 64.5h-115v198h240v-168q0 -101 -60.5 -150.5t-173.5 -62.5zM213 0v1141h-188v293h684v-293h-189v-1141h-307z" />
    <glyph glyph-name="tcommaaccent" unicode="&#x163;" horiz-adv-x="532" 
d="M174 -461l-16 86q68 10 95.5 32t29.5 64h-115v199h240v-168q0 -101 -60.5 -150.5t-173.5 -62.5zM330 -18q-246 0 -246 231v655h-61v240h61v270h299v-270h125v-240h-125v-563q0 -57 57 -57q23 0 66 16v-239q-81 -43 -176 -43z" />
    <glyph glyph-name="tcommaaccent" unicode="&#x21b;" horiz-adv-x="532" 
d="M174 -461l-16 86q68 10 95.5 32t29.5 64h-115v199h240v-168q0 -101 -60.5 -150.5t-173.5 -62.5zM330 -18q-246 0 -246 231v655h-61v240h61v270h299v-270h125v-240h-125v-563q0 -57 57 -57q23 0 66 16v-239q-81 -43 -176 -43z" />
    <glyph glyph-name="Tcaron" unicode="&#x164;" horiz-adv-x="733" 
d="M639 1718l-152 -227h-233l-152 227h187l84 -84l82 84h184zM213 0v1141h-188v293h684v-293h-189v-1141h-307z" />
    <glyph glyph-name="tcaron" unicode="&#x165;" horiz-adv-x="532" 
d="M426 1153l18 301h174v-2l-79 -299h-113zM330 -18q-246 0 -246 231v655h-61v240h61v270h299v-270h125v-240h-125v-563q0 -57 57 -57q23 0 66 16v-239q-81 -43 -176 -43z" />
    <glyph glyph-name="Umacron" unicode="&#x16a;" horiz-adv-x="894" 
d="M186 1495v188h531v-188h-531zM446 -23q-179 0 -286 113.5t-107 337.5v1006h307v-1028q0 -144 89 -144q88 0 88 144v1028h307v-1004q0 -115 -29.5 -202.5t-83.5 -142t-126 -81.5t-159 -27z" />
    <glyph glyph-name="umacron" unicode="&#x16b;" 
d="M264 -20q-107 0 -162 75t-55 203v850h299v-768q0 -43 16.5 -67.5t45.5 -24.5t46 24.5t17 67.5v768h299v-1108h-299v129q-76 -149 -207 -149zM156 1176v184h508v-184h-508z" />
    <glyph glyph-name="Ubreve" unicode="&#x16c;" horiz-adv-x="894" 
d="M451 1470q-111 0 -177.5 55.5t-70.5 166.5h164q12 -68 84 -68q71 0 86 68h163q-6 -112 -72.5 -167t-176.5 -55zM446 -23q-179 0 -286 113.5t-107 337.5v1006h307v-1028q0 -144 89 -144q88 0 88 144v1028h307v-1004q0 -115 -29.5 -202.5t-83.5 -142t-126 -81.5t-159 -27z
" />
    <glyph glyph-name="ubreve" unicode="&#x16d;" 
d="M264 -20q-107 0 -162 75t-55 203v850h299v-768q0 -43 16.5 -67.5t45.5 -24.5t46 24.5t17 67.5v768h299v-1108h-299v129q-76 -149 -207 -149zM410 1157q-109 0 -177.5 60.5t-78.5 183.5h163q12 -88 93 -88q80 0 92 88h164q-10 -123 -78.5 -183.5t-177.5 -60.5z" />
    <glyph glyph-name="Uring" unicode="&#x16e;" horiz-adv-x="894" 
d="M446 -23q-179 0 -286 113.5t-107 337.5v1006h307v-1028q0 -144 89 -144q88 0 88 144v1028h307v-1004q0 -115 -29.5 -202.5t-83.5 -142t-126 -81.5t-159 -27zM451 1464q-86 0 -141.5 52.5t-55.5 134.5q0 80 55.5 133t141.5 53t141 -52t55 -134t-55 -134.5t-141 -52.5z
M451 1561q41 0 65.5 25.5t24.5 64.5t-24.5 64.5t-65.5 25.5q-38 0 -64.5 -26t-26.5 -64t26.5 -64t64.5 -26z" />
    <glyph glyph-name="uring" unicode="&#x16f;" 
d="M410 1155q-79 0 -135 55.5t-56 139.5q0 81 56 135.5t135 54.5q81 0 135.5 -53.5t54.5 -138.5q0 -82 -55 -137.5t-135 -55.5zM410 1253q37 0 60.5 27t23.5 68t-23.5 68.5t-60.5 27.5t-60.5 -27.5t-23.5 -68.5t23.5 -68t60.5 -27zM264 -20q-107 0 -162 75t-55 203v850h299
v-768q0 -43 16.5 -67.5t45.5 -24.5t46 24.5t17 67.5v768h299v-1108h-299v129q-76 -149 -207 -149z" />
    <glyph glyph-name="Uhungarumlaut" unicode="&#x170;" horiz-adv-x="894" 
d="M446 -23q-179 0 -286 113.5t-107 337.5v1006h307v-1028q0 -144 89 -144q88 0 88 144v1028h307v-1004q0 -115 -29.5 -202.5t-83.5 -142t-126 -81.5t-159 -27zM477 1489l80 133l-162 -133h-190l147 242l228 -74l45 74l243 -78l-202 -164h-189z" />
    <glyph glyph-name="uhungarumlaut" unicode="&#x171;" 
d="M264 -20q-107 0 -162 75t-55 203v850h299v-768q0 -43 16.5 -67.5t45.5 -24.5t46 24.5t17 67.5v768h299v-1108h-299v129q-76 -149 -207 -149zM186 1169l158 283l199 -76l43 76l217 -82l-213 -201h-162l88 158l-168 -158h-162z" />
    <glyph glyph-name="Uogonek" unicode="&#x172;" horiz-adv-x="894" 
d="M610 -135v-158q-52 -8 -110 -8q-228 0 -228 137q0 76 70 152q-135 31 -212 140t-77 300v1006h307v-1028q0 -144 89 -144q88 0 88 144v1028h307v-1004q0 -194 -80.5 -304.5t-220.5 -137.5q-25 -43 -25 -70q0 -29 18 -38.5t74 -14.5z" />
    <glyph glyph-name="uogonek" unicode="&#x173;" 
d="M264 -20q-107 0 -162 75t-55 203v850h299v-768q0 -43 16.5 -67.5t45.5 -24.5t46 24.5t17 67.5v768h299v-1108h-41q-35 -51 -35 -82q0 -29 18 -38.5t74 -14.5v-158q-52 -8 -110 -8q-227 0 -227 137q0 85 79 164h-57v129q-76 -149 -207 -149z" />
    <glyph glyph-name="Wcircumflex" unicode="&#x174;" horiz-adv-x="1290" 
d="M221 -4l-223 1438h319l91 -824l108 824h264l107 -824l90 824h313l-221 -1438h-321l-103 723l-104 -723h-320zM377 1491l151 227h234l151 -227h-186l-84 84l-82 -84h-184z" />
    <glyph glyph-name="wcircumflex" unicode="&#x175;" horiz-adv-x="1124" 
d="M295 1171l162 263h213l161 -263h-176l-94 105l-94 -105h-172zM205 -4l-199 1112h299l70 -578l76 578h229l74 -578l71 578h293l-196 -1112h-271l-88 532l-88 -532h-270z" />
    <glyph glyph-name="Ycircumflex" unicode="&#x176;" horiz-adv-x="837" 
d="M266 0v535l-274 899h315l117 -504l115 504h307l-273 -899v-535h-307zM154 1489l151 227h234l151 -227h-186l-84 84l-82 -84h-184z" />
    <glyph glyph-name="ycircumflex" unicode="&#x177;" horiz-adv-x="784" 
d="M393 504l94 604h295l-317 -1374h-293v2l70 293l-238 1079h297zM127 1169l162 263h213l162 -263h-177l-94 105l-94 -105h-172z" />
    <glyph glyph-name="Ydieresis" unicode="&#x178;" horiz-adv-x="837" 
d="M266 0v535l-274 899h315l117 -504l115 504h307l-273 -899v-535h-307zM457 1493v225h239v-225h-239zM150 1493v225h237v-225h-237z" />
    <glyph glyph-name="Zacute" unicode="&#x179;" horiz-adv-x="735" 
d="M37 0v250l321 893h-311v291h653v-250l-321 -893h321v-291h-663zM264 1491l148 242l280 -84l-217 -158h-211z" />
    <glyph glyph-name="zacute" unicode="&#x17a;" horiz-adv-x="653" 
d="M227 1171l158 283l252 -88l-227 -195h-183zM25 0v215l282 643h-276v250h600v-215l-285 -641h285v-252h-606z" />
    <glyph glyph-name="Zdotaccent" unicode="&#x17b;" horiz-adv-x="735" 
d="M252 1495v225h250v-225h-250zM37 0v250l321 893h-311v291h653v-250l-321 -893h321v-291h-663z" />
    <glyph glyph-name="zdotaccent" unicode="&#x17c;" horiz-adv-x="653" 
d="M25 0v215l282 643h-276v250h600v-215l-285 -641h285v-252h-606zM211 1176v235h246v-235h-246z" />
    <glyph glyph-name="Zcaron" unicode="&#x17d;" horiz-adv-x="735" 
d="M647 1718l-151 -227h-234l-151 227h186l84 -84l82 84h184zM37 0v250l321 893h-311v291h653v-250l-321 -893h321v-291h-663z" />
    <glyph glyph-name="zcaron" unicode="&#x17e;" horiz-adv-x="653" 
d="M602 1434l-160 -263h-215l-159 263h174l94 -103l94 103h172zM25 0v215l282 643h-276v250h600v-215l-285 -641h285v-252h-606z" />
    <glyph glyph-name="uni018F" unicode="&#x18f;" horiz-adv-x="872" 
d="M92 1081l-20 289q147 84 301 84q218 0 340.5 -172.5t122.5 -513.5v-72q0 -355 -114.5 -539t-301.5 -184q-379 0 -379 711v172h487q-13 303 -188 303q-107 0 -248 -78zM426 260q104 0 104 354h-198q0 -187 23 -270.5t71 -83.5z" />
    <glyph glyph-name="Aringacute" unicode="&#x1fa;" horiz-adv-x="882" 
d="M-8 0l272 1430q-18 38 -18 83q0 80 55 132.5t141 52.5t141.5 -52.5t55.5 -132.5q0 -51 -21 -86l273 -1427h-307l-39 258h-215l-39 -258h-299zM336 1729l131 206l289 -80l-205 -126h-215zM369 520h137l-68 451zM442 1421q41 0 65.5 25.5t24.5 64.5t-25 65t-65 26
q-38 0 -64 -26.5t-26 -64.5t26 -64t64 -26z" />
    <glyph glyph-name="aringacute" unicode="&#x1fb;" horiz-adv-x="770" 
d="M279 1597l147 222l258 -72l-213 -150h-192zM242 -20q-99 0 -160.5 86.5t-61.5 242.5v35q0 178 69.5 264t186.5 86q81 0 152 -41v43q0 154 -147 154q-91 0 -203 -55v278q122 51 268 51q183 0 277 -94q102 -102 102 -307v-723h-297v104q-73 -124 -186 -124zM360 205
q29 0 49.5 24.5t20.5 71.5v170q-36 18 -65 18q-70 0 -70 -124v-41q0 -119 65 -119zM385 1174q-79 0 -134.5 55t-55.5 139q0 81 55.5 136t134.5 55q81 0 135.5 -54t54.5 -139q0 -81 -55 -136.5t-135 -55.5zM385 1272q37 0 60.5 26.5t23.5 67.5t-23.5 68.5t-60.5 27.5
t-60.5 -27.5t-23.5 -68.5t23.5 -67.5t60.5 -26.5z" />
    <glyph glyph-name="AEacute" unicode="&#x1fc;" horiz-adv-x="1196" 
d="M549 1491l147 242l281 -84l-217 -158h-211zM-20 0l344 1434h829v-291h-313v-279h278v-286h-278v-285h319v-293h-627v258h-200l-53 -258h-299zM379 520h153v613h-22z" />
    <glyph glyph-name="aeacute" unicode="&#x1fd;" horiz-adv-x="1165" 
d="M471 1171l158 283l252 -88l-228 -195h-182zM279 -20q-116 0 -187.5 88t-71.5 245v35q0 176 69.5 261t186.5 85q81 0 152 -41v43q0 154 -147 154q-91 0 -203 -55v278q124 51 268 51q156 0 242 -102q82 108 209 108q159 0 250.5 -143.5t91.5 -413.5v-147h-426
q10 -95 51 -136.5t110 -41.5q102 0 220 80l18 -267q-138 -86 -281 -86q-203 0 -309 189q-38 -84 -102.5 -134t-140.5 -50zM709 631h153q0 130 -18 185.5t-56 55.5q-37 0 -56 -52.5t-23 -188.5zM369 205q28 0 53.5 28.5t42.5 83.5q-19 89 -21 148q-46 24 -79 24
q-70 0 -70 -124v-41q0 -119 74 -119z" />
    <glyph glyph-name="Oslashacute" unicode="&#x1fe;" horiz-adv-x="919" 
d="M725 1444h145l-86 -191q99 -181 99 -491v-90q0 -344 -111.5 -521.5t-310.5 -177.5q-134 0 -234 86l-30 -69h-148l86 190q-98 182 -98 492v90q0 343 112.5 520.5t311.5 177.5q131 0 231 -86zM344 670v-80l205 497q-17 54 -37.5 75.5t-50.5 21.5q-39 0 -63 -32.5t-39 -127
t-15 -258.5v-96zM461 252q29 0 48.5 18t35 63t23 128.5t7.5 208.5v96q0 51 -2 76l-202 -496q17 -52 38 -73t52 -21zM346 1503l148 242l280 -84l-217 -158h-211z" />
    <glyph glyph-name="oslashacute" unicode="&#x1ff;" 
d="M659 1114h144l-92 -166q77 -138 77 -352v-86q0 -258 -102 -396.5t-274 -138.5q-125 0 -215 78l-33 -61h-141l90 166q-78 140 -78 352v86q0 257 103.5 395.5t275.5 138.5q124 0 213 -77zM322 506v-12l157 313q-21 67 -67 67q-90 0 -90 -274v-94zM412 231q90 0 90 275v94
v10l-158 -311q21 -68 68 -68zM309 1184l158 282l252 -88l-227 -194h-183z" />
    <glyph glyph-name="Scommaaccent" unicode="&#x218;" horiz-adv-x="735" 
d="M246 -461l-17 86q68 10 95.5 32t29.5 64h-114v199h239v-168q0 -101 -60 -150.5t-173 -62.5zM332 -18q-164 0 -289 71v307q148 -86 252 -86q55 0 86 27t31 80v2q0 36 -27 77.5t-98 112.5q-77 74 -119.5 121.5t-79 104t-51 113t-14.5 128.5v9q0 182 109 292.5t280 110.5
q141 0 250 -51v-309q-117 69 -220 69q-51 0 -81.5 -26.5t-30.5 -73.5v-2q0 -38 26 -77t99 -112q152 -148 208 -245.5t56 -231.5v-8q0 -179 -111.5 -291t-275.5 -112z" />
    <glyph glyph-name="scommaaccent" unicode="&#x219;" horiz-adv-x="630" 
d="M203 -461l-17 86q68 10 95.5 32t29.5 64h-114v199h239v-168q0 -101 -60 -150.5t-173 -62.5zM289 -25q-131 0 -258 62v285q150 -80 225 -80q72 0 72 63v2q0 26 -19 50.5t-84 86.5q-52 47 -82 78.5t-63 77.5t-47.5 97t-14.5 112v4q0 146 91.5 231.5t242.5 85.5
q111 0 215 -36v-287q-118 59 -192 59q-34 0 -52 -15.5t-18 -39.5v-2q0 -33 97 -125q6 -7 10 -10q53 -49 84 -82t61 -77.5t43.5 -94t13.5 -109.5v-4q0 -148 -92 -240t-233 -92z" />
    <glyph glyph-name="schwa" unicode="&#x259;" horiz-adv-x="780" 
d="M338 1130q186 0 299 -141.5t113 -402.5v-62q0 -258 -105 -403.5t-270 -145.5q-163 0 -255.5 143t-92.5 414v150h428q-12 94 -53.5 136t-110.5 42q-93 0 -219 -80l-19 264q131 86 285 86zM457 477h-152q0 -130 18 -185.5t56 -55.5t57.5 53.5t20.5 187.5z" />
    <glyph glyph-name="circumflex" unicode="&#x2c6;" horiz-adv-x="1024" 
d="M244 1171l162 263h212l162 -263h-176l-94 105l-94 -105h-172z" />
    <glyph glyph-name="caron" unicode="&#x2c7;" horiz-adv-x="1024" 
d="M780 1434l-159 -263h-215l-160 263h174l94 -103l94 103h172z" />
    <glyph glyph-name="breve" unicode="&#x2d8;" horiz-adv-x="1024" 
d="M512 1163q-109 0 -177.5 60.5t-78.5 183.5h164q12 -88 92 -88t92 88h164q-10 -123 -78.5 -183.5t-177.5 -60.5z" />
    <glyph glyph-name="dotaccent" unicode="&#x2d9;" horiz-adv-x="1024" 
d="M389 1176v235h246v-235h-246z" />
    <glyph glyph-name="ring" unicode="&#x2da;" horiz-adv-x="1024" 
d="M512 1161q-79 0 -134.5 55.5t-55.5 139.5q0 81 55.5 135.5t134.5 54.5q81 0 135.5 -53.5t54.5 -138.5q0 -82 -55 -137.5t-135 -55.5zM512 1260q37 0 60.5 26.5t23.5 67.5t-23.5 68.5t-60.5 27.5t-60.5 -27.5t-23.5 -68.5t23.5 -67.5t60.5 -26.5z" />
    <glyph glyph-name="ogonek" unicode="&#x2db;" horiz-adv-x="1024" 
d="M678 -135v-158q-52 -8 -111 -8q-227 0 -227 137q0 53 31 101t100 110l174 -14q-59 -72 -59 -115q0 -29 18 -38.5t74 -14.5z" />
    <glyph glyph-name="tilde" unicode="&#x2dc;" horiz-adv-x="1024" 
d="M653 1167q-47 0 -131 35q-74 31 -100 31q-24 0 -35 -15.5t-22 -58.5l-144 29q20 235 150 235q43 0 131 -37q72 -30 100 -30q24 0 35 15.5t22 58.5l144 -29q-20 -234 -150 -234z" />
    <glyph glyph-name="hungarumlaut" unicode="&#x2dd;" horiz-adv-x="1024" 
d="M203 1171l157 283l199 -76l43 76l217 -82l-213 -201h-162l88 158l-167 -158h-162z" />
    <glyph glyph-name="commaaccent" unicode="&#x326;" horiz-adv-x="1024" 
d="M403 -451l-16 86q68 10 95.5 32.5t29.5 64.5h-115v198h240v-168q0 -101 -60.5 -150.5t-173.5 -62.5z" />
    <glyph glyph-name="uni0384" unicode="&#x384;" horiz-adv-x="1024" 
d="M340 1171l92 291l244 -86l-170 -205h-166z" />
    <glyph glyph-name="uni0385" unicode="&#x385;" horiz-adv-x="1024" 
d="M659 1176v219h211v-219h-211zM154 1176v219h211v-219h-211zM399 1176l41 331l226 -39l-127 -292h-140z" />
    <glyph glyph-name="uni0386" unicode="&#x386;" horiz-adv-x="882" 
d="M-8 0l274 1438h352l273 -1438h-307l-39 258h-215l-39 -258h-299zM369 520h137l-68 451zM-37 1126l17 308h221l-97 -308h-141z" />
    <glyph glyph-name="uni0387" unicode="&#x387;" horiz-adv-x="450" 
d="M61 778v330h328v-330h-328z" />
    <glyph glyph-name="uni0388" unicode="&#x388;" horiz-adv-x="720" 
d="M-209 1126l16 308h222l-97 -308h-141zM57 0v1434h621v-291h-313v-279h278v-286h-278v-285h319v-293h-627z" />
    <glyph glyph-name="uni0389" unicode="&#x389;" horiz-adv-x="911" 
d="M57 0v1434h308v-566h184v566h307v-1434h-307v575h-184v-575h-308zM-209 1126l16 308h222l-97 -308h-141z" />
    <glyph glyph-name="uni038A" unicode="&#x38a;" horiz-adv-x="428" 
d="M61 0v1434h308v-1434h-308zM-205 1126l17 308h221l-96 -308h-142z" />
    <glyph glyph-name="uni038C" unicode="&#x38c;" horiz-adv-x="919" 
d="M-125 1135l16 307h222l-97 -307h-141zM461 -27q-200 0 -312 177.5t-112 521.5v90q0 343 112.5 520.5t311.5 177.5q197 0 309.5 -178t112.5 -520v-90q0 -344 -111.5 -521.5t-310.5 -177.5zM461 258q37 0 59 31.5t35.5 124t13.5 256.5v96q0 124 -7 206t-21.5 126.5
t-33.5 62t-46 17.5t-45.5 -17.5t-34 -61.5t-23.5 -127t-8 -206v-96q0 -123 8 -206t23.5 -127t34 -61.5t45.5 -17.5z" />
    <glyph glyph-name="uni038E" unicode="&#x38e;" horiz-adv-x="837" 
d="M266 0v535l-274 899h315l117 -504l115 504h307l-273 -899v-535h-307zM-258 1126l16 308h222l-97 -308h-141z" />
    <glyph glyph-name="uni038F" unicode="&#x38f;" horiz-adv-x="946" 
d="M475 1460q205 0 313.5 -144.5t108.5 -418.5v-27q0 -300 -158 -577h168v-293h-395v279q36 151 54 278.5t18 278.5v14q0 126 -14.5 201t-38 101t-58.5 26q-38 0 -60.5 -26.5t-35 -98.5t-12.5 -201v-14q0 -301 71 -559v-279h-397v293h170q-158 272 -158 577v27
q0 274 109.5 418.5t314.5 144.5zM-133 1137l16 307h221l-96 -307h-141z" />
    <glyph glyph-name="uni0390" unicode="&#x390;" horiz-adv-x="456" 
d="M350 1176v219h211v-219h-211zM-156 1176v219h211v-219h-211zM90 1176l41 331l225 -39l-127 -292h-139zM49 227v881h299v-807q0 -35 11 -48t42 -13q17 0 45 4v-230q-85 -30 -172 -30q-105 0 -165 59t-60 184z" />
    <glyph glyph-name="uni0391" unicode="&#x391;" horiz-adv-x="882" 
d="M-8 0l274 1438h352l273 -1438h-307l-39 258h-215l-39 -258h-299zM369 520h137l-68 451z" />
    <glyph glyph-name="uni0392" unicode="&#x392;" horiz-adv-x="858" 
d="M57 0v1434h283q264 0 385 -121q94 -94 94 -250v-16q0 -113 -53.5 -191t-136.5 -121q45 -23 78.5 -48t66 -62.5t49.5 -89t17 -115.5v-19q0 -197 -133.5 -299t-360.5 -102h-289zM520 1001v3q0 147 -151 147h-13v-305h13q70 0 110.5 39t40.5 116zM532 434v8
q0 75 -43.5 114.5t-115.5 39.5h-17v-313h17q71 0 115 39t44 112z" />
    <glyph glyph-name="uni0393" unicode="&#x393;" horiz-adv-x="657" 
d="M57 0v1434h580v-291h-272v-1143h-308z" />
    <glyph glyph-name="uni0394" unicode="&#x394;" horiz-adv-x="901" 
d="M59 0l-34 258l239 1180h375l240 -1182l-37 -256h-783zM324 287h245l-123 753z" />
    <glyph glyph-name="uni0395" unicode="&#x395;" horiz-adv-x="720" 
d="M57 0v1434h621v-291h-313v-279h278v-286h-278v-285h319v-293h-627z" />
    <glyph glyph-name="uni0396" unicode="&#x396;" horiz-adv-x="735" 
d="M37 0v250l321 893h-311v291h653v-250l-321 -893h321v-291h-663z" />
    <glyph glyph-name="uni0397" unicode="&#x397;" horiz-adv-x="911" 
d="M57 0v1434h308v-566h184v566h307v-1434h-307v575h-184v-575h-308z" />
    <glyph glyph-name="uni0398" unicode="&#x398;" horiz-adv-x="909" 
d="M455 -27q-196 0 -307 178t-111 521v90q0 344 110.5 521t307.5 177q199 0 308 -176t109 -522v-90q0 -345 -109.5 -522t-307.5 -177zM455 250q37 0 61 28t39 104.5t18 207.5h-237q3 -131 18.5 -207.5t39.5 -104.5t61 -28zM455 1186q-56 0 -85.5 -73t-33.5 -259h237
q-4 185 -33.5 258.5t-84.5 73.5z" />
    <glyph glyph-name="uni0399" unicode="&#x399;" horiz-adv-x="428" 
d="M61 0v1434h308v-1434h-308z" />
    <glyph glyph-name="uni039A" unicode="&#x39a;" horiz-adv-x="870" 
d="M57 0v1434h308v-545l172 545h321l-225 -607l231 -827h-323l-131 504l-45 -131v-373h-308z" />
    <glyph glyph-name="uni039B" unicode="&#x39b;" horiz-adv-x="860" 
d="M600 1438l268 -1438h-313l-129 862l-127 -862h-307l270 1438h338z" />
    <glyph glyph-name="uni039C" unicode="&#x39c;" horiz-adv-x="1046" 
d="M57 0v1434h297l170 -480l168 480h299v-1434h-297v768l-168 -469h-4l-170 469v-768h-295z" />
    <glyph glyph-name="uni039D" unicode="&#x39d;" horiz-adv-x="927" 
d="M57 0v1434h295l223 -648v648h295v-1434h-280l-238 682v-682h-295z" />
    <glyph glyph-name="uni039E" unicode="&#x39e;" horiz-adv-x="716" 
d="M674 1143h-631v291h631v-291zM645 578h-573v286h573v-286zM680 0h-643v293h643v-293z" />
    <glyph glyph-name="uni039F" unicode="&#x39f;" horiz-adv-x="919" 
d="M461 -27q-200 0 -312 177.5t-112 521.5v90q0 343 112.5 520.5t311.5 177.5q197 0 309.5 -178t112.5 -520v-90q0 -344 -111.5 -521.5t-310.5 -177.5zM461 258q37 0 59 31.5t35.5 124t13.5 256.5v96q0 124 -7 206t-21.5 126.5t-33.5 62t-46 17.5t-45.5 -17.5t-34 -61.5
t-23.5 -127t-8 -206v-96q0 -123 8 -206t23.5 -127t34 -61.5t45.5 -17.5z" />
    <glyph glyph-name="uni03A0" unicode="&#x3a0;" horiz-adv-x="911" 
d="M57 0v1434h799v-1434h-307v1141h-184v-1141h-308z" />
    <glyph glyph-name="uni03A1" unicode="&#x3a1;" horiz-adv-x="837" 
d="M57 0v1434h283q224 0 352.5 -122.5t128.5 -367.5v-16q0 -125 -38.5 -222t-103.5 -154.5t-143 -87.5t-165 -32h-9v-432h-305zM362 705h5q149 10 149 215v24q0 217 -147 217h-7v-456z" />
    <glyph glyph-name="uni03A3" unicode="&#x3a3;" horiz-adv-x="729" 
d="M578 717l-203 -426h319v-291h-657v250l223 467l-221 467v250h653v-291h-315z" />
    <glyph glyph-name="uni03A4" unicode="&#x3a4;" horiz-adv-x="733" 
d="M213 0v1141h-188v293h684v-293h-189v-1141h-307z" />
    <glyph glyph-name="uni03A5" unicode="&#x3a5;" horiz-adv-x="837" 
d="M266 0v535l-274 899h315l117 -504l115 504h307l-273 -899v-535h-307z" />
    <glyph glyph-name="uni03A6" unicode="&#x3a6;" horiz-adv-x="1271" 
d="M483 -27v144q-205 30 -329.5 188t-124.5 404v22q0 248 124 404t330 186v139h308v-139q205 -30 328.5 -186t123.5 -404v-22q0 -246 -123.5 -404t-328.5 -188v-144h-308zM936 713v14q0 277 -156 330v-676q156 49 156 332zM336 727v-14q0 -280 156 -332v676
q-156 -49 -156 -330z" />
    <glyph glyph-name="uni03A7" unicode="&#x3a7;" horiz-adv-x="839" 
d="M520 1434h307l-219 -703l228 -731h-320l-98 424l-107 -424h-307l225 727l-217 707h320l90 -396z" />
    <glyph glyph-name="uni03A8" unicode="&#x3a8;" horiz-adv-x="1277" 
d="M1225 1434v-656q0 -446 -430 -473v-305h-312v305q-430 26 -430 473v656h303v-666q0 -89 31 -127.5t102 -46.5v840h299v-840q71 6 102.5 45.5t31.5 128.5v666h303z" />
    <glyph glyph-name="uni03A9" unicode="&#x3a9;" horiz-adv-x="946" 
d="M475 1460q205 0 313.5 -144.5t108.5 -418.5v-27q0 -300 -158 -577h168v-293h-395v279q36 151 54 278.5t18 278.5v14q0 126 -14.5 201t-38 101t-58.5 26q-38 0 -60.5 -26.5t-35 -98.5t-12.5 -201v-14q0 -301 71 -559v-279h-397v293h170q-158 272 -158 577v27
q0 274 109.5 418.5t314.5 144.5z" />
    <glyph glyph-name="uni03AA" unicode="&#x3aa;" horiz-adv-x="428" 
d="M61 0v1434h308v-1434h-308zM252 1495v225h240v-225h-240zM-55 1495v225h237v-225h-237z" />
    <glyph glyph-name="uni03AB" unicode="&#x3ab;" horiz-adv-x="837" 
d="M266 0v535l-274 899h315l117 -504l115 504h307l-273 -899v-535h-307zM457 1493v225h239v-225h-239zM150 1493v225h237v-225h-237z" />
    <glyph glyph-name="uni03AC" unicode="&#x3ac;" horiz-adv-x="899" 
d="M348 1184l92 291l244 -86l-170 -205h-166zM889 244v-230q-92 -30 -172 -30q-174 0 -213 149q-45 -77 -96.5 -115t-120.5 -38q-246 0 -246 520v108q0 520 246 520q71 0 115 -38t87 -111v129h299v-807q0 -35 12 -48t42 -13q19 0 47 4zM414 252q41 0 59.5 59t18.5 187v112
q0 128 -18.5 187t-59.5 59q-38 0 -56 -59.5t-18 -186.5v-112q0 -127 18 -186.5t56 -59.5z" />
    <glyph glyph-name="uni03AD" unicode="&#x3ad;" horiz-adv-x="651" 
d="M274 1184l93 291l243 -86l-170 -205h-166zM557 436h-106q-69 0 -102.5 -24t-33.5 -78v-2q0 -94 109 -94q88 0 197 47v-269q-112 -41 -246 -41q-346 0 -346 310v6q0 194 178 270q-172 71 -172 256v8q0 136 92.5 220.5t259.5 84.5q124 0 225 -38v-273q-102 51 -182 51
q-113 0 -113 -96v-4q0 -94 134 -94h106v-240z" />
    <glyph glyph-name="uni03AE" unicode="&#x3ae;" 
d="M326 1184l92 291l244 -86l-170 -205h-166zM352 0h-299v1108h299v-127q76 149 207 149q107 0 162 -74.5t55 -203.5v-1118h-299v1038q0 90 -61 90q-30 0 -47 -24t-17 -66v-772z" />
    <glyph glyph-name="uni03AF" unicode="&#x3af;" horiz-adv-x="456" 
d="M113 1171l92 291l244 -86l-170 -205h-166zM49 227v881h299v-807q0 -35 11 -48t42 -13q17 0 45 4v-230q-85 -30 -172 -30q-105 0 -165 59t-60 184z" />
    <glyph glyph-name="uni03B0" unicode="&#x3b0;" 
d="M561 1174v219h211v-219h-211zM55 1174v219h211v-219h-211zM301 1174l41 331l225 -39l-127 -292h-139zM410 -25q-175 0 -269 100.5t-94 303.5v729h299v-758q0 -102 66 -102q65 0 65 102v758h299v-727q0 -200 -97.5 -303t-268.5 -103z" />
    <glyph glyph-name="uni03B1" unicode="&#x3b1;" horiz-adv-x="899" 
d="M889 244v-230q-92 -30 -172 -30q-174 0 -213 149q-45 -77 -96.5 -115t-120.5 -38q-246 0 -246 520v108q0 520 246 520q71 0 115 -38t87 -111v129h299v-807q0 -35 12 -48t42 -13q19 0 47 4zM414 252q41 0 59.5 59t18.5 187v112q0 128 -18.5 187t-59.5 59q-38 0 -56 -59.5
t-18 -186.5v-112q0 -127 18 -186.5t56 -59.5z" />
    <glyph glyph-name="uni03B2" unicode="&#x3b2;" horiz-adv-x="841" 
d="M557 -20q-74 0 -123.5 37t-93.5 114v-397h-287v1272q0 227 98.5 342.5t286.5 115.5q175 0 270 -105.5t95 -264.5v-11q0 -250 -197 -344q107 -42 159 -125.5t52 -222.5v-14q0 -188 -67 -292.5t-193 -104.5zM442 252q82 0 82 156v8q0 105 -33 148.5t-112 43.5h-31v-145
q0 -111 23 -161t71 -50zM348 1055v-217h33q75 0 102 48t27 158v9q0 159 -80 159q-42 0 -62 -37t-20 -120z" />
    <glyph glyph-name="uni03B3" unicode="&#x3b3;" horiz-adv-x="788" 
d="M545 -266h-299v270l-244 1104h301l94 -637l92 637h297l-241 -1094v-280z" />
    <glyph glyph-name="uni03B4" unicode="&#x3b4;" horiz-adv-x="825" 
d="M127 1235v219h604v-252l-260 4l100 -131q118 -136 166.5 -273.5t48.5 -316.5v-12q0 -246 -99.5 -372t-274.5 -126t-276 125.5t-101 366.5v14q0 168 49.5 306.5t175.5 271.5zM492 471v8q0 114 -18 200.5t-66 172.5q-43 -90 -60.5 -176.5t-17.5 -194.5v-8q0 -129 20.5 -181
t61.5 -52q40 0 60 51.5t20 179.5z" />
    <glyph glyph-name="uni03B5" unicode="&#x3b5;" horiz-adv-x="651" 
d="M557 436h-106q-69 0 -102.5 -24t-33.5 -78v-2q0 -94 109 -94q88 0 197 47v-269q-112 -41 -246 -41q-346 0 -346 310v6q0 194 178 270q-172 71 -172 256v8q0 136 92.5 220.5t259.5 84.5q124 0 225 -38v-273q-102 51 -182 51q-113 0 -113 -96v-4q0 -94 134 -94h106v-240z
" />
    <glyph glyph-name="uni03B6" unicode="&#x3b6;" horiz-adv-x="698" 
d="M668 182v-385h-267v191l-96 37q-146 58 -213 135.5t-67 206.5v8q0 64 21.5 136.5t74.5 186.5l233 504h-268v252h586v-233l-291 -627q-62 -139 -62 -191v-2q0 -53 27 -80t107 -57z" />
    <glyph glyph-name="uni03B7" unicode="&#x3b7;" 
d="M352 0h-299v1108h299v-127q76 149 207 149q107 0 162 -74.5t55 -203.5v-1118h-299v1038q0 90 -61 90q-30 0 -47 -24t-17 -66v-772z" />
    <glyph glyph-name="uni03B8" unicode="&#x3b8;" horiz-adv-x="829" 
d="M416 -25q-190 0 -282.5 171.5t-92.5 535.5v72q0 362 92.5 533t282.5 171q188 0 280 -171.5t92 -532.5v-72q0 -361 -92.5 -534t-279.5 -173zM416 236q45 0 63.5 76t22.5 290h-174q0 -142 10 -223.5t28.5 -112t49.5 -30.5zM416 1200q-31 0 -49.5 -30.5t-28.5 -111
t-10 -220.5h174q-4 211 -22.5 286.5t-63.5 75.5z" />
    <glyph glyph-name="uni03B9" unicode="&#x3b9;" horiz-adv-x="456" 
d="M49 227v881h299v-807q0 -35 11 -48t42 -13q17 0 45 4v-230q-85 -30 -172 -30q-105 0 -165 59t-60 184z" />
    <glyph glyph-name="uni03BA" unicode="&#x3ba;" horiz-adv-x="800" 
d="M352 1108v-412l142 412h309l-189 -477l181 -631h-314l-92 360l-37 -92v-268h-299v1108h299z" />
    <glyph glyph-name="uni03BB" unicode="&#x3bb;" horiz-adv-x="792" 
d="M301 0h-297l242 1112l-4 23q-10 40 -32.5 55.5t-62.5 15.5q-34 0 -65 -8v242q80 22 156 22q114 0 183.5 -58.5t100.5 -195.5l271 -1208h-301l-97 641z" />
    <glyph glyph-name="uni03BC" unicode="&#x3bc;" horiz-adv-x="892" 
d="M883 244v-230q-72 -30 -154 -30q-119 0 -156 102q-28 -57 -56 -77.5t-66 -20.5q-90 0 -132 112h-6q27 -122 27 -266v-100h-287v1374h299v-762q0 -44 17 -69t49 -25t48.5 25t16.5 69v762h299v-807q0 -35 12 -48t42 -13q19 0 47 4z" />
    <glyph glyph-name="uni03BD" unicode="&#x3bd;" horiz-adv-x="788" 
d="M242 -4l-240 1112h301l94 -647l92 647h297l-237 -1112h-307z" />
    <glyph glyph-name="uni03BE" unicode="&#x3be;" horiz-adv-x="686" 
d="M651 1419v-276q-90 51 -162 51q-62 0 -98.5 -39t-36.5 -115v-2q0 -81 36.5 -120t119.5 -39h78v-258h-84q-101 0 -141.5 -48t-40.5 -129v-2q0 -78 42 -126t152 -87l139 -53v-379h-266v191l-94 41q-141 60 -204.5 152t-63.5 233v8q0 125 47.5 211t158.5 131
q-172 90 -172 307v6q0 171 100.5 277t280.5 106q112 0 209 -41z" />
    <glyph glyph-name="uni03BF" unicode="&#x3bf;" 
d="M412 -25q-171 0 -274 139t-103 396v86q0 257 103.5 395.5t275.5 138.5q171 0 272.5 -138t101.5 -396v-86q0 -258 -102 -396.5t-274 -138.5zM412 242q42 0 61 62t19 206v88q0 144 -19 206t-61 62t-60 -61.5t-18 -206.5v-88q0 -145 18 -206.5t60 -61.5z" />
    <glyph glyph-name="uni03C0" unicode="&#x3c0;" horiz-adv-x="970" 
d="M543 227v602h-123v-829h-299v829h-101v279h922v-279h-100v-528q0 -35 11 -48t42 -13q17 0 45 4v-230q-85 -30 -172 -30q-105 0 -165 59t-60 184z" />
    <glyph glyph-name="uni03C1" unicode="&#x3c1;" horiz-adv-x="831" 
d="M47 -266v915q0 481 375 481q184 0 278.5 -128.5t94.5 -403.5v-90q0 -528 -246 -528q-71 0 -115.5 39t-87.5 112v-397h-299zM422 254q38 0 56 59.5t18 186.5v98q0 147 -17.5 207.5t-58.5 60.5t-58.5 -56.5t-17.5 -191.5v-118q0 -128 18.5 -187t59.5 -59z" />
    <glyph glyph-name="uni03C2" unicode="&#x3c2;" horiz-adv-x="632" 
d="M336 -203v195l-78 57q-112 82 -167.5 206t-55.5 310v31q0 255 107 392.5t280 137.5q105 0 176 -32v-291q-73 39 -127 39q-135 0 -135 -252v-12q0 -126 39 -197t129 -131l98 -70v-383h-266z" />
    <glyph glyph-name="uni03C3" unicode="&#x3c3;" horiz-adv-x="856" 
d="M412 -25q-171 0 -274 138.5t-103 394.5v67q0 263 107.5 398t312.5 135h387v-266l-168 6q60 -76 86 -160.5t26 -191.5v-7q0 -242 -101 -378t-273 -136zM412 242q42 0 61 61t19 199v80q0 144 -19 205t-61 61q-41 0 -59.5 -61t-18.5 -203v-78q0 -141 18.5 -202.5t59.5 -61.5
z" />
    <glyph glyph-name="uni03C4" unicode="&#x3c4;" horiz-adv-x="665" 
d="M643 827h-166v-518q0 -40 15.5 -54.5t52.5 -14.5q31 0 67 8v-230q-75 -34 -188 -34q-246 0 -246 258v585h-158v281h623v-281z" />
    <glyph glyph-name="uni03C5" unicode="&#x3c5;" 
d="M410 -25q-175 0 -269 100.5t-94 303.5v729h299v-758q0 -102 66 -102q65 0 65 102v758h299v-727q0 -200 -97.5 -303t-268.5 -103z" />
    <glyph glyph-name="uni03C6" unicode="&#x3c6;" horiz-adv-x="1200" 
d="M750 -266h-299v262q-189 25 -302.5 168t-113.5 377v28q0 228 114 373t302 170v342h299v-342q189 -25 303 -168.5t114 -374.5v-28q0 -229 -114.5 -374.5t-302.5 -170.5v-262zM877 547v14q0 131 -35.5 206t-100.5 93v-612q136 37 136 299zM324 561v-14q0 -128 35.5 -203.5
t99.5 -93.5v610q-135 -40 -135 -299z" />
    <glyph glyph-name="uni03C7" unicode="&#x3c7;" horiz-adv-x="800" 
d="M301 1108l98 -375l107 375h297l-232 -651l250 -723h-305l-117 438l-118 -438h-301l245 723l-227 651h303z" />
    <glyph glyph-name="uni03C8" unicode="&#x3c8;" horiz-adv-x="1198" 
d="M750 -266h-299v268q-204 12 -304 116t-100 318v672h291v-670q0 -87 26 -123.5t95 -42.5v1182h282v-1182q68 6 93.5 42.5t25.5 123.5v670h293v-672q0 -212 -100.5 -317t-302.5 -117v-268z" />
    <glyph glyph-name="uni03C9" unicode="&#x3c9;" horiz-adv-x="1220" 
d="M471 874h279v-387q0 -122 17.5 -174.5t53.5 -52.5q33 0 48.5 38t15.5 140v8q0 298 -129 662h301q63 -168 94 -325t31 -339v-2q0 -241 -82.5 -351.5t-218.5 -110.5q-99 0 -164 55t-109 160q-41 -105 -105 -160t-163 -55q-136 0 -218.5 110.5t-82.5 351.5v2q0 182 31 339
t94 325h299q-127 -358 -127 -662v-8q0 -102 15 -140t48 -38q36 0 54 53t18 174v387z" />
    <glyph glyph-name="uni03CA" unicode="&#x3ca;" horiz-adv-x="456" 
d="M233 1176v235h234v-235h-234zM-59 1176v235h231v-235h-231zM49 227v881h299v-807q0 -35 11 -48t42 -13q17 0 45 4v-230q-85 -30 -172 -30q-105 0 -165 59t-60 184z" />
    <glyph glyph-name="uni03CB" unicode="&#x3cb;" 
d="M444 1174v235h234v-235h-234zM152 1174v235h231v-235h-231zM410 -25q-175 0 -269 100.5t-94 303.5v729h299v-758q0 -102 66 -102q65 0 65 102v758h299v-727q0 -200 -97.5 -303t-268.5 -103z" />
    <glyph glyph-name="uni03CC" unicode="&#x3cc;" 
d="M324 1184l92 291l243 -86l-170 -205h-165zM412 -25q-171 0 -274 139t-103 396v86q0 257 103.5 395.5t275.5 138.5q171 0 272.5 -138t101.5 -396v-86q0 -258 -102 -396.5t-274 -138.5zM412 242q42 0 61 62t19 206v88q0 144 -19 206t-61 62t-60 -61.5t-18 -206.5v-88
q0 -145 18 -206.5t60 -61.5z" />
    <glyph glyph-name="uni03CD" unicode="&#x3cd;" 
d="M324 1169l92 291l243 -86l-170 -205h-165zM410 -25q-175 0 -269 100.5t-94 303.5v729h299v-758q0 -102 66 -102q65 0 65 102v758h299v-727q0 -200 -97.5 -303t-268.5 -103z" />
    <glyph glyph-name="uni03CE" unicode="&#x3ce;" horiz-adv-x="1220" 
d="M518 1169l92 291l244 -86l-170 -205h-166zM471 874h279v-387q0 -122 17.5 -174.5t53.5 -52.5q33 0 48.5 38t15.5 140v8q0 298 -129 662h301q63 -168 94 -325t31 -339v-2q0 -241 -82.5 -351.5t-218.5 -110.5q-99 0 -164 55t-109 160q-41 -105 -105 -160t-163 -55
q-136 0 -218.5 110.5t-82.5 351.5v2q0 182 31 339t94 325h299q-127 -358 -127 -662v-8q0 -102 15 -140t48 -38q36 0 54 53t18 174v387z" />
    <glyph glyph-name="uni0400" unicode="&#x400;" horiz-adv-x="720" 
d="M485 1491h-211l-215 158l279 84zM57 0v1434h621v-291h-313v-279h278v-286h-278v-285h319v-293h-627z" />
    <glyph glyph-name="uni0401" unicode="&#x401;" horiz-adv-x="720" 
d="M408 1495v225h239v-225h-239zM100 1495v225h238v-225h-238zM57 0v1434h621v-291h-313v-279h278v-286h-278v-285h319v-293h-627z" />
    <glyph glyph-name="uni0402" unicode="&#x402;" horiz-adv-x="1001" 
d="M705 1434v-293h-193v-217q46 6 90 6q195 0 290 -115.5t95 -374.5v-8q0 -228 -85.5 -332t-260.5 -104q-7 0 -28.5 1t-28.5 1v258h10q49 0 69.5 32.5t20.5 131.5v4q0 123 -24.5 167t-96.5 44q-23 0 -51 -4v-631h-305v1141h-180v293h678z" />
    <glyph glyph-name="uni0403" unicode="&#x403;" horiz-adv-x="657" 
d="M227 1491l148 242l280 -84l-217 -158h-211zM57 0v1434h580v-291h-272v-1143h-308z" />
    <glyph glyph-name="uni0404" unicode="&#x404;" horiz-adv-x="761" 
d="M500 -16q-98 0 -180.5 41.5t-146.5 124.5t-100 218.5t-36 311.5v72q0 147 26 265.5t70.5 198t106.5 133.5t132 77.5t148 23.5q111 0 195 -37v-307q-85 49 -166 49q-44 0 -77 -13.5t-61 -45.5t-45.5 -91.5t-23.5 -146.5h295v-274l-297 2q4 -92 20.5 -154.5t45 -95t62 -45
t79.5 -12.5q80 0 174 49v-291q-92 -53 -221 -53z" />
    <glyph glyph-name="uni0405" unicode="&#x405;" horiz-adv-x="735" 
d="M332 -18q-164 0 -289 71v307q148 -86 252 -86q55 0 86 27t31 80v2q0 36 -27 77.5t-98 112.5q-77 74 -119.5 121.5t-79 104t-51 113t-14.5 128.5v9q0 182 109 292.5t280 110.5q141 0 250 -51v-309q-117 69 -220 69q-51 0 -81.5 -26.5t-30.5 -73.5v-2q0 -38 26 -77t99 -112
q152 -148 208 -245.5t56 -231.5v-8q0 -179 -111.5 -291t-275.5 -112z" />
    <glyph glyph-name="uni0406" unicode="&#x406;" horiz-adv-x="428" 
d="M61 0v1434h308v-1434h-308z" />
    <glyph glyph-name="uni0407" unicode="&#x407;" horiz-adv-x="428" 
d="M61 0v1434h308v-1434h-308zM252 1495v225h240v-225h-240zM-55 1495v225h237v-225h-237z" />
    <glyph glyph-name="uni0408" unicode="&#x408;" horiz-adv-x="636" 
d="M223 -16q-94 0 -196 28v293q70 -24 131 -24q118 0 118 133v1020h308v-1051q0 -204 -101 -305q-94 -94 -260 -94z" />
    <glyph glyph-name="uni0409" unicode="&#x409;" horiz-adv-x="1304" 
d="M532 0v1145h-10l-243 -1145h-299l344 1434h512v-451q211 -8 331.5 -127t120.5 -352v-19q0 -122 -39 -216.5t-108.5 -152.5t-159 -87t-195.5 -29h-254zM836 272h4q65 2 104 53t39 156v21q0 108 -37.5 159.5t-103.5 51.5h-6v-441z" />
    <glyph glyph-name="uni040A" unicode="&#x40a;" horiz-adv-x="1312" 
d="M541 0v575h-176v-575h-308v1434h308v-566h176v566h303v-451q211 -8 331.5 -127t120.5 -352v-19q0 -122 -39 -216.5t-108.5 -152.5t-158.5 -87t-195 -29h-254zM844 272h4q65 2 104 53t39 156v21q0 108 -37.5 159.5t-103.5 51.5h-6v-441z" />
    <glyph glyph-name="uni040B" unicode="&#x40b;" horiz-adv-x="1032" 
d="M705 1434v-293h-193v-219q57 8 117 8q186 0 271 -95t85 -309v-526h-307v508q0 72 -22 97.5t-85 25.5q-47 0 -59 -4v-627h-305v1141h-180v293h678z" />
    <glyph glyph-name="uni040C" unicode="&#x40c;" horiz-adv-x="870" 
d="M332 1489l147 242l281 -84l-217 -158h-211zM57 0v1434h308v-570h24l148 570h321l-205 -691l213 -743h-325l-156 580h-20v-580h-308z" />
    <glyph glyph-name="uni040D" unicode="&#x40d;" horiz-adv-x="927" 
d="M578 1489h-211l-215 158l278 84zM870 0h-297v727l-219 -727h-297v1434h297v-693l205 693h311v-1434z" />
    <glyph glyph-name="uni040E" unicode="&#x40e;" horiz-adv-x="854" 
d="M434 1475q-111 0 -177.5 55t-70.5 166h164q12 -68 84 -68q71 0 86 68h164q-6 -111 -72.5 -166t-177.5 -55zM481 0h-307l107 387l-287 1047h315l125 -570l121 570h307z" />
    <glyph glyph-name="uni040F" unicode="&#x40f;" horiz-adv-x="911" 
d="M317 -231v231h-260v1434h308v-1141h184v1141h307v-1434h-260v-231h-279z" />
    <glyph glyph-name="uni0410" unicode="&#x410;" horiz-adv-x="882" 
d="M-8 0l274 1438h352l273 -1438h-307l-39 258h-215l-39 -258h-299zM369 520h137l-68 451z" />
    <glyph glyph-name="uni0411" unicode="&#x411;" horiz-adv-x="837" 
d="M57 0v1434h674v-293h-369v-234q211 -8 333 -116.5t122 -323.5v-8q0 -117 -38.5 -206t-108.5 -143.5t-162 -82t-205 -27.5h-246zM362 268h5q69 2 109 47t40 134v10q0 91 -39.5 136.5t-107.5 45.5h-7v-373z" />
    <glyph glyph-name="uni0412" unicode="&#x412;" horiz-adv-x="858" 
d="M57 0v1434h283q264 0 385 -121q94 -94 94 -250v-16q0 -113 -53.5 -191t-136.5 -121q45 -23 78.5 -48t66 -62.5t49.5 -89t17 -115.5v-19q0 -197 -133.5 -299t-360.5 -102h-289zM520 1001v3q0 147 -151 147h-13v-305h13q70 0 110.5 39t40.5 116zM532 434v8
q0 75 -43.5 114.5t-115.5 39.5h-17v-313h17q71 0 115 39t44 112z" />
    <glyph glyph-name="uni0413" unicode="&#x413;" horiz-adv-x="657" 
d="M57 0v1434h580v-291h-272v-1143h-308z" />
    <glyph glyph-name="uni0414" unicode="&#x414;" horiz-adv-x="1077" 
d="M18 295h105l225 1143h383l223 -1143h107v-526h-279v231h-485v-231h-279v526zM535 1001l-111 -714h223z" />
    <glyph glyph-name="uni0415" unicode="&#x415;" horiz-adv-x="720" 
d="M57 0v1434h621v-291h-313v-279h278v-286h-278v-285h319v-293h-627z" />
    <glyph glyph-name="uni0416" unicode="&#x416;" horiz-adv-x="1316" 
d="M8 1434h326l158 -572h20l-6 572h305l-6 -572h20l160 572h320l-213 -695l219 -739h-322l-166 580h-20l8 -580h-305l6 580h-20l-164 -580h-318l215 723z" />
    <glyph glyph-name="uni0417" unicode="&#x417;" horiz-adv-x="737" 
d="M55 1104v301q124 47 256 47q187 0 290.5 -95t103.5 -280v-10q0 -228 -193 -332q201 -88 201 -327v-11q0 -200 -112.5 -307.5t-303.5 -107.5q-136 0 -256 55v299q125 -64 219 -64q72 0 109 41t37 117v6q0 76 -40 113t-139 37h-92v270h92q181 0 181 160v4q0 143 -136 143
q-102 0 -217 -59z" />
    <glyph glyph-name="uni0418" unicode="&#x418;" horiz-adv-x="927" 
d="M870 0h-297v727l-219 -727h-297v1434h297v-693l205 693h311v-1434z" />
    <glyph glyph-name="uni0419" unicode="&#x419;" horiz-adv-x="927" 
d="M457 1475q-111 0 -177.5 55t-70.5 166h164q12 -68 84 -68q71 0 86 68h164q-6 -111 -72.5 -166t-177.5 -55zM870 0h-297v727l-219 -727h-297v1434h297v-693l205 693h311v-1434z" />
    <glyph glyph-name="uni041A" unicode="&#x41a;" horiz-adv-x="870" 
d="M57 0v1434h308v-570h24l148 570h321l-205 -691l213 -743h-325l-156 580h-20v-580h-308z" />
    <glyph glyph-name="uni041B" unicode="&#x41b;" horiz-adv-x="860" 
d="M600 1438l268 -1438h-313l-129 862l-127 -862h-307l270 1438h338z" />
    <glyph glyph-name="uni041C" unicode="&#x41c;" horiz-adv-x="1046" 
d="M57 0v1434h297l170 -480l168 480h299v-1434h-297v768l-168 -469h-4l-170 469v-768h-295z" />
    <glyph glyph-name="uni041D" unicode="&#x41d;" horiz-adv-x="911" 
d="M57 0v1434h308v-566h184v566h307v-1434h-307v575h-184v-575h-308z" />
    <glyph glyph-name="uni041E" unicode="&#x41e;" horiz-adv-x="919" 
d="M461 -27q-200 0 -312 177.5t-112 521.5v90q0 343 112.5 520.5t311.5 177.5q197 0 309.5 -178t112.5 -520v-90q0 -344 -111.5 -521.5t-310.5 -177.5zM461 258q37 0 59 31.5t35.5 124t13.5 256.5v96q0 124 -7 206t-21.5 126.5t-33.5 62t-46 17.5t-45.5 -17.5t-34 -61.5
t-23.5 -127t-8 -206v-96q0 -123 8 -206t23.5 -127t34 -61.5t45.5 -17.5z" />
    <glyph glyph-name="uni041F" unicode="&#x41f;" horiz-adv-x="911" 
d="M57 0v1434h799v-1434h-307v1141h-184v-1141h-308z" />
    <glyph glyph-name="uni0420" unicode="&#x420;" horiz-adv-x="837" 
d="M57 0v1434h283q224 0 352.5 -122.5t128.5 -367.5v-16q0 -125 -38.5 -222t-103.5 -154.5t-143 -87.5t-165 -32h-9v-432h-305zM362 705h5q149 10 149 215v24q0 217 -147 217h-7v-456z" />
    <glyph glyph-name="uni0421" unicode="&#x421;" horiz-adv-x="743" 
d="M489 -16q-97 0 -178 41.5t-143 124.5t-96.5 218.5t-34.5 311.5v72q0 147 25.5 265.5t69 198t104 133.5t129 77.5t145.5 23.5q104 0 186 -39v-309q-85 51 -155 51q-191 0 -191 -410v-53q0 -99 10 -172t26.5 -117.5t42 -71.5t52.5 -36.5t62 -9.5q68 0 159 51v-295
q-89 -55 -213 -55z" />
    <glyph glyph-name="uni0422" unicode="&#x422;" horiz-adv-x="733" 
d="M213 0v1141h-188v293h684v-293h-189v-1141h-307z" />
    <glyph glyph-name="uni0423" unicode="&#x423;" horiz-adv-x="854" 
d="M481 0h-307l107 387l-287 1047h315l125 -570l121 570h307z" />
    <glyph glyph-name="uni0424" unicode="&#x424;" horiz-adv-x="1271" 
d="M483 -27v144q-205 30 -329.5 188t-124.5 404v22q0 248 124 404t330 186v139h308v-139q205 -30 328.5 -186t123.5 -404v-22q0 -246 -123.5 -404t-328.5 -188v-144h-308zM936 713v14q0 277 -156 330v-676q156 49 156 332zM336 727v-14q0 -280 156 -332v676
q-156 -49 -156 -330z" />
    <glyph glyph-name="uni0425" unicode="&#x425;" horiz-adv-x="839" 
d="M520 1434h307l-219 -703l228 -731h-320l-98 424l-107 -424h-307l225 727l-217 707h320l90 -396z" />
    <glyph glyph-name="uni0426" unicode="&#x426;" horiz-adv-x="989" 
d="M688 -231v231h-631v1434h308v-1141h184v1141h307v-1141h111v-524h-279z" />
    <glyph glyph-name="uni0427" unicode="&#x427;" horiz-adv-x="890" 
d="M526 0v463q-47 -6 -123 -6q-188 0 -273 94t-85 309v574h307v-557q0 -73 22 -98t87 -25q42 0 65 6v674h308v-1434h-308z" />
    <glyph glyph-name="uni0428" unicode="&#x428;" horiz-adv-x="1353" 
d="M57 0v1434h305v-1141h162v1141h305v-1141h162v1141h305v-1434h-1239z" />
    <glyph glyph-name="uni0429" unicode="&#x429;" horiz-adv-x="1429" 
d="M57 0v1434h305v-1141h162v1141h305v-1141h162v1141h305v-1141h113v-524h-279v231h-1073z" />
    <glyph glyph-name="uni042A" unicode="&#x42a;" horiz-adv-x="985" 
d="M205 0v1145h-180v289h485v-451q214 -8 336.5 -127t122.5 -352v-19q0 -123 -39 -217t-109 -152t-161 -87t-199 -29h-256zM510 272h4q70 2 110 52.5t40 156.5v21q0 211 -148 211h-6v-441z" />
    <glyph glyph-name="uni042B" unicode="&#x42b;" horiz-adv-x="1245" 
d="M57 0v1434h305v-451q214 -8 336.5 -127t122.5 -352v-19q0 -123 -39 -217t-109 -152t-161 -87t-199 -29h-256zM883 0v1434h307v-1434h-307zM362 272h5q70 2 109.5 52.5t39.5 156.5v21q0 211 -147 211h-7v-441z" />
    <glyph glyph-name="uni042C" unicode="&#x42c;" horiz-adv-x="837" 
d="M57 0v1434h305v-451q214 -8 336.5 -127t122.5 -352v-19q0 -123 -39 -217t-109 -152t-161 -87t-199 -29h-256zM362 272h5q70 2 109.5 52.5t39.5 156.5v21q0 211 -147 211h-7v-441z" />
    <glyph glyph-name="uni042D" unicode="&#x42d;" horiz-adv-x="761" 
d="M125 584v274h295q-6 90 -22.5 150t-44 91.5t-59 43.5t-75.5 12q-82 0 -172 -47v291q96 51 219 51q207 0 333 -174.5t126 -521.5v-72q0 -146 -26 -264t-70.5 -198t-106.5 -134t-132 -78t-148 -24q-122 0 -201 39v305q85 -49 172 -49q91 0 143.5 66.5t63.5 240.5z" />
    <glyph glyph-name="uni042E" unicode="&#x42e;" horiz-adv-x="1302" 
d="M57 0v1434h308v-566h84q17 293 122.5 442.5t284.5 149.5q193 0 301.5 -177.5t108.5 -520.5v-90q0 -344 -108.5 -521.5t-301.5 -177.5q-180 0 -285 152t-122 450h-84v-575h-308zM856 258q31 0 50.5 30.5t32.5 124.5t13 257v96q0 162 -13 256t-32.5 125t-50.5 31t-50.5 -31
t-32.5 -125t-13 -256v-96q0 -163 13 -257t32.5 -124.5t50.5 -30.5z" />
    <glyph glyph-name="uni042F" unicode="&#x42f;" horiz-adv-x="870" 
d="M813 1434v-1434h-305v467h-25l-153 -467h-328l199 559q-168 129 -168 379v16q0 227 127.5 353.5t371.5 126.5h281zM508 1159h-8q-154 0 -154 -203v-30q0 -201 152 -201h10v434z" />
    <glyph glyph-name="uni0430" unicode="&#x430;" horiz-adv-x="770" 
d="M242 -20q-99 0 -160.5 86.5t-61.5 242.5v35q0 178 69.5 264t186.5 86q81 0 152 -41v43q0 154 -147 154q-91 0 -203 -55v278q122 51 268 51q183 0 277 -94q102 -102 102 -307v-723h-297v104q-73 -124 -186 -124zM360 205q29 0 49.5 24.5t20.5 71.5v170q-36 18 -65 18
q-70 0 -70 -124v-41q0 -119 65 -119z" />
    <glyph glyph-name="uni0431" unicode="&#x431;" 
d="M414 -25q-146 0 -234 88q-70 70 -104.5 201t-34.5 344v2q0 173 14 297t45.5 220t85.5 157t131 97t185 51l227 32v-282l-172 -25q-81 -11 -130 -27t-86.5 -51t-55.5 -91t-27 -146q47 82 106 116.5t136 34.5q288 0 288 -469v-43q0 -243 -100 -374.5t-274 -131.5zM414 238
q78 0 78 235v39q0 233 -78 233q-76 0 -76 -233v-39q0 -235 76 -235z" />
    <glyph glyph-name="uni0432" unicode="&#x432;" horiz-adv-x="788" 
d="M53 0v1108h314q393 0 393 -287v-8q0 -80 -42 -145.5t-110 -98.5q76 -31 120 -92t44 -151v-11q0 -151 -107.5 -233t-291.5 -82h-320zM338 664h27q110 0 110 110v2q0 105 -110 105h-27v-217zM338 455v-228h27q116 0 116 113v4q0 111 -116 111h-27z" />
    <glyph glyph-name="uni0433" unicode="&#x433;" horiz-adv-x="591" 
d="M53 0v1108h520v-281h-221v-827h-299z" />
    <glyph glyph-name="uni0434" unicode="&#x434;" horiz-adv-x="962" 
d="M657 1112l197 -840h94v-475h-264v203h-405v-203h-263v475h97l194 840h350zM481 758l-86 -496h170z" />
    <glyph glyph-name="uni0435" unicode="&#x435;" horiz-adv-x="780" 
d="M442 -25q-184 0 -296.5 142t-112.5 403v64q0 258 104 402t269 144q163 0 255.5 -143t92.5 -414v-147h-426q10 -95 51 -136.5t110 -41.5q102 0 220 80l18 -267q-138 -86 -285 -86zM324 631h153q0 130 -18 185.5t-56 55.5q-37 0 -56 -52.5t-23 -188.5z" />
    <glyph glyph-name="uni0436" unicode="&#x436;" horiz-adv-x="1191" 
d="M743 1108l-6 -416h25l123 416h305l-178 -535l180 -573h-313l-123 428h-21l8 -428h-292l6 428h-17l-125 -428h-307l174 551l-182 557h311l121 -416h25l-6 416h292z" />
    <glyph glyph-name="uni0437" unicode="&#x437;" horiz-adv-x="645" 
d="M33 18v273q113 -55 194 -55q111 0 111 98v2q0 52 -33.5 76t-107.5 24h-101v240h94q74 0 110 22.5t36 75.5v2q0 94 -105 94q-85 0 -190 -55v266q119 49 242 49q164 0 249.5 -79t85.5 -222v-8q0 -183 -169 -258q91 -36 132.5 -99.5t41.5 -162.5v-8q0 -149 -95 -233.5
t-262 -84.5q-128 0 -233 43z" />
    <glyph glyph-name="uni0438" unicode="&#x438;" horiz-adv-x="841" 
d="M53 0v1108h287v-506l168 506h280v-1108h-286v506l-168 -506h-281z" />
    <glyph glyph-name="uni0439" unicode="&#x439;" horiz-adv-x="841" 
d="M53 0v1108h287v-506l168 506h280v-1108h-286v506l-168 -506h-281zM422 1157q-109 0 -177.5 60.5t-78.5 183.5h164q12 -88 92 -88t92 88h164q-10 -123 -78.5 -183.5t-177.5 -60.5z" />
    <glyph glyph-name="uni043A" unicode="&#x43a;" horiz-adv-x="811" 
d="M352 1108v-414h23l125 414h309l-180 -535l180 -573h-315l-125 426h-17v-426h-299v1108h299z" />
    <glyph glyph-name="uni043B" unicode="&#x43b;" horiz-adv-x="811" 
d="M567 1112l242 -1112h-301l-105 657l-104 -657h-297l242 1112h323z" />
    <glyph glyph-name="uni043C" unicode="&#x43c;" horiz-adv-x="925" 
d="M53 0v1108h277l133 -348l133 348h276v-1108h-276v561l-131 -340h-4l-131 340v-561h-277z" />
    <glyph glyph-name="uni043D" unicode="&#x43d;" horiz-adv-x="839" 
d="M53 0v1108h299v-408h137v408h299v-1108h-299v420h-137v-420h-299z" />
    <glyph glyph-name="uni043E" unicode="&#x43e;" 
d="M412 -25q-171 0 -274 139t-103 396v86q0 257 103.5 395.5t275.5 138.5q171 0 272.5 -138t101.5 -396v-86q0 -258 -102 -396.5t-274 -138.5zM412 242q42 0 61 62t19 206v88q0 144 -19 206t-61 62t-60 -61.5t-18 -206.5v-88q0 -145 18 -206.5t60 -61.5z" />
    <glyph glyph-name="uni043F" unicode="&#x43f;" horiz-adv-x="839" 
d="M53 0v1108h735v-1108h-299v827h-137v-827h-299z" />
    <glyph glyph-name="uni0440" unicode="&#x440;" horiz-adv-x="841" 
d="M53 -266v1374h299v-131q43 73 87.5 112t115.5 39q246 0 246 -520v-108q0 -520 -246 -520q-71 0 -118 40t-85 111v-397h-299zM428 252q74 0 74 246v112q0 127 -18 186.5t-56 59.5q-41 0 -59.5 -59t-18.5 -187v-112q0 -246 78 -246z" />
    <glyph glyph-name="uni0441" unicode="&#x441;" horiz-adv-x="632" 
d="M414 -20q-179 0 -279 138t-100 400v76q0 256 105.5 394t277.5 138q105 0 180 -34v-291q-71 41 -129 41q-133 0 -133 -256v-62q0 -260 137 -260q56 0 127 47v-284q-86 -47 -186 -47z" />
    <glyph glyph-name="uni0442" unicode="&#x442;" horiz-adv-x="686" 
d="M195 0v827h-172v281h643v-281h-172v-827h-299z" />
    <glyph glyph-name="uni0443" unicode="&#x443;" horiz-adv-x="784" 
d="M393 504l94 604h295l-317 -1374h-293v2l70 293l-238 1079h297z" />
    <glyph glyph-name="uni0444" unicode="&#x444;" horiz-adv-x="1200" 
d="M750 -266h-299v262q-189 25 -302.5 168t-113.5 377v28q0 228 114 373t302 170v342h299v-342q189 -25 303 -168.5t114 -374.5v-28q0 -229 -114.5 -374.5t-302.5 -170.5v-262zM877 547v14q0 131 -35.5 206t-100.5 93v-612q136 37 136 299zM324 561v-14q0 -128 35.5 -203.5
t99.5 -93.5v610q-135 -40 -135 -299z" />
    <glyph glyph-name="uni0445" unicode="&#x445;" horiz-adv-x="774" 
d="M305 1108l80 -303l88 303h299l-207 -543l211 -565h-305l-84 322l-88 -322h-303l211 565l-205 543h303z" />
    <glyph glyph-name="uni0446" unicode="&#x446;" horiz-adv-x="905" 
d="M623 -203v203h-570v1108h299v-825h137v825h299v-836h97v-475h-262z" />
    <glyph glyph-name="uni0447" unicode="&#x447;" 
d="M471 0v338q-26 -4 -100 -4q-163 0 -245.5 75.5t-82.5 256.5v442h299v-412q0 -47 18 -66.5t62 -19.5q17 0 49 4v494h299v-1108h-299z" />
    <glyph glyph-name="uni0448" unicode="&#x448;" horiz-adv-x="1236" 
d="M53 0v1108h293v-825h125v825h295v-825h125v825h293v-1108h-1131z" />
    <glyph glyph-name="uni0449" unicode="&#x449;" horiz-adv-x="1302" 
d="M53 0v1108h293v-825h125v825h295v-825h125v825h293v-836h98v-475h-262v203h-967z" />
    <glyph glyph-name="uni044A" unicode="&#x44a;" horiz-adv-x="915" 
d="M186 0v836h-163v272h460v-299h4q87 0 159 -22t130 -67t90.5 -122t32.5 -180v-10q0 -200 -123 -304t-338 -104h-252zM483 573v-337h9q52 0 83 39t31 120v17q0 161 -112 161h-11z" />
    <glyph glyph-name="uni044B" unicode="&#x44b;" horiz-adv-x="1171" 
d="M350 1108v-299h4q87 0 159 -22t130 -67t90.5 -122t32.5 -180v-10q0 -199 -124 -303.5t-339 -104.5h-250v1108h297zM350 573v-337h8q53 0 84 39t31 120v17q0 82 -31 121.5t-84 39.5h-8zM819 0v1108h299v-1108h-299z" />
    <glyph glyph-name="uni044C" unicode="&#x44c;" horiz-adv-x="780" 
d="M53 0v1108h297v-299h4q87 0 159 -22t130 -67t90.5 -122t32.5 -180v-10q0 -199 -124 -303.5t-339 -104.5h-250zM350 236h8q53 0 84 39t31 120v17q0 82 -31 121.5t-84 39.5h-8v-337z" />
    <glyph glyph-name="uni044D" unicode="&#x44d;" horiz-adv-x="669" 
d="M92 676l250 -6q-6 104 -46 148t-112 44q-75 0 -145 -37v269q84 36 197 36q189 0 294 -138.5t105 -403.5v-66q0 -266 -111 -406.5t-309 -140.5q-103 0 -180 31v275q75 -35 149 -35q72 0 112 43t46 147l-250 -4v244z" />
    <glyph glyph-name="uni044E" unicode="&#x44e;" horiz-adv-x="1204" 
d="M352 420v-420h-299v1108h299v-410h78q20 210 118.5 321t250.5 111q170 0 270 -138t100 -396v-86q0 -259 -101 -397t-271 -138q-153 0 -252 114.5t-117 330.5h-76zM797 242q42 0 59.5 60.5t17.5 207.5v88q0 147 -17.5 207.5t-59.5 60.5q-39 0 -56.5 -61.5t-17.5 -206.5
v-88q0 -145 17.5 -206.5t56.5 -61.5z" />
    <glyph glyph-name="uni044F" unicode="&#x44f;" horiz-adv-x="811" 
d="M315 0h-313l162 428q-127 100 -127 285v10q0 84 24.5 152.5t74.5 121t134 82t195 29.5h295v-1108h-297v336h-33zM463 874h-8q-119 0 -119 -155v-6q0 -85 28 -120.5t89 -35.5h10v317z" />
    <glyph glyph-name="uni0450" unicode="&#x450;" horiz-adv-x="780" 
d="M442 -25q-184 0 -296.5 142t-112.5 403v64q0 258 104 402t269 144q163 0 255.5 -143t92.5 -414v-147h-426q10 -95 51 -136.5t110 -41.5q102 0 220 80l18 -267q-138 -86 -285 -86zM324 631h153q0 130 -18 185.5t-56 55.5q-37 0 -56 -52.5t-23 -188.5zM330 1184l-228 194
l250 88l160 -282h-182z" />
    <glyph glyph-name="uni0451" unicode="&#x451;" horiz-adv-x="780" 
d="M436 1188v235h234v-235h-234zM143 1188v235h232v-235h-232zM442 -25q-184 0 -296.5 142t-112.5 403v64q0 258 104 402t269 144q163 0 255.5 -143t92.5 -414v-147h-426q10 -95 51 -136.5t110 -41.5q102 0 220 80l18 -267q-138 -86 -285 -86zM324 631h153q0 130 -18 185.5
t-56 55.5q-37 0 -56 -52.5t-23 -188.5z" />
    <glyph glyph-name="uni0452" unicode="&#x452;" horiz-adv-x="860" 
d="M594 1098h-205v-185q97 5 103 5q162 0 244.5 -75.5t82.5 -256.5v-553q0 -165 -73 -236t-220 -71q-67 0 -94 6v209h12q43 0 59.5 17.5t16.5 66.5v530q0 47 -18.5 66.5t-61.5 19.5q-15 0 -51 -4v-637h-299v1096h-119v231h119v127h299v-127h205v-229z" />
    <glyph glyph-name="uni0453" unicode="&#x453;" horiz-adv-x="591" 
d="M203 1171l157 283l252 -88l-227 -195h-182zM53 0v1108h520v-281h-221v-827h-299z" />
    <glyph glyph-name="uni0454" unicode="&#x454;" horiz-adv-x="667" 
d="M578 676v-242l-250 2q7 -102 47 -146t112 -44q73 0 148 37v-269q-85 -39 -197 -39q-192 0 -297.5 140.5t-105.5 408.5v60q0 265 111 405.5t309 140.5q102 0 176 -30v-275q-70 37 -146 37q-71 0 -110.5 -44t-46.5 -146z" />
    <glyph glyph-name="uni0455" unicode="&#x455;" horiz-adv-x="630" 
d="M289 -25q-131 0 -258 62v285q150 -80 225 -80q72 0 72 63v2q0 26 -19 50.5t-84 86.5q-52 47 -82 78.5t-63 77.5t-47.5 97t-14.5 112v4q0 146 91.5 231.5t242.5 85.5q111 0 215 -36v-287q-118 59 -192 59q-34 0 -52 -15.5t-18 -39.5v-2q0 -33 97 -125q6 -7 10 -10
q53 -49 84 -82t61 -77.5t43.5 -94t13.5 -109.5v-4q0 -148 -92 -240t-233 -92z" />
    <glyph glyph-name="uni0456" unicode="&#x456;" horiz-adv-x="409" 
d="M53 1192v262h303v-262h-303zM55 0v1108h299v-1108h-299z" />
    <glyph glyph-name="uni0457" unicode="&#x457;" horiz-adv-x="409" 
d="M238 1176v235h233v-235h-233zM-55 1176v235h231v-235h-231zM55 0v1108h299v-1108h-299z" />
    <glyph glyph-name="uni0458" unicode="&#x458;" horiz-adv-x="409" 
d="M53 1192v262h303v-262h-303zM66 -274q-74 0 -125 10v209q8 -2 32 -2q82 0 82 84v1081h299v-1085q0 -157 -71.5 -227t-216.5 -70z" />
    <glyph glyph-name="uni0459" unicode="&#x459;" horiz-adv-x="1222" 
d="M498 0v844h-4l-201 -844h-299l295 1108h506v-299h2q88 0 161 -22.5t129 -68t87.5 -122t31.5 -178.5v-10q0 -199 -123 -303.5t-335 -104.5h-250zM795 236h4q52 0 83 39t31 120v17q0 161 -112 161h-6v-337z" />
    <glyph glyph-name="uni045A" unicode="&#x45a;" horiz-adv-x="1206" 
d="M778 1108v-299h2q88 0 161 -22.5t130 -68t89 -122t32 -178.5v-10q0 -200 -123 -304t-338 -104h-248v420h-133v-420h-297v1108h297v-408h133v408h295zM778 573v-337h6q53 0 84 39t31 120v17q0 82 -31 121.5t-84 39.5h-6z" />
    <glyph glyph-name="uni045B" unicode="&#x45b;" horiz-adv-x="860" 
d="M594 1098h-205v-185q97 5 103 5q162 0 244.5 -75.5t82.5 -256.5v-586h-299v555q0 47 -18.5 66.5t-61.5 19.5q-15 0 -51 -4v-637h-299v1096h-119v231h119v127h299v-127h205v-229z" />
    <glyph glyph-name="uni045C" unicode="&#x45c;" horiz-adv-x="811" 
d="M313 1169l158 283l252 -88l-227 -195h-183zM352 1108v-414h23l125 414h309l-180 -535l180 -573h-315l-125 426h-17v-426h-299v1108h299z" />
    <glyph glyph-name="uni045D" unicode="&#x45d;" horiz-adv-x="841" 
d="M350 1169l-227 195l250 88l159 -283h-182zM53 0v1108h287v-506l168 506h280v-1108h-286v506l-168 -506h-281z" />
    <glyph glyph-name="uni045E" unicode="&#x45e;" horiz-adv-x="784" 
d="M393 504l94 604h295l-317 -1374h-293v2l70 293l-238 1079h297zM395 1157q-109 0 -177.5 60.5t-78.5 183.5h164q12 -88 92 -88t92 88h164q-10 -123 -78.5 -183.5t-177.5 -60.5z" />
    <glyph glyph-name="uni045F" unicode="&#x45f;" horiz-adv-x="839" 
d="M291 -203v203h-238v1108h299v-825h137v825h299v-1108h-235v-203h-262z" />
    <glyph glyph-name="uni0462" unicode="&#x462;" horiz-adv-x="974" 
d="M504 1460v-153h215v-263h-215v-165q213 -8 335 -113.5t122 -314.5v-9q0 -144 -66.5 -245t-181 -149t-267.5 -48h-245v1036h-176v271h176v153h303zM504 264h12q63 2 101 46t38 128v11q0 84 -38 126.5t-101 42.5h-12v-354z" />
    <glyph glyph-name="uni0463" unicode="&#x463;" horiz-adv-x="915" 
d="M727 870h-244v-131h11q86 0 157.5 -20t128 -61.5t88 -112t31.5 -164.5v-10q0 -183 -120.5 -277t-323.5 -94h-269v866h-163v242h163v346h297v-346h244v-238zM483 514v-289h9q52 0 84 35t32 105v8q0 72 -31 106.5t-85 34.5h-9z" />
    <glyph glyph-name="uni0472" unicode="&#x472;" horiz-adv-x="909" 
d="M455 -27q-196 0 -307 178t-111 521v90q0 344 110.5 521t307.5 177q199 0 308 -176t109 -522v-90q0 -345 -109.5 -522t-307.5 -177zM455 250q37 0 61 28t39 104.5t18 207.5h-237q3 -131 18.5 -207.5t39.5 -104.5t61 -28zM455 1186q-56 0 -85.5 -73t-33.5 -259h237
q-4 185 -33.5 258.5t-84.5 73.5z" />
    <glyph glyph-name="uni0473" unicode="&#x473;" horiz-adv-x="815" 
d="M408 -25q-172 0 -272.5 138.5t-100.5 398.5v84q0 259 100.5 396.5t274.5 137.5q170 0 270 -138t100 -396v-84q0 -260 -100.5 -398.5t-271.5 -138.5zM408 227q43 0 65.5 53.5t26.5 178.5h-183q1 -124 24.5 -178t66.5 -54zM408 881q-43 0 -65 -50t-26 -169h183
q-4 119 -26.5 169t-65.5 50z" />
    <glyph glyph-name="uni0474" unicode="&#x474;" horiz-adv-x="903" 
d="M254 -4l-262 1438h315l115 -859l72 488q32 209 118 292t254 83h23v-285h-6q-47 0 -72.5 -33.5t-44.5 -138.5l-186 -985h-326z" />
    <glyph glyph-name="uni0475" unicode="&#x475;" horiz-adv-x="827" 
d="M238 -4l-236 1112h301l90 -647l49 309q15 84 37 144.5t49 99t64 61t77 31t93 8.5q25 0 53 -4v-250h-6q-46 0 -71 -32t-44 -128l-149 -704h-307z" />
    <glyph glyph-name="uni0490" unicode="&#x490;" horiz-adv-x="657" 
d="M57 0v1434h303v221h277v-512h-272v-1143h-308z" />
    <glyph glyph-name="uni0491" unicode="&#x491;" horiz-adv-x="591" 
d="M53 0v1108h264v190h256v-471h-221v-827h-299z" />
    <glyph glyph-name="uni0492" unicode="&#x492;" horiz-adv-x="686" 
d="M86 0v551h-72v213h72v670h580v-291h-273v-379h131v-213h-131v-551h-307z" />
    <glyph glyph-name="uni0493" unicode="&#x493;" horiz-adv-x="624" 
d="M86 0v401h-72v179h72v528h520v-281h-221v-247h109v-179h-109v-401h-299z" />
    <glyph glyph-name="uni0496" unicode="&#x496;" horiz-adv-x="1376" 
d="M1305 1434l-213 -695l133 -446h133v-524h-279v231h-90l-166 580h-20l8 -580h-305l6 580h-20l-164 -580h-318l215 723l-217 711h326l158 -572h20l-6 572h305l-6 -572h20l160 572h320z" />
    <glyph glyph-name="uni0497" unicode="&#x497;" horiz-adv-x="1239" 
d="M743 1108l-6 -416h25l123 416h305l-178 -535l94 -301h117v-475h-262v203h-82l-123 428h-21l8 -428h-292l6 428h-17l-125 -428h-307l174 551l-182 557h311l121 -416h25l-6 416h292z" />
    <glyph glyph-name="uni0498" unicode="&#x498;" horiz-adv-x="737" 
d="M205 -231l6 219q-103 16 -170 49v299q125 -64 219 -64q72 0 109 41t37 117v6q0 76 -40 113t-139 37h-92v270h92q181 0 181 160v4q0 143 -136 143q-102 0 -217 -59v301q124 47 256 47q187 0 290.5 -95t103.5 -280v-10q0 -228 -193 -332q201 -88 201 -327v-11
q0 -150 -63 -247t-177 -140l6 -241h-274z" />
    <glyph glyph-name="uni0499" unicode="&#x499;" horiz-adv-x="645" 
d="M33 18v273q113 -55 194 -55q111 0 111 98v2q0 52 -33.5 76t-107.5 24h-101v240h94q74 0 110 22.5t36 75.5v2q0 94 -105 94q-85 0 -190 -55v266q119 49 242 49q164 0 249.5 -79t85.5 -222v-8q0 -183 -169 -258q91 -36 132.5 -99.5t41.5 -162.5v-8q0 -109 -52 -184.5
t-147 -108.5l8 -203h-262l6 185q-85 13 -143 36z" />
    <glyph glyph-name="uni049A" unicode="&#x49a;" horiz-adv-x="933" 
d="M858 1434l-205 -691l129 -450h133v-524h-278v231h-96l-156 580h-20v-580h-308v1434h308v-570h24l148 570h321z" />
    <glyph glyph-name="uni049B" unicode="&#x49b;" horiz-adv-x="856" 
d="M352 1108v-414h23l125 414h309l-180 -535l94 -301h117v-475h-262v203h-84l-125 426h-17v-426h-299v1108h299z" />
    <glyph glyph-name="uni049C" unicode="&#x49c;" horiz-adv-x="966" 
d="M526 1257l-8 -368l141 545h293l-198 -680l207 -754h-297l-146 561l8 -344h-110l2 367h-64v-584h-297v1434h297v-576h64l-2 399h110z" />
    <glyph glyph-name="uni049D" unicode="&#x49d;" horiz-adv-x="886" 
d="M887 0h-289l-115 434l9 -284h-107l2 286h-49v-436h-285v1108h285v-426h49l-2 293h107l-11 -293h2l117 426h287l-170 -530z" />
    <glyph glyph-name="uni04A0" unicode="&#x4a0;" horiz-adv-x="1019" 
d="M25 1145v289h487v-570h25l147 570h322l-205 -691l213 -743h-326l-156 580h-20v-580h-307v1145h-180z" />
    <glyph glyph-name="uni04A1" unicode="&#x4a1;" horiz-adv-x="944" 
d="M23 836v272h462v-414h23l125 414h309l-180 -535l180 -573h-315l-125 426h-17v-426h-299v836h-163z" />
    <glyph glyph-name="uni04A2" unicode="&#x4a2;" horiz-adv-x="989" 
d="M688 -231v231h-139v575h-184v-575h-308v1434h308v-566h184v566h307v-1141h111v-524h-279z" />
    <glyph glyph-name="uni04A3" unicode="&#x4a3;" horiz-adv-x="905" 
d="M623 -203v203h-134v420h-137v-420h-299v1108h299v-408h137v408h299v-836h97v-475h-262z" />
    <glyph glyph-name="uni04A4" unicode="&#x4a4;" horiz-adv-x="1107" 
d="M541 0v575h-176v-575h-308v1434h308v-566h176v566h546v-291h-239v-1143h-307z" />
    <glyph glyph-name="uni04A5" unicode="&#x4a5;" horiz-adv-x="997" 
d="M350 1108v-408h133v408h498v-281h-201v-827h-297v420h-133v-420h-297v1108h297z" />
    <glyph glyph-name="uni04AA" unicode="&#x4aa;" horiz-adv-x="743" 
d="M299 -231l6 258q-268 146 -268 653v72q0 147 25.5 265.5t69 198t104 133.5t129 77.5t145.5 23.5q104 0 186 -39v-309q-85 51 -155 51q-191 0 -191 -410v-53q0 -99 10 -172t26.5 -117.5t42 -71.5t52.5 -36.5t62 -9.5q68 0 159 51v-295q-59 -37 -135 -49l6 -221h-274z" />
    <glyph glyph-name="uni04AB" unicode="&#x4ab;" horiz-adv-x="632" 
d="M238 -203l8 221q-101 55 -156 181.5t-55 318.5v76q0 256 105.5 394t277.5 138q105 0 180 -34v-291q-71 41 -129 41q-133 0 -133 -256v-62q0 -260 137 -260q56 0 127 47v-284q-56 -30 -108 -39l8 -191h-262z" />
    <glyph glyph-name="uni04AE" unicode="&#x4ae;" horiz-adv-x="837" 
d="M266 0v535l-274 899h315l117 -504l115 504h307l-273 -899v-535h-307z" />
    <glyph glyph-name="uni04AF" unicode="&#x4af;" horiz-adv-x="788" 
d="M545 -266h-299v270l-244 1104h301l94 -637l92 637h297l-241 -1094v-280z" />
    <glyph glyph-name="uni04B0" unicode="&#x4b0;" horiz-adv-x="837" 
d="M266 0v354h-153v213h143l-264 867h315l117 -504l115 504h307l-262 -867h143v-213h-154v-354h-307z" />
    <glyph glyph-name="uni04B1" unicode="&#x4b1;" horiz-adv-x="788" 
d="M397 471l92 637h297l-204 -928h125v-180h-162v-266h-299v266h-162v180h123l-205 928h301z" />
    <glyph glyph-name="uni04B2" unicode="&#x4b2;" horiz-adv-x="897" 
d="M516 0l-98 424l-107 -424h-307l225 727l-217 707h320l90 -396l98 396h307l-219 -703l137 -438h134v-524h-279v231h-84z" />
    <glyph glyph-name="uni04B3" unicode="&#x4b3;" horiz-adv-x="817" 
d="M305 1108l80 -303l88 303h299l-207 -543l109 -293h127v-475h-262v203h-68l-84 322l-88 -322h-303l211 565l-205 543h303z" />
    <glyph glyph-name="uni04B6" unicode="&#x4b6;" horiz-adv-x="966" 
d="M526 0v463q-47 -6 -123 -6q-188 0 -273 94t-85 309v574h307v-557q0 -73 22 -98t87 -25q42 0 65 6v674h308v-1141h112v-524h-278v231h-142z" />
    <glyph glyph-name="uni04B7" unicode="&#x4b7;" horiz-adv-x="888" 
d="M471 0v338q-26 -4 -100 -4q-163 0 -245.5 75.5t-82.5 256.5v442h299v-412q0 -47 18 -66.5t62 -19.5q17 0 49 4v494h299v-836h98v-475h-262v203h-135z" />
    <glyph glyph-name="uni04B8" unicode="&#x4b8;" horiz-adv-x="929" 
d="M575 0v465q-35 -6 -65 -6l6 -291h-115l5 289q-188 5 -274.5 99.5t-86.5 305.5v572h297v-560q0 -58 13 -84t53 -36l-7 387h115l-6 -393q34 0 65 8v678h297v-1434h-297z" />
    <glyph glyph-name="uni04B9" unicode="&#x4b9;" horiz-adv-x="866" 
d="M479 135h-102l2 199q-178 0 -257 82.5t-79 271.5v420h285v-410q0 -49 9 -68.5t42 -25.5l-2 305h102l-2 -309l51 6v502h285v-1108h-285v340q-36 -4 -51 -4z" />
    <glyph glyph-name="uni04BA" unicode="&#x4ba;" horiz-adv-x="890" 
d="M365 1434v-463q63 8 122 8q187 0 273 -95t86 -309v-575h-307v557q0 73 -22 98t-87 25q-50 0 -65 -4v-676h-308v1434h308z" />
    <glyph glyph-name="uni04BB" unicode="&#x4bb;" 
d="M53 0v1454h299v-475q76 149 207 149q107 0 162 -74.5t55 -203.5v-850h-299v770q0 90 -61 90q-30 0 -47 -24t-17 -66v-770h-299z" />
    <glyph glyph-name="uni04C0" unicode="&#x4c0;" horiz-adv-x="428" 
d="M61 0v1434h308v-1434h-308z" />
    <glyph glyph-name="uni04C1" unicode="&#x4c1;" horiz-adv-x="1316" 
d="M657 1483q-111 0 -177 55t-70 166h163q12 -68 84 -68q71 0 86 68h164q-6 -111 -72.5 -166t-177.5 -55zM8 1434h326l158 -572h20l-6 572h305l-6 -572h20l160 572h320l-213 -695l219 -739h-322l-166 580h-20l8 -580h-305l6 580h-20l-164 -580h-318l215 723z" />
    <glyph glyph-name="uni04C2" unicode="&#x4c2;" horiz-adv-x="1191" 
d="M743 1108l-6 -416h25l123 416h305l-178 -535l180 -573h-313l-123 428h-21l8 -428h-292l6 428h-17l-125 -428h-307l174 551l-182 557h311l121 -416h25l-6 416h292zM594 1163q-109 0 -177.5 60.5t-78.5 183.5h164q12 -88 92 -88t92 88h164q-10 -123 -78.5 -183.5
t-177.5 -60.5z" />
    <glyph glyph-name="uni04CF" unicode="&#x4cf;" horiz-adv-x="409" 
d="M55 0v1454h299v-1454h-299z" />
    <glyph glyph-name="uni04D0" unicode="&#x4d0;" horiz-adv-x="882" 
d="M-8 0l274 1438h352l273 -1438h-307l-39 258h-215l-39 -258h-299zM369 520h137l-68 451zM444 1495q-111 0 -177 55t-70 166h163q12 -67 84 -67q71 0 86 67h164q-6 -111 -72.5 -166t-177.5 -55z" />
    <glyph glyph-name="uni04D1" unicode="&#x4d1;" horiz-adv-x="770" 
d="M242 -20q-99 0 -160.5 86.5t-61.5 242.5v35q0 178 69.5 264t186.5 86q81 0 152 -41v43q0 154 -147 154q-91 0 -203 -55v278q122 51 268 51q183 0 277 -94q102 -102 102 -307v-723h-297v104q-73 -124 -186 -124zM360 205q29 0 49.5 24.5t20.5 71.5v170q-36 18 -65 18
q-70 0 -70 -124v-41q0 -119 65 -119zM385 1176q-109 0 -177.5 60t-78.5 183h164q12 -88 92 -88t92 88h164q-10 -123 -78.5 -183t-177.5 -60z" />
    <glyph glyph-name="uni04D2" unicode="&#x4d2;" horiz-adv-x="882" 
d="M-8 0l274 1438h352l273 -1438h-307l-39 258h-215l-39 -258h-299zM369 520h137l-68 451zM479 1507v226h240v-226h-240zM172 1507v226h238v-226h-238z" />
    <glyph glyph-name="uni04D3" unicode="&#x4d3;" horiz-adv-x="770" 
d="M242 -20q-99 0 -160.5 86.5t-61.5 242.5v35q0 178 69.5 264t186.5 86q81 0 152 -41v43q0 154 -147 154q-91 0 -203 -55v278q122 51 268 51q183 0 277 -94q102 -102 102 -307v-723h-297v104q-73 -124 -186 -124zM360 205q29 0 49.5 24.5t20.5 71.5v170q-36 18 -65 18
q-70 0 -70 -124v-41q0 -119 65 -119zM416 1188v235h233v-235h-233zM123 1188v235h231v-235h-231z" />
    <glyph glyph-name="uni04D4" unicode="&#x4d4;" horiz-adv-x="1196" 
d="M-20 0l344 1434h829v-291h-313v-279h278v-286h-278v-285h319v-293h-627v258h-200l-53 -258h-299zM379 520h153v613h-22z" />
    <glyph glyph-name="uni04D5" unicode="&#x4d5;" horiz-adv-x="1165" 
d="M279 -20q-116 0 -187.5 88t-71.5 245v35q0 176 69.5 261t186.5 85q81 0 152 -41v43q0 154 -147 154q-91 0 -203 -55v278q124 51 268 51q156 0 242 -102q82 108 209 108q159 0 250.5 -143.5t91.5 -413.5v-147h-426q10 -95 51 -136.5t110 -41.5q102 0 220 80l18 -267
q-138 -86 -281 -86q-203 0 -309 189q-38 -84 -102.5 -134t-140.5 -50zM709 631h153q0 130 -18 185.5t-56 55.5q-37 0 -56 -52.5t-23 -188.5zM369 205q28 0 53.5 28.5t42.5 83.5q-19 89 -21 148q-46 24 -79 24q-70 0 -70 -124v-41q0 -119 74 -119z" />
    <glyph glyph-name="uni04D6" unicode="&#x4d6;" horiz-adv-x="720" 
d="M373 1483q-111 0 -177.5 55t-70.5 166h164q12 -68 84 -68q71 0 86 68h164q-6 -111 -72.5 -166t-177.5 -55zM57 0v1434h621v-291h-313v-279h278v-286h-278v-285h319v-293h-627z" />
    <glyph glyph-name="uni04D7" unicode="&#x4d7;" horiz-adv-x="780" 
d="M442 -25q-184 0 -296.5 142t-112.5 403v64q0 258 104 402t269 144q163 0 255.5 -143t92.5 -414v-147h-426q10 -95 51 -136.5t110 -41.5q102 0 220 80l18 -267q-138 -86 -285 -86zM324 631h153q0 130 -18 185.5t-56 55.5q-37 0 -56 -52.5t-23 -188.5zM406 1176
q-109 0 -177.5 60t-78.5 183h163q12 -88 93 -88q80 0 92 88h164q-10 -123 -78.5 -183t-177.5 -60z" />
    <glyph glyph-name="uni04D8" unicode="&#x4d8;" horiz-adv-x="872" 
d="M92 1081l-20 289q147 84 301 84q218 0 340.5 -172.5t122.5 -513.5v-72q0 -355 -114.5 -539t-301.5 -184q-379 0 -379 711v172h487q-13 303 -188 303q-107 0 -248 -78zM426 260q104 0 104 354h-198q0 -187 23 -270.5t71 -83.5z" />
    <glyph glyph-name="uni04D9" unicode="&#x4d9;" horiz-adv-x="780" 
d="M338 1130q186 0 299 -141.5t113 -402.5v-62q0 -258 -105 -403.5t-270 -145.5q-163 0 -255.5 143t-92.5 414v150h428q-12 94 -53.5 136t-110.5 42q-93 0 -219 -80l-19 264q131 86 285 86zM457 477h-152q0 -130 18 -185.5t56 -55.5t57.5 53.5t20.5 187.5z" />
    <glyph glyph-name="uni04DC" unicode="&#x4dc;" horiz-adv-x="1316" 
d="M692 1495v225h240v-225h-240zM385 1495v225h238v-225h-238zM8 1434h326l158 -572h20l-6 572h305l-6 -572h20l160 572h320l-213 -695l219 -739h-322l-166 580h-20l8 -580h-305l6 580h-20l-164 -580h-318l215 723z" />
    <glyph glyph-name="uni04DD" unicode="&#x4dd;" horiz-adv-x="1191" 
d="M625 1176v235h233v-235h-233zM332 1176v235h231v-235h-231zM743 1108l-6 -416h25l123 416h305l-178 -535l180 -573h-313l-123 428h-21l8 -428h-292l6 428h-17l-125 -428h-307l174 551l-182 557h311l121 -416h25l-6 416h292z" />
    <glyph glyph-name="uni04DE" unicode="&#x4de;" horiz-adv-x="737" 
d="M399 1507v226h240v-226h-240zM92 1507v226h238v-226h-238zM55 1104v301q124 47 256 47q187 0 290.5 -95t103.5 -280v-10q0 -228 -193 -332q201 -88 201 -327v-11q0 -200 -112.5 -307.5t-303.5 -107.5q-136 0 -256 55v299q125 -64 219 -64q72 0 109 41t37 117v6
q0 76 -40 113t-139 37h-92v270h92q181 0 181 160v4q0 143 -136 143q-102 0 -217 -59z" />
    <glyph glyph-name="uni04DF" unicode="&#x4df;" horiz-adv-x="645" 
d="M350 1188v235h234v-235h-234zM57 1188v235h232v-235h-232zM33 18v273q113 -55 194 -55q111 0 111 98v2q0 52 -33.5 76t-107.5 24h-101v240h94q74 0 110 22.5t36 75.5v2q0 94 -105 94q-85 0 -190 -55v266q119 49 242 49q164 0 249.5 -79t85.5 -222v-8q0 -183 -169 -258
q91 -36 132.5 -99.5t41.5 -162.5v-8q0 -149 -95 -233.5t-262 -84.5q-128 0 -233 43z" />
    <glyph glyph-name="uni04E2" unicode="&#x4e2;" horiz-adv-x="927" 
d="M201 1495v188h530v-188h-530zM870 0h-297v727l-219 -727h-297v1434h297v-693l205 693h311v-1434z" />
    <glyph glyph-name="uni04E3" unicode="&#x4e3;" horiz-adv-x="841" 
d="M170 1176v184h508v-184h-508zM53 0v1108h287v-506l168 506h280v-1108h-286v506l-168 -506h-281z" />
    <glyph glyph-name="uni04E4" unicode="&#x4e4;" horiz-adv-x="927" 
d="M500 1493v225h239v-225h-239zM193 1493v225h237v-225h-237zM870 0h-297v727l-219 -727h-297v1434h297v-693l205 693h311v-1434z" />
    <glyph glyph-name="uni04E5" unicode="&#x4e5;" horiz-adv-x="841" 
d="M455 1174v235h233v-235h-233zM162 1174v235h231v-235h-231zM53 0v1108h287v-506l168 506h280v-1108h-286v506l-168 -506h-281z" />
    <glyph glyph-name="uni04E6" unicode="&#x4e6;" horiz-adv-x="919" 
d="M498 1507v226h239v-226h-239zM190 1507v226h238v-226h-238zM461 -27q-200 0 -312 177.5t-112 521.5v90q0 343 112.5 520.5t311.5 177.5q197 0 309.5 -178t112.5 -520v-90q0 -344 -111.5 -521.5t-310.5 -177.5zM461 258q37 0 59 31.5t35.5 124t13.5 256.5v96q0 124 -7 206
t-21.5 126.5t-33.5 62t-46 17.5t-45.5 -17.5t-34 -61.5t-23.5 -127t-8 -206v-96q0 -123 8 -206t23.5 -127t34 -61.5t45.5 -17.5z" />
    <glyph glyph-name="uni04E7" unicode="&#x4e7;" 
d="M444 1188v235h234v-235h-234zM152 1188v235h231v-235h-231zM412 -25q-171 0 -274 139t-103 396v86q0 257 103.5 395.5t275.5 138.5q171 0 272.5 -138t101.5 -396v-86q0 -258 -102 -396.5t-274 -138.5zM412 242q42 0 61 62t19 206v88q0 144 -19 206t-61 62t-60 -61.5
t-18 -206.5v-88q0 -145 18 -206.5t60 -61.5z" />
    <glyph glyph-name="uni04E8" unicode="&#x4e8;" horiz-adv-x="909" 
d="M455 -27q-196 0 -307 178t-111 521v90q0 344 110.5 521t307.5 177q199 0 308 -176t109 -522v-90q0 -345 -109.5 -522t-307.5 -177zM455 250q37 0 61 28t39 104.5t18 207.5h-237q3 -131 18.5 -207.5t39.5 -104.5t61 -28zM455 1186q-56 0 -85.5 -73t-33.5 -259h237
q-4 185 -33.5 258.5t-84.5 73.5z" />
    <glyph glyph-name="uni04E9" unicode="&#x4e9;" horiz-adv-x="815" 
d="M408 -25q-172 0 -272.5 138.5t-100.5 398.5v84q0 259 100.5 396.5t274.5 137.5q170 0 270 -138t100 -396v-84q0 -260 -100.5 -398.5t-271.5 -138.5zM408 227q43 0 65.5 53.5t26.5 178.5h-183q1 -124 24.5 -178t66.5 -54zM408 881q-43 0 -65 -50t-26 -169h183
q-4 119 -26.5 169t-65.5 50z" />
    <glyph glyph-name="uni04EE" unicode="&#x4ee;" horiz-adv-x="854" 
d="M170 1495v188h530v-188h-530zM481 0h-307l107 387l-287 1047h315l125 -570l121 570h307z" />
    <glyph glyph-name="uni04EF" unicode="&#x4ef;" horiz-adv-x="784" 
d="M393 504l94 604h295l-317 -1374h-293v2l70 293l-238 1079h297zM141 1176v184h508v-184h-508z" />
    <glyph glyph-name="uni04F0" unicode="&#x4f0;" horiz-adv-x="854" 
d="M469 1493v225h240v-225h-240zM162 1493v225h237v-225h-237zM481 0h-307l107 387l-287 1047h315l125 -570l121 570h307z" />
    <glyph glyph-name="uni04F1" unicode="&#x4f1;" horiz-adv-x="784" 
d="M393 504l94 604h295l-317 -1374h-293v2l70 293l-238 1079h297zM426 1174v235h233v-235h-233zM133 1174v235h232v-235h-232z" />
    <glyph glyph-name="uni04F2" unicode="&#x4f2;" horiz-adv-x="854" 
d="M481 0h-307l107 387l-287 1047h315l125 -570l121 570h307zM467 1489l80 133l-162 -133h-190l147 242l227 -74l45 74l244 -78l-203 -164h-188z" />
    <glyph glyph-name="uni04F3" unicode="&#x4f3;" horiz-adv-x="784" 
d="M393 504l94 604h295l-317 -1374h-293v2l70 293l-238 1079h297zM178 1169l158 283l199 -76l43 76l217 -82l-213 -201h-162l88 158l-168 -158h-162z" />
    <glyph glyph-name="uni04F4" unicode="&#x4f4;" horiz-adv-x="890" 
d="M526 0v463q-47 -6 -123 -6q-188 0 -273 94t-85 309v574h307v-557q0 -73 22 -98t87 -25q42 0 65 6v674h308v-1434h-308zM475 1493v225h240v-225h-240zM168 1493v225h238v-225h-238z" />
    <glyph glyph-name="uni04F5" unicode="&#x4f5;" 
d="M438 1174v235h234v-235h-234zM145 1174v235h232v-235h-232zM471 0v338q-26 -4 -100 -4q-163 0 -245.5 75.5t-82.5 256.5v442h299v-412q0 -47 18 -66.5t62 -19.5q17 0 49 4v494h299v-1108h-299z" />
    <glyph glyph-name="uni04F8" unicode="&#x4f8;" horiz-adv-x="1245" 
d="M57 0v1434h305v-451q214 -8 336.5 -127t122.5 -352v-19q0 -123 -39 -217t-109 -152t-161 -87t-199 -29h-256zM883 0v1434h307v-1434h-307zM362 272h5q70 2 109.5 52.5t39.5 156.5v21q0 211 -147 211h-7v-441zM657 1495v225h240v-225h-240zM350 1495v225h238v-225h-238z
" />
    <glyph glyph-name="uni04F9" unicode="&#x4f9;" horiz-adv-x="1171" 
d="M614 1176v235h234v-235h-234zM322 1176v235h231v-235h-231zM350 1108v-299h4q87 0 159 -22t130 -67t90.5 -122t32.5 -180v-10q0 -199 -124 -303.5t-339 -104.5h-250v1108h297zM350 573v-337h8q53 0 84 39t31 120v17q0 82 -31 121.5t-84 39.5h-8zM819 0v1108h299v-1108
h-299z" />
    <glyph glyph-name="Wgrave" unicode="&#x1e80;" horiz-adv-x="1290" 
d="M756 1491h-211l-215 158l278 84zM221 -4l-223 1438h319l91 -824l108 824h264l107 -824l90 824h313l-221 -1438h-321l-103 723l-104 -723h-320z" />
    <glyph glyph-name="wgrave" unicode="&#x1e81;" horiz-adv-x="1124" 
d="M205 -4l-199 1112h299l70 -578l76 578h229l74 -578l71 578h293l-196 -1112h-271l-88 532l-88 -532h-270zM489 1171l-227 195l250 88l160 -283h-183z" />
    <glyph glyph-name="Wacute" unicode="&#x1e82;" horiz-adv-x="1290" 
d="M530 1491l148 242l280 -84l-217 -158h-211zM221 -4l-223 1438h319l91 -824l108 824h264l107 -824l90 824h313l-221 -1438h-321l-103 723l-104 -723h-320z" />
    <glyph glyph-name="wacute" unicode="&#x1e83;" horiz-adv-x="1124" 
d="M457 1171l157 283l252 -88l-227 -195h-182zM205 -4l-199 1112h299l70 -578l76 578h229l74 -578l71 578h293l-196 -1112h-271l-88 532l-88 -532h-270z" />
    <glyph glyph-name="Wdieresis" unicode="&#x1e84;" horiz-adv-x="1290" 
d="M678 1495v225h240v-225h-240zM371 1495v225h237v-225h-237zM221 -4l-223 1438h319l91 -824l108 824h264l107 -824l90 824h313l-221 -1438h-321l-103 723l-104 -723h-320z" />
    <glyph glyph-name="wdieresis" unicode="&#x1e85;" horiz-adv-x="1124" 
d="M592 1176v235h233v-235h-233zM299 1176v235h231v-235h-231zM205 -4l-199 1112h299l70 -578l76 578h229l74 -578l71 578h293l-196 -1112h-271l-88 532l-88 -532h-270z" />
    <glyph glyph-name="Ygrave" unicode="&#x1ef2;" horiz-adv-x="837" 
d="M266 0v535l-274 899h315l117 -504l115 504h307l-273 -899v-535h-307zM535 1489h-211l-215 158l278 84z" />
    <glyph glyph-name="ygrave" unicode="&#x1ef3;" horiz-adv-x="784" 
d="M393 504l94 604h295l-317 -1374h-293v2l70 293l-238 1079h297zM319 1169l-227 195l250 88l160 -283h-183z" />
    <glyph glyph-name="enspace" unicode="&#x2002;" horiz-adv-x="1024" 
 />
    <glyph glyph-name="emspace" unicode="&#x2003;" horiz-adv-x="2048" 
 />
    <glyph glyph-name="threeperemspace" unicode="&#x2004;" horiz-adv-x="681" 
 />
    <glyph glyph-name="fourperemspace" unicode="&#x2005;" horiz-adv-x="512" 
 />
    <glyph glyph-name="thinspace" unicode="&#x2009;" horiz-adv-x="239" 
 />
    <glyph glyph-name="hairspace" unicode="&#x200a;" horiz-adv-x="129" 
 />
    <glyph glyph-name="endash" unicode="&#x2013;" horiz-adv-x="917" 
d="M55 500v280h807v-280h-807z" />
    <glyph glyph-name="emdash" unicode="&#x2014;" horiz-adv-x="1376" 
d="M55 500v280h1266v-280h-1266z" />
    <glyph glyph-name="quoteleft" unicode="&#x2018;" horiz-adv-x="448" 
d="M57 809v268q0 315 330 365l25 -117q-98 -23 -141.5 -73t-43.5 -113h158v-330h-328z" />
    <glyph glyph-name="quoteright" unicode="&#x2019;" horiz-adv-x="448" 
d="M61 801l-24 117q98 23 141 73t43 113h-158v330h328v-269q0 -314 -330 -364z" />
    <glyph glyph-name="quotesinglbase" unicode="&#x201a;" horiz-adv-x="440" 
d="M55 -303l-26 117q98 23 142 73.5t42 112.5h-156v332h328v-271q0 -314 -330 -364z" />
    <glyph glyph-name="quotedblleft" unicode="&#x201c;" horiz-adv-x="839" 
d="M459 809v268q0 315 319 365l27 -117q-98 -23 -141 -73t-43 -113h155v-330h-317zM57 809v268q0 315 320 365l26 -117q-98 -23 -141 -73t-43 -113h156v-330h-318z" />
    <glyph glyph-name="quotedblright" unicode="&#x201d;" horiz-adv-x="839" 
d="M463 801l-25 117q97 23 141 73.5t42 112.5h-156v330h319v-269q0 -314 -321 -364zM61 801l-24 117q97 23 140.5 73.5t41.5 112.5h-156v330h320v-269q0 -314 -322 -364z" />
    <glyph glyph-name="quotedblbase" unicode="&#x201e;" horiz-adv-x="833" 
d="M457 -303l-27 117q98 23 141 73t43 113h-155v332h317v-271q0 -314 -319 -364zM55 -303l-26 117q98 23 141 73t43 113h-156v332h318v-271q0 -314 -320 -364z" />
    <glyph glyph-name="dagger" unicode="&#x2020;" horiz-adv-x="530" 
d="M168 487l29 537l-158 -18v200l156 -20l-35 248h211l-33 -248l154 20v-200l-156 18l29 -537h-197z" />
    <glyph glyph-name="daggerdbl" unicode="&#x2021;" horiz-adv-x="540" 
d="M166 0l33 248l-154 -19v201l158 -20l-35 307l35 307l-158 -18v200l154 -20l-33 248h211l-35 -248l156 20v-200l-160 18l35 -307l-35 -307l160 20v-201l-156 19l35 -248h-211z" />
    <glyph glyph-name="bullet" unicode="&#x2022;" horiz-adv-x="745" 
d="M373 375q-112 0 -180 85t-68 245v40q0 161 67.5 245.5t180.5 84.5t180.5 -84.5t67.5 -245.5v-40q0 -160 -68 -245t-180 -85z" />
    <glyph glyph-name="ellipsis" unicode="&#x2026;" horiz-adv-x="1402" 
d="M1010 0v332h327v-332h-327zM539 0v332h327v-332h-327zM68 0v332h327v-332h-327z" />
    <glyph glyph-name="perthousand" unicode="&#x2030;" horiz-adv-x="1712" 
d="M279 827q28 0 41.5 41.5t13.5 145.5v65q0 104 -13.5 146.5t-41.5 42.5q-30 0 -42 -41t-12 -148v-65q0 -107 12 -147t42 -40zM279 647q-111 0 -174.5 97t-63.5 284v37q0 188 63.5 285.5t174.5 97.5q112 0 175.5 -97.5t63.5 -285.5v-37q0 -184 -65 -282.5t-174 -98.5z
M1014 1434l-350 -732l-326 -702h-164l348 731l328 703h164zM901 168q28 0 41.5 41t13.5 145v66q0 104 -13.5 146t-41.5 42q-30 0 -41.5 -40.5t-11.5 -147.5v-66q0 -107 11.5 -146.5t41.5 -39.5zM901 -14q-111 0 -174 98t-63 285v37q0 184 65 283t172 99q112 0 176 -97.5
t64 -284.5v-37q0 -186 -64.5 -284.5t-175.5 -98.5zM1434 168q28 0 40.5 40.5t12.5 145.5v66q0 105 -13 146.5t-40 41.5q-30 0 -43 -41t-13 -147v-66q0 -106 13 -146t43 -40zM1434 -14q-111 0 -175.5 98.5t-64.5 284.5v37q0 184 65.5 283t174.5 99q111 0 174 -97t63 -285v-37
q0 -187 -63 -285t-174 -98z" />
    <glyph glyph-name="guilsinglleft" unicode="&#x2039;" horiz-adv-x="516" 
d="M295 90l-262 442v43l262 443l188 -88l-174 -373l178 -375z" />
    <glyph glyph-name="guilsinglright" unicode="&#x203a;" horiz-adv-x="516" 
d="M221 90l-188 90l174 373l-178 375l192 90l262 -443v-43z" />
    <glyph glyph-name="Euro" unicode="&#x20ac;" horiz-adv-x="811" 
d="M768 1415v-305q-88 51 -158 51q-124 0 -168 -174h213v-207h-233v-6v-112h233v-207h-217q22 -99 66 -141t106 -40q70 0 164 52v-291q-93 -55 -217 -55q-159 0 -274 120t-150 353h-108v209h94v116v2h-94v209h110q20 118 64.5 209t104 145.5t127.5 82.5t140 28
q115 0 197 -39z" />
    <glyph glyph-name="hryvnia" unicode="&#x20b4;" horiz-adv-x="815" 
d="M47 852l12 109l306 -50v2q77 95 77 154v2q0 98 -112 98q-89 0 -205 -61v295q122 51 250 51q181 0 278 -94.5t97 -257.5v-8q0 -116 -64 -234l107 -16l-11 -109l-159 25q-15 -15 -35 -43v-2l-43 -54l225 -36l-10 -109l-295 47l-4 -6v-2q-94 -108 -94 -182v-2
q0 -103 116 -103q95 0 234 74v-297q-125 -61 -271 -61q-188 0 -287.5 98t-99.5 268v4q0 122 78 262l-112 19l12 108l168 -28q18 24 20 26v2l60 72z" />
    <glyph glyph-name="numero" unicode="&#x2116;" horiz-adv-x="1398" 
d="M57 0v1434h275l170 -627v627h274v-1434h-262l-182 664v-664h-275zM1106 573q-117 0 -186.5 103t-69.5 299v72q0 197 69.5 300t188.5 103q117 0 186.5 -103t69.5 -300v-72q0 -197 -69.5 -299.5t-188.5 -102.5zM1106 770q29 0 40 45.5t11 157.5v76q0 112 -11 157t-40 45
q-26 0 -37.5 -46t-11.5 -156v-76q0 -110 11.5 -156.5t37.5 -46.5zM860 305v195h490v-195h-490z" />
    <glyph glyph-name="published" unicode="&#x2117;" horiz-adv-x="1054" 
d="M528 -27q-221 0 -356 192t-135 517v70q0 325 135 516.5t356 191.5q219 0 354.5 -192t135.5 -516v-70q0 -324 -135.5 -516.5t-354.5 -192.5zM528 49q192 0 302 171t110 460v74q0 291 -110 461.5t-302 170.5q-195 0 -304 -170t-109 -462v-74q0 -290 109.5 -460.5
t303.5 -170.5zM342 313v826h164q129 0 203.5 -69.5t74.5 -211.5v-12q0 -73 -22 -129t-60 -88t-82.5 -49t-95.5 -19h-4v-248h-178zM520 719h2q84 3 84 123v14q0 125 -82 125h-4v-262z" />
    <glyph glyph-name="servicemark" unicode="&#x2120;" horiz-adv-x="905" 
d="M403 788v646h148l76 -199l75 199h150v-646h-145v345l-78 -207h-4l-76 207v-345h-146zM170 782q-83 0 -139 33v148q73 -41 123 -41q49 0 49 41q0 18 -12 33.5t-44 43.5q-71 62 -97.5 103.5t-26.5 109.5q0 83 49.5 135t130.5 52q73 0 127 -23v-149q-54 32 -109 32
q-47 0 -47 -38q0 -18 10.5 -32t44.5 -46q70 -60 97.5 -105t27.5 -108q0 -87 -54 -138t-130 -51z" />
    <glyph glyph-name="trademark" unicode="&#x2122;" horiz-adv-x="899" 
d="M397 788v646h150l76 -199l75 199h148v-646h-144v345l-79 -207h-2l-78 207v-345h-146zM111 788v500h-88v146h327v-146h-88v-500h-151z" />
    <glyph glyph-name="Omega" unicode="&#x2126;" horiz-adv-x="946" 
d="M475 1460q205 0 313.5 -144.5t108.5 -418.5v-27q0 -300 -158 -577h168v-293h-395v279q36 151 54 278.5t18 278.5v14q0 126 -14.5 201t-38 101t-58.5 26q-38 0 -60.5 -26.5t-35 -98.5t-12.5 -201v-14q0 -301 71 -559v-279h-397v293h170q-158 272 -158 577v27
q0 274 109.5 418.5t314.5 144.5z" />
    <glyph glyph-name="Delta" unicode="&#x2206;" horiz-adv-x="901" 
d="M59 0l-34 258l239 1180h375l240 -1182l-37 -256h-783zM324 287h245l-123 753z" />
    <glyph glyph-name="minus" unicode="&#x2212;" horiz-adv-x="835" 
d="M791 580h-746v282h746v-282z" />
    <glyph glyph-name="NUL" horiz-adv-x="0" 
 />
    <glyph glyph-name="CR" horiz-adv-x="307" 
 />
    <glyph glyph-name="Q.alt" horiz-adv-x="919" 
d="M592 -152l-74 134q-35 -7 -61 -7q-195 0 -307.5 179t-112.5 520v88q0 343 112.5 520.5t311.5 177.5q197 0 309.5 -178t112.5 -520v-88q0 -347 -127 -539l162 -287h-326zM461 254q37 0 59 31.5t35.5 124t13.5 256.5v100q0 124 -7 206t-21.5 126.5t-33.5 62t-46 17.5
t-45.5 -17.5t-34 -61.5t-23.5 -127t-8 -206v-100q0 -123 8 -206t23.5 -127t34 -61.5t45.5 -17.5z" />
    <glyph glyph-name="a.alt" horiz-adv-x="841" 
d="M287 -20q-246 0 -246 520v108q0 520 246 520q71 0 115 -38t87 -111v129h299v-1108h-299v133q-38 -72 -84.5 -112.5t-117.5 -40.5zM414 252q41 0 59.5 59t18.5 187v112q0 128 -18.5 187t-59.5 59q-38 0 -56 -59.5t-18 -186.5v-112q0 -127 18 -186.5t56 -59.5z" />
    <glyph glyph-name="uni039E.alt" horiz-adv-x="833" 
d="M797 285v-285h-760v285h235v297h-200v278h200v291h-229v283h748v-283h-230v-291h201v-278h-201v-297h236z" />
    <glyph glyph-name="uni0424.bgr" horiz-adv-x="1314" 
d="M502 -193v189q-220 36 -343.5 219t-123.5 492v22q0 305 124.5 487t342.5 220v192h311v-190q219 -36 343 -219t124 -490v-22q0 -306 -126 -489.5t-341 -221.5v-189h-311zM971 711v12q0 356 -168 432v-879q168 76 168 435zM346 723v-12q0 -357 166 -432v876
q-166 -75 -166 -432z" />
    <glyph glyph-name="uni0432.bgr" horiz-adv-x="833" 
d="M424 -25q-379 0 -379 457v574q0 225 99 341.5t286 116.5q176 0 270.5 -105t94.5 -265v-11q0 -250 -197 -344q107 -42 159 -125.5t52 -218.5v-12q0 -190 -105.5 -299t-279.5 -109zM426 236q90 0 90 174v8q0 103 -33 146.5t-112 43.5h-31v-192q0 -100 20 -140t66 -40z
M340 1055v-217h33q75 0 102 48t27 158v9q0 159 -80 159q-42 0 -62 -37t-20 -120z" />
    <glyph glyph-name="uni0433.bgr" horiz-adv-x="651" 
d="M346 -25q-163 0 -246.5 85t-83.5 235v4q0 109 49.5 188.5t161.5 178.5q12 12 29.5 28t26 24t20 19.5t16.5 17.5t11.5 14.5t9 14.5t4.5 13t2 14v2q0 24 -18 39t-52 14q-80 0 -200 -65v286q115 43 235 43q154 0 238 -80.5t84 -222.5v-4q0 -108 -50.5 -188.5t-160.5 -177.5
q-69 -63 -94 -94.5t-25 -59.5v-2q0 -27 19.5 -43.5t54.5 -15.5q85 0 229 75v-284q-131 -58 -260 -58z" />
    <glyph glyph-name="uni0434.bgr" horiz-adv-x="841" 
d="M360 -274q-146 0 -274 36v265q121 -47 248 -47q160 0 160 159v86q-43 -70 -90.5 -108.5t-116.5 -38.5q-246 0 -246 500v43q0 507 246 507q70 0 117.5 -39.5t84.5 -109.5v129h299v-967q0 -207 -102 -309q-106 -106 -326 -106zM414 344q78 0 78 238v36q0 238 -78 238
q-74 0 -74 -238v-36q0 -238 74 -238z" />
    <glyph glyph-name="uni0436.bgr" horiz-adv-x="1191" 
d="M743 1454l-6 -762h25l123 416h305l-178 -535l180 -573h-313l-123 428h-21l8 -428h-292l6 428h-17l-125 -428h-307l174 551l-182 557h311l121 -416h25l-6 762h292z" />
    <glyph glyph-name="uni0438.bgr" 
d="M264 -20q-107 0 -162 75t-55 203v850h299v-768q0 -43 16.5 -67.5t45.5 -24.5t46 24.5t17 67.5v768h299v-1108h-299v129q-76 -149 -207 -149z" />
    <glyph glyph-name="uni0439.bgr" 
d="M264 -20q-107 0 -162 75t-55 203v850h299v-768q0 -43 16.5 -67.5t45.5 -24.5t46 24.5t17 67.5v768h299v-1108h-299v129q-76 -149 -207 -149zM410 1157q-109 0 -177.5 60.5t-78.5 183.5h163q12 -88 93 -88q80 0 92 88h164q-10 -123 -78.5 -183.5t-177.5 -60.5z" />
    <glyph glyph-name="uni043A.bgr" horiz-adv-x="811" 
d="M809 0h-315l-125 426h-17v-426h-299v1454h299v-760h23l125 414h309l-180 -535z" />
    <glyph glyph-name="uni043F.bgr" 
d="M53 0v1108h299v-129q76 149 207 149q107 0 162 -75t55 -203v-850h-299v770q0 90 -61 90q-30 0 -47 -24t-17 -66v-770h-299z" />
    <glyph glyph-name="uni0442.bgr" horiz-adv-x="1236" 
d="M53 0v1108h297v-127q41 71 88 109t119 38q135 0 195 -137q82 137 213 137q102 0 164.5 -74.5t62.5 -205.5v-848h-297v768q0 43 -16 67.5t-45 24.5t-46.5 -24.5t-17.5 -67.5v-768h-297v768q0 92 -59 92q-29 0 -46.5 -24.5t-17.5 -67.5v-768h-297z" />
    <glyph glyph-name="uni0446.bgr" horiz-adv-x="888" 
d="M606 -203v203h-135v129q-76 -149 -207 -149q-107 0 -162 75t-55 203v850h299v-768q0 -43 16.5 -67.5t45.5 -24.5t46 24.5t17 67.5v768h299v-836h98v-475h-262z" />
    <glyph glyph-name="uni0448.bgr" horiz-adv-x="1236" 
d="M1186 1108v-1108h-297v129q-40 -70 -89 -109.5t-118 -39.5q-135 0 -195 137q-89 -137 -215 -137q-102 0 -163.5 74.5t-61.5 205.5v848h297v-768q0 -92 59 -92q29 0 46.5 24.5t17.5 67.5v768h297v-768q0 -43 16 -67.5t45 -24.5t46.5 24.5t17.5 67.5v768h297z" />
    <glyph glyph-name="uni0449.bgr" horiz-adv-x="1302" 
d="M1020 -203v203h-131v129q-40 -70 -89 -109.5t-118 -39.5q-135 0 -195 137q-89 -137 -215 -137q-102 0 -163.5 74.5t-61.5 205.5v848h297v-768q0 -92 59 -92q29 0 46.5 24.5t17.5 67.5v768h297v-768q0 -43 16 -67.5t45 -24.5t46.5 24.5t17.5 67.5v768h297v-836h96v-475
h-262z" />
    <glyph glyph-name="uni044E.bgr" horiz-adv-x="1204" 
d="M352 420v-420h-299v1454h299v-756h78q20 210 118.5 321t250.5 111q170 0 270 -138t100 -396v-86q0 -259 -101 -397t-271 -138q-153 0 -252 114.5t-117 330.5h-76zM797 242q42 0 59.5 60.5t17.5 207.5v88q0 147 -17.5 207.5t-59.5 60.5q-39 0 -56.5 -61.5t-17.5 -206.5
v-88q0 -145 17.5 -206.5t56.5 -61.5z" />
    <glyph glyph-name="aacute.alt" horiz-adv-x="841" 
d="M334 1184l158 282l251 -88l-227 -194h-182zM287 -20q-246 0 -246 520v108q0 520 246 520q71 0 115 -38t87 -111v129h299v-1108h-299v133q-38 -72 -84.5 -112.5t-117.5 -40.5zM414 252q41 0 59.5 59t18.5 187v112q0 128 -18.5 187t-59.5 59q-38 0 -56 -59.5t-18 -186.5
v-112q0 -127 18 -186.5t56 -59.5z" />
    <glyph glyph-name="abreve.alt" horiz-adv-x="841" 
d="M287 -20q-246 0 -246 520v108q0 520 246 520q71 0 115 -38t87 -111v129h299v-1108h-299v133q-38 -72 -84.5 -112.5t-117.5 -40.5zM414 252q41 0 59.5 59t18.5 187v112q0 128 -18.5 187t-59.5 59q-38 0 -56 -59.5t-18 -186.5v-112q0 -127 18 -186.5t56 -59.5zM442 1176
q-109 0 -177.5 60t-78.5 183h164q12 -88 92 -88q81 0 93 88h163q-10 -123 -78.5 -183t-177.5 -60z" />
    <glyph glyph-name="acircumflex.alt" horiz-adv-x="841" 
d="M174 1184l162 262h213l162 -262h-176l-95 104l-94 -104h-172zM287 -20q-246 0 -246 520v108q0 520 246 520q71 0 115 -38t87 -111v129h299v-1108h-299v133q-38 -72 -84.5 -112.5t-117.5 -40.5zM414 252q41 0 59.5 59t18.5 187v112q0 128 -18.5 187t-59.5 59
q-38 0 -56 -59.5t-18 -186.5v-112q0 -127 18 -186.5t56 -59.5z" />
    <glyph glyph-name="adieresis.alt" horiz-adv-x="841" 
d="M473 1188v235h234v-235h-234zM180 1188v235h232v-235h-232zM287 -20q-246 0 -246 520v108q0 520 246 520q71 0 115 -38t87 -111v129h299v-1108h-299v133q-38 -72 -84.5 -112.5t-117.5 -40.5zM414 252q41 0 59.5 59t18.5 187v112q0 128 -18.5 187t-59.5 59
q-38 0 -56 -59.5t-18 -186.5v-112q0 -127 18 -186.5t56 -59.5z" />
    <glyph glyph-name="agrave.alt" horiz-adv-x="841" 
d="M287 -20q-246 0 -246 520v108q0 520 246 520q71 0 115 -38t87 -111v129h299v-1108h-299v133q-38 -72 -84.5 -112.5t-117.5 -40.5zM414 252q41 0 59.5 59t18.5 187v112q0 128 -18.5 187t-59.5 59q-38 0 -56 -59.5t-18 -186.5v-112q0 -127 18 -186.5t56 -59.5zM367 1184
l-228 194l250 88l160 -282h-182z" />
    <glyph glyph-name="amacron.alt" horiz-adv-x="841" 
d="M287 -20q-246 0 -246 520v108q0 520 246 520q71 0 115 -38t87 -111v129h299v-1108h-299v133q-38 -72 -84.5 -112.5t-117.5 -40.5zM414 252q41 0 59.5 59t18.5 187v112q0 128 -18.5 187t-59.5 59q-38 0 -56 -59.5t-18 -186.5v-112q0 -127 18 -186.5t56 -59.5zM188 1190
v184h508v-184h-508z" />
    <glyph glyph-name="aogonek.alt" horiz-adv-x="841" 
d="M805 -135v-158q-52 -8 -111 -8q-227 0 -227 137q0 84 80 164h-58v133q-38 -72 -84.5 -112.5t-117.5 -40.5q-246 0 -246 520v108q0 520 246 520q71 0 115 -38t87 -111v129h299v-1108h-40q-35 -51 -35 -82q0 -29 18 -38.5t74 -14.5zM414 252q41 0 59.5 59t18.5 187v112
q0 128 -18.5 187t-59.5 59q-38 0 -56 -59.5t-18 -186.5v-112q0 -127 18 -186.5t56 -59.5z" />
    <glyph glyph-name="aring.alt" horiz-adv-x="841" 
d="M442 1174q-79 0 -134.5 55t-55.5 139q0 81 55.5 136t134.5 55q81 0 136 -54t55 -139q0 -81 -55.5 -136.5t-135.5 -55.5zM442 1272q37 0 60.5 26.5t23.5 67.5t-23.5 68.5t-60.5 27.5t-60.5 -27.5t-23.5 -68.5t23.5 -67.5t60.5 -26.5zM287 -20q-246 0 -246 520v108
q0 520 246 520q71 0 115 -38t87 -111v129h299v-1108h-299v133q-38 -72 -84.5 -112.5t-117.5 -40.5zM414 252q41 0 59.5 59t18.5 187v112q0 128 -18.5 187t-59.5 59q-38 0 -56 -59.5t-18 -186.5v-112q0 -127 18 -186.5t56 -59.5z" />
    <glyph glyph-name="aring.alt2" horiz-adv-x="770" 
d="M242 -20q-97 0 -159.5 87t-62.5 242v35q0 178 69.5 264t186.5 86q81 0 152 -41v43q0 154 -147 154q-91 0 -203 -55v278q74 31 151 43q-34 46 -34 111q0 79 55.5 134.5t134.5 55.5t134.5 -55t55.5 -137q0 -75 -53 -131q57 -23 101 -64q102 -102 102 -307v-723h-297v104
q-73 -124 -186 -124zM360 205q29 0 49.5 24.5t20.5 71.5v170q-36 18 -65 18q-70 0 -70 -124v-41q0 -119 65 -119zM301 1225q0 -42 23.5 -69.5t60.5 -27.5t60.5 27.5t23.5 69.5q0 41 -23.5 67.5t-60.5 26.5t-60.5 -26.5t-23.5 -67.5z" />
    <glyph glyph-name="aringacute.alt" horiz-adv-x="841" 
d="M334 1597l147 222l258 -72l-213 -150h-192zM440 1174q-79 0 -134.5 55t-55.5 139q0 81 55.5 136t134.5 55q81 0 136 -54t55 -139q0 -81 -55.5 -136.5t-135.5 -55.5zM440 1272q37 0 60.5 26.5t23.5 67.5t-23.5 68.5t-60.5 27.5t-60.5 -27.5t-23.5 -68.5t23.5 -67.5
t60.5 -26.5zM287 -20q-246 0 -246 520v108q0 520 246 520q71 0 115 -38t87 -111v129h299v-1108h-299v133q-38 -72 -84.5 -112.5t-117.5 -40.5zM414 252q41 0 59.5 59t18.5 187v112q0 128 -18.5 187t-59.5 59q-38 0 -56 -59.5t-18 -186.5v-112q0 -127 18 -186.5t56 -59.5z
" />
    <glyph glyph-name="aringacute.alt2" horiz-adv-x="770" 
d="M279 1458l147 221l258 -71l-213 -150h-192zM242 -20q-97 0 -159.5 87t-62.5 242v35q0 178 69.5 264t186.5 86q81 0 152 -41v43q0 154 -147 154q-91 0 -203 -55v278q74 31 151 43q-34 46 -34 111q0 79 55.5 134.5t134.5 55.5t134.5 -55t55.5 -137q0 -75 -53 -131
q57 -23 101 -64q102 -102 102 -307v-723h-297v104q-73 -124 -186 -124zM360 205q29 0 49.5 24.5t20.5 71.5v170q-36 18 -65 18q-70 0 -70 -124v-41q0 -119 65 -119zM301 1225q0 -42 23.5 -69.5t60.5 -27.5t60.5 27.5t23.5 69.5q0 41 -23.5 67.5t-60.5 26.5t-60.5 -26.5
t-23.5 -67.5z" />
    <glyph glyph-name="atilde.alt" horiz-adv-x="841" 
d="M287 -20q-246 0 -246 520v108q0 520 246 520q71 0 115 -38t87 -111v129h299v-1108h-299v133q-38 -72 -84.5 -112.5t-117.5 -40.5zM414 252q41 0 59.5 59t18.5 187v112q0 128 -18.5 187t-59.5 59q-38 0 -56 -59.5t-18 -186.5v-112q0 -127 18 -186.5t56 -59.5zM588 1180
q-50 0 -131 34q-74 31 -101 31q-24 0 -35 -15.5t-22 -58.5l-143 29q20 236 149 236q43 0 131 -37q74 -31 101 -31q24 0 35 15.5t22 58.5l143 -29q-20 -233 -149 -233z" />
    <glyph glyph-name="i.dot" horiz-adv-x="409" 
d="M53 1192v262h303v-262h-303zM55 0v1108h299v-1108h-299z" />
    <glyph glyph-name="uni0386.calt" horiz-adv-x="882" 
d="M-8 0l274 1438h352l273 -1438h-307l-39 258h-215l-39 -258h-299zM369 520h137l-68 451z" />
    <glyph glyph-name="uni0388.calt" horiz-adv-x="720" 
d="M57 0v1434h621v-291h-313v-279h278v-286h-278v-285h319v-293h-627z" />
    <glyph glyph-name="uni0389.calt" horiz-adv-x="911" 
d="M57 0v1434h308v-566h184v566h307v-1434h-307v575h-184v-575h-308z" />
    <glyph glyph-name="uni038A.calt" horiz-adv-x="428" 
d="M61 0v1434h308v-1434h-308z" />
    <glyph glyph-name="uni038C.calt" horiz-adv-x="919" 
d="M461 -27q-200 0 -312 177.5t-112 521.5v90q0 343 112.5 520.5t311.5 177.5q197 0 309.5 -178t112.5 -520v-90q0 -344 -111.5 -521.5t-310.5 -177.5zM461 258q37 0 59 31.5t35.5 124t13.5 256.5v96q0 124 -7 206t-21.5 126.5t-33.5 62t-46 17.5t-45.5 -17.5t-34 -61.5
t-23.5 -127t-8 -206v-96q0 -123 8 -206t23.5 -127t34 -61.5t45.5 -17.5z" />
    <glyph glyph-name="uni038E.calt" horiz-adv-x="837" 
d="M266 0v535l-274 899h315l117 -504l115 504h307l-273 -899v-535h-307z" />
    <glyph glyph-name="uni038F.calt" horiz-adv-x="946" 
d="M475 1460q205 0 313.5 -144.5t108.5 -418.5v-27q0 -300 -158 -577h168v-293h-395v279q36 151 54 278.5t18 278.5v14q0 126 -14.5 201t-38 101t-58.5 26q-38 0 -60.5 -26.5t-35 -98.5t-12.5 -201v-14q0 -301 71 -559v-279h-397v293h170q-158 272 -158 577v27
q0 274 109.5 418.5t314.5 144.5z" />
    <glyph glyph-name="uni0399.calt" horiz-adv-x="428" 
d="M61 0v1434h308v-1434h-308zM252 1495v225h240v-225h-240zM-55 1495v225h237v-225h-237z" />
    <glyph glyph-name="uni03A5.calt" horiz-adv-x="837" 
d="M266 0v535l-274 899h315l117 -504l115 504h307l-273 -899v-535h-307zM457 1493v225h239v-225h-239zM150 1493v225h237v-225h-237z" />
    <glyph glyph-name="uni0431.srb" horiz-adv-x="817" 
d="M408 -25q-176 0 -274.5 131.5t-98.5 380.5v23q0 126 29 225t93 170t160 99l-110 114q-48 52 -70 89.5t-22 86.5q0 71 48.5 115.5t147.5 44.5h398v-260l-254 4q-29 0 -29 -18q0 -2 0.5 -4l1 -4t2 -4t2.5 -3.5t3.5 -4.5t4.5 -5t6 -5.5t7 -6.5t8.5 -8t9.5 -9l82 -73
q128 -120 178.5 -242.5t50.5 -292.5v-22q0 -252 -99.5 -386.5t-274.5 -134.5zM410 229q77 0 77 258v45q0 259 -77 259q-39 0 -58.5 -59.5t-19.5 -199.5v-45q0 -258 78 -258z" />
    <glyph glyph-name="three.alt" horiz-adv-x="724" 
d="M276 -23q-128 0 -243 43v289q108 -41 190 -41t127 43.5t45 114.5v6q0 166 -254 174v256h2q124 7 188 54.5t62 121.5v6q0 55 -39 88t-102 33q-86 0 -203 -51v285q131 57 264 57q175 0 277 -93.5t102 -264.5v-13q0 -118 -58 -205.5t-151 -131.5q215 -95 215 -347v-12
q0 -188 -117 -300t-305 -112z" />
    <glyph glyph-name="registered.alt" horiz-adv-x="1054" 
d="M528 -27q-221 0 -356 192t-135 517v70q0 325 135 516.5t356 191.5q219 0 354.5 -192t135.5 -516v-70q0 -324 -135.5 -516.5t-354.5 -192.5zM528 49q192 0 302 171t110 460v74q0 291 -110 461.5t-302 170.5q-195 0 -304 -170t-109 -462v-74q0 -290 109.5 -460.5
t303.5 -170.5zM315 315v826h181q130 0 200 -70t70 -199v-12q0 -147 -96 -219l110 -326h-190l-82 269h-14v-269h-179zM494 733h6q39 0 62.5 28.5t23.5 88.5v16q0 115 -88 115h-4v-248z" />
    <glyph glyph-name="hcoslug" horiz-adv-x="1421" 
d="M506 37h53q3 45 -39 45q-19 0 -30 -11.5t-11 -31.5q3 -41 43 -41q31 0 37 29h-14q-3 -15 -19 -15q-20 0 -20 25zM520 72q15 0 15 -25h-29q0 25 14 25zM399 160q-16 0 -16 33q0 30 16 30q17 0 17 -30q0 -33 -17 -33zM430 8q-16 0 -16 33q0 31 16 31t16 -31q0 -33 -16 -33z
M430 -2q19 0 31 12t12 31t-12 30t-31 11t-31 -11t-12 -30q0 -20 12 -31.5t31 -11.5zM1118 8q-16 0 -16 33q0 31 16 31q17 0 17 -31q0 -33 -17 -33zM1118 -2q19 0 31 12t12 31t-12 30t-31 11t-31 -11t-12 -30q0 -20 12 -31.5t31 -11.5zM256 166v-14h61v14h-20v33h8
q9 0 12 -17h15v47h-15q-3 -16 -12 -16h-8v37h25q10 0 13.5 -4.5t8.5 -22.5h16v41h-104v-14h14v-84h-14zM399 150q19 0 31 12t12 31q0 18 -12 29t-31 11t-31 -11t-12 -29q0 -20 12 -31.5t31 -11.5zM1319 1434v-1639h-1217v1639h1217zM1020 -2q46 0 49 47h-16q-3 -33 -29 -33
q-33 0 -33 45t29 45q23 0 31 -32h16v45h-16l-2 -13q-15 15 -33 15q-24 0 -39.5 -16.5t-15.5 -45.5q0 -57 59 -57zM762 164q-17 0 -17 26q0 27 17 27q14 0 14 -27q0 -26 -14 -26zM565 14v-14h47v14h-10v52h29v-52h-10v-14h47v14h-13v107l-20 -4q-12 4 -19 4q-38 0 -38 -39v-2
h-15v-14h15v-52h-13zM754 14v-14h53v14h-16v33q9 19 14 19v-3q0 -12 12 -12q14 0 14 15q0 16 -16 16q-14 0 -24 -23v21h-37v-14h12v-52h-12zM721 256v-106h12l8 16q10 -16 29 -16q17 0 25 13.5t8 29.5q0 40 -31 40q-21 0 -27 -18v55h-36v-14h12zM819 154q-14 0 -14 -15
q0 -18 22 -18q26 0 37 33l27 63h10v14h-35v-14h11l-17 -41l-18 41h12v14h-51v-14h10q5 -16 12 -27l21 -40q-3 -17 -17 -17q5 5 2.5 13t-12.5 8zM506 877q0 26 15 42.5t40 16.5q26 0 43 -21.5t17 -56.5q0 -46 -37 -102l-10 10q-26 26 -37.5 38.5t-21 32t-9.5 40.5zM618 180
v-28h15l2 8q10 -10 27 -10q28 0 28 26q0 19 -24.5 25t-24.5 12q0 8 10 8q13 0 21 -14h14v26h-12l-4 -10q-7 10 -23 10q-29 0 -29 -24q0 -19 25 -26t25 -13q0 -8 -11 -8q-12 0 -24 18h-15zM535 449q-47 0 -77 31t-30 79q0 49 33 82q62 -56 151 -168q-30 -24 -77 -24zM586 254
l-25 -4v-19h-14v-14h14v-41q0 -26 25 -26q22 0 28 26l-10 4q-3 -14 -10 -14q-8 0 -8 10v41h26v14h-26v23zM877 627q30 -52 88 -52q43 0 72.5 32t29.5 79t-29.5 77t-72.5 30q-69 0 -123 -78q-9 79 -101 76q19 32 19 69q0 60 -52.5 106t-142.5 46q-99 0 -161 -51.5t-62 -122.5
q0 -42 15 -73.5t49 -68.5q-168 -58 -168 -186q0 -81 65 -136t158 -55q129 0 213 93q50 -53 88 -73t86 -20q68 0 114 52t50 141l-15 4q-20 -30 -39 -44.5t-49 -14.5t-59 19.5t-68 64.5q42 55 95 86zM449 166v-14h45v14h-9v31q0 20 15 20q12 0 12 -14v-37h-8v-14h45v14h-12v39
q0 28 -25 28q-20 0 -29 -22v20h-34v-14h12v-51h-12zM950 68h-37v-15h13q-2 -7 -13 -18l-24 26q22 9 22 25q0 25 -28 25q-17 0 -26 -8t-9 -21t12 -25q-26 -9 -26 -30q0 -29 36 -29q19 0 31 12q9 -12 25 -12q20 0 26 25l-10 2q-4 -11 -8 -11q-5 0 -12 11q10 11 18 28h10v15z
M879 12q-21 0 -21 21q0 10 8 18q19 -19 29 -33q-9 -6 -16 -6zM602 80v6q0 25 12 25q5 0 7 -2q-3 -3 -3 -9q0 -10 13 -10v-10h-29zM870 88q0 10 11 10q12 0 12 -12q0 -11 -10 -18q-13 13 -13 20zM639 700q57 38 86 70q23 -23 29 -49t-2 -52.5t-29 -62.5q-68 78 -84 94z
M696 37h54q3 45 -39 45q-17 0 -29 -12t-12 -31q0 -41 43 -41q27 0 37 29h-15q-3 -15 -18 -15q-21 0 -21 25zM711 72q14 0 14 -25h-29q0 25 15 25zM254 14v-14h59v14h-16v37h45v-37h-16v-14h59v14h-16v84h16v15h-59v-15h16v-32h-45v32h16v15h-59v-15h16v-84h-16zM1180 27
q-15 0 -15 -15q0 -14 15 -14q14 0 14 14q0 15 -14 15z" />
    <glyph glyph-name="caron.alt" horiz-adv-x="1024" 
d="M385 1153l18 301h175v-2l-80 -299h-113z" />
    <glyph glyph-name="descendercyrillic" horiz-adv-x="1024" 
d="M381 -203l14 344h234l14 -344h-262z" />
    <glyph glyph-name="descendercyrillic.cap" horiz-adv-x="1024" 
d="M375 -231l10 372h254l10 -372h-274z" />
    <glyph glyph-name="straightdescendercyrillic" horiz-adv-x="1024" 
d="M381 -203v475h262v-475h-262z" />
    <glyph glyph-name="straightdescendercyrillic.cap" horiz-adv-x="1024" 
d="M373 -231v231h-6v293h284v-524h-278z" />
    <glyph glyph-name="acute.cap" horiz-adv-x="1024" 
d="M303 1491l148 242l280 -84l-217 -158h-211z" />
    <glyph glyph-name="hungarumlaut.cap" horiz-adv-x="1024" 
d="M518 1491l80 133l-162 -133h-190l147 242l228 -74l45 74l243 -78l-202 -164h-189z" />
    <glyph glyph-name="grave.cap" horiz-adv-x="1024" 
d="M719 1491h-211l-215 158l278 84z" />
    <glyph glyph-name="circumflex.cap" horiz-adv-x="1024" 
d="M244 1491l151 227h234l151 -227h-186l-84 84l-82 -84h-184z" />
    <glyph glyph-name="caron.cap" horiz-adv-x="1024" 
d="M780 1718l-151 -227h-234l-151 227h186l84 -84l82 84h184z" />
    <glyph glyph-name="breve.cap" horiz-adv-x="1024" 
d="M512 1483q-111 0 -177.5 55t-70.5 166h164q12 -68 84 -68q71 0 86 68h164q-6 -111 -72.5 -166t-177.5 -55z" />
    <glyph glyph-name="tilde.cap" horiz-adv-x="1024" 
d="M653 1487q-51 0 -129 35q-72 30 -102 30q-23 0 -33.5 -15t-21.5 -58l-148 30q20 238 152 238q45 0 133 -37q74 -31 98 -31q22 0 33 15.5t22 58.5l148 -29q-20 -237 -152 -237z" />
    <glyph glyph-name="macron.cap" horiz-adv-x="1024" 
d="M248 1497v189h530v-189h-530z" />
    <glyph glyph-name="dieresis.cap" horiz-adv-x="1024" 
d="M547 1495v225h239v-225h-239zM240 1495v225h237v-225h-237z" />
    <glyph glyph-name="dotaccent.cap" horiz-adv-x="1024" 
d="M387 1495v225h250v-225h-250z" />
    <glyph glyph-name="ring.cap" horiz-adv-x="1024" 
d="M512 1483q-86 0 -141.5 52t-55.5 134q0 80 55.5 133t141.5 53t141.5 -52t55.5 -134t-55.5 -134t-141.5 -52zM512 1579q41 0 65.5 25.5t24.5 64.5t-24.5 64.5t-65.5 25.5q-38 0 -64 -26t-26 -64t26 -64t64 -26z" />
    <glyph glyph-name="uni0384.cap" horiz-adv-x="1024" 
d="M373 1126l16 308h221l-96 -308h-141z" />
    <glyph glyph-name="commaaccent.rot" horiz-adv-x="1024" 
d="M627 1556l14 -86q-67 -12 -94 -34t-29 -64h113v-196h-238v165q0 104 59 153t175 62z" />
    </font>
</defs>
</svg>
