<?xml version="1.0" standalone="no"?>
<!DOCTYPE svg PUBLIC "-//W3C//DTD SVG 1.1//EN" "http://www.w3.org/Graphics/SVG/1.1/DTD/svg11.dtd" >
<svg xmlns="http://www.w3.org/2000/svg" xmlns:xlink="http://www.w3.org/1999/xlink" version="1.1">
<metadata>
Created by FontForge 20201107 at Wed May 29 09:56:54 2024
 By 
Copyright (C) 2001, 2011 Hoefler &#38; Co. http://www.typography.com |DCNT
</metadata>
<defs>
<font id="GothamCond-UltraItalic" horiz-adv-x="1024" >
  <font-face 
    font-family="Gotham Cond Ultra"
    font-weight="1000"
    font-style="italic"
    font-stretch="extra-condensed"
    units-per-em="2048"
    panose-1="0 0 0 0 0 0 0 0 0 0"
    ascent="1638"
    descent="-410"
    x-height="1118"
    cap-height="1434"
    bbox="-236 -455 1712 1950"
    underline-thickness="102"
    underline-position="-204"
    slope="-11"
    unicode-range="U+0020-FB04"
  />
<missing-glyph 
d="M0 -410v2048h1024v-2048h-1024zM102 -156l353 770l-353 770v-1540zM145 -307h734l-367 799zM512 737l367 799h-734zM922 -156v1540l-353 -770z" />
    <glyph glyph-name="f_f" unicode="ff" horiz-adv-x="1107" 
d="M-35 0l162 834h-59l55 284h59l11 51q27 140 102 215q84 84 229 84q113 0 201 -30l-51 -256q-38 10 -68 10q-35 0 -51.5 -15t-22.5 -51l-2 -12h132l-56 -280h-125l-162 -834h-354zM516 0l162 834h-60l56 284h59l10 51q27 139 103 215q84 84 229 84q113 0 201 -30l-51 -256
q-38 10 -68 10q-35 0 -51.5 -15t-22.5 -51l-2 -12h131l-55 -280h-125l-162 -834h-354z" />
    <glyph glyph-name="fi" unicode="fi" horiz-adv-x="995" 
d="M-35 0l162 834h-59l55 284h59l11 51q27 140 102 215q84 84 229 84q113 0 201 -30l-51 -256q-38 10 -68 10q-35 0 -51.5 -15t-22.5 -51l-2 -12h132l-56 -280h-125l-162 -834h-354zM489 0l218 1118h356l-217 -1118h-357zM717 1180l55 284h361l-56 -284h-360z" />
    <glyph glyph-name="fl" unicode="fl" horiz-adv-x="995" 
d="M-35 0l162 834h-59l55 284h59l11 51q27 140 102 215q84 84 229 84q113 0 201 -30l-51 -256q-38 10 -68 10q-35 0 -51.5 -15t-22.5 -51l-2 -12h132l-56 -280h-125l-162 -834h-354zM489 0l285 1464h356l-284 -1464h-357z" />
    <glyph glyph-name="f_f_i" unicode="ffi" horiz-adv-x="1546" 
d="M-35 0l162 834h-59l55 284h59l11 51q27 140 102 215q84 84 229 84q113 0 201 -30l-51 -256q-38 10 -68 10q-35 0 -51.5 -15t-22.5 -51l-2 -12h132l-56 -280h-125l-162 -834h-354zM516 0l162 834h-60l56 284h59l10 51q27 139 103 215q84 84 229 84q113 0 201 -30l-51 -256
q-38 10 -68 10q-35 0 -51.5 -15t-22.5 -51l-2 -12h131l-55 -280h-125l-162 -834h-354zM1040 0l217 1118h357l-217 -1118h-357zM1268 1180l55 284h360l-55 -284h-360z" />
    <glyph glyph-name="f_f_l" unicode="ffl" horiz-adv-x="1546" 
d="M-35 0l162 834h-59l55 284h59l11 51q27 140 102 215q84 84 229 84q113 0 201 -30l-51 -256q-38 10 -68 10q-35 0 -51.5 -15t-22.5 -51l-2 -12h132l-56 -280h-125l-162 -834h-354zM516 0l162 834h-60l56 284h59l10 51q27 139 103 215q84 84 229 84q113 0 201 -30l-51 -256
q-38 10 -68 10q-35 0 -51.5 -15t-22.5 -51l-2 -12h131l-55 -280h-125l-162 -834h-354zM1040 0l285 1464h356l-284 -1464h-357z" />
    <glyph glyph-name=".notdef" 
d="M0 -410v2048h1024v-2048h-1024zM102 -156l353 770l-353 770v-1540zM145 -307h734l-367 799zM512 737l367 799h-734zM922 -156v1540l-353 -770z" />
    <glyph glyph-name=".null" horiz-adv-x="0" 
 />
    <glyph glyph-name="nonmarkingreturn" horiz-adv-x="682" 
 />
    <glyph glyph-name="space" unicode=" " horiz-adv-x="323" 
 />
    <glyph glyph-name="exclam" unicode="!" horiz-adv-x="471" 
d="M139 471l45 938l4 25h435l-5 -25l-319 -938h-160zM-59 0l71 367h373l-72 -367h-372z" />
    <glyph glyph-name="quotedbl" unicode="&#x22;" horiz-adv-x="768" 
d="M82 776l127 658h340l-2 -17l-311 -641h-154zM461 776l127 658h340l-2 -17l-312 -641h-153z" />
    <glyph glyph-name="numbersign" unicode="#" horiz-adv-x="905" 
d="M854 602l-49 -317h-129l-70 -285h-235l69 285h-125l-69 -285h-236l70 285h-90l49 317h119l57 238h-102l49 317h131l67 277h236l-68 -277h125l68 277h235l-67 -277h88l-49 -317h-117l-57 -238h100zM442 850l-63 -258h145l64 258h-146z" />
    <glyph glyph-name="dollar" unicode="$" horiz-adv-x="804" 
d="M471 1585h262l-33 -168q96 -19 185 -69l-68 -363q-61 42 -132 68t-130 26h-2q-35 0 -58.5 -19t-21.5 -44q0 -31 21 -62t98 -118v-2q95 -108 134.5 -185t39.5 -182q0 -167 -91 -288t-245 -159l-47 -239h-262l45 237q-114 23 -215 95l72 364q64 -50 141.5 -84.5
t144.5 -34.5h2q34 0 59.5 17t24.5 45q0 29 -18.5 56.5t-95.5 113.5v2q-91 101 -135 188.5t-44 182.5t26.5 173.5t73.5 132.5t105.5 89.5t128.5 54.5z" />
    <glyph glyph-name="percent" unicode="%" horiz-adv-x="1214" 
d="M78 0l497 750l429 684h192l-498 -750l-428 -684h-192zM311 612q-101 0 -157 63.5t-56 184.5q0 73 13.5 165t50 196.5t88.5 156.5q70 70 164 70q101 0 157 -63.5t56 -184.5q0 -73 -13.5 -165t-50 -196.5t-88.5 -156.5q-70 -70 -164 -70zM326 803q12 0 24 12q26 26 56 181
t30 214q0 47 -37 47q-12 0 -24 -12q-26 -26 -56 -181t-30 -214q0 -47 37 -47zM860 -14q-101 0 -157 63t-56 184q0 73 13.5 165t50 197t88.5 157q69 69 164 69q101 0 157 -63.5t56 -184.5q0 -73 -13.5 -165t-50 -196.5t-88.5 -156.5q-69 -69 -164 -69zM874 176q13 0 25 12
q26 26 56 181.5t30 214.5q0 47 -37 47q-11 0 -24 -13q-26 -26 -56 -181t-30 -214q0 -47 36 -47z" />
    <glyph glyph-name="ampersand" unicode="&#x26;" horiz-adv-x="1011" 
d="M766 674l252 -64q-52 -218 -176 -385l57 -151l-272 -119l-31 82q-111 -60 -229 -60q-175 0 -282.5 94.5t-107.5 260.5q0 139 74.5 264t218.5 209q-34 81 -47.5 138.5t-13.5 127.5q0 71 23.5 138.5t68.5 123.5t119 90.5t166 34.5q158 0 253 -85t95 -226q0 -269 -297 -445
l70 -190q36 83 59 162zM430 268q25 0 51 11l-104 272q-58 -81 -58 -170q0 -113 111 -113zM508 1059q0 -65 27 -129q104 89 104 186q0 72 -53 72q-35 0 -56.5 -37t-21.5 -92z" />
    <glyph glyph-name="quotesingle" unicode="'" horiz-adv-x="399" 
d="M82 776l127 658h350l-2 -17l-321 -641h-154z" />
    <glyph glyph-name="parenleft" unicode="(" horiz-adv-x="575" 
d="M440 -25l-49 -256q-182 33 -284.5 197t-102.5 432q0 161 32.5 327t108.5 333t185 276q173 173 397 160l-49 -256q-67 -22 -113 -68q-62 -62 -112 -185.5t-76 -256.5t-39.5 -245t-13.5 -183q0 -204 116 -275z" />
    <glyph glyph-name="parenright" unicode=")" horiz-adv-x="575" 
d="M143 1188l50 256q182 -33 284.5 -197t102.5 -432q0 -161 -32.5 -327t-108.5 -333t-185 -276q-173 -173 -397 -160l49 256q65 21 112 68q62 62 112 185.5t76.5 256.5t40 245t13.5 183q0 203 -117 275z" />
    <glyph glyph-name="asterisk" unicode="*" horiz-adv-x="679" 
d="M504 772l-242 47l121 221l-193 -145l-79 221l247 12l-225 105l158 176l123 -207l-29 250l242 -47l-121 -221l192 145l80 -221l-248 -12l226 -105l-158 -176l-123 205z" />
    <glyph glyph-name="plus" unicode="+" horiz-adv-x="892" 
d="M236 289l53 274h-248l61 316h248l53 274h316l-53 -274h247l-61 -316h-248l-53 -274h-315z" />
    <glyph glyph-name="comma" unicode="," horiz-adv-x="434" 
d="M-109 -274l-6 135q101 13 154.5 48t71.5 91h-189l74 377h373l-66 -338q-58 -296 -412 -313z" />
    <glyph glyph-name="hyphen" unicode="-" horiz-adv-x="641" 
d="M14 471l68 348h580l-68 -348h-580z" />
    <glyph glyph-name="period" unicode="." horiz-adv-x="434" 
d="M-78 0l74 377h373l-74 -377h-373z" />
    <glyph glyph-name="slash" unicode="/" horiz-adv-x="667" 
d="M-197 -201l834 1774h260l-834 -1774h-260z" />
    <glyph glyph-name="zero" unicode="0" horiz-adv-x="946" 
d="M606 1462q83 0 149.5 -24t119 -74.5t81.5 -137.5t29 -204q0 -63 -14 -173t-43.5 -254.5t-90 -285t-139.5 -219.5q-119 -119 -295 -119q-83 0 -149.5 24t-119 75t-81 138t-28.5 204q0 63 14 173t43 254t89.5 284.5t139.5 219.5q119 119 295 119zM428 299q25 0 45 20
q49 49 109.5 329.5t60.5 393.5q0 93 -61 93q-24 0 -45 -21q-49 -49 -109.5 -329.5t-60.5 -393.5q0 -92 61 -92z" />
    <glyph glyph-name="one" unicode="1" horiz-adv-x="571" 
d="M63 0l197 1049l-154 -39l64 348l246 76h278l-266 -1434h-365z" />
    <glyph glyph-name="two" unicode="2" horiz-adv-x="784" 
d="M-74 0l66 338l383 493q48 63 69 107.5t21 87.5q0 82 -109 82q-87 0 -209 -43l64 354q128 39 268 39q183 0 276 -89.5t93 -244.5q0 -109 -42 -209.5t-138 -218.5l-275 -338h320l-70 -358h-717z" />
    <glyph glyph-name="three" unicode="3" horiz-adv-x="761" 
d="M238 -25q-175 0 -304 66l66 344q117 -57 223 -57q75 0 116.5 38.5t41.5 98.5q0 59 -51.5 93t-186.5 54v2l45 236l246 242h-309l65 342h711l-63 -330l-299 -295q202 -89 202 -315q0 -230 -149 -379q-140 -140 -354 -140z" />
    <glyph glyph-name="four" unicode="4" horiz-adv-x="917" 
d="M338 0l43 221h-428l51 264l576 949h378l-176 -908h117l-59 -305h-117l-43 -221h-342zM305 526h144l75 396z" />
    <glyph glyph-name="five" unicode="5" horiz-adv-x="798" 
d="M225 -25q-158 0 -282 60l67 350q102 -61 197 -61q88 0 142 55t54 145q0 113 -104 113q-34 0 -84 -16l-149 79l178 734h647l-68 -344h-374l-41 -170q28 4 45 4q164 0 241.5 -82.5t77.5 -249.5q0 -147 -46.5 -270.5t-131.5 -208.5q-138 -138 -369 -138z" />
    <glyph glyph-name="six" unicode="6" horiz-adv-x="866" 
d="M373 -27q-164 0 -252 88q-103 103 -103 324q0 140 32 316.5t101 352.5t156 263q77 77 158 107t190 30q136 0 254 -47l-61 -324q-92 52 -195 52q-83 0 -133 -50q-52 -52 -78 -161q74 22 133 22q126 0 199.5 -76.5t73.5 -238.5q0 -148 -51 -301t-138 -240
q-117 -117 -286 -117zM393 272q20 0 39 19q29 29 53.5 131t24.5 174q0 45 -15 63.5t-46 18.5q-35 0 -56 -8l-10 -49q-41 -196 -41 -273q0 -45 18 -63q13 -13 33 -13z" />
    <glyph glyph-name="seven" unicode="7" horiz-adv-x="718" 
d="M-18 0l442 1081h-307l67 353h690l-47 -240l-479 -1194h-366z" />
    <glyph glyph-name="eight" unicode="8" horiz-adv-x="870" 
d="M377 -31q-184 0 -289.5 97t-105.5 262q0 151 62 267t171 173q-94 114 -94 258q0 121 49.5 219.5t148 158.5t230.5 60q177 0 279 -96.5t102 -259.5q0 -120 -57.5 -226.5t-157.5 -160.5q106 -106 106 -270q0 -135 -51 -243t-153.5 -173.5t-239.5 -65.5zM379 254q29 0 52 31
t35.5 76t19 86t6.5 69q0 92 -60 92q-29 0 -52 -31t-35.5 -76t-19 -86t-6.5 -69q0 -92 60 -92zM498 864q26 0 46.5 27.5t31 67.5t15.5 76t5 61q0 80 -57 80q-26 0 -46.5 -27.5t-31 -67.5t-16 -76t-5.5 -61q0 -80 58 -80z" />
    <glyph glyph-name="nine" unicode="9" horiz-adv-x="866" 
d="M272 -16q-155 0 -278 53l61 323q101 -57 219 -57q89 0 138 49q45 45 69 146q-77 -23 -133 -23q-125 0 -198.5 80.5t-73.5 243.5q0 154 52.5 308t139.5 241q116 116 287 116q166 0 254 -88q100 -100 100 -323q0 -142 -31.5 -317.5t-100 -351t-156.5 -263.5
q-76 -76 -158 -106.5t-191 -30.5zM475 743q31 0 55 9l11 49q45 199 45 289q0 44 -19 63q-12 12 -32 12q-21 0 -39 -18q-31 -31 -56.5 -133.5t-25.5 -179.5q0 -91 61 -91z" />
    <glyph glyph-name="colon" unicode=":" horiz-adv-x="434" 
d="M-78 0l74 377h373l-74 -377h-373zM66 741l73 377h373l-74 -377h-372z" />
    <glyph glyph-name="semicolon" unicode=";" horiz-adv-x="434" 
d="M-109 -274l-6 135q101 13 154.5 48t71.5 91h-189l74 377h373l-66 -338q-58 -296 -412 -313zM66 741l73 377h373l-74 -377h-372z" />
    <glyph glyph-name="less" unicode="&#x3c;" horiz-adv-x="892" 
d="M752 186l-695 381l60 307l841 381l-71 -376l-457 -170l389 -179z" />
    <glyph glyph-name="equal" unicode="=" horiz-adv-x="892" 
d="M6 324l60 309h790l-59 -309h-791zM100 809l60 309h790l-59 -309h-791z" />
    <glyph glyph-name="greater" unicode="&#x3e;" horiz-adv-x="892" 
d="M-2 186l72 377l456 170l-389 178l68 344l694 -381l-59 -307z" />
    <glyph glyph-name="question" unicode="?" horiz-adv-x="727" 
d="M145 471l48 377l8 12q225 32 225 154q0 88 -135 88q-93 0 -178 -33l65 344q109 37 246 37q181 0 288 -93.5t107 -252.5q0 -162 -90 -279t-258 -166l-88 -188h-238zM-10 0l71 367h373l-72 -367h-372z" />
    <glyph glyph-name="at" unicode="@" horiz-adv-x="1216" 
d="M502 -276q-230 0 -365 154.5t-135 436.5q0 174 35.5 342t103.5 311.5t160 253t213.5 172t255.5 62.5q213 0 338 -152t125 -407q0 -147 -29 -289t-81 -256.5t-133 -185t-177 -70.5q-164 0 -186 185q-49 -82 -104.5 -128.5t-127.5 -46.5q-75 0 -121.5 58t-46.5 178
q0 108 32 237.5t84 242.5t128 189t154 76q114 0 137 -143l31 125l241 -35l-164 -665q-20 -82 -20 -117q0 -43 35 -43q54 0 114.5 95.5t103 257.5t42.5 329q0 223 -102.5 351t-282.5 128q-94 0 -182.5 -41.5t-161 -113.5t-133 -172t-102 -215.5t-64.5 -245t-23 -258.5
q0 -247 108 -382t310 -135q162 0 301 95l41 -72q-166 -106 -352 -106zM522 297q35 0 80 100t76 225t31 201q0 56 -31 56q-37 0 -83 -102.5t-76 -227.5t-30 -197q0 -55 33 -55z" />
    <glyph glyph-name="A" unicode="A" horiz-adv-x="950" 
d="M-125 0l551 1436h438l-6 -1436h-356l12 231h-201l-77 -231h-361zM412 528h118l25 428z" />
    <glyph glyph-name="B" unicode="B" horiz-adv-x="913" 
d="M-70 0l279 1434h309q221 0 342 -91.5t121 -242.5q0 -262 -244 -387q142 -96 142 -258q0 -217 -150.5 -336t-441.5 -119h-357zM346 334h35q70 0 106.5 39.5t36.5 107.5q0 47 -29.5 72t-74.5 25h-25zM449 860h26q66 0 103.5 40.5t37.5 103.5q0 96 -108 96h-12z" />
    <glyph glyph-name="C" unicode="C" horiz-adv-x="796" 
d="M463 -20q-210 0 -322 131.5t-112 373.5q0 221 74.5 456t207.5 368q145 145 355 145q151 0 258 -63l-72 -355q-94 70 -176 70q-66 0 -113 -47q-72 -72 -119 -244t-47 -303q0 -104 41 -148.5t115 -44.5q75 0 176 41l-67 -335q-91 -45 -199 -45z" />
    <glyph glyph-name="D" unicode="D" horiz-adv-x="970" 
d="M-70 0l279 1434h221q305 0 447 -142q124 -124 124 -360q0 -74 -14 -171.5t-41.5 -207t-78.5 -213.5t-115 -168q-88 -88 -206 -130t-288 -42h-328zM596 1065q-39 30 -88 33l-148 -762q74 0 123 49q63 63 106.5 249t43.5 296q0 98 -37 135z" />
    <glyph glyph-name="E" unicode="E" horiz-adv-x="765" 
d="M-70 0l279 1434h694l-67 -347h-330l-39 -198h295l-66 -336h-295l-39 -207h336l-67 -346h-701z" />
    <glyph glyph-name="F" unicode="F" horiz-adv-x="733" 
d="M-70 0l279 1434h670l-68 -347h-305l-39 -202h270l-65 -336h-271l-106 -549h-365z" />
    <glyph glyph-name="G" unicode="G" horiz-adv-x="933" 
d="M471 -20q-214 0 -329 131t-115 360q0 120 28 266.5t95.5 305t160.5 251.5q160 160 383 160q180 0 312 -86l-72 -356q-116 94 -236 94q-82 0 -137 -55q-54 -54 -93.5 -179t-55 -234t-15.5 -179q0 -152 92 -152q13 0 29 4l47 236h-94l61 319h424l-159 -811
q-166 -75 -326 -75z" />
    <glyph glyph-name="H" unicode="H" horiz-adv-x="958" 
d="M-70 0l279 1434h364l-104 -539h152l104 539h365l-279 -1434h-365l107 547h-152l-106 -547h-365z" />
    <glyph glyph-name="I" unicode="I" horiz-adv-x="450" 
d="M-66 0l279 1434h365l-279 -1434h-365z" />
    <glyph glyph-name="J" unicode="J" horiz-adv-x="669" 
d="M156 -18q-136 0 -240 34l68 338q62 -26 139 -26q54 0 84 30q27 27 43 101l190 975h365l-199 -1018q-47 -224 -149 -326q-108 -108 -301 -108z" />
    <glyph glyph-name="K" unicode="K" horiz-adv-x="921" 
d="M-70 0l279 1434h364l-90 -467l226 467h378l-339 -639l63 -795h-377l-10 467l-59 -113l-70 -354h-365z" />
    <glyph glyph-name="L" unicode="L" horiz-adv-x="704" 
d="M-70 0l279 1434h364l-211 -1088h283l-67 -346h-648z" />
    <glyph glyph-name="M" unicode="M" horiz-adv-x="1097" 
d="M-70 0l279 1434h338l86 -416l246 416h350l-279 -1434h-352l129 666l-231 -392h-4l-80 392l-129 -666h-353z" />
    <glyph glyph-name="N" unicode="N" horiz-adv-x="976" 
d="M-70 0l279 1434h358l80 -564l111 564h350l-279 -1434h-342l-90 598l-116 -598h-351z" />
    <glyph glyph-name="O" unicode="O" horiz-adv-x="978" 
d="M623 1464q178 0 285.5 -114.5t107.5 -333.5q0 -92 -17 -213.5t-49.5 -254.5t-90 -256t-128.5 -194q-129 -129 -313 -129q-177 0 -285 114.5t-108 334.5q0 92 17 213.5t49 254t89.5 255.5t128.5 194q129 129 314 129zM442 301q27 0 50 23q49 49 108 328t59 395
q0 86 -61 86q-26 0 -49 -23q-49 -49 -108.5 -328.5t-59.5 -394.5q0 -86 61 -86z" />
    <glyph glyph-name="P" unicode="P" horiz-adv-x="884" 
d="M-70 0l279 1434h285q242 0 364 -119q103 -100 103 -273q0 -136 -44.5 -271t-132.5 -214q-157 -145 -405 -145h-8l-80 -412h-361zM573 1096q-22 22 -59 22h-6l-76 -391h8q55 0 88 33q37 37 55.5 114.5t18.5 133.5q0 59 -29 88z" />
    <glyph glyph-name="Q" unicode="Q" horiz-adv-x="983" 
d="M623 1464q178 0 285.5 -114.5t107.5 -333.5q0 -153 -44 -364.5t-124 -372.5l72 -216l-281 -98l-18 60q-91 -52 -203 -52q-178 0 -285.5 112.5t-107.5 332.5q0 92 17 213.5t49 254t89.5 255.5t128.5 194q129 129 314 129zM442 293q32 0 58 26l-56 185l138 47
q31 130 54 281.5t23 214.5q0 86 -63 86q-24 0 -47 -23q-49 -49 -109.5 -332.5t-60.5 -398.5q0 -86 63 -86z" />
    <glyph glyph-name="R" unicode="R" horiz-adv-x="915" 
d="M428 0l-49 432h-4l-84 -432h-361l279 1434h264q291 0 414 -123q96 -96 96 -269q0 -260 -145 -405q-48 -48 -115 -84l88 -553h-383zM430 725h8q57 0 92 35q37 37 55.5 112.5t18.5 135.5q0 62 -26 88q-22 22 -60 22h-10z" />
    <glyph glyph-name="S" unicode="S" horiz-adv-x="804" 
d="M293 -27q-183 0 -346 109l69 356q89 -60 152 -88t125 -28q47 0 73.5 23.5t26.5 64.5q0 33 -18 61.5t-64 75.5q-106 114 -156.5 204.5t-50.5 206.5q0 233 148 381q121 121 317 121q174 0 320 -86l-70 -354q-144 92 -244 92q-47 0 -74.5 -24.5t-27.5 -65.5q0 -24 10 -46
t23.5 -38t48.5 -55q53 -58 85 -98.5t63.5 -92.5t46 -106t14.5 -115q0 -229 -148 -377q-121 -121 -323 -121z" />
    <glyph glyph-name="T" unicode="T" horiz-adv-x="794" 
d="M106 0l211 1085h-200l69 349h766l-69 -349h-201l-211 -1085h-365z" />
    <glyph glyph-name="U" unicode="U" horiz-adv-x="937" 
d="M389 -23q-185 0 -286 89t-101 235q0 87 18 186l185 947h364l-194 -992q0 -3 -3 -16.5t-5 -28t-2 -28.5q0 -27 15.5 -43.5t43.5 -16.5t49 21q23 23 35 82l201 1022h364l-194 -1006q-23 -116 -59 -192.5t-93 -133.5q-125 -125 -338 -125z" />
    <glyph glyph-name="V" unicode="V" horiz-adv-x="921" 
d="M154 -2v1436h366l-45 -783l262 783h371l-561 -1436h-393z" />
    <glyph glyph-name="W" unicode="W" horiz-adv-x="1368" 
d="M109 -2l51 1436h379l-76 -770l242 770h296l-57 -770l223 770h381l-506 -1436h-376l26 592l-203 -592h-380z" />
    <glyph glyph-name="X" unicode="X" horiz-adv-x="874" 
d="M-117 0l365 754l-78 680h362l7 -371l145 371h360l-352 -729l82 -705h-362l-9 408l-159 -408h-361z" />
    <glyph glyph-name="Y" unicode="Y" horiz-adv-x="892" 
d="M154 0l98 502l-98 932h362l6 -473l187 473h366l-459 -932l-98 -502h-364z" />
    <glyph glyph-name="Z" unicode="Z" horiz-adv-x="774" 
d="M-84 0l61 311l459 776h-301l68 347h717l-62 -312l-457 -776h308l-68 -346h-725z" />
    <glyph glyph-name="bracketleft" unicode="[" horiz-adv-x="542" 
d="M-115 -266l330 1700h477l-47 -242h-166l-235 -1217h166l-48 -241h-477z" />
    <glyph glyph-name="backslash" unicode="\" horiz-adv-x="667" 
d="M328 -201l-158 1774h236l157 -1774h-235z" />
    <glyph glyph-name="bracketright" unicode="]" horiz-adv-x="542" 
d="M666 1434l-330 -1700h-477l47 241h166l235 1217h-166l47 242h478z" />
    <glyph glyph-name="asciicircum" unicode="^" 
d="M281 987l258 447h286l86 -447h-221l-45 264l-147 -264h-217z" />
    <glyph glyph-name="underscore" unicode="_" horiz-adv-x="1038" 
d="M-172 -309l49 256h1047l-50 -256h-1046z" />
    <glyph glyph-name="grave" unicode="`" 
d="M647 1165l-215 189l322 76l90 -265h-197z" />
    <glyph glyph-name="a" unicode="a" horiz-adv-x="823" 
d="M147 -20q-92 0 -140 59t-48 172q0 111 36 228t101 182q75 75 189 75q52 0 89 -11.5t83 -37.5l4 19q6 18 6 53q0 100 -139 100q-103 0 -219 -53l63 330q147 43 293 43q169 0 267.5 -79.5t98.5 -240.5q0 -61 -16 -149l-131 -670h-354l14 76q-45 -48 -90 -72t-107 -24z
M319 211q22 0 41 19.5t29 62.5l31 160q-27 18 -53 18q-21 0 -37 -16q-22 -22 -38 -83.5t-16 -99.5q0 -61 43 -61z" />
    <glyph glyph-name="b" unicode="b" horiz-adv-x="894" 
d="M510 -20q-77 0 -123 36t-78 111l-24 -127h-357l285 1464h356l-92 -473q58 74 113 111t119 37q97 0 145.5 -70t48.5 -195q0 -105 -23 -259t-78 -322.5t-128 -241.5q-71 -71 -164 -71zM408 291q16 0 30 14q29 29 67 215.5t38 245.5t-47 59q-17 0 -31 -14
q-29 -29 -67 -215.5t-38 -245.5t48 -59z" />
    <glyph glyph-name="c" unicode="c" horiz-adv-x="679" 
d="M358 -20q-174 0 -266 107t-92 290q0 98 19 207t69.5 231t124.5 199q122 125 301 125q62 0 129.5 -18.5t112.5 -43.5l-66 -329q-72 55 -139 55q-55 0 -92 -37q-48 -48 -72.5 -145t-24.5 -175q0 -76 28 -109.5t87 -33.5q68 0 135 33l-63 -326q-82 -30 -191 -30z" />
    <glyph glyph-name="d" unicode="d" horiz-adv-x="894" 
d="M393 0l25 127q-57 -73 -112.5 -110t-119.5 -37q-97 0 -145.5 69.5t-48.5 194.5q0 105 23 259t78 322.5t128 241.5q72 72 164 72q76 0 122.5 -36t78.5 -112l90 473h356l-282 -1464h-357zM399 293q17 0 31 14q29 29 67 215.5t38 245.5t-48 59q-16 0 -30 -14
q-29 -29 -67 -215.5t-38 -245.5t47 -59z" />
    <glyph glyph-name="e" unicode="e" horiz-adv-x="843" 
d="M793 414h-451v-4q0 -71 39 -101t123 -30q116 0 233 57l-41 -305q-135 -58 -288 -58q-404 0 -404 414q0 94 20.5 204.5t72 232t124.5 194.5q127 127 295 127q156 0 243 -98t87 -287q0 -132 -53 -346zM444 823q-33 -33 -67 -190h131q18 95 18 139q0 40 -10.5 54t-34.5 14
q-20 0 -37 -17z" />
    <glyph glyph-name="f" unicode="f" horiz-adv-x="557" 
d="M-35 0l162 834h-59l55 284h59l11 51q27 140 102 215q84 84 229 84q113 0 201 -30l-51 -256q-38 10 -68 10q-35 0 -51.5 -15t-22.5 -51l-2 -12h132l-56 -280h-125l-162 -834h-354z" />
    <glyph glyph-name="g" unicode="g" horiz-adv-x="894" 
d="M313 -274q-205 0 -391 59l58 293q173 -62 280 -62q75 0 113 35q36 36 57 129l14 62q-64 -80 -118 -117t-119 -37q-195 0 -195 270q0 170 57 394t148 315q72 72 168 72q76 0 123 -37.5t78 -110.5l24 127h357l-187 -958q-44 -221 -147 -324q-110 -110 -320 -110zM418 391
q18 0 33 15q29 29 56.5 166.5t27.5 195.5q0 59 -46 59q-18 0 -32 -14q-29 -29 -56.5 -166.5t-27.5 -195.5q0 -60 45 -60z" />
    <glyph glyph-name="h" unicode="h" horiz-adv-x="868" 
d="M-72 0l285 1464h356l-92 -473q51 67 108.5 107.5t133.5 40.5q93 0 139.5 -52.5t46.5 -136.5q0 -45 -10 -100l-166 -850h-356l143 727q8 31 8 53q0 39 -37 39q-44 0 -53 -57l-149 -762h-357z" />
    <glyph glyph-name="i" unicode="i" horiz-adv-x="438" 
d="M-68 0l218 1118h356l-217 -1118h-357zM160 1180l55 284h360l-55 -284h-360z" />
    <glyph glyph-name="j" unicode="j" horiz-adv-x="436" 
d="M-76 -276q-86 0 -160 12l43 227q28 -4 50 -4q36 0 55 18t29 64l209 1077h356l-207 -1065q-36 -184 -123 -256.5t-252 -72.5zM160 1180l55 284h360l-55 -284h-360z" />
    <glyph glyph-name="k" unicode="k" horiz-adv-x="856" 
d="M-72 0l285 1464h356l-129 -659l162 313h373l-275 -487l56 -631h-359l-8 377l-45 -74l-59 -303h-357z" />
    <glyph glyph-name="l" unicode="l" horiz-adv-x="438" 
d="M-68 0l285 1464h356l-284 -1464h-357z" />
    <glyph glyph-name="m" unicode="m" horiz-adv-x="1300" 
d="M-72 0l217 1118h353l-25 -127q113 148 254 148q145 0 170 -148q117 148 254 148q93 0 139.5 -52.5t46.5 -136.5q0 -45 -10 -100l-166 -850h-352l143 727q9 35 9 53q0 39 -37 39q-45 0 -54 -57l-149 -762h-352l143 727q8 31 8 53q0 39 -37 39q-44 0 -53 -57l-149 -762
h-353z" />
    <glyph glyph-name="n" unicode="n" horiz-adv-x="868" 
d="M-72 0l217 1118h357l-25 -127q51 67 108.5 107.5t133.5 40.5q93 0 139.5 -52.5t46.5 -136.5q0 -45 -10 -100l-166 -850h-356l143 727q8 31 8 53q0 39 -37 39q-44 0 -53 -57l-149 -762h-357z" />
    <glyph glyph-name="o" unicode="o" horiz-adv-x="870" 
d="M354 -27q-175 0 -264.5 109t-89.5 283q0 162 57.5 357.5t157.5 295.5q127 127 301 127q175 0 264.5 -108.5t89.5 -282.5q0 -163 -57.5 -358.5t-157.5 -295.5q-127 -127 -301 -127zM385 281q17 0 31 14q33 33 72.5 224.5t39.5 254.5q0 64 -43 64q-15 0 -30 -15
q-33 -33 -73 -224.5t-40 -254.5t43 -63z" />
    <glyph glyph-name="p" unicode="p" horiz-adv-x="894" 
d="M510 -20q-77 0 -123 36t-78 111l-76 -393h-356l268 1384h357l-25 -127q58 74 113 111t119 37q97 0 145.5 -70t48.5 -195q0 -105 -23 -259t-78 -322.5t-128 -241.5q-71 -71 -164 -71zM408 291q16 0 30 14q29 29 67 215.5t38 245.5t-47 59q-17 0 -31 -14
q-29 -29 -67 -215.5t-38 -245.5t48 -59z" />
    <glyph glyph-name="q" unicode="q" horiz-adv-x="894" 
d="M186 -20q-97 0 -145.5 69.5t-48.5 194.5q0 105 23 259t78 322.5t128 241.5q72 72 164 72q76 0 122.5 -36t78.5 -112l24 127h357l-269 -1384h-356l76 393q-57 -73 -112.5 -110t-119.5 -37zM399 293q17 0 31 14q29 29 67 215.5t38 245.5t-48 59q-16 0 -30 -14
q-29 -29 -67 -215.5t-38 -245.5t47 -59z" />
    <glyph glyph-name="r" unicode="r" horiz-adv-x="575" 
d="M-72 0l217 1118h355l-35 -172q93 196 213 187l-82 -426h-6q-88 0 -138 -53.5t-73 -170.5l-94 -483h-357z" />
    <glyph glyph-name="s" unicode="s" horiz-adv-x="677" 
d="M242 -27q-82 0 -166.5 27t-145.5 68l64 327q147 -110 233 -110q60 0 60 47q0 20 -14 40t-52 58q-85 87 -124.5 157.5t-39.5 157.5q0 172 102 286t275 114q152 0 289 -70l-66 -330q-136 89 -208 89q-28 0 -43 -12t-15 -31q0 -17 11.5 -33t54.5 -62q86 -87 127 -156.5
t41 -158.5q0 -111 -45.5 -203t-134 -148.5t-203.5 -56.5z" />
    <glyph glyph-name="t" unicode="t" horiz-adv-x="563" 
d="M256 -20q-114 0 -182 49t-68 145q0 44 12 109l107 551h-59l55 284h59l49 260h355l-49 -260h122l-55 -284h-123l-92 -467q-8 -40 -8 -54q0 -37 49 -37q25 0 66 13l-54 -281q-86 -28 -184 -28z" />
    <glyph glyph-name="u" unicode="u" horiz-adv-x="870" 
d="M150 -20q-93 0 -140 52.5t-47 135.5q0 45 10 100l166 850h357l-144 -727q-8 -31 -8 -53q0 -39 37 -39q44 0 53 57l150 762h356l-217 -1118h-356l24 127q-51 -67 -108 -107t-133 -40z" />
    <glyph glyph-name="v" unicode="v" horiz-adv-x="835" 
d="M127 -4l-35 1122h357l-39 -583l186 583h365l-469 -1122h-365z" />
    <glyph glyph-name="w" unicode="w" horiz-adv-x="1171" 
d="M90 -4l8 1122h348l-43 -522l154 522h270l-47 -522l158 522h352l-426 -1122h-307v448l-156 -448h-311z" />
    <glyph glyph-name="x" unicode="x" horiz-adv-x="837" 
d="M451 1118l20 -270l121 270h360l-325 -571l114 -547h-348l-22 293l-131 -293h-361l334 586l-111 532h349z" />
    <glyph glyph-name="y" unicode="y" horiz-adv-x="827" 
d="M127 14l-33 1104h350l-32 -579l186 579h358l-596 -1384h-356v2z" />
    <glyph glyph-name="z" unicode="z" horiz-adv-x="710" 
d="M-86 0l51 268l381 553h-268l57 297h664l-51 -266l-383 -555h274l-57 -297h-668z" />
    <glyph glyph-name="braceleft" unicode="{" horiz-adv-x="663" 
d="M530 -27l-47 -245q-430 54 -430 303q0 90 60 196q51 90 51 152q0 80 -125 80h-35l47 250h35q95 0 131 36q32 32 39 87.5t2 142.5q-6 107 11.5 192t82.5 150q131 131 465 123l-49 -246q-66 -5 -103 -15t-61 -34q-32 -32 -39.5 -93t0.5 -130q6 -86 -4.5 -152.5
t-54.5 -110.5q-58 -58 -203 -79q87 -23 133.5 -71t46.5 -114q0 -49 -14 -89t-45 -99q-28 -53 -36.5 -75.5t-8.5 -49.5q0 -42 33.5 -67t117.5 -42z" />
    <glyph glyph-name="bar" unicode="|" horiz-adv-x="434" 
d="M-45 -201l344 1774h229l-344 -1774h-229z" />
    <glyph glyph-name="braceright" unicode="}" horiz-adv-x="663" 
d="M143 1194l47 246q227 -31 329 -106.5t102 -196.5q0 -91 -60 -197q-51 -90 -51 -152q0 -79 125 -79h35l-47 -250h-35q-94 0 -131 -37q-32 -32 -39 -87t-2 -142q4 -68 0.5 -119.5t-26.5 -115t-68 -108.5q-130 -130 -465 -122l49 245q65 5 102.5 15.5t61.5 34.5
q32 32 39.5 93t-0.5 130q-6 86 4.5 152t54.5 110q59 60 203 80q-88 23 -134.5 70.5t-46.5 113.5q0 49 14.5 89.5t45.5 99.5q20 39 27 53.5t12.5 33t5.5 37.5q0 42 -33.5 67t-118.5 42z" />
    <glyph glyph-name="asciitilde" unicode="~" horiz-adv-x="724" 
d="M195 510l-146 29q29 114 82.5 175.5t118.5 61.5q55 0 131 -28q85 -31 111 -31t41.5 15.5t29.5 51.5l148 -28q-29 -114 -82.5 -176t-118.5 -62q-52 0 -131 29q-85 31 -111 31q-25 0 -39.5 -15t-33.5 -53z" />
    <glyph glyph-name="uni00A0" unicode="&#xa0;" horiz-adv-x="0" 
 />
    <glyph glyph-name="exclamdown" unicode="&#xa1;" horiz-adv-x="471" 
d="M393 963l-45 -938l-4 -25h-434l4 25l319 938h160zM592 1434l-72 -367h-373l72 367h373z" />
    <glyph glyph-name="cent" unicode="&#xa2;" horiz-adv-x="679" 
d="M453 1444h247l-28 -152q68 -20 116 -45l-65 -329q-72 55 -139 55q-55 0 -92 -37q-51 -51 -75 -150t-24 -186q0 -76 28.5 -109.5t86.5 -33.5q68 0 133 32l-63 -325q-68 -23 -134 -31l-26 -145h-248l35 186q-174 94 -174 356q0 102 18.5 214.5t69.5 238t127 201.5
q76 79 178 108z" />
    <glyph glyph-name="sterling" unicode="&#xa3;" horiz-adv-x="837" 
d="M-82 0l49 258l142 66l41 213h-121l61 317h119l29 143q24 126 58.5 205t96.5 141q115 115 318 115q142 0 250 -45l-66 -330q-62 35 -137 35q-72 0 -111 -39q-37 -37 -59 -131l-19 -94h232l-62 -317h-231l-37 -195h303l-65 -342h-791z" />
    <glyph glyph-name="yen" unicode="&#xa5;" horiz-adv-x="888" 
d="M147 0l37 193h-217l53 264h216l16 88h-217l53 264h143l-96 625h348l29 -476l195 476h366l-340 -625h146l-54 -264h-217l-16 -88h219l-53 -264h-217l-37 -193h-357z" />
    <glyph glyph-name="section" unicode="&#xa7;" horiz-adv-x="878" 
d="M907 772q0 -194 -231 -289v-2q59 -69 59 -174q0 -152 -105.5 -242t-279.5 -90q-105 0 -195 30t-143 69l58 276q55 -41 120.5 -68.5t122.5 -27.5q40 0 61 14.5t21 38.5q0 20 -21.5 39t-90.5 53q-144 70 -197 124.5t-53 138.5q0 193 231 288v2q-59 69 -59 174
q0 152 105.5 242t279.5 90q105 0 195 -29.5t143 -68.5l-58 -277q-55 42 -120.5 69.5t-122.5 27.5q-40 0 -61 -15t-21 -39q0 -20 20.5 -39t91.5 -53q145 -70 197.5 -124t52.5 -138zM344 723q0 -23 15 -39t71 -45l64 -33q102 52 102 105q0 23 -15 39t-71 45l-64 32
q-102 -52 -102 -104z" />
    <glyph glyph-name="dieresis" unicode="&#xa8;" 
d="M358 1165l48 252h247l-47 -252h-248zM655 1165l47 252h248l-47 -252h-248z" />
    <glyph glyph-name="copyright" unicode="&#xa9;" horiz-adv-x="1019" 
d="M541 274q-131 0 -202 79t-71 225q0 126 45 266.5t123 218.5q96 96 226 96q92 0 165 -39l-49 -227q-47 35 -100 35q-45 0 -78 -33q-34 -34 -60 -127.5t-26 -157.5q0 -54 23 -78t71 -24q40 0 103 24l-47 -231q-62 -27 -123 -27zM1044 979q0 -93 -16 -207t-46.5 -237
t-86 -237.5t-125.5 -184.5q-71 -71 -150 -107.5t-184 -36.5q-179 0 -289 128t-110 358q0 93 16 207t46.5 237t86 237.5t125.5 184.5t149.5 106.5t184.5 36.5q179 0 289 -128t110 -357zM113 459q0 -198 86.5 -308t240.5 -110q86 0 152 29t129 92q78 78 137.5 238t85 310.5
t25.5 264.5q0 197 -87 307.5t-241 110.5q-86 0 -152 -29t-129 -92q-78 -78 -137 -238.5t-84.5 -311t-25.5 -263.5z" />
    <glyph glyph-name="ordfeminine" unicode="&#xaa;" horiz-adv-x="487" 
d="M205 821q-46 0 -72.5 32.5t-26.5 96.5q0 19 3 44.5t14.5 65t30 71t55 54.5t84.5 23q49 0 88 -20l2 10q2 14 2 25q0 49 -66 49q-57 0 -126 -31l34 178q83 27 176 27q90 0 135.5 -42.5t45.5 -121.5q0 -30 -6 -65l-76 -386h-191l11 50q-54 -60 -117 -60zM305 948q30 0 39 47
l16 86q-15 9 -30 9q-26 0 -37.5 -40t-11.5 -65q0 -37 24 -37zM37 571l33 170h422l-33 -170h-422z" />
    <glyph glyph-name="guillemotleft" unicode="&#xab;" horiz-adv-x="839" 
d="M158 92l-146 432l13 70l313 432l194 -80l-225 -385l74 -389zM522 92l-155 459l4 16l331 459l195 -80l-225 -385l73 -389z" />
    <glyph glyph-name="registered" unicode="&#xae;" horiz-adv-x="540" 
d="M430 1452q89 0 143 -64.5t54 -173.5q0 -104 -35.5 -217t-102.5 -180q-72 -72 -170 -72q-88 0 -142 64.5t-54 173.5q0 104 35 217t102 180q72 72 170 72zM322 778q81 0 143 62q61 61 93 169.5t32 200.5q0 99 -42 154t-120 55q-82 0 -143 -61t-93 -170t-32 -201
q0 -99 42 -154t120 -55zM348 1022l-22 -123h-109l78 408h80q79 0 115.5 -25t37.5 -84q0 -101 -75 -141l28 -158h-114l-17 123h-2zM367 1110h2q18 0 28 10q21 21 21 62q0 32 -27 32h-6z" />
    <glyph glyph-name="macron" unicode="&#xaf;" 
d="M358 1169l43 211h541l-43 -211h-541z" />
    <glyph glyph-name="degree" unicode="&#xb0;" horiz-adv-x="561" 
d="M426 1448q112 0 169.5 -70.5t57.5 -175.5q0 -98 -33 -222.5t-102 -193.5q-73 -73 -182 -73q-112 0 -169.5 70t-57.5 175q0 98 33 222.5t102 193.5q74 74 182 74zM348 909q10 0 19 9q21 21 46 134.5t25 164.5q0 34 -24 34q-11 0 -19 -8q-21 -21 -46 -134.5t-25 -164.5
q0 -35 24 -35z" />
    <glyph glyph-name="plusminus" unicode="&#xb1;" horiz-adv-x="892" 
d="M252 371l53 278h-248l60 307h248l55 279h315l-55 -279h248l-60 -307h-247l-54 -278h-315zM-68 0l58 293h809l-58 -293h-809z" />
    <glyph glyph-name="acute" unicode="&#xb4;" 
d="M412 1165l192 265l301 -76l-289 -189h-204z" />
    <glyph glyph-name="mu" unicode="&#xb5;" horiz-adv-x="964" 
d="M377 -14q-95 0 -125 116l-6 -2q3 -164 -23 -309l-10 -57h-336l268 1384h357l-144 -729q-8 -36 -8 -55q0 -39 39 -39q45 0 55 59l150 764h356l-147 -762q-6 -23 -6 -43q0 -37 51 -37q14 0 49 5l-53 -269q-81 -32 -162 -32q-132 0 -160 116q-38 -67 -73 -88.5t-72 -21.5z
" />
    <glyph glyph-name="paragraph" unicode="&#xb6;" horiz-adv-x="716" 
d="M281 0l90 459q-124 29 -199 104q-94 94 -94 250q0 289 170 459q162 162 428 162h176l-279 -1434h-292z" />
    <glyph glyph-name="periodcentered" unicode="&#xb7;" horiz-adv-x="434" 
d="M10 457l74 377h373l-74 -377h-373z" />
    <glyph glyph-name="cedilla" unicode="&#xb8;" 
d="M395 -270l-321 65l231 246h227z" />
    <glyph glyph-name="ordmasculine" unicode="&#xba;" horiz-adv-x="485" 
d="M35 571l33 170h409l-33 -170h-409zM301 1008q0 -29 23 -29q8 0 14 6q21 21 41 121.5t20 142.5q0 29 -22 29q-9 0 -15 -6q-21 -21 -41 -121.5t-20 -142.5zM586 1239q0 -83 -30.5 -195t-90.5 -172q-63 -63 -156 -63q-97 0 -145.5 59t-48.5 150q0 83 30.5 194.5t90.5 171.5
q64 64 155 64q98 0 146.5 -58.5t48.5 -150.5z" />
    <glyph glyph-name="guillemotright" unicode="&#xbb;" horiz-adv-x="839" 
d="M682 1026l145 -432l-12 -70l-313 -432l-195 80l225 385l-73 389zM317 1026l156 -459l-4 -16l-332 -459l-194 80l225 385l-74 389z" />
    <glyph glyph-name="questiondown" unicode="&#xbf;" horiz-adv-x="727" 
d="M643 963l-47 -377l-8 -13q-226 -32 -226 -153q0 -88 136 -88q93 0 178 33l-66 -345q-106 -36 -245 -36q-181 0 -288.5 93.5t-107.5 252.5q0 162 90 278.5t258 165.5l89 189h237zM799 1434l-72 -367h-373l72 367h373z" />
    <glyph glyph-name="Agrave" unicode="&#xc0;" horiz-adv-x="950" 
d="M-125 0l551 1436h438l-6 -1436h-356l12 231h-201l-77 -231h-361zM412 528h118l25 428zM526 1493l-198 158l360 65l76 -223h-238z" />
    <glyph glyph-name="Aacute" unicode="&#xc1;" horiz-adv-x="950" 
d="M-125 0l551 1436h438l-6 -1436h-356l12 231h-201l-77 -231h-361zM412 528h118l25 428zM522 1493l162 223l346 -65l-260 -158h-248z" />
    <glyph glyph-name="Acircumflex" unicode="&#xc2;" horiz-adv-x="950" 
d="M-125 0l551 1436h438l-6 -1436h-356l12 231h-201l-77 -231h-361zM412 528h118l25 428zM371 1493l190 209h268l113 -209h-201l-69 68l-94 -68h-207z" />
    <glyph glyph-name="Atilde" unicode="&#xc3;" horiz-adv-x="950" 
d="M-125 0l551 1436h438l-6 -1436h-356l12 231h-201l-77 -231h-361zM412 528h118l25 428zM502 1479l-150 24q29 122 82 187t121 65q45 0 125 -31q82 -30 111 -30q26 0 41.5 15.5t29.5 51.5l150 -24q-29 -122 -82 -187t-121 -65q-45 0 -125 31q-82 30 -111 30
q-26 0 -41.5 -15.5t-29.5 -51.5z" />
    <glyph glyph-name="Adieresis" unicode="&#xc4;" horiz-adv-x="950" 
d="M-125 0l551 1436h438l-6 -1436h-356l12 231h-201l-77 -231h-361zM412 528h118l25 428zM377 1493l43 231h256l-43 -231h-256zM686 1493l43 231h256l-43 -231h-256z" />
    <glyph glyph-name="Aring" unicode="&#xc5;" horiz-adv-x="950" 
d="M-125 0l547 1425h39q-25 39 -25 88q0 91 66.5 153.5t173.5 62.5q82 0 141.5 -50t59.5 -129q0 -70 -46 -125h33l-6 -1425h-356l12 231h-201l-77 -231h-361zM647 1430q49 0 80 32t31 76q0 41 -25 64.5t-67 23.5q-49 0 -80 -32t-31 -76q0 -41 25 -64.5t67 -23.5zM412 528
h118l25 428z" />
    <glyph glyph-name="AE" unicode="&#xc6;" horiz-adv-x="1267" 
d="M-135 0l588 1434h952l-68 -347h-329l-39 -198h295l-66 -336h-295l-39 -207h336l-67 -346h-701l45 231h-172l-86 -231h-354zM406 528h129l108 564h-25z" />
    <glyph glyph-name="Ccedilla" unicode="&#xc7;" horiz-adv-x="796" 
d="M348 -270l-321 65l219 232q-217 117 -217 458q0 221 74.5 456t207.5 368q145 145 355 145q151 0 258 -63l-72 -355q-94 70 -176 70q-66 0 -113 -47q-72 -72 -119 -244t-47 -303q0 -104 41 -148.5t115 -44.5q75 0 176 41l-67 -335q-91 -45 -199 -45h-4z" />
    <glyph glyph-name="Egrave" unicode="&#xc8;" horiz-adv-x="765" 
d="M-70 0l279 1434h694l-67 -347h-330l-39 -198h295l-66 -336h-295l-39 -207h336l-67 -346h-701zM438 1477l-198 157l360 66l76 -223h-238z" />
    <glyph glyph-name="Eacute" unicode="&#xc9;" horiz-adv-x="765" 
d="M-70 0l279 1434h694l-67 -347h-330l-39 -198h295l-66 -336h-295l-39 -207h336l-67 -346h-701zM436 1477l162 223l346 -66l-260 -157h-248z" />
    <glyph glyph-name="Ecircumflex" unicode="&#xca;" horiz-adv-x="765" 
d="M-70 0l279 1434h694l-67 -347h-330l-39 -198h295l-66 -336h-295l-39 -207h336l-67 -346h-701zM281 1477l190 209h268l113 -209h-201l-69 67l-95 -67h-206z" />
    <glyph glyph-name="Edieresis" unicode="&#xcb;" horiz-adv-x="765" 
d="M-70 0l279 1434h694l-67 -347h-330l-39 -198h295l-66 -336h-295l-39 -207h336l-67 -346h-701zM287 1477l43 231h256l-43 -231h-256zM596 1477l43 231h256l-43 -231h-256z" />
    <glyph glyph-name="Igrave" unicode="&#xcc;" horiz-adv-x="450" 
d="M-66 0l279 1434h365l-279 -1434h-365zM276 1477l-198 157l360 66l76 -223h-238z" />
    <glyph glyph-name="Iacute" unicode="&#xcd;" horiz-adv-x="450" 
d="M-66 0l279 1434h365l-279 -1434h-365zM274 1477l162 223l346 -66l-260 -157h-248z" />
    <glyph glyph-name="Icircumflex" unicode="&#xce;" horiz-adv-x="450" 
d="M-66 0l279 1434h365l-279 -1434h-365zM119 1477l190 209h269l112 -209h-201l-69 67l-94 -67h-207z" />
    <glyph glyph-name="Idieresis" unicode="&#xcf;" horiz-adv-x="450" 
d="M-66 0l279 1434h365l-279 -1434h-365zM125 1477l43 231h256l-43 -231h-256zM434 1477l43 231h256l-43 -231h-256z" />
    <glyph glyph-name="Eth" unicode="&#xd0;" horiz-adv-x="1011" 
d="M14 569l60 303h67l109 562h221q305 0 447 -142q124 -124 124 -360q0 -74 -14 -171.5t-41.5 -207t-78.5 -213.5t-115 -168q-88 -88 -206 -130t-288 -42h-328l111 569h-68zM637 1065q-33 33 -94 33h-2l-45 -232h86l-58 -291h-86l-45 -239h8q74 0 123 49q63 63 106.5 249
t43.5 296q0 98 -37 135z" />
    <glyph glyph-name="Ntilde" unicode="&#xd1;" horiz-adv-x="976" 
d="M-70 0l279 1434h358l80 -564l111 564h350l-279 -1434h-342l-90 598l-116 -598h-351zM512 1462l-150 25q29 122 82 187t121 65q45 0 125 -31q84 -31 111 -31q25 0 41 16t30 52l150 -25q-29 -122 -82 -187t-121 -65q-45 0 -125 31q-84 31 -110 31t-42 -16t-30 -52z" />
    <glyph glyph-name="Ograve" unicode="&#xd2;" horiz-adv-x="978" 
d="M623 1464q178 0 285.5 -114.5t107.5 -333.5q0 -92 -17 -213.5t-49.5 -254.5t-90 -256t-128.5 -194q-129 -129 -313 -129q-177 0 -285 114.5t-108 334.5q0 92 17 213.5t49 254t89.5 255.5t128.5 194q129 129 314 129zM442 301q27 0 50 23q49 49 108 328t59 395
q0 86 -61 86q-26 0 -49 -23q-49 -49 -108.5 -328.5t-59.5 -394.5q0 -86 61 -86zM537 1493l-199 158l360 65l76 -223h-237z" />
    <glyph glyph-name="Oacute" unicode="&#xd3;" horiz-adv-x="978" 
d="M623 1464q178 0 285.5 -114.5t107.5 -333.5q0 -92 -17 -213.5t-49.5 -254.5t-90 -256t-128.5 -194q-129 -129 -313 -129q-177 0 -285 114.5t-108 334.5q0 92 17 213.5t49 254t89.5 255.5t128.5 194q129 129 314 129zM442 301q27 0 50 23q49 49 108 328t59 395
q0 86 -61 86q-26 0 -49 -23q-49 -49 -108.5 -328.5t-59.5 -394.5q0 -86 61 -86zM532 1493l162 223l346 -65l-260 -158h-248z" />
    <glyph glyph-name="Ocircumflex" unicode="&#xd4;" horiz-adv-x="978" 
d="M623 1464q178 0 285.5 -114.5t107.5 -333.5q0 -92 -17 -213.5t-49.5 -254.5t-90 -256t-128.5 -194q-129 -129 -313 -129q-177 0 -285 114.5t-108 334.5q0 92 17 213.5t49 254t89.5 255.5t128.5 194q129 129 314 129zM442 301q27 0 50 23q49 49 108 328t59 395
q0 86 -61 86q-26 0 -49 -23q-49 -49 -108.5 -328.5t-59.5 -394.5q0 -86 61 -86zM381 1493l190 209h269l112 -209h-200l-70 68l-94 -68h-207z" />
    <glyph glyph-name="Otilde" unicode="&#xd5;" horiz-adv-x="978" 
d="M623 1464q178 0 285.5 -114.5t107.5 -333.5q0 -92 -17 -213.5t-49.5 -254.5t-90 -256t-128.5 -194q-129 -129 -313 -129q-177 0 -285 114.5t-108 334.5q0 92 17 213.5t49 254t89.5 255.5t128.5 194q129 129 314 129zM442 301q27 0 50 23q49 49 108 328t59 395
q0 86 -61 86q-26 0 -49 -23q-49 -49 -108.5 -328.5t-59.5 -394.5q0 -86 61 -86zM512 1479l-150 24q29 122 82 187t121 65q45 0 125 -31q82 -30 111 -30q26 0 41.5 15.5t29.5 51.5l150 -24q-29 -122 -82 -187t-121 -65q-45 0 -125 31q-82 30 -110 30q-26 0 -42 -15.5
t-30 -51.5z" />
    <glyph glyph-name="Odieresis" unicode="&#xd6;" horiz-adv-x="978" 
d="M623 1464q178 0 285.5 -114.5t107.5 -333.5q0 -92 -17 -213.5t-49.5 -254.5t-90 -256t-128.5 -194q-129 -129 -313 -129q-177 0 -285 114.5t-108 334.5q0 92 17 213.5t49 254t89.5 255.5t128.5 194q129 129 314 129zM442 301q27 0 50 23q49 49 108 328t59 395
q0 86 -61 86q-26 0 -49 -23q-49 -49 -108.5 -328.5t-59.5 -394.5q0 -86 61 -86zM387 1493l43 231h256l-43 -231h-256zM696 1493l43 231h256l-43 -231h-256z" />
    <glyph glyph-name="multiply" unicode="&#xd7;" horiz-adv-x="892" 
d="M211 301l-191 236l242 198l-158 195l238 203l160 -195l235 203l191 -236l-238 -200l156 -197l-236 -203l-157 197z" />
    <glyph glyph-name="Oslash" unicode="&#xd8;" horiz-adv-x="980" 
d="M625 1464q171 0 278 -110l60 90h151l-139 -201q41 -100 41 -231q0 -91 -17 -212t-49.5 -253t-90 -255t-128.5 -194q-129 -129 -315 -129q-176 0 -279 109l-59 -88h-152l137 203q-38 89 -38 229q0 91 17 211.5t49 253t89.5 255t128.5 193.5q129 129 316 129zM541 1118
q-37 -37 -76 -185t-68 -321l275 453q-8 80 -74 80q-30 0 -57 -27zM442 289q32 0 58 26q69 61 143 500l-274 -450q8 -76 73 -76z" />
    <glyph glyph-name="Ugrave" unicode="&#xd9;" horiz-adv-x="937" 
d="M389 -23q-185 0 -286 89t-101 235q0 87 18 186l185 947h364l-194 -992q0 -3 -3 -16.5t-5 -28t-2 -28.5q0 -27 15.5 -43.5t43.5 -16.5t49 21q23 23 35 82l201 1022h364l-194 -1006q-23 -116 -59 -192.5t-93 -133.5q-125 -125 -338 -125zM522 1477l-198 157l360 66l76 -223
h-238z" />
    <glyph glyph-name="Uacute" unicode="&#xda;" horiz-adv-x="937" 
d="M389 -23q-185 0 -286 89t-101 235q0 87 18 186l185 947h364l-194 -992q0 -3 -3 -16.5t-5 -28t-2 -28.5q0 -27 15.5 -43.5t43.5 -16.5t49 21q23 23 35 82l201 1022h364l-194 -1006q-23 -116 -59 -192.5t-93 -133.5q-125 -125 -338 -125zM518 1477l162 223l346 -66
l-260 -157h-248z" />
    <glyph glyph-name="Ucircumflex" unicode="&#xdb;" horiz-adv-x="937" 
d="M389 -23q-185 0 -286 89t-101 235q0 87 18 186l185 947h364l-194 -992q0 -3 -3 -16.5t-5 -28t-2 -28.5q0 -27 15.5 -43.5t43.5 -16.5t49 21q23 23 35 82l201 1022h364l-194 -1006q-23 -116 -59 -192.5t-93 -133.5q-125 -125 -338 -125zM365 1477l190 209h268l113 -209
h-201l-69 67l-95 -67h-206z" />
    <glyph glyph-name="Udieresis" unicode="&#xdc;" horiz-adv-x="937" 
d="M389 -23q-185 0 -286 89t-101 235q0 87 18 186l185 947h364l-194 -992q0 -3 -3 -16.5t-5 -28t-2 -28.5q0 -27 15.5 -43.5t43.5 -16.5t49 21q23 23 35 82l201 1022h364l-194 -1006q-23 -116 -59 -192.5t-93 -133.5q-125 -125 -338 -125zM371 1477l43 231h256l-43 -231
h-256zM680 1477l43 231h256l-43 -231h-256z" />
    <glyph glyph-name="Yacute" unicode="&#xdd;" horiz-adv-x="892" 
d="M154 0l98 502l-98 932h362l6 -473l187 473h366l-459 -932l-98 -502h-364zM489 1477l162 223l346 -66l-260 -157h-248z" />
    <glyph glyph-name="Thorn" unicode="&#xde;" horiz-adv-x="882" 
d="M-70 0l279 1434h360l-34 -177q84 -4 159.5 -34.5t124.5 -75.5q107 -104 107 -277q0 -136 -44 -271t-132 -214q-157 -145 -406 -145h-8l-45 -240h-361zM397 555h9q55 0 88 33q36 36 54.5 113.5t18.5 134.5q0 60 -28 88q-22 22 -60 22h-6z" />
    <glyph glyph-name="germandbls" unicode="&#xdf;" horiz-adv-x="948" 
d="M358 2l60 295q139 33 139 190q0 92 -78 127l51 271q53 23 85 84t32 131q0 82 -57 82q-75 0 -105 -156l-200 -1026h-357l203 1051q39 197 141 299q125 125 349 125q188 0 288.5 -94.5t100.5 -245.5q0 -285 -242 -398q139 -89 139 -270q0 -231 -145 -358t-404 -107z" />
    <glyph glyph-name="agrave" unicode="&#xe0;" horiz-adv-x="823" 
d="M147 -20q-92 0 -140 59t-48 172q0 111 36 228t101 182q75 75 189 75q52 0 89 -11.5t83 -37.5l4 19q6 18 6 53q0 100 -139 100q-103 0 -219 -53l63 330q147 43 293 43q169 0 267.5 -79.5t98.5 -240.5q0 -61 -16 -149l-131 -670h-354l14 76q-45 -48 -90 -72t-107 -24z
M319 211q22 0 41 19.5t29 62.5l31 160q-27 18 -53 18q-21 0 -37 -16q-22 -22 -38 -83.5t-16 -99.5q0 -61 43 -61zM434 1182l-215 188l322 76l90 -264h-197z" />
    <glyph glyph-name="aacute" unicode="&#xe1;" horiz-adv-x="823" 
d="M147 -20q-92 0 -140 59t-48 172q0 111 36 228t101 182q75 75 189 75q52 0 89 -11.5t83 -37.5l4 19q6 18 6 53q0 100 -139 100q-103 0 -219 -53l63 330q147 43 293 43q169 0 267.5 -79.5t98.5 -240.5q0 -61 -16 -149l-131 -670h-354l14 76q-45 -48 -90 -72t-107 -24z
M319 211q22 0 41 19.5t29 62.5l31 160q-27 18 -53 18q-21 0 -37 -16q-22 -22 -38 -83.5t-16 -99.5q0 -61 43 -61zM399 1182l193 264l301 -76l-289 -188h-205z" />
    <glyph glyph-name="acircumflex" unicode="&#xe2;" horiz-adv-x="823" 
d="M147 -20q-92 0 -140 59t-48 172q0 111 36 228t101 182q75 75 189 75q52 0 89 -11.5t83 -37.5l4 19q6 18 6 53q0 100 -139 100q-103 0 -219 -53l63 330q147 43 293 43q169 0 267.5 -79.5t98.5 -240.5q0 -61 -16 -149l-131 -670h-354l14 76q-45 -48 -90 -72t-107 -24z
M319 211q22 0 41 19.5t29 62.5l31 160q-27 18 -53 18q-21 0 -37 -16q-22 -22 -38 -83.5t-16 -99.5q0 -61 43 -61zM238 1182l208 239h248l115 -239h-188l-78 80l-111 -80h-194z" />
    <glyph glyph-name="atilde" unicode="&#xe3;" horiz-adv-x="823" 
d="M147 -20q-92 0 -140 59t-48 172q0 111 36 228t101 182q75 75 189 75q52 0 89 -11.5t83 -37.5l4 19q6 18 6 53q0 100 -139 100q-103 0 -219 -53l63 330q147 43 293 43q169 0 267.5 -79.5t98.5 -240.5q0 -61 -16 -149l-131 -670h-354l14 76q-45 -48 -90 -72t-107 -24z
M319 211q22 0 41 19.5t29 62.5l31 160q-27 18 -53 18q-21 0 -37 -16q-22 -22 -38 -83.5t-16 -99.5q0 -61 43 -61zM727 1450l150 -25q-25 -119 -80.5 -185t-120.5 -66q-42 0 -127 30q-85 31 -111 31t-41.5 -16t-29.5 -52l-150 25q25 121 80.5 186.5t120.5 65.5q43 0 127 -31
q85 -31 110 -31t39 14.5t33 53.5z" />
    <glyph glyph-name="adieresis" unicode="&#xe4;" horiz-adv-x="823" 
d="M147 -20q-92 0 -140 59t-48 172q0 111 36 228t101 182q75 75 189 75q52 0 89 -11.5t83 -37.5l4 19q6 18 6 53q0 100 -139 100q-103 0 -219 -53l63 330q147 43 293 43q169 0 267.5 -79.5t98.5 -240.5q0 -61 -16 -149l-131 -670h-354l14 76q-45 -48 -90 -72t-107 -24z
M319 211q22 0 41 19.5t29 62.5l31 160q-27 18 -53 18q-21 0 -37 -16q-22 -22 -38 -83.5t-16 -99.5q0 -61 43 -61zM252 1182l47 252h248l-47 -252h-248zM549 1182l47 252h248l-47 -252h-248z" />
    <glyph glyph-name="aring" unicode="&#xe5;" horiz-adv-x="823" 
d="M147 -20q-92 0 -140 59t-48 172q0 111 36 228t101 182q75 75 189 75q52 0 89 -11.5t83 -37.5l4 19q6 18 6 53q0 100 -139 100q-103 0 -219 -53l63 330q147 43 293 43q169 0 267.5 -79.5t98.5 -240.5q0 -61 -16 -149l-131 -670h-354l14 76q-45 -48 -90 -72t-107 -24z
M319 211q22 0 41 19.5t29 62.5l31 160q-27 18 -53 18q-21 0 -37 -16q-22 -22 -38 -83.5t-16 -99.5q0 -61 43 -61zM766 1401q0 -88 -63.5 -157.5t-167.5 -69.5q-76 0 -128.5 46t-52.5 128q0 88 64 157.5t168 69.5q76 0 128 -46t52 -128zM471 1354q0 -34 20 -56t56 -22
q43 0 72.5 32.5t29.5 86.5q0 34 -20 56t-56 22q-43 0 -72.5 -32.5t-29.5 -86.5z" />
    <glyph glyph-name="ae" unicode="&#xe6;" horiz-adv-x="1245" 
d="M180 -20q-102 0 -161.5 59.5t-59.5 167.5q0 114 36 231.5t101 182.5q75 75 189 75q52 0 89 -11.5t83 -37.5l4 19q6 18 6 53q0 100 -139 100q-103 0 -219 -53l63 330q147 43 293 43q173 0 260 -90q101 96 240 96q137 0 209.5 -98t72.5 -289q0 -130 -53 -344h-451v-4
q0 -71 39 -101t123 -30q117 0 234 57l-41 -305q-135 -58 -295 -58q-239 0 -334 154q-123 -147 -289 -147zM326 225q24 0 49 21t43 53q-6 73 6 162q-30 18 -57 18q-21 0 -37 -16q-21 -21 -37.5 -80.5t-16.5 -95.5q0 -62 50 -62zM846 823q-35 -35 -68 -190h131q19 100 19 139
q0 40 -10.5 54t-34.5 14q-20 0 -37 -17z" />
    <glyph glyph-name="ccedilla" unicode="&#xe7;" horiz-adv-x="679" 
d="M289 -270l-322 65l211 223q-178 93 -178 359q0 98 19 207t69.5 231t124.5 199q122 125 301 125q62 0 129.5 -18.5t112.5 -43.5l-66 -329q-72 55 -139 55q-55 0 -92 -37q-48 -48 -72.5 -145t-24.5 -175q0 -76 28 -109.5t87 -33.5q68 0 135 33l-63 -326q-72 -25 -150 -28z
" />
    <glyph glyph-name="egrave" unicode="&#xe8;" horiz-adv-x="843" 
d="M793 414h-451v-4q0 -71 39 -101t123 -30q116 0 233 57l-41 -305q-135 -58 -288 -58q-404 0 -404 414q0 94 20.5 204.5t72 232t124.5 194.5q127 127 295 127q156 0 243 -98t87 -287q0 -132 -53 -346zM444 823q-33 -33 -67 -190h131q18 95 18 139q0 40 -10.5 54t-34.5 14
q-20 0 -37 -17zM451 1182l-215 188l321 76l90 -264h-196z" />
    <glyph glyph-name="eacute" unicode="&#xe9;" horiz-adv-x="843" 
d="M793 414h-451v-4q0 -71 39 -101t123 -30q116 0 233 57l-41 -305q-135 -58 -288 -58q-404 0 -404 414q0 94 20.5 204.5t72 232t124.5 194.5q127 127 295 127q156 0 243 -98t87 -287q0 -132 -53 -346zM444 823q-33 -33 -67 -190h131q18 95 18 139q0 40 -10.5 54t-34.5 14
q-20 0 -37 -17zM414 1182l192 264l301 -76l-289 -188h-204z" />
    <glyph glyph-name="ecircumflex" unicode="&#xea;" horiz-adv-x="843" 
d="M793 414h-451v-4q0 -71 39 -101t123 -30q116 0 233 57l-41 -305q-135 -58 -288 -58q-404 0 -404 414q0 94 20.5 204.5t72 232t124.5 194.5q127 127 295 127q156 0 243 -98t87 -287q0 -132 -53 -346zM444 823q-33 -33 -67 -190h131q18 95 18 139q0 40 -10.5 54t-34.5 14
q-20 0 -37 -17zM254 1182l209 239h248l114 -239h-188l-78 80l-110 -80h-195z" />
    <glyph glyph-name="edieresis" unicode="&#xeb;" horiz-adv-x="843" 
d="M793 414h-451v-4q0 -71 39 -101t123 -30q116 0 233 57l-41 -305q-135 -58 -288 -58q-404 0 -404 414q0 94 20.5 204.5t72 232t124.5 194.5q127 127 295 127q156 0 243 -98t87 -287q0 -132 -53 -346zM444 823q-33 -33 -67 -190h131q18 95 18 139q0 40 -10.5 54t-34.5 14
q-20 0 -37 -17zM268 1182l47 252h248l-47 -252h-248zM565 1182l47 252h248l-47 -252h-248z" />
    <glyph glyph-name="igrave" unicode="&#xec;" horiz-adv-x="438" 
d="M-68 0l218 1118h356l-217 -1118h-357zM250 1165l-215 189l321 76l90 -265h-196z" />
    <glyph glyph-name="iacute" unicode="&#xed;" horiz-adv-x="438" 
d="M-68 0l218 1118h356l-217 -1118h-357zM215 1165l193 265l301 -76l-289 -189h-205z" />
    <glyph glyph-name="icircumflex" unicode="&#xee;" horiz-adv-x="438" 
d="M-68 0l218 1118h356l-217 -1118h-357zM55 1165l209 240h248l115 -240h-189l-78 80l-110 -80h-195z" />
    <glyph glyph-name="idieresis" unicode="&#xef;" horiz-adv-x="438" 
d="M-68 0l218 1118h356l-217 -1118h-357zM68 1165l47 252h247l-47 -252h-247zM365 1165l47 252h247l-47 -252h-247z" />
    <glyph glyph-name="eth" unicode="&#xf0;" horiz-adv-x="872" 
d="M342 1178l-33 137l107 28q-21 28 -105 121h394q24 -34 26 -37l135 37l33 -137l-98 -27q80 -196 80 -460q0 -71 -11 -162t-34.5 -201.5t-72.5 -215t-114 -169.5q-119 -119 -293 -119q-175 0 -264.5 109t-89.5 283q0 96 23 223t74.5 261t119.5 202q82 82 180 82
q84 0 146 -62q-17 73 -53 146zM387 281q17 0 31 14q33 33 72.5 224.5t39.5 254.5q0 64 -43 64q-15 0 -30 -15q-33 -33 -73 -224.5t-40 -254.5t43 -63z" />
    <glyph glyph-name="ntilde" unicode="&#xf1;" horiz-adv-x="868" 
d="M-72 0l217 1118h357l-25 -127q51 67 108.5 107.5t133.5 40.5q93 0 139.5 -52.5t46.5 -136.5q0 -45 -10 -100l-166 -850h-356l143 727q8 31 8 53q0 39 -37 39q-44 0 -53 -57l-149 -762h-357zM770 1450l150 -25q-25 -119 -80.5 -185t-120.5 -66q-42 0 -127 30
q-85 31 -111 31q-25 0 -41 -16t-30 -52l-150 25q25 121 80.5 186.5t120.5 65.5q43 0 127 -31q85 -31 110 -31t39 14.5t33 53.5z" />
    <glyph glyph-name="ograve" unicode="&#xf2;" horiz-adv-x="870" 
d="M354 -27q-175 0 -264.5 109t-89.5 283q0 162 57.5 357.5t157.5 295.5q127 127 301 127q175 0 264.5 -108.5t89.5 -282.5q0 -163 -57.5 -358.5t-157.5 -295.5q-127 -127 -301 -127zM385 281q17 0 31 14q33 33 72.5 224.5t39.5 254.5q0 64 -43 64q-15 0 -30 -15
q-33 -33 -73 -224.5t-40 -254.5t43 -63zM471 1182l-215 188l322 76l90 -264h-197z" />
    <glyph glyph-name="oacute" unicode="&#xf3;" horiz-adv-x="870" 
d="M354 -27q-175 0 -264.5 109t-89.5 283q0 162 57.5 357.5t157.5 295.5q127 127 301 127q175 0 264.5 -108.5t89.5 -282.5q0 -163 -57.5 -358.5t-157.5 -295.5q-127 -127 -301 -127zM385 281q17 0 31 14q33 33 72.5 224.5t39.5 254.5q0 64 -43 64q-15 0 -30 -15
q-33 -33 -73 -224.5t-40 -254.5t43 -63zM434 1182l193 264l301 -76l-289 -188h-205z" />
    <glyph glyph-name="ocircumflex" unicode="&#xf4;" horiz-adv-x="870" 
d="M354 -27q-175 0 -264.5 109t-89.5 283q0 162 57.5 357.5t157.5 295.5q127 127 301 127q175 0 264.5 -108.5t89.5 -282.5q0 -163 -57.5 -358.5t-157.5 -295.5q-127 -127 -301 -127zM385 281q17 0 31 14q33 33 72.5 224.5t39.5 254.5q0 64 -43 64q-15 0 -30 -15
q-33 -33 -73 -224.5t-40 -254.5t43 -63zM274 1182l209 239h248l115 -239h-189l-77 80l-111 -80h-195z" />
    <glyph glyph-name="otilde" unicode="&#xf5;" horiz-adv-x="870" 
d="M354 -27q-175 0 -264.5 109t-89.5 283q0 162 57.5 357.5t157.5 295.5q127 127 301 127q175 0 264.5 -108.5t89.5 -282.5q0 -163 -57.5 -358.5t-157.5 -295.5q-127 -127 -301 -127zM385 281q17 0 31 14q33 33 72.5 224.5t39.5 254.5q0 64 -43 64q-15 0 -30 -15
q-33 -33 -73 -224.5t-40 -254.5t43 -63zM764 1450l149 -25q-26 -119 -80.5 -185t-119.5 -66q-42 0 -127 30q-85 31 -111 31t-42 -16t-30 -52l-149 25q25 121 80.5 186.5t120.5 65.5q43 0 127 -31q85 -31 110 -31t39 14.5t33 53.5z" />
    <glyph glyph-name="odieresis" unicode="&#xf6;" horiz-adv-x="870" 
d="M354 -27q-175 0 -264.5 109t-89.5 283q0 162 57.5 357.5t157.5 295.5q127 127 301 127q175 0 264.5 -108.5t89.5 -282.5q0 -163 -57.5 -358.5t-157.5 -295.5q-127 -127 -301 -127zM385 281q17 0 31 14q33 33 72.5 224.5t39.5 254.5q0 64 -43 64q-15 0 -30 -15
q-33 -33 -73 -224.5t-40 -254.5t43 -63zM289 1182l47 252h248l-47 -252h-248zM586 1182l47 252h248l-47 -252h-248z" />
    <glyph glyph-name="divide" unicode="&#xf7;" horiz-adv-x="892" 
d="M219 207l53 278h316l-53 -278h-316zM43 571l57 299h811l-57 -299h-811zM365 956l55 279h315l-55 -279h-315z" />
    <glyph glyph-name="oslash" unicode="&#xf8;" horiz-adv-x="870" 
d="M-94 0l129 168q-35 80 -35 197q0 162 57.5 357.5t157.5 295.5q127 127 301 127q159 0 252 -96l53 69h144l-131 -170q36 -82 36 -194q0 -163 -57.5 -358.5t-157.5 -295.5q-127 -127 -301 -127q-157 0 -254 97l-51 -70h-143zM385 268q20 0 39 19q16 16 34 72t29 103.5
t29 135.5l-186 -276q8 -54 55 -54zM446 831q-22 -22 -48.5 -114t-45.5 -197l189 275q-8 55 -56 55q-20 0 -39 -19z" />
    <glyph glyph-name="ugrave" unicode="&#xf9;" horiz-adv-x="870" 
d="M150 -20q-93 0 -140 52.5t-47 135.5q0 45 10 100l166 850h357l-144 -727q-8 -31 -8 -53q0 -39 37 -39q44 0 53 57l150 762h356l-217 -1118h-356l24 127q-51 -67 -108 -107t-133 -40zM463 1165l-215 189l321 76l90 -265h-196z" />
    <glyph glyph-name="uacute" unicode="&#xfa;" horiz-adv-x="870" 
d="M150 -20q-93 0 -140 52.5t-47 135.5q0 45 10 100l166 850h357l-144 -727q-8 -31 -8 -53q0 -39 37 -39q44 0 53 57l150 762h356l-217 -1118h-356l24 127q-51 -67 -108 -107t-133 -40zM426 1165l192 265l302 -76l-289 -189h-205z" />
    <glyph glyph-name="ucircumflex" unicode="&#xfb;" horiz-adv-x="870" 
d="M150 -20q-93 0 -140 52.5t-47 135.5q0 45 10 100l166 850h357l-144 -727q-8 -31 -8 -53q0 -39 37 -39q44 0 53 57l150 762h356l-217 -1118h-356l24 127q-51 -67 -108 -107t-133 -40zM268 1165l209 240h248l115 -240h-189l-78 80l-110 -80h-195z" />
    <glyph glyph-name="udieresis" unicode="&#xfc;" horiz-adv-x="870" 
d="M150 -20q-93 0 -140 52.5t-47 135.5q0 45 10 100l166 850h357l-144 -727q-8 -31 -8 -53q0 -39 37 -39q44 0 53 57l150 762h356l-217 -1118h-356l24 127q-51 -67 -108 -107t-133 -40zM283 1165l47 252h248l-48 -252h-247zM580 1165l47 252h247l-47 -252h-247z" />
    <glyph glyph-name="yacute" unicode="&#xfd;" horiz-adv-x="827" 
d="M127 14l-33 1104h350l-32 -579l186 579h358l-596 -1384h-356v2zM408 1165l192 265l301 -76l-289 -189h-204z" />
    <glyph glyph-name="thorn" unicode="&#xfe;" horiz-adv-x="894" 
d="M510 -20q-77 0 -123 36t-78 111l-76 -393h-356l336 1730h356l-92 -473q58 74 113 111t119 37q97 0 145.5 -70t48.5 -195q0 -105 -23 -259t-78 -322.5t-128 -241.5q-71 -71 -164 -71zM408 291q16 0 30 14q29 29 67 215.5t38 245.5t-47 59q-17 0 -31 -14
q-29 -29 -67 -215.5t-38 -245.5t48 -59z" />
    <glyph glyph-name="ydieresis" unicode="&#xff;" horiz-adv-x="827" 
d="M127 14l-33 1104h350l-32 -579l186 579h358l-596 -1384h-356v2zM260 1165l47 252h248l-47 -252h-248zM557 1165l47 252h248l-47 -252h-248z" />
    <glyph glyph-name="Amacron" unicode="&#x100;" horiz-adv-x="950" 
d="M-125 0l551 1436h438l-6 -1436h-356l12 231h-201l-77 -231h-361zM412 528h118l25 428zM375 1497l43 215h565l-43 -215h-565z" />
    <glyph glyph-name="amacron" unicode="&#x101;" horiz-adv-x="823" 
d="M147 -20q-92 0 -140 59t-48 172q0 111 36 228t101 182q75 75 189 75q52 0 89 -11.5t83 -37.5l4 19q6 18 6 53q0 100 -139 100q-103 0 -219 -53l63 330q147 43 293 43q169 0 267.5 -79.5t98.5 -240.5q0 -61 -16 -149l-131 -670h-354l14 76q-45 -48 -90 -72t-107 -24z
M319 211q22 0 41 19.5t29 62.5l31 160q-27 18 -53 18q-21 0 -37 -16q-22 -22 -38 -83.5t-16 -99.5q0 -61 43 -61zM252 1186l43 211h541l-43 -211h-541z" />
    <glyph glyph-name="Abreve" unicode="&#x102;" horiz-adv-x="950" 
d="M-125 0l551 1436h438l-6 -1436h-356l12 231h-201l-77 -231h-361zM412 528h118l25 428zM655 1489q-117 0 -178.5 52.5t-44.5 160.5h182q3 -53 68 -53q61 0 88 53h186q-58 -213 -301 -213z" />
    <glyph glyph-name="abreve" unicode="&#x103;" horiz-adv-x="823" 
d="M147 -20q-92 0 -140 59t-48 172q0 111 36 228t101 182q75 75 189 75q52 0 89 -11.5t83 -37.5l4 19q6 18 6 53q0 100 -139 100q-103 0 -219 -53l63 330q147 43 293 43q169 0 267.5 -79.5t98.5 -240.5q0 -61 -16 -149l-131 -670h-354l14 76q-45 -48 -90 -72t-107 -24z
M319 211q22 0 41 19.5t29 62.5l31 160q-27 18 -53 18q-21 0 -37 -16q-22 -22 -38 -83.5t-16 -99.5q0 -61 43 -61zM526 1178q-256 0 -233 243h182q3 -80 74 -80t98 80h187q-73 -243 -308 -243z" />
    <glyph glyph-name="Aogonek" unicode="&#x104;" horiz-adv-x="950" 
d="M856 -106l-35 -177q-57 -8 -137 -8q-118 0 -174.5 27t-56.5 86q0 86 112 178h-63l12 231h-201l-77 -231h-361l551 1436h438l-6 -1436h-55q-41 -46 -41 -66q0 -14 18 -22t76 -18zM412 528h118l25 428z" />
    <glyph glyph-name="aogonek" unicode="&#x105;" horiz-adv-x="823" 
d="M686 -106l-35 -177q-57 -8 -137 -8q-118 0 -174.5 27t-56.5 86q0 86 112 178h-65l14 76q-45 -48 -90 -72t-107 -24q-92 0 -140 59t-48 172q0 111 36 228t101 182q75 75 189 75q52 0 89 -11.5t83 -37.5l4 19q6 18 6 53q0 100 -139 100q-103 0 -219 -53l63 330
q147 43 293 43q169 0 267.5 -79.5t98.5 -240.5q0 -61 -16 -149l-131 -670h-51q-41 -46 -41 -66q0 -14 18 -22t76 -18zM319 211q22 0 41 19.5t29 62.5l31 160q-27 18 -53 18q-21 0 -37 -16q-22 -22 -38 -83.5t-16 -99.5q0 -61 43 -61z" />
    <glyph glyph-name="Cacute" unicode="&#x106;" horiz-adv-x="796" 
d="M463 -20q-210 0 -322 131.5t-112 373.5q0 221 74.5 456t207.5 368q145 145 355 145q151 0 258 -63l-72 -355q-94 70 -176 70q-66 0 -113 -47q-72 -72 -119 -244t-47 -303q0 -104 41 -148.5t115 -44.5q75 0 176 41l-67 -335q-91 -45 -199 -45zM526 1493l162 223l346 -65
l-260 -158h-248z" />
    <glyph glyph-name="cacute" unicode="&#x107;" horiz-adv-x="679" 
d="M358 -20q-174 0 -266 107t-92 290q0 98 19 207t69.5 231t124.5 199q122 125 301 125q62 0 129.5 -18.5t112.5 -43.5l-66 -329q-72 55 -139 55q-55 0 -92 -37q-48 -48 -72.5 -145t-24.5 -175q0 -76 28 -109.5t87 -33.5q68 0 135 33l-63 -326q-82 -30 -191 -30zM395 1182
l193 264l301 -76l-289 -188h-205z" />
    <glyph glyph-name="Cdotaccent" unicode="&#x10a;" horiz-adv-x="796" 
d="M463 -20q-210 0 -322 131.5t-112 373.5q0 221 74.5 456t207.5 368q145 145 355 145q151 0 258 -63l-72 -355q-94 70 -176 70q-66 0 -113 -47q-72 -72 -119 -244t-47 -303q0 -104 41 -148.5t115 -44.5q75 0 176 41l-67 -335q-91 -45 -199 -45zM526 1493l43 231h275
l-43 -231h-275z" />
    <glyph glyph-name="cdotaccent" unicode="&#x10b;" horiz-adv-x="679" 
d="M358 -20q-174 0 -266 107t-92 290q0 98 19 207t69.5 231t124.5 199q122 125 301 125q62 0 129.5 -18.5t112.5 -43.5l-66 -329q-72 55 -139 55q-55 0 -92 -37q-48 -48 -72.5 -145t-24.5 -175q0 -76 28 -109.5t87 -33.5q68 0 135 33l-63 -326q-82 -30 -191 -30zM385 1182
l47 252h270l-47 -252h-270z" />
    <glyph glyph-name="Ccaron" unicode="&#x10c;" horiz-adv-x="796" 
d="M463 -20q-210 0 -322 131.5t-112 373.5q0 221 74.5 456t207.5 368q145 145 355 145q151 0 258 -63l-72 -355q-94 70 -176 70q-66 0 -113 -47q-72 -72 -119 -244t-47 -303q0 -104 41 -148.5t115 -44.5q75 0 176 41l-67 -335q-91 -45 -199 -45zM989 1702l-190 -209h-269
l-112 209h200l70 -68l94 68h207z" />
    <glyph glyph-name="ccaron" unicode="&#x10d;" horiz-adv-x="679" 
d="M358 -20q-174 0 -266 107t-92 290q0 98 19 207t69.5 231t124.5 199q122 125 301 125q62 0 129.5 -18.5t112.5 -43.5l-66 -329q-72 55 -139 55q-55 0 -92 -37q-48 -48 -72.5 -145t-24.5 -175q0 -76 28 -109.5t87 -33.5q68 0 135 33l-63 -326q-82 -30 -191 -30zM393 1182
l-114 239h188l78 -80l110 80h195l-209 -239h-248z" />
    <glyph glyph-name="Dcaron" unicode="&#x10e;" horiz-adv-x="970" 
d="M-70 0l279 1434h221q305 0 447 -142q124 -124 124 -360q0 -74 -14 -171.5t-41.5 -207t-78.5 -213.5t-115 -168q-88 -88 -206 -130t-288 -42h-328zM596 1065q-39 30 -88 33l-148 -762q74 0 123 49q63 63 106.5 249t43.5 296q0 98 -37 135zM950 1686l-190 -209h-268
l-113 209h201l69 -68l94 68h207z" />
    <glyph glyph-name="dcaron" unicode="&#x10f;" horiz-adv-x="894" 
d="M393 0l25 127q-57 -73 -112.5 -110t-119.5 -37q-97 0 -145.5 69.5t-48.5 194.5q0 105 23 259t78 322.5t128 241.5q72 72 164 72q76 0 122.5 -36t78.5 -112l90 473h356l-282 -1464h-357zM399 293q17 0 31 14q29 29 67 215.5t38 245.5t-48 59q-16 0 -30 -14
q-29 -29 -67 -215.5t-38 -245.5t47 -59zM1008 1159l73 305h189v-2l-142 -303h-120z" />
    <glyph glyph-name="Dcroat" unicode="&#x110;" horiz-adv-x="1011" 
d="M14 569l60 303h67l109 562h221q305 0 447 -142q124 -124 124 -360q0 -74 -14 -171.5t-41.5 -207t-78.5 -213.5t-115 -168q-88 -88 -206 -130t-288 -42h-328l111 569h-68zM637 1065q-33 33 -94 33h-2l-45 -232h86l-58 -291h-86l-45 -239h8q74 0 123 49q63 63 106.5 249
t43.5 296q0 98 -37 135z" />
    <glyph glyph-name="dcroat" unicode="&#x111;" horiz-adv-x="894" 
d="M487 1171l45 226h132l12 67h356l-14 -67h45l-45 -234h-45l-223 -1163h-357l25 127q-57 -73 -112.5 -110t-119.5 -37q-97 0 -145.5 69.5t-48.5 194.5q0 105 23 259t78 322.5t128 241.5q72 72 164 72q76 0 122.5 -36t78.5 -112l35 180h-134zM399 293q17 0 31 14
q29 29 67 215.5t38 245.5t-48 59q-16 0 -30 -14q-29 -29 -67 -215.5t-38 -245.5t47 -59z" />
    <glyph glyph-name="Emacron" unicode="&#x112;" horiz-adv-x="765" 
d="M-70 0l279 1434h694l-67 -347h-330l-39 -198h295l-66 -336h-295l-39 -207h336l-67 -346h-701zM287 1481l43 215h565l-43 -215h-565z" />
    <glyph glyph-name="emacron" unicode="&#x113;" horiz-adv-x="843" 
d="M793 414h-451v-4q0 -71 39 -101t123 -30q116 0 233 57l-41 -305q-135 -58 -288 -58q-404 0 -404 414q0 94 20.5 204.5t72 232t124.5 194.5q127 127 295 127q156 0 243 -98t87 -287q0 -132 -53 -346zM444 823q-33 -33 -67 -190h131q18 95 18 139q0 40 -10.5 54t-34.5 14
q-20 0 -37 -17zM268 1186l43 211h541l-43 -211h-541z" />
    <glyph glyph-name="Ebreve" unicode="&#x114;" horiz-adv-x="765" 
d="M-70 0l279 1434h694l-67 -347h-330l-39 -198h295l-66 -336h-295l-39 -207h336l-67 -346h-701zM567 1473q-117 0 -178.5 52.5t-44.5 160.5h182q3 -54 68 -54q60 0 88 54h186q-58 -213 -301 -213z" />
    <glyph glyph-name="ebreve" unicode="&#x115;" horiz-adv-x="843" 
d="M793 414h-451v-4q0 -71 39 -101t123 -30q116 0 233 57l-41 -305q-135 -58 -288 -58q-404 0 -404 414q0 94 20.5 204.5t72 232t124.5 194.5q127 127 295 127q156 0 243 -98t87 -287q0 -132 -53 -346zM444 823q-33 -33 -67 -190h131q18 95 18 139q0 40 -10.5 54t-34.5 14
q-20 0 -37 -17zM543 1178q-257 0 -234 243h183q3 -80 73 -80q72 0 99 80h186q-73 -243 -307 -243z" />
    <glyph glyph-name="Edotaccent" unicode="&#x116;" horiz-adv-x="765" 
d="M-70 0l279 1434h694l-67 -347h-330l-39 -198h295l-66 -336h-295l-39 -207h336l-67 -346h-701zM432 1477l43 231h275l-43 -231h-275z" />
    <glyph glyph-name="edotaccent" unicode="&#x117;" horiz-adv-x="843" 
d="M793 414h-451v-4q0 -71 39 -101t123 -30q116 0 233 57l-41 -305q-135 -58 -288 -58q-404 0 -404 414q0 94 20.5 204.5t72 232t124.5 194.5q127 127 295 127q156 0 243 -98t87 -287q0 -132 -53 -346zM444 823q-33 -33 -67 -190h131q18 95 18 139q0 40 -10.5 54t-34.5 14
q-20 0 -37 -17zM406 1182l47 252h270l-47 -252h-270z" />
    <glyph glyph-name="Eogonek" unicode="&#x118;" horiz-adv-x="765" 
d="M-70 0l279 1434h694l-67 -347h-330l-39 -198h295l-66 -336h-295l-39 -207h336l-67 -346h-68q-41 -46 -41 -66q0 -14 18 -22t76 -18l-34 -177q-57 -8 -138 -8q-118 0 -174.5 27t-56.5 86q0 85 113 178h-396z" />
    <glyph glyph-name="eogonek" unicode="&#x119;" horiz-adv-x="843" 
d="M737 334l-39 -291q-60 -35 -88 -63q-24 -24 -24 -43q0 -17 17 -24.5t77 -18.5l-35 -177q-57 -8 -137 -8q-119 0 -175.5 27t-56.5 86q0 75 84 153q-356 25 -356 408q0 96 20.5 208t72 235t124.5 196q127 127 295 127q156 0 243 -99t87 -288q0 -134 -53 -348h-451v-6
q0 -71 39.5 -101.5t122.5 -30.5q114 0 233 58zM444 825q-33 -33 -67 -190h131q18 95 18 139q0 40 -10.5 54t-34.5 14q-20 0 -37 -17z" />
    <glyph glyph-name="Ecaron" unicode="&#x11a;" horiz-adv-x="765" 
d="M-70 0l279 1434h694l-67 -347h-330l-39 -198h295l-66 -336h-295l-39 -207h336l-67 -346h-701zM895 1686l-190 -209h-269l-112 209h200l70 -68l94 68h207z" />
    <glyph glyph-name="ecaron" unicode="&#x11b;" horiz-adv-x="843" 
d="M793 414h-451v-4q0 -71 39 -101t123 -30q116 0 233 57l-41 -305q-135 -58 -288 -58q-404 0 -404 414q0 94 20.5 204.5t72 232t124.5 194.5q127 127 295 127q156 0 243 -98t87 -287q0 -132 -53 -346zM444 823q-33 -33 -67 -190h131q18 95 18 139q0 40 -10.5 54t-34.5 14
q-20 0 -37 -17zM414 1182l-115 239h188l78 -80l111 80h194l-208 -239h-248z" />
    <glyph glyph-name="Gbreve" unicode="&#x11e;" horiz-adv-x="933" 
d="M471 -20q-214 0 -329 131t-115 360q0 120 28 266.5t95.5 305t160.5 251.5q160 160 383 160q180 0 312 -86l-72 -356q-116 94 -236 94q-82 0 -137 -55q-54 -54 -93.5 -179t-55 -234t-15.5 -179q0 -152 92 -152q13 0 29 4l47 236h-94l61 319h424l-159 -811
q-166 -75 -326 -75zM696 1489q-117 0 -178.5 52.5t-44.5 160.5h182q3 -53 68 -53q61 0 88 53h186q-58 -213 -301 -213z" />
    <glyph glyph-name="gbreve" unicode="&#x11f;" horiz-adv-x="894" 
d="M313 -274q-205 0 -391 59l58 293q173 -62 280 -62q75 0 113 35q36 36 57 129l14 62q-64 -80 -118 -117t-119 -37q-195 0 -195 270q0 170 57 394t148 315q72 72 168 72q76 0 123 -37.5t78 -110.5l24 127h357l-187 -958q-44 -221 -147 -324q-110 -110 -320 -110zM418 391
q18 0 33 15q29 29 56.5 166.5t27.5 195.5q0 59 -46 59q-18 0 -32 -14q-29 -29 -56.5 -166.5t-27.5 -195.5q0 -60 45 -60zM604 1178q-256 0 -233 243h182q3 -80 74 -80t98 80h186q-73 -243 -307 -243z" />
    <glyph glyph-name="Gdotaccent" unicode="&#x120;" horiz-adv-x="933" 
d="M471 -20q-214 0 -329 131t-115 360q0 120 28 266.5t95.5 305t160.5 251.5q160 160 383 160q180 0 312 -86l-72 -356q-116 94 -236 94q-82 0 -137 -55q-54 -54 -93.5 -179t-55 -234t-15.5 -179q0 -152 92 -152q13 0 29 4l47 236h-94l61 319h424l-159 -811
q-166 -75 -326 -75zM561 1493l43 231h275l-43 -231h-275z" />
    <glyph glyph-name="gdotaccent" unicode="&#x121;" horiz-adv-x="894" 
d="M313 -274q-205 0 -391 59l58 293q173 -62 280 -62q75 0 113 35q36 36 57 129l14 62q-64 -80 -118 -117t-119 -37q-195 0 -195 270q0 170 57 394t148 315q72 72 168 72q76 0 123 -37.5t78 -110.5l24 127h357l-187 -958q-44 -221 -147 -324q-110 -110 -320 -110zM418 391
q18 0 33 15q29 29 56.5 166.5t27.5 195.5q0 59 -46 59q-18 0 -32 -14q-29 -29 -56.5 -166.5t-27.5 -195.5q0 -60 45 -60zM467 1182l47 252h270l-47 -252h-270z" />
    <glyph glyph-name="Gcommaaccent" unicode="&#x122;" horiz-adv-x="933" 
d="M471 -20q-214 0 -329 131t-115 360q0 120 28 266.5t95.5 305t160.5 251.5q160 160 383 160q180 0 312 -86l-72 -356q-116 94 -236 94q-82 0 -137 -55q-54 -54 -93.5 -179t-55 -234t-15.5 -179q0 -152 92 -152q13 0 29 4l47 236h-94l61 319h424l-159 -811
q-166 -75 -326 -75zM199 -455v90q131 25 153 86h-129l41 211h260l-32 -168q-22 -103 -97 -153.5t-196 -65.5z" />
    <glyph glyph-name="gcommaaccent" unicode="&#x123;" horiz-adv-x="894" 
d="M313 -274q-205 0 -391 59l58 293q173 -62 280 -62q75 0 113 35q36 36 57 129l14 62q-64 -80 -118 -117t-119 -37q-195 0 -195 270q0 170 57 394t148 315q72 72 168 72q76 0 123 -37.5t78 -110.5l24 127h357l-187 -958q-44 -221 -147 -324q-110 -110 -320 -110zM418 391
q18 0 33 15q29 29 56.5 166.5t27.5 195.5q0 59 -46 59q-18 0 -32 -14q-29 -29 -56.5 -166.5t-27.5 -195.5q0 -60 45 -60zM795 1569v-90q-132 -25 -154 -86h129l-41 -211h-260l33 168q19 102 93.5 151t199.5 68z" />
    <glyph glyph-name="Hbar" unicode="&#x126;" horiz-adv-x="958" 
d="M63 1034l52 273h69l25 127h364l-26 -136h151l27 136h365l-25 -127h65l-51 -273h-67l-201 -1034h-365l107 547h-152l-106 -547h-365l201 1034h-68zM465 883h151l31 159h-151z" />
    <glyph glyph-name="hbar" unicode="&#x127;" horiz-adv-x="868" 
d="M111 1163l47 234h41l14 67h356l-14 -67h133l-45 -226h-131l-35 -180q51 67 108.5 107.5t133.5 40.5q93 0 139.5 -52.5t46.5 -136.5q0 -45 -10 -100l-166 -850h-356l143 727q8 31 8 53q0 39 -37 39q-44 0 -53 -57l-149 -762h-357l226 1163h-43z" />
    <glyph glyph-name="Imacron" unicode="&#x12a;" horiz-adv-x="450" 
d="M-66 0l279 1434h365l-279 -1434h-365zM125 1481l43 215h565l-43 -215h-565z" />
    <glyph glyph-name="imacron" unicode="&#x12b;" horiz-adv-x="438" 
d="M-68 0l218 1118h356l-217 -1118h-357zM70 1169l43 211h540l-43 -211h-540z" />
    <glyph glyph-name="Ibreve" unicode="&#x12c;" horiz-adv-x="450" 
d="M-66 0l279 1434h365l-279 -1434h-365zM406 1473q-117 0 -178.5 52.5t-45.5 160.5h183q3 -54 67 -54q60 0 88 54h187q-58 -213 -301 -213z" />
    <glyph glyph-name="ibreve" unicode="&#x12d;" horiz-adv-x="438" 
d="M-68 0l218 1118h356l-217 -1118h-357zM344 1161q-256 0 -233 244h182q3 -80 74 -80t98 80h186q-73 -244 -307 -244z" />
    <glyph glyph-name="Iogonek" unicode="&#x12e;" horiz-adv-x="450" 
d="M-66 0l279 1434h365l-279 -1434h-61q-41 -46 -41 -66q0 -14 18 -22t76 -18l-35 -177q-57 -8 -137 -8q-119 0 -175.5 27t-56.5 86q0 85 113 178h-66z" />
    <glyph glyph-name="iogonek" unicode="&#x12f;" horiz-adv-x="438" 
d="M-68 0l218 1118h356l-217 -1118h-56q-40 -45 -40 -66q0 -14 18 -22t76 -18l-35 -177q-57 -8 -137 -8q-119 0 -175.5 27t-56.5 86q0 85 115 178h-66zM160 1180l55 284h360l-55 -284h-360z" />
    <glyph glyph-name="Idotaccent" unicode="&#x130;" horiz-adv-x="450" 
d="M-66 0l279 1434h365l-279 -1434h-365zM270 1477l43 231h275l-43 -231h-275z" />
    <glyph glyph-name="dotlessi" unicode="&#x131;" horiz-adv-x="438" 
d="M-68 0l218 1118h356l-217 -1118h-357z" />
    <glyph glyph-name="Kcommaaccent" unicode="&#x136;" horiz-adv-x="921" 
d="M-70 0l279 1434h364l-90 -467l226 467h378l-339 -639l63 -795h-377l-10 467l-59 -113l-70 -354h-365zM154 -440v90q131 25 153 86h-129l41 211h260l-33 -168q-22 -103 -96.5 -153.5t-195.5 -65.5z" />
    <glyph glyph-name="kcommaaccent" unicode="&#x137;" horiz-adv-x="856" 
d="M-72 0l285 1464h356l-129 -659l162 313h373l-275 -487l56 -631h-359l-8 377l-45 -74l-59 -303h-357zM121 -440v90q131 25 153 86h-129l41 211h260l-32 -168q-22 -103 -97 -153.5t-196 -65.5z" />
    <glyph glyph-name="Lacute" unicode="&#x139;" horiz-adv-x="704" 
d="M-70 0l279 1434h364l-211 -1088h283l-67 -346h-648zM295 1477l162 223l346 -66l-260 -157h-248z" />
    <glyph glyph-name="lacute" unicode="&#x13a;" horiz-adv-x="438" 
d="M-68 0l285 1464h356l-284 -1464h-357zM279 1499l161 223l346 -65l-260 -158h-247z" />
    <glyph glyph-name="Lcommaaccent" unicode="&#x13b;" horiz-adv-x="704" 
d="M-70 0l279 1434h364l-211 -1088h283l-67 -346h-648zM51 -440v90q132 25 154 86h-129l41 211h260l-33 -168q-22 -103 -97 -153.5t-196 -65.5z" />
    <glyph glyph-name="lcommaaccent" unicode="&#x13c;" horiz-adv-x="438" 
d="M-68 0l285 1464h356l-284 -1464h-357zM-94 -440v90q131 25 153 86h-129l41 211h260l-32 -168q-22 -103 -97 -153.5t-196 -65.5z" />
    <glyph glyph-name="Lcaron" unicode="&#x13d;" horiz-adv-x="704" 
d="M-70 0l279 1434h364l-211 -1088h283l-67 -346h-648zM551 1130l74 306h188v-2l-141 -304h-121z" />
    <glyph glyph-name="lcaron" unicode="&#x13e;" horiz-adv-x="438" 
d="M-68 0l285 1464h356l-284 -1464h-357zM553 1159l74 305h188v-2l-141 -303h-121z" />
    <glyph glyph-name="Ldot" unicode="&#x13f;" horiz-adv-x="704" 
d="M461 625l65 336h250l-65 -336h-250zM-70 0l279 1434h364l-211 -1088h283l-67 -346h-648z" />
    <glyph glyph-name="ldot" unicode="&#x140;" horiz-adv-x="704" 
d="M446 555l66 336h250l-66 -336h-250zM-68 0l285 1464h356l-284 -1464h-357z" />
    <glyph glyph-name="Lslash" unicode="&#x141;" horiz-adv-x="745" 
d="M-25 369l72 370l74 35l129 660h364l-92 -476l170 80l-71 -370l-170 -80l-48 -242h283l-68 -346h-647l78 403z" />
    <glyph glyph-name="lslash" unicode="&#x142;" horiz-adv-x="532" 
d="M-14 416l67 350l82 39l129 659h357l-93 -475l82 39l-67 -350l-84 -39l-123 -639h-356l88 455z" />
    <glyph glyph-name="Nacute" unicode="&#x143;" horiz-adv-x="976" 
d="M-70 0l279 1434h358l80 -564l111 564h350l-279 -1434h-342l-90 598l-116 -598h-351zM535 1477l161 223l346 -66l-260 -157h-247z" />
    <glyph glyph-name="nacute" unicode="&#x144;" horiz-adv-x="868" 
d="M-72 0l217 1118h357l-25 -127q51 67 108.5 107.5t133.5 40.5q93 0 139.5 -52.5t46.5 -136.5q0 -45 -10 -100l-166 -850h-356l143 727q8 31 8 53q0 39 -37 39q-44 0 -53 -57l-149 -762h-357zM438 1182l193 264l301 -76l-289 -188h-205z" />
    <glyph glyph-name="Ncommaaccent" unicode="&#x145;" horiz-adv-x="976" 
d="M-70 0l279 1434h358l80 -564l111 564h350l-279 -1434h-342l-90 598l-116 -598h-351zM174 -440v90q132 25 154 86h-129l41 211h260l-33 -168q-22 -103 -97 -153.5t-196 -65.5z" />
    <glyph glyph-name="ncommaaccent" unicode="&#x146;" horiz-adv-x="868" 
d="M-72 0l217 1118h357l-25 -127q51 67 108.5 107.5t133.5 40.5q93 0 139.5 -52.5t46.5 -136.5q0 -45 -10 -100l-166 -850h-356l143 727q8 31 8 53q0 39 -37 39q-44 0 -53 -57l-149 -762h-357zM129 -440v90q132 25 154 86h-129l41 211h260l-33 -168q-22 -103 -97 -153.5
t-196 -65.5z" />
    <glyph glyph-name="Ncaron" unicode="&#x147;" horiz-adv-x="976" 
d="M-70 0l279 1434h358l80 -564l111 564h350l-279 -1434h-342l-90 598l-116 -598h-351zM995 1686l-190 -209h-268l-113 209h201l69 -68l94 68h207z" />
    <glyph glyph-name="ncaron" unicode="&#x148;" horiz-adv-x="868" 
d="M-72 0l217 1118h357l-25 -127q51 67 108.5 107.5t133.5 40.5q93 0 139.5 -52.5t46.5 -136.5q0 -45 -10 -100l-166 -850h-356l143 727q8 31 8 53q0 39 -37 39q-44 0 -53 -57l-149 -762h-357zM438 1182l-114 239h188l78 -80l110 80h195l-209 -239h-248z" />
    <glyph glyph-name="Omacron" unicode="&#x14c;" horiz-adv-x="978" 
d="M623 1464q178 0 285.5 -114.5t107.5 -333.5q0 -92 -17 -213.5t-49.5 -254.5t-90 -256t-128.5 -194q-129 -129 -313 -129q-177 0 -285 114.5t-108 334.5q0 92 17 213.5t49 254t89.5 255.5t128.5 194q129 129 314 129zM442 301q27 0 50 23q49 49 108 328t59 395
q0 86 -61 86q-26 0 -49 -23q-49 -49 -108.5 -328.5t-59.5 -394.5q0 -86 61 -86zM385 1497l43 215h565l-43 -215h-565z" />
    <glyph glyph-name="omacron" unicode="&#x14d;" horiz-adv-x="870" 
d="M354 -27q-175 0 -264.5 109t-89.5 283q0 162 57.5 357.5t157.5 295.5q127 127 301 127q175 0 264.5 -108.5t89.5 -282.5q0 -163 -57.5 -358.5t-157.5 -295.5q-127 -127 -301 -127zM385 281q17 0 31 14q33 33 72.5 224.5t39.5 254.5q0 64 -43 64q-15 0 -30 -15
q-33 -33 -73 -224.5t-40 -254.5t43 -63zM289 1186l43 211h540l-43 -211h-540z" />
    <glyph glyph-name="Obreve" unicode="&#x14e;" horiz-adv-x="978" 
d="M623 1464q178 0 285.5 -114.5t107.5 -333.5q0 -92 -17 -213.5t-49.5 -254.5t-90 -256t-128.5 -194q-129 -129 -313 -129q-177 0 -285 114.5t-108 334.5q0 92 17 213.5t49 254t89.5 255.5t128.5 194q129 129 314 129zM442 301q27 0 50 23q49 49 108 328t59 395
q0 86 -61 86q-26 0 -49 -23q-49 -49 -108.5 -328.5t-59.5 -394.5q0 -86 61 -86zM666 1489q-117 0 -178.5 52.5t-45.5 160.5h183q3 -53 67 -53q61 0 88 53h187q-58 -213 -301 -213z" />
    <glyph glyph-name="obreve" unicode="&#x14f;" horiz-adv-x="870" 
d="M354 -27q-175 0 -264.5 109t-89.5 283q0 162 57.5 357.5t157.5 295.5q127 127 301 127q175 0 264.5 -108.5t89.5 -282.5q0 -163 -57.5 -358.5t-157.5 -295.5q-127 -127 -301 -127zM385 281q17 0 31 14q33 33 72.5 224.5t39.5 254.5q0 64 -43 64q-15 0 -30 -15
q-33 -33 -73 -224.5t-40 -254.5t43 -63zM563 1178q-256 0 -233 243h182q3 -80 74 -80t98 80h186q-73 -243 -307 -243z" />
    <glyph glyph-name="Ohungarumlaut" unicode="&#x150;" horiz-adv-x="978" 
d="M623 1464q178 0 285.5 -114.5t107.5 -333.5q0 -92 -17 -213.5t-49.5 -254.5t-90 -256t-128.5 -194q-129 -129 -313 -129q-177 0 -285 114.5t-108 334.5q0 92 17 213.5t49 254t89.5 255.5t128.5 194q129 129 314 129zM442 301q27 0 50 23q49 49 108 328t59 395
q0 86 -61 86q-26 0 -49 -23q-49 -49 -108.5 -328.5t-59.5 -394.5q0 -86 61 -86zM694 1493l86 121l-172 -121h-215l162 223l264 -49l37 49l295 -55l-242 -168h-215z" />
    <glyph glyph-name="ohungarumlaut" unicode="&#x151;" horiz-adv-x="870" 
d="M354 -27q-175 0 -264.5 109t-89.5 283q0 162 57.5 357.5t157.5 295.5q127 127 301 127q175 0 264.5 -108.5t89.5 -282.5q0 -163 -57.5 -358.5t-157.5 -295.5q-127 -127 -301 -127zM385 281q17 0 31 14q33 33 72.5 224.5t39.5 254.5q0 64 -43 64q-15 0 -30 -15
q-33 -33 -73 -224.5t-40 -254.5t43 -63zM567 1182l92 127l-174 -127h-174l193 264l213 -57l43 57l252 -68l-271 -196h-174z" />
    <glyph glyph-name="OE" unicode="&#x152;" horiz-adv-x="1294" 
d="M1159 0h-557q-305 0 -446 141q-125 125 -125 361q0 74 14 171.5t42 207t79 213.5t115 168q88 88 205.5 130t287.5 42h658l-68 -347h-330l-39 -198h295l-65 -336h-295l-39 -207h336zM436 369q29 -33 88 -33l148 762q-74 0 -123 -49q-63 -63 -106.5 -249t-43.5 -296
q0 -98 37 -135z" />
    <glyph glyph-name="oe" unicode="&#x153;" horiz-adv-x="1308" 
d="M334 -27q-167 0 -250.5 108t-83.5 284q0 162 58 357t159 296q127 127 299 127q158 0 234 -123q117 123 268 123q293 0 293 -385q0 -128 -54 -346h-450v-4q0 -71 39 -101t123 -30q116 0 233 57l-41 -305q-135 -58 -287 -58q-204 0 -282 113q-113 -113 -258 -113zM385 281
q17 0 31 14q33 33 72.5 224.5t39.5 254.5q0 64 -43 64q-15 0 -30 -15q-33 -33 -73 -224.5t-40 -254.5t43 -63zM909 823q-33 -33 -67 -190h131q18 95 18 139q0 40 -10.5 54t-34.5 14q-20 0 -37 -17z" />
    <glyph glyph-name="Racute" unicode="&#x154;" horiz-adv-x="915" 
d="M428 0l-49 432h-4l-84 -432h-361l279 1434h264q291 0 414 -123q96 -96 96 -269q0 -260 -145 -405q-48 -48 -115 -84l88 -553h-383zM430 725h8q57 0 92 35q37 37 55.5 112.5t18.5 135.5q0 62 -26 88q-22 22 -60 22h-10zM471 1477l162 223l346 -66l-260 -157h-248z" />
    <glyph glyph-name="racute" unicode="&#x155;" horiz-adv-x="575" 
d="M-72 0l217 1118h355l-35 -172q93 196 213 187l-82 -426h-6q-88 0 -138 -53.5t-73 -170.5l-94 -483h-357zM279 1165l192 265l301 -76l-289 -189h-204z" />
    <glyph glyph-name="Rcommaaccent" unicode="&#x156;" horiz-adv-x="915" 
d="M428 0l-49 432h-4l-84 -432h-361l279 1434h264q291 0 414 -123q96 -96 96 -269q0 -260 -145 -405q-48 -48 -115 -84l88 -553h-383zM430 725h8q57 0 92 35q37 37 55.5 112.5t18.5 135.5q0 62 -26 88q-22 22 -60 22h-10zM141 -440v90q132 25 154 86h-129l41 211h260
l-33 -168q-22 -103 -97 -153.5t-196 -65.5z" />
    <glyph glyph-name="rcommaaccent" unicode="&#x157;" horiz-adv-x="575" 
d="M-72 0l217 1118h355l-35 -172q93 196 213 187l-82 -426h-6q-88 0 -138 -53.5t-73 -170.5l-94 -483h-357zM-88 -440v90q132 25 154 86h-129l40 211h261l-33 -168q-22 -103 -97 -153.5t-196 -65.5z" />
    <glyph glyph-name="Rcaron" unicode="&#x158;" horiz-adv-x="915" 
d="M428 0l-49 432h-4l-84 -432h-361l279 1434h264q291 0 414 -123q96 -96 96 -269q0 -260 -145 -405q-48 -48 -115 -84l88 -553h-383zM430 725h8q57 0 92 35q37 37 55.5 112.5t18.5 135.5q0 62 -26 88q-22 22 -60 22h-10zM932 1686l-191 -209h-268l-113 209h201l70 -68
l94 68h207z" />
    <glyph glyph-name="rcaron" unicode="&#x159;" horiz-adv-x="575" 
d="M-72 0l217 1118h355l-35 -172q93 196 213 187l-82 -426h-6q-88 0 -138 -53.5t-73 -170.5l-94 -483h-357zM276 1165l-114 240h188l78 -80l111 80h194l-209 -240h-248z" />
    <glyph glyph-name="Sacute" unicode="&#x15a;" horiz-adv-x="804" 
d="M293 -27q-183 0 -346 109l69 356q89 -60 152 -88t125 -28q47 0 73.5 23.5t26.5 64.5q0 33 -18 61.5t-64 75.5q-106 114 -156.5 204.5t-50.5 206.5q0 233 148 381q121 121 317 121q174 0 320 -86l-70 -354q-144 92 -244 92q-47 0 -74.5 -24.5t-27.5 -65.5q0 -24 10 -46
t23.5 -38t48.5 -55q53 -58 85 -98.5t63.5 -92.5t46 -106t14.5 -115q0 -229 -148 -377q-121 -121 -323 -121zM444 1493l162 223l346 -65l-260 -158h-248z" />
    <glyph glyph-name="sacute" unicode="&#x15b;" horiz-adv-x="677" 
d="M242 -27q-82 0 -166.5 27t-145.5 68l64 327q147 -110 233 -110q60 0 60 47q0 20 -14 40t-52 58q-85 87 -124.5 157.5t-39.5 157.5q0 172 102 286t275 114q152 0 289 -70l-66 -330q-136 89 -208 89q-28 0 -43 -12t-15 -31q0 -17 11.5 -33t54.5 -62q86 -87 127 -156.5
t41 -158.5q0 -111 -45.5 -203t-134 -148.5t-203.5 -56.5zM344 1182l193 264l301 -76l-289 -188h-205z" />
    <glyph glyph-name="Scedilla" unicode="&#x15e;" horiz-adv-x="804" 
d="M276 -270l-321 65l184 199q-103 25 -192 88l69 356q89 -60 152 -88t125 -28q47 0 73.5 23.5t26.5 64.5q0 33 -18 61.5t-64 75.5q-106 114 -156.5 204.5t-50.5 206.5q0 233 148 381q121 121 317 121q174 0 320 -86l-70 -354q-144 92 -244 92q-47 0 -74.5 -24.5
t-27.5 -65.5q0 -24 10 -46t23.5 -38t48.5 -55q53 -58 85 -98.5t63.5 -92.5t46 -106t14.5 -115q0 -229 -148 -377q-91 -91 -229 -112z" />
    <glyph glyph-name="scedilla" unicode="&#x15f;" horiz-adv-x="677" 
d="M217 -270l-321 65l190 203q-93 24 -156 70l64 327q147 -110 233 -110q60 0 60 47q0 20 -14 40t-52 58q-85 87 -124.5 157.5t-39.5 157.5q0 172 102 286t275 114q152 0 289 -70l-66 -330q-136 89 -208 89q-28 0 -43 -12t-15 -31q0 -17 11.5 -33t54.5 -62
q86 -87 127 -156.5t41 -158.5q0 -148 -80 -259t-217 -140z" />
    <glyph glyph-name="Scaron" unicode="&#x160;" horiz-adv-x="804" 
d="M293 -27q-183 0 -346 109l69 356q89 -60 152 -88t125 -28q47 0 73.5 23.5t26.5 64.5q0 33 -18 61.5t-64 75.5q-106 114 -156.5 204.5t-50.5 206.5q0 233 148 381q121 121 317 121q174 0 320 -86l-70 -354q-144 92 -244 92q-47 0 -74.5 -24.5t-27.5 -65.5q0 -24 10 -46
t23.5 -38t48.5 -55q53 -58 85 -98.5t63.5 -92.5t46 -106t14.5 -115q0 -229 -148 -377q-121 -121 -323 -121zM905 1702l-190 -209h-269l-112 209h201l69 -68l94 68h207z" />
    <glyph glyph-name="scaron" unicode="&#x161;" horiz-adv-x="677" 
d="M242 -27q-82 0 -166.5 27t-145.5 68l64 327q147 -110 233 -110q60 0 60 47q0 20 -14 40t-52 58q-85 87 -124.5 157.5t-39.5 157.5q0 172 102 286t275 114q152 0 289 -70l-66 -330q-136 89 -208 89q-28 0 -43 -12t-15 -31q0 -17 11.5 -33t54.5 -62q86 -87 127 -156.5
t41 -158.5q0 -111 -45.5 -203t-134 -148.5t-203.5 -56.5zM342 1182l-115 239h189l78 -80l110 80h195l-209 -239h-248z" />
    <glyph glyph-name="Tcommaaccent" unicode="&#x162;" horiz-adv-x="794" 
d="M106 0l211 1085h-200l69 349h766l-69 -349h-201l-211 -1085h-365zM86 -440v90q132 25 154 86h-129l41 211h260l-33 -168q-22 -103 -97 -153.5t-196 -65.5z" />
    <glyph glyph-name="Tcommaaccent" unicode="&#x21a;" horiz-adv-x="794" 
d="M106 0l211 1085h-200l69 349h766l-69 -349h-201l-211 -1085h-365zM86 -440v90q132 25 154 86h-129l41 211h260l-33 -168q-22 -103 -97 -153.5t-196 -65.5z" />
    <glyph glyph-name="tcommaaccent" unicode="&#x163;" horiz-adv-x="563" 
d="M256 -20q-114 0 -182 49t-68 145q0 44 12 109l107 551h-59l55 284h59l49 260h355l-49 -260h122l-55 -284h-123l-92 -467q-8 -40 -8 -54q0 -37 49 -37q25 0 66 13l-54 -281q-86 -28 -184 -28zM-8 -455v90q131 25 153 86h-129l41 211h260l-32 -168q-22 -103 -97 -153.5
t-196 -65.5z" />
    <glyph glyph-name="tcommaaccent" unicode="&#x21b;" horiz-adv-x="563" 
d="M256 -20q-114 0 -182 49t-68 145q0 44 12 109l107 551h-59l55 284h59l49 260h355l-49 -260h122l-55 -284h-123l-92 -467q-8 -40 -8 -54q0 -37 49 -37q25 0 66 13l-54 -281q-86 -28 -184 -28zM-8 -455v90q131 25 153 86h-129l41 211h260l-32 -168q-22 -103 -97 -153.5
t-196 -65.5z" />
    <glyph glyph-name="Tcaron" unicode="&#x164;" horiz-adv-x="794" 
d="M106 0l211 1085h-200l69 349h766l-69 -349h-201l-211 -1085h-365zM907 1686l-190 -209h-268l-113 209h201l69 -68l94 68h207z" />
    <glyph glyph-name="tcaron" unicode="&#x165;" horiz-adv-x="563" 
d="M256 -20q-114 0 -182 49t-68 145q0 44 12 109l107 551h-59l55 284h59l49 260h355l-49 -260h122l-55 -284h-123l-92 -467q-8 -40 -8 -54q0 -37 49 -37q25 0 66 13l-54 -281q-86 -28 -184 -28zM582 1159l73 305h189v-2l-142 -303h-120z" />
    <glyph glyph-name="Umacron" unicode="&#x16a;" horiz-adv-x="937" 
d="M389 -23q-185 0 -286 89t-101 235q0 87 18 186l185 947h364l-194 -992q0 -3 -3 -16.5t-5 -28t-2 -28.5q0 -27 15.5 -43.5t43.5 -16.5t49 21q23 23 35 82l201 1022h364l-194 -1006q-23 -116 -59 -192.5t-93 -133.5q-125 -125 -338 -125zM371 1481l43 215h565l-43 -215
h-565z" />
    <glyph glyph-name="umacron" unicode="&#x16b;" horiz-adv-x="870" 
d="M150 -20q-93 0 -140 52.5t-47 135.5q0 45 10 100l166 850h357l-144 -727q-8 -31 -8 -53q0 -39 37 -39q44 0 53 57l150 762h356l-217 -1118h-356l24 127q-51 -67 -108 -107t-133 -40zM283 1169l43 211h540l-43 -211h-540z" />
    <glyph glyph-name="Ubreve" unicode="&#x16c;" horiz-adv-x="937" 
d="M389 -23q-185 0 -286 89t-101 235q0 87 18 186l185 947h364l-194 -992q0 -3 -3 -16.5t-5 -28t-2 -28.5q0 -27 15.5 -43.5t43.5 -16.5t49 21q23 23 35 82l201 1022h364l-194 -1006q-23 -116 -59 -192.5t-93 -133.5q-125 -125 -338 -125zM649 1464q-117 0 -178.5 52.5
t-44.5 160.5h182q3 -53 68 -53q61 0 88 53h186q-58 -213 -301 -213z" />
    <glyph glyph-name="ubreve" unicode="&#x16d;" horiz-adv-x="870" 
d="M150 -20q-93 0 -140 52.5t-47 135.5q0 45 10 100l166 850h357l-144 -727q-8 -31 -8 -53q0 -39 37 -39q44 0 53 57l150 762h356l-217 -1118h-356l24 127q-51 -67 -108 -107t-133 -40zM557 1157q-256 0 -233 244h182q3 -80 74 -80t98 80h186q-73 -244 -307 -244z" />
    <glyph glyph-name="Uring" unicode="&#x16e;" horiz-adv-x="937" 
d="M389 -23q-185 0 -286 89t-101 235q0 87 18 186l185 947h364l-194 -992q0 -3 -3 -16.5t-5 -28t-2 -28.5q0 -27 15.5 -43.5t43.5 -16.5t49 21q23 23 35 82l201 1022h364l-194 -1006q-23 -116 -59 -192.5t-93 -133.5q-125 -125 -338 -125zM705 1864q82 0 141 -49.5
t59 -128.5q0 -95 -66.5 -159.5t-172.5 -64.5q-83 0 -142 49.5t-59 128.5q0 94 67 159t173 65zM676 1565q49 0 79.5 31.5t30.5 76.5q0 41 -25 64.5t-67 23.5q-49 0 -79.5 -31.5t-30.5 -76.5q0 -41 25 -64.5t67 -23.5z" />
    <glyph glyph-name="uring" unicode="&#x16f;" horiz-adv-x="870" 
d="M150 -20q-93 0 -140 52.5t-47 135.5q0 45 10 100l166 850h357l-144 -727q-8 -31 -8 -53q0 -39 37 -39q44 0 53 57l150 762h356l-217 -1118h-356l24 127q-51 -67 -108 -107t-133 -40zM797 1380q0 -88 -64 -157.5t-168 -69.5q-76 0 -128 46t-52 128q0 88 63.5 157.5
t167.5 69.5q76 0 128.5 -46t52.5 -128zM502 1333q0 -34 20 -56t56 -22q43 0 72.5 32.5t29.5 86.5q0 34 -20 56t-56 22q-43 0 -72.5 -32.5t-29.5 -86.5z" />
    <glyph glyph-name="Uhungarumlaut" unicode="&#x170;" horiz-adv-x="937" 
d="M389 -23q-185 0 -286 89t-101 235q0 87 18 186l185 947h364l-194 -992q0 -3 -3 -16.5t-5 -28t-2 -28.5q0 -27 15.5 -43.5t43.5 -16.5t49 21q23 23 35 82l201 1022h364l-194 -1006q-23 -116 -59 -192.5t-93 -133.5q-125 -125 -338 -125zM680 1477l86 120l-172 -120h-215
l162 223l264 -49l37 49l295 -55l-242 -168h-215z" />
    <glyph glyph-name="uhungarumlaut" unicode="&#x171;" horiz-adv-x="870" 
d="M150 -20q-93 0 -140 52.5t-47 135.5q0 45 10 100l166 850h357l-144 -727q-8 -31 -8 -53q0 -39 37 -39q44 0 53 57l150 762h356l-217 -1118h-356l24 127q-51 -67 -108 -107t-133 -40zM559 1165l92 127l-174 -127h-174l193 265l213 -58l43 58l252 -68l-271 -197h-174z" />
    <glyph glyph-name="Uogonek" unicode="&#x172;" horiz-adv-x="937" 
d="M532 -106l-34 -177q-57 -8 -138 -8q-118 0 -174.5 27t-56.5 86q0 86 109 176q-115 30 -175.5 110t-60.5 193q0 87 18 186l185 947h364l-194 -992q0 -3 -3 -16.5t-5 -28t-2 -28.5q0 -27 15.5 -43.5t43.5 -16.5t49 21q23 23 35 82l201 1022h364l-194 -1006
q-23 -116 -59 -192.5t-93 -133.5q-100 -100 -264 -120q-25 -25 -25 -48q0 -14 18 -22t76 -18z" />
    <glyph glyph-name="uogonek" unicode="&#x173;" horiz-adv-x="870" 
d="M725 -106l-35 -177q-57 -8 -137 -8q-118 0 -174.5 27t-56.5 86q0 86 112 178h-67l24 127q-51 -67 -108 -107t-133 -40q-93 0 -140 52.5t-47 135.5q0 45 10 100l166 850h357l-144 -727q-8 -31 -8 -53q0 -39 37 -39q44 0 53 57l150 762h356l-217 -1118h-51q-41 -46 -41 -66
q0 -14 18 -22t76 -18z" />
    <glyph glyph-name="Wcircumflex" unicode="&#x174;" horiz-adv-x="1368" 
d="M109 -2l51 1436h379l-76 -770l242 770h296l-57 -770l223 770h381l-506 -1436h-376l26 592l-203 -592h-380zM575 1477l191 209h268l113 -209h-201l-69 67l-95 -67h-207z" />
    <glyph glyph-name="wcircumflex" unicode="&#x175;" horiz-adv-x="1171" 
d="M90 -4l8 1122h348l-43 -522l154 522h270l-47 -522l158 522h352l-426 -1122h-307v448l-156 -448h-311zM418 1165l209 240h247l115 -240h-188l-78 80l-111 -80h-194z" />
    <glyph glyph-name="Ycircumflex" unicode="&#x176;" horiz-adv-x="892" 
d="M154 0l98 502l-98 932h362l6 -473l187 473h366l-459 -932l-98 -502h-364zM336 1477l190 209h269l112 -209h-200l-70 67l-94 -67h-207z" />
    <glyph glyph-name="ycircumflex" unicode="&#x177;" horiz-adv-x="827" 
d="M127 14l-33 1104h350l-32 -579l186 579h358l-596 -1384h-356v2zM246 1165l209 240h247l115 -240h-188l-78 80l-111 -80h-194z" />
    <glyph glyph-name="Ydieresis" unicode="&#x178;" horiz-adv-x="892" 
d="M154 0l98 502l-98 932h362l6 -473l187 473h366l-459 -932l-98 -502h-364zM342 1477l43 231h256l-43 -231h-256zM651 1477l43 231h256l-43 -231h-256z" />
    <glyph glyph-name="Zacute" unicode="&#x179;" horiz-adv-x="774" 
d="M-84 0l61 311l459 776h-301l68 347h717l-62 -312l-457 -776h308l-68 -346h-725zM428 1477l162 223l346 -66l-260 -157h-248z" />
    <glyph glyph-name="zacute" unicode="&#x17a;" horiz-adv-x="710" 
d="M-86 0l51 268l381 553h-268l57 297h664l-51 -266l-383 -555h274l-57 -297h-668zM348 1165l193 265l301 -76l-289 -189h-205z" />
    <glyph glyph-name="Zdotaccent" unicode="&#x17b;" horiz-adv-x="774" 
d="M-84 0l61 311l459 776h-301l68 347h717l-62 -312l-457 -776h308l-68 -346h-725zM424 1477l43 231h274l-43 -231h-274z" />
    <glyph glyph-name="zdotaccent" unicode="&#x17c;" horiz-adv-x="710" 
d="M-86 0l51 268l381 553h-268l57 297h664l-51 -266l-383 -555h274l-57 -297h-668zM338 1165l47 252h270l-47 -252h-270z" />
    <glyph glyph-name="Zcaron" unicode="&#x17d;" horiz-adv-x="774" 
d="M-84 0l61 311l459 776h-301l68 347h717l-62 -312l-457 -776h308l-68 -346h-725zM887 1686l-191 -209h-268l-113 209h201l70 -68l94 68h207z" />
    <glyph glyph-name="zcaron" unicode="&#x17e;" horiz-adv-x="710" 
d="M-86 0l51 268l381 553h-268l57 297h664l-51 -266l-383 -555h274l-57 -297h-668zM346 1165l-115 240h189l78 -80l110 80h195l-209 -240h-248z" />
    <glyph glyph-name="uni018F" unicode="&#x18f;" horiz-adv-x="923" 
d="M23 418q0 166 63 452h508q0 8 1 20t1 17q0 100 -39.5 147.5t-128.5 47.5q-112 0 -270 -68l49 359q150 61 303 61q218 0 327 -135.5t109 -382.5q0 -246 -76.5 -480.5t-199.5 -357.5q-127 -127 -293 -127q-178 0 -266 118.5t-88 328.5zM444 330q48 48 105 270h-174
q-25 -137 -25 -203q0 -86 53 -86q22 0 41 19z" />
    <glyph glyph-name="Aringacute" unicode="&#x1fa;" horiz-adv-x="950" 
d="M-125 0l547 1425h39q-25 39 -25 88q0 91 66.5 153.5t173.5 62.5q82 0 141.5 -50t59.5 -129q0 -70 -46 -125h33l-6 -1425h-356l12 231h-201l-77 -231h-361zM586 1757l135 193l362 -56l-256 -137h-241zM647 1430q49 0 80 32t31 76q0 41 -25 64.5t-67 23.5q-49 0 -80 -32
t-31 -76q0 -41 25 -64.5t67 -23.5zM412 528h118l25 428z" />
    <glyph glyph-name="aringacute" unicode="&#x1fb;" horiz-adv-x="823" 
d="M481 1612l183 213l313 -56l-283 -157h-213zM147 -20q-92 0 -140 59t-48 172q0 111 36 228t101 182q75 75 189 75q52 0 89 -11.5t83 -37.5l4 19q6 18 6 53q0 100 -139 100q-103 0 -219 -53l63 330q147 43 293 43q169 0 267.5 -79.5t98.5 -240.5q0 -61 -16 -149l-131 -670
h-354l14 76q-45 -48 -90 -72t-107 -24zM319 211q22 0 41 19.5t29 62.5l31 160q-27 18 -53 18q-21 0 -37 -16q-22 -22 -38 -83.5t-16 -99.5q0 -61 43 -61zM764 1401q0 -88 -64 -157.5t-168 -69.5q-76 0 -128 46t-52 128q0 88 64 157.5t168 69.5q76 0 128 -46t52 -128z
M469 1354q0 -34 20 -56t56 -22q43 0 72.5 32.5t29.5 86.5q0 34 -20 56t-56 22q-43 0 -72.5 -32.5t-29.5 -86.5z" />
    <glyph glyph-name="AEacute" unicode="&#x1fc;" horiz-adv-x="1267" 
d="M-135 0l588 1434h952l-68 -347h-329l-39 -198h295l-66 -336h-295l-39 -207h336l-67 -346h-701l45 231h-172l-86 -231h-354zM406 528h129l108 564h-25zM729 1477l162 223l346 -66l-260 -157h-248z" />
    <glyph glyph-name="aeacute" unicode="&#x1fd;" horiz-adv-x="1245" 
d="M180 -20q-102 0 -161.5 59.5t-59.5 167.5q0 114 36 231.5t101 182.5q75 75 189 75q52 0 89 -11.5t83 -37.5l4 19q6 18 6 53q0 100 -139 100q-103 0 -219 -53l63 330q147 43 293 43q173 0 260 -90q101 96 240 96q137 0 209.5 -98t72.5 -289q0 -130 -53 -344h-451v-4
q0 -71 39 -101t123 -30q117 0 234 57l-41 -305q-135 -58 -295 -58q-239 0 -334 154q-123 -147 -289 -147zM326 225q24 0 49 21t43 53q-6 73 6 162q-30 18 -57 18q-21 0 -37 -16q-21 -21 -37.5 -80.5t-16.5 -95.5q0 -62 50 -62zM846 823q-35 -35 -68 -190h131q19 100 19 139
q0 40 -10.5 54t-34.5 14q-20 0 -37 -17zM600 1165l193 265l301 -76l-289 -189h-205z" />
    <glyph glyph-name="Oslashacute" unicode="&#x1fe;" horiz-adv-x="980" 
d="M625 1464q171 0 278 -110l60 90h151l-139 -201q41 -100 41 -231q0 -91 -17 -212t-49.5 -253t-90 -255t-128.5 -194q-129 -129 -315 -129q-176 0 -279 109l-59 -88h-152l137 203q-38 89 -38 229q0 91 17 211.5t49 253t89.5 255t128.5 193.5q129 129 316 129zM541 1118
q-37 -37 -76 -185t-68 -321l275 453q-8 80 -74 80q-30 0 -57 -27zM442 289q32 0 58 26q69 61 143 500l-274 -450q8 -76 73 -76zM532 1493l162 223l346 -65l-260 -158h-248z" />
    <glyph glyph-name="oslashacute" unicode="&#x1ff;" horiz-adv-x="870" 
d="M-94 0l129 168q-35 80 -35 197q0 162 57.5 357.5t157.5 295.5q127 127 301 127q159 0 252 -96l53 69h144l-131 -170q36 -82 36 -194q0 -163 -57.5 -358.5t-157.5 -295.5q-127 -127 -301 -127q-157 0 -254 97l-51 -70h-143zM385 268q20 0 39 19q16 16 34 72t29 103.5
t29 135.5l-186 -276q8 -54 55 -54zM446 831q-22 -22 -48.5 -114t-45.5 -197l189 275q-8 55 -56 55q-20 0 -39 -19zM432 1182l193 264l301 -76l-289 -188h-205z" />
    <glyph glyph-name="Scommaaccent" unicode="&#x218;" horiz-adv-x="804" 
d="M293 -27q-183 0 -346 109l69 356q89 -60 152 -88t125 -28q47 0 73.5 23.5t26.5 64.5q0 33 -18 61.5t-64 75.5q-106 114 -156.5 204.5t-50.5 206.5q0 233 148 381q121 121 317 121q174 0 320 -86l-70 -354q-144 92 -244 92q-47 0 -74.5 -24.5t-27.5 -65.5q0 -24 10 -46
t23.5 -38t48.5 -55q53 -58 85 -98.5t63.5 -92.5t46 -106t14.5 -115q0 -229 -148 -377q-121 -121 -323 -121zM78 -455v90q131 25 153 86h-129l41 211h260l-32 -168q-22 -103 -97 -153.5t-196 -65.5z" />
    <glyph glyph-name="scommaaccent" unicode="&#x219;" horiz-adv-x="677" 
d="M242 -27q-82 0 -166.5 27t-145.5 68l64 327q147 -110 233 -110q60 0 60 47q0 20 -14 40t-52 58q-85 87 -124.5 157.5t-39.5 157.5q0 172 102 286t275 114q152 0 289 -70l-66 -330q-136 89 -208 89q-28 0 -43 -12t-15 -31q0 -17 11.5 -33t54.5 -62q86 -87 127 -156.5
t41 -158.5q0 -111 -45.5 -203t-134 -148.5t-203.5 -56.5zM20 -440v90q132 25 154 86h-129l41 211h260l-33 -168q-22 -103 -97 -153.5t-196 -65.5z" />
    <glyph glyph-name="schwa" unicode="&#x259;" horiz-adv-x="843" 
d="M-2 358q0 133 53 347h451v4q0 71 -39 101t-123 30q-115 0 -234 -58l41 305q135 58 289 58q404 0 404 -414q0 -94 -20.5 -204.5t-72 -232t-124.5 -194.5q-127 -127 -295 -127q-156 0 -243 98t-87 287zM399 295q37 37 66 190h-129q-19 -100 -19 -139q0 -40 10 -53.5
t35 -13.5q21 0 37 16z" />
    <glyph glyph-name="circumflex" unicode="&#x2c6;" 
d="M342 1165l209 240h248l114 -240h-188l-78 80l-110 -80h-195z" />
    <glyph glyph-name="caron" unicode="&#x2c7;" 
d="M506 1165l-115 240h189l77 -80l111 80h195l-209 -240h-248z" />
    <glyph glyph-name="breve" unicode="&#x2d8;" 
d="M639 1161q-256 0 -233 244h182q3 -80 74 -80t98 80h186q-73 -244 -307 -244z" />
    <glyph glyph-name="dotaccent" unicode="&#x2d9;" 
d="M496 1165l47 252h270l-47 -252h-270z" />
    <glyph glyph-name="ring" unicode="&#x2da;" 
d="M870 1384q0 -88 -63.5 -157.5t-167.5 -69.5q-76 0 -128 46t-52 128q0 88 63.5 158t167.5 70q76 0 128 -46t52 -129zM575 1337q0 -33 20 -55t56 -22q43 0 73 32t30 86q0 34 -20 56t-56 22q-43 0 -73 -32.5t-30 -86.5z" />
    <glyph glyph-name="ogonek" unicode="&#x2db;" 
d="M580 -106l-35 -177q-57 -8 -137 -8q-119 0 -175.5 27t-56.5 86q0 58 49.5 117.5t163.5 132.5l180 -29q-52 -51 -68 -72.5t-16 -36.5q0 -14 18 -22t77 -18z" />
    <glyph glyph-name="tilde" unicode="&#x2dc;" 
d="M836 1434l149 -25q-25 -119 -80.5 -185.5t-120.5 -66.5q-39 0 -127 31q-85 31 -110 31q-26 0 -42 -16t-30 -52l-149 25q25 121 80 186t120 65q45 0 127 -30q85 -31 111 -31q25 0 39 14.5t33 53.5z" />
    <glyph glyph-name="hungarumlaut" unicode="&#x2dd;" 
d="M555 1165l92 127l-174 -127h-174l193 265l213 -58l43 58l251 -68l-270 -197h-174z" />
    <glyph glyph-name="commaaccent" unicode="&#x326;" 
d="M201 -440v90q131 25 153 86h-129l41 211h260l-32 -168q-22 -103 -97 -153.5t-196 -65.5z" />
    <glyph glyph-name="uni0384" unicode="&#x384;" 
d="M440 1165l127 279l279 -72l-221 -207h-185z" />
    <glyph glyph-name="uni0385" unicode="&#x385;" 
d="M784 1165l43 230h220l-43 -230h-220zM258 1165l43 230h219l-43 -230h-219zM508 1165l94 336l254 -37l-197 -299h-151z" />
    <glyph glyph-name="uni0386" unicode="&#x386;" horiz-adv-x="950" 
d="M-125 0l551 1436h438l-6 -1436h-356l12 231h-201l-77 -231h-361zM412 528h118l25 428zM41 1118l74 316h258l-168 -316h-164z" />
    <glyph glyph-name="uni0387" unicode="&#x387;" horiz-adv-x="434" 
d="M66 741l73 377h373l-74 -377h-372z" />
    <glyph glyph-name="uni0388" unicode="&#x388;" horiz-adv-x="765" 
d="M-70 0l279 1434h694l-67 -347h-330l-39 -198h295l-66 -336h-295l-39 -207h336l-67 -346h-701zM-147 1118l73 316h258l-168 -316h-163z" />
    <glyph glyph-name="uni0389" unicode="&#x389;" horiz-adv-x="958" 
d="M-70 0l279 1434h364l-104 -539h152l104 539h365l-279 -1434h-365l107 547h-152l-106 -547h-365zM-147 1118l73 316h258l-168 -316h-163z" />
    <glyph glyph-name="uni038A" unicode="&#x38a;" horiz-adv-x="450" 
d="M-66 0l279 1434h365l-279 -1434h-365zM-147 1118l73 316h258l-168 -316h-163z" />
    <glyph glyph-name="uni038C" unicode="&#x38c;" horiz-adv-x="978" 
d="M623 1464q178 0 285.5 -114.5t107.5 -333.5q0 -92 -17 -213.5t-49.5 -254.5t-90 -256t-128.5 -194q-129 -129 -313 -129q-177 0 -285 114.5t-108 334.5q0 92 17 213.5t49 254t89.5 255.5t128.5 194q129 129 314 129zM442 301q27 0 50 23q49 49 108 328t59 395
q0 86 -61 86q-26 0 -49 -23q-49 -49 -108.5 -328.5t-59.5 -394.5q0 -86 61 -86zM-66 1118l74 316h258l-168 -316h-164z" />
    <glyph glyph-name="uni038E" unicode="&#x38e;" horiz-adv-x="892" 
d="M154 0l98 502l-98 932h362l6 -473l187 473h366l-459 -932l-98 -502h-364zM-188 1118l73 316h258l-168 -316h-163z" />
    <glyph glyph-name="uni038F" unicode="&#x38f;" horiz-adv-x="1011" 
d="M608 1128q-31 0 -53 -22q-58 -58 -94.5 -280t-36.5 -423q0 -42 2 -73l-64 -330h-438l68 346h174q-76 222 -76 397q0 397 189 586q135 135 356 135q108 0 189.5 -32t131.5 -90t74.5 -133.5t24.5 -166.5q0 -183 -76 -360.5t-207 -335.5h172l-67 -346h-445l64 330
q77 173 131.5 377t54.5 315q0 106 -74 106zM-86 1118l74 316h258l-168 -316h-164z" />
    <glyph glyph-name="uni0390" unicode="&#x390;" horiz-adv-x="509" 
d="M-27 199q0 75 25 188l141 731h357l-148 -762q-6 -23 -6 -43q0 -37 51 -37q14 0 49 5l-53 -269q-88 -32 -180 -32q-236 0 -236 219zM498 1165l43 230h219l-43 -230h-219zM-29 1165l43 230h219l-43 -230h-219zM221 1165l94 336l254 -37l-196 -299h-152z" />
    <glyph glyph-name="uni0391" unicode="&#x391;" horiz-adv-x="950" 
d="M-125 0l551 1436h438l-6 -1436h-356l12 231h-201l-77 -231h-361zM412 528h118l25 428z" />
    <glyph glyph-name="uni0392" unicode="&#x392;" horiz-adv-x="913" 
d="M-70 0l279 1434h309q221 0 342 -91.5t121 -242.5q0 -262 -244 -387q142 -96 142 -258q0 -217 -150.5 -336t-441.5 -119h-357zM346 334h35q70 0 106.5 39.5t36.5 107.5q0 47 -29.5 72t-74.5 25h-25zM449 860h26q66 0 103.5 40.5t37.5 103.5q0 96 -108 96h-12z" />
    <glyph glyph-name="uni0393" unicode="&#x393;" horiz-adv-x="702" 
d="M-70 0l279 1434h647l-68 -347h-282l-211 -1087h-365z" />
    <glyph glyph-name="uni0394" unicode="&#x394;" horiz-adv-x="976" 
d="M897 1436l16 -1125l-108 -311h-850l14 313l451 1123h477zM592 1063l-254 -721h229z" />
    <glyph glyph-name="uni0395" unicode="&#x395;" horiz-adv-x="765" 
d="M-70 0l279 1434h694l-67 -347h-330l-39 -198h295l-66 -336h-295l-39 -207h336l-67 -346h-701z" />
    <glyph glyph-name="uni0396" unicode="&#x396;" horiz-adv-x="774" 
d="M-84 0l61 311l459 776h-301l68 347h717l-62 -312l-457 -776h308l-68 -346h-725z" />
    <glyph glyph-name="uni0397" unicode="&#x397;" horiz-adv-x="958" 
d="M-70 0l279 1434h364l-104 -539h152l104 539h365l-279 -1434h-365l107 547h-152l-106 -547h-365z" />
    <glyph glyph-name="uni0398" unicode="&#x398;" horiz-adv-x="966" 
d="M25 418q0 93 16 213t47.5 253.5t89.5 257.5t131 197q125 125 305 125q176 0 280.5 -112t104.5 -336q0 -93 -16 -213t-47.5 -253.5t-89.5 -258t-131 -197.5q-125 -125 -305 -125q-176 0 -280.5 112.5t-104.5 336.5zM362 379q0 -90 68 -90q31 0 53 22q45 45 99 258h-199
q-21 -123 -21 -190zM541 1122q-44 -44 -97 -250h199q19 109 19 183q0 90 -68 90q-30 0 -53 -23z" />
    <glyph glyph-name="uni0399" unicode="&#x399;" horiz-adv-x="450" 
d="M-66 0l279 1434h365l-279 -1434h-365z" />
    <glyph glyph-name="uni039A" unicode="&#x39a;" horiz-adv-x="921" 
d="M-70 0l279 1434h364l-90 -467l226 467h378l-339 -639l63 -795h-377l-10 467l-59 -113l-70 -354h-365z" />
    <glyph glyph-name="uni039B" unicode="&#x39b;" horiz-adv-x="933" 
d="M846 1436l-4 -1436h-367l41 803l-270 -803h-371l553 1436h418z" />
    <glyph glyph-name="uni039C" unicode="&#x39c;" horiz-adv-x="1097" 
d="M-70 0l279 1434h338l86 -416l246 416h350l-279 -1434h-352l129 666l-231 -392h-4l-80 392l-129 -666h-353z" />
    <glyph glyph-name="uni039D" unicode="&#x39d;" horiz-adv-x="976" 
d="M-70 0l279 1434h358l80 -564l111 564h350l-279 -1434h-342l-90 598l-116 -598h-351z" />
    <glyph glyph-name="uni039E" unicode="&#x39e;" horiz-adv-x="761" 
d="M694 346l-67 -346h-709l68 346h708zM899 1434l-68 -347h-696l68 347h696zM760 889l-66 -336h-631l66 336h631z" />
    <glyph glyph-name="uni039F" unicode="&#x39f;" horiz-adv-x="978" 
d="M623 1464q178 0 285.5 -114.5t107.5 -333.5q0 -92 -17 -213.5t-49.5 -254.5t-90 -256t-128.5 -194q-129 -129 -313 -129q-177 0 -285 114.5t-108 334.5q0 92 17 213.5t49 254t89.5 255.5t128.5 194q129 129 314 129zM442 301q27 0 50 23q49 49 108 328t59 395
q0 86 -61 86q-26 0 -49 -23q-49 -49 -108.5 -328.5t-59.5 -394.5q0 -86 61 -86z" />
    <glyph glyph-name="uni03A0" unicode="&#x3a0;" horiz-adv-x="958" 
d="M-70 0l279 1434h881l-279 -1434h-365l211 1085h-151l-211 -1085h-365z" />
    <glyph glyph-name="uni03A1" unicode="&#x3a1;" horiz-adv-x="884" 
d="M-70 0l279 1434h285q242 0 364 -119q103 -100 103 -273q0 -136 -44.5 -271t-132.5 -214q-157 -145 -405 -145h-8l-80 -412h-361zM573 1096q-22 22 -59 22h-6l-76 -391h8q55 0 88 33q37 37 55.5 114.5t18.5 133.5q0 59 -29 88z" />
    <glyph glyph-name="uni03A3" unicode="&#x3a3;" horiz-adv-x="782" 
d="M655 698l-256 -352h318l-68 -346h-733l61 311l310 426l-148 385l62 312h698l-68 -347h-323z" />
    <glyph glyph-name="uni03A4" unicode="&#x3a4;" horiz-adv-x="794" 
d="M106 0l211 1085h-200l69 349h766l-69 -349h-201l-211 -1085h-365z" />
    <glyph glyph-name="uni03A5" unicode="&#x3a5;" horiz-adv-x="892" 
d="M154 0l98 502l-98 932h362l6 -473l187 473h366l-459 -932l-98 -502h-364z" />
    <glyph glyph-name="uni03A6" unicode="&#x3a6;" horiz-adv-x="1343" 
d="M666 1468h364l-29 -143q171 -38 266 -162.5t95 -333.5q0 -159 -52 -308.5t-159 -256.5q-150 -150 -387 -164l-25 -135h-364l26 141q-171 39 -264.5 163t-93.5 333q0 162 52 311t159 256q150 150 385 164zM1004 848q0 132 -74 170l-117 -604q38 11 70 43q54 54 87.5 171.5
t33.5 219.5zM401 586q0 -135 72 -170l117 602q-43 -16 -68 -41q-54 -54 -87.5 -171.5t-33.5 -219.5z" />
    <glyph glyph-name="uni03A7" unicode="&#x3a7;" horiz-adv-x="874" 
d="M-117 0l365 754l-78 680h362l7 -371l145 371h360l-352 -729l82 -705h-362l-9 408l-159 -408h-361z" />
    <glyph glyph-name="uni03A8" unicode="&#x3a8;" horiz-adv-x="1366" 
d="M678 1434h350l-151 -783q51 8 86 43q38 38 61 154l113 586h350l-115 -641q-41 -230 -153 -342q-140 -140 -402 -150l-57 -301h-371l60 309q-367 53 -367 375q0 98 29 229l100 521h358l-106 -553q-19 -97 -19 -133q0 -40 18.5 -63t63.5 -30z" />
    <glyph glyph-name="uni03A9" unicode="&#x3a9;" horiz-adv-x="1011" 
d="M608 1128q-31 0 -53 -22q-58 -58 -94.5 -280t-36.5 -423q0 -42 2 -73l-64 -330h-438l68 346h174q-76 222 -76 397q0 397 189 586q135 135 356 135q108 0 189.5 -32t131.5 -90t74.5 -133.5t24.5 -166.5q0 -183 -76 -360.5t-207 -335.5h172l-67 -346h-445l64 330
q77 173 131.5 377t54.5 315q0 106 -74 106z" />
    <glyph glyph-name="uni03AA" unicode="&#x3aa;" horiz-adv-x="450" 
d="M-66 0l279 1434h365l-279 -1434h-365zM125 1477l43 231h256l-43 -231h-256zM434 1477l43 231h256l-43 -231h-256z" />
    <glyph glyph-name="uni03AB" unicode="&#x3ab;" horiz-adv-x="892" 
d="M154 0l98 502l-98 932h362l6 -473l187 473h366l-459 -932l-98 -502h-364zM342 1477l43 231h256l-43 -231h-256zM651 1477l43 231h256l-43 -231h-256z" />
    <glyph glyph-name="uni03AC" unicode="&#x3ac;" horiz-adv-x="983" 
d="M207 -20q-213 0 -213 284q0 69 14 176t40.5 228t72.5 232t102 167q72 72 164 72q76 0 122.5 -36t78.5 -112l24 127h357l-148 -762q-6 -23 -6 -43q0 -37 51 -37q14 0 49 5l-53 -269q-88 -32 -180 -32q-188 0 -227 141q-67 -80 -126 -110.5t-122 -30.5zM401 293q17 0 31 14
q29 29 67 215.5t38 245.5t-48 59q-16 0 -30 -14q-29 -29 -67 -215.5t-38 -245.5t47 -59zM494 1182l127 278l278 -71l-221 -207h-184z" />
    <glyph glyph-name="uni03AD" unicode="&#x3ad;" horiz-adv-x="702" 
d="M209 584q-129 77 -129 221q0 145 106 242.5t303 97.5q146 0 287 -60l-59 -305q-109 68 -207 68q-55 0 -84 -24t-29 -62q0 -36 25 -51t90 -15h133l-53 -270h-141q-136 0 -136 -88q0 -35 25 -50.5t82 -15.5q108 0 211 35l-62 -305q-114 -29 -245 -29q-186 0 -271.5 72.5
t-85.5 196.5q0 264 240 342zM406 1182l126 278l279 -71l-221 -207h-184z" />
    <glyph glyph-name="uni03AE" unicode="&#x3ae;" horiz-adv-x="868" 
d="M-72 0l217 1118h357l-25 -123q51 67 108.5 107.5t133.5 40.5q93 0 139.5 -52.5t46.5 -136.5q0 -45 -10 -100l-217 -1120h-356l194 997q8 31 8 53q0 39 -37 39q-44 0 -53 -57l-149 -766h-357zM485 1182l127 278l279 -71l-221 -207h-185z" />
    <glyph glyph-name="uni03AF" unicode="&#x3af;" horiz-adv-x="509" 
d="M-27 199q0 75 25 188l141 731h357l-148 -762q-6 -23 -6 -43q0 -37 51 -37q14 0 49 5l-53 -269q-88 -32 -180 -32q-236 0 -236 219zM227 1165l127 279l279 -72l-221 -207h-185z" />
    <glyph glyph-name="uni03B0" unicode="&#x3b0;" horiz-adv-x="866" 
d="M348 -27q-172 0 -265 81.5t-93 234.5q0 52 18 155l131 674h357l-144 -729q-8 -36 -8 -55q0 -39 39 -39q21 0 35 14t20 45l150 764h356l-139 -723q-24 -114 -54.5 -183.5t-82.5 -121.5q-117 -117 -320 -117zM717 1165l43 230h219l-43 -230h-219zM190 1165l43 230h220
l-43 -230h-220zM440 1165l95 336l253 -37l-196 -299h-152z" />
    <glyph glyph-name="uni03B1" unicode="&#x3b1;" horiz-adv-x="983" 
d="M207 -20q-213 0 -213 284q0 69 14 176t40.5 228t72.5 232t102 167q72 72 164 72q76 0 122.5 -36t78.5 -112l24 127h357l-148 -762q-6 -23 -6 -43q0 -37 51 -37q14 0 49 5l-53 -269q-88 -32 -180 -32q-188 0 -227 141q-67 -80 -126 -110.5t-122 -30.5zM401 293q17 0 31 14
q29 29 67 215.5t38 245.5t-48 59q-16 0 -30 -14q-29 -29 -67 -215.5t-38 -245.5t47 -59z" />
    <glyph glyph-name="uni03B2" unicode="&#x3b2;" horiz-adv-x="884" 
d="M510 -20q-76 0 -128.5 34.5t-94.5 108.5l-76 -389h-334l250 1284q44 230 158 344q113 113 307 113q176 0 272.5 -93t96.5 -245q0 -304 -271 -416q150 -86 150 -262q0 -54 -10.5 -115t-36 -126.5t-62.5 -118t-94.5 -86t-126.5 -33.5zM408 293q26 0 46.5 24t31.5 59.5
t16.5 69.5t5.5 62q0 52 -23.5 73t-76.5 21h-11l-35 -178q-8 -33 -8 -68q0 -63 54 -63zM483 1044l-37 -182h25q53 0 84 31q27 27 44 96.5t17 120.5q0 70 -53 70q-22 0 -39 -17q-24 -24 -41 -119z" />
    <glyph glyph-name="uni03B3" unicode="&#x3b3;" horiz-adv-x="831" 
d="M436 -266h-356l53 274l-41 1110h357l-39 -586l186 586h365l-474 -1118z" />
    <glyph glyph-name="uni03B4" unicode="&#x3b4;" horiz-adv-x="868" 
d="M618 1174l41 -54q96 -125 138.5 -240.5t42.5 -275.5q0 -153 -41.5 -291t-128.5 -225q-115 -115 -295 -115q-175 0 -275 104.5t-100 301.5q0 56 7 114t29.5 135t58 146.5t97.5 143t144 129.5l-113 163l49 254h674l-57 -297zM492 645q0 75 -17 148q-58 -69 -93.5 -208
t-35.5 -231q0 -78 45 -78q18 0 33 15q30 30 49 141t19 213z" />
    <glyph glyph-name="uni03B5" unicode="&#x3b5;" horiz-adv-x="702" 
d="M209 584q-129 77 -129 221q0 145 106 242.5t303 97.5q146 0 287 -60l-59 -305q-109 68 -207 68q-55 0 -84 -24t-29 -62q0 -36 25 -51t90 -15h133l-53 -270h-141q-136 0 -136 -88q0 -35 25 -50.5t82 -15.5q108 0 211 35l-62 -305q-114 -29 -245 -29q-186 0 -271.5 72.5
t-85.5 196.5q0 264 240 342z" />
    <glyph glyph-name="uni03B6" unicode="&#x3b6;" horiz-adv-x="722" 
d="M825 1169l-405 -561q-65 -87 -84 -125t-19 -73q0 -34 22 -60t85 -53l209 -92l-80 -412h-322l45 221l-77 39q-120 59 -171 128t-51 186q0 87 32 170.5t118 201.5l309 428h-248l58 297h637z" />
    <glyph glyph-name="uni03B7" unicode="&#x3b7;" horiz-adv-x="868" 
d="M-72 0l217 1118h357l-25 -123q51 67 108.5 107.5t133.5 40.5q93 0 139.5 -52.5t46.5 -136.5q0 -45 -10 -100l-217 -1120h-356l194 997q8 31 8 53q0 39 -37 39q-44 0 -53 -57l-149 -766h-357z" />
    <glyph glyph-name="uni03B8" unicode="&#x3b8;" horiz-adv-x="858" 
d="M346 -27q-334 0 -334 414q0 92 18.5 223t52.5 274.5t93 275.5t129 202q106 106 268 106q160 0 247 -101.5t87 -311.5q0 -93 -18.5 -224t-53 -274.5t-93.5 -275.5t-130 -203q-55 -55 -118 -80t-148 -25zM373 279q19 0 33 14q40 40 98 295h-142q-32 -160 -32 -246
q0 -35 10.5 -49t32.5 -14zM514 1149q-37 -37 -96 -287h141q31 188 31 238q0 35 -10.5 49t-32.5 14q-19 0 -33 -14z" />
    <glyph glyph-name="uni03B9" unicode="&#x3b9;" horiz-adv-x="509" 
d="M-27 199q0 75 25 188l141 731h357l-148 -762q-6 -23 -6 -43q0 -37 51 -37q14 0 49 5l-53 -269q-88 -32 -180 -32q-236 0 -236 219z" />
    <glyph glyph-name="uni03BA" unicode="&#x3ba;" horiz-adv-x="868" 
d="M758 0h-357l-18 348l-45 -67l-53 -281h-357l217 1118h357l-74 -381l193 381h372l-297 -536z" />
    <glyph glyph-name="uni03BB" unicode="&#x3bb;" horiz-adv-x="835" 
d="M240 0h-365l481 1137q-5 15 -14 26q-21 21 -72 21q-30 0 -77 -8l53 274q60 18 147 18q146 0 215 -69q49 -49 71.5 -126t29.5 -247l34 -1026h-356l39 565z" />
    <glyph glyph-name="uni03BC" unicode="&#x3bc;" horiz-adv-x="964" 
d="M377 -14q-95 0 -125 116l-6 -2q3 -164 -23 -309l-10 -57h-336l268 1384h357l-144 -729q-8 -36 -8 -55q0 -39 39 -39q45 0 55 59l150 764h356l-147 -762q-6 -23 -6 -43q0 -37 51 -37q14 0 49 5l-53 -269q-81 -32 -162 -32q-132 0 -160 116q-38 -67 -73 -88.5t-72 -21.5z
" />
    <glyph glyph-name="uni03BD" unicode="&#x3bd;" horiz-adv-x="835" 
d="M127 -4l-35 1122h357l-39 -583l186 583h365l-469 -1122h-365z" />
    <glyph glyph-name="uni03BE" unicode="&#x3be;" horiz-adv-x="714" 
d="M621 182l-76 -389h-322l43 221l-71 45q-105 66 -155 139.5t-50 186.5q0 327 282 408q-125 107 -125 268q0 176 117 295t309 119q146 0 281 -66l-59 -311q-90 69 -174 69q-70 0 -105 -44t-35 -107q0 -117 154 -117h61l-57 -299h-125q-86 0 -128 -46.5t-42 -119.5
q0 -56 39 -98t143 -100z" />
    <glyph glyph-name="uni03BF" unicode="&#x3bf;" horiz-adv-x="870" 
d="M354 -27q-175 0 -264.5 109t-89.5 283q0 162 57.5 357.5t157.5 295.5q127 127 301 127q175 0 264.5 -108.5t89.5 -282.5q0 -163 -57.5 -358.5t-157.5 -295.5q-127 -127 -301 -127zM385 281q17 0 31 14q33 33 72.5 224.5t39.5 254.5q0 64 -43 64q-15 0 -30 -15
q-33 -33 -73 -224.5t-40 -254.5t43 -63z" />
    <glyph glyph-name="uni03C0" unicode="&#x3c0;" horiz-adv-x="1046" 
d="M506 199q0 79 24 188l78 401h-90l-151 -788h-357l152 788h-99l64 330h997l-63 -330h-96l-84 -432q-7 -27 -7 -43q0 -37 52 -37q14 0 49 5l-53 -269q-88 -32 -181 -32q-235 0 -235 219z" />
    <glyph glyph-name="uni03C1" unicode="&#x3c1;" horiz-adv-x="882" 
d="M504 -18q-76 0 -123 36t-78 109l-76 -393h-356l164 846q36 184 78 287t102 163q115 115 301 115q175 0 270 -95.5t95 -283.5q0 -176 -58.5 -397.5t-154.5 -317.5q-69 -69 -164 -69zM401 293q17 0 31 14q31 26 68 214t37 249q0 59 -48 59q-16 0 -30 -14q-31 -26 -68 -214
t-37 -249q0 -59 47 -59z" />
    <glyph glyph-name="uni03C2" unicode="&#x3c2;" horiz-adv-x="671" 
d="M580 190l-78 -397h-322l45 225l-63 68q-82 87 -113 175.5t-31 209.5q0 158 50 309t141 242q117 117 293 117q134 0 246 -62l-66 -329q-72 55 -139 55q-51 0 -88 -37t-59.5 -112t-22.5 -144q0 -73 23.5 -123.5t84.5 -105.5z" />
    <glyph glyph-name="uni03C3" unicode="&#x3c3;" horiz-adv-x="915" 
d="M354 -27q-175 0 -264.5 109t-89.5 283q0 165 55.5 346.5t149.5 275.5q71 71 167 101t261 30h377l-60 -311l-178 4q57 -103 57 -246q0 -125 -49.5 -257.5t-124.5 -207.5q-127 -127 -301 -127zM385 281q17 0 31 14q34 34 71 212.5t37 242.5q0 63 -43 63q-16 0 -30 -14
q-34 -34 -71.5 -213t-37.5 -242t43 -63z" />
    <glyph glyph-name="uni03C4" unicode="&#x3c4;" horiz-adv-x="714" 
d="M803 1118l-66 -336h-162l-73 -379q-13 -67 -13 -81q0 -23 12.5 -35.5t49.5 -12.5q19 0 65 9l-51 -271q-92 -32 -198 -32q-246 0 -246 229q0 62 24 190l74 383h-158l66 336h676z" />
    <glyph glyph-name="uni03C5" unicode="&#x3c5;" horiz-adv-x="866" 
d="M348 -27q-172 0 -265 81.5t-93 234.5q0 52 18 155l131 674h357l-144 -729q-8 -36 -8 -55q0 -39 39 -39q21 0 35 14t20 45l150 764h356l-139 -723q-24 -114 -54.5 -183.5t-82.5 -121.5q-117 -117 -320 -117z" />
    <glyph glyph-name="uni03C6" unicode="&#x3c6;" horiz-adv-x="1269" 
d="M297 -266l53 274q-162 39 -251 156t-89 301q0 144 45 273.5t138 222.5q143 143 372 163l68 340h356l-69 -356q162 -37 251 -154t89 -301q0 -144 -45 -273t-138 -222q-143 -143 -375 -164l-49 -260h-356zM346 461q0 -130 72 -160l100 520q-41 -12 -76 -47
q-44 -44 -70 -138t-26 -175zM924 657q0 128 -72 158l-100 -518q40 12 75 47q44 44 70.5 138.5t26.5 174.5z" />
    <glyph glyph-name="uni03C7" unicode="&#x3c7;" horiz-adv-x="876" 
d="M446 1118l29 -334l148 334h370l-393 -688l154 -696h-346l-52 397l-192 -397h-369l436 745l-131 639h346z" />
    <glyph glyph-name="uni03C8" unicode="&#x3c8;" horiz-adv-x="1253" 
d="M967 1464l-222 -1140q44 6 68 30q31 31 47 111l127 653h344l-137 -712q-41 -177 -131 -267q-70 -70 -157 -101.5t-210 -37.5l-51 -266h-356l53 272q-166 24 -250 118.5t-84 233.5q0 74 25 211l106 549h344l-118 -612q-13 -67 -13 -92q0 -70 66 -88l221 1138h328z" />
    <glyph glyph-name="uni03C9" unicode="&#x3c9;" horiz-adv-x="1294" 
d="M541 874h329l-75 -401q-13 -73 -13 -111q0 -57 39 -57q24 0 42.5 32.5t29 79.5t17 109.5t8.5 113.5t2 99q0 161 -21 379h342q33 -191 33 -397q0 -159 -23 -287t-61.5 -213t-91.5 -142t-112 -81.5t-124 -24.5q-104 0 -170 53.5t-98 170.5q-106 -224 -295 -224
q-140 0 -221.5 91t-81.5 280q0 177 69 380t177 394h368q-116 -205 -189 -412t-73 -335q0 -66 39 -66q23 0 38.5 25.5t31.5 105.5z" />
    <glyph glyph-name="uni03CA" unicode="&#x3ca;" horiz-adv-x="509" 
d="M-27 199q0 75 25 188l141 731h357l-148 -762q-6 -23 -6 -43q0 -37 51 -37q14 0 49 5l-53 -269q-88 -32 -180 -32q-236 0 -236 219zM61 1165l48 252h247l-47 -252h-248zM358 1165l48 252h247l-47 -252h-248z" />
    <glyph glyph-name="uni03CB" unicode="&#x3cb;" horiz-adv-x="866" 
d="M348 -27q-172 0 -265 81.5t-93 234.5q0 52 18 155l131 674h357l-144 -729q-8 -36 -8 -55q0 -39 39 -39q21 0 35 14t20 45l150 764h356l-139 -723q-24 -114 -54.5 -183.5t-82.5 -121.5q-117 -117 -320 -117zM281 1165l47 252h247l-47 -252h-247zM578 1165l47 252h247
l-47 -252h-247z" />
    <glyph glyph-name="uni03CC" unicode="&#x3cc;" horiz-adv-x="870" 
d="M354 -27q-175 0 -264.5 109t-89.5 283q0 162 57.5 357.5t157.5 295.5q127 127 301 127q175 0 264.5 -108.5t89.5 -282.5q0 -163 -57.5 -358.5t-157.5 -295.5q-127 -127 -301 -127zM385 281q17 0 31 14q33 33 72.5 224.5t39.5 254.5q0 64 -43 64q-15 0 -30 -15
q-33 -33 -73 -224.5t-40 -254.5t43 -63zM453 1182l127 278l278 -71l-221 -207h-184z" />
    <glyph glyph-name="uni03CD" unicode="&#x3cd;" horiz-adv-x="866" 
d="M348 -27q-172 0 -265 81.5t-93 234.5q0 52 18 155l131 674h357l-144 -729q-8 -36 -8 -55q0 -39 39 -39q21 0 35 14t20 45l150 764h356l-139 -723q-24 -114 -54.5 -183.5t-82.5 -121.5q-117 -117 -320 -117zM442 1165l127 279l279 -72l-221 -207h-185z" />
    <glyph glyph-name="uni03CE" unicode="&#x3ce;" horiz-adv-x="1294" 
d="M541 874h329l-75 -401q-13 -73 -13 -111q0 -57 39 -57q24 0 42.5 32.5t29 79.5t17 109.5t8.5 113.5t2 99q0 161 -21 379h342q33 -191 33 -397q0 -159 -23 -287t-61.5 -213t-91.5 -142t-112 -81.5t-124 -24.5q-104 0 -170 53.5t-98 170.5q-106 -224 -295 -224
q-140 0 -221.5 91t-81.5 280q0 177 69 380t177 394h368q-116 -205 -189 -412t-73 -335q0 -66 39 -66q23 0 38.5 25.5t31.5 105.5zM649 1165l127 279l279 -72l-221 -207h-185z" />
    <glyph glyph-name="uni0400" unicode="&#x400;" horiz-adv-x="765" 
d="M-70 0l279 1434h694l-67 -347h-330l-39 -198h295l-66 -336h-295l-39 -207h336l-67 -346h-701zM438 1477l-198 157l360 66l76 -223h-238z" />
    <glyph glyph-name="uni0401" unicode="&#x401;" horiz-adv-x="765" 
d="M-70 0l279 1434h694l-67 -347h-330l-39 -198h295l-66 -336h-295l-39 -207h336l-67 -346h-701zM287 1477l43 231h256l-43 -231h-256zM596 1477l43 231h256l-43 -231h-256z" />
    <glyph glyph-name="uni0402" unicode="&#x402;" horiz-adv-x="1077" 
d="M694 465q0 53 -20.5 72.5t-75.5 19.5h-27l-108 -557h-361l211 1085h-192l67 349h758l-67 -349h-205l-35 -182h14q202 0 302 -85t100 -283q0 -117 -36.5 -244.5t-107.5 -198.5q-56 -56 -124.5 -76t-165.5 -20q-51 0 -101 4l58 291h10q45 0 63 18q22 22 32.5 68.5
t10.5 87.5z" />
    <glyph glyph-name="uni0403" unicode="&#x403;" horiz-adv-x="702" 
d="M-70 0l279 1434h647l-68 -347h-282l-211 -1087h-365zM377 1477l162 223l346 -66l-260 -157h-248z" />
    <glyph glyph-name="uni0404" unicode="&#x404;" horiz-adv-x="813" 
d="M31 485q0 226 71.5 459.5t208.5 370.5q139 139 351 139q159 0 278 -61l-70 -349q-104 68 -200 68q-76 0 -127 -51q-60 -60 -97 -180l312 2l-64 -324l-309 2q-2 -25 -2 -63v-6q0 -94 43 -136.5t127 -42.5q97 0 190 37l-65 -330q-98 -40 -213 -40q-214 0 -324 134t-110 371
z" />
    <glyph glyph-name="uni0405" unicode="&#x405;" horiz-adv-x="804" 
d="M293 -27q-183 0 -346 109l69 356q89 -60 152 -88t125 -28q47 0 73.5 23.5t26.5 64.5q0 33 -18 61.5t-64 75.5q-106 114 -156.5 204.5t-50.5 206.5q0 233 148 381q121 121 317 121q174 0 320 -86l-70 -354q-144 92 -244 92q-47 0 -74.5 -24.5t-27.5 -65.5q0 -24 10 -46
t23.5 -38t48.5 -55q53 -58 85 -98.5t63.5 -92.5t46 -106t14.5 -115q0 -229 -148 -377q-121 -121 -323 -121z" />
    <glyph glyph-name="uni0406" unicode="&#x406;" horiz-adv-x="450" 
d="M-66 0l279 1434h365l-279 -1434h-365z" />
    <glyph glyph-name="uni0407" unicode="&#x407;" horiz-adv-x="450" 
d="M-66 0l279 1434h365l-279 -1434h-365zM125 1477l43 231h256l-43 -231h-256zM434 1477l43 231h256l-43 -231h-256z" />
    <glyph glyph-name="uni0408" unicode="&#x408;" horiz-adv-x="669" 
d="M156 -18q-136 0 -240 34l68 338q62 -26 139 -26q54 0 84 30q27 27 43 101l190 975h365l-199 -1018q-47 -224 -149 -326q-108 -108 -301 -108z" />
    <glyph glyph-name="uni0409" unicode="&#x409;" horiz-adv-x="1382" 
d="M432 0l215 1108h-12l-416 -1108h-354l588 1434h618l-88 -435q195 -16 291 -112q102 -102 102 -275q0 -131 -44.5 -256t-121.5 -202q-154 -154 -419 -154h-359zM1018 573q0 68 -29 97q-22 22 -61 22v-2l-76 -381h4q57 0 94 37q32 32 50 100.5t18 126.5z" />
    <glyph glyph-name="uni040A" unicode="&#x40a;" horiz-adv-x="1392" 
d="M442 0l107 547h-148l-106 -547h-365l279 1434h364l-104 -539h147l105 539h360l-88 -435q195 -16 291 -112q102 -102 102 -275q0 -131 -44 -256t-121 -202q-154 -154 -420 -154h-359zM1028 573q0 68 -29 97q-22 22 -61 22v-2l-76 -381h4q58 0 95 37q32 32 49.5 100.5
t17.5 126.5z" />
    <glyph glyph-name="uni040B" unicode="&#x40b;" horiz-adv-x="1105" 
d="M102 0l211 1085h-192l67 349h758l-67 -349h-205l-35 -182h35q387 0 387 -311q0 -77 -35 -252l-65 -340h-365l80 410q10 51 10 75q0 36 -21.5 51t-74.5 15h-21l-106 -551h-361z" />
    <glyph glyph-name="uni040C" unicode="&#x40c;" horiz-adv-x="917" 
d="M-70 0l279 1434h364l-116 -603l250 603h380l-333 -748l49 -686h-365l-26 600l-117 -600h-365zM487 1477l162 223l346 -66l-260 -157h-248z" />
    <glyph glyph-name="uni040D" unicode="&#x40d;" horiz-adv-x="976" 
d="M729 1434h379l-279 -1434h-352l123 637l-307 -637h-363l279 1434h352l-117 -605zM539 1477l-199 157l360 66l76 -223h-237z" />
    <glyph glyph-name="uni040E" unicode="&#x40e;" horiz-adv-x="917" 
d="M1106 1434l-664 -1434h-372l180 377l-92 1057h356l14 -521l205 521h373zM631 1464q-117 0 -178.5 52.5t-44.5 160.5h182q3 -53 67 -53q61 0 88 53h187q-58 -213 -301 -213z" />
    <glyph glyph-name="uni040F" unicode="&#x40f;" horiz-adv-x="958" 
d="M1090 1434l-279 -1434h-276l-46 -231h-327l45 231h-277l279 1434h364l-211 -1086h152l211 1086h365z" />
    <glyph glyph-name="uni0410" unicode="&#x410;" horiz-adv-x="950" 
d="M-125 0l551 1436h438l-6 -1436h-356l12 231h-201l-77 -231h-361zM412 528h118l25 428z" />
    <glyph glyph-name="uni0411" unicode="&#x411;" horiz-adv-x="880" 
d="M860 547q0 -111 -37.5 -219.5t-109.5 -180.5q-81 -81 -188.5 -114t-262.5 -33h-332l279 1434h733l-68 -349h-372l-35 -172q202 -10 299 -104q94 -94 94 -262zM506 504q0 66 -31 88q-21 18 -61 18h-4l-60 -305h12q58 0 87 29q27 27 42 77t15 93z" />
    <glyph glyph-name="uni0412" unicode="&#x412;" horiz-adv-x="913" 
d="M-70 0l279 1434h309q221 0 342 -91.5t121 -242.5q0 -262 -244 -387q142 -96 142 -258q0 -217 -150.5 -336t-441.5 -119h-357zM346 334h35q70 0 106.5 39.5t36.5 107.5q0 47 -29.5 72t-74.5 25h-25zM449 860h26q66 0 103.5 40.5t37.5 103.5q0 96 -108 96h-12z" />
    <glyph glyph-name="uni0413" unicode="&#x413;" horiz-adv-x="702" 
d="M-70 0l279 1434h647l-68 -347h-282l-211 -1087h-365z" />
    <glyph glyph-name="uni0414" unicode="&#x414;" horiz-adv-x="1200" 
d="M-27 348h121l434 1088h484l10 -1088h123l-113 -579h-327l45 231h-517l-45 -231h-327zM690 1012l-235 -670h209z" />
    <glyph glyph-name="uni0415" unicode="&#x415;" horiz-adv-x="765" 
d="M-70 0l279 1434h694l-67 -347h-330l-39 -198h295l-66 -336h-295l-39 -207h336l-67 -346h-701z" />
    <glyph glyph-name="uni0416" unicode="&#x416;" horiz-adv-x="1376" 
d="M1036 1434l-125 -605l258 605h377l-344 -746l62 -688h-363l-37 586l-106 -586h-361l119 584l-258 -584h-377l348 741l-53 693h363l26 -607l111 607h360z" />
    <glyph glyph-name="uni0417" unicode="&#x417;" horiz-adv-x="774" 
d="M127 1069l70 350q131 41 252 41q189 0 292 -92.5t103 -263.5q0 -294 -264 -410q76 -45 112.5 -110t36.5 -162q0 -88 -28.5 -167t-83.5 -143t-145.5 -101.5t-205.5 -37.5q-201 0 -342 80l68 342q130 -78 235 -78q71 0 109.5 38t38.5 100q0 57 -37.5 82.5t-124.5 25.5h-90
l61 316h113q186 0 186 133q0 104 -137 104q-101 0 -219 -47z" />
    <glyph glyph-name="uni0418" unicode="&#x418;" horiz-adv-x="976" 
d="M729 1434h379l-279 -1434h-352l123 637l-307 -637h-363l279 1434h352l-117 -605z" />
    <glyph glyph-name="uni0419" unicode="&#x419;" horiz-adv-x="976" 
d="M729 1434h379l-279 -1434h-352l123 637l-307 -637h-363l279 1434h352l-117 -605zM670 1464q-117 0 -178.5 52.5t-45.5 160.5h183q3 -53 67 -53q61 0 88 53h187q-58 -213 -301 -213z" />
    <glyph glyph-name="uni041A" unicode="&#x41a;" horiz-adv-x="917" 
d="M-70 0l279 1434h364l-116 -603l250 603h380l-333 -748l49 -686h-365l-26 600l-117 -600h-365z" />
    <glyph glyph-name="uni041B" unicode="&#x41b;" horiz-adv-x="933" 
d="M846 1436l-4 -1436h-367l41 803l-270 -803h-371l553 1436h418z" />
    <glyph glyph-name="uni041C" unicode="&#x41c;" horiz-adv-x="1097" 
d="M-70 0l279 1434h338l86 -416l246 416h350l-279 -1434h-352l129 666l-231 -392h-4l-80 392l-129 -666h-353z" />
    <glyph glyph-name="uni041D" unicode="&#x41d;" horiz-adv-x="958" 
d="M-70 0l279 1434h364l-104 -539h152l104 539h365l-279 -1434h-365l107 547h-152l-106 -547h-365z" />
    <glyph glyph-name="uni041E" unicode="&#x41e;" horiz-adv-x="978" 
d="M623 1464q178 0 285.5 -114.5t107.5 -333.5q0 -92 -17 -213.5t-49.5 -254.5t-90 -256t-128.5 -194q-129 -129 -313 -129q-177 0 -285 114.5t-108 334.5q0 92 17 213.5t49 254t89.5 255.5t128.5 194q129 129 314 129zM442 301q27 0 50 23q49 49 108 328t59 395
q0 86 -61 86q-26 0 -49 -23q-49 -49 -108.5 -328.5t-59.5 -394.5q0 -86 61 -86z" />
    <glyph glyph-name="uni041F" unicode="&#x41f;" horiz-adv-x="958" 
d="M-70 0l279 1434h881l-279 -1434h-365l211 1085h-151l-211 -1085h-365z" />
    <glyph glyph-name="uni0420" unicode="&#x420;" horiz-adv-x="884" 
d="M-70 0l279 1434h285q242 0 364 -119q103 -100 103 -273q0 -136 -44.5 -271t-132.5 -214q-157 -145 -405 -145h-8l-80 -412h-361zM573 1096q-22 22 -59 22h-6l-76 -391h8q55 0 88 33q37 37 55.5 114.5t18.5 133.5q0 59 -29 88z" />
    <glyph glyph-name="uni0421" unicode="&#x421;" horiz-adv-x="796" 
d="M463 -20q-210 0 -322 131.5t-112 373.5q0 221 74.5 456t207.5 368q145 145 355 145q151 0 258 -63l-72 -355q-94 70 -176 70q-66 0 -113 -47q-72 -72 -119 -244t-47 -303q0 -104 41 -148.5t115 -44.5q75 0 176 41l-67 -335q-91 -45 -199 -45z" />
    <glyph glyph-name="uni0422" unicode="&#x422;" horiz-adv-x="794" 
d="M106 0l211 1085h-200l69 349h766l-69 -349h-201l-211 -1085h-365z" />
    <glyph glyph-name="uni0423" unicode="&#x423;" horiz-adv-x="917" 
d="M1106 1434l-664 -1434h-372l180 377l-92 1057h356l14 -521l205 521h373z" />
    <glyph glyph-name="uni0424" unicode="&#x424;" horiz-adv-x="1343" 
d="M666 1468h364l-29 -143q171 -38 266 -162.5t95 -333.5q0 -159 -52 -308.5t-159 -256.5q-150 -150 -387 -164l-25 -135h-364l26 141q-171 39 -264.5 163t-93.5 333q0 162 52 311t159 256q150 150 385 164zM1004 848q0 132 -74 170l-117 -604q38 11 70 43q54 54 87.5 171.5
t33.5 219.5zM401 586q0 -135 72 -170l117 602q-43 -16 -68 -41q-54 -54 -87.5 -171.5t-33.5 -219.5z" />
    <glyph glyph-name="uni0425" unicode="&#x425;" horiz-adv-x="874" 
d="M-117 0l365 754l-78 680h362l7 -371l145 371h360l-352 -729l82 -705h-362l-9 408l-159 -408h-361z" />
    <glyph glyph-name="uni0426" unicode="&#x426;" horiz-adv-x="1048" 
d="M1090 1434l-211 -1086h114l-112 -579h-328l45 231h-668l279 1434h364l-211 -1086h152l211 1086h365z" />
    <glyph glyph-name="uni0427" unicode="&#x427;" horiz-adv-x="948" 
d="M436 0l84 432h-47q-387 0 -387 311q0 87 35 252l84 439h364l-98 -508q-10 -51 -10 -76q0 -36 21.5 -51t74.5 -15h31l127 650h364l-278 -1434h-365z" />
    <glyph glyph-name="uni0428" unicode="&#x428;" horiz-adv-x="1417" 
d="M1548 1434l-278 -1434h-1340l279 1434h360l-211 -1086h129l211 1086h361l-211 -1086h129l211 1086h360z" />
    <glyph glyph-name="uni0429" unicode="&#x429;" horiz-adv-x="1507" 
d="M1548 1434l-211 -1086h115l-113 -579h-327l45 231h-1127l279 1434h360l-211 -1086h129l211 1086h361l-211 -1086h129l211 1086h360z" />
    <glyph glyph-name="uni042A" unicode="&#x42a;" horiz-adv-x="1054" 
d="M121 1090l67 344h551l-86 -435q188 -15 293 -112q103 -103 103 -275q0 -131 -44.5 -256t-121.5 -202q-154 -154 -420 -154h-363l211 1090h-190zM690 573q0 69 -28 97q-22 22 -62 22h-4l-76 -383h8q58 0 95 37q32 32 49.5 100.5t17.5 126.5z" />
    <glyph glyph-name="uni042B" unicode="&#x42b;" horiz-adv-x="1327" 
d="M-70 0l279 1434h360l-86 -435q188 -15 293 -112q103 -103 103 -275q0 -131 -44.5 -256t-121.5 -202q-154 -154 -420 -154h-363zM815 0l279 1434h364l-278 -1434h-365zM520 573q0 69 -28 97q-22 22 -62 22h-4l-76 -383h8q58 0 95 37q32 32 49.5 100.5t17.5 126.5z" />
    <glyph glyph-name="uni042C" unicode="&#x42c;" horiz-adv-x="884" 
d="M-70 0l279 1434h360l-86 -435q188 -15 293 -112q103 -103 103 -275q0 -131 -44.5 -256t-121.5 -202q-154 -154 -420 -154h-363zM520 573q0 69 -28 97q-22 22 -62 22h-4l-76 -383h8q58 0 95 37q32 32 49.5 100.5t17.5 126.5z" />
    <glyph glyph-name="uni042D" unicode="&#x42d;" horiz-adv-x="813" 
d="M844 944q0 -227 -72 -458.5t-209 -368.5t-350 -137q-160 0 -285 61l70 348q108 -67 207 -67q78 0 127 49q57 57 96 182l-311 -2l63 323l309 -2q0 13 1.5 30.5t1.5 23.5v6q0 188 -173 188q-90 0 -180 -37l66 330q96 41 209 41q211 0 320.5 -137t109.5 -373z" />
    <glyph glyph-name="uni042E" unicode="&#x42e;" horiz-adv-x="1396" 
d="M-70 0l279 1434h364l-104 -539h63q84 310 220 446q123 123 297 123q175 0 279 -113t104 -335q0 -94 -16.5 -215.5t-48.5 -254.5t-90.5 -257t-131.5 -197q-123 -123 -297 -123q-176 0 -279.5 113t-103.5 336q0 56 6 129h-70l-106 -547h-365zM870 301q21 0 37 16
q50 44 109 325.5t59 412.5q0 78 -49 78q-20 0 -37 -17q-49 -49 -108.5 -327.5t-59.5 -409.5q0 -78 49 -78z" />
    <glyph glyph-name="uni042F" unicode="&#x42f;" horiz-adv-x="933" 
d="M1063 1434l-279 -1434h-360l84 432h-8l-215 -432h-402l314 578q-93 110 -93 290q0 122 43 234t121 190q80 80 188.5 111t254.5 31h352zM641 1118h-12q-53 0 -84 -31q-35 -35 -54.5 -110t-19.5 -141q0 -111 88 -111h6z" />
    <glyph glyph-name="uni0430" unicode="&#x430;" horiz-adv-x="823" 
d="M147 -20q-92 0 -140 59t-48 172q0 111 36 228t101 182q75 75 189 75q52 0 89 -11.5t83 -37.5l4 19q6 18 6 53q0 100 -139 100q-103 0 -219 -53l63 330q147 43 293 43q169 0 267.5 -79.5t98.5 -240.5q0 -61 -16 -149l-131 -670h-354l14 76q-45 -48 -90 -72t-107 -24z
M319 211q22 0 41 19.5t29 62.5l31 160q-27 18 -53 18q-21 0 -37 -16q-22 -22 -38 -83.5t-16 -99.5q0 -61 43 -61z" />
    <glyph glyph-name="uni0431" unicode="&#x431;" horiz-adv-x="872" 
d="M371 -27q-161 0 -252 88q-105 99 -105 318q0 94 16.5 216t48 255.5t88 256.5t126.5 193q68 68 168.5 106t259.5 50l233 19l-65 -336l-207 -17q-110 -7 -162.5 -26t-87.5 -54q-60 -60 -104 -202q113 147 264 147q122 0 193 -78t71 -233q0 -154 -51 -325.5t-146 -262.5
q-115 -115 -288 -115zM385 281q19 0 33 14q33 33 59.5 156.5t26.5 181.5q0 35 -10 49t-33 14q-19 0 -33 -14q-33 -33 -59.5 -156.5t-26.5 -181.5q0 -35 10 -49t33 -14z" />
    <glyph glyph-name="uni0432" unicode="&#x432;" horiz-adv-x="847" 
d="M-72 0l217 1118h334q398 0 398 -276q0 -199 -201 -295q119 -71 119 -201q0 -163 -117 -254.5t-344 -91.5h-406zM395 676h33q55 0 83 32t28 85q0 69 -93 69h-14zM313 256h37q57 0 84 32t27 83q0 75 -82 75h-29z" />
    <glyph glyph-name="uni0433" unicode="&#x433;" horiz-adv-x="622" 
d="M-72 0l217 1118h572l-66 -336h-215l-151 -782h-357z" />
    <glyph glyph-name="uni0434" unicode="&#x434;" horiz-adv-x="1060" 
d="M-35 328h115l348 794h430l39 -794h109l-105 -535h-315l41 207h-412l-39 -207h-315zM571 741l-151 -424h137z" />
    <glyph glyph-name="uni0435" unicode="&#x435;" horiz-adv-x="843" 
d="M793 414h-451v-4q0 -71 39 -101t123 -30q116 0 233 57l-41 -305q-135 -58 -288 -58q-404 0 -404 414q0 94 20.5 204.5t72 232t124.5 194.5q127 127 295 127q156 0 243 -98t87 -287q0 -132 -53 -346zM444 823q-33 -33 -67 -190h131q18 95 18 139q0 40 -10.5 54t-34.5 14
q-20 0 -37 -17z" />
    <glyph glyph-name="uni0436" unicode="&#x436;" horiz-adv-x="1284" 
d="M926 1118l-101 -479l205 479h365l-275 -592l49 -526h-352l-31 440l-79 -440h-349l93 440l-203 -440h-363l277 573l-41 545h352l16 -477l89 477h348z" />
    <glyph glyph-name="uni0437" unicode="&#x437;" horiz-adv-x="692" 
d="M221 -27q-171 0 -299 60l60 305q109 -68 217 -68q51 0 79.5 22.5t28.5 63.5q0 37 -29.5 53.5t-101.5 16.5h-117l54 270h153q60 0 90.5 21.5t30.5 58.5q0 70 -115 70q-106 0 -196 -35l59 305q108 27 213 27q189 0 283 -78.5t94 -212.5q0 -224 -215 -307q121 -76 121 -226
q0 -159 -105.5 -252.5t-304.5 -93.5z" />
    <glyph glyph-name="uni0438" unicode="&#x438;" horiz-adv-x="892" 
d="M621 1118h344l-217 -1118h-336l86 446l-228 -446h-342l217 1118h336l-86 -448z" />
    <glyph glyph-name="uni0439" unicode="&#x439;" horiz-adv-x="892" 
d="M621 1118h344l-217 -1118h-336l86 446l-228 -446h-342l217 1118h336l-86 -448zM573 1157q-256 0 -233 244h182q3 -80 74 -80t98 80h187q-36 -121 -115 -182.5t-193 -61.5z" />
    <glyph glyph-name="uni043A" unicode="&#x43a;" horiz-adv-x="872" 
d="M-72 0l217 1118h357l-90 -461l202 461h369l-283 -590l58 -528h-357l-34 424l-82 -424h-357z" />
    <glyph glyph-name="uni043B" unicode="&#x43b;" horiz-adv-x="860" 
d="M731 1122l37 -1122h-356l30 596l-202 -596h-365l475 1122h381z" />
    <glyph glyph-name="uni043C" unicode="&#x43c;" horiz-adv-x="976" 
d="M414 193l-70 303l-96 -496h-320l217 1118h308l73 -321l203 321h320l-218 -1118h-319l96 496l-190 -303h-4z" />
    <glyph glyph-name="uni043D" unicode="&#x43d;" horiz-adv-x="888" 
d="M961 1118l-218 -1118h-356l76 397h-103l-75 -397h-357l217 1118h357l-76 -385h102l76 385h357z" />
    <glyph glyph-name="uni043E" unicode="&#x43e;" horiz-adv-x="870" 
d="M354 -27q-175 0 -264.5 109t-89.5 283q0 162 57.5 357.5t157.5 295.5q127 127 301 127q175 0 264.5 -108.5t89.5 -282.5q0 -163 -57.5 -358.5t-157.5 -295.5q-127 -127 -301 -127zM385 281q17 0 31 14q33 33 72.5 224.5t39.5 254.5q0 64 -43 64q-15 0 -30 -15
q-33 -33 -73 -224.5t-40 -254.5t43 -63z" />
    <glyph glyph-name="uni043F" unicode="&#x43f;" horiz-adv-x="888" 
d="M961 1118l-218 -1118h-356l152 782h-103l-151 -782h-357l217 1118h816z" />
    <glyph glyph-name="uni0440" unicode="&#x440;" horiz-adv-x="894" 
d="M510 -20q-77 0 -123 36t-78 111l-76 -393h-356l268 1384h357l-25 -127q58 74 113 111t119 37q97 0 145.5 -70t48.5 -195q0 -105 -23 -259t-78 -322.5t-128 -241.5q-71 -71 -164 -71zM408 291q16 0 30 14q29 29 67 215.5t38 245.5t-47 59q-17 0 -31 -14
q-29 -29 -67 -215.5t-38 -245.5t48 -59z" />
    <glyph glyph-name="uni0441" unicode="&#x441;" horiz-adv-x="679" 
d="M358 -20q-174 0 -266 107t-92 290q0 98 19 207t69.5 231t124.5 199q122 125 301 125q62 0 129.5 -18.5t112.5 -43.5l-66 -329q-72 55 -139 55q-55 0 -92 -37q-48 -48 -72.5 -145t-24.5 -175q0 -76 28 -109.5t87 -33.5q68 0 135 33l-63 -326q-82 -30 -191 -30z" />
    <glyph glyph-name="uni0442" unicode="&#x442;" horiz-adv-x="753" 
d="M127 1118h717l-66 -336h-180l-152 -782h-356l152 782h-181z" />
    <glyph glyph-name="uni0443" unicode="&#x443;" horiz-adv-x="827" 
d="M127 14l-33 1104h350l-32 -579l186 579h358l-596 -1384h-356v2z" />
    <glyph glyph-name="uni0444" unicode="&#x444;" horiz-adv-x="1269" 
d="M297 -266l53 274q-162 39 -251 156t-89 301q0 144 45 273.5t138 222.5q143 143 372 163l68 340h356l-69 -356q162 -37 251 -154t89 -301q0 -144 -45 -273t-138 -222q-143 -143 -375 -164l-49 -260h-356zM346 461q0 -130 72 -160l100 520q-41 -12 -76 -47
q-44 -44 -70 -138t-26 -175zM924 657q0 128 -72 158l-100 -518q40 12 75 47q44 44 70.5 138.5t26.5 174.5z" />
    <glyph glyph-name="uni0445" unicode="&#x445;" horiz-adv-x="837" 
d="M451 1118l20 -270l121 270h360l-325 -571l114 -547h-348l-22 293l-131 -293h-361l334 586l-111 532h349z" />
    <glyph glyph-name="uni0446" unicode="&#x446;" horiz-adv-x="974" 
d="M-72 0l217 1118h357l-152 -782h103l151 782h357l-154 -790h108l-104 -535h-315l41 207h-609z" />
    <glyph glyph-name="uni0447" unicode="&#x447;" horiz-adv-x="874" 
d="M946 1118l-217 -1118h-356l61 315q-23 -2 -59 -2q-326 0 -326 265q0 65 29 217l63 323h357l-76 -385q-6 -30 -6 -47q0 -41 57 -41h25l92 473h356z" />
    <glyph glyph-name="uni0448" unicode="&#x448;" horiz-adv-x="1292" 
d="M-72 0l217 1118h347l-152 -782h90l152 782h346l-152 -782h90l152 782h346l-217 -1118h-1219z" />
    <glyph glyph-name="uni0449" unicode="&#x449;" horiz-adv-x="1378" 
d="M-72 0l217 1118h347l-152 -782h90l152 782h346l-152 -782h90l152 782h346l-154 -790h109l-105 -535h-315l41 207h-1012z" />
    <glyph glyph-name="uni044A" unicode="&#x44a;" horiz-adv-x="989" 
d="M965 496q0 -39 -4.5 -77.5t-18.5 -89.5t-36.5 -95t-63 -88t-94 -75.5t-133 -51t-175.5 -19.5h-358l151 786h-172l66 332h524l-55 -282q181 -5 275 -90t94 -250zM621 479q0 86 -70 86h-6l-58 -295h15q38 0 64 26.5t36.5 67t14.5 68t4 47.5z" />
    <glyph glyph-name="uni044B" unicode="&#x44b;" horiz-adv-x="1263" 
d="M811 496q0 -39 -4.5 -77.5t-18 -89.5t-36 -95t-63 -88t-94 -75.5t-133 -51t-175.5 -19.5h-359l217 1118h353l-56 -282q181 -5 275 -90t94 -250zM762 0l217 1118h356l-217 -1118h-356zM467 479q0 86 -70 86h-6l-57 -295h14q38 0 64 26.5t36.5 67t14.5 68t4 47.5z" />
    <glyph glyph-name="uni044C" unicode="&#x44c;" horiz-adv-x="835" 
d="M811 496q0 -39 -4.5 -77.5t-18 -89.5t-36 -95t-63 -88t-94 -75.5t-133 -51t-175.5 -19.5h-359l217 1118h353l-56 -282q181 -5 275 -90t94 -250zM467 479q0 86 -70 86h-6l-57 -295h14q38 0 64 26.5t36.5 67t14.5 68t4 47.5z" />
    <glyph glyph-name="uni044D" unicode="&#x44d;" horiz-adv-x="731" 
d="M117 696l272 -6v12v3q0 76 -34.5 110.5t-102.5 32.5q-74 0 -168 -33l59 309q83 21 181 21q196 0 298.5 -105.5t102.5 -332.5q0 -176 -55 -343t-156 -268q-123 -123 -328 -123q-124 0 -260 47l62 314q83 -51 178 -51q78 0 123 45q33 33 59 100l-285 -4z" />
    <glyph glyph-name="uni044E" unicode="&#x44e;" horiz-adv-x="1290" 
d="M-72 0l217 1118h357l-76 -389h61q60 197 160 297q119 119 293 119q173 0 260.5 -107.5t87.5 -283.5q0 -171 -55.5 -363.5t-161.5 -298.5q-119 -119 -293 -119q-173 0 -260.5 108t-87.5 284v34h-68l-77 -399h-357zM807 281q17 0 31 14q33 33 72.5 225.5t39.5 255.5
q0 62 -39 62q-15 0 -28 -13q-34 -34 -74.5 -227t-40.5 -256q0 -34 9.5 -47.5t29.5 -13.5z" />
    <glyph glyph-name="uni044F" unicode="&#x44f;" horiz-adv-x="876" 
d="M-119 0l254 455q-69 84 -69 215q0 28 2.5 56.5t14.5 75.5t31.5 87t57.5 83.5t89 74.5t130.5 51t177.5 20h379l-217 -1118h-352l61 319h-10l-162 -319h-387zM543 848h-21q-36 0 -61 -28t-34.5 -68t-13 -65.5t-3.5 -39.5q0 -48 17 -68t54 -20h6z" />
    <glyph glyph-name="uni0450" unicode="&#x450;" horiz-adv-x="843" 
d="M793 414h-451v-4q0 -71 39 -101t123 -30q116 0 233 57l-41 -305q-135 -58 -288 -58q-404 0 -404 414q0 94 20.5 204.5t72 232t124.5 194.5q127 127 295 127q156 0 243 -98t87 -287q0 -132 -53 -346zM444 823q-33 -33 -67 -190h131q18 95 18 139q0 40 -10.5 54t-34.5 14
q-20 0 -37 -17zM451 1182l-215 188l321 76l90 -264h-196z" />
    <glyph glyph-name="uni0451" unicode="&#x451;" horiz-adv-x="843" 
d="M793 414h-451v-4q0 -71 39 -101t123 -30q116 0 233 57l-41 -305q-135 -58 -288 -58q-404 0 -404 414q0 94 20.5 204.5t72 232t124.5 194.5q127 127 295 127q156 0 243 -98t87 -287q0 -132 -53 -346zM444 823q-33 -33 -67 -190h131q18 95 18 139q0 40 -10.5 54t-34.5 14
q-20 0 -37 -17zM268 1182l47 252h248l-47 -252h-248zM565 1182l47 252h248l-47 -252h-248z" />
    <glyph glyph-name="uni0452" unicode="&#x452;" horiz-adv-x="950" 
d="M776 1063h-209l-30 -156q12 0 31.5 1t27.5 1q326 0 326 -260q0 -69 -29 -221l-76 -397q-35 -178 -116.5 -242.5t-241.5 -64.5q-70 0 -115 10l43 225q14 -2 21 -2q21 0 32 11t17 44l92 477q6 30 6 48q0 41 -57 41q-13 0 -25 -3l-113 -575h-356l205 1057h-115l56 278h114
l25 129h356l-24 -129h208z" />
    <glyph glyph-name="uni0453" unicode="&#x453;" horiz-adv-x="622" 
d="M-72 0l217 1118h572l-66 -336h-215l-151 -782h-357zM291 1165l192 265l301 -76l-288 -189h-205z" />
    <glyph glyph-name="uni0454" unicode="&#x454;" horiz-adv-x="731" 
d="M668 696l-54 -272l-272 4v-18v-2q0 -73 34.5 -106.5t106.5 -31.5q73 0 166 33l-59 -309q-83 -21 -180 -21q-404 0 -404 435q0 99 17.5 201.5t66.5 216.5t123 188q131 131 332 131q128 0 256 -47l-62 -314q-87 52 -170 52q-79 0 -127 -48q-31 -31 -59 -98z" />
    <glyph glyph-name="uni0455" unicode="&#x455;" horiz-adv-x="677" 
d="M242 -27q-82 0 -166.5 27t-145.5 68l64 327q147 -110 233 -110q60 0 60 47q0 20 -14 40t-52 58q-85 87 -124.5 157.5t-39.5 157.5q0 172 102 286t275 114q152 0 289 -70l-66 -330q-136 89 -208 89q-28 0 -43 -12t-15 -31q0 -17 11.5 -33t54.5 -62q86 -87 127 -156.5
t41 -158.5q0 -111 -45.5 -203t-134 -148.5t-203.5 -56.5z" />
    <glyph glyph-name="uni0456" unicode="&#x456;" horiz-adv-x="438" 
d="M-68 0l218 1118h356l-217 -1118h-357zM160 1180l55 284h360l-55 -284h-360z" />
    <glyph glyph-name="uni0457" unicode="&#x457;" horiz-adv-x="438" 
d="M-68 0l218 1118h356l-217 -1118h-357zM68 1165l47 252h247l-47 -252h-247zM365 1165l47 252h247l-47 -252h-247z" />
    <glyph glyph-name="uni0458" unicode="&#x458;" horiz-adv-x="436" 
d="M-76 -276q-86 0 -160 12l43 227q28 -4 50 -4q36 0 55 18t29 64l209 1077h356l-207 -1065q-36 -184 -123 -256.5t-252 -72.5zM160 1180l55 284h360l-55 -284h-360z" />
    <glyph glyph-name="uni0459" unicode="&#x459;" horiz-adv-x="1296" 
d="M-129 0l481 1118h609l-56 -282q181 -5 274 -90t93 -250q0 -39 -4.5 -77.5t-18 -89.5t-36 -95t-63 -88t-94 -75.5t-133 -51t-175.5 -19.5h-355l154 793h-6l-305 -793h-365zM928 479q0 86 -70 86h-4l-57 -295h12q38 0 64 26.5t36.5 67t14.5 68t4 47.5z" />
    <glyph glyph-name="uni045A" unicode="&#x45a;" horiz-adv-x="1286" 
d="M-72 0l217 1118h355l-76 -385h100l76 385h350l-55 -282q181 -5 274 -90t93 -250q0 -39 -4.5 -77.5t-18.5 -89.5t-36.5 -95t-63 -88t-94 -75.5t-133 -51t-175.5 -19.5h-354l76 397h-101l-75 -397h-355zM918 479q0 86 -70 86h-4l-58 -295h13q38 0 64 26.5t36.5 67t14.5 68
t4 47.5z" />
    <glyph glyph-name="uni045B" unicode="&#x45b;" horiz-adv-x="950" 
d="M776 1063h-209l-30 -156q12 0 31.5 1t27.5 1q326 0 326 -264q0 -65 -29 -217l-84 -428h-356l96 489q6 30 6 48q0 41 -57 41q-13 0 -25 -3l-113 -575h-356l205 1057h-115l56 278h114l25 129h356l-24 -129h208z" />
    <glyph glyph-name="uni045C" unicode="&#x45c;" horiz-adv-x="872" 
d="M-72 0l217 1118h357l-90 -461l202 461h369l-283 -590l58 -528h-357l-34 424l-82 -424h-357zM436 1165l193 265l301 -76l-289 -189h-205z" />
    <glyph glyph-name="uni045D" unicode="&#x45d;" horiz-adv-x="892" 
d="M621 1118h344l-217 -1118h-336l86 446l-228 -446h-342l217 1118h336l-86 -448zM477 1165l-215 189l322 76l90 -265h-197z" />
    <glyph glyph-name="uni045E" unicode="&#x45e;" horiz-adv-x="827" 
d="M127 14l-33 1104h350l-32 -579l186 579h358l-596 -1384h-356v2zM535 1157q-257 0 -234 244h182q3 -80 74 -80t98 80h187q-73 -244 -307 -244z" />
    <glyph glyph-name="uni045F" unicode="&#x45f;" horiz-adv-x="888" 
d="M-72 0l217 1118h357l-152 -782h103l151 782h357l-218 -1118h-251l-39 -207h-316l41 207h-250z" />
    <glyph glyph-name="uni0462" unicode="&#x462;" horiz-adv-x="1042" 
d="M883 1010h-236l-26 -131q209 -9 307 -107q94 -94 94 -252q0 -233 -150 -383q-137 -137 -411 -137h-365l193 997h-185l62 324h186l29 143h356l-28 -143h233zM662 494q0 50 -23 73q-21 21 -64 21h-8l-57 -293h12q53 0 84 31q27 27 41.5 74.5t14.5 93.5z" />
    <glyph glyph-name="uni0463" unicode="&#x463;" horiz-adv-x="989" 
d="M901 1118l-55 -280h-248l-20 -113h8q170 0 268 -75.5t98 -225.5q0 -202 -131 -313t-364 -111h-373l160 831h-174l57 287h172l68 346h352l-68 -346h250zM612 397q0 72 -82 72h-2l-43 -213h23q49 0 76.5 39.5t27.5 101.5z" />
    <glyph glyph-name="uni0472" unicode="&#x472;" horiz-adv-x="966" 
d="M616 1464q176 0 280.5 -112t104.5 -336q0 -93 -16 -213t-47.5 -253.5t-89.5 -258t-131 -197.5q-125 -125 -305 -125q-176 0 -280.5 112.5t-104.5 336.5q0 93 16 213t47.5 253.5t89.5 257.5t131 197q125 125 305 125zM485 311q45 45 99 258h-199q-20 -117 -20 -190
q0 -90 67 -90q31 0 53 22zM596 1145q-30 0 -53 -23q-44 -44 -97 -250h199q19 109 19 183q0 90 -68 90z" />
    <glyph glyph-name="uni0473" unicode="&#x473;" horiz-adv-x="858" 
d="M348 -27q-118 0 -198 53t-115 139t-35 200q0 102 22.5 221.5t74 243t122.5 194.5q118 121 291 121q118 0 198 -52.5t115 -138.5t35 -200q0 -102 -22.5 -221.5t-74 -243.5t-122.5 -195q-118 -121 -291 -121zM377 264q24 0 41 17q9 9 17 24t18 44.5t14.5 45.5t17.5 60h-153
q-10 -85 -10 -111v-2q0 -41 13.5 -60.5t41.5 -17.5zM440 838q-34 -34 -65 -162h151q11 86 11 98v2q0 41 -14 60.5t-42 17.5q-25 0 -41 -16z" />
    <glyph glyph-name="uni0474" unicode="&#x474;" horiz-adv-x="972" 
d="M145 -2l9 1436h366l-49 -783l141 420q36 108 71.5 174.5t88 112t121 63t170.5 17.5h70l-66 -340h-8q-58 0 -83.5 -23t-57.5 -106l-379 -971h-394z" />
    <glyph glyph-name="uni0475" unicode="&#x475;" horiz-adv-x="882" 
d="M487 -4h-364l-31 1122h357l-41 -583l98 284q43 123 96 190.5t116 91t159 23.5q51 0 104 -6l-57 -301h-9q-51 0 -77.5 -20t-51.5 -84z" />
    <glyph glyph-name="uni0490" unicode="&#x490;" horiz-adv-x="702" 
d="M788 1087h-282l-211 -1087h-365l279 1434h323l43 223h324z" />
    <glyph glyph-name="uni0491" unicode="&#x491;" horiz-adv-x="622" 
d="M756 1315l-105 -533h-215l-151 -782h-357l217 1118h269l39 197h303z" />
    <glyph glyph-name="uni0492" unicode="&#x492;" horiz-adv-x="743" 
d="M-29 0l97 496h-68l49 252h68l133 686h647l-68 -347h-282l-66 -339h127l-49 -252h-127l-96 -496h-365z" />
    <glyph glyph-name="uni0493" unicode="&#x493;" horiz-adv-x="659" 
d="M-35 0l70 362h-66l41 207h66l106 549h572l-66 -336h-215l-41 -213h100l-40 -207h-101l-69 -362h-357z" />
    <glyph glyph-name="uni0496" unicode="&#x496;" horiz-adv-x="1439" 
d="M1036 1434l-125 -605l258 605h377l-344 -746l31 -340h151l-112 -579h-328l45 231h-88l-37 586l-106 -586h-361l119 584l-258 -584h-377l348 741l-53 693h363l26 -607l111 607h360z" />
    <glyph glyph-name="uni0497" unicode="&#x497;" horiz-adv-x="1312" 
d="M926 1118l-101 -479l205 479h365l-275 -592l19 -198h114l-104 -535h-315l40 207h-57l-31 440l-79 -440h-349l93 440l-203 -440h-363l277 573l-41 545h352l16 -477l89 477h348z" />
    <glyph glyph-name="uni0498" unicode="&#x498;" horiz-adv-x="774" 
d="M61 -231l48 219q-101 18 -185 65l68 342q130 -78 235 -78q71 0 109.5 38t38.5 100q0 57 -37.5 82.5t-124.5 25.5h-90l61 316h113q186 0 186 133q0 104 -137 104q-101 0 -219 -47l70 350q131 41 252 41q189 0 292 -92.5t103 -263.5q0 -294 -264 -410q76 -45 112.5 -110
t36.5 -162q0 -150 -79 -268t-230 -160l-39 -225h-320z" />
    <glyph glyph-name="uni0499" unicode="&#x499;" horiz-adv-x="692" 
d="M41 -207l41 193q-83 12 -160 47l60 305q109 -68 217 -68q51 0 79.5 22.5t28.5 63.5q0 37 -29.5 53.5t-101.5 16.5h-117l54 270h153q60 0 90.5 21.5t30.5 58.5q0 70 -115 70q-106 0 -196 -35l59 305q108 27 213 27q189 0 283 -78.5t94 -212.5q0 -224 -215 -307
q121 -76 121 -226q0 -125 -64.5 -210t-191.5 -117l-31 -199h-303z" />
    <glyph glyph-name="uni049A" unicode="&#x49a;" horiz-adv-x="987" 
d="M-70 0l279 1434h364l-116 -603l250 603h380l-333 -748l24 -338h154l-113 -579h-327l45 231h-99l-26 600l-117 -600h-365z" />
    <glyph glyph-name="uni049B" unicode="&#x49b;" horiz-adv-x="909" 
d="M-72 0l217 1118h357l-90 -461l202 461h369l-283 -590l23 -200h127l-105 -535h-315l41 207h-70l-34 424l-82 -424h-357z" />
    <glyph glyph-name="uni049C" unicode="&#x49c;" horiz-adv-x="1017" 
d="M913 0h-340l-24 557h-4l-53 -348h-115l72 348h-60l-108 -557h-351l279 1434h350l-106 -549h59l72 391h114l-92 -391h6l232 549h344l-330 -746z" />
    <glyph glyph-name="uni049D" unicode="&#x49d;" horiz-adv-x="933" 
d="M825 0h-321l-25 420h-4l-39 -275h-110l55 275h-41l-82 -420h-330l217 1118h330l-80 -409h43l49 268h111l-66 -268h5l170 409h337l-262 -586z" />
    <glyph glyph-name="uni04A0" unicode="&#x4a0;" horiz-adv-x="1087" 
d="M100 0l211 1090h-190l67 344h555l-116 -603l250 603h380l-333 -748l49 -686h-365l-26 600l-117 -600h-365z" />
    <glyph glyph-name="uni04A1" unicode="&#x4a1;" horiz-adv-x="1026" 
d="M82 0l151 786h-172l66 332h528l-90 -461l203 461h369l-283 -590l57 -528h-356l-35 424l-82 -424h-356z" />
    <glyph glyph-name="uni04A2" unicode="&#x4a2;" horiz-adv-x="1048" 
d="M-70 0l279 1434h364l-104 -539h152l104 539h365l-211 -1086h114l-112 -579h-328l45 231h-152l107 547h-152l-106 -547h-365z" />
    <glyph glyph-name="uni04A3" unicode="&#x4a3;" horiz-adv-x="974" 
d="M961 1118l-154 -790h108l-104 -535h-315l41 207h-150l76 397h-103l-75 -397h-357l217 1118h357l-76 -385h102l76 385h357z" />
    <glyph glyph-name="uni04A4" unicode="&#x4a4;" horiz-adv-x="1185" 
d="M442 0l107 547h-148l-106 -547h-365l279 1434h364l-104 -539h147l105 539h616l-67 -347h-252l-211 -1087h-365z" />
    <glyph glyph-name="uni04A5" unicode="&#x4a5;" horiz-adv-x="1044" 
d="M383 0l76 397h-101l-75 -397h-355l217 1118h355l-76 -385h100l76 385h539l-66 -336h-184l-152 -782h-354z" />
    <glyph glyph-name="uni04AA" unicode="&#x4aa;" horiz-adv-x="796" 
d="M141 -231l62 286q-174 125 -174 430q0 221 74.5 456t207.5 368q145 145 355 145q151 0 258 -63l-72 -355q-94 70 -176 70q-66 0 -113 -47q-72 -72 -119 -244t-47 -303q0 -104 41 -148.5t115 -44.5q75 0 176 41l-67 -335q-66 -32 -164 -43l-37 -213h-320z" />
    <glyph glyph-name="uni04AB" unicode="&#x4ab;" horiz-adv-x="679" 
d="M86 -207l53 250q-139 103 -139 334q0 98 19 207t69.5 231t124.5 199q122 125 301 125q62 0 129.5 -18.5t112.5 -43.5l-66 -329q-72 55 -139 55q-55 0 -92 -37q-48 -48 -72.5 -145t-24.5 -175q0 -76 28 -109.5t87 -33.5q68 0 135 33l-63 -326q-69 -22 -129 -28l-31 -189
h-303z" />
    <glyph glyph-name="uni04AE" unicode="&#x4ae;" horiz-adv-x="892" 
d="M154 0l98 502l-98 932h362l6 -473l187 473h366l-459 -932l-98 -502h-364z" />
    <glyph glyph-name="uni04AF" unicode="&#x4af;" horiz-adv-x="835" 
d="M436 -266h-356l53 274l-41 1110h357l-39 -586l186 586h365l-474 -1118z" />
    <glyph glyph-name="uni04B0" unicode="&#x4b0;" horiz-adv-x="892" 
d="M154 0l59 301h-147l47 252h133l-92 881h362l6 -473l187 473h366l-434 -881h131l-47 -252h-147l-60 -301h-364z" />
    <glyph glyph-name="uni04B1" unicode="&#x4b1;" horiz-adv-x="835" 
d="M961 1118l-388 -911h115l-41 -207h-160l-51 -266h-356l51 266h-160l41 207h113l-33 911h357l-39 -586l186 586h365z" />
    <glyph glyph-name="uni04B2" unicode="&#x4b2;" horiz-adv-x="942" 
d="M-117 0l365 754l-78 680h362l7 -371l145 371h360l-352 -729l41 -357h154l-113 -579h-328l46 231h-80l-9 408l-159 -408h-361z" />
    <glyph glyph-name="uni04B3" unicode="&#x4b3;" horiz-adv-x="890" 
d="M451 1118l20 -270l121 270h360l-325 -571l45 -219h159l-104 -535h-315l41 207h-60l-22 293l-131 -293h-361l334 586l-111 532h349z" />
    <glyph glyph-name="uni04B6" unicode="&#x4b6;" horiz-adv-x="1038" 
d="M436 0l84 432h-47q-387 0 -387 311q0 87 35 252l84 439h364l-98 -508q-10 -51 -10 -76q0 -36 21.5 -51t74.5 -15h31l127 650h364l-211 -1086h115l-113 -579h-327l45 231h-152z" />
    <glyph glyph-name="uni04B7" unicode="&#x4b7;" horiz-adv-x="960" 
d="M946 1118l-153 -790h108l-104 -535h-316l41 207h-149l61 315q-23 -2 -59 -2q-326 0 -326 265q0 65 29 217l63 323h357l-76 -385q-6 -30 -6 -47q0 -41 57 -41h25l92 473h356z" />
    <glyph glyph-name="uni04B8" unicode="&#x4b8;" horiz-adv-x="995" 
d="M551 1153h119l-80 -383q13 0 59 4l129 660h348l-278 -1434h-348l86 436q-46 -4 -62 -4l-45 -260h-119l56 262q-155 14 -241.5 97t-86.5 223q0 88 33 241l84 439h348l-100 -516q-11 -59 -11 -80q0 -47 41 -62z" />
    <glyph glyph-name="uni04B9" unicode="&#x4b9;" horiz-adv-x="917" 
d="M582 924l-62 -299q17 0 45 4l94 489h330l-217 -1118h-330l62 317l-43 -4l-33 -180h-106l36 180q-156 8 -232.5 73.5t-76.5 193.5q0 63 29 215l63 323h330l-76 -397q-6 -35 -6 -47q0 -36 31 -45l55 295h107z" />
    <glyph glyph-name="uni04BA" unicode="&#x4ba;" horiz-adv-x="946" 
d="M571 1434l-84 -433h48q387 0 387 -311q0 -77 -35 -252l-84 -438h-365l99 508q10 51 10 76q0 36 -21.5 50.5t-74.5 14.5h-31l-127 -649h-365l279 1434h364z" />
    <glyph glyph-name="uni04BB" unicode="&#x4bb;" horiz-adv-x="868" 
d="M-72 0l285 1464h356l-92 -473q51 67 108.5 107.5t133.5 40.5q93 0 139.5 -52.5t46.5 -136.5q0 -45 -10 -100l-166 -850h-356l143 727q8 31 8 53q0 39 -37 39q-44 0 -53 -57l-149 -762h-357z" />
    <glyph glyph-name="uni04C0" unicode="&#x4c0;" horiz-adv-x="450" 
d="M-66 0l279 1434h365l-279 -1434h-365z" />
    <glyph glyph-name="uni04C1" unicode="&#x4c1;" horiz-adv-x="1376" 
d="M1036 1434l-125 -605l258 605h377l-344 -746l62 -688h-363l-37 586l-106 -586h-361l119 584l-258 -584h-377l348 741l-53 693h363l26 -607l111 607h360zM866 1473q-117 0 -178.5 52.5t-44.5 160.5h182q3 -54 68 -54q60 0 88 54h186q-58 -213 -301 -213z" />
    <glyph glyph-name="uni04C2" unicode="&#x4c2;" horiz-adv-x="1284" 
d="M926 1118l-101 -479l205 479h365l-275 -592l49 -526h-352l-31 440l-79 -440h-349l93 440l-203 -440h-363l277 573l-41 545h352l16 -477l89 477h348zM762 1161q-257 0 -234 244h183q3 -80 73 -80q72 0 99 80h186q-73 -244 -307 -244z" />
    <glyph glyph-name="uni04CF" unicode="&#x4cf;" horiz-adv-x="438" 
d="M-68 0l285 1464h356l-284 -1464h-357z" />
    <glyph glyph-name="uni04D0" unicode="&#x4d0;" horiz-adv-x="950" 
d="M-125 0l551 1436h438l-6 -1436h-356l12 231h-201l-77 -231h-361zM412 528h118l25 428zM655 1489q-117 0 -178.5 52.5t-44.5 160.5h182q3 -53 68 -53q61 0 88 53h186q-58 -213 -301 -213z" />
    <glyph glyph-name="uni04D1" unicode="&#x4d1;" horiz-adv-x="823" 
d="M147 -20q-92 0 -140 59t-48 172q0 111 36 228t101 182q75 75 189 75q52 0 89 -11.5t83 -37.5l4 19q6 18 6 53q0 100 -139 100q-103 0 -219 -53l63 330q147 43 293 43q169 0 267.5 -79.5t98.5 -240.5q0 -61 -16 -149l-131 -670h-354l14 76q-45 -48 -90 -72t-107 -24z
M319 211q22 0 41 19.5t29 62.5l31 160q-27 18 -53 18q-21 0 -37 -16q-22 -22 -38 -83.5t-16 -99.5q0 -61 43 -61zM526 1178q-256 0 -233 243h182q3 -80 74 -80t98 80h187q-73 -243 -308 -243z" />
    <glyph glyph-name="uni04D2" unicode="&#x4d2;" horiz-adv-x="950" 
d="M-125 0l551 1436h438l-6 -1436h-356l12 231h-201l-77 -231h-361zM412 528h118l25 428zM377 1493l43 231h256l-43 -231h-256zM686 1493l43 231h256l-43 -231h-256z" />
    <glyph glyph-name="uni04D3" unicode="&#x4d3;" horiz-adv-x="823" 
d="M147 -20q-92 0 -140 59t-48 172q0 111 36 228t101 182q75 75 189 75q52 0 89 -11.5t83 -37.5l4 19q6 18 6 53q0 100 -139 100q-103 0 -219 -53l63 330q147 43 293 43q169 0 267.5 -79.5t98.5 -240.5q0 -61 -16 -149l-131 -670h-354l14 76q-45 -48 -90 -72t-107 -24z
M319 211q22 0 41 19.5t29 62.5l31 160q-27 18 -53 18q-21 0 -37 -16q-22 -22 -38 -83.5t-16 -99.5q0 -61 43 -61zM252 1182l47 252h248l-47 -252h-248zM549 1182l47 252h248l-47 -252h-248z" />
    <glyph glyph-name="uni04D4" unicode="&#x4d4;" horiz-adv-x="1267" 
d="M-135 0l588 1434h952l-68 -347h-329l-39 -198h295l-66 -336h-295l-39 -207h336l-67 -346h-701l45 231h-172l-86 -231h-354zM406 528h129l108 564h-25z" />
    <glyph glyph-name="uni04D5" unicode="&#x4d5;" horiz-adv-x="1245" 
d="M180 -20q-102 0 -161.5 59.5t-59.5 167.5q0 114 36 231.5t101 182.5q75 75 189 75q52 0 89 -11.5t83 -37.5l4 19q6 18 6 53q0 100 -139 100q-103 0 -219 -53l63 330q147 43 293 43q173 0 260 -90q101 96 240 96q137 0 209.5 -98t72.5 -289q0 -130 -53 -344h-451v-4
q0 -71 39 -101t123 -30q117 0 234 57l-41 -305q-135 -58 -295 -58q-239 0 -334 154q-123 -147 -289 -147zM326 225q24 0 49 21t43 53q-6 73 6 162q-30 18 -57 18q-21 0 -37 -16q-21 -21 -37.5 -80.5t-16.5 -95.5q0 -62 50 -62zM846 823q-35 -35 -68 -190h131q19 100 19 139
q0 40 -10.5 54t-34.5 14q-20 0 -37 -17z" />
    <glyph glyph-name="uni04D6" unicode="&#x4d6;" horiz-adv-x="765" 
d="M-70 0l279 1434h694l-67 -347h-330l-39 -198h295l-66 -336h-295l-39 -207h336l-67 -346h-701zM567 1473q-117 0 -178.5 52.5t-44.5 160.5h182q3 -54 68 -54q60 0 88 54h186q-58 -213 -301 -213z" />
    <glyph glyph-name="uni04D7" unicode="&#x4d7;" horiz-adv-x="843" 
d="M793 414h-451v-4q0 -71 39 -101t123 -30q116 0 233 57l-41 -305q-135 -58 -288 -58q-404 0 -404 414q0 94 20.5 204.5t72 232t124.5 194.5q127 127 295 127q156 0 243 -98t87 -287q0 -132 -53 -346zM444 823q-33 -33 -67 -190h131q18 95 18 139q0 40 -10.5 54t-34.5 14
q-20 0 -37 -17zM543 1178q-257 0 -234 243h183q3 -80 73 -80q72 0 99 80h186q-73 -243 -307 -243z" />
    <glyph glyph-name="uni04D8" unicode="&#x4d8;" horiz-adv-x="923" 
d="M23 418q0 166 63 452h508q0 8 1 20t1 17q0 100 -39.5 147.5t-128.5 47.5q-112 0 -270 -68l49 359q150 61 303 61q218 0 327 -135.5t109 -382.5q0 -246 -76.5 -480.5t-199.5 -357.5q-127 -127 -293 -127q-178 0 -266 118.5t-88 328.5zM444 330q48 48 105 270h-174
q-25 -137 -25 -203q0 -86 53 -86q22 0 41 19z" />
    <glyph glyph-name="uni04D9" unicode="&#x4d9;" horiz-adv-x="843" 
d="M-2 358q0 133 53 347h451v4q0 71 -39 101t-123 30q-115 0 -234 -58l41 305q135 58 289 58q404 0 404 -414q0 -94 -20.5 -204.5t-72 -232t-124.5 -194.5q-127 -127 -295 -127q-156 0 -243 98t-87 287zM399 295q37 37 66 190h-129q-19 -100 -19 -139q0 -40 10 -53.5
t35 -13.5q21 0 37 16z" />
    <glyph glyph-name="uni04DC" unicode="&#x4dc;" horiz-adv-x="1376" 
d="M1036 1434l-125 -605l258 605h377l-344 -746l62 -688h-363l-37 586l-106 -586h-361l119 584l-258 -584h-377l348 741l-53 693h363l26 -607l111 607h360zM586 1477l43 231h256l-43 -231h-256zM895 1477l43 231h256l-43 -231h-256z" />
    <glyph glyph-name="uni04DD" unicode="&#x4dd;" horiz-adv-x="1284" 
d="M926 1118l-101 -479l205 479h365l-275 -592l49 -526h-352l-31 440l-79 -440h-349l93 440l-203 -440h-363l277 573l-41 545h352l16 -477l89 477h348zM485 1165l47 252h248l-47 -252h-248zM782 1165l47 252h248l-47 -252h-248z" />
    <glyph glyph-name="uni04DE" unicode="&#x4de;" horiz-adv-x="774" 
d="M127 1069l70 350q131 41 252 41q189 0 292 -92.5t103 -263.5q0 -294 -264 -410q76 -45 112.5 -110t36.5 -162q0 -88 -28.5 -167t-83.5 -143t-145.5 -101.5t-205.5 -37.5q-201 0 -342 80l68 342q130 -78 235 -78q71 0 109.5 38t38.5 100q0 57 -37.5 82.5t-124.5 25.5h-90
l61 316h113q186 0 186 133q0 104 -137 104q-101 0 -219 -47zM262 1493l43 231h256l-43 -231h-256zM571 1493l43 231h256l-43 -231h-256z" />
    <glyph glyph-name="uni04DF" unicode="&#x4df;" horiz-adv-x="692" 
d="M221 -27q-171 0 -299 60l60 305q109 -68 217 -68q51 0 79.5 22.5t28.5 63.5q0 37 -29.5 53.5t-101.5 16.5h-117l54 270h153q60 0 90.5 21.5t30.5 58.5q0 70 -115 70q-106 0 -196 -35l59 305q108 27 213 27q189 0 283 -78.5t94 -212.5q0 -224 -215 -307q121 -76 121 -226
q0 -159 -105.5 -252.5t-304.5 -93.5zM178 1182l47 252h248l-47 -252h-248zM475 1182l47 252h248l-47 -252h-248z" />
    <glyph glyph-name="uni04E2" unicode="&#x4e2;" horiz-adv-x="976" 
d="M729 1434h379l-279 -1434h-352l123 637l-307 -637h-363l279 1434h352l-117 -605zM387 1481l43 215h565l-43 -215h-565z" />
    <glyph glyph-name="uni04E3" unicode="&#x4e3;" horiz-adv-x="892" 
d="M621 1118h344l-217 -1118h-336l86 446l-228 -446h-342l217 1118h336l-86 -448zM297 1169l43 211h541l-43 -211h-541z" />
    <glyph glyph-name="uni04E4" unicode="&#x4e4;" horiz-adv-x="976" 
d="M729 1434h379l-279 -1434h-352l123 637l-307 -637h-363l279 1434h352l-117 -605zM387 1477l43 231h256l-43 -231h-256zM696 1477l43 231h256l-43 -231h-256z" />
    <glyph glyph-name="uni04E5" unicode="&#x4e5;" horiz-adv-x="892" 
d="M621 1118h344l-217 -1118h-336l86 446l-228 -446h-342l217 1118h336l-86 -448zM295 1165l47 252h248l-47 -252h-248zM592 1165l47 252h248l-47 -252h-248z" />
    <glyph glyph-name="uni04E6" unicode="&#x4e6;" horiz-adv-x="978" 
d="M623 1464q178 0 285.5 -114.5t107.5 -333.5q0 -92 -17 -213.5t-49.5 -254.5t-90 -256t-128.5 -194q-129 -129 -313 -129q-177 0 -285 114.5t-108 334.5q0 92 17 213.5t49 254t89.5 255.5t128.5 194q129 129 314 129zM442 301q27 0 50 23q49 49 108 328t59 395
q0 86 -61 86q-26 0 -49 -23q-49 -49 -108.5 -328.5t-59.5 -394.5q0 -86 61 -86zM387 1493l43 231h256l-43 -231h-256zM696 1493l43 231h256l-43 -231h-256z" />
    <glyph glyph-name="uni04E7" unicode="&#x4e7;" horiz-adv-x="870" 
d="M354 -27q-175 0 -264.5 109t-89.5 283q0 162 57.5 357.5t157.5 295.5q127 127 301 127q175 0 264.5 -108.5t89.5 -282.5q0 -163 -57.5 -358.5t-157.5 -295.5q-127 -127 -301 -127zM385 281q17 0 31 14q33 33 72.5 224.5t39.5 254.5q0 64 -43 64q-15 0 -30 -15
q-33 -33 -73 -224.5t-40 -254.5t43 -63zM289 1182l47 252h248l-47 -252h-248zM586 1182l47 252h248l-47 -252h-248z" />
    <glyph glyph-name="uni04E8" unicode="&#x4e8;" horiz-adv-x="966" 
d="M616 1464q176 0 280.5 -112t104.5 -336q0 -93 -16 -213t-47.5 -253.5t-89.5 -258t-131 -197.5q-125 -125 -305 -125q-176 0 -280.5 112.5t-104.5 336.5q0 93 16 213t47.5 253.5t89.5 257.5t131 197q125 125 305 125zM485 311q45 45 99 258h-199q-20 -117 -20 -190
q0 -90 67 -90q31 0 53 22zM596 1145q-30 0 -53 -23q-44 -44 -97 -250h199q19 109 19 183q0 90 -68 90z" />
    <glyph glyph-name="uni04E9" unicode="&#x4e9;" horiz-adv-x="858" 
d="M348 -27q-118 0 -198 53t-115 139t-35 200q0 102 22.5 221.5t74 243t122.5 194.5q118 121 291 121q118 0 198 -52.5t115 -138.5t35 -200q0 -102 -22.5 -221.5t-74 -243.5t-122.5 -195q-118 -121 -291 -121zM377 264q24 0 41 17q9 9 17 24t18 44.5t14.5 45.5t17.5 60h-153
q-10 -85 -10 -111v-2q0 -41 13.5 -60.5t41.5 -17.5zM440 838q-34 -34 -65 -162h151q11 86 11 98v2q0 41 -14 60.5t-42 17.5q-25 0 -41 -16z" />
    <glyph glyph-name="uni04EE" unicode="&#x4ee;" horiz-adv-x="917" 
d="M1106 1434l-664 -1434h-372l180 377l-92 1057h356l14 -521l205 521h373zM352 1481l43 215h566l-43 -215h-566z" />
    <glyph glyph-name="uni04EF" unicode="&#x4ef;" horiz-adv-x="827" 
d="M127 14l-33 1104h350l-32 -579l186 579h358l-596 -1384h-356v2zM260 1169l43 211h541l-43 -211h-541z" />
    <glyph glyph-name="uni04F0" unicode="&#x4f0;" horiz-adv-x="917" 
d="M1106 1434l-664 -1434h-372l180 377l-92 1057h356l14 -521l205 521h373zM352 1477l43 231h256l-43 -231h-256zM662 1477l43 231h256l-43 -231h-256z" />
    <glyph glyph-name="uni04F1" unicode="&#x4f1;" horiz-adv-x="827" 
d="M127 14l-33 1104h350l-32 -579l186 579h358l-596 -1384h-356v2zM260 1165l47 252h248l-47 -252h-248zM557 1165l47 252h248l-47 -252h-248z" />
    <glyph glyph-name="uni04F2" unicode="&#x4f2;" horiz-adv-x="917" 
d="M1106 1434l-664 -1434h-372l180 377l-92 1057h356l14 -521l205 521h373zM662 1477l86 120l-173 -120h-215l162 223l264 -49l37 49l295 -55l-241 -168h-215z" />
    <glyph glyph-name="uni04F3" unicode="&#x4f3;" horiz-adv-x="827" 
d="M127 14l-33 1104h350l-32 -579l186 579h358l-596 -1384h-356v2zM541 1165l92 127l-174 -127h-174l192 265l213 -58l43 58l252 -68l-270 -197h-174z" />
    <glyph glyph-name="uni04F4" unicode="&#x4f4;" horiz-adv-x="948" 
d="M436 0l84 432h-47q-387 0 -387 311q0 87 35 252l84 439h364l-98 -508q-10 -51 -10 -76q0 -36 21.5 -51t74.5 -15h31l127 650h364l-278 -1434h-365zM371 1477l43 231h256l-43 -231h-256zM680 1477l43 231h256l-43 -231h-256z" />
    <glyph glyph-name="uni04F5" unicode="&#x4f5;" horiz-adv-x="874" 
d="M946 1118l-217 -1118h-356l61 315q-23 -2 -59 -2q-326 0 -326 265q0 65 29 217l63 323h357l-76 -385q-6 -30 -6 -47q0 -41 57 -41h25l92 473h356zM283 1165l47 252h248l-48 -252h-247zM580 1165l47 252h247l-47 -252h-247z" />
    <glyph glyph-name="uni04F8" unicode="&#x4f8;" horiz-adv-x="1327" 
d="M-70 0l279 1434h360l-86 -435q188 -15 293 -112q103 -103 103 -275q0 -131 -44.5 -256t-121.5 -202q-154 -154 -420 -154h-363zM815 0l279 1434h364l-278 -1434h-365zM520 573q0 69 -28 97q-22 22 -62 22h-4l-76 -383h8q58 0 95 37q32 32 49.5 100.5t17.5 126.5z
M561 1477l43 231h256l-43 -231h-256zM870 1477l43 231h256l-43 -231h-256z" />
    <glyph glyph-name="uni04F9" unicode="&#x4f9;" horiz-adv-x="1263" 
d="M811 496q0 -39 -4.5 -77.5t-18 -89.5t-36 -95t-63 -88t-94 -75.5t-133 -51t-175.5 -19.5h-359l217 1118h353l-56 -282q181 -5 275 -90t94 -250zM762 0l217 1118h356l-217 -1118h-356zM467 479q0 86 -70 86h-6l-57 -295h14q38 0 64 26.5t36.5 67t14.5 68t4 47.5zM477 1165
l47 252h248l-47 -252h-248zM774 1165l47 252h248l-47 -252h-248z" />
    <glyph glyph-name="Wgrave" unicode="&#x1e80;" horiz-adv-x="1368" 
d="M109 -2l51 1436h379l-76 -770l242 770h296l-57 -770l223 770h381l-506 -1436h-376l26 592l-203 -592h-380zM733 1477l-198 157l360 66l76 -223h-238z" />
    <glyph glyph-name="wgrave" unicode="&#x1e81;" horiz-adv-x="1171" 
d="M90 -4l8 1122h348l-43 -522l154 522h270l-47 -522l158 522h352l-426 -1122h-307v448l-156 -448h-311zM614 1165l-215 189l322 76l90 -265h-197z" />
    <glyph glyph-name="Wacute" unicode="&#x1e82;" horiz-adv-x="1368" 
d="M109 -2l51 1436h379l-76 -770l242 770h296l-57 -770l223 770h381l-506 -1436h-376l26 592l-203 -592h-380zM731 1477l162 223l346 -66l-260 -157h-248z" />
    <glyph glyph-name="wacute" unicode="&#x1e83;" horiz-adv-x="1171" 
d="M90 -4l8 1122h348l-43 -522l154 522h270l-47 -522l158 522h352l-426 -1122h-307v448l-156 -448h-311zM578 1165l192 265l301 -76l-289 -189h-204z" />
    <glyph glyph-name="Wdieresis" unicode="&#x1e84;" horiz-adv-x="1368" 
d="M109 -2l51 1436h379l-76 -770l242 770h296l-57 -770l223 770h381l-506 -1436h-376l26 592l-203 -592h-380zM582 1477l43 231h256l-43 -231h-256zM891 1477l43 231h256l-43 -231h-256z" />
    <glyph glyph-name="wdieresis" unicode="&#x1e85;" horiz-adv-x="1171" 
d="M90 -4l8 1122h348l-43 -522l154 522h270l-47 -522l158 522h352l-426 -1122h-307v448l-156 -448h-311zM432 1165l47 252h248l-47 -252h-248zM729 1165l47 252h248l-47 -252h-248z" />
    <glyph glyph-name="Ygrave" unicode="&#x1ef2;" horiz-adv-x="892" 
d="M154 0l98 502l-98 932h362l6 -473l187 473h366l-459 -932l-98 -502h-364zM494 1477l-199 157l360 66l76 -223h-237z" />
    <glyph glyph-name="ygrave" unicode="&#x1ef3;" horiz-adv-x="827" 
d="M127 14l-33 1104h350l-32 -579l186 579h358l-596 -1384h-356v2zM442 1165l-215 189l322 76l90 -265h-197z" />
    <glyph glyph-name="enspace" unicode="&#x2002;" 
 />
    <glyph glyph-name="emspace" unicode="&#x2003;" horiz-adv-x="2048" 
 />
    <glyph glyph-name="threeperemspace" unicode="&#x2004;" horiz-adv-x="681" 
 />
    <glyph glyph-name="fourperemspace" unicode="&#x2005;" horiz-adv-x="512" 
 />
    <glyph glyph-name="thinspace" unicode="&#x2009;" horiz-adv-x="272" 
 />
    <glyph glyph-name="hairspace" unicode="&#x200a;" horiz-adv-x="153" 
 />
    <glyph glyph-name="endash" unicode="&#x2013;" horiz-adv-x="894" 
d="M14 485l62 320h839l-61 -320h-840z" />
    <glyph glyph-name="emdash" unicode="&#x2014;" horiz-adv-x="1366" 
d="M14 485l62 320h1310l-61 -320h-1311z" />
    <glyph glyph-name="quoteleft" unicode="&#x2018;" horiz-adv-x="434" 
d="M76 793l65 337q58 297 412 314l6 -135q-188 -24 -225 -140h188l-73 -376h-373z" />
    <glyph glyph-name="quoteright" unicode="&#x2019;" horiz-adv-x="434" 
d="M96 782l-6 136q188 24 225 139h-188l74 377h372l-65 -338q-58 -297 -412 -314z" />
    <glyph glyph-name="quotesinglbase" unicode="&#x201a;" horiz-adv-x="434" 
d="M-109 -274l-6 135q101 13 154.5 48t71.5 91h-189l74 377h373l-66 -338q-58 -296 -412 -313z" />
    <glyph glyph-name="quotedblleft" unicode="&#x201c;" horiz-adv-x="829" 
d="M76 793l65 337q58 285 394 314l6 -135q-169 -32 -207 -140h170l-74 -376h-354zM489 793l66 337q58 286 393 314l6 -135q-168 -32 -206 -140h170l-74 -376h-355z" />
    <glyph glyph-name="quotedblright" unicode="&#x201d;" horiz-adv-x="829" 
d="M96 782l-6 136q170 32 207 139h-170l74 377h354l-66 -338q-58 -286 -393 -314zM510 782l-6 136q170 32 207 139h-170l73 377h355l-66 -338q-58 -286 -393 -314z" />
    <glyph glyph-name="quotedblbase" unicode="&#x201e;" horiz-adv-x="829" 
d="M-109 -274l-6 135q170 32 207 139h-170l74 377h354l-65 -338q-58 -284 -394 -313zM305 -274l-6 135q170 32 207 139h-170l74 377h354l-66 -338q-58 -284 -393 -313z" />
    <glyph glyph-name="dagger" unicode="&#x2020;" horiz-adv-x="573" 
d="M158 487l131 517l-166 -19l47 240l156 -19l8 228h246l-82 -228l164 19l-48 -240l-157 19l-70 -517h-229z" />
    <glyph glyph-name="daggerdbl" unicode="&#x2021;" horiz-adv-x="573" 
d="M55 0l82 227l-164 -18l47 240l162 -19l17 287l94 287l-170 -19l47 240l156 -19l8 228h246l-82 -228l164 19l-48 -240l-161 19l-17 -287l-94 -287l170 19l-47 -240l-156 18l-8 -227h-246z" />
    <glyph glyph-name="bullet" unicode="&#x2022;" horiz-adv-x="770" 
d="M471 1116q102 0 165.5 -64t63.5 -198q0 -111 -39.5 -241.5t-105.5 -196.5q-82 -82 -190 -82q-102 0 -166 64t-64 198q0 111 40 241.5t106 196.5q82 82 190 82z" />
    <glyph glyph-name="ellipsis" unicode="&#x2026;" horiz-adv-x="1302" 
d="M-78 0l74 377h373l-74 -377h-373zM356 0l74 377h373l-74 -377h-373zM791 0l73 377h373l-74 -377h-372z" />
    <glyph glyph-name="perthousand" unicode="&#x2030;" horiz-adv-x="1751" 
d="M78 0l497 750l429 684h192l-498 -750l-428 -684h-192zM311 612q-101 0 -157 63.5t-56 184.5q0 73 13.5 165t50 196.5t88.5 156.5q70 70 164 70q101 0 157 -63.5t56 -184.5q0 -73 -13.5 -165t-50 -196.5t-88.5 -156.5q-70 -70 -164 -70zM326 803q12 0 24 12q26 26 56 181
t30 214q0 47 -37 47q-12 0 -24 -12q-26 -26 -56 -181t-30 -214q0 -47 37 -47zM860 -14q-101 0 -157 63t-56 184q0 73 13.5 165t50 197t88.5 157q69 69 164 69q101 0 157 -63.5t56 -184.5q0 -73 -13.5 -165t-50 -196.5t-88.5 -156.5q-69 -69 -164 -69zM874 176q13 0 25 12
q26 26 56 181.5t30 214.5q0 47 -37 47q-11 0 -24 -13q-26 -26 -56 -181t-30 -214q0 -47 36 -47zM1397 -14q-101 0 -157 63t-56 184q0 124 38 284t113 235q69 69 164 69q101 0 157 -63.5t56 -184.5q0 -124 -38 -283.5t-113 -234.5q-69 -69 -164 -69zM1411 176q13 0 25 12
q26 26 56 181.5t30 214.5q0 47 -37 47q-12 0 -25 -13q-26 -26 -56 -181t-30 -214q0 -47 37 -47z" />
    <glyph glyph-name="guilsinglleft" unicode="&#x2039;" horiz-adv-x="475" 
d="M158 92l-146 432l13 70l313 432l194 -80l-225 -385l74 -389z" />
    <glyph glyph-name="guilsinglright" unicode="&#x203a;" horiz-adv-x="475" 
d="M317 1026l146 -432l-12 -70l-314 -432l-194 80l225 385l-74 389z" />
    <glyph glyph-name="Euro" unicode="&#x20ac;" horiz-adv-x="839" 
d="M53 764l45 235h88q73 198 185 310q145 145 340 145q150 0 256 -53l-72 -354q-87 65 -164 65q-72 0 -131 -59q-25 -25 -43 -60h213l-43 -229h-250l-16 -88h248l-45 -230h-220q27 -136 164 -133q64 0 164 43l-67 -331q-91 -45 -191 -45q-200 0 -310 116.5t-116 343.5h-98
l45 236h74l16 88h-72z" />
    <glyph glyph-name="hryvnia" unicode="&#x20b4;" horiz-adv-x="882" 
d="M807 473l-301 64q-71 -56 -97 -89.5t-24 -64.5q0 -72 109 -72q105 0 256 60l-68 -346q-129 -52 -264 -52q-195 0 -297.5 92.5t-102.5 264.5q0 152 103 291l-86 18l35 119l147 -33q23 23 64 55h2l45 35l-226 49l37 119l316 -68q54 43 78.5 74t23.5 64q0 69 -115 69
q-95 0 -211 -43l68 346q122 35 238 35q190 0 288.5 -96t98.5 -246q0 -147 -93 -284l82 -17l-36 -119l-136 29q-16 -16 -77 -68h-2l-29 -22l211 -45z" />
    <glyph glyph-name="numero" unicode="&#x2116;" horiz-adv-x="1472" 
d="M-70 0l279 1434h336l33 -584l110 584h322l-279 -1434h-321l-39 618l-119 -618h-322zM1200 569q-124 0 -183 76.5t-59 206.5q0 131 44 288.5t120 233.5q80 80 193 80q124 0 182.5 -77t58.5 -208q0 -133 -43.5 -288.5t-119.5 -231.5q-80 -80 -193 -80zM1221 807q10 0 18 8
q23 23 52.5 166t29.5 197q0 41 -27 41q-9 0 -18 -9q-23 -23 -52.5 -165.5t-29.5 -196.5q0 -41 27 -41zM856 283l45 235h516l-45 -235h-516z" />
    <glyph glyph-name="published" unicode="&#x2117;" horiz-adv-x="1019" 
d="M412 1151h174q132 0 204 -59t72 -179q0 -52 -10 -101.5t-35 -100t-63.5 -88t-100 -61t-139.5 -23.5h-4l-49 -248h-215zM647 895q0 68 -51 68h-4l-45 -236h8q30 0 51 21.5t28.5 55t10 54t2.5 37.5zM645 1464q179 0 289 -128t110 -357q0 -93 -16 -207t-46.5 -237
t-86 -237.5t-125.5 -184.5q-71 -71 -150 -107.5t-184 -36.5q-179 0 -289 128t-110 358q0 93 16 207t46.5 237t86 237.5t125.5 184.5t149.5 106.5t184.5 36.5zM440 41q86 0 152 29t129 92q78 78 137.5 238t85 310.5t25.5 264.5q0 197 -87 307.5t-241 110.5q-86 0 -152 -29
t-129 -92q-78 -78 -137 -238.5t-84.5 -311t-25.5 -263.5q0 -198 86.5 -308t240.5 -110z" />
    <glyph glyph-name="servicemark" unicode="&#x2120;" horiz-adv-x="894" 
d="M248 780q-102 0 -170 47l31 160q74 -51 131 -51q45 0 45 37q0 5 -0.5 9t-3 9l-4 8t-5.5 8.5t-6 8t-8.5 10t-9.5 10.5q-48 50 -73 93.5t-25 95.5q0 100 61 161q58 58 158 58q89 0 145 -37l-31 -160q-62 41 -114 41q-47 0 -47 -39q0 -16 7.5 -28t28.5 -35
q54 -57 77.5 -97.5t23.5 -95.5q0 -93 -64 -157q-56 -56 -147 -56zM451 788l124 646h152l39 -187l111 187h157l-125 -646h-159l59 302l-104 -177h-3l-36 177l-58 -302h-157z" />
    <glyph glyph-name="trademark" unicode="&#x2122;" horiz-adv-x="915" 
d="M156 788l92 480h-98l32 166h367l-33 -166h-98l-92 -480h-170zM455 788l125 646h159l43 -183l113 183h160l-125 -646h-162l57 295l-106 -165h-4l-41 165l-58 -295h-161z" />
    <glyph glyph-name="Omega" unicode="&#x2126;" horiz-adv-x="1011" 
d="M608 1128q-31 0 -53 -22q-58 -58 -94.5 -280t-36.5 -423q0 -42 2 -73l-64 -330h-438l68 346h174q-76 222 -76 397q0 397 189 586q135 135 356 135q108 0 189.5 -32t131.5 -90t74.5 -133.5t24.5 -166.5q0 -183 -76 -360.5t-207 -335.5h172l-67 -346h-445l64 330
q77 173 131.5 377t54.5 315q0 106 -74 106z" />
    <glyph glyph-name="Delta" unicode="&#x2206;" horiz-adv-x="976" 
d="M897 1436l16 -1125l-108 -311h-850l14 313l451 1123h477zM592 1063l-254 -721h229z" />
    <glyph glyph-name="minus" unicode="&#x2212;" horiz-adv-x="892" 
d="M41 561l61 320h811l-61 -320h-811z" />
    <glyph glyph-name="NUL" horiz-adv-x="0" 
 />
    <glyph glyph-name="CR" horiz-adv-x="286" 
 />
    <glyph glyph-name="Q.alt" horiz-adv-x="983" 
d="M623 1464q178 0 285.5 -114.5t107.5 -333.5q0 -153 -44 -364.5t-124 -372.5l72 -216l-281 -98l-18 60q-91 -52 -203 -52q-178 0 -285.5 112.5t-107.5 332.5q0 92 17 213.5t49 254t89.5 255.5t128.5 194q129 129 314 129zM442 293q32 0 58 26l-56 185l138 47
q31 130 54 281.5t23 214.5q0 86 -63 86q-24 0 -47 -23q-49 -49 -109.5 -332.5t-60.5 -398.5q0 -86 63 -86z" />
    <glyph glyph-name="a.alt" horiz-adv-x="897" 
d="M186 -20q-97 0 -145.5 69.5t-48.5 194.5q0 105 23 259t78 322.5t128 241.5q72 72 164 72q76 0 122.5 -36t78.5 -112l24 127h357l-217 -1118h-357l25 127q-57 -73 -112.5 -110t-119.5 -37zM399 293q17 0 31 14q29 29 67 215.5t38 245.5t-48 59q-16 0 -30 -14
q-29 -29 -67 -215.5t-38 -245.5t47 -59z" />
    <glyph glyph-name="uni039E.alt" horiz-adv-x="862" 
d="M860 881l-63 -320h-195l-45 -231h234l-64 -330h-809l64 330h233l45 231h-194l63 320h193l43 223h-226l64 330h796l-63 -330h-229l-43 -223h196z" />
    <glyph glyph-name="uni0424.bgr" horiz-adv-x="1404" 
d="M371 -199l39 201q-175 42 -270 179t-95 362q0 205 61.5 399.5t194.5 327.5q152 152 387 170l39 194h369l-41 -204q175 -42 270.5 -178t95.5 -361q0 -205 -61.5 -399.5t-194.5 -327.5q-155 -155 -389 -170l-37 -193h-368zM1061 897q0 178 -80 217l-154 -792q44 11 76 43
q71 71 114.5 234.5t43.5 297.5zM406 537q0 -183 77 -218l154 793q-46 -15 -74 -43q-72 -72 -114.5 -234.5t-42.5 -297.5z" />
    <glyph glyph-name="uni0432.bgr" horiz-adv-x="876" 
d="M385 -20q-186 0 -284.5 92t-98.5 256q0 90 25 215l92 475q44 231 157 344t308 113q175 0 271.5 -93t96.5 -245q0 -304 -270 -416q149 -85 149 -268q0 -96 -29.5 -180.5t-84 -150t-140.5 -104t-192 -38.5zM397 279q25 0 46 26t32.5 64t18 75t6.5 64q0 52 -24 73t-77 21
h-10l-37 -192q-8 -33 -8 -68q0 -63 53 -63zM475 1044l-37 -182h25q53 0 84 31q27 27 44 96.5t17 120.5q0 70 -53 70q-22 0 -39 -17q-24 -24 -41 -119z" />
    <glyph glyph-name="uni0433.bgr" horiz-adv-x="700" 
d="M309 319q0 -34 58 -34q86 0 251 65l-63 -332q-139 -45 -264 -45q-158 0 -241 79t-83 220q0 80 22 143.5t87.5 135t179.5 139.5q88 52 111.5 71.5t23.5 37.5q0 35 -57 35q-95 0 -221 -60l65 334q119 37 230 37q156 0 240.5 -77t84.5 -214q0 -127 -63 -221t-230 -197
q-81 -51 -106 -74.5t-25 -42.5z" />
    <glyph glyph-name="uni0434.bgr" horiz-adv-x="894" 
d="M313 -274q-205 0 -391 59l58 293q173 -62 280 -62q75 0 113 35q36 36 57 129l14 62q-64 -80 -118 -117t-119 -37q-195 0 -195 270q0 170 57 394t148 315q72 72 168 72q76 0 123 -37.5t78 -110.5l24 127h357l-187 -958q-44 -221 -147 -324q-110 -110 -320 -110zM418 391
q18 0 33 15q29 29 56.5 166.5t27.5 195.5q0 59 -46 59q-18 0 -32 -14q-29 -29 -56.5 -166.5t-27.5 -195.5q0 -60 45 -60z" />
    <glyph glyph-name="uni0436.bgr" horiz-adv-x="1284" 
d="M993 1464l-170 -827l207 481h365l-275 -592l49 -526h-352l-31 440l-79 -440h-349l93 440l-203 -440h-363l277 573l-41 545h352l16 -479l156 825h348z" />
    <glyph glyph-name="uni0438.bgr" horiz-adv-x="870" 
d="M150 -20q-93 0 -140 52.5t-47 135.5q0 45 10 100l166 850h357l-144 -727q-8 -31 -8 -53q0 -39 37 -39q44 0 53 57l150 762h356l-217 -1118h-356l24 127q-51 -67 -108 -107t-133 -40z" />
    <glyph glyph-name="uni0439.bgr" horiz-adv-x="870" 
d="M150 -20q-93 0 -140 52.5t-47 135.5q0 45 10 100l166 850h357l-144 -727q-8 -31 -8 -53q0 -39 37 -39q44 0 53 57l150 762h356l-217 -1118h-356l24 127q-51 -67 -108 -107t-133 -40zM557 1157q-256 0 -233 244h182q3 -80 74 -80t98 80h186q-73 -244 -307 -244z" />
    <glyph glyph-name="uni043A.bgr" horiz-adv-x="872" 
d="M758 0h-357l-34 424l-82 -424h-357l285 1464h356l-157 -807l202 461h369l-283 -590z" />
    <glyph glyph-name="uni043F.bgr" horiz-adv-x="868" 
d="M-72 0l217 1118h357l-25 -127q51 67 108.5 107.5t133.5 40.5q93 0 139.5 -52.5t46.5 -136.5q0 -45 -10 -100l-166 -850h-356l143 727q8 31 8 53q0 39 -37 39q-44 0 -53 -57l-149 -762h-357z" />
    <glyph glyph-name="uni0442.bgr" horiz-adv-x="1300" 
d="M-72 0l217 1118h353l-25 -127q113 148 254 148q145 0 170 -148q117 148 254 148q93 0 139.5 -52.5t46.5 -136.5q0 -45 -10 -100l-166 -850h-352l143 727q9 35 9 53q0 39 -37 39q-45 0 -54 -57l-149 -762h-352l143 727q8 31 8 53q0 39 -37 39q-44 0 -53 -57l-149 -762
h-353z" />
    <glyph glyph-name="uni0446.bgr" horiz-adv-x="954" 
d="M150 -20q-93 0 -140 52.5t-47 135.5q0 45 10 100l166 850h357l-144 -727q-8 -31 -8 -53q0 -39 37 -39q44 0 53 57l150 762h356l-154 -790h109l-104 -535h-316l41 207h-149l24 127q-51 -67 -108 -107t-133 -40z" />
    <glyph glyph-name="uni0448.bgr" horiz-adv-x="1302" 
d="M1372 1118l-217 -1118h-352l24 127q-27 -33 -48.5 -54t-53.5 -45t-70 -36t-82 -12q-80 0 -119 39t-51 108q-54 -69 -114.5 -108t-138.5 -39q-93 0 -140 52.5t-47 135.5q0 45 10 100l166 850h353l-144 -727q-8 -31 -8 -53q0 -39 37 -39q44 0 53 57l150 762h352l-144 -727
q-8 -31 -8 -53q0 -39 37 -39q44 0 53 57l150 762h352z" />
    <glyph glyph-name="uni0449.bgr" horiz-adv-x="1386" 
d="M1372 1118l-153 -790h108l-104 -535h-316l41 207h-145l24 127q-27 -33 -48.5 -54t-53.5 -45t-70 -36t-82 -12q-80 0 -119 39t-51 108q-54 -69 -114.5 -108t-138.5 -39q-93 0 -140 52.5t-47 135.5q0 45 10 100l166 850h353l-144 -727q-8 -31 -8 -53q0 -39 37 -39
q44 0 53 57l150 762h352l-144 -727q-8 -31 -8 -53q0 -39 37 -39q44 0 53 57l150 762h352z" />
    <glyph glyph-name="uni044E.bgr" horiz-adv-x="1290" 
d="M778 -27q-173 0 -260.5 108t-87.5 284v34h-68l-77 -399h-357l285 1464h356l-143 -735h61q60 197 160 297q119 119 293 119q173 0 260.5 -107.5t87.5 -283.5q0 -171 -55.5 -363.5t-161.5 -298.5q-119 -119 -293 -119zM807 281q17 0 31 14q33 33 72.5 225.5t39.5 255.5
q0 62 -39 62q-15 0 -28 -13q-34 -34 -74.5 -227t-40.5 -256q0 -34 9.5 -47.5t29.5 -13.5z" />
    <glyph glyph-name="aacute.alt" horiz-adv-x="897" 
d="M186 -20q-97 0 -145.5 69.5t-48.5 194.5q0 105 23 259t78 322.5t128 241.5q72 72 164 72q76 0 122.5 -36t78.5 -112l24 127h357l-217 -1118h-357l25 127q-57 -73 -112.5 -110t-119.5 -37zM399 293q17 0 31 14q29 29 67 215.5t38 245.5t-48 59q-16 0 -30 -14
q-29 -29 -67 -215.5t-38 -245.5t47 -59zM475 1182l193 264l301 -76l-289 -188h-205z" />
    <glyph glyph-name="abreve.alt" horiz-adv-x="897" 
d="M186 -20q-97 0 -145.5 69.5t-48.5 194.5q0 105 23 259t78 322.5t128 241.5q72 72 164 72q76 0 122.5 -36t78.5 -112l24 127h357l-217 -1118h-357l25 127q-57 -73 -112.5 -110t-119.5 -37zM399 293q17 0 31 14q29 29 67 215.5t38 245.5t-48 59q-16 0 -30 -14
q-29 -29 -67 -215.5t-38 -245.5t47 -59zM604 1178q-256 0 -233 243h182q3 -80 74 -80t98 80h186q-73 -243 -307 -243z" />
    <glyph glyph-name="acircumflex.alt" horiz-adv-x="897" 
d="M186 -20q-97 0 -145.5 69.5t-48.5 194.5q0 105 23 259t78 322.5t128 241.5q72 72 164 72q76 0 122.5 -36t78.5 -112l24 127h357l-217 -1118h-357l25 127q-57 -73 -112.5 -110t-119.5 -37zM399 293q17 0 31 14q29 29 67 215.5t38 245.5t-48 59q-16 0 -30 -14
q-29 -29 -67 -215.5t-38 -245.5t47 -59zM317 1182l209 239h248l115 -239h-189l-77 80l-111 -80h-195z" />
    <glyph glyph-name="adieresis.alt" horiz-adv-x="897" 
d="M186 -20q-97 0 -145.5 69.5t-48.5 194.5q0 105 23 259t78 322.5t128 241.5q72 72 164 72q76 0 122.5 -36t78.5 -112l24 127h357l-217 -1118h-357l25 127q-57 -73 -112.5 -110t-119.5 -37zM399 293q17 0 31 14q29 29 67 215.5t38 245.5t-48 59q-16 0 -30 -14
q-29 -29 -67 -215.5t-38 -245.5t47 -59zM330 1182l47 252h248l-47 -252h-248zM627 1182l47 252h248l-48 -252h-247z" />
    <glyph glyph-name="agrave.alt" horiz-adv-x="897" 
d="M186 -20q-97 0 -145.5 69.5t-48.5 194.5q0 105 23 259t78 322.5t128 241.5q72 72 164 72q76 0 122.5 -36t78.5 -112l24 127h357l-217 -1118h-357l25 127q-57 -73 -112.5 -110t-119.5 -37zM399 293q17 0 31 14q29 29 67 215.5t38 245.5t-48 59q-16 0 -30 -14
q-29 -29 -67 -215.5t-38 -245.5t47 -59zM512 1182l-215 188l321 76l91 -264h-197z" />
    <glyph glyph-name="amacron.alt" horiz-adv-x="897" 
d="M186 -20q-97 0 -145.5 69.5t-48.5 194.5q0 105 23 259t78 322.5t128 241.5q72 72 164 72q76 0 122.5 -36t78.5 -112l24 127h357l-217 -1118h-357l25 127q-57 -73 -112.5 -110t-119.5 -37zM399 293q17 0 31 14q29 29 67 215.5t38 245.5t-48 59q-16 0 -30 -14
q-29 -29 -67 -215.5t-38 -245.5t47 -59zM332 1186l43 211h540l-43 -211h-540z" />
    <glyph glyph-name="aogonek.alt" horiz-adv-x="897" 
d="M752 -106l-35 -177q-57 -8 -137 -8q-119 0 -175.5 27t-56.5 86q0 85 113 178h-68l25 127q-57 -73 -112.5 -110t-119.5 -37q-97 0 -145.5 69.5t-48.5 194.5q0 105 23 259t78 322.5t128 241.5q72 72 164 72q76 0 122.5 -36t78.5 -112l24 127h357l-217 -1118h-52
q-41 -46 -41 -66q0 -14 18 -22t77 -18zM399 293q17 0 31 14q29 29 67 215.5t38 245.5t-48 59q-16 0 -30 -14q-29 -29 -67 -215.5t-38 -245.5t47 -59z" />
    <glyph glyph-name="aring.alt" horiz-adv-x="897" 
d="M186 -20q-97 0 -145.5 69.5t-48.5 194.5q0 105 23 259t78 322.5t128 241.5q72 72 164 72q76 0 122.5 -36t78.5 -112l24 127h357l-217 -1118h-357l25 127q-57 -73 -112.5 -110t-119.5 -37zM399 293q17 0 31 14q29 29 67 215.5t38 245.5t-48 59q-16 0 -30 -14
q-29 -29 -67 -215.5t-38 -245.5t47 -59zM846 1401q0 -88 -64 -157.5t-168 -69.5q-76 0 -128 46t-52 128q0 88 64 157.5t168 69.5q76 0 128 -46t52 -128zM551 1354q0 -34 20 -56t56 -22q43 0 72.5 32.5t29.5 86.5q0 34 -20 56t-56 22q-43 0 -72.5 -32.5t-29.5 -86.5z" />
    <glyph glyph-name="aring.alt2" horiz-adv-x="823" 
d="M330 0l14 76q-45 -48 -90 -72t-107 -24q-92 0 -140 59t-48 172q0 111 36 228t101 182q75 75 189 75q52 0 89 -11.5t83 -37.5l4 19q6 18 6 53q0 100 -139 100q-103 0 -219 -53l63 330q106 30 186 37q-22 39 -22 86q0 88 63.5 156.5t167.5 68.5q76 0 128.5 -46t52.5 -128
q0 -106 -82 -170q165 -75 165 -281q0 -61 -16 -149l-131 -670h-354zM528 1145q43 0 73 32.5t30 86.5q0 33 -20 55t-56 22q-43 0 -72.5 -32t-29.5 -86q0 -34 20 -56t55 -22zM322 211q25 0 41 18.5t26 63.5l31 160q-27 18 -53 18q-21 0 -37 -16q-22 -22 -38 -88t-16 -101
q0 -55 46 -55z" />
    <glyph glyph-name="aringacute.alt" horiz-adv-x="897" 
d="M561 1612l182 213l314 -56l-283 -157h-213zM186 -20q-97 0 -145.5 69.5t-48.5 194.5q0 105 23 259t78 322.5t128 241.5q72 72 164 72q76 0 122.5 -36t78.5 -112l24 127h357l-217 -1118h-357l25 127q-57 -73 -112.5 -110t-119.5 -37zM399 293q17 0 31 14q29 29 67 215.5
t38 245.5t-48 59q-16 0 -30 -14q-29 -29 -67 -215.5t-38 -245.5t47 -59zM844 1401q0 -88 -64 -157.5t-168 -69.5q-76 0 -128 46t-52 128q0 88 64 157.5t168 69.5q76 0 128 -46t52 -128zM549 1354q0 -34 20 -56t56 -22q43 0 72.5 32.5t29.5 86.5q0 34 -20 56t-56 22
q-43 0 -72.5 -32.5t-29.5 -86.5z" />
    <glyph glyph-name="aringacute.alt2" horiz-adv-x="823" 
d="M465 1481l182 213l314 -56l-283 -157h-213zM330 0l14 76q-45 -48 -90 -72t-107 -24q-92 0 -140 59t-48 172q0 111 36 228t101 182q75 75 189 75q52 0 89 -11.5t83 -37.5l4 19q6 18 6 53q0 100 -139 100q-103 0 -219 -53l63 330q106 30 186 37q-22 39 -22 86
q0 88 63.5 156.5t167.5 68.5q76 0 128.5 -46t52.5 -128q0 -106 -82 -170q165 -75 165 -281q0 -61 -16 -149l-131 -670h-354zM528 1145q43 0 73 32.5t30 86.5q0 33 -20 55t-56 22q-43 0 -72.5 -32t-29.5 -86q0 -34 20 -56t55 -22zM322 211q25 0 41 18.5t26 63.5l31 160
q-27 18 -53 18q-21 0 -37 -16q-22 -22 -38 -88t-16 -101q0 -55 46 -55z" />
    <glyph glyph-name="atilde.alt" horiz-adv-x="897" 
d="M186 -20q-97 0 -145.5 69.5t-48.5 194.5q0 105 23 259t78 322.5t128 241.5q72 72 164 72q76 0 122.5 -36t78.5 -112l24 127h357l-217 -1118h-357l25 127q-57 -73 -112.5 -110t-119.5 -37zM399 293q17 0 31 14q29 29 67 215.5t38 245.5t-48 59q-16 0 -30 -14
q-29 -29 -67 -215.5t-38 -245.5t47 -59zM805 1450l149 -25q-26 -119 -80.5 -185t-119.5 -66q-42 0 -127 30q-85 31 -111 31t-42 -16t-30 -52l-149 25q25 121 80.5 186.5t120.5 65.5q43 0 127 -31q85 -31 110 -31t39 14.5t33 53.5z" />
    <glyph glyph-name="i.dot" horiz-adv-x="438" 
d="M-68 0l218 1118h356l-217 -1118h-357zM160 1180l55 284h360l-55 -284h-360z" />
    <glyph glyph-name="uni0386.calt" horiz-adv-x="950" 
d="M-125 0l551 1436h438l-6 -1436h-356l12 231h-201l-77 -231h-361zM412 528h118l25 428z" />
    <glyph glyph-name="uni0388.calt" horiz-adv-x="765" 
d="M-70 0l279 1434h694l-67 -347h-330l-39 -198h295l-66 -336h-295l-39 -207h336l-67 -346h-701z" />
    <glyph glyph-name="uni0389.calt" horiz-adv-x="958" 
d="M-70 0l279 1434h364l-104 -539h152l104 539h365l-279 -1434h-365l107 547h-152l-106 -547h-365z" />
    <glyph glyph-name="uni038A.calt" horiz-adv-x="450" 
d="M-66 0l279 1434h365l-279 -1434h-365z" />
    <glyph glyph-name="uni038C.calt" horiz-adv-x="978" 
d="M623 1464q178 0 285.5 -114.5t107.5 -333.5q0 -92 -17 -213.5t-49.5 -254.5t-90 -256t-128.5 -194q-129 -129 -313 -129q-177 0 -285 114.5t-108 334.5q0 92 17 213.5t49 254t89.5 255.5t128.5 194q129 129 314 129zM442 301q27 0 50 23q49 49 108 328t59 395
q0 86 -61 86q-26 0 -49 -23q-49 -49 -108.5 -328.5t-59.5 -394.5q0 -86 61 -86z" />
    <glyph glyph-name="uni038E.calt" horiz-adv-x="892" 
d="M154 0l98 502l-98 932h362l6 -473l187 473h366l-459 -932l-98 -502h-364z" />
    <glyph glyph-name="uni038F.calt" horiz-adv-x="1011" 
d="M608 1128q-31 0 -53 -22q-58 -58 -94.5 -280t-36.5 -423q0 -42 2 -73l-64 -330h-438l68 346h174q-76 222 -76 397q0 397 189 586q135 135 356 135q108 0 189.5 -32t131.5 -90t74.5 -133.5t24.5 -166.5q0 -183 -76 -360.5t-207 -335.5h172l-67 -346h-445l64 330
q77 173 131.5 377t54.5 315q0 106 -74 106z" />
    <glyph glyph-name="uni0399.calt" horiz-adv-x="450" 
d="M-66 0l279 1434h365l-279 -1434h-365zM125 1477l43 231h256l-43 -231h-256zM434 1477l43 231h256l-43 -231h-256z" />
    <glyph glyph-name="uni03A5.calt" horiz-adv-x="892" 
d="M154 0l98 502l-98 932h362l6 -473l187 473h366l-459 -932l-98 -502h-364zM342 1477l43 231h256l-43 -231h-256zM651 1477l43 231h256l-43 -231h-256z" />
    <glyph glyph-name="uni0431.srb" horiz-adv-x="864" 
d="M373 -27q-183 0 -277 100t-96 283q0 155 43.5 307.5t138.5 247.5q88 88 217 111l-75 104q-36 48 -51 84t-15 78q0 77 49.5 126.5t147.5 49.5h487l-59 -303l-260 6q-23 0 -23 -16q0 -10 23 -39l82 -104q72 -91 105.5 -179t33.5 -200q0 -135 -47.5 -292t-143.5 -253
q-111 -111 -280 -111zM379 264q17 0 29 12q30 30 67 198.5t37 238.5q0 63 -43 63q-17 0 -29 -12q-30 -30 -67 -198t-37 -238q0 -64 43 -64z" />
    <glyph glyph-name="three.alt" horiz-adv-x="776" 
d="M244 -25q-178 0 -312 58l66 338q115 -54 223 -54q72 0 114 36t42 96q0 59 -51 91.5t-183 39.5v2l60 297h2q144 0 214 41.5t68 103.5q0 92 -129 92q-77 0 -211 -41l66 342q135 41 270 41q190 0 286.5 -89.5t96.5 -244.5q0 -153 -80 -258t-215 -157q162 -97 162 -279
q0 -202 -134 -328.5t-355 -126.5z" />
    <glyph glyph-name="registered.alt" horiz-adv-x="1019" 
d="M645 1464q179 0 289 -128t110 -357q0 -93 -16 -207t-46.5 -237t-86 -237.5t-125.5 -184.5q-71 -71 -150 -107.5t-184 -36.5q-179 0 -289 128t-110 358q0 93 16 207t46.5 237t86 237.5t125.5 184.5t149.5 106.5t184.5 36.5zM440 41q86 0 152 29t129 92q78 78 137.5 238
t85 310.5t25.5 264.5q0 197 -87 307.5t-241 110.5q-86 0 -152 -29t-129 -92q-78 -78 -137 -238.5t-84.5 -311t-25.5 -263.5q0 -198 86.5 -308t240.5 -110zM487 555l-51 -260h-215l168 860h160q174 0 246 -72q57 -57 57 -163q0 -152 -92 -244q-34 -34 -64 -49l54 -332h-230
l-31 260h-2zM522 729h4q35 0 58 23q19 20 32 63.5t13 83.5q0 36 -17 53q-15 15 -37 15h-6z" />
    <glyph glyph-name="hcoslug" horiz-adv-x="1421" 
d="M506 37h53q3 45 -39 45q-19 0 -30 -11.5t-11 -31.5q3 -41 43 -41q31 0 37 29h-14q-3 -15 -19 -15q-20 0 -20 25zM520 72q15 0 15 -25h-29q0 25 14 25zM399 160q-16 0 -16 33q0 30 16 30q17 0 17 -30q0 -33 -17 -33zM430 8q-16 0 -16 33q0 31 16 31t16 -31q0 -33 -16 -33z
M430 -2q19 0 31 12t12 31t-12 30t-31 11t-31 -11t-12 -30q0 -20 12 -31.5t31 -11.5zM1118 8q-16 0 -16 33q0 31 16 31q17 0 17 -31q0 -33 -17 -33zM1118 -2q19 0 31 12t12 31t-12 30t-31 11t-31 -11t-12 -30q0 -20 12 -31.5t31 -11.5zM256 166v-14h61v14h-20v33h8
q9 0 12 -17h15v47h-15q-3 -16 -12 -16h-8v37h25q10 0 13.5 -4.5t8.5 -22.5h16v41h-104v-14h14v-84h-14zM399 150q19 0 31 12t12 31q0 18 -12 29t-31 11t-31 -11t-12 -29q0 -20 12 -31.5t31 -11.5zM1319 1434v-1639h-1217v1639h1217zM1020 -2q46 0 49 47h-16q-3 -33 -29 -33
q-33 0 -33 45t29 45q23 0 31 -32h16v45h-16l-2 -13q-15 15 -33 15q-24 0 -39.5 -16.5t-15.5 -45.5q0 -57 59 -57zM762 164q-17 0 -17 26q0 27 17 27q14 0 14 -27q0 -26 -14 -26zM565 14v-14h47v14h-10v52h29v-52h-10v-14h47v14h-13v107l-20 -4q-12 4 -19 4q-38 0 -38 -39v-2
h-15v-14h15v-52h-13zM754 14v-14h53v14h-16v33q9 19 14 19v-3q0 -12 12 -12q14 0 14 15q0 16 -16 16q-14 0 -24 -23v21h-37v-14h12v-52h-12zM721 256v-106h12l8 16q10 -16 29 -16q17 0 25 13.5t8 29.5q0 40 -31 40q-21 0 -27 -18v55h-36v-14h12zM819 154q-14 0 -14 -15
q0 -18 22 -18q26 0 37 33l27 63h10v14h-35v-14h11l-17 -41l-18 41h12v14h-51v-14h10q5 -16 12 -27l21 -40q-3 -17 -17 -17q5 5 2.5 13t-12.5 8zM506 877q0 26 15 42.5t40 16.5q26 0 43 -21.5t17 -56.5q0 -46 -37 -102l-10 10q-26 26 -37.5 38.5t-21 32t-9.5 40.5zM618 180
v-28h15l2 8q10 -10 27 -10q28 0 28 26q0 19 -24.5 25t-24.5 12q0 8 10 8q13 0 21 -14h14v26h-12l-4 -10q-7 10 -23 10q-29 0 -29 -24q0 -19 25 -26t25 -13q0 -8 -11 -8q-12 0 -24 18h-15zM535 449q-47 0 -77 31t-30 79q0 49 33 82q62 -56 151 -168q-30 -24 -77 -24zM586 254
l-25 -4v-19h-14v-14h14v-41q0 -26 25 -26q22 0 28 26l-10 4q-3 -14 -10 -14q-8 0 -8 10v41h26v14h-26v23zM877 627q30 -52 88 -52q43 0 72.5 32t29.5 79t-29.5 77t-72.5 30q-69 0 -123 -78q-9 79 -101 76q19 32 19 69q0 60 -52.5 106t-142.5 46q-99 0 -161 -51.5t-62 -122.5
q0 -42 15 -73.5t49 -68.5q-168 -58 -168 -186q0 -81 65 -136t158 -55q129 0 213 93q50 -53 88 -73t86 -20q68 0 114 52t50 141l-15 4q-20 -30 -39 -44.5t-49 -14.5t-59 19.5t-68 64.5q42 55 95 86zM449 166v-14h45v14h-9v31q0 20 15 20q12 0 12 -14v-37h-8v-14h45v14h-12v39
q0 28 -25 28q-20 0 -29 -22v20h-34v-14h12v-51h-12zM950 68h-37v-15h13q-2 -7 -13 -18l-24 26q22 9 22 25q0 25 -28 25q-17 0 -26 -8t-9 -21t12 -25q-26 -9 -26 -30q0 -29 36 -29q19 0 31 12q9 -12 25 -12q20 0 26 25l-10 2q-4 -11 -8 -11q-5 0 -12 11q10 11 18 28h10v15z
M879 12q-21 0 -21 21q0 10 8 18q19 -19 29 -33q-9 -6 -16 -6zM602 80v6q0 25 12 25q5 0 7 -2q-3 -3 -3 -9q0 -10 13 -10v-10h-29zM870 88q0 10 11 10q12 0 12 -12q0 -11 -10 -18q-13 13 -13 20zM639 700q57 38 86 70q23 -23 29 -49t-2 -52.5t-29 -62.5q-68 78 -84 94z
M696 37h54q3 45 -39 45q-17 0 -29 -12t-12 -31q0 -41 43 -41q27 0 37 29h-15q-3 -15 -18 -15q-21 0 -21 25zM711 72q14 0 14 -25h-29q0 25 15 25zM254 14v-14h59v14h-16v37h45v-37h-16v-14h59v14h-16v84h16v15h-59v-15h16v-32h-45v32h16v15h-59v-15h16v-84h-16zM1180 27
q-15 0 -15 -15q0 -14 15 -14q14 0 14 14q0 15 -14 15z" />
    <glyph glyph-name="caron.alt" 
d="M528 1159l74 305h189v-2l-142 -303h-121z" />
    <glyph glyph-name="descendercyrillic" 
d="M211 -207l78 357h282l-57 -357h-303z" />
    <glyph glyph-name="descendercyrillic.cap" 
d="M199 -231l82 381h303l-66 -381h-319z" />
    <glyph glyph-name="straightdescendercyrillic" 
d="M311 328h316l-105 -535h-315l41 207v2z" />
    <glyph glyph-name="straightdescendercyrillic.cap" 
d="M307 348h328l-113 -579h-327l45 231v2z" />
    <glyph glyph-name="acute.cap" 
d="M461 1477l162 223l346 -66l-260 -157h-248z" />
    <glyph glyph-name="hungarumlaut.cap" 
d="M694 1477l86 120l-172 -120h-215l162 223l264 -49l37 49l295 -55l-242 -168h-215z" />
    <glyph glyph-name="grave.cap" 
d="M645 1477l-199 157l361 66l76 -223h-238z" />
    <glyph glyph-name="circumflex.cap" 
d="M403 1477l191 209h268l113 -209h-201l-69 67l-95 -67h-207z" />
    <glyph glyph-name="caron.cap" 
d="M1016 1686l-191 -209h-268l-113 209h201l70 -68l94 68h207z" />
    <glyph glyph-name="breve.cap" 
d="M692 1473q-117 0 -178.5 52.5t-44.5 160.5h182q3 -54 68 -54q60 0 88 54h186q-58 -213 -301 -213z" />
    <glyph glyph-name="tilde.cap" 
d="M535 1462l-150 25q29 122 82 187t121 65q45 0 125 -31q84 -31 110 -31t42 16t30 52l149 -25q-29 -122 -81.5 -187t-120.5 -65q-45 0 -125 31q-84 31 -111 31q-26 0 -41.5 -16t-29.5 -52z" />
    <glyph glyph-name="macron.cap" 
d="M408 1481l43 215h565l-43 -215h-565z" />
    <glyph glyph-name="dieresis.cap" 
d="M408 1477l43 231h256l-43 -231h-256zM717 1477l43 231h256l-43 -231h-256z" />
    <glyph glyph-name="dotaccent.cap" 
d="M553 1477l43 231h274l-43 -231h-274z" />
    <glyph glyph-name="ring.cap" 
d="M748 1872q82 0 141 -49.5t59 -128.5q0 -95 -66.5 -159.5t-172.5 -64.5q-82 0 -141.5 50t-59.5 129q0 94 66.5 158.5t173.5 64.5zM719 1573q49 0 79.5 31.5t30.5 76.5q0 41 -25 64.5t-67 23.5q-49 0 -79.5 -31.5t-30.5 -76.5q0 -41 25 -64.5t67 -23.5z" />
    <glyph glyph-name="uni0384.cap" 
d="M500 1118l73 316h258l-167 -316h-164z" />
    <glyph glyph-name="commaaccent.rot" 
d="M825 1552v-90q-131 -25 -153 -86h129l-41 -211h-260l32 168q19 102 93.5 151t199.5 68z" />
    </font>
</defs>
</svg>
