<?xml version="1.0" standalone="no"?>
<!DOCTYPE svg PUBLIC "-//W3C//DTD SVG 1.1//EN" "http://www.w3.org/Graphics/SVG/1.1/DTD/svg11.dtd" >
<svg xmlns="http://www.w3.org/2000/svg" xmlns:xlink="http://www.w3.org/1999/xlink" version="1.1">
<metadata>
Created by FontForge 20201107 at Wed May 29 09:56:51 2024
 By 
Copyright (C) 2001, 2011 Hoefler &#38; Co. http://www.typography.com |DCNT
</metadata>
<defs>
<font id="GothamXNarrow-UltraItalic" horiz-adv-x="1005" >
  <font-face 
    font-family="Gotham XNarrow Ultra"
    font-weight="1000"
    font-style="italic"
    font-stretch="condensed"
    units-per-em="2048"
    panose-1="0 0 0 0 0 0 0 0 0 0"
    ascent="1638"
    descent="-410"
    x-height="1118"
    cap-height="1434"
    bbox="-262 -524 2056 2023"
    underline-thickness="102"
    underline-position="-204"
    slope="-12"
    unicode-range="U+0020-FB04"
  />
<missing-glyph horiz-adv-x="1024" 
d="M0 -410v2048h1024v-2048h-1024zM102 -156l353 770l-353 770v-1540zM145 -307h734l-367 799zM512 737l367 799h-734zM922 -156v1540l-353 -770z" />
    <glyph glyph-name="f_f" unicode="ff" horiz-adv-x="1302" 
d="M-20 0l176 811h-82l67 307h80l8 35q35 153 115 233q95 95 270 95q108 0 226 -33l-60 -266q-47 14 -86 14q-40 0 -60 -17.5t-28 -56.5l-2 -10h162l-66 -301h-157l-176 -811h-387zM629 0l176 811h-82l68 307h79l9 35q36 155 114 233q95 95 271 95q107 0 225 -33l-59 -266
q-47 14 -87 14t-60 -17.5t-28 -56.5l-2 -10h162l-65 -301h-158l-176 -811h-387z" />
    <glyph glyph-name="fi" unicode="fi" horiz-adv-x="1146" 
d="M-20 0l176 811h-82l67 307h80l8 35q35 153 115 233q95 95 270 95q108 0 226 -33l-60 -266q-47 14 -86 14q-40 0 -60 -17.5t-28 -56.5l-2 -10h162l-66 -301h-157l-176 -811h-387zM584 0l241 1118h392l-242 -1118h-391zM838 1186l63 289h397l-63 -289h-397z" />
    <glyph glyph-name="fl" unicode="fl" horiz-adv-x="1146" 
d="M-20 0l176 811h-82l67 307h80l8 35q35 153 115 233q95 95 270 95q108 0 226 -33l-60 -266q-47 14 -86 14q-40 0 -60 -17.5t-28 -56.5l-2 -10h162l-66 -301h-157l-176 -811h-387zM584 0l319 1475h389l-319 -1475h-389z" />
    <glyph glyph-name="f_f_i" unicode="ffi" horiz-adv-x="1796" 
d="M-20 0l176 811h-82l67 307h80l8 35q35 153 115 233q95 95 270 95q108 0 226 -33l-60 -266q-47 14 -86 14q-40 0 -60 -17.5t-28 -56.5l-2 -10h162l-66 -301h-157l-176 -811h-387zM629 0l176 811h-82l68 307h79l9 35q36 155 114 233q95 95 271 95q107 0 225 -33l-59 -266
q-47 14 -87 14t-60 -17.5t-28 -56.5l-2 -10h162l-65 -301h-158l-176 -811h-387zM1233 0l242 1118h391l-242 -1118h-391zM1487 1186l63 289h398l-64 -289h-397z" />
    <glyph glyph-name="f_f_l" unicode="ffl" horiz-adv-x="1796" 
d="M-20 0l176 811h-82l67 307h80l8 35q35 153 115 233q95 95 270 95q108 0 226 -33l-60 -266q-47 14 -86 14q-40 0 -60 -17.5t-28 -56.5l-2 -10h162l-66 -301h-157l-176 -811h-387zM629 0l176 811h-82l68 307h79l9 35q36 155 114 233q95 95 271 95q107 0 225 -33l-59 -266
q-47 14 -87 14t-60 -17.5t-28 -56.5l-2 -10h162l-65 -301h-158l-176 -811h-387zM1233 0l319 1475h390l-320 -1475h-389z" />
    <glyph glyph-name=".notdef" horiz-adv-x="1024" 
d="M0 -410v2048h1024v-2048h-1024zM102 -156l353 770l-353 770v-1540zM145 -307h734l-367 799zM512 737l367 799h-734zM922 -156v1540l-353 -770z" />
    <glyph glyph-name=".null" horiz-adv-x="0" 
 />
    <glyph glyph-name="nonmarkingreturn" horiz-adv-x="682" 
 />
    <glyph glyph-name="space" unicode=" " horiz-adv-x="389" 
 />
    <glyph glyph-name="exclam" unicode="!" horiz-adv-x="528" 
d="M152 463l43 858l22 113h461l-23 -113l-321 -858h-182zM-59 0l79 367h406l-80 -367h-405z" />
    <glyph glyph-name="quotedbl" unicode="&#x22;" horiz-adv-x="878" 
d="M78 727l155 707h385v-15l-356 -692h-184zM516 727l156 707h385l-2 -15l-355 -692h-184z" />
    <glyph glyph-name="numbersign" unicode="#" horiz-adv-x="1075" 
d="M131 827l57 342h168l74 265h262l-74 -265h156l74 265h262l-74 -265h117l-59 -342h-152l-59 -213h133l-60 -342h-168l-73 -272h-262l75 272h-155l-76 -272h-262l74 272h-115l57 342h152l59 213h-131zM518 840l-65 -238h178l63 238h-176z" />
    <glyph glyph-name="dollar" unicode="$" horiz-adv-x="985" 
d="M604 1575h248l-39 -168q154 -40 277 -137l-181 -305q-59 48 -134.5 82t-147.5 34h-2q-49 0 -77 -22.5t-26 -54.5q0 -32 31 -61t131 -91h2q64 -42 105 -75.5t80 -79t57 -101t18 -123.5q0 -192 -120 -322t-326 -147l-47 -217h-248l53 236q-175 39 -319 159l170 328
q181 -154 337 -154h3q49 0 76.5 22t25.5 56q0 31 -27 56t-110 77h-2q-75 48 -122 85t-87.5 84.5t-59 102t-18.5 122.5q0 197 123.5 324.5t322.5 144.5z" />
    <glyph glyph-name="percent" unicode="%" horiz-adv-x="1452" 
d="M100 0l590 762l498 672h229l-590 -762l-497 -672h-230zM375 623q-123 0 -191.5 80.5t-68.5 226.5q0 119 36.5 238.5t116.5 199.5q82 82 201 82q123 0 191.5 -80.5t68.5 -226.5q0 -118 -36.5 -238t-112.5 -196q-86 -86 -205 -86zM387 829q24 0 43 19q38 38 60 126.5
t22 168.5q0 100 -55 100q-25 0 -43 -18q-38 -38 -60 -126.5t-22 -168.5q0 -101 55 -101zM1049 -16q-123 0 -192 80.5t-69 226.5q0 117 37 237.5t113 196.5q86 86 205 86q123 0 191.5 -80.5t68.5 -226.5q0 -117 -37 -237.5t-113 -196.5q-86 -86 -204 -86zM1061 190
q24 0 43 19q38 38 60 126.5t22 168.5q0 100 -56 100q-25 0 -43 -18q-38 -38 -59.5 -126.5t-21.5 -168.5q0 -101 55 -101z" />
    <glyph glyph-name="ampersand" unicode="&#x26;" horiz-adv-x="1144" 
d="M889 686l254 -113q-66 -184 -174 -321l71 -146l-278 -147l-47 98q-131 -80 -295 -80q-199 0 -316.5 98.5t-117.5 270.5q0 150 90.5 270.5t245.5 198.5q-64 137 -64 256q0 101 44.5 188t137.5 144t219 57q170 0 275.5 -93t105.5 -241q0 -255 -309 -424l80 -174
q33 54 78 158zM483 281q45 0 86 20l-125 272q-82 -79 -82 -178q0 -114 121 -114zM580 1055q0 -68 28 -129q61 42 90 84t29 92q0 36 -16.5 58t-46.5 22q-37 0 -60.5 -36.5t-23.5 -90.5z" />
    <glyph glyph-name="quotesingle" unicode="'" horiz-adv-x="452" 
d="M78 727l155 707h396v-15l-363 -692h-188z" />
    <glyph glyph-name="parenleft" unicode="(" horiz-adv-x="692" 
d="M559 -70l-188 -223q-348 222 -348 707q0 234 74 450t227 369q161 161 426 223l65 -282q-72 -26 -120 -54t-93 -73q-65 -65 -112.5 -163.5t-69.5 -198t-31.5 -175.5t-9.5 -133q0 -143 43.5 -251.5t136.5 -195.5z" />
    <glyph glyph-name="parenright" unicode=")" horiz-adv-x="692" 
d="M145 1235l189 223q348 -222 348 -706q0 -234 -74 -450.5t-227 -369.5q-161 -161 -426 -223l-66 283q72 26 120 54t93 73q66 66 113.5 164t69.5 197t31.5 174.5t9.5 133.5q0 143 -43.5 251t-137.5 196z" />
    <glyph glyph-name="asterisk" unicode="*" horiz-adv-x="749" 
d="M532 717l-245 53l129 238l-217 -146l-76 232l264 12l-235 123l167 178l136 -223l-19 266l246 -53l-127 -236l215 146l78 -234l-266 -10l237 -123l-170 -178l-133 221z" />
    <glyph glyph-name="plus" unicode="+" horiz-adv-x="1021" 
d="M268 252l66 297h-279l76 344h279l65 295h348l-65 -295h280l-75 -344h-281l-66 -297h-348z" />
    <glyph glyph-name="comma" unicode="," horiz-adv-x="477" 
d="M-129 -297l-8 147q198 25 237 152h-186l90 408h404l-80 -363q-38 -170 -149.5 -251.5t-307.5 -92.5z" />
    <glyph glyph-name="hyphen" unicode="-" horiz-adv-x="710" 
d="M25 467l77 356h621l-78 -356h-620z" />
    <glyph glyph-name="period" unicode="." horiz-adv-x="479" 
d="M-86 0l90 406h406l-91 -406h-405z" />
    <glyph glyph-name="slash" unicode="/" horiz-adv-x="802" 
d="M-233 -219l1009 1810h297l-1007 -1810h-299z" />
    <glyph glyph-name="zero" unicode="0" horiz-adv-x="1112" 
d="M694 1464q205 0 322 -132.5t117 -381.5q0 -85 -14 -186.5t-44 -218t-88.5 -229.5t-136.5 -191q-156 -156 -363 -156q-206 0 -322 132t-116 386q0 85 14 185.5t44 216.5t88.5 229t136.5 191q155 155 362 155zM518 330q37 0 72 35q63 63 111.5 263.5t48.5 334.5
q0 141 -86 141q-37 0 -72 -35q-60 -60 -110 -265t-50 -335q0 -139 86 -139z" />
    <glyph glyph-name="one" unicode="1" horiz-adv-x="665" 
d="M84 0l225 1036l-174 -43l41 355l318 90h303l-314 -1438h-399z" />
    <glyph glyph-name="two" unicode="2" horiz-adv-x="948" 
d="M-74 0l76 344l473 451q77 74 105 115t28 83q0 45 -32 71t-76 26q-52 0 -104.5 -24t-121.5 -75l-137 312q213 155 438 155q202 0 316.5 -110t114.5 -277q0 -115 -49 -215.5t-197 -237.5l-281 -256h393l-79 -362h-867z" />
    <glyph glyph-name="three" unicode="3" horiz-adv-x="917" 
d="M356 -27q-236 0 -430 144l166 317q44 -30 71 -46.5t79 -34t102 -17.5q75 0 113.5 36.5t38.5 90.5q0 68 -65 106.5t-187 38.5h-23l31 230l287 243h-377l76 353h831l-72 -330l-335 -285q111 -47 169 -135t58 -209q0 -204 -152 -356q-146 -146 -381 -146z" />
    <glyph glyph-name="four" unicode="4" horiz-adv-x="1077" 
d="M430 0l51 229h-497l18 291l694 918h426l-192 -893h135l-70 -316h-133l-51 -229h-381zM360 543h195l82 385z" />
    <glyph glyph-name="five" unicode="5" horiz-adv-x="940" 
d="M365 -27q-243 0 -431 140l158 319q140 -96 252 -96q86 0 129 51.5t43 124.5q0 60 -34 94.5t-97 34.5q-56 0 -115 -35l-180 103l195 725h764l-78 -355h-465l-45 -164q58 15 96 15q176 0 268.5 -96t92.5 -269q0 -126 -46.5 -241.5t-126.5 -196.5q-154 -154 -380 -154z" />
    <glyph glyph-name="six" unicode="6" horiz-adv-x="1019" 
d="M461 -27q-198 0 -307 109q-117 117 -117 342q0 135 32 295.5t99.5 319.5t155.5 247q91 91 191 131.5t233 40.5q191 0 337 -86l-135 -323q-38 27 -97 51t-124 24q-88 0 -147 -59q-61 -61 -95 -168q83 47 191 47q137 0 223 -84.5t86 -249.5q0 -138 -49 -275.5t-133 -221.5
q-140 -140 -344 -140zM471 283q35 0 61 26q34 34 57 112t23 144q0 34 -8.5 57t-22.5 31.5t-23.5 11.5t-18.5 3q-35 0 -62 -27v-2q-33 -30 -56.5 -109t-23.5 -141q0 -61 25 -86q20 -20 49 -20z" />
    <glyph glyph-name="seven" unicode="7" horiz-adv-x="888" 
d="M-23 0l566 1067h-410l80 367h840l-62 -277l-594 -1157h-420z" />
    <glyph glyph-name="eight" unicode="8" horiz-adv-x="1024" 
d="M457 -27q-204 0 -331.5 101t-127.5 268q0 148 69.5 260t194.5 166q-108 111 -108 258q0 89 32.5 167.5t92 138t152 94t206.5 34.5q200 0 317 -101t117 -265q0 -124 -63.5 -223.5t-178.5 -153.5q136 -105 136 -275q0 -205 -138.5 -337t-369.5 -132zM469 270q36 0 63 24.5
t41 61.5t20.5 72t6.5 64q0 59 -26 85.5t-66 26.5q-36 0 -63 -24.5t-41 -61.5t-20.5 -71.5t-6.5 -63.5q0 -59 26 -86t66 -27zM588 860q32 0 56 21t36.5 53.5t18.5 63.5t6 59q0 52 -24 78t-63 26q-32 0 -56 -21t-36 -53t-18 -63t-6 -59q0 -52 23.5 -78.5t62.5 -26.5z" />
    <glyph glyph-name="nine" unicode="9" horiz-adv-x="1019" 
d="M340 -20q-191 0 -358 98l135 321q120 -86 243 -86q90 0 154 64q58 58 84 149q-90 -49 -192 -49q-137 0 -222.5 87.5t-85.5 254.5q0 143 50 282t135 224q139 139 344 139q199 0 307 -108q117 -117 117 -342q0 -137 -32 -297t-99.5 -318.5t-155.5 -246.5
q-91 -91 -191 -131.5t-233 -40.5zM547 754q35 0 61 26v2q34 32 58 116.5t24 152.5q0 60 -24 84q-20 20 -50 20q-34 0 -61 -27q-35 -35 -58.5 -118t-23.5 -152q0 -104 74 -104z" />
    <glyph glyph-name="colon" unicode=":" horiz-adv-x="485" 
d="M-82 0l90 406h404l-90 -406h-404zM70 713l90 405h405l-90 -405h-405z" />
    <glyph glyph-name="semicolon" unicode=";" horiz-adv-x="485" 
d="M-125 -299l-8 145q201 26 237 154h-186l90 406h404l-78 -361q-40 -173 -151 -253t-308 -91zM70 713l90 405h405l-90 -405h-405z" />
    <glyph glyph-name="less" unicode="&#x3c;" horiz-adv-x="1021" 
d="M844 166l-772 381l78 348l935 379l-88 -400l-528 -169l455 -173z" />
    <glyph glyph-name="equal" unicode="=" horiz-adv-x="1021" 
d="M12 299l74 336h883l-74 -336h-883zM123 807l74 336h884l-73 -336h-885z" />
    <glyph glyph-name="greater" unicode="&#x3e;" horiz-adv-x="1021" 
d="M8 166l88 401l529 168l-455 174l80 365l772 -379l-78 -348z" />
    <glyph glyph-name="question" unicode="?" horiz-adv-x="892" 
d="M254 463l41 371l14 16q258 33 258 151q0 84 -100 84q-35 0 -96 -20t-117 -55l-88 333q203 109 399 109q194 0 306 -95.5t112 -260.5q0 -166 -100.5 -286.5t-296.5 -166.5l-82 -180h-250zM74 0l82 367h403l-80 -367h-405z" />
    <glyph glyph-name="at" unicode="@" horiz-adv-x="1441" 
d="M635 -289q-277 0 -442.5 175t-165.5 481q0 211 62.5 408.5t171 349t268 242.5t341.5 91q176 0 306.5 -77t198 -212.5t67.5 -312.5q0 -205 -57.5 -378t-161 -276.5t-230.5 -103.5q-184 0 -233 183q-113 -172 -260 -172q-92 0 -150.5 69.5t-58.5 202.5q0 113 34 237.5
t90 228t136 171t164 67.5q138 0 176 -145l35 133l282 -57l-161 -615q-21 -61 -21 -112q0 -64 64 -64q43 0 90 51t86 134t64.5 201.5t25.5 242.5q0 236 -132 378t-362 142q-156 0 -296 -84.5t-237.5 -223.5t-154.5 -321t-57 -372q0 -269 140 -423.5t386 -154.5q173 0 338 92
l37 -71q-179 -105 -383 -105zM647 342q41 0 85.5 78t71.5 177t27 169q0 74 -51 74q-42 0 -87 -79.5t-72 -179.5t-27 -167q0 -72 53 -72z" />
    <glyph glyph-name="A" unicode="A" horiz-adv-x="1153" 
d="M-143 0l688 1438h448l64 -1438h-404v219h-293l-92 -219h-411zM494 530h163l5 404z" />
    <glyph glyph-name="B" unicode="B" horiz-adv-x="1081" 
d="M-70 0l312 1434h409q246 0 368 -92.5t122 -243.5q0 -142 -72.5 -237.5t-200.5 -145.5q170 -87 170 -266q0 -209 -156.5 -329t-463.5 -120h-488zM391 342h94q73 0 115.5 39t42.5 100q0 47 -33.5 72t-93.5 25h-74zM504 864h80q80 0 119.5 37.5t39.5 97.5q0 93 -127 93h-63z
" />
    <glyph glyph-name="C" unicode="C" horiz-adv-x="1015" 
d="M557 -25q-235 0 -372.5 154t-137.5 422q0 207 68.5 403.5t201.5 329.5q174 174 412 174q130 0 240 -49t184 -133l-240 -301q-78 102 -178 102q-74 0 -127 -53q-74 -74 -111.5 -202t-37.5 -234q0 -230 164 -230q50 0 92 21.5t90 60.5l141 -323q-183 -142 -389 -142z" />
    <glyph glyph-name="D" unicode="D" horiz-adv-x="1142" 
d="M-70 0l312 1434h309q327 0 483 -156q133 -133 133 -377q0 -105 -24 -228.5t-82 -257t-139 -214.5q-201 -201 -574 -201h-418zM709 1028q-45 45 -136 45h-12l-151 -713h18q119 0 193 74q64 64 102.5 192.5t38.5 237.5q0 67 -13 102t-40 62z" />
    <glyph glyph-name="E" unicode="E" horiz-adv-x="956" 
d="M-70 0l312 1434h858l-80 -361h-459l-41 -182h420l-74 -340h-420l-40 -191h468l-79 -360h-865z" />
    <glyph glyph-name="F" unicode="F" horiz-adv-x="913" 
d="M-70 0l312 1434h833l-80 -367h-434l-43 -197h395l-77 -346h-394l-112 -524h-400z" />
    <glyph glyph-name="G" unicode="G" horiz-adv-x="1116" 
d="M567 -27q-238 0 -382 141.5t-144 395.5q0 120 27.5 254.5t91 274t151.5 227.5q192 192 457 192q134 0 243.5 -49t182.5 -127l-240 -301q-83 102 -198 102q-87 0 -146 -59q-58 -58 -98 -159t-54 -183.5t-14 -144.5q0 -215 150 -215q32 0 59 10l47 213h-137l66 315h506
l-172 -788q-196 -99 -396 -99z" />
    <glyph glyph-name="H" unicode="H" horiz-adv-x="1142" 
d="M-70 0l312 1434h399l-115 -529h242l115 529h399l-311 -1434h-400l117 537h-242l-116 -537h-400z" />
    <glyph glyph-name="I" unicode="I" horiz-adv-x="509" 
d="M-66 0l312 1434h399l-311 -1434h-400z" />
    <glyph glyph-name="J" unicode="J" horiz-adv-x="823" 
d="M283 -23q-214 0 -367 138l166 313q72 -80 147 -80q51 0 84 33q37 37 58 129l198 924h400l-213 -977q-54 -251 -170 -367q-113 -113 -303 -113z" />
    <glyph glyph-name="K" unicode="K" horiz-adv-x="1091" 
d="M-70 0l312 1434h399l-104 -482l303 482h442l-438 -643l137 -791h-418l-61 465l-103 -139l-69 -326h-400z" />
    <glyph glyph-name="L" unicode="L" horiz-adv-x="872" 
d="M-70 0l312 1434h399l-229 -1067h397l-82 -367h-797z" />
    <glyph glyph-name="M" unicode="M" horiz-adv-x="1306" 
d="M-70 0l312 1434h379l112 -443l307 443h406l-311 -1434h-392l148 680l-305 -428h-4l-115 428l-150 -680h-387z" />
    <glyph glyph-name="N" unicode="N" horiz-adv-x="1167" 
d="M-70 0l312 1434h385l157 -600l134 600h389l-312 -1434h-368l-168 633l-140 -633h-389z" />
    <glyph glyph-name="O" unicode="O" horiz-adv-x="1179" 
d="M721 1464q107 0 194 -33t153 -99t102 -173.5t36 -247.5q0 -195 -71.5 -415t-210.5 -359q-78 -78 -180.5 -123t-215.5 -45q-107 0 -194 33t-153 99t-102 173.5t-36 247.5q0 123 27.5 257.5t94.5 278.5t163 240q78 78 178.5 122t214.5 44zM553 330q47 0 90 43
q72 72 119 242.5t47 302.5q0 186 -113 186q-47 0 -90 -43q-72 -72 -119 -243t-47 -302q0 -186 113 -186z" />
    <glyph glyph-name="P" unicode="P" horiz-adv-x="1032" 
d="M-70 0l312 1434h346q284 0 420 -136q102 -102 102 -274q0 -126 -40 -246t-120 -200q-172 -172 -467 -172h-67l-88 -406h-398zM678 1067q-31 31 -90 31h-23l-80 -369h25q86 0 133 47q34 34 52 90t18 105q0 61 -35 96z" />
    <glyph glyph-name="Q" unicode="Q" horiz-adv-x="1183" 
d="M721 1464q107 0 194 -33t153 -99t102 -173.5t36 -247.5q0 -149 -48.5 -327t-139.5 -320l86 -186l-289 -131l-39 90q-121 -64 -248 -64q-107 0 -194 32.5t-153 98t-102 172t-36 246.5q0 123 27.5 257.5t94.5 278.5t163 240q78 78 178.5 122t214.5 44zM551 319q29 0 61 19
l-84 180l240 107q43 151 43 293q0 186 -113 186q-47 0 -90 -43q-72 -72 -121 -250t-49 -301q0 -102 31.5 -146.5t81.5 -44.5z" />
    <glyph glyph-name="R" unicode="R" horiz-adv-x="1083" 
d="M543 0l-84 428q-5 0 -15 -1t-14 -1h-10l-92 -426h-398l312 1434h354q317 0 451 -134q100 -100 100 -276q0 -248 -143 -391q-62 -62 -160 -107l123 -526h-424zM487 733h48q86 0 137 51q30 30 47.5 85t17.5 98q0 69 -32 94q-31 31 -95 31h-45z" />
    <glyph glyph-name="S" unicode="S" horiz-adv-x="970" 
d="M406 -25q-268 0 -486 187l178 325q78 -72 161 -112.5t155 -40.5q47 0 74.5 21.5t27.5 58.5q0 33 -25 58t-104 79q-90 61 -145 117.5t-87 129t-32 160.5q0 221 141 359q141 141 377 141q242 0 440 -168l-196 -307q-134 117 -254 117q-49 0 -76 -21t-27 -57q0 -34 30 -64.5
t124 -95.5q80 -56 129 -106t81 -124t32 -167q0 -208 -142 -350q-140 -140 -376 -140z" />
    <glyph glyph-name="T" unicode="T" horiz-adv-x="972" 
d="M166 0l231 1067h-268l82 367h936l-82 -367h-268l-232 -1067h-399z" />
    <glyph glyph-name="U" unicode="U" horiz-adv-x="1126" 
d="M481 -25q-219 0 -340 103.5t-121 279.5q0 98 23 201l190 875h400l-199 -916q-12 -46 -12 -86q0 -45 27.5 -70.5t76.5 -25.5q53 0 86 33q38 38 56 120l204 945h400l-207 -957q-29 -125 -70 -210t-102 -146q-146 -146 -412 -146z" />
    <glyph glyph-name="V" unicode="V" horiz-adv-x="1114" 
d="M225 -4l-59 1438h416l-13 -789l336 789h422l-688 -1438h-414z" />
    <glyph glyph-name="W" unicode="W" horiz-adv-x="1640" 
d="M168 -4l8 1438h414l-45 -746l295 748h334l-25 -748l272 746h420l-614 -1438h-389l-2 629l-277 -629h-391z" />
    <glyph glyph-name="X" unicode="X" horiz-adv-x="1062" 
d="M-143 0l471 754l-144 680h410l47 -365l195 365h421l-446 -721l154 -713h-412l-53 408l-221 -408h-422z" />
    <glyph glyph-name="Y" unicode="Y" horiz-adv-x="1062" 
d="M203 0l112 516l-155 918h405l41 -476l244 476h430l-569 -936l-109 -498h-399z" />
    <glyph glyph-name="Z" unicode="Z" horiz-adv-x="960" 
d="M-92 0l72 319l569 754h-395l79 361h889l-69 -320l-570 -754h406l-78 -360h-903z" />
    <glyph glyph-name="bracketleft" unicode="[" horiz-adv-x="673" 
d="M-106 -266l370 1700h561l-55 -256h-225l-258 -1188h225l-57 -256h-561z" />
    <glyph glyph-name="backslash" unicode="\" horiz-adv-x="802" 
d="M420 -219l-238 1810h275l239 -1810h-276z" />
    <glyph glyph-name="bracketright" unicode="]" horiz-adv-x="673" 
d="M793 1434l-371 -1700h-561l55 256h225l258 1188h-225l57 256h562z" />
    <glyph glyph-name="asciicircum" unicode="^" horiz-adv-x="1024" 
d="M252 993l303 439h293l115 -439h-246l-58 232l-153 -232h-254z" />
    <glyph glyph-name="underscore" unicode="_" horiz-adv-x="1097" 
d="M-195 -315l56 249h1104l-54 -249h-1106z" />
    <glyph glyph-name="grave" unicode="`" horiz-adv-x="1024" 
d="M651 1171l-231 218l364 88l90 -306h-223z" />
    <glyph glyph-name="a" unicode="a" horiz-adv-x="952" 
d="M190 -23q-105 0 -163 67t-58 189q0 100 32.5 200.5t92.5 160.5q88 94 254 94q106 0 197 -45l4 16q8 21 8 54q0 50 -34.5 77t-100.5 27q-88 0 -232 -47l-34 313q188 56 374 56q201 0 311.5 -84.5t110.5 -249.5q0 -73 -18 -152l-141 -653h-387l18 88q-60 -57 -112 -84
t-122 -27zM381 219q33 0 62 30t40 83l25 125q-37 16 -70 16q-39 0 -63 -24t-36.5 -70.5t-12.5 -83.5q0 -76 55 -76z" />
    <glyph glyph-name="b" unicode="b" horiz-adv-x="1044" 
d="M588 -25q-169 0 -244 154l-29 -129h-389l320 1475h389l-103 -478q120 146 259 146q118 0 182.5 -85.5t64.5 -248.5q0 -107 -22 -239.5t-77.5 -277t-131.5 -220.5q-97 -97 -219 -97zM479 309q31 0 58 27q48 48 78 161t30 197q0 115 -72 115q-30 0 -57 -27
q-48 -48 -78 -160.5t-30 -197.5q0 -115 71 -115z" />
    <glyph glyph-name="c" unicode="c" horiz-adv-x="835" 
d="M442 -27q-193 0 -309.5 124t-116.5 337q0 65 9 130.5t30.5 141.5t65 152t104.5 137q150 150 346 150q212 0 351 -170l-209 -262q-29 39 -57.5 58.5t-67.5 19.5q-47 0 -88 -41q-48 -48 -72.5 -124t-24.5 -149q0 -83 35 -118t84 -35q64 0 131 57l121 -287q-65 -53 -152 -87
t-180 -34z" />
    <glyph glyph-name="d" unicode="d" horiz-adv-x="1042" 
d="M256 -25q-118 0 -183 85.5t-65 248.5q0 107 22.5 240t78 277.5t131.5 220.5q96 96 219 96q168 0 243 -154l105 486h389l-319 -1475h-390l27 121q-120 -146 -258 -146zM473 309q30 0 57 27q48 48 78.5 161t30.5 197q0 115 -72 115q-30 0 -57 -27q-48 -48 -78.5 -160.5
t-30.5 -197.5q0 -115 72 -115z" />
    <glyph glyph-name="e" unicode="e" horiz-adv-x="960" 
d="M909 426h-532q0 -131 147 -131q117 0 226 67l92 -282q-167 -107 -381 -107q-215 0 -332 119.5t-117 331.5q0 142 55.5 307.5t159.5 269.5q146 146 348 146q187 0 284 -112t97 -304q0 -125 -47 -305zM489 809q-44 -44 -77 -168h186q12 59 12 102t-16.5 68t-46.5 25
q-31 0 -58 -27z" />
    <glyph glyph-name="f" unicode="f" horiz-adv-x="653" 
d="M-20 0l176 811h-82l67 307h80l8 35q35 153 115 233q95 95 270 95q108 0 226 -33l-60 -266q-47 14 -86 14q-40 0 -60 -17.5t-28 -56.5l-2 -10h162l-66 -301h-157l-176 -811h-387z" />
    <glyph glyph-name="g" unicode="g" horiz-adv-x="1040" 
d="M350 -293q-245 0 -424 72l92 305q170 -78 301 -78q98 0 148 47q41 41 63 140l13 47q-122 -146 -267 -146q-119 0 -185 79t-66 235q0 160 57 354t154 291q90 90 210 90q171 0 252 -152l27 127h391l-201 -934q-53 -236 -163 -346q-131 -131 -402 -131zM487 399q31 0 58 27
q40 40 64 130.5t24 150.5q0 110 -72 110q-31 0 -57 -26q-41 -41 -64.5 -130t-23.5 -153q0 -109 71 -109z" />
    <glyph glyph-name="h" unicode="h" 
d="M-74 0l320 1475h389l-105 -484q126 152 271 152q113 0 171 -64t58 -172q0 -76 -16 -139l-166 -768h-391l145 672q10 52 10 67q0 58 -55 58q-68 0 -90 -97l-152 -700h-389z" />
    <glyph glyph-name="i" unicode="i" horiz-adv-x="493" 
d="M-70 0l242 1118h391l-241 -1118h-392zM184 1186l64 289h397l-63 -289h-398z" />
    <glyph glyph-name="j" unicode="j" horiz-adv-x="493" 
d="M-92 -295q-83 0 -160 14l51 240q28 -4 41 -4q48 0 70 23t35 88l227 1052h391l-229 -1063q-43 -197 -141.5 -273.5t-284.5 -76.5zM184 1186l64 289h397l-63 -289h-398z" />
    <glyph glyph-name="k" unicode="k" horiz-adv-x="972" 
d="M-74 0l320 1475h389l-146 -670l205 313h422l-340 -485l98 -633h-397l-31 360l-73 -92l-58 -268h-389z" />
    <glyph glyph-name="l" unicode="l" horiz-adv-x="493" 
d="M-70 0l320 1475h389l-320 -1475h-389z" />
    <glyph glyph-name="m" unicode="m" horiz-adv-x="1523" 
d="M-74 0l242 1118h387l-25 -125q57 68 122 109t153 41q167 0 207 -158q137 158 303 158q117 0 174 -63t57 -171q0 -54 -14 -129l-166 -780h-387l147 678q9 34 9 61q0 58 -54 58q-68 0 -90 -97l-151 -700h-387l147 678q8 31 8 61q0 58 -53 58q-68 0 -90 -97l-152 -700h-387z
" />
    <glyph glyph-name="n" unicode="n" 
d="M-74 0l242 1118h389l-27 -127q126 152 271 152q113 0 171 -64t58 -172q0 -76 -16 -139l-166 -768h-391l145 672q10 52 10 67q0 58 -55 58q-68 0 -90 -97l-152 -700h-389z" />
    <glyph glyph-name="o" unicode="o" 
d="M432 -29q-202 0 -310 118.5t-108 320.5q0 162 54 325t155 264q148 148 352 148q202 0 310 -119t108 -319q0 -162 -54 -325.5t-155 -264.5q-148 -148 -352 -148zM457 299q30 0 57 27q46 46 77.5 164.5t31.5 209.5q0 67 -19 93t-53 26q-31 0 -57 -26q-46 -46 -77.5 -165
t-31.5 -210q0 -67 19 -93t53 -26z" />
    <glyph glyph-name="p" unicode="p" horiz-adv-x="1044" 
d="M588 -25q-169 0 -244 154l-90 -414h-389l303 1403h389l-25 -121q120 146 259 146q118 0 182.5 -85.5t64.5 -248.5q0 -107 -22 -239.5t-77.5 -277t-131.5 -220.5q-97 -97 -219 -97zM479 309q31 0 58 27q48 48 78 161t30 197q0 115 -72 115q-30 0 -57 -27
q-48 -48 -78 -160.5t-30 -197.5q0 -115 71 -115z" />
    <glyph glyph-name="q" unicode="q" horiz-adv-x="1048" 
d="M256 -25q-118 0 -183 85.5t-65 248.5q0 107 22.5 240t78 277.5t131.5 220.5q96 96 219 96q168 0 243 -154l29 129h389l-305 -1403h-389l88 406q-120 -146 -258 -146zM473 309q30 0 57 27q48 48 78.5 161t30.5 197q0 115 -72 115q-30 0 -57 -27q-48 -48 -78.5 -160.5
t-30.5 -197.5q0 -115 72 -115z" />
    <glyph glyph-name="r" unicode="r" horiz-adv-x="677" 
d="M-74 0l242 1118h389l-41 -188q57 106 124 157.5t151 45.5l-99 -447h-18q-111 0 -174.5 -64t-93.5 -202l-91 -420h-389z" />
    <glyph glyph-name="s" unicode="s" horiz-adv-x="811" 
d="M342 -25q-241 0 -428 164l162 287q64 -62 135 -102.5t123 -40.5q29 0 44 12.5t15 32.5q0 6 -1 10.5t-3.5 9.5t-5 8.5t-8.5 9t-10.5 9t-14.5 10.5t-17 12t-21 14.5t-25 16.5q-110 74 -161.5 146t-51.5 171q0 170 111 284t302 114q216 0 396 -135l-164 -289
q-53 48 -114 82.5t-111 34.5q-56 0 -56 -43q0 -17 15 -31t65 -47q15 -9 23 -15q54 -36 89.5 -66t67.5 -69t47 -85t15 -101q0 -79 -27 -150.5t-78 -128.5t-132 -91t-181 -34z" />
    <glyph glyph-name="t" unicode="t" horiz-adv-x="669" 
d="M326 -23q-139 0 -218 58t-79 172q0 48 16 123l105 481h-82l67 307h82l57 266h388l-58 -266h166l-68 -307h-165l-86 -397q-9 -27 -9 -64q0 -47 62 -47q45 0 90 16l-68 -311q-108 -31 -200 -31z" />
    <glyph glyph-name="u" unicode="u" 
d="M207 -25q-113 0 -171.5 64t-58.5 172q0 72 17 139l166 768h391l-145 -672q-11 -57 -11 -67q0 -57 56 -57q69 0 90 96l151 700h389l-241 -1118h-389l26 127q-126 -152 -270 -152z" />
    <glyph glyph-name="v" unicode="v" horiz-adv-x="989" 
d="M184 -6l-71 1124h395l-19 -577l232 577h403l-557 -1124h-383z" />
    <glyph glyph-name="w" unicode="w" horiz-adv-x="1355" 
d="M123 -6l-4 1124h375l-33 -500l186 502h301l-26 -504l182 502h381l-492 -1124h-331l-7 459l-194 -459h-338z" />
    <glyph glyph-name="x" unicode="x" horiz-adv-x="964" 
d="M510 1118l35 -258l143 258h406l-385 -569l147 -549h-387l-39 276l-151 -276h-406l393 582l-143 536h387z" />
    <glyph glyph-name="y" unicode="y" horiz-adv-x="985" 
d="M186 25l-69 1093h387l-10 -581l231 581h397l-526 -1087q-89 -181 -176.5 -253.5t-233.5 -72.5q-136 0 -260 74l105 278q67 -47 112 -47q28 0 43 15z" />
    <glyph glyph-name="z" unicode="z" horiz-adv-x="845" 
d="M-92 0l59 274l445 527h-322l68 317h786l-59 -274l-445 -527h332l-70 -317h-794z" />
    <glyph glyph-name="braceleft" unicode="{" horiz-adv-x="778" 
d="M618 -37l-75 -239q-240 23 -342.5 100t-102.5 196q0 77 49 185q46 109 46 157q0 93 -146 93h-39l58 260h36q117 0 164 47q29 29 41 82.5t12 152.5t20.5 179.5t82.5 142.5q132 132 481 129l8 -248q-153 -3 -211 -61q-33 -33 -42 -84t-9 -146t-14.5 -151t-54.5 -96
q-67 -67 -222 -87q91 -23 136 -72.5t45 -119.5q0 -69 -47 -172q-39 -82 -39 -127q0 -49 35.5 -76.5t129.5 -44.5z" />
    <glyph glyph-name="bar" unicode="|" horiz-adv-x="528" 
d="M-39 -219l395 1810h267l-396 -1810h-266z" />
    <glyph glyph-name="braceright" unicode="}" horiz-adv-x="778" 
d="M172 1206l76 240q239 -23 341.5 -100t102.5 -197q0 -76 -49 -184q-45 -106 -45 -158q0 -92 145 -92h39l-57 -260h-37q-117 0 -164 -47q-29 -29 -41 -83t-12 -153q0 -100 -20 -180t-82 -142q-132 -132 -482 -129l-8 248q152 3 211 62q33 33 42 83.5t9 145.5t15 151.5
t55 96.5q66 66 221 86q-180 45 -180 192q0 69 47 172q39 82 39 127q0 47 -36.5 75.5t-129.5 45.5z" />
    <glyph glyph-name="asciitilde" unicode="~" horiz-adv-x="817" 
d="M213 487l-162 45q40 130 105 196.5t141 66.5q68 0 145 -41q8 -3 22 -9t20 -8t16 -6t15 -5.5t12 -3.5t12.5 -2.5t11.5 -0.5q29 0 48.5 19t41.5 63l162 -47q-40 -129 -104.5 -194.5t-139.5 -65.5q-66 0 -147 38q-81 37 -109 37t-48.5 -19.5t-41.5 -62.5z" />
    <glyph glyph-name="uni00A0" unicode="&#xa0;" horiz-adv-x="0" 
 />
    <glyph glyph-name="exclamdown" unicode="&#xa1;" horiz-adv-x="528" 
d="M449 971l-43 -858l-23 -113h-461l23 113l321 858h183zM659 1434l-79 -367h-406l80 367h405z" />
    <glyph glyph-name="cent" unicode="&#xa2;" horiz-adv-x="856" 
d="M578 1444h243l-45 -166q109 -46 185 -137l-199 -248q-31 44 -62 65t-73 21q-56 0 -101 -45q-52 -52 -79 -135t-27 -164q0 -90 39 -130t94 -40q29 0 57.5 11t40.5 19.5t47 34.5l115 -272q-143 -118 -326 -121l-38 -149h-244l53 205q-98 56 -150.5 159.5t-52.5 247.5
q0 88 16.5 178t66.5 198.5t128 186.5q121 121 275 142z" />
    <glyph glyph-name="sterling" unicode="&#xa3;" horiz-adv-x="970" 
d="M-76 0l56 260l149 66l47 213h-131l68 307h129l22 112q26 130 66.5 217t105.5 154q135 129 340 129q106 0 187 -31t157 -84l-172 -305q-74 60 -143 60q-55 0 -92 -37q-38 -38 -62 -135l-16 -80h278l-65 -307h-279l-41 -193h377l-74 -346h-907z" />
    <glyph glyph-name="yen" unicode="&#xa5;" horiz-adv-x="1073" 
d="M211 0l41 193h-266l57 266h266l19 84h-267l60 266h184l-141 625h393l59 -457l232 457h428l-412 -625h183l-58 -266h-266l-18 -84h266l-58 -266h-268l-41 -193h-393z" />
    <glyph glyph-name="section" unicode="&#xa7;" horiz-adv-x="999" 
d="M1012 762q0 -106 -66.5 -177t-167.5 -104q60 -74 60 -172q0 -148 -109 -242t-289 -94q-230 0 -450 150l147 254q51 -40 132 -78.5t139 -38.5q63 0 63 47q0 23 -26 41.5t-111 54.5q-151 64 -215 123t-64 146q0 195 234 280q-60 74 -60 172q0 148 109 242t289 94
q232 0 450 -149l-147 -254q-51 40 -132 78.5t-139 38.5q-63 0 -63 -48q0 -24 25.5 -42t111.5 -54q151 -64 215 -122.5t64 -145.5zM371 754q0 -27 30.5 -55t116.5 -66q68 -27 98 -27q32 0 56 21.5t24 52.5q0 27 -30.5 55t-116.5 66q-65 26 -98 26t-56.5 -21.5t-23.5 -51.5z
" />
    <glyph glyph-name="dieresis" unicode="&#xa8;" horiz-adv-x="1024" 
d="M328 1171l59 271h289l-60 -271h-288zM676 1171l59 271h287l-59 -271h-287z" />
    <glyph glyph-name="copyright" unicode="&#xa9;" horiz-adv-x="1230" 
d="M647 289q-144 0 -227.5 88.5t-83.5 251.5q0 115 41.5 229t116.5 189q112 104 249 104q141 0 250 -109l-145 -182q-38 60 -98 60q-45 0 -80 -35q-39 -39 -60.5 -109.5t-21.5 -128.5q0 -125 100 -125q50 0 100 43l86 -196q-107 -80 -227 -80zM1225 901q0 -127 -23.5 -255
t-87.5 -268.5t-162 -238.5q-83 -83 -179.5 -126.5t-223.5 -43.5q-219 0 -347 148.5t-128 414.5q0 128 23.5 255.5t87 268t161.5 238.5q83 83 180 126.5t224 43.5q218 0 346.5 -149t128.5 -414zM154 535q0 -230 105 -360t296 -130q108 0 188 34.5t154 108.5q88 88 146 220
t80 253t22 238q0 230 -105.5 360t-296.5 130q-107 0 -187.5 -35t-154.5 -109q-87 -87 -145.5 -219.5t-80 -253t-21.5 -237.5z" />
    <glyph glyph-name="ordfeminine" unicode="&#xaa;" horiz-adv-x="589" 
d="M254 817q-55 0 -87 36.5t-32 104.5q0 24 5.5 53.5t21 64t38 62.5t61.5 47t87 19q44 0 105 -22l2 10q2 14 2 27q0 26 -18 39.5t-48 13.5q-49 0 -129 -35l-18 170q98 39 217 39q104 0 158.5 -44.5t54.5 -129.5q0 -41 -8 -72l-80 -371h-211l12 54q-66 -66 -133 -66zM362 950
q19 0 34.5 17t21.5 47l14 65q-26 11 -39 11q-30 0 -45.5 -35t-15.5 -64q0 -41 30 -41zM51 561l37 174h487l-38 -174h-486z" />
    <glyph glyph-name="guillemotleft" unicode="&#xab;" horiz-adv-x="968" 
d="M197 82l-181 438l25 105l350 417l201 -120l-244 -365l94 -381zM610 78l-190 469l4 18l393 467l203 -121l-252 -370l88 -367z" />
    <glyph glyph-name="registered" unicode="&#xae;" horiz-adv-x="606" 
d="M471 1452q105 0 169.5 -71.5t64.5 -188.5q0 -96 -34.5 -198t-97.5 -165q-86 -86 -202 -86q-106 0 -170 72t-64 189q0 97 33.5 198.5t95.5 163.5q86 86 205 86zM373 778q103 0 174 74q58 58 88.5 153t30.5 183q0 106 -52 167.5t-147 61.5q-101 0 -172 -74
q-58 -58 -89.5 -153t-31.5 -182q0 -104 53 -167t146 -63zM383 1022l-25 -119h-112l84 400h102q158 0 158 -119q0 -92 -86 -131l37 -150h-121l-25 119h-12zM403 1112h13q27 0 41 14q18 18 18 45q0 35 -37 35h-14z" />
    <glyph glyph-name="macron" unicode="&#xaf;" horiz-adv-x="1024" 
d="M336 1182l49 223h621l-50 -223h-620z" />
    <glyph glyph-name="degree" unicode="&#xb0;" horiz-adv-x="677" 
d="M481 1450q130 0 201.5 -83.5t71.5 -211.5q0 -96 -34.5 -199t-103.5 -172q-88 -88 -210 -88q-130 0 -201.5 82.5t-71.5 212.5q0 96 34.5 199.5t102.5 171.5q88 88 211 88zM414 903q24 0 45 21q33 33 51 104.5t18 126.5q0 88 -55 88q-25 0 -45 -20q-33 -33 -51.5 -105
t-18.5 -127q0 -88 56 -88z" />
    <glyph glyph-name="plusminus" unicode="&#xb1;" horiz-adv-x="1021" 
d="M309 391l64 293h-285l70 320h284l64 292h336l-66 -292h285l-70 -320h-284l-64 -293h-334zM-61 0l65 299h901l-65 -299h-901z" />
    <glyph glyph-name="acute" unicode="&#xb4;" horiz-adv-x="1024" 
d="M408 1171l225 306l346 -88l-328 -218h-243z" />
    <glyph glyph-name="mu" unicode="&#xb5;" horiz-adv-x="1130" 
d="M442 -12q-117 0 -153 127l-8 -2q3 -163 -25 -312l-20 -86h-373l305 1403h391l-145 -676q-11 -57 -11 -65q0 -26 16 -43t46 -17q71 0 90 91l152 710h391l-154 -723q-10 -52 -10 -55q0 -47 67 -47q24 0 56 4l-64 -285q-92 -32 -180 -32q-87 0 -133 31.5t-64 92.5
q-70 -116 -174 -116z" />
    <glyph glyph-name="paragraph" unicode="&#xb6;" horiz-adv-x="872" 
d="M352 0l99 451q-179 28 -269 118q-96 96 -96 258q0 271 164 435q172 172 473 172h291l-309 -1434h-353z" />
    <glyph glyph-name="periodcentered" unicode="&#xb7;" horiz-adv-x="479" 
d="M10 442l90 406h406l-90 -406h-406z" />
    <glyph glyph-name="cedilla" unicode="&#xb8;" horiz-adv-x="1024" 
d="M375 -297l-326 94l240 244h250z" />
    <glyph glyph-name="ordmasculine" unicode="&#xba;" horiz-adv-x="589" 
d="M53 561l37 174h465l-37 -174h-465zM346 1057q0 -68 41 -68q16 0 31 15q25 25 41 87.5t16 106.5q0 68 -41 68q-16 0 -31 -15q-25 -25 -41 -87.5t-16 -106.5zM678 1196q0 -82 -29 -167t-88 -144q-78 -78 -186 -78q-114 0 -173 68t-59 184q0 82 29 167t88 144q78 78 186 78
q114 0 173 -68t59 -184z" />
    <glyph glyph-name="guillemotright" unicode="&#xbb;" horiz-adv-x="968" 
d="M774 1038l180 -438l-24 -104l-350 -418l-201 121l244 364l-95 381zM360 1042l191 -469l-4 -18l-393 -467l-203 121l252 371l-88 366z" />
    <glyph glyph-name="questiondown" unicode="&#xbf;" horiz-adv-x="892" 
d="M711 971l-41 -371l-15 -16q-258 -33 -258 -152q0 -84 101 -84q35 0 95.5 20.5t117.5 55.5l88 -334q-201 -108 -400 -108q-194 0 -305.5 95.5t-111.5 260.5q0 166 100.5 286.5t296.5 166.5l82 180h250zM891 1434l-82 -367h-403l79 367h406z" />
    <glyph glyph-name="Agrave" unicode="&#xc0;" horiz-adv-x="1153" 
d="M-143 0l688 1438h448l64 -1438h-404v219h-293l-92 -219h-411zM494 530h163l5 404zM641 1507l-219 183l397 77l84 -260h-262z" />
    <glyph glyph-name="Aacute" unicode="&#xc1;" horiz-adv-x="1153" 
d="M-143 0l688 1438h448l64 -1438h-404v219h-293l-92 -219h-411zM494 530h163l5 404zM635 1507l201 260l385 -77l-301 -183h-285z" />
    <glyph glyph-name="Acircumflex" unicode="&#xc2;" horiz-adv-x="1153" 
d="M-143 0l688 1438h448l64 -1438h-404v219h-293l-92 -219h-411zM494 530h163l5 404zM442 1507l232 240h309l127 -240h-219l-90 78l-125 -78h-234z" />
    <glyph glyph-name="Atilde" unicode="&#xc3;" horiz-adv-x="1153" 
d="M-143 0l688 1438h448l64 -1438h-404v219h-293l-92 -219h-411zM494 530h163l5 404zM600 1495l-168 33q71 274 234 274q52 0 153 -37q82 -30 115 -30q30 0 48 16.5t36 56.5l168 -32q-71 -275 -234 -275q-52 0 -153 37q-85 31 -115 31t-48 -17t-36 -57z" />
    <glyph glyph-name="Adieresis" unicode="&#xc4;" horiz-adv-x="1153" 
d="M-143 0l688 1438h448l64 -1438h-404v219h-293l-92 -219h-411zM494 530h163l5 404zM459 1507l55 254h293l-55 -254h-293zM813 1507l55 254h295l-57 -254h-293z" />
    <glyph glyph-name="Aring" unicode="&#xc5;" horiz-adv-x="1155" 
d="M-143 0l675 1419l13 -4q-19 43 -19 86q0 103 79 176.5t200 73.5q95 0 162 -56.5t67 -142.5q0 -73 -43 -135l4 2l62 -1419h-404v219h-293l-92 -219h-411zM768 1409q60 0 97.5 39.5t37.5 89.5q0 45 -30 72.5t-80 27.5q-60 0 -98 -39.5t-38 -89.5q0 -45 30 -72.5t81 -27.5z
M494 530h163l5 404z" />
    <glyph glyph-name="AE" unicode="&#xc6;" horiz-adv-x="1574" 
d="M-152 0l746 1434h1124l-80 -361h-448l-39 -182h408l-74 -340h-408l-41 -191h457l-80 -360h-850l47 219h-252l-102 -219h-408zM506 530h172l121 555h-23z" />
    <glyph glyph-name="Ccedilla" unicode="&#xc7;" horiz-adv-x="1015" 
d="M434 -297l-325 94l221 226q-135 62 -209 197.5t-74 330.5q0 207 68.5 403.5t201.5 329.5q174 174 412 174q130 0 240 -49t184 -133l-240 -301q-78 102 -178 102q-74 0 -127 -53q-74 -74 -111.5 -202t-37.5 -234q0 -230 164 -230q50 0 92 21.5t90 60.5l141 -323
q-180 -139 -381 -142z" />
    <glyph glyph-name="Egrave" unicode="&#xc8;" horiz-adv-x="956" 
d="M-70 0l312 1434h858l-80 -361h-459l-41 -182h420l-74 -340h-420l-40 -191h468l-79 -360h-865zM541 1489l-219 182l397 78l84 -260h-262z" />
    <glyph glyph-name="Eacute" unicode="&#xc9;" horiz-adv-x="956" 
d="M-70 0l312 1434h858l-80 -361h-459l-41 -182h420l-74 -340h-420l-40 -191h468l-79 -360h-865zM535 1489l200 260l385 -78l-301 -182h-284z" />
    <glyph glyph-name="Ecircumflex" unicode="&#xca;" horiz-adv-x="956" 
d="M-70 0l312 1434h858l-80 -361h-459l-41 -182h420l-74 -340h-420l-40 -191h468l-79 -360h-865zM344 1489l231 240h310l127 -240h-219l-91 78l-124 -78h-234z" />
    <glyph glyph-name="Edieresis" unicode="&#xcb;" horiz-adv-x="956" 
d="M-70 0l312 1434h858l-80 -361h-459l-41 -182h420l-74 -340h-420l-40 -191h468l-79 -360h-865zM362 1489l56 254h293l-56 -254h-293zM717 1489l55 254h295l-57 -254h-293z" />
    <glyph glyph-name="Igrave" unicode="&#xcc;" horiz-adv-x="509" 
d="M-66 0l312 1434h399l-311 -1434h-400zM313 1489l-219 182l398 78l83 -260h-262z" />
    <glyph glyph-name="Iacute" unicode="&#xcd;" horiz-adv-x="509" 
d="M-66 0l312 1434h399l-311 -1434h-400zM309 1489l201 260l385 -78l-301 -182h-285z" />
    <glyph glyph-name="Icircumflex" unicode="&#xce;" horiz-adv-x="509" 
d="M-66 0l312 1434h399l-311 -1434h-400zM117 1489l231 240h309l127 -240h-219l-90 78l-125 -78h-233z" />
    <glyph glyph-name="Idieresis" unicode="&#xcf;" horiz-adv-x="509" 
d="M-66 0l312 1434h399l-311 -1434h-400zM135 1489l55 254h293l-55 -254h-293zM489 1489l56 254h295l-58 -254h-293z" />
    <glyph glyph-name="Eth" unicode="&#xd0;" horiz-adv-x="1214" 
d="M25 563l69 316h99l120 555h310q327 0 483 -156q133 -133 133 -377q0 -104 -24.5 -228t-82.5 -257.5t-139 -214.5q-201 -201 -573 -201h-418l121 563h-98zM784 1032q-50 47 -143 47h-16l-45 -205h114l-67 -307h-113l-45 -213h25q124 0 200 76q65 65 104.5 195.5
t39.5 240.5q0 66 -13.5 102.5t-40.5 63.5z" />
    <glyph glyph-name="Ntilde" unicode="&#xd1;" horiz-adv-x="1167" 
d="M-70 0l312 1434h385l157 -600l134 600h389l-312 -1434h-368l-168 633l-140 -633h-389zM602 1477l-168 32q71 275 234 275q52 0 153 -37q85 -31 115 -31t48 17t36 57l168 -33q-71 -274 -234 -274q-52 0 -153 37q-82 30 -115 30q-30 0 -48 -16.5t-36 -56.5z" />
    <glyph glyph-name="Ograve" unicode="&#xd2;" horiz-adv-x="1179" 
d="M721 1464q107 0 194 -33t153 -99t102 -173.5t36 -247.5q0 -195 -71.5 -415t-210.5 -359q-78 -78 -180.5 -123t-215.5 -45q-107 0 -194 33t-153 99t-102 173.5t-36 247.5q0 123 27.5 257.5t94.5 278.5t163 240q78 78 178.5 122t214.5 44zM553 330q47 0 90 43
q72 72 119 242.5t47 302.5q0 186 -113 186q-47 0 -90 -43q-72 -72 -119 -243t-47 -302q0 -186 113 -186zM643 1507l-219 183l397 77l84 -260h-262z" />
    <glyph glyph-name="Oacute" unicode="&#xd3;" horiz-adv-x="1179" 
d="M721 1464q107 0 194 -33t153 -99t102 -173.5t36 -247.5q0 -195 -71.5 -415t-210.5 -359q-78 -78 -180.5 -123t-215.5 -45q-107 0 -194 33t-153 99t-102 173.5t-36 247.5q0 123 27.5 257.5t94.5 278.5t163 240q78 78 178.5 122t214.5 44zM553 330q47 0 90 43
q72 72 119 242.5t47 302.5q0 186 -113 186q-47 0 -90 -43q-72 -72 -119 -243t-47 -302q0 -186 113 -186zM637 1507l201 260l385 -77l-301 -183h-285z" />
    <glyph glyph-name="Ocircumflex" unicode="&#xd4;" horiz-adv-x="1179" 
d="M721 1464q107 0 194 -33t153 -99t102 -173.5t36 -247.5q0 -195 -71.5 -415t-210.5 -359q-78 -78 -180.5 -123t-215.5 -45q-107 0 -194 33t-153 99t-102 173.5t-36 247.5q0 123 27.5 257.5t94.5 278.5t163 240q78 78 178.5 122t214.5 44zM553 330q47 0 90 43
q72 72 119 242.5t47 302.5q0 186 -113 186q-47 0 -90 -43q-72 -72 -119 -243t-47 -302q0 -186 113 -186zM444 1507l232 240h309l127 -240h-219l-90 78l-125 -78h-234z" />
    <glyph glyph-name="Otilde" unicode="&#xd5;" horiz-adv-x="1179" 
d="M721 1464q107 0 194 -33t153 -99t102 -173.5t36 -247.5q0 -195 -71.5 -415t-210.5 -359q-78 -78 -180.5 -123t-215.5 -45q-107 0 -194 33t-153 99t-102 173.5t-36 247.5q0 123 27.5 257.5t94.5 278.5t163 240q78 78 178.5 122t214.5 44zM553 330q47 0 90 43
q72 72 119 242.5t47 302.5q0 186 -113 186q-47 0 -90 -43q-72 -72 -119 -243t-47 -302q0 -186 113 -186zM602 1495l-168 33q71 274 234 274q52 0 153 -37q82 -30 115 -30q30 0 48 16.5t36 56.5l168 -32q-71 -275 -234 -275q-52 0 -153 37q-85 31 -115 31t-48 -17t-36 -57z
" />
    <glyph glyph-name="Odieresis" unicode="&#xd6;" horiz-adv-x="1179" 
d="M721 1464q107 0 194 -33t153 -99t102 -173.5t36 -247.5q0 -195 -71.5 -415t-210.5 -359q-78 -78 -180.5 -123t-215.5 -45q-107 0 -194 33t-153 99t-102 173.5t-36 247.5q0 123 27.5 257.5t94.5 278.5t163 240q78 78 178.5 122t214.5 44zM553 330q47 0 90 43
q72 72 119 242.5t47 302.5q0 186 -113 186q-47 0 -90 -43q-72 -72 -119 -243t-47 -302q0 -186 113 -186zM463 1507l55 254h293l-55 -254h-293zM817 1507l55 254h295l-57 -254h-293z" />
    <glyph glyph-name="multiply" unicode="&#xd7;" horiz-adv-x="1021" 
d="M233 256l-200 256l282 227l-176 224l264 217l177 -226l276 232l203 -256l-281 -228l174 -225l-264 -219l-172 229z" />
    <glyph glyph-name="Oslash" unicode="&#xd8;" horiz-adv-x="1181" 
d="M715 1464q208 0 338 -118l82 98h196l-188 -219q63 -117 63 -289q0 -137 -26 -277.5t-90.5 -285.5t-157.5 -238q-166 -166 -400 -166q-210 0 -337 121l-80 -100h-199l186 225q-59 121 -59 283q0 137 26 277.5t90.5 285t157.5 237.5q166 166 398 166zM551 317q56 0 104 48
q61 61 109 223t63 295l-383 -510q35 -56 107 -56zM594 1069q-59 -59 -108.5 -216.5t-63.5 -285.5l379 500q-34 49 -103 49q-57 0 -104 -47z" />
    <glyph glyph-name="Ugrave" unicode="&#xd9;" horiz-adv-x="1126" 
d="M481 -25q-219 0 -340 103.5t-121 279.5q0 98 23 201l190 875h400l-199 -916q-12 -46 -12 -86q0 -45 27.5 -70.5t76.5 -25.5q53 0 86 33q38 38 56 120l204 945h400l-207 -957q-29 -125 -70 -210t-102 -146q-146 -146 -412 -146zM621 1489l-220 182l398 78l84 -260h-262z
" />
    <glyph glyph-name="Uacute" unicode="&#xda;" horiz-adv-x="1126" 
d="M481 -25q-219 0 -340 103.5t-121 279.5q0 98 23 201l190 875h400l-199 -916q-12 -46 -12 -86q0 -45 27.5 -70.5t76.5 -25.5q53 0 86 33q38 38 56 120l204 945h400l-207 -957q-29 -125 -70 -210t-102 -146q-146 -146 -412 -146zM614 1489l201 260l385 -78l-301 -182h-285z
" />
    <glyph glyph-name="Ucircumflex" unicode="&#xdb;" horiz-adv-x="1126" 
d="M481 -25q-219 0 -340 103.5t-121 279.5q0 98 23 201l190 875h400l-199 -916q-12 -46 -12 -86q0 -45 27.5 -70.5t76.5 -25.5q53 0 86 33q38 38 56 120l204 945h400l-207 -957q-29 -125 -70 -210t-102 -146q-146 -146 -412 -146zM422 1489l231 240h310l127 -240h-220
l-90 78l-125 -78h-233z" />
    <glyph glyph-name="Udieresis" unicode="&#xdc;" horiz-adv-x="1126" 
d="M481 -25q-219 0 -340 103.5t-121 279.5q0 98 23 201l190 875h400l-199 -916q-12 -46 -12 -86q0 -45 27.5 -70.5t76.5 -25.5q53 0 86 33q38 38 56 120l204 945h400l-207 -957q-29 -125 -70 -210t-102 -146q-146 -146 -412 -146zM440 1489l56 254h292l-55 -254h-293z
M795 1489l55 254h295l-58 -254h-292z" />
    <glyph glyph-name="Yacute" unicode="&#xdd;" horiz-adv-x="1062" 
d="M203 0l112 516l-155 918h405l41 -476l244 476h430l-569 -936l-109 -498h-399zM573 1489l201 260l385 -78l-301 -182h-285z" />
    <glyph glyph-name="Thorn" unicode="&#xde;" horiz-adv-x="1030" 
d="M-70 0l312 1434h397l-41 -187q250 -10 369 -129q102 -102 102 -274q0 -126 -40 -246.5t-120 -200.5q-168 -168 -467 -168h-67l-47 -229h-398zM444 549h25q86 0 133 47q34 34 52 90t18 105q0 61 -35 96q-31 31 -90 31h-23z" />
    <glyph glyph-name="germandbls" unicode="&#xdf;" horiz-adv-x="1064" 
d="M401 0l66 301q83 13 125.5 62t42.5 120q0 99 -100 125l53 250q69 22 107 80t38 127q0 96 -76 96q-85 0 -122 -172l-216 -989h-389l220 1012q47 220 161 334q137 137 377 137q200 0 315 -101t115 -264q0 -147 -68.5 -249.5t-201.5 -151.5q166 -83 166 -268
q0 -221 -160.5 -347t-452.5 -102z" />
    <glyph glyph-name="agrave" unicode="&#xe0;" horiz-adv-x="952" 
d="M190 -23q-105 0 -163 67t-58 189q0 100 32.5 200.5t92.5 160.5q88 94 254 94q106 0 197 -45l4 16q8 21 8 54q0 50 -34.5 77t-100.5 27q-88 0 -232 -47l-34 313q188 56 374 56q201 0 311.5 -84.5t110.5 -249.5q0 -73 -18 -152l-141 -653h-387l18 88q-60 -57 -112 -84
t-122 -27zM381 219q33 0 62 30t40 83l25 125q-37 16 -70 16q-39 0 -63 -24t-36.5 -70.5t-12.5 -83.5q0 -76 55 -76zM502 1188l-232 217l365 88l90 -305h-223z" />
    <glyph glyph-name="aacute" unicode="&#xe1;" horiz-adv-x="952" 
d="M190 -23q-105 0 -163 67t-58 189q0 100 32.5 200.5t92.5 160.5q88 94 254 94q106 0 197 -45l4 16q8 21 8 54q0 50 -34.5 77t-100.5 27q-88 0 -232 -47l-34 313q188 56 374 56q201 0 311.5 -84.5t110.5 -249.5q0 -73 -18 -152l-141 -653h-387l18 88q-60 -57 -112 -84
t-122 -27zM381 219q33 0 62 30t40 83l25 125q-37 16 -70 16q-39 0 -63 -24t-36.5 -70.5t-12.5 -83.5q0 -76 55 -76zM465 1188l225 305l346 -88l-327 -217h-244z" />
    <glyph glyph-name="acircumflex" unicode="&#xe2;" horiz-adv-x="952" 
d="M190 -23q-105 0 -163 67t-58 189q0 100 32.5 200.5t92.5 160.5q88 94 254 94q106 0 197 -45l4 16q8 21 8 54q0 50 -34.5 77t-100.5 27q-88 0 -232 -47l-34 313q188 56 374 56q201 0 311.5 -84.5t110.5 -249.5q0 -73 -18 -152l-141 -653h-387l18 88q-60 -57 -112 -84
t-122 -27zM381 219q33 0 62 30t40 83l25 125q-37 16 -70 16q-39 0 -63 -24t-36.5 -70.5t-12.5 -83.5q0 -76 55 -76zM272 1188l256 274h277l133 -274h-203l-102 92l-141 -92h-220z" />
    <glyph glyph-name="atilde" unicode="&#xe3;" horiz-adv-x="952" 
d="M190 -23q-105 0 -163 67t-58 189q0 100 32.5 200.5t92.5 160.5q88 94 254 94q106 0 197 -45l4 16q8 21 8 54q0 50 -34.5 77t-100.5 27q-88 0 -232 -47l-34 313q188 56 374 56q201 0 311.5 -84.5t110.5 -249.5q0 -73 -18 -152l-141 -653h-387l18 88q-60 -57 -112 -84
t-122 -27zM381 219q33 0 62 30t40 83l25 125q-37 16 -70 16q-39 0 -63 -24t-36.5 -70.5t-12.5 -83.5q0 -76 55 -76zM838 1491l168 -35q-36 -137 -95.5 -204.5t-136.5 -67.5q-63 0 -147 35q-82 30 -115 30q-30 0 -47.5 -15.5t-36.5 -57.5l-168 34q36 138 95.5 205.5
t136.5 67.5q65 0 149 -35q85 -33 113 -33q30 0 47 16.5t37 59.5z" />
    <glyph glyph-name="adieresis" unicode="&#xe4;" horiz-adv-x="952" 
d="M190 -23q-105 0 -163 67t-58 189q0 100 32.5 200.5t92.5 160.5q88 94 254 94q106 0 197 -45l4 16q8 21 8 54q0 50 -34.5 77t-100.5 27q-88 0 -232 -47l-34 313q188 56 374 56q201 0 311.5 -84.5t110.5 -249.5q0 -73 -18 -152l-141 -653h-387l18 88q-60 -57 -112 -84
t-122 -27zM381 219q33 0 62 30t40 83l25 125q-37 16 -70 16q-39 0 -63 -24t-36.5 -70.5t-12.5 -83.5q0 -76 55 -76zM289 1188l59 270h289l-59 -270h-289zM637 1188l59 270h287l-59 -270h-287z" />
    <glyph glyph-name="aring" unicode="&#xe5;" horiz-adv-x="952" 
d="M190 -23q-105 0 -163 67t-58 189q0 100 32.5 200.5t92.5 160.5q88 94 254 94q106 0 197 -45l4 16q8 21 8 54q0 50 -34.5 77t-100.5 27q-88 0 -232 -47l-34 313q188 56 374 56q201 0 311.5 -84.5t110.5 -249.5q0 -73 -18 -152l-141 -653h-387l18 88q-60 -57 -112 -84
t-122 -27zM381 219q33 0 62 30t40 83l25 125q-37 16 -70 16q-39 0 -63 -24t-36.5 -70.5t-12.5 -83.5q0 -76 55 -76zM891 1442q0 -103 -73 -179.5t-187 -76.5q-90 0 -148.5 53t-58.5 143q0 101 73 177.5t187 76.5q89 0 148 -52t59 -142zM553 1389q0 -39 24 -65t64 -26
q50 0 85.5 38.5t35.5 97.5q0 39 -24 65.5t-64 26.5q-51 0 -86 -38.5t-35 -98.5z" />
    <glyph glyph-name="ae" unicode="&#xe6;" horiz-adv-x="1445" 
d="M233 -23q-121 0 -192.5 66t-71.5 186q0 104 32.5 204.5t92.5 160.5q88 94 254 94q106 0 197 -45l4 16q8 21 8 54q0 50 -34.5 77t-100.5 27q-88 0 -232 -47l-34 313q188 56 374 56q196 0 291 -92q121 100 264 100q170 0 263.5 -113t93.5 -303q0 -125 -47 -305h-533
q0 -68 40 -99.5t108 -31.5q116 0 225 67l92 -284q-167 -107 -381 -107q-127 0 -221.5 43.5t-149.5 122.5q-147 -160 -342 -160zM391 229q66 0 123 76q-13 78 -4 158q-37 16 -70 16q-39 0 -63 -24q-26 -26 -38.5 -68.5t-12.5 -79.5q0 -78 65 -78zM975 809q-46 -46 -78 -168
h186q13 64 13 102q0 43 -17 68t-47 25t-57 -27z" />
    <glyph glyph-name="ccedilla" unicode="&#xe7;" horiz-adv-x="835" 
d="M336 -297l-326 94l221 226q-102 55 -158.5 160.5t-56.5 250.5q0 65 9 130.5t30.5 141.5t65 152t104.5 137q150 150 346 150q212 0 351 -170l-209 -262q-29 39 -57.5 58.5t-67.5 19.5q-47 0 -88 -41q-48 -48 -72.5 -124t-24.5 -149q0 -83 35 -118t84 -35q64 0 131 57
l121 -287q-130 -110 -307 -119z" />
    <glyph glyph-name="egrave" unicode="&#xe8;" horiz-adv-x="960" 
d="M909 426h-532q0 -131 147 -131q117 0 226 67l92 -282q-167 -107 -381 -107q-215 0 -332 119.5t-117 331.5q0 142 55.5 307.5t159.5 269.5q146 146 348 146q187 0 284 -112t97 -304q0 -125 -47 -305zM489 809q-44 -44 -77 -168h186q12 59 12 102t-16.5 68t-46.5 25
q-31 0 -58 -27zM514 1188l-231 217l364 88l90 -305h-223z" />
    <glyph glyph-name="eacute" unicode="&#xe9;" horiz-adv-x="960" 
d="M909 426h-532q0 -131 147 -131q117 0 226 67l92 -282q-167 -107 -381 -107q-215 0 -332 119.5t-117 331.5q0 142 55.5 307.5t159.5 269.5q146 146 348 146q187 0 284 -112t97 -304q0 -125 -47 -305zM489 809q-44 -44 -77 -168h186q12 59 12 102t-16.5 68t-46.5 25
q-31 0 -58 -27zM477 1188l225 305l347 -88l-328 -217h-244z" />
    <glyph glyph-name="ecircumflex" unicode="&#xea;" horiz-adv-x="960" 
d="M909 426h-532q0 -131 147 -131q117 0 226 67l92 -282q-167 -107 -381 -107q-215 0 -332 119.5t-117 331.5q0 142 55.5 307.5t159.5 269.5q146 146 348 146q187 0 284 -112t97 -304q0 -125 -47 -305zM489 809q-44 -44 -77 -168h186q12 59 12 102t-16.5 68t-46.5 25
q-31 0 -58 -27zM285 1188l256 274h276l133 -274h-202l-103 92l-141 -92h-219z" />
    <glyph glyph-name="edieresis" unicode="&#xeb;" horiz-adv-x="960" 
d="M909 426h-532q0 -131 147 -131q117 0 226 67l92 -282q-167 -107 -381 -107q-215 0 -332 119.5t-117 331.5q0 142 55.5 307.5t159.5 269.5q146 146 348 146q187 0 284 -112t97 -304q0 -125 -47 -305zM489 809q-44 -44 -77 -168h186q12 59 12 102t-16.5 68t-46.5 25
q-31 0 -58 -27zM301 1188l59 270h289l-59 -270h-289zM649 1188l60 270h286l-59 -270h-287z" />
    <glyph glyph-name="igrave" unicode="&#xec;" horiz-adv-x="493" 
d="M-70 0l242 1118h391l-241 -1118h-392zM274 1171l-231 218l365 88l90 -306h-224z" />
    <glyph glyph-name="iacute" unicode="&#xed;" horiz-adv-x="493" 
d="M-70 0l242 1118h391l-241 -1118h-392zM240 1171l225 306l346 -88l-328 -218h-243z" />
    <glyph glyph-name="icircumflex" unicode="&#xee;" horiz-adv-x="493" 
d="M-70 0l242 1118h391l-241 -1118h-392zM45 1171l256 275h277l133 -275h-203l-102 93l-142 -93h-219z" />
    <glyph glyph-name="idieresis" unicode="&#xef;" horiz-adv-x="493" 
d="M-70 0l242 1118h391l-241 -1118h-392zM63 1171l60 271h289l-60 -271h-289zM412 1171l59 271h287l-60 -271h-286z" />
    <glyph glyph-name="eth" unicode="&#xf0;" horiz-adv-x="1011" 
d="M401 1176l-39 145l125 31q-57 70 -110 123h428l26 -35l158 39l39 -148l-113 -28q101 -215 101 -478q0 -78 -12.5 -169t-38 -190.5t-73 -194t-110.5 -158.5q-142 -142 -344 -142q-207 0 -314.5 122.5t-107.5 320.5q0 143 56 324.5t155 285.5q106 106 240 106
q107 0 182 -75q-23 79 -71 164zM518 326q46 46 77.5 164.5t31.5 209.5q0 67 -19 93t-53 26q-31 0 -57 -26q-46 -46 -77.5 -165t-31.5 -210q0 -67 19 -93t53 -26q30 0 57 27z" />
    <glyph glyph-name="ntilde" unicode="&#xf1;" 
d="M-74 0l242 1118h389l-27 -127q126 152 271 152q113 0 171 -64t58 -172q0 -76 -16 -139l-166 -768h-391l145 672q10 52 10 67q0 58 -55 58q-68 0 -90 -97l-152 -700h-389zM883 1491l168 -35q-36 -137 -95.5 -204.5t-136.5 -67.5q-63 0 -147 35q-82 30 -115 30
q-30 0 -47.5 -15.5t-36.5 -57.5l-168 34q36 138 95.5 205.5t136.5 67.5q65 0 149 -35q85 -33 113 -33q30 0 47 16.5t37 59.5z" />
    <glyph glyph-name="ograve" unicode="&#xf2;" 
d="M432 -29q-202 0 -310 118.5t-108 320.5q0 162 54 325t155 264q148 148 352 148q202 0 310 -119t108 -319q0 -162 -54 -325.5t-155 -264.5q-148 -148 -352 -148zM457 299q30 0 57 27q46 46 77.5 164.5t31.5 209.5q0 67 -19 93t-53 26q-31 0 -57 -26q-46 -46 -77.5 -165
t-31.5 -210q0 -67 19 -93t53 -26zM537 1188l-232 217l365 88l90 -305h-223z" />
    <glyph glyph-name="oacute" unicode="&#xf3;" 
d="M432 -29q-202 0 -310 118.5t-108 320.5q0 162 54 325t155 264q148 148 352 148q202 0 310 -119t108 -319q0 -162 -54 -325.5t-155 -264.5q-148 -148 -352 -148zM457 299q30 0 57 27q46 46 77.5 164.5t31.5 209.5q0 67 -19 93t-53 26q-31 0 -57 -26q-46 -46 -77.5 -165
t-31.5 -210q0 -67 19 -93t53 -26zM500 1188l225 305l346 -88l-328 -217h-243z" />
    <glyph glyph-name="ocircumflex" unicode="&#xf4;" 
d="M432 -29q-202 0 -310 118.5t-108 320.5q0 162 54 325t155 264q148 148 352 148q202 0 310 -119t108 -319q0 -162 -54 -325.5t-155 -264.5q-148 -148 -352 -148zM457 299q30 0 57 27q46 46 77.5 164.5t31.5 209.5q0 67 -19 93t-53 26q-31 0 -57 -26q-46 -46 -77.5 -165
t-31.5 -210q0 -67 19 -93t53 -26zM307 1188l256 274h277l133 -274h-203l-102 92l-142 -92h-219z" />
    <glyph glyph-name="otilde" unicode="&#xf5;" 
d="M432 -29q-202 0 -310 118.5t-108 320.5q0 162 54 325t155 264q148 148 352 148q202 0 310 -119t108 -319q0 -162 -54 -325.5t-155 -264.5q-148 -148 -352 -148zM457 299q30 0 57 27q46 46 77.5 164.5t31.5 209.5q0 67 -19 93t-53 26q-31 0 -57 -26q-46 -46 -77.5 -165
t-31.5 -210q0 -67 19 -93t53 -26zM872 1491l168 -35q-72 -272 -231 -272q-63 0 -147 35q-82 30 -115 30q-30 0 -47.5 -15.5t-36.5 -57.5l-168 34q71 273 231 273q66 0 150 -35q85 -33 112 -33q30 0 47 16.5t37 59.5z" />
    <glyph glyph-name="odieresis" unicode="&#xf6;" 
d="M432 -29q-202 0 -310 118.5t-108 320.5q0 162 54 325t155 264q148 148 352 148q202 0 310 -119t108 -319q0 -162 -54 -325.5t-155 -264.5q-148 -148 -352 -148zM457 299q30 0 57 27q46 46 77.5 164.5t31.5 209.5q0 67 -19 93t-53 26q-31 0 -57 -26q-46 -46 -77.5 -165
t-31.5 -210q0 -67 19 -93t53 -26zM324 1188l59 270h289l-60 -270h-288zM672 1188l59 270h287l-60 -270h-286z" />
    <glyph glyph-name="divide" unicode="&#xf7;" horiz-adv-x="1021" 
d="M252 166l65 305h347l-68 -305h-344zM57 561l70 320h907l-69 -320h-908zM428 971l70 305h344l-70 -305h-344z" />
    <glyph glyph-name="oslash" unicode="&#xf8;" 
d="M-106 -4l165 184q-45 89 -45 230q0 162 54 325t155 264q148 148 352 148q185 0 289 -98l64 73h184l-166 -184q47 -103 47 -229q0 -162 -54 -325.5t-155 -264.5q-148 -148 -352 -148q-186 0 -291 99l-63 -74h-184zM455 285q37 0 67 30q42 42 71 134t38 180l-246 -303
q21 -41 70 -41zM485 803q-44 -44 -72.5 -135t-37.5 -181l246 306q-21 41 -68 41q-37 0 -68 -31z" />
    <glyph glyph-name="ugrave" unicode="&#xf9;" 
d="M207 -25q-113 0 -171.5 64t-58.5 172q0 72 17 139l166 768h391l-145 -672q-11 -57 -11 -67q0 -57 56 -57q69 0 90 96l151 700h389l-241 -1118h-389l26 127q-126 -152 -270 -152zM532 1171l-231 218l365 88l90 -306h-224z" />
    <glyph glyph-name="uacute" unicode="&#xfa;" 
d="M207 -25q-113 0 -171.5 64t-58.5 172q0 72 17 139l166 768h391l-145 -672q-11 -57 -11 -67q0 -57 56 -57q69 0 90 96l151 700h389l-241 -1118h-389l26 127q-126 -152 -270 -152zM496 1171l225 306l346 -88l-328 -218h-243z" />
    <glyph glyph-name="ucircumflex" unicode="&#xfb;" 
d="M207 -25q-113 0 -171.5 64t-58.5 172q0 72 17 139l166 768h391l-145 -672q-11 -57 -11 -67q0 -57 56 -57q69 0 90 96l151 700h389l-241 -1118h-389l26 127q-126 -152 -270 -152zM301 1171l256 275h277l133 -275h-203l-102 93l-142 -93h-219z" />
    <glyph glyph-name="udieresis" unicode="&#xfc;" 
d="M207 -25q-113 0 -171.5 64t-58.5 172q0 72 17 139l166 768h391l-145 -672q-11 -57 -11 -67q0 -57 56 -57q69 0 90 96l151 700h389l-241 -1118h-389l26 127q-126 -152 -270 -152zM319 1171l60 271h289l-60 -271h-289zM668 1171l59 271h287l-60 -271h-286z" />
    <glyph glyph-name="yacute" unicode="&#xfd;" horiz-adv-x="985" 
d="M186 25l-69 1093h387l-10 -581l231 581h397l-526 -1087q-89 -181 -176.5 -253.5t-233.5 -72.5q-136 0 -260 74l105 278q67 -47 112 -47q28 0 43 15zM481 1171l226 306l346 -88l-328 -218h-244z" />
    <glyph glyph-name="thorn" unicode="&#xfe;" horiz-adv-x="1044" 
d="M588 -25q-169 0 -244 154l-90 -414h-389l381 1760h389l-103 -478q120 146 259 146q118 0 182.5 -85.5t64.5 -248.5q0 -107 -22 -239.5t-77.5 -277t-131.5 -220.5q-97 -97 -219 -97zM479 309q31 0 58 27q48 48 78 161t30 197q0 115 -72 115q-30 0 -57 -27
q-48 -48 -78 -160.5t-30 -197.5q0 -115 71 -115z" />
    <glyph glyph-name="ydieresis" unicode="&#xff;" horiz-adv-x="985" 
d="M186 25l-69 1093h387l-10 -581l231 581h397l-526 -1087q-89 -181 -176.5 -253.5t-233.5 -72.5q-136 0 -260 74l105 278q67 -47 112 -47q28 0 43 15zM305 1171l60 271h288l-59 -271h-289zM653 1171l60 271h286l-59 -271h-287z" />
    <glyph glyph-name="Amacron" unicode="&#x100;" horiz-adv-x="1153" 
d="M-143 0l688 1438h448l64 -1438h-404v219h-293l-92 -219h-411zM494 530h163l5 404zM457 1516l53 229h653l-51 -229h-655z" />
    <glyph glyph-name="amacron" unicode="&#x101;" horiz-adv-x="952" 
d="M190 -23q-105 0 -163 67t-58 189q0 100 32.5 200.5t92.5 160.5q88 94 254 94q106 0 197 -45l4 16q8 21 8 54q0 50 -34.5 77t-100.5 27q-88 0 -232 -47l-34 313q188 56 374 56q201 0 311.5 -84.5t110.5 -249.5q0 -73 -18 -152l-141 -653h-387l18 88q-60 -57 -112 -84
t-122 -27zM381 219q33 0 62 30t40 83l25 125q-37 16 -70 16q-39 0 -63 -24t-36.5 -70.5t-12.5 -83.5q0 -76 55 -76zM299 1198l49 223h621l-49 -223h-621z" />
    <glyph glyph-name="Abreve" unicode="&#x102;" horiz-adv-x="1153" 
d="M-143 0l688 1438h448l64 -1438h-404v219h-293l-92 -219h-411zM494 530h163l5 404zM786 1503q-136 0 -206.5 60.5t-53.5 183.5h203q6 -64 92 -64q76 0 115 64h211q-82 -244 -361 -244z" />
    <glyph glyph-name="abreve" unicode="&#x103;" horiz-adv-x="952" 
d="M190 -23q-105 0 -163 67t-58 189q0 100 32.5 200.5t92.5 160.5q88 94 254 94q106 0 197 -45l4 16q8 21 8 54q0 50 -34.5 77t-100.5 27q-88 0 -232 -47l-34 313q188 56 374 56q201 0 311.5 -84.5t110.5 -249.5q0 -73 -18 -152l-141 -653h-387l18 88q-60 -57 -112 -84
t-122 -27zM381 219q33 0 62 30t40 83l25 125q-37 16 -70 16q-39 0 -63 -24t-36.5 -70.5t-12.5 -83.5q0 -76 55 -76zM623 1186q-144 0 -217.5 68.5t-63.5 207.5h203q2 -42 26 -66t70 -24q90 0 131 90h205q-38 -134 -131 -205t-223 -71z" />
    <glyph glyph-name="Aogonek" unicode="&#x104;" horiz-adv-x="1153" 
d="M1053 -117l-39 -182q-63 -8 -146 -8q-252 0 -252 123q0 48 29 91.5t94 92.5h-86v219h-293l-92 -219h-411l688 1438h448l64 -1438h-66q-45 -45 -45 -74q0 -19 22.5 -28t84.5 -15zM494 530h163l5 404z" />
    <glyph glyph-name="aogonek" unicode="&#x105;" horiz-adv-x="952" 
d="M791 -117l-39 -182q-63 -8 -146 -8q-252 0 -252 123q0 48 29 91.5t94 92.5h-71l18 88q-60 -57 -112 -84t-122 -27q-105 0 -163 67t-58 189q0 100 32.5 200.5t92.5 160.5q88 94 254 94q106 0 197 -45l4 16q8 21 8 54q0 50 -34.5 77t-100.5 27q-88 0 -232 -47l-34 313
q188 56 374 56q201 0 311.5 -84.5t110.5 -249.5q0 -73 -18 -152l-141 -653h-64q-45 -45 -45 -74q0 -19 22.5 -28t84.5 -15zM381 219q33 0 62 30t40 83l25 125q-37 16 -70 16q-39 0 -63 -24t-36.5 -70.5t-12.5 -83.5q0 -76 55 -76z" />
    <glyph glyph-name="Cacute" unicode="&#x106;" horiz-adv-x="1015" 
d="M557 -25q-235 0 -372.5 154t-137.5 422q0 207 68.5 403.5t201.5 329.5q174 174 412 174q130 0 240 -49t184 -133l-240 -301q-78 102 -178 102q-74 0 -127 -53q-74 -74 -111.5 -202t-37.5 -234q0 -230 164 -230q50 0 92 21.5t90 60.5l141 -323q-183 -142 -389 -142z
M627 1507l200 260l385 -77l-301 -183h-284z" />
    <glyph glyph-name="cacute" unicode="&#x107;" horiz-adv-x="835" 
d="M442 -27q-193 0 -309.5 124t-116.5 337q0 65 9 130.5t30.5 141.5t65 152t104.5 137q150 150 346 150q212 0 351 -170l-209 -262q-29 39 -57.5 58.5t-67.5 19.5q-47 0 -88 -41q-48 -48 -72.5 -124t-24.5 -149q0 -83 35 -118t84 -35q64 0 131 57l121 -287q-65 -53 -152 -87
t-180 -34zM455 1188l225 305l346 -88l-328 -217h-243z" />
    <glyph glyph-name="Cdotaccent" unicode="&#x10a;" horiz-adv-x="1015" 
d="M557 -25q-235 0 -372.5 154t-137.5 422q0 207 68.5 403.5t201.5 329.5q174 174 412 174q130 0 240 -49t184 -133l-240 -301q-78 102 -178 102q-74 0 -127 -53q-74 -74 -111.5 -202t-37.5 -234q0 -230 164 -230q50 0 92 21.5t90 60.5l141 -323q-183 -142 -389 -142z
M621 1507l57 254h309l-55 -254h-311z" />
    <glyph glyph-name="cdotaccent" unicode="&#x10b;" horiz-adv-x="835" 
d="M442 -27q-193 0 -309.5 124t-116.5 337q0 65 9 130.5t30.5 141.5t65 152t104.5 137q150 150 346 150q212 0 351 -170l-209 -262q-29 39 -57.5 58.5t-67.5 19.5q-47 0 -88 -41q-48 -48 -72.5 -124t-24.5 -149q0 -83 35 -118t84 -35q64 0 131 57l121 -287q-65 -53 -152 -87
t-180 -34zM444 1188l60 270h305l-57 -270h-308z" />
    <glyph glyph-name="Ccaron" unicode="&#x10c;" horiz-adv-x="1015" 
d="M557 -25q-235 0 -372.5 154t-137.5 422q0 207 68.5 403.5t201.5 329.5q174 174 412 174q130 0 240 -49t184 -133l-240 -301q-78 102 -178 102q-74 0 -127 -53q-74 -74 -111.5 -202t-37.5 -234q0 -230 164 -230q50 0 92 21.5t90 60.5l141 -323q-183 -142 -389 -142z
M1165 1747l-231 -240h-309l-127 240h219l90 -78l123 78h235z" />
    <glyph glyph-name="ccaron" unicode="&#x10d;" horiz-adv-x="835" 
d="M442 -27q-193 0 -309.5 124t-116.5 337q0 65 9 130.5t30.5 141.5t65 152t104.5 137q150 150 346 150q212 0 351 -170l-209 -262q-29 39 -57.5 58.5t-67.5 19.5q-47 0 -88 -41q-48 -48 -72.5 -124t-24.5 -149q0 -83 35 -118t84 -35q64 0 131 57l121 -287q-65 -53 -152 -87
t-180 -34zM451 1188l-136 274h205l101 -90l143 90h219l-258 -274h-274z" />
    <glyph glyph-name="Dcaron" unicode="&#x10e;" horiz-adv-x="1142" 
d="M-70 0l312 1434h309q327 0 483 -156q133 -133 133 -377q0 -105 -24 -228.5t-82 -257t-139 -214.5q-201 -201 -574 -201h-418zM709 1028q-45 45 -136 45h-12l-151 -713h18q119 0 193 74q64 64 102.5 192.5t38.5 237.5q0 67 -13 102t-40 62zM1106 1729l-232 -240h-309
l-127 240h219l91 -78l122 78h236z" />
    <glyph glyph-name="dcaron" unicode="&#x10f;" horiz-adv-x="1042" 
d="M1174 1167l90 351h233l-2 -2l-180 -349h-141zM256 -25q-118 0 -183 85.5t-65 248.5q0 107 22.5 240t78 277.5t131.5 220.5q96 96 219 96q168 0 243 -154l105 486h389l-319 -1475h-390l27 121q-120 -146 -258 -146zM473 309q30 0 57 27q48 48 78.5 161t30.5 197
q0 115 -72 115q-30 0 -57 -27q-48 -48 -78.5 -160.5t-30.5 -197.5q0 -115 72 -115z" />
    <glyph glyph-name="Dcroat" unicode="&#x110;" horiz-adv-x="1214" 
d="M25 563l69 316h99l120 555h310q327 0 483 -156q133 -133 133 -377q0 -104 -24.5 -228t-82.5 -257.5t-139 -214.5q-201 -201 -573 -201h-418l121 563h-98zM784 1032q-50 47 -143 47h-16l-45 -205h114l-67 -307h-113l-45 -213h25q124 0 200 76q65 65 104.5 195.5
t39.5 240.5q0 66 -13.5 102.5t-40.5 63.5z" />
    <glyph glyph-name="dcroat" unicode="&#x111;" horiz-adv-x="1044" 
d="M559 1186l47 215h185l16 74h389l-16 -74h65l-47 -221h-68l-253 -1180h-390l27 121q-120 -146 -258 -146q-118 0 -183 85.5t-65 248.5q0 107 22.5 240t78 277.5t131.5 220.5q96 96 219 96q168 0 243 -154l41 197h-184zM473 309q30 0 57 27q48 48 78.5 161t30.5 197
q0 115 -72 115q-30 0 -57 -27q-48 -48 -78.5 -160.5t-30.5 -197.5q0 -115 72 -115z" />
    <glyph glyph-name="Emacron" unicode="&#x112;" horiz-adv-x="956" 
d="M-70 0l312 1434h858l-80 -361h-459l-41 -182h420l-74 -340h-420l-40 -191h468l-79 -360h-865zM358 1497l54 229h653l-51 -229h-656z" />
    <glyph glyph-name="emacron" unicode="&#x113;" horiz-adv-x="960" 
d="M909 426h-532q0 -131 147 -131q117 0 226 67l92 -282q-167 -107 -381 -107q-215 0 -332 119.5t-117 331.5q0 142 55.5 307.5t159.5 269.5q146 146 348 146q187 0 284 -112t97 -304q0 -125 -47 -305zM489 809q-44 -44 -77 -168h186q12 59 12 102t-16.5 68t-46.5 25
q-31 0 -58 -27zM311 1198l49 223h621l-49 -223h-621z" />
    <glyph glyph-name="Ebreve" unicode="&#x114;" horiz-adv-x="956" 
d="M-70 0l312 1434h858l-80 -361h-459l-41 -182h420l-74 -340h-420l-40 -191h468l-79 -360h-865zM688 1485q-136 0 -206.5 60.5t-53.5 183.5h203q6 -64 92 -64q76 0 115 64h211q-82 -244 -361 -244z" />
    <glyph glyph-name="ebreve" unicode="&#x115;" horiz-adv-x="960" 
d="M909 426h-532q0 -131 147 -131q117 0 226 67l92 -282q-167 -107 -381 -107q-215 0 -332 119.5t-117 331.5q0 142 55.5 307.5t159.5 269.5q146 146 348 146q187 0 284 -112t97 -304q0 -125 -47 -305zM489 809q-44 -44 -77 -168h186q12 59 12 102t-16.5 68t-46.5 25
q-31 0 -58 -27zM635 1186q-144 0 -217.5 68.5t-63.5 207.5h203q2 -42 26 -66t70 -24q90 0 131 90h205q-38 -134 -131 -205t-223 -71z" />
    <glyph glyph-name="Edotaccent" unicode="&#x116;" horiz-adv-x="956" 
d="M-70 0l312 1434h858l-80 -361h-459l-41 -182h420l-74 -340h-420l-40 -191h468l-79 -360h-865zM530 1489l58 254h309l-55 -254h-312z" />
    <glyph glyph-name="edotaccent" unicode="&#x117;" horiz-adv-x="960" 
d="M909 426h-532q0 -131 147 -131q117 0 226 67l92 -282q-167 -107 -381 -107q-215 0 -332 119.5t-117 331.5q0 142 55.5 307.5t159.5 269.5q146 146 348 146q187 0 284 -112t97 -304q0 -125 -47 -305zM489 809q-44 -44 -77 -168h186q12 59 12 102t-16.5 68t-46.5 25
q-31 0 -58 -27zM467 1188l59 270h305l-57 -270h-307z" />
    <glyph glyph-name="Eogonek" unicode="&#x118;" horiz-adv-x="956" 
d="M-70 0l312 1434h858l-80 -361h-459l-41 -182h420l-74 -340h-420l-40 -191h468l-79 -360h-78q-45 -45 -45 -74q0 -19 22.5 -28t83.5 -15l-39 -182q-63 -8 -145 -8q-252 0 -252 123q0 48 29 91.5t94 92.5h-535z" />
    <glyph glyph-name="eogonek" unicode="&#x119;" horiz-adv-x="960" 
d="M750 362l92 -284q-11 -6 -42 -23t-47 -26t-36 -22.5t-29 -22.5q-33 -33 -33 -56q0 -20 23 -29.5t86 -15.5l-41 -182q-63 -8 -143 -8q-252 0 -252 123q0 80 90 159q-196 12 -301 129.5t-105 317.5q0 144 55.5 309.5t159.5 269.5q146 146 348 146q187 0 284 -112t97 -304
q0 -125 -47 -305h-532q0 -131 147 -131q117 0 226 67zM489 809q-44 -44 -77 -168h186q12 59 12 102t-16.5 68t-46.5 25q-31 0 -58 -27z" />
    <glyph glyph-name="Ecaron" unicode="&#x11a;" horiz-adv-x="956" 
d="M-70 0l312 1434h858l-80 -361h-459l-41 -182h420l-74 -340h-420l-40 -191h468l-79 -360h-865zM1075 1729l-231 -240h-309l-127 240h219l90 -78l123 78h235z" />
    <glyph glyph-name="ecaron" unicode="&#x11b;" horiz-adv-x="960" 
d="M909 426h-532q0 -131 147 -131q117 0 226 67l92 -282q-167 -107 -381 -107q-215 0 -332 119.5t-117 331.5q0 142 55.5 307.5t159.5 269.5q146 146 348 146q187 0 284 -112t97 -304q0 -125 -47 -305zM489 809q-44 -44 -77 -168h186q12 59 12 102t-16.5 68t-46.5 25
q-31 0 -58 -27zM473 1188l-135 274h205l100 -90l143 90h220l-258 -274h-275z" />
    <glyph glyph-name="Gbreve" unicode="&#x11e;" horiz-adv-x="1116" 
d="M567 -27q-238 0 -382 141.5t-144 395.5q0 120 27.5 254.5t91 274t151.5 227.5q192 192 457 192q134 0 243.5 -49t182.5 -127l-240 -301q-83 102 -198 102q-87 0 -146 -59q-58 -58 -98 -159t-54 -183.5t-14 -144.5q0 -215 150 -215q32 0 59 10l47 213h-137l66 315h506
l-172 -788q-196 -99 -396 -99zM809 1503q-136 0 -206.5 60.5t-53.5 183.5h203q6 -64 92 -64q75 0 114 64h211q-82 -244 -360 -244z" />
    <glyph glyph-name="gbreve" unicode="&#x11f;" horiz-adv-x="1040" 
d="M350 -293q-245 0 -424 72l92 305q170 -78 301 -78q98 0 148 47q41 41 63 140l13 47q-122 -146 -267 -146q-119 0 -185 79t-66 235q0 160 57 354t154 291q90 90 210 90q171 0 252 -152l27 127h391l-201 -934q-53 -236 -163 -346q-131 -131 -402 -131zM487 399q31 0 58 27
q40 40 64 130.5t24 150.5q0 110 -72 110q-31 0 -57 -26q-41 -41 -64.5 -130t-23.5 -153q0 -109 71 -109zM696 1186q-143 0 -216.5 68.5t-63.5 207.5h202q2 -42 26.5 -66t70.5 -24q90 0 131 90h205q-38 -133 -131 -204.5t-224 -71.5z" />
    <glyph glyph-name="Gdotaccent" unicode="&#x120;" horiz-adv-x="1116" 
d="M567 -27q-238 0 -382 141.5t-144 395.5q0 120 27.5 254.5t91 274t151.5 227.5q192 192 457 192q134 0 243.5 -49t182.5 -127l-240 -301q-83 102 -198 102q-87 0 -146 -59q-58 -58 -98 -159t-54 -183.5t-14 -144.5q0 -215 150 -215q32 0 59 10l47 213h-137l66 315h506
l-172 -788q-196 -99 -396 -99zM651 1507l58 254h309l-55 -254h-312z" />
    <glyph glyph-name="gdotaccent" unicode="&#x121;" horiz-adv-x="1040" 
d="M350 -293q-245 0 -424 72l92 305q170 -78 301 -78q98 0 148 47q41 41 63 140l13 47q-122 -146 -267 -146q-119 0 -185 79t-66 235q0 160 57 354t154 291q90 90 210 90q171 0 252 -152l27 127h391l-201 -934q-53 -236 -163 -346q-131 -131 -402 -131zM487 399q31 0 58 27
q40 40 64 130.5t24 150.5q0 110 -72 110q-31 0 -57 -26q-41 -41 -64.5 -130t-23.5 -153q0 -109 71 -109zM528 1188l60 270h305l-57 -270h-308z" />
    <glyph glyph-name="Gcommaaccent" unicode="&#x122;" horiz-adv-x="1116" 
d="M246 -524l6 104q143 21 166 98h-135l55 244h297l-45 -203q-28 -120 -115.5 -176t-228.5 -67zM567 -27q-238 0 -382 141.5t-144 395.5q0 120 27.5 254.5t91 274t151.5 227.5q192 192 457 192q134 0 243.5 -49t182.5 -127l-240 -301q-83 102 -198 102q-87 0 -146 -59
q-58 -58 -98 -159t-54 -183.5t-14 -144.5q0 -215 150 -215q32 0 59 10l47 213h-137l66 315h506l-172 -788q-196 -99 -396 -99z" />
    <glyph glyph-name="gcommaaccent" unicode="&#x123;" horiz-adv-x="1040" 
d="M350 -293q-245 0 -424 72l92 305q170 -78 301 -78q98 0 148 47q41 41 63 140l13 47q-122 -146 -267 -146q-119 0 -185 79t-66 235q0 160 57 354t154 291q90 90 210 90q171 0 252 -152l27 127h391l-201 -934q-53 -236 -163 -346q-131 -131 -402 -131zM487 399q31 0 58 27
q40 40 64 130.5t24 150.5q0 110 -72 110q-31 0 -57 -26q-41 -41 -64.5 -130t-23.5 -153q0 -109 71 -109zM924 1634l-6 -104q-143 -21 -166 -98h135l-56 -244h-296l45 203q28 120 115.5 176t228.5 67z" />
    <glyph glyph-name="Hbar" unicode="&#x126;" horiz-adv-x="1204" 
d="M111 1044l53 256h80l28 134h400l-31 -140h242l30 140h400l-29 -134h76l-53 -256h-80l-226 -1044h-401l117 537h-240l-117 -537h-399l225 1044h-75zM555 897h240l34 156h-241z" />
    <glyph glyph-name="hbar" unicode="&#x127;" 
d="M117 1180l49 221h63l17 74h389l-17 -74h187l-47 -215h-187l-41 -195q126 152 271 152q113 0 171 -64t58 -172q0 -76 -16 -139l-166 -768h-391l145 672q10 52 10 67q0 58 -55 58q-68 0 -90 -97l-152 -700h-389l256 1180h-65z" />
    <glyph glyph-name="Imacron" unicode="&#x12a;" horiz-adv-x="509" 
d="M-66 0l312 1434h399l-311 -1434h-400zM131 1497l53 229h654l-52 -229h-655z" />
    <glyph glyph-name="imacron" unicode="&#x12b;" horiz-adv-x="493" 
d="M-70 0l242 1118h391l-241 -1118h-392zM72 1182l49 223h620l-49 -223h-620z" />
    <glyph glyph-name="Ibreve" unicode="&#x12c;" horiz-adv-x="509" 
d="M-66 0l312 1434h399l-311 -1434h-400zM461 1485q-136 0 -206.5 60.5t-53.5 183.5h202q6 -64 93 -64q75 0 114 64h211q-82 -244 -360 -244z" />
    <glyph glyph-name="ibreve" unicode="&#x12d;" horiz-adv-x="493" 
d="M-70 0l242 1118h391l-241 -1118h-392zM397 1169q-143 0 -216.5 69t-63.5 208h202q2 -42 26.5 -66t70.5 -24q90 0 131 90h205q-38 -134 -131.5 -205.5t-223.5 -71.5z" />
    <glyph glyph-name="Iogonek" unicode="&#x12e;" horiz-adv-x="509" 
d="M-66 0l312 1434h399l-311 -1434h-72q-45 -45 -45 -74q0 -19 22.5 -28t84.5 -15l-39 -182q-63 -8 -146 -8q-252 0 -252 123q0 90 123 184h-76z" />
    <glyph glyph-name="iogonek" unicode="&#x12f;" horiz-adv-x="493" 
d="M-70 0l242 1118h391l-241 -1118h-66q-45 -45 -45 -74q0 -19 22.5 -28t83.5 -15l-38 -182q-63 -8 -146 -8q-252 0 -252 123q0 90 123 184h-74zM184 1186l64 289h397l-63 -289h-398z" />
    <glyph glyph-name="Idotaccent" unicode="&#x130;" horiz-adv-x="509" 
d="M-66 0l312 1434h399l-311 -1434h-400zM303 1489l57 254h310l-56 -254h-311z" />
    <glyph glyph-name="dotlessi" unicode="&#x131;" horiz-adv-x="493" 
d="M-70 0l242 1118h391l-241 -1118h-392z" />
    <glyph glyph-name="Kcommaaccent" unicode="&#x136;" horiz-adv-x="1091" 
d="M-70 0l312 1434h399l-104 -482l303 482h442l-438 -643l137 -791h-418l-61 465l-103 -139l-69 -326h-400zM193 -508l6 105q143 21 166 98h-136l56 244h297l-45 -203q-28 -121 -115.5 -177t-228.5 -67z" />
    <glyph glyph-name="kcommaaccent" unicode="&#x137;" horiz-adv-x="972" 
d="M-74 0l320 1475h389l-146 -670l205 313h422l-340 -485l98 -633h-397l-31 360l-73 -92l-58 -268h-389zM106 -508l7 105q143 21 166 98h-136l56 244h297l-45 -203q-28 -120 -116 -176.5t-229 -67.5z" />
    <glyph glyph-name="Lacute" unicode="&#x139;" horiz-adv-x="872" 
d="M334 1489l201 260l385 -78l-302 -182h-284zM-70 0l312 1434h399l-229 -1067h397l-82 -367h-797z" />
    <glyph glyph-name="lacute" unicode="&#x13a;" horiz-adv-x="493" 
d="M315 1520l201 260l385 -78l-301 -182h-285zM-70 0l320 1475h389l-320 -1475h-389z" />
    <glyph glyph-name="Lcommaaccent" unicode="&#x13b;" horiz-adv-x="872" 
d="M-70 0l312 1434h399l-229 -1067h397l-82 -367h-797zM76 -508l6 105q143 21 166 98h-135l55 244h297l-45 -203q-28 -121 -115.5 -177t-228.5 -67z" />
    <glyph glyph-name="lcommaaccent" unicode="&#x13c;" horiz-adv-x="493" 
d="M-70 0l320 1475h389l-320 -1475h-389zM-131 -508l6 105q143 21 166 98h-135l55 244h297l-45 -203q-28 -121 -115.5 -177t-228.5 -67z" />
    <glyph glyph-name="Lcaron" unicode="&#x13d;" horiz-adv-x="872" 
d="M616 1085l91 351h233l-2 -2l-180 -349h-142zM-70 0l312 1434h399l-229 -1067h397l-82 -367h-797z" />
    <glyph glyph-name="lcaron" unicode="&#x13e;" horiz-adv-x="493" 
d="M625 1167l90 351h233l-2 -2l-180 -349h-141zM-70 0l320 1475h389l-320 -1475h-389z" />
    <glyph glyph-name="Ldot" unicode="&#x13f;" horiz-adv-x="872" 
d="M569 645l76 344h283l-76 -344h-283zM-70 0l312 1434h399l-229 -1067h397l-82 -367h-797z" />
    <glyph glyph-name="ldot" unicode="&#x140;" horiz-adv-x="768" 
d="M502 565l76 346h266l-76 -346h-266zM-70 0l320 1475h389l-320 -1475h-389z" />
    <glyph glyph-name="Lslash" unicode="&#x141;" horiz-adv-x="940" 
d="M-12 385l84 385l102 39l135 625h400l-99 -459l230 88l-84 -383l-230 -88l-47 -225h398l-82 -367h-797l92 424z" />
    <glyph glyph-name="lslash" unicode="&#x142;" horiz-adv-x="645" 
d="M-8 428l80 367l114 43l138 637h389l-103 -474l121 48l-80 -369l-121 -47l-137 -633h-389l102 471z" />
    <glyph glyph-name="Nacute" unicode="&#x143;" horiz-adv-x="1167" 
d="M-70 0l312 1434h385l157 -600l134 600h389l-312 -1434h-368l-168 633l-140 -633h-389zM637 1489l201 260l385 -78l-301 -182h-285z" />
    <glyph glyph-name="nacute" unicode="&#x144;" 
d="M-74 0l242 1118h389l-27 -127q126 152 271 152q113 0 171 -64t58 -172q0 -76 -16 -139l-166 -768h-391l145 672q10 52 10 67q0 58 -55 58q-68 0 -90 -97l-152 -700h-389zM510 1188l225 305l346 -88l-327 -217h-244z" />
    <glyph glyph-name="Ncommaaccent" unicode="&#x145;" horiz-adv-x="1167" 
d="M-70 0l312 1434h385l157 -600l134 600h389l-312 -1434h-368l-168 633l-140 -633h-389zM205 -508l6 105q143 21 166 98h-135l55 244h297l-45 -203q-28 -121 -115.5 -177t-228.5 -67z" />
    <glyph glyph-name="ncommaaccent" unicode="&#x146;" 
d="M-74 0l242 1118h389l-27 -127q126 152 271 152q113 0 171 -64t58 -172q0 -76 -16 -139l-166 -768h-391l145 672q10 52 10 67q0 58 -55 58q-68 0 -90 -97l-152 -700h-389zM137 -508l6 105q143 21 166 98h-135l55 244h297l-45 -203q-28 -121 -115.5 -177t-228.5 -67z" />
    <glyph glyph-name="Ncaron" unicode="&#x147;" horiz-adv-x="1167" 
d="M-70 0l312 1434h385l157 -600l134 600h389l-312 -1434h-368l-168 633l-140 -633h-389zM1176 1729l-232 -240h-309l-127 240h219l90 -78l123 78h236z" />
    <glyph glyph-name="ncaron" unicode="&#x148;" 
d="M-74 0l242 1118h389l-27 -127q126 152 271 152q113 0 171 -64t58 -172q0 -76 -16 -139l-166 -768h-391l145 672q10 52 10 67q0 58 -55 58q-68 0 -90 -97l-152 -700h-389zM504 1188l-135 274h204l101 -90l143 90h219l-258 -274h-274z" />
    <glyph glyph-name="Omacron" unicode="&#x14c;" horiz-adv-x="1179" 
d="M721 1464q107 0 194 -33t153 -99t102 -173.5t36 -247.5q0 -195 -71.5 -415t-210.5 -359q-78 -78 -180.5 -123t-215.5 -45q-107 0 -194 33t-153 99t-102 173.5t-36 247.5q0 123 27.5 257.5t94.5 278.5t163 240q78 78 178.5 122t214.5 44zM553 330q47 0 90 43
q72 72 119 242.5t47 302.5q0 186 -113 186q-47 0 -90 -43q-72 -72 -119 -243t-47 -302q0 -186 113 -186zM459 1516l53 229h653l-51 -229h-655z" />
    <glyph glyph-name="omacron" unicode="&#x14d;" 
d="M432 -29q-202 0 -310 118.5t-108 320.5q0 162 54 325t155 264q148 148 352 148q202 0 310 -119t108 -319q0 -162 -54 -325.5t-155 -264.5q-148 -148 -352 -148zM457 299q30 0 57 27q46 46 77.5 164.5t31.5 209.5q0 67 -19 93t-53 26q-31 0 -57 -26q-46 -46 -77.5 -165
t-31.5 -210q0 -67 19 -93t53 -26zM334 1198l49 223h621l-50 -223h-620z" />
    <glyph glyph-name="Obreve" unicode="&#x14e;" horiz-adv-x="1179" 
d="M721 1464q107 0 194 -33t153 -99t102 -173.5t36 -247.5q0 -195 -71.5 -415t-210.5 -359q-78 -78 -180.5 -123t-215.5 -45q-107 0 -194 33t-153 99t-102 173.5t-36 247.5q0 123 27.5 257.5t94.5 278.5t163 240q78 78 178.5 122t214.5 44zM553 330q47 0 90 43
q72 72 119 242.5t47 302.5q0 186 -113 186q-47 0 -90 -43q-72 -72 -119 -243t-47 -302q0 -186 113 -186zM788 1503q-136 0 -206.5 60.5t-53.5 183.5h203q6 -64 92 -64q76 0 115 64h211q-82 -244 -361 -244z" />
    <glyph glyph-name="obreve" unicode="&#x14f;" 
d="M432 -29q-202 0 -310 118.5t-108 320.5q0 162 54 325t155 264q148 148 352 148q202 0 310 -119t108 -319q0 -162 -54 -325.5t-155 -264.5q-148 -148 -352 -148zM457 299q30 0 57 27q46 46 77.5 164.5t31.5 209.5q0 67 -19 93t-53 26q-31 0 -57 -26q-46 -46 -77.5 -165
t-31.5 -210q0 -67 19 -93t53 -26zM657 1186q-143 0 -216.5 68.5t-63.5 207.5h203q2 -42 26 -66t70 -24q90 0 131 90h205q-38 -133 -131 -204.5t-224 -71.5z" />
    <glyph glyph-name="Ohungarumlaut" unicode="&#x150;" horiz-adv-x="1179" 
d="M721 1464q107 0 194 -33t153 -99t102 -173.5t36 -247.5q0 -195 -71.5 -415t-210.5 -359q-78 -78 -180.5 -123t-215.5 -45q-107 0 -194 33t-153 99t-102 173.5t-36 247.5q0 123 27.5 257.5t94.5 278.5t163 240q78 78 178.5 122t214.5 44zM553 330q47 0 90 43
q72 72 119 242.5t47 302.5q0 186 -113 186q-47 0 -90 -43q-72 -72 -119 -243t-47 -302q0 -186 113 -186zM799 1507l98 129l-190 -129h-246l194 260l293 -61l47 61l332 -71l-283 -189h-245z" />
    <glyph glyph-name="ohungarumlaut" unicode="&#x151;" 
d="M432 -29q-202 0 -310 118.5t-108 320.5q0 162 54 325t155 264q148 148 352 148q202 0 310 -119t108 -319q0 -162 -54 -325.5t-155 -264.5q-148 -148 -352 -148zM457 299q30 0 57 27q46 46 77.5 164.5t31.5 209.5q0 67 -19 93t-53 26q-31 0 -57 -26q-46 -46 -77.5 -165
t-31.5 -210q0 -67 19 -93t53 -26zM649 1188l107 151l-207 -151h-215l221 305l258 -72l49 72l301 -82l-299 -223h-215z" />
    <glyph glyph-name="OE" unicode="&#x152;" horiz-adv-x="1585" 
d="M1423 0h-761q-328 0 -484 156q-133 133 -133 376q0 104 24.5 228.5t82.5 258t139 214.5q201 201 573 201h862l-77 -361h-449l-39 -182h408l-74 -340h-408l-40 -191h456zM504 406q46 -46 135 -46h12l152 713h-19q-118 0 -192 -74q-64 -64 -102.5 -192.5t-38.5 -237.5
q0 -66 13 -101t40 -62z" />
    <glyph glyph-name="oe" unicode="&#x153;" horiz-adv-x="1523" 
d="M420 -29q-193 0 -299.5 119.5t-106.5 319.5q0 162 54 325t155 264q148 148 344 148q188 0 289 -131q128 131 299 131q176 0 270.5 -112.5t94.5 -303.5q0 -125 -47 -305h-533q0 -131 147 -131q117 0 226 67l92 -282q-167 -107 -373 -107q-222 0 -317 121
q-123 -123 -295 -123zM457 299q30 0 57 27q46 46 77.5 164.5t31.5 209.5q0 67 -19 93t-53 26q-31 0 -57 -26q-46 -46 -77.5 -165t-31.5 -210q0 -67 19 -93t53 -26zM1053 809q-46 -46 -78 -168h186q13 64 13 102q0 43 -17 68t-47 25t-57 -27z" />
    <glyph glyph-name="Racute" unicode="&#x154;" horiz-adv-x="1083" 
d="M543 0l-84 428q-5 0 -15 -1t-14 -1h-10l-92 -426h-398l312 1434h354q317 0 451 -134q100 -100 100 -276q0 -248 -143 -391q-62 -62 -160 -107l123 -526h-424zM487 733h48q86 0 137 51q30 30 47.5 85t17.5 98q0 69 -32 94q-31 31 -95 31h-45zM557 1489l201 260l385 -78
l-301 -182h-285z" />
    <glyph glyph-name="racute" unicode="&#x155;" horiz-adv-x="677" 
d="M-74 0l242 1118h389l-41 -188q57 106 124 157.5t151 45.5l-99 -447h-18q-111 0 -174.5 -64t-93.5 -202l-91 -420h-389zM330 1171l225 306l346 -88l-328 -218h-243z" />
    <glyph glyph-name="Rcommaaccent" unicode="&#x156;" horiz-adv-x="1083" 
d="M162 -508l6 105q143 21 166 98h-135l55 244h297l-45 -203q-28 -121 -115.5 -177t-228.5 -67zM543 0l-84 428q-5 0 -15 -1t-14 -1h-10l-92 -426h-398l312 1434h354q317 0 451 -134q100 -100 100 -276q0 -248 -143 -391q-62 -62 -160 -107l123 -526h-424zM487 733h48
q86 0 137 51q30 30 47.5 85t17.5 98q0 69 -32 94q-31 31 -95 31h-45z" />
    <glyph glyph-name="rcommaaccent" unicode="&#x157;" horiz-adv-x="677" 
d="M-115 -508l6 105q143 21 166 98h-135l55 244h297l-45 -203q-28 -121 -115.5 -177t-228.5 -67zM-74 0l242 1118h389l-41 -188q57 106 124 157.5t151 45.5l-99 -447h-18q-111 0 -174.5 -64t-93.5 -202l-91 -420h-389z" />
    <glyph glyph-name="Rcaron" unicode="&#x158;" horiz-adv-x="1083" 
d="M543 0l-84 428q-5 0 -15 -1t-14 -1h-10l-92 -426h-398l312 1434h354q317 0 451 -134q100 -100 100 -276q0 -248 -143 -391q-62 -62 -160 -107l123 -526h-424zM487 733h48q86 0 137 51q30 30 47.5 85t17.5 98q0 69 -32 94q-31 31 -95 31h-45zM1098 1729l-232 -240h-309
l-127 240h219l90 -78l123 78h236z" />
    <glyph glyph-name="rcaron" unicode="&#x159;" horiz-adv-x="677" 
d="M-74 0l242 1118h389l-41 -188q57 106 124 157.5t151 45.5l-99 -447h-18q-111 0 -174.5 -64t-93.5 -202l-91 -420h-389zM324 1171l-136 275h205l101 -90l143 90h219l-258 -275h-274z" />
    <glyph glyph-name="Sacute" unicode="&#x15a;" horiz-adv-x="970" 
d="M406 -25q-268 0 -486 187l178 325q78 -72 161 -112.5t155 -40.5q47 0 74.5 21.5t27.5 58.5q0 33 -25 58t-104 79q-90 61 -145 117.5t-87 129t-32 160.5q0 221 141 359q141 141 377 141q242 0 440 -168l-196 -307q-134 117 -254 117q-49 0 -76 -21t-27 -57q0 -34 30 -64.5
t124 -95.5q80 -56 129 -106t81 -124t32 -167q0 -208 -142 -350q-140 -140 -376 -140zM526 1507l201 260l385 -77l-301 -183h-285z" />
    <glyph glyph-name="sacute" unicode="&#x15b;" horiz-adv-x="811" 
d="M342 -25q-241 0 -428 164l162 287q64 -62 135 -102.5t123 -40.5q29 0 44 12.5t15 32.5q0 6 -1 10.5t-3.5 9.5t-5 8.5t-8.5 9t-10.5 9t-14.5 10.5t-17 12t-21 14.5t-25 16.5q-110 74 -161.5 146t-51.5 171q0 170 111 284t302 114q216 0 396 -135l-164 -289
q-53 48 -114 82.5t-111 34.5q-56 0 -56 -43q0 -17 15 -31t65 -47q15 -9 23 -15q54 -36 89.5 -66t67.5 -69t47 -85t15 -101q0 -79 -27 -150.5t-78 -128.5t-132 -91t-181 -34zM401 1188l226 305l346 -88l-328 -217h-244z" />
    <glyph glyph-name="Scedilla" unicode="&#x15e;" horiz-adv-x="970" 
d="M326 -297l-326 94l203 207q-156 48 -283 158l178 325q78 -72 161 -112.5t155 -40.5q47 0 74.5 21.5t27.5 58.5q0 33 -25 58t-104 79q-90 61 -145 117.5t-87 129t-32 160.5q0 221 141 359q141 141 377 141q242 0 440 -168l-196 -307q-134 117 -254 117q-49 0 -76 -21
t-27 -57q0 -34 30 -64.5t124 -95.5q80 -56 129 -106t81 -124t32 -167q0 -208 -142 -350q-123 -123 -323 -138z" />
    <glyph glyph-name="scedilla" unicode="&#x15f;" horiz-adv-x="811" 
d="M262 -297l-325 94l204 209q-120 39 -227 133l162 287q64 -62 135 -102.5t123 -40.5q29 0 44 12.5t15 32.5q0 6 -1 10.5t-3.5 9.5t-5 8.5t-8.5 9t-10.5 9t-14.5 10.5t-17 12t-21 14.5t-25 16.5q-110 74 -161.5 146t-51.5 171q0 170 111 284t302 114q216 0 396 -135
l-164 -289q-53 48 -114 82.5t-111 34.5q-56 0 -56 -43q0 -17 15 -31t65 -47q15 -9 23 -15q54 -36 89.5 -66t67.5 -69t47 -85t15 -101q0 -100 -39.5 -185.5t-124.5 -145.5t-201 -71z" />
    <glyph glyph-name="Scaron" unicode="&#x160;" horiz-adv-x="970" 
d="M406 -25q-268 0 -486 187l178 325q78 -72 161 -112.5t155 -40.5q47 0 74.5 21.5t27.5 58.5q0 33 -25 58t-104 79q-90 61 -145 117.5t-87 129t-32 160.5q0 221 141 359q141 141 377 141q242 0 440 -168l-196 -307q-134 117 -254 117q-49 0 -76 -21t-27 -57q0 -34 30 -64.5
t124 -95.5q80 -56 129 -106t81 -124t32 -167q0 -208 -142 -350q-140 -140 -376 -140zM1067 1747l-231 -240h-310l-127 240h219l91 -78l122 78h236z" />
    <glyph glyph-name="scaron" unicode="&#x161;" horiz-adv-x="811" 
d="M342 -25q-241 0 -428 164l162 287q64 -62 135 -102.5t123 -40.5q29 0 44 12.5t15 32.5q0 6 -1 10.5t-3.5 9.5t-5 8.5t-8.5 9t-10.5 9t-14.5 10.5t-17 12t-21 14.5t-25 16.5q-110 74 -161.5 146t-51.5 171q0 170 111 284t302 114q216 0 396 -135l-164 -289
q-53 48 -114 82.5t-111 34.5q-56 0 -56 -43q0 -17 15 -31t65 -47q15 -9 23 -15q54 -36 89.5 -66t67.5 -69t47 -85t15 -101q0 -79 -27 -150.5t-78 -128.5t-132 -91t-181 -34zM395 1188l-135 274h205l100 -90l144 90h219l-258 -274h-275z" />
    <glyph glyph-name="Tcommaaccent" unicode="&#x162;" horiz-adv-x="972" 
d="M166 0l231 1067h-268l82 367h936l-82 -367h-268l-232 -1067h-399zM113 -508l6 105q143 21 166 98h-135l55 244h297l-45 -203q-28 -121 -115.5 -177t-228.5 -67z" />
    <glyph glyph-name="Tcommaaccent" unicode="&#x21a;" horiz-adv-x="972" 
d="M166 0l231 1067h-268l82 367h936l-82 -367h-268l-232 -1067h-399zM113 -508l6 105q143 21 166 98h-135l55 244h297l-45 -203q-28 -121 -115.5 -177t-228.5 -67z" />
    <glyph glyph-name="tcommaaccent" unicode="&#x163;" horiz-adv-x="669" 
d="M326 -23q-139 0 -218 58t-79 172q0 48 16 123l105 481h-82l67 307h82l57 266h388l-58 -266h166l-68 -307h-165l-86 -397q-9 -27 -9 -64q0 -47 62 -47q45 0 90 16l-68 -311q-108 -31 -200 -31zM2 -522l6 104q143 21 166 99h-135l55 243h297l-45 -203q-28 -120 -115.5 -176
t-228.5 -67z" />
    <glyph glyph-name="tcommaaccent" unicode="&#x21b;" horiz-adv-x="669" 
d="M326 -23q-139 0 -218 58t-79 172q0 48 16 123l105 481h-82l67 307h82l57 266h388l-58 -266h166l-68 -307h-165l-86 -397q-9 -27 -9 -64q0 -47 62 -47q45 0 90 16l-68 -311q-108 -31 -200 -31zM2 -522l6 104q143 21 166 99h-135l55 243h297l-45 -203q-28 -120 -115.5 -176
t-228.5 -67z" />
    <glyph glyph-name="Tcaron" unicode="&#x164;" horiz-adv-x="972" 
d="M166 0l231 1067h-268l82 367h936l-82 -367h-268l-232 -1067h-399zM1083 1729l-231 -240h-309l-127 240h219l90 -78l123 78h235z" />
    <glyph glyph-name="tcaron" unicode="&#x165;" horiz-adv-x="669" 
d="M664 1169l90 351h233l-2 -2l-180 -349h-141zM326 -23q-139 0 -218 58t-79 172q0 48 16 123l105 481h-82l67 307h82l57 266h388l-58 -266h166l-68 -307h-165l-86 -397q-9 -27 -9 -64q0 -47 62 -47q45 0 90 16l-68 -311q-108 -31 -200 -31z" />
    <glyph glyph-name="Umacron" unicode="&#x16a;" horiz-adv-x="1126" 
d="M481 -25q-219 0 -340 103.5t-121 279.5q0 98 23 201l190 875h400l-199 -916q-12 -46 -12 -86q0 -45 27.5 -70.5t76.5 -25.5q53 0 86 33q38 38 56 120l204 945h400l-207 -957q-29 -125 -70 -210t-102 -146q-146 -146 -412 -146zM438 1497l54 229h653l-51 -229h-656z" />
    <glyph glyph-name="umacron" unicode="&#x16b;" 
d="M207 -25q-113 0 -171.5 64t-58.5 172q0 72 17 139l166 768h391l-145 -672q-11 -57 -11 -67q0 -57 56 -57q69 0 90 96l151 700h389l-241 -1118h-389l26 127q-126 -152 -270 -152zM328 1182l49 223h620l-49 -223h-620z" />
    <glyph glyph-name="Ubreve" unicode="&#x16c;" horiz-adv-x="1126" 
d="M481 -25q-219 0 -340 103.5t-121 279.5q0 98 23 201l190 875h400l-199 -916q-12 -46 -12 -86q0 -45 27.5 -70.5t76.5 -25.5q53 0 86 33q38 38 56 120l204 945h400l-207 -957q-29 -125 -70 -210t-102 -146q-146 -146 -412 -146zM766 1477q-136 0 -206.5 60t-53.5 183h203
q6 -63 92 -63q76 0 114 63h211q-81 -243 -360 -243z" />
    <glyph glyph-name="ubreve" unicode="&#x16d;" 
d="M207 -25q-113 0 -171.5 64t-58.5 172q0 72 17 139l166 768h391l-145 -672q-11 -57 -11 -67q0 -57 56 -57q69 0 90 96l151 700h389l-241 -1118h-389l26 127q-126 -152 -270 -152zM653 1169q-143 0 -216.5 69t-63.5 208h202q2 -42 26.5 -66t70.5 -24q90 0 131 90h205
q-38 -134 -131.5 -205.5t-223.5 -71.5z" />
    <glyph glyph-name="Uring" unicode="&#x16e;" horiz-adv-x="1126" 
d="M481 -25q-219 0 -340 103.5t-121 279.5q0 98 23 201l190 875h400l-199 -916q-12 -46 -12 -86q0 -45 27.5 -70.5t76.5 -25.5q53 0 86 33q38 38 56 120l204 945h400l-207 -957q-29 -125 -70 -210t-102 -146q-146 -146 -412 -146zM834 1927q98 0 163.5 -56t65.5 -145
q0 -106 -79 -181t-200 -75q-95 0 -162 58t-67 143q0 106 79 181t200 75zM797 1585q60 0 97.5 38.5t37.5 88.5q0 47 -30 73.5t-81 26.5q-60 0 -97.5 -38t-37.5 -88q0 -47 30 -74t81 -27z" />
    <glyph glyph-name="uring" unicode="&#x16f;" 
d="M918 1419q0 -103 -73.5 -179.5t-187.5 -76.5q-90 0 -148 53.5t-58 143.5q0 101 73 177.5t187 76.5q89 0 148 -52.5t59 -142.5zM580 1366q0 -39 24 -64.5t64 -25.5q50 0 85 38t35 97q0 39 -24 65.5t-64 26.5q-51 0 -85.5 -38.5t-34.5 -98.5zM207 -25q-113 0 -171.5 64
t-58.5 172q0 72 17 139l166 768h391l-145 -672q-11 -57 -11 -67q0 -57 56 -57q69 0 90 96l151 700h389l-241 -1118h-389l26 127q-126 -152 -270 -152z" />
    <glyph glyph-name="Uhungarumlaut" unicode="&#x170;" horiz-adv-x="1126" 
d="M481 -25q-219 0 -340 103.5t-121 279.5q0 98 23 201l190 875h400l-199 -916q-12 -46 -12 -86q0 -45 27.5 -70.5t76.5 -25.5q53 0 86 33q38 38 56 120l204 945h400l-207 -957q-29 -125 -70 -210t-102 -146q-146 -146 -412 -146zM776 1489l98 129l-190 -129h-246l195 260
l293 -61l47 61l332 -72l-283 -188h-246z" />
    <glyph glyph-name="uhungarumlaut" unicode="&#x171;" 
d="M207 -25q-113 0 -171.5 64t-58.5 172q0 72 17 139l166 768h391l-145 -672q-11 -57 -11 -67q0 -57 56 -57q69 0 90 96l151 700h389l-241 -1118h-389l26 127q-126 -152 -270 -152zM645 1171l107 152l-207 -152h-215l221 306l258 -72l49 72l301 -82l-299 -224h-215z" />
    <glyph glyph-name="Uogonek" unicode="&#x172;" horiz-adv-x="1126" 
d="M631 -117l-39 -182q-63 -8 -146 -8q-251 0 -251 123q0 87 116 180q-140 35 -215.5 130t-75.5 232q0 98 23 201l190 875h400l-199 -916q-12 -46 -12 -86q0 -45 27.5 -70.5t76.5 -25.5q53 0 86 33q38 38 56 120l204 945h400l-207 -957q-29 -125 -70 -210t-102 -146
q-126 -126 -344 -144q-25 -27 -25 -51q0 -19 22.5 -28t84.5 -15z" />
    <glyph glyph-name="uogonek" unicode="&#x173;" 
d="M207 -25q-113 0 -171.5 64t-58.5 172q0 72 17 139l166 768h391l-145 -672q-11 -57 -11 -67q0 -57 56 -57q69 0 90 96l151 700h389l-241 -1118h-62q-45 -45 -45 -74q0 -19 22.5 -28t84.5 -15l-39 -182q-63 -8 -146 -8q-252 0 -252 123q0 48 29 91.5t94 92.5h-75l26 127
q-126 -152 -270 -152z" />
    <glyph glyph-name="Wcircumflex" unicode="&#x174;" horiz-adv-x="1640" 
d="M168 -4l8 1438h414l-45 -746l295 748h334l-25 -748l272 746h420l-614 -1438h-389l-2 629l-277 -629h-391zM680 1489l231 240h310l127 -240h-220l-90 78l-125 -78h-233z" />
    <glyph glyph-name="wcircumflex" unicode="&#x175;" horiz-adv-x="1355" 
d="M123 -6l-4 1124h375l-33 -500l186 502h301l-26 -504l182 502h381l-492 -1124h-331l-7 459l-194 -459h-338zM477 1171l256 275h277l133 -275h-203l-102 93l-142 -93h-219z" />
    <glyph glyph-name="Ycircumflex" unicode="&#x176;" horiz-adv-x="1062" 
d="M203 0l112 516l-155 918h405l41 -476l244 476h430l-569 -936l-109 -498h-399zM383 1489l231 240h310l127 -240h-220l-90 78l-125 -78h-233z" />
    <glyph glyph-name="ycircumflex" unicode="&#x177;" horiz-adv-x="985" 
d="M186 25l-69 1093h387l-10 -581l231 581h397l-526 -1087q-89 -181 -176.5 -253.5t-233.5 -72.5q-136 0 -260 74l105 278q67 -47 112 -47q28 0 43 15zM287 1171l256 275h276l133 -275h-202l-103 93l-141 -93h-219z" />
    <glyph glyph-name="Ydieresis" unicode="&#x178;" horiz-adv-x="1062" 
d="M203 0l112 516l-155 918h405l41 -476l244 476h430l-569 -936l-109 -498h-399zM399 1489l56 254h293l-56 -254h-293zM754 1489l55 254h295l-57 -254h-293z" />
    <glyph glyph-name="Zacute" unicode="&#x179;" horiz-adv-x="960" 
d="M-92 0l72 319l569 754h-395l79 361h889l-69 -320l-570 -754h406l-78 -360h-903zM520 1489l201 260l385 -78l-301 -182h-285z" />
    <glyph glyph-name="zacute" unicode="&#x17a;" horiz-adv-x="845" 
d="M-92 0l59 274l445 527h-322l68 317h786l-59 -274l-445 -527h332l-70 -317h-794zM410 1171l225 306l346 -88l-328 -218h-243z" />
    <glyph glyph-name="Zdotaccent" unicode="&#x17b;" horiz-adv-x="960" 
d="M-92 0l72 319l569 754h-395l79 361h889l-69 -320l-570 -754h406l-78 -360h-903zM516 1489l57 254h310l-56 -254h-311z" />
    <glyph glyph-name="zdotaccent" unicode="&#x17c;" horiz-adv-x="845" 
d="M-92 0l59 274l445 527h-322l68 317h786l-59 -274l-445 -527h332l-70 -317h-794zM401 1171l60 271h305l-57 -271h-308z" />
    <glyph glyph-name="Zcaron" unicode="&#x17d;" horiz-adv-x="960" 
d="M-92 0l72 319l569 754h-395l79 361h889l-69 -320l-570 -754h406l-78 -360h-903zM1061 1729l-232 -240h-309l-127 240h219l90 -78l123 78h236z" />
    <glyph glyph-name="zcaron" unicode="&#x17e;" horiz-adv-x="845" 
d="M-92 0l59 274l445 527h-322l68 317h786l-59 -274l-445 -527h332l-70 -317h-794zM406 1171l-136 275h205l100 -90l144 90h219l-258 -275h-274z" />
    <glyph glyph-name="uni018F" unicode="&#x18f;" horiz-adv-x="1124" 
d="M39 467q0 162 57 401h662v4q0 111 -46.5 163t-138.5 52q-105 0 -272 -90l-90 355q217 106 412 106q249 0 382.5 -148.5t133.5 -410.5q0 -225 -75.5 -434t-193.5 -332q-162 -162 -389 -162q-149 0 -250 65.5t-146.5 174.5t-45.5 256zM606 369q66 66 109 217h-293
q-14 -59 -14 -129q0 -133 98 -133q55 0 100 45z" />
    <glyph glyph-name="Aringacute" unicode="&#x1fa;" horiz-adv-x="1155" 
d="M-143 0l675 1419l13 -4q-19 43 -19 86q0 103 79 176.5t200 73.5q95 0 162 -56.5t67 -142.5q0 -73 -43 -135l4 2l62 -1419h-404v219h-293l-92 -219h-411zM702 1784l189 239l387 -73l-305 -166h-271zM768 1409q60 0 97.5 39.5t37.5 89.5q0 45 -30 72.5t-80 27.5
q-60 0 -98 -39.5t-38 -89.5q0 -45 30 -72.5t81 -27.5zM494 530h163l5 404z" />
    <glyph glyph-name="aringacute" unicode="&#x1fb;" horiz-adv-x="952" 
d="M571 1683l224 256l350 -73l-322 -183h-252zM190 -23q-105 0 -163 67t-58 189q0 100 32.5 200.5t92.5 160.5q88 94 254 94q106 0 197 -45l4 16q8 21 8 54q0 50 -34.5 77t-100.5 27q-88 0 -232 -47l-34 313q188 56 374 56q201 0 311.5 -84.5t110.5 -249.5q0 -73 -18 -152
l-141 -653h-387l18 88q-60 -57 -112 -84t-122 -27zM381 219q33 0 62 30t40 83l25 125q-37 16 -70 16q-39 0 -63 -24t-36.5 -70.5t-12.5 -83.5q0 -76 55 -76zM891 1442q0 -103 -73 -179.5t-187 -76.5q-90 0 -148.5 53t-58.5 143q0 101 73 177.5t187 76.5q89 0 148 -52
t59 -142zM553 1389q0 -39 24 -65t64 -26q50 0 85.5 38.5t35.5 97.5q0 39 -24 65.5t-64 26.5q-51 0 -86 -38.5t-35 -98.5z" />
    <glyph glyph-name="AEacute" unicode="&#x1fc;" horiz-adv-x="1574" 
d="M-152 0l746 1434h1124l-80 -361h-448l-39 -182h408l-74 -340h-408l-41 -191h457l-80 -360h-850l47 219h-252l-102 -219h-408zM506 530h172l121 555h-23zM895 1489l201 260l385 -78l-301 -182h-285z" />
    <glyph glyph-name="aeacute" unicode="&#x1fd;" horiz-adv-x="1445" 
d="M233 -23q-121 0 -192.5 66t-71.5 186q0 104 32.5 204.5t92.5 160.5q88 94 254 94q106 0 197 -45l4 16q8 21 8 54q0 50 -34.5 77t-100.5 27q-88 0 -232 -47l-34 313q188 56 374 56q196 0 291 -92q121 100 264 100q170 0 263.5 -113t93.5 -303q0 -125 -47 -305h-533
q0 -68 40 -99.5t108 -31.5q116 0 225 67l92 -284q-167 -107 -381 -107q-127 0 -221.5 43.5t-149.5 122.5q-147 -160 -342 -160zM391 229q66 0 123 76q-13 78 -4 158q-37 16 -70 16q-39 0 -63 -24q-26 -26 -38.5 -68.5t-12.5 -79.5q0 -78 65 -78zM975 809q-46 -46 -78 -168
h186q13 64 13 102q0 43 -17 68t-47 25t-57 -27zM696 1171l226 306l346 -88l-328 -218h-244z" />
    <glyph glyph-name="Oslashacute" unicode="&#x1fe;" horiz-adv-x="1181" 
d="M715 1464q208 0 338 -118l82 98h196l-188 -219q63 -117 63 -289q0 -137 -26 -277.5t-90.5 -285.5t-157.5 -238q-166 -166 -400 -166q-210 0 -337 121l-80 -100h-199l186 225q-59 121 -59 283q0 137 26 277.5t90.5 285t157.5 237.5q166 166 398 166zM551 317q56 0 104 48
q61 61 109 223t63 295l-383 -510q35 -56 107 -56zM594 1069q-59 -59 -108.5 -216.5t-63.5 -285.5l379 500q-34 49 -103 49q-57 0 -104 -47zM637 1507l201 260l385 -77l-301 -183h-285z" />
    <glyph glyph-name="oslashacute" unicode="&#x1ff;" 
d="M-106 -4l165 184q-45 89 -45 230q0 162 54 325t155 264q148 148 352 148q185 0 289 -98l64 73h184l-166 -184q47 -103 47 -229q0 -162 -54 -325.5t-155 -264.5q-148 -148 -352 -148q-186 0 -291 99l-63 -74h-184zM455 285q37 0 67 30q42 42 71 134t38 180l-246 -303
q21 -41 70 -41zM485 803q-44 -44 -72.5 -135t-37.5 -181l246 306q-21 41 -68 41q-37 0 -68 -31zM498 1188l225 305l346 -88l-328 -217h-243z" />
    <glyph glyph-name="Scommaaccent" unicode="&#x218;" horiz-adv-x="970" 
d="M406 -25q-268 0 -486 187l178 325q78 -72 161 -112.5t155 -40.5q47 0 74.5 21.5t27.5 58.5q0 33 -25 58t-104 79q-90 61 -145 117.5t-87 129t-32 160.5q0 221 141 359q141 141 377 141q242 0 440 -168l-196 -307q-134 117 -254 117q-49 0 -76 -21t-27 -57q0 -34 30 -64.5
t124 -95.5q80 -56 129 -106t81 -124t32 -167q0 -208 -142 -350q-140 -140 -376 -140zM109 -524l6 104q143 21 166 98h-136l56 244h297l-45 -203q-28 -120 -115.5 -176t-228.5 -67z" />
    <glyph glyph-name="scommaaccent" unicode="&#x219;" horiz-adv-x="811" 
d="M342 -25q-241 0 -428 164l162 287q64 -62 135 -102.5t123 -40.5q29 0 44 12.5t15 32.5q0 6 -1 10.5t-3.5 9.5t-5 8.5t-8.5 9t-10.5 9t-14.5 10.5t-17 12t-21 14.5t-25 16.5q-110 74 -161.5 146t-51.5 171q0 170 111 284t302 114q216 0 396 -135l-164 -289
q-53 48 -114 82.5t-111 34.5q-56 0 -56 -43q0 -17 15 -31t65 -47q15 -9 23 -15q54 -36 89.5 -66t67.5 -69t47 -85t15 -101q0 -79 -27 -150.5t-78 -128.5t-132 -91t-181 -34zM31 -522l6 104q143 21 166 99h-135l55 243h297l-45 -203q-28 -120 -115.5 -176t-228.5 -67z" />
    <glyph glyph-name="schwa" unicode="&#x259;" horiz-adv-x="960" 
d="M6 389q0 125 47 305h533q0 68 -40 99.5t-108 31.5q-116 0 -225 -67l-92 282q167 107 381 107q215 0 331.5 -119t116.5 -332q0 -142 -55.5 -307.5t-159.5 -269.5q-146 -146 -348 -146q-187 0 -284 112t-97 304zM473 311q45 45 76 168h-184q-13 -64 -13 -102
q0 -43 16.5 -67.5t47.5 -24.5t57 26z" />
    <glyph glyph-name="circumflex" unicode="&#x2c6;" horiz-adv-x="1024" 
d="M311 1171l256 275h277l133 -275h-203l-102 93l-142 -93h-219z" />
    <glyph glyph-name="caron" unicode="&#x2c7;" horiz-adv-x="1024" 
d="M508 1171l-135 275h205l100 -90l143 90h219l-258 -275h-274z" />
    <glyph glyph-name="breve" unicode="&#x2d8;" horiz-adv-x="1024" 
d="M670 1169q-143 0 -217 69t-64 208h203q2 -42 26 -66t70 -24q90 0 131 90h205q-38 -134 -131 -205.5t-223 -71.5z" />
    <glyph glyph-name="dotaccent" unicode="&#x2d9;" horiz-adv-x="1024" 
d="M492 1171l59 271h305l-57 -271h-307z" />
    <glyph glyph-name="ring" unicode="&#x2da;" horiz-adv-x="1024" 
d="M926 1425q0 -103 -73 -179.5t-187 -76.5q-90 0 -148.5 53.5t-58.5 143.5q0 101 73 177.5t187 76.5q89 0 148 -52.5t59 -142.5zM588 1372q0 -39 24 -64.5t64 -25.5q51 0 86 38t35 97q0 39 -24 65.5t-64 26.5q-51 0 -86 -38.5t-35 -98.5z" />
    <glyph glyph-name="ogonek" unicode="&#x2db;" horiz-adv-x="1024" 
d="M592 -117l-39 -182q-63 -8 -145 -8q-252 0 -252 123q0 57 47.5 113.5t152.5 125.5l211 -18q-49 -48 -65.5 -70.5t-16.5 -40.5q0 -19 22.5 -28t84.5 -15z" />
    <glyph glyph-name="tilde" unicode="&#x2dc;" horiz-adv-x="1024" 
d="M883 1475l168 -35q-36 -137 -95.5 -205t-136.5 -68q-63 0 -147 35q-85 31 -115 31t-47.5 -16t-36.5 -58l-168 35q71 272 232 272q68 0 149 -34q85 -33 113 -33q30 0 47 16.5t37 59.5z" />
    <glyph glyph-name="hungarumlaut" unicode="&#x2dd;" horiz-adv-x="1024" 
d="M584 1171l106 152l-207 -152h-215l221 306l259 -72l49 72l301 -82l-299 -224h-215z" />
    <glyph glyph-name="commaaccent" unicode="&#x326;" horiz-adv-x="1024" 
d="M141 -508l6 105q143 21 166 98h-135l55 244h297l-45 -203q-28 -121 -115.5 -177t-228.5 -67z" />
    <glyph glyph-name="uni0384" unicode="&#x384;" horiz-adv-x="1024" 
d="M442 1171l154 320l326 -84l-254 -236h-226z" />
    <glyph glyph-name="uni0385" unicode="&#x385;" horiz-adv-x="1024" 
d="M827 1171l56 254h250l-56 -254h-250zM215 1171l55 254h250l-55 -254h-250zM504 1171l123 379l280 -51l-223 -328h-180z" />
    <glyph glyph-name="uni0386" unicode="&#x386;" horiz-adv-x="1153" 
d="M-143 0l688 1438h448l64 -1438h-404v219h-293l-92 -219h-411zM494 530h163l5 404zM33 1071l96 363h317l-215 -363h-198z" />
    <glyph glyph-name="uni0387" unicode="&#x387;" horiz-adv-x="485" 
d="M70 713l90 405h403l-88 -405h-405z" />
    <glyph glyph-name="uni0388" unicode="&#x388;" horiz-adv-x="956" 
d="M-203 1071l97 363h317l-215 -363h-199zM-70 0l312 1434h858l-80 -361h-459l-41 -182h420l-74 -340h-420l-40 -191h468l-79 -360h-865z" />
    <glyph glyph-name="uni0389" unicode="&#x389;" horiz-adv-x="1142" 
d="M-70 0l312 1434h399l-115 -529h242l115 529h399l-311 -1434h-400l117 537h-242l-116 -537h-400zM-203 1071l97 363h317l-215 -363h-199z" />
    <glyph glyph-name="uni038A" unicode="&#x38a;" horiz-adv-x="509" 
d="M-66 0l312 1434h399l-311 -1434h-400zM-203 1071l97 363h317l-215 -363h-199z" />
    <glyph glyph-name="uni038C" unicode="&#x38c;" horiz-adv-x="1179" 
d="M-139 1071l96 363h317l-215 -363h-198zM721 1464q107 0 194 -33t153 -99t102 -173.5t36 -247.5q0 -195 -71.5 -415t-210.5 -359q-78 -78 -180.5 -123t-215.5 -45q-107 0 -194 33t-153 99t-102 173.5t-36 247.5q0 123 27.5 257.5t94.5 278.5t163 240q78 78 178.5 122
t214.5 44zM553 330q47 0 90 43q72 72 119 242.5t47 302.5q0 186 -113 186q-47 0 -90 -43q-72 -72 -119 -243t-47 -302q0 -186 113 -186z" />
    <glyph glyph-name="uni038E" unicode="&#x38e;" horiz-adv-x="1062" 
d="M203 0l112 516l-155 918h405l41 -476l244 476h430l-569 -936l-109 -498h-399zM-262 1071l96 363h318l-215 -363h-199z" />
    <glyph glyph-name="uni038F" unicode="&#x38f;" horiz-adv-x="1218" 
d="M715 1102q-60 0 -111 -47q-61 -56 -94 -189.5t-33 -271.5q0 -62 11 -135.5t28 -116.5l-74 -342h-520l76 354l205 -2q-105 215 -105 410q0 162 48.5 301t140.5 231q170 170 467 170q245 0 372 -123t127 -331q0 -354 -311 -658l207 2l-78 -354h-534l73 340
q100 152 163 313.5t63 288.5q0 81 -33.5 120.5t-87.5 39.5zM-156 1071l97 363h317l-215 -363h-199z" />
    <glyph glyph-name="uni0390" unicode="&#x390;" horiz-adv-x="583" 
d="M-12 223q0 89 28 205l146 690h391l-156 -723q-8 -36 -8 -55q0 -47 66 -47q23 0 55 4l-61 -285q-88 -32 -195 -32q-266 0 -266 243zM575 1171l56 254h250l-56 -254h-250zM-37 1171l55 254h250l-55 -254h-250zM252 1171l123 379l280 -51l-223 -328h-180z" />
    <glyph glyph-name="uni0391" unicode="&#x391;" horiz-adv-x="1153" 
d="M-143 0l688 1438h448l64 -1438h-404v219h-293l-92 -219h-411zM494 530h163l5 404z" />
    <glyph glyph-name="uni0392" unicode="&#x392;" horiz-adv-x="1081" 
d="M-70 0l312 1434h409q246 0 368 -92.5t122 -243.5q0 -142 -72.5 -237.5t-200.5 -145.5q170 -87 170 -266q0 -209 -156.5 -329t-463.5 -120h-488zM391 342h94q73 0 115.5 39t42.5 100q0 47 -33.5 72t-93.5 25h-74zM504 864h80q80 0 119.5 37.5t39.5 97.5q0 93 -127 93h-63z
" />
    <glyph glyph-name="uni0393" unicode="&#x393;" horiz-adv-x="874" 
d="M-70 0l312 1434h802l-79 -365h-404l-231 -1069h-400z" />
    <glyph glyph-name="uni0394" unicode="&#x394;" horiz-adv-x="1175" 
d="M1026 1438l82 -1108l-127 -330h-1006l-4 332l559 1106h496zM700 1036l-301 -674h314z" />
    <glyph glyph-name="uni0395" unicode="&#x395;" horiz-adv-x="956" 
d="M-70 0l312 1434h858l-80 -361h-459l-41 -182h420l-74 -340h-420l-40 -191h468l-79 -360h-865z" />
    <glyph glyph-name="uni0396" unicode="&#x396;" horiz-adv-x="960" 
d="M-92 0l72 319l569 754h-395l79 361h889l-69 -320l-570 -754h406l-78 -360h-903z" />
    <glyph glyph-name="uni0397" unicode="&#x397;" horiz-adv-x="1142" 
d="M-70 0l312 1434h399l-115 -529h242l115 529h399l-311 -1434h-400l117 537h-242l-116 -537h-400z" />
    <glyph glyph-name="uni0398" unicode="&#x398;" horiz-adv-x="1155" 
d="M43 522q0 124 27 259t93 279.5t161 239.5q75 75 176.5 119.5t210.5 44.5q214 0 342.5 -138.5t128.5 -414.5q0 -124 -27 -259t-93 -279.5t-161 -239.5q-75 -75 -176.5 -119.5t-210.5 -44.5q-214 0 -342.5 138.5t-128.5 414.5zM410 512q0 -201 127 -201q57 0 108 51
q54 54 109 203h-342q-2 -18 -2 -53zM580 1071q-63 -63 -107 -194h340q0 7 1 22.5t1 22.5q0 200 -127 200q-57 0 -108 -51z" />
    <glyph glyph-name="uni0399" unicode="&#x399;" horiz-adv-x="509" 
d="M-66 0l312 1434h399l-311 -1434h-400z" />
    <glyph glyph-name="uni039A" unicode="&#x39a;" horiz-adv-x="1091" 
d="M-70 0l312 1434h399l-104 -482l303 482h442l-438 -643l137 -791h-418l-61 465l-103 -139l-69 -326h-400z" />
    <glyph glyph-name="uni039B" unicode="&#x39b;" horiz-adv-x="1126" 
d="M969 1438l61 -1438h-414l5 786l-336 -786h-428l684 1438h428z" />
    <glyph glyph-name="uni039C" unicode="&#x39c;" horiz-adv-x="1306" 
d="M-70 0l312 1434h379l112 -443l307 443h406l-311 -1434h-392l148 680l-305 -428h-4l-115 428l-150 -680h-387z" />
    <glyph glyph-name="uni039D" unicode="&#x39d;" horiz-adv-x="1167" 
d="M-70 0l312 1434h385l157 -600l134 600h389l-312 -1434h-368l-168 633l-140 -633h-389z" />
    <glyph glyph-name="uni039E" unicode="&#x39e;" horiz-adv-x="960" 
d="M879 360l-80 -360h-879l78 360h881zM1104 1434l-80 -361h-866l80 361h866zM948 891l-74 -340h-792l74 340h792z" />
    <glyph glyph-name="uni039F" unicode="&#x39f;" horiz-adv-x="1179" 
d="M721 1464q107 0 194 -33t153 -99t102 -173.5t36 -247.5q0 -195 -71.5 -415t-210.5 -359q-78 -78 -180.5 -123t-215.5 -45q-107 0 -194 33t-153 99t-102 173.5t-36 247.5q0 123 27.5 257.5t94.5 278.5t163 240q78 78 178.5 122t214.5 44zM553 330q47 0 90 43
q72 72 119 242.5t47 302.5q0 186 -113 186q-47 0 -90 -43q-72 -72 -119 -243t-47 -302q0 -186 113 -186z" />
    <glyph glyph-name="uni03A0" unicode="&#x3a0;" horiz-adv-x="1136" 
d="M-70 0l312 1434h1034l-311 -1434h-400l230 1063h-236l-229 -1063h-400z" />
    <glyph glyph-name="uni03A1" unicode="&#x3a1;" horiz-adv-x="1032" 
d="M-70 0l312 1434h346q284 0 420 -136q102 -102 102 -274q0 -126 -40 -246t-120 -200q-172 -172 -467 -172h-67l-88 -406h-398zM678 1067q-31 31 -90 31h-23l-80 -369h25q86 0 133 47q34 34 52 90t18 105q0 61 -35 96z" />
    <glyph glyph-name="uni03A3" unicode="&#x3a3;" horiz-adv-x="968" 
d="M786 700l-303 -340h412l-78 -360h-909l69 319l379 418l-200 377l69 320h873l-80 -361h-418z" />
    <glyph glyph-name="uni03A4" unicode="&#x3a4;" horiz-adv-x="972" 
d="M166 0l231 1067h-268l82 367h936l-82 -367h-268l-232 -1067h-399z" />
    <glyph glyph-name="uni03A5" unicode="&#x3a5;" horiz-adv-x="1062" 
d="M203 0l112 516l-155 918h405l41 -476l244 476h430l-569 -936l-109 -498h-399z" />
    <glyph glyph-name="uni03A6" unicode="&#x3a6;" horiz-adv-x="1564" 
d="M778 1468h402l-31 -143q205 -38 318.5 -168t113.5 -346q-2 -146 -54 -281.5t-153 -236.5q-183 -183 -491 -197l-29 -131h-401l30 141q-206 39 -318.5 169.5t-111.5 345.5q0 147 51.5 282.5t153.5 237.5q85 85 211 136.5t281 57.5zM442 625q0 -155 125 -189l123 565
q-81 -11 -141 -71q-53 -53 -80 -135.5t-27 -169.5zM1190 809q0 151 -125 188l-123 -565q77 8 139 70q53 53 81 136.5t28 170.5z" />
    <glyph glyph-name="uni03A7" unicode="&#x3a7;" horiz-adv-x="1062" 
d="M-143 0l471 754l-144 680h410l47 -365l195 365h421l-446 -721l154 -713h-412l-53 408l-221 -408h-422z" />
    <glyph glyph-name="uni03A8" unicode="&#x3a8;" horiz-adv-x="1544" 
d="M770 1434h385l-168 -768q76 8 121 53q36 36 63 151l121 564h389l-131 -633q-49 -230 -159 -340q-165 -165 -473 -174l-62 -287h-410l62 299q-406 62 -406 408q0 93 35 249l101 478h395l-111 -516q-20 -81 -20 -142q0 -48 21.5 -73t76.5 -35z" />
    <glyph glyph-name="uni03A9" unicode="&#x3a9;" horiz-adv-x="1218" 
d="M715 1102q-60 0 -111 -47q-61 -56 -94 -189.5t-33 -271.5q0 -62 11 -135.5t28 -116.5l-74 -342h-520l76 354l205 -2q-105 215 -105 410q0 162 48.5 301t140.5 231q170 170 467 170q245 0 372 -123t127 -331q0 -354 -311 -658l207 2l-78 -354h-534l73 340
q100 152 163 313.5t63 288.5q0 81 -33.5 120.5t-87.5 39.5z" />
    <glyph glyph-name="uni03AA" unicode="&#x3aa;" horiz-adv-x="509" 
d="M-66 0l312 1434h399l-311 -1434h-400zM135 1489l55 254h293l-55 -254h-293zM489 1489l56 254h295l-58 -254h-293z" />
    <glyph glyph-name="uni03AB" unicode="&#x3ab;" horiz-adv-x="1062" 
d="M203 0l112 516l-155 918h405l41 -476l244 476h430l-569 -936l-109 -498h-399zM399 1489l56 254h293l-56 -254h-293zM754 1489l55 254h295l-57 -254h-293z" />
    <glyph glyph-name="uni03AC" unicode="&#x3ac;" horiz-adv-x="1150" 
d="M279 -23q-271 0 -271 338q0 108 22.5 239.5t77.5 272t132 217.5q97 97 219 97q168 0 243 -154l27 131h391l-155 -723q-9 -40 -9 -55q0 -47 66 -47q23 0 55 4l-61 -285q-88 -32 -193 -32q-108 0 -168 37.5t-84 113.5q-75 -87 -144.5 -120.5t-147.5 -33.5zM473 313
q30 0 57 27q47 47 78 158t31 192q0 115 -72 115q-30 0 -57 -27q-47 -47 -78 -158t-31 -192q0 -115 72 -115zM553 1188l154 319l325 -84l-254 -235h-225z" />
    <glyph glyph-name="uni03AD" unicode="&#x3ad;" horiz-adv-x="870" 
d="M219 582q-139 74 -139 215q0 146 122 247t339 101q230 0 426 -117l-160 -274q-126 82 -248 82q-58 0 -89.5 -22t-31.5 -56t28 -50t97 -16h170l-57 -264h-166q-158 0 -158 -80q0 -63 117 -63q103 0 246 59l63 -295q-169 -76 -395 -76q-212 0 -316 80.5t-104 210.5
q0 237 256 318zM465 1188l153 319l326 -84l-254 -235h-225z" />
    <glyph glyph-name="uni03AE" unicode="&#x3ae;" horiz-adv-x="1003" 
d="M-74 0l242 1118h391l-29 -127q126 152 271 152q113 0 170 -63.5t57 -172.5q0 -72 -14 -127l-230 -1065h-389l207 963q10 42 10 61q0 58 -55 58q-68 0 -90 -97l-150 -700h-391zM553 1188l154 319l325 -84l-254 -235h-225z" />
    <glyph glyph-name="uni03AF" unicode="&#x3af;" horiz-adv-x="583" 
d="M-12 223q0 89 28 205l146 690h391l-156 -723q-8 -36 -8 -55q0 -47 66 -47q23 0 55 4l-61 -285q-88 -32 -195 -32q-266 0 -266 243zM252 1171l154 320l325 -84l-254 -236h-225z" />
    <glyph glyph-name="uni03B0" unicode="&#x3b0;" 
d="M424 -27q-201 0 -309.5 90.5t-108.5 260.5q0 65 25 186l129 608h391l-145 -674q-11 -57 -11 -69q0 -26 15.5 -42t46.5 -16q35 0 55 23q22 22 33 74l151 704h389l-149 -700q-24 -111 -58 -184.5t-90 -129.5q-131 -131 -364 -131zM829 1171l56 254h250l-56 -254h-250z
M217 1171l55 254h250l-55 -254h-250zM506 1171l123 379l280 -51l-223 -328h-180z" />
    <glyph glyph-name="uni03B1" unicode="&#x3b1;" horiz-adv-x="1150" 
d="M279 -23q-271 0 -271 338q0 108 22.5 239.5t77.5 272t132 217.5q97 97 219 97q168 0 243 -154l27 131h391l-155 -723q-9 -40 -9 -55q0 -47 66 -47q23 0 55 4l-61 -285q-88 -32 -193 -32q-108 0 -168 37.5t-84 113.5q-75 -87 -144.5 -120.5t-147.5 -33.5zM473 313
q30 0 57 27q47 47 78 158t31 192q0 115 -72 115q-30 0 -57 -27q-47 -47 -78 -158t-31 -192q0 -115 72 -115z" />
    <glyph glyph-name="uni03B2" unicode="&#x3b2;" horiz-adv-x="1044" 
d="M608 -20q-100 0 -167 38.5t-117 114.5l-91 -418h-370l278 1278q52 239 170 357q137 137 377 137q198 0 310 -103.5t112 -261.5q0 -291 -289 -405q168 -88 168 -279q0 -58 -15 -120t-46.5 -122.5t-75.5 -108.5t-107.5 -77.5t-136.5 -29.5zM496 309q58 0 90 60.5t32 124.5
q0 57 -32 83.5t-103 26.5h-47l-22 -104q-11 -57 -11 -82q0 -47 24 -78t69 -31zM526 1008l-30 -142h63q76 0 115 39q29 29 44 75.5t15 88.5q0 98 -80 98q-41 0 -71 -30q-38 -38 -56 -129z" />
    <glyph glyph-name="uni03B3" unicode="&#x3b3;" horiz-adv-x="985" 
d="M508 -285h-391l65 291l-69 1112h391l-21 -590l234 590h403l-542 -1098z" />
    <glyph glyph-name="uni03B4" unicode="&#x3b4;" 
d="M705 1169l38 -43q120 -132 174 -254.5t54 -281.5q0 -138 -40.5 -267t-125.5 -214q-63 -63 -154.5 -99.5t-195.5 -36.5q-204 0 -322.5 110t-118.5 310q0 424 379 660l-135 159l59 263h768l-69 -314zM598 612q0 130 -39 209q-81 -69 -129.5 -182t-48.5 -215q0 -125 84 -125
q32 0 61 29q36 36 54 113.5t18 170.5z" />
    <glyph glyph-name="uni03B5" unicode="&#x3b5;" horiz-adv-x="870" 
d="M219 582q-139 74 -139 215q0 146 122 247t339 101q230 0 426 -117l-160 -274q-126 82 -248 82q-58 0 -89.5 -22t-31.5 -56t28 -50t97 -16h170l-57 -264h-166q-158 0 -158 -80q0 -63 117 -63q103 0 246 59l63 -295q-169 -76 -395 -76q-212 0 -316 80.5t-104 210.5
q0 237 256 318z" />
    <glyph glyph-name="uni03B6" unicode="&#x3b6;" horiz-adv-x="864" 
d="M973 1165l-500 -547q-64 -67 -85 -105t-21 -73q0 -41 29.5 -72.5t117.5 -56.5l258 -73l-106 -471h-353l58 247l-97 35q-155 56 -219.5 138t-64.5 212q0 96 39 182.5t143 202.5l340 371h-295l70 320h753z" />
    <glyph glyph-name="uni03B7" unicode="&#x3b7;" horiz-adv-x="1003" 
d="M-74 0l242 1118h391l-29 -127q126 152 271 152q113 0 170 -63.5t57 -172.5q0 -72 -14 -127l-230 -1065h-389l207 963q10 42 10 61q0 58 -55 58q-68 0 -90 -97l-150 -700h-391z" />
    <glyph glyph-name="uni03B8" unicode="&#x3b8;" horiz-adv-x="1019" 
d="M430 -27q-193 0 -294 117.5t-101 345.5q0 93 18.5 214.5t53.5 251t93 249.5t128 190q140 140 336 140q193 0 295 -117.5t102 -345.5q0 -93 -18.5 -214.5t-53.5 -251t-93 -249.5t-128 -190q-140 -140 -338 -140zM461 299q32 0 63 31q51 51 109 256h-232q-16 -115 -16 -166
q0 -66 19.5 -93.5t56.5 -27.5zM571 1124q-54 -54 -106 -247h229q17 112 17 157q0 66 -19.5 93.5t-56.5 27.5q-33 0 -64 -31z" />
    <glyph glyph-name="uni03B9" unicode="&#x3b9;" horiz-adv-x="583" 
d="M-12 223q0 89 28 205l146 690h391l-156 -723q-8 -36 -8 -55q0 -47 66 -47q23 0 55 4l-61 -285q-88 -32 -195 -32q-266 0 -266 243z" />
    <glyph glyph-name="uni03BA" unicode="&#x3ba;" horiz-adv-x="999" 
d="M885 0h-396l-38 352l-78 -92l-56 -260h-391l242 1118h391l-78 -356l236 356h432l-363 -500z" />
    <glyph glyph-name="uni03BB" unicode="&#x3bb;" horiz-adv-x="991" 
d="M279 0h-408l563 1106q-9 24 -18 35q-28 28 -99 28q-55 0 -96 -8l62 299q82 21 178 21q166 0 250 -84q54 -54 79 -139t37 -259l58 -999h-383l10 567z" />
    <glyph glyph-name="uni03BC" unicode="&#x3bc;" horiz-adv-x="1130" 
d="M442 -12q-117 0 -153 127l-8 -2q3 -163 -25 -312l-20 -86h-373l305 1403h391l-145 -676q-11 -57 -11 -65q0 -26 16 -43t46 -17q71 0 90 91l152 710h391l-154 -723q-10 -52 -10 -55q0 -47 67 -47q24 0 56 4l-64 -285q-92 -32 -180 -32q-87 0 -133 31.5t-64 92.5
q-70 -116 -174 -116z" />
    <glyph glyph-name="uni03BD" unicode="&#x3bd;" horiz-adv-x="989" 
d="M184 -6l-71 1124h395l-19 -577l232 577h403l-557 -1124h-383z" />
    <glyph glyph-name="uni03BE" unicode="&#x3be;" horiz-adv-x="862" 
d="M756 215l-101 -448h-354l57 247l-90 41q-141 63 -207.5 140.5t-66.5 199.5q0 67 17 127t53 115t100 97.5t151 66.5q-137 94 -137 272q0 176 126 295t337 119q114 0 221.5 -40t192.5 -120l-193 -264q-51 44 -92.5 66t-95.5 22q-68 0 -103.5 -38.5t-35.5 -92.5
q0 -62 41.5 -94.5t144.5 -32.5h86l-66 -305h-190q-83 0 -125.5 -37t-42.5 -100q0 -49 39.5 -84.5t138.5 -73.5z" />
    <glyph glyph-name="uni03BF" unicode="&#x3bf;" 
d="M432 -29q-202 0 -310 118.5t-108 320.5q0 162 54 325t155 264q148 148 352 148q202 0 310 -119t108 -319q0 -162 -54 -325.5t-155 -264.5q-148 -148 -352 -148zM457 299q30 0 57 27q46 46 77.5 164.5t31.5 209.5q0 67 -19 93t-53 26q-31 0 -57 -26q-46 -46 -77.5 -165
t-31.5 -210q0 -67 19 -93t53 -26z" />
    <glyph glyph-name="uni03C0" unicode="&#x3c0;" horiz-adv-x="1222" 
d="M616 223q0 84 29 205l72 344h-135l-166 -772h-389l166 772h-123l75 346h1162l-76 -346h-125l-80 -377q-8 -36 -8 -55q0 -47 65 -47q24 0 56 4l-62 -285q-88 -32 -194 -32q-267 0 -267 243z" />
    <glyph glyph-name="uni03C1" unicode="&#x3c1;" horiz-adv-x="1030" 
d="M575 -20q-88 0 -144.5 38.5t-94.5 112.5l-92 -416h-389l182 846q39 176 83 281t109 170q133 133 353 133q206 0 319 -112.5t113 -325.5q0 -167 -55.5 -350t-151.5 -279q-98 -98 -232 -98zM467 311q32 0 59 27q47 47 78 159t31 197q0 115 -72 115q-30 0 -57 -27
q-47 -47 -78 -159t-31 -197q0 -115 70 -115z" />
    <glyph glyph-name="uni03C2" unicode="&#x3c2;" horiz-adv-x="825" 
d="M723 219l-102 -452h-353l58 251l-68 43q-130 83 -184 183t-54 243t53.5 283.5t143.5 230.5q72 72 153 106t185 34q223 0 360 -168l-110 -146l-94 -127q-26 29 -40 42t-40.5 26.5t-55.5 13.5q-49 0 -86 -37q-41 -41 -62 -101.5t-21 -121.5q0 -68 40 -120t132 -103z" />
    <glyph glyph-name="uni03C3" unicode="&#x3c3;" horiz-adv-x="1058" 
d="M432 -27q-104 0 -185.5 33t-132 91.5t-76.5 135.5t-26 168q0 153 53 314t144 252q79 79 188.5 115t280.5 36h487l-71 -325l-213 4q71 -109 71 -254q0 -115 -46 -234t-118 -188q-148 -148 -356 -148zM451 301q32 0 61 29q45 45 77 154.5t32 193.5q0 115 -70 115
q-33 0 -62 -29q-45 -45 -76.5 -154.5t-31.5 -193.5q0 -115 70 -115z" />
    <glyph glyph-name="uni03C4" unicode="&#x3c4;" horiz-adv-x="874" 
d="M969 1118l-78 -350h-221l-72 -338q-12 -59 -12 -82q0 -29 18 -43t66 -14q41 0 82 8l-62 -289q-106 -28 -211 -28q-150 0 -222.5 67.5t-72.5 192.5q0 57 27 192l70 334h-213l77 350h824z" />
    <glyph glyph-name="uni03C5" unicode="&#x3c5;" 
d="M424 -27q-201 0 -309.5 90.5t-108.5 260.5q0 65 25 186l129 608h391l-145 -674q-11 -57 -11 -69q0 -26 15.5 -42t46.5 -16q35 0 55 23q22 22 33 74l151 704h389l-149 -700q-24 -111 -58 -184.5t-90 -129.5q-131 -131 -364 -131z" />
    <glyph glyph-name="uni03C6" unicode="&#x3c6;" horiz-adv-x="1452" 
d="M348 -285l64 291q-190 35 -293 155.5t-103 311.5q0 288 177 465q174 174 460 186l80 351h385l-80 -363q191 -37 294.5 -157t103.5 -310q0 -289 -176 -465q-81 -83 -200 -131.5t-265 -54.5l-60 -279h-387zM1063 631q0 131 -109 166l-102 -482q70 9 123 62
q41 41 64.5 112.5t23.5 141.5zM389 487q0 -138 105 -165l104 481q-71 -12 -121 -62q-41 -41 -64.5 -112.5t-23.5 -141.5z" />
    <glyph glyph-name="uni03C7" unicode="&#x3c7;" horiz-adv-x="1021" 
d="M502 1118l51 -332l180 332h418l-457 -698l185 -705h-385l-72 387l-223 -387h-416l498 748l-166 655h387z" />
    <glyph glyph-name="uni03C8" unicode="&#x3c8;" horiz-adv-x="1435" 
d="M1098 1475l-246 -1129q61 6 98 43q41 41 56 115l131 614h381l-144 -674q-41 -184 -143 -286q-77 -80 -184.5 -116.5t-258.5 -41.5l-61 -285h-387l63 291q-191 28 -284.5 128.5t-93.5 254.5q0 105 30 229l105 500h381l-107 -504q-28 -131 -28 -163q0 -83 83 -101l246 1125
h363z" />
    <glyph glyph-name="uni03C9" unicode="&#x3c9;" horiz-adv-x="1501" 
d="M635 891h366l-73 -365q-17 -83 -17 -120q0 -76 56 -76q33 0 57.5 38t37.5 98t19 120.5t6 118.5q0 185 -57 413h379q28 -95 44.5 -214t16.5 -214q0 -177 -35.5 -315t-99.5 -224t-147.5 -130t-183.5 -44q-244 0 -308 240q-64 -126 -147.5 -183t-190.5 -57
q-167 0 -256.5 102.5t-89.5 299.5q0 179 76 375t197 364h411q-141 -195 -221 -388t-80 -314q0 -86 56 -86q34 0 57.5 34t42.5 123z" />
    <glyph glyph-name="uni03CA" unicode="&#x3ca;" horiz-adv-x="583" 
d="M-12 223q0 89 28 205l146 690h391l-156 -723q-8 -36 -8 -55q0 -47 66 -47q23 0 55 4l-61 -285q-88 -32 -195 -32q-266 0 -266 243zM61 1171l60 271h289l-60 -271h-289zM410 1171l59 271h287l-60 -271h-286z" />
    <glyph glyph-name="uni03CB" unicode="&#x3cb;" 
d="M424 -27q-201 0 -309.5 90.5t-108.5 260.5q0 65 25 186l129 608h391l-145 -674q-11 -57 -11 -69q0 -26 15.5 -42t46.5 -16q35 0 55 23q22 22 33 74l151 704h389l-149 -700q-24 -111 -58 -184.5t-90 -129.5q-131 -131 -364 -131zM317 1171l60 271h289l-60 -271h-289z
M666 1171l59 271h287l-60 -271h-286z" />
    <glyph glyph-name="uni03CC" unicode="&#x3cc;" 
d="M432 -29q-202 0 -310 118.5t-108 320.5q0 162 54 325t155 264q148 148 352 148q202 0 310 -119t108 -319q0 -162 -54 -325.5t-155 -264.5q-148 -148 -352 -148zM457 299q30 0 57 27q46 46 77.5 164.5t31.5 209.5q0 67 -19 93t-53 26q-31 0 -57 -26q-46 -46 -77.5 -165
t-31.5 -210q0 -67 19 -93t53 -26zM512 1188l154 319l325 -84l-254 -235h-225z" />
    <glyph glyph-name="uni03CD" unicode="&#x3cd;" 
d="M424 -27q-201 0 -309.5 90.5t-108.5 260.5q0 65 25 186l129 608h391l-145 -674q-11 -57 -11 -69q0 -26 15.5 -42t46.5 -16q35 0 55 23q22 22 33 74l151 704h389l-149 -700q-24 -111 -58 -184.5t-90 -129.5q-131 -131 -364 -131zM506 1171l153 320l326 -84l-254 -236h-225
z" />
    <glyph glyph-name="uni03CE" unicode="&#x3ce;" horiz-adv-x="1501" 
d="M635 891h366l-73 -365q-17 -83 -17 -120q0 -76 56 -76q33 0 57.5 38t37.5 98t19 120.5t6 118.5q0 185 -57 413h379q28 -95 44.5 -214t16.5 -214q0 -177 -35.5 -315t-99.5 -224t-147.5 -130t-183.5 -44q-244 0 -308 240q-64 -126 -147.5 -183t-190.5 -57
q-167 0 -256.5 102.5t-89.5 299.5q0 179 76 375t197 364h411q-141 -195 -221 -388t-80 -314q0 -86 56 -86q34 0 57.5 34t42.5 123zM750 1171l153 320l326 -84l-254 -236h-225z" />
    <glyph glyph-name="uni0400" unicode="&#x400;" horiz-adv-x="956" 
d="M-70 0l312 1434h858l-80 -361h-459l-41 -182h420l-74 -340h-420l-40 -191h468l-79 -360h-865zM541 1489l-219 182l397 78l84 -260h-262z" />
    <glyph glyph-name="uni0401" unicode="&#x401;" horiz-adv-x="956" 
d="M-70 0l312 1434h858l-80 -361h-459l-41 -182h420l-74 -340h-420l-40 -191h468l-79 -360h-865zM362 1489l56 254h293l-56 -254h-293zM717 1489l55 254h295l-57 -254h-293z" />
    <glyph glyph-name="uni0402" unicode="&#x402;" horiz-adv-x="1296" 
d="M872 446q0 54 -32.5 78.5t-106.5 24.5q-40 0 -61 -4l-119 -545h-395l231 1071h-260l80 363h928l-80 -363h-271l-36 -172q36 4 88 4q426 0 426 -387q0 -110 -34 -217t-104 -180q-65 -67 -154.5 -95t-217.5 -28q-70 0 -109 2l66 301h18q65 0 100 35q43 43 43 112z" />
    <glyph glyph-name="uni0403" unicode="&#x403;" horiz-adv-x="874" 
d="M-70 0l312 1434h802l-79 -365h-404l-231 -1069h-400zM479 1489l201 260l385 -78l-301 -182h-285z" />
    <glyph glyph-name="uni0404" unicode="&#x404;" horiz-adv-x="1017" 
d="M43 530q0 207 69.5 416t196.5 336q176 176 441 176q241 0 432 -155l-224 -316q-33 30 -57 48.5t-71 38.5t-95 20q-89 0 -155 -66q-54 -54 -91 -149l400 6l-72 -330l-387 4v-22q0 -203 170 -203q109 0 238 80l92 -336q-183 -103 -379 -103q-248 0 -378 145t-130 410z" />
    <glyph glyph-name="uni0405" unicode="&#x405;" horiz-adv-x="970" 
d="M406 -25q-268 0 -486 187l178 325q78 -72 161 -112.5t155 -40.5q47 0 74.5 21.5t27.5 58.5q0 33 -25 58t-104 79q-90 61 -145 117.5t-87 129t-32 160.5q0 221 141 359q141 141 377 141q242 0 440 -168l-196 -307q-134 117 -254 117q-49 0 -76 -21t-27 -57q0 -34 30 -64.5
t124 -95.5q80 -56 129 -106t81 -124t32 -167q0 -208 -142 -350q-140 -140 -376 -140z" />
    <glyph glyph-name="uni0406" unicode="&#x406;" horiz-adv-x="509" 
d="M-66 0l312 1434h399l-311 -1434h-400z" />
    <glyph glyph-name="uni0407" unicode="&#x407;" horiz-adv-x="509" 
d="M-66 0l312 1434h399l-311 -1434h-400zM135 1489l55 254h293l-55 -254h-293zM489 1489l56 254h295l-58 -254h-293z" />
    <glyph glyph-name="uni0408" unicode="&#x408;" horiz-adv-x="823" 
d="M283 -23q-214 0 -367 138l166 313q72 -80 147 -80q51 0 84 33q37 37 58 129l198 924h400l-213 -977q-54 -251 -170 -367q-113 -113 -303 -113z" />
    <glyph glyph-name="uni0409" unicode="&#x409;" horiz-adv-x="1677" 
d="M569 0l238 1096h-12l-531 -1096h-416l746 1434h684l-92 -420q250 -9 373 -129q104 -101 104 -279q0 -129 -42.5 -244t-119.5 -192q-170 -170 -485 -170h-447zM1266 557q0 63 -39 102q-35 27 -88 27h-23l-78 -356h25q90 0 139 49q33 33 48.5 82.5t15.5 95.5z" />
    <glyph glyph-name="uni040A" unicode="&#x40a;" horiz-adv-x="1671" 
d="M563 0l117 537h-234l-116 -537h-400l312 1434h399l-115 -529h234l114 529h398l-92 -420q249 -9 372 -129q105 -102 105 -279q0 -129 -42.5 -244t-119.5 -192q-170 -170 -485 -170h-447zM1260 557q0 63 -39 102q-34 27 -88 27h-23l-78 -356h25q90 0 139 49
q33 33 48.5 82.5t15.5 95.5z" />
    <glyph glyph-name="uni040B" unicode="&#x40b;" horiz-adv-x="1325" 
d="M158 0l231 1071h-260l80 363h928l-80 -363h-271l-41 -182q32 4 80 4q209 0 322 -85.5t113 -258.5q0 -81 -39 -264l-60 -285h-399l74 348q14 75 14 92q0 42 -30.5 61t-94.5 19q-49 0 -61 -4l-111 -516h-395z" />
    <glyph glyph-name="uni040C" unicode="&#x40c;" horiz-adv-x="1089" 
d="M-70 0l312 1434h399l-129 -580l326 580h444l-461 -760l160 -674h-414l-116 567l-121 -567h-400zM582 1489l200 260l385 -78l-301 -182h-284z" />
    <glyph glyph-name="uni040D" unicode="&#x40d;" horiz-adv-x="1167" 
d="M897 1434h410l-312 -1434h-393l141 651l-424 -651h-389l312 1434h391l-135 -621zM621 1489l-220 182l398 78l84 -260h-262z" />
    <glyph glyph-name="uni040E" unicode="&#x40e;" horiz-adv-x="1118" 
d="M1329 1434l-811 -1434h-430l244 428l-158 1006h406l55 -510l266 510h428zM754 1485q-136 0 -206.5 60.5t-53.5 183.5h202q6 -64 92 -64q76 0 115 64h211q-82 -244 -360 -244z" />
    <glyph glyph-name="uni040F" unicode="&#x40f;" horiz-adv-x="1136" 
d="M1276 1434l-311 -1434h-336l-58 -262h-362l57 262h-336l312 1434h399l-229 -1063h235l230 1063h399z" />
    <glyph glyph-name="uni0410" unicode="&#x410;" horiz-adv-x="1153" 
d="M-143 0l688 1438h448l64 -1438h-404v219h-293l-92 -219h-411zM494 530h163l5 404z" />
    <glyph glyph-name="uni0411" unicode="&#x411;" horiz-adv-x="1048" 
d="M1018 535q0 -107 -38 -209t-108 -172q-86 -80 -205 -117t-300 -37h-437l312 1434h878l-78 -361h-487l-35 -162q143 0 242 -26.5t162 -89.5q94 -94 94 -260zM627 485q0 51 -29 80q-31 31 -111 31h-34l-60 -274h51q91 0 136 45q47 47 47 118z" />
    <glyph glyph-name="uni0412" unicode="&#x412;" horiz-adv-x="1081" 
d="M-70 0l312 1434h409q246 0 368 -92.5t122 -243.5q0 -142 -72.5 -237.5t-200.5 -145.5q170 -87 170 -266q0 -209 -156.5 -329t-463.5 -120h-488zM391 342h94q73 0 115.5 39t42.5 100q0 47 -33.5 72t-93.5 25h-74zM504 864h80q80 0 119.5 37.5t39.5 97.5q0 93 -127 93h-63z
" />
    <glyph glyph-name="uni0413" unicode="&#x413;" horiz-adv-x="874" 
d="M-70 0l312 1434h802l-79 -365h-404l-231 -1069h-400z" />
    <glyph glyph-name="uni0414" unicode="&#x414;" horiz-adv-x="1431" 
d="M-16 371h145l526 1067h502l60 -1067h153l-141 -633h-363l60 262h-662l-57 -262h-363zM815 997l-283 -637h289z" />
    <glyph glyph-name="uni0415" unicode="&#x415;" horiz-adv-x="956" 
d="M-70 0l312 1434h858l-80 -361h-459l-41 -182h420l-74 -340h-420l-40 -191h468l-79 -360h-865z" />
    <glyph glyph-name="uni0416" unicode="&#x416;" horiz-adv-x="1677" 
d="M1227 1434l-131 -568l334 568h440l-475 -736l161 -698h-409l-117 569l-115 -569h-397l127 557l-340 -557h-440l485 735l-151 699h409l103 -574l118 574h398z" />
    <glyph glyph-name="uni0417" unicode="&#x417;" horiz-adv-x="1007" 
d="M254 1018l-82 330q205 114 436 114q214 0 336.5 -98.5t122.5 -271.5q0 -146 -71 -243t-214 -155q86 -48 126 -113.5t40 -162.5q0 -92 -37 -173t-104.5 -142t-170 -96.5t-226.5 -35.5q-128 0 -261 40t-239 118l192 313q149 -112 297 -112q72 0 114 35t42 92
q0 104 -174 104h-150l68 320h160q102 0 155.5 32.5t53.5 90.5q0 45 -32.5 72.5t-100.5 27.5q-113 0 -281 -86z" />
    <glyph glyph-name="uni0418" unicode="&#x418;" horiz-adv-x="1167" 
d="M897 1434h410l-312 -1434h-393l141 651l-424 -651h-389l312 1434h391l-135 -621z" />
    <glyph glyph-name="uni0419" unicode="&#x419;" horiz-adv-x="1167" 
d="M897 1434h410l-312 -1434h-393l141 651l-424 -651h-389l312 1434h391l-135 -621zM766 1477q-136 0 -206.5 60t-53.5 183h203q6 -63 92 -63q76 0 114 63h211q-81 -243 -360 -243z" />
    <glyph glyph-name="uni041A" unicode="&#x41a;" horiz-adv-x="1089" 
d="M-70 0l312 1434h399l-129 -580l326 580h444l-461 -760l160 -674h-414l-116 567l-121 -567h-400z" />
    <glyph glyph-name="uni041B" unicode="&#x41b;" horiz-adv-x="1126" 
d="M969 1438l61 -1438h-414l5 786l-336 -786h-428l684 1438h428z" />
    <glyph glyph-name="uni041C" unicode="&#x41c;" horiz-adv-x="1306" 
d="M-70 0l312 1434h379l112 -443l307 443h406l-311 -1434h-392l148 680l-305 -428h-4l-115 428l-150 -680h-387z" />
    <glyph glyph-name="uni041D" unicode="&#x41d;" horiz-adv-x="1142" 
d="M-70 0l312 1434h399l-115 -529h242l115 529h399l-311 -1434h-400l117 537h-242l-116 -537h-400z" />
    <glyph glyph-name="uni041E" unicode="&#x41e;" horiz-adv-x="1179" 
d="M721 1464q107 0 194 -33t153 -99t102 -173.5t36 -247.5q0 -195 -71.5 -415t-210.5 -359q-78 -78 -180.5 -123t-215.5 -45q-107 0 -194 33t-153 99t-102 173.5t-36 247.5q0 123 27.5 257.5t94.5 278.5t163 240q78 78 178.5 122t214.5 44zM553 330q47 0 90 43
q72 72 119 242.5t47 302.5q0 186 -113 186q-47 0 -90 -43q-72 -72 -119 -243t-47 -302q0 -186 113 -186z" />
    <glyph glyph-name="uni041F" unicode="&#x41f;" horiz-adv-x="1136" 
d="M-70 0l312 1434h1034l-311 -1434h-400l230 1063h-236l-229 -1063h-400z" />
    <glyph glyph-name="uni0420" unicode="&#x420;" horiz-adv-x="1032" 
d="M-70 0l312 1434h346q284 0 420 -136q102 -102 102 -274q0 -126 -40 -246t-120 -200q-172 -172 -467 -172h-67l-88 -406h-398zM678 1067q-31 31 -90 31h-23l-80 -369h25q86 0 133 47q34 34 52 90t18 105q0 61 -35 96z" />
    <glyph glyph-name="uni0421" unicode="&#x421;" horiz-adv-x="1015" 
d="M557 -25q-235 0 -372.5 154t-137.5 422q0 207 68.5 403.5t201.5 329.5q174 174 412 174q130 0 240 -49t184 -133l-240 -301q-78 102 -178 102q-74 0 -127 -53q-74 -74 -111.5 -202t-37.5 -234q0 -230 164 -230q50 0 92 21.5t90 60.5l141 -323q-183 -142 -389 -142z" />
    <glyph glyph-name="uni0422" unicode="&#x422;" horiz-adv-x="972" 
d="M166 0l231 1067h-268l82 367h936l-82 -367h-268l-232 -1067h-399z" />
    <glyph glyph-name="uni0423" unicode="&#x423;" horiz-adv-x="1118" 
d="M1329 1434l-811 -1434h-430l244 428l-158 1006h406l55 -510l266 510h428z" />
    <glyph glyph-name="uni0424" unicode="&#x424;" horiz-adv-x="1564" 
d="M778 1468h402l-31 -143q205 -38 318.5 -168t113.5 -346q-2 -146 -54 -281.5t-153 -236.5q-183 -183 -491 -197l-29 -131h-401l30 141q-206 39 -318.5 169.5t-111.5 345.5q0 147 51.5 282.5t153.5 237.5q85 85 211 136.5t281 57.5zM442 625q0 -155 125 -189l123 565
q-81 -11 -141 -71q-53 -53 -80 -135.5t-27 -169.5zM1190 809q0 151 -125 188l-123 -565q77 8 139 70q53 53 81 136.5t28 170.5z" />
    <glyph glyph-name="uni0425" unicode="&#x425;" horiz-adv-x="1062" 
d="M-143 0l471 754l-144 680h410l47 -365l195 365h421l-446 -721l154 -713h-412l-53 408l-221 -408h-422z" />
    <glyph glyph-name="uni0426" unicode="&#x426;" horiz-adv-x="1249" 
d="M1276 1434l-232 -1063h150l-139 -633h-363l58 262h-820l312 1434h399l-229 -1063h235l230 1063h399z" />
    <glyph glyph-name="uni0427" unicode="&#x427;" horiz-adv-x="1118" 
d="M545 0l96 446q-36 -4 -94 -4q-208 0 -321 85.5t-113 258.5q0 84 39 263l81 385h400l-94 -445q-15 -59 -15 -90q0 -44 30.5 -63t94.5 -19q58 0 76 6l131 611h401l-311 -1434h-401z" />
    <glyph glyph-name="uni0428" unicode="&#x428;" horiz-adv-x="1689" 
d="M1829 1434l-311 -1434h-1588l312 1434h397l-231 -1063h198l230 1063h397l-229 -1063h196l232 1063h397z" />
    <glyph glyph-name="uni0429" unicode="&#x429;" horiz-adv-x="1800" 
d="M1829 1434l-232 -1063h148l-139 -633h-363l57 262h-1370l312 1434h397l-231 -1063h198l230 1063h397l-229 -1063h196l232 1063h397z" />
    <glyph glyph-name="uni042A" unicode="&#x42a;" horiz-adv-x="1267" 
d="M129 1075l80 359h655l-92 -420q254 -6 377 -129q104 -101 104 -279q0 -129 -42 -244t-119 -192q-170 -170 -486 -170h-450l233 1075h-260zM856 557q0 63 -39 102q-35 27 -88 27h-27l-77 -356h28q91 0 140 49q63 63 63 178z" />
    <glyph glyph-name="uni042B" unicode="&#x42b;" horiz-adv-x="1540" 
d="M-70 0l312 1434h397l-92 -420q254 -6 377 -129q104 -101 104 -279q0 -129 -42.5 -244t-119.5 -192q-170 -170 -485 -170h-451zM969 0l311 1434h401l-313 -1434h-399zM631 557q0 63 -39 102q-34 27 -88 27h-27l-78 -356h29q90 0 139 49q33 33 48.5 82.5t15.5 95.5z" />
    <glyph glyph-name="uni042C" unicode="&#x42c;" horiz-adv-x="1042" 
d="M-70 0l312 1434h397l-92 -420q254 -6 377 -129q104 -101 104 -279q0 -129 -42.5 -244t-119.5 -192q-170 -170 -485 -170h-451zM631 557q0 63 -39 102q-34 27 -88 27h-27l-78 -356h29q90 0 139 49q33 33 48.5 82.5t15.5 95.5z" />
    <glyph glyph-name="uni042D" unicode="&#x42d;" horiz-adv-x="1015" 
d="M1042 895q0 -206 -68 -414t-196 -336q-87 -87 -189.5 -128.5t-234.5 -41.5q-260 0 -452 160l215 309q40 -40 103.5 -72t133.5 -32q95 0 156 61q54 54 92 158l-405 -4l71 330l387 -6v14q0 207 -166 207q-110 0 -233 -76l-96 334q171 100 381 100q246 0 373.5 -143
t127.5 -420z" />
    <glyph glyph-name="uni042E" unicode="&#x42e;" horiz-adv-x="1660" 
d="M-70 0l312 1434h399l-115 -529h90q70 241 215 391q76 77 178 122.5t212 45.5q213 0 340 -138.5t127 -414.5q0 -122 -27 -256.5t-91.5 -278.5t-156.5 -239q-76 -77 -177.5 -122.5t-211.5 -45.5q-213 0 -340 138.5t-127 414.5v15h-111l-116 -537h-400zM1047 330q44 0 81 43
q68 72 117 249t49 306q0 99 -25 137.5t-71 38.5q-45 0 -82 -43q-68 -72 -117 -249t-49 -306q0 -99 25.5 -137.5t71.5 -38.5z" />
    <glyph glyph-name="uni042F" unicode="&#x42f;" horiz-adv-x="1105" 
d="M1247 1434l-311 -1434h-397l92 426h-49l-250 -426h-447l353 559q-119 116 -119 301q0 114 41.5 223.5t115.5 186.5q164 164 502 164h469zM776 1092h-51q-90 0 -135 -45q-33 -33 -50.5 -82.5t-17.5 -94.5q0 -137 137 -137h39z" />
    <glyph glyph-name="uni0430" unicode="&#x430;" horiz-adv-x="952" 
d="M190 -23q-105 0 -163 67t-58 189q0 100 32.5 200.5t92.5 160.5q88 94 254 94q106 0 197 -45l4 16q8 21 8 54q0 50 -34.5 77t-100.5 27q-88 0 -232 -47l-34 313q188 56 374 56q201 0 311.5 -84.5t110.5 -249.5q0 -73 -18 -152l-141 -653h-387l18 88q-60 -57 -112 -84
t-122 -27zM381 219q33 0 62 30t40 83l25 125q-37 16 -70 16q-39 0 -63 -24t-36.5 -70.5t-12.5 -83.5q0 -76 55 -76z" />
    <glyph glyph-name="uni0431" unicode="&#x431;" horiz-adv-x="1021" 
d="M459 -27q-198 0 -307 109q-119 113 -119 350q0 130 28 284.5t93 315t153 248.5t207.5 134t304.5 56l246 15l4 -344l-291 -19q-129 -7 -198 -31.5t-111 -66.5q-61 -61 -102 -182q127 147 309 147q146 0 233.5 -90t87.5 -258q0 -143 -48.5 -293t-137.5 -235
q-140 -140 -352 -140zM471 301q29 0 53 21q42 35 66 120t24 156q0 104 -71 104q-31 0 -54 -20q-42 -35 -66 -120t-24 -156q0 -105 72 -105z" />
    <glyph glyph-name="uni0432" unicode="&#x432;" horiz-adv-x="985" 
d="M-74 0l242 1118h430q217 0 313.5 -74t96.5 -200q0 -206 -234 -297q69 -32 108.5 -85.5t39.5 -123.5q0 -158 -122.5 -248t-363.5 -90h-510zM444 674h62q64 0 96.5 30t32.5 80q0 70 -105 70h-47zM356 264h58q67 0 102 31t35 80q0 76 -105 76h-51z" />
    <glyph glyph-name="uni0433" unicode="&#x433;" horiz-adv-x="753" 
d="M-74 0l242 1118h694l-78 -350h-301l-166 -768h-391z" />
    <glyph glyph-name="uni0434" unicode="&#x434;" horiz-adv-x="1216" 
d="M-35 346h133l398 776h473l63 -776h127l-127 -582h-350l53 238h-497l-52 -238h-348zM655 739l-174 -405h174v405z" />
    <glyph glyph-name="uni0435" unicode="&#x435;" horiz-adv-x="960" 
d="M909 426h-532q0 -131 147 -131q117 0 226 67l92 -282q-167 -107 -381 -107q-215 0 -332 119.5t-117 331.5q0 142 55.5 307.5t159.5 269.5q146 146 348 146q187 0 284 -112t97 -304q0 -125 -47 -305zM489 809q-44 -44 -77 -168h186q12 59 12 102t-16.5 68t-46.5 25
q-31 0 -58 -27z" />
    <glyph glyph-name="uni0436" unicode="&#x436;" horiz-adv-x="1476" 
d="M1053 1118l-105 -448l256 448h410l-359 -586l111 -532h-389l-82 432l-86 -432h-385l102 430l-258 -430h-407l360 575l-104 543h391l70 -450l90 450h385z" />
    <glyph glyph-name="uni0437" unicode="&#x437;" horiz-adv-x="868" 
d="M336 -27q-107 0 -224.5 28t-215.5 89l151 275q137 -82 270 -82q55 0 84 21.5t29 55.5q0 30 -30 49t-115 19h-150l58 264h163q156 0 156 76q0 66 -104 66q-111 0 -256 -62l-56 291q181 80 389 80q197 0 301.5 -82t104.5 -215q0 -106 -59 -183t-175 -118q140 -79 140 -223
q0 -159 -118 -254t-343 -95z" />
    <glyph glyph-name="uni0438" unicode="&#x438;" horiz-adv-x="1034" 
d="M733 1118h375l-244 -1118h-372l98 455l-291 -455h-373l242 1118h375l-99 -452z" />
    <glyph glyph-name="uni0439" unicode="&#x439;" horiz-adv-x="1034" 
d="M733 1118h375l-244 -1118h-372l98 455l-291 -455h-373l242 1118h375l-99 -452zM666 1169q-143 0 -217 69t-64 208h203q2 -42 26 -66t70 -24q90 0 131 90h205q-38 -134 -131 -205.5t-223 -71.5z" />
    <glyph glyph-name="uni043A" unicode="&#x43a;" horiz-adv-x="995" 
d="M-74 0l242 1118h391l-100 -454l258 454h422l-365 -590l115 -528h-397l-82 434l-93 -434h-391z" />
    <glyph glyph-name="uni043B" unicode="&#x43b;" horiz-adv-x="1015" 
d="M829 1124l78 -1124h-387l4 586l-245 -586h-410l565 1124h395z" />
    <glyph glyph-name="uni043C" unicode="&#x43c;" horiz-adv-x="1140" 
d="M487 178l-96 318l-106 -496h-359l242 1118h342l94 -336l238 336h370l-241 -1118h-357l107 496l-229 -318h-5z" />
    <glyph glyph-name="uni043D" unicode="&#x43d;" horiz-adv-x="1026" 
d="M1100 1118l-244 -1118h-389l82 389h-150l-82 -389h-391l242 1118h391l-82 -379h150l82 379h391z" />
    <glyph glyph-name="uni043E" unicode="&#x43e;" 
d="M432 -29q-202 0 -310 118.5t-108 320.5q0 162 54 325t155 264q148 148 352 148q202 0 310 -119t108 -319q0 -162 -54 -325.5t-155 -264.5q-148 -148 -352 -148zM457 299q30 0 57 27q46 46 77.5 164.5t31.5 209.5q0 67 -19 93t-53 26q-31 0 -57 -26q-46 -46 -77.5 -165
t-31.5 -210q0 -67 19 -93t53 -26z" />
    <glyph glyph-name="uni043F" unicode="&#x43f;" horiz-adv-x="1030" 
d="M1102 1118l-242 -1118h-389l164 768h-154l-164 -768h-391l242 1118h934z" />
    <glyph glyph-name="uni0440" unicode="&#x440;" horiz-adv-x="1044" 
d="M588 -25q-169 0 -244 154l-90 -414h-389l303 1403h389l-25 -121q120 146 259 146q118 0 182.5 -85.5t64.5 -248.5q0 -107 -22 -239.5t-77.5 -277t-131.5 -220.5q-97 -97 -219 -97zM479 309q31 0 58 27q48 48 78 161t30 197q0 115 -72 115q-30 0 -57 -27
q-48 -48 -78 -160.5t-30 -197.5q0 -115 71 -115z" />
    <glyph glyph-name="uni0441" unicode="&#x441;" horiz-adv-x="835" 
d="M442 -27q-193 0 -309.5 124t-116.5 337q0 65 9 130.5t30.5 141.5t65 152t104.5 137q150 150 346 150q212 0 351 -170l-209 -262q-29 39 -57.5 58.5t-67.5 19.5q-47 0 -88 -41q-48 -48 -72.5 -124t-24.5 -149q0 -83 35 -118t84 -35q64 0 131 57l121 -287q-65 -53 -152 -87
t-180 -34z" />
    <glyph glyph-name="uni0442" unicode="&#x442;" horiz-adv-x="888" 
d="M143 1118h850l-78 -350h-229l-166 -768h-389l166 768h-231z" />
    <glyph glyph-name="uni0443" unicode="&#x443;" horiz-adv-x="985" 
d="M186 25l-69 1093h387l-10 -581l231 581h397l-526 -1087q-89 -181 -176.5 -253.5t-233.5 -72.5q-136 0 -260 74l105 278q67 -47 112 -47q28 0 43 15z" />
    <glyph glyph-name="uni0444" unicode="&#x444;" horiz-adv-x="1452" 
d="M348 -285l64 291q-190 35 -293 155.5t-103 311.5q0 288 177 465q174 174 460 186l80 351h385l-80 -363q191 -37 294.5 -157t103.5 -310q0 -289 -176 -465q-81 -83 -200 -131.5t-265 -54.5l-60 -279h-387zM1063 631q0 131 -109 166l-102 -482q70 9 123 62
q41 41 64.5 112.5t23.5 141.5zM389 487q0 -138 105 -165l104 481q-71 -12 -121 -62q-41 -41 -64.5 -112.5t-23.5 -141.5z" />
    <glyph glyph-name="uni0445" unicode="&#x445;" horiz-adv-x="964" 
d="M510 1118l35 -258l143 258h406l-385 -569l147 -549h-387l-39 276l-151 -276h-406l393 582l-143 536h387z" />
    <glyph glyph-name="uni0446" unicode="&#x446;" horiz-adv-x="1122" 
d="M-74 0l242 1118h391l-166 -768h154l166 768h389l-168 -772h125l-127 -582h-350l53 236h-709z" />
    <glyph glyph-name="uni0447" unicode="&#x447;" horiz-adv-x="1003" 
d="M1075 1118l-241 -1118h-390l68 313q-62 -4 -80 -4q-366 0 -366 297q0 63 30 217l64 295h389l-74 -338q-8 -41 -8 -63q0 -55 78 -55q35 0 43 2l98 454h389z" />
    <glyph glyph-name="uni0448" unicode="&#x448;" horiz-adv-x="1527" 
d="M-74 0l242 1118h383l-164 -768h141l166 768h383l-166 -768h142l166 768h383l-244 -1118h-1432z" />
    <glyph glyph-name="uni0449" unicode="&#x449;" horiz-adv-x="1622" 
d="M-74 0l242 1118h383l-164 -768h141l166 768h383l-166 -768h142l166 768h383l-168 -772h125l-127 -582h-351l54 236h-1209z" />
    <glyph glyph-name="uni044A" unicode="&#x44a;" horiz-adv-x="1146" 
d="M1114 489q0 -67 -15.5 -130.5t-56.5 -130.5t-103.5 -116t-166.5 -80.5t-237 -31.5h-424l168 778h-216l76 340h600l-61 -282h20q200 0 308 -90.5t108 -256.5zM741 453q0 100 -96 100h-29l-57 -270h33q44 0 76 19t46.5 48.5t20.5 54.5t6 48z" />
    <glyph glyph-name="uni044B" unicode="&#x44b;" horiz-adv-x="1443" 
d="M930 489q0 -67 -15.5 -131t-56.5 -130.5t-104 -115.5t-167 -80.5t-237 -31.5h-424l242 1118h387l-61 -282h20q200 0 308 -90.5t108 -256.5zM885 0l241 1118h392l-244 -1118h-389zM557 453q0 100 -96 100h-29l-57 -270h33q44 0 76 19t46.5 48.5t20.5 54.5t6 48z" />
    <glyph glyph-name="uni044C" unicode="&#x44c;" horiz-adv-x="962" 
d="M930 489q0 -67 -15.5 -131t-56.5 -130.5t-104 -115.5t-167 -80.5t-237 -31.5h-424l242 1118h387l-61 -282h20q200 0 308 -90.5t108 -256.5zM557 453q0 100 -96 100h-29l-57 -270h33q44 0 76 19t46.5 48.5t20.5 54.5t6 48z" />
    <glyph glyph-name="uni044D" unicode="&#x44d;" horiz-adv-x="874" 
d="M180 692l322 -6v4q0 80 -36.5 110.5t-103.5 30.5q-97 0 -204 -63l-60 295q151 80 322 80q206 0 323 -119t117 -346q0 -148 -49 -298.5t-149 -250.5q-80 -80 -166 -119t-207 -39q-101 0 -204.5 32.5t-188.5 102.5l172 271q107 -84 206 -84q86 0 138 55q27 27 51 84
l-340 -4z" />
    <glyph glyph-name="uni044E" unicode="&#x44e;" horiz-adv-x="1476" 
d="M-74 0l242 1118h391l-84 -381h80q60 171 156 267q141 141 342 141q198 0 303.5 -119t105.5 -319q0 -163 -52.5 -326.5t-154.5 -265.5q-142 -142 -342 -142q-192 0 -297.5 112.5t-111.5 303.5h-103l-84 -389h-391zM936 301q30 0 55 25q47 47 77 163t30 209q0 67 -17.5 93
t-50.5 26q-31 0 -55 -24q-47 -47 -77 -163.5t-30 -209.5q0 -67 17.5 -93t50.5 -26z" />
    <glyph glyph-name="uni044F" unicode="&#x44f;" horiz-adv-x="1011" 
d="M-121 0l281 440q-86 92 -86 232q0 50 11 102t46.5 116t91.5 112.5t156.5 82t230.5 33.5h473l-241 -1118h-387l67 315h-33l-186 -315h-424zM637 834h-47q-41 0 -70.5 -18t-43.5 -46t-19.5 -53t-5.5 -47q0 -97 98 -97h33z" />
    <glyph glyph-name="uni0450" unicode="&#x450;" horiz-adv-x="960" 
d="M909 426h-532q0 -131 147 -131q117 0 226 67l92 -282q-167 -107 -381 -107q-215 0 -332 119.5t-117 331.5q0 142 55.5 307.5t159.5 269.5q146 146 348 146q187 0 284 -112t97 -304q0 -125 -47 -305zM489 809q-44 -44 -77 -168h186q12 59 12 102t-16.5 68t-46.5 25
q-31 0 -58 -27zM514 1188l-231 217l364 88l90 -305h-223z" />
    <glyph glyph-name="uni0451" unicode="&#x451;" horiz-adv-x="960" 
d="M909 426h-532q0 -131 147 -131q117 0 226 67l92 -282q-167 -107 -381 -107q-215 0 -332 119.5t-117 331.5q0 142 55.5 307.5t159.5 269.5q146 146 348 146q187 0 284 -112t97 -304q0 -125 -47 -305zM489 809q-44 -44 -77 -168h186q12 59 12 102t-16.5 68t-46.5 25
q-31 0 -58 -27zM301 1188l59 270h289l-59 -270h-289zM649 1188l60 270h286l-59 -270h-287z" />
    <glyph glyph-name="uni0452" unicode="&#x452;" horiz-adv-x="1062" 
d="M842 1063h-238l-33 -156q62 4 82 4q369 0 369 -295q0 -78 -31 -219l-78 -370q-20 -95 -55 -159t-87 -99t-113 -49.5t-144 -14.5q-71 0 -139 14l51 240q10 -2 20 -2q37 0 53.5 15.5t26.5 64.5l84 405q11 50 11 64q0 30 -19.5 41.5t-62.5 11.5q-29 0 -43 -2l-121 -557h-389
l229 1057h-121l66 293h119l26 125h391l-28 -125h237z" />
    <glyph glyph-name="uni0453" unicode="&#x453;" horiz-adv-x="753" 
d="M-74 0l242 1118h694l-78 -350h-301l-166 -768h-391zM362 1171l226 306l346 -88l-328 -218h-244z" />
    <glyph glyph-name="uni0454" unicode="&#x454;" horiz-adv-x="878" 
d="M752 692l-58 -264l-321 4q3 -147 145 -147q90 0 201 65l63 -297q-140 -80 -317 -80q-208 0 -329.5 116.5t-121.5 340.5q0 148 50 303t149 254q79 79 173 118.5t222 39.5q208 0 371 -129l-182 -279q-102 86 -193 86q-87 0 -141 -57q-32 -32 -51 -80z" />
    <glyph glyph-name="uni0455" unicode="&#x455;" horiz-adv-x="811" 
d="M342 -25q-241 0 -428 164l162 287q64 -62 135 -102.5t123 -40.5q29 0 44 12.5t15 32.5q0 6 -1 10.5t-3.5 9.5t-5 8.5t-8.5 9t-10.5 9t-14.5 10.5t-17 12t-21 14.5t-25 16.5q-110 74 -161.5 146t-51.5 171q0 170 111 284t302 114q216 0 396 -135l-164 -289
q-53 48 -114 82.5t-111 34.5q-56 0 -56 -43q0 -17 15 -31t65 -47q15 -9 23 -15q54 -36 89.5 -66t67.5 -69t47 -85t15 -101q0 -79 -27 -150.5t-78 -128.5t-132 -91t-181 -34z" />
    <glyph glyph-name="uni0456" unicode="&#x456;" horiz-adv-x="493" 
d="M-70 0l242 1118h391l-241 -1118h-392zM184 1186l64 289h397l-63 -289h-398z" />
    <glyph glyph-name="uni0457" unicode="&#x457;" horiz-adv-x="493" 
d="M-70 0l242 1118h391l-241 -1118h-392zM63 1171l60 271h289l-60 -271h-289zM412 1171l59 271h287l-60 -271h-286z" />
    <glyph glyph-name="uni0458" unicode="&#x458;" horiz-adv-x="493" 
d="M-92 -295q-83 0 -160 14l51 240q28 -4 41 -4q48 0 70 23t35 88l227 1052h391l-229 -1063q-43 -197 -141.5 -273.5t-284.5 -76.5zM184 1186l64 289h397l-63 -289h-398z" />
    <glyph glyph-name="uni0459" unicode="&#x459;" horiz-adv-x="1517" 
d="M-141 0l594 1118h663l-61 -282h14q200 0 308 -90.5t108 -256.5q0 -67 -15.5 -131t-56.5 -130.5t-104 -115.5t-167 -80.5t-237 -31.5h-418l170 788h-4l-387 -788h-407zM1112 453q0 100 -96 100h-23l-57 -270h27q44 0 76 19t46.5 48.5t20.5 54.5t6 48z" />
    <glyph glyph-name="uni045A" unicode="&#x45a;" horiz-adv-x="1492" 
d="M-74 0l242 1118h389l-82 -379h148l82 379h387l-62 -282h14q200 0 308 -90.5t108 -256.5q0 -67 -15.5 -130.5t-56.5 -130.5t-103.5 -116t-166.5 -80.5t-237 -31.5h-418l84 389h-150l-82 -389h-389zM1087 453q0 100 -96 100h-22l-58 -270h27q44 0 76 19t46.5 48.5
t20.5 54.5t6 48z" />
    <glyph glyph-name="uni045B" unicode="&#x45b;" horiz-adv-x="1062" 
d="M842 1063h-238l-33 -156q62 4 82 4q178 0 273.5 -73.5t95.5 -223.5q0 -76 -31 -217l-84 -397h-391l94 442q11 50 11 64q0 30 -19.5 41.5t-62.5 11.5q-29 0 -43 -2l-121 -557h-389l229 1057h-121l66 293h119l26 125h391l-28 -125h237z" />
    <glyph glyph-name="uni045C" unicode="&#x45c;" horiz-adv-x="995" 
d="M-74 0l242 1118h391l-100 -454l258 454h422l-365 -590l115 -528h-397l-82 434l-93 -434h-391zM494 1171l225 306l346 -88l-328 -218h-243z" />
    <glyph glyph-name="uni045D" unicode="&#x45d;" horiz-adv-x="1034" 
d="M733 1118h375l-244 -1118h-372l98 455l-291 -455h-373l242 1118h375l-99 -452zM543 1171l-232 218l365 88l90 -306h-223z" />
    <glyph glyph-name="uni045E" unicode="&#x45e;" horiz-adv-x="985" 
d="M186 25l-69 1093h387l-10 -581l231 581h397l-526 -1087q-89 -181 -176.5 -253.5t-233.5 -72.5q-136 0 -260 74l105 278q67 -47 112 -47q28 0 43 15zM639 1169q-143 0 -217 69t-64 208h203q2 -42 26 -66t70 -24q90 0 131 90h205q-38 -134 -131 -205.5t-223 -71.5z" />
    <glyph glyph-name="uni045F" unicode="&#x45f;" horiz-adv-x="1030" 
d="M-74 0l242 1118h391l-166 -768h154l166 768h389l-242 -1118h-293l-51 -236h-350l53 236h-293z" />
    <glyph glyph-name="uni0462" unicode="&#x462;" horiz-adv-x="1259" 
d="M1063 1004h-303l-29 -130h47q245 0 359 -114q92 -92 92 -246q0 -220 -144 -364q-144 -150 -448 -150h-483l215 991h-252l69 330h254l33 145h389l-33 -145h301zM834 473q0 49 -27 76q-31 31 -98 31h-39l-60 -273h52q79 0 122 43q50 50 50 123z" />
    <glyph glyph-name="uni0463" unicode="&#x463;" horiz-adv-x="1146" 
d="M1024 1118l-63 -284h-283l-23 -109h41q404 0 404 -301q0 -201 -139 -312.5t-390 -111.5h-458l178 827h-217l65 291h215l78 357h385l-78 -357h285zM731 387q0 78 -100 78h-31l-45 -201h47q60 0 94.5 34t34.5 89z" />
    <glyph glyph-name="uni0472" unicode="&#x472;" horiz-adv-x="1155" 
d="M711 1464q214 0 342.5 -138.5t128.5 -414.5q0 -124 -27 -259t-93 -279.5t-161 -239.5q-75 -75 -176.5 -119.5t-210.5 -44.5q-214 0 -342.5 138.5t-128.5 414.5q0 124 27 259t93 279.5t161 239.5q75 75 176.5 119.5t210.5 44.5zM645 362q54 54 109 203h-342q-2 -18 -2 -53
q0 -201 127 -201q57 0 108 51zM688 1122q-57 0 -108 -51q-63 -63 -107 -194h340q0 7 1 22.5t1 22.5q0 200 -127 200z" />
    <glyph glyph-name="uni0473" unicode="&#x473;" horiz-adv-x="989" 
d="M426 -27q-199 0 -305.5 119t-106.5 320q0 161 53 323.5t156 265.5q144 144 342 144q199 0 305.5 -119t106.5 -319q0 -162 -53 -324.5t-156 -265.5q-144 -144 -342 -144zM444 276q43 0 80 37q43 43 74 142h-242q-2 -16 -2 -45v-2q0 -73 24.5 -103.5t65.5 -28.5zM469 805
q-45 -45 -74 -133h242q2 14 2 37v2q0 73 -24.5 103t-65.5 28q-43 0 -80 -37z" />
    <glyph glyph-name="uni0474" unicode="&#x474;" horiz-adv-x="1183" 
d="M221 -4l-55 1438h416l-17 -789l131 332q71 182 147 280.5t174.5 139.5t250.5 41q13 0 51 -1t41 -1l-80 -365h-18q-58 0 -93.5 -16t-72 -65.5t-82.5 -151.5l-379 -842h-414z" />
    <glyph glyph-name="uni0475" unicode="&#x475;" horiz-adv-x="1038" 
d="M563 -6h-383l-67 1124h395l-21 -577l101 247q42 105 89 172.5t103 102.5t112.5 48t133.5 13q71 0 123 -8l-72 -321h-12q-68 0 -108 -30.5t-91 -135.5z" />
    <glyph glyph-name="uni0490" unicode="&#x490;" horiz-adv-x="874" 
d="M965 1067h-404l-231 -1067h-400l312 1434h444l55 252h361z" />
    <glyph glyph-name="uni0491" unicode="&#x491;" horiz-adv-x="753" 
d="M909 1331l-125 -563h-303l-164 -768h-391l242 1118h362l48 213h331z" />
    <glyph glyph-name="uni0492" unicode="&#x492;" horiz-adv-x="944" 
d="M0 0l104 485h-98l62 275h96l147 674h803l-80 -365h-403l-68 -311h185l-60 -273h-184l-105 -485h-399z" />
    <glyph glyph-name="uni0493" unicode="&#x493;" horiz-adv-x="794" 
d="M-33 0l76 356h-80l45 203h80l121 559h694l-78 -350h-301l-45 -209h144l-45 -203h-144l-76 -356h-391z" />
    <glyph glyph-name="uni0496" unicode="&#x496;" horiz-adv-x="1742" 
d="M1870 1434l-475 -736l75 -327h220l-140 -633h-362l57 262h-98l-117 569l-115 -569h-397l127 557l-340 -557h-440l485 735l-151 699h409l103 -574l118 574h398l-131 -568l334 568h440z" />
    <glyph glyph-name="uni0497" unicode="&#x497;" horiz-adv-x="1517" 
d="M1053 1118l-107 -450l258 450h410l-359 -586l39 -186h170l-127 -582h-350l53 236h-63l-82 432l-86 -432h-385l102 430l-258 -430h-407l360 575l-104 543h391l70 -450l90 450h385z" />
    <glyph glyph-name="uni0498" unicode="&#x498;" horiz-adv-x="1007" 
d="M154 -262l65 256q-181 38 -309 135l192 313q149 -112 297 -112q72 0 114 35t42 92q0 104 -174 104h-150l68 320h160q102 0 155.5 32.5t53.5 90.5q0 45 -32.5 72.5t-100.5 27.5q-113 0 -281 -86l-82 330q205 114 436 114q214 0 336.5 -98.5t122.5 -271.5q0 -146 -71 -243
t-214 -155q86 -48 126 -113.5t40 -162.5q0 -158 -103.5 -277t-285.5 -155l-49 -248h-356z" />
    <glyph glyph-name="uni0499" unicode="&#x499;" horiz-adv-x="868" 
d="M94 -236l60 228q-135 25 -258 98l151 275q137 -82 270 -82q55 0 84 21.5t29 55.5q0 30 -30 49t-115 19h-150l58 264h163q156 0 156 76q0 66 -104 66q-111 0 -256 -62l-56 291q181 80 389 80q197 0 301.5 -82t104.5 -215q0 -106 -59 -183t-175 -118q140 -79 140 -223
q0 -132 -80.5 -219.5t-235.5 -116.5l-43 -222h-344z" />
    <glyph glyph-name="uni049A" unicode="&#x49a;" horiz-adv-x="1163" 
d="M1282 1434l-461 -760l72 -303h219l-139 -633h-363l58 262h-101l-116 567l-121 -567h-400l312 1434h399l-129 -582l326 582h444z" />
    <glyph glyph-name="uni049B" unicode="&#x49b;" horiz-adv-x="1042" 
d="M-74 0l242 1118h391l-100 -454l258 454h422l-365 -590l39 -182h176l-127 -582h-350l53 236h-73l-82 434l-93 -434h-391z" />
    <glyph glyph-name="uni049C" unicode="&#x49c;" horiz-adv-x="1210" 
d="M1083 0h-385l-63 524l-53 -319h-146l82 348h-80l-119 -553h-389l312 1434h389l-119 -543h80l78 389h143l-94 -362l280 516h410l-434 -740z" />
    <glyph glyph-name="uni049D" unicode="&#x49d;" horiz-adv-x="1087" 
d="M981 0h-371l-55 414l-43 -273h-131l61 277h-55l-90 -418h-371l242 1118h371l-88 -405h57l55 268h131l-69 -254l211 391h391l-336 -561z" />
    <glyph glyph-name="uni04A0" unicode="&#x4a0;" horiz-adv-x="1314" 
d="M156 0l233 1075h-260l80 359h657l-129 -580l326 580h444l-460 -760l159 -674h-413l-117 567l-121 -567h-399z" />
    <glyph glyph-name="uni04A1" unicode="&#x4a1;" horiz-adv-x="1179" 
d="M111 0l168 778h-216l76 340h604l-100 -454l258 454h422l-365 -590l115 -528h-397l-82 434l-92 -434h-391z" />
    <glyph glyph-name="uni04A2" unicode="&#x4a2;" horiz-adv-x="1255" 
d="M-70 0l312 1434h399l-115 -529h242l115 529h399l-231 -1063h149l-139 -633h-363l58 262h-185l117 537h-242l-116 -537h-400z" />
    <glyph glyph-name="uni04A3" unicode="&#x4a3;" horiz-adv-x="1095" 
d="M1100 1118l-168 -772h100l-127 -582h-350l53 236h-141l82 389h-150l-82 -389h-391l242 1118h391l-82 -379h150l82 379h391z" />
    <glyph glyph-name="uni04A4" unicode="&#x4a4;" horiz-adv-x="1466" 
d="M563 0l117 537h-234l-116 -537h-400l312 1434h399l-115 -529h234l114 529h762l-80 -365h-362l-231 -1069h-400z" />
    <glyph glyph-name="uni04A5" unicode="&#x4a5;" horiz-adv-x="1263" 
d="M467 0l84 389h-154l-82 -389h-389l242 1118h389l-82 -379h152l82 379h663l-76 -350h-276l-166 -768h-387z" />
    <glyph glyph-name="uni04AA" unicode="&#x4aa;" horiz-adv-x="1015" 
d="M209 -262l78 305q-116 68 -178 197t-62 311q0 207 68.5 403.5t201.5 329.5q174 174 412 174q130 0 240 -49t184 -133l-240 -301q-78 102 -178 102q-74 0 -127 -53q-74 -74 -111.5 -202t-37.5 -234q0 -230 164 -230q50 0 92 21.5t90 60.5l141 -323q-159 -122 -332 -137
l-49 -242h-356z" />
    <glyph glyph-name="uni04AB" unicode="&#x4ab;" horiz-adv-x="835" 
d="M121 -236l74 281q-179 118 -179 389q0 65 9 130.5t30.5 141.5t65 152t104.5 137q150 150 346 150q212 0 351 -170l-209 -262q-29 39 -57.5 58.5t-67.5 19.5q-47 0 -88 -41q-48 -48 -72.5 -124t-24.5 -149q0 -83 35 -118t84 -35q64 0 131 57l121 -287q-116 -97 -268 -117
l-41 -213h-344z" />
    <glyph glyph-name="uni04AE" unicode="&#x4ae;" horiz-adv-x="1062" 
d="M203 0l112 516l-155 918h405l41 -476l244 476h430l-569 -936l-109 -498h-399z" />
    <glyph glyph-name="uni04AF" unicode="&#x4af;" horiz-adv-x="985" 
d="M508 -285h-391l65 291l-69 1112h391l-21 -590l234 590h403l-542 -1098z" />
    <glyph glyph-name="uni04B0" unicode="&#x4b0;" horiz-adv-x="1062" 
d="M203 0l65 299h-200l59 274h178l-145 861h405l41 -476l244 476h430l-524 -861h174l-60 -274h-202l-66 -299h-399z" />
    <glyph glyph-name="uni04B1" unicode="&#x4b1;" horiz-adv-x="985" 
d="M1120 1118l-452 -915h153l-43 -203h-207l-63 -285h-391l63 285h-205l43 203h152l-57 915h391l-21 -590l234 590h403z" />
    <glyph glyph-name="uni04B2" unicode="&#x4b2;" horiz-adv-x="1146" 
d="M-143 0l471 754l-144 680h410l47 -365l195 365h421l-446 -721l74 -342h205l-140 -633h-362l57 262h-92l-53 408l-221 -408h-422z" />
    <glyph glyph-name="uni04B3" unicode="&#x4b3;" horiz-adv-x="1013" 
d="M510 1118l35 -258l143 258h406l-385 -569l53 -203h192l-127 -582h-350l53 236h-61l-39 276l-151 -276h-406l393 582l-143 536h387z" />
    <glyph glyph-name="uni04B6" unicode="&#x4b6;" horiz-adv-x="1228" 
d="M545 0l96 446q-36 -4 -94 -4q-208 0 -321 85.5t-113 258.5q0 84 39 263l81 385h400l-94 -445q-15 -59 -15 -90q0 -44 30.5 -63t94.5 -19q58 0 76 6l131 611h401l-231 -1063h148l-140 -633h-362l57 262h-184z" />
    <glyph glyph-name="uni04B7" unicode="&#x4b7;" horiz-adv-x="1097" 
d="M1075 1118l-168 -772h127l-127 -582h-350l53 236h-166l68 313q-62 -4 -80 -4q-366 0 -366 297q0 63 30 217l64 295h389l-74 -338q-8 -41 -8 -63q0 -55 78 -55q35 0 43 2l98 454h389z" />
    <glyph glyph-name="uni04B8" unicode="&#x4b8;" horiz-adv-x="1157" 
d="M639 1196h147l-90 -383q66 5 78 8l133 613h389l-311 -1434h-389l100 455l-78 -6l-51 -254h-145l59 256q-171 18 -267.5 106t-96.5 244q0 102 37 256l79 377h390l-97 -447q-14 -75 -14 -96q0 -53 51 -70z" />
    <glyph glyph-name="uni04B9" unicode="&#x4b9;" horiz-adv-x="1054" 
d="M670 938l-70 -289q13 0 59 4l99 465h370l-243 -1118h-369l70 322l-56 -7l-36 -182h-127l41 182q-342 15 -342 293q0 63 30 213l64 297h366l-71 -348q-11 -57 -11 -61q0 -45 39 -54l58 283h129z" />
    <glyph glyph-name="uni04BA" unicode="&#x4ba;" horiz-adv-x="1118" 
d="M645 1434l-96 -447q36 4 94 4q208 0 321 -85.5t113 -258.5q0 -83 -39 -262l-82 -385h-399l94 444q15 58 15 91q0 43 -30.5 62t-94.5 19q-58 0 -76 -6l-131 -610h-402l312 1434h401z" />
    <glyph glyph-name="uni04BB" unicode="&#x4bb;" 
d="M-74 0l320 1475h389l-105 -484q126 152 271 152q113 0 171 -64t58 -172q0 -76 -16 -139l-166 -768h-391l145 672q10 52 10 67q0 58 -55 58q-68 0 -90 -97l-152 -700h-389z" />
    <glyph glyph-name="uni04C0" unicode="&#x4c0;" horiz-adv-x="509" 
d="M-66 0l312 1434h399l-311 -1434h-400z" />
    <glyph glyph-name="uni04C1" unicode="&#x4c1;" horiz-adv-x="1677" 
d="M1227 1434l-131 -568l334 568h440l-475 -736l161 -698h-409l-117 569l-115 -569h-397l127 557l-340 -557h-440l485 735l-151 699h409l103 -574l118 574h398zM1042 1485q-136 0 -206.5 60.5t-53.5 183.5h203q6 -64 92 -64q76 0 115 64h211q-82 -244 -361 -244z" />
    <glyph glyph-name="uni04C2" unicode="&#x4c2;" horiz-adv-x="1476" 
d="M1053 1118l-105 -448l256 448h410l-359 -586l111 -532h-389l-82 432l-86 -432h-385l102 430l-258 -430h-407l360 575l-104 543h391l70 -450l90 450h385zM889 1169q-143 0 -217 69t-64 208h203q2 -42 26 -66t70 -24q90 0 131 90h205q-38 -134 -131 -205.5t-223 -71.5z" />
    <glyph glyph-name="uni04CF" unicode="&#x4cf;" horiz-adv-x="493" 
d="M-70 0l320 1475h389l-320 -1475h-389z" />
    <glyph glyph-name="uni04D0" unicode="&#x4d0;" horiz-adv-x="1153" 
d="M-143 0l688 1438h448l64 -1438h-404v219h-293l-92 -219h-411zM494 530h163l5 404zM786 1503q-136 0 -206.5 60.5t-53.5 183.5h203q6 -64 92 -64q76 0 115 64h211q-82 -244 -361 -244z" />
    <glyph glyph-name="uni04D1" unicode="&#x4d1;" horiz-adv-x="952" 
d="M190 -23q-105 0 -163 67t-58 189q0 100 32.5 200.5t92.5 160.5q88 94 254 94q106 0 197 -45l4 16q8 21 8 54q0 50 -34.5 77t-100.5 27q-88 0 -232 -47l-34 313q188 56 374 56q201 0 311.5 -84.5t110.5 -249.5q0 -73 -18 -152l-141 -653h-387l18 88q-60 -57 -112 -84
t-122 -27zM381 219q33 0 62 30t40 83l25 125q-37 16 -70 16q-39 0 -63 -24t-36.5 -70.5t-12.5 -83.5q0 -76 55 -76zM623 1186q-144 0 -217.5 68.5t-63.5 207.5h203q2 -42 26 -66t70 -24q90 0 131 90h205q-38 -134 -131 -205t-223 -71z" />
    <glyph glyph-name="uni04D2" unicode="&#x4d2;" horiz-adv-x="1153" 
d="M-143 0l688 1438h448l64 -1438h-404v219h-293l-92 -219h-411zM494 530h163l5 404zM459 1507l55 254h293l-55 -254h-293zM813 1507l55 254h295l-57 -254h-293z" />
    <glyph glyph-name="uni04D3" unicode="&#x4d3;" horiz-adv-x="952" 
d="M190 -23q-105 0 -163 67t-58 189q0 100 32.5 200.5t92.5 160.5q88 94 254 94q106 0 197 -45l4 16q8 21 8 54q0 50 -34.5 77t-100.5 27q-88 0 -232 -47l-34 313q188 56 374 56q201 0 311.5 -84.5t110.5 -249.5q0 -73 -18 -152l-141 -653h-387l18 88q-60 -57 -112 -84
t-122 -27zM381 219q33 0 62 30t40 83l25 125q-37 16 -70 16q-39 0 -63 -24t-36.5 -70.5t-12.5 -83.5q0 -76 55 -76zM289 1188l59 270h289l-59 -270h-289zM637 1188l59 270h287l-59 -270h-287z" />
    <glyph glyph-name="uni04D4" unicode="&#x4d4;" horiz-adv-x="1574" 
d="M-152 0l746 1434h1124l-80 -361h-448l-39 -182h408l-74 -340h-408l-41 -191h457l-80 -360h-850l47 219h-252l-102 -219h-408zM506 530h172l121 555h-23z" />
    <glyph glyph-name="uni04D5" unicode="&#x4d5;" horiz-adv-x="1445" 
d="M233 -23q-121 0 -192.5 66t-71.5 186q0 104 32.5 204.5t92.5 160.5q88 94 254 94q106 0 197 -45l4 16q8 21 8 54q0 50 -34.5 77t-100.5 27q-88 0 -232 -47l-34 313q188 56 374 56q196 0 291 -92q121 100 264 100q170 0 263.5 -113t93.5 -303q0 -125 -47 -305h-533
q0 -68 40 -99.5t108 -31.5q116 0 225 67l92 -284q-167 -107 -381 -107q-127 0 -221.5 43.5t-149.5 122.5q-147 -160 -342 -160zM391 229q66 0 123 76q-13 78 -4 158q-37 16 -70 16q-39 0 -63 -24q-26 -26 -38.5 -68.5t-12.5 -79.5q0 -78 65 -78zM975 809q-46 -46 -78 -168
h186q13 64 13 102q0 43 -17 68t-47 25t-57 -27z" />
    <glyph glyph-name="uni04D6" unicode="&#x4d6;" horiz-adv-x="956" 
d="M-70 0l312 1434h858l-80 -361h-459l-41 -182h420l-74 -340h-420l-40 -191h468l-79 -360h-865zM688 1485q-136 0 -206.5 60.5t-53.5 183.5h203q6 -64 92 -64q76 0 115 64h211q-82 -244 -361 -244z" />
    <glyph glyph-name="uni04D7" unicode="&#x4d7;" horiz-adv-x="960" 
d="M909 426h-532q0 -131 147 -131q117 0 226 67l92 -282q-167 -107 -381 -107q-215 0 -332 119.5t-117 331.5q0 142 55.5 307.5t159.5 269.5q146 146 348 146q187 0 284 -112t97 -304q0 -125 -47 -305zM489 809q-44 -44 -77 -168h186q12 59 12 102t-16.5 68t-46.5 25
q-31 0 -58 -27zM635 1186q-144 0 -217.5 68.5t-63.5 207.5h203q2 -42 26 -66t70 -24q90 0 131 90h205q-38 -134 -131 -205t-223 -71z" />
    <glyph glyph-name="uni04D8" unicode="&#x4d8;" horiz-adv-x="1124" 
d="M39 467q0 162 57 401h662v4q0 111 -46.5 163t-138.5 52q-105 0 -272 -90l-90 355q217 106 412 106q249 0 382.5 -148.5t133.5 -410.5q0 -225 -75.5 -434t-193.5 -332q-162 -162 -389 -162q-149 0 -250 65.5t-146.5 174.5t-45.5 256zM606 369q66 66 109 217h-293
q-14 -59 -14 -129q0 -133 98 -133q55 0 100 45z" />
    <glyph glyph-name="uni04D9" unicode="&#x4d9;" horiz-adv-x="960" 
d="M6 389q0 125 47 305h533q0 68 -40 99.5t-108 31.5q-116 0 -225 -67l-92 282q167 107 381 107q215 0 331.5 -119t116.5 -332q0 -142 -55.5 -307.5t-159.5 -269.5q-146 -146 -348 -146q-187 0 -284 112t-97 304zM473 311q45 45 76 168h-184q-13 -64 -13 -102
q0 -43 16.5 -67.5t47.5 -24.5t57 26z" />
    <glyph glyph-name="uni04DC" unicode="&#x4dc;" horiz-adv-x="1677" 
d="M1227 1434l-131 -568l334 568h440l-475 -736l161 -698h-409l-117 569l-115 -569h-397l127 557l-340 -557h-440l485 735l-151 699h409l103 -574l118 574h398zM717 1489l55 254h293l-55 -254h-293zM1071 1489l55 254h295l-57 -254h-293z" />
    <glyph glyph-name="uni04DD" unicode="&#x4dd;" horiz-adv-x="1476" 
d="M1053 1118l-105 -448l256 448h410l-359 -586l111 -532h-389l-82 432l-86 -432h-385l102 430l-258 -430h-407l360 575l-104 543h391l70 -450l90 450h385zM555 1171l59 271h289l-59 -271h-289zM903 1171l60 271h286l-59 -271h-287z" />
    <glyph glyph-name="uni04DE" unicode="&#x4de;" horiz-adv-x="1007" 
d="M254 1018l-82 330q205 114 436 114q214 0 336.5 -98.5t122.5 -271.5q0 -146 -71 -243t-214 -155q86 -48 126 -113.5t40 -162.5q0 -92 -37 -173t-104.5 -142t-170 -96.5t-226.5 -35.5q-128 0 -261 40t-239 118l192 313q149 -112 297 -112q72 0 114 35t42 92
q0 104 -174 104h-150l68 320h160q102 0 155.5 32.5t53.5 90.5q0 45 -32.5 72.5t-100.5 27.5q-113 0 -281 -86zM342 1507l55 254h293l-55 -254h-293zM696 1507l56 254h295l-58 -254h-293z" />
    <glyph glyph-name="uni04DF" unicode="&#x4df;" horiz-adv-x="868" 
d="M336 -27q-107 0 -224.5 28t-215.5 89l151 275q137 -82 270 -82q55 0 84 21.5t29 55.5q0 30 -30 49t-115 19h-150l58 264h163q156 0 156 76q0 66 -104 66q-111 0 -256 -62l-56 291q181 80 389 80q197 0 301.5 -82t104.5 -215q0 -106 -59 -183t-175 -118q140 -79 140 -223
q0 -159 -118 -254t-343 -95zM227 1188l60 270h288l-59 -270h-289zM575 1188l60 270h287l-60 -270h-287z" />
    <glyph glyph-name="uni04E2" unicode="&#x4e2;" horiz-adv-x="1167" 
d="M897 1434h410l-312 -1434h-393l141 651l-424 -651h-389l312 1434h391l-135 -621zM436 1497l53 229h654l-51 -229h-656z" />
    <glyph glyph-name="uni04E3" unicode="&#x4e3;" horiz-adv-x="1034" 
d="M733 1118h375l-244 -1118h-372l98 455l-291 -455h-373l242 1118h375l-99 -452zM338 1182l49 223h621l-50 -223h-620z" />
    <glyph glyph-name="uni04E4" unicode="&#x4e4;" horiz-adv-x="1167" 
d="M897 1434h410l-312 -1434h-393l141 651l-424 -651h-389l312 1434h391l-135 -621zM440 1489l56 254h292l-55 -254h-293zM795 1489l55 254h295l-58 -254h-292z" />
    <glyph glyph-name="uni04E5" unicode="&#x4e5;" horiz-adv-x="1034" 
d="M733 1118h375l-244 -1118h-372l98 455l-291 -455h-373l242 1118h375l-99 -452zM330 1171l59 271h289l-60 -271h-288zM678 1171l59 271h287l-59 -271h-287z" />
    <glyph glyph-name="uni04E6" unicode="&#x4e6;" horiz-adv-x="1179" 
d="M721 1464q107 0 194 -33t153 -99t102 -173.5t36 -247.5q0 -195 -71.5 -415t-210.5 -359q-78 -78 -180.5 -123t-215.5 -45q-107 0 -194 33t-153 99t-102 173.5t-36 247.5q0 123 27.5 257.5t94.5 278.5t163 240q78 78 178.5 122t214.5 44zM553 330q47 0 90 43
q72 72 119 242.5t47 302.5q0 186 -113 186q-47 0 -90 -43q-72 -72 -119 -243t-47 -302q0 -186 113 -186zM463 1507l55 254h293l-55 -254h-293zM817 1507l55 254h295l-57 -254h-293z" />
    <glyph glyph-name="uni04E7" unicode="&#x4e7;" 
d="M432 -29q-202 0 -310 118.5t-108 320.5q0 162 54 325t155 264q148 148 352 148q202 0 310 -119t108 -319q0 -162 -54 -325.5t-155 -264.5q-148 -148 -352 -148zM457 299q30 0 57 27q46 46 77.5 164.5t31.5 209.5q0 67 -19 93t-53 26q-31 0 -57 -26q-46 -46 -77.5 -165
t-31.5 -210q0 -67 19 -93t53 -26zM324 1188l59 270h289l-60 -270h-288zM672 1188l59 270h287l-60 -270h-286z" />
    <glyph glyph-name="uni04E8" unicode="&#x4e8;" horiz-adv-x="1155" 
d="M711 1464q214 0 342.5 -138.5t128.5 -414.5q0 -124 -27 -259t-93 -279.5t-161 -239.5q-75 -75 -176.5 -119.5t-210.5 -44.5q-214 0 -342.5 138.5t-128.5 414.5q0 124 27 259t93 279.5t161 239.5q75 75 176.5 119.5t210.5 44.5zM645 362q54 54 109 203h-342q-2 -18 -2 -53
q0 -201 127 -201q57 0 108 51zM688 1122q-57 0 -108 -51q-63 -63 -107 -194h340q0 7 1 22.5t1 22.5q0 200 -127 200z" />
    <glyph glyph-name="uni04E9" unicode="&#x4e9;" horiz-adv-x="989" 
d="M426 -27q-199 0 -305.5 119t-106.5 320q0 161 53 323.5t156 265.5q144 144 342 144q199 0 305.5 -119t106.5 -319q0 -162 -53 -324.5t-156 -265.5q-144 -144 -342 -144zM444 276q43 0 80 37q43 43 74 142h-242q-2 -16 -2 -45v-2q0 -73 24.5 -103.5t65.5 -28.5zM469 805
q-45 -45 -74 -133h242q2 14 2 37v2q0 73 -24.5 103t-65.5 28q-43 0 -80 -37z" />
    <glyph glyph-name="uni04EE" unicode="&#x4ee;" horiz-adv-x="1118" 
d="M1329 1434l-811 -1434h-430l244 428l-158 1006h406l55 -510l266 510h428zM424 1497l53 229h653l-51 -229h-655z" />
    <glyph glyph-name="uni04EF" unicode="&#x4ef;" horiz-adv-x="985" 
d="M186 25l-69 1093h387l-10 -581l231 581h397l-526 -1087q-89 -181 -176.5 -253.5t-233.5 -72.5q-136 0 -260 74l105 278q67 -47 112 -47q28 0 43 15zM315 1182l50 223h620l-49 -223h-621z" />
    <glyph glyph-name="uni04F0" unicode="&#x4f0;" horiz-adv-x="1118" 
d="M1329 1434l-811 -1434h-430l244 428l-158 1006h406l55 -510l266 510h428zM428 1489l55 254h293l-55 -254h-293zM782 1489l56 254h295l-58 -254h-293z" />
    <glyph glyph-name="uni04F1" unicode="&#x4f1;" horiz-adv-x="985" 
d="M186 25l-69 1093h387l-10 -581l231 581h397l-526 -1087q-89 -181 -176.5 -253.5t-233.5 -72.5q-136 0 -260 74l105 278q67 -47 112 -47q28 0 43 15zM305 1171l60 271h288l-59 -271h-289zM653 1171l60 271h286l-59 -271h-287z" />
    <glyph glyph-name="uni04F2" unicode="&#x4f2;" horiz-adv-x="1118" 
d="M1329 1434l-811 -1434h-430l244 428l-158 1006h406l55 -510l266 510h428zM764 1489l98 129l-190 -129h-246l195 260l292 -61l48 61l331 -72l-282 -188h-246z" />
    <glyph glyph-name="uni04F3" unicode="&#x4f3;" horiz-adv-x="985" 
d="M186 25l-69 1093h387l-10 -581l231 581h397l-526 -1087q-89 -181 -176.5 -253.5t-233.5 -72.5q-136 0 -260 74l105 278q67 -47 112 -47q28 0 43 15zM631 1171l106 152l-207 -152h-215l222 306l258 -72l49 72l301 -82l-299 -224h-215z" />
    <glyph glyph-name="uni04F4" unicode="&#x4f4;" horiz-adv-x="1118" 
d="M545 0l96 446q-36 -4 -94 -4q-208 0 -321 85.5t-113 258.5q0 84 39 263l81 385h400l-94 -445q-15 -59 -15 -90q0 -44 30.5 -63t94.5 -19q58 0 76 6l131 611h401l-311 -1434h-401zM432 1489l55 254h293l-55 -254h-293zM786 1489l56 254h295l-58 -254h-293z" />
    <glyph glyph-name="uni04F5" unicode="&#x4f5;" horiz-adv-x="1003" 
d="M1075 1118l-241 -1118h-390l68 313q-62 -4 -80 -4q-366 0 -366 297q0 63 30 217l64 295h389l-74 -338q-8 -41 -8 -63q0 -55 78 -55q35 0 43 2l98 454h389zM311 1171l60 271h288l-59 -271h-289zM659 1171l60 271h287l-60 -271h-287z" />
    <glyph glyph-name="uni04F8" unicode="&#x4f8;" horiz-adv-x="1540" 
d="M-70 0l312 1434h397l-92 -420q254 -6 377 -129q104 -101 104 -279q0 -129 -42.5 -244t-119.5 -192q-170 -170 -485 -170h-451zM969 0l311 1434h401l-313 -1434h-399zM631 557q0 63 -39 102q-34 27 -88 27h-27l-78 -356h29q90 0 139 49q33 33 48.5 82.5t15.5 95.5z
M649 1489l56 254h292l-55 -254h-293zM1004 1489l55 254h295l-58 -254h-292z" />
    <glyph glyph-name="uni04F9" unicode="&#x4f9;" horiz-adv-x="1443" 
d="M930 489q0 -67 -15.5 -131t-56.5 -130.5t-104 -115.5t-167 -80.5t-237 -31.5h-424l242 1118h387l-61 -282h20q200 0 308 -90.5t108 -256.5zM885 0l241 1118h392l-244 -1118h-389zM557 453q0 100 -96 100h-29l-57 -270h33q44 0 76 19t46.5 48.5t20.5 54.5t6 48zM537 1171
l59 271h289l-60 -271h-288zM885 1171l59 271h287l-60 -271h-286z" />
    <glyph glyph-name="Wgrave" unicode="&#x1e80;" horiz-adv-x="1640" 
d="M168 -4l8 1438h414l-45 -746l295 748h334l-25 -748l272 746h420l-614 -1438h-389l-2 629l-277 -629h-391zM877 1489l-220 182l398 78l84 -260h-262z" />
    <glyph glyph-name="wgrave" unicode="&#x1e81;" horiz-adv-x="1355" 
d="M123 -6l-4 1124h375l-33 -500l186 502h301l-26 -504l182 502h381l-492 -1124h-331l-7 459l-194 -459h-338zM709 1171l-232 218l365 88l90 -306h-223z" />
    <glyph glyph-name="Wacute" unicode="&#x1e82;" horiz-adv-x="1640" 
d="M168 -4l8 1438h414l-45 -746l295 748h334l-25 -748l272 746h420l-614 -1438h-389l-2 629l-277 -629h-391zM872 1489l201 260l385 -78l-301 -182h-285z" />
    <glyph glyph-name="wacute" unicode="&#x1e83;" horiz-adv-x="1355" 
d="M123 -6l-4 1124h375l-33 -500l186 502h301l-26 -504l182 502h381l-492 -1124h-331l-7 459l-194 -459h-338zM674 1171l225 306l346 -88l-327 -218h-244z" />
    <glyph glyph-name="Wdieresis" unicode="&#x1e84;" horiz-adv-x="1640" 
d="M168 -4l8 1438h414l-45 -746l295 748h334l-25 -748l272 746h420l-614 -1438h-389l-2 629l-277 -629h-391zM698 1489l56 254h293l-56 -254h-293zM1053 1489l55 254h295l-57 -254h-293z" />
    <glyph glyph-name="wdieresis" unicode="&#x1e85;" horiz-adv-x="1355" 
d="M123 -6l-4 1124h375l-33 -500l186 502h301l-26 -504l182 502h381l-492 -1124h-331l-7 459l-194 -459h-338zM496 1171l59 271h289l-60 -271h-288zM844 1171l59 271h287l-60 -271h-286z" />
    <glyph glyph-name="Ygrave" unicode="&#x1ef2;" horiz-adv-x="1062" 
d="M203 0l112 516l-155 918h405l41 -476l244 476h430l-569 -936l-109 -498h-399zM580 1489l-220 182l398 78l84 -260h-262z" />
    <glyph glyph-name="ygrave" unicode="&#x1ef3;" horiz-adv-x="985" 
d="M186 25l-69 1093h387l-10 -581l231 581h397l-526 -1087q-89 -181 -176.5 -253.5t-233.5 -72.5q-136 0 -260 74l105 278q67 -47 112 -47q28 0 43 15zM518 1171l-231 218l364 88l90 -306h-223z" />
    <glyph glyph-name="enspace" unicode="&#x2002;" horiz-adv-x="1024" 
 />
    <glyph glyph-name="emspace" unicode="&#x2003;" horiz-adv-x="2048" 
 />
    <glyph glyph-name="threeperemspace" unicode="&#x2004;" horiz-adv-x="681" 
 />
    <glyph glyph-name="fourperemspace" unicode="&#x2005;" horiz-adv-x="512" 
 />
    <glyph glyph-name="thinspace" unicode="&#x2009;" horiz-adv-x="272" 
 />
    <glyph glyph-name="hairspace" unicode="&#x200a;" horiz-adv-x="153" 
 />
    <glyph glyph-name="endash" unicode="&#x2013;" horiz-adv-x="948" 
d="M25 477l73 336h865l-74 -336h-864z" />
    <glyph glyph-name="emdash" unicode="&#x2014;" horiz-adv-x="1507" 
d="M25 477l73 336h1424l-74 -336h-1423z" />
    <glyph glyph-name="quoteleft" unicode="&#x2018;" horiz-adv-x="483" 
d="M82 741l80 361q36 173 147 253t309 91l9 -148q-200 -25 -238 -151h186l-90 -406h-403z" />
    <glyph glyph-name="quoteright" unicode="&#x2019;" horiz-adv-x="481" 
d="M96 729l-8 145q199 25 238 154h-187l90 406h404l-80 -361q-37 -173 -148.5 -253t-308.5 -91z" />
    <glyph glyph-name="quotesinglbase" unicode="&#x201a;" horiz-adv-x="479" 
d="M-131 -299l-8 145q200 25 239 154h-188l90 406h406l-80 -361q-37 -173 -149 -253t-310 -91z" />
    <glyph glyph-name="quotedblleft" unicode="&#x201c;" horiz-adv-x="927" 
d="M80 739l80 363q38 168 146.5 249.5t295.5 92.5l8 -146q-187 -33 -223 -151h172l-90 -408h-389zM543 739l78 363q38 168 146.5 249.5t295.5 92.5l8 -146q-185 -33 -221 -151h170l-90 -408h-387z" />
    <glyph glyph-name="quotedblright" unicode="&#x201d;" horiz-adv-x="927" 
d="M96 729l-8 145q185 32 223 154h-172l90 406h387l-77 -361q-37 -168 -147.5 -250t-295.5 -94zM557 729l-8 145q188 33 223 154h-172l90 406h389l-80 -361q-37 -168 -147 -250t-295 -94z" />
    <glyph glyph-name="quotedblbase" unicode="&#x201e;" horiz-adv-x="925" 
d="M-131 -299l-8 145q188 33 223 154h-172l90 406h389l-80 -361q-37 -168 -146 -250t-296 -94zM332 -299l-8 145q185 32 223 154h-172l90 406h389l-80 -361q-37 -168 -146 -250t-296 -94z" />
    <glyph glyph-name="dagger" unicode="&#x2020;" horiz-adv-x="657" 
d="M193 469l143 526l-201 -22l53 244l187 -23l16 240h254l-90 -240l199 23l-54 -244l-190 22l-88 -526h-229z" />
    <glyph glyph-name="daggerdbl" unicode="&#x2021;" horiz-adv-x="675" 
d="M90 0l88 240l-196 -23l53 244l192 -23l23 279l98 278l-205 -22l56 244l186 -23l16 240h252l-88 -240l197 23l-53 -244l-193 22l-22 -278l-99 -279l205 23l-53 -244l-189 23l-16 -240h-252z" />
    <glyph glyph-name="bullet" unicode="&#x2022;" horiz-adv-x="849" 
d="M514 1116q117 0 186.5 -70.5t69.5 -207.5q0 -107 -39.5 -227.5t-105.5 -186.5q-92 -92 -217 -92q-115 0 -184.5 71t-69.5 207q0 109 39 227t106 185q91 94 215 94z" />
    <glyph glyph-name="ellipsis" unicode="&#x2026;" horiz-adv-x="1433" 
d="M-86 0l90 406h404l-91 -406h-403zM393 0l88 406h404l-90 -406h-402zM870 0l91 406h403l-90 -406h-404z" />
    <glyph glyph-name="perthousand" unicode="&#x2030;" horiz-adv-x="2105" 
d="M100 0l590 762l498 672h229l-590 -762l-497 -672h-230zM375 623q-123 0 -191.5 80.5t-68.5 226.5q0 119 36.5 238.5t116.5 199.5q82 82 201 82q123 0 191.5 -80.5t68.5 -226.5q0 -118 -36.5 -238t-112.5 -196q-86 -86 -205 -86zM387 829q24 0 43 19q38 38 60 126.5
t22 168.5q0 100 -55 100q-25 0 -43 -18q-38 -38 -60 -126.5t-22 -168.5q0 -101 55 -101zM1049 -16q-123 0 -192 80.5t-69 226.5q0 117 37 237.5t113 196.5q86 86 205 86q123 0 191.5 -80.5t68.5 -226.5q0 -117 -37 -237.5t-113 -196.5q-86 -86 -204 -86zM1061 190
q24 0 43 19q38 38 60 126.5t22 168.5q0 100 -56 100q-25 0 -43 -18q-38 -38 -59.5 -126.5t-21.5 -168.5q0 -101 55 -101zM1702 -16q-123 0 -191.5 80.5t-68.5 226.5q0 118 36.5 238t112.5 196q86 86 205 86q123 0 191.5 -80.5t68.5 -226.5q0 -118 -36.5 -238t-112.5 -196
q-86 -86 -205 -86zM1714 190q24 0 43 19q38 38 60 126.5t22 168.5q0 100 -55 100q-25 0 -43 -18q-38 -38 -60 -126.5t-22 -168.5q0 -101 55 -101z" />
    <glyph glyph-name="guilsinglleft" unicode="&#x2039;" horiz-adv-x="544" 
d="M190 78l-176 432l25 104l352 422l201 -121l-248 -368l92 -373z" />
    <glyph glyph-name="guilsinglright" unicode="&#x203a;" horiz-adv-x="544" 
d="M354 1032l176 -432l-24 -104l-352 -422l-201 121l248 368l-92 373z" />
    <glyph glyph-name="Euro" unicode="&#x20ac;" horiz-adv-x="993" 
d="M70 762l49 229h96q68 194 186 312q149 155 371 155q210 0 379 -174l-215 -268q-82 82 -162 82q-70 0 -121 -51q-23 -23 -45 -62h244l-47 -223h-268q-4 -17 -9 -45t-8 -39h266l-47 -223h-241q10 -63 50 -94t97 -31q28 0 55.5 7t42 14t38.5 20.5t28 15.5l96 -317
q-171 -95 -311 -95q-208 0 -334.5 124.5t-138.5 349.5h-119l49 231h92l17 82h-90z" />
    <glyph glyph-name="hryvnia" unicode="&#x20b4;" horiz-adv-x="1036" 
d="M950 475l-362 68q-82 -55 -113 -90t-31 -68q0 -66 91 -66q126 0 286 99l90 -322q-213 -125 -440 -125q-212 0 -319 99.5t-107 267.5q0 161 115 283l-129 24l45 119l194 -37l115 84l-268 51l45 119l373 -70q66 43 94 74t28 62q0 34 -22 50.5t-74 16.5q-57 0 -124.5 -24.5
t-121.5 -57.5l-82 320q191 110 402 110q107 0 189.5 -28t132.5 -78t75 -113.5t25 -138.5q0 -89 -27.5 -152t-75.5 -118l127 -23l-45 -119l-186 33l-115 -84l260 -47z" />
    <glyph glyph-name="numero" unicode="&#x2116;" horiz-adv-x="1738" 
d="M-70 0l312 1434h360l94 -603l131 603h357l-312 -1434h-344l-102 637l-139 -637h-357zM1423 563q-141 0 -211.5 84.5t-70.5 224.5q0 129 41.5 270t117.5 212q96 96 236 96q142 0 212.5 -85t70.5 -226q0 -122 -44.5 -264.5t-117.5 -215.5q-92 -96 -234 -96zM1444 811
q19 0 35 16q27 27 53.5 141t26.5 171q0 65 -46 65q-18 0 -34 -16q-25 -25 -51.5 -140.5t-26.5 -170.5q0 -66 43 -66zM1024 262l49 238h586l-49 -238h-586z" />
    <glyph glyph-name="published" unicode="&#x2117;" horiz-adv-x="1230" 
d="M498 1143h211q140 0 217.5 -60.5t77.5 -181.5q0 -70 -22 -132.5t-65 -113.5t-114.5 -81.5t-163.5 -30.5h-39l-51 -238h-230zM774 879q0 34 -18 51.5t-49 17.5h-19l-47 -217h23q53 0 81.5 47t28.5 101zM750 1464q218 0 346.5 -149t128.5 -414q0 -127 -23.5 -255
t-87.5 -268.5t-162 -238.5q-83 -83 -179.5 -126.5t-223.5 -43.5q-219 0 -347 148.5t-128 414.5q0 128 23.5 255.5t87 268t161.5 238.5q83 83 180 126.5t224 43.5zM555 45q108 0 188 34.5t154 108.5q88 88 146 220t80 253t22 238q0 230 -105.5 360t-296.5 130
q-107 0 -187.5 -35t-154.5 -109q-87 -87 -145.5 -219.5t-80 -253t-21.5 -237.5q0 -230 105 -360t296 -130z" />
    <glyph glyph-name="servicemark" unicode="&#x2120;" horiz-adv-x="1062" 
d="M305 784q-129 0 -225 84l80 146q80 -70 147 -70q45 0 45 35q0 4 -0.5 7t-2 6.5t-2.5 5.5t-4.5 5.5l-5.5 5.5t-8 6.5t-9.5 7t-11.5 8t-13 9.5q-63 42 -94 83.5t-31 97.5q0 102 63 159q64 64 173 64q117 0 202 -76l-88 -137q-67 53 -119 53q-43 0 -43 -35q0 -17 11.5 -28.5
t54.5 -42.5q40 -29 60.5 -47.5t37.5 -51.5t17 -75q0 -94 -64 -158q-65 -62 -170 -62zM539 793l139 641h168l51 -197l137 197h180l-139 -641h-176l68 305l-136 -191h-2l-51 191l-65 -305h-174z" />
    <glyph glyph-name="trademark" unicode="&#x2122;" horiz-adv-x="1069" 
d="M186 793l101 471h-125l37 170h432l-37 -170h-125l-102 -471h-181zM535 793l139 641h174l53 -195l139 195h183l-140 -641h-176l66 301l-139 -185h-3l-55 185l-65 -301h-176z" />
    <glyph glyph-name="Omega" unicode="&#x2126;" horiz-adv-x="1218" 
d="M715 1102q-60 0 -111 -47q-61 -56 -94 -189.5t-33 -271.5q0 -62 11 -135.5t28 -116.5l-74 -342h-520l76 354l205 -2q-105 215 -105 410q0 162 48.5 301t140.5 231q170 170 467 170q245 0 372 -123t127 -331q0 -354 -311 -658l207 2l-78 -354h-534l73 340
q100 152 163 313.5t63 288.5q0 81 -33.5 120.5t-87.5 39.5z" />
    <glyph glyph-name="Delta" unicode="&#x2206;" horiz-adv-x="1175" 
d="M1026 1438l82 -1108l-127 -330h-1006l-4 332l559 1106h496zM700 1036l-301 -674h314z" />
    <glyph glyph-name="minus" unicode="&#x2212;" horiz-adv-x="1021" 
d="M55 549l76 344h905l-75 -344h-906z" />
    <glyph glyph-name="NUL" horiz-adv-x="0" 
 />
    <glyph glyph-name="CR" horiz-adv-x="344" 
 />
    <glyph glyph-name="Q.alt" horiz-adv-x="1183" 
d="M721 1464q107 0 194 -33t153 -99t102 -173.5t36 -247.5q0 -149 -48.5 -327t-139.5 -320l86 -186l-289 -131l-39 90q-121 -64 -248 -64q-107 0 -194 32.5t-153 98t-102 172t-36 246.5q0 123 27.5 257.5t94.5 278.5t163 240q78 78 178.5 122t214.5 44zM551 319q29 0 61 19
l-84 180l240 107q43 151 43 293q0 186 -113 186q-47 0 -90 -43q-72 -72 -121 -250t-49 -301q0 -102 31.5 -146.5t81.5 -44.5z" />
    <glyph glyph-name="a.alt" horiz-adv-x="1042" 
d="M256 -25q-118 0 -183 85.5t-65 248.5q0 107 22.5 240t78 277.5t131.5 220.5q96 96 219 96q168 0 243 -154l27 129h389l-241 -1118h-390l27 121q-120 -146 -258 -146zM473 309q30 0 57 27q48 48 78.5 161t30.5 197q0 115 -72 115q-30 0 -57 -27q-48 -48 -78.5 -160.5
t-30.5 -197.5q0 -115 72 -115z" />
    <glyph glyph-name="uni039E.alt" horiz-adv-x="1093" 
d="M1081 885l-71 -326h-277l-47 -215h322l-76 -344h-1012l74 344h317l47 215h-274l72 326h274l45 205h-313l76 344h999l-76 -344h-311l-45 -205h276z" />
    <glyph glyph-name="uni0424.bgr" horiz-adv-x="1593" 
d="M430 -201l43 209q-195 46 -306.5 189t-111.5 374q0 186 60.5 362.5t185.5 301.5q192 192 487 207l41 192h402l-45 -209q194 -46 307 -190t113 -373q0 -189 -60 -363t-186 -300q-192 -192 -488 -207l-41 -193h-401zM446 590q0 -199 115 -242l164 742q-74 -19 -129 -74
q-68 -68 -109 -185t-41 -241zM1214 844q0 192 -114 239l-164 -739q67 12 129 74q68 68 108.5 185t40.5 241z" />
    <glyph glyph-name="uni0432.bgr" horiz-adv-x="1032" 
d="M479 -23q-224 0 -342.5 104.5t-118.5 285.5q0 103 33 264l78 362q49 236 170 357q137 137 377 137q198 0 310 -103.5t112 -261.5q0 -291 -289 -405q168 -88 168 -279q0 -197 -135 -329t-363 -132zM475 299q47 0 79.5 36.5t44 78t11.5 78.5q0 56 -31.5 84t-101.5 28h-53
l-25 -115q-10 -51 -10 -96q0 -43 22.5 -68.5t63.5 -25.5zM514 1008l-31 -142h64q76 0 115 39q29 29 44 75.5t15 88.5q0 98 -80 98q-42 0 -72 -30q-37 -37 -55 -129z" />
    <glyph glyph-name="uni0433.bgr" horiz-adv-x="821" 
d="M332 317q0 -18 11.5 -26t41.5 -8q117 0 285 86l75 -295q-213 -101 -417 -101q-184 0 -274.5 83.5t-90.5 230.5q0 127 75 223.5t273 185.5q108 48 138 68t30 41q0 33 -51 33q-106 -2 -250 -78l-65 291q187 94 376 94q172 0 265.5 -82.5t93.5 -231.5q0 -133 -76.5 -221.5
t-275.5 -181.5q-109 -53 -136.5 -71t-27.5 -40z" />
    <glyph glyph-name="uni0434.bgr" horiz-adv-x="1040" 
d="M350 -293q-245 0 -424 72l92 305q170 -78 301 -78q98 0 148 47q41 41 63 140l13 47q-122 -146 -267 -146q-119 0 -185 79t-66 235q0 160 57 354t154 291q90 90 210 90q171 0 252 -152l27 127h391l-201 -934q-53 -236 -163 -346q-131 -131 -402 -131zM487 399q31 0 58 27
q40 40 64 130.5t24 150.5q0 110 -72 110q-31 0 -57 -26q-41 -41 -64.5 -130t-23.5 -153q0 -109 71 -109z" />
    <glyph glyph-name="uni0436.bgr" horiz-adv-x="1476" 
d="M1130 1475l-186 -809l260 452h410l-359 -586l111 -532h-389l-82 432l-86 -432h-385l102 430l-258 -430h-407l360 575l-104 543h391l70 -456l170 813h382z" />
    <glyph glyph-name="uni0438.bgr" 
d="M207 -25q-113 0 -171.5 64t-58.5 172q0 72 17 139l166 768h391l-145 -672q-11 -57 -11 -67q0 -57 56 -57q69 0 90 96l151 700h389l-241 -1118h-389l26 127q-126 -152 -270 -152z" />
    <glyph glyph-name="uni0439.bgr" 
d="M207 -25q-113 0 -171.5 64t-58.5 172q0 72 17 139l166 768h391l-145 -672q-11 -57 -11 -67q0 -57 56 -57q69 0 90 96l151 700h389l-241 -1118h-389l26 127q-126 -152 -270 -152zM651 1167q-143 0 -216.5 69t-63.5 208h202q2 -42 26.5 -66t70.5 -24q90 0 131 90h205
q-38 -134 -131.5 -205.5t-223.5 -71.5z" />
    <glyph glyph-name="uni043A.bgr" horiz-adv-x="995" 
d="M889 0h-397l-82 434l-93 -434h-391l320 1475h389l-176 -811l258 454h422l-365 -590z" />
    <glyph glyph-name="uni043F.bgr" 
d="M-74 0l242 1118h389l-27 -127q126 152 271 152q113 0 171 -64t58 -172q0 -76 -16 -139l-166 -768h-391l145 672q10 52 10 67q0 58 -55 58q-68 0 -90 -97l-152 -700h-389z" />
    <glyph glyph-name="uni0442.bgr" horiz-adv-x="1523" 
d="M-74 0l242 1118h387l-25 -125q57 68 122 109t153 41q167 0 207 -158q137 158 303 158q117 0 174 -63t57 -171q0 -54 -14 -129l-166 -780h-387l147 678q9 34 9 61q0 58 -54 58q-68 0 -90 -97l-151 -700h-387l147 678q8 31 8 61q0 58 -53 58q-68 0 -90 -97l-152 -700h-387z
" />
    <glyph glyph-name="uni0446.bgr" horiz-adv-x="1099" 
d="M207 -25q-113 0 -171.5 64t-58.5 172q0 72 17 139l166 768h391l-145 -672q-11 -57 -11 -67q0 -57 56 -57q69 0 90 96l151 700h389l-168 -772h123l-127 -582h-350l53 236h-161l26 127q-126 -152 -270 -152z" />
    <glyph glyph-name="uni0448.bgr" horiz-adv-x="1523" 
d="M1599 1118l-241 -1118h-387l26 129q-57 -69 -122.5 -110.5t-153.5 -41.5q-167 0 -207 160q-139 -160 -303 -160q-117 0 -174 64t-57 172q0 54 16 129l164 776h387l-146 -674q-8 -33 -8 -63q0 -57 53 -57q70 0 91 96l149 698h387l-145 -674q-8 -33 -8 -63q0 -57 53 -57
q69 0 90 96l149 698h387z" />
    <glyph glyph-name="uni0449.bgr" horiz-adv-x="1617" 
d="M1599 1118l-167 -772h122l-127 -582h-350l53 236h-159l26 129q-57 -69 -122.5 -110.5t-153.5 -41.5q-167 0 -207 160q-139 -160 -303 -160q-117 0 -174 64t-57 172q0 54 16 129l164 776h387l-146 -674q-8 -33 -8 -63q0 -57 53 -57q70 0 91 96l149 698h387l-145 -674
q-8 -33 -8 -63q0 -57 53 -57q69 0 90 96l149 698h387z" />
    <glyph glyph-name="uni044E.bgr" horiz-adv-x="1474" 
d="M911 -27q-192 0 -297.5 112.5t-111.5 303.5h-103l-84 -389h-391l322 1475h389l-162 -738h80q60 171 156 267q141 141 342 141q198 0 303.5 -119t105.5 -319q0 -163 -52.5 -326.5t-154.5 -265.5q-142 -142 -342 -142zM934 301q30 0 55 25q47 47 77 163t30 209
q0 67 -17.5 93t-50.5 26q-31 0 -55 -24q-47 -47 -77 -163.5t-30 -209.5q0 -67 17.5 -93t50.5 -26z" />
    <glyph glyph-name="aacute.alt" horiz-adv-x="1042" 
d="M256 -25q-118 0 -183 85.5t-65 248.5q0 107 22.5 240t78 277.5t131.5 220.5q96 96 219 96q168 0 243 -154l27 129h389l-241 -1118h-390l27 121q-120 -146 -258 -146zM473 309q30 0 57 27q48 48 78.5 161t30.5 197q0 115 -72 115q-30 0 -57 -27q-48 -48 -78.5 -160.5
t-30.5 -197.5q0 -115 72 -115zM545 1188l225 305l346 -88l-328 -217h-243z" />
    <glyph glyph-name="abreve.alt" horiz-adv-x="1042" 
d="M256 -25q-118 0 -183 85.5t-65 248.5q0 107 22.5 240t78 277.5t131.5 220.5q96 96 219 96q168 0 243 -154l27 129h389l-241 -1118h-390l27 121q-120 -146 -258 -146zM473 309q30 0 57 27q48 48 78.5 161t30.5 197q0 115 -72 115q-30 0 -57 -27q-48 -48 -78.5 -160.5
t-30.5 -197.5q0 -115 72 -115zM702 1186q-143 0 -216.5 68.5t-63.5 207.5h203q2 -42 26 -66t70 -24q90 0 131 90h205q-38 -133 -131 -204.5t-224 -71.5z" />
    <glyph glyph-name="acircumflex.alt" horiz-adv-x="1042" 
d="M256 -25q-118 0 -183 85.5t-65 248.5q0 107 22.5 240t78 277.5t131.5 220.5q96 96 219 96q168 0 243 -154l27 129h389l-241 -1118h-390l27 121q-120 -146 -258 -146zM473 309q30 0 57 27q48 48 78.5 161t30.5 197q0 115 -72 115q-30 0 -57 -27q-48 -48 -78.5 -160.5
t-30.5 -197.5q0 -115 72 -115zM350 1188l256 274h277l133 -274h-203l-102 92l-142 -92h-219z" />
    <glyph glyph-name="adieresis.alt" horiz-adv-x="1042" 
d="M256 -25q-118 0 -183 85.5t-65 248.5q0 107 22.5 240t78 277.5t131.5 220.5q96 96 219 96q168 0 243 -154l27 129h389l-241 -1118h-390l27 121q-120 -146 -258 -146zM473 309q30 0 57 27q48 48 78.5 161t30.5 197q0 115 -72 115q-30 0 -57 -27q-48 -48 -78.5 -160.5
t-30.5 -197.5q0 -115 72 -115zM369 1188l59 270h289l-60 -270h-288zM717 1188l59 270h287l-59 -270h-287z" />
    <glyph glyph-name="agrave.alt" horiz-adv-x="1042" 
d="M256 -25q-118 0 -183 85.5t-65 248.5q0 107 22.5 240t78 277.5t131.5 220.5q96 96 219 96q168 0 243 -154l27 129h389l-241 -1118h-390l27 121q-120 -146 -258 -146zM473 309q30 0 57 27q48 48 78.5 161t30.5 197q0 115 -72 115q-30 0 -57 -27q-48 -48 -78.5 -160.5
t-30.5 -197.5q0 -115 72 -115zM582 1188l-232 217l365 88l90 -305h-223z" />
    <glyph glyph-name="amacron.alt" horiz-adv-x="1042" 
d="M256 -25q-118 0 -183 85.5t-65 248.5q0 107 22.5 240t78 277.5t131.5 220.5q96 96 219 96q168 0 243 -154l27 129h389l-241 -1118h-390l27 121q-120 -146 -258 -146zM473 309q30 0 57 27q48 48 78.5 161t30.5 197q0 115 -72 115q-30 0 -57 -27q-48 -48 -78.5 -160.5
t-30.5 -197.5q0 -115 72 -115zM377 1198l49 223h621l-50 -223h-620z" />
    <glyph glyph-name="aogonek.alt" horiz-adv-x="1042" 
d="M877 -117l-39 -182q-63 -8 -146 -8q-252 0 -252 123q0 48 29 91.5t94 92.5h-76l27 121q-120 -146 -258 -146q-118 0 -183 85.5t-65 248.5q0 107 22.5 240t78 277.5t131.5 220.5q96 96 219 96q168 0 243 -154l27 129h389l-241 -1118h-62q-45 -45 -45 -74q0 -19 22.5 -28
t84.5 -15zM473 309q30 0 57 27q48 48 78.5 161t30.5 197q0 115 -72 115q-30 0 -57 -27q-48 -48 -78.5 -160.5t-30.5 -197.5q0 -115 72 -115z" />
    <glyph glyph-name="aring.alt" horiz-adv-x="1042" 
d="M256 -25q-118 0 -183 85.5t-65 248.5q0 107 22.5 240t78 277.5t131.5 220.5q96 96 219 96q168 0 243 -154l27 129h389l-241 -1118h-390l27 121q-120 -146 -258 -146zM473 309q30 0 57 27q48 48 78.5 161t30.5 197q0 115 -72 115q-30 0 -57 -27q-48 -48 -78.5 -160.5
t-30.5 -197.5q0 -115 72 -115zM969 1442q0 -103 -73 -179.5t-187 -76.5q-90 0 -148.5 53t-58.5 143q0 101 73 177.5t187 76.5q89 0 148 -52t59 -142zM631 1389q0 -39 24 -65t64 -26q50 0 85.5 38.5t35.5 97.5q0 39 -24 65.5t-64 26.5q-51 0 -86 -38.5t-35 -98.5z" />
    <glyph glyph-name="aring.alt2" horiz-adv-x="952" 
d="M406 0l18 88q-60 -57 -112 -84t-122 -27q-105 0 -163 67t-58 189q0 100 32.5 200.5t92.5 160.5q88 94 254 94q106 0 197 -45l4 16q8 21 8 54q0 50 -34.5 77t-100.5 27q-88 0 -232 -47l-34 313q147 41 264 52q-23 44 -23 96q0 99 73 174.5t187 75.5q90 0 149.5 -53.5
t59.5 -143.5q0 -56 -25 -106t-69 -82q180 -80 180 -291q0 -73 -18 -152l-141 -653h-387zM616 1141q50 0 84.5 38.5t34.5 98.5q0 39 -24 65.5t-64 26.5q-51 0 -86 -38.5t-35 -98.5q0 -39 25 -65.5t65 -26.5zM381 219q33 0 62 30t40 83l25 125q-37 16 -70 16q-39 0 -63 -24
t-36.5 -70.5t-12.5 -83.5q0 -76 55 -76z" />
    <glyph glyph-name="aringacute.alt" horiz-adv-x="1042" 
d="M651 1683l223 256l351 -73l-322 -183h-252zM971 1442q0 -103 -73 -179.5t-187 -76.5q-90 0 -148.5 53t-58.5 143q0 101 73 177.5t187 76.5q89 0 148 -52t59 -142zM633 1389q0 -39 24 -65t64 -26q50 0 85.5 38.5t35.5 97.5q0 39 -24 65.5t-64 26.5q-51 0 -86 -38.5
t-35 -98.5zM256 -25q-118 0 -183 85.5t-65 248.5q0 107 22.5 240t78 277.5t131.5 220.5q96 96 219 96q168 0 243 -154l27 129h389l-241 -1118h-390l27 121q-120 -146 -258 -146zM473 309q30 0 57 27q48 48 78.5 161t30.5 197q0 115 -72 115q-30 0 -57 -27
q-48 -48 -78.5 -160.5t-30.5 -197.5q0 -115 72 -115z" />
    <glyph glyph-name="aringacute.alt2" horiz-adv-x="952" 
d="M545 1526l223 256l350 -74l-321 -182h-252zM406 0l18 88q-60 -57 -112 -84t-122 -27q-105 0 -163 67t-58 189q0 100 32.5 200.5t92.5 160.5q88 94 254 94q106 0 197 -45l4 16q8 21 8 54q0 50 -34.5 77t-100.5 27q-88 0 -232 -47l-34 313q147 41 264 52q-23 44 -23 96
q0 99 73 174.5t187 75.5q90 0 149.5 -53.5t59.5 -143.5q0 -56 -25 -106t-69 -82q180 -80 180 -291q0 -73 -18 -152l-141 -653h-387zM616 1141q50 0 84.5 38.5t34.5 98.5q0 39 -24 65.5t-64 26.5q-51 0 -86 -38.5t-35 -98.5q0 -39 25 -65.5t65 -26.5zM381 219q33 0 62 30
t40 83l25 125q-37 16 -70 16q-39 0 -63 -24t-36.5 -70.5t-12.5 -83.5q0 -76 55 -76z" />
    <glyph glyph-name="atilde.alt" horiz-adv-x="1042" 
d="M256 -25q-118 0 -183 85.5t-65 248.5q0 107 22.5 240t78 277.5t131.5 220.5q96 96 219 96q168 0 243 -154l27 129h389l-241 -1118h-390l27 121q-120 -146 -258 -146zM473 309q30 0 57 27q48 48 78.5 161t30.5 197q0 115 -72 115q-30 0 -57 -27q-48 -48 -78.5 -160.5
t-30.5 -197.5q0 -115 72 -115zM915 1491l168 -35q-72 -272 -231 -272q-63 0 -147 35q-82 30 -115 30q-30 0 -47.5 -15.5t-36.5 -57.5l-168 34q71 273 231 273q66 0 150 -35q85 -33 112 -33q30 0 47 16.5t37 59.5z" />
    <glyph glyph-name="i.dot" horiz-adv-x="493" 
d="M-70 0l242 1118h391l-241 -1118h-392zM184 1186l64 289h397l-63 -289h-398z" />
    <glyph glyph-name="uni0386.calt" horiz-adv-x="1153" 
d="M-143 0l688 1438h448l64 -1438h-404v219h-293l-92 -219h-411zM494 530h163l5 404z" />
    <glyph glyph-name="uni0388.calt" horiz-adv-x="956" 
d="M-70 0l312 1434h858l-80 -361h-459l-41 -182h420l-74 -340h-420l-40 -191h468l-79 -360h-865z" />
    <glyph glyph-name="uni0389.calt" horiz-adv-x="1142" 
d="M-70 0l312 1434h399l-115 -529h242l115 529h399l-311 -1434h-400l117 537h-242l-116 -537h-400z" />
    <glyph glyph-name="uni038A.calt" horiz-adv-x="509" 
d="M-66 0l312 1434h399l-311 -1434h-400z" />
    <glyph glyph-name="uni038C.calt" horiz-adv-x="1179" 
d="M721 1464q107 0 194 -33t153 -99t102 -173.5t36 -247.5q0 -195 -71.5 -415t-210.5 -359q-78 -78 -180.5 -123t-215.5 -45q-107 0 -194 33t-153 99t-102 173.5t-36 247.5q0 123 27.5 257.5t94.5 278.5t163 240q78 78 178.5 122t214.5 44zM553 330q47 0 90 43
q72 72 119 242.5t47 302.5q0 186 -113 186q-47 0 -90 -43q-72 -72 -119 -243t-47 -302q0 -186 113 -186z" />
    <glyph glyph-name="uni038E.calt" horiz-adv-x="1062" 
d="M203 0l112 516l-155 918h405l41 -476l244 476h430l-569 -936l-109 -498h-399z" />
    <glyph glyph-name="uni038F.calt" horiz-adv-x="1218" 
d="M715 1102q-60 0 -111 -47q-61 -56 -94 -189.5t-33 -271.5q0 -62 11 -135.5t28 -116.5l-74 -342h-520l76 354l205 -2q-105 215 -105 410q0 162 48.5 301t140.5 231q170 170 467 170q245 0 372 -123t127 -331q0 -354 -311 -658l207 2l-78 -354h-534l73 340
q100 152 163 313.5t63 288.5q0 81 -33.5 120.5t-87.5 39.5z" />
    <glyph glyph-name="uni0399.calt" horiz-adv-x="509" 
d="M-66 0l312 1434h399l-311 -1434h-400zM135 1489l55 254h293l-55 -254h-293zM489 1489l56 254h295l-58 -254h-293z" />
    <glyph glyph-name="uni03A5.calt" horiz-adv-x="1062" 
d="M203 0l112 516l-155 918h405l41 -476l244 476h430l-569 -936l-109 -498h-399zM399 1489l56 254h293l-56 -254h-293zM754 1489l55 254h295l-57 -254h-293z" />
    <glyph glyph-name="uni0431.srb" horiz-adv-x="995" 
d="M444 -27q-211 0 -322.5 112t-111.5 302q0 141 43 275.5t131 222.5q100 100 262 135l-75 92q-50 63 -69 100t-19 76q0 86 59.5 136.5t179.5 50.5h555l-69 -318l-320 8q-22 0 -22 -14q0 -13 24 -37l74 -80q113 -126 160 -218.5t47 -211.5q0 -128 -45 -266.5t-133 -226.5
q-138 -138 -349 -138zM446 287q32 0 58 26q43 43 72.5 148.5t29.5 187.5q0 111 -67 111q-31 0 -58 -27q-43 -43 -72.5 -148.5t-29.5 -187.5q0 -110 67 -110z" />
    <glyph glyph-name="three.alt" horiz-adv-x="933" 
d="M362 -27q-118 0 -232 38.5t-206 109.5l172 313q136 -102 256 -102q62 0 97.5 32.5t35.5 84.5q0 48 -46.5 83t-153.5 39h-43l67 312h49q240 0 240 127q0 43 -32 67.5t-93 24.5q-98 0 -223 -64l-100 312q198 110 415 110q204 0 322.5 -101t118.5 -259q0 -147 -84.5 -244.5
t-227.5 -144.5q90 -44 137.5 -112t47.5 -173q0 -202 -142.5 -327.5t-374.5 -125.5z" />
    <glyph glyph-name="registered.alt" horiz-adv-x="1230" 
d="M750 1464q218 0 346.5 -149t128.5 -414q0 -127 -23.5 -255t-87.5 -268.5t-162 -238.5q-83 -83 -179.5 -126.5t-223.5 -43.5q-219 0 -347 148.5t-128 414.5q0 128 23.5 255.5t87 268t161.5 238.5q83 83 180 126.5t224 43.5zM555 45q108 0 188 34.5t154 108.5
q88 88 146 220t80 253t22 238q0 230 -105.5 360t-296.5 130q-107 0 -187.5 -35t-154.5 -109q-87 -87 -145.5 -219.5t-80 -253t-21.5 -237.5q0 -230 105 -360t296 -130zM575 559l-53 -250h-231l182 840h207q179 0 258 -76q59 -59 59 -164q0 -141 -88 -229q-42 -42 -90 -59
l72 -312h-246l-49 250h-21zM614 737h27q51 0 80 29q41 41 41 108q0 37 -21 58q-18 18 -53 18h-29z" />
    <glyph glyph-name="hcoslug" horiz-adv-x="1421" 
d="M506 37h53q3 45 -39 45q-19 0 -30 -11.5t-11 -31.5q3 -41 43 -41q31 0 37 29h-14q-3 -15 -19 -15q-20 0 -20 25zM520 72q15 0 15 -25h-29q0 25 14 25zM399 160q-16 0 -16 33q0 30 16 30q17 0 17 -30q0 -33 -17 -33zM430 8q-16 0 -16 33q0 31 16 31t16 -31q0 -33 -16 -33z
M430 -2q19 0 31 12t12 31t-12 30t-31 11t-31 -11t-12 -30q0 -20 12 -31.5t31 -11.5zM1118 8q-16 0 -16 33q0 31 16 31q17 0 17 -31q0 -33 -17 -33zM1118 -2q19 0 31 12t12 31t-12 30t-31 11t-31 -11t-12 -30q0 -20 12 -31.5t31 -11.5zM256 166v-14h61v14h-20v33h8
q9 0 12 -17h15v47h-15q-3 -16 -12 -16h-8v37h25q10 0 13.5 -4.5t8.5 -22.5h16v41h-104v-14h14v-84h-14zM399 150q19 0 31 12t12 31q0 18 -12 29t-31 11t-31 -11t-12 -29q0 -20 12 -31.5t31 -11.5zM1319 1434v-1639h-1217v1639h1217zM1020 -2q46 0 49 47h-16q-3 -33 -29 -33
q-33 0 -33 45t29 45q23 0 31 -32h16v45h-16l-2 -13q-15 15 -33 15q-24 0 -39.5 -16.5t-15.5 -45.5q0 -57 59 -57zM762 164q-17 0 -17 26q0 27 17 27q14 0 14 -27q0 -26 -14 -26zM565 14v-14h47v14h-10v52h29v-52h-10v-14h47v14h-13v107l-20 -4q-12 4 -19 4q-38 0 -38 -39v-2
h-15v-14h15v-52h-13zM754 14v-14h53v14h-16v33q9 19 14 19v-3q0 -12 12 -12q14 0 14 15q0 16 -16 16q-14 0 -24 -23v21h-37v-14h12v-52h-12zM721 256v-106h12l8 16q10 -16 29 -16q17 0 25 13.5t8 29.5q0 40 -31 40q-21 0 -27 -18v55h-36v-14h12zM819 154q-14 0 -14 -15
q0 -18 22 -18q26 0 37 33l27 63h10v14h-35v-14h11l-17 -41l-18 41h12v14h-51v-14h10q5 -16 12 -27l21 -40q-3 -17 -17 -17q5 5 2.5 13t-12.5 8zM506 877q0 26 15 42.5t40 16.5q26 0 43 -21.5t17 -56.5q0 -46 -37 -102l-10 10q-26 26 -37.5 38.5t-21 32t-9.5 40.5zM618 180
v-28h15l2 8q10 -10 27 -10q28 0 28 26q0 19 -24.5 25t-24.5 12q0 8 10 8q13 0 21 -14h14v26h-12l-4 -10q-7 10 -23 10q-29 0 -29 -24q0 -19 25 -26t25 -13q0 -8 -11 -8q-12 0 -24 18h-15zM535 449q-47 0 -77 31t-30 79q0 49 33 82q62 -56 151 -168q-30 -24 -77 -24zM586 254
l-25 -4v-19h-14v-14h14v-41q0 -26 25 -26q22 0 28 26l-10 4q-3 -14 -10 -14q-8 0 -8 10v41h26v14h-26v23zM877 627q30 -52 88 -52q43 0 72.5 32t29.5 79t-29.5 77t-72.5 30q-69 0 -123 -78q-9 79 -101 76q19 32 19 69q0 60 -52.5 106t-142.5 46q-99 0 -161 -51.5t-62 -122.5
q0 -42 15 -73.5t49 -68.5q-168 -58 -168 -186q0 -81 65 -136t158 -55q129 0 213 93q50 -53 88 -73t86 -20q68 0 114 52t50 141l-15 4q-20 -30 -39 -44.5t-49 -14.5t-59 19.5t-68 64.5q42 55 95 86zM449 166v-14h45v14h-9v31q0 20 15 20q12 0 12 -14v-37h-8v-14h45v14h-12v39
q0 28 -25 28q-20 0 -29 -22v20h-34v-14h12v-51h-12zM950 68h-37v-15h13q-2 -7 -13 -18l-24 26q22 9 22 25q0 25 -28 25q-17 0 -26 -8t-9 -21t12 -25q-26 -9 -26 -30q0 -29 36 -29q19 0 31 12q9 -12 25 -12q20 0 26 25l-10 2q-4 -11 -8 -11q-5 0 -12 11q10 11 18 28h10v15z
M879 12q-21 0 -21 21q0 10 8 18q19 -19 29 -33q-9 -6 -16 -6zM602 80v6q0 25 12 25q5 0 7 -2q-3 -3 -3 -9q0 -10 13 -10v-10h-29zM870 88q0 10 11 10q12 0 12 -12q0 -11 -10 -18q-13 13 -13 20zM639 700q57 38 86 70q23 -23 29 -49t-2 -52.5t-29 -62.5q-68 78 -84 94z
M696 37h54q3 45 -39 45q-17 0 -29 -12t-12 -31q0 -41 43 -41q27 0 37 29h-15q-3 -15 -18 -15q-21 0 -21 25zM711 72q14 0 14 -25h-29q0 25 15 25zM254 14v-14h59v14h-16v37h45v-37h-16v-14h59v14h-16v84h16v15h-59v-15h16v-32h-45v32h16v15h-59v-15h16v-84h-16zM1180 27
q-15 0 -15 -15q0 -14 15 -14q14 0 14 14q0 15 -14 15z" />
    <glyph glyph-name="caron.alt" horiz-adv-x="1024" 
d="M532 1167l91 351h233l-2 -2l-180 -349h-142z" />
    <glyph glyph-name="descendercyrillic" horiz-adv-x="1024" 
d="M219 -236l103 390h317l-76 -390h-344z" />
    <glyph glyph-name="descendercyrillic.cap" horiz-adv-x="1024" 
d="M205 -262l114 444h332l-90 -444h-356z" />
    <glyph glyph-name="straightdescendercyrillic" horiz-adv-x="1024" 
d="M274 346h367l-127 -582h-350l53 236h-18z" />
    <glyph glyph-name="straightdescendercyrillic.cap" horiz-adv-x="1024" 
d="M279 371h374l-139 -633h-362l57 262h-12z" />
    <glyph glyph-name="acute.cap" horiz-adv-x="1024" 
d="M467 1489l201 260l385 -78l-301 -182h-285z" />
    <glyph glyph-name="hungarumlaut.cap" horiz-adv-x="1024" 
d="M692 1489l99 129l-191 -129h-246l195 260l293 -61l47 61l332 -72l-283 -188h-246z" />
    <glyph glyph-name="grave.cap" horiz-adv-x="1024" 
d="M672 1489l-219 182l397 78l84 -260h-262z" />
    <glyph glyph-name="circumflex.cap" horiz-adv-x="1024" 
d="M383 1489l231 240h310l127 -240h-220l-90 78l-125 -78h-233z" />
    <glyph glyph-name="caron.cap" horiz-adv-x="1024" 
d="M1104 1729l-232 -240h-309l-127 240h219l90 -78l123 78h236z" />
    <glyph glyph-name="breve.cap" horiz-adv-x="1024" 
d="M721 1485q-136 0 -206.5 60.5t-53.5 183.5h203q6 -64 92 -64q75 0 114 64h211q-82 -244 -360 -244z" />
    <glyph glyph-name="tilde.cap" horiz-adv-x="1024" 
d="M537 1477l-168 32q71 275 233 275q53 0 154 -37q85 -31 114 -31q30 0 48 17t36 57l168 -33q-71 -274 -233 -274q-53 0 -154 37q-82 30 -114 30q-30 0 -48 -16.5t-36 -56.5z" />
    <glyph glyph-name="macron.cap" horiz-adv-x="1024" 
d="M391 1497l53 229h654l-51 -229h-656z" />
    <glyph glyph-name="dieresis.cap" horiz-adv-x="1024" 
d="M393 1489l56 254h292l-55 -254h-293zM748 1489l55 254h295l-58 -254h-292z" />
    <glyph glyph-name="dotaccent.cap" horiz-adv-x="1024" 
d="M561 1489l57 254h310l-56 -254h-311z" />
    <glyph glyph-name="ring.cap" horiz-adv-x="1024" 
d="M793 1944q98 0 163.5 -56t65.5 -145q0 -106 -79 -181t-200 -75q-95 0 -162 58t-67 143q0 106 79 181t200 75zM756 1602q60 0 97.5 38.5t37.5 88.5q0 47 -30 73.5t-81 26.5q-60 0 -97.5 -38.5t-37.5 -88.5q0 -47 30 -73.5t81 -26.5z" />
    <glyph glyph-name="uni0384.cap" horiz-adv-x="1024" 
d="M467 1071l96 363h318l-215 -363h-199z" />
    <glyph glyph-name="commaaccent.rot" horiz-adv-x="1024" 
d="M885 1618l-6 -105q-143 -21 -166 -98h135l-55 -244h-297l45 203q28 121 115.5 177t228.5 67z" />
    </font>
</defs>
</svg>
