<?xml version="1.0" standalone="no"?>
<!DOCTYPE svg PUBLIC "-//W3C//DTD SVG 1.1//EN" "http://www.w3.org/Graphics/SVG/1.1/DTD/svg11.dtd" >
<svg xmlns="http://www.w3.org/2000/svg" xmlns:xlink="http://www.w3.org/1999/xlink" version="1.1">
<metadata>
Created by FontForge 20201107 at Wed May 29 09:57:38 2024
 By 
Copyright (C) 2001, 2011 Hoefler &#38; Co. http://www.typography.com |DCNT
</metadata>
<defs>
<font id="GothamNarrow-XLightItalic" horiz-adv-x="1028" >
  <font-face 
    font-family="Gotham Narrow ExtraLight"
    font-weight="275"
    font-style="italic"
    font-stretch="semi-condensed"
    units-per-em="2048"
    panose-1="0 0 0 0 0 0 0 0 0 0"
    ascent="1638"
    descent="-410"
    x-height="1047"
    cap-height="1434"
    bbox="-231 -410 2087 1956"
    underline-thickness="102"
    underline-position="-204"
    slope="-13"
    unicode-range="U+0020-FB04"
  />
<missing-glyph 
d="M2 -410v2048h1024v-2048h-1024zM104 -156l353 770l-353 770v-1540zM147 -307h734l-367 799zM514 737l367 799h-734zM924 -156v1540l-353 -770z" />
    <glyph glyph-name="f_f" unicode="ff" horiz-adv-x="1204" 
d="M84 0l240 987h-140l15 60h139l39 151q38 147 104 213q68 68 181 68q93 0 155 -35l-16 -60q-65 35 -142 35q-79 0 -134 -49.5t-83 -167.5l-39 -155h310l-17 -60h-307l-242 -987h-63zM684 0l240 987h-140l15 60h139l39 151q38 147 104 213q68 68 181 68q93 0 155 -35
l-16 -60q-65 35 -141 35q-80 0 -135 -49.5t-83 -167.5l-38 -155h309l-17 -60h-307l-241 -987h-64z" />
    <glyph glyph-name="fi" unicode="fi" horiz-adv-x="1017" 
d="M647 0l256 1047h64l-256 -1047h-64zM961 1317l30 127h82l-33 -127h-79zM84 0l240 987h-140l15 60h139l39 151q38 147 104 213q68 68 181 68q93 0 155 -35l-16 -60q-65 35 -142 35q-79 0 -134 -49.5t-83 -167.5l-39 -155h310l-17 -60h-307l-242 -987h-63z" />
    <glyph glyph-name="fl" unicode="fl" horiz-adv-x="1017" 
d="M647 0l363 1479h63l-362 -1479h-64zM84 0l240 987h-140l15 60h139l39 151q38 147 104 213q68 68 181 68q93 0 155 -35l-16 -60q-65 35 -142 35q-79 0 -134 -49.5t-83 -167.5l-39 -155h310l-17 -60h-307l-242 -987h-63z" />
    <glyph glyph-name="f_f_i" unicode="ffi" horiz-adv-x="1619" 
d="M1251 0l256 1047h64l-256 -1047h-64zM1565 1317l30 127h82l-32 -127h-80zM84 0l240 987h-140l15 60h139l39 151q38 147 104 213q68 68 181 68q93 0 155 -35l-16 -60q-65 35 -142 35q-79 0 -134 -49.5t-83 -167.5l-39 -155h310l-17 -60h-307l-242 -987h-63zM684 0l240 987
h-140l15 60h139l39 151q38 147 104 213q68 68 181 68q93 0 155 -35l-16 -60q-65 35 -141 35q-80 0 -135 -49.5t-83 -167.5l-38 -155h309l-17 -60h-307l-241 -987h-64z" />
    <glyph glyph-name="f_f_l" unicode="ffl" horiz-adv-x="1619" 
d="M1251 0l363 1479h63l-362 -1479h-64zM84 0l240 987h-140l15 60h139l39 151q38 147 104 213q68 68 181 68q93 0 155 -35l-16 -60q-65 35 -142 35q-79 0 -134 -49.5t-83 -167.5l-39 -155h310l-17 -60h-307l-242 -987h-63zM684 0l240 987h-140l15 60h139l39 151
q38 147 104 213q68 68 181 68q93 0 155 -35l-16 -60q-65 35 -141 35q-80 0 -135 -49.5t-83 -167.5l-38 -155h309l-17 -60h-307l-241 -987h-64z" />
    <glyph glyph-name=".notdef" 
d="M2 -410v2048h1024v-2048h-1024zM104 -156l353 770l-353 770v-1540zM147 -307h734l-367 799zM514 737l367 799h-734zM924 -156v1540l-353 -770z" />
    <glyph glyph-name=".null" horiz-adv-x="0" 
 />
    <glyph glyph-name="nonmarkingreturn" horiz-adv-x="682" 
 />
    <glyph glyph-name="space" unicode=" " horiz-adv-x="471" 
 />
    <glyph glyph-name="exclam" unicode="!" horiz-adv-x="409" 
d="M152 375l196 882l43 177h74l-45 -177l-234 -882h-34zM31 0l32 133h93l-31 -133h-94z" />
    <glyph glyph-name="quotedbl" unicode="&#x22;" horiz-adv-x="624" 
d="M190 922l168 512h78v-11l-211 -501h-35zM467 922l168 512h80l-2 -11l-209 -501h-37z" />
    <glyph glyph-name="numbersign" unicode="#" horiz-adv-x="1181" 
d="M164 0l121 399h-209l12 60h215l158 522h-228l15 61h231l117 392h61l-118 -392h393l119 392h59l-117 -392h207l-12 -61h-213l-158 -522h227l-14 -60h-231l-121 -399h-60l121 399h-395l-119 -399h-61zM365 459h393l157 522h-395z" />
    <glyph glyph-name="dollar" unicode="$" horiz-adv-x="1087" 
d="M768 1559h59l-34 -136q174 -33 305 -168l-45 -45q-123 127 -277 158l-149 -612q162 -83 235.5 -166.5t73.5 -206.5q0 -72 -29.5 -140.5t-83.5 -124t-140.5 -89t-190.5 -33.5q-9 0 -26.5 1t-25.5 1l-49 -199h-59l51 205q-233 40 -373 219l49 43q130 -168 342 -203l158 654
q-157 77 -233 158.5t-76 197.5q0 148 116.5 255.5t309.5 107.5q36 0 59 -2zM866 385q0 97 -59.5 167t-196.5 138l-155 -635h45h2q89 0 160 29t114.5 76.5t66.5 105t23 119.5zM319 1075q0 -96 61.5 -162.5t197.5 -132.5l143 596q-16 2 -49 2h-2q-159 0 -255 -90.5t-96 -212.5
z" />
    <glyph glyph-name="percent" unicode="%" horiz-adv-x="1472" 
d="M117 0l643 731l616 703h74l-645 -732l-615 -702h-73zM430 725q-109 0 -175.5 78t-66.5 205q0 97 38 191.5t100 156.5q92 92 209 92q109 0 175 -77t66 -204q0 -98 -36.5 -192t-98.5 -156q-94 -94 -211 -94zM434 784q88 0 158 70q55 56 87 138.5t32 172.5q0 102 -48 164
t-133 62q-88 0 -157 -72q-56 -54 -88.5 -137.5t-32.5 -171.5q0 -104 48.5 -165t133.5 -61zM1030 -14q-106 0 -172.5 76.5t-66.5 203.5q0 98 36.5 192t98.5 156q98 95 211 95q106 0 172.5 -78t66.5 -205q0 -98 -36.5 -192t-98.5 -156q-92 -92 -211 -92zM1036 43q89 0 158 72
q54 54 86.5 138t32.5 171q0 104 -48.5 164.5t-134.5 60.5q-82 0 -157 -69q-55 -56 -87 -139t-32 -173q0 -101 48.5 -163t133.5 -62z" />
    <glyph glyph-name="ampersand" unicode="&#x26;" horiz-adv-x="1216" 
d="M1090 670l55 -27q-115 -223 -234 -375l156 -256l-51 -32l-148 239q-111 -117 -220 -177t-238 -60q-155 0 -255 93.5t-100 246.5q0 94 34.5 172t99.5 137.5t144.5 103t182.5 80.5q-100 169 -100 303q0 145 95.5 241.5t238.5 96.5q126 0 203 -75.5t77 -188.5
q0 -137 -107.5 -236.5t-320.5 -173.5l277 -465q106 137 211 353zM414 43q215 0 424 225l-293 496q-203 -71 -312.5 -175t-109.5 -259q0 -132 81 -209.5t210 -77.5zM483 1120q0 -125 90 -289q193 65 291.5 151.5t98.5 205.5q0 92 -59.5 150.5t-158.5 58.5q-114 0 -188 -80
t-74 -197z" />
    <glyph glyph-name="quotesingle" unicode="'" horiz-adv-x="346" 
d="M190 922l168 512h78v-11l-211 -501h-35z" />
    <glyph glyph-name="parenleft" unicode="(" horiz-adv-x="716" 
d="M500 -229l-37 -39q-313 284 -313 692q0 223 84 423t239 357q168 165 401 260l23 -51q-220 -89 -375 -244q-148 -148 -226.5 -341t-78.5 -404q0 -381 283 -653z" />
    <glyph glyph-name="parenright" unicode=")" horiz-adv-x="716" 
d="M254 1419l37 39q313 -295 313 -692q0 -223 -84 -423t-239 -357q-168 -165 -402 -260l-22 51q220 89 374 243q148 148 227 341.5t79 404.5q0 381 -283 653z" />
    <glyph glyph-name="asterisk" unicode="*" horiz-adv-x="780" 
d="M494 850l-58 14l78 256l-240 -86l-18 58l252 57l-197 172l43 43l174 -190l50 262l57 -15l-78 -254l242 86l18 -57l-252 -59l195 -170l-45 -45l-170 190z" />
    <glyph glyph-name="plus" unicode="+" horiz-adv-x="1071" 
d="M444 293l101 397h-385l12 62h387l98 397h66l-102 -397h387l-15 -62h-387l-98 -397h-64z" />
    <glyph glyph-name="comma" unicode="," horiz-adv-x="346" 
d="M-59 -176l-13 37q50 17 75 49.5t36 89.5h-41l33 133h94l-29 -123q-23 -86 -57 -125.5t-98 -60.5z" />
    <glyph glyph-name="hyphen" unicode="-" horiz-adv-x="722" 
d="M135 575l19 66h471l-17 -66h-473z" />
    <glyph glyph-name="period" unicode="." horiz-adv-x="346" 
d="M-2 0l33 133h94l-33 -133h-94z" />
    <glyph glyph-name="slash" unicode="/" horiz-adv-x="858" 
d="M-195 -242l1252 1856h69l-1253 -1856h-68z" />
    <glyph glyph-name="zero" unicode="0" horiz-adv-x="1232" 
d="M788 1456q189 0 291.5 -132t102.5 -359q0 -220 -78.5 -456t-216.5 -374q-158 -158 -350 -158q-189 0 -291.5 132.5t-102.5 359.5q0 217 80.5 455t216.5 374q155 158 348 158zM541 39q164 0 293 135q127 127 202.5 354t75.5 437q0 198 -83 314t-243 116q-163 0 -292 -135
q-126 -126 -203.5 -354t-77.5 -437q0 -198 83.5 -314t244.5 -116z" />
    <glyph glyph-name="one" unicode="1" horiz-adv-x="575" 
d="M166 0l334 1360l-258 -103v68l288 117h56l-353 -1442h-67z" />
    <glyph glyph-name="two" unicode="2" horiz-adv-x="1003" 
d="M-43 0l10 47l719 672q136 128 192 221.5t56 192.5q0 113 -78.5 184.5t-214.5 71.5q-188 0 -350 -183l-47 43q173 203 401 203q163 0 261 -90.5t98 -224.5q0 -118 -63.5 -219t-209.5 -242l-657 -613h737l-16 -63h-838z" />
    <glyph glyph-name="three" unicode="3" horiz-adv-x="1003" 
d="M389 -20q-275 0 -409 219l53 37q123 -193 360 -193q178 0 297 110.5t119 276.5q0 62 -22 112.5t-58.5 83.5t-87.5 55.5t-105.5 33t-115.5 12.5h-27l-8 39l592 604h-678l16 64h770l-12 -50l-592 -606q187 -18 292.5 -107t105.5 -241q0 -87 -33 -167t-94 -140
q-143 -143 -363 -143z" />
    <glyph glyph-name="four" unicode="4" horiz-adv-x="1099" 
d="M647 0l88 356h-694l-4 50l964 1038h62l-250 -1028h197l-15 -60h-196l-88 -356h-64zM125 416h623l221 911z" />
    <glyph glyph-name="five" unicode="5" horiz-adv-x="1030" 
d="M416 -20q-135 0 -239 57.5t-165 150.5l54 39q123 -188 354 -188q93 0 174 36.5t136 98t86.5 142t31.5 167.5q0 152 -89 231t-235 79q-133 0 -276 -70l-39 31l203 680h647l-17 -64h-587l-170 -569q116 53 243 53q175 0 282.5 -96t107.5 -275q0 -102 -38 -196t-106 -162
q-145 -145 -358 -145z" />
    <glyph glyph-name="six" unicode="6" horiz-adv-x="1105" 
d="M528 -23q-166 0 -272 109q-119 119 -119 342q0 227 82.5 473.5t224.5 392.5q162 162 365 162q193 0 336 -156l-47 -47q-123 140 -293 140t-313 -140q-208 -208 -271 -620q59 111 165 180.5t241 69.5q177 0 280 -105t103 -268q0 -110 -40 -216.5t-116 -182.5
q-134 -134 -326 -134zM535 39q152 0 270 111q65 65 101 162t36 194q0 142 -85 228.5t-236 86.5q-171 0 -287 -119v-2q-63 -59 -94 -141.5t-31 -169.5q0 -162 94 -262q91 -88 232 -88z" />
    <glyph glyph-name="seven" unicode="7" horiz-adv-x="962" 
d="M100 0l875 1370h-715l16 64h791l-10 -52l-883 -1382h-74z" />
    <glyph glyph-name="eight" unicode="8" horiz-adv-x="1095" 
d="M502 -18q-194 0 -314 100t-120 256t110 272.5t289 145.5q-93 39 -146 117.5t-53 181.5q0 77 32 149t88.5 127t138.5 88t175 33q166 0 274.5 -92t108.5 -242q0 -146 -96 -254t-250 -137q108 -43 174 -130.5t66 -201.5q0 -171 -133 -292t-344 -121zM506 43q183 0 294 102.5
t111 253.5q0 132 -100 223t-260 91q-180 0 -298 -110.5t-118 -258.5q0 -135 102 -218t269 -83zM641 764q163 0 271 103t108 247q0 123 -90 201t-230 78q-161 0 -262.5 -101t-101.5 -241q0 -118 85 -202.5t220 -84.5z" />
    <glyph glyph-name="nine" unicode="9" horiz-adv-x="1103" 
d="M389 -23q-205 0 -348 170l47 46q130 -152 305 -152q173 0 312 139q205 200 270 611q-56 -111 -164 -182.5t-244 -71.5q-176 0 -278.5 106.5t-102.5 274.5q0 113 41 220t117 183q135 135 326 135q167 0 272 -108q119 -119 119 -342q0 -231 -81 -476.5t-226 -390.5
q-162 -162 -365 -162zM575 598q169 0 285 119v2q129 129 129 323q0 167 -94 265q-91 88 -229 88q-160 0 -271 -111q-66 -68 -102.5 -165.5t-36.5 -198.5q0 -146 83.5 -234t235.5 -88z" />
    <glyph glyph-name="colon" unicode=":" horiz-adv-x="366" 
d="M10 0l31 133h94l-33 -133h-92zM229 903l33 131h92l-30 -131h-95z" />
    <glyph glyph-name="semicolon" unicode=";" horiz-adv-x="366" 
d="M-49 -176l-12 37q50 17 74.5 49.5t35.5 89.5h-41l33 133h94l-29 -123q-23 -86 -57 -125.5t-98 -60.5zM229 903l33 131h92l-30 -131h-95z" />
    <glyph glyph-name="less" unicode="&#x3c;" horiz-adv-x="1075" 
d="M854 268l-700 430l12 45l911 431l-16 -76l-819 -383l626 -381z" />
    <glyph glyph-name="equal" unicode="=" horiz-adv-x="1071" 
d="M137 483l15 64h774l-15 -64h-774zM240 895l16 63h774l-16 -63h-774z" />
    <glyph glyph-name="greater" unicode="&#x3e;" horiz-adv-x="1075" 
d="M92 268l19 76l817 383l-627 381l18 66l699 -431l-12 -45z" />
    <glyph glyph-name="question" unicode="?" horiz-adv-x="913" 
d="M338 375l65 336l9 10q138 20 241.5 68t166.5 131.5t63 193.5q0 126 -84 199t-217 73q-182 0 -344 -147l-39 49q177 162 387 162q164 0 264 -94.5t100 -239.5q0 -92 -38 -169.5t-105.5 -132t-153 -91t-188.5 -55.5l-88 -293h-39zM221 0l33 133h94l-33 -133h-94z" />
    <glyph glyph-name="at" unicode="@" horiz-adv-x="1757" 
d="M819 -311q-321 0 -511.5 192.5t-190.5 519.5q0 208 74 402.5t197.5 337.5t292 229t349.5 86q153 0 278.5 -52.5t207 -142.5t126 -209t44.5 -253q0 -111 -23 -213t-62 -178.5t-89 -134t-106 -87.5t-110 -30q-103 0 -148.5 66t-37.5 163q-60 -101 -148 -166t-194 -65
q-122 0 -194 81.5t-72 217.5q0 134 59 263t162.5 213.5t220.5 84.5q116 0 183.5 -69t80.5 -173l60 207l61 -16l-139 -463q-25 -98 -25 -146q0 -69 34 -108t104 -39q58 0 117 44.5t107 120.5t78.5 188.5t30.5 236.5q0 125 -41 235.5t-116.5 194.5t-192 133t-258.5 49
q-172 0 -331.5 -84t-275 -221.5t-184.5 -322t-69 -378.5q0 -302 177 -484.5t474 -182.5q219 0 410 104l22 -43q-199 -108 -432 -108zM780 215q75 0 148 46t125.5 116.5t85 155.5t32.5 161q0 116 -58 187t-169 71q-98 0 -185.5 -76t-137.5 -190.5t-50 -228.5t54 -178t155 -64
z" />
    <glyph glyph-name="A" unicode="A" horiz-adv-x="1327" 
d="M-53 0l917 1444h66l209 -1444h-68l-57 418h-727l-264 -418h-76zM326 479h678l-123 875z" />
    <glyph glyph-name="B" unicode="B" horiz-adv-x="1249" 
d="M57 0l351 1434h395q187 0 297 -87t110 -231q0 -87 -32.5 -158.5t-88 -118.5t-121.5 -76t-139 -40q129 -30 201 -105.5t72 -193.5q0 -192 -151.5 -308t-413.5 -116h-480zM139 61h402q238 0 365.5 99t127.5 264q0 126 -100 197t-272 71h-367zM309 756h353q225 0 353 96
t128 256q0 126 -92 195t-254 69h-338z" />
    <glyph glyph-name="C" unicode="C" horiz-adv-x="1232" 
d="M639 -23q-100 0 -187 37t-152 105t-102.5 171.5t-37.5 229.5q0 201 74 400t208 333q203 203 455 203q145 0 248 -64t164 -175l-58 -35q-125 213 -356 213q-223 0 -401 -178q-123 -128 -195 -315t-72 -382q0 -221 117 -351t301 -130q116 0 207 44t180 126l43 -47
q-196 -185 -436 -185z" />
    <glyph glyph-name="D" unicode="D" horiz-adv-x="1329" 
d="M57 0l351 1434h241q302 0 469 -162q146 -146 146 -406q0 -171 -62.5 -342.5t-181.5 -290.5q-233 -233 -610 -233h-353zM1067 1227q-145 145 -416 145h-192l-320 -1311h279q338 0 553 215q106 106 164.5 267.5t58.5 320.5q0 236 -127 363z" />
    <glyph glyph-name="E" unicode="E" horiz-adv-x="1128" 
d="M57 0l351 1434h835l-14 -62h-768l-152 -618h695l-15 -64h-694l-156 -629h779l-17 -61h-844z" />
    <glyph glyph-name="F" unicode="F" horiz-adv-x="1091" 
d="M57 0l351 1434h825l-16 -62h-758l-154 -637h684l-14 -61h-684l-166 -674h-68z" />
    <glyph glyph-name="G" unicode="G" horiz-adv-x="1343" 
d="M682 -23q-234 0 -376 156t-142 414q0 193 72.5 379t201.5 315q209 215 494 215q261 0 418 -205l-54 -39q-138 183 -368 183q-245 0 -441 -193q-118 -118 -187 -295t-69 -358q0 -234 123 -372t332 -138q187 0 338 98l133 525h-409l16 65h475l-160 -629
q-188 -121 -397 -121z" />
    <glyph glyph-name="H" unicode="H" horiz-adv-x="1325" 
d="M57 0l351 1434h67l-166 -680h819l166 680h70l-350 -1434h-70l168 690h-819l-168 -690h-68z" />
    <glyph glyph-name="I" unicode="I" horiz-adv-x="462" 
d="M72 0l350 1434h67l-350 -1434h-67z" />
    <glyph glyph-name="J" unicode="J" horiz-adv-x="894" 
d="M295 -18q-121 0 -203 66t-119 179l60 23q74 -207 264 -207q119 0 205 86q80 77 127 264l252 1041h67l-256 -1053q-47 -197 -145 -295q-101 -104 -252 -104z" />
    <glyph glyph-name="K" unicode="K" horiz-adv-x="1220" 
d="M57 0l351 1434h67l-229 -926l1009 926h93l-686 -625l362 -809h-74l-342 762l-385 -350l-98 -412h-68z" />
    <glyph glyph-name="L" unicode="L" horiz-adv-x="1009" 
d="M57 0l351 1434h67l-336 -1373h709l-14 -61h-777z" />
    <glyph glyph-name="M" unicode="M" horiz-adv-x="1513" 
d="M57 0l351 1434h61l293 -869l717 869h73l-350 -1434h-65l317 1307l-715 -867h-6l-291 867l-319 -1307h-66z" />
    <glyph glyph-name="N" unicode="N" horiz-adv-x="1368" 
d="M57 0l351 1434h63l549 -1313l323 1313h64l-350 -1434h-56l-555 1327l-323 -1327h-66z" />
    <glyph glyph-name="O" unicode="O" horiz-adv-x="1439" 
d="M877 1456q224 0 360.5 -156.5t136.5 -410.5q0 -196 -74.5 -394t-203.5 -327q-198 -191 -437 -191q-223 0 -359 156.5t-136 409.5q0 196 73.5 395.5t202.5 325.5q192 192 437 192zM662 39q215 0 385 170q120 120 190 307.5t70 372.5q0 225 -120.5 365.5t-312.5 140.5
q-213 0 -385 -172q-120 -120 -189 -307.5t-69 -370.5q0 -227 118.5 -366.5t312.5 -139.5z" />
    <glyph glyph-name="P" unicode="P" horiz-adv-x="1163" 
d="M57 0l351 1434h335q244 0 361 -117q94 -94 94 -256q0 -205 -135 -340q-172 -172 -502 -172h-301l-135 -549h-68zM1051 1274q-94 98 -312 98h-280l-185 -762h291q297 0 447 150q118 118 118 301q0 137 -79 213z" />
    <glyph glyph-name="Q" unicode="Q" horiz-adv-x="1443" 
d="M877 1456q224 0 360.5 -156.5t136.5 -410.5q0 -194 -75.5 -395t-202.5 -324l-11 -10l127 -152l-47 -41l-125 152q-171 -142 -381 -142q-223 0 -359 156.5t-136 409.5q0 196 73.5 394t202.5 327q192 192 437 192zM662 39q185 0 337 127l-211 258l52 41l207 -256
q120 120 190 309t70 371q0 225 -120.5 365.5t-312.5 140.5q-213 0 -385 -172q-120 -120 -189 -307.5t-69 -370.5q0 -227 118.5 -366.5t312.5 -139.5z" />
    <glyph glyph-name="R" unicode="R" horiz-adv-x="1251" 
d="M942 0l-268 608q-23 -2 -68 -2h-334l-147 -606h-68l351 1434h387q236 0 348 -115q92 -92 92 -240q0 -188 -123 -311t-369 -156l275 -612h-76zM289 666h338q297 0 434 137q106 106 106 272q0 126 -71 197q-100 100 -310 100h-325z" />
    <glyph glyph-name="S" unicode="S" horiz-adv-x="1101" 
d="M508 -18q-153 0 -276 68.5t-207 185.5l53 40q174 -233 436 -233q159 0 262 94.5t103 220.5q0 57 -18.5 104t-62 89.5t-86.5 74t-120 79.5q-79 48 -130 85.5t-96 83.5t-66 98t-21 113q0 140 102 242q125 125 321 125q128 0 237.5 -57t184.5 -146l-51 -45
q-71 84 -167.5 135.5t-207.5 51.5q-157 0 -254.5 -90t-97.5 -211q0 -51 19 -95t61 -85t88 -73.5t119 -76.5q79 -47 132 -86.5t97 -87.5t65 -102.5t21 -118.5q0 -149 -110 -259q-127 -124 -330 -124z" />
    <glyph glyph-name="T" unicode="T" horiz-adv-x="1019" 
d="M342 0l334 1372h-424l16 62h918l-17 -62h-424l-335 -1372h-68z" />
    <glyph glyph-name="U" unicode="U" horiz-adv-x="1318" 
d="M588 -20q-197 0 -313.5 104t-116.5 291q0 110 30 225l201 834h68l-207 -852q-27 -108 -27 -201q0 -163 99 -251.5t272 -88.5q184 0 313 129q125 128 185 369l215 895h67l-219 -910q-64 -254 -199 -395q-155 -149 -368 -149z" />
    <glyph glyph-name="V" unicode="V" horiz-adv-x="1251" 
d="M459 -10l-174 1444h67l158 -1346l815 1346h76l-883 -1444h-59z" />
    <glyph glyph-name="W" unicode="W" horiz-adv-x="1873" 
d="M371 -10l-76 1444h67l64 -1330l696 1334h56l59 -1334l702 1330h74l-772 -1444h-57l-62 1317l-694 -1317h-57z" />
    <glyph glyph-name="X" unicode="X" horiz-adv-x="1179" 
d="M-47 0l647 739l-305 695h72l280 -650l572 650h81l-622 -707l317 -727h-71l-295 682l-596 -682h-80z" />
    <glyph glyph-name="Y" unicode="Y" horiz-adv-x="1155" 
d="M408 0l147 602l-301 832h70l278 -772l655 772h86l-722 -844l-144 -590h-69z" />
    <glyph glyph-name="Z" unicode="Z" horiz-adv-x="1140" 
d="M-27 0l11 41l1155 1331h-807l16 62h899l-8 -43l-1159 -1330h838l-15 -61h-930z" />
    <glyph glyph-name="bracketleft" unicode="[" horiz-adv-x="745" 
d="M18 -266l414 1700h457l-15 -52h-391l-389 -1597h391l-12 -51h-455z" />
    <glyph glyph-name="backslash" unicode="\" horiz-adv-x="839" 
d="M629 -242l-342 1856h57l344 -1856h-59z" />
    <glyph glyph-name="bracketright" unicode="]" horiz-adv-x="745" 
d="M756 1434l-414 -1700h-457l15 51h391l389 1597h-391l12 52h455z" />
    <glyph glyph-name="asciicircum" unicode="^" horiz-adv-x="899" 
d="M283 1036l360 391h49l168 -391h-55l-148 324l-311 -324h-63z" />
    <glyph glyph-name="underscore" unicode="_" horiz-adv-x="1089" 
d="M-209 -313l14 57h1096l-14 -57h-1096z" />
    <glyph glyph-name="grave" unicode="`" 
d="M754 1204l-154 211l76 37l119 -248h-41z" />
    <glyph glyph-name="a" unicode="a" horiz-adv-x="1003" 
d="M328 -20q-121 0 -206 74t-85 204q0 164 106 270q111 111 312 111q181 0 348 -61l12 51q19 93 19 137q0 112 -75.5 172.5t-211.5 60.5q-132 0 -254 -51l-17 60q127 53 275 53q161 0 253.5 -75t92.5 -214q0 -57 -23 -151l-149 -621h-63l49 201q-62 -99 -159 -160t-224 -61z
M340 37q149 0 265.5 104t154.5 258l31 123q-165 60 -342 60q-163 0 -256 -93q-89 -86 -89 -225q0 -107 67 -167t169 -60z" />
    <glyph glyph-name="b" unicode="b" horiz-adv-x="1140" 
d="M528 -20q-63 0 -118 18.5t-94.5 49t-69.5 72t-48 84.5t-26 89l-72 -293h-63l362 1479h64l-164 -666q37 62 90.5 116t137.5 96t173 42q154 0 251.5 -114t97.5 -294q0 -154 -55 -299.5t-154 -244.5q-141 -135 -312 -135zM526 39q150 0 267 117q86 89 137 224.5t51 272.5
q0 155 -80 255t-209 100q-158 0 -289 -131q-90 -87 -142 -216t-52 -258q0 -156 87 -260t230 -104z" />
    <glyph glyph-name="c" unicode="c" horiz-adv-x="946" 
d="M461 -20q-160 0 -269.5 112t-109.5 305q0 148 54 284.5t151 233.5q152 152 338 152q113 0 195 -54t130 -134l-51 -37q-48 76 -113 120t-165 44q-159 0 -285 -129q-84 -85 -135 -215t-51 -261q0 -170 91.5 -265t223.5 -95q141 0 276 115l39 -45q-145 -131 -319 -131z" />
    <glyph glyph-name="d" unicode="d" horiz-adv-x="1138" 
d="M784 0l58 233q-36 -61 -91 -115.5t-139.5 -96t-173.5 -41.5q-155 0 -250.5 113t-95.5 294q0 151 55 298.5t152 244.5q137 137 313 137q80 0 145 -28t106 -75t66 -100t36 -112l180 727h63l-360 -1479h-64zM449 39q157 0 286 129q90 87 142.5 216.5t52.5 258.5
q0 157 -86 261t-230 104q-149 0 -266 -117q-88 -88 -138 -223.5t-50 -274.5q0 -157 79.5 -255.5t209.5 -98.5z" />
    <glyph glyph-name="e" unicode="e" 
d="M915 500h-757q-6 -52 -6 -103q0 -168 88 -262t239 -94q160 0 301 111l35 -50q-158 -122 -336 -122t-285.5 111t-107.5 302q0 149 56 290.5t153 238.5q142 145 321 145q109 0 185 -51t110.5 -133.5t34.5 -188.5q0 -96 -31 -194zM342 887q-121 -121 -172 -328h694
q17 80 17 133q0 137 -67.5 226.5t-199.5 89.5q-148 0 -272 -121z" />
    <glyph glyph-name="f" unicode="f" horiz-adv-x="602" 
d="M84 0l240 987h-140l15 60h139l39 151q38 147 104 213q68 68 181 68q93 0 155 -35l-16 -60q-65 35 -142 35q-79 0 -134 -49.5t-83 -167.5l-39 -155h310l-17 -60h-307l-242 -987h-63z" />
    <glyph glyph-name="g" unicode="g" horiz-adv-x="1134" 
d="M393 -309q-107 0 -216.5 39t-188.5 106l39 51q74 -63 172 -99t198 -36q180 0 285 105q80 77 127 264l45 182q-169 -235 -399 -235q-151 0 -253 105t-102 273q0 136 50.5 263t140.5 217q141 141 325 141q78 0 141.5 -27t105 -72.5t66.5 -96t36 -105.5l69 281h64l-228 -934
q-26 -108 -58.5 -177t-84.5 -118q-127 -127 -334 -127zM465 127q166 0 299 133q74 74 120 184.5t46 217.5q0 89 -36.5 167t-110 128.5t-169.5 50.5q-153 0 -274 -121q-80 -80 -126 -196.5t-46 -239.5q0 -145 84 -234.5t213 -89.5z" />
    <glyph glyph-name="h" unicode="h" horiz-adv-x="1077" 
d="M37 0l362 1479h64l-160 -648q59 104 153.5 170t217.5 66q136 0 214.5 -77.5t78.5 -215.5q0 -72 -27 -186l-141 -588h-64l142 590q24 95 24 180q0 114 -62.5 176t-179.5 62q-134 0 -251 -108t-156 -279l-152 -621h-63z" />
    <glyph glyph-name="i" unicode="i" horiz-adv-x="417" 
d="M49 0l256 1047h64l-256 -1047h-64zM362 1317l31 127h82l-33 -127h-80z" />
    <glyph glyph-name="j" unicode="j" horiz-adv-x="417" 
d="M-137 -315q-48 0 -94 16l14 59q46 -16 78 -16q62 0 102.5 39.5t63.5 124.5l278 1139h64l-281 -1153q-49 -209 -225 -209zM362 1317l31 127h82l-31 -127h-82z" />
    <glyph glyph-name="k" unicode="k" horiz-adv-x="954" 
d="M37 0l362 1479h64l-270 -1102l720 670h86l-493 -453l256 -594h-70l-235 547l-285 -258l-72 -289h-63z" />
    <glyph glyph-name="l" unicode="l" horiz-adv-x="417" 
d="M49 0l363 1479h63l-362 -1479h-64z" />
    <glyph glyph-name="m" unicode="m" horiz-adv-x="1669" 
d="M37 0l254 1047h63l-51 -216q140 236 342 236q118 0 189 -70t77 -192q65 117 162.5 189.5t216.5 72.5q123 0 199 -77t76 -210q0 -65 -31 -192l-141 -588h-64l144 590q24 113 24 186q0 110 -58.5 171t-162.5 61q-123 0 -231.5 -110.5t-149.5 -276.5l-147 -621h-66l143 590
q27 115 27 186q0 110 -58.5 171t-162.5 61q-124 0 -231.5 -111.5t-149.5 -278.5l-150 -618h-63z" />
    <glyph glyph-name="n" unicode="n" horiz-adv-x="1077" 
d="M37 0l254 1047h63l-51 -216q59 104 153.5 170t217.5 66q136 0 214.5 -77.5t78.5 -215.5q0 -72 -27 -186l-141 -588h-64l142 590q24 95 24 180q0 114 -62.5 176t-179.5 62q-134 0 -251 -108t-156 -279l-152 -621h-63z" />
    <glyph glyph-name="o" unicode="o" horiz-adv-x="1097" 
d="M627 1067q172 0 278.5 -117.5t106.5 -306.5q0 -148 -53 -283.5t-150 -232.5q-147 -147 -340 -147q-172 0 -278.5 117t-106.5 306q0 144 54 282t151 235q147 147 338 147zM473 39q160 0 287 127q85 85 134.5 213t49.5 260q0 167 -87 268t-234 101q-164 0 -287 -129
q-86 -86 -135 -212.5t-49 -260.5q0 -167 87 -267t234 -100z" />
    <glyph glyph-name="p" unicode="p" horiz-adv-x="1140" 
d="M528 -20q-63 0 -118 18.5t-94.5 49t-69.5 72t-48 84.5t-26 89l-145 -600h-64l328 1354h63l-55 -234q37 62 90.5 116t137.5 96t173 42q154 0 251.5 -114t97.5 -294q0 -154 -55 -299.5t-154 -244.5q-141 -135 -312 -135zM526 39q150 0 267 117q86 89 137 224.5t51 272.5
q0 155 -80 255t-209 100q-158 0 -289 -131q-90 -87 -142 -216t-52 -258q0 -156 87 -260t230 -104z" />
    <glyph glyph-name="q" unicode="q" horiz-adv-x="1140" 
d="M438 -20q-155 0 -250.5 113t-95.5 294q0 151 55 298.5t152 244.5q137 137 313 137q80 0 145 -28t106 -75t66 -100t36 -112l73 295h64l-330 -1354h-63l133 540q-36 -61 -91 -115.5t-139.5 -96t-173.5 -41.5zM449 39q157 0 286 129q90 87 142.5 216.5t52.5 258.5
q0 157 -86 261t-230 104q-149 0 -266 -117q-88 -88 -138 -223.5t-50 -274.5q0 -157 79.5 -255.5t209.5 -98.5z" />
    <glyph glyph-name="r" unicode="r" horiz-adv-x="643" 
d="M37 0l254 1047h63l-63 -265q82 133 197 209t241 72l-16 -68h-4q-145 0 -284 -120.5t-187 -309.5l-138 -565h-63z" />
    <glyph glyph-name="s" unicode="s" horiz-adv-x="856" 
d="M365 -16q-104 0 -201 48.5t-166 131.5l49 45q146 -166 324 -166q108 0 182 65t74 152q0 71 -47.5 124t-163.5 122q-128 74 -184 137t-56 152q0 112 89.5 190t230.5 78q90 0 175 -43t148 -113l-49 -45q-129 142 -278 142q-111 0 -179.5 -61t-68.5 -144q0 -68 47.5 -120.5
t165.5 -119.5q124 -72 179.5 -138.5t55.5 -156.5q0 -115 -93.5 -197.5t-233.5 -82.5z" />
    <glyph glyph-name="t" unicode="t" horiz-adv-x="665" 
d="M334 -14q-94 0 -147.5 44t-53.5 128q0 34 17 104l174 725h-138l15 60h137l82 331h63l-80 -331h304l-15 -60h-305l-176 -731q-12 -50 -12 -90q0 -121 147 -121q52 0 125 29l-14 -66q-61 -22 -123 -22z" />
    <glyph glyph-name="u" unicode="u" horiz-adv-x="1075" 
d="M401 -20q-136 0 -214 76t-78 216q0 77 26 187l144 588h63l-143 -590q-25 -113 -25 -181q0 -116 62 -177.5t180 -61.5q137 0 250 106t157 281l152 623h63l-254 -1047h-65l53 215q-59 -104 -153.5 -169.5t-217.5 -65.5z" />
    <glyph glyph-name="v" unicode="v" horiz-adv-x="987" 
d="M328 -8l-142 1055h68l119 -963l588 963h73l-653 -1055h-53z" />
    <glyph glyph-name="w" unicode="w" horiz-adv-x="1462" 
d="M260 -8l-61 1055h63l47 -949l512 951h53l48 -951l505 949h70l-571 -1055h-58l-47 938l-508 -938h-53z" />
    <glyph glyph-name="x" unicode="x" horiz-adv-x="952" 
d="M285 1047l202 -461l426 461h80l-479 -515l238 -532h-68l-215 487l-449 -487h-77l501 539l-227 508h68z" />
    <glyph glyph-name="y" unicode="y" horiz-adv-x="1005" 
d="M346 6l-164 1041h68l145 -965l580 965h74l-639 -1047q-114 -183 -194.5 -248t-170.5 -65q-103 0 -174 59l37 51q64 -51 141 -51q66 0 134.5 56t162.5 204z" />
    <glyph glyph-name="z" unicode="z" horiz-adv-x="882" 
d="M-47 0l6 39l862 950h-612l14 58h701l-6 -39l-863 -951h639l-14 -57h-727z" />
    <glyph glyph-name="braceleft" unicode="{" horiz-adv-x="806" 
d="M535 -238l-17 -47q-148 36 -215 111.5t-67 189.5q0 40 9 84t17.5 70.5t30.5 91.5q43 100 43 166q0 59 -45.5 96t-143.5 37h-45l15 53h45q139 0 215 76q54 54 75.5 131.5t28.5 188.5q7 110 31.5 191t85.5 142q111 111 338 119v-53q-200 -9 -287 -102q-54 -54 -74.5 -127
t-29.5 -185q-10 -111 -32.5 -191t-80.5 -138q-62 -65 -174 -80q143 -37 143 -162q0 -58 -43 -168q-57 -147 -57 -236q0 -100 54.5 -161.5t179.5 -96.5z" />
    <glyph glyph-name="bar" unicode="|" horiz-adv-x="514" 
d="M41 -242l457 1856h57l-457 -1856h-57z" />
    <glyph glyph-name="braceright" unicode="}" horiz-adv-x="806" 
d="M303 1415l16 47q283 -68 283 -301q0 -40 -9 -84t-17.5 -70.5t-30.5 -91.5q-43 -100 -43 -165q0 -59 45 -96.5t143 -37.5h45l-14 -53h-45q-73 0 -123.5 -17.5t-91.5 -58.5q-54 -54 -76 -132t-29 -187q-7 -111 -31 -192t-85 -142q-111 -111 -338 -119v54q199 9 286 102
q54 54 75 127t30 184q10 111 32.5 191.5t80.5 138.5q62 65 174 80q-144 38 -144 162q0 58 43 168q58 150 58 235q0 100 -54.5 161.5t-179.5 96.5z" />
    <glyph glyph-name="asciitilde" unicode="~" horiz-adv-x="821" 
d="M205 516l-43 16q36 88 74.5 128t91.5 40q33 0 59 -16t59 -49q24 -24 35.5 -34.5t27.5 -19t32 -8.5q55 0 114 123l45 -16q-36 -88 -74 -128t-91 -40q-32 0 -58 16.5t-61 51.5q-32 32 -52 45.5t-42 13.5q-30 0 -57.5 -30t-59.5 -93z" />
    <glyph glyph-name="uni00A0" unicode="&#xa0;" horiz-adv-x="0" 
 />
    <glyph glyph-name="exclamdown" unicode="&#xa1;" horiz-adv-x="409" 
d="M352 1059l-196 -883l-43 -176h-74l45 176l233 883h35zM473 1434l-33 -134h-92l31 134h94z" />
    <glyph glyph-name="cent" unicode="&#xa2;" horiz-adv-x="968" 
d="M786 1444h62l-64 -189q153 -41 238 -178l-51 -37q-82 126 -209 156l-313 -950q31 -8 81 -8q156 0 283 114l39 -45q-142 -129 -328 -129q-53 0 -92 10l-67 -200h-62l76 217q-109 42 -173.5 144.5t-64.5 246.5q0 148 52.5 287t148.5 235q150 150 340 150q17 0 45 -4z
M209 598q0 -127 50.5 -212.5t139.5 -123.5l310 942q-6 2 -29 2q-162 0 -289 -127q-86 -86 -134 -216t-48 -265z" />
    <glyph glyph-name="sterling" unicode="&#xa3;" horiz-adv-x="1056" 
d="M-16 0l8 35l162 26l143 592h-160l17 62h159l72 303q60 223 156 319q113 113 270 113q112 0 194 -54.5t128 -142.5l-56 -32q-92 168 -270 168q-124 0 -215 -91q-91 -88 -141 -297l-72 -286h508l-17 -62h-505l-144 -592h643l-14 -61h-866z" />
    <glyph glyph-name="yen" unicode="&#xa5;" horiz-adv-x="1191" 
d="M428 0l66 266h-357l15 58h356l61 251h-356l16 58h332l-282 801h71l273 -779l649 779h84l-676 -801h328l-15 -58h-358l-62 -251h357l-15 -58h-356l-63 -266h-68z" />
    <glyph glyph-name="section" unicode="&#xa7;" horiz-adv-x="1095" 
d="M1032 686q0 -110 -94 -178t-256 -68q-31 0 -49 2q88 -51 129 -104t41 -119q0 -101 -86.5 -169t-224.5 -68q-111 0 -210 39.5t-169 103.5l41 49q147 -133 342 -133q108 0 173.5 49.5t65.5 124.5t-63.5 129.5t-206.5 118.5q-159 71 -232 135t-73 150q0 110 94 177.5
t254 67.5q33 0 51 -2q-170 95 -170 223q0 102 86 170t225 68q111 0 210 -39.5t169 -103.5l-41 -49q-147 133 -344 133q-108 0 -172.5 -49.5t-64.5 -124.5t63.5 -129.5t206.5 -118.5q159 -71 232 -135t73 -150zM227 754q0 -62 45.5 -109.5t151.5 -97.5q127 -58 260 -58
q128 0 204.5 53t76.5 138q0 62 -45.5 109.5t-151.5 97.5q-124 57 -260 57q-128 0 -204.5 -52.5t-76.5 -137.5z" />
    <glyph glyph-name="dieresis" unicode="&#xa8;" 
d="M508 1227l29 116h92l-31 -116h-90zM762 1227l29 116h90l-29 -116h-90z" />
    <glyph glyph-name="copyright" unicode="&#xa9;" horiz-adv-x="1501" 
d="M750 328q-114 0 -186 77t-72 213q0 107 40.5 215.5t110.5 178.5q100 106 240 106q75 0 133 -35t92 -94l-47 -33q-64 109 -180 109q-109 0 -195 -86q-62 -62 -98.5 -160t-36.5 -198q0 -114 55.5 -177t147.5 -63q57 0 103 24t95 68l35 -41q-115 -104 -237 -104zM1460 838
q0 -180 -66 -356t-188 -298q-209 -209 -491 -209q-177 0 -310.5 82.5t-202.5 222.5t-69 316q0 178 66.5 353t187.5 300q209 209 492 209q177 0 310 -82.5t202 -222t69 -315.5zM180 590q0 -116 35.5 -219t102 -182t170 -125t231.5 -46q256 0 452 193q117 117 179.5 287.5
t62.5 345.5q0 116 -35 218.5t-101 181.5t-169.5 125t-230.5 46q-263 0 -455 -192q-118 -118 -180 -287.5t-62 -345.5z" />
    <glyph glyph-name="ordfeminine" unicode="&#xaa;" horiz-adv-x="724" 
d="M389 838q-65 0 -110.5 40.5t-45.5 110.5q0 92 64.5 154.5t167.5 62.5q77 0 184 -35l6 25q11 50 11 74q0 57 -40 88t-112 31q-56 0 -141 -29l-13 47q97 33 160 33q93 0 146 -43t53 -121q0 -29 -10 -84l-84 -342h-54l25 104q-87 -116 -207 -116zM401 885q78 0 141.5 54.5
t84.5 135.5l12 55q-95 31 -174 31q-83 0 -129.5 -48.5t-46.5 -119.5q0 -52 31.5 -80t80.5 -28zM143 645l11 49h444l-12 -49h-443z" />
    <glyph glyph-name="guillemotleft" unicode="&#xab;" horiz-adv-x="884" 
d="M285 92l-209 424l2 12l416 422l43 -35l-385 -401l182 -397zM621 92l-209 424l2 12l413 422l43 -35l-383 -401l183 -397z" />
    <glyph glyph-name="registered" unicode="&#xae;" horiz-adv-x="784" 
d="M573 1458q131 0 209 -85t78 -212q0 -90 -33 -176.5t-94 -146.5q-100 -103 -244 -103q-129 0 -206.5 85t-77.5 212q0 90 33 176.5t94 147.5q99 102 241 102zM494 766q123 0 215 92q58 58 88 138t30 163q0 113 -67.5 190.5t-188.5 77.5q-123 0 -215 -92q-58 -58 -87 -138.5
t-29 -164.5q0 -112 67.5 -189t186.5 -77zM451 1059l-35 -141h-41l90 368h98q62 0 94.5 -27t32.5 -75q0 -44 -27 -77t-81 -44l55 -145h-43l-55 141h-88zM461 1098h67q73 0 99 26q22 22 22 60q0 65 -88 65h-65z" />
    <glyph glyph-name="macron" unicode="&#xaf;" 
d="M446 1247l15 60h491l-14 -60h-492z" />
    <glyph glyph-name="degree" unicode="&#xb0;" horiz-adv-x="722" 
d="M514 1446q97 0 158 -66.5t61 -175.5q0 -172 -108 -280q-94 -84 -197 -84q-99 0 -161 66t-62 175q0 79 28.5 152.5t81.5 126.5q86 86 199 86zM432 895q84 0 150 66q42 42 68 107.5t26 133.5q0 86 -46.5 137.5t-121.5 51.5q-86 0 -150 -64q-43 -43 -68.5 -109t-25.5 -135
q0 -86 46.5 -137t121.5 -51z" />
    <glyph glyph-name="plusminus" unicode="&#xb1;" horiz-adv-x="1071" 
d="M463 354l94 379h-379l12 62h379l95 374h63l-94 -374h381l-15 -62h-378l-97 -379h-61zM12 68l15 59h819l-12 -59h-822z" />
    <glyph glyph-name="acute" unicode="&#xb4;" 
d="M535 1204l225 248l74 -37l-244 -211h-55z" />
    <glyph glyph-name="mu" unicode="&#xb5;" horiz-adv-x="1165" 
d="M455 -23q-128 0 -207.5 71.5t-93.5 195.5h-2q-37 -185 -62 -285l-65 -266h-64l330 1354h63l-141 -588q-20 -73 -20 -146q0 -129 70.5 -201.5t195.5 -72.5q135 0 233 87t139 249l162 672h64l-191 -793q-16 -66 -16 -109q0 -52 26 -74t78 -22q44 0 78 10l-14 -61
q-42 -10 -74 -10q-78 0 -119 39.5t-41 111.5q0 19 2 29q-120 -191 -331 -191z" />
    <glyph glyph-name="paragraph" unicode="&#xb6;" horiz-adv-x="862" 
d="M483 0l133 547q-224 9 -329 117q-99 99 -99 258q0 211 140 348q164 164 469 164h104l-350 -1434h-68z" />
    <glyph glyph-name="periodcentered" unicode="&#xb7;" horiz-adv-x="346" 
d="M127 530l33 134h94l-33 -134h-94z" />
    <glyph glyph-name="cedilla" unicode="&#xb8;" 
d="M258 -268l-63 32l221 252h51z" />
    <glyph glyph-name="ordmasculine" unicode="&#xba;" horiz-adv-x="727" 
d="M145 645l11 49h483l-12 -49h-482zM303 1079q0 -86 45 -139t119 -53q86 0 151 65q42 44 67.5 112t25.5 136q0 86 -45.5 139.5t-120.5 53.5q-84 0 -150 -66q-42 -44 -67 -112t-25 -136zM768 1202q0 -80 -28 -153.5t-81 -126.5q-86 -86 -196 -86q-97 0 -157 66.5t-60 174.5
q0 80 27.5 154t80.5 127q86 86 195 86q98 0 158.5 -66.5t60.5 -175.5z" />
    <glyph glyph-name="guillemotright" unicode="&#xbb;" horiz-adv-x="884" 
d="M598 948l209 -424l-2 -12l-416 -422l-43 35l385 401l-182 398zM262 948l209 -424l-2 -12l-414 -422l-43 35l383 401l-182 398z" />
    <glyph glyph-name="questiondown" unicode="&#xbf;" horiz-adv-x="913" 
d="M670 1059l-66 -336l-8 -10q-211 -31 -341 -132t-130 -262q0 -126 84 -199t217 -73q181 0 344 148l39 -50q-176 -161 -387 -161q-165 0 -265 94t-100 239q0 92 38 169.5t105 132.5t153.5 91.5t189.5 55.5l88 293h39zM786 1434l-32 -134h-95l33 134h94z" />
    <glyph glyph-name="Agrave" unicode="&#xc0;" horiz-adv-x="1327" 
d="M-53 0l917 1444h66l209 -1444h-68l-57 418h-727l-264 -418h-76zM326 479h678l-123 875zM881 1563l-162 178l72 37l135 -215h-45z" />
    <glyph glyph-name="Aacute" unicode="&#xc1;" horiz-adv-x="1327" 
d="M-53 0l917 1444h66l209 -1444h-68l-57 418h-727l-264 -418h-76zM326 479h678l-123 875zM887 1563l227 215l72 -37l-240 -178h-59z" />
    <glyph glyph-name="Acircumflex" unicode="&#xc2;" horiz-adv-x="1327" 
d="M-53 0l917 1444h66l209 -1444h-68l-57 418h-727l-264 -418h-76zM326 479h678l-123 875zM694 1559l242 204h57l142 -204h-60l-121 141l-192 -141h-68z" />
    <glyph glyph-name="Atilde" unicode="&#xc3;" horiz-adv-x="1327" 
d="M-53 0l917 1444h66l209 -1444h-68l-57 418h-727l-264 -418h-76zM326 479h678l-123 875zM717 1569l-43 10q65 152 164 152q41 0 120 -48q65 -45 103 -45q31 0 57.5 23t55.5 76l45 -13q-70 -149 -164 -149q-43 0 -119 49q-64 39 -87 43q-7 2 -15 2q-32 0 -59 -23t-58 -77z
" />
    <glyph glyph-name="Adieresis" unicode="&#xc4;" horiz-adv-x="1327" 
d="M-53 0l917 1444h66l209 -1444h-68l-57 418h-727l-264 -418h-76zM326 479h678l-123 875zM748 1585l28 117h96l-28 -117h-96zM1020 1585l29 117h96l-29 -117h-96z" />
    <glyph glyph-name="Aring" unicode="&#xc5;" horiz-adv-x="1327" 
d="M-53 0l878 1380q-49 17 -75.5 55t-26.5 89q0 80 65 135t152 55q78 0 126 -43t48 -110q0 -72 -50 -124.5t-124 -64.5l199 -1372h-68l-57 418h-727l-264 -418h-76zM326 479h678l-123 875zM905 1413q63 0 110.5 41.5t47.5 101.5q0 51 -34.5 83t-94.5 32q-63 0 -110.5 -41.5
t-47.5 -103.5q0 -51 34.5 -82t94.5 -31z" />
    <glyph glyph-name="AE" unicode="&#xc6;" horiz-adv-x="1775" 
d="M-96 0l1093 1434h893l-16 -62h-750l-151 -618h678l-15 -64h-678l-153 -629h758l-15 -61h-825l100 418h-522l-317 -418h-80zM348 479h490l219 893h-31z" />
    <glyph glyph-name="Ccedilla" unicode="&#xc7;" horiz-adv-x="1232" 
d="M432 -268l-63 32l192 220q-177 26 -289 168.5t-112 367.5q0 201 74 400t208 333q203 203 455 203q145 0 248 -64t164 -175l-58 -35q-125 213 -356 213q-223 0 -401 -178q-123 -128 -195 -315t-72 -382q0 -221 117 -351t301 -130q116 0 207 44t180 126l43 -47
q-196 -185 -436 -185h-27z" />
    <glyph glyph-name="Egrave" unicode="&#xc8;" horiz-adv-x="1128" 
d="M799 1550l-162 179l72 36l135 -215h-45zM57 0l351 1434h835l-14 -62h-768l-152 -618h695l-15 -64h-694l-156 -629h779l-17 -61h-844z" />
    <glyph glyph-name="Eacute" unicode="&#xc9;" horiz-adv-x="1128" 
d="M799 1550l227 215l72 -36l-240 -179h-59zM57 0l351 1434h835l-14 -62h-768l-152 -618h695l-15 -64h-694l-156 -629h779l-17 -61h-844z" />
    <glyph glyph-name="Ecircumflex" unicode="&#xca;" horiz-adv-x="1128" 
d="M57 0l351 1434h835l-14 -62h-768l-152 -618h695l-15 -64h-694l-156 -629h779l-17 -61h-844zM608 1552l242 205h57l142 -205h-60l-121 142l-192 -142h-68z" />
    <glyph glyph-name="Edieresis" unicode="&#xcb;" horiz-adv-x="1128" 
d="M659 1573l29 117h96l-28 -117h-97zM932 1573l29 117h96l-29 -117h-96zM57 0l351 1434h835l-14 -62h-768l-152 -618h695l-15 -64h-694l-156 -629h779l-17 -61h-844z" />
    <glyph glyph-name="Igrave" unicode="&#xcc;" horiz-adv-x="462" 
d="M72 0l350 1434h67l-350 -1434h-67zM442 1550l-161 179l71 36l135 -215h-45z" />
    <glyph glyph-name="Iacute" unicode="&#xcd;" horiz-adv-x="462" 
d="M72 0l350 1434h67l-350 -1434h-67zM449 1550l227 215l72 -36l-240 -179h-59z" />
    <glyph glyph-name="Icircumflex" unicode="&#xce;" horiz-adv-x="462" 
d="M72 0l350 1434h67l-350 -1434h-67zM256 1552l242 205h57l141 -205h-59l-121 142l-192 -142h-68z" />
    <glyph glyph-name="Idieresis" unicode="&#xcf;" horiz-adv-x="462" 
d="M72 0l350 1434h67l-350 -1434h-67zM309 1573l29 117h96l-28 -117h-97zM582 1573l28 117h97l-29 -117h-96z" />
    <glyph glyph-name="Eth" unicode="&#xd0;" horiz-adv-x="1349" 
d="M109 690l16 62h139l166 682h242q300 0 467 -162q147 -147 147 -406q0 -169 -63 -342t-181 -291q-238 -233 -612 -233h-350l168 690h-139zM1087 1227q-145 145 -413 145h-195l-151 -620h405l-16 -62h-404l-153 -629h280q342 0 551 215q109 109 167.5 268.5t58.5 319.5
q0 233 -130 363z" />
    <glyph glyph-name="Ntilde" unicode="&#xd1;" horiz-adv-x="1368" 
d="M721 1548l-43 11q65 151 164 151q44 0 121 -47q65 -45 102 -45q31 0 57.5 22.5t55.5 75.5l45 -12q-71 -150 -164 -150q-41 0 -119 50q-64 39 -87 43q-7 2 -15 2q-32 0 -59 -23.5t-58 -77.5zM57 0l351 1434h63l549 -1313l323 1313h64l-350 -1434h-56l-555 1327l-323 -1327
h-66z" />
    <glyph glyph-name="Ograve" unicode="&#xd2;" horiz-adv-x="1439" 
d="M913 1563l-161 178l71 37l135 -215h-45zM877 1456q224 0 360.5 -156.5t136.5 -410.5q0 -196 -74.5 -394t-203.5 -327q-198 -191 -437 -191q-223 0 -359 156.5t-136 409.5q0 196 73.5 395.5t202.5 325.5q192 192 437 192zM662 39q215 0 385 170q120 120 190 307.5
t70 372.5q0 225 -120.5 365.5t-312.5 140.5q-213 0 -385 -172q-120 -120 -189 -307.5t-69 -370.5q0 -227 118.5 -366.5t312.5 -139.5z" />
    <glyph glyph-name="Oacute" unicode="&#xd3;" horiz-adv-x="1439" 
d="M918 1563l227 215l72 -37l-240 -178h-59zM877 1456q224 0 360.5 -156.5t136.5 -410.5q0 -196 -74.5 -394t-203.5 -327q-198 -191 -437 -191q-223 0 -359 156.5t-136 409.5q0 196 73.5 395.5t202.5 325.5q192 192 437 192zM662 39q215 0 385 170q120 120 190 307.5
t70 372.5q0 225 -120.5 365.5t-312.5 140.5q-213 0 -385 -172q-120 -120 -189 -307.5t-69 -370.5q0 -227 118.5 -366.5t312.5 -139.5z" />
    <glyph glyph-name="Ocircumflex" unicode="&#xd4;" horiz-adv-x="1439" 
d="M877 1456q224 0 360.5 -156.5t136.5 -410.5q0 -196 -74.5 -394t-203.5 -327q-198 -191 -437 -191q-223 0 -359 156.5t-136 409.5q0 196 73.5 395.5t202.5 325.5q192 192 437 192zM662 39q215 0 385 170q120 120 190 307.5t70 372.5q0 225 -120.5 365.5t-312.5 140.5
q-213 0 -385 -172q-120 -120 -189 -307.5t-69 -370.5q0 -227 118.5 -366.5t312.5 -139.5zM727 1565l242 204h57l141 -204h-59l-121 141l-192 -141h-68z" />
    <glyph glyph-name="Otilde" unicode="&#xd5;" horiz-adv-x="1439" 
d="M748 1569l-43 10q65 152 163 152q42 0 121 -48q65 -45 103 -45q31 0 57 22.5t55 76.5l45 -13q-70 -149 -164 -149q-42 0 -118 49q-29 18 -40 24t-29.5 13.5t-33.5 7.5q-32 0 -58.5 -23t-57.5 -77zM877 1456q224 0 360.5 -156.5t136.5 -410.5q0 -196 -74.5 -394
t-203.5 -327q-198 -191 -437 -191q-223 0 -359 156.5t-136 409.5q0 196 73.5 395.5t202.5 325.5q192 192 437 192zM662 39q215 0 385 170q120 120 190 307.5t70 372.5q0 225 -120.5 365.5t-312.5 140.5q-213 0 -385 -172q-120 -120 -189 -307.5t-69 -370.5
q0 -227 118.5 -366.5t312.5 -139.5z" />
    <glyph glyph-name="Odieresis" unicode="&#xd6;" horiz-adv-x="1439" 
d="M778 1585l29 117h96l-29 -117h-96zM1051 1585l28 117h97l-29 -117h-96zM877 1456q224 0 360.5 -156.5t136.5 -410.5q0 -196 -74.5 -394t-203.5 -327q-198 -191 -437 -191q-223 0 -359 156.5t-136 409.5q0 196 73.5 395.5t202.5 325.5q192 192 437 192zM662 39
q215 0 385 170q120 120 190 307.5t70 372.5q0 225 -120.5 365.5t-312.5 140.5q-213 0 -385 -172q-120 -120 -189 -307.5t-69 -370.5q0 -227 118.5 -366.5t312.5 -139.5z" />
    <glyph glyph-name="multiply" unicode="&#xd7;" horiz-adv-x="1069" 
d="M166 346l-39 45l412 336l-242 330l51 39l238 -332l409 334l37 -47l-409 -334l239 -330l-51 -41l-238 332z" />
    <glyph glyph-name="Oslash" unicode="&#xd8;" horiz-adv-x="1439" 
d="M877 1456q251 0 391 -196l190 186h82l-242 -238q76 -134 76 -319q0 -195 -75 -394t-203 -327q-191 -191 -437 -191q-251 0 -389 193l-192 -182h-82l242 235q-74 133 -74 320q0 194 74 394.5t200 326.5q192 192 439 192zM231 545q0 -156 56 -271l934 938q-58 87 -147 135
t-200 48q-218 0 -385 -172q-119 -116 -188.5 -306t-69.5 -372zM662 39q217 0 387 170q118 121 188 309.5t70 370.5q0 149 -58 268l-932 -938q56 -87 144.5 -133.5t200.5 -46.5z" />
    <glyph glyph-name="Ugrave" unicode="&#xd9;" horiz-adv-x="1318" 
d="M846 1542l-162 178l72 37l135 -215h-45zM588 -20q-197 0 -313.5 104t-116.5 291q0 110 30 225l201 834h68l-207 -852q-27 -108 -27 -201q0 -163 99 -251.5t272 -88.5q184 0 313 129q125 128 185 369l215 895h67l-219 -910q-64 -254 -199 -395q-155 -149 -368 -149z" />
    <glyph glyph-name="Uacute" unicode="&#xda;" horiz-adv-x="1318" 
d="M854 1542l227 215l72 -37l-240 -178h-59zM588 -20q-197 0 -313.5 104t-116.5 291q0 110 30 225l201 834h68l-207 -852q-27 -108 -27 -201q0 -163 99 -251.5t272 -88.5q184 0 313 129q125 128 185 369l215 895h67l-219 -910q-64 -254 -199 -395q-155 -149 -368 -149z" />
    <glyph glyph-name="Ucircumflex" unicode="&#xdb;" horiz-adv-x="1318" 
d="M588 -20q-197 0 -313.5 104t-116.5 291q0 110 30 225l201 834h68l-207 -852q-27 -108 -27 -201q0 -163 99 -251.5t272 -88.5q184 0 313 129q125 128 185 369l215 895h67l-219 -910q-64 -254 -199 -395q-155 -149 -368 -149zM662 1544l241 205h58l141 -205h-60l-120 142
l-193 -142h-67z" />
    <glyph glyph-name="Udieresis" unicode="&#xdc;" horiz-adv-x="1318" 
d="M715 1565l28 116h97l-29 -116h-96zM987 1565l29 116h96l-29 -116h-96zM588 -20q-197 0 -313.5 104t-116.5 291q0 110 30 225l201 834h68l-207 -852q-27 -108 -27 -201q0 -163 99 -251.5t272 -88.5q184 0 313 129q125 128 185 369l215 895h67l-219 -910
q-64 -254 -199 -395q-155 -149 -368 -149z" />
    <glyph glyph-name="Yacute" unicode="&#xdd;" horiz-adv-x="1155" 
d="M408 0l147 602l-301 832h70l278 -772l655 772h86l-722 -844l-144 -590h-69zM762 1542l227 215l72 -37l-240 -178h-59z" />
    <glyph glyph-name="Thorn" unicode="&#xde;" horiz-adv-x="1163" 
d="M57 0l351 1434h65l-63 -265h268q127 0 213.5 -28t146.5 -88q95 -95 95 -256q0 -204 -136 -340q-172 -172 -501 -172h-301l-70 -285h-68zM209 346h289q291 0 448 150q119 119 119 301q0 129 -78 213q-94 98 -311 98h-281z" />
    <glyph glyph-name="germandbls" unicode="&#xdf;" horiz-adv-x="1044" 
d="M348 -4l14 57q232 0 361 101t129 260q0 122 -83.5 197.5t-246.5 111.5l15 53q205 42 315.5 144.5t110.5 263.5q0 108 -66 177t-184 69q-129 0 -221.5 -99.5t-135.5 -279.5l-256 -1051h-63l260 1067q53 205 156 309q113 113 262 113q139 0 227 -85t88 -220
q0 -165 -110 -277t-289 -159q129 -36 209 -118t80 -218q0 -184 -155 -303.5t-417 -112.5z" />
    <glyph glyph-name="agrave" unicode="&#xe0;" horiz-adv-x="1003" 
d="M328 -20q-121 0 -206 74t-85 204q0 164 106 270q111 111 312 111q181 0 348 -61l12 51q19 93 19 137q0 112 -75.5 172.5t-211.5 60.5q-132 0 -254 -51l-17 60q127 53 275 53q161 0 253.5 -75t92.5 -214q0 -57 -23 -151l-149 -621h-63l49 201q-62 -99 -159 -160t-224 -61z
M340 37q149 0 265.5 104t154.5 258l31 123q-165 60 -342 60q-163 0 -256 -93q-89 -86 -89 -225q0 -107 67 -167t169 -60zM610 1206l-153 211l75 37l119 -248h-41z" />
    <glyph glyph-name="aacute" unicode="&#xe1;" horiz-adv-x="1003" 
d="M328 -20q-121 0 -206 74t-85 204q0 164 106 270q111 111 312 111q181 0 348 -61l12 51q19 93 19 137q0 112 -75.5 172.5t-211.5 60.5q-132 0 -254 -51l-17 60q127 53 275 53q161 0 253.5 -75t92.5 -214q0 -57 -23 -151l-149 -621h-63l49 201q-62 -99 -159 -160t-224 -61z
M340 37q149 0 265.5 104t154.5 258l31 123q-165 60 -342 60q-163 0 -256 -93q-89 -86 -89 -225q0 -107 67 -167t169 -60zM602 1206l225 248l74 -37l-244 -211h-55z" />
    <glyph glyph-name="acircumflex" unicode="&#xe2;" horiz-adv-x="1003" 
d="M328 -20q-121 0 -206 74t-85 204q0 164 106 270q111 111 312 111q181 0 348 -61l12 51q19 93 19 137q0 112 -75.5 172.5t-211.5 60.5q-132 0 -254 -51l-17 60q127 53 275 53q161 0 253.5 -75t92.5 -214q0 -57 -23 -151l-149 -621h-63l49 201q-62 -99 -159 -160t-224 -61z
M340 37q149 0 265.5 104t154.5 258l31 123q-165 60 -342 60q-163 0 -256 -93q-89 -86 -89 -225q0 -107 67 -167t169 -60zM432 1210l246 242h47l127 -242h-51l-113 170l-199 -170h-57z" />
    <glyph glyph-name="atilde" unicode="&#xe3;" horiz-adv-x="1003" 
d="M328 -20q-121 0 -206 74t-85 204q0 164 106 270q111 111 312 111q181 0 348 -61l12 51q19 93 19 137q0 112 -75.5 172.5t-211.5 60.5q-132 0 -254 -51l-17 60q127 53 275 53q161 0 253.5 -75t92.5 -214q0 -57 -23 -151l-149 -621h-63l49 201q-62 -99 -159 -160t-224 -61z
M340 37q149 0 265.5 104t154.5 258l31 123q-165 60 -342 60q-163 0 -256 -93q-89 -86 -89 -225q0 -107 67 -167t169 -60zM895 1397l43 -13q-64 -163 -164 -163q-46 0 -119 55q-3 2 -13.5 9.5t-14 9.5t-12 8t-12.5 8t-11.5 5.5t-12 5t-10.5 2.5t-12 1q-32 0 -58 -25.5
t-55 -87.5l-45 13q35 86 74 125t90 39q19 0 40.5 -8.5t36.5 -18t42 -29.5q62 -49 98 -49q31 0 58 26t57 87z" />
    <glyph glyph-name="adieresis" unicode="&#xe4;" horiz-adv-x="1003" 
d="M328 -20q-121 0 -206 74t-85 204q0 164 106 270q111 111 312 111q181 0 348 -61l12 51q19 93 19 137q0 112 -75.5 172.5t-211.5 60.5q-132 0 -254 -51l-17 60q127 53 275 53q161 0 253.5 -75t92.5 -214q0 -57 -23 -151l-149 -621h-63l49 201q-62 -99 -159 -160t-224 -61z
M340 37q149 0 265.5 104t154.5 258l31 123q-165 60 -342 60q-163 0 -256 -93q-89 -86 -89 -225q0 -107 67 -167t169 -60zM481 1229l29 117h92l-31 -117h-90zM735 1229l29 117h90l-29 -117h-90z" />
    <glyph glyph-name="aring" unicode="&#xe5;" horiz-adv-x="1003" 
d="M328 -20q-121 0 -206 74t-85 204q0 164 106 270q111 111 312 111q181 0 348 -61l12 51q19 93 19 137q0 112 -75.5 172.5t-211.5 60.5q-132 0 -254 -51l-17 60q127 53 275 53q161 0 253.5 -75t92.5 -214q0 -57 -23 -151l-149 -621h-63l49 201q-62 -99 -159 -160t-224 -61z
M340 37q149 0 265.5 104t154.5 258l31 123q-165 60 -342 60q-163 0 -256 -93q-89 -86 -89 -225q0 -107 67 -167t169 -60zM881 1407q0 -81 -61 -139t-142 -58q-77 0 -124.5 46.5t-47.5 119.5q0 81 61 139t142 58q77 0 124.5 -46.5t47.5 -119.5zM553 1378q0 -57 34 -92t93 -35
q62 0 108 45.5t46 108.5q0 55 -34 90t-93 35q-62 0 -108 -45.5t-46 -106.5z" />
    <glyph glyph-name="ae" unicode="&#xe6;" horiz-adv-x="1714" 
d="M1169 -20q-142 0 -238.5 70.5t-131.5 199.5q-195 -270 -461 -270q-129 0 -215 74.5t-86 205.5q0 168 106 268q111 111 314 111q179 0 346 -61l12 51q19 93 19 137q0 112 -75.5 172.5t-211.5 60.5q-132 0 -254 -51l-17 60q127 53 275 53q152 0 244 -70t96 -198
q69 121 179 197.5t235 76.5q160 0 243.5 -104.5t83.5 -268.5q0 -91 -28 -194h-758q-6 -53 -6 -103q0 -169 88 -262.5t241 -93.5q158 0 299 111l35 -50q-158 -122 -334 -122zM346 37q249 0 438 285q-11 87 7 198q-170 62 -342 62q-163 0 -256 -93q-89 -86 -89 -223
q0 -107 68 -168t174 -61zM1030 887q-121 -121 -172 -328h694q17 91 17 133q0 138 -66.5 227t-199.5 89q-152 0 -273 -121z" />
    <glyph glyph-name="ccedilla" unicode="&#xe7;" horiz-adv-x="946" 
d="M258 -268l-63 32l194 224q-135 26 -221 132t-86 277q0 148 54 284.5t151 233.5q152 152 338 152q113 0 195 -54t130 -134l-51 -37q-48 76 -113 120t-165 44q-159 0 -285 -129q-84 -85 -135 -215t-51 -261q0 -170 91.5 -265t223.5 -95q141 0 276 115l39 -45
q-145 -131 -319 -131h-21z" />
    <glyph glyph-name="egrave" unicode="&#xe8;" 
d="M915 500h-757q-6 -52 -6 -103q0 -168 88 -262t239 -94q160 0 301 111l35 -50q-158 -122 -336 -122t-285.5 111t-107.5 302q0 149 56 290.5t153 238.5q142 145 321 145q109 0 185 -51t110.5 -133.5t34.5 -188.5q0 -96 -31 -194zM342 887q-121 -121 -172 -328h694
q17 80 17 133q0 137 -67.5 226.5t-199.5 89.5q-148 0 -272 -121zM647 1206l-153 211l75 37l119 -248h-41z" />
    <glyph glyph-name="eacute" unicode="&#xe9;" 
d="M641 1206l225 248l74 -37l-244 -211h-55zM915 500h-757q-6 -52 -6 -103q0 -168 88 -262t239 -94q160 0 301 111l35 -50q-158 -122 -336 -122t-285.5 111t-107.5 302q0 149 56 290.5t153 238.5q142 145 321 145q109 0 185 -51t110.5 -133.5t34.5 -188.5q0 -96 -31 -194z
M342 887q-121 -121 -172 -328h694q17 80 17 133q0 137 -67.5 226.5t-199.5 89.5q-148 0 -272 -121z" />
    <glyph glyph-name="ecircumflex" unicode="&#xea;" 
d="M471 1210l246 242h47l127 -242h-51l-113 170l-199 -170h-57zM915 500h-757q-6 -52 -6 -103q0 -168 88 -262t239 -94q160 0 301 111l35 -50q-158 -122 -336 -122t-285.5 111t-107.5 302q0 149 56 290.5t153 238.5q142 145 321 145q109 0 185 -51t110.5 -133.5t34.5 -188.5
q0 -96 -31 -194zM342 887q-121 -121 -172 -328h694q17 80 17 133q0 137 -67.5 226.5t-199.5 89.5q-148 0 -272 -121z" />
    <glyph glyph-name="edieresis" unicode="&#xeb;" 
d="M514 1229l29 117h92l-31 -117h-90zM768 1229l29 117h90l-29 -117h-90zM915 500h-757q-6 -52 -6 -103q0 -168 88 -262t239 -94q160 0 301 111l35 -50q-158 -122 -336 -122t-285.5 111t-107.5 302q0 149 56 290.5t153 238.5q142 145 321 145q109 0 185 -51t110.5 -133.5
t34.5 -188.5q0 -96 -31 -194zM342 887q-121 -121 -172 -328h694q17 80 17 133q0 137 -67.5 226.5t-199.5 89.5q-148 0 -272 -121z" />
    <glyph glyph-name="igrave" unicode="&#xec;" horiz-adv-x="417" 
d="M51 0l252 1047h66l-254 -1047h-64zM342 1204l-154 211l76 37l119 -248h-41z" />
    <glyph glyph-name="iacute" unicode="&#xed;" horiz-adv-x="417" 
d="M342 1204l225 248l74 -37l-244 -211h-55zM51 0l252 1047h66l-254 -1047h-64z" />
    <glyph glyph-name="icircumflex" unicode="&#xee;" horiz-adv-x="417" 
d="M164 1208l246 242h47l127 -242h-52l-112 170l-199 -170h-57zM51 0l252 1047h66l-254 -1047h-64z" />
    <glyph glyph-name="idieresis" unicode="&#xef;" horiz-adv-x="417" 
d="M215 1227l29 116h92l-31 -116h-90zM469 1227l29 116h90l-29 -116h-90zM51 0l252 1047h66l-254 -1047h-64z" />
    <glyph glyph-name="eth" unicode="&#xf0;" horiz-adv-x="1083" 
d="M479 1186l-22 51l250 113q-47 64 -99 129h78l76 -103l207 94l22 -49l-198 -92q211 -322 211 -635q0 -364 -209 -573q-141 -141 -330 -141q-175 0 -276 116t-101 307q0 147 53.5 289t145.5 230q141 141 319 141q222 0 332 -219q-44 224 -201 461zM469 39q164 0 283 125
q84 84 133 211.5t49 261.5q0 160 -90.5 262t-237.5 102q-154 0 -270 -116q-84 -84 -133 -212.5t-49 -264.5q0 -168 84 -268.5t231 -100.5z" />
    <glyph glyph-name="ntilde" unicode="&#xf1;" horiz-adv-x="1077" 
d="M37 0l254 1047h63l-51 -216q59 104 153.5 170t217.5 66q136 0 214.5 -77.5t78.5 -215.5q0 -72 -27 -186l-141 -588h-64l142 590q24 95 24 180q0 114 -62.5 176t-179.5 62q-134 0 -251 -108t-156 -279l-152 -621h-63zM942 1397l43 -13q-64 -163 -164 -163q-46 0 -119 55
q-3 2 -13.5 9.5t-14 9.5t-12 8t-12.5 8t-11.5 5.5t-12 5t-10.5 2.5t-12 1q-31 0 -57 -25.5t-55 -87.5l-46 13q35 86 74 125t90 39q19 0 40.5 -8.5t36.5 -18t42 -29.5q62 -49 98 -49q31 0 58 26t57 87z" />
    <glyph glyph-name="ograve" unicode="&#xf2;" horiz-adv-x="1097" 
d="M627 1067q172 0 278.5 -117.5t106.5 -306.5q0 -148 -53 -283.5t-150 -232.5q-147 -147 -340 -147q-172 0 -278.5 117t-106.5 306q0 144 54 282t151 235q147 147 338 147zM473 39q160 0 287 127q85 85 134.5 213t49.5 260q0 167 -87 268t-234 101q-164 0 -287 -129
q-86 -86 -135 -212.5t-49 -260.5q0 -167 87 -267t234 -100zM674 1206l-154 211l76 37l119 -248h-41z" />
    <glyph glyph-name="oacute" unicode="&#xf3;" horiz-adv-x="1097" 
d="M666 1206l225 248l74 -37l-244 -211h-55zM627 1067q172 0 278.5 -117.5t106.5 -306.5q0 -148 -53 -283.5t-150 -232.5q-147 -147 -340 -147q-172 0 -278.5 117t-106.5 306q0 144 54 282t151 235q147 147 338 147zM473 39q160 0 287 127q85 85 134.5 213t49.5 260
q0 167 -87 268t-234 101q-164 0 -287 -129q-86 -86 -135 -212.5t-49 -260.5q0 -167 87 -267t234 -100z" />
    <glyph glyph-name="ocircumflex" unicode="&#xf4;" horiz-adv-x="1097" 
d="M489 1210l246 242h47l127 -242h-51l-113 170l-198 -170h-58zM627 1067q172 0 278.5 -117.5t106.5 -306.5q0 -148 -53 -283.5t-150 -232.5q-147 -147 -340 -147q-172 0 -278.5 117t-106.5 306q0 144 54 282t151 235q147 147 338 147zM473 39q160 0 287 127
q85 85 134.5 213t49.5 260q0 167 -87 268t-234 101q-164 0 -287 -129q-86 -86 -135 -212.5t-49 -260.5q0 -167 87 -267t234 -100z" />
    <glyph glyph-name="otilde" unicode="&#xf5;" horiz-adv-x="1097" 
d="M627 1067q172 0 278.5 -117.5t106.5 -306.5q0 -148 -53 -283.5t-150 -232.5q-147 -147 -340 -147q-172 0 -278.5 117t-106.5 306q0 144 54 282t151 235q147 147 338 147zM473 39q160 0 287 127q85 85 134.5 213t49.5 260q0 167 -87 268t-234 101q-164 0 -287 -129
q-86 -86 -135 -212.5t-49 -260.5q0 -167 87 -267t234 -100zM954 1397l43 -13q-64 -163 -163 -163q-46 0 -119 55q-59 41 -81 47q-9 2 -18 2q-31 0 -57 -25.5t-55 -87.5l-45 13q35 86 74 125t90 39q19 0 40.5 -9t35.5 -18t42 -29q62 -49 99 -49q31 0 57 26t57 87z" />
    <glyph glyph-name="odieresis" unicode="&#xf6;" horiz-adv-x="1097" 
d="M539 1229l28 117h92l-30 -117h-90zM793 1229l28 117h90l-28 -117h-90zM627 1067q172 0 278.5 -117.5t106.5 -306.5q0 -148 -53 -283.5t-150 -232.5q-147 -147 -340 -147q-172 0 -278.5 117t-106.5 306q0 144 54 282t151 235q147 147 338 147zM473 39q160 0 287 127
q85 85 134.5 213t49.5 260q0 167 -87 268t-234 101q-164 0 -287 -129q-86 -86 -135 -212.5t-49 -260.5q0 -167 87 -267t234 -100z" />
    <glyph glyph-name="divide" unicode="&#xf7;" horiz-adv-x="1071" 
d="M426 291l33 127h98l-31 -127h-100zM160 690l14 62h834l-15 -62h-833zM610 1024l31 127h100l-32 -127h-99z" />
    <glyph glyph-name="oslash" unicode="&#xf8;" horiz-adv-x="1097" 
d="M627 1067q189 0 295 -137l133 127h78l-181 -174q60 -102 60 -240q0 -148 -53 -283.5t-150 -232.5q-147 -147 -340 -147q-191 0 -295 135l-131 -125h-78l178 172q-59 103 -59 241q0 144 54 282t151 235q147 147 338 147zM623 1008q-164 0 -287 -129q-86 -86 -135 -212.5
t-49 -260.5q0 -113 41 -197l681 674q-86 125 -251 125zM944 639q0 109 -43 197l-682 -676q89 -121 254 -121q160 0 287 127q86 86 135 212.5t49 260.5z" />
    <glyph glyph-name="ugrave" unicode="&#xf9;" horiz-adv-x="1075" 
d="M401 -20q-136 0 -214 76t-78 216q0 77 26 187l144 588h63l-143 -590q-25 -113 -25 -181q0 -116 62 -177.5t180 -61.5q137 0 250 106t157 281l152 623h63l-254 -1047h-65l53 215q-59 -104 -153.5 -169.5t-217.5 -65.5zM653 1200l-153 211l75 37l119 -248h-41z" />
    <glyph glyph-name="uacute" unicode="&#xfa;" horiz-adv-x="1075" 
d="M645 1200l225 248l74 -37l-244 -211h-55zM401 -20q-136 0 -214 76t-78 216q0 77 26 187l144 588h63l-143 -590q-25 -113 -25 -181q0 -116 62 -177.5t180 -61.5q137 0 250 106t157 281l152 623h63l-254 -1047h-65l53 215q-59 -104 -153.5 -169.5t-217.5 -65.5z" />
    <glyph glyph-name="ucircumflex" unicode="&#xfb;" horiz-adv-x="1075" 
d="M473 1204l246 242h47l127 -242h-51l-113 170l-199 -170h-57zM401 -20q-136 0 -214 76t-78 216q0 77 26 187l144 588h63l-143 -590q-25 -113 -25 -181q0 -116 62 -177.5t180 -61.5q137 0 250 106t157 281l152 623h63l-254 -1047h-65l53 215q-59 -104 -153.5 -169.5
t-217.5 -65.5z" />
    <glyph glyph-name="udieresis" unicode="&#xfc;" horiz-adv-x="1075" 
d="M516 1223l29 116h92l-31 -116h-90zM770 1223l29 116h90l-29 -116h-90zM401 -20q-136 0 -214 76t-78 216q0 77 26 187l144 588h63l-143 -590q-25 -113 -25 -181q0 -116 62 -177.5t180 -61.5q137 0 250 106t157 281l152 623h63l-254 -1047h-65l53 215
q-59 -104 -153.5 -169.5t-217.5 -65.5z" />
    <glyph glyph-name="yacute" unicode="&#xfd;" horiz-adv-x="1005" 
d="M346 6l-164 1041h68l145 -965l580 965h74l-639 -1047q-114 -183 -194.5 -248t-170.5 -65q-103 0 -174 59l37 51q64 -51 141 -51q66 0 134.5 56t162.5 204zM590 1200l225 248l74 -37l-244 -211h-55z" />
    <glyph glyph-name="thorn" unicode="&#xfe;" horiz-adv-x="1140" 
d="M463 1479l-164 -666q37 62 90.5 116t137.5 96t173 42q154 0 251.5 -114t97.5 -294q0 -154 -55 -299.5t-154 -244.5q-141 -135 -312 -135q-63 0 -118 18.5t-94.5 49t-69.5 72t-48 84.5t-26 89l-145 -600h-64l436 1786h64zM526 39q150 0 267 117q86 89 137 224.5t51 272.5
q0 155 -80 255t-209 100q-158 0 -289 -131q-90 -87 -142 -216t-52 -258q0 -156 87 -260t230 -104z" />
    <glyph glyph-name="ydieresis" unicode="&#xff;" horiz-adv-x="1005" 
d="M346 6l-164 1041h68l145 -965l580 965h74l-639 -1047q-114 -183 -194.5 -248t-170.5 -65q-103 0 -174 59l37 51q64 -51 141 -51q66 0 134.5 56t162.5 204zM469 1223l29 116h92l-31 -116h-90zM723 1223l29 116h90l-29 -116h-90z" />
    <glyph glyph-name="Amacron" unicode="&#x100;" horiz-adv-x="1327" 
d="M-53 0l917 1444h66l209 -1444h-68l-57 418h-727l-264 -418h-76zM326 479h678l-123 875zM682 1606l14 63h514l-14 -63h-514z" />
    <glyph glyph-name="amacron" unicode="&#x101;" horiz-adv-x="1003" 
d="M328 -20q-121 0 -206 74t-85 204q0 164 106 270q111 111 312 111q181 0 348 -61l12 51q19 93 19 137q0 112 -75.5 172.5t-211.5 60.5q-132 0 -254 -51l-17 60q127 53 275 53q161 0 253.5 -75t92.5 -214q0 -57 -23 -151l-149 -621h-63l49 201q-62 -99 -159 -160t-224 -61z
M340 37q149 0 265.5 104t154.5 258l31 123q-165 60 -342 60q-163 0 -256 -93q-89 -86 -89 -225q0 -107 67 -167t169 -60zM412 1249l14 60h492l-15 -60h-491z" />
    <glyph glyph-name="Abreve" unicode="&#x102;" horiz-adv-x="1327" 
d="M-53 0l917 1444h66l209 -1444h-68l-57 418h-727l-264 -418h-76zM326 479h678l-123 875zM932 1563q-105 0 -158 47t-43 131h53q2 -57 38 -87t118 -30q150 0 213 117h57q-31 -85 -102.5 -131.5t-175.5 -46.5z" />
    <glyph glyph-name="abreve" unicode="&#x103;" horiz-adv-x="1003" 
d="M328 -20q-121 0 -206 74t-85 204q0 164 106 270q111 111 312 111q181 0 348 -61l12 51q19 93 19 137q0 112 -75.5 172.5t-211.5 60.5q-132 0 -254 -51l-17 60q127 53 275 53q161 0 253.5 -75t92.5 -214q0 -57 -23 -151l-149 -621h-63l49 201q-62 -99 -159 -160t-224 -61z
M340 37q149 0 265.5 104t154.5 258l31 123q-165 60 -342 60q-163 0 -256 -93q-89 -86 -89 -225q0 -107 67 -167t169 -60zM651 1208q-102 0 -154 55.5t-38 149.5h51q-5 -70 30.5 -108.5t118.5 -38.5q147 0 222 147h53q-36 -96 -108.5 -150.5t-174.5 -54.5z" />
    <glyph glyph-name="Aogonek" unicode="&#x104;" horiz-adv-x="1327" 
d="M1104 -248l-12 -47q-2 -2 -7 -2q-83 1 -127.5 32.5t-44.5 80.5q0 51 39 96t117 96l-55 410h-727l-264 -418h-76l917 1444h66l209 -1444h-19q-75 -58 -108 -97.5t-33 -76.5q0 -65 125 -74zM326 479h678l-123 875z" />
    <glyph glyph-name="aogonek" unicode="&#x105;" horiz-adv-x="1003" 
d="M696 -248l-12 -47q-2 -2 -6 -2q-83 1 -127.5 32.5t-44.5 80.5q0 50 39 94.5t119 99.5l47 191q-62 -99 -159 -160t-224 -61q-121 0 -206 74t-85 204q0 164 106 270q111 111 312 111q181 0 348 -61l12 51q19 93 19 137q0 112 -75.5 172.5t-211.5 60.5q-132 0 -254 -51
l-17 60q127 53 275 53q161 0 253.5 -75t92.5 -214q0 -57 -23 -151l-149 -621h-12q-75 -58 -108.5 -97.5t-33.5 -76.5q0 -65 125 -74zM340 37q149 0 265.5 104t154.5 258l31 123q-165 60 -342 60q-163 0 -256 -93q-89 -86 -89 -225q0 -107 67 -167t169 -60z" />
    <glyph glyph-name="Cacute" unicode="&#x106;" horiz-adv-x="1232" 
d="M639 -23q-100 0 -187 37t-152 105t-102.5 171.5t-37.5 229.5q0 201 74 400t208 333q203 203 455 203q145 0 248 -64t164 -175l-58 -35q-125 213 -356 213q-223 0 -401 -178q-123 -128 -195 -315t-72 -382q0 -221 117 -351t301 -130q116 0 207 44t180 126l43 -47
q-196 -185 -436 -185zM893 1563l227 215l72 -37l-240 -178h-59z" />
    <glyph glyph-name="cacute" unicode="&#x107;" horiz-adv-x="946" 
d="M629 1206l225 248l74 -37l-244 -211h-55zM461 -20q-160 0 -269.5 112t-109.5 305q0 148 54 284.5t151 233.5q152 152 338 152q113 0 195 -54t130 -134l-51 -37q-48 76 -113 120t-165 44q-159 0 -285 -129q-84 -85 -135 -215t-51 -261q0 -170 91.5 -265t223.5 -95
q141 0 276 115l39 -45q-145 -131 -319 -131z" />
    <glyph glyph-name="Cdotaccent" unicode="&#x10a;" horiz-adv-x="1232" 
d="M889 1585l29 117h98l-29 -117h-98zM639 -23q-100 0 -187 37t-152 105t-102.5 171.5t-37.5 229.5q0 201 74 400t208 333q203 203 455 203q145 0 248 -64t164 -175l-58 -35q-125 213 -356 213q-223 0 -401 -178q-123 -128 -195 -315t-72 -382q0 -221 117 -351t301 -130
q116 0 207 44t180 126l43 -47q-196 -185 -436 -185z" />
    <glyph glyph-name="cdotaccent" unicode="&#x10b;" horiz-adv-x="946" 
d="M461 -20q-160 0 -269.5 112t-109.5 305q0 148 54 284.5t151 233.5q152 152 338 152q113 0 195 -54t130 -134l-51 -37q-48 76 -113 120t-165 44q-159 0 -285 -129q-84 -85 -135 -215t-51 -261q0 -170 91.5 -265t223.5 -95q141 0 276 115l39 -45q-145 -131 -319 -131z
M633 1229l33 119h88l-31 -119h-90z" />
    <glyph glyph-name="Ccaron" unicode="&#x10c;" horiz-adv-x="1232" 
d="M639 -23q-100 0 -187 37t-152 105t-102.5 171.5t-37.5 229.5q0 201 74 400t208 333q203 203 455 203q145 0 248 -64t164 -175l-58 -35q-125 213 -356 213q-223 0 -401 -178q-123 -128 -195 -315t-72 -382q0 -221 117 -351t301 -130q116 0 207 44t180 126l43 -47
q-196 -185 -436 -185zM1212 1769l-241 -204h-58l-143 204h59l125 -139l191 139h67z" />
    <glyph glyph-name="ccaron" unicode="&#x10d;" horiz-adv-x="946" 
d="M643 1210l-127 242h51l111 -168l199 168h59l-246 -242h-47zM461 -20q-160 0 -269.5 112t-109.5 305q0 148 54 284.5t151 233.5q152 152 338 152q113 0 195 -54t130 -134l-51 -37q-48 76 -113 120t-165 44q-159 0 -285 -129q-84 -85 -135 -215t-51 -261q0 -170 91.5 -265
t223.5 -95q141 0 276 115l39 -45q-145 -131 -319 -131z" />
    <glyph glyph-name="Dcaron" unicode="&#x10e;" horiz-adv-x="1329" 
d="M1124 1757l-241 -205h-58l-143 205h59l125 -139l191 139h67zM57 0l351 1434h241q302 0 469 -162q146 -146 146 -406q0 -171 -62.5 -342.5t-181.5 -290.5q-233 -233 -610 -233h-353zM1067 1227q-145 145 -416 145h-192l-320 -1311h279q338 0 553 215q106 106 164.5 267.5
t58.5 320.5q0 236 -127 363z" />
    <glyph glyph-name="dcaron" unicode="&#x10f;" horiz-adv-x="1138" 
d="M1253 1174l103 305h71v-4l-139 -301h-35zM784 0l58 233q-36 -61 -91 -115.5t-139.5 -96t-173.5 -41.5q-155 0 -250.5 113t-95.5 294q0 151 55 298.5t152 244.5q137 137 313 137q80 0 145 -28t106 -75t66 -100t36 -112l180 727h63l-360 -1479h-64zM449 39q157 0 286 129
q90 87 142.5 216.5t52.5 258.5q0 157 -86 261t-230 104q-149 0 -266 -117q-88 -88 -138 -223.5t-50 -274.5q0 -157 79.5 -255.5t209.5 -98.5z" />
    <glyph glyph-name="Dcroat" unicode="&#x110;" horiz-adv-x="1349" 
d="M109 690l16 62h139l166 682h242q300 0 467 -162q147 -147 147 -406q0 -169 -63 -342t-181 -291q-238 -233 -612 -233h-350l168 690h-139zM1087 1227q-145 145 -413 145h-195l-151 -620h405l-16 -62h-404l-153 -629h280q342 0 551 215q109 109 167.5 268.5t58.5 319.5
q0 233 -130 363z" />
    <glyph glyph-name="dcroat" unicode="&#x111;" horiz-adv-x="1138" 
d="M762 1257l14 56h326l43 166h63l-41 -166h129l-14 -56h-127l-307 -1257h-64l58 233q-36 -61 -91 -115.5t-139.5 -96t-173.5 -41.5q-155 0 -250.5 113t-95.5 294q0 151 55 298.5t152 244.5q137 137 313 137q80 0 145 -28t106 -75t66 -100t36 -112l125 505h-328zM449 39
q157 0 286 129q90 87 142.5 216.5t52.5 258.5q0 157 -86 261t-230 104q-149 0 -266 -117q-88 -88 -138 -223.5t-50 -274.5q0 -157 79.5 -255.5t209.5 -98.5z" />
    <glyph glyph-name="Emacron" unicode="&#x112;" horiz-adv-x="1128" 
d="M594 1593l14 64h514l-14 -64h-514zM57 0l351 1434h835l-14 -62h-768l-152 -618h695l-15 -64h-694l-156 -629h779l-17 -61h-844z" />
    <glyph glyph-name="emacron" unicode="&#x113;" 
d="M915 500h-757q-6 -52 -6 -103q0 -168 88 -262t239 -94q160 0 301 111l35 -50q-158 -122 -336 -122t-285.5 111t-107.5 302q0 149 56 290.5t153 238.5q142 145 321 145q109 0 185 -51t110.5 -133.5t34.5 -188.5q0 -96 -31 -194zM342 887q-121 -121 -172 -328h694
q17 80 17 133q0 137 -67.5 226.5t-199.5 89.5q-148 0 -272 -121zM446 1249l15 60h491l-14 -60h-492z" />
    <glyph glyph-name="Ebreve" unicode="&#x114;" horiz-adv-x="1128" 
d="M844 1550q-105 0 -158 47.5t-43 131.5h53q2 -57 38 -87t118 -30q150 0 213 117h57q-31 -85 -103 -132t-175 -47zM57 0l351 1434h835l-14 -62h-768l-152 -618h695l-15 -64h-694l-156 -629h779l-17 -61h-844z" />
    <glyph glyph-name="ebreve" unicode="&#x115;" 
d="M915 500h-757q-6 -52 -6 -103q0 -168 88 -262t239 -94q160 0 301 111l35 -50q-158 -122 -336 -122t-285.5 111t-107.5 302q0 149 56 290.5t153 238.5q142 145 321 145q109 0 185 -51t110.5 -133.5t34.5 -188.5q0 -96 -31 -194zM342 887q-121 -121 -172 -328h694
q17 80 17 133q0 137 -67.5 226.5t-199.5 89.5q-148 0 -272 -121zM686 1208q-102 0 -154 55.5t-38 149.5h51q-5 -70 30.5 -108.5t118.5 -38.5q146 0 221 147h54q-36 -96 -108.5 -150.5t-174.5 -54.5z" />
    <glyph glyph-name="Edotaccent" unicode="&#x116;" horiz-adv-x="1128" 
d="M797 1573l28 117h99l-29 -117h-98zM57 0l351 1434h835l-14 -62h-768l-152 -618h695l-15 -64h-694l-156 -629h779l-17 -61h-844z" />
    <glyph glyph-name="edotaccent" unicode="&#x117;" 
d="M915 500h-757q-6 -52 -6 -103q0 -168 88 -262t239 -94q160 0 301 111l35 -50q-158 -122 -336 -122t-285.5 111t-107.5 302q0 149 56 290.5t153 238.5q142 145 321 145q109 0 185 -51t110.5 -133.5t34.5 -188.5q0 -96 -31 -194zM342 887q-121 -121 -172 -328h694
q17 80 17 133q0 137 -67.5 226.5t-199.5 89.5q-148 0 -272 -121zM641 1229l33 119h88l-31 -119h-90z" />
    <glyph glyph-name="Eogonek" unicode="&#x118;" horiz-adv-x="1128" 
d="M57 0l351 1434h835l-14 -62h-768l-152 -618h695l-15 -64h-694l-156 -629h779l-17 -61h-31q-75 -58 -108 -97.5t-33 -76.5q0 -65 125 -74l-12 -47q-2 -2 -6 -2q-83 1 -127.5 32.5t-44.5 80.5q0 47 35.5 90t107.5 94h-750z" />
    <glyph glyph-name="eogonek" unicode="&#x119;" 
d="M780 152l35 -50q-27 -21 -112.5 -79.5t-118.5 -92.5q-58 -52 -58 -104q0 -66 123 -74l-10 -47q-2 -2 -4 -2h-2q-84 1 -129 32.5t-45 80.5q0 82 131 176q-58 -12 -111 -12q-178 0 -285.5 111t-107.5 302q0 149 56 290.5t153 238.5q142 145 321 145q109 0 185 -51
t110.5 -133.5t34.5 -188.5q0 -96 -31 -194h-757q-6 -52 -6 -103q0 -168 88 -262t239 -94q160 0 301 111zM342 887q-121 -121 -172 -328h694q17 80 17 133q0 137 -67.5 226.5t-199.5 89.5q-148 0 -272 -121z" />
    <glyph glyph-name="Ecaron" unicode="&#x11a;" horiz-adv-x="1128" 
d="M1118 1757l-241 -205h-58l-143 205h59l125 -139l191 139h67zM57 0l351 1434h835l-14 -62h-768l-152 -618h695l-15 -64h-694l-156 -629h779l-17 -61h-844z" />
    <glyph glyph-name="ecaron" unicode="&#x11b;" 
d="M653 1210l-127 242h52l110 -168l199 168h59l-246 -242h-47zM915 500h-757q-6 -52 -6 -103q0 -168 88 -262t239 -94q160 0 301 111l35 -50q-158 -122 -336 -122t-285.5 111t-107.5 302q0 149 56 290.5t153 238.5q142 145 321 145q109 0 185 -51t110.5 -133.5t34.5 -188.5
q0 -96 -31 -194zM342 887q-121 -121 -172 -328h694q17 80 17 133q0 137 -67.5 226.5t-199.5 89.5q-148 0 -272 -121z" />
    <glyph glyph-name="Gbreve" unicode="&#x11e;" horiz-adv-x="1343" 
d="M971 1563q-105 0 -158 47t-43 131h53q2 -57 38 -87t118 -30q150 0 213 117h57q-31 -85 -102.5 -131.5t-175.5 -46.5zM682 -23q-234 0 -376 156t-142 414q0 193 72.5 379t201.5 315q209 215 494 215q261 0 418 -205l-54 -39q-138 183 -368 183q-245 0 -441 -193
q-118 -118 -187 -295t-69 -358q0 -234 123 -372t332 -138q187 0 338 98l133 525h-409l16 65h475l-160 -629q-188 -121 -397 -121z" />
    <glyph glyph-name="gbreve" unicode="&#x11f;" horiz-adv-x="1134" 
d="M393 -309q-107 0 -216.5 39t-188.5 106l39 51q74 -63 172 -99t198 -36q180 0 285 105q80 77 127 264l45 182q-169 -235 -399 -235q-151 0 -253 105t-102 273q0 136 50.5 263t140.5 217q141 141 325 141q78 0 141.5 -27t105 -72.5t66.5 -96t36 -105.5l69 281h64l-228 -934
q-26 -108 -58.5 -177t-84.5 -118q-127 -127 -334 -127zM465 127q166 0 299 133q74 74 120 184.5t46 217.5q0 89 -36.5 167t-110 128.5t-169.5 50.5q-153 0 -274 -121q-80 -80 -126 -196.5t-46 -239.5q0 -145 84 -234.5t213 -89.5zM729 1208q-102 0 -154 55.5t-38 149.5h51
q-5 -70 30.5 -108.5t118.5 -38.5q146 0 221 147h54q-36 -96 -108.5 -150.5t-174.5 -54.5z" />
    <glyph glyph-name="Gdotaccent" unicode="&#x120;" horiz-adv-x="1343" 
d="M924 1585l28 117h99l-29 -117h-98zM682 -23q-234 0 -376 156t-142 414q0 193 72.5 379t201.5 315q209 215 494 215q261 0 418 -205l-54 -39q-138 183 -368 183q-245 0 -441 -193q-118 -118 -187 -295t-69 -358q0 -234 123 -372t332 -138q187 0 338 98l133 525h-409l16 65
h475l-160 -629q-188 -121 -397 -121z" />
    <glyph glyph-name="gdotaccent" unicode="&#x121;" horiz-adv-x="1134" 
d="M393 -309q-107 0 -216.5 39t-188.5 106l39 51q74 -63 172 -99t198 -36q180 0 285 105q80 77 127 264l45 182q-169 -235 -399 -235q-151 0 -253 105t-102 273q0 136 50.5 263t140.5 217q141 141 325 141q78 0 141.5 -27t105 -72.5t66.5 -96t36 -105.5l69 281h64l-228 -934
q-26 -108 -58.5 -177t-84.5 -118q-127 -127 -334 -127zM465 127q166 0 299 133q74 74 120 184.5t46 217.5q0 89 -36.5 167t-110 128.5t-169.5 50.5q-153 0 -274 -121q-80 -80 -126 -196.5t-46 -239.5q0 -145 84 -234.5t213 -89.5zM686 1229l33 119h88l-31 -119h-90z" />
    <glyph glyph-name="Gcommaaccent" unicode="&#x122;" horiz-adv-x="1343" 
d="M449 -395l-7 35q43 18 63 39.5t30 64.5h-41l28 113h94l-24 -95q-20 -74 -51 -108t-92 -49zM682 -23q-234 0 -376 156t-142 414q0 193 72.5 379t201.5 315q209 215 494 215q261 0 418 -205l-54 -39q-138 183 -368 183q-245 0 -441 -193q-118 -118 -187 -295t-69 -358
q0 -234 123 -372t332 -138q187 0 338 98l133 525h-409l16 65h475l-160 -629q-188 -121 -397 -121z" />
    <glyph glyph-name="gcommaaccent" unicode="&#x123;" horiz-adv-x="1134" 
d="M852 1481l6 -35q-42 -18 -62 -40t-30 -65h41l-29 -112h-92l23 94q20 74 51 107t92 51zM393 -309q-107 0 -216.5 39t-188.5 106l39 51q74 -63 172 -99t198 -36q180 0 285 105q80 77 127 264l45 182q-169 -235 -399 -235q-151 0 -253 105t-102 273q0 136 50.5 263
t140.5 217q141 141 325 141q78 0 141.5 -27t105 -72.5t66.5 -96t36 -105.5l69 281h64l-228 -934q-26 -108 -58.5 -177t-84.5 -118q-127 -127 -334 -127zM465 127q166 0 299 133q74 74 120 184.5t46 217.5q0 89 -36.5 167t-110 128.5t-169.5 50.5q-153 0 -274 -121
q-80 -80 -126 -196.5t-46 -239.5q0 -145 84 -234.5t213 -89.5z" />
    <glyph glyph-name="Hbar" unicode="&#x126;" horiz-adv-x="1331" 
d="M186 1094l17 57h139l70 283h67l-69 -283h819l69 283h68l-70 -283h140l-17 -57h-137l-266 -1094h-68l168 688h-819l-168 -688h-68l267 1094h-142zM311 750h822l81 344h-819z" />
    <glyph glyph-name="hbar" unicode="&#x127;" horiz-adv-x="1077" 
d="M217 1257l12 56h129l41 166h64l-41 -166h328l-15 -56h-327l-105 -426q59 104 153.5 170t217.5 66q136 0 214.5 -77.5t78.5 -215.5q0 -72 -27 -186l-141 -588h-64l142 590q24 95 24 180q0 114 -62.5 176t-179.5 62q-134 0 -251 -108t-156 -279l-152 -621h-63l307 1257
h-127z" />
    <glyph glyph-name="Imacron" unicode="&#x12a;" horiz-adv-x="462" 
d="M72 0l350 1434h67l-350 -1434h-67zM244 1593l14 64h514l-14 -64h-514z" />
    <glyph glyph-name="imacron" unicode="&#x12b;" horiz-adv-x="417" 
d="M51 0l252 1047h66l-254 -1047h-64zM145 1247l15 60h491l-14 -60h-492z" />
    <glyph glyph-name="Ibreve" unicode="&#x12c;" horiz-adv-x="462" 
d="M72 0l350 1434h67l-350 -1434h-67zM494 1550q-105 0 -158 47.5t-43 131.5h53q2 -57 38 -87t118 -30q150 0 213 117h57q-31 -85 -103 -132t-175 -47z" />
    <glyph glyph-name="ibreve" unicode="&#x12d;" horiz-adv-x="417" 
d="M51 0l252 1047h66l-254 -1047h-64zM385 1206q-102 0 -154 55.5t-38 149.5h51q-5 -70 30.5 -108.5t118.5 -38.5q146 0 221 147h54q-36 -96 -108.5 -150.5t-174.5 -54.5z" />
    <glyph glyph-name="Iogonek" unicode="&#x12e;" horiz-adv-x="462" 
d="M115 -248l-13 -47q-2 -2 -6 -2q-83 1 -127.5 32.5t-44.5 80.5q0 48 37.5 91.5t110.5 96.5l350 1430h67l-350 -1434h-8q-75 -58 -108 -97.5t-33 -76.5q0 -65 125 -74z" />
    <glyph glyph-name="iogonek" unicode="&#x12f;" horiz-adv-x="417" 
d="M90 -248l-12 -47q-2 -2 -6 -2q-83 1 -127.5 32.5t-44.5 80.5q0 48 37.5 92t111.5 96l256 1043h64l-256 -1047h-7q-75 -58 -108 -97.5t-33 -76.5q0 -65 125 -74zM362 1317l31 127h82l-33 -127h-80z" />
    <glyph glyph-name="Idotaccent" unicode="&#x130;" horiz-adv-x="462" 
d="M72 0l350 1434h67l-350 -1434h-67zM444 1573l29 117h98l-28 -117h-99z" />
    <glyph glyph-name="dotlessi" unicode="&#x131;" horiz-adv-x="417" 
d="M51 0l252 1047h66l-254 -1047h-64z" />
    <glyph glyph-name="Kcommaaccent" unicode="&#x136;" horiz-adv-x="1220" 
d="M350 -389l-6 35q42 18 62 39.5t30 64.5h-41l29 113h94l-24 -94q-20 -74 -51.5 -108.5t-92.5 -49.5zM57 0l351 1434h67l-229 -926l1009 926h93l-686 -625l362 -809h-74l-342 762l-385 -350l-98 -412h-68z" />
    <glyph glyph-name="kcommaaccent" unicode="&#x137;" horiz-adv-x="954" 
d="M211 -391l-6 35q42 18 62 39.5t30 64.5h-41l29 113h94l-25 -94q-20 -74 -51.5 -108.5t-91.5 -49.5zM37 0l362 1479h64l-270 -1102l720 670h86l-493 -453l256 -594h-70l-235 547l-285 -258l-72 -289h-63z" />
    <glyph glyph-name="Lacute" unicode="&#x139;" horiz-adv-x="1009" 
d="M455 1550l227 215l72 -36l-240 -179h-59zM57 0l351 1434h67l-336 -1373h709l-14 -61h-777z" />
    <glyph glyph-name="lacute" unicode="&#x13a;" horiz-adv-x="417" 
d="M440 1579l228 215l71 -37l-239 -178h-60zM49 0l363 1479h63l-362 -1479h-64z" />
    <glyph glyph-name="Lcommaaccent" unicode="&#x13b;" horiz-adv-x="1009" 
d="M272 -395l-6 35q42 18 62 39.5t30 64.5h-41l29 113h94l-24 -95q-20 -74 -51.5 -108t-92.5 -49zM57 0l351 1434h67l-336 -1373h709l-14 -61h-777z" />
    <glyph glyph-name="lcommaaccent" unicode="&#x13c;" horiz-adv-x="417" 
d="M-63 -395l-7 35q43 18 63 39.5t30 64.5h-41l28 113h94l-24 -95q-20 -74 -51 -108t-92 -49zM49 0l363 1479h63l-362 -1479h-64z" />
    <glyph glyph-name="Lcaron" unicode="&#x13d;" horiz-adv-x="1009" 
d="M573 1130l103 306h72v-4l-140 -302h-35zM57 0l351 1434h67l-336 -1373h709l-14 -61h-777z" />
    <glyph glyph-name="lcaron" unicode="&#x13e;" horiz-adv-x="417" 
d="M526 1174l103 305h71v-4l-139 -301h-35zM49 0l363 1479h63l-362 -1479h-64z" />
    <glyph glyph-name="Ldot" unicode="&#x13f;" horiz-adv-x="1021" 
d="M748 664l30 127h90l-32 -127h-88zM57 0l351 1434h67l-336 -1373h709l-14 -61h-777z" />
    <glyph glyph-name="ldot" unicode="&#x140;" horiz-adv-x="473" 
d="M434 672l31 129h88l-31 -129h-88zM49 0l363 1479h63l-362 -1479h-64z" />
    <glyph glyph-name="Lslash" unicode="&#x141;" horiz-adv-x="1062" 
d="M98 588l17 67l168 60l176 719h67l-170 -693l428 154l-14 -66l-430 -155l-150 -613h709l-14 -61h-776l157 647z" />
    <glyph glyph-name="lslash" unicode="&#x142;" horiz-adv-x="491" 
d="M96 639l17 68l161 61l175 711h63l-168 -682l164 63l-16 -67l-164 -64l-178 -729h-64l172 700z" />
    <glyph glyph-name="Nacute" unicode="&#x143;" horiz-adv-x="1368" 
d="M891 1542l227 215l72 -37l-240 -178h-59zM57 0l351 1434h63l549 -1313l323 1313h64l-350 -1434h-56l-555 1327l-323 -1327h-66z" />
    <glyph glyph-name="nacute" unicode="&#x144;" horiz-adv-x="1077" 
d="M655 1206l226 248l73 -37l-243 -211h-56zM37 0l254 1047h63l-51 -216q59 104 153.5 170t217.5 66q136 0 214.5 -77.5t78.5 -215.5q0 -72 -27 -186l-141 -588h-64l142 590q24 95 24 180q0 114 -62.5 176t-179.5 62q-134 0 -251 -108t-156 -279l-152 -621h-63z" />
    <glyph glyph-name="Ncommaaccent" unicode="&#x145;" horiz-adv-x="1368" 
d="M408 -389l-7 35q43 18 63 39.5t30 64.5h-41l28 113h94l-24 -94q-20 -74 -51.5 -108.5t-91.5 -49.5zM57 0l351 1434h63l549 -1313l323 1313h64l-350 -1434h-56l-555 1327l-323 -1327h-66z" />
    <glyph glyph-name="ncommaaccent" unicode="&#x146;" horiz-adv-x="1077" 
d="M252 -391l-6 35q42 18 62 39.5t30 64.5h-41l29 113h94l-25 -94q-20 -74 -51.5 -108.5t-91.5 -49.5zM37 0l254 1047h63l-51 -216q59 104 153.5 170t217.5 66q136 0 214.5 -77.5t78.5 -215.5q0 -72 -27 -186l-141 -588h-64l142 590q24 95 24 180q0 114 -62.5 176t-179.5 62
q-134 0 -251 -108t-156 -279l-152 -621h-63z" />
    <glyph glyph-name="Ncaron" unicode="&#x147;" horiz-adv-x="1368" 
d="M1208 1749l-241 -205h-58l-143 205h59l125 -139l191 139h67zM57 0l351 1434h63l549 -1313l323 1313h64l-350 -1434h-56l-555 1327l-323 -1327h-66z" />
    <glyph glyph-name="ncaron" unicode="&#x148;" horiz-adv-x="1077" 
d="M664 1210l-127 242h51l110 -168l199 168h59l-245 -242h-47zM37 0l254 1047h63l-51 -216q59 104 153.5 170t217.5 66q136 0 214.5 -77.5t78.5 -215.5q0 -72 -27 -186l-141 -588h-64l142 590q24 95 24 180q0 114 -62.5 176t-179.5 62q-134 0 -251 -108t-156 -279l-152 -621
h-63z" />
    <glyph glyph-name="Omacron" unicode="&#x14c;" horiz-adv-x="1439" 
d="M713 1606l14 63h514l-14 -63h-514zM877 1456q224 0 360.5 -156.5t136.5 -410.5q0 -196 -74.5 -394t-203.5 -327q-198 -191 -437 -191q-223 0 -359 156.5t-136 409.5q0 196 73.5 395.5t202.5 325.5q192 192 437 192zM662 39q215 0 385 170q120 120 190 307.5t70 372.5
q0 225 -120.5 365.5t-312.5 140.5q-213 0 -385 -172q-120 -120 -189 -307.5t-69 -370.5q0 -227 118.5 -366.5t312.5 -139.5z" />
    <glyph glyph-name="omacron" unicode="&#x14d;" horiz-adv-x="1097" 
d="M471 1249l14 60h492l-14 -60h-492zM627 1067q172 0 278.5 -117.5t106.5 -306.5q0 -148 -53 -283.5t-150 -232.5q-147 -147 -340 -147q-172 0 -278.5 117t-106.5 306q0 144 54 282t151 235q147 147 338 147zM473 39q160 0 287 127q85 85 134.5 213t49.5 260q0 167 -87 268
t-234 101q-164 0 -287 -129q-86 -86 -135 -212.5t-49 -260.5q0 -167 87 -267t234 -100z" />
    <glyph glyph-name="Obreve" unicode="&#x14e;" horiz-adv-x="1439" 
d="M963 1563q-105 0 -158 47t-43 131h53q2 -57 38 -87t118 -30q150 0 213 117h57q-31 -85 -102.5 -131.5t-175.5 -46.5zM877 1456q224 0 360.5 -156.5t136.5 -410.5q0 -196 -74.5 -394t-203.5 -327q-198 -191 -437 -191q-223 0 -359 156.5t-136 409.5q0 196 73.5 395.5
t202.5 325.5q192 192 437 192zM662 39q215 0 385 170q120 120 190 307.5t70 372.5q0 225 -120.5 365.5t-312.5 140.5q-213 0 -385 -172q-120 -120 -189 -307.5t-69 -370.5q0 -227 118.5 -366.5t312.5 -139.5z" />
    <glyph glyph-name="obreve" unicode="&#x14f;" horiz-adv-x="1097" 
d="M627 1067q172 0 278.5 -117.5t106.5 -306.5q0 -148 -53 -283.5t-150 -232.5q-147 -147 -340 -147q-172 0 -278.5 117t-106.5 306q0 144 54 282t151 235q147 147 338 147zM473 39q160 0 287 127q85 85 134.5 213t49.5 260q0 167 -87 268t-234 101q-164 0 -287 -129
q-86 -86 -135 -212.5t-49 -260.5q0 -167 87 -267t234 -100zM709 1208q-103 0 -155 55.5t-38 149.5h51q-5 -69 31 -108t119 -39q146 0 221 147h53q-36 -96 -108 -150.5t-174 -54.5z" />
    <glyph glyph-name="Ohungarumlaut" unicode="&#x150;" horiz-adv-x="1439" 
d="M877 1456q224 0 360.5 -156.5t136.5 -410.5q0 -196 -74.5 -394t-203.5 -327q-198 -191 -437 -191q-223 0 -359 156.5t-136 409.5q0 196 73.5 395.5t202.5 325.5q192 192 437 192zM662 39q215 0 385 170q120 120 190 307.5t70 372.5q0 225 -120.5 365.5t-312.5 140.5
q-213 0 -385 -172q-120 -120 -189 -307.5t-69 -370.5q0 -227 118.5 -366.5t312.5 -139.5zM782 1563l230 215l71 -37l-239 -178h-62zM1014 1563l227 215l70 -37l-238 -178h-59z" />
    <glyph glyph-name="ohungarumlaut" unicode="&#x151;" horiz-adv-x="1097" 
d="M537 1206l223 248l65 -37l-239 -211h-49zM772 1206l225 248l66 -37l-240 -211h-51zM627 1067q172 0 278.5 -117.5t106.5 -306.5q0 -148 -53 -283.5t-150 -232.5q-147 -147 -340 -147q-172 0 -278.5 117t-106.5 306q0 144 54 282t151 235q147 147 338 147zM473 39
q160 0 287 127q85 85 134.5 213t49.5 260q0 167 -87 268t-234 101q-164 0 -287 -129q-86 -86 -135 -212.5t-49 -260.5q0 -167 87 -267t234 -100z" />
    <glyph glyph-name="OE" unicode="&#x152;" horiz-adv-x="1972" 
d="M1745 0h-971q-302 0 -469 162q-145 151 -145 405q0 169 62.5 342t180.5 291q112 112 268 173t345 61h1071l-16 -62h-748l-152 -618h678l-16 -64h-676l-156 -629h758zM358 207q146 -146 414 -146h162l319 1311h-247q-338 0 -553 -215q-106 -106 -165 -267.5t-59 -320.5
q0 -230 129 -362z" />
    <glyph glyph-name="oe" unicode="&#x153;" horiz-adv-x="1857" 
d="M1747 500h-758q-6 -53 -6 -103q0 -169 88 -262.5t242 -93.5q162 0 299 113l30 -54q-152 -120 -331 -120q-159 0 -261 89.5t-122 249.5q-67 -146 -188 -242.5t-275 -96.5q-170 0 -275.5 117t-105.5 306q0 144 54 282t151 235q147 147 338 147q153 0 251 -95t117 -253
q32 70 76 130.5t100.5 110.5t128 78.5t148.5 28.5q109 0 185 -51t110.5 -133.5t34.5 -188.5q-3 -95 -31 -194zM471 39q160 0 289 129q84 84 134 211.5t50 257.5q0 168 -87 269.5t-234 101.5q-164 0 -287 -129q-86 -86 -135 -212.5t-49 -260.5q0 -166 86 -266.5t233 -100.5z
M1174 887q-122 -122 -173 -328h695q16 86 16 133q0 137 -67 226.5t-199 89.5q-148 0 -272 -121z" />
    <glyph glyph-name="Racute" unicode="&#x154;" horiz-adv-x="1251" 
d="M942 0l-268 608q-23 -2 -68 -2h-334l-147 -606h-68l351 1434h387q236 0 348 -115q92 -92 92 -240q0 -188 -123 -311t-369 -156l275 -612h-76zM289 666h338q297 0 434 137q106 106 106 272q0 126 -71 197q-100 100 -310 100h-325zM772 1550l227 215l72 -36l-240 -179h-59z
" />
    <glyph glyph-name="racute" unicode="&#x155;" horiz-adv-x="643" 
d="M463 1204l225 248l74 -37l-244 -211h-55zM37 0l254 1047h63l-63 -265q82 133 197 209t241 72l-16 -68h-4q-145 0 -284 -120.5t-187 -309.5l-138 -565h-63z" />
    <glyph glyph-name="Rcommaaccent" unicode="&#x156;" horiz-adv-x="1251" 
d="M307 -389l-6 35q42 18 62 39.5t30 64.5h-41l29 113h94l-24 -94q-20 -74 -51.5 -108.5t-92.5 -49.5zM942 0l-268 608q-23 -2 -68 -2h-334l-147 -606h-68l351 1434h387q236 0 348 -115q92 -92 92 -240q0 -188 -123 -311t-369 -156l275 -612h-76zM289 666h338q297 0 434 137
q106 106 106 272q0 126 -71 197q-100 100 -310 100h-325z" />
    <glyph glyph-name="rcommaaccent" unicode="&#x157;" horiz-adv-x="643" 
d="M-63 -395l-7 35q43 18 63 39.5t30 64.5h-41l28 113h94l-24 -95q-20 -74 -51 -108t-92 -49zM37 0l254 1047h63l-63 -265q82 133 197 209t241 72l-16 -68h-4q-145 0 -284 -120.5t-187 -309.5l-138 -565h-63z" />
    <glyph glyph-name="Rcaron" unicode="&#x158;" horiz-adv-x="1251" 
d="M1092 1757l-242 -205h-57l-144 205h60l125 -139l190 139h68zM942 0l-268 608q-23 -2 -68 -2h-334l-147 -606h-68l351 1434h387q236 0 348 -115q92 -92 92 -240q0 -188 -123 -311t-369 -156l275 -612h-76zM289 666h338q297 0 434 137q106 106 106 272q0 126 -71 197
q-100 100 -310 100h-325z" />
    <glyph glyph-name="rcaron" unicode="&#x159;" horiz-adv-x="643" 
d="M471 1208l-127 242h51l111 -168l199 168h59l-246 -242h-47zM37 0l254 1047h63l-63 -265q82 133 197 209t241 72l-16 -68h-4q-145 0 -284 -120.5t-187 -309.5l-138 -565h-63z" />
    <glyph glyph-name="Sacute" unicode="&#x15a;" horiz-adv-x="1101" 
d="M508 -18q-153 0 -276 68.5t-207 185.5l53 40q174 -233 436 -233q159 0 262 94.5t103 220.5q0 57 -18.5 104t-62 89.5t-86.5 74t-120 79.5q-79 48 -130 85.5t-96 83.5t-66 98t-21 113q0 140 102 242q125 125 321 125q128 0 237.5 -57t184.5 -146l-51 -45
q-71 84 -167.5 135.5t-207.5 51.5q-157 0 -254.5 -90t-97.5 -211q0 -51 19 -95t61 -85t88 -73.5t119 -76.5q79 -47 132 -86.5t97 -87.5t65 -102.5t21 -118.5q0 -149 -110 -259q-127 -124 -330 -124zM739 1563l228 215l71 -37l-239 -178h-60z" />
    <glyph glyph-name="sacute" unicode="&#x15b;" horiz-adv-x="856" 
d="M535 1206l225 248l74 -37l-244 -211h-55zM365 -16q-104 0 -201 48.5t-166 131.5l49 45q146 -166 324 -166q108 0 182 65t74 152q0 71 -47.5 124t-163.5 122q-128 74 -184 137t-56 152q0 112 89.5 190t230.5 78q90 0 175 -43t148 -113l-49 -45q-129 142 -278 142
q-111 0 -179.5 -61t-68.5 -144q0 -68 47.5 -120.5t165.5 -119.5q124 -72 179.5 -138.5t55.5 -156.5q0 -115 -93.5 -197.5t-233.5 -82.5z" />
    <glyph glyph-name="Scedilla" unicode="&#x15e;" horiz-adv-x="1101" 
d="M287 -268l-64 32l197 224q-247 36 -395 248l53 40q174 -233 436 -233q159 0 262 94.5t103 220.5q0 57 -18.5 104t-62 89.5t-86.5 74t-120 79.5q-79 48 -130 85.5t-96 83.5t-66 98t-21 113q0 140 102 242q125 125 321 125q128 0 237.5 -57t184.5 -146l-51 -45
q-71 84 -167.5 135.5t-207.5 51.5q-157 0 -254.5 -90t-97.5 -211q0 -51 19 -95t61 -85t88 -73.5t119 -76.5q79 -47 132 -86.5t97 -87.5t65 -102.5t21 -118.5q0 -149 -110 -259q-127 -124 -330 -124q-23 0 -37 2z" />
    <glyph glyph-name="scedilla" unicode="&#x15f;" horiz-adv-x="856" 
d="M147 -268l-63 32l199 228q-173 35 -285 172l49 45q146 -166 324 -166q108 0 182 65t74 152q0 71 -47.5 124t-163.5 122q-128 74 -184 137t-56 152q0 112 89.5 190t230.5 78q90 0 175 -43t148 -113l-49 -45q-129 142 -278 142q-111 0 -179.5 -61t-68.5 -144
q0 -68 47.5 -120.5t165.5 -119.5q124 -72 179.5 -138.5t55.5 -156.5q0 -115 -93.5 -197.5t-233.5 -82.5q-23 0 -33 2z" />
    <glyph glyph-name="Scaron" unicode="&#x160;" horiz-adv-x="1101" 
d="M508 -18q-153 0 -276 68.5t-207 185.5l53 40q174 -233 436 -233q159 0 262 94.5t103 220.5q0 57 -18.5 104t-62 89.5t-86.5 74t-120 79.5q-79 48 -130 85.5t-96 83.5t-66 98t-21 113q0 140 102 242q125 125 321 125q128 0 237.5 -57t184.5 -146l-51 -45
q-71 84 -167.5 135.5t-207.5 51.5q-157 0 -254.5 -90t-97.5 -211q0 -51 19 -95t61 -85t88 -73.5t119 -76.5q79 -47 132 -86.5t97 -87.5t65 -102.5t21 -118.5q0 -149 -110 -259q-127 -124 -330 -124zM1057 1769l-242 -204h-57l-144 204h60l125 -139l190 139h68z" />
    <glyph glyph-name="scaron" unicode="&#x161;" horiz-adv-x="856" 
d="M545 1210l-127 242h51l111 -168l198 168h60l-246 -242h-47zM365 -16q-104 0 -201 48.5t-166 131.5l49 45q146 -166 324 -166q108 0 182 65t74 152q0 71 -47.5 124t-163.5 122q-128 74 -184 137t-56 152q0 112 89.5 190t230.5 78q90 0 175 -43t148 -113l-49 -45
q-129 142 -278 142q-111 0 -179.5 -61t-68.5 -144q0 -68 47.5 -120.5t165.5 -119.5q124 -72 179.5 -138.5t55.5 -156.5q0 -115 -93.5 -197.5t-233.5 -82.5z" />
    <glyph glyph-name="Tcommaaccent" unicode="&#x162;" horiz-adv-x="1019" 
d="M231 -395l-6 35q42 18 62 39.5t30 64.5h-41l29 113h94l-24 -95q-20 -74 -51.5 -108t-92.5 -49zM342 0l334 1372h-424l16 62h918l-17 -62h-424l-335 -1372h-68z" />
    <glyph glyph-name="Tcommaaccent" unicode="&#x21a;" horiz-adv-x="1019" 
d="M231 -395l-6 35q42 18 62 39.5t30 64.5h-41l29 113h94l-24 -95q-20 -74 -51.5 -108t-92.5 -49zM342 0l334 1372h-424l16 62h918l-17 -62h-424l-335 -1372h-68z" />
    <glyph glyph-name="tcommaaccent" unicode="&#x163;" horiz-adv-x="665" 
d="M115 -395l-6 35q42 18 62 39.5t30 64.5h-41l28 113h95l-25 -95q-20 -74 -51 -108t-92 -49zM334 -14q-94 0 -147.5 44t-53.5 128q0 34 17 104l174 725h-138l15 60h137l82 331h63l-80 -331h304l-15 -60h-305l-176 -731q-12 -50 -12 -90q0 -121 147 -121q52 0 125 29
l-14 -66q-61 -22 -123 -22z" />
    <glyph glyph-name="tcommaaccent" unicode="&#x21b;" horiz-adv-x="665" 
d="M115 -395l-6 35q42 18 62 39.5t30 64.5h-41l28 113h95l-25 -95q-20 -74 -51 -108t-92 -49zM334 -14q-94 0 -147.5 44t-53.5 128q0 34 17 104l174 725h-138l15 60h137l82 331h63l-80 -331h304l-15 -60h-305l-176 -731q-12 -50 -12 -90q0 -121 147 -121q52 0 125 29
l-14 -66q-61 -22 -123 -22z" />
    <glyph glyph-name="Tcaron" unicode="&#x164;" horiz-adv-x="1019" 
d="M1034 1757l-241 -205h-58l-143 205h59l125 -139l191 139h67zM342 0l334 1372h-424l16 62h918l-17 -62h-424l-335 -1372h-68z" />
    <glyph glyph-name="tcaron" unicode="&#x165;" horiz-adv-x="665" 
d="M608 1174l103 305h71v-4l-139 -301h-35zM334 -14q-94 0 -147.5 44t-53.5 128q0 34 17 104l174 725h-138l15 60h137l82 331h63l-80 -331h304l-15 -60h-305l-176 -731q-12 -50 -12 -90q0 -121 147 -121q52 0 125 29l-14 -66q-61 -22 -123 -22z" />
    <glyph glyph-name="Umacron" unicode="&#x16a;" horiz-adv-x="1318" 
d="M647 1585l15 64h514l-15 -64h-514zM588 -20q-197 0 -313.5 104t-116.5 291q0 110 30 225l201 834h68l-207 -852q-27 -108 -27 -201q0 -163 99 -251.5t272 -88.5q184 0 313 129q125 128 185 369l215 895h67l-219 -910q-64 -254 -199 -395q-155 -149 -368 -149z" />
    <glyph glyph-name="umacron" unicode="&#x16b;" horiz-adv-x="1075" 
d="M401 -20q-136 0 -214 76t-78 216q0 77 26 187l144 588h63l-143 -590q-25 -113 -25 -181q0 -116 62 -177.5t180 -61.5q137 0 250 106t157 281l152 623h63l-254 -1047h-65l53 215q-59 -104 -153.5 -169.5t-217.5 -65.5zM451 1243l14 60h491l-14 -60h-491z" />
    <glyph glyph-name="Ubreve" unicode="&#x16c;" horiz-adv-x="1318" 
d="M897 1542q-105 0 -158 47t-43 131h54q2 -57 37.5 -86.5t117.5 -29.5q150 0 213 116h58q-31 -85 -103 -131.5t-176 -46.5zM588 -20q-197 0 -313.5 104t-116.5 291q0 110 30 225l201 834h68l-207 -852q-27 -108 -27 -201q0 -163 99 -251.5t272 -88.5q184 0 313 129
q125 128 185 369l215 895h67l-219 -910q-64 -254 -199 -395q-155 -149 -368 -149z" />
    <glyph glyph-name="ubreve" unicode="&#x16d;" horiz-adv-x="1075" 
d="M401 -20q-136 0 -214 76t-78 216q0 77 26 187l144 588h63l-143 -590q-25 -113 -25 -181q0 -116 62 -177.5t180 -61.5q137 0 250 106t157 281l152 623h63l-254 -1047h-65l53 215q-59 -104 -153.5 -169.5t-217.5 -65.5zM688 1202q-102 0 -154 55.5t-38 149.5h51
q-5 -70 30.5 -108.5t118.5 -38.5q147 0 222 147h53q-36 -96 -108.5 -150.5t-174.5 -54.5z" />
    <glyph glyph-name="Uring" unicode="&#x16e;" horiz-adv-x="1318" 
d="M588 -20q-197 0 -313.5 104t-116.5 291q0 110 30 225l201 834h68l-207 -852q-27 -108 -27 -201q0 -163 99 -251.5t272 -88.5q184 0 313 129q125 128 185 369l215 895h67l-219 -910q-64 -254 -199 -395q-155 -149 -368 -149zM952 1868q80 0 128 -43.5t48 -110.5
q0 -81 -65 -136.5t-152 -55.5q-78 0 -126 44t-48 111q0 81 63.5 136t151.5 55zM918 1567q64 0 110.5 41t46.5 102q0 51 -34 83t-93 32q-64 0 -112 -42t-48 -102q0 -50 35.5 -82t94.5 -32z" />
    <glyph glyph-name="uring" unicode="&#x16f;" horiz-adv-x="1075" 
d="M913 1391q0 -81 -61 -139t-141 -58q-77 0 -124.5 46.5t-47.5 119.5q0 81 60.5 138.5t141.5 57.5q77 0 124.5 -46t47.5 -119zM586 1362q0 -57 34 -92t93 -35q62 0 107.5 45.5t45.5 108.5q0 55 -34 89.5t-93 34.5q-62 0 -107.5 -45t-45.5 -106zM401 -20q-136 0 -214 76
t-78 216q0 77 26 187l144 588h63l-143 -590q-25 -113 -25 -181q0 -116 62 -177.5t180 -61.5q137 0 250 106t157 281l152 623h63l-254 -1047h-65l53 215q-59 -104 -153.5 -169.5t-217.5 -65.5z" />
    <glyph glyph-name="Uhungarumlaut" unicode="&#x170;" horiz-adv-x="1318" 
d="M588 -20q-197 0 -313.5 104t-116.5 291q0 110 30 225l201 834h68l-207 -852q-27 -108 -27 -201q0 -163 99 -251.5t272 -88.5q184 0 313 129q125 128 185 369l215 895h67l-219 -910q-64 -254 -199 -395q-155 -149 -368 -149zM715 1542l229 215l72 -37l-240 -178h-61z
M946 1542l228 215l69 -37l-237 -178h-60z" />
    <glyph glyph-name="uhungarumlaut" unicode="&#x171;" horiz-adv-x="1075" 
d="M401 -20q-136 0 -214 76t-78 216q0 77 26 187l144 588h63l-143 -590q-25 -113 -25 -181q0 -116 62 -177.5t180 -61.5q137 0 250 106t157 281l152 623h63l-254 -1047h-65l53 215q-59 -104 -153.5 -169.5t-217.5 -65.5zM514 1200l223 248l66 -37l-240 -211h-49zM750 1200
l225 248l65 -37l-239 -211h-51z" />
    <glyph glyph-name="Uogonek" unicode="&#x172;" horiz-adv-x="1318" 
d="M588 -20h-27q-115 -89 -115 -154t125 -74l-12 -47q-2 -2 -6 -2q-83 1 -127.5 32.5t-44.5 80.5q0 77 121 170q-161 21 -252.5 121.5t-91.5 267.5q0 110 30 225l201 834h68l-207 -852q-27 -108 -27 -201q0 -163 99 -251.5t272 -88.5q184 0 313 129q125 128 185 369l215 895
h67l-219 -910q-64 -254 -199 -395q-155 -149 -368 -149z" />
    <glyph glyph-name="uogonek" unicode="&#x173;" horiz-adv-x="1075" 
d="M401 -20q-136 0 -214 76t-78 216q0 77 26 187l144 588h63l-143 -590q-25 -113 -25 -181q0 -116 62 -177.5t180 -61.5q137 0 250 106t157 281l152 623h63l-254 -1047h-10q-75 -58 -108 -97.5t-33 -76.5q0 -65 125 -74l-13 -47q-2 -2 -6 -2q-83 1 -127.5 32.5t-44.5 80.5
t39 94.5t115 95.5l51 209q-59 -104 -153.5 -169.5t-217.5 -65.5z" />
    <glyph glyph-name="Wcircumflex" unicode="&#x174;" horiz-adv-x="1873" 
d="M371 -10l-76 1444h67l64 -1330l696 1334h56l59 -1334l702 1330h74l-772 -1444h-57l-62 1317l-694 -1317h-57zM944 1552l242 205h57l141 -205h-59l-121 142l-192 -142h-68z" />
    <glyph glyph-name="wcircumflex" unicode="&#x175;" horiz-adv-x="1462" 
d="M666 1208l245 242h47l127 -242h-51l-112 170l-199 -170h-57zM260 -8l-61 1055h63l47 -949l512 951h53l48 -951l505 949h70l-571 -1055h-58l-47 938l-508 -938h-53z" />
    <glyph glyph-name="Ycircumflex" unicode="&#x176;" horiz-adv-x="1155" 
d="M408 0l147 602l-301 832h70l278 -772l655 772h86l-722 -844l-144 -590h-69zM571 1544l242 205h57l142 -205h-60l-121 142l-192 -142h-68z" />
    <glyph glyph-name="ycircumflex" unicode="&#x177;" horiz-adv-x="1005" 
d="M346 6l-164 1041h68l145 -965l580 965h74l-639 -1047q-114 -183 -194.5 -248t-170.5 -65q-103 0 -174 59l37 51q64 -51 141 -51q66 0 134.5 56t162.5 204zM420 1204l246 242h47l127 -242h-52l-112 170l-199 -170h-57z" />
    <glyph glyph-name="Ydieresis" unicode="&#x178;" horiz-adv-x="1155" 
d="M408 0l147 602l-301 832h70l278 -772l655 772h86l-722 -844l-144 -590h-69zM623 1565l28 116h97l-29 -116h-96zM895 1565l29 116h96l-29 -116h-96z" />
    <glyph glyph-name="Zacute" unicode="&#x179;" horiz-adv-x="1140" 
d="M-27 0l11 41l1155 1331h-807l16 62h899l-8 -43l-1159 -1330h838l-15 -61h-930zM748 1550l227 215l72 -36l-240 -179h-59z" />
    <glyph glyph-name="zacute" unicode="&#x17a;" horiz-adv-x="882" 
d="M541 1204l225 248l74 -37l-244 -211h-55zM-47 0l6 39l862 950h-612l14 58h701l-6 -39l-863 -951h639l-14 -57h-727z" />
    <glyph glyph-name="Zdotaccent" unicode="&#x17b;" horiz-adv-x="1140" 
d="M743 1573l29 117h98l-28 -117h-99zM-27 0l11 41l1155 1331h-807l16 62h899l-8 -43l-1159 -1330h838l-15 -61h-930z" />
    <glyph glyph-name="zdotaccent" unicode="&#x17c;" horiz-adv-x="882" 
d="M-47 0l6 39l862 950h-612l14 58h701l-6 -39l-863 -951h639l-14 -57h-727zM543 1227l32 119h89l-31 -119h-90z" />
    <glyph glyph-name="Zcaron" unicode="&#x17d;" horiz-adv-x="1140" 
d="M1065 1757l-242 -205h-57l-143 205h59l125 -139l190 139h68zM-27 0l11 41l1155 1331h-807l16 62h899l-8 -43l-1159 -1330h838l-15 -61h-930z" />
    <glyph glyph-name="zcaron" unicode="&#x17e;" horiz-adv-x="882" 
d="M553 1208l-127 242h51l111 -168l198 168h60l-246 -242h-47zM-47 0l6 39l862 950h-612l14 58h701l-6 -39l-863 -951h639l-14 -57h-727z" />
    <glyph glyph-name="uni018F" unicode="&#x18f;" horiz-adv-x="1366" 
d="M162 473q0 121 37 279h1020q10 78 10 141q0 236 -116 369t-325 133q-204 0 -417 -156l-37 51q222 166 457 166t370 -150.5t135 -412.5q0 -197 -75 -398t-199 -325q-190 -193 -432 -193q-207 0 -317.5 138t-110.5 358zM971 209q168 160 237 481h-956q-23 -118 -23 -219
q0 -91 22 -168t65 -137t115 -93.5t165 -33.5q205 0 375 170z" />
    <glyph glyph-name="Aringacute" unicode="&#x1fa;" horiz-adv-x="1327" 
d="M-53 0l878 1380q-49 17 -75.5 55t-26.5 89q0 80 65 135t152 55q78 0 126 -43t48 -110q0 -72 -50 -124.5t-124 -64.5l199 -1372h-68l-57 418h-727l-264 -418h-76zM326 479h678l-123 875zM905 1413q63 0 110.5 41.5t47.5 101.5q0 51 -34.5 83t-94.5 32q-63 0 -110.5 -41.5
t-47.5 -103.5q0 -51 34.5 -82t94.5 -31zM944 1772l213 184l70 -37l-221 -147h-62z" />
    <glyph glyph-name="aringacute" unicode="&#x1fb;" horiz-adv-x="1003" 
d="M727 1640l213 201l68 -37l-228 -164h-53zM328 -20q-121 0 -206 74t-85 204q0 164 106 270q111 111 312 111q181 0 348 -61l12 51q19 93 19 137q0 112 -75.5 172.5t-211.5 60.5q-132 0 -254 -51l-17 60q127 53 275 53q161 0 253.5 -75t92.5 -214q0 -57 -23 -151l-149 -621
h-63l49 201q-62 -99 -159 -160t-224 -61zM340 37q149 0 265.5 104t154.5 258l31 123q-165 60 -342 60q-163 0 -256 -93q-89 -86 -89 -225q0 -107 67 -167t169 -60zM887 1405q0 -81 -61 -139t-142 -58q-77 0 -124.5 46.5t-47.5 119.5q0 81 61 139t142 58q77 0 124.5 -46.5
t47.5 -119.5zM559 1376q0 -57 34 -92t93 -35q62 0 108 45.5t46 108.5q0 55 -34 90t-93 35q-62 0 -108 -45.5t-46 -106.5z" />
    <glyph glyph-name="AEacute" unicode="&#x1fc;" horiz-adv-x="1775" 
d="M1221 1550l227 215l72 -36l-240 -179h-59zM-96 0l1093 1434h893l-16 -62h-750l-151 -618h678l-15 -64h-678l-153 -629h758l-15 -61h-825l100 418h-522l-317 -418h-80zM348 479h490l219 893h-31z" />
    <glyph glyph-name="aeacute" unicode="&#x1fd;" horiz-adv-x="1714" 
d="M944 1204l225 248l74 -37l-244 -211h-55zM1169 -20q-142 0 -238.5 70.5t-131.5 199.5q-195 -270 -461 -270q-129 0 -215 74.5t-86 205.5q0 168 106 268q111 111 314 111q179 0 346 -61l12 51q19 93 19 137q0 112 -75.5 172.5t-211.5 60.5q-132 0 -254 -51l-17 60
q127 53 275 53q152 0 244 -70t96 -198q69 121 179 197.5t235 76.5q160 0 243.5 -104.5t83.5 -268.5q0 -91 -28 -194h-758q-6 -53 -6 -103q0 -169 88 -262.5t241 -93.5q158 0 299 111l35 -50q-158 -122 -334 -122zM346 37q249 0 438 285q-11 87 7 198q-170 62 -342 62
q-163 0 -256 -93q-89 -86 -89 -223q0 -107 68 -168t174 -61zM1030 887q-121 -121 -172 -328h694q17 91 17 133q0 138 -66.5 227t-199.5 89q-152 0 -273 -121z" />
    <glyph glyph-name="Oslashacute" unicode="&#x1fe;" horiz-adv-x="1439" 
d="M877 1456q251 0 391 -196l190 186h82l-242 -238q76 -134 76 -319q0 -195 -75 -394t-203 -327q-191 -191 -437 -191q-251 0 -389 193l-192 -182h-82l242 235q-74 133 -74 320q0 194 74 394.5t200 326.5q192 192 439 192zM231 545q0 -156 56 -271l934 938q-58 87 -147 135
t-200 48q-218 0 -385 -172q-119 -116 -188.5 -306t-69.5 -372zM662 39q217 0 387 170q118 121 188 309.5t70 370.5q0 149 -58 268l-932 -938q56 -87 144.5 -133.5t200.5 -46.5zM918 1563l227 215l72 -37l-240 -178h-59z" />
    <glyph glyph-name="oslashacute" unicode="&#x1ff;" horiz-adv-x="1097" 
d="M627 1067q189 0 295 -137l133 127h78l-181 -174q60 -102 60 -240q0 -148 -53 -283.5t-150 -232.5q-147 -147 -340 -147q-191 0 -295 135l-131 -125h-78l178 172q-59 103 -59 241q0 144 54 282t151 235q147 147 338 147zM623 1008q-164 0 -287 -129q-86 -86 -135 -212.5
t-49 -260.5q0 -113 41 -197l681 674q-86 125 -251 125zM944 639q0 109 -43 197l-682 -676q89 -121 254 -121q160 0 287 127q86 86 135 212.5t49 260.5zM666 1206l225 248l74 -37l-244 -211h-55z" />
    <glyph glyph-name="Scommaaccent" unicode="&#x218;" horiz-adv-x="1101" 
d="M248 -395l-6 35q42 18 62 39.5t30 64.5h-41l29 113h94l-25 -95q-20 -74 -51 -108t-92 -49zM508 -18q-153 0 -276 68.5t-207 185.5l53 40q174 -233 436 -233q159 0 262 94.5t103 220.5q0 57 -18.5 104t-62 89.5t-86.5 74t-120 79.5q-79 48 -130 85.5t-96 83.5t-66 98
t-21 113q0 140 102 242q125 125 321 125q128 0 237.5 -57t184.5 -146l-51 -45q-71 84 -167.5 135.5t-207.5 51.5q-157 0 -254.5 -90t-97.5 -211q0 -51 19 -95t61 -85t88 -73.5t119 -76.5q79 -47 132 -86.5t97 -87.5t65 -102.5t21 -118.5q0 -149 -110 -259
q-127 -124 -330 -124z" />
    <glyph glyph-name="scommaaccent" unicode="&#x219;" horiz-adv-x="856" 
d="M129 -395l-6 35q42 18 62 39.5t30 64.5h-41l29 113h94l-25 -95q-20 -74 -51 -108t-92 -49zM365 -16q-104 0 -201 48.5t-166 131.5l49 45q146 -166 324 -166q108 0 182 65t74 152q0 71 -47.5 124t-163.5 122q-128 74 -184 137t-56 152q0 112 89.5 190t230.5 78
q90 0 175 -43t148 -113l-49 -45q-129 142 -278 142q-111 0 -179.5 -61t-68.5 -144q0 -68 47.5 -120.5t165.5 -119.5q124 -72 179.5 -138.5t55.5 -156.5q0 -115 -93.5 -197.5t-233.5 -82.5z" />
    <glyph glyph-name="schwa" unicode="&#x259;" 
d="M80 350q3 96 31 195h757q9 49 9 102q0 168 -89.5 263.5t-240.5 95.5q-156 0 -299 -113l-35 49q159 123 336 123q179 0 286 -110t107 -304q0 -149 -56 -290t-153 -238q-143 -146 -321 -146q-160 0 -246 105.5t-86 267.5zM684 158q123 123 172 327h-692q-19 -78 -19 -133
q0 -139 67 -227t200 -88q148 0 272 121z" />
    <glyph glyph-name="circumflex" unicode="&#x2c6;" 
d="M473 1208l246 242h47l127 -242h-51l-113 170l-199 -170h-57z" />
    <glyph glyph-name="caron" unicode="&#x2c7;" 
d="M657 1208l-127 242h52l110 -168l199 168h59l-245 -242h-48z" />
    <glyph glyph-name="breve" unicode="&#x2d8;" 
d="M686 1206q-102 0 -154 55.5t-38 149.5h51q-5 -70 30.5 -108.5t118.5 -38.5q146 0 221 147h54q-36 -96 -108.5 -150.5t-174.5 -54.5z" />
    <glyph glyph-name="dotaccent" unicode="&#x2d9;" 
d="M639 1227l33 119h88l-31 -119h-90z" />
    <glyph glyph-name="ring" unicode="&#x2da;" 
d="M913 1405q0 -81 -61 -139t-141 -58q-77 0 -124.5 46.5t-47.5 119.5q0 81 61 139t141 58q77 0 124.5 -46.5t47.5 -119.5zM586 1376q0 -57 34 -92t93 -35q62 0 107.5 45.5t45.5 108.5q0 55 -34 90t-93 35q-62 0 -107.5 -45.5t-45.5 -106.5z" />
    <glyph glyph-name="ogonek" unicode="&#x2db;" 
d="M446 -248l-12 -47q-2 -2 -6 -2q-83 1 -127.5 32.5t-44.5 80.5q0 50 41.5 96t128.5 106l43 -14q-78 -59 -112.5 -100t-34.5 -78q0 -65 124 -74z" />
    <glyph glyph-name="tilde" unicode="&#x2dc;" 
d="M930 1395l43 -13q-64 -163 -164 -163q-46 0 -119 55q-3 2 -13.5 9.5t-14 9.5t-12 8t-12.5 8t-11.5 5.5t-12 5t-10.5 2.5t-12 1q-32 0 -58 -25.5t-55 -87.5l-45 13q35 86 74 124.5t90 38.5q28 0 53.5 -13.5t65.5 -41.5q62 -49 98 -49q31 0 58 26t57 87z" />
    <glyph glyph-name="hungarumlaut" unicode="&#x2dd;" 
d="M436 1204l223 248l66 -37l-240 -211h-49zM672 1204l225 248l66 -37l-240 -211h-51z" />
    <glyph glyph-name="commaaccent" unicode="&#x326;" 
d="M233 -395l-6 35q42 18 62 39.5t30 64.5h-40l28 113h94l-24 -95q-20 -74 -51.5 -108t-92.5 -49z" />
    <glyph glyph-name="uni0384" unicode="&#x384;" horiz-adv-x="1024" 
d="M596 1204l192 275l74 -33l-213 -242h-53z" />
    <glyph glyph-name="uni0385" unicode="&#x385;" horiz-adv-x="1024" 
d="M809 1227l29 116h90l-29 -116h-90zM475 1227l27 116h92l-31 -116h-88zM631 1227l141 286l74 -20l-166 -266h-49z" />
    <glyph glyph-name="uni0386" unicode="&#x386;" horiz-adv-x="1327" 
d="M-53 0l917 1444h66l209 -1444h-68l-57 418h-727l-264 -418h-76zM326 479h678l-123 875zM328 1108l121 328h86l-160 -328h-47z" />
    <glyph glyph-name="uni0387" unicode="&#x387;" horiz-adv-x="368" 
d="M233 913l31 131h94l-32 -131h-93z" />
    <glyph glyph-name="uni0388" unicode="&#x388;" horiz-adv-x="1128" 
d="M55 1106l121 328h86l-160 -328h-47zM57 0l351 1434h835l-14 -62h-768l-152 -618h695l-15 -64h-694l-156 -629h779l-17 -61h-844z" />
    <glyph glyph-name="uni0389" unicode="&#x389;" horiz-adv-x="1325" 
d="M57 0l351 1434h67l-166 -680h819l166 680h70l-350 -1434h-70l168 690h-819l-168 -690h-68zM55 1106l121 328h86l-160 -328h-47z" />
    <glyph glyph-name="uni038A" unicode="&#x38a;" horiz-adv-x="462" 
d="M72 0l350 1434h67l-350 -1434h-67zM61 1106l121 328h86l-159 -328h-48z" />
    <glyph glyph-name="uni038C" unicode="&#x38c;" horiz-adv-x="1439" 
d="M59 1114l121 328h86l-160 -328h-47zM877 1456q224 0 360.5 -156.5t136.5 -410.5q0 -196 -74.5 -394t-203.5 -327q-198 -191 -437 -191q-223 0 -359 156.5t-136 409.5q0 196 73.5 395.5t202.5 325.5q192 192 437 192zM662 39q215 0 385 170q120 120 190 307.5t70 372.5
q0 225 -120.5 365.5t-312.5 140.5q-213 0 -385 -172q-120 -120 -189 -307.5t-69 -370.5q0 -227 118.5 -366.5t312.5 -139.5z" />
    <glyph glyph-name="uni038E" unicode="&#x38e;" horiz-adv-x="1155" 
d="M408 0l147 602l-301 832h70l278 -772l655 772h86l-722 -844l-144 -590h-69zM-33 1106l121 328h86l-160 -328h-47z" />
    <glyph glyph-name="uni038F" unicode="&#x38f;" horiz-adv-x="1462" 
d="M889 1395q-246 0 -416 -170q-201 -204 -201 -547q0 -326 238 -623l-14 -55h-486l15 61l405 -2q-225 302 -225 621q0 367 217 584q189 192 469 192q236 0 373 -141.5t137 -380.5q0 -236 -139.5 -451.5t-399.5 -423.5l410 2l-17 -61h-507l14 55q569 426 569 875
q0 211 -115.5 338t-326.5 127zM49 1114l121 328h86l-160 -328h-47z" />
    <glyph glyph-name="uni0390" unicode="&#x390;" horiz-adv-x="462" 
d="M506 1227l29 116h90l-29 -116h-90zM172 1227l27 116h92l-31 -116h-88zM328 1227l141 286l74 -20l-166 -266h-49zM82 139q0 31 20 129l189 779h65l-192 -793q-17 -70 -17 -109q0 -96 103 -96q46 0 80 10l-15 -61q-38 -10 -75 -10q-77 0 -117.5 39t-40.5 112z" />
    <glyph glyph-name="uni0391" unicode="&#x391;" horiz-adv-x="1327" 
d="M-53 0l917 1444h66l209 -1444h-68l-57 418h-727l-264 -418h-76zM326 479h678l-123 875z" />
    <glyph glyph-name="uni0392" unicode="&#x392;" horiz-adv-x="1249" 
d="M57 0l351 1434h395q187 0 297 -87t110 -231q0 -87 -32.5 -158.5t-88 -118.5t-121.5 -76t-139 -40q129 -30 201 -105.5t72 -193.5q0 -192 -151.5 -308t-413.5 -116h-480zM139 61h402q238 0 365.5 99t127.5 264q0 126 -100 197t-272 71h-367zM309 756h353q225 0 353 96
t128 256q0 126 -92 195t-254 69h-338z" />
    <glyph glyph-name="uni0393" unicode="&#x393;" horiz-adv-x="1009" 
d="M57 0l351 1434h776l-17 -62h-708l-334 -1372h-68z" />
    <glyph glyph-name="uni0394" unicode="&#x394;" horiz-adv-x="1329" 
d="M928 1444l215 -1393l-19 -51h-1157l2 51l893 1393h66zM877 1352l-826 -1291h1020z" />
    <glyph glyph-name="uni0395" unicode="&#x395;" horiz-adv-x="1128" 
d="M57 0l351 1434h835l-14 -62h-768l-152 -618h695l-15 -64h-694l-156 -629h779l-17 -61h-844z" />
    <glyph glyph-name="uni0396" unicode="&#x396;" horiz-adv-x="1140" 
d="M-27 0l11 41l1155 1331h-807l16 62h899l-8 -43l-1159 -1330h838l-15 -61h-930z" />
    <glyph glyph-name="uni0397" unicode="&#x397;" horiz-adv-x="1325" 
d="M57 0l351 1434h67l-166 -680h819l166 680h70l-350 -1434h-70l168 690h-819l-168 -690h-68z" />
    <glyph glyph-name="uni0398" unicode="&#x398;" horiz-adv-x="1441" 
d="M164 545q0 195 73.5 394t202.5 325q192 192 437 192q223 0 360 -156.5t137 -410.5q0 -195 -74 -394t-202 -327q-198 -191 -439 -191q-222 0 -358.5 157t-136.5 411zM231 547q0 -228 118.5 -368t312.5 -140q215 0 385 170q121 121 190.5 307.5t69.5 370.5q0 228 -119 368
t-314 140q-210 0 -385 -170q-120 -120 -189 -307.5t-69 -370.5zM1108 754l-14 -64h-664l14 64h664z" />
    <glyph glyph-name="uni0399" unicode="&#x399;" horiz-adv-x="462" 
d="M72 0l350 1434h67l-350 -1434h-67z" />
    <glyph glyph-name="uni039A" unicode="&#x39a;" horiz-adv-x="1220" 
d="M57 0l351 1434h67l-229 -926l1009 926h93l-686 -625l362 -809h-74l-342 762l-385 -350l-98 -412h-68z" />
    <glyph glyph-name="uni039B" unicode="&#x39b;" horiz-adv-x="1296" 
d="M909 1444l197 -1444h-70l-178 1346l-833 -1346h-78l901 1444h61z" />
    <glyph glyph-name="uni039C" unicode="&#x39c;" horiz-adv-x="1513" 
d="M57 0l351 1434h61l293 -869l717 869h73l-350 -1434h-65l317 1307l-715 -867h-6l-291 867l-319 -1307h-66z" />
    <glyph glyph-name="uni039D" unicode="&#x39d;" horiz-adv-x="1368" 
d="M57 0l351 1434h63l549 -1313l323 1313h64l-350 -1434h-56l-555 1327l-323 -1327h-66z" />
    <glyph glyph-name="uni039E" unicode="&#x39e;" horiz-adv-x="1120" 
d="M907 63l-16 -63h-918l15 63h919zM1233 1434l-14 -64h-904l17 64h901zM1020 754l-16 -64h-805l14 64h807z" />
    <glyph glyph-name="uni039F" unicode="&#x39f;" horiz-adv-x="1439" 
d="M877 1456q224 0 360.5 -156.5t136.5 -410.5q0 -196 -74.5 -394t-203.5 -327q-198 -191 -437 -191q-223 0 -359 156.5t-136 409.5q0 196 73.5 395.5t202.5 325.5q192 192 437 192zM662 39q215 0 385 170q120 120 190 307.5t70 372.5q0 225 -120.5 365.5t-312.5 140.5
q-213 0 -385 -172q-120 -120 -189 -307.5t-69 -370.5q0 -227 118.5 -366.5t312.5 -139.5z" />
    <glyph glyph-name="uni03A0" unicode="&#x3a0;" horiz-adv-x="1318" 
d="M57 0l351 1434h950l-350 -1434h-68l336 1372h-817l-334 -1372h-68z" />
    <glyph glyph-name="uni03A1" unicode="&#x3a1;" horiz-adv-x="1163" 
d="M57 0l351 1434h335q244 0 361 -117q94 -94 94 -256q0 -205 -135 -340q-172 -172 -502 -172h-301l-135 -549h-68zM1051 1274q-94 98 -312 98h-280l-185 -762h291q297 0 447 150q118 118 118 301q0 137 -79 213z" />
    <glyph glyph-name="uni03A3" unicode="&#x3a3;" horiz-adv-x="1134" 
d="M764 711l-670 -650h830l-15 -61h-925l10 49l692 672l-362 663l12 50h905l-16 -62h-824z" />
    <glyph glyph-name="uni03A4" unicode="&#x3a4;" horiz-adv-x="1019" 
d="M342 0l334 1372h-424l16 62h918l-17 -62h-424l-335 -1372h-68z" />
    <glyph glyph-name="uni03A5" unicode="&#x3a5;" horiz-adv-x="1155" 
d="M408 0l147 602l-301 832h70l278 -772l655 772h86l-722 -844l-144 -590h-69z" />
    <glyph glyph-name="uni03A6" unicode="&#x3a6;" horiz-adv-x="1611" 
d="M1004 1468h67l-45 -184q243 -20 386.5 -149.5t143.5 -333.5q0 -252 -172 -430q-213 -213 -608 -213h-12h-12l-47 -189h-68l47 191q-243 20 -385.5 149.5t-142.5 337.5q0 250 172 428q213 213 608 213h12h10zM223 647q0 -185 126 -297t349 -129l248 1006h-16
q-362 0 -553 -191q-76 -76 -115 -178.5t-39 -210.5zM1489 801q0 181 -129 293t-348 129l-248 -1004h2h16q358 0 551 193q76 76 116 178.5t40 210.5z" />
    <glyph glyph-name="uni03A7" unicode="&#x3a7;" horiz-adv-x="1179" 
d="M-47 0l647 739l-305 695h72l280 -650l572 650h81l-622 -707l317 -727h-71l-295 682l-596 -682h-80z" />
    <glyph glyph-name="uni03A8" unicode="&#x3a8;" horiz-adv-x="1523" 
d="M946 1434h68l-242 -988h8h8q162 0 273 34.5t188 111.5q102 94 150 293l133 549h67l-137 -560q-54 -215 -162 -323q-86 -86 -212.5 -126t-307.5 -40h-8h-16l-92 -385h-68l94 387q-467 26 -467 383q0 99 39 252l98 412h68l-102 -426q-33 -129 -33 -236q0 -162 102.5 -238.5
t309.5 -87.5z" />
    <glyph glyph-name="uni03A9" unicode="&#x3a9;" horiz-adv-x="1462" 
d="M889 1395q-246 0 -416 -170q-201 -204 -201 -547q0 -326 238 -623l-14 -55h-486l15 61l405 -2q-225 302 -225 621q0 367 217 584q189 192 469 192q236 0 373 -141.5t137 -380.5q0 -236 -139.5 -451.5t-399.5 -423.5l410 2l-17 -61h-507l14 55q569 426 569 875
q0 211 -115.5 338t-326.5 127z" />
    <glyph glyph-name="uni03AA" unicode="&#x3aa;" horiz-adv-x="462" 
d="M72 0l350 1434h67l-350 -1434h-67zM309 1573l29 117h96l-28 -117h-97zM582 1573l28 117h97l-29 -117h-96z" />
    <glyph glyph-name="uni03AB" unicode="&#x3ab;" horiz-adv-x="1155" 
d="M408 0l147 602l-301 832h70l278 -772l655 772h86l-722 -844l-144 -590h-69zM623 1565l28 116h97l-29 -116h-96zM895 1565l29 116h96l-29 -116h-96z" />
    <glyph glyph-name="uni03AC" unicode="&#x3ac;" horiz-adv-x="1212" 
d="M678 1206l192 275l74 -33l-213 -242h-53zM438 -20q-155 0 -250.5 113t-95.5 294q0 151 55 298.5t152 244.5q137 137 313 137q79 0 144 -28t107 -75t67.5 -100.5t36.5 -111.5l71 295h66l-193 -793q-16 -66 -16 -109q0 -52 26 -74t78 -22q46 0 80 10l-14 -61
q-42 -10 -76 -10q-78 0 -119 39.5t-41 111.5q0 31 13 88q-65 -105 -172.5 -176t-231.5 -71zM449 39q159 0 288 129q87 87 140 217.5t53 257.5q0 157 -86 261t-230 104q-149 0 -266 -117q-88 -88 -138 -223.5t-50 -274.5q0 -157 79.5 -255.5t209.5 -98.5z" />
    <glyph glyph-name="uni03AD" unicode="&#x3ad;" horiz-adv-x="942" 
d="M592 1206l192 275l74 -33l-213 -242h-53zM352 541q-77 27 -121.5 84.5t-44.5 140.5q0 124 105.5 212.5t281.5 88.5q205 0 365 -137l-41 -47q-142 125 -328 125q-148 0 -231.5 -70.5t-83.5 -173.5q0 -94 67.5 -148.5t188.5 -54.5h182l-14 -59h-205q-168 0 -260 -68.5
t-92 -181.5q0 -99 76 -156t221 -57q176 0 346 90l27 -51q-179 -98 -375 -98q-179 0 -271 73.5t-92 194.5q0 119 82 195.5t217 97.5z" />
    <glyph glyph-name="uni03AE" unicode="&#x3ae;" horiz-adv-x="1077" 
d="M678 1206l192 275l74 -33l-213 -242h-53zM37 0l254 1047h63l-51 -216q59 104 153.5 170t217.5 66q136 0 214.5 -77.5t78.5 -215.5q0 -72 -27 -186l-217 -895h-64l220 897q22 99 22 180q0 114 -62.5 176t-179.5 62q-134 0 -251 -108t-156 -279l-152 -621h-63z" />
    <glyph glyph-name="uni03AF" unicode="&#x3af;" horiz-adv-x="462" 
d="M322 1204l192 275l74 -33l-213 -242h-53zM82 139q0 31 20 129l189 779h65l-192 -793q-17 -70 -17 -109q0 -96 103 -96q46 0 80 10l-15 -61q-38 -10 -75 -10q-77 0 -117.5 39t-40.5 112z" />
    <glyph glyph-name="uni03B0" unicode="&#x3b0;" horiz-adv-x="1077" 
d="M827 1223l29 116h90l-28 -116h-91zM494 1223l26 116h92l-30 -116h-88zM649 1223l142 286l73 -20l-166 -266h-49zM444 -20q-157 0 -245 75.5t-88 220.5q0 65 28 193l137 578h64l-141 -594q-25 -116 -25 -174q0 -116 71 -178t201 -62q157 0 259 102q81 76 131 262l153 644
h64l-158 -662q-51 -193 -143 -285q-126 -120 -308 -120z" />
    <glyph glyph-name="uni03B1" unicode="&#x3b1;" horiz-adv-x="1212" 
d="M438 -20q-155 0 -250.5 113t-95.5 294q0 151 55 298.5t152 244.5q137 137 313 137q79 0 144 -28t107 -75t67.5 -100.5t36.5 -111.5l71 295h66l-193 -793q-16 -66 -16 -109q0 -52 26 -74t78 -22q46 0 80 10l-14 -61q-42 -10 -76 -10q-78 0 -119 39.5t-41 111.5q0 31 13 88
q-65 -105 -172.5 -176t-231.5 -71zM449 39q159 0 288 129q87 87 140 217.5t53 257.5q0 157 -86 261t-230 104q-149 0 -266 -117q-88 -88 -138 -223.5t-50 -274.5q0 -157 79.5 -255.5t209.5 -98.5z" />
    <glyph glyph-name="uni03B2" unicode="&#x3b2;" horiz-adv-x="1122" 
d="M575 -20q-161 0 -265.5 88t-133.5 225l-149 -600h-64l328 1349q53 211 164 322q125 125 311 125q159 0 252.5 -91.5t93.5 -234.5q0 -168 -116 -284t-298 -146q133 -33 210 -121t77 -221q0 -107 -49 -200t-144 -152t-217 -59zM575 39q152 0 247.5 106.5t95.5 243.5
q0 149 -106.5 235.5t-303.5 86.5h-234l-43 -181q-16 -94 -16 -133q0 -67 23 -129.5t66.5 -114.5t113.5 -83t157 -31zM352 1028l-63 -262h250q260 0 401 135q104 107 104 260q0 121 -74.5 195t-205.5 74q-152 0 -262 -107q-98 -98 -150 -295z" />
    <glyph glyph-name="uni03B3" unicode="&#x3b3;" horiz-adv-x="987" 
d="M311 -307h-65l78 321l-138 1033h66l121 -959l588 959h73l-647 -1041z" />
    <glyph glyph-name="uni03B4" unicode="&#x3b4;" horiz-adv-x="1085" 
d="M510 1421l233 -305q123 -162 179.5 -299.5t56.5 -279.5q0 -126 -40 -236t-118 -186q-135 -135 -325 -135q-184 0 -296 116.5t-112 306.5q0 228 142.5 401.5t447.5 293.5l-252 334l12 47h670l-14 -58h-584zM911 537q0 131 -45.5 253t-148.5 261q-563 -217 -563 -648
q0 -163 94 -263.5t248 -100.5q163 0 278 115q68 70 102.5 170t34.5 213z" />
    <glyph glyph-name="uni03B5" unicode="&#x3b5;" horiz-adv-x="942" 
d="M352 541q-77 27 -121.5 84.5t-44.5 140.5q0 124 105.5 212.5t281.5 88.5q205 0 365 -137l-41 -47q-142 125 -328 125q-148 0 -231.5 -70.5t-83.5 -173.5q0 -94 67.5 -148.5t188.5 -54.5h182l-14 -59h-205q-168 0 -260 -68.5t-92 -181.5q0 -99 76 -156t221 -57
q176 0 346 90l27 -51q-179 -98 -375 -98q-179 0 -271 73.5t-92 194.5q0 119 82 195.5t217 97.5z" />
    <glyph glyph-name="uni03B6" unicode="&#x3b6;" horiz-adv-x="931" 
d="M1106 1432l-631 -584q-198 -180 -264 -268.5t-66 -190.5q0 -106 70 -169.5t250 -106.5l289 -74l-74 -299h-64l64 252l-238 61q-196 50 -280 128t-84 204q0 62 16.5 112.5t63.5 112t105 119.5t167 158l576 532h-594l14 60h690z" />
    <glyph glyph-name="uni03B7" unicode="&#x3b7;" horiz-adv-x="1077" 
d="M37 0l254 1047h63l-51 -216q59 104 153.5 170t217.5 66q136 0 214.5 -77.5t78.5 -215.5q0 -72 -27 -186l-217 -895h-64l220 897q22 99 22 180q0 114 -62.5 176t-179.5 62q-134 0 -251 -108t-156 -279l-152 -621h-63z" />
    <glyph glyph-name="uni03B8" unicode="&#x3b8;" horiz-adv-x="1150" 
d="M477 -20q-158 0 -247 120t-89 351q0 238 86.5 493.5t227.5 396.5q142 142 317 142q158 0 246 -120t88 -351q0 -241 -84.5 -496t-224.5 -395q-147 -141 -320 -141zM477 39q79 0 144.5 29t130.5 96q83 83 148 227.5t104 313.5h-771q-24 -132 -24 -252q0 -197 67 -305.5
t201 -108.5zM498 1298q-84 -86 -150 -228t-102 -306h770q24 126 24 244q0 195 -68.5 305t-201.5 110q-75 0 -140 -29.5t-132 -95.5z" />
    <glyph glyph-name="uni03B9" unicode="&#x3b9;" horiz-adv-x="462" 
d="M82 139q0 31 20 129l189 779h65l-192 -793q-17 -70 -17 -109q0 -96 103 -96q46 0 80 10l-15 -61q-38 -10 -75 -10q-77 0 -117.5 39t-40.5 112z" />
    <glyph glyph-name="uni03BA" unicode="&#x3ba;" horiz-adv-x="966" 
d="M776 0h-71l-242 549l-295 -270l-68 -279h-63l254 1047h63l-164 -676l734 676h88l-500 -455z" />
    <glyph glyph-name="uni03BB" unicode="&#x3bb;" horiz-adv-x="1001" 
d="M33 0h-76l672 1081l-13 111q-11 92 -22.5 134t-36.5 65q-32 32 -90 32q-34 0 -88 -14l12 61q50 13 86 13q85 0 129 -47q31 -31 48 -85t28 -149l131 -1202h-63l-109 989z" />
    <glyph glyph-name="uni03BC" unicode="&#x3bc;" horiz-adv-x="1165" 
d="M455 -23q-128 0 -207.5 71.5t-93.5 195.5h-2q-37 -185 -62 -285l-65 -266h-64l330 1354h63l-141 -588q-20 -73 -20 -146q0 -129 70.5 -201.5t195.5 -72.5q135 0 233 87t139 249l162 672h64l-191 -793q-16 -66 -16 -109q0 -52 26 -74t78 -22q44 0 78 10l-14 -61
q-42 -10 -74 -10q-78 0 -119 39.5t-41 111.5q0 19 2 29q-120 -191 -331 -191z" />
    <glyph glyph-name="uni03BD" unicode="&#x3bd;" horiz-adv-x="987" 
d="M328 -8l-142 1055h68l119 -963l588 963h73l-653 -1055h-53z" />
    <glyph glyph-name="uni03BE" unicode="&#x3be;" horiz-adv-x="925" 
d="M743 39l-73 -299h-64l64 252l-183 45q-214 51 -312.5 133.5t-98.5 222.5q0 153 103.5 253.5t307.5 129.5q-92 39 -146 116t-54 189q0 105 49.5 196.5t149 151.5t229.5 60q213 0 362 -160l-47 -47q-132 145 -315 145q-112 0 -196 -51t-124.5 -128.5t-40.5 -166.5
q0 -138 88.5 -214t227.5 -76h131l-13 -60h-165q-236 0 -358 -89t-122 -247q0 -116 85 -184.5t284 -116.5z" />
    <glyph glyph-name="uni03BF" unicode="&#x3bf;" horiz-adv-x="1097" 
d="M627 1067q172 0 278.5 -117.5t106.5 -306.5q0 -148 -53 -283.5t-150 -232.5q-147 -147 -340 -147q-172 0 -278.5 117t-106.5 306q0 144 54 282t151 235q147 147 338 147zM473 39q160 0 287 127q85 85 134.5 213t49.5 260q0 167 -87 268t-234 101q-164 0 -287 -129
q-86 -86 -135 -212.5t-49 -260.5q0 -167 87 -267t234 -100z" />
    <glyph glyph-name="uni03C0" unicode="&#x3c0;" horiz-adv-x="1222" 
d="M795 139q0 31 20 129l174 719h-559l-240 -987h-63l240 987h-205l12 60h1104l-14 -60h-209l-178 -733q-17 -70 -17 -109q0 -96 103 -96q45 0 79 10l-14 -61q-38 -10 -76 -10q-77 0 -117 39t-40 112z" />
    <glyph glyph-name="uni03C1" unicode="&#x3c1;" horiz-adv-x="1118" 
d="M506 -20q-79 0 -143 27.5t-105.5 74t-67 100t-36.5 111.5l-148 -600h-65l211 862q32 132 73 222.5t109 158.5q131 131 319 131q172 0 273.5 -112t101.5 -304q0 -147 -58 -295t-151 -241q-141 -135 -313 -135zM504 39q153 0 268 115q85 85 137 223.5t52 275.5
q0 162 -82 258.5t-228 96.5q-155 0 -276 -115q-81 -85 -130.5 -232.5t-49.5 -269.5q0 -151 83 -251.5t226 -100.5z" />
    <glyph glyph-name="uni03C2" unicode="&#x3c2;" horiz-adv-x="940" 
d="M719 35l-72 -295h-63l61 252l-174 51q-188 55 -280.5 159.5t-92.5 270.5q0 125 46.5 245.5t131.5 205.5q143 143 334 143q204 0 334 -178l-51 -41q-119 158 -285 158q-161 0 -282 -121q-73 -73 -116.5 -183.5t-43.5 -226.5q0 -151 84 -240t264 -139z" />
    <glyph glyph-name="uni03C3" unicode="&#x3c3;" horiz-adv-x="1130" 
d="M473 -20q-172 0 -278.5 116t-106.5 303q0 143 51.5 275.5t143.5 224.5q151 148 370 148h510l-14 -60l-340 2q91 -49 145 -145.5t54 -227.5q0 -137 -51 -269.5t-138 -219.5q-150 -147 -346 -147zM477 39q165 0 295 127q76 76 122 201t46 251q0 164 -85 266.5t-220 102.5
q-177 0 -305 -131q-79 -79 -126.5 -202.5t-47.5 -252.5q0 -165 86.5 -263.5t234.5 -98.5z" />
    <glyph glyph-name="uni03C4" unicode="&#x3c4;" horiz-adv-x="921" 
d="M991 1047l-14 -60h-389l-164 -680q-18 -73 -18 -123q0 -137 149 -137q55 0 131 21l-14 -62q-56 -20 -123 -20q-97 0 -152 48t-55 144q0 60 20 139l162 670h-379l15 60h831z" />
    <glyph glyph-name="uni03C5" unicode="&#x3c5;" horiz-adv-x="1077" 
d="M444 -20q-157 0 -245 75.5t-88 220.5q0 65 28 193l137 578h64l-141 -594q-25 -116 -25 -174q0 -116 71 -178t201 -62q157 0 259 102q81 76 131 262l153 644h64l-158 -662q-51 -193 -143 -285q-126 -120 -308 -120z" />
    <glyph glyph-name="uni03C6" unicode="&#x3c6;" horiz-adv-x="1429" 
d="M481 -307l74 307q-216 23 -337.5 142t-121.5 304q0 256 166 416q90 90 224 139.5t298 49.5h4h23l109 428h63l-106 -432q215 -23 336.5 -143t121.5 -304q0 -250 -168 -418q-89 -89 -223 -137.5t-299 -48.5h-4h-23l-73 -303h-64zM164 446q0 -165 107 -268.5t298 -122.5
l228 938h-11h-6q-305 0 -465 -166q-151 -151 -151 -381zM1268 600q0 162 -107.5 266t-298.5 123l-229 -936h10h6q296 0 467 164q152 158 152 383z" />
    <glyph glyph-name="uni03C7" unicode="&#x3c7;" horiz-adv-x="993" 
d="M276 1047l199 -588l477 588h78l-528 -646l248 -708h-64l-231 663l-539 -663h-76l588 719l-217 635h65z" />
    <glyph glyph-name="uni03C8" unicode="&#x3c8;" horiz-adv-x="1413" 
d="M969 1479l-348 -1422h4h14q142 0 241.5 32.5t170.5 103.5q93 93 141 284l137 570h64l-142 -588q-46 -196 -157 -312q-154 -151 -461 -151h-17h-12l-74 -303h-65l78 305q-197 14 -309.5 107.5t-112.5 261.5q0 67 33 206l112 474h66l-119 -496q-27 -102 -27 -184
q0 -139 96.5 -217.5t272.5 -90.5l348 1420h66z" />
    <glyph glyph-name="uni03C9" unicode="&#x3c9;" horiz-adv-x="1574" 
d="M836 854h63l-68 -287q-26 -116 -26 -217q0 -141 59.5 -226t177.5 -85q96 0 174.5 72t122 194t43.5 266q0 233 -106 476h70q102 -254 102 -478q0 -166 -51 -300t-145 -211.5t-214 -77.5q-99 0 -164 48.5t-92.5 126t-27.5 181.5q-57 -164 -153 -260t-224 -96
q-131 0 -206 93.5t-75 260.5q0 188 96.5 376.5t241.5 336.5h86q-156 -150 -255 -341t-99 -372q0 -142 56.5 -218.5t160.5 -76.5q125 0 222.5 124.5t156.5 375.5z" />
    <glyph glyph-name="uni03CA" unicode="&#x3ca;" horiz-adv-x="462" 
d="M207 1227l29 116h92l-31 -116h-90zM461 1227l28 116h91l-29 -116h-90zM82 139q0 31 20 129l189 779h65l-192 -793q-17 -70 -17 -109q0 -96 103 -96q46 0 80 10l-15 -61q-38 -10 -75 -10q-77 0 -117.5 39t-40.5 112z" />
    <glyph glyph-name="uni03CB" unicode="&#x3cb;" horiz-adv-x="1077" 
d="M530 1223l29 116h92l-30 -116h-91zM784 1223l29 116h90l-29 -116h-90zM444 -20q-157 0 -245 75.5t-88 220.5q0 65 28 193l137 578h64l-141 -594q-25 -116 -25 -174q0 -116 71 -178t201 -62q157 0 259 102q81 76 131 262l153 644h64l-158 -662q-51 -193 -143 -285
q-126 -120 -308 -120z" />
    <glyph glyph-name="uni03CC" unicode="&#x3cc;" horiz-adv-x="1097" 
d="M653 1206l193 275l74 -33l-213 -242h-54zM627 1067q172 0 278.5 -117.5t106.5 -306.5q0 -148 -53 -283.5t-150 -232.5q-147 -147 -340 -147q-172 0 -278.5 117t-106.5 306q0 144 54 282t151 235q147 147 338 147zM473 39q160 0 287 127q85 85 134.5 213t49.5 260
q0 167 -87 268t-234 101q-164 0 -287 -129q-86 -86 -135 -212.5t-49 -260.5q0 -167 87 -267t234 -100z" />
    <glyph glyph-name="uni03CD" unicode="&#x3cd;" horiz-adv-x="1077" 
d="M643 1200l193 275l73 -33l-213 -242h-53zM444 -20q-157 0 -245 75.5t-88 220.5q0 65 28 193l137 578h64l-141 -594q-25 -116 -25 -174q0 -116 71 -178t201 -62q157 0 259 102q81 76 131 262l153 644h64l-158 -662q-51 -193 -143 -285q-126 -120 -308 -120z" />
    <glyph glyph-name="uni03CE" unicode="&#x3ce;" horiz-adv-x="1574" 
d="M893 1200l192 275l74 -33l-213 -242h-53zM836 854h63l-68 -287q-26 -116 -26 -217q0 -141 59.5 -226t177.5 -85q96 0 174.5 72t122 194t43.5 266q0 233 -106 476h70q102 -254 102 -478q0 -166 -51 -300t-145 -211.5t-214 -77.5q-99 0 -164 48.5t-92.5 126t-27.5 181.5
q-57 -164 -153 -260t-224 -96q-131 0 -206 93.5t-75 260.5q0 188 96.5 376.5t241.5 336.5h86q-156 -150 -255 -341t-99 -372q0 -142 56.5 -218.5t160.5 -76.5q125 0 222.5 124.5t156.5 375.5z" />
    <glyph glyph-name="uni0400" unicode="&#x400;" horiz-adv-x="1128" 
d="M803 1550l-162 179l72 36l135 -215h-45zM57 0l351 1434h835l-14 -62h-768l-152 -618h695l-15 -64h-694l-156 -629h779l-17 -61h-844z" />
    <glyph glyph-name="uni0401" unicode="&#x401;" horiz-adv-x="1128" 
d="M666 1573l28 117h97l-29 -117h-96zM938 1573l29 117h96l-29 -117h-96zM57 0l351 1434h835l-14 -62h-768l-152 -618h695l-15 -64h-694l-156 -629h779l-17 -61h-844z" />
    <glyph glyph-name="uni0402" unicode="&#x402;" horiz-adv-x="1449" 
d="M1272 514q0 299 -373 299q-145 0 -311 -41l-189 -772h-67l334 1372h-408l14 62h912l-17 -62h-434l-131 -534q150 36 301 36q436 0 436 -360q0 -111 -35.5 -207t-101.5 -162q-149 -149 -446 -149h-35l14 63h27q265 0 391 129q57 57 88 142.5t31 183.5z" />
    <glyph glyph-name="uni0403" unicode="&#x403;" horiz-adv-x="1009" 
d="M754 1550l227 215l72 -36l-240 -179h-59zM57 0l351 1434h776l-17 -62h-708l-334 -1372h-68z" />
    <glyph glyph-name="uni0404" unicode="&#x404;" horiz-adv-x="1255" 
d="M160 526q0 202 73.5 399t206.5 330q207 201 461 201q146 0 251 -63.5t169 -173.5l-55 -37q-126 213 -367 213q-224 0 -405 -176q-178 -181 -240 -465h735l-14 -62h-733q-13 -89 -13 -166v-2q0 -228 115 -356.5t305 -128.5q120 0 214 43.5t186 124.5l38 -45
q-94 -86 -200 -135.5t-242 -49.5q-103 0 -191.5 36.5t-154 105t-102.5 173t-37 234.5z" />
    <glyph glyph-name="uni0405" unicode="&#x405;" horiz-adv-x="1101" 
d="M508 -18q-153 0 -276 68.5t-207 185.5l53 40q174 -233 436 -233q159 0 262 94.5t103 220.5q0 57 -18.5 104t-62 89.5t-86.5 74t-120 79.5q-79 48 -130 85.5t-96 83.5t-66 98t-21 113q0 140 102 242q125 125 321 125q128 0 237.5 -57t184.5 -146l-51 -45
q-71 84 -167.5 135.5t-207.5 51.5q-157 0 -254.5 -90t-97.5 -211q0 -51 19 -95t61 -85t88 -73.5t119 -76.5q79 -47 132 -86.5t97 -87.5t65 -102.5t21 -118.5q0 -149 -110 -259q-127 -124 -330 -124z" />
    <glyph glyph-name="uni0406" unicode="&#x406;" horiz-adv-x="462" 
d="M72 0l350 1434h67l-350 -1434h-67z" />
    <glyph glyph-name="uni0407" unicode="&#x407;" horiz-adv-x="462" 
d="M72 0l350 1434h67l-350 -1434h-67zM309 1573l29 117h96l-28 -117h-97zM582 1573l28 117h97l-29 -117h-96z" />
    <glyph glyph-name="uni0408" unicode="&#x408;" horiz-adv-x="894" 
d="M295 -18q-121 0 -203 66t-119 179l60 23q74 -207 264 -207q119 0 205 86q80 77 127 264l252 1041h67l-256 -1053q-47 -197 -145 -295q-101 -104 -252 -104z" />
    <glyph glyph-name="uni0409" unicode="&#x409;" horiz-adv-x="1787" 
d="M696 0l334 1370l-1046 -1370h-80l1102 1434h108l-137 -564h256q242 0 356 -114q94 -98 94 -254q0 -199 -137 -336q-166 -166 -495 -166h-355zM1616 500q0 129 -78 213q-104 96 -311 96h-266l-181 -748h273q298 0 444 146q119 119 119 293z" />
    <glyph glyph-name="uni040A" unicode="&#x40a;" horiz-adv-x="2002" 
d="M913 0l168 690h-786l-170 -690h-68l351 1434h67l-166 -680h789l166 680h65l-139 -564h260q234 0 354 -114q94 -94 94 -254q0 -199 -137 -336q-166 -166 -495 -166h-353zM1831 500q0 133 -80 213q-104 96 -309 96h-266l-181 -748h273q298 0 444 146q119 119 119 293z" />
    <glyph glyph-name="uni040B" unicode="&#x40b;" horiz-adv-x="1484" 
d="M332 0l334 1372h-408l14 62h912l-17 -62h-434l-131 -534q153 36 328 36q193 0 302 -75.5t109 -233.5q0 -86 -26 -190l-90 -375h-68l94 385q23 104 23 176q0 252 -352 252q-163 0 -334 -41l-189 -772h-67z" />
    <glyph glyph-name="uni040C" unicode="&#x40c;" horiz-adv-x="1220" 
d="M805 1542l227 215l72 -37l-240 -178h-59zM57 0l351 1434h67l-166 -676h248l700 676h93l-738 -707l424 -727h-75l-406 696h-260l-170 -696h-68z" />
    <glyph glyph-name="uni040D" unicode="&#x40d;" horiz-adv-x="1368" 
d="M868 1542l-161 178l71 37l135 -215h-45zM1331 1434h76l-350 -1434h-68l324 1321l-1188 -1321h-68l351 1434h65l-319 -1309z" />
    <glyph glyph-name="uni040E" unicode="&#x40e;" horiz-adv-x="1179" 
d="M813 1542q-105 0 -158 47t-43 131h54q2 -57 37.5 -86.5t117.5 -29.5q150 0 213 116h58q-31 -85 -103 -131.5t-176 -46.5zM1354 1434l-1051 -1434h-78l361 489l-307 945h71l283 -885l641 885h80z" />
    <glyph glyph-name="uni040F" unicode="&#x40f;" horiz-adv-x="1318" 
d="M1358 1434l-350 -1434h-447l-65 -274h-66l68 274h-441l351 1434h67l-336 -1373h817l334 1373h68z" />
    <glyph glyph-name="uni0410" unicode="&#x410;" horiz-adv-x="1327" 
d="M-53 0l917 1444h66l209 -1444h-68l-57 418h-727l-264 -418h-76zM326 479h678l-123 875z" />
    <glyph glyph-name="uni0411" unicode="&#x411;" horiz-adv-x="1232" 
d="M1098 461q0 -176 -121 -303q-158 -158 -504 -158h-416l353 1434h839l-16 -62h-772l-144 -571h326q132 0 221.5 -25.5t147.5 -83.5q86 -89 86 -231zM1030 461q0 116 -69 188q-93 90 -320 90h-338l-164 -678h338q305 0 451 140q102 102 102 260z" />
    <glyph glyph-name="uni0412" unicode="&#x412;" horiz-adv-x="1249" 
d="M57 0l351 1434h395q187 0 297 -87t110 -231q0 -87 -32.5 -158.5t-88 -118.5t-121.5 -76t-139 -40q129 -30 201 -105.5t72 -193.5q0 -192 -151.5 -308t-413.5 -116h-480zM139 61h402q238 0 365.5 99t127.5 264q0 126 -100 197t-272 71h-367zM309 756h353q225 0 353 96
t128 256q0 126 -92 195t-254 69h-338z" />
    <glyph glyph-name="uni0413" unicode="&#x413;" horiz-adv-x="1009" 
d="M57 0l351 1434h776l-17 -62h-708l-334 -1372h-68z" />
    <glyph glyph-name="uni0414" unicode="&#x414;" horiz-adv-x="1470" 
d="M-51 61h127l852 1383h65l178 -1383h132l-84 -335h-66l68 274h-1223l-68 -274h-65zM944 1354l-792 -1293h952z" />
    <glyph glyph-name="uni0415" unicode="&#x415;" horiz-adv-x="1128" 
d="M57 0l351 1434h835l-14 -62h-768l-152 -618h695l-15 -64h-694l-156 -629h779l-17 -61h-844z" />
    <glyph glyph-name="uni0416" unicode="&#x416;" horiz-adv-x="1892" 
d="M1212 1434l-168 -676h201l690 676h90l-727 -707l416 -727h-74l-393 696h-217l-170 -696h-67l170 696h-201l-731 -696h-90l772 729l-383 705h73l367 -676h207l166 676h69z" />
    <glyph glyph-name="uni0417" unicode="&#x417;" horiz-adv-x="1159" 
d="M315 1272l-34 53q209 131 428 131q192 0 302.5 -95.5t110.5 -248.5q0 -154 -105.5 -256.5t-273.5 -136.5q250 -75 250 -320q0 -176 -139.5 -299t-357.5 -123q-280 0 -484 191l45 49q191 -178 439 -178q192 0 310 104t118 256q0 132 -92.5 212.5t-276.5 80.5h-184l16 62
h188q215 0 346.5 99.5t131.5 258.5q0 127 -91 205t-257 78q-197 0 -390 -123z" />
    <glyph glyph-name="uni0418" unicode="&#x418;" horiz-adv-x="1368" 
d="M1331 1434h76l-350 -1434h-68l324 1321l-1188 -1321h-68l351 1434h65l-319 -1309z" />
    <glyph glyph-name="uni0419" unicode="&#x419;" horiz-adv-x="1368" 
d="M920 1542q-105 0 -158 47t-43 131h53q2 -57 37.5 -86.5t118.5 -29.5q150 0 213 116h57q-31 -85 -102.5 -131.5t-175.5 -46.5zM1331 1434h76l-350 -1434h-68l324 1321l-1188 -1321h-68l351 1434h65l-319 -1309z" />
    <glyph glyph-name="uni041A" unicode="&#x41a;" horiz-adv-x="1220" 
d="M57 0l351 1434h67l-166 -676h248l700 676h93l-738 -707l424 -727h-75l-406 696h-260l-170 -696h-68z" />
    <glyph glyph-name="uni041B" unicode="&#x41b;" horiz-adv-x="1296" 
d="M909 1444l197 -1444h-70l-178 1346l-833 -1346h-78l901 1444h61z" />
    <glyph glyph-name="uni041C" unicode="&#x41c;" horiz-adv-x="1513" 
d="M57 0l351 1434h61l293 -869l717 869h73l-350 -1434h-65l317 1307l-715 -867h-6l-291 867l-319 -1307h-66z" />
    <glyph glyph-name="uni041D" unicode="&#x41d;" horiz-adv-x="1325" 
d="M57 0l351 1434h67l-166 -680h819l166 680h70l-350 -1434h-70l168 690h-819l-168 -690h-68z" />
    <glyph glyph-name="uni041E" unicode="&#x41e;" horiz-adv-x="1439" 
d="M877 1456q224 0 360.5 -156.5t136.5 -410.5q0 -196 -74.5 -394t-203.5 -327q-198 -191 -437 -191q-223 0 -359 156.5t-136 409.5q0 196 73.5 395.5t202.5 325.5q192 192 437 192zM662 39q215 0 385 170q120 120 190 307.5t70 372.5q0 225 -120.5 365.5t-312.5 140.5
q-213 0 -385 -172q-120 -120 -189 -307.5t-69 -370.5q0 -227 118.5 -366.5t312.5 -139.5z" />
    <glyph glyph-name="uni041F" unicode="&#x41f;" horiz-adv-x="1318" 
d="M57 0l351 1434h950l-350 -1434h-68l336 1372h-817l-334 -1372h-68z" />
    <glyph glyph-name="uni0420" unicode="&#x420;" horiz-adv-x="1163" 
d="M57 0l351 1434h335q244 0 361 -117q94 -94 94 -256q0 -205 -135 -340q-172 -172 -502 -172h-301l-135 -549h-68zM1051 1274q-94 98 -312 98h-280l-185 -762h291q297 0 447 150q118 118 118 301q0 137 -79 213z" />
    <glyph glyph-name="uni0421" unicode="&#x421;" horiz-adv-x="1232" 
d="M639 -23q-100 0 -187 37t-152 105t-102.5 171.5t-37.5 229.5q0 201 74 400t208 333q203 203 455 203q145 0 248 -64t164 -175l-58 -35q-125 213 -356 213q-223 0 -401 -178q-123 -128 -195 -315t-72 -382q0 -221 117 -351t301 -130q116 0 207 44t180 126l43 -47
q-196 -185 -436 -185z" />
    <glyph glyph-name="uni0422" unicode="&#x422;" horiz-adv-x="1019" 
d="M342 0l334 1372h-424l16 62h918l-17 -62h-424l-335 -1372h-68z" />
    <glyph glyph-name="uni0423" unicode="&#x423;" horiz-adv-x="1179" 
d="M1354 1434l-1051 -1434h-78l361 489l-307 945h71l283 -885l641 885h80z" />
    <glyph glyph-name="uni0424" unicode="&#x424;" horiz-adv-x="1611" 
d="M1004 1468h67l-45 -184q243 -20 386.5 -149.5t143.5 -333.5q0 -252 -172 -430q-213 -213 -608 -213h-12h-12l-47 -189h-68l47 191q-243 20 -385.5 149.5t-142.5 337.5q0 250 172 428q213 213 608 213h12h10zM223 647q0 -185 126 -297t349 -129l248 1006h-16
q-362 0 -553 -191q-76 -76 -115 -178.5t-39 -210.5zM1489 801q0 181 -129 293t-348 129l-248 -1004h2h16q358 0 551 193q76 76 116 178.5t40 210.5z" />
    <glyph glyph-name="uni0425" unicode="&#x425;" horiz-adv-x="1179" 
d="M-47 0l647 739l-305 695h72l280 -650l572 650h81l-622 -707l317 -727h-71l-295 682l-596 -682h-80z" />
    <glyph glyph-name="uni0426" unicode="&#x426;" horiz-adv-x="1345" 
d="M1358 1434l-336 -1373h135l-82 -335h-65l67 274h-1020l351 1434h67l-336 -1373h817l334 1373h68z" />
    <glyph glyph-name="uni0427" unicode="&#x427;" horiz-adv-x="1200" 
d="M821 0l146 594q-149 -35 -326 -35q-194 0 -304 75.5t-110 233.5q0 72 29 191l90 375h68l-95 -385q-24 -108 -24 -177q0 -251 352 -251q178 0 336 41l188 772h68l-350 -1434h-68z" />
    <glyph glyph-name="uni0428" unicode="&#x428;" horiz-adv-x="1982" 
d="M2021 1434l-352 -1434h-1612l351 1434h67l-336 -1373h705l338 1373h67l-338 -1373h705l338 1373h67z" />
    <glyph glyph-name="uni0429" unicode="&#x429;" horiz-adv-x="2004" 
d="M2021 1434l-338 -1373h136l-82 -335h-66l68 274h-1682l351 1434h67l-336 -1373h705l338 1373h67l-338 -1373h705l338 1373h67z" />
    <glyph glyph-name="uni042A" unicode="&#x42a;" horiz-adv-x="1439" 
d="M250 1372l14 62h484l-140 -564h275q242 0 356 -114q94 -94 94 -254q0 -199 -137 -336q-171 -166 -498 -166h-368l334 1372h-414zM1266 500q0 133 -80 213q-96 96 -309 96h-283l-182 -748h290q293 0 445 146q119 119 119 293z" />
    <glyph glyph-name="uni042B" unicode="&#x42b;" horiz-adv-x="1585" 
d="M57 0l351 1434h67l-139 -564h274q243 0 357 -114q94 -94 94 -254q0 -199 -137 -336q-171 -166 -498 -166h-369zM993 500q0 133 -80 213q-96 96 -309 96h-282l-183 -748h291q292 0 444 146q119 119 119 293zM1206 0l350 1434h68l-350 -1434h-68z" />
    <glyph glyph-name="uni042C" unicode="&#x42c;" horiz-adv-x="1165" 
d="M57 0l351 1434h67l-139 -564h274q243 0 357 -114q94 -94 94 -254q0 -199 -137 -336q-171 -166 -498 -166h-369zM993 500q0 133 -80 213q-96 96 -309 96h-282l-183 -748h291q292 0 444 146q119 119 119 293z" />
    <glyph glyph-name="uni042D" unicode="&#x42d;" horiz-adv-x="1253" 
d="M1184 895q0 -199 -71 -395.5t-200 -325.5q-194 -194 -446 -197q-149 0 -259.5 66.5t-182.5 177.5l51 37q149 -219 391 -219q221 0 393 172q179 176 236 481h-736l17 62h729q10 78 10 143v2q0 226 -114.5 360t-299.5 134q-116 0 -210.5 -42t-188.5 -122l-39 47
q199 180 438 180q215 0 348.5 -150t133.5 -411z" />
    <glyph glyph-name="uni042E" unicode="&#x42e;" horiz-adv-x="1871" 
d="M57 0l351 1434h67l-166 -680h342q31 153 94 286t158 228q188 188 424 188q216 0 345.5 -155t129.5 -410q0 -199 -71.5 -398.5t-200.5 -328.5q-187 -187 -422 -187q-216 0 -346.5 156t-130.5 410q0 83 10 147h-346l-170 -690h-68zM1108 39q211 0 371 166
q118 118 187 306.5t69 379.5q0 227 -111.5 365.5t-296.5 138.5q-207 0 -373 -166q-116 -116 -185 -306.5t-69 -379.5q0 -227 111 -365.5t297 -138.5z" />
    <glyph glyph-name="uni042F" unicode="&#x42f;" horiz-adv-x="1263" 
d="M1300 1434l-350 -1434h-69l149 606h-325q-53 0 -99 6l-530 -612h-84l545 625q-136 35 -210 125.5t-73 220.5q0 187 121 305q158 158 473 158h452zM1217 1372h-375q-281 0 -416 -135q-104 -104 -104 -264q0 -145 101 -226t290 -81h331z" />
    <glyph glyph-name="uni0430" unicode="&#x430;" horiz-adv-x="1003" 
d="M328 -20q-121 0 -206 74t-85 204q0 164 106 270q111 111 312 111q181 0 348 -61l12 51q19 93 19 137q0 112 -75.5 172.5t-211.5 60.5q-132 0 -254 -51l-17 60q127 53 275 53q161 0 253.5 -75t92.5 -214q0 -57 -23 -151l-149 -621h-63l49 201q-62 -99 -159 -160t-224 -61z
M340 37q149 0 265.5 104t154.5 258l31 123q-165 60 -342 60q-163 0 -256 -93q-89 -86 -89 -225q0 -107 67 -167t169 -60z" />
    <glyph glyph-name="uni0431" unicode="&#x431;" horiz-adv-x="1105" 
d="M510 -20q-168 0 -272 104q-119 119 -119 358q0 127 31 282t100 315t160 251q82 82 189 122t282 58l249 25l5 -61l-248 -25q-159 -13 -258.5 -50.5t-173.5 -109.5q-150 -150 -242 -512q68 137 179 209t243 72q176 0 275.5 -114t99.5 -298q0 -142 -48.5 -274.5
t-134.5 -218.5q-133 -133 -317 -133zM514 39q154 0 266 115q75 75 119.5 198.5t44.5 255.5q0 158 -82 253t-233 95q-168 0 -289 -118q-72 -72 -113 -181.5t-41 -232.5q0 -181 85 -283t243 -102z" />
    <glyph glyph-name="uni0432" unicode="&#x432;" horiz-adv-x="1038" 
d="M37 0l254 1047h348q153 0 236 -65t83 -177q0 -115 -79.5 -186.5t-194.5 -90.5q91 -23 139.5 -81t48.5 -144q0 -148 -121.5 -225.5t-312.5 -77.5h-401zM238 561h297q158 0 257 61.5t99 180.5q0 88 -65.5 136t-192.5 48h-293zM115 59h329q76 0 139.5 14t114.5 42.5t80 77
t29 112.5q0 95 -71.5 147t-205.5 52h-309z" />
    <glyph glyph-name="uni0433" unicode="&#x433;" horiz-adv-x="827" 
d="M37 0l254 1047h618l-14 -60h-553l-242 -987h-63z" />
    <glyph glyph-name="uni0434" unicode="&#x434;" horiz-adv-x="1150" 
d="M-68 59h109l635 994h65l148 -994h112l-81 -319h-62l66 260h-947l-63 -260h-61zM692 971l-579 -912h712z" />
    <glyph glyph-name="uni0435" unicode="&#x435;" 
d="M915 500h-757q-6 -52 -6 -103q0 -168 88 -262t239 -94q160 0 301 111l35 -50q-158 -122 -336 -122t-285.5 111t-107.5 302q0 149 56 290.5t153 238.5q142 145 321 145q109 0 185 -51t110.5 -133.5t34.5 -188.5q0 -96 -31 -194zM342 887q-121 -121 -172 -328h694
q17 80 17 133q0 137 -67.5 226.5t-199.5 89.5q-148 0 -272 -121z" />
    <glyph glyph-name="uni0436" unicode="&#x436;" horiz-adv-x="1503" 
d="M913 1047l-120 -492h182l485 492h84l-520 -523l291 -524h-70l-272 498h-195l-121 -498h-63l121 498h-180l-506 -498h-86l544 530l-268 517h70l252 -492h188l119 492h65z" />
    <glyph glyph-name="uni0437" unicode="&#x437;" horiz-adv-x="948" 
d="M383 -20q-222 0 -397 141l39 47q161 -129 358 -129q148 0 238 69.5t90 184.5q0 93 -72 151t-217 58h-174l14 59h178q168 0 263.5 66t95.5 178q0 91 -69 147t-195 56q-162 0 -332 -97l-29 52q187 104 363 104q155 0 242 -73.5t87 -186.5q0 -112 -76 -184.5t-208 -98.5
q90 -24 142 -83.5t52 -149.5q0 -136 -111 -223.5t-282 -87.5z" />
    <glyph glyph-name="uni0438" unicode="&#x438;" horiz-adv-x="1105" 
d="M1001 1047h70l-256 -1047h-61l225 936l-875 -936h-67l254 1047h63l-229 -938z" />
    <glyph glyph-name="uni0439" unicode="&#x439;" horiz-adv-x="1105" 
d="M1001 1047h70l-256 -1047h-61l225 936l-875 -936h-67l254 1047h63l-229 -938zM707 1202q-103 0 -155 55.5t-38 149.5h51q-5 -69 31 -108t119 -39q146 0 221 147h53q-36 -96 -108 -150.5t-174 -54.5z" />
    <glyph glyph-name="uni043A" unicode="&#x43a;" horiz-adv-x="962" 
d="M37 0l254 1047h63l-121 -492h187l508 492h86l-543 -523l315 -524h-73l-297 498h-195l-121 -498h-63z" />
    <glyph glyph-name="uni043B" unicode="&#x43b;" horiz-adv-x="1013" 
d="M672 1053l151 -1053h-63l-133 963l-602 -963h-74l663 1053h58z" />
    <glyph glyph-name="uni043C" unicode="&#x43c;" horiz-adv-x="1239" 
d="M555 268l-229 664l-226 -932h-63l254 1047h61l228 -668l544 668h80l-256 -1047h-63l229 938l-553 -670h-6z" />
    <glyph glyph-name="uni043D" unicode="&#x43d;" horiz-adv-x="1099" 
d="M1065 1047l-256 -1047h-64l121 500h-645l-121 -500h-63l254 1047h63l-116 -490h645l116 490h66z" />
    <glyph glyph-name="uni043E" unicode="&#x43e;" horiz-adv-x="1097" 
d="M627 1067q172 0 278.5 -117.5t106.5 -306.5q0 -148 -53 -283.5t-150 -232.5q-147 -147 -340 -147q-172 0 -278.5 117t-106.5 306q0 144 54 282t151 235q147 147 338 147zM473 39q160 0 287 127q85 85 134.5 213t49.5 260q0 167 -87 268t-234 101q-164 0 -287 -129
q-86 -86 -135 -212.5t-49 -260.5q0 -167 87 -267t234 -100z" />
    <glyph glyph-name="uni043F" unicode="&#x43f;" horiz-adv-x="1097" 
d="M1061 1047l-254 -1047h-66l242 987h-641l-242 -987h-63l254 1047h770z" />
    <glyph glyph-name="uni0440" unicode="&#x440;" horiz-adv-x="1140" 
d="M528 -20q-63 0 -118 18.5t-94.5 49t-69.5 72t-48 84.5t-26 89l-145 -600h-64l328 1354h63l-55 -234q37 62 90.5 116t137.5 96t173 42q154 0 251.5 -114t97.5 -294q0 -154 -55 -299.5t-154 -244.5q-141 -135 -312 -135zM526 39q150 0 267 117q86 89 137 224.5t51 272.5
q0 155 -80 255t-209 100q-158 0 -289 -131q-90 -87 -142 -216t-52 -258q0 -156 87 -260t230 -104z" />
    <glyph glyph-name="uni0441" unicode="&#x441;" horiz-adv-x="946" 
d="M461 -20q-160 0 -269.5 112t-109.5 305q0 148 54 284.5t151 233.5q152 152 338 152q113 0 195 -54t130 -134l-51 -37q-48 76 -113 120t-165 44q-159 0 -285 -129q-84 -85 -135 -215t-51 -261q0 -170 91.5 -265t223.5 -95q141 0 276 115l39 -45q-145 -131 -319 -131z" />
    <glyph glyph-name="uni0442" unicode="&#x442;" horiz-adv-x="903" 
d="M168 1047h823l-16 -60h-379l-242 -987h-63l241 987h-378z" />
    <glyph glyph-name="uni0443" unicode="&#x443;" horiz-adv-x="1005" 
d="M346 6l-164 1041h68l145 -965l580 965h74l-639 -1047q-114 -183 -194.5 -248t-170.5 -65q-103 0 -174 59l37 51q64 -51 141 -51q66 0 134.5 56t162.5 204z" />
    <glyph glyph-name="uni0444" unicode="&#x444;" horiz-adv-x="1429" 
d="M481 -307l74 307q-216 23 -337.5 142t-121.5 304q0 256 166 416q90 90 224 139.5t298 49.5h4h23l109 428h63l-106 -432q215 -23 336.5 -143t121.5 -304q0 -250 -168 -418q-89 -89 -223 -137.5t-299 -48.5h-4h-23l-73 -303h-64zM164 446q0 -165 107 -268.5t298 -122.5
l228 938h-11h-6q-305 0 -465 -166q-151 -151 -151 -381zM1268 600q0 162 -107.5 266t-298.5 123l-229 -936h10h6q296 0 467 164q152 158 152 383z" />
    <glyph glyph-name="uni0445" unicode="&#x445;" horiz-adv-x="952" 
d="M285 1047l202 -461l426 461h80l-479 -515l238 -532h-68l-215 487l-449 -487h-77l501 539l-227 508h68z" />
    <glyph glyph-name="uni0446" unicode="&#x446;" horiz-adv-x="1118" 
d="M37 0l254 1047h63l-239 -988h641l241 988h64l-240 -988h115l-82 -321h-59l65 262h-823z" />
    <glyph glyph-name="uni0447" unicode="&#x447;" horiz-adv-x="1011" 
d="M977 1047l-256 -1047h-64l97 399q-137 -28 -258 -28q-336 0 -336 252q0 56 24 157l64 267h65l-67 -275q-21 -82 -21 -147q0 -193 273 -193q139 0 268 31l145 584h66z" />
    <glyph glyph-name="uni0448" unicode="&#x448;" horiz-adv-x="1646" 
d="M37 0l254 1047h63l-239 -988h565l240 988h63l-240 -988h562l241 988h64l-254 -1047h-1319z" />
    <glyph glyph-name="uni0449" unicode="&#x449;" horiz-adv-x="1667" 
d="M37 0l254 1047h63l-239 -988h565l240 988h63l-240 -988h562l241 988h64l-240 -988h115l-82 -321h-60l66 262h-1372z" />
    <glyph glyph-name="uni044A" unicode="&#x44a;" horiz-adv-x="1175" 
d="M1055 377q0 -172 -132 -274.5t-352 -102.5h-335l239 987h-330l15 60h393l-94 -388h229q181 0 274 -75t93 -207zM989 375q0 227 -305 227h-240l-131 -545h267q189 0 299 87t110 231z" />
    <glyph glyph-name="uni044B" unicode="&#x44b;" horiz-adv-x="1331" 
d="M856 377q0 -172 -131.5 -274.5t-351.5 -102.5h-336l254 1047h63l-94 -388h229q181 0 274 -75t93 -207zM791 375q0 227 -306 227h-239l-131 -545h266q189 0 299.5 87t110.5 231zM975 0l254 1047h65l-254 -1047h-65z" />
    <glyph glyph-name="uni044C" unicode="&#x44c;" horiz-adv-x="976" 
d="M856 377q0 -172 -131.5 -274.5t-351.5 -102.5h-336l254 1047h63l-94 -388h229q181 0 274 -75t93 -207zM791 375q0 227 -306 227h-239l-131 -545h266q189 0 299.5 87t110.5 231z" />
    <glyph glyph-name="uni044D" unicode="&#x44d;" horiz-adv-x="958" 
d="M252 559h547q4 50 4 76v2q0 175 -87 272t-224 97q-149 0 -291 -109l-35 49q154 121 330 121q162 0 268 -114t106 -316q0 -146 -50 -280t-146 -230q-147 -147 -342 -147q-116 0 -203.5 53t-142.5 135l49 39q118 -166 301 -166q167 0 291 127q126 120 164 334h-553z" />
    <glyph glyph-name="uni044E" unicode="&#x44e;" horiz-adv-x="1462" 
d="M37 0l254 1047h63l-116 -490h251q52 232 187 367q146 143 332 143q165 0 266.5 -117t101.5 -309q0 -144 -53.5 -284t-146.5 -236q-141 -141 -330 -141q-166 0 -268.5 117t-102.5 309q0 44 6 94h-258l-123 -500h-63zM848 39q155 0 278 123q84 84 133.5 214.5t49.5 264.5
q0 167 -82.5 267t-222.5 100q-154 0 -279 -125q-82 -82 -132 -213.5t-50 -263.5q0 -166 83 -266.5t222 -100.5z" />
    <glyph glyph-name="uni044F" unicode="&#x44f;" horiz-adv-x="1054" 
d="M-2 0l381 446q-98 29 -150.5 96t-50.5 160q0 159 120.5 252t317.5 93h404l-256 -1047h-64l105 428h-283q-28 0 -78 4l-366 -432h-80zM942 987h-330q-166 0 -267 -72t-101 -210q0 -108 75 -164t213 -56h285z" />
    <glyph glyph-name="uni0450" unicode="&#x450;" 
d="M915 500h-757q-6 -52 -6 -103q0 -168 88 -262t239 -94q160 0 301 111l35 -50q-158 -122 -336 -122t-285.5 111t-107.5 302q0 149 56 290.5t153 238.5q142 145 321 145q109 0 185 -51t110.5 -133.5t34.5 -188.5q0 -96 -31 -194zM342 887q-121 -121 -172 -328h694
q17 80 17 133q0 137 -67.5 226.5t-199.5 89.5q-148 0 -272 -121zM649 1206l-153 211l75 37l119 -248h-41z" />
    <glyph glyph-name="uni0451" unicode="&#x451;" 
d="M514 1229l29 117h92l-31 -117h-90zM768 1229l29 117h90l-29 -117h-90zM915 500h-757q-6 -52 -6 -103q0 -168 88 -262t239 -94q160 0 301 111l35 -50q-158 -122 -336 -122t-285.5 111t-107.5 302q0 149 56 290.5t153 238.5q142 145 321 145q109 0 185 -51t110.5 -133.5
t34.5 -188.5q0 -96 -31 -194zM342 887q-121 -121 -172 -328h694q17 80 17 133q0 137 -67.5 226.5t-199.5 89.5q-148 0 -272 -121z" />
    <glyph glyph-name="uni0452" unicode="&#x452;" horiz-adv-x="1026" 
d="M745 1208h-350l-92 -377q160 29 258 29q338 0 338 -252q0 -51 -27 -157l-108 -463q-38 -158 -113.5 -229.5t-199.5 -71.5q-78 0 -140 26l19 60q66 -27 125 -27q98 0 156.5 59.5t90.5 194.5l109 459q25 105 25 147q0 193 -279 193q-141 0 -270 -31l-187 -768h-63l295 1208
h-207l14 58h207l53 213h64l-53 -213h350z" />
    <glyph glyph-name="uni0453" unicode="&#x453;" horiz-adv-x="827" 
d="M571 1204l226 248l73 -37l-243 -211h-56zM37 0l254 1047h618l-14 -60h-553l-242 -987h-63z" />
    <glyph glyph-name="uni0454" unicode="&#x454;" horiz-adv-x="960" 
d="M719 559l-14 -57h-545q-6 -46 -6 -90v-2q0 -177 89 -273t226 -96q158 0 289 109l37 -48q-149 -122 -328 -122q-164 0 -272.5 113.5t-108.5 316.5q0 142 53 277t146 228q158 152 350 152q115 0 197.5 -50.5t132.5 -129.5l-47 -39q-111 158 -287 158q-168 0 -297 -129
q-121 -121 -164 -318h549z" />
    <glyph glyph-name="uni0455" unicode="&#x455;" horiz-adv-x="856" 
d="M365 -16q-104 0 -201 48.5t-166 131.5l49 45q146 -166 324 -166q108 0 182 65t74 152q0 71 -47.5 124t-163.5 122q-128 74 -184 137t-56 152q0 112 89.5 190t230.5 78q90 0 175 -43t148 -113l-49 -45q-129 142 -278 142q-111 0 -179.5 -61t-68.5 -144q0 -68 47.5 -120.5
t165.5 -119.5q124 -72 179.5 -138.5t55.5 -156.5q0 -115 -93.5 -197.5t-233.5 -82.5z" />
    <glyph glyph-name="uni0456" unicode="&#x456;" horiz-adv-x="417" 
d="M49 0l256 1047h64l-256 -1047h-64zM362 1317l31 127h82l-33 -127h-80z" />
    <glyph glyph-name="uni0457" unicode="&#x457;" horiz-adv-x="417" 
d="M215 1227l29 116h92l-31 -116h-90zM469 1227l29 116h90l-29 -116h-90zM51 0l252 1047h66l-254 -1047h-64z" />
    <glyph glyph-name="uni0458" unicode="&#x458;" horiz-adv-x="417" 
d="M-137 -315q-48 0 -94 16l14 59q46 -16 78 -16q62 0 102.5 39.5t63.5 124.5l278 1139h64l-281 -1153q-49 -209 -225 -209zM362 1317l31 127h82l-31 -127h-82z" />
    <glyph glyph-name="uni0459" unicode="&#x459;" horiz-adv-x="1449" 
d="M-92 0l831 1047h105l-94 -388h213q180 0 273 -75t93 -207q0 -172 -132.5 -274.5t-352.5 -102.5h-318l240 987l-782 -987h-76zM1262 375q0 227 -306 227h-221l-131 -545h250q188 0 298 87t110 231z" />
    <glyph glyph-name="uni045A" unicode="&#x45a;" horiz-adv-x="1648" 
d="M37 0l254 1047h63l-118 -490h626l119 490h66l-97 -388h213q181 0 274 -75t93 -207q0 -172 -131.5 -274.5t-351.5 -102.5h-320l121 500h-627l-121 -500h-63zM1464 375q0 227 -307 227h-219l-133 -545h250q189 0 299 87t110 231z" />
    <glyph glyph-name="uni045B" unicode="&#x45b;" horiz-adv-x="1026" 
d="M745 1208h-350l-92 -377q160 29 258 29q338 0 338 -252q0 -51 -27 -157l-106 -451h-64l109 459q25 105 25 147q0 193 -279 193q-141 0 -270 -31l-187 -768h-63l295 1208h-207l14 58h207l53 213h64l-53 -213h350z" />
    <glyph glyph-name="uni045C" unicode="&#x45c;" horiz-adv-x="962" 
d="M618 1200l226 248l74 -37l-244 -211h-56zM37 0l254 1047h63l-121 -492h187l508 492h86l-543 -523l315 -524h-73l-297 498h-195l-121 -498h-63z" />
    <glyph glyph-name="uni045D" unicode="&#x45d;" horiz-adv-x="1105" 
d="M672 1200l-154 211l76 37l119 -248h-41zM1001 1047h70l-256 -1047h-61l225 936l-875 -936h-67l254 1047h63l-229 -938z" />
    <glyph glyph-name="uni045E" unicode="&#x45e;" horiz-adv-x="1005" 
d="M346 6l-164 1041h68l145 -965l580 965h74l-639 -1047q-114 -183 -194.5 -248t-170.5 -65q-103 0 -174 59l37 51q64 -51 141 -51q66 0 134.5 56t162.5 204zM639 1202q-103 0 -155 55.5t-38 149.5h52q-5 -70 30.5 -108.5t118.5 -38.5q146 0 221 147h54
q-36 -96 -108.5 -150.5t-174.5 -54.5z" />
    <glyph glyph-name="uni045F" unicode="&#x45f;" horiz-adv-x="1097" 
d="M37 0l254 1047h63l-239 -988h641l241 988h64l-254 -1047h-361l-65 -262h-59l65 262h-350z" />
    <glyph glyph-name="uni0462" unicode="&#x462;" horiz-adv-x="1439" 
d="M1141 1116h-471l-82 -332h321q223 0 330 -104q84 -84 84 -227q0 -176 -125 -301q-149 -152 -455 -152h-413l272 1116h-414l15 62h415l72 292h68l-72 -292h471zM1255 451q0 117 -67 184q-86 86 -283 86h-332l-159 -660h336q267 0 399 132q106 103 106 258z" />
    <glyph glyph-name="uni0463" unicode="&#x463;" horiz-adv-x="1177" 
d="M952 1047l-12 -60h-397l-82 -328h229q182 0 274.5 -74.5t92.5 -207.5q0 -172 -132 -274.5t-352 -102.5h-335l241 987h-334l17 60h332l106 430h64l-107 -430h395zM991 375q0 227 -307 227h-238l-131 -545h267q189 0 299 87t110 231z" />
    <glyph glyph-name="uni0472" unicode="&#x472;" horiz-adv-x="1439" 
d="M877 1456q224 0 359.5 -156.5t135.5 -410.5q0 -198 -73 -395.5t-203 -327.5q-195 -189 -437 -189q-223 0 -359 157t-136 411q0 194 73.5 394.5t202.5 326.5q190 190 437 190zM1049 207q88 88 149 215t88 268h-1046q-11 -90 -11 -145q0 -228 118.5 -367t314.5 -139
q214 0 387 168zM872 1395q-212 0 -385 -168q-172 -172 -237 -473h1046q11 86 11 133q0 228 -119 368t-316 140z" />
    <glyph glyph-name="uni0473" unicode="&#x473;" horiz-adv-x="1093" 
d="M467 -20q-172 0 -277.5 116t-105.5 305q0 146 53.5 284t147.5 235q147 147 340 147q172 0 277.5 -116.5t105.5 -305.5q0 -149 -53 -285.5t-150 -232.5q-144 -147 -338 -147zM471 39q160 0 287 127q61 59 105.5 147t64.5 187h-772q-6 -50 -6 -97v-2q0 -161 87.5 -261.5
t233.5 -100.5zM334 879q-117 -117 -168 -322h770q6 40 6 84v2q0 163 -87.5 264t-233.5 101q-164 0 -287 -129z" />
    <glyph glyph-name="uni0474" unicode="&#x474;" horiz-adv-x="1341" 
d="M449 -10l-164 1444h67l146 -1346l553 961q94 166 157.5 245t133 112.5t174.5 33.5h32l-14 -62h-23q-46 0 -80 -5.5t-67 -24t-58.5 -41.5t-60 -68.5t-65 -94.5t-78.5 -130l-592 -1024h-61z" />
    <glyph glyph-name="uni0475" unicode="&#x475;" horiz-adv-x="1024" 
d="M371 -8h-52l-133 1055h66l110 -963l396 684q98 172 168 227.5t190 55.5h23l-13 -58h-16q-95 0 -153 -48.5t-146 -205.5z" />
    <glyph glyph-name="uni0490" unicode="&#x490;" horiz-adv-x="1009" 
d="M1167 1372h-708l-334 -1372h-68l351 1434h712l64 260h63z" />
    <glyph glyph-name="uni0491" unicode="&#x491;" horiz-adv-x="825" 
d="M973 1294l-78 -307h-555l-240 -987h-63l254 1047h557l61 247h64z" />
    <glyph glyph-name="uni0492" unicode="&#x492;" horiz-adv-x="1054" 
d="M102 0l166 680h-133l12 61h136l170 693h776l-17 -62h-708l-154 -631h369l-14 -61h-369l-166 -680h-68z" />
    <glyph glyph-name="uni0493" unicode="&#x493;" horiz-adv-x="856" 
d="M66 0l116 485h-119l15 60h119l122 502h619l-14 -60h-553l-109 -442h260l-16 -60h-258l-119 -485h-63z" />
    <glyph glyph-name="uni0496" unicode="&#x496;" horiz-adv-x="1945" 
d="M2025 1434l-727 -707l381 -666h138l-82 -335h-66l68 274h-97l-393 696h-217l-170 -696h-67l170 696h-201l-731 -696h-90l772 729l-383 705h73l367 -676h207l166 676h69l-168 -676h201l690 676h90z" />
    <glyph glyph-name="uni0497" unicode="&#x497;" horiz-adv-x="1540" 
d="M913 1047l-120 -492h182l485 492h84l-520 -523l258 -465h119l-82 -321h-59l65 262h-80l-272 498h-195l-121 -498h-63l121 498h-180l-506 -498h-86l544 530l-268 517h70l252 -492h188l119 492h65z" />
    <glyph glyph-name="uni0498" unicode="&#x498;" horiz-adv-x="1159" 
d="M352 -274l62 256q-232 25 -402 186l45 49q191 -178 439 -178q192 0 310 104t118 256q0 132 -92.5 212.5t-276.5 80.5h-184l16 62h188q215 0 346.5 99.5t131.5 258.5q0 127 -91 205t-257 78q-197 0 -390 -123l-34 53q209 131 428 131q192 0 302.5 -95.5t110.5 -248.5
q0 -154 -105.5 -256.5t-273.5 -136.5q250 -75 250 -320q0 -176 -139.5 -299t-357.5 -123h-17l-61 -251h-66z" />
    <glyph glyph-name="uni0499" unicode="&#x499;" horiz-adv-x="948" 
d="M383 -20h-2l-59 -242h-62l62 246q-197 20 -336 137l39 47q161 -129 358 -129q148 0 238 69.5t90 184.5q0 93 -72 151t-217 58h-174l14 59h178q168 0 263.5 66t95.5 178q0 91 -69 147t-195 56q-162 0 -332 -97l-29 52q187 104 363 104q155 0 242 -73.5t87 -186.5
q0 -112 -76 -184.5t-208 -98.5q90 -24 142 -83.5t52 -149.5q0 -136 -111 -223.5t-282 -87.5z" />
    <glyph glyph-name="uni049A" unicode="&#x49a;" horiz-adv-x="1275" 
d="M1350 1434l-738 -707l387 -666h131l-81 -335h-66l68 274h-90l-404 696h-262l-170 -696h-68l351 1434h67l-166 -676h248l700 676h93z" />
    <glyph glyph-name="uni049B" unicode="&#x49b;" horiz-adv-x="995" 
d="M37 0l254 1047h63l-121 -492h187l508 492h86l-543 -523l279 -465h112l-82 -321h-59l65 262h-73l-297 498h-195l-121 -498h-63z" />
    <glyph glyph-name="uni049C" unicode="&#x49c;" horiz-adv-x="1282" 
d="M1092 0h-72l-332 692h-31l-114 -465h-66l117 465h-301l-168 -692h-68l351 1434h67l-166 -680h299l115 473h65l-116 -473h24l627 680h88l-663 -717z" />
    <glyph glyph-name="uni049D" unicode="&#x49d;" horiz-adv-x="1052" 
d="M852 0h-70l-217 502h-61l-82 -342h-62l84 342h-221l-123 -502h-63l254 1047h65l-118 -486h221l86 359h59l-86 -359h49l439 486h84l-472 -517z" />
    <glyph glyph-name="uni04A0" unicode="&#x4a0;" horiz-adv-x="1495" 
d="M330 0l334 1372h-414l14 62h484l-166 -676h247l701 676h92l-737 -707l424 -727h-76l-406 696h-260l-170 -696h-67z" />
    <glyph glyph-name="uni04A1" unicode="&#x4a1;" horiz-adv-x="1161" 
d="M236 0l239 987h-330l15 60h393l-121 -492h186l508 492h86l-542 -523l315 -524h-74l-297 498h-194l-121 -498h-63z" />
    <glyph glyph-name="uni04A2" unicode="&#x4a2;" horiz-adv-x="1345" 
d="M57 0l351 1434h67l-166 -680h819l166 680h70l-336 -1373h131l-82 -335h-65l67 274h-135l168 690h-819l-168 -690h-68z" />
    <glyph glyph-name="uni04A3" unicode="&#x4a3;" horiz-adv-x="1120" 
d="M1065 1047l-242 -988h115l-82 -321h-59l65 262h-117l121 500h-645l-121 -500h-63l254 1047h63l-116 -490h645l116 490h66z" />
    <glyph glyph-name="uni04A4" unicode="&#x4a4;" horiz-adv-x="1792" 
d="M913 0l168 690h-786l-170 -690h-68l351 1434h67l-166 -680h789l166 680h702l-16 -62h-635l-336 -1372h-66z" />
    <glyph glyph-name="uni04A5" unicode="&#x4a5;" horiz-adv-x="1486" 
d="M727 0l121 500h-627l-121 -500h-63l254 1047h63l-116 -490h624l121 490h586l-13 -60h-524l-239 -987h-66z" />
    <glyph glyph-name="uni04AA" unicode="&#x4aa;" horiz-adv-x="1232" 
d="M487 -274l64 260q-173 30 -282 171.5t-109 362.5q0 201 74 400t208 333q203 203 455 203q145 0 248 -64t164 -175l-58 -35q-125 213 -356 213q-223 0 -401 -178q-123 -128 -195 -315t-72 -382q0 -221 117 -351t301 -130q116 0 207 44t180 126l43 -47q-196 -185 -436 -185
h-25l-61 -251h-66z" />
    <glyph glyph-name="uni04AB" unicode="&#x4ab;" horiz-adv-x="946" 
d="M328 -262l61 248q-135 26 -221 132.5t-86 278.5q0 148 54 284.5t151 233.5q152 152 338 152q113 0 195 -54t130 -134l-51 -37q-48 76 -113 120t-165 44q-159 0 -285 -129q-84 -85 -135 -215t-51 -261q0 -170 91.5 -265t223.5 -95q141 0 276 115l39 -45
q-145 -131 -319 -131h-12l-60 -242h-61z" />
    <glyph glyph-name="uni04AE" unicode="&#x4ae;" horiz-adv-x="1155" 
d="M408 0l147 602l-301 832h70l278 -772l655 772h86l-722 -844l-144 -590h-69z" />
    <glyph glyph-name="uni04AF" unicode="&#x4af;" horiz-adv-x="987" 
d="M311 -307h-65l78 321l-138 1033h66l121 -959l588 959h73l-647 -1041z" />
    <glyph glyph-name="uni04B0" unicode="&#x4b0;" horiz-adv-x="1155" 
d="M408 0l135 553h-334l16 59h326l-297 822h70l278 -772l655 772h86l-704 -822h334l-17 -59h-346l-133 -553h-69z" />
    <glyph glyph-name="uni04B1" unicode="&#x4b1;" horiz-adv-x="987" 
d="M1034 1047l-614 -988h280l-14 -59h-299l-76 -307h-65l76 307h-285l14 59h266l-131 988h66l121 -959l588 959h73z" />
    <glyph glyph-name="uni04B2" unicode="&#x4b2;" horiz-adv-x="1247" 
d="M-47 0l647 739l-305 695h72l280 -650l572 650h81l-622 -707l291 -666h125l-82 -335h-66l68 274h-90l-295 682l-596 -682h-80z" />
    <glyph glyph-name="uni04B3" unicode="&#x4b3;" horiz-adv-x="985" 
d="M285 1047l202 -461l426 461h80l-479 -515l211 -473h113l-82 -321h-60l66 262h-78l-215 487l-449 -487h-77l501 539l-227 508h68z" />
    <glyph glyph-name="uni04B6" unicode="&#x4b6;" horiz-adv-x="1224" 
d="M821 0l146 594q-149 -35 -326 -35q-194 0 -304 75.5t-110 233.5q0 72 29 191l90 375h68l-95 -385q-24 -108 -24 -177q0 -251 352 -251q178 0 336 41l188 772h68l-336 -1373h135l-82 -335h-65l67 274h-137z" />
    <glyph glyph-name="uni04B7" unicode="&#x4b7;" horiz-adv-x="1032" 
d="M977 1047l-242 -988h115l-82 -321h-59l65 262h-117l97 399q-137 -28 -258 -28q-336 0 -336 252q0 56 24 157l64 267h65l-67 -275q-21 -82 -21 -147q0 -193 273 -193q139 0 268 31l145 584h66z" />
    <glyph glyph-name="uni04B8" unicode="&#x4b8;" horiz-adv-x="1202" 
d="M682 1092h66l-119 -471h20q178 0 336 41l189 772h67l-350 -1434h-68l146 594q-149 -35 -328 -35h-27l-86 -356h-63l86 360q-322 38 -322 305q0 83 27 191l90 375h68l-92 -385q-25 -113 -25 -177q0 -222 268 -247z" />
    <glyph glyph-name="uni04B9" unicode="&#x4b9;" horiz-adv-x="1013" 
d="M586 801l-92 -369h4q143 0 270 33l145 582h64l-254 -1047h-66l97 399q-137 -28 -258 -28h-17l-55 -242h-62l60 244q-264 28 -264 250q0 54 24 155l66 269h63l-65 -277q-23 -97 -23 -145q0 -170 213 -191l88 367h62z" />
    <glyph glyph-name="uni04BA" unicode="&#x4ba;" horiz-adv-x="1200" 
d="M473 1434l-145 -594q145 34 325 34q194 0 304 -75.5t110 -233.5q0 -71 -29 -190l-90 -375h-67l94 385q24 108 24 176q0 252 -352 252q-178 0 -336 -41l-188 -772h-68l351 1434h67z" />
    <glyph glyph-name="uni04BB" unicode="&#x4bb;" horiz-adv-x="1077" 
d="M37 0l362 1479h64l-160 -648q59 104 153.5 170t217.5 66q136 0 214.5 -77.5t78.5 -215.5q0 -72 -27 -186l-141 -588h-64l142 590q24 95 24 180q0 114 -62.5 176t-179.5 62q-134 0 -251 -108t-156 -279l-152 -621h-63z" />
    <glyph glyph-name="uni04C0" unicode="&#x4c0;" horiz-adv-x="462" 
d="M72 0l350 1434h67l-350 -1434h-67z" />
    <glyph glyph-name="uni04C1" unicode="&#x4c1;" horiz-adv-x="1892" 
d="M1210 1550q-104 0 -157 47t-43 132h53q2 -57 38 -87t118 -30q150 0 213 117h57q-31 -85 -103 -132t-176 -47zM1212 1434l-168 -676h201l690 676h90l-727 -707l416 -727h-74l-393 696h-217l-170 -696h-67l170 696h-201l-731 -696h-90l772 729l-383 705h73l367 -676h207
l166 676h69z" />
    <glyph glyph-name="uni04C2" unicode="&#x4c2;" horiz-adv-x="1503" 
d="M913 1047l-120 -492h182l485 492h84l-520 -523l291 -524h-70l-272 498h-195l-121 -498h-63l121 498h-180l-506 -498h-86l544 530l-268 517h70l252 -492h188l119 492h65zM926 1206q-103 0 -155 55.5t-38 149.5h51q-5 -69 31 -108t119 -39q146 0 221 147h53
q-36 -96 -108 -150.5t-174 -54.5z" />
    <glyph glyph-name="uni04CF" unicode="&#x4cf;" horiz-adv-x="417" 
d="M49 0l363 1479h63l-362 -1479h-64z" />
    <glyph glyph-name="uni04D0" unicode="&#x4d0;" horiz-adv-x="1327" 
d="M-53 0l917 1444h66l209 -1444h-68l-57 418h-727l-264 -418h-76zM326 479h678l-123 875zM932 1563q-105 0 -158 47t-43 131h53q2 -57 38 -87t118 -30q150 0 213 117h57q-31 -85 -102.5 -131.5t-175.5 -46.5z" />
    <glyph glyph-name="uni04D1" unicode="&#x4d1;" horiz-adv-x="1003" 
d="M328 -20q-121 0 -206 74t-85 204q0 164 106 270q111 111 312 111q181 0 348 -61l12 51q19 93 19 137q0 112 -75.5 172.5t-211.5 60.5q-132 0 -254 -51l-17 60q127 53 275 53q161 0 253.5 -75t92.5 -214q0 -57 -23 -151l-149 -621h-63l49 201q-62 -99 -159 -160t-224 -61z
M340 37q149 0 265.5 104t154.5 258l31 123q-165 60 -342 60q-163 0 -256 -93q-89 -86 -89 -225q0 -107 67 -167t169 -60zM651 1208q-102 0 -154 55.5t-38 149.5h51q-5 -70 30.5 -108.5t118.5 -38.5q147 0 222 147h53q-36 -96 -108.5 -150.5t-174.5 -54.5z" />
    <glyph glyph-name="uni04D2" unicode="&#x4d2;" horiz-adv-x="1327" 
d="M-53 0l917 1444h66l209 -1444h-68l-57 418h-727l-264 -418h-76zM326 479h678l-123 875zM748 1585l28 117h96l-28 -117h-96zM1020 1585l29 117h96l-29 -117h-96z" />
    <glyph glyph-name="uni04D3" unicode="&#x4d3;" horiz-adv-x="1003" 
d="M328 -20q-121 0 -206 74t-85 204q0 164 106 270q111 111 312 111q181 0 348 -61l12 51q19 93 19 137q0 112 -75.5 172.5t-211.5 60.5q-132 0 -254 -51l-17 60q127 53 275 53q161 0 253.5 -75t92.5 -214q0 -57 -23 -151l-149 -621h-63l49 201q-62 -99 -159 -160t-224 -61z
M340 37q149 0 265.5 104t154.5 258l31 123q-165 60 -342 60q-163 0 -256 -93q-89 -86 -89 -225q0 -107 67 -167t169 -60zM481 1229l29 117h92l-31 -117h-90zM735 1229l29 117h90l-29 -117h-90z" />
    <glyph glyph-name="uni04D4" unicode="&#x4d4;" horiz-adv-x="1775" 
d="M-96 0l1093 1434h893l-16 -62h-750l-151 -618h678l-15 -64h-678l-153 -629h758l-15 -61h-825l100 418h-522l-317 -418h-80zM348 479h490l219 893h-31z" />
    <glyph glyph-name="uni04D5" unicode="&#x4d5;" horiz-adv-x="1714" 
d="M1169 -20q-142 0 -238.5 70.5t-131.5 199.5q-195 -270 -461 -270q-129 0 -215 74.5t-86 205.5q0 168 106 268q111 111 314 111q179 0 346 -61l12 51q19 93 19 137q0 112 -75.5 172.5t-211.5 60.5q-132 0 -254 -51l-17 60q127 53 275 53q152 0 244 -70t96 -198
q69 121 179 197.5t235 76.5q160 0 243.5 -104.5t83.5 -268.5q0 -91 -28 -194h-758q-6 -53 -6 -103q0 -169 88 -262.5t241 -93.5q158 0 299 111l35 -50q-158 -122 -334 -122zM346 37q249 0 438 285q-11 87 7 198q-170 62 -342 62q-163 0 -256 -93q-89 -86 -89 -223
q0 -107 68 -168t174 -61zM1030 887q-121 -121 -172 -328h694q17 91 17 133q0 138 -66.5 227t-199.5 89q-152 0 -273 -121z" />
    <glyph glyph-name="uni04D6" unicode="&#x4d6;" horiz-adv-x="1128" 
d="M850 1550q-105 0 -158 47.5t-43 131.5h53q2 -57 38 -87t118 -30q150 0 213 117h57q-31 -85 -103 -132t-175 -47zM57 0l351 1434h835l-14 -62h-768l-152 -618h695l-15 -64h-694l-156 -629h779l-17 -61h-844z" />
    <glyph glyph-name="uni04D7" unicode="&#x4d7;" 
d="M915 500h-757q-6 -52 -6 -103q0 -168 88 -262t239 -94q160 0 301 111l35 -50q-158 -122 -336 -122t-285.5 111t-107.5 302q0 149 56 290.5t153 238.5q142 145 321 145q109 0 185 -51t110.5 -133.5t34.5 -188.5q0 -96 -31 -194zM342 887q-121 -121 -172 -328h694
q17 80 17 133q0 137 -67.5 226.5t-199.5 89.5q-148 0 -272 -121zM686 1208q-102 0 -154 55.5t-38 149.5h51q-5 -70 30.5 -108.5t118.5 -38.5q146 0 221 147h54q-36 -96 -108.5 -150.5t-174.5 -54.5z" />
    <glyph glyph-name="uni04D8" unicode="&#x4d8;" horiz-adv-x="1366" 
d="M162 473q0 121 37 279h1020q10 78 10 141q0 236 -116 369t-325 133q-204 0 -417 -156l-37 51q222 166 457 166t370 -150.5t135 -412.5q0 -197 -75 -398t-199 -325q-190 -193 -432 -193q-207 0 -317.5 138t-110.5 358zM971 209q168 160 237 481h-956q-23 -118 -23 -219
q0 -91 22 -168t65 -137t115 -93.5t165 -33.5q205 0 375 170z" />
    <glyph glyph-name="uni04D9" unicode="&#x4d9;" 
d="M80 350q3 96 31 195h757q9 49 9 102q0 168 -89.5 263.5t-240.5 95.5q-156 0 -299 -113l-35 49q159 123 336 123q179 0 286 -110t107 -304q0 -149 -56 -290t-153 -238q-143 -146 -321 -146q-160 0 -246 105.5t-86 267.5zM684 158q123 123 172 327h-692q-19 -78 -19 -133
q0 -139 67 -227t200 -88q148 0 272 121z" />
    <glyph glyph-name="uni04DC" unicode="&#x4dc;" horiz-adv-x="1892" 
d="M1026 1573l29 117h96l-29 -117h-96zM1298 1573l29 117h96l-28 -117h-97zM1212 1434l-168 -676h201l690 676h90l-727 -707l416 -727h-74l-393 696h-217l-170 -696h-67l170 696h-201l-731 -696h-90l772 729l-383 705h73l367 -676h207l166 676h69z" />
    <glyph glyph-name="uni04DD" unicode="&#x4dd;" horiz-adv-x="1503" 
d="M756 1227l28 116h93l-31 -116h-90zM1010 1227l28 116h90l-28 -116h-90zM913 1047l-120 -492h182l485 492h84l-520 -523l291 -524h-70l-272 498h-195l-121 -498h-63l121 498h-180l-506 -498h-86l544 530l-268 517h70l252 -492h188l119 492h65z" />
    <glyph glyph-name="uni04DE" unicode="&#x4de;" horiz-adv-x="1159" 
d="M590 1585l28 117h97l-29 -117h-96zM862 1585l29 117h96l-29 -117h-96zM315 1272l-34 53q209 131 428 131q192 0 302.5 -95.5t110.5 -248.5q0 -154 -105.5 -256.5t-273.5 -136.5q250 -75 250 -320q0 -176 -139.5 -299t-357.5 -123q-280 0 -484 191l45 49
q191 -178 439 -178q192 0 310 104t118 256q0 132 -92.5 212.5t-276.5 80.5h-184l16 62h188q215 0 346.5 99.5t131.5 258.5q0 127 -91 205t-257 78q-197 0 -390 -123z" />
    <glyph glyph-name="uni04DF" unicode="&#x4df;" horiz-adv-x="948" 
d="M432 1229l29 117h92l-31 -117h-90zM686 1229l29 117h90l-29 -117h-90zM383 -20q-222 0 -397 141l39 47q161 -129 358 -129q148 0 238 69.5t90 184.5q0 93 -72 151t-217 58h-174l14 59h178q168 0 263.5 66t95.5 178q0 91 -69 147t-195 56q-162 0 -332 -97l-29 52
q187 104 363 104q155 0 242 -73.5t87 -186.5q0 -112 -76 -184.5t-208 -98.5q90 -24 142 -83.5t52 -149.5q0 -136 -111 -223.5t-282 -87.5z" />
    <glyph glyph-name="uni04E2" unicode="&#x4e2;" horiz-adv-x="1368" 
d="M670 1585l14 64h514l-14 -64h-514zM1331 1434h76l-350 -1434h-68l324 1321l-1188 -1321h-68l351 1434h65l-319 -1309z" />
    <glyph glyph-name="uni04E3" unicode="&#x4e3;" horiz-adv-x="1105" 
d="M467 1243l14 60h492l-15 -60h-491zM1001 1047h70l-256 -1047h-61l225 936l-875 -936h-67l254 1047h63l-229 -938z" />
    <glyph glyph-name="uni04E4" unicode="&#x4e4;" horiz-adv-x="1368" 
d="M735 1565l29 116h96l-29 -116h-96zM1008 1565l28 116h97l-29 -116h-96zM1331 1434h76l-350 -1434h-68l324 1321l-1188 -1321h-68l351 1434h65l-319 -1309z" />
    <glyph glyph-name="uni04E5" unicode="&#x4e5;" horiz-adv-x="1105" 
d="M537 1223l28 116h92l-30 -116h-90zM791 1223l28 116h90l-28 -116h-90zM1001 1047h70l-256 -1047h-61l225 936l-875 -936h-67l254 1047h63l-229 -938z" />
    <glyph glyph-name="uni04E6" unicode="&#x4e6;" horiz-adv-x="1439" 
d="M778 1585l29 117h96l-29 -117h-96zM1051 1585l28 117h97l-29 -117h-96zM877 1456q224 0 360.5 -156.5t136.5 -410.5q0 -196 -74.5 -394t-203.5 -327q-198 -191 -437 -191q-223 0 -359 156.5t-136 409.5q0 196 73.5 395.5t202.5 325.5q192 192 437 192zM662 39
q215 0 385 170q120 120 190 307.5t70 372.5q0 225 -120.5 365.5t-312.5 140.5q-213 0 -385 -172q-120 -120 -189 -307.5t-69 -370.5q0 -227 118.5 -366.5t312.5 -139.5z" />
    <glyph glyph-name="uni04E7" unicode="&#x4e7;" horiz-adv-x="1097" 
d="M541 1229l28 117h93l-31 -117h-90zM795 1229l28 117h90l-28 -117h-90zM627 1067q172 0 278.5 -117.5t106.5 -306.5q0 -148 -53 -283.5t-150 -232.5q-147 -147 -340 -147q-172 0 -278.5 117t-106.5 306q0 144 54 282t151 235q147 147 338 147zM473 39q160 0 287 127
q85 85 134.5 213t49.5 260q0 167 -87 268t-234 101q-164 0 -287 -129q-86 -86 -135 -212.5t-49 -260.5q0 -167 87 -267t234 -100z" />
    <glyph glyph-name="uni04E8" unicode="&#x4e8;" horiz-adv-x="1439" 
d="M877 1456q224 0 359.5 -156.5t135.5 -410.5q0 -198 -73 -395.5t-203 -327.5q-195 -189 -437 -189q-223 0 -359 157t-136 411q0 194 73.5 394.5t202.5 326.5q190 190 437 190zM1049 207q88 88 149 215t88 268h-1046q-11 -90 -11 -145q0 -228 118.5 -367t314.5 -139
q214 0 387 168zM872 1395q-212 0 -385 -168q-172 -172 -237 -473h1046q11 86 11 133q0 228 -119 368t-316 140z" />
    <glyph glyph-name="uni04E9" unicode="&#x4e9;" horiz-adv-x="1093" 
d="M467 -20q-172 0 -277.5 116t-105.5 305q0 146 53.5 284t147.5 235q147 147 340 147q172 0 277.5 -116.5t105.5 -305.5q0 -149 -53 -285.5t-150 -232.5q-144 -147 -338 -147zM471 39q160 0 287 127q61 59 105.5 147t64.5 187h-772q-6 -50 -6 -97v-2q0 -161 87.5 -261.5
t233.5 -100.5zM334 879q-117 -117 -168 -322h770q6 40 6 84v2q0 163 -87.5 264t-233.5 101q-164 0 -287 -129z" />
    <glyph glyph-name="uni04EE" unicode="&#x4ee;" horiz-adv-x="1179" 
d="M565 1585l15 64h514l-15 -64h-514zM1354 1434l-1051 -1434h-78l361 489l-307 945h71l283 -885l641 885h80z" />
    <glyph glyph-name="uni04EF" unicode="&#x4ef;" horiz-adv-x="1005" 
d="M346 6l-164 1041h68l145 -965l580 965h74l-639 -1047q-114 -183 -194.5 -248t-170.5 -65q-103 0 -174 59l37 51q64 -51 141 -51q66 0 134.5 56t162.5 204zM401 1243l15 60h491l-14 -60h-492z" />
    <glyph glyph-name="uni04F0" unicode="&#x4f0;" horiz-adv-x="1179" 
d="M631 1565l28 116h97l-29 -116h-96zM903 1565l29 116h96l-29 -116h-96zM1354 1434l-1051 -1434h-78l361 489l-307 945h71l283 -885l641 885h80z" />
    <glyph glyph-name="uni04F1" unicode="&#x4f1;" horiz-adv-x="1005" 
d="M346 6l-164 1041h68l145 -965l580 965h74l-639 -1047q-114 -183 -194.5 -248t-170.5 -65q-103 0 -174 59l37 51q64 -51 141 -51q66 0 134.5 56t162.5 204zM469 1223l29 116h92l-31 -116h-90zM723 1223l29 116h90l-29 -116h-90z" />
    <glyph glyph-name="uni04F2" unicode="&#x4f2;" horiz-adv-x="1179" 
d="M1354 1434l-1051 -1434h-78l361 489l-307 945h71l283 -885l641 885h80zM633 1542l229 215l72 -37l-240 -178h-61zM864 1542l228 215l69 -37l-237 -178h-60z" />
    <glyph glyph-name="uni04F3" unicode="&#x4f3;" horiz-adv-x="1005" 
d="M346 6l-164 1041h68l145 -965l580 965h74l-639 -1047q-114 -183 -194.5 -248t-170.5 -65q-103 0 -174 59l37 51q64 -51 141 -51q66 0 134.5 56t162.5 204zM463 1200l223 248l66 -37l-240 -211h-49zM698 1200l226 248l65 -37l-239 -211h-52z" />
    <glyph glyph-name="uni04F4" unicode="&#x4f4;" horiz-adv-x="1200" 
d="M821 0l146 594q-149 -35 -326 -35q-194 0 -304 75.5t-110 233.5q0 72 29 191l90 375h68l-95 -385q-24 -108 -24 -177q0 -251 352 -251q178 0 336 41l188 772h68l-350 -1434h-68zM625 1565l28 116h97l-29 -116h-96zM897 1565l29 116h96l-29 -116h-96z" />
    <glyph glyph-name="uni04F5" unicode="&#x4f5;" horiz-adv-x="1011" 
d="M469 1223l29 116h92l-31 -116h-90zM723 1223l29 116h90l-29 -116h-90zM977 1047l-256 -1047h-64l97 399q-137 -28 -258 -28q-336 0 -336 252q0 56 24 157l64 267h65l-67 -275q-21 -82 -21 -147q0 -193 273 -193q139 0 268 31l145 584h66z" />
    <glyph glyph-name="uni04F8" unicode="&#x4f8;" horiz-adv-x="1585" 
d="M57 0l351 1434h67l-139 -564h274q243 0 357 -114q94 -94 94 -254q0 -199 -137 -336q-171 -166 -498 -166h-369zM993 500q0 133 -80 213q-96 96 -309 96h-282l-183 -748h291q292 0 444 146q119 119 119 293zM1206 0l350 1434h68l-350 -1434h-68zM840 1565l28 116h97
l-29 -116h-96zM1112 1565l29 116h96l-29 -116h-96z" />
    <glyph glyph-name="uni04F9" unicode="&#x4f9;" horiz-adv-x="1331" 
d="M647 1223l29 116h92l-31 -116h-90zM901 1223l29 116h90l-29 -116h-90zM856 377q0 -172 -131.5 -274.5t-351.5 -102.5h-336l254 1047h63l-94 -388h229q181 0 274 -75t93 -207zM791 375q0 227 -306 227h-239l-131 -545h266q189 0 299.5 87t110.5 231zM975 0l254 1047h65
l-254 -1047h-65z" />
    <glyph glyph-name="Wgrave" unicode="&#x1e80;" horiz-adv-x="1873" 
d="M1128 1550l-161 179l71 36l136 -215h-46zM371 -10l-76 1444h67l64 -1330l696 1334h56l59 -1334l702 1330h74l-772 -1444h-57l-62 1317l-694 -1317h-57z" />
    <glyph glyph-name="wgrave" unicode="&#x1e81;" horiz-adv-x="1462" 
d="M260 -8l-61 1055h63l47 -949l512 951h53l48 -951l505 949h70l-571 -1055h-58l-47 938l-508 -938h-53zM846 1204l-154 211l76 37l119 -248h-41z" />
    <glyph glyph-name="Wacute" unicode="&#x1e82;" horiz-adv-x="1873" 
d="M1137 1550l227 215l72 -36l-240 -179h-59zM371 -10l-76 1444h67l64 -1330l696 1334h56l59 -1334l702 1330h74l-772 -1444h-57l-62 1317l-694 -1317h-57z" />
    <glyph glyph-name="wacute" unicode="&#x1e83;" horiz-adv-x="1462" 
d="M844 1204l225 248l74 -37l-244 -211h-55zM260 -8l-61 1055h63l47 -949l512 951h53l48 -951l505 949h70l-571 -1055h-58l-47 938l-508 -938h-53z" />
    <glyph glyph-name="Wdieresis" unicode="&#x1e84;" horiz-adv-x="1873" 
d="M997 1573l29 117h96l-28 -117h-97zM1270 1573l28 117h97l-29 -117h-96zM371 -10l-76 1444h67l64 -1330l696 1334h56l59 -1334l702 1330h74l-772 -1444h-57l-62 1317l-694 -1317h-57z" />
    <glyph glyph-name="wdieresis" unicode="&#x1e85;" horiz-adv-x="1462" 
d="M717 1227l28 116h93l-31 -116h-90zM971 1227l28 116h91l-29 -116h-90zM260 -8l-61 1055h63l47 -949l512 951h53l48 -951l505 949h70l-571 -1055h-58l-47 938l-508 -938h-53z" />
    <glyph glyph-name="Ygrave" unicode="&#x1ef2;" horiz-adv-x="1155" 
d="M408 0l147 602l-301 832h70l278 -772l655 772h86l-722 -844l-144 -590h-69zM762 1542l-162 178l72 37l135 -215h-45z" />
    <glyph glyph-name="ygrave" unicode="&#x1ef3;" horiz-adv-x="1005" 
d="M346 6l-164 1041h68l145 -965l580 965h74l-639 -1047q-114 -183 -194.5 -248t-170.5 -65q-103 0 -174 59l37 51q64 -51 141 -51q66 0 134.5 56t162.5 204zM598 1200l-154 211l76 37l119 -248h-41z" />
    <glyph glyph-name="enspace" unicode="&#x2002;" horiz-adv-x="1024" 
 />
    <glyph glyph-name="emspace" unicode="&#x2003;" horiz-adv-x="2048" 
 />
    <glyph glyph-name="threeperemspace" unicode="&#x2004;" horiz-adv-x="681" 
 />
    <glyph glyph-name="fourperemspace" unicode="&#x2005;" horiz-adv-x="512" 
 />
    <glyph glyph-name="thinspace" unicode="&#x2009;" horiz-adv-x="258" 
 />
    <glyph glyph-name="hairspace" unicode="&#x200a;" horiz-adv-x="143" 
 />
    <glyph glyph-name="endash" unicode="&#x2013;" horiz-adv-x="1003" 
d="M135 575l17 66h753l-14 -66h-756z" />
    <glyph glyph-name="emdash" unicode="&#x2014;" horiz-adv-x="1626" 
d="M135 575l17 66h1376l-17 -66h-1376z" />
    <glyph glyph-name="quoteleft" unicode="&#x2018;" horiz-adv-x="344" 
d="M270 1130l31 121q23 87 56.5 127t99.5 60l12 -35q-50 -18 -75.5 -51t-37.5 -90h43l-32 -132h-97z" />
    <glyph glyph-name="quoteright" unicode="&#x2019;" horiz-adv-x="344" 
d="M260 1126l-12 35q50 18 74.5 50.5t35.5 88.5h-41l33 134h94l-30 -121q-23 -86 -56.5 -126t-97.5 -61z" />
    <glyph glyph-name="quotesinglbase" unicode="&#x201a;" horiz-adv-x="346" 
d="M-59 -176l-13 37q50 17 75 49.5t36 89.5h-41l33 133h94l-29 -123q-23 -86 -57 -125.5t-98 -60.5z" />
    <glyph glyph-name="quotedblleft" unicode="&#x201c;" horiz-adv-x="585" 
d="M272 1130l29 121q23 86 57.5 126t98.5 61l12 -35q-50 -18 -75 -51t-36 -90h41l-32 -132h-95zM514 1130l31 121q23 87 56 126.5t97 60.5l13 -35q-50 -18 -75.5 -51t-37.5 -90h43l-33 -132h-94z" />
    <glyph glyph-name="quotedblright" unicode="&#x201d;" horiz-adv-x="587" 
d="M260 1126l-12 35q50 18 74.5 50.5t35.5 88.5h-41l33 134h94l-28 -121q-23 -86 -57.5 -126t-98.5 -61zM502 1126l-13 35q50 18 76 51t37 88h-43l33 134h94l-29 -121q-23 -88 -56 -127.5t-99 -59.5z" />
    <glyph glyph-name="quotedblbase" unicode="&#x201e;" horiz-adv-x="589" 
d="M-59 -176l-13 37q50 17 75 49.5t36 89.5h-41l33 133h94l-29 -123q-23 -86 -57 -125.5t-98 -60.5zM182 -176l-10 37q50 17 75 49.5t36 89.5h-43l32 133h97l-31 -123q-23 -87 -56.5 -126.5t-99.5 -59.5z" />
    <glyph glyph-name="dagger" unicode="&#x2020;" horiz-adv-x="712" 
d="M305 487l156 600l-232 -14l17 64l223 -13l63 310h70l-90 -310l231 13l-14 -64l-227 14l-133 -600h-64z" />
    <glyph glyph-name="daggerdbl" unicode="&#x2021;" horiz-adv-x="733" 
d="M193 0l90 309l-234 -12l17 63l225 -14l80 371l100 370l-231 -14l16 64l225 -13l62 310h69l-90 -310l232 13l-15 -64l-227 14l-78 -370l-102 -371l233 14l-16 -63l-225 12l-62 -309h-69z" />
    <glyph glyph-name="bullet" unicode="&#x2022;" horiz-adv-x="823" 
d="M485 950q77 0 125.5 -49t48.5 -133q0 -126 -81 -207q-71 -65 -158 -65q-79 0 -126.5 47.5t-47.5 132.5q0 60 21.5 115t58.5 92q67 67 159 67z" />
    <glyph glyph-name="ellipsis" unicode="&#x2026;" horiz-adv-x="1040" 
d="M-2 0l33 133h94l-33 -133h-94zM346 0l31 133h94l-31 -133h-94zM692 0l33 133h94l-33 -133h-94z" />
    <glyph glyph-name="perthousand" unicode="&#x2030;" horiz-adv-x="2170" 
d="M117 0l643 731l616 703h74l-645 -732l-615 -702h-73zM430 725q-109 0 -175.5 78t-66.5 205q0 97 38 191.5t100 156.5q92 92 209 92q109 0 175 -77t66 -204q0 -98 -36.5 -192t-98.5 -156q-94 -94 -211 -94zM434 784q88 0 158 70q55 56 87 138.5t32 172.5q0 102 -48 164
t-133 62q-88 0 -157 -72q-56 -54 -88.5 -137.5t-32.5 -171.5q0 -104 48.5 -165t133.5 -61zM1030 -14q-106 0 -172.5 76.5t-66.5 203.5q0 98 36.5 192t98.5 156q98 95 211 95q106 0 172.5 -78t66.5 -205q0 -98 -36.5 -192t-98.5 -156q-92 -92 -211 -92zM1036 43q89 0 158 72
q54 54 86.5 138t32.5 171q0 104 -48.5 164.5t-134.5 60.5q-82 0 -157 -69q-55 -56 -87 -139t-32 -173q0 -101 48.5 -163t133.5 -62zM1729 -14q-109 0 -175.5 76.5t-66.5 203.5q0 97 37.5 191.5t99.5 156.5q95 95 209 95q109 0 175.5 -78t66.5 -205q0 -98 -37.5 -192
t-100.5 -156q-92 -92 -208 -92zM1733 43q87 0 159 72q54 54 86.5 138t32.5 171q0 104 -48.5 164.5t-133.5 60.5q-89 0 -158 -69q-56 -56 -88.5 -139t-32.5 -173q0 -101 49 -163t134 -62z" />
    <glyph glyph-name="guilsinglleft" unicode="&#x2039;" horiz-adv-x="548" 
d="M285 92l-209 424l2 12l416 422l43 -35l-385 -401l182 -397z" />
    <glyph glyph-name="guilsinglright" unicode="&#x203a;" horiz-adv-x="548" 
d="M262 948l209 -424l-2 -12l-416 -422l-43 35l385 401l-182 398z" />
    <glyph glyph-name="Euro" unicode="&#x20ac;" horiz-adv-x="1212" 
d="M160 868l14 60h143q79 234 213 362q155 162 371 162q134 0 227.5 -68t141.5 -178l-56 -30q-101 215 -321 215q-173 0 -313 -140q-118 -118 -193 -323h555l-16 -60h-559q-41 -136 -50 -284h541l-16 -62h-527v-12v-2q0 -215 95 -340t260 -125q96 0 176.5 40t157.5 122
l45 -45q-87 -90 -179 -134t-202 -44q-190 0 -305 138t-115 384v2v16h-172l16 62h158q9 149 49 284h-139z" />
    <glyph glyph-name="hryvnia" unicode="&#x20b4;" horiz-adv-x="1095" 
d="M979 485l-553 97q-130 -91 -179.5 -164t-49.5 -156q0 -104 73 -163.5t207 -59.5q189 0 379 133l35 -55q-204 -140 -414 -140q-170 0 -260 79t-90 204q0 90 49.5 169t169.5 167l-240 43l21 55l289 -51l280 182l-491 88l20 56l541 -97q127 92 178.5 161.5t50.5 150.5
q0 95 -67.5 153t-194.5 58q-163 0 -342 -117l-31 57q186 121 375 121q159 0 244.5 -76t85.5 -196q0 -94 -51.5 -169t-165.5 -157l250 -43l-21 -55l-301 51l-280 -182l501 -88z" />
    <glyph glyph-name="numero" unicode="&#x2116;" horiz-adv-x="1947" 
d="M43 0l350 1434h66l403 -1301l320 1301h63l-352 -1434h-57l-408 1317l-322 -1317h-63zM1587 588q-116 0 -183 83.5t-67 225.5q0 120 44 243t116 195q107 107 234 107q116 0 182.5 -83t66.5 -224q0 -121 -44 -245.5t-115 -195.5q-106 -106 -234 -106zM1589 643
q101 0 187 86q64 64 104.5 180t40.5 224q0 116 -51 184.5t-141 68.5q-104 0 -187 -86q-64 -64 -103.5 -179t-39.5 -222q0 -119 49.5 -187.5t140.5 -68.5zM1202 354l12 56h588l-12 -56h-588z" />
    <glyph glyph-name="published" unicode="&#x2117;" horiz-adv-x="1501" 
d="M696 1104h183q115 0 181 -51.5t66 -157.5q0 -125 -92 -199.5t-250 -74.5h-149l-68 -277h-57zM1069 893q0 158 -190 158h-140l-92 -377h146q119 0 197.5 55.5t78.5 163.5zM879 1458q177 0 310 -82.5t202 -222t69 -315.5q0 -180 -66 -356t-188 -298q-209 -209 -491 -209
q-177 0 -310.5 82.5t-202.5 222.5t-69 316q0 178 66.5 353t187.5 300q209 209 492 209zM719 18q256 0 452 193q117 117 179.5 287.5t62.5 345.5q0 116 -35 218.5t-101 181.5t-169.5 125t-230.5 46q-263 0 -455 -192q-118 -118 -180 -287.5t-62 -345.5q0 -116 35.5 -219
t102 -182t170 -125t231.5 -46z" />
    <glyph glyph-name="servicemark" unicode="&#x2120;" horiz-adv-x="1230" 
d="M365 791q-67 0 -125 31t-95 85l37 29q75 -105 185 -105q66 0 108.5 37.5t42.5 89.5q0 42 -28.5 75t-92.5 69q-76 43 -108.5 81t-32.5 91q0 68 47 115q55 55 148 55q112 0 194 -96l-37 -33q-67 86 -164 86q-64 0 -102.5 -36t-38.5 -87q0 -41 28.5 -71t94.5 -68
q71 -40 104 -80.5t33 -95.5q0 -68 -47 -115q-64 -57 -151 -57zM664 799l161 635h45l119 -377l305 377h56l-162 -635h-47l139 547l-305 -373h-6l-119 370l-141 -544h-45z" />
    <glyph glyph-name="trademark" unicode="&#x2122;" horiz-adv-x="1179" 
d="M264 799l150 590h-183l15 45h407l-12 -45h-182l-150 -590h-45zM614 799l162 635h43l119 -377l305 377h55l-161 -635h-45l139 547l-307 -373h-6l-119 370l-140 -544h-45z" />
    <glyph glyph-name="Omega" unicode="&#x2126;" horiz-adv-x="1462" 
d="M889 1395q-246 0 -416 -170q-201 -204 -201 -547q0 -326 238 -623l-14 -55h-486l15 61l405 -2q-225 302 -225 621q0 367 217 584q189 192 469 192q236 0 373 -141.5t137 -380.5q0 -236 -139.5 -451.5t-399.5 -423.5l410 2l-17 -61h-507l14 55q569 426 569 875
q0 211 -115.5 338t-326.5 127z" />
    <glyph glyph-name="Delta" unicode="&#x2206;" horiz-adv-x="1329" 
d="M928 1444l215 -1393l-19 -51h-1157l2 51l893 1393h66zM877 1352l-826 -1291h1020z" />
    <glyph glyph-name="minus" unicode="&#x2212;" horiz-adv-x="1071" 
d="M160 690l14 62h834l-15 -62h-833z" />
    <glyph glyph-name="NUL" horiz-adv-x="0" 
 />
    <glyph glyph-name="CR" horiz-adv-x="477" 
 />
    <glyph glyph-name="Q.alt" horiz-adv-x="1443" 
d="M877 1456q224 0 360.5 -156.5t136.5 -410.5q0 -194 -75.5 -395t-202.5 -324l-11 -10l127 -152l-47 -41l-125 152q-171 -142 -381 -142q-223 0 -359 156.5t-136 409.5q0 196 73.5 394t202.5 327q192 192 437 192zM662 39q185 0 337 127l-211 258l52 41l207 -256
q120 120 190 309t70 371q0 225 -120.5 365.5t-312.5 140.5q-213 0 -385 -172q-120 -120 -189 -307.5t-69 -370.5q0 -227 118.5 -366.5t312.5 -139.5z" />
    <glyph glyph-name="a.alt" horiz-adv-x="1138" 
d="M438 -20q-155 0 -250.5 113t-95.5 294q0 151 55 298.5t152 244.5q137 137 313 137q80 0 145 -28t106 -75t66 -100t36 -112l73 295h64l-254 -1047h-64l58 233q-36 -61 -91 -115.5t-139.5 -96t-173.5 -41.5zM449 39q157 0 286 129q90 87 142.5 216.5t52.5 258.5
q0 157 -86 261t-230 104q-149 0 -266 -117q-88 -88 -138 -223.5t-50 -274.5q0 -157 79.5 -255.5t209.5 -98.5z" />
    <glyph glyph-name="three.alt" horiz-adv-x="1009" 
d="M406 -20q-135 0 -244.5 56t-177.5 159l53 38q62 -91 157 -141.5t216 -50.5q87 0 162 30t124 80t77 113.5t28 130.5q0 142 -107 224.5t-270 82.5h-70l15 58h84q213 0 350 100t137 262q0 118 -87.5 194.5t-225.5 76.5q-179 0 -330 -127l-41 47q164 141 371 141
q170 0 276.5 -93t106.5 -235q0 -158 -111.5 -264t-294.5 -139q125 -37 195.5 -123t70.5 -207q0 -82 -34 -157t-94 -131.5t-147.5 -90.5t-188.5 -34z" />
    <glyph glyph-name="registered.alt" horiz-adv-x="1501" 
d="M879 1458q177 0 310 -82.5t202 -222t69 -315.5q0 -180 -66 -356t-188 -298q-209 -209 -491 -209q-177 0 -310.5 82.5t-202.5 222.5t-69 316q0 178 66.5 353t187.5 300q209 209 492 209zM719 18q256 0 452 193q117 117 179.5 287.5t62.5 345.5q0 116 -35 218.5t-101 181.5
t-169.5 125t-230.5 46q-263 0 -455 -192q-118 -118 -180 -287.5t-62 -345.5q0 -116 35.5 -219t102 -182t170 -125t231.5 -46zM610 666l-75 -312h-60l187 762h212q133 0 193 -63q53 -50 53 -135q0 -99 -67 -166q-61 -61 -179 -78l136 -320h-64l-131 314q-2 0 -97 -1t-108 -1z
M625 719h168q152 0 217 65q51 48 51 131q0 64 -35 99q-47 47 -154 47h-167z" />
    <glyph glyph-name="acute.cap" 
d="M655 1550l228 215l71 -36l-239 -179h-60z" />
    <glyph glyph-name="grave.cap" 
d="M821 1550l-162 179l72 36l135 -215h-45z" />
    <glyph glyph-name="circumflex.cap" 
d="M545 1552l241 205h58l141 -205h-59l-121 142l-193 -142h-67z" />
    <glyph glyph-name="breve.cap" 
d="M768 1550q-105 0 -158 47.5t-43 131.5h54q2 -57 37.5 -87t117.5 -30q150 0 213 117h58q-31 -85 -103 -132t-176 -47z" />
    <glyph glyph-name="tilde.cap" 
d="M553 1556l-43 11q65 151 164 151q44 0 121 -47q65 -45 102 -45q31 0 57.5 22.5t55.5 75.5l45 -12q-70 -149 -164 -149q-43 0 -119 49q-64 39 -87 43q-7 2 -15 2q-32 0 -59 -23.5t-58 -77.5z" />
    <glyph glyph-name="macron.cap" 
d="M520 1593l15 64h514l-15 -64h-514z" />
    <glyph glyph-name="dieresis.cap" 
d="M586 1573l28 117h97l-29 -117h-96zM858 1573l29 117h96l-29 -117h-96z" />
    <glyph glyph-name="caron.cap" 
d="M1036 1757l-241 -205h-58l-143 205h59l125 -139l191 139h67z" />
    <glyph glyph-name="dotaccent.cap" 
d="M721 1573l29 117h98l-29 -117h-98z" />
    <glyph glyph-name="caron.alt" 
d="M606 1174l103 305h71v-4l-139 -301h-35z" />
    <glyph glyph-name="hungarumlaut.cap" 
d="M537 1550l229 215l72 -36l-240 -179h-61zM768 1550l227 215l70 -36l-238 -179h-59z" />
    <glyph glyph-name="ring.cap" 
d="M827 1896q80 0 128.5 -43t48.5 -110q0 -81 -65.5 -137t-152.5 -56q-78 0 -126 44.5t-48 111.5q0 80 63.5 135t151.5 55zM793 1595q64 0 110.5 41.5t46.5 102.5q0 51 -34 82.5t-93 31.5q-64 0 -111.5 -41.5t-47.5 -101.5q0 -50 35 -82.5t94 -32.5z" />
    <glyph glyph-name="aogonek.alt" horiz-adv-x="1138" 
d="M817 -248l-12 -47q-2 -2 -6 -2q-83 1 -127.5 32.5t-44.5 80.5q0 50 39 94.5t120 101.5l56 221q-36 -61 -91 -115.5t-139.5 -96t-173.5 -41.5q-155 0 -250.5 113t-95.5 294q0 151 55 298.5t152 244.5q137 137 313 137q80 0 145 -28t106 -75t66 -100t36 -112l73 295h64
l-254 -1047h-14q-75 -58 -108.5 -97.5t-33.5 -76.5q0 -65 125 -74zM449 39q157 0 286 129q90 87 142.5 216.5t52.5 258.5q0 157 -86 261t-230 104q-149 0 -266 -117q-88 -88 -138 -223.5t-50 -274.5q0 -157 79.5 -255.5t209.5 -98.5z" />
    <glyph glyph-name="aringacute.alt" horiz-adv-x="1138" 
d="M799 1640l213 201l67 -37l-225 -164h-55zM954 1405q0 -81 -61 -139t-141 -58q-77 0 -124.5 46.5t-47.5 119.5q0 81 61 139t141 58q77 0 124.5 -46.5t47.5 -119.5zM627 1376q0 -57 34 -92t93 -35q62 0 107.5 45.5t45.5 108.5q0 55 -34 90t-93 35q-62 0 -107.5 -45.5
t-45.5 -106.5zM438 -20q-155 0 -250.5 113t-95.5 294q0 151 55 298.5t152 244.5q137 137 313 137q80 0 145 -28t106 -75t66 -100t36 -112l73 295h64l-254 -1047h-64l58 233q-36 -61 -91 -115.5t-139.5 -96t-173.5 -41.5zM449 39q157 0 286 129q90 87 142.5 216.5t52.5 258.5
q0 157 -86 261t-230 104q-149 0 -266 -117q-88 -88 -138 -223.5t-50 -274.5q0 -157 79.5 -255.5t209.5 -98.5z" />
    <glyph glyph-name="aring.alt2" horiz-adv-x="1003" 
d="M662 0l49 201q-62 -99 -159 -160t-224 -61q-121 0 -206 74t-85 204q0 164 106 270q111 111 312 111q181 0 348 -61l12 51q19 78 19 137q0 112 -75.5 172.5t-211.5 60.5q-132 0 -254 -51l-17 60q112 48 242 51q-51 45 -51 119q0 80 61.5 137t141.5 57q78 0 126 -45
t48 -117q0 -59 -35.5 -106.5t-91.5 -71.5q180 -67 180 -260q0 -57 -23 -151l-149 -621h-63zM641 1057q63 0 109.5 43.5t46.5 105.5q0 55 -35 90t-94 35q-63 0 -107.5 -43t-44.5 -108q0 -55 33 -89t92 -34zM340 37q149 0 265.5 104t154.5 258l31 123q-165 60 -342 60
q-163 0 -256 -93q-89 -86 -89 -225q0 -107 67 -167t169 -60z" />
    <glyph glyph-name="aringacute.alt2" horiz-adv-x="1003" 
d="M688 1456l211 201l68 -37l-226 -164h-53zM662 0l49 201q-62 -99 -159 -160t-224 -61q-121 0 -206 74t-85 204q0 164 106 270q111 111 312 111q181 0 348 -61l12 51q19 78 19 137q0 112 -75.5 172.5t-211.5 60.5q-132 0 -254 -51l-17 60q112 48 242 51q-51 45 -51 119
q0 80 61.5 137t141.5 57q78 0 126 -45t48 -117q0 -59 -35.5 -106.5t-91.5 -71.5q180 -67 180 -260q0 -57 -23 -151l-149 -621h-63zM641 1057q63 0 109.5 43.5t46.5 105.5q0 55 -35 90t-94 35q-63 0 -107.5 -43t-44.5 -108q0 -55 33 -89t92 -34zM340 37q149 0 265.5 104
t154.5 258l31 123q-165 60 -342 60q-163 0 -256 -93q-89 -86 -89 -225q0 -107 67 -167t169 -60z" />
    <glyph glyph-name="i.dot" horiz-adv-x="417" 
d="M49 0l256 1047h64l-256 -1047h-64zM362 1317l31 127h82l-33 -127h-80z" />
    <glyph glyph-name="aacute.alt" horiz-adv-x="1138" 
d="M688 1206l225 248l74 -37l-244 -211h-55zM438 -20q-155 0 -250.5 113t-95.5 294q0 151 55 298.5t152 244.5q137 137 313 137q80 0 145 -28t106 -75t66 -100t36 -112l73 295h64l-254 -1047h-64l58 233q-36 -61 -91 -115.5t-139.5 -96t-173.5 -41.5zM449 39q157 0 286 129
q90 87 142.5 216.5t52.5 258.5q0 157 -86 261t-230 104q-149 0 -266 -117q-88 -88 -138 -223.5t-50 -274.5q0 -157 79.5 -255.5t209.5 -98.5z" />
    <glyph glyph-name="agrave.alt" horiz-adv-x="1138" 
d="M438 -20q-155 0 -250.5 113t-95.5 294q0 151 55 298.5t152 244.5q137 137 313 137q80 0 145 -28t106 -75t66 -100t36 -112l73 295h64l-254 -1047h-64l58 233q-36 -61 -91 -115.5t-139.5 -96t-173.5 -41.5zM449 39q157 0 286 129q90 87 142.5 216.5t52.5 258.5
q0 157 -86 261t-230 104q-149 0 -266 -117q-88 -88 -138 -223.5t-50 -274.5q0 -157 79.5 -255.5t209.5 -98.5zM696 1206l-153 211l75 37l119 -248h-41z" />
    <glyph glyph-name="acircumflex.alt" horiz-adv-x="1138" 
d="M512 1210l246 242h47l127 -242h-51l-113 170l-199 -170h-57zM438 -20q-155 0 -250.5 113t-95.5 294q0 151 55 298.5t152 244.5q137 137 313 137q80 0 145 -28t106 -75t66 -100t36 -112l73 295h64l-254 -1047h-64l58 233q-36 -61 -91 -115.5t-139.5 -96t-173.5 -41.5z
M449 39q157 0 286 129q90 87 142.5 216.5t52.5 258.5q0 157 -86 261t-230 104q-149 0 -266 -117q-88 -88 -138 -223.5t-50 -274.5q0 -157 79.5 -255.5t209.5 -98.5z" />
    <glyph glyph-name="abreve.alt" horiz-adv-x="1138" 
d="M438 -20q-155 0 -250.5 113t-95.5 294q0 151 55 298.5t152 244.5q137 137 313 137q80 0 145 -28t106 -75t66 -100t36 -112l73 295h64l-254 -1047h-64l58 233q-36 -61 -91 -115.5t-139.5 -96t-173.5 -41.5zM449 39q157 0 286 129q90 87 142.5 216.5t52.5 258.5
q0 157 -86 261t-230 104q-149 0 -266 -117q-88 -88 -138 -223.5t-50 -274.5q0 -157 79.5 -255.5t209.5 -98.5zM731 1208q-102 0 -154 55.5t-38 149.5h51q-5 -70 30.5 -108.5t118.5 -38.5q147 0 222 147h53q-36 -96 -108.5 -150.5t-174.5 -54.5z" />
    <glyph glyph-name="atilde.alt" horiz-adv-x="1138" 
d="M438 -20q-155 0 -250.5 113t-95.5 294q0 151 55 298.5t152 244.5q137 137 313 137q80 0 145 -28t106 -75t66 -100t36 -112l73 295h64l-254 -1047h-64l58 233q-36 -61 -91 -115.5t-139.5 -96t-173.5 -41.5zM449 39q157 0 286 129q90 87 142.5 216.5t52.5 258.5
q0 157 -86 261t-230 104q-149 0 -266 -117q-88 -88 -138 -223.5t-50 -274.5q0 -157 79.5 -255.5t209.5 -98.5zM975 1397l43 -13q-64 -163 -164 -163q-46 0 -119 55q-3 2 -13.5 9.5t-14 9.5t-12 8t-12.5 8t-11.5 5.5t-12 5t-10.5 2.5t-12 1q-32 0 -58 -25.5t-55 -87.5l-45 13
q35 86 74 125t90 39q19 0 40.5 -8.5t36.5 -18t42 -29.5q62 -49 98 -49q31 0 58 26t57 87z" />
    <glyph glyph-name="amacron.alt" horiz-adv-x="1138" 
d="M438 -20q-155 0 -250.5 113t-95.5 294q0 151 55 298.5t152 244.5q137 137 313 137q80 0 145 -28t106 -75t66 -100t36 -112l73 295h64l-254 -1047h-64l58 233q-36 -61 -91 -115.5t-139.5 -96t-173.5 -41.5zM449 39q157 0 286 129q90 87 142.5 216.5t52.5 258.5
q0 157 -86 261t-230 104q-149 0 -266 -117q-88 -88 -138 -223.5t-50 -274.5q0 -157 79.5 -255.5t209.5 -98.5zM494 1249l14 60h491l-14 -60h-491z" />
    <glyph glyph-name="adieresis.alt" horiz-adv-x="1138" 
d="M561 1229l29 117h92l-31 -117h-90zM815 1229l29 117h90l-29 -117h-90zM438 -20q-155 0 -250.5 113t-95.5 294q0 151 55 298.5t152 244.5q137 137 313 137q80 0 145 -28t106 -75t66 -100t36 -112l73 295h64l-254 -1047h-64l58 233q-36 -61 -91 -115.5t-139.5 -96
t-173.5 -41.5zM449 39q157 0 286 129q90 87 142.5 216.5t52.5 258.5q0 157 -86 261t-230 104q-149 0 -266 -117q-88 -88 -138 -223.5t-50 -274.5q0 -157 79.5 -255.5t209.5 -98.5z" />
    <glyph glyph-name="aring.alt" horiz-adv-x="1138" 
d="M958 1407q0 -81 -61 -139t-141 -58q-77 0 -124.5 46.5t-47.5 119.5q0 81 61 139t141 58q77 0 124.5 -46.5t47.5 -119.5zM631 1378q0 -57 34 -92t93 -35q62 0 107.5 45.5t45.5 108.5q0 55 -34 90t-93 35q-62 0 -107.5 -45.5t-45.5 -106.5zM438 -20q-155 0 -250.5 113
t-95.5 294q0 151 55 298.5t152 244.5q137 137 313 137q80 0 145 -28t106 -75t66 -100t36 -112l73 295h64l-254 -1047h-64l58 233q-36 -61 -91 -115.5t-139.5 -96t-173.5 -41.5zM449 39q157 0 286 129q90 87 142.5 216.5t52.5 258.5q0 157 -86 261t-230 104q-149 0 -266 -117
q-88 -88 -138 -223.5t-50 -274.5q0 -157 79.5 -255.5t209.5 -98.5z" />
    <glyph glyph-name="commaaccent.rot" 
d="M805 1479l6 -35q-42 -18 -62 -40t-30 -65h41l-29 -112h-92l23 94q20 74 51 107t92 51z" />
    <glyph glyph-name="hcoslug" horiz-adv-x="1421" 
d="M506 37h53q3 45 -39 45q-19 0 -30 -11.5t-11 -31.5q3 -41 43 -41q31 0 37 29h-14q-3 -15 -19 -15q-20 0 -20 25zM520 72q15 0 15 -25h-29q0 25 14 25zM399 160q-16 0 -16 33q0 30 16 30q17 0 17 -30q0 -33 -17 -33zM430 8q-16 0 -16 33q0 31 16 31t16 -31q0 -33 -16 -33z
M430 -2q19 0 31 12t12 31t-12 30t-31 11t-31 -11t-12 -30q0 -20 12 -31.5t31 -11.5zM1118 8q-16 0 -16 33q0 31 16 31q17 0 17 -31q0 -33 -17 -33zM1118 -2q19 0 31 12t12 31t-12 30t-31 11t-31 -11t-12 -30q0 -20 12 -31.5t31 -11.5zM256 166v-14h61v14h-20v33h8
q9 0 12 -17h15v47h-15q-3 -16 -12 -16h-8v37h25q10 0 13.5 -4.5t8.5 -22.5h16v41h-104v-14h14v-84h-14zM399 150q19 0 31 12t12 31q0 18 -12 29t-31 11t-31 -11t-12 -29q0 -20 12 -31.5t31 -11.5zM1319 1434v-1639h-1217v1639h1217zM1020 -2q46 0 49 47h-16q-3 -33 -29 -33
q-33 0 -33 45t29 45q23 0 31 -32h16v45h-16l-2 -13q-15 15 -33 15q-24 0 -39.5 -16.5t-15.5 -45.5q0 -57 59 -57zM762 164q-17 0 -17 26q0 27 17 27q14 0 14 -27q0 -26 -14 -26zM565 14v-14h47v14h-10v52h29v-52h-10v-14h47v14h-13v107l-20 -4q-12 4 -19 4q-38 0 -38 -39v-2
h-15v-14h15v-52h-13zM754 14v-14h53v14h-16v33q9 19 14 19v-3q0 -12 12 -12q14 0 14 15q0 16 -16 16q-14 0 -24 -23v21h-37v-14h12v-52h-12zM721 256v-106h12l8 16q10 -16 29 -16q17 0 25 13.5t8 29.5q0 40 -31 40q-21 0 -27 -18v55h-36v-14h12zM819 154q-14 0 -14 -15
q0 -18 22 -18q26 0 37 33l27 63h10v14h-35v-14h11l-17 -41l-18 41h12v14h-51v-14h10q5 -16 12 -27l21 -40q-3 -17 -17 -17q5 5 2.5 13t-12.5 8zM506 877q0 26 15 42.5t40 16.5q26 0 43 -21.5t17 -56.5q0 -46 -37 -102l-10 10q-26 26 -37.5 38.5t-21 32t-9.5 40.5zM618 180
v-28h15l2 8q10 -10 27 -10q28 0 28 26q0 19 -24.5 25t-24.5 12q0 8 10 8q13 0 21 -14h14v26h-12l-4 -10q-7 10 -23 10q-29 0 -29 -24q0 -19 25 -26t25 -13q0 -8 -11 -8q-12 0 -24 18h-15zM535 449q-47 0 -77 31t-30 79q0 49 33 82q62 -56 151 -168q-30 -24 -77 -24zM586 254
l-25 -4v-19h-14v-14h14v-41q0 -26 25 -26q22 0 28 26l-10 4q-3 -14 -10 -14q-8 0 -8 10v41h26v14h-26v23zM877 627q30 -52 88 -52q43 0 72.5 32t29.5 79t-29.5 77t-72.5 30q-69 0 -123 -78q-9 79 -101 76q19 32 19 69q0 60 -52.5 106t-142.5 46q-99 0 -161 -51.5t-62 -122.5
q0 -42 15 -73.5t49 -68.5q-168 -58 -168 -186q0 -81 65 -136t158 -55q129 0 213 93q50 -53 88 -73t86 -20q68 0 114 52t50 141l-15 4q-20 -30 -39 -44.5t-49 -14.5t-59 19.5t-68 64.5q42 55 95 86zM449 166v-14h45v14h-9v31q0 20 15 20q12 0 12 -14v-37h-8v-14h45v14h-12v39
q0 28 -25 28q-20 0 -29 -22v20h-34v-14h12v-51h-12zM950 68h-37v-15h13q-2 -7 -13 -18l-24 26q22 9 22 25q0 25 -28 25q-17 0 -26 -8t-9 -21t12 -25q-26 -9 -26 -30q0 -29 36 -29q19 0 31 12q9 -12 25 -12q20 0 26 25l-10 2q-4 -11 -8 -11q-5 0 -12 11q10 11 18 28h10v15z
M879 12q-21 0 -21 21q0 10 8 18q19 -19 29 -33q-9 -6 -16 -6zM602 80v6q0 25 12 25q5 0 7 -2q-3 -3 -3 -9q0 -10 13 -10v-10h-29zM870 88q0 10 11 10q12 0 12 -12q0 -11 -10 -18q-13 13 -13 20zM639 700q57 38 86 70q23 -23 29 -49t-2 -52.5t-29 -62.5q-68 78 -84 94z
M696 37h54q3 45 -39 45q-17 0 -29 -12t-12 -31q0 -41 43 -41q27 0 37 29h-15q-3 -15 -18 -15q-21 0 -21 25zM711 72q14 0 14 -25h-29q0 25 15 25zM254 14v-14h59v14h-16v37h45v-37h-16v-14h59v14h-16v84h16v15h-59v-15h16v-32h-45v32h16v15h-59v-15h16v-84h-16zM1180 27
q-15 0 -15 -15q0 -14 15 -14q14 0 14 14q0 15 -14 15z" />
    <glyph glyph-name="straightdescendercyrillic" horiz-adv-x="1024" 
d="M299 59h135l-82 -321h-59l65 262h-71z" />
    <glyph glyph-name="straightdescendercyrillic.cap" horiz-adv-x="1024" 
d="M285 61h153l-82 -335h-65l67 274h-88z" />
    <glyph glyph-name="descendercyrillic.cap" horiz-adv-x="1024" 
d="M406 -274l71 292h66l-72 -292h-65z" />
    <glyph glyph-name="descendercyrillic" horiz-adv-x="1024" 
d="M410 -262l69 276h62l-70 -276h-61z" />
    <glyph glyph-name="uni0384.cap" horiz-adv-x="1024" 
d="M408 1106l120 328h86l-159 -328h-47z" />
    <glyph glyph-name="uni0386.calt" horiz-adv-x="1327" 
d="M-53 0l917 1444h66l209 -1444h-68l-57 418h-727l-264 -418h-76zM326 479h678l-123 875z" />
    <glyph glyph-name="uni0388.calt" horiz-adv-x="1128" 
d="M57 0l351 1434h835l-14 -62h-768l-152 -618h695l-15 -64h-694l-156 -629h779l-17 -61h-844z" />
    <glyph glyph-name="uni0389.calt" horiz-adv-x="1325" 
d="M57 0l351 1434h67l-166 -680h819l166 680h70l-350 -1434h-70l168 690h-819l-168 -690h-68z" />
    <glyph glyph-name="uni038A.calt" horiz-adv-x="462" 
d="M72 0l350 1434h67l-350 -1434h-67z" />
    <glyph glyph-name="uni038C.calt" horiz-adv-x="1439" 
d="M877 1456q224 0 360.5 -156.5t136.5 -410.5q0 -196 -74.5 -394t-203.5 -327q-198 -191 -437 -191q-223 0 -359 156.5t-136 409.5q0 196 73.5 395.5t202.5 325.5q192 192 437 192zM662 39q215 0 385 170q120 120 190 307.5t70 372.5q0 225 -120.5 365.5t-312.5 140.5
q-213 0 -385 -172q-120 -120 -189 -307.5t-69 -370.5q0 -227 118.5 -366.5t312.5 -139.5z" />
    <glyph glyph-name="uni038E.calt" horiz-adv-x="1155" 
d="M408 0l147 602l-301 832h70l278 -772l655 772h86l-722 -844l-144 -590h-69z" />
    <glyph glyph-name="uni038F.calt" horiz-adv-x="1462" 
d="M889 1395q-246 0 -416 -170q-201 -204 -201 -547q0 -326 238 -623l-14 -55h-486l15 61l405 -2q-225 302 -225 621q0 367 217 584q189 192 469 192q236 0 373 -141.5t137 -380.5q0 -236 -139.5 -451.5t-399.5 -423.5l410 2l-17 -61h-507l14 55q569 426 569 875
q0 211 -115.5 338t-326.5 127z" />
    <glyph glyph-name="uni0399.calt" horiz-adv-x="462" 
d="M72 0l350 1434h67l-350 -1434h-67zM309 1573l29 117h96l-28 -117h-97zM582 1573l28 117h97l-29 -117h-96z" />
    <glyph glyph-name="uni039E.alt" horiz-adv-x="1257" 
d="M1159 754l-14 -64h-440l-152 -629h494l-17 -61h-1057l15 61h497l154 629h-440l14 64h440l152 618h-490l17 62h1042l-16 -62h-488l-149 -618h438z" />
    <glyph glyph-name="uni03A5.calt" horiz-adv-x="1155" 
d="M408 0l147 602l-301 832h70l278 -772l655 772h86l-722 -844l-144 -590h-69zM623 1565l28 116h97l-29 -116h-96zM895 1565l29 116h96l-29 -116h-96z" />
    <glyph glyph-name="uni0424.bgr" horiz-adv-x="1630" 
d="M604 -199l49 199q-148 18 -259 98t-169.5 205.5t-58.5 280.5q0 182 66.5 351t189.5 292q216 213 543 213h10h29l49 192h67l-47 -198q224 -32 356 -190.5t132 -393.5q0 -183 -66.5 -352t-191.5 -291q-104 -104 -243 -158.5t-298 -54.5h-10h-31l-49 -193h-68zM236 586
q0 -216 115.5 -357t318.5 -170l321 1319h-20h-10q-296 0 -488 -192q-115 -113 -176 -271t-61 -329zM1491 848q0 214 -117 356.5t-319 167.5l-320 -1317h21h10q291 0 487 193q115 114 176.5 272t61.5 328z" />
    <glyph glyph-name="uni0431.srb" horiz-adv-x="1071" 
d="M477 -20q-178 0 -284.5 116t-106.5 303q0 133 47 256t127 203q139 139 336 139q59 0 115 -20l-176 184q-59 62 -81 98.5t-22 77.5q0 64 46.5 103t139.5 39h498l-12 -60h-488q-118 0 -118 -84q0 -30 15.5 -57.5t61.5 -73.5l240 -248q87 -93 126.5 -185t39.5 -204
q0 -122 -45 -245.5t-127 -202.5q-139 -139 -332 -139zM479 39q162 0 283 121q70 70 110.5 184t40.5 225q0 166 -85 268.5t-236 102.5q-163 0 -285 -119q-74 -77 -113.5 -189t-39.5 -233q0 -169 88.5 -264.5t236.5 -95.5z" />
    <glyph glyph-name="uni0432.bgr" horiz-adv-x="1099" 
d="M520 -20q-193 0 -295 98.5t-102 263.5q0 82 29 211l116 494q51 203 164 319q129 123 311 123q159 0 251.5 -91.5t92.5 -234.5q0 -168 -114.5 -284t-296.5 -146q133 -33 209 -121t76 -221q0 -174 -123.5 -292.5t-317.5 -118.5zM520 39q167 0 271 102t104 250
q0 146 -107 233t-305 87h-231l-39 -166q-27 -108 -27 -203q0 -135 84 -219t250 -84zM330 1034l-64 -268h250q264 0 399 135q105 105 105 260q0 120 -75 194.5t-204 74.5q-154 0 -264 -107q-103 -103 -147 -289z" />
    <glyph glyph-name="uni0433.bgr" horiz-adv-x="874" 
d="M115 223q0 -84 59 -131t174 -47q166 0 342 100l31 -55q-189 -106 -375 -106q-144 0 -220.5 64.5t-76.5 172.5q0 115 87.5 191t297.5 151q193 72 264.5 128.5t71.5 142.5q0 77 -57 123.5t-160 46.5q-140 0 -309 -95l-29 56q165 98 338 98q137 0 211 -63t74 -166
q0 -111 -84.5 -180t-296.5 -146q-189 -68 -265.5 -132.5t-76.5 -152.5z" />
    <glyph glyph-name="uni0434.bgr" horiz-adv-x="1134" 
d="M393 -309q-107 0 -216.5 39t-188.5 106l39 51q74 -63 172 -99t198 -36q180 0 285 105q80 77 127 264l45 182q-169 -235 -399 -235q-151 0 -253 105t-102 273q0 136 50.5 263t140.5 217q141 141 325 141q78 0 141.5 -27t105 -72.5t66.5 -96t36 -105.5l69 281h64l-228 -934
q-26 -108 -58.5 -177t-84.5 -118q-127 -127 -334 -127zM465 127q166 0 299 133q74 74 120 184.5t46 217.5q0 89 -36.5 167t-110 128.5t-169.5 50.5q-153 0 -274 -121q-80 -80 -126 -196.5t-46 -239.5q0 -145 84 -234.5t213 -89.5z" />
    <glyph glyph-name="uni0436.bgr" horiz-adv-x="1503" 
d="M1020 1479l-227 -924h182l485 492h84l-520 -523l291 -524h-70l-272 498h-195l-121 -498h-63l121 498h-180l-506 -498h-86l544 530l-268 517h70l252 -492h188l225 924h66z" />
    <glyph glyph-name="uni0438.bgr" horiz-adv-x="1075" 
d="M401 -20q-136 0 -214 76t-78 216q0 77 26 187l144 588h63l-143 -590q-25 -113 -25 -181q0 -116 62 -177.5t180 -61.5q137 0 250 106t157 281l152 623h63l-254 -1047h-65l53 215q-59 -104 -153.5 -169.5t-217.5 -65.5z" />
    <glyph glyph-name="uni0439.bgr" horiz-adv-x="1075" 
d="M401 -20q-136 0 -214 76t-78 216q0 77 26 187l144 588h63l-143 -590q-25 -113 -25 -181q0 -116 62 -177.5t180 -61.5q137 0 250 106t157 281l152 623h63l-254 -1047h-65l53 215q-59 -104 -153.5 -169.5t-217.5 -65.5zM690 1202q-102 0 -154 55.5t-38 149.5h51
q-5 -70 30.5 -108.5t118.5 -38.5q147 0 222 147h53q-36 -96 -108.5 -150.5t-174.5 -54.5z" />
    <glyph glyph-name="uni043A.bgr" horiz-adv-x="962" 
d="M786 0h-73l-297 498h-195l-121 -498h-63l362 1479h66l-232 -924h187l508 492h86l-543 -523z" />
    <glyph glyph-name="uni043F.bgr" horiz-adv-x="1077" 
d="M37 0l254 1047h63l-51 -216q59 104 153.5 170t217.5 66q136 0 214.5 -77.5t78.5 -215.5q0 -72 -27 -186l-141 -588h-64l142 590q24 95 24 180q0 114 -62.5 176t-179.5 62q-134 0 -251 -108t-156 -279l-152 -621h-63z" />
    <glyph glyph-name="uni0442.bgr" horiz-adv-x="1669" 
d="M37 0l254 1047h63l-51 -216q140 236 342 236q118 0 189 -70t77 -192q65 117 162.5 189.5t216.5 72.5q123 0 199 -77t76 -210q0 -65 -31 -192l-141 -588h-64l144 590q24 113 24 186q0 110 -58.5 171t-162.5 61q-123 0 -231.5 -110.5t-149.5 -276.5l-147 -621h-66l143 590
q27 115 27 186q0 110 -58.5 171t-162.5 61q-124 0 -231.5 -111.5t-149.5 -278.5l-150 -618h-63z" />
    <glyph glyph-name="uni0446.bgr" horiz-adv-x="1095" 
d="M401 -20q-136 0 -214 76t-78 216q0 77 26 187l144 588h63l-143 -590q-25 -113 -25 -181q0 -116 62 -177.5t180 -61.5q137 0 250 106t157 281l152 623h63l-239 -988h114l-82 -321h-59l66 262h-119l53 215q-59 -104 -153.5 -169.5t-217.5 -65.5z" />
    <glyph glyph-name="uni0448.bgr" horiz-adv-x="1671" 
d="M1632 1047l-254 -1047h-63l53 213q-67 -107 -148.5 -170t-193.5 -63q-121 0 -191.5 69.5t-76.5 192.5q-61 -116 -159.5 -189t-217.5 -73q-125 0 -200 75.5t-75 208.5q0 60 29 195l144 588h63l-143 -590q-27 -111 -27 -187q0 -110 58.5 -171.5t162.5 -61.5q122 0 231 111
t150 276l150 623h63l-143 -592q-27 -111 -27 -185q0 -110 59 -171.5t164 -61.5q123 0 230 112.5t149 278.5l150 619h63z" />
    <glyph glyph-name="uni0449.bgr" horiz-adv-x="1691" 
d="M1632 1047l-239 -988h116l-82 -321h-59l66 262h-119l53 213q-67 -107 -148.5 -170t-193.5 -63q-121 0 -191.5 69.5t-76.5 192.5q-61 -116 -159.5 -189t-217.5 -73q-125 0 -200 75.5t-75 208.5q0 60 29 195l144 588h63l-143 -590q-27 -111 -27 -187q0 -110 58.5 -171.5
t162.5 -61.5q122 0 231 111t150 276l150 623h63l-143 -592q-27 -111 -27 -185q0 -110 59 -171.5t164 -61.5q123 0 230 112.5t149 278.5l150 619h63z" />
    <glyph glyph-name="uni044E.bgr" horiz-adv-x="1462" 
d="M846 -20q-166 0 -268.5 117t-102.5 309q0 44 6 94h-258l-123 -500h-63l362 1479h66l-227 -922h251q52 232 187 367q146 143 332 143q165 0 266.5 -117t101.5 -309q0 -144 -53.5 -284t-146.5 -236q-141 -141 -330 -141zM848 39q155 0 278 123q84 84 133.5 214.5
t49.5 264.5q0 167 -82.5 267t-222.5 100q-154 0 -279 -125q-82 -82 -132 -213.5t-50 -263.5q0 -166 83 -266.5t222 -100.5z" />
    </font>
</defs>
</svg>
