<?xml version="1.0" standalone="no"?>
<!DOCTYPE svg PUBLIC "-//W3C//DTD SVG 1.1//EN" "http://www.w3.org/Graphics/SVG/1.1/DTD/svg11.dtd" >
<svg xmlns="http://www.w3.org/2000/svg" xmlns:xlink="http://www.w3.org/1999/xlink" version="1.1">
<metadata>
Created by FontForge 20201107 at Wed May 29 09:57:46 2024
 By 
Copyright (C) 2001, 2011 Hoefler &#38; Co. http://www.typography.com |DCNT
</metadata>
<defs>
<font id="GothamCond-Thin" horiz-adv-x="1024" >
  <font-face 
    font-family="Gotham Cond Thin"
    font-weight="250"
    font-stretch="extra-condensed"
    units-per-em="2048"
    panose-1="0 0 0 0 0 0 0 0 0 0"
    ascent="1638"
    descent="-410"
    x-height="1067"
    cap-height="1434"
    bbox="-145 -410 1438 1862"
    underline-thickness="102"
    underline-position="-204"
    unicode-range="U+0020-FB04"
  />
<missing-glyph 
d="M0 -410v2048h1024v-2048h-1024zM145 1536l367 -799l367 799h-734zM102 -156l353 770l-353 770v-1540zM922 1384l-353 -770l353 -770v1540zM512 492l-367 -799h734z" />
    <glyph glyph-name="f_f" unicode="ff" horiz-adv-x="794" 
d="M553 0v1028h-111v39h111v143q0 136 57 193q47 47 131 47q17 0 45 -4v-41q-28 4 -45 4q-75 0 -110 -47.5t-35 -151.5v-143h180v-39h-180v-1028h-43zM147 0v1028h-110v39h110v143q0 135 58 193q47 47 131 47q17 0 45 -4v-41q-28 4 -45 4q-75 0 -110.5 -47.5t-35.5 -151.5
v-143h181v-39h-181v-1028h-43z" />
    <glyph glyph-name="fi" unicode="fi" horiz-adv-x="681" 
d="M147 0v1028h-110v39h110v143q0 135 58 193q47 47 131 47q17 0 45 -4v-41q-28 4 -45 4q-75 0 -110.5 -47.5t-35.5 -151.5v-143h181v-39h-181v-1028h-43zM522 0v1067h43v-1067h-43zM518 1331v117h51v-117h-51z" />
    <glyph glyph-name="fl" unicode="fl" horiz-adv-x="681" 
d="M147 0v1028h-110v39h110v143q0 135 58 193q47 47 131 47q17 0 45 -4v-41q-28 4 -45 4q-75 0 -110.5 -47.5t-35.5 -151.5v-143h181v-39h-181v-1028h-43zM522 0v1448h43v-1448h-43z" />
    <glyph glyph-name="f_f_i" unicode="ffi" horiz-adv-x="1087" 
d="M553 0v1028h-111v39h111v143q0 136 57 193q47 47 131 47q17 0 45 -4v-41q-28 4 -45 4q-75 0 -110 -47.5t-35 -151.5v-143h180v-39h-180v-1028h-43zM147 0v1028h-110v39h110v143q0 135 58 193q47 47 131 47q17 0 45 -4v-41q-28 4 -45 4q-75 0 -110.5 -47.5t-35.5 -151.5
v-143h181v-39h-181v-1028h-43zM928 0v1067h43v-1067h-43zM924 1331v117h51v-117h-51z" />
    <glyph glyph-name="f_f_l" unicode="ffl" horiz-adv-x="1087" 
d="M553 0v1028h-111v39h111v143q0 136 57 193q47 47 131 47q17 0 45 -4v-41q-28 4 -45 4q-75 0 -110 -47.5t-35 -151.5v-143h180v-39h-180v-1028h-43zM147 0v1028h-110v39h110v143q0 135 58 193q47 47 131 47q17 0 45 -4v-41q-28 4 -45 4q-75 0 -110.5 -47.5t-35.5 -151.5
v-143h181v-39h-181v-1028h-43zM928 0v1448h43v-1448h-43z" />
    <glyph glyph-name=".notdef" 
d="M0 -410v2048h1024v-2048h-1024zM145 1536l367 -799l367 799h-734zM102 -156l353 770l-353 770v-1540zM922 1384l-353 -770l353 -770v1540zM512 492l-367 -799h734z" />
    <glyph glyph-name=".null" horiz-adv-x="0" 
 />
    <glyph glyph-name="nonmarkingreturn" horiz-adv-x="682" 
 />
    <glyph glyph-name="space" unicode=" " horiz-adv-x="323" 
 />
    <glyph glyph-name="exclam" unicode="!" horiz-adv-x="270" 
d="M125 375l-12 915v144h45v-144l-13 -915h-20zM106 0v102h58v-102h-58z" />
    <glyph glyph-name="quotedbl" unicode="&#x22;" horiz-adv-x="401" 
d="M305 938v496h51v-19l-26 -477h-25zM90 938v496h51v-19l-26 -477h-25z" />
    <glyph glyph-name="numbersign" unicode="#" horiz-adv-x="755" 
d="M670 451v-41h-156l-39 -410h-37l39 410h-258l-39 -410h-37l39 410h-137v41h141l52 540h-152v41h156l39 402h36l-38 -402h258l38 402h37l-39 -402h138v-41h-142l-51 -540h152zM274 991l-51 -540h258l51 540h-258z" />
    <glyph glyph-name="dollar" unicode="$" horiz-adv-x="661" 
d="M549 1389v-48q-97 61 -199 64v-641q141 -105 195.5 -205t54.5 -223v-6q0 -143 -69.5 -233.5t-180.5 -104.5v-195h-39v191h-2q-135 0 -250 73v48q127 -82 250 -82h2v712q-129 95 -190.5 184.5t-61.5 209.5v4q0 124 69 208.5t183 96.5v131h39v-129q106 -3 199 -55zM555 332
v4q0 105 -46.5 196t-158.5 179v-682q90 18 148 99t57 204zM104 1137v-4q0 -56 15.5 -105t46 -91t64 -74t81.5 -70v610q-96 -10 -152.5 -82.5t-54.5 -183.5z" />
    <glyph glyph-name="percent" unicode="%" horiz-adv-x="991" 
d="M250 764q-88 0 -142.5 88.5t-54.5 243.5v16q0 155 54.5 243.5t142.5 88.5t142 -88.5t54 -243.5v-16q0 -155 -54 -243.5t-142 -88.5zM250 1409q-66 0 -112 -76.5t-46 -220.5v-16q0 -144 46 -220.5t112 -76.5q67 0 112.5 76t45.5 221v16q0 145 -46.5 221t-111.5 76z
M479 723l318 711h39l-324 -723l-317 -711h-39zM741 -10q-88 0 -142 88.5t-54 243.5v16q0 155 54 243.5t142 88.5t142.5 -88.5t54.5 -243.5v-16q0 -155 -54.5 -243.5t-142.5 -88.5zM741 25q67 0 112.5 76t45.5 221v16q0 145 -46.5 221t-111.5 76q-66 0 -111.5 -76.5
t-45.5 -220.5v-16q0 -144 45.5 -220.5t111.5 -76.5z" />
    <glyph glyph-name="ampersand" unicode="&#x26;" horiz-adv-x="802" 
d="M741 -14l-131 233q-112 -233 -288 -233q-119 0 -193 102.5t-74 247.5v10q0 243 232 455q-76 132 -110 217.5t-34 159.5v6q0 105 64 184.5t162 79.5q93 0 149.5 -73t56.5 -175v-12q0 -106 -59 -196.5t-178 -196.5l268 -480q54 145 80 371l43 -6q-38 -273 -96 -412
l147 -260zM317 831q101 89 157 175t56 182v6q0 90 -44.5 152.5t-116.5 62.5q-77 0 -129 -66t-52 -157v-4q0 -69 29.5 -148t99.5 -203zM324 27q162 0 262 237l-281 502q-94 -88 -149.5 -197.5t-55.5 -216.5v-8q0 -137 63 -227t161 -90z" />
    <glyph glyph-name="quotesingle" unicode="'" horiz-adv-x="186" 
d="M90 938v496h51v-19l-26 -477h-25z" />
    <glyph glyph-name="parenleft" unicode="(" horiz-adv-x="438" 
d="M408 -201v-47q-162 135 -248 349t-86 493v2q0 560 334 842v-47q-291 -285 -291 -797v-2q0 -256 75 -458.5t216 -334.5z" />
    <glyph glyph-name="parenright" unicode=")" horiz-adv-x="438" 
d="M31 -248v47q291 278 291 795v2q0 517 -291 795v47q334 -282 334 -844v-2q0 -276 -86.5 -492.5t-247.5 -347.5z" />
    <glyph glyph-name="asterisk" unicode="*" horiz-adv-x="532" 
d="M244 883l12 256l-174 -119l-25 39l185 102l-187 105l25 41l176 -123l-12 254h45l-13 -254l177 123l24 -41l-186 -105l184 -102l-24 -39l-175 119l13 -256h-45z" />
    <glyph glyph-name="plus" unicode="+" horiz-adv-x="671" 
d="M315 424v276h-256v41h256v277h41v-277h256v-41h-256v-276h-41z" />
    <glyph glyph-name="comma" unicode="," horiz-adv-x="180" 
d="M51 -123l-14 27q26 14 37 35t10 61h-23v102h58v-108q0 -47 -17 -72t-51 -45z" />
    <glyph glyph-name="hyphen" unicode="-" horiz-adv-x="495" 
d="M76 584v41h344v-41h-344z" />
    <glyph glyph-name="period" unicode="." horiz-adv-x="180" 
d="M61 0v102h58v-102h-58z" />
    <glyph glyph-name="slash" unicode="/" horiz-adv-x="495" 
d="M-8 -201l446 1774h41l-446 -1774h-41z" />
    <glyph glyph-name="zero" unicode="0" horiz-adv-x="737" 
d="M369 -14q-134 0 -211.5 180t-77.5 532v33q0 353 78 535t211 182t210.5 -181.5t77.5 -535.5v-33q0 -352 -77.5 -532t-210.5 -180zM369 27q109 0 176 172.5t67 498.5v33q0 328 -67 502t-176 174t-176.5 -174t-67.5 -502v-33q0 -326 67.5 -498.5t176.5 -172.5z" />
    <glyph glyph-name="one" unicode="1" horiz-adv-x="362" 
d="M182 0v1378l-149 -88v47l157 97h37v-1434h-45z" />
    <glyph glyph-name="two" unicode="2" horiz-adv-x="641" 
d="M45 0v29l338 690q74 151 99.5 231t25.5 170q0 140 -62.5 210.5t-164.5 70.5q-52 0 -97.5 -19t-101.5 -55v49q96 66 203 66q124 0 196 -85t72 -227v-8q0 -95 -28 -177t-107 -251l-320 -653h465v-41h-518z" />
    <glyph glyph-name="three" unicode="3" horiz-adv-x="591" 
d="M201 -8q-87 0 -156 31v47q77 -35 160 -35q123 0 205 102t82 262v13q0 145 -80.5 233.5t-218.5 106.5v28l294 615h-442v39h487v-37l-292 -611q56 -12 106 -38.5t94 -69.5t70.5 -111t26.5 -151v-15q0 -180 -97.5 -294.5t-238.5 -114.5z" />
    <glyph glyph-name="four" unicode="4" horiz-adv-x="661" 
d="M469 0v346h-430v33l432 1065h39v-1057h113v-41h-113v-346h-41zM84 387h385v948z" />
    <glyph glyph-name="five" unicode="5" horiz-adv-x="622" 
d="M233 -8q-34 0 -65 6.5t-42.5 11.5t-41.5 19v45q73 -41 152 -41q113 0 194.5 112.5t81.5 305.5v8q0 91 -21 158.5t-57 105.5t-78 56t-90 18q-12 0 -23.5 -0.5t-22 -2.5t-18.5 -3.5t-18.5 -4.5t-15.5 -4.5t-15 -5.5t-13 -5.5t-12.5 -6t-10.5 -4.5l-31 20l29 654h389v-41
h-350l-27 -584q77 31 141 31q121 0 205 -95.5t84 -283.5v-8q0 -205 -93.5 -333t-230.5 -128z" />
    <glyph glyph-name="six" unicode="6" horiz-adv-x="690" 
d="M362 -14q-88 0 -149 61q-131 131 -131 553v62q0 392 89 589t257 197q62 0 133 -29v-45q-33 18 -60.5 25.5t-72.5 7.5q-91 0 -159.5 -80.5t-105 -228t-36.5 -342.5q57 50 122 82t120 32q118 0 189 -97.5t71 -311.5v-8q0 -208 -71.5 -337.5t-195.5 -129.5zM365 27
q71 0 121.5 60.5t74 154.5t23.5 209v8q0 106 -18.5 181.5t-51.5 115t-69.5 56.5t-79.5 17q-53 0 -117.5 -35t-120.5 -87v-107q0 -157 18.5 -271.5t52.5 -178.5t75 -93.5t92 -29.5z" />
    <glyph glyph-name="seven" unicode="7" horiz-adv-x="581" 
d="M145 0l330 1393h-420v41h465v-35l-332 -1399h-43z" />
    <glyph glyph-name="eight" unicode="8" horiz-adv-x="651" 
d="M326 -14q-115 0 -194 103.5t-79 277.5v14q0 143 54 233.5t145 124.5q-70 30 -122 122t-52 216v13q0 168 70 263t178 95q104 0 175.5 -94t71.5 -264v-13q0 -122 -53 -217t-123 -121q92 -33 146.5 -122t54.5 -236v-14q0 -178 -80 -279.5t-192 -101.5zM326 760
q62 0 110 50.5t71 122t23 146.5v8q0 154 -56.5 238t-147.5 84t-148 -84.5t-57 -237.5v-8q0 -122 58 -220.5t147 -98.5zM326 27q99 0 165 94t66 250v6q0 145 -64.5 243.5t-166.5 98.5q-103 0 -167.5 -98.5t-64.5 -243.5v-6q0 -153 66 -248.5t166 -95.5z" />
    <glyph glyph-name="nine" unicode="9" horiz-adv-x="673" 
d="M254 27q136 0 216 173.5t85 467.5q-57 -50 -122.5 -82.5t-119.5 -32.5q-117 0 -188.5 102.5t-71.5 317.5v8q0 208 71 337.5t195 129.5q88 0 150 -62q131 -131 131 -552v-62q0 -181 -20 -323t-60.5 -247t-108 -160.5t-157.5 -55.5q-65 0 -143 32v45q64 -36 143 -36z
M313 594q56 0 120.5 35t121.5 88v117q0 157 -18.5 271.5t-52.5 178.5t-75 93.5t-92 29.5q-71 0 -121.5 -60.5t-74 -154.5t-23.5 -209v-8q0 -105 18 -182t50 -119t68.5 -61t78.5 -19z" />
    <glyph glyph-name="colon" unicode=":" horiz-adv-x="200" 
d="M72 907v103h57v-103h-57zM72 0v102h57v-102h-57z" />
    <glyph glyph-name="semicolon" unicode=";" horiz-adv-x="200" 
d="M72 907v103h57v-103h-57zM61 -123l-14 27q26 14 37 35t10 61h-22v102h57v-108q0 -47 -17 -72t-51 -45z" />
    <glyph glyph-name="less" unicode="&#x3c;" horiz-adv-x="696" 
d="M590 397l-508 310v28l508 309v-47l-453 -276l453 -277v-47z" />
    <glyph glyph-name="equal" unicode="=" horiz-adv-x="671" 
d="M70 842v43h532v-43h-532zM70 557v43h532v-43h-532z" />
    <glyph glyph-name="greater" unicode="&#x3e;" horiz-adv-x="696" 
d="M106 397v47l453 277l-453 276v47l508 -309v-28z" />
    <glyph glyph-name="question" unicode="?" horiz-adv-x="585" 
d="M225 375l-10 354l6 12q123 55 193.5 152t70.5 217v8q0 133 -74 207t-180 74q-80 0 -194 -62v47q103 58 201 58q122 0 207 -88t85 -232v-12q0 -127 -71.5 -229.5t-196.5 -163.5l-16 -342h-21zM213 0v102h57v-102h-57z" />
    <glyph glyph-name="at" unicode="@" horiz-adv-x="1280" 
d="M614 -272q-116 0 -213.5 45t-171.5 131t-115.5 222.5t-41.5 309.5q0 200 45.5 382.5t128 323t208 224.5t275.5 84q114 0 206 -51t151 -140t90.5 -205.5t31.5 -250.5q0 -159 -33.5 -306t-102.5 -247t-159 -100q-79 0 -117 63.5t-26 157.5q-110 -228 -244 -228
q-84 0 -130 71.5t-46 191.5q0 161 47 308t124.5 236.5t162.5 89.5q68 0 109.5 -61t54.5 -156l35 183l41 -9l-105 -534q-12 -65 -12 -137q0 -54 26.5 -96t86.5 -42q71 0 130.5 96.5t90 235.5t30.5 279q0 125 -28 235t-81.5 195.5t-139.5 135.5t-193 50q-115 0 -215.5 -56
t-173 -151.5t-125 -220t-78.5 -263.5t-26 -280q0 -165 39 -296t107.5 -214.5t159.5 -127.5t197 -44q93 0 166 24t152 73l20 -31q-89 -54 -161.5 -77t-176.5 -23zM530 188q59 0 113 54q64 64 106.5 167t56 183.5t13.5 144.5q0 104 -37.5 184t-97.5 80q-56 0 -113 -57
q-83 -83 -130.5 -229.5t-47.5 -306.5q0 -102 34 -161t103 -59z" />
    <glyph glyph-name="A" unicode="A" horiz-adv-x="786" 
d="M55 0l316 1444h45l315 -1444h-47l-94 434h-395l-93 -434h-47zM205 475h377l-189 879z" />
    <glyph glyph-name="B" unicode="B" horiz-adv-x="737" 
d="M115 0v1434h133q204 0 309 -105q96 -96 96 -256v-4q0 -132 -76.5 -224t-205.5 -122q145 -29 223 -123t78 -227v-4q0 -165 -108.5 -267t-327.5 -102h-121zM608 1069v4q0 155 -89.5 237.5t-272.5 82.5h-86v-650h82q178 0 272 91.5t94 234.5zM627 369v4q0 69 -23 127.5
t-68 104t-118.5 71.5t-167.5 26h-90v-661h73q201 0 297.5 85.5t96.5 242.5z" />
    <glyph glyph-name="C" unicode="C" horiz-adv-x="647" 
d="M442 -14q-157 0 -261.5 186t-104.5 533v24q0 176 30.5 316t82.5 226.5t117.5 131.5t139.5 45q78 0 134 -33v-49q-73 41 -134 41q-63 0 -121 -43t-104 -125t-73 -214t-27 -296v-24q0 -167 27 -299.5t73.5 -213.5t103.5 -123t121 -42q70 0 140 45v-47q-62 -39 -144 -39z
" />
    <glyph glyph-name="D" unicode="D" horiz-adv-x="784" 
d="M115 0v1434h141q200 0 326.5 -184t126.5 -517v-33q0 -332 -126 -516t-337 -184h-131zM252 1393h-92v-1352h82q198 0 310 172t112 487v33q0 309 -114 484.5t-298 175.5z" />
    <glyph glyph-name="E" unicode="E" horiz-adv-x="641" 
d="M115 0v1434h463v-41h-418v-650h383v-41h-383v-661h424v-41h-469z" />
    <glyph glyph-name="F" unicode="F" horiz-adv-x="589" 
d="M115 0v1434h444v-41h-399v-670h364v-41h-364v-682h-45z" />
    <glyph glyph-name="G" unicode="G" horiz-adv-x="759" 
d="M510 -14q-64 0 -124 22.5t-117 76t-99.5 134t-68 205.5t-25.5 281v24q0 178 35.5 319t95 226t132.5 129.5t153 44.5q94 0 167 -43v-49q-80 51 -167 51q-71 0 -136.5 -43t-118.5 -125t-84.5 -214t-31.5 -296v-24q0 -123 16.5 -226t45.5 -175.5t66.5 -127t81.5 -86.5
t88.5 -47.5t90.5 -15.5q63 0 113 20v621h-236v41h279v-689q-72 -34 -156 -34z" />
    <glyph glyph-name="H" unicode="H" horiz-adv-x="827" 
d="M115 0v1434h45v-691h508v691h45v-1434h-45v702h-508v-702h-45z" />
    <glyph glyph-name="I" unicode="I" horiz-adv-x="294" 
d="M125 0v1434h45v-1434h-45z" />
    <glyph glyph-name="J" unicode="J" horiz-adv-x="434" 
d="M133 -10q-52 0 -108 18v43q61 -18 106 -18q152 0 152 186v1215h45v-1215q0 -120 -60 -180q-49 -49 -135 -49z" />
    <glyph glyph-name="K" unicode="K" horiz-adv-x="679" 
d="M115 0v1434h45v-863l426 863h49l-332 -662l363 -772h-50l-337 723l-119 -238v-485h-45z" />
    <glyph glyph-name="L" unicode="L" horiz-adv-x="555" 
d="M115 0v1434h45v-1393h381v-41h-426z" />
    <glyph glyph-name="M" unicode="M" horiz-adv-x="937" 
d="M115 0v1434h51l303 -895l303 895h51v-1434h-43v1327l-307 -895h-8l-307 895v-1327h-43z" />
    <glyph glyph-name="N" unicode="N" horiz-adv-x="835" 
d="M115 0v1434h45l518 -1303v1303h43v-1434h-37l-526 1323v-1323h-43z" />
    <glyph glyph-name="O" unicode="O" horiz-adv-x="811" 
d="M406 -14q-145 0 -237.5 189t-92.5 530v24q0 341 92.5 530t237.5 189t237 -189t92 -530v-24q0 -341 -92 -530t-237 -189zM406 27q123 0 203.5 181.5t80.5 496.5v24q0 315 -80.5 496.5t-203.5 181.5q-124 0 -204.5 -181.5t-80.5 -496.5v-24q0 -315 80.5 -496.5
t204.5 -181.5z" />
    <glyph glyph-name="P" unicode="P" horiz-adv-x="700" 
d="M115 0v1434h137q185 0 296 -120.5t111 -316.5v-4q0 -199 -110.5 -321.5t-304.5 -122.5h-84v-549h-45zM160 590h84q167 0 268.5 108.5t101.5 292.5v4q0 182 -102.5 290t-263.5 108h-88v-803z" />
    <glyph glyph-name="Q" unicode="Q" horiz-adv-x="831" 
d="M735 -12l-30 -27l-111 135q-79 -110 -188 -110q-145 0 -237.5 189t-92.5 530v24q0 341 92.5 530t237.5 189t237 -189t92 -530v-24q0 -373 -119 -576zM406 27q92 0 163 102l-166 201l31 26l156 -194q100 183 100 543v24q0 315 -80.5 496.5t-203.5 181.5
q-124 0 -204.5 -181.5t-80.5 -496.5v-24q0 -315 80.5 -496.5t204.5 -181.5z" />
    <glyph glyph-name="R" unicode="R" horiz-adv-x="747" 
d="M115 0v1434h141q194 0 307 -113q109 -109 109 -295v-4q0 -153 -74.5 -260t-204.5 -146l301 -616h-51l-295 606q-36 -8 -88 -8h-100v-598h-45zM160 639h100q171 0 269 102.5t98 280.5v4q0 179 -99.5 273t-273.5 94h-94v-754z" />
    <glyph glyph-name="S" unicode="S" horiz-adv-x="638" 
d="M293 -14q-128 0 -234 75v52q121 -86 232 -86q106 0 172.5 68t66.5 177v4q0 106 -56.5 211t-170.5 250q-78 99 -118.5 157t-72.5 133t-32 142v5q0 119 78 196.5t198 77.5q105 0 191 -59v-52q-94 70 -195 70q-98 0 -162.5 -65.5t-64.5 -163.5v-4q0 -91 51 -180.5
t166 -231.5q117 -146 175 -257.5t58 -223.5v-5q0 -128 -79 -209t-203 -81z" />
    <glyph glyph-name="T" unicode="T" horiz-adv-x="573" 
d="M264 0v1393h-244v41h533v-41h-244v-1393h-45z" />
    <glyph glyph-name="U" unicode="U" horiz-adv-x="808" 
d="M403 -14q-140 0 -218.5 104t-78.5 285v1059h46v-1061q0 -163 68.5 -254.5t182.5 -91.5q118 0 186 90.5t68 255.5v1061h45v-1059q0 -181 -79.5 -285t-219.5 -104z" />
    <glyph glyph-name="V" unicode="V" horiz-adv-x="770" 
d="M365 -10l-310 1444h47l283 -1340l283 1340h47l-309 -1444h-41z" />
    <glyph glyph-name="W" unicode="W" horiz-adv-x="1220" 
d="M311 -10l-250 1444h48l225 -1336l258 1336h37l258 -1338l225 1338h47l-250 -1444h-43l-256 1325l-256 -1325h-43z" />
    <glyph glyph-name="X" unicode="X" horiz-adv-x="690" 
d="M590 1434h49l-270 -705l280 -729h-49l-256 682l-254 -682h-49l278 729l-268 705h49l244 -658z" />
    <glyph glyph-name="Y" unicode="Y" horiz-adv-x="675" 
d="M315 0v618l-299 816h50l272 -758l272 758h49l-299 -816v-618h-45z" />
    <glyph glyph-name="Z" unicode="Z" horiz-adv-x="647" 
d="M61 0v33l480 1360h-457v41h506v-33l-479 -1360h479v-41h-529z" />
    <glyph glyph-name="bracketleft" unicode="[" horiz-adv-x="475" 
d="M160 -266v1700h241v-35h-198v-1630h198v-35h-241z" />
    <glyph glyph-name="backslash" unicode="\" horiz-adv-x="495" 
d="M463 -201l-447 1774h41l447 -1774h-41z" />
    <glyph glyph-name="bracketright" unicode="]" horiz-adv-x="475" 
d="M74 -266v35h198v1630h-198v35h241v-1700h-241z" />
    <glyph glyph-name="asciicircum" unicode="^" horiz-adv-x="614" 
d="M152 1092l137 313h33l137 -313h-31l-123 264l-123 -264h-30z" />
    <glyph glyph-name="underscore" unicode="_" horiz-adv-x="905" 
d="M-4 -303v31h913v-31h-913z" />
    <glyph glyph-name="grave" unicode="`" 
d="M592 1180l-162 219l45 22l137 -241h-20z" />
    <glyph glyph-name="a" unicode="a" horiz-adv-x="673" 
d="M293 -14q-111 0 -173.5 86t-62.5 239v6q0 159 71.5 249.5t209.5 90.5q107 0 194 -53v176q0 122 -58 189t-167 67q-93 0 -188 -53v47q96 47 190 47q122 0 191 -69q75 -75 75 -220v-788h-43v193q-31 -89 -91.5 -148t-147.5 -59zM297 27q96 0 165.5 101.5t69.5 227.5v203
q-93 57 -196 57q-119 0 -176.5 -78.5t-57.5 -220.5v-6q0 -132 50 -208t145 -76z" />
    <glyph glyph-name="b" unicode="b" horiz-adv-x="749" 
d="M395 -14q-55 0 -99.5 28.5t-72.5 75.5t-44.5 89t-26.5 87v-266h-43v1448h43v-647q10 45 26.5 87t44.5 89t72.5 75.5t99.5 28.5q125 0 206 -153.5t81 -386.5v-15q0 -233 -81 -386.5t-206 -153.5zM393 27q72 0 128 68t86 181.5t30 249.5v15q0 136 -30 249.5t-86 181.5
t-128 68q-104 0 -173.5 -146t-69.5 -353v-15q0 -207 69.5 -353t173.5 -146z" />
    <glyph glyph-name="c" unicode="c" horiz-adv-x="559" 
d="M387 -14q-138 0 -229.5 139t-91.5 401v15q0 257 94 398.5t231 141.5q61 0 115 -28v-49q-48 36 -115 36q-121 0 -200.5 -131.5t-79.5 -367.5v-15q0 -239 79 -369t201 -130q66 0 117 39v-48q-46 -32 -121 -32z" />
    <glyph glyph-name="d" unicode="d" horiz-adv-x="749" 
d="M354 -14q-125 0 -205.5 153.5t-80.5 386.5v15q0 233 80.5 386.5t205.5 153.5q45 0 83 -20t63.5 -49.5t46.5 -69.5t32 -73t19 -68v647h43v-1448h-43v266q-8 -35 -19 -68t-32 -73t-46.5 -69.5t-63.5 -49.5t-83 -20zM356 27q104 0 174 146t70 353v15q0 207 -70 353t-174 146
q-72 0 -128 -68t-85.5 -181.5t-29.5 -249.5v-15q0 -136 29.5 -249.5t85.5 -181.5t128 -68z" />
    <glyph glyph-name="e" unicode="e" horiz-adv-x="686" 
d="M399 -14q-139 0 -236 143t-97 395v8q0 258 85.5 403.5t200.5 145.5q117 0 195 -140t78 -382v-41h-514q0 -231 84.5 -361t205.5 -130q102 0 193 63l6 -45q-100 -59 -201 -59zM111 557h469q0 207 -64.5 345t-163.5 138q-97 0 -167 -131.5t-74 -351.5z" />
    <glyph glyph-name="f" unicode="f" horiz-adv-x="389" 
d="M147 0v1028h-110v39h110v143q0 135 58 193q47 47 131 47q17 0 45 -4v-41q-28 4 -45 4q-75 0 -110.5 -47.5t-35.5 -151.5v-143h181v-39h-181v-1028h-43z" />
    <glyph glyph-name="g" unicode="g" horiz-adv-x="743" 
d="M346 -268q-126 0 -233 45v45q119 -49 233 -49q125 0 185.5 63.5t60.5 202.5v258q-6 -24 -17 -53t-32 -65t-47.5 -64.5t-64.5 -48t-81 -19.5q-122 0 -202 148.5t-80 361.5v14q0 213 80 361.5t202 148.5q43 0 81 -19.5t64.5 -48t47.5 -64.5t32 -65t17 -53v236h43v-1024
q0 -164 -78 -242q-69 -69 -211 -69zM352 88q68 0 124.5 66.5t87 173.5t30.5 229v14q0 122 -30.5 229t-87 173.5t-124.5 66.5q-70 0 -125.5 -66.5t-84.5 -173t-29 -229.5v-14q0 -123 29 -229.5t84.5 -173t125.5 -66.5z" />
    <glyph glyph-name="h" unicode="h" horiz-adv-x="737" 
d="M109 0v1448h43v-567q22 82 87 141t154 59q113 0 178.5 -90.5t65.5 -257.5v-733h-43v733q0 146 -53.5 226.5t-151.5 80.5q-95 0 -166 -89.5t-71 -225.5v-725h-43z" />
    <glyph glyph-name="i" unicode="i" horiz-adv-x="276" 
d="M113 1331v117h51v-117h-51zM117 0v1067h43v-1067h-43z" />
    <glyph glyph-name="j" unicode="j" horiz-adv-x="276" 
d="M113 1331v117h51v-117h-51zM14 -272q-31 0 -61 10v41q33 -10 61 -10q103 0 103 147v1151h43v-1155q0 -92 -38 -138t-108 -46z" />
    <glyph glyph-name="k" unicode="k" horiz-adv-x="610" 
d="M109 0v1448h43v-1067l358 686h49l-237 -444l258 -623h-48l-237 575l-143 -270v-305h-43z" />
    <glyph glyph-name="l" unicode="l" horiz-adv-x="276" 
d="M117 0v1448h43v-1448h-43z" />
    <glyph glyph-name="m" unicode="m" horiz-adv-x="1196" 
d="M109 0v1067h43v-180q26 84 84 139t149 55q84 0 141 -51t80 -153q28 89 88.5 146.5t159.5 57.5q113 0 177.5 -86.5t64.5 -255.5v-739h-43v737q0 150 -53 226.5t-148 76.5q-101 0 -165 -84t-64 -225v-731h-43v737q0 151 -52.5 227t-146.5 76q-99 0 -164 -86t-65 -223v-731
h-43z" />
    <glyph glyph-name="n" unicode="n" horiz-adv-x="737" 
d="M109 0v1067h43v-186q22 82 87 141t154 59q113 0 178.5 -90.5t65.5 -257.5v-733h-43v733q0 146 -53.5 226.5t-151.5 80.5q-95 0 -166 -89.5t-71 -225.5v-725h-43z" />
    <glyph glyph-name="o" unicode="o" horiz-adv-x="724" 
d="M362 -14q-125 0 -210.5 148t-85.5 392v15q0 244 85.5 392t210.5 148t211 -148t86 -392v-15q0 -244 -86 -392t-211 -148zM362 27q107 0 179.5 141.5t72.5 357.5v15q0 216 -72.5 357.5t-179.5 141.5t-179 -141.5t-72 -357.5v-15q0 -216 72 -357.5t179 -141.5z" />
    <glyph glyph-name="p" unicode="p" horiz-adv-x="749" 
d="M109 -266v1333h43v-266q10 45 26.5 87t44.5 89t72.5 75.5t99.5 28.5q125 0 206 -153.5t81 -386.5v-15q0 -233 -81 -386.5t-206 -153.5q-55 0 -99.5 28.5t-72.5 75.5t-44.5 89t-26.5 87v-532h-43zM393 27q72 0 128 68t86 181.5t30 249.5v15q0 136 -30 249.5t-86 181.5
t-128 68q-104 0 -173.5 -146t-69.5 -353v-15q0 -207 69.5 -353t173.5 -146z" />
    <glyph glyph-name="q" unicode="q" horiz-adv-x="749" 
d="M598 -266v532q-8 -35 -19 -68t-32 -73t-46.5 -69.5t-63.5 -49.5t-83 -20q-125 0 -205.5 153.5t-80.5 386.5v15q0 233 80.5 386.5t205.5 153.5q45 0 83 -20t63.5 -49.5t46.5 -69.5t32 -73t19 -68v266h43v-1333h-43zM356 27q104 0 174 146t70 353v15q0 207 -70 353
t-174 146q-72 0 -128 -68t-85.5 -181.5t-29.5 -249.5v-15q0 -136 29.5 -249.5t85.5 -181.5t128 -68z" />
    <glyph glyph-name="r" unicode="r" horiz-adv-x="411" 
d="M109 0v1067h43v-186q27 87 89.5 143.5t153.5 52.5v-45h-4q-101 0 -170 -85.5t-69 -229.5v-717h-43z" />
    <glyph glyph-name="s" unicode="s" horiz-adv-x="552" 
d="M258 -10q-96 0 -207 51v49q109 -59 207 -59q92 0 147.5 51t55.5 141v2q0 69 -46 137.5t-151 167.5q-115 110 -161 180t-46 146v2q0 99 70 160t168 61q83 0 164 -37v-49q-80 45 -164 45t-138.5 -48t-54.5 -132v-2q0 -66 42 -127.5t151 -165.5q111 -105 161 -182t50 -156
v-2q0 -104 -71.5 -168.5t-176.5 -64.5z" />
    <glyph glyph-name="t" unicode="t" horiz-adv-x="409" 
d="M305 -8q-168 0 -168 190v846h-102v39h102v311h43v-311h180v-39h-180v-842q0 -83 33 -118t94 -35q31 0 55 8v-41q-21 -8 -57 -8z" />
    <glyph glyph-name="u" unicode="u" horiz-adv-x="737" 
d="M344 -14q-113 0 -178.5 90.5t-65.5 257.5v733h43v-733q0 -146 53.5 -226.5t151.5 -80.5q95 0 166.5 89.5t71.5 225.5v725h43v-1067h-43v186q-22 -82 -87.5 -141t-154.5 -59z" />
    <glyph glyph-name="v" unicode="v" horiz-adv-x="659" 
d="M311 -6l-270 1073h43l246 -991l245 991h43l-270 -1073h-37z" />
    <glyph glyph-name="w" unicode="w" horiz-adv-x="1007" 
d="M266 -6l-221 1073h43l195 -975l204 975h33l205 -975l195 975h43l-222 -1073h-34l-203 952l-203 -952h-35z" />
    <glyph glyph-name="x" unicode="x" horiz-adv-x="622" 
d="M98 1067l213 -477l213 477h45l-235 -518l250 -549h-45l-228 508l-227 -508h-45l250 549l-236 518h45z" />
    <glyph glyph-name="y" unicode="y" horiz-adv-x="661" 
d="M330 100l250 967h43l-347 -1333h-43v2l76 289l-268 1042h43z" />
    <glyph glyph-name="z" unicode="z" horiz-adv-x="569" 
d="M55 0v27l408 1001h-387v39h436v-27l-408 -1001h408v-39h-457z" />
    <glyph glyph-name="braceleft" unicode="{" horiz-adv-x="501" 
d="M457 -244v-32q-133 11 -191.5 79t-58.5 170q0 64 43 189.5t43 202.5q0 76 -59.5 142t-155.5 66h-19v37h19q95 0 155 63t60 148q0 79 -43 205.5t-43 194.5q0 210 250 243v-34q-207 -28 -207 -209q0 -64 43 -189t43 -211q0 -88 -56.5 -152.5t-134.5 -76.5q77 -12 134 -78
t57 -149q0 -71 -21.5 -141t-43 -133.5t-21.5 -117.5q0 -100 46.5 -150t160.5 -67z" />
    <glyph glyph-name="bar" unicode="|" horiz-adv-x="407" 
d="M184 -201v1774h39v-1774h-39z" />
    <glyph glyph-name="braceright" unicode="}" horiz-adv-x="501" 
d="M45 -276v32q114 17 160.5 67t46.5 150q0 54 -21.5 117.5t-43 133.5t-21.5 141q0 83 56.5 149t133.5 78q-78 12 -134 76.5t-56 152.5q0 86 43 211t43 189q0 181 -207 209v34q250 -33 250 -243q0 -68 -43 -194.5t-43 -205.5q0 -85 60 -148t155 -63h18v-37h-18
q-96 0 -155.5 -66t-59.5 -142q0 -77 43 -202.5t43 -189.5q0 -102 -58.5 -170t-191.5 -79z" />
    <glyph glyph-name="asciitilde" unicode="~" horiz-adv-x="602" 
d="M383 532q-23 0 -41.5 12t-48.5 42q-8 7 -19.5 18t-16 14.5t-11.5 8.5t-13 6.5t-14 1.5q-43 0 -72 -100l-28 8q32 127 102 127q23 0 41.5 -12t48.5 -42q8 -7 19.5 -18t16 -14.5t11.5 -8.5t13 -6.5t14 -1.5q43 0 72 101l28 -9q-32 -127 -102 -127z" />
    <glyph glyph-name="uni00A0" unicode="&#xa0;" horiz-adv-x="0" 
 />
    <glyph glyph-name="exclamdown" unicode="&#xa1;" horiz-adv-x="270" 
d="M106 1331v103h58v-103h-58zM113 0v143l12 916h20l13 -916v-143h-45z" />
    <glyph glyph-name="cent" unicode="&#xa2;" horiz-adv-x="557" 
d="M358 1440v-172h2q64 0 132 -35v-43q-53 39 -132 39h-2v-1024h7q78 0 127 39v-43q-64 -35 -127 -35h-7v-176h-39v180q-114 24 -177.5 163t-63.5 380v14q0 237 64 375t177 162v176h39zM121 727v-14q0 -221 52.5 -349t145.5 -153v1012q-93 -24 -145.5 -151t-52.5 -345z" />
    <glyph glyph-name="sterling" unicode="&#xa3;" horiz-adv-x="616" 
d="M66 0v23l102 18v645h-111v39h111v373q0 192 90 282q68 68 182 68q57 0 109 -21v-43q-51 23 -109 23q-94 0 -151 -57q-76 -76 -76 -254v-371h279v-39h-279v-645h379v-41h-526z" />
    <glyph glyph-name="yen" unicode="&#xa5;" horiz-adv-x="688" 
d="M111 582v36h213l-299 816h47l272 -760l272 760h48l-299 -816h208v-36h-208v-238h208v-37h-208v-307h-41v307h-213v37h213v238h-213z" />
    <glyph glyph-name="section" unicode="&#xa7;" horiz-adv-x="696" 
d="M410 432q133 -98 133 -217v-4q0 -100 -67 -162.5t-173 -62.5q-79 0 -147 30v45q72 -38 149 -38q87 0 140 50t53 134v4q0 68 -47.5 126.5t-174.5 133.5q-129 74 -180 134t-51 126v4q0 158 242 266q-133 98 -133 218v4q0 100 66.5 162.5t172.5 62.5q77 0 148 -31v-45
q-74 39 -150 39q-87 0 -139.5 -50t-52.5 -134v-4q0 -70 47 -127t174 -133q129 -75 180 -135t51 -126v-4q0 -77 -55.5 -142t-185.5 -124zM297 506l80 -49q122 53 175.5 110.5t53.5 130.5v4q0 60 -44 107t-163 119l-80 49q-121 -53 -175 -111t-54 -131v-4q0 -60 44 -108
t163 -117z" />
    <glyph glyph-name="dieresis" unicode="&#xa8;" 
d="M565 1200v76h53v-76h-53zM406 1200v76h53v-76h-53z" />
    <glyph glyph-name="copyright" unicode="&#xa9;" horiz-adv-x="1050" 
d="M524 -20q-143 0 -252.5 95.5t-166 254t-56.5 352.5v72q0 195 56.5 353.5t165.5 253.5t253 95t254 -95t166.5 -253.5t56.5 -353.5v-72q0 -194 -56.5 -352.5t-166.5 -254t-254 -95.5zM524 12q103 0 187.5 53t140 144.5t85.5 213t30 259.5v72q0 186 -51 336t-153.5 241.5
t-238.5 91.5q-135 0 -236.5 -92.5t-152.5 -243t-51 -333.5v-72q0 -186 51 -336.5t152.5 -242t236.5 -91.5zM545 311q-36 0 -68.5 20.5t-61.5 64t-46 123.5t-17 188v22q0 201 57 297t144 96q45 0 92 -30v-41q-53 34 -92 34q-71 0 -115.5 -90t-44.5 -260v-37q0 -173 43 -261.5
t113 -88.5q39 0 98 41v-41q-55 -37 -102 -37z" />
    <glyph glyph-name="ordfeminine" unicode="&#xaa;" horiz-adv-x="446" 
d="M203 825q-57 0 -92 47.5t-35 135.5v6q0 84 38.5 132t114.5 48q45 0 88 -16v73q0 80 -22 114t-78 34q-48 0 -108 -29v35q56 29 114 29q71 0 101 -41q30 -40 30 -136v-421h-37v79q-44 -90 -114 -90zM76 688v29h297v-29h-297zM205 856q47 0 79.5 46t32.5 102v143
q-45 18 -88 18q-59 0 -88.5 -39t-29.5 -110v-6q0 -76 25.5 -115t68.5 -39z" />
    <glyph glyph-name="guillemotleft" unicode="&#xab;" horiz-adv-x="616" 
d="M514 92l-231 426v8l231 426l37 -18l-223 -412l223 -411zM268 92l-231 426v8l231 426l37 -18l-223 -412l223 -411z" />
    <glyph glyph-name="registered" unicode="&#xae;" horiz-adv-x="620" 
d="M311 748q101 0 165.5 96.5t64.5 234.5v37q0 143 -64 237.5t-166 94.5t-166.5 -96.5t-64.5 -235.5v-37q0 -138 64.5 -234.5t166.5 -96.5zM311 727q-115 0 -183.5 99.5t-68.5 252.5v37q0 149 69 250.5t183 101.5q113 0 181.5 -100t68.5 -252v-37q0 -146 -69 -249t-181 -103
zM236 909v391h67q50 0 78.5 -30t28.5 -82v-4q0 -90 -66 -111l76 -164h-27l-71 160q-6 -2 -19 -2h-8h-37v-158h-22zM258 1087h45q84 0 84 97v4q0 40 -22 66t-62 26h-45v-193z" />
    <glyph glyph-name="macron" unicode="&#xaf;" 
d="M348 1204v37h328v-37h-328z" />
    <glyph glyph-name="degree" unicode="&#xb0;" horiz-adv-x="471" 
d="M236 823q-85 0 -136 84.5t-51 220.5v17q0 145 50 225t137 80t136.5 -80t49.5 -225v-17q0 -140 -50 -222.5t-136 -82.5zM236 860q64 0 105.5 69.5t41.5 198.5v17q0 134 -41.5 201t-105.5 67q-65 0 -106.5 -67t-41.5 -201v-17q0 -128 42.5 -198t105.5 -70z" />
    <glyph glyph-name="plusminus" unicode="&#xb1;" horiz-adv-x="671" 
d="M612 700h-256v-276h-41v276h-256v41h256v277h41v-277h256v-41zM612 221h-553v39h553v-39z" />
    <glyph glyph-name="acute" unicode="&#xb4;" 
d="M412 1180l137 241l45 -22l-162 -219h-20z" />
    <glyph glyph-name="mu" unicode="&#xb5;" horiz-adv-x="804" 
d="M788 49v-41q-32 -14 -65 -14q-59 0 -92 35.5t-37 122.5q-64 -168 -221 -168q-79 0 -138.5 43.5t-87.5 132.5h-2q0 -47 2 -72q5 -107 5 -147v-207h-43v1333h43v-752q0 -137 62 -213.5t159 -76.5q100 0 160.5 77.5t60.5 212.5v752h43v-877q0 -85 21 -120t69 -35q29 0 61 14
z" />
    <glyph glyph-name="paragraph" unicode="&#xb6;" horiz-adv-x="620" 
d="M461 0v528h-2q-198 0 -308 123.5t-110 331.5v4q0 204 111 325.5t301 121.5h53v-1434h-45z" />
    <glyph glyph-name="periodcentered" unicode="&#xb7;" horiz-adv-x="180" 
d="M61 522v103h58v-103h-58z" />
    <glyph glyph-name="cedilla" unicode="&#xb8;" 
d="M453 -215l-45 18l120 217h21z" />
    <glyph glyph-name="ordmasculine" unicode="&#xba;" horiz-adv-x="458" 
d="M229 825q-74 0 -114.5 84t-40.5 213v21q0 146 44 221.5t111 75.5q69 0 112.5 -77t43.5 -220v-21q0 -128 -41.5 -212.5t-114.5 -84.5zM78 688v29h305v-29h-305zM229 858q56 0 87.5 70.5t31.5 193.5v21q0 124 -31 194t-88 70q-56 0 -87 -70t-31 -194v-21q0 -122 31.5 -193
t86.5 -71z" />
    <glyph glyph-name="guillemotright" unicode="&#xbb;" horiz-adv-x="616" 
d="M348 92l-37 19l224 411l-224 412l37 18l232 -426v-8zM102 92l-36 19l223 411l-223 412l36 18l232 -426v-8z" />
    <glyph glyph-name="questiondown" unicode="&#xbf;" horiz-adv-x="585" 
d="M315 1331v103h58v-103h-58zM348 -8q-123 0 -208 88t-85 231v13q0 127 72 229.5t197 163.5l16 342h20l11 -354l-6 -13q-123 -55 -194 -151.5t-71 -216.5v-9q0 -133 74 -206.5t180 -73.5q82 0 195 61v-47q-101 -57 -201 -57z" />
    <glyph glyph-name="Agrave" unicode="&#xc0;" horiz-adv-x="786" 
d="M55 0l316 1444h45l315 -1444h-47l-94 434h-395l-93 -434h-47zM205 475h377l-189 879zM410 1526h-21l-151 180l45 23z" />
    <glyph glyph-name="Aacute" unicode="&#xc1;" horiz-adv-x="786" 
d="M55 0l316 1444h45l315 -1444h-47l-94 434h-395l-93 -434h-47zM205 475h377l-189 879zM381 1526l127 203l45 -23l-152 -180h-20z" />
    <glyph glyph-name="Acircumflex" unicode="&#xc2;" horiz-adv-x="786" 
d="M55 0l316 1444h45l315 -1444h-47l-94 434h-395l-93 -434h-47zM205 475h377l-189 879zM242 1518l141 198h29l141 -198h-31l-125 151l-125 -151h-30z" />
    <glyph glyph-name="Atilde" unicode="&#xc3;" horiz-adv-x="786" 
d="M55 0l316 1444h45l315 -1444h-47l-94 434h-395l-93 -434h-47zM205 475h377l-189 879zM485 1544q-41 0 -100 47q-33 25 -49.5 34t-32.5 9q-22 0 -36.5 -20.5t-33.5 -69.5l-32 8q37 119 104 119q42 0 101 -47q34 -26 49.5 -34.5t31.5 -8.5q22 0 36.5 20.5t33.5 69.5l33 -8
q-37 -119 -105 -119z" />
    <glyph glyph-name="Adieresis" unicode="&#xc4;" horiz-adv-x="786" 
d="M55 0l316 1444h45l315 -1444h-47l-94 434h-395l-93 -434h-47zM205 475h377l-189 879zM449 1546v76h53v-76h-53zM289 1546v76h53v-76h-53z" />
    <glyph glyph-name="Aring" unicode="&#xc5;" horiz-adv-x="788" 
d="M55 0l301 1378q-50 10 -79 48t-29 87q0 57 40.5 98.5t104.5 41.5t105 -41.5t41 -98.5q0 -48 -29 -85.5t-78 -49.5l301 -1378h-49l-94 434h-395l-93 -434h-47zM205 475h377l-189 879zM393 1403q52 0 83.5 32t31.5 78t-31.5 78.5t-83.5 32.5t-83 -32.5t-31 -78.5t31 -78
t83 -32z" />
    <glyph glyph-name="AE" unicode="&#xc6;" horiz-adv-x="1007" 
d="M6 0l420 1434h518v-41h-418v-650h383v-41h-383v-661h424v-41h-469v434h-303l-125 -434h-47zM190 475h291v916h-24z" />
    <glyph glyph-name="Ccedilla" unicode="&#xc7;" horiz-adv-x="647" 
d="M328 -213l-45 18l104 187q-137 29 -224 213t-87 500v24q0 176 30.5 316t82.5 226.5t117.5 131.5t139.5 45q78 0 134 -33v-49q-73 41 -134 41q-63 0 -121 -43t-104 -125t-73 -214t-27 -296v-24q0 -167 27 -299.5t73.5 -213.5t103.5 -123t121 -42q70 0 140 45v-47
q-62 -39 -144 -39q-8 0 -18 1t-14 1z" />
    <glyph glyph-name="Egrave" unicode="&#xc8;" horiz-adv-x="641" 
d="M115 0v1434h463v-41h-418v-650h383v-41h-383v-661h424v-41h-469zM365 1516h-21l-151 180l45 22z" />
    <glyph glyph-name="Eacute" unicode="&#xc9;" horiz-adv-x="641" 
d="M115 0v1434h463v-41h-418v-650h383v-41h-383v-661h424v-41h-469zM336 1516l127 202l45 -22l-152 -180h-20z" />
    <glyph glyph-name="Ecircumflex" unicode="&#xca;" horiz-adv-x="641" 
d="M115 0v1434h463v-41h-418v-650h383v-41h-383v-661h424v-41h-469zM197 1526l141 198h29l141 -198h-31l-125 151l-125 -151h-30z" />
    <glyph glyph-name="Edieresis" unicode="&#xcb;" horiz-adv-x="641" 
d="M115 0v1434h463v-41h-418v-650h383v-41h-383v-661h424v-41h-469zM403 1536v76h54v-76h-54zM244 1536v76h53v-76h-53z" />
    <glyph glyph-name="Igrave" unicode="&#xcc;" horiz-adv-x="294" 
d="M125 0v1434h45v-1434h-45zM164 1516h-21l-151 180l45 22z" />
    <glyph glyph-name="Iacute" unicode="&#xcd;" horiz-adv-x="294" 
d="M125 0v1434h45v-1434h-45zM135 1516l127 202l45 -22l-151 -180h-21z" />
    <glyph glyph-name="Icircumflex" unicode="&#xce;" horiz-adv-x="294" 
d="M125 0v1434h45v-1434h-45zM-4 1526l141 198h29l141 -198h-31l-124 151l-125 -151h-31z" />
    <glyph glyph-name="Idieresis" unicode="&#xcf;" horiz-adv-x="294" 
d="M125 0v1434h45v-1434h-45zM203 1536v76h53v-76h-53zM43 1536v76h53v-76h-53z" />
    <glyph glyph-name="Eth" unicode="&#xd0;" horiz-adv-x="796" 
d="M37 702v39h90v693h141q200 0 326.5 -184t126.5 -517v-33q0 -332 -126 -516t-337 -184h-131v702h-90zM676 700v33q0 309 -114 484.5t-298 175.5h-92v-652h215v-39h-215v-661h82q198 0 310 172t112 487z" />
    <glyph glyph-name="Ntilde" unicode="&#xd1;" horiz-adv-x="835" 
d="M115 0v1434h45l518 -1303v1303h43v-1434h-37l-526 1323v-1323h-43zM510 1526q-41 0 -100 47q-33 25 -49.5 34t-32.5 9q-22 0 -36.5 -20.5t-33.5 -69.5l-33 8q37 119 105 119q41 0 100 -47q33 -25 49.5 -34t32.5 -9q22 0 36.5 20.5t33.5 69.5l32 -8q-37 -119 -104 -119z
" />
    <glyph glyph-name="Ograve" unicode="&#xd2;" horiz-adv-x="811" 
d="M406 -14q-145 0 -237.5 189t-92.5 530v24q0 341 92.5 530t237.5 189t237 -189t92 -530v-24q0 -341 -92 -530t-237 -189zM406 27q123 0 203.5 181.5t80.5 496.5v24q0 315 -80.5 496.5t-203.5 181.5q-124 0 -204.5 -181.5t-80.5 -496.5v-24q0 -315 80.5 -496.5
t204.5 -181.5zM422 1526h-21l-151 180l45 23z" />
    <glyph glyph-name="Oacute" unicode="&#xd3;" horiz-adv-x="811" 
d="M406 -14q-145 0 -237.5 189t-92.5 530v24q0 341 92.5 530t237.5 189t237 -189t92 -530v-24q0 -341 -92 -530t-237 -189zM406 27q123 0 203.5 181.5t80.5 496.5v24q0 315 -80.5 496.5t-203.5 181.5q-124 0 -204.5 -181.5t-80.5 -496.5v-24q0 -315 80.5 -496.5
t204.5 -181.5zM393 1526l127 203l45 -23l-151 -180h-21z" />
    <glyph glyph-name="Ocircumflex" unicode="&#xd4;" horiz-adv-x="811" 
d="M406 -14q-145 0 -237.5 189t-92.5 530v24q0 341 92.5 530t237.5 189t237 -189t92 -530v-24q0 -341 -92 -530t-237 -189zM406 27q123 0 203.5 181.5t80.5 496.5v24q0 315 -80.5 496.5t-203.5 181.5q-124 0 -204.5 -181.5t-80.5 -496.5v-24q0 -315 80.5 -496.5
t204.5 -181.5zM254 1536l141 199h29l141 -199h-30l-125 152l-125 -152h-31z" />
    <glyph glyph-name="Otilde" unicode="&#xd5;" horiz-adv-x="811" 
d="M406 -14q-145 0 -237.5 189t-92.5 530v24q0 341 92.5 530t237.5 189t237 -189t92 -530v-24q0 -341 -92 -530t-237 -189zM406 27q123 0 203.5 181.5t80.5 496.5v24q0 315 -80.5 496.5t-203.5 181.5q-124 0 -204.5 -181.5t-80.5 -496.5v-24q0 -315 80.5 -496.5
t204.5 -181.5zM498 1544q-42 0 -101 47q-33 25 -49.5 34t-32.5 9q-22 0 -36 -20t-33 -70l-33 8q37 119 104 119q42 0 101 -47q33 -25 49.5 -34t32.5 -9q22 0 36 20t33 70l33 -8q-37 -119 -104 -119z" />
    <glyph glyph-name="Odieresis" unicode="&#xd6;" horiz-adv-x="811" 
d="M406 -14q-145 0 -237.5 189t-92.5 530v24q0 341 92.5 530t237.5 189t237 -189t92 -530v-24q0 -341 -92 -530t-237 -189zM406 27q123 0 203.5 181.5t80.5 496.5v24q0 315 -80.5 496.5t-203.5 181.5q-124 0 -204.5 -181.5t-80.5 -496.5v-24q0 -315 80.5 -496.5
t204.5 -181.5zM461 1546v76h53v-76h-53zM301 1546v76h53v-76h-53z" />
    <glyph glyph-name="multiply" unicode="&#xd7;" horiz-adv-x="665" 
d="M524 469l-196 221l-197 -221l-31 29l199 223l-199 223l31 29l197 -221l196 221l31 -29l-201 -223l201 -223z" />
    <glyph glyph-name="Oslash" unicode="&#xd8;" horiz-adv-x="811" 
d="M684 1450h41l-80 -197q90 -201 90 -524v-24q0 -341 -92 -530t-237 -189q-132 0 -218 147l-61 -149h-41l80 194q-90 194 -90 527v24q0 341 92.5 530t237.5 189q128 0 217 -150zM121 729v-24q0 -288 67 -467l414 1005q-77 164 -196 164q-124 0 -204.5 -181.5t-80.5 -496.5z
M406 27q123 0 203.5 181.5t80.5 496.5v24q0 286 -67 465l-414 -1006q75 -161 197 -161z" />
    <glyph glyph-name="Ugrave" unicode="&#xd9;" horiz-adv-x="808" 
d="M403 -14q-140 0 -218.5 104t-78.5 285v1059h46v-1061q0 -163 68.5 -254.5t182.5 -91.5q118 0 186 90.5t68 255.5v1061h45v-1059q0 -181 -79.5 -285t-219.5 -104zM420 1507h-21l-151 181l45 22z" />
    <glyph glyph-name="Uacute" unicode="&#xda;" horiz-adv-x="808" 
d="M403 -14q-140 0 -218.5 104t-78.5 285v1059h46v-1061q0 -163 68.5 -254.5t182.5 -91.5q118 0 186 90.5t68 255.5v1061h45v-1059q0 -181 -79.5 -285t-219.5 -104zM391 1507l127 203l45 -22l-151 -181h-21z" />
    <glyph glyph-name="Ucircumflex" unicode="&#xdb;" horiz-adv-x="808" 
d="M403 -14q-140 0 -218.5 104t-78.5 285v1059h46v-1061q0 -163 68.5 -254.5t182.5 -91.5q118 0 186 90.5t68 255.5v1061h45v-1059q0 -181 -79.5 -285t-219.5 -104zM252 1518l141 198h29l141 -198h-31l-124 151l-125 -151h-31z" />
    <glyph glyph-name="Udieresis" unicode="&#xdc;" horiz-adv-x="808" 
d="M403 -14q-140 0 -218.5 104t-78.5 285v1059h46v-1061q0 -163 68.5 -254.5t182.5 -91.5q118 0 186 90.5t68 255.5v1061h45v-1059q0 -181 -79.5 -285t-219.5 -104zM459 1528v76h53v-76h-53zM299 1528v76h53v-76h-53z" />
    <glyph glyph-name="Yacute" unicode="&#xdd;" horiz-adv-x="675" 
d="M315 0v618l-299 816h50l272 -758l272 758h49l-299 -816v-618h-45zM326 1507l127 203l45 -22l-152 -181h-20z" />
    <glyph glyph-name="Thorn" unicode="&#xde;" horiz-adv-x="700" 
d="M115 0v1434h45v-250h92q185 0 296 -120t111 -316v-5q0 -199 -110.5 -321.5t-304.5 -122.5h-84v-299h-45zM160 340h84q167 0 268.5 108.5t101.5 292.5v4q0 182 -102.5 290t-263.5 108h-88v-803z" />
    <glyph glyph-name="germandbls" unicode="&#xdf;" horiz-adv-x="702" 
d="M293 -4v37q136 7 221.5 104.5t85.5 237.5v6q0 147 -82 232.5t-225 111.5v33q111 35 187.5 131.5t76.5 236.5v7q0 126 -50.5 200t-146.5 74q-99 0 -153.5 -83t-54.5 -241v-1083h-43v1077q0 183 66 277t185 94q113 0 176.5 -87t63.5 -222v-11q0 -76 -23.5 -143.5
t-60.5 -114t-76.5 -78t-79.5 -47.5q46 -10 91 -33t90.5 -63.5t73.5 -108t28 -151.5v-12q0 -165 -98.5 -270.5t-251.5 -110.5z" />
    <glyph glyph-name="agrave" unicode="&#xe0;" horiz-adv-x="673" 
d="M293 -14q-111 0 -173.5 86t-62.5 239v6q0 159 71.5 249.5t209.5 90.5q107 0 194 -53v176q0 122 -58 189t-167 67q-93 0 -188 -53v47q96 47 190 47q122 0 191 -69q75 -75 75 -220v-788h-43v193q-31 -89 -91.5 -148t-147.5 -59zM297 27q96 0 165.5 101.5t69.5 227.5v203
q-93 57 -196 57q-119 0 -176.5 -78.5t-57.5 -220.5v-6q0 -132 50 -208t145 -76zM344 1190l-162 219l45 23l138 -242h-21z" />
    <glyph glyph-name="aacute" unicode="&#xe1;" horiz-adv-x="673" 
d="M293 -14q-111 0 -173.5 86t-62.5 239v6q0 159 71.5 249.5t209.5 90.5q107 0 194 -53v176q0 122 -58 189t-167 67q-93 0 -188 -53v47q96 47 190 47q122 0 191 -69q75 -75 75 -220v-788h-43v193q-31 -89 -91.5 -148t-147.5 -59zM297 27q96 0 165.5 101.5t69.5 227.5v203
q-93 57 -196 57q-119 0 -176.5 -78.5t-57.5 -220.5v-6q0 -132 50 -208t145 -76zM336 1190l137 242l45 -23l-162 -219h-20z" />
    <glyph glyph-name="acircumflex" unicode="&#xe2;" horiz-adv-x="673" 
d="M293 -14q-111 0 -173.5 86t-62.5 239v6q0 159 71.5 249.5t209.5 90.5q107 0 194 -53v176q0 122 -58 189t-167 67q-93 0 -188 -53v47q96 47 190 47q122 0 191 -69q75 -75 75 -220v-788h-43v193q-31 -89 -91.5 -148t-147.5 -59zM297 27q96 0 165.5 101.5t69.5 227.5v203
q-93 57 -196 57q-119 0 -176.5 -78.5t-57.5 -220.5v-6q0 -132 50 -208t145 -76zM197 1200l141 250h29l141 -250h-31l-125 201l-125 -201h-30z" />
    <glyph glyph-name="atilde" unicode="&#xe3;" horiz-adv-x="673" 
d="M293 -14q-111 0 -173.5 86t-62.5 239v6q0 159 71.5 249.5t209.5 90.5q107 0 194 -53v176q0 122 -58 189t-167 67q-93 0 -188 -53v47q96 47 190 47q122 0 191 -69q75 -75 75 -220v-788h-43v193q-31 -89 -91.5 -148t-147.5 -59zM297 27q96 0 165.5 101.5t69.5 227.5v203
q-93 57 -196 57q-119 0 -176.5 -78.5t-57.5 -220.5v-6q0 -132 50 -208t145 -76zM432 1212q-34 0 -86 52q-32 32 -48 43.5t-32 11.5q-44 0 -71 -109l-33 9q33 137 106 137q24 0 42.5 -13.5t51.5 -46.5q47 -47 72 -47q45 0 72 109l33 -8q-34 -138 -107 -138z" />
    <glyph glyph-name="adieresis" unicode="&#xe4;" horiz-adv-x="673" 
d="M293 -14q-111 0 -173.5 86t-62.5 239v6q0 159 71.5 249.5t209.5 90.5q107 0 194 -53v176q0 122 -58 189t-167 67q-93 0 -188 -53v47q96 47 190 47q122 0 191 -69q75 -75 75 -220v-788h-43v193q-31 -89 -91.5 -148t-147.5 -59zM297 27q96 0 165.5 101.5t69.5 227.5v203
q-93 57 -196 57q-119 0 -176.5 -78.5t-57.5 -220.5v-6q0 -132 50 -208t145 -76zM403 1210v76h54v-76h-54zM244 1210v76h53v-76h-53z" />
    <glyph glyph-name="aring" unicode="&#xe5;" horiz-adv-x="673" 
d="M293 -14q-111 0 -173.5 86t-62.5 239v6q0 159 71.5 249.5t209.5 90.5q107 0 194 -53v176q0 122 -58 189t-167 67q-93 0 -188 -53v47q96 47 190 47q122 0 191 -69q75 -75 75 -220v-788h-43v193q-31 -89 -91.5 -148t-147.5 -59zM297 27q96 0 165.5 101.5t69.5 227.5v203
q-93 57 -196 57q-119 0 -176.5 -78.5t-57.5 -220.5v-6q0 -132 50 -208t145 -76zM350 1210q-62 0 -101.5 42t-39.5 104t39.5 103.5t101.5 41.5t102 -41.5t40 -103.5t-40 -104t-102 -42zM350 1237q50 0 81.5 33.5t31.5 85.5t-31.5 85.5t-81.5 33.5t-81 -33.5t-31 -85.5
t31 -85.5t81 -33.5z" />
    <glyph glyph-name="ae" unicode="&#xe6;" horiz-adv-x="1144" 
d="M293 -14q-111 0 -173.5 86t-62.5 239v6q0 159 71.5 249.5t209.5 90.5q107 0 194 -53v176q0 122 -58 189t-167 67q-93 0 -188 -53v47q96 47 190 47q112 0 182 -63.5t82 -182.5q37 120 102 185t140 65q116 0 192 -139.5t76 -382.5v-41h-508q0 -231 83.5 -361t205.5 -130
q98 0 189 63l6 -45q-100 -59 -197 -59q-96 0 -174.5 69.5t-118.5 200.5q-38 -123 -109.5 -196.5t-166.5 -73.5zM575 557h463q0 136 -27.5 246t-79 173.5t-116.5 63.5q-100 0 -168 -130.5t-72 -352.5zM297 27q167 0 256 292q-21 100 -21 240q-93 57 -196 57
q-119 0 -176.5 -78.5t-57.5 -220.5v-6q0 -132 50 -208t145 -76z" />
    <glyph glyph-name="ccedilla" unicode="&#xe7;" horiz-adv-x="559" 
d="M264 -215l-45 18l105 191q-113 31 -185.5 167.5t-72.5 364.5v15q0 257 94 398.5t231 141.5q61 0 115 -28v-49q-48 36 -115 36q-121 0 -200.5 -131.5t-79.5 -367.5v-15q0 -239 79 -369t201 -130q66 0 117 39v-48q-46 -32 -121 -32q-13 0 -41 4z" />
    <glyph glyph-name="egrave" unicode="&#xe8;" horiz-adv-x="686" 
d="M399 -14q-139 0 -236 143t-97 395v8q0 258 85.5 403.5t200.5 145.5q117 0 195 -140t78 -382v-41h-514q0 -231 84.5 -361t205.5 -130q102 0 193 63l6 -45q-100 -59 -201 -59zM111 557h469q0 207 -64.5 345t-163.5 138q-97 0 -167 -131.5t-74 -351.5zM352 1190l-162 219
l46 23l137 -242h-21z" />
    <glyph glyph-name="eacute" unicode="&#xe9;" horiz-adv-x="686" 
d="M399 -14q-139 0 -236 143t-97 395v8q0 258 85.5 403.5t200.5 145.5q117 0 195 -140t78 -382v-41h-514q0 -231 84.5 -361t205.5 -130q102 0 193 63l6 -45q-100 -59 -201 -59zM111 557h469q0 207 -64.5 345t-163.5 138q-97 0 -167 -131.5t-74 -351.5zM344 1190l137 242
l45 -23l-161 -219h-21z" />
    <glyph glyph-name="ecircumflex" unicode="&#xea;" horiz-adv-x="686" 
d="M399 -14q-139 0 -236 143t-97 395v8q0 258 85.5 403.5t200.5 145.5q117 0 195 -140t78 -382v-41h-514q0 -231 84.5 -361t205.5 -130q102 0 193 63l6 -45q-100 -59 -201 -59zM111 557h469q0 207 -64.5 345t-163.5 138q-97 0 -167 -131.5t-74 -351.5zM205 1200l141 250h29
l141 -250h-31l-125 201l-124 -201h-31z" />
    <glyph glyph-name="edieresis" unicode="&#xeb;" horiz-adv-x="686" 
d="M399 -14q-139 0 -236 143t-97 395v8q0 258 85.5 403.5t200.5 145.5q117 0 195 -140t78 -382v-41h-514q0 -231 84.5 -361t205.5 -130q102 0 193 63l6 -45q-100 -59 -201 -59zM111 557h469q0 207 -64.5 345t-163.5 138q-97 0 -167 -131.5t-74 -351.5zM412 1210v76h53v-76
h-53zM252 1210v76h53v-76h-53z" />
    <glyph glyph-name="igrave" unicode="&#xec;" horiz-adv-x="276" 
d="M117 0v1067h43v-1067h-43zM133 1180l-162 219l45 22l138 -241h-21z" />
    <glyph glyph-name="iacute" unicode="&#xed;" horiz-adv-x="276" 
d="M117 0v1067h43v-1067h-43zM125 1180l137 241l45 -22l-162 -219h-20z" />
    <glyph glyph-name="icircumflex" unicode="&#xee;" horiz-adv-x="276" 
d="M117 0v1067h43v-1067h-43zM-14 1190l141 250h29l141 -250h-31l-125 201l-125 -201h-30z" />
    <glyph glyph-name="idieresis" unicode="&#xef;" horiz-adv-x="276" 
d="M117 0v1067h43v-1067h-43zM193 1200v76h53v-76h-53zM33 1200v76h53v-76h-53z" />
    <glyph glyph-name="eth" unicode="&#xf0;" horiz-adv-x="708" 
d="M543 1399l-133 -82q111 -165 171 -342t60 -393v-29q0 -255 -82.5 -411t-204.5 -156q-68 0 -124 47.5t-91 125.5t-54 174t-19 197v17q0 244 84.5 394.5t201.5 150.5q61 0 115 -45t84 -99q-60 169 -176 346l-174 -106l-19 29l172 106q-58 81 -96 125h53q63 -82 78 -105
l135 84zM354 27q95 0 169.5 143t74.5 360v17q0 231 -70.5 367.5t-173.5 136.5q-98 0 -171.5 -134t-73.5 -370v-17q0 -124 28 -237t85.5 -189.5t131.5 -76.5z" />
    <glyph glyph-name="ntilde" unicode="&#xf1;" horiz-adv-x="737" 
d="M109 0v1067h43v-186q22 82 87 141t154 59q113 0 178.5 -90.5t65.5 -257.5v-733h-43v733q0 146 -53.5 226.5t-151.5 80.5q-95 0 -166 -89.5t-71 -225.5v-725h-43zM453 1212q-34 0 -86 52q-32 32 -48 43.5t-32 11.5q-45 0 -72 -109l-33 9q33 137 107 137q24 0 42.5 -13.5
t51.5 -46.5q47 -47 72 -47q44 0 71 109l33 -8q-34 -138 -106 -138z" />
    <glyph glyph-name="ograve" unicode="&#xf2;" horiz-adv-x="724" 
d="M362 -14q-125 0 -210.5 148t-85.5 392v15q0 244 85.5 392t210.5 148t211 -148t86 -392v-15q0 -244 -86 -392t-211 -148zM362 27q107 0 179.5 141.5t72.5 357.5v15q0 216 -72.5 357.5t-179.5 141.5t-179 -141.5t-72 -357.5v-15q0 -216 72 -357.5t179 -141.5zM358 1190
l-161 219l45 23l137 -242h-21z" />
    <glyph glyph-name="oacute" unicode="&#xf3;" horiz-adv-x="724" 
d="M362 -14q-125 0 -210.5 148t-85.5 392v15q0 244 85.5 392t210.5 148t211 -148t86 -392v-15q0 -244 -86 -392t-211 -148zM362 27q107 0 179.5 141.5t72.5 357.5v15q0 216 -72.5 357.5t-179.5 141.5t-179 -141.5t-72 -357.5v-15q0 -216 72 -357.5t179 -141.5zM350 1190
l137 242l45 -23l-161 -219h-21z" />
    <glyph glyph-name="ocircumflex" unicode="&#xf4;" horiz-adv-x="724" 
d="M362 -14q-125 0 -210.5 148t-85.5 392v15q0 244 85.5 392t210.5 148t211 -148t86 -392v-15q0 -244 -86 -392t-211 -148zM362 27q107 0 179.5 141.5t72.5 357.5v15q0 216 -72.5 357.5t-179.5 141.5t-179 -141.5t-72 -357.5v-15q0 -216 72 -357.5t179 -141.5zM211 1200
l141 250h29l141 -250h-30l-125 201l-125 -201h-31z" />
    <glyph glyph-name="otilde" unicode="&#xf5;" horiz-adv-x="724" 
d="M362 -14q-125 0 -210.5 148t-85.5 392v15q0 244 85.5 392t210.5 148t211 -148t86 -392v-15q0 -244 -86 -392t-211 -148zM362 27q107 0 179.5 141.5t72.5 357.5v15q0 216 -72.5 357.5t-179.5 141.5t-179 -141.5t-72 -357.5v-15q0 -216 72 -357.5t179 -141.5zM446 1212
q-34 0 -86 52q-33 33 -48 44t-31 11q-45 0 -72 -109l-33 9q33 137 107 137q24 0 42.5 -13.5t51.5 -46.5q47 -47 72 -47q44 0 71 109l33 -8q-34 -138 -107 -138z" />
    <glyph glyph-name="odieresis" unicode="&#xf6;" horiz-adv-x="724" 
d="M362 -14q-125 0 -210.5 148t-85.5 392v15q0 244 85.5 392t210.5 148t211 -148t86 -392v-15q0 -244 -86 -392t-211 -148zM362 27q107 0 179.5 141.5t72.5 357.5v15q0 216 -72.5 357.5t-179.5 141.5t-179 -141.5t-72 -357.5v-15q0 -216 72 -357.5t179 -141.5zM418 1210v76
h53v-76h-53zM258 1210v76h53v-76h-53z" />
    <glyph glyph-name="divide" unicode="&#xf7;" horiz-adv-x="671" 
d="M309 938v88h53v-88h-53zM612 698h-553v45h553v-45zM309 416v88h53v-88h-53z" />
    <glyph glyph-name="oslash" unicode="&#xf8;" horiz-adv-x="724" 
d="M598 1079h41l-68 -143q88 -154 88 -395v-15q0 -244 -86 -392t-211 -148q-111 0 -186 106l-49 -104h-41l68 143q-88 147 -88 395v15q0 244 85.5 392t210.5 148q105 0 185 -108zM111 541v-15q0 -204 65 -344l352 742q-74 116 -166 116q-107 0 -179 -141.5t-72 -357.5z
M362 27q107 0 179.5 141.5t72.5 357.5v15q0 204 -65 344l-352 -742q67 -116 165 -116z" />
    <glyph glyph-name="ugrave" unicode="&#xf9;" horiz-adv-x="737" 
d="M344 -14q-113 0 -178.5 90.5t-65.5 257.5v733h43v-733q0 -146 53.5 -226.5t151.5 -80.5q95 0 166.5 89.5t71.5 225.5v725h43v-1067h-43v186q-22 -82 -87.5 -141t-154.5 -59zM360 1171l-161 220l45 22l137 -242h-21z" />
    <glyph glyph-name="uacute" unicode="&#xfa;" horiz-adv-x="737" 
d="M344 -14q-113 0 -178.5 90.5t-65.5 257.5v733h43v-733q0 -146 53.5 -226.5t151.5 -80.5q95 0 166.5 89.5t71.5 225.5v725h43v-1067h-43v186q-22 -82 -87.5 -141t-154.5 -59zM352 1171l137 242l46 -22l-162 -220h-21z" />
    <glyph glyph-name="ucircumflex" unicode="&#xfb;" horiz-adv-x="737" 
d="M344 -14q-113 0 -178.5 90.5t-65.5 257.5v733h43v-733q0 -146 53.5 -226.5t151.5 -80.5q95 0 166.5 89.5t71.5 225.5v725h43v-1067h-43v186q-22 -82 -87.5 -141t-154.5 -59zM213 1182l141 250h29l141 -250h-30l-125 200l-125 -200h-31z" />
    <glyph glyph-name="udieresis" unicode="&#xfc;" horiz-adv-x="737" 
d="M344 -14q-113 0 -178.5 90.5t-65.5 257.5v733h43v-733q0 -146 53.5 -226.5t151.5 -80.5q95 0 166.5 89.5t71.5 225.5v725h43v-1067h-43v186q-22 -82 -87.5 -141t-154.5 -59zM420 1192v76h53v-76h-53zM260 1192v76h53v-76h-53z" />
    <glyph glyph-name="yacute" unicode="&#xfd;" horiz-adv-x="661" 
d="M330 100l250 967h43l-347 -1333h-43v2l76 289l-268 1042h43zM319 1171l138 242l45 -22l-162 -220h-21z" />
    <glyph glyph-name="thorn" unicode="&#xfe;" horiz-adv-x="749" 
d="M109 -266v1714h43v-647q10 45 26.5 87t44.5 89t72.5 75.5t99.5 28.5q125 0 206 -153.5t81 -386.5v-15q0 -233 -81 -386.5t-206 -153.5q-55 0 -99.5 28.5t-72.5 75.5t-44.5 89t-26.5 87v-532h-43zM393 27q72 0 128 68t86 181.5t30 249.5v15q0 136 -30 249.5t-86 181.5
t-128 68q-104 0 -173.5 -146t-69.5 -353v-15q0 -207 69.5 -353t173.5 -146z" />
    <glyph glyph-name="ydieresis" unicode="&#xff;" horiz-adv-x="661" 
d="M330 100l250 967h43l-347 -1333h-43v2l76 289l-268 1042h43zM387 1192v76h53v-76h-53zM227 1192v76h54v-76h-54z" />
    <glyph glyph-name="Amacron" unicode="&#x100;" horiz-adv-x="786" 
d="M55 0l316 1444h45l315 -1444h-47l-94 434h-395l-93 -434h-47zM205 475h377l-189 879zM231 1550v37h328v-37h-328z" />
    <glyph glyph-name="amacron" unicode="&#x101;" horiz-adv-x="673" 
d="M293 -14q-111 0 -173.5 86t-62.5 239v6q0 159 71.5 249.5t209.5 90.5q107 0 194 -53v176q0 122 -58 189t-167 67q-93 0 -188 -53v47q96 47 190 47q122 0 191 -69q75 -75 75 -220v-788h-43v193q-31 -89 -91.5 -148t-147.5 -59zM297 27q96 0 165.5 101.5t69.5 227.5v203
q-93 57 -196 57q-119 0 -176.5 -78.5t-57.5 -220.5v-6q0 -132 50 -208t145 -76zM186 1214v37h328v-37h-328z" />
    <glyph glyph-name="Abreve" unicode="&#x102;" horiz-adv-x="786" 
d="M55 0l316 1444h45l315 -1444h-47l-94 434h-395l-93 -434h-47zM205 475h377l-189 879zM395 1532q-76 0 -127 40.5t-63 121.5h37q24 -125 153 -125q130 0 154 125h37q-11 -81 -63 -121.5t-128 -40.5z" />
    <glyph glyph-name="abreve" unicode="&#x103;" horiz-adv-x="673" 
d="M293 -14q-111 0 -173.5 86t-62.5 239v6q0 159 71.5 249.5t209.5 90.5q107 0 194 -53v176q0 122 -58 189t-167 67q-93 0 -188 -53v47q96 47 190 47q122 0 191 -69q75 -75 75 -220v-788h-43v193q-31 -89 -91.5 -148t-147.5 -59zM297 27q96 0 165.5 101.5t69.5 227.5v203
q-93 57 -196 57q-119 0 -176.5 -78.5t-57.5 -220.5v-6q0 -132 50 -208t145 -76zM350 1196q-82 0 -130 51.5t-60 141.5h37q9 -67 45.5 -111.5t107.5 -44.5q127 0 154 156h37q-12 -90 -60.5 -141.5t-130.5 -51.5z" />
    <glyph glyph-name="Aogonek" unicode="&#x104;" horiz-adv-x="786" 
d="M754 -190v-31q-16 -2 -35 -2q-101 0 -101 76q0 59 76 147h-10l-94 434h-395l-93 -434h-47l316 1444h45l315 -1444h-10q-62 -90 -62 -139q0 -28 19 -40t76 -11zM205 475h377l-189 879z" />
    <glyph glyph-name="aogonek" unicode="&#x105;" horiz-adv-x="673" 
d="M600 -190v-31q-16 -2 -35 -2q-100 0 -100 76q0 59 76 147h-9v193q-31 -89 -91.5 -148t-147.5 -59q-111 0 -173.5 86t-62.5 239v6q0 159 71.5 249.5t209.5 90.5q107 0 194 -53v176q0 122 -58 189t-167 67q-93 0 -188 -53v47q96 47 190 47q122 0 191 -69q75 -75 75 -220
v-788h-8q-61 -89 -61 -139q0 -29 18.5 -40.5t75.5 -10.5zM297 27q96 0 165.5 101.5t69.5 227.5v203q-93 57 -196 57q-119 0 -176.5 -78.5t-57.5 -220.5v-6q0 -132 50 -208t145 -76z" />
    <glyph glyph-name="Cacute" unicode="&#x106;" horiz-adv-x="647" 
d="M442 -14q-157 0 -261.5 186t-104.5 533v24q0 176 30.5 316t82.5 226.5t117.5 131.5t139.5 45q78 0 134 -33v-49q-73 41 -134 41q-63 0 -121 -43t-104 -125t-73 -214t-27 -296v-24q0 -167 27 -299.5t73.5 -213.5t103.5 -123t121 -42q70 0 140 45v-47q-62 -39 -144 -39z
M408 1526l127 203l45 -23l-152 -180h-20z" />
    <glyph glyph-name="cacute" unicode="&#x107;" horiz-adv-x="559" 
d="M387 -14q-138 0 -229.5 139t-91.5 401v15q0 257 94 398.5t231 141.5q61 0 115 -28v-49q-48 36 -115 36q-121 0 -200.5 -131.5t-79.5 -367.5v-15q0 -239 79 -369t201 -130q66 0 117 39v-48q-46 -32 -121 -32zM350 1190l137 242l45 -23l-161 -219h-21z" />
    <glyph glyph-name="Cdotaccent" unicode="&#x10a;" horiz-adv-x="647" 
d="M442 -14q-157 0 -261.5 186t-104.5 533v24q0 176 30.5 316t82.5 226.5t117.5 131.5t139.5 45q78 0 134 -33v-49q-73 41 -134 41q-63 0 -121 -43t-104 -125t-73 -214t-27 -296v-24q0 -167 27 -299.5t73.5 -213.5t103.5 -123t121 -42q70 0 140 45v-47q-62 -39 -144 -39z
M395 1546v76h54v-76h-54z" />
    <glyph glyph-name="cdotaccent" unicode="&#x10b;" horiz-adv-x="559" 
d="M387 -14q-138 0 -229.5 139t-91.5 401v15q0 257 94 398.5t231 141.5q61 0 115 -28v-49q-48 36 -115 36q-121 0 -200.5 -131.5t-79.5 -367.5v-15q0 -239 79 -369t201 -130q66 0 117 39v-48q-46 -32 -121 -32zM338 1210v76h53v-76h-53z" />
    <glyph glyph-name="Ccaron" unicode="&#x10c;" horiz-adv-x="647" 
d="M442 -14q-157 0 -261.5 186t-104.5 533v24q0 176 30.5 316t82.5 226.5t117.5 131.5t139.5 45q78 0 134 -33v-49q-73 41 -134 41q-63 0 -121 -43t-104 -125t-73 -214t-27 -296v-24q0 -167 27 -299.5t73.5 -213.5t103.5 -123t121 -42q70 0 140 45v-47q-62 -39 -144 -39z
M580 1735l-142 -199h-28l-142 199h31l125 -152l125 152h31z" />
    <glyph glyph-name="ccaron" unicode="&#x10d;" horiz-adv-x="559" 
d="M387 -14q-138 0 -229.5 139t-91.5 401v15q0 257 94 398.5t231 141.5q61 0 115 -28v-49q-48 36 -115 36q-121 0 -200.5 -131.5t-79.5 -367.5v-15q0 -239 79 -369t201 -130q66 0 117 39v-48q-46 -32 -121 -32zM520 1450l-141 -250h-29l-141 250h31l125 -201l124 201h31z
" />
    <glyph glyph-name="Dcaron" unicode="&#x10e;" horiz-adv-x="784" 
d="M115 0v1434h141q200 0 326.5 -184t126.5 -517v-33q0 -332 -126 -516t-337 -184h-131zM252 1393h-92v-1352h82q198 0 310 172t112 487v33q0 309 -114 484.5t-298 175.5zM512 1724l-141 -198h-29l-141 198h30l125 -151l125 151h31z" />
    <glyph glyph-name="dcaron" unicode="&#x10f;" horiz-adv-x="749" 
d="M354 -14q-125 0 -205.5 153.5t-80.5 386.5v15q0 233 80.5 386.5t205.5 153.5q45 0 83 -20t63.5 -49.5t46.5 -69.5t32 -73t19 -68v647h43v-1448h-43v266q-8 -35 -19 -68t-32 -73t-46.5 -69.5t-63.5 -49.5t-83 -20zM356 27q104 0 174 146t70 353v15q0 207 -70 353t-174 146
q-72 0 -128 -68t-85.5 -181.5t-29.5 -249.5v-15q0 -136 29.5 -249.5t85.5 -181.5t128 -68zM717 1145l16 303h41v-4l-41 -299h-16z" />
    <glyph glyph-name="Dcroat" unicode="&#x110;" horiz-adv-x="796" 
d="M37 702v39h90v693h141q200 0 326.5 -184t126.5 -517v-33q0 -332 -126 -516t-337 -184h-131v702h-90zM676 700v33q0 309 -114 484.5t-298 175.5h-92v-652h215v-39h-215v-661h82q198 0 310 172t112 487z" />
    <glyph glyph-name="dcroat" unicode="&#x111;" horiz-adv-x="751" 
d="M358 1245v37h240v166h43v-166h100v-37h-100v-1245h-43v266q-8 -35 -19 -68t-32 -73t-46.5 -69.5t-63.5 -49.5t-83 -20q-125 0 -205.5 153.5t-80.5 386.5v15q0 233 80.5 386.5t205.5 153.5q45 0 83 -20t63.5 -49.5t46.5 -69.5t32 -73t19 -68v444h-240zM356 27
q104 0 174 146t70 353v15q0 207 -70 353t-174 146q-72 0 -128 -68t-85.5 -181.5t-29.5 -249.5v-15q0 -136 29.5 -249.5t85.5 -181.5t128 -68z" />
    <glyph glyph-name="Emacron" unicode="&#x112;" horiz-adv-x="641" 
d="M115 0v1434h463v-41h-418v-650h383v-41h-383v-661h424v-41h-469zM186 1540v37h328v-37h-328z" />
    <glyph glyph-name="emacron" unicode="&#x113;" horiz-adv-x="686" 
d="M399 -14q-139 0 -236 143t-97 395v8q0 258 85.5 403.5t200.5 145.5q117 0 195 -140t78 -382v-41h-514q0 -231 84.5 -361t205.5 -130q102 0 193 63l6 -45q-100 -59 -201 -59zM111 557h469q0 207 -64.5 345t-163.5 138q-97 0 -167 -131.5t-74 -351.5zM195 1214v37h327v-37
h-327z" />
    <glyph glyph-name="Ebreve" unicode="&#x114;" horiz-adv-x="641" 
d="M115 0v1434h463v-41h-418v-650h383v-41h-383v-661h424v-41h-469zM350 1522q-76 0 -127.5 40t-62.5 121h37q23 -124 153 -124q66 0 104.5 33t49.5 91h37q-11 -81 -63 -121t-128 -40z" />
    <glyph glyph-name="ebreve" unicode="&#x115;" horiz-adv-x="686" 
d="M399 -14q-139 0 -236 143t-97 395v8q0 258 85.5 403.5t200.5 145.5q117 0 195 -140t78 -382v-41h-514q0 -231 84.5 -361t205.5 -130q102 0 193 63l6 -45q-100 -59 -201 -59zM111 557h469q0 207 -64.5 345t-163.5 138q-97 0 -167 -131.5t-74 -351.5zM358 1196
q-82 0 -130 51.5t-60 141.5h37q9 -67 45.5 -111.5t107.5 -44.5q127 0 154 156h37q-12 -90 -60.5 -141.5t-130.5 -51.5z" />
    <glyph glyph-name="Edotaccent" unicode="&#x116;" horiz-adv-x="641" 
d="M115 0v1434h463v-41h-418v-650h383v-41h-383v-661h424v-41h-469zM324 1536v76h53v-76h-53z" />
    <glyph glyph-name="edotaccent" unicode="&#x117;" horiz-adv-x="686" 
d="M399 -14q-139 0 -236 143t-97 395v8q0 258 85.5 403.5t200.5 145.5q117 0 195 -140t78 -382v-41h-514q0 -231 84.5 -361t205.5 -130q102 0 193 63l6 -45q-100 -59 -201 -59zM111 557h469q0 207 -64.5 345t-163.5 138q-97 0 -167 -131.5t-74 -351.5zM332 1210v76h53v-76
h-53z" />
    <glyph glyph-name="Eogonek" unicode="&#x118;" horiz-adv-x="641" 
d="M115 0v1434h463v-41h-418v-650h383v-41h-383v-661h424v-41h-29q-61 -89 -61 -139q0 -29 18.5 -40.5t75.5 -10.5v-31q-16 -2 -35 -2q-100 0 -100 76q0 60 75 147h-413z" />
    <glyph glyph-name="eogonek" unicode="&#x119;" horiz-adv-x="686" 
d="M111 557h469q0 207 -64.5 345t-163.5 138q-97 0 -167 -131.5t-74 -351.5zM594 90l4 -41v-2q-111 -111 -111 -180q0 -31 20.5 -44.5t74.5 -12.5v-31q-16 -2 -35 -2q-48 0 -74.5 22t-26.5 60q0 59 80 149q-64 -22 -127 -22q-139 0 -236 143t-97 395v8q0 258 85.5 403.5
t200.5 145.5q117 0 195 -140t78 -382v-41h-514q0 -231 84.5 -361t205.5 -130q102 0 193 63z" />
    <glyph glyph-name="Ecaron" unicode="&#x11a;" horiz-adv-x="641" 
d="M115 0v1434h463v-41h-418v-650h383v-41h-383v-661h424v-41h-469zM508 1724l-141 -198h-29l-141 198h30l125 -151l125 151h31z" />
    <glyph glyph-name="ecaron" unicode="&#x11b;" horiz-adv-x="686" 
d="M399 -14q-139 0 -236 143t-97 395v8q0 258 85.5 403.5t200.5 145.5q117 0 195 -140t78 -382v-41h-514q0 -231 84.5 -361t205.5 -130q102 0 193 63l6 -45q-100 -59 -201 -59zM111 557h469q0 207 -64.5 345t-163.5 138q-97 0 -167 -131.5t-74 -351.5zM514 1450l-141 -250
h-29l-141 250h30l125 -201l125 201h31z" />
    <glyph glyph-name="Gbreve" unicode="&#x11e;" horiz-adv-x="759" 
d="M510 -14q-64 0 -124 22.5t-117 76t-99.5 134t-68 205.5t-25.5 281v24q0 178 35.5 319t95 226t132.5 129.5t153 44.5q94 0 167 -43v-49q-80 51 -167 51q-71 0 -136.5 -43t-118.5 -125t-84.5 -214t-31.5 -296v-24q0 -123 16.5 -226t45.5 -175.5t66.5 -127t81.5 -86.5
t88.5 -47.5t90.5 -15.5q63 0 113 20v621h-236v41h279v-689q-72 -34 -156 -34zM459 1532q-76 0 -128 40.5t-63 121.5h37q24 -125 154 -125q129 0 153 125h37q-12 -81 -63 -121.5t-127 -40.5z" />
    <glyph glyph-name="gbreve" unicode="&#x11f;" horiz-adv-x="743" 
d="M346 -268q-126 0 -233 45v45q119 -49 233 -49q125 0 185.5 63.5t60.5 202.5v258q-6 -24 -17 -53t-32 -65t-47.5 -64.5t-64.5 -48t-81 -19.5q-122 0 -202 148.5t-80 361.5v14q0 213 80 361.5t202 148.5q43 0 81 -19.5t64.5 -48t47.5 -64.5t32 -65t17 -53v236h43v-1024
q0 -164 -78 -242q-69 -69 -211 -69zM352 88q68 0 124.5 66.5t87 173.5t30.5 229v14q0 122 -30.5 229t-87 173.5t-124.5 66.5q-70 0 -125.5 -66.5t-84.5 -173t-29 -229.5v-14q0 -123 29 -229.5t84.5 -173t125.5 -66.5zM381 1196q-82 0 -130.5 51.5t-60.5 141.5h37
q9 -67 46 -111.5t108 -44.5q127 0 154 156h36q-12 -90 -60 -141.5t-130 -51.5z" />
    <glyph glyph-name="Gdotaccent" unicode="&#x120;" horiz-adv-x="759" 
d="M510 -14q-64 0 -124 22.5t-117 76t-99.5 134t-68 205.5t-25.5 281v24q0 178 35.5 319t95 226t132.5 129.5t153 44.5q94 0 167 -43v-49q-80 51 -167 51q-71 0 -136.5 -43t-118.5 -125t-84.5 -214t-31.5 -296v-24q0 -123 16.5 -226t45.5 -175.5t66.5 -127t81.5 -86.5
t88.5 -47.5t90.5 -15.5q63 0 113 20v621h-236v41h279v-689q-72 -34 -156 -34zM432 1546v76h53v-76h-53z" />
    <glyph glyph-name="gdotaccent" unicode="&#x121;" horiz-adv-x="743" 
d="M346 -268q-126 0 -233 45v45q119 -49 233 -49q125 0 185.5 63.5t60.5 202.5v258q-6 -24 -17 -53t-32 -65t-47.5 -64.5t-64.5 -48t-81 -19.5q-122 0 -202 148.5t-80 361.5v14q0 213 80 361.5t202 148.5q43 0 81 -19.5t64.5 -48t47.5 -64.5t32 -65t17 -53v236h43v-1024
q0 -164 -78 -242q-69 -69 -211 -69zM352 88q68 0 124.5 66.5t87 173.5t30.5 229v14q0 122 -30.5 229t-87 173.5t-124.5 66.5q-70 0 -125.5 -66.5t-84.5 -173t-29 -229.5v-14q0 -123 29 -229.5t84.5 -173t125.5 -66.5zM354 1210v76h54v-76h-54z" />
    <glyph glyph-name="Gcommaaccent" unicode="&#x122;" horiz-adv-x="759" 
d="M510 -14q-64 0 -124 22.5t-117 76t-99.5 134t-68 205.5t-25.5 281v24q0 178 35.5 319t95 226t132.5 129.5t153 44.5q94 0 167 -43v-49q-80 51 -167 51q-71 0 -136.5 -43t-118.5 -125t-84.5 -214t-31.5 -296v-24q0 -123 16.5 -226t45.5 -175.5t66.5 -127t81.5 -86.5
t88.5 -47.5t90.5 -15.5q63 0 113 20v621h-236v41h279v-689q-72 -34 -156 -34zM420 -358l-14 26q26 14 37 35t10 61h-23v103h57v-109q0 -47 -16.5 -71.5t-50.5 -44.5z" />
    <glyph glyph-name="gcommaaccent" unicode="&#x123;" horiz-adv-x="743" 
d="M346 -268q-126 0 -233 45v45q119 -49 233 -49q125 0 185.5 63.5t60.5 202.5v258q-6 -24 -17 -53t-32 -65t-47.5 -64.5t-64.5 -48t-81 -19.5q-122 0 -202 148.5t-80 361.5v14q0 213 80 361.5t202 148.5q43 0 81 -19.5t64.5 -48t47.5 -64.5t32 -65t17 -53v236h43v-1024
q0 -164 -78 -242q-69 -69 -211 -69zM352 88q68 0 124.5 66.5t87 173.5t30.5 229v14q0 122 -30.5 229t-87 173.5t-124.5 66.5q-70 0 -125.5 -66.5t-84.5 -173t-29 -229.5v-14q0 -123 29 -229.5t84.5 -173t125.5 -66.5zM426 1434l14 -27q-26 -14 -37 -35t-10 -61h23v-103h-58
v109q0 47 17 72t51 45z" />
    <glyph glyph-name="Hbar" unicode="&#x126;" horiz-adv-x="847" 
d="M14 1159v37h113v238h45v-238h508v238h45v-238h109v-37h-109v-1159h-45v702h-508v-702h-45v1159h-113zM172 743h508v416h-508v-416z" />
    <glyph glyph-name="hbar" unicode="&#x127;" horiz-adv-x="737" 
d="M393 1245h-241v-364q22 82 87 141t154 59q113 0 178.5 -90.5t65.5 -257.5v-733h-43v733q0 146 -53.5 226.5t-151.5 80.5q-95 0 -166 -89.5t-71 -225.5v-725h-43v1245h-99v37h99v166h43v-166h241v-37z" />
    <glyph glyph-name="Imacron" unicode="&#x12a;" horiz-adv-x="294" 
d="M125 0v1434h45v-1434h-45zM-14 1540v37h327v-37h-327z" />
    <glyph glyph-name="imacron" unicode="&#x12b;" horiz-adv-x="276" 
d="M117 0v1067h43v-1067h-43zM-25 1204v37h328v-37h-328z" />
    <glyph glyph-name="Ibreve" unicode="&#x12c;" horiz-adv-x="294" 
d="M125 0v1434h45v-1434h-45zM150 1522q-76 0 -128 40t-63 121h37q11 -58 49.5 -91t104.5 -33q130 0 153 124h37q-11 -81 -62.5 -121t-127.5 -40z" />
    <glyph glyph-name="ibreve" unicode="&#x12d;" horiz-adv-x="276" 
d="M117 0v1067h43v-1067h-43zM139 1186q-82 0 -130 51t-60 141h37q9 -67 45.5 -111t107.5 -44q127 0 154 155h37q-12 -90 -60.5 -141t-130.5 -51z" />
    <glyph glyph-name="Iogonek" unicode="&#x12e;" horiz-adv-x="294" 
d="M125 0v1434h45v-1434h-6q-62 -90 -62 -139q0 -28 19 -40t76 -11v-31q-16 -2 -35 -2q-101 0 -101 76q0 59 76 147h-12z" />
    <glyph glyph-name="iogonek" unicode="&#x12f;" horiz-adv-x="276" 
d="M117 0v1067h43v-1067h-8q-62 -90 -62 -139q0 -29 18.5 -40.5t75.5 -10.5v-31q-16 -2 -34 -2q-101 0 -101 76q0 59 76 147h-8zM113 1331v117h51v-117h-51z" />
    <glyph glyph-name="Idotaccent" unicode="&#x130;" horiz-adv-x="294" 
d="M125 0v1434h45v-1434h-45zM123 1536v76h53v-76h-53z" />
    <glyph glyph-name="dotlessi" unicode="&#x131;" horiz-adv-x="276" 
d="M117 0v1067h43v-1067h-43z" />
    <glyph glyph-name="Kcommaaccent" unicode="&#x136;" horiz-adv-x="679" 
d="M115 0v1434h45v-863l426 863h49l-332 -662l363 -772h-50l-337 723l-119 -238v-485h-45zM311 -358l-14 26q26 14 37 35t10 61h-22v103h57v-109q0 -47 -17 -71.5t-51 -44.5z" />
    <glyph glyph-name="kcommaaccent" unicode="&#x137;" horiz-adv-x="610" 
d="M109 0v1448h43v-1067l358 686h49l-237 -444l258 -623h-48l-237 575l-143 -270v-305h-43zM281 -358l-15 26q26 14 37 35t10 61h-22v103h57v-109q0 -47 -16.5 -71.5t-50.5 -44.5z" />
    <glyph glyph-name="Lacute" unicode="&#x139;" horiz-adv-x="555" 
d="M115 0v1434h45v-1393h381v-41h-426zM131 1516l127 202l45 -22l-151 -180h-21z" />
    <glyph glyph-name="lacute" unicode="&#x13a;" horiz-adv-x="276" 
d="M117 0v1448h43v-1448h-43zM125 1516l127 202l45 -22l-152 -180h-20z" />
    <glyph glyph-name="Lcommaaccent" unicode="&#x13b;" horiz-adv-x="555" 
d="M115 0v1434h45v-1393h381v-41h-426zM270 -358l-14 26q26 14 37 35t10 61h-22v103h57v-109q0 -47 -17 -71.5t-51 -44.5z" />
    <glyph glyph-name="lcommaaccent" unicode="&#x13c;" horiz-adv-x="276" 
d="M117 0v1448h43v-1448h-43zM100 -358l-14 26q26 14 37 35t10 61h-22v103h57v-109q0 -47 -17 -71.5t-51 -44.5z" />
    <glyph glyph-name="Lcaron" unicode="&#x13d;" horiz-adv-x="555" 
d="M115 0v1434h45v-1393h381v-41h-426zM258 1133l16 303h41v-4l-41 -299h-16z" />
    <glyph glyph-name="lcaron" unicode="&#x13e;" horiz-adv-x="276" 
d="M117 0v1448h43v-1448h-43zM238 1145l16 303h41v-4l-41 -299h-16z" />
    <glyph glyph-name="Ldot" unicode="&#x13f;" horiz-adv-x="555" 
d="M389 670v75h53v-75h-53zM115 0v1434h45v-1393h381v-41h-426z" />
    <glyph glyph-name="ldot" unicode="&#x140;" horiz-adv-x="321" 
d="M272 655v86h50v-86h-50zM117 0v1448h43v-1448h-43z" />
    <glyph glyph-name="Lslash" unicode="&#x141;" horiz-adv-x="569" 
d="M369 797l-195 -133v-623h381v-41h-426v633l-115 -78v49l115 76v754h45v-725l195 137v-49z" />
    <glyph glyph-name="lslash" unicode="&#x142;" horiz-adv-x="315" 
d="M305 815l-127 -84v-731h-43v702l-125 -86v50l125 82v700h43v-672l127 88v-49z" />
    <glyph glyph-name="Nacute" unicode="&#x143;" horiz-adv-x="835" 
d="M115 0v1434h45l518 -1303v1303h43v-1434h-37l-526 1323v-1323h-43zM406 1507l126 203l46 -22l-152 -181h-20z" />
    <glyph glyph-name="nacute" unicode="&#x144;" horiz-adv-x="737" 
d="M109 0v1067h43v-186q22 82 87 141t154 59q113 0 178.5 -90.5t65.5 -257.5v-733h-43v733q0 146 -53.5 226.5t-151.5 80.5q-95 0 -166 -89.5t-71 -225.5v-725h-43zM356 1190l138 242l45 -23l-162 -219h-21z" />
    <glyph glyph-name="Ncommaaccent" unicode="&#x145;" horiz-adv-x="835" 
d="M115 0v1434h45l518 -1303v1303h43v-1434h-37l-526 1323v-1323h-43zM381 -358l-14 26q26 14 37 35t10 61h-23v103h58v-109q0 -47 -17 -71.5t-51 -44.5z" />
    <glyph glyph-name="ncommaaccent" unicode="&#x146;" horiz-adv-x="737" 
d="M109 0v1067h43v-186q22 82 87 141t154 59q113 0 178.5 -90.5t65.5 -257.5v-733h-43v733q0 146 -53.5 226.5t-151.5 80.5q-95 0 -166 -89.5t-71 -225.5v-725h-43zM332 -358l-15 26q26 14 37.5 35.5t10.5 60.5h-23v103h57v-109q0 -47 -16.5 -71.5t-50.5 -44.5z" />
    <glyph glyph-name="Ncaron" unicode="&#x147;" horiz-adv-x="835" 
d="M115 0v1434h45l518 -1303v1303h43v-1434h-37l-526 1323v-1323h-43zM578 1716l-142 -198h-28l-142 198h31l125 -151l125 151h31z" />
    <glyph glyph-name="ncaron" unicode="&#x148;" horiz-adv-x="737" 
d="M109 0v1067h43v-186q22 82 87 141t154 59q113 0 178.5 -90.5t65.5 -257.5v-733h-43v733q0 146 -53.5 226.5t-151.5 80.5q-95 0 -166 -89.5t-71 -225.5v-725h-43zM526 1450l-141 -250h-29l-141 250h31l125 -201l125 201h30z" />
    <glyph glyph-name="Omacron" unicode="&#x14c;" horiz-adv-x="811" 
d="M406 -14q-145 0 -237.5 189t-92.5 530v24q0 341 92.5 530t237.5 189t237 -189t92 -530v-24q0 -341 -92 -530t-237 -189zM406 27q123 0 203.5 181.5t80.5 496.5v24q0 315 -80.5 496.5t-203.5 181.5q-124 0 -204.5 -181.5t-80.5 -496.5v-24q0 -315 80.5 -496.5
t204.5 -181.5zM244 1550v37h327v-37h-327z" />
    <glyph glyph-name="omacron" unicode="&#x14d;" horiz-adv-x="724" 
d="M362 -14q-125 0 -210.5 148t-85.5 392v15q0 244 85.5 392t210.5 148t211 -148t86 -392v-15q0 -244 -86 -392t-211 -148zM362 27q107 0 179.5 141.5t72.5 357.5v15q0 216 -72.5 357.5t-179.5 141.5t-179 -141.5t-72 -357.5v-15q0 -216 72 -357.5t179 -141.5zM201 1214v37
h327v-37h-327z" />
    <glyph glyph-name="Obreve" unicode="&#x14e;" horiz-adv-x="811" 
d="M406 -14q-145 0 -237.5 189t-92.5 530v24q0 341 92.5 530t237.5 189t237 -189t92 -530v-24q0 -341 -92 -530t-237 -189zM406 27q123 0 203.5 181.5t80.5 496.5v24q0 315 -80.5 496.5t-203.5 181.5q-124 0 -204.5 -181.5t-80.5 -496.5v-24q0 -315 80.5 -496.5
t204.5 -181.5zM408 1532q-76 0 -128 40.5t-63 121.5h37q24 -125 154 -125q129 0 153 125h37q-12 -81 -63 -121.5t-127 -40.5z" />
    <glyph glyph-name="obreve" unicode="&#x14f;" horiz-adv-x="724" 
d="M362 -14q-125 0 -210.5 148t-85.5 392v15q0 244 85.5 392t210.5 148t211 -148t86 -392v-15q0 -244 -86 -392t-211 -148zM362 27q107 0 179.5 141.5t72.5 357.5v15q0 216 -72.5 357.5t-179.5 141.5t-179 -141.5t-72 -357.5v-15q0 -216 72 -357.5t179 -141.5zM365 1196
q-82 0 -130.5 51.5t-60.5 141.5h37q9 -67 46 -111.5t108 -44.5q126 0 153 156h37q-12 -90 -60 -141.5t-130 -51.5z" />
    <glyph glyph-name="Ohungarumlaut" unicode="&#x150;" horiz-adv-x="811" 
d="M406 -14q-145 0 -237.5 189t-92.5 530v24q0 341 92.5 530t237.5 189t237 -189t92 -530v-24q0 -341 -92 -530t-237 -189zM406 27q123 0 203.5 181.5t80.5 496.5v24q0 315 -80.5 496.5t-203.5 181.5q-124 0 -204.5 -181.5t-80.5 -496.5v-24q0 -315 80.5 -496.5
t204.5 -181.5zM326 1526l127 205l45 -25l-152 -180h-20zM467 1526l121 205l45 -25l-146 -180h-20z" />
    <glyph glyph-name="ohungarumlaut" unicode="&#x151;" horiz-adv-x="724" 
d="M362 -14q-125 0 -210.5 148t-85.5 392v15q0 244 85.5 392t210.5 148t211 -148t86 -392v-15q0 -244 -86 -392t-211 -148zM362 27q107 0 179.5 141.5t72.5 357.5v15q0 216 -72.5 357.5t-179.5 141.5t-179 -141.5t-72 -357.5v-15q0 -216 72 -357.5t179 -141.5zM434 1190
l135 244l45 -25l-159 -219h-21zM283 1190l135 244l45 -25l-160 -219h-20z" />
    <glyph glyph-name="OE" unicode="&#x152;" horiz-adv-x="1099" 
d="M1042 0h-532q-131 0 -231 95.5t-151.5 254.5t-51.5 355v24q0 176 35.5 314t96 221.5t137.5 126.5t165 43h526v-41h-418v-650h383v-41h-383v-661h424v-41zM510 39h63v1354h-63q-78 0 -146 -39t-123.5 -117t-87.5 -208.5t-32 -299.5v-24q0 -299 112.5 -482.5t276.5 -183.5z
" />
    <glyph glyph-name="oe" unicode="&#x153;" horiz-adv-x="1234" 
d="M362 -14q-125 0 -210.5 148t-85.5 392v15q0 244 85.5 392t210.5 148q95 0 169 -89t106 -247q31 162 103.5 249t160.5 87q117 0 195 -140t78 -382v-41h-515q0 -230 85 -360.5t206 -130.5q102 0 193 63l6 -45q-100 -59 -201 -59q-107 0 -192 88t-119 250
q-30 -158 -105 -248t-170 -90zM659 557h469q0 207 -64 345t-163 138q-98 0 -168 -131.5t-74 -351.5zM362 27q107 0 179.5 141.5t72.5 357.5v15q0 216 -72.5 357.5t-179.5 141.5t-179 -141.5t-72 -357.5v-15q0 -216 72 -357.5t179 -141.5z" />
    <glyph glyph-name="Racute" unicode="&#x154;" horiz-adv-x="747" 
d="M115 0v1434h141q194 0 307 -113q109 -109 109 -295v-4q0 -153 -74.5 -260t-204.5 -146l301 -616h-51l-295 606q-36 -8 -88 -8h-100v-598h-45zM160 639h100q171 0 269 102.5t98 280.5v4q0 179 -99.5 273t-273.5 94h-94v-754zM324 1516l127 202l45 -22l-152 -180h-20z" />
    <glyph glyph-name="racute" unicode="&#x155;" horiz-adv-x="411" 
d="M109 0v1067h43v-186q27 87 89.5 143.5t153.5 52.5v-45h-4q-101 0 -170 -85.5t-69 -229.5v-717h-43zM213 1180l137 241l45 -22l-162 -219h-20z" />
    <glyph glyph-name="Rcommaaccent" unicode="&#x156;" horiz-adv-x="747" 
d="M115 0v1434h141q194 0 307 -113q109 -109 109 -295v-4q0 -153 -74.5 -260t-204.5 -146l301 -616h-51l-295 606q-36 -8 -88 -8h-100v-598h-45zM160 639h100q171 0 269 102.5t98 280.5v4q0 179 -99.5 273t-273.5 94h-94v-754zM299 -358l-14 26q26 14 37 35t10 61h-23v103
h58v-109q0 -47 -17 -71.5t-51 -44.5z" />
    <glyph glyph-name="rcommaaccent" unicode="&#x157;" horiz-adv-x="411" 
d="M109 0v1067h43v-186q27 87 89.5 143.5t153.5 52.5v-45h-4q-101 0 -170 -85.5t-69 -229.5v-717h-43zM96 -358l-14 26q26 14 37 35t10 61h-23v103h58v-109q0 -47 -17 -71.5t-51 -44.5z" />
    <glyph glyph-name="Rcaron" unicode="&#x158;" horiz-adv-x="747" 
d="M115 0v1434h141q194 0 307 -113q109 -109 109 -295v-4q0 -153 -74.5 -260t-204.5 -146l301 -616h-51l-295 606q-36 -8 -88 -8h-100v-598h-45zM160 639h100q171 0 269 102.5t98 280.5v4q0 179 -99.5 273t-273.5 94h-94v-754zM496 1724l-142 -198h-28l-142 198h31l125 -151
l125 151h31z" />
    <glyph glyph-name="rcaron" unicode="&#x159;" horiz-adv-x="411" 
d="M109 0v1067h43v-186q27 87 89.5 143.5t153.5 52.5v-45h-4q-101 0 -170 -85.5t-69 -229.5v-717h-43zM391 1440l-141 -250h-29l-141 250h31l125 -201l124 201h31z" />
    <glyph glyph-name="Sacute" unicode="&#x15a;" horiz-adv-x="638" 
d="M293 -14q-128 0 -234 75v52q121 -86 232 -86q106 0 172.5 68t66.5 177v4q0 106 -56.5 211t-170.5 250q-78 99 -118.5 157t-72.5 133t-32 142v5q0 119 78 196.5t198 77.5q105 0 191 -59v-52q-94 70 -195 70q-98 0 -162.5 -65.5t-64.5 -163.5v-4q0 -91 51 -180.5
t166 -231.5q117 -146 175 -257.5t58 -223.5v-5q0 -128 -79 -209t-203 -81zM326 1526l127 203l45 -23l-152 -180h-20z" />
    <glyph glyph-name="sacute" unicode="&#x15b;" horiz-adv-x="552" 
d="M258 -10q-96 0 -207 51v49q109 -59 207 -59q92 0 147.5 51t55.5 141v2q0 69 -46 137.5t-151 167.5q-115 110 -161 180t-46 146v2q0 99 70 160t168 61q83 0 164 -37v-49q-80 45 -164 45t-138.5 -48t-54.5 -132v-2q0 -66 42 -127.5t151 -165.5q111 -105 161 -182t50 -156
v-2q0 -104 -71.5 -168.5t-176.5 -64.5zM276 1190l138 242l45 -23l-162 -219h-21z" />
    <glyph glyph-name="Scedilla" unicode="&#x15e;" horiz-adv-x="638" 
d="M254 -213l-45 18l100 181h-16q-128 0 -234 75v52q121 -86 232 -86q106 0 172.5 68t66.5 177v4q0 106 -56.5 211t-170.5 250q-78 99 -118.5 157t-72.5 133t-32 142v5q0 119 78 196.5t198 77.5q105 0 191 -59v-52q-94 70 -195 70q-98 0 -162.5 -65.5t-64.5 -163.5v-4
q0 -91 51 -180.5t166 -231.5q117 -146 175 -257.5t58 -223.5v-5q0 -118 -66 -196t-173 -90z" />
    <glyph glyph-name="scedilla" unicode="&#x15f;" horiz-adv-x="552" 
d="M215 -215l-45 18l104 189q-3 0 -8 -1t-8 -1q-96 0 -207 51v49q109 -59 207 -59q92 0 147.5 51t55.5 141v2q0 69 -46 137.5t-151 167.5q-115 110 -161 180t-46 146v2q0 99 70 160t168 61q83 0 164 -37v-49q-80 45 -164 45t-138.5 -48t-54.5 -132v-2q0 -66 42 -127.5
t151 -165.5q111 -105 161 -182t50 -156v-2q0 -94 -58.5 -156t-148.5 -73z" />
    <glyph glyph-name="Scaron" unicode="&#x160;" horiz-adv-x="638" 
d="M293 -14q-128 0 -234 75v52q121 -86 232 -86q106 0 172.5 68t66.5 177v4q0 106 -56.5 211t-170.5 250q-78 99 -118.5 157t-72.5 133t-32 142v5q0 119 78 196.5t198 77.5q105 0 191 -59v-52q-94 70 -195 70q-98 0 -162.5 -65.5t-64.5 -163.5v-4q0 -91 51 -180.5
t166 -231.5q117 -146 175 -257.5t58 -223.5v-5q0 -128 -79 -209t-203 -81zM498 1735l-142 -199h-28l-142 199h31l125 -152l125 152h31z" />
    <glyph glyph-name="scaron" unicode="&#x161;" horiz-adv-x="552" 
d="M258 -10q-96 0 -207 51v49q109 -59 207 -59q92 0 147.5 51t55.5 141v2q0 69 -46 137.5t-151 167.5q-115 110 -161 180t-46 146v2q0 99 70 160t168 61q83 0 164 -37v-49q-80 45 -164 45t-138.5 -48t-54.5 -132v-2q0 -66 42 -127.5t151 -165.5q111 -105 161 -182t50 -156
v-2q0 -104 -71.5 -168.5t-176.5 -64.5zM446 1450l-141 -250h-29l-141 250h31l125 -201l125 201h30z" />
    <glyph glyph-name="Tcommaaccent" unicode="&#x162;" horiz-adv-x="573" 
d="M264 0v1393h-244v41h533v-41h-244v-1393h-45zM250 -358l-14 26q26 14 37 35t10 61h-23v103h57v-109q0 -47 -16.5 -71.5t-50.5 -44.5z" />
    <glyph glyph-name="Tcommaaccent" unicode="&#x21a;" horiz-adv-x="573" 
d="M264 0v1393h-244v41h533v-41h-244v-1393h-45zM250 -358l-14 26q26 14 37 35t10 61h-23v103h57v-109q0 -47 -16.5 -71.5t-50.5 -44.5z" />
    <glyph glyph-name="tcommaaccent" unicode="&#x163;" horiz-adv-x="409" 
d="M305 -8q-168 0 -168 190v846h-102v39h102v311h43v-311h180v-39h-180v-842q0 -83 33 -118t94 -35q31 0 55 8v-41q-21 -8 -57 -8zM227 -358l-14 26q26 14 37 35t10 61h-22v103h57v-109q0 -47 -17 -71.5t-51 -44.5z" />
    <glyph glyph-name="tcommaaccent" unicode="&#x21b;" horiz-adv-x="409" 
d="M305 -8q-168 0 -168 190v846h-102v39h102v311h43v-311h180v-39h-180v-842q0 -83 33 -118t94 -35q31 0 55 8v-41q-21 -8 -57 -8zM227 -358l-14 26q26 14 37 35t10 61h-22v103h57v-109q0 -47 -17 -71.5t-51 -44.5z" />
    <glyph glyph-name="Tcaron" unicode="&#x164;" horiz-adv-x="573" 
d="M264 0v1393h-244v41h533v-41h-244v-1393h-45zM446 1724l-141 -198h-29l-141 198h31l125 -151l125 151h30z" />
    <glyph glyph-name="tcaron" unicode="&#x165;" horiz-adv-x="409" 
d="M305 -8q-168 0 -168 190v846h-102v39h102v311h43v-311h180v-39h-180v-842q0 -83 33 -118t94 -35q31 0 55 8v-41q-21 -8 -57 -8zM281 1145l16 303h41v-4l-41 -299h-16z" />
    <glyph glyph-name="Umacron" unicode="&#x16a;" horiz-adv-x="808" 
d="M403 -14q-140 0 -218.5 104t-78.5 285v1059h46v-1061q0 -163 68.5 -254.5t182.5 -91.5q118 0 186 90.5t68 255.5v1061h45v-1059q0 -181 -79.5 -285t-219.5 -104zM242 1532v37h327v-37h-327z" />
    <glyph glyph-name="umacron" unicode="&#x16b;" horiz-adv-x="737" 
d="M344 -14q-113 0 -178.5 90.5t-65.5 257.5v733h43v-733q0 -146 53.5 -226.5t151.5 -80.5q95 0 166.5 89.5t71.5 225.5v725h43v-1067h-43v186q-22 -82 -87.5 -141t-154.5 -59zM203 1196v37h327v-37h-327z" />
    <glyph glyph-name="Ubreve" unicode="&#x16c;" horiz-adv-x="808" 
d="M403 -14q-140 0 -218.5 104t-78.5 285v1059h46v-1061q0 -163 68.5 -254.5t182.5 -91.5q118 0 186 90.5t68 255.5v1061h45v-1059q0 -181 -79.5 -285t-219.5 -104zM406 1503q-76 0 -128 40.5t-63 121.5h37q24 -125 154 -125q129 0 153 125h37q-12 -81 -63 -121.5
t-127 -40.5z" />
    <glyph glyph-name="ubreve" unicode="&#x16d;" horiz-adv-x="737" 
d="M344 -14q-113 0 -178.5 90.5t-65.5 257.5v733h43v-733q0 -146 53.5 -226.5t151.5 -80.5q95 0 166.5 89.5t71.5 225.5v725h43v-1067h-43v186q-22 -82 -87.5 -141t-154.5 -59zM367 1167q-82 0 -130.5 51.5t-60.5 141.5h37q9 -67 46 -111.5t108 -44.5q126 0 153 156h37
q-12 -90 -60 -141.5t-130 -51.5z" />
    <glyph glyph-name="Uring" unicode="&#x16e;" horiz-adv-x="808" 
d="M403 -14q-140 0 -218.5 104t-78.5 285v1059h46v-1061q0 -163 68.5 -254.5t182.5 -91.5q118 0 186 90.5t68 255.5v1061h45v-1059q0 -181 -79.5 -285t-219.5 -104zM406 1501q-64 0 -105 41t-41 98t41 98.5t105 41.5t104.5 -41.5t40.5 -98.5t-40.5 -98t-104.5 -41zM406 1530
q52 0 83 32t31 78t-31 78.5t-83 32.5t-83.5 -32.5t-31.5 -78.5t31.5 -78t83.5 -32z" />
    <glyph glyph-name="uring" unicode="&#x16f;" horiz-adv-x="737" 
d="M344 -14q-113 0 -178.5 90.5t-65.5 257.5v733h43v-733q0 -146 53.5 -226.5t151.5 -80.5q95 0 166.5 89.5t71.5 225.5v725h43v-1067h-43v186q-22 -82 -87.5 -141t-154.5 -59zM367 1171q-62 0 -102 42t-40 104t40 103.5t102 41.5t101.5 -41.5t39.5 -103.5t-39.5 -104
t-101.5 -42zM367 1198q50 0 81 33.5t31 85.5t-31 85.5t-81 33.5t-81.5 -33.5t-31.5 -85.5t31.5 -85.5t81.5 -33.5z" />
    <glyph glyph-name="Uhungarumlaut" unicode="&#x170;" horiz-adv-x="808" 
d="M403 -14q-140 0 -218.5 104t-78.5 285v1059h46v-1061q0 -163 68.5 -254.5t182.5 -91.5q118 0 186 90.5t68 255.5v1061h45v-1059q0 -181 -79.5 -285t-219.5 -104zM324 1507l127 205l45 -24l-152 -181h-20zM465 1507l121 205l45 -24l-146 -181h-20z" />
    <glyph glyph-name="uhungarumlaut" unicode="&#x171;" horiz-adv-x="737" 
d="M344 -14q-113 0 -178.5 90.5t-65.5 257.5v733h43v-733q0 -146 53.5 -226.5t151.5 -80.5q95 0 166.5 89.5t71.5 225.5v725h43v-1067h-43v186q-22 -82 -87.5 -141t-154.5 -59zM436 1171l135 244l45 -24l-159 -220h-21zM285 1171l135 244l45 -24l-160 -220h-20z" />
    <glyph glyph-name="Uogonek" unicode="&#x172;" horiz-adv-x="808" 
d="M459 -190v-31q-16 -2 -35 -2q-100 0 -100 76q0 56 65 133q-135 6 -209 108.5t-74 280.5v1059h46v-1061q0 -163 68.5 -254.5t182.5 -91.5q118 0 186 90.5t68 255.5v1061h45v-1059q0 -178 -75.5 -280.5t-210.5 -108.5q-51 -78 -51 -125q0 -29 18.5 -40.5t75.5 -10.5z" />
    <glyph glyph-name="uogonek" unicode="&#x173;" horiz-adv-x="737" 
d="M653 -190v-31q-16 -2 -35 -2q-100 0 -100 76q0 59 76 147h-8v186q-22 -82 -87.5 -141t-154.5 -59q-113 0 -178.5 90.5t-65.5 257.5v733h43v-733q0 -146 53.5 -226.5t151.5 -80.5q95 0 166.5 89.5t71.5 225.5v725h43v-1067h-8q-62 -90 -62 -139q0 -29 18.5 -40.5
t75.5 -10.5z" />
    <glyph glyph-name="Wcircumflex" unicode="&#x174;" horiz-adv-x="1220" 
d="M311 -10l-250 1444h48l225 -1336l258 1336h37l258 -1338l225 1338h47l-250 -1444h-43l-256 1325l-256 -1325h-43zM457 1526l141 198h29l141 -198h-31l-125 151l-125 -151h-30z" />
    <glyph glyph-name="wcircumflex" unicode="&#x175;" horiz-adv-x="1007" 
d="M266 -6l-221 1073h43l195 -975l204 975h33l205 -975l195 975h43l-222 -1073h-34l-203 952l-203 -952h-35zM352 1182l142 250h28l142 -250h-31l-125 200l-125 -200h-31z" />
    <glyph glyph-name="Ycircumflex" unicode="&#x176;" horiz-adv-x="675" 
d="M315 0v618l-299 816h50l272 -758l272 758h49l-299 -816v-618h-45zM186 1518l142 198h28l142 -198h-31l-125 151l-125 -151h-31z" />
    <glyph glyph-name="ycircumflex" unicode="&#x177;" horiz-adv-x="661" 
d="M330 100l250 967h43l-347 -1333h-43v2l76 289l-268 1042h43zM180 1182l142 250h28l142 -250h-31l-125 200l-125 -200h-31z" />
    <glyph glyph-name="Ydieresis" unicode="&#x178;" horiz-adv-x="675" 
d="M315 0v618l-299 816h50l272 -758l272 758h49l-299 -816v-618h-45zM393 1528v76h53v-76h-53zM233 1528v76h54v-76h-54z" />
    <glyph glyph-name="Zacute" unicode="&#x179;" horiz-adv-x="647" 
d="M61 0v33l480 1360h-457v41h506v-33l-479 -1360h479v-41h-529zM313 1516l127 202l45 -22l-151 -180h-21z" />
    <glyph glyph-name="zacute" unicode="&#x17a;" horiz-adv-x="569" 
d="M55 0v27l408 1001h-387v39h436v-27l-408 -1001h408v-39h-457zM274 1180l138 241l45 -22l-162 -219h-21z" />
    <glyph glyph-name="Zdotaccent" unicode="&#x17b;" horiz-adv-x="647" 
d="M61 0v33l480 1360h-457v41h506v-33l-479 -1360h479v-41h-529zM301 1536v76h53v-76h-53z" />
    <glyph glyph-name="zdotaccent" unicode="&#x17c;" horiz-adv-x="569" 
d="M55 0v27l408 1001h-387v39h436v-27l-408 -1001h408v-39h-457zM262 1200v76h53v-76h-53z" />
    <glyph glyph-name="Zcaron" unicode="&#x17d;" horiz-adv-x="647" 
d="M61 0v33l480 1360h-457v41h506v-33l-479 -1360h479v-41h-529zM485 1724l-141 -198h-29l-141 198h31l125 -151l125 151h30z" />
    <glyph glyph-name="zcaron" unicode="&#x17e;" horiz-adv-x="569" 
d="M55 0v27l408 1001h-387v39h436v-27l-408 -1001h408v-39h-457zM444 1440l-141 -250h-29l-141 250h31l125 -201l125 201h30z" />
    <glyph glyph-name="uni018F" unicode="&#x18f;" horiz-adv-x="749" 
d="M100 1329l-4 45q91 76 209 76q172 0 270.5 -186t98.5 -523v-10q0 -368 -83 -556.5t-222 -188.5q-136 0 -217.5 182.5t-81.5 544.5v41h559q0 310 -87.5 482.5t-240.5 172.5q-105 0 -201 -80zM369 27q115 0 187.5 177t72.5 509h-514q0 -339 69.5 -512.5t184.5 -173.5z" />
    <glyph glyph-name="Aringacute" unicode="&#x1fa;" horiz-adv-x="788" 
d="M55 0l301 1378q-50 10 -79 48t-29 87q0 57 40.5 98.5t104.5 41.5t105 -41.5t41 -98.5q0 -48 -29 -85.5t-78 -49.5l301 -1378h-49l-94 434h-395l-93 -434h-47zM205 475h377l-189 879zM393 1403q52 0 83.5 32t31.5 78t-31.5 78.5t-83.5 32.5t-83 -32.5t-31 -78.5t31 -78
t83 -32zM381 1700l117 162l45 -23l-142 -139h-20z" />
    <glyph glyph-name="aringacute" unicode="&#x1fb;" horiz-adv-x="673" 
d="M334 1559l117 161l45 -22l-142 -139h-20zM293 -14q-111 0 -173.5 86t-62.5 239v6q0 159 71.5 249.5t209.5 90.5q107 0 194 -53v176q0 122 -58 189t-167 67q-93 0 -188 -53v47q96 47 190 47q122 0 191 -69q75 -75 75 -220v-788h-43v193q-31 -89 -91.5 -148t-147.5 -59z
M297 27q96 0 165.5 101.5t69.5 227.5v203q-93 57 -196 57q-119 0 -176.5 -78.5t-57.5 -220.5v-6q0 -132 50 -208t145 -76zM346 1200q-62 0 -101.5 42t-39.5 104t39.5 103.5t101.5 41.5t101.5 -41.5t39.5 -103.5t-39.5 -104t-101.5 -42zM346 1227q50 0 81.5 33.5t31.5 85.5
t-31.5 85t-81.5 33t-81.5 -33t-31.5 -85t31.5 -85.5t81.5 -33.5z" />
    <glyph glyph-name="AEacute" unicode="&#x1fc;" horiz-adv-x="1007" 
d="M6 0l420 1434h518v-41h-418v-650h383v-41h-383v-661h424v-41h-469v434h-303l-125 -434h-47zM190 475h291v916h-24zM549 1516l127 202l45 -22l-152 -180h-20z" />
    <glyph glyph-name="aeacute" unicode="&#x1fd;" horiz-adv-x="1144" 
d="M293 -14q-111 0 -173.5 86t-62.5 239v6q0 159 71.5 249.5t209.5 90.5q107 0 194 -53v176q0 122 -58 189t-167 67q-93 0 -188 -53v47q96 47 190 47q112 0 182 -63.5t82 -182.5q37 120 102 185t140 65q116 0 192 -139.5t76 -382.5v-41h-508q0 -231 83.5 -361t205.5 -130
q98 0 189 63l6 -45q-100 -59 -197 -59q-96 0 -174.5 69.5t-118.5 200.5q-38 -123 -109.5 -196.5t-166.5 -73.5zM575 557h463q0 136 -27.5 246t-79 173.5t-116.5 63.5q-100 0 -168 -130.5t-72 -352.5zM297 27q167 0 256 292q-21 100 -21 240q-93 57 -196 57
q-119 0 -176.5 -78.5t-57.5 -220.5v-6q0 -132 50 -208t145 -76zM555 1180l137 241l45 -22l-162 -219h-20z" />
    <glyph glyph-name="Oslashacute" unicode="&#x1fe;" horiz-adv-x="811" 
d="M684 1450h41l-80 -197q90 -201 90 -524v-24q0 -341 -92 -530t-237 -189q-132 0 -218 147l-61 -149h-41l80 194q-90 194 -90 527v24q0 341 92.5 530t237.5 189q128 0 217 -150zM121 729v-24q0 -288 67 -467l414 1005q-77 164 -196 164q-124 0 -204.5 -181.5t-80.5 -496.5z
M406 27q123 0 203.5 181.5t80.5 496.5v24q0 286 -67 465l-414 -1006q75 -161 197 -161zM393 1526l127 203l45 -23l-151 -180h-21z" />
    <glyph glyph-name="oslashacute" unicode="&#x1ff;" horiz-adv-x="724" 
d="M598 1079h41l-68 -143q88 -154 88 -395v-15q0 -244 -86 -392t-211 -148q-111 0 -186 106l-49 -104h-41l68 143q-88 147 -88 395v15q0 244 85.5 392t210.5 148q105 0 185 -108zM111 541v-15q0 -204 65 -344l352 742q-74 116 -166 116q-107 0 -179 -141.5t-72 -357.5z
M362 27q107 0 179.5 141.5t72.5 357.5v15q0 204 -65 344l-352 -742q67 -116 165 -116zM350 1190l137 242l45 -23l-161 -219h-21z" />
    <glyph glyph-name="Scommaaccent" unicode="&#x218;" horiz-adv-x="638" 
d="M293 -14q-128 0 -234 75v52q121 -86 232 -86q106 0 172.5 68t66.5 177v4q0 106 -56.5 211t-170.5 250q-78 99 -118.5 157t-72.5 133t-32 142v5q0 119 78 196.5t198 77.5q105 0 191 -59v-52q-94 70 -195 70q-98 0 -162.5 -65.5t-64.5 -163.5v-4q0 -91 51 -180.5
t166 -231.5q117 -146 175 -257.5t58 -223.5v-5q0 -128 -79 -209t-203 -81zM270 -358l-14 26q26 14 37 35t10 61h-22v103h57v-109q0 -47 -17 -71.5t-51 -44.5z" />
    <glyph glyph-name="scommaaccent" unicode="&#x219;" horiz-adv-x="552" 
d="M258 -10q-96 0 -207 51v49q109 -59 207 -59q92 0 147.5 51t55.5 141v2q0 69 -46 137.5t-151 167.5q-115 110 -161 180t-46 146v2q0 99 70 160t168 61q83 0 164 -37v-49q-80 45 -164 45t-138.5 -48t-54.5 -132v-2q0 -66 42 -127.5t151 -165.5q111 -105 161 -182t50 -156
v-2q0 -104 -71.5 -168.5t-176.5 -64.5zM252 -358l-14 26q26 14 37 35t10 61h-23v103h57v-109q0 -47 -16.5 -71.5t-50.5 -44.5z" />
    <glyph glyph-name="schwa" unicode="&#x259;" horiz-adv-x="686" 
d="M287 1081q66 0 125.5 -35.5t106.5 -101t74.5 -169.5t27.5 -232v-8q0 -258 -86 -403.5t-201 -145.5q-117 0 -195 140t-78 382v41h514q0 231 -84.5 361t-205.5 130q-102 0 -193 -63l-6 45q100 59 201 59zM575 510h-469q0 -207 64.5 -345t163.5 -138q97 0 167 131.5
t74 351.5z" />
    <glyph glyph-name="circumflex" unicode="&#x2c6;" 
d="M356 1190l142 250h28l142 -250h-31l-125 201l-125 -201h-31z" />
    <glyph glyph-name="caron" unicode="&#x2c7;" 
d="M668 1440l-142 -250h-28l-142 250h31l125 -201l125 201h31z" />
    <glyph glyph-name="breve" unicode="&#x2d8;" 
d="M512 1186q-82 0 -130 51t-60 141h36q9 -67 46 -111t108 -44q127 0 154 155h36q-12 -90 -60 -141t-130 -51z" />
    <glyph glyph-name="dotaccent" unicode="&#x2d9;" 
d="M483 1200v76h54v-76h-54z" />
    <glyph glyph-name="ring" unicode="&#x2da;" 
d="M512 1200q-62 0 -101.5 42t-39.5 104t39.5 103.5t101.5 41.5t101.5 -41.5t39.5 -103.5t-39.5 -104t-101.5 -42zM512 1227q50 0 81.5 33.5t31.5 85.5t-31.5 85t-81.5 33t-81.5 -33t-31.5 -85t31.5 -85.5t81.5 -33.5z" />
    <glyph glyph-name="ogonek" unicode="&#x2db;" 
d="M580 -190v-31q-16 -2 -35 -2q-101 0 -101 76q0 59 84 155h25q-68 -99 -68 -147q0 -28 19 -40t76 -11z" />
    <glyph glyph-name="tilde" unicode="&#x2dc;" 
d="M594 1202q-35 0 -86 51q-33 33 -48.5 44.5t-31.5 11.5q-45 0 -72 -109l-32 8q34 138 106 138q24 0 42.5 -13.5t51.5 -46.5q47 -47 72 -47q45 0 72 109l32 -9q-33 -137 -106 -137z" />
    <glyph glyph-name="hungarumlaut" unicode="&#x2dd;" 
d="M489 1180l136 243l45 -24l-160 -219h-21zM338 1180l135 243l45 -24l-160 -219h-20z" />
    <glyph glyph-name="commaaccent" unicode="&#x326;" 
d="M481 -358l-14 26q26 14 37 35t10 61h-22v103h57v-109q0 -47 -17 -71.5t-51 -44.5z" />
    <glyph glyph-name="uni0384" unicode="&#x384;" 
d="M436 1180l107 245l43 -20l-129 -225h-21z" />
    <glyph glyph-name="uni0385" unicode="&#x385;" 
d="M575 1200v76h54v-76h-54zM395 1200v76h54v-76h-54zM487 1200l54 254l43 -12l-76 -242h-21z" />
    <glyph glyph-name="uni0386" unicode="&#x386;" horiz-adv-x="786" 
d="M55 0l316 1444h45l315 -1444h-47l-94 434h-395l-93 -434h-47zM205 475h377l-189 879zM106 1135l17 299h49l-41 -299h-25z" />
    <glyph glyph-name="uni0387" unicode="&#x387;" horiz-adv-x="200" 
d="M72 965v102h57v-102h-57z" />
    <glyph glyph-name="uni0388" unicode="&#x388;" horiz-adv-x="641" 
d="M115 0v1434h463v-41h-418v-650h383v-41h-383v-661h424v-41h-469zM-68 1135l17 299h49l-41 -299h-25z" />
    <glyph glyph-name="uni0389" unicode="&#x389;" horiz-adv-x="827" 
d="M115 0v1434h45v-691h508v691h45v-1434h-45v702h-508v-702h-45zM-68 1135l17 299h49l-41 -299h-25z" />
    <glyph glyph-name="uni038A" unicode="&#x38a;" horiz-adv-x="294" 
d="M125 0v1434h45v-1434h-45zM-53 1135l16 299h49l-41 -299h-24z" />
    <glyph glyph-name="uni038C" unicode="&#x38c;" horiz-adv-x="811" 
d="M406 -14q-145 0 -237.5 189t-92.5 530v24q0 341 92.5 530t237.5 189t237 -189t92 -530v-24q0 -341 -92 -530t-237 -189zM406 27q123 0 203.5 181.5t80.5 496.5v24q0 315 -80.5 496.5t-203.5 181.5q-124 0 -204.5 -181.5t-80.5 -496.5v-24q0 -315 80.5 -496.5
t204.5 -181.5zM-20 1135l16 299h49l-41 -299h-24z" />
    <glyph glyph-name="uni038E" unicode="&#x38e;" horiz-adv-x="675" 
d="M315 0v618l-299 816h50l272 -758l272 758h49l-299 -816v-618h-45zM-145 1135l16 299h49l-41 -299h-24z" />
    <glyph glyph-name="uni038F" unicode="&#x38f;" horiz-adv-x="839" 
d="M420 1450q161 0 247.5 -143.5t86.5 -413.5v-8q0 -380 -234 -844h244v-41h-289v35q105 208 169.5 429.5t64.5 420.5v8q0 253 -74 384.5t-215 131.5t-215 -131.5t-74 -384.5v-8q0 -199 64.5 -420.5t169.5 -429.5v-35h-289v41h241q-231 459 -231 844v8q0 270 86.5 413.5
t247.5 143.5zM-27 1135l17 299h49l-41 -299h-25z" />
    <glyph glyph-name="uni0390" unicode="&#x390;" horiz-adv-x="315" 
d="M104 176v891h43v-877q0 -85 21.5 -120t69.5 -35q29 0 61 14v-41q-32 -14 -66 -14q-129 0 -129 182zM193 1200v76h53v-76h-53zM12 1200v76h54v-76h-54zM104 1200l54 254l43 -12l-76 -242h-21z" />
    <glyph glyph-name="uni0391" unicode="&#x391;" horiz-adv-x="786" 
d="M55 0l316 1444h45l315 -1444h-47l-94 434h-395l-93 -434h-47zM205 475h377l-189 879z" />
    <glyph glyph-name="uni0392" unicode="&#x392;" horiz-adv-x="737" 
d="M115 0v1434h133q204 0 309 -105q96 -96 96 -256v-4q0 -132 -76.5 -224t-205.5 -122q145 -29 223 -123t78 -227v-4q0 -165 -108.5 -267t-327.5 -102h-121zM608 1069v4q0 155 -89.5 237.5t-272.5 82.5h-86v-650h82q178 0 272 91.5t94 234.5zM627 369v4q0 69 -23 127.5
t-68 104t-118.5 71.5t-167.5 26h-90v-661h73q201 0 297.5 85.5t96.5 242.5z" />
    <glyph glyph-name="uni0393" unicode="&#x393;" horiz-adv-x="555" 
d="M115 0v1434h426v-41h-381v-1393h-45z" />
    <glyph glyph-name="uni0394" unicode="&#x394;" horiz-adv-x="794" 
d="M68 0l-9 33l316 1411h45l315 -1413l-8 -31h-659zM106 41h580l-289 1313z" />
    <glyph glyph-name="uni0395" unicode="&#x395;" horiz-adv-x="641" 
d="M115 0v1434h463v-41h-418v-650h383v-41h-383v-661h424v-41h-469z" />
    <glyph glyph-name="uni0396" unicode="&#x396;" horiz-adv-x="647" 
d="M61 0v33l480 1360h-457v41h506v-33l-479 -1360h479v-41h-529z" />
    <glyph glyph-name="uni0397" unicode="&#x397;" horiz-adv-x="827" 
d="M115 0v1434h45v-691h508v691h45v-1434h-45v702h-508v-702h-45z" />
    <glyph glyph-name="uni0398" unicode="&#x398;" horiz-adv-x="811" 
d="M406 -14q-145 0 -237.5 189t-92.5 530v24q0 341 92.5 530t237.5 189t237 -189t92 -530v-24q0 -341 -92 -530t-237 -189zM406 27q123 0 203.5 181.5t80.5 496.5v24q0 315 -80.5 496.5t-203.5 181.5q-124 0 -204.5 -181.5t-80.5 -496.5v-24q0 -315 80.5 -496.5
t204.5 -181.5zM565 743v-41h-319v41h319z" />
    <glyph glyph-name="uni0399" unicode="&#x399;" horiz-adv-x="294" 
d="M125 0v1434h45v-1434h-45z" />
    <glyph glyph-name="uni039A" unicode="&#x39a;" horiz-adv-x="679" 
d="M115 0v1434h45v-863l426 863h49l-332 -662l363 -772h-50l-337 723l-119 -238v-485h-45z" />
    <glyph glyph-name="uni039B" unicode="&#x39b;" horiz-adv-x="774" 
d="M410 1444l309 -1444h-47l-285 1350l-285 -1350h-47l310 1444h45z" />
    <glyph glyph-name="uni039C" unicode="&#x39c;" horiz-adv-x="937" 
d="M115 0v1434h51l303 -895l303 895h51v-1434h-43v1327l-307 -895h-8l-307 895v-1327h-43z" />
    <glyph glyph-name="uni039D" unicode="&#x39d;" horiz-adv-x="835" 
d="M115 0v1434h45l518 -1303v1303h43v-1434h-37l-526 1323v-1323h-43z" />
    <glyph glyph-name="uni039E" unicode="&#x39e;" horiz-adv-x="632" 
d="M571 1393h-510v41h510v-41zM543 702h-453v41h453v-41zM575 0h-518v41h518v-41z" />
    <glyph glyph-name="uni039F" unicode="&#x39f;" horiz-adv-x="811" 
d="M406 -14q-145 0 -237.5 189t-92.5 530v24q0 341 92.5 530t237.5 189t237 -189t92 -530v-24q0 -341 -92 -530t-237 -189zM406 27q123 0 203.5 181.5t80.5 496.5v24q0 315 -80.5 496.5t-203.5 181.5q-124 0 -204.5 -181.5t-80.5 -496.5v-24q0 -315 80.5 -496.5
t204.5 -181.5z" />
    <glyph glyph-name="uni03A0" unicode="&#x3a0;" horiz-adv-x="827" 
d="M115 0v1434h598v-1434h-45v1393h-508v-1393h-45z" />
    <glyph glyph-name="uni03A1" unicode="&#x3a1;" horiz-adv-x="700" 
d="M115 0v1434h137q185 0 296 -120.5t111 -316.5v-4q0 -199 -110.5 -321.5t-304.5 -122.5h-84v-549h-45zM160 590h84q167 0 268.5 108.5t101.5 292.5v4q0 182 -102.5 290t-263.5 108h-88v-803z" />
    <glyph glyph-name="uni03A3" unicode="&#x3a3;" horiz-adv-x="653" 
d="M412 717l-299 -676h483v-41h-535v35l301 682l-301 682v35h529v-41h-477z" />
    <glyph glyph-name="uni03A4" unicode="&#x3a4;" horiz-adv-x="573" 
d="M264 0v1393h-244v41h533v-41h-244v-1393h-45z" />
    <glyph glyph-name="uni03A5" unicode="&#x3a5;" horiz-adv-x="675" 
d="M315 0v618l-299 816h50l272 -758l272 758h49l-299 -816v-618h-45z" />
    <glyph glyph-name="uni03A6" unicode="&#x3a6;" horiz-adv-x="1130" 
d="M543 -16v170q-218 5 -350 156.5t-132 406.5v10q0 257 132 408.5t350 156.5v172h45v-172q217 -5 349 -156.5t132 -406.5v-8q0 -258 -131.5 -410t-349.5 -157v-170h-45zM106 727v-10q0 -237 119.5 -377t317.5 -145v1056q-198 -5 -317.5 -146.5t-119.5 -377.5zM1024 721v8
q0 237 -119.5 377t-316.5 145v-1056q197 5 316.5 147t119.5 379z" />
    <glyph glyph-name="uni03A7" unicode="&#x3a7;" horiz-adv-x="690" 
d="M590 1434h49l-270 -705l280 -729h-49l-256 682l-254 -682h-49l278 729l-268 705h49l244 -658z" />
    <glyph glyph-name="uni03A8" unicode="&#x3a8;" horiz-adv-x="1077" 
d="M979 1434v-650q0 -200 -104.5 -293t-313.5 -98v-393h-45v393q-209 5 -313.5 98t-104.5 293v650h45v-650q0 -184 92.5 -266t280.5 -84v1000h45v-1000q187 2 280 83.5t93 266.5v650h45z" />
    <glyph glyph-name="uni03A9" unicode="&#x3a9;" horiz-adv-x="839" 
d="M420 1450q161 0 247.5 -143.5t86.5 -413.5v-8q0 -380 -234 -844h244v-41h-289v35q105 208 169.5 429.5t64.5 420.5v8q0 253 -74 384.5t-215 131.5t-215 -131.5t-74 -384.5v-8q0 -199 64.5 -420.5t169.5 -429.5v-35h-289v41h241q-231 459 -231 844v8q0 270 86.5 413.5
t247.5 143.5z" />
    <glyph glyph-name="uni03AA" unicode="&#x3aa;" horiz-adv-x="294" 
d="M125 0v1434h45v-1434h-45zM203 1536v76h53v-76h-53zM43 1536v76h53v-76h-53z" />
    <glyph glyph-name="uni03AB" unicode="&#x3ab;" horiz-adv-x="675" 
d="M315 0v618l-299 816h50l272 -758l272 758h49l-299 -816v-618h-45zM393 1528v76h53v-76h-53zM233 1528v76h54v-76h-54z" />
    <glyph glyph-name="uni03AC" unicode="&#x3ac;" horiz-adv-x="808" 
d="M793 49v-41q-32 -14 -66 -14q-129 0 -129 182v90q-8 -35 -19 -68t-32 -73t-46.5 -69.5t-63.5 -49.5t-83 -20q-125 0 -205.5 153.5t-80.5 386.5v15q0 233 80.5 386.5t205.5 153.5q45 0 83 -20t63.5 -49.5t46.5 -69.5t32 -73t19 -68v266h43v-877q0 -85 21 -120t69 -35
q30 0 62 14zM356 27q104 0 174 146t70 353v15q0 207 -70 353t-174 146q-72 0 -128 -68t-85.5 -181.5t-29.5 -249.5v-15q0 -136 29.5 -249.5t85.5 -181.5t128 -68zM362 1190l107 246l43 -21l-129 -225h-21z" />
    <glyph glyph-name="uni03AD" unicode="&#x3ad;" horiz-adv-x="583" 
d="M446 520h-84q-111 0 -179 -69t-68 -185v-4q0 -108 58 -171.5t171 -63.5q100 0 188 49v-45q-86 -45 -188 -45q-137 0 -205.5 74.5t-68.5 197.5v8q0 104 51 173.5t143 99.5q-76 17 -130 83t-54 171v6q0 125 73.5 203.5t200.5 78.5q86 0 166 -41v-47q-83 47 -166 47
q-109 0 -169 -68t-60 -175v-4q0 -109 65.5 -171.5t171.5 -62.5h84v-39zM299 1190l107 246l43 -21l-130 -225h-20z" />
    <glyph glyph-name="uni03AE" unicode="&#x3ae;" horiz-adv-x="737" 
d="M152 0h-43v1067h43v-186q22 82 87 141t154 59q113 0 178.5 -90.5t65.5 -257.5v-999h-43v999q0 146 -53.5 226.5t-151.5 80.5q-95 0 -166 -89.5t-71 -225.5v-725zM346 1190l107 246l43 -21l-129 -225h-21z" />
    <glyph glyph-name="uni03AF" unicode="&#x3af;" horiz-adv-x="315" 
d="M104 176v891h43v-877q0 -85 21.5 -120t69.5 -35q29 0 61 14v-41q-32 -14 -66 -14q-129 0 -129 182zM104 1180l107 245l43 -20l-129 -225h-21z" />
    <glyph glyph-name="uni03B0" unicode="&#x3b0;" horiz-adv-x="729" 
d="M365 -14q-123 0 -194 81t-71 246v754h43v-754q0 -143 59 -214.5t163 -71.5q103 0 162 71.5t59 214.5v754h43v-754q0 -165 -70.5 -246t-193.5 -81zM430 1192v76h53v-76h-53zM250 1192v76h53v-76h-53zM342 1192l53 254l43 -12l-76 -242h-20z" />
    <glyph glyph-name="uni03B1" unicode="&#x3b1;" horiz-adv-x="808" 
d="M793 49v-41q-32 -14 -66 -14q-129 0 -129 182v90q-8 -35 -19 -68t-32 -73t-46.5 -69.5t-63.5 -49.5t-83 -20q-125 0 -205.5 153.5t-80.5 386.5v15q0 233 80.5 386.5t205.5 153.5q45 0 83 -20t63.5 -49.5t46.5 -69.5t32 -73t19 -68v266h43v-877q0 -85 21 -120t69 -35
q30 0 62 14zM356 27q104 0 174 146t70 353v15q0 207 -70 353t-174 146q-72 0 -128 -68t-85.5 -181.5t-29.5 -249.5v-15q0 -136 29.5 -249.5t85.5 -181.5t128 -68z" />
    <glyph glyph-name="uni03B2" unicode="&#x3b2;" horiz-adv-x="741" 
d="M424 -14q-99 0 -168 70.5t-104 209.5v-532h-43v1356q0 185 78.5 272.5t201.5 87.5q130 0 204.5 -87t74.5 -241v-8q0 -146 -84 -255.5t-199 -135.5q132 -24 213.5 -115t81.5 -260v-6q0 -161 -72 -258.5t-184 -97.5zM424 27q94 0 152.5 85t58.5 230v6q0 168 -90.5 259
t-265.5 91h-127v-186q0 -138 33 -248t95.5 -173.5t143.5 -63.5zM152 1090v-353h127q103 0 183.5 56t120.5 140.5t40 178.5v8q0 137 -63 213t-171 76q-115 0 -176 -82t-61 -237z" />
    <glyph glyph-name="uni03B3" unicode="&#x3b3;" horiz-adv-x="659" 
d="M352 -266h-43v272l-268 1061h43l246 -987l245 987h43l-266 -1053v-280z" />
    <glyph glyph-name="uni03B4" unicode="&#x3b4;" horiz-adv-x="731" 
d="M147 1417v31h457v-39h-401l192 -262q148 -205 206 -362.5t58 -331.5v-9q0 -218 -82.5 -338t-214.5 -120t-214 120t-82 338v11q0 191 73 352.5t219 322.5zM614 444v9q0 161 -50.5 309t-182.5 336q-141 -157 -205.5 -308t-64.5 -335v-11q0 -199 69 -308t182 -109t182.5 109
t69.5 308z" />
    <glyph glyph-name="uni03B5" unicode="&#x3b5;" horiz-adv-x="583" 
d="M446 520h-84q-111 0 -179 -69t-68 -185v-4q0 -108 58 -171.5t171 -63.5q100 0 188 49v-45q-86 -45 -188 -45q-137 0 -205.5 74.5t-68.5 197.5v8q0 104 51 173.5t143 99.5q-76 17 -130 83t-54 171v6q0 125 73.5 203.5t200.5 78.5q86 0 166 -41v-47q-83 47 -166 47
q-109 0 -169 -68t-60 -175v-4q0 -109 65.5 -171.5t171.5 -62.5h84v-39z" />
    <glyph glyph-name="uni03B6" unicode="&#x3b6;" horiz-adv-x="624" 
d="M571 31v-244h-43v211l-202 68q-148 48 -208.5 117t-60.5 177v5q0 70 28 152.5t118 258.5l323 633h-403v39h455v-31l-338 -661q-87 -167 -112.5 -245t-25.5 -146v-5q0 -92 52.5 -149t185.5 -102z" />
    <glyph glyph-name="uni03B7" unicode="&#x3b7;" horiz-adv-x="737" 
d="M152 0h-43v1067h43v-186q22 82 87 141t154 59q113 0 178.5 -90.5t65.5 -257.5v-999h-43v999q0 146 -53.5 226.5t-151.5 80.5q-95 0 -166 -89.5t-71 -225.5v-725z" />
    <glyph glyph-name="uni03B8" unicode="&#x3b8;" horiz-adv-x="761" 
d="M381 -14q-63 0 -115 40.5t-92.5 124.5t-63 225t-22.5 329v24q0 189 22.5 330.5t63 225.5t92.5 124.5t115 40.5t115 -40.5t92.5 -124.5t63 -225.5t22.5 -330.5v-24q0 -188 -22.5 -329t-63 -225t-92.5 -124.5t-115 -40.5zM381 27q54 0 98 38t79 116.5t54 211t19 309.5h-500
q0 -177 19 -309.5t54 -211t79 -116.5t98 -38zM381 1409q-112 0 -181 -165t-69 -503h500q0 337 -70 502.5t-180 165.5z" />
    <glyph glyph-name="uni03B9" unicode="&#x3b9;" horiz-adv-x="315" 
d="M104 176v891h43v-877q0 -85 21.5 -120t69.5 -35q29 0 61 14v-41q-32 -14 -66 -14q-129 0 -129 182z" />
    <glyph glyph-name="uni03BA" unicode="&#x3ba;" horiz-adv-x="628" 
d="M152 1067v-707l383 707h49l-248 -451l262 -616h-47l-242 567l-157 -282v-285h-43v1067h43z" />
    <glyph glyph-name="uni03BB" unicode="&#x3bb;" horiz-adv-x="659" 
d="M88 0h-43l274 1110l-30 131q-23 96 -53.5 132t-85.5 36q-39 0 -58 -8v41q19 8 62 8q67 0 109 -42.5t67 -152.5l293 -1255h-43l-240 1036z" />
    <glyph glyph-name="uni03BC" unicode="&#x3bc;" horiz-adv-x="804" 
d="M788 49v-41q-32 -14 -65 -14q-59 0 -92 35.5t-37 122.5q-64 -168 -221 -168q-79 0 -138.5 43.5t-87.5 132.5h-2q0 -47 2 -72q5 -107 5 -147v-207h-43v1333h43v-752q0 -137 62 -213.5t159 -76.5q100 0 160.5 77.5t60.5 212.5v752h43v-877q0 -85 21 -120t69 -35q29 0 61 14
z" />
    <glyph glyph-name="uni03BD" unicode="&#x3bd;" horiz-adv-x="659" 
d="M311 -6l-270 1073h43l246 -991l245 991h43l-270 -1073h-37z" />
    <glyph glyph-name="uni03BE" unicode="&#x3be;" horiz-adv-x="598" 
d="M541 1411v-45q-71 43 -162 43q-126 0 -193 -84t-67 -217v-4q0 -145 78.5 -228t199.5 -83h68v-39h-68q-124 0 -207.5 -85.5t-83.5 -238.5v-4q0 -134 67.5 -213t242.5 -139l129 -43v-244h-43v211l-101 33q-186 60 -263 152t-77 241v4q0 137 64 225.5t172 118.5
q-93 28 -158 112t-65 218v6q0 148 79.5 245t225.5 97q89 0 162 -39z" />
    <glyph glyph-name="uni03BF" unicode="&#x3bf;" horiz-adv-x="724" 
d="M362 -14q-125 0 -210.5 148t-85.5 392v15q0 244 85.5 392t210.5 148t211 -148t86 -392v-15q0 -244 -86 -392t-211 -148zM362 27q107 0 179.5 141.5t72.5 357.5v15q0 216 -72.5 357.5t-179.5 141.5t-179 -141.5t-72 -357.5v-15q0 -216 72 -357.5t179 -141.5z" />
    <glyph glyph-name="uni03C0" unicode="&#x3c0;" horiz-adv-x="829" 
d="M604 176v852h-401v-1028h-43v1028h-142v39h777v-39h-148v-838q0 -85 21 -120t69 -35q30 0 62 14v-41q-32 -14 -66 -14q-129 0 -129 182z" />
    <glyph glyph-name="uni03C1" unicode="&#x3c1;" horiz-adv-x="741" 
d="M100 -266v844q0 112 15 199.5t41 144t63 93t77.5 51.5t88.5 15q141 0 215 -138t74 -402v-15q0 -233 -81 -386.5t-206 -153.5q-45 0 -83 20t-63.5 49.5t-46.5 69.5t-32 73t-19 68v-532h-43zM385 27q72 0 128 68t86 181.5t30 249.5v15q0 238 -60 368.5t-184 130.5
q-240 0 -240 -462v-52q0 -135 30 -249t85.5 -182t124.5 -68z" />
    <glyph glyph-name="uni03C2" unicode="&#x3c2;" horiz-adv-x="559" 
d="M463 -213v211l-109 61q-158 89 -223 218.5t-65 310.5v10q0 126 27.5 222.5t74 151.5t101.5 82t116 27q67 0 121 -28v-49q-48 36 -121 36q-117 0 -195.5 -111t-78.5 -331v-10q0 -167 59 -285.5t207 -204.5l129 -73v-238h-43z" />
    <glyph glyph-name="uni03C3" unicode="&#x3c3;" horiz-adv-x="724" 
d="M362 -14q-125 0 -210.5 146.5t-85.5 387.5v12q0 243 87 389t220 146h332v-39h-232q83 -53 134.5 -179t51.5 -317v-12q0 -241 -86 -387.5t-211 -146.5zM362 27q107 0 179.5 140t72.5 353v12q0 215 -71 354.5t-181 139.5q-107 0 -179 -140t-72 -354v-12q0 -214 72 -353.5
t179 -139.5z" />
    <glyph glyph-name="uni03C4" unicode="&#x3c4;" horiz-adv-x="544" 
d="M520 1028h-233v-835q0 -89 32.5 -124.5t94.5 -35.5q40 0 84 14v-41q-38 -14 -86 -14q-81 0 -124.5 46t-43.5 155v835h-228v39h504v-39z" />
    <glyph glyph-name="uni03C5" unicode="&#x3c5;" horiz-adv-x="729" 
d="M365 -14q-123 0 -194 81t-71 246v754h43v-754q0 -143 59 -214.5t163 -71.5q103 0 162 71.5t59 214.5v754h43v-754q0 -165 -70.5 -246t-193.5 -81z" />
    <glyph glyph-name="uni03C6" unicode="&#x3c6;" horiz-adv-x="1009" 
d="M526 -266h-43v260q-189 5 -303 150t-114 384v11q0 240 113.5 383t303.5 151v375h43v-375q191 -8 304.5 -150.5t113.5 -383.5v-11q0 -239 -114.5 -384t-303.5 -150v-260zM899 528v11q0 221 -100 353.5t-273 139.5v-997q172 4 272.5 138t100.5 355zM111 539v-11
q0 -221 100.5 -355t271.5 -138v997q-174 -7 -273 -139t-99 -354z" />
    <glyph glyph-name="uni03C7" unicode="&#x3c7;" horiz-adv-x="661" 
d="M100 1067l230 -586l231 586h45l-252 -631l291 -702h-45l-270 659l-269 -659h-45l291 702l-252 631h45z" />
    <glyph glyph-name="uni03C8" unicode="&#x3c8;" horiz-adv-x="1046" 
d="M545 -266h-43v266q-186 0 -294 98.5t-108 300.5v668h43v-666q0 -184 96.5 -272t262.5 -88v1407h43v-1407q164 0 261 88t97 272v666h43v-668q0 -201 -109.5 -300t-291.5 -99v-266z" />
    <glyph glyph-name="uni03C9" unicode="&#x3c9;" horiz-adv-x="1140" 
d="M549 868h43v-342q0 -240 57 -368.5t162 -128.5q97 0 150 107.5t53 287.5v2q0 160 -38.5 308t-121.5 333h49q79 -189 117.5 -333t38.5 -310v-2q0 -193 -64.5 -313.5t-183.5 -120.5q-102 0 -162 94t-80 262q-18 -168 -77.5 -262t-161.5 -94q-120 0 -184 119.5t-64 316.5v2
q0 168 38.5 317t117.5 324h47q-85 -185 -121.5 -329t-36.5 -314v-2q0 -177 53.5 -285t149.5 -108q105 0 162 128.5t57 368.5v342z" />
    <glyph glyph-name="uni03CA" unicode="&#x3ca;" horiz-adv-x="315" 
d="M104 176v891h43v-877q0 -85 21.5 -120t69.5 -35q29 0 61 14v-41q-32 -14 -66 -14q-129 0 -129 182zM182 1200v76h54v-76h-54zM23 1200v76h53v-76h-53z" />
    <glyph glyph-name="uni03CB" unicode="&#x3cb;" horiz-adv-x="729" 
d="M365 -14q-123 0 -194 81t-71 246v754h43v-754q0 -143 59 -214.5t163 -71.5q103 0 162 71.5t59 214.5v754h43v-754q0 -165 -70.5 -246t-193.5 -81zM420 1192v76h53v-76h-53zM260 1192v76h53v-76h-53z" />
    <glyph glyph-name="uni03CC" unicode="&#x3cc;" horiz-adv-x="724" 
d="M362 -14q-125 0 -210.5 148t-85.5 392v15q0 244 85.5 392t210.5 148t211 -148t86 -392v-15q0 -244 -86 -392t-211 -148zM362 27q107 0 179.5 141.5t72.5 357.5v15q0 216 -72.5 357.5t-179.5 141.5t-179 -141.5t-72 -357.5v-15q0 -216 72 -357.5t179 -141.5zM340 1190
l106 246l43 -21l-129 -225h-20z" />
    <glyph glyph-name="uni03CD" unicode="&#x3cd;" horiz-adv-x="729" 
d="M365 -14q-123 0 -194 81t-71 246v754h43v-754q0 -143 59 -214.5t163 -71.5q103 0 162 71.5t59 214.5v754h43v-754q0 -165 -70.5 -246t-193.5 -81zM342 1171l107 246l43 -20l-130 -226h-20z" />
    <glyph glyph-name="uni03CE" unicode="&#x3ce;" horiz-adv-x="1140" 
d="M549 868h43v-342q0 -240 57 -368.5t162 -128.5q97 0 150 107.5t53 287.5v2q0 160 -38.5 308t-121.5 333h49q79 -189 117.5 -333t38.5 -310v-2q0 -193 -64.5 -313.5t-183.5 -120.5q-102 0 -162 94t-80 262q-18 -168 -77.5 -262t-161.5 -94q-120 0 -184 119.5t-64 316.5v2
q0 168 38.5 317t117.5 324h47q-85 -185 -121.5 -329t-36.5 -314v-2q0 -177 53.5 -285t149.5 -108q105 0 162 128.5t57 368.5v342zM545 1171l106 246l43 -20l-129 -226h-20z" />
    <glyph glyph-name="uni0400" unicode="&#x400;" horiz-adv-x="641" 
d="M115 0v1434h463v-41h-418v-650h383v-41h-383v-661h424v-41h-469zM365 1516h-21l-151 180l45 22z" />
    <glyph glyph-name="uni0401" unicode="&#x401;" horiz-adv-x="641" 
d="M115 0v1434h463v-41h-418v-650h383v-41h-383v-661h424v-41h-469zM403 1536v76h54v-76h-54zM244 1536v76h53v-76h-53z" />
    <glyph glyph-name="uni0402" unicode="&#x402;" horiz-adv-x="872" 
d="M551 1434v-41h-248v-574q114 31 199 31q167 0 244 -100.5t77 -327.5v-8q0 -103 -17 -178.5t-44.5 -121t-70.5 -72.5t-88 -36.5t-103 -9.5h-11v41h7q53 0 91.5 7.5t76.5 30.5t61.5 63.5t38 110t14.5 165.5v8q0 210 -64 298.5t-212 88.5q-97 0 -199 -31v-778h-45v1393h-238
v41h531z" />
    <glyph glyph-name="uni0403" unicode="&#x403;" horiz-adv-x="555" 
d="M115 0v1434h426v-41h-381v-1393h-45zM289 1516l127 202l45 -22l-152 -180h-20z" />
    <glyph glyph-name="uni0404" unicode="&#x404;" horiz-adv-x="673" 
d="M459 -14q-176 0 -279.5 183t-103.5 536v24q0 351 108 535t283 184q72 0 139 -33v-49q-68 41 -139 41q-152 0 -249 -172t-97 -492h409v-41h-409q0 -332 94 -503.5t244 -171.5q75 0 153 45v-47q-66 -39 -153 -39z" />
    <glyph glyph-name="uni0405" unicode="&#x405;" horiz-adv-x="638" 
d="M293 -14q-128 0 -234 75v52q121 -86 232 -86q106 0 172.5 68t66.5 177v4q0 106 -56.5 211t-170.5 250q-78 99 -118.5 157t-72.5 133t-32 142v5q0 119 78 196.5t198 77.5q105 0 191 -59v-52q-94 70 -195 70q-98 0 -162.5 -65.5t-64.5 -163.5v-4q0 -91 51 -180.5
t166 -231.5q117 -146 175 -257.5t58 -223.5v-5q0 -128 -79 -209t-203 -81z" />
    <glyph glyph-name="uni0406" unicode="&#x406;" horiz-adv-x="294" 
d="M125 0v1434h45v-1434h-45z" />
    <glyph glyph-name="uni0407" unicode="&#x407;" horiz-adv-x="294" 
d="M125 0v1434h45v-1434h-45zM203 1536v76h53v-76h-53zM43 1536v76h53v-76h-53z" />
    <glyph glyph-name="uni0408" unicode="&#x408;" horiz-adv-x="434" 
d="M133 -10q-52 0 -108 18v43q61 -18 106 -18q152 0 152 186v1215h45v-1215q0 -120 -60 -180q-49 -49 -135 -49z" />
    <glyph glyph-name="uni0409" unicode="&#x409;" horiz-adv-x="1054" 
d="M481 0v1391h-6l-422 -1391h-47l438 1434h82v-557h80q189 0 298.5 -118t109.5 -315v-4q0 -196 -111 -318t-305 -122h-117zM526 41h72q167 0 269 107.5t102 289.5v4q0 184 -99.5 289t-265.5 105h-78v-795z" />
    <glyph glyph-name="uni040A" unicode="&#x40a;" horiz-adv-x="1228" 
d="M655 0v702h-495v-702h-45v1434h45v-691h495v691h45v-557h80q189 0 298.5 -118t109.5 -315v-4q0 -196 -111 -318t-305 -122h-117zM700 41h72q167 0 269 107.5t102 289.5v4q0 184 -99.5 289t-265.5 105h-78v-795z" />
    <glyph glyph-name="uni040B" unicode="&#x40b;" horiz-adv-x="917" 
d="M551 1434v-41h-248v-578q113 35 236 35q154 0 219 -73t65 -230v-547h-45v545q0 139 -53.5 201.5t-189.5 62.5q-119 0 -232 -35v-774h-45v1393h-238v41h531z" />
    <glyph glyph-name="uni040C" unicode="&#x40c;" horiz-adv-x="679" 
d="M115 0v1434h45v-691h121l305 691h49l-316 -713l347 -721h-50l-335 702h-121v-702h-45zM336 1507l127 203l45 -22l-152 -181h-20z" />
    <glyph glyph-name="uni040D" unicode="&#x40d;" horiz-adv-x="835" 
d="M721 0h-45v1323l-524 -1323h-37v1434h45v-1303l516 1303h45v-1434zM434 1507h-20l-152 181l45 22z" />
    <glyph glyph-name="uni040E" unicode="&#x40e;" horiz-adv-x="669" 
d="M252 0h-47l129 455l-303 979h47l278 -914l254 914h47zM352 1513q-76 0 -127 40.5t-63 121.5h37q24 -125 153 -125q130 0 154 125h37q-11 -81 -63 -121.5t-128 -40.5z" />
    <glyph glyph-name="uni040F" unicode="&#x40f;" horiz-adv-x="827" 
d="M391 -229v229h-276v1434h45v-1393h508v1393h45v-1434h-277v-229h-45z" />
    <glyph glyph-name="uni0410" unicode="&#x410;" horiz-adv-x="786" 
d="M55 0l316 1444h45l315 -1444h-47l-94 434h-395l-93 -434h-47zM205 475h377l-189 879z" />
    <glyph glyph-name="uni0411" unicode="&#x411;" horiz-adv-x="716" 
d="M115 0v1434h503v-41h-458v-570h82q199 0 308 -105t109 -302v-4q0 -185 -108 -298.5t-305 -113.5h-131zM160 41h86q178 0 273 101.5t95 269.5v4q0 180 -94.5 273t-277.5 93h-82v-741z" />
    <glyph glyph-name="uni0412" unicode="&#x412;" horiz-adv-x="737" 
d="M115 0v1434h133q204 0 309 -105q96 -96 96 -256v-4q0 -132 -76.5 -224t-205.5 -122q145 -29 223 -123t78 -227v-4q0 -165 -108.5 -267t-327.5 -102h-121zM608 1069v4q0 155 -89.5 237.5t-272.5 82.5h-86v-650h82q178 0 272 91.5t94 234.5zM627 369v4q0 69 -23 127.5
t-68 104t-118.5 71.5t-167.5 26h-90v-661h73q201 0 297.5 85.5t96.5 242.5z" />
    <glyph glyph-name="uni0413" unicode="&#x413;" horiz-adv-x="555" 
d="M115 0v1434h426v-41h-381v-1393h-45z" />
    <glyph glyph-name="uni0414" unicode="&#x414;" horiz-adv-x="876" 
d="M16 41h97l299 1403h53l297 -1403h98v-270h-45v229h-754v-229h-45v270zM438 1366l-278 -1325h557z" />
    <glyph glyph-name="uni0415" unicode="&#x415;" horiz-adv-x="641" 
d="M115 0v1434h463v-41h-418v-650h383v-41h-383v-661h424v-41h-469z" />
    <glyph glyph-name="uni0416" unicode="&#x416;" horiz-adv-x="1071" 
d="M45 1434h49l275 -691h143v691h45v-691h141l277 691h49l-287 -713l318 -721h-49l-308 702h-141v-702h-45v702h-141l-308 -702h-49l318 721z" />
    <glyph glyph-name="uni0417" unicode="&#x417;" horiz-adv-x="651" 
d="M74 1348v45q90 57 202 57q137 0 217 -92t80 -252v-4q0 -140 -70 -241.5t-177 -135.5q123 -26 188.5 -117.5t65.5 -234.5v-2q0 -179 -87.5 -283t-240.5 -104q-117 0 -191 45v45q87 -49 191 -49q134 0 208.5 92.5t74.5 253.5v2q0 159 -78 244t-224 85h-71v41h71
q53 0 105 24t94.5 68t69 114t26.5 153v4q0 146 -67 224.5t-185 78.5q-100 0 -202 -61z" />
    <glyph glyph-name="uni0418" unicode="&#x418;" horiz-adv-x="835" 
d="M721 0h-45v1323l-524 -1323h-37v1434h45v-1303l516 1303h45v-1434z" />
    <glyph glyph-name="uni0419" unicode="&#x419;" horiz-adv-x="835" 
d="M721 0h-45v1323l-524 -1323h-37v1434h45v-1303l516 1303h45v-1434zM420 1513q-76 0 -128 40.5t-63 121.5h37q24 -125 154 -125q129 0 153 125h37q-12 -81 -63 -121.5t-127 -40.5z" />
    <glyph glyph-name="uni041A" unicode="&#x41a;" horiz-adv-x="679" 
d="M115 0v1434h45v-691h121l305 691h49l-316 -713l347 -721h-50l-335 702h-121v-702h-45z" />
    <glyph glyph-name="uni041B" unicode="&#x41b;" horiz-adv-x="774" 
d="M410 1444l309 -1444h-47l-285 1350l-285 -1350h-47l310 1444h45z" />
    <glyph glyph-name="uni041C" unicode="&#x41c;" horiz-adv-x="937" 
d="M115 0v1434h51l303 -895l303 895h51v-1434h-43v1327l-307 -895h-8l-307 895v-1327h-43z" />
    <glyph glyph-name="uni041D" unicode="&#x41d;" horiz-adv-x="827" 
d="M115 0v1434h45v-691h508v691h45v-1434h-45v702h-508v-702h-45z" />
    <glyph glyph-name="uni041E" unicode="&#x41e;" horiz-adv-x="811" 
d="M406 -14q-145 0 -237.5 189t-92.5 530v24q0 341 92.5 530t237.5 189t237 -189t92 -530v-24q0 -341 -92 -530t-237 -189zM406 27q123 0 203.5 181.5t80.5 496.5v24q0 315 -80.5 496.5t-203.5 181.5q-124 0 -204.5 -181.5t-80.5 -496.5v-24q0 -315 80.5 -496.5
t204.5 -181.5z" />
    <glyph glyph-name="uni041F" unicode="&#x41f;" horiz-adv-x="827" 
d="M115 0v1434h598v-1434h-45v1393h-508v-1393h-45z" />
    <glyph glyph-name="uni0420" unicode="&#x420;" horiz-adv-x="700" 
d="M115 0v1434h137q185 0 296 -120.5t111 -316.5v-4q0 -199 -110.5 -321.5t-304.5 -122.5h-84v-549h-45zM160 590h84q167 0 268.5 108.5t101.5 292.5v4q0 182 -102.5 290t-263.5 108h-88v-803z" />
    <glyph glyph-name="uni0421" unicode="&#x421;" horiz-adv-x="647" 
d="M442 -14q-157 0 -261.5 186t-104.5 533v24q0 176 30.5 316t82.5 226.5t117.5 131.5t139.5 45q78 0 134 -33v-49q-73 41 -134 41q-63 0 -121 -43t-104 -125t-73 -214t-27 -296v-24q0 -167 27 -299.5t73.5 -213.5t103.5 -123t121 -42q70 0 140 45v-47q-62 -39 -144 -39z
" />
    <glyph glyph-name="uni0422" unicode="&#x422;" horiz-adv-x="573" 
d="M264 0v1393h-244v41h533v-41h-244v-1393h-45z" />
    <glyph glyph-name="uni0423" unicode="&#x423;" horiz-adv-x="669" 
d="M252 0h-47l129 455l-303 979h47l278 -914l254 914h47z" />
    <glyph glyph-name="uni0424" unicode="&#x424;" horiz-adv-x="1130" 
d="M543 -16v170q-218 5 -350 156.5t-132 406.5v10q0 257 132 408.5t350 156.5v172h45v-172q217 -5 349 -156.5t132 -406.5v-8q0 -258 -131.5 -410t-349.5 -157v-170h-45zM106 727v-10q0 -237 119.5 -377t317.5 -145v1056q-198 -5 -317.5 -146.5t-119.5 -377.5zM1024 721v8
q0 237 -119.5 377t-316.5 145v-1056q197 5 316.5 147t119.5 379z" />
    <glyph glyph-name="uni0425" unicode="&#x425;" horiz-adv-x="690" 
d="M590 1434h49l-270 -705l280 -729h-49l-256 682l-254 -682h-49l278 729l-268 705h49l244 -658z" />
    <glyph glyph-name="uni0426" unicode="&#x426;" horiz-adv-x="841" 
d="M776 -229v229h-661v1434h45v-1393h508v1393h45v-1393h108v-270h-45z" />
    <glyph glyph-name="uni0427" unicode="&#x427;" horiz-adv-x="774" 
d="M614 0v616q-135 -32 -235 -32q-154 0 -219.5 73.5t-65.5 229.5v547h45v-545q0 -139 54 -201.5t190 -62.5q99 0 231 32v777h45v-1434h-45z" />
    <glyph glyph-name="uni0428" unicode="&#x428;" horiz-adv-x="1306" 
d="M115 0v1434h45v-1393h471v1393h45v-1393h471v1393h45v-1434h-1077z" />
    <glyph glyph-name="uni0429" unicode="&#x429;" horiz-adv-x="1320" 
d="M115 0v1434h45v-1393h471v1393h45v-1393h471v1393h45v-1393h108v-270h-45v229h-1140z" />
    <glyph glyph-name="uni042A" unicode="&#x42a;" horiz-adv-x="845" 
d="M260 0v1393h-240v41h285v-557h92q189 0 298.5 -118t109.5 -315v-4q0 -196 -111 -318t-305 -122h-129zM305 41h84q167 0 269 107.5t102 289.5v4q0 184 -99.5 289t-265.5 105h-90v-795z" />
    <glyph glyph-name="uni042B" unicode="&#x42b;" horiz-adv-x="970" 
d="M115 0v1434h45v-557h92q189 0 298 -118t109 -315v-4q0 -196 -110.5 -318t-304.5 -122h-129zM160 41h84q167 0 268.5 107.5t101.5 289.5v4q0 184 -99 289t-265 105h-90v-795zM811 0v1434h45v-1434h-45z" />
    <glyph glyph-name="uni042C" unicode="&#x42c;" horiz-adv-x="700" 
d="M115 0v1434h45v-557h92q189 0 298 -118t109 -315v-4q0 -196 -110.5 -318t-304.5 -122h-129zM160 41h84q167 0 268.5 107.5t101.5 289.5v4q0 184 -99 289t-265 105h-90v-795z" />
    <glyph glyph-name="uni042D" unicode="&#x42d;" horiz-adv-x="673" 
d="M143 702v41h410q-4 328 -94.5 496t-237.5 168q-75 0 -153 -45v47q66 39 153 39q173 0 275 -183t102 -536v-24q0 -351 -108.5 -535t-284.5 -184q-84 0 -144 32v50q71 -41 144 -41q156 0 252 173.5t96 501.5h-410z" />
    <glyph glyph-name="uni042E" unicode="&#x42e;" horiz-adv-x="1101" 
d="M115 0v1434h45v-691h227q0 331 91 518t229 187q140 0 229.5 -189t89.5 -530v-24q0 -341 -89.5 -530t-229.5 -189q-141 0 -230.5 188t-89.5 528h-227v-702h-45zM707 27q119 0 196.5 181.5t77.5 496.5v24q0 315 -77.5 496.5t-196.5 181.5t-197 -181.5t-78 -496.5v-24
q0 -315 78 -496.5t197 -181.5z" />
    <glyph glyph-name="uni042F" unicode="&#x42f;" horiz-adv-x="745" 
d="M631 1434v-1434h-45v598h-109q-43 0 -84 6l-295 -604h-49l303 612q-132 36 -205.5 139.5t-72.5 256.5v4q0 191 115.5 306.5t314.5 115.5h127zM586 1393h-80q-186 0 -286.5 -102.5t-100.5 -278.5v-4q0 -177 95 -273t267 -96h105v754z" />
    <glyph glyph-name="uni0430" unicode="&#x430;" horiz-adv-x="673" 
d="M293 -14q-111 0 -173.5 86t-62.5 239v6q0 159 71.5 249.5t209.5 90.5q107 0 194 -53v176q0 122 -58 189t-167 67q-93 0 -188 -53v47q96 47 190 47q122 0 191 -69q75 -75 75 -220v-788h-43v193q-31 -89 -91.5 -148t-147.5 -59zM297 27q96 0 165.5 101.5t69.5 227.5v203
q-93 57 -196 57q-119 0 -176.5 -78.5t-57.5 -220.5v-6q0 -132 50 -208t145 -76z" />
    <glyph glyph-name="uni0431" unicode="&#x431;" horiz-adv-x="727" 
d="M365 -14q-95 0 -158 63q-67 67 -98 184.5t-31 313.5v4q0 108 2 186t6.5 158t14 136t23.5 111.5t35.5 92.5t49.5 71t66 56t84.5 38.5t105.5 26.5l162 27v-43l-154 -25q-52 -8 -93.5 -22t-74.5 -32t-58.5 -46t-44.5 -57t-33 -72.5t-23 -85.5t-15 -102.5t-9.5 -116.5
t-6.5 -135q31 146 103.5 217.5t168.5 71.5q129 0 202 -130.5t73 -349.5v-22q0 -238 -78 -378t-219 -140zM367 27q121 0 185 128t64 347v24q0 196 -60.5 317.5t-170.5 121.5q-119 0 -190.5 -124.5t-71.5 -314.5v-28q0 -226 62 -348.5t182 -122.5z" />
    <glyph glyph-name="uni0432" unicode="&#x432;" horiz-adv-x="681" 
d="M109 0v1067h139q164 0 257 -66.5t93 -193.5v-2q0 -107 -69 -177t-164 -89q114 -19 182.5 -85t68.5 -167v-4q0 -138 -101.5 -210.5t-289.5 -72.5h-116zM152 557h102q139 0 219 67.5t80 178.5v4q0 110 -79.5 165.5t-225.5 55.5h-96v-471zM152 518v-479h73q168 0 257 61
t89 183v4q0 108 -84.5 169.5t-232.5 61.5h-102z" />
    <glyph glyph-name="uni0433" unicode="&#x433;" horiz-adv-x="507" 
d="M109 0v1067h389v-39h-346v-1028h-43z" />
    <glyph glyph-name="uni0434" unicode="&#x434;" horiz-adv-x="798" 
d="M424 1073l268 -1034h94v-252h-43v213h-688v-213h-43v252h94l269 1034h49zM399 1010l-249 -971h499z" />
    <glyph glyph-name="uni0435" unicode="&#x435;" horiz-adv-x="686" 
d="M399 -14q-139 0 -236 143t-97 395v8q0 258 85.5 403.5t200.5 145.5q117 0 195 -140t78 -382v-41h-514q0 -231 84.5 -361t205.5 -130q102 0 193 63l6 -45q-100 -59 -201 -59zM111 557h469q0 207 -64.5 345t-163.5 138q-97 0 -167 -131.5t-74 -351.5z" />
    <glyph glyph-name="uni0436" unicode="&#x436;" horiz-adv-x="993" 
d="M518 1067v-512h146l227 512h47l-238 -532l256 -535h-47l-243 516h-148v-516h-43v516h-147l-244 -516h-47l254 535l-236 532h47l226 -512h147v512h43z" />
    <glyph glyph-name="uni0437" unicode="&#x437;" horiz-adv-x="583" 
d="M51 25v49q89 -47 182 -47q111 0 173.5 63t62.5 178v6q0 120 -70.5 183t-191.5 63h-70v39h70q107 0 179.5 71.5t72.5 186.5v4q0 100 -53.5 159.5t-151.5 59.5q-103 0 -191 -53v47q77 47 191 47q120 0 185 -70.5t65 -189.5v-6q0 -110 -61.5 -181t-141.5 -91
q95 -22 154 -88.5t59 -178.5v-8q0 -128 -76.5 -205t-206.5 -77q-101 0 -180 39z" />
    <glyph glyph-name="uni0438" unicode="&#x438;" horiz-adv-x="741" 
d="M109 0v1067h43v-965l442 965h39v-1067h-43v965l-443 -965h-38z" />
    <glyph glyph-name="uni0439" unicode="&#x439;" horiz-adv-x="741" 
d="M109 0v1067h43v-965l442 965h39v-1067h-43v965l-443 -965h-38zM373 1178q-82 0 -130.5 51t-60.5 141h37q9 -67 46 -111.5t108 -44.5q126 0 153 156h37q-12 -90 -60 -141t-130 -51z" />
    <glyph glyph-name="uni043A" unicode="&#x43a;" horiz-adv-x="634" 
d="M152 1067v-512h149l236 512h47l-248 -535l266 -532h-47l-256 516h-147v-516h-43v1067h43z" />
    <glyph glyph-name="uni043B" unicode="&#x43b;" horiz-adv-x="671" 
d="M358 1073l273 -1073h-43l-252 1004l-252 -1004h-43l272 1073h45z" />
    <glyph glyph-name="uni043C" unicode="&#x43c;" horiz-adv-x="817" 
d="M109 0v1067h49l252 -690l247 690h52v-1067h-43v967l-254 -691h-6l-254 691v-967h-43z" />
    <glyph glyph-name="uni043D" unicode="&#x43d;" horiz-adv-x="741" 
d="M109 0v1067h43v-508h438v508h43v-1067h-43v520h-438v-520h-43z" />
    <glyph glyph-name="uni043E" unicode="&#x43e;" horiz-adv-x="724" 
d="M362 -14q-125 0 -210.5 148t-85.5 392v15q0 244 85.5 392t210.5 148t211 -148t86 -392v-15q0 -244 -86 -392t-211 -148zM362 27q107 0 179.5 141.5t72.5 357.5v15q0 216 -72.5 357.5t-179.5 141.5t-179 -141.5t-72 -357.5v-15q0 -216 72 -357.5t179 -141.5z" />
    <glyph glyph-name="uni043F" unicode="&#x43f;" horiz-adv-x="741" 
d="M109 0v1067h524v-1067h-43v1028h-438v-1028h-43z" />
    <glyph glyph-name="uni0440" unicode="&#x440;" horiz-adv-x="749" 
d="M109 -266v1333h43v-266q10 45 26.5 87t44.5 89t72.5 75.5t99.5 28.5q125 0 206 -153.5t81 -386.5v-15q0 -233 -81 -386.5t-206 -153.5q-55 0 -99.5 28.5t-72.5 75.5t-44.5 89t-26.5 87v-532h-43zM393 27q72 0 128 68t86 181.5t30 249.5v15q0 136 -30 249.5t-86 181.5
t-128 68q-104 0 -173.5 -146t-69.5 -353v-15q0 -207 69.5 -353t173.5 -146z" />
    <glyph glyph-name="uni0441" unicode="&#x441;" horiz-adv-x="559" 
d="M387 -14q-138 0 -229.5 139t-91.5 401v15q0 257 94 398.5t231 141.5q61 0 115 -28v-49q-48 36 -115 36q-121 0 -200.5 -131.5t-79.5 -367.5v-15q0 -239 79 -369t201 -130q66 0 117 39v-48q-46 -32 -121 -32z" />
    <glyph glyph-name="uni0442" unicode="&#x442;" horiz-adv-x="534" 
d="M246 0v1028h-230v39h502v-39h-229v-1028h-43z" />
    <glyph glyph-name="uni0443" unicode="&#x443;" horiz-adv-x="661" 
d="M330 100l250 967h43l-347 -1333h-43v2l76 289l-268 1042h43z" />
    <glyph glyph-name="uni0444" unicode="&#x444;" horiz-adv-x="1009" 
d="M526 -266h-43v260q-189 5 -303 150t-114 384v11q0 240 113.5 383t303.5 151v375h43v-375q191 -8 304.5 -150.5t113.5 -383.5v-11q0 -239 -114.5 -384t-303.5 -150v-260zM899 528v11q0 221 -100 353.5t-273 139.5v-997q172 4 272.5 138t100.5 355zM111 539v-11
q0 -221 100.5 -355t271.5 -138v997q-174 -7 -273 -139t-99 -354z" />
    <glyph glyph-name="uni0445" unicode="&#x445;" horiz-adv-x="622" 
d="M98 1067l213 -477l213 477h45l-235 -518l250 -549h-45l-228 508l-227 -508h-45l250 549l-236 518h45z" />
    <glyph glyph-name="uni0446" unicode="&#x446;" horiz-adv-x="753" 
d="M690 -213v213h-581v1067h43v-1028h438v1028h43v-1028h100v-252h-43z" />
    <glyph glyph-name="uni0447" unicode="&#x447;" horiz-adv-x="696" 
d="M545 0v459q-122 -27 -207 -27q-135 0 -192.5 59.5t-57.5 206.5v369h43v-369q0 -128 45.5 -176.5t163.5 -48.5q84 0 205 27v567h43v-1067h-43z" />
    <glyph glyph-name="uni0448" unicode="&#x448;" horiz-adv-x="1144" 
d="M109 0v1067h43v-1028h399v1028h43v-1028h399v1028h43v-1067h-927z" />
    <glyph glyph-name="uni0449" unicode="&#x449;" horiz-adv-x="1157" 
d="M109 0v1067h43v-1028h399v1028h43v-1028h399v1028h43v-1028h101v-252h-43v213h-985z" />
    <glyph glyph-name="uni044A" unicode="&#x44a;" horiz-adv-x="772" 
d="M236 0v1028h-220v39h263v-381h53q195 0 297 -87t102 -247v-4q0 -165 -107 -256.5t-294 -91.5h-94zM279 647v-608h51q168 0 263 79.5t95 229.5v4q0 142 -90.5 218.5t-265.5 76.5h-53z" />
    <glyph glyph-name="uni044B" unicode="&#x44b;" horiz-adv-x="909" 
d="M152 1067v-381h53q195 0 297 -87t102 -247v-4q0 -165 -107 -256.5t-294 -91.5h-94v1067h43zM152 647v-608h51q168 0 263 79.5t95 229.5v4q0 142 -90.5 218.5t-265.5 76.5h-53zM758 0v1067h43v-1067h-43z" />
    <glyph glyph-name="uni044C" unicode="&#x44c;" horiz-adv-x="645" 
d="M109 0v1067h43v-381h53q195 0 297 -87t102 -247v-4q0 -165 -107 -256.5t-294 -91.5h-94zM152 39h51q168 0 263 79.5t95 229.5v4q0 142 -90.5 218.5t-265.5 76.5h-53v-608z" />
    <glyph glyph-name="uni044D" unicode="&#x44d;" horiz-adv-x="587" 
d="M115 559h362q-4 231 -84.5 355t-204.5 124q-73 0 -137 -37v50q65 30 139 30q147 0 239.5 -138.5t92.5 -399.5v-15q0 -256 -96.5 -399t-243.5 -143q-73 0 -131 30v52q55 -39 129 -39q127 0 210 129t87 360h-362v41z" />
    <glyph glyph-name="uni044E" unicode="&#x44e;" horiz-adv-x="989" 
d="M152 520v-520h-43v1067h43v-508h192q4 235 86.5 378.5t202.5 143.5q124 0 207.5 -148t83.5 -392v-15q0 -244 -83.5 -392t-207.5 -148q-121 0 -205 147t-84 387h-192zM633 27q105 0 175.5 141t70.5 358v15q0 217 -70.5 358t-175.5 141t-174.5 -141t-69.5 -358v-15
q0 -217 69.5 -358t174.5 -141z" />
    <glyph glyph-name="uni044F" unicode="&#x44f;" horiz-adv-x="692" 
d="M98 0h-47l236 465q-102 30 -160 103t-57 177v3q0 150 102 234.5t266 84.5h146v-1067h-43v449h-119q-58 0 -94 8zM541 1028h-101q-148 0 -237.5 -71.5t-89.5 -208.5v-3q0 -122 84.5 -190t228.5 -68h115v541z" />
    <glyph glyph-name="uni0450" unicode="&#x450;" horiz-adv-x="686" 
d="M399 -14q-139 0 -236 143t-97 395v8q0 258 85.5 403.5t200.5 145.5q117 0 195 -140t78 -382v-41h-514q0 -231 84.5 -361t205.5 -130q102 0 193 63l6 -45q-100 -59 -201 -59zM111 557h469q0 207 -64.5 345t-163.5 138q-97 0 -167 -131.5t-74 -351.5zM352 1190l-162 219
l46 23l137 -242h-21z" />
    <glyph glyph-name="uni0451" unicode="&#x451;" horiz-adv-x="686" 
d="M399 -14q-139 0 -236 143t-97 395v8q0 258 85.5 403.5t200.5 145.5q117 0 195 -140t78 -382v-41h-514q0 -231 84.5 -361t205.5 -130q102 0 193 63l6 -45q-100 -59 -201 -59zM111 557h469q0 207 -64.5 345t-163.5 138q-97 0 -167 -131.5t-74 -351.5zM412 1210v76h53v-76
h-53zM252 1210v76h53v-76h-53z" />
    <glyph glyph-name="uni0452" unicode="&#x452;" horiz-adv-x="706" 
d="M438 1188h-286v-344q117 26 210 26q137 0 194.5 -59t57.5 -207v-688q0 -188 -163 -188q-37 0 -70 10v41q42 -10 70 -10q60 0 90 34t30 121v680q0 125 -46.5 175t-164.5 50q-98 0 -208 -28v-801h-43v1188h-160v39h160v221h43v-221h286v-39z" />
    <glyph glyph-name="uni0453" unicode="&#x453;" horiz-adv-x="507" 
d="M109 0v1067h389v-39h-346v-1028h-43zM268 1180l138 241l45 -22l-162 -219h-21z" />
    <glyph glyph-name="uni0454" unicode="&#x454;" horiz-adv-x="587" 
d="M473 559v-41h-362q0 -234 86 -361.5t215 -127.5q73 0 125 39v-50q-51 -32 -127 -32q-150 0 -247 140.5t-97 399.5v15q0 258 97 399t243 141q77 0 131 -28v-52q-52 37 -129 37q-126 0 -209.5 -126t-87.5 -353h362z" />
    <glyph glyph-name="uni0455" unicode="&#x455;" horiz-adv-x="552" 
d="M258 -10q-96 0 -207 51v49q109 -59 207 -59q92 0 147.5 51t55.5 141v2q0 69 -46 137.5t-151 167.5q-115 110 -161 180t-46 146v2q0 99 70 160t168 61q83 0 164 -37v-49q-80 45 -164 45t-138.5 -48t-54.5 -132v-2q0 -66 42 -127.5t151 -165.5q111 -105 161 -182t50 -156
v-2q0 -104 -71.5 -168.5t-176.5 -64.5z" />
    <glyph glyph-name="uni0456" unicode="&#x456;" horiz-adv-x="276" 
d="M113 1331v117h51v-117h-51zM117 0v1067h43v-1067h-43z" />
    <glyph glyph-name="uni0457" unicode="&#x457;" horiz-adv-x="276" 
d="M117 0v1067h43v-1067h-43zM193 1200v76h53v-76h-53zM33 1200v76h53v-76h-53z" />
    <glyph glyph-name="uni0458" unicode="&#x458;" horiz-adv-x="276" 
d="M113 1331v117h51v-117h-51zM14 -272q-31 0 -61 10v41q33 -10 61 -10q103 0 103 147v1151h43v-1155q0 -92 -38 -138t-108 -46z" />
    <glyph glyph-name="uni0459" unicode="&#x459;" horiz-adv-x="1011" 
d="M483 0v1028h-6l-414 -1028h-43l435 1067h71v-381h45q195 0 297.5 -87t102.5 -247v-4q0 -165 -107.5 -256.5t-294.5 -91.5h-86zM526 39h43q169 0 264 79.5t95 229.5v4q0 142 -91 218.5t-266 76.5h-45v-608z" />
    <glyph glyph-name="uni045A" unicode="&#x45a;" horiz-adv-x="1110" 
d="M625 1067v-381h45q195 0 297 -87t102 -247v-4q0 -165 -107 -256.5t-294 -91.5h-86v520h-430v-520h-43v1067h43v-508h430v508h43zM625 647v-608h43q168 0 263 79.5t95 229.5v4q0 142 -90.5 218.5t-265.5 76.5h-45z" />
    <glyph glyph-name="uni045B" unicode="&#x45b;" horiz-adv-x="706" 
d="M438 1188h-286v-344q117 26 210 26q137 0 194.5 -59t57.5 -207v-604h-43v604q0 125 -46.5 175t-164.5 50q-98 0 -208 -28v-801h-43v1188h-160v39h160v221h43v-221h286v-39z" />
    <glyph glyph-name="uni045C" unicode="&#x45c;" horiz-adv-x="634" 
d="M152 1067v-512h149l236 512h47l-248 -535l266 -532h-47l-256 516h-147v-516h-43v1067h43zM305 1171l137 242l45 -22l-161 -220h-21z" />
    <glyph glyph-name="uni045D" unicode="&#x45d;" horiz-adv-x="741" 
d="M109 0v1067h43v-965l442 965h39v-1067h-43v965l-443 -965h-38zM367 1171l-162 220l45 22l137 -242h-20z" />
    <glyph glyph-name="uni045E" unicode="&#x45e;" horiz-adv-x="661" 
d="M330 100l250 967h43l-347 -1333h-43v2l76 289l-268 1042h43zM334 1178q-82 0 -130.5 51t-60.5 141h37q9 -67 46 -111.5t108 -44.5q126 0 153 156h37q-12 -90 -60 -141t-130 -51z" />
    <glyph glyph-name="uni045F" unicode="&#x45f;" horiz-adv-x="741" 
d="M348 -213v213h-239v1067h43v-1028h438v1028h43v-1067h-242v-213h-43z" />
    <glyph glyph-name="uni0462" unicode="&#x462;" horiz-adv-x="827" 
d="M295 1475v-304h278v-41h-278v-327h80q198 0 304.5 -101.5t106.5 -295.5v-5q0 -181 -106.5 -291t-300.5 -110h-129v1130h-230v41h230v304h45zM295 41h84q176 0 269 98t93 262v5q0 177 -93 266.5t-273 89.5h-80v-721z" />
    <glyph glyph-name="uni0463" unicode="&#x463;" horiz-adv-x="772" 
d="M565 1028h-286v-342h53q195 0 297 -87t102 -247v-4q0 -165 -107 -256.5t-294 -91.5h-94v1028h-220v39h220v381h43v-381h286v-39zM279 647v-608h51q168 0 263 79.5t95 229.5v4q0 142 -90.5 218.5t-265.5 76.5h-53z" />
    <glyph glyph-name="uni0472" unicode="&#x472;" horiz-adv-x="806" 
d="M403 -14q-143 0 -235 189t-92 530v24q0 341 92 530t235 189q144 0 236 -189.5t92 -529.5v-24q0 -340 -92 -529.5t-236 -189.5zM403 27q123 0 203 180.5t80 494.5h-565q0 -315 79.5 -495t202.5 -180zM403 1407q-120 0 -201 -179t-81 -485h565q-4 309 -83.5 486.5
t-199.5 177.5z" />
    <glyph glyph-name="uni0473" unicode="&#x473;" horiz-adv-x="720" 
d="M360 -14q-124 0 -209 148t-85 392v15q0 244 85 392t209 148t209.5 -148.5t85.5 -391.5v-15q0 -243 -85.5 -391.5t-209.5 -148.5zM360 27q103 0 176.5 140.5t73.5 352.5h-499q0 -213 72 -353t177 -140zM360 1040q-104 0 -174.5 -135t-74.5 -346h499q-4 209 -76 345
t-174 136z" />
    <glyph glyph-name="uni0474" unicode="&#x474;" horiz-adv-x="831" 
d="M362 -10l-307 1444h47l281 -1340l184 883q62 294 103 377.5t151 83.5h4v-41h-10q-35 0 -59.5 -14t-43 -42t-34 -78.5t-30 -114t-33.5 -157.5q-3 -17 -5 -26l-207 -975h-41z" />
    <glyph glyph-name="uni0475" unicode="&#x475;" horiz-adv-x="718" 
d="M311 -6l-270 1073h43l246 -991l184 753q34 141 75.5 191.5t123.5 50.5h2v-39h-2q-67 0 -98.5 -44t-61.5 -173l-205 -821h-37z" />
    <glyph glyph-name="uni0490" unicode="&#x490;" horiz-adv-x="555" 
d="M115 0v1434h381v215h45v-256h-381v-1393h-45z" />
    <glyph glyph-name="uni0491" unicode="&#x491;" horiz-adv-x="507" 
d="M109 0v1067h346v193h43v-232h-346v-1028h-43z" />
    <glyph glyph-name="uni0492" unicode="&#x492;" horiz-adv-x="567" 
d="M127 0v696h-90v39h90v699h426v-41h-381v-658h186v-39h-186v-696h-45z" />
    <glyph glyph-name="uni0493" unicode="&#x493;" horiz-adv-x="518" 
d="M119 0v510h-82v39h82v518h389v-39h-346v-479h162v-39h-162v-510h-43z" />
    <glyph glyph-name="uni0496" unicode="&#x496;" horiz-adv-x="1142" 
d="M45 1434h49l275 -691h143v691h45v-691h141l277 691h49l-287 -713l299 -680h101v-270h-45v229h-86l-308 702h-141v-702h-45v702h-141l-308 -702h-49l318 721z" />
    <glyph glyph-name="uni0497" unicode="&#x497;" horiz-adv-x="1038" 
d="M518 1067v-512h146l227 512h47l-238 -532l238 -496h94v-252h-43v213h-80l-243 516h-148v-516h-43v516h-147l-244 -516h-47l254 535l-236 532h47l226 -512h147v512h43z" />
    <glyph glyph-name="uni0498" unicode="&#x498;" horiz-adv-x="651" 
d="M274 -229v213h-22q-117 0 -191 45v45q87 -49 191 -49q134 0 208.5 92.5t74.5 253.5v2q0 159 -78 244t-224 85h-71v41h71q53 0 105 24t94.5 68t69 114t26.5 153v4q0 146 -67 224.5t-185 78.5q-100 0 -202 -61v45q90 57 202 57q137 0 217 -92t80 -252v-4q0 -140 -70 -241.5
t-177 -135.5q123 -26 188.5 -117.5t65.5 -234.5v-2q0 -158 -69 -258t-192 -123v-219h-45z" />
    <glyph glyph-name="uni0499" unicode="&#x499;" horiz-adv-x="583" 
d="M250 -213v199h-19q-101 0 -180 39v49q89 -47 182 -47q111 0 173.5 63t62.5 178v6q0 120 -70.5 183t-191.5 63h-70v39h70q107 0 179.5 71.5t72.5 186.5v4q0 100 -53.5 159.5t-151.5 59.5q-103 0 -191 -53v47q77 47 191 47q120 0 185 -70.5t65 -189.5v-6q0 -110 -61.5 -181
t-141.5 -91q95 -22 154 -88.5t59 -178.5v-8q0 -111 -58.5 -185t-162.5 -91v-205h-43z" />
    <glyph glyph-name="uni049A" unicode="&#x49a;" horiz-adv-x="753" 
d="M115 0v1434h45v-691h121l305 691h49l-316 -713l326 -680h103v-270h-46v229h-86l-335 702h-121v-702h-45z" />
    <glyph glyph-name="uni049B" unicode="&#x49b;" horiz-adv-x="686" 
d="M152 1067v-512h149l236 512h47l-248 -535l246 -493h98v-252h-43v213h-82l-256 516h-147v-516h-43v1067h43z" />
    <glyph glyph-name="uni049C" unicode="&#x49c;" horiz-adv-x="776" 
d="M385 1192v-449h35l262 691h49l-272 -713l303 -721h-49l-293 702h-35v-438h-43v438h-182v-702h-45v1434h45v-691h182v449h43z" />
    <glyph glyph-name="uni049D" unicode="&#x49d;" horiz-adv-x="694" 
d="M662 0h-48l-223 516h-33v-360h-41v360h-165v-516h-43v1067h43v-512h165v387h41v-387h33l205 512h47l-215 -532z" />
    <glyph glyph-name="uni04A0" unicode="&#x4a0;" horiz-adv-x="825" 
d="M20 1393v41h285v-691h121l305 691h49l-315 -713l346 -721h-49l-336 702h-121v-702h-45v1393h-240z" />
    <glyph glyph-name="uni04A1" unicode="&#x4a1;" horiz-adv-x="761" 
d="M16 1028v39h263v-512h149l236 512h47l-248 -535l266 -532h-47l-256 516h-147v-516h-43v1028h-220z" />
    <glyph glyph-name="uni04A2" unicode="&#x4a2;" horiz-adv-x="841" 
d="M776 -229v229h-108v702h-508v-702h-45v1434h45v-691h508v691h45v-1393h108v-270h-45z" />
    <glyph glyph-name="uni04A3" unicode="&#x4a3;" horiz-adv-x="753" 
d="M690 -213v213h-100v520h-438v-520h-43v1067h43v-508h438v508h43v-1028h100v-252h-43z" />
    <glyph glyph-name="uni04A4" unicode="&#x4a4;" horiz-adv-x="1060" 
d="M655 0v702h-495v-702h-45v1434h45v-691h495v691h392v-41h-347v-1393h-45z" />
    <glyph glyph-name="uni04A5" unicode="&#x4a5;" horiz-adv-x="966" 
d="M152 1067v-508h430v508h374v-39h-331v-1028h-43v520h-430v-520h-43v1067h43z" />
    <glyph glyph-name="uni04AA" unicode="&#x4aa;" horiz-adv-x="647" 
d="M362 -229v229q-128 42 -207 222.5t-79 482.5v24q0 176 30.5 316t82.5 226.5t117.5 131.5t139.5 45q78 0 134 -33v-49q-73 41 -134 41q-63 0 -121 -43t-104 -125t-73 -214t-27 -296v-24q0 -167 27 -299.5t73.5 -213.5t103.5 -123t121 -42q70 0 140 45v-47
q-62 -39 -144 -39q-6 0 -34 4v-219h-46z" />
    <glyph glyph-name="uni04AB" unicode="&#x4ab;" horiz-adv-x="559" 
d="M301 -213v213q-106 40 -170.5 174.5t-64.5 351.5v15q0 257 94 398.5t231 141.5q61 0 115 -28v-49q-48 36 -115 36q-121 0 -200.5 -131.5t-79.5 -367.5v-15q0 -239 79 -369t201 -130q66 0 117 39v-48q-46 -32 -121 -32q-15 0 -43 4v-203h-43z" />
    <glyph glyph-name="uni04AE" unicode="&#x4ae;" horiz-adv-x="675" 
d="M315 0v618l-299 816h50l272 -758l272 758h49l-299 -816v-618h-45z" />
    <glyph glyph-name="uni04AF" unicode="&#x4af;" horiz-adv-x="659" 
d="M352 -266h-43v272l-268 1061h43l246 -987l245 987h43l-266 -1053v-280z" />
    <glyph glyph-name="uni04B0" unicode="&#x4b0;" horiz-adv-x="675" 
d="M315 0v600h-202v39h194l-291 795h50l272 -758l272 758h49l-292 -795h196v-39h-203v-600h-45z" />
    <glyph glyph-name="uni04B1" unicode="&#x4b1;" horiz-adv-x="659" 
d="M330 80l245 987h43l-260 -1028h179v-39h-185v-266h-43v266h-184v39h174l-258 1028h43z" />
    <glyph glyph-name="uni04B2" unicode="&#x4b2;" horiz-adv-x="739" 
d="M600 0l-256 682l-254 -682h-49l278 729l-268 705h49l244 -658l246 658h49l-270 -705l264 -688h100v-270h-45v229h-88z" />
    <glyph glyph-name="uni04B3" unicode="&#x4b3;" horiz-adv-x="667" 
d="M98 1067l213 -477l213 477h45l-235 -518l231 -510h97v-252h-44v213h-79l-228 508l-227 -508h-45l250 549l-236 518h45z" />
    <glyph glyph-name="uni04B6" unicode="&#x4b6;" horiz-adv-x="788" 
d="M614 0v616q-135 -32 -235 -32q-154 0 -219.5 73.5t-65.5 229.5v547h45v-545q0 -139 54 -201.5t190 -62.5q99 0 231 32v777h45v-1393h109v-270h-45v229h-109z" />
    <glyph glyph-name="uni04B7" unicode="&#x4b7;" horiz-adv-x="708" 
d="M545 0v459q-122 -27 -207 -27q-135 0 -192.5 59.5t-57.5 206.5v369h43v-369q0 -128 45.5 -176.5t163.5 -48.5q84 0 205 27v567h43v-1028h100v-252h-43v213h-100z" />
    <glyph glyph-name="uni04B8" unicode="&#x4b8;" horiz-adv-x="774" 
d="M614 0v616q-134 -30 -215 -32v-340h-43v340q-142 4 -202 77.5t-60 225.5v547h45v-545q0 -133 48.5 -195.5t168.5 -68.5v448h43v-448q98 3 215 32v777h45v-1434h-45z" />
    <glyph glyph-name="uni04B9" unicode="&#x4b9;" horiz-adv-x="696" 
d="M358 172h-41v260q-123 5 -176 64t-53 202v369h43v-369q0 -123 40.5 -171.5t145.5 -53.5v410h41v-410q89 3 187 27v567h43v-1067h-43v459q-95 -24 -187 -27v-260z" />
    <glyph glyph-name="uni04BA" unicode="&#x4ba;" horiz-adv-x="774" 
d="M160 1434v-617q139 33 235 33q154 0 219.5 -73.5t65.5 -229.5v-547h-45v545q0 139 -54 201.5t-190 62.5q-95 0 -231 -33v-776h-45v1434h45z" />
    <glyph glyph-name="uni04BB" unicode="&#x4bb;" horiz-adv-x="737" 
d="M109 0v1448h43v-567q22 82 87 141t154 59q113 0 178.5 -90.5t65.5 -257.5v-733h-43v733q0 146 -53.5 226.5t-151.5 80.5q-95 0 -166 -89.5t-71 -225.5v-725h-43z" />
    <glyph glyph-name="uni04C0" unicode="&#x4c0;" horiz-adv-x="294" 
d="M125 0v1434h45v-1434h-45z" />
    <glyph glyph-name="uni04C1" unicode="&#x4c1;" horiz-adv-x="1071" 
d="M45 1434h49l275 -691h143v691h45v-691h141l277 691h49l-287 -713l318 -721h-49l-308 702h-141v-702h-45v702h-141l-308 -702h-49l318 721zM535 1522q-76 0 -128 40t-63 121h37q11 -58 49.5 -91t104.5 -33q130 0 153 124h37q-11 -81 -62.5 -121t-127.5 -40z" />
    <glyph glyph-name="uni04C2" unicode="&#x4c2;" horiz-adv-x="993" 
d="M518 1067v-512h146l227 512h47l-238 -532l256 -535h-47l-243 516h-148v-516h-43v516h-147l-244 -516h-47l254 535l-236 532h47l226 -512h147v512h43zM498 1186q-82 0 -130.5 51t-60.5 141h37q9 -67 46 -111t108 -44q126 0 153 155h37q-12 -90 -60 -141t-130 -51z" />
    <glyph glyph-name="uni04CF" unicode="&#x4cf;" horiz-adv-x="276" 
d="M117 0v1448h43v-1448h-43z" />
    <glyph glyph-name="uni04D0" unicode="&#x4d0;" horiz-adv-x="786" 
d="M55 0l316 1444h45l315 -1444h-47l-94 434h-395l-93 -434h-47zM205 475h377l-189 879zM395 1532q-76 0 -127 40.5t-63 121.5h37q24 -125 153 -125q130 0 154 125h37q-11 -81 -63 -121.5t-128 -40.5z" />
    <glyph glyph-name="uni04D1" unicode="&#x4d1;" horiz-adv-x="673" 
d="M293 -14q-111 0 -173.5 86t-62.5 239v6q0 159 71.5 249.5t209.5 90.5q107 0 194 -53v176q0 122 -58 189t-167 67q-93 0 -188 -53v47q96 47 190 47q122 0 191 -69q75 -75 75 -220v-788h-43v193q-31 -89 -91.5 -148t-147.5 -59zM297 27q96 0 165.5 101.5t69.5 227.5v203
q-93 57 -196 57q-119 0 -176.5 -78.5t-57.5 -220.5v-6q0 -132 50 -208t145 -76zM350 1196q-82 0 -130 51.5t-60 141.5h37q9 -67 45.5 -111.5t107.5 -44.5q127 0 154 156h37q-12 -90 -60.5 -141.5t-130.5 -51.5z" />
    <glyph glyph-name="uni04D2" unicode="&#x4d2;" horiz-adv-x="786" 
d="M55 0l316 1444h45l315 -1444h-47l-94 434h-395l-93 -434h-47zM205 475h377l-189 879zM449 1546v76h53v-76h-53zM289 1546v76h53v-76h-53z" />
    <glyph glyph-name="uni04D3" unicode="&#x4d3;" horiz-adv-x="673" 
d="M293 -14q-111 0 -173.5 86t-62.5 239v6q0 159 71.5 249.5t209.5 90.5q107 0 194 -53v176q0 122 -58 189t-167 67q-93 0 -188 -53v47q96 47 190 47q122 0 191 -69q75 -75 75 -220v-788h-43v193q-31 -89 -91.5 -148t-147.5 -59zM297 27q96 0 165.5 101.5t69.5 227.5v203
q-93 57 -196 57q-119 0 -176.5 -78.5t-57.5 -220.5v-6q0 -132 50 -208t145 -76zM403 1210v76h54v-76h-54zM244 1210v76h53v-76h-53z" />
    <glyph glyph-name="uni04D4" unicode="&#x4d4;" horiz-adv-x="1007" 
d="M6 0l420 1434h518v-41h-418v-650h383v-41h-383v-661h424v-41h-469v434h-303l-125 -434h-47zM190 475h291v916h-24z" />
    <glyph glyph-name="uni04D5" unicode="&#x4d5;" horiz-adv-x="1144" 
d="M293 -14q-111 0 -173.5 86t-62.5 239v6q0 159 71.5 249.5t209.5 90.5q107 0 194 -53v176q0 122 -58 189t-167 67q-93 0 -188 -53v47q96 47 190 47q112 0 182 -63.5t82 -182.5q37 120 102 185t140 65q116 0 192 -139.5t76 -382.5v-41h-508q0 -231 83.5 -361t205.5 -130
q98 0 189 63l6 -45q-100 -59 -197 -59q-96 0 -174.5 69.5t-118.5 200.5q-38 -123 -109.5 -196.5t-166.5 -73.5zM575 557h463q0 136 -27.5 246t-79 173.5t-116.5 63.5q-100 0 -168 -130.5t-72 -352.5zM297 27q167 0 256 292q-21 100 -21 240q-93 57 -196 57
q-119 0 -176.5 -78.5t-57.5 -220.5v-6q0 -132 50 -208t145 -76z" />
    <glyph glyph-name="uni04D6" unicode="&#x4d6;" horiz-adv-x="641" 
d="M115 0v1434h463v-41h-418v-650h383v-41h-383v-661h424v-41h-469zM350 1522q-76 0 -127.5 40t-62.5 121h37q23 -124 153 -124q66 0 104.5 33t49.5 91h37q-11 -81 -63 -121t-128 -40z" />
    <glyph glyph-name="uni04D7" unicode="&#x4d7;" horiz-adv-x="686" 
d="M399 -14q-139 0 -236 143t-97 395v8q0 258 85.5 403.5t200.5 145.5q117 0 195 -140t78 -382v-41h-514q0 -231 84.5 -361t205.5 -130q102 0 193 63l6 -45q-100 -59 -201 -59zM111 557h469q0 207 -64.5 345t-163.5 138q-97 0 -167 -131.5t-74 -351.5zM358 1196
q-82 0 -130 51.5t-60 141.5h37q9 -67 45.5 -111.5t107.5 -44.5q127 0 154 156h37q-12 -90 -60.5 -141.5t-130.5 -51.5z" />
    <glyph glyph-name="uni04D8" unicode="&#x4d8;" horiz-adv-x="749" 
d="M100 1329l-4 45q91 76 209 76q172 0 270.5 -186t98.5 -523v-10q0 -368 -83 -556.5t-222 -188.5q-136 0 -217.5 182.5t-81.5 544.5v41h559q0 310 -87.5 482.5t-240.5 172.5q-105 0 -201 -80zM369 27q115 0 187.5 177t72.5 509h-514q0 -339 69.5 -512.5t184.5 -173.5z" />
    <glyph glyph-name="uni04D9" unicode="&#x4d9;" horiz-adv-x="686" 
d="M287 1081q66 0 125.5 -35.5t106.5 -101t74.5 -169.5t27.5 -232v-8q0 -258 -86 -403.5t-201 -145.5q-117 0 -195 140t-78 382v41h514q0 231 -84.5 361t-205.5 130q-102 0 -193 -63l-6 45q100 59 201 59zM575 510h-469q0 -207 64.5 -345t163.5 -138q97 0 167 131.5
t74 351.5z" />
    <glyph glyph-name="uni04DC" unicode="&#x4dc;" horiz-adv-x="1071" 
d="M45 1434h49l275 -691h143v691h45v-691h141l277 691h49l-287 -713l318 -721h-49l-308 702h-141v-702h-45v702h-141l-308 -702h-49l318 721zM588 1536v76h53v-76h-53zM428 1536v76h53v-76h-53z" />
    <glyph glyph-name="uni04DD" unicode="&#x4dd;" horiz-adv-x="993" 
d="M518 1067v-512h146l227 512h47l-238 -532l256 -535h-47l-243 516h-148v-516h-43v516h-147l-244 -516h-47l254 535l-236 532h47l226 -512h147v512h43zM551 1200v76h53v-76h-53zM391 1200v76h53v-76h-53z" />
    <glyph glyph-name="uni04DE" unicode="&#x4de;" horiz-adv-x="651" 
d="M74 1348v45q90 57 202 57q137 0 217 -92t80 -252v-4q0 -140 -70 -241.5t-177 -135.5q123 -26 188.5 -117.5t65.5 -234.5v-2q0 -179 -87.5 -283t-240.5 -104q-117 0 -191 45v45q87 -49 191 -49q134 0 208.5 92.5t74.5 253.5v2q0 159 -78 244t-224 85h-71v41h71
q53 0 105 24t94.5 68t69 114t26.5 153v4q0 146 -67 224.5t-185 78.5q-100 0 -202 -61zM350 1546v76h53v-76h-53zM190 1546v76h54v-76h-54z" />
    <glyph glyph-name="uni04DF" unicode="&#x4df;" horiz-adv-x="583" 
d="M51 25v49q89 -47 182 -47q111 0 173.5 63t62.5 178v6q0 120 -70.5 183t-191.5 63h-70v39h70q107 0 179.5 71.5t72.5 186.5v4q0 100 -53.5 159.5t-151.5 59.5q-103 0 -191 -53v47q77 47 191 47q120 0 185 -70.5t65 -189.5v-6q0 -110 -61.5 -181t-141.5 -91
q95 -22 154 -88.5t59 -178.5v-8q0 -128 -76.5 -205t-206.5 -77q-101 0 -180 39zM319 1210v76h54v-76h-54zM160 1210v76h53v-76h-53z" />
    <glyph glyph-name="uni04E2" unicode="&#x4e2;" horiz-adv-x="835" 
d="M721 0h-45v1323l-524 -1323h-37v1434h45v-1303l516 1303h45v-1434zM256 1532v37h328v-37h-328z" />
    <glyph glyph-name="uni04E3" unicode="&#x4e3;" horiz-adv-x="741" 
d="M109 0v1067h43v-965l442 965h39v-1067h-43v965l-443 -965h-38zM209 1196v37h328v-37h-328z" />
    <glyph glyph-name="uni04E4" unicode="&#x4e4;" horiz-adv-x="835" 
d="M721 0h-45v1323l-524 -1323h-37v1434h45v-1303l516 1303h45v-1434zM473 1528v76h53v-76h-53zM313 1528v76h54v-76h-54z" />
    <glyph glyph-name="uni04E5" unicode="&#x4e5;" horiz-adv-x="741" 
d="M109 0v1067h43v-965l442 965h39v-1067h-43v965l-443 -965h-38zM426 1192v76h53v-76h-53zM266 1192v76h53v-76h-53z" />
    <glyph glyph-name="uni04E6" unicode="&#x4e6;" horiz-adv-x="811" 
d="M406 -14q-145 0 -237.5 189t-92.5 530v24q0 341 92.5 530t237.5 189t237 -189t92 -530v-24q0 -341 -92 -530t-237 -189zM406 27q123 0 203.5 181.5t80.5 496.5v24q0 315 -80.5 496.5t-203.5 181.5q-124 0 -204.5 -181.5t-80.5 -496.5v-24q0 -315 80.5 -496.5
t204.5 -181.5zM461 1546v76h53v-76h-53zM301 1546v76h53v-76h-53z" />
    <glyph glyph-name="uni04E7" unicode="&#x4e7;" horiz-adv-x="724" 
d="M362 -14q-125 0 -210.5 148t-85.5 392v15q0 244 85.5 392t210.5 148t211 -148t86 -392v-15q0 -244 -86 -392t-211 -148zM362 27q107 0 179.5 141.5t72.5 357.5v15q0 216 -72.5 357.5t-179.5 141.5t-179 -141.5t-72 -357.5v-15q0 -216 72 -357.5t179 -141.5zM418 1210v76
h53v-76h-53zM258 1210v76h53v-76h-53z" />
    <glyph glyph-name="uni04E8" unicode="&#x4e8;" horiz-adv-x="806" 
d="M403 -14q-143 0 -235 189t-92 530v24q0 341 92 530t235 189q144 0 236 -189.5t92 -529.5v-24q0 -340 -92 -529.5t-236 -189.5zM403 27q123 0 203 180.5t80 494.5h-565q0 -315 79.5 -495t202.5 -180zM403 1407q-120 0 -201 -179t-81 -485h565q-4 309 -83.5 486.5
t-199.5 177.5z" />
    <glyph glyph-name="uni04E9" unicode="&#x4e9;" horiz-adv-x="720" 
d="M360 -14q-124 0 -209 148t-85 392v15q0 244 85 392t209 148t209.5 -148.5t85.5 -391.5v-15q0 -243 -85.5 -391.5t-209.5 -148.5zM360 27q103 0 176.5 140.5t73.5 352.5h-499q0 -213 72 -353t177 -140zM360 1040q-104 0 -174.5 -135t-74.5 -346h499q-4 209 -76 345
t-174 136z" />
    <glyph glyph-name="uni04EE" unicode="&#x4ee;" horiz-adv-x="669" 
d="M252 0h-47l129 455l-303 979h47l278 -914l254 914h47zM188 1532v37h328v-37h-328z" />
    <glyph glyph-name="uni04EF" unicode="&#x4ef;" horiz-adv-x="661" 
d="M330 100l250 967h43l-347 -1333h-43v2l76 289l-268 1042h43zM170 1196v37h328v-37h-328z" />
    <glyph glyph-name="uni04F0" unicode="&#x4f0;" horiz-adv-x="669" 
d="M252 0h-47l129 455l-303 979h47l278 -914l254 914h47zM406 1528v76h53v-76h-53zM246 1528v76h53v-76h-53z" />
    <glyph glyph-name="uni04F1" unicode="&#x4f1;" horiz-adv-x="661" 
d="M330 100l250 967h43l-347 -1333h-43v2l76 289l-268 1042h43zM387 1192v76h53v-76h-53zM227 1192v76h54v-76h-54z" />
    <glyph glyph-name="uni04F2" unicode="&#x4f2;" horiz-adv-x="669" 
d="M252 0h-47l129 455l-303 979h47l278 -914l254 914h47zM270 1507l127 205l45 -24l-151 -181h-21zM412 1507l120 205l46 -24l-146 -181h-20z" />
    <glyph glyph-name="uni04F3" unicode="&#x4f3;" horiz-adv-x="661" 
d="M330 100l250 967h43l-347 -1333h-43v2l76 289l-268 1042h43zM403 1171l136 244l45 -24l-160 -220h-21zM252 1171l135 244l45 -24l-160 -220h-20z" />
    <glyph glyph-name="uni04F4" unicode="&#x4f4;" horiz-adv-x="774" 
d="M614 0v616q-135 -32 -235 -32q-154 0 -219.5 73.5t-65.5 229.5v547h45v-545q0 -139 54 -201.5t190 -62.5q99 0 231 32v777h45v-1434h-45zM432 1528v76h53v-76h-53zM272 1528v76h54v-76h-54z" />
    <glyph glyph-name="uni04F5" unicode="&#x4f5;" horiz-adv-x="696" 
d="M545 0v459q-122 -27 -207 -27q-135 0 -192.5 59.5t-57.5 206.5v369h43v-369q0 -128 45.5 -176.5t163.5 -48.5q84 0 205 27v567h43v-1067h-43zM393 1192v76h53v-76h-53zM233 1192v76h54v-76h-54z" />
    <glyph glyph-name="uni04F8" unicode="&#x4f8;" horiz-adv-x="970" 
d="M115 0v1434h45v-557h92q189 0 298 -118t109 -315v-4q0 -196 -110.5 -318t-304.5 -122h-129zM160 41h84q167 0 268.5 107.5t101.5 289.5v4q0 184 -99 289t-265 105h-90v-795zM811 0v1434h45v-1434h-45zM541 1528v76h53v-76h-53zM381 1528v76h53v-76h-53z" />
    <glyph glyph-name="uni04F9" unicode="&#x4f9;" horiz-adv-x="909" 
d="M152 1067v-381h53q195 0 297 -87t102 -247v-4q0 -165 -107 -256.5t-294 -91.5h-94v1067h43zM152 647v-608h51q168 0 263 79.5t95 229.5v4q0 142 -90.5 218.5t-265.5 76.5h-53zM758 0v1067h43v-1067h-43zM510 1192v76h53v-76h-53zM350 1192v76h53v-76h-53z" />
    <glyph glyph-name="Wgrave" unicode="&#x1e80;" horiz-adv-x="1220" 
d="M311 -10l-250 1444h48l225 -1336l258 1336h37l258 -1338l225 1338h47l-250 -1444h-43l-256 1325l-256 -1325h-43zM625 1516h-21l-151 180l45 22z" />
    <glyph glyph-name="wgrave" unicode="&#x1e81;" horiz-adv-x="1007" 
d="M266 -6l-221 1073h43l195 -975l204 975h33l205 -975l195 975h43l-222 -1073h-34l-203 952l-203 -952h-35zM500 1180l-162 219l45 22l137 -241h-20z" />
    <glyph glyph-name="Wacute" unicode="&#x1e82;" horiz-adv-x="1220" 
d="M311 -10l-250 1444h48l225 -1336l258 1336h37l258 -1338l225 1338h47l-250 -1444h-43l-256 1325l-256 -1325h-43zM596 1516l127 202l45 -22l-152 -180h-20z" />
    <glyph glyph-name="wacute" unicode="&#x1e83;" horiz-adv-x="1007" 
d="M266 -6l-221 1073h43l195 -975l204 975h33l205 -975l195 975h43l-222 -1073h-34l-203 952l-203 -952h-35zM489 1180l138 241l45 -22l-162 -219h-21z" />
    <glyph glyph-name="Wdieresis" unicode="&#x1e84;" horiz-adv-x="1220" 
d="M311 -10l-250 1444h48l225 -1336l258 1336h37l258 -1338l225 1338h47l-250 -1444h-43l-256 1325l-256 -1325h-43zM664 1536v76h53v-76h-53zM504 1536v76h53v-76h-53z" />
    <glyph glyph-name="wdieresis" unicode="&#x1e85;" horiz-adv-x="1007" 
d="M266 -6l-221 1073h43l195 -975l204 975h33l205 -975l195 975h43l-222 -1073h-34l-203 952l-203 -952h-35zM559 1200v76h53v-76h-53zM399 1200v76h54v-76h-54z" />
    <glyph glyph-name="Ygrave" unicode="&#x1ef2;" horiz-adv-x="675" 
d="M315 0v618l-299 816h50l272 -758l272 758h49l-299 -816v-618h-45zM354 1507h-20l-152 181l45 22z" />
    <glyph glyph-name="ygrave" unicode="&#x1ef3;" horiz-adv-x="661" 
d="M330 100l250 967h43l-347 -1333h-43v2l76 289l-268 1042h43zM328 1171l-162 220l45 22l137 -242h-20z" />
    <glyph glyph-name="enspace" unicode="&#x2002;" 
 />
    <glyph glyph-name="emspace" unicode="&#x2003;" horiz-adv-x="2048" 
 />
    <glyph glyph-name="threeperemspace" unicode="&#x2004;" horiz-adv-x="681" 
 />
    <glyph glyph-name="fourperemspace" unicode="&#x2005;" horiz-adv-x="512" 
 />
    <glyph glyph-name="thinspace" unicode="&#x2009;" horiz-adv-x="204" 
 />
    <glyph glyph-name="hairspace" unicode="&#x200a;" horiz-adv-x="102" 
 />
    <glyph glyph-name="endash" unicode="&#x2013;" horiz-adv-x="782" 
d="M76 586v41h631v-41h-631z" />
    <glyph glyph-name="emdash" unicode="&#x2014;" horiz-adv-x="1150" 
d="M76 586v41h999v-41h-999z" />
    <glyph glyph-name="quoteleft" unicode="&#x2018;" horiz-adv-x="174" 
d="M61 1210v109q0 47 17 72t51 45l14 -27q-26 -14 -37 -35t-10 -61h23v-103h-58z" />
    <glyph glyph-name="quoteright" unicode="&#x2019;" horiz-adv-x="174" 
d="M45 1208l-14 27q26 14 37 35t10 61h-23v103h58v-109q0 -47 -17 -72t-51 -45z" />
    <glyph glyph-name="quotesinglbase" unicode="&#x201a;" horiz-adv-x="180" 
d="M51 -123l-14 27q26 14 37 35t10 61h-23v102h58v-108q0 -47 -17 -72t-51 -45z" />
    <glyph glyph-name="quotedblleft" unicode="&#x201c;" horiz-adv-x="342" 
d="M229 1210v109q0 47 17 72t51 45l14 -27q-26 -14 -37 -35t-10 -61h23v-103h-58zM61 1210v109q0 47 17 72t51 45l14 -27q-26 -14 -37 -35t-10 -61h23v-103h-58z" />
    <glyph glyph-name="quotedblright" unicode="&#x201d;" horiz-adv-x="342" 
d="M213 1208l-14 27q26 14 37 35t10 61h-23v103h58v-109q0 -47 -17 -72t-51 -45zM45 1208l-14 27q26 14 37 35t10 61h-23v103h58v-109q0 -47 -17 -72t-51 -45z" />
    <glyph glyph-name="quotedblbase" unicode="&#x201e;" horiz-adv-x="348" 
d="M219 -123l-14 27q26 14 37 35t10 61h-23v102h58v-108q0 -47 -17 -72t-51 -45zM51 -123l-14 27q26 14 37 35t10 61h-23v102h58v-108q0 -47 -17 -72t-51 -45z" />
    <glyph glyph-name="dagger" unicode="&#x2020;" horiz-adv-x="487" 
d="M221 487l8 605l-168 -11v47l168 -10l-12 316h53l-12 -316l168 10v-47l-168 11l10 -605h-47z" />
    <glyph glyph-name="daggerdbl" unicode="&#x2021;" horiz-adv-x="507" 
d="M227 0l13 315l-168 -10v47l168 -10l-11 375l11 375l-168 -11v47l168 -10l-13 316h54l-13 -316l168 10v-47l-168 11l13 -375l-13 -375l168 10v-47l-168 10l13 -315h-54z" />
    <glyph glyph-name="bullet" unicode="&#x2022;" horiz-adv-x="604" 
d="M287 539q-60 0 -96.5 43t-36.5 131v26q0 88 36.5 131t96.5 43q137 0 137 -174v-26q0 -174 -137 -174z" />
    <glyph glyph-name="ellipsis" unicode="&#x2026;" horiz-adv-x="651" 
d="M532 0v102h58v-102h-58zM297 0v102h57v-102h-57zM61 0v102h58v-102h-58z" />
    <glyph glyph-name="perthousand" unicode="&#x2030;" horiz-adv-x="1490" 
d="M250 799q67 0 112.5 76t45.5 221v16q0 145 -46.5 221t-111.5 76q-66 0 -112 -76.5t-46 -220.5v-16q0 -144 46 -220.5t112 -76.5zM250 764q-88 0 -142.5 88.5t-54.5 243.5v16q0 155 54.5 243.5t142.5 88.5t142 -88.5t54 -243.5v-16q0 -155 -54 -243.5t-142 -88.5z
M836 1434l-324 -723l-317 -711h-39l323 723l318 711h39zM741 25q67 0 112.5 76t45.5 221v16q0 145 -46.5 221t-111.5 76q-66 0 -111.5 -76.5t-45.5 -220.5v-16q0 -144 45.5 -220.5t111.5 -76.5zM741 -10q-88 0 -142 88.5t-54 243.5v16q0 155 54 243.5t142 88.5t142.5 -88.5
t54.5 -243.5v-16q0 -155 -54.5 -243.5t-142.5 -88.5zM1241 25q67 0 112.5 76t45.5 221v16q0 145 -46.5 221t-111.5 76q-66 0 -112 -76.5t-46 -220.5v-16q0 -144 46 -220.5t112 -76.5zM1241 -10q-88 0 -142.5 88.5t-54.5 243.5v16q0 155 54.5 243.5t142.5 88.5t142.5 -88.5
t54.5 -243.5v-16q0 -155 -54.5 -243.5t-142.5 -88.5z" />
    <glyph glyph-name="guilsinglleft" unicode="&#x2039;" horiz-adv-x="370" 
d="M268 92l-231 426v8l231 426l37 -18l-223 -412l223 -411z" />
    <glyph glyph-name="guilsinglright" unicode="&#x203a;" horiz-adv-x="370" 
d="M102 92l-36 19l223 411l-223 412l36 18l232 -426v-8z" />
    <glyph glyph-name="Euro" unicode="&#x20ac;" horiz-adv-x="710" 
d="M635 1407v-49q-76 43 -139 43q-117 0 -192 -121t-95 -369h330v-37h-332q-4 -29 -4 -139v-37q0 -84 2 -123h334v-36h-332q18 -253 94 -380.5t195 -125.5q81 0 145 45v-45q-71 -41 -156 -41q-55 0 -104.5 26.5t-95.5 86t-78.5 170.5t-44.5 264h-139v36h137q-2 39 -2 123v37
q0 108 4 139h-139v37h141q23 264 109.5 398.5t222.5 132.5q74 0 139 -35z" />
    <glyph glyph-name="hryvnia" unicode="&#x20b4;" horiz-adv-x="659" 
d="M66 889l4 37l329 -54q71 102 101 177.5t30 142.5v4q0 99 -53.5 155t-150.5 56q-105 0 -207 -72v51q100 62 207 62q117 0 183 -67.5t66 -184.5v-4q0 -68 -31 -145t-100 -183l191 -30l-4 -37l-209 34l-53 -75v-2l-54 -72v-2l-32 -45l321 -51l-4 -37l-340 55
q-70 -105 -98.5 -184t-28.5 -154v-4q0 -114 58.5 -173.5t164.5 -59.5q126 0 238 88v-52q-112 -77 -238 -77q-124 0 -196 72.5t-72 201.5v4q0 78 29 156.5t98 187.5l-180 31l4 37l199 -33l67 96v2l53 72v2l17 23z" />
    <glyph glyph-name="numero" unicode="&#x2116;" horiz-adv-x="1241" 
d="M115 0v1434h53l428 -1313v1313h43v-1434h-47l-434 1333v-1333h-43zM975 582q-66 0 -112.5 56.5t-67.5 150t-21 215.5v14q0 188 52 305t149 117q66 0 112.5 -56.5t67.5 -150t21 -215.5v-14q0 -188 -52 -305t-149 -117zM975 623q76 0 117 106.5t41 274.5v14
q0 167 -41.5 274t-116.5 107q-76 0 -117 -106.5t-41 -274.5v-14q0 -167 41.5 -274t116.5 -107zM778 401v41h393v-41h-393z" />
    <glyph glyph-name="published" unicode="&#x2117;" horiz-adv-x="1050" 
d="M524 -20q-143 0 -252.5 95.5t-166 254t-56.5 352.5v72q0 195 56.5 353.5t165.5 253.5t253 95t254 -95t166.5 -253.5t56.5 -353.5v-72q0 -194 -56.5 -352.5t-166.5 -254t-254 -95.5zM524 12q103 0 187.5 53t140 144.5t85.5 213t30 259.5v72q0 186 -51 336t-153.5 241.5
t-238.5 91.5q-135 0 -236.5 -92.5t-152.5 -243t-51 -333.5v-72q0 -186 51 -336.5t152.5 -242t236.5 -91.5zM399 336v790h80q108 0 172 -65t64 -187v-4q0 -118 -63 -187t-173 -69h-39v-278h-41zM440 651h39q83 0 139 57.5t56 159.5v2q0 112 -52 166t-143 54h-39v-439z" />
    <glyph glyph-name="servicemark" unicode="&#x2120;" horiz-adv-x="784" 
d="M385 788v646h37l129 -392l123 392h37v-646h-31v572l-125 -393h-8l-131 391v-570h-31zM172 782q-48 0 -104 29v35q53 -35 104 -35q42 0 70 31.5t28 81.5q0 36 -19 75t-69 97q-64 71 -89 118t-25 93q0 57 33 95t89 38q41 0 93 -27v-35q-50 33 -93 33q-42 0 -66 -29t-24 -75
q0 -36 20 -71.5t70 -96.5q66 -77 89.5 -119.5t23.5 -95.5q0 -59 -36.5 -100.5t-94.5 -41.5z" />
    <glyph glyph-name="trademark" unicode="&#x2122;" horiz-adv-x="724" 
d="M326 788v646h36l130 -392l122 392h37v-646h-30v572l-125 -393h-9l-131 391v-570h-30zM111 788v617h-103v29h238v-29h-105v-617h-30z" />
    <glyph glyph-name="Omega" unicode="&#x2126;" horiz-adv-x="839" 
d="M420 1450q161 0 247.5 -143.5t86.5 -413.5v-8q0 -380 -234 -844h244v-41h-289v35q105 208 169.5 429.5t64.5 420.5v8q0 253 -74 384.5t-215 131.5t-215 -131.5t-74 -384.5v-8q0 -199 64.5 -420.5t169.5 -429.5v-35h-289v41h241q-231 459 -231 844v8q0 270 86.5 413.5
t247.5 143.5z" />
    <glyph glyph-name="Delta" unicode="&#x2206;" horiz-adv-x="794" 
d="M68 0l-9 33l316 1411h45l315 -1413l-8 -31h-659zM106 41h580l-289 1313z" />
    <glyph glyph-name="minus" unicode="&#x2212;" horiz-adv-x="671" 
d="M612 698h-553v45h553v-45z" />
    <glyph glyph-name="NUL" horiz-adv-x="0" 
 />
    <glyph glyph-name="CR" horiz-adv-x="323" 
 />
    <glyph glyph-name="Q.alt" horiz-adv-x="831" 
d="M666 -158l-134 187q-58 -43 -126 -43q-145 0 -237.5 189t-92.5 530v24q0 341 92.5 530t237.5 189t237 -189t92 -530v-24q0 -238 -45.5 -402.5t-126.5 -245.5l156 -215h-53zM406 27q123 0 203.5 181.5t80.5 496.5v24q0 315 -80.5 496.5t-203.5 181.5q-124 0 -204.5 -181.5
t-80.5 -496.5v-24q0 -315 80.5 -496.5t204.5 -181.5z" />
    <glyph glyph-name="a.alt" horiz-adv-x="749" 
d="M354 -14q-125 0 -205.5 153.5t-80.5 386.5v15q0 233 80.5 386.5t205.5 153.5q45 0 83 -20t63.5 -49.5t46.5 -69.5t32 -73t19 -68v266h43v-1067h-43v266q-8 -35 -19 -68t-32 -73t-46.5 -69.5t-63.5 -49.5t-83 -20zM356 27q104 0 174 146t70 353v15q0 207 -70 353t-174 146
q-72 0 -128 -68t-85.5 -181.5t-29.5 -249.5v-15q0 -136 29.5 -249.5t85.5 -181.5t128 -68z" />
    <glyph glyph-name="uni039E.alt" horiz-adv-x="722" 
d="M666 41v-41h-609v41h281v661h-248v41h248v650h-277v41h601v-41h-279v-650h250v-41h-250v-661h283z" />
    <glyph glyph-name="uni0424.bgr" horiz-adv-x="1134" 
d="M545 -188v176q-216 5 -344.5 199t-128.5 524v10q0 334 127.5 525.5t345.5 199.5v174h45v-174q216 -8 344.5 -200t128.5 -523v-8q0 -332 -129 -527t-344 -200v-176h-45zM117 721v-10q0 -311 115.5 -495t312.5 -189v1380q-198 -8 -313 -190.5t-115 -495.5zM1018 715v8
q0 312 -115.5 494t-312.5 190v-1380q196 5 312 190.5t116 497.5z" />
    <glyph glyph-name="uni0432.bgr" horiz-adv-x="731" 
d="M371 -14q-137 0 -205 89.5t-68 276.5v738q0 185 79 272.5t202 87.5q130 0 204 -86.5t74 -241.5v-8q0 -146 -83.5 -255.5t-198.5 -135.5q132 -24 213.5 -115t81.5 -260v-6q0 -164 -82 -260t-217 -96zM371 27q118 0 186 84t68 231v6q0 168 -91 259t-266 91h-127v-346
q0 -325 230 -325zM141 1090v-353h127q103 0 183.5 56t120.5 140.5t40 178.5v8q0 138 -63 213.5t-170 75.5q-116 0 -177 -82t-61 -237z" />
    <glyph glyph-name="uni0433.bgr" horiz-adv-x="565" 
d="M287 -10q-109 0 -174.5 57t-65.5 160v4q0 84 48 157t171 193q119 115 161 177t42 130v4q0 85 -49.5 126.5t-134.5 41.5q-87 0 -187 -47v49q91 39 187 39q104 0 166.5 -53.5t62.5 -155.5v-4q0 -80 -48 -150.5t-171 -187.5q-118 -115 -160.5 -183t-42.5 -136v-4
q0 -86 52.5 -131t142.5 -45q110 0 219 59v-49q-112 -51 -219 -51z" />
    <glyph glyph-name="uni0434.bgr" horiz-adv-x="743" 
d="M346 -268q-126 0 -233 45v45q119 -49 233 -49q125 0 185.5 63.5t60.5 202.5v258q-6 -24 -17 -53t-32 -65t-47.5 -64.5t-64.5 -48t-81 -19.5q-122 0 -202 148.5t-80 361.5v14q0 213 80 361.5t202 148.5q43 0 81 -19.5t64.5 -48t47.5 -64.5t32 -65t17 -53v236h43v-1024
q0 -164 -78 -242q-69 -69 -211 -69zM352 88q68 0 124.5 66.5t87 173.5t30.5 229v14q0 122 -30.5 229t-87 173.5t-124.5 66.5q-70 0 -125.5 -66.5t-84.5 -173t-29 -229.5v-14q0 -123 29 -229.5t84.5 -173t125.5 -66.5z" />
    <glyph glyph-name="uni0436.bgr" horiz-adv-x="993" 
d="M518 1448v-893h146l227 512h47l-238 -532l256 -535h-47l-243 516h-148v-516h-43v516h-147l-244 -516h-47l254 535l-236 532h47l226 -512h147v893h43z" />
    <glyph glyph-name="uni0438.bgr" horiz-adv-x="737" 
d="M344 -14q-113 0 -178.5 90.5t-65.5 257.5v733h43v-733q0 -146 53.5 -226.5t151.5 -80.5q95 0 166.5 89.5t71.5 225.5v725h43v-1067h-43v186q-22 -82 -87.5 -141t-154.5 -59z" />
    <glyph glyph-name="uni0439.bgr" horiz-adv-x="737" 
d="M344 -14q-113 0 -178.5 90.5t-65.5 257.5v733h43v-733q0 -146 53.5 -226.5t151.5 -80.5q95 0 166.5 89.5t71.5 225.5v725h43v-1067h-43v186q-22 -82 -87.5 -141t-154.5 -59zM367 1167q-82 0 -130.5 51.5t-60.5 141.5h37q9 -67 46 -111.5t108 -44.5q126 0 153 156h37
q-12 -90 -60 -141.5t-130 -51.5z" />
    <glyph glyph-name="uni043A.bgr" horiz-adv-x="634" 
d="M602 0h-47l-256 516h-147v-516h-43v1448h43v-893h149l236 512h47l-248 -535z" />
    <glyph glyph-name="uni043F.bgr" horiz-adv-x="737" 
d="M109 0v1067h43v-186q22 82 87 141t154 59q113 0 178.5 -90.5t65.5 -257.5v-733h-43v733q0 146 -53.5 226.5t-151.5 80.5q-95 0 -166 -89.5t-71 -225.5v-725h-43z" />
    <glyph glyph-name="uni0442.bgr" horiz-adv-x="1196" 
d="M109 0v1067h43v-180q26 84 84 139t149 55q84 0 141 -51t80 -153q28 89 88.5 146.5t159.5 57.5q113 0 177.5 -86.5t64.5 -255.5v-739h-43v737q0 150 -53 226.5t-148 76.5q-101 0 -165 -84t-64 -225v-731h-43v737q0 151 -52.5 227t-146.5 76q-99 0 -164 -86t-65 -223v-731
h-43z" />
    <glyph glyph-name="uni0446.bgr" horiz-adv-x="749" 
d="M686 -213v213h-100v186q-22 -82 -87.5 -141t-154.5 -59q-113 0 -178.5 90.5t-65.5 257.5v733h43v-733q0 -146 53.5 -226.5t151.5 -80.5q95 0 166.5 89.5t71.5 225.5v725h43v-1028h100v-252h-43z" />
    <glyph glyph-name="uni0448.bgr" horiz-adv-x="1196" 
d="M1087 1067v-1067h-43v180q-26 -84 -84 -139t-149 -55q-84 0 -141 51t-80 153q-28 -89 -88.5 -146.5t-159.5 -57.5q-113 0 -177.5 86.5t-64.5 255.5v739h43v-737q0 -150 53 -226.5t148 -76.5q101 0 165 84t64 225v731h43v-737q0 -151 52.5 -227t146.5 -76q99 0 164 86
t65 223v731h43z" />
    <glyph glyph-name="uni0449.bgr" horiz-adv-x="1208" 
d="M1087 1067v-1028h101v-252h-43v213h-101v180q-26 -84 -84 -139t-149 -55q-84 0 -141 51t-80 153q-28 -89 -88.5 -146.5t-159.5 -57.5q-113 0 -177.5 86.5t-64.5 255.5v739h43v-737q0 -150 53 -226.5t148 -76.5q101 0 165 84t64 225v731h43v-737q0 -151 52.5 -227
t146.5 -76q99 0 164 86t65 223v731h43z" />
    <glyph glyph-name="uni044E.bgr" horiz-adv-x="989" 
d="M152 520v-520h-43v1448h43v-889h192q4 235 86.5 378.5t202.5 143.5q124 0 207.5 -148t83.5 -392v-15q0 -244 -83.5 -392t-207.5 -148q-121 0 -205 147t-84 387h-192zM633 27q105 0 175.5 141t70.5 358v15q0 217 -70.5 358t-175.5 141t-174.5 -141t-69.5 -358v-15
q0 -217 69.5 -358t174.5 -141z" />
    <glyph glyph-name="aacute.alt" horiz-adv-x="749" 
d="M354 -14q-125 0 -205.5 153.5t-80.5 386.5v15q0 233 80.5 386.5t205.5 153.5q45 0 83 -20t63.5 -49.5t46.5 -69.5t32 -73t19 -68v266h43v-1067h-43v266q-8 -35 -19 -68t-32 -73t-46.5 -69.5t-63.5 -49.5t-83 -20zM356 27q104 0 174 146t70 353v15q0 207 -70 353t-174 146
q-72 0 -128 -68t-85.5 -181.5t-29.5 -249.5v-15q0 -136 29.5 -249.5t85.5 -181.5t128 -68zM373 1190l137 242l45 -23l-162 -219h-20z" />
    <glyph glyph-name="abreve.alt" horiz-adv-x="749" 
d="M354 -14q-125 0 -205.5 153.5t-80.5 386.5v15q0 233 80.5 386.5t205.5 153.5q45 0 83 -20t63.5 -49.5t46.5 -69.5t32 -73t19 -68v266h43v-1067h-43v266q-8 -35 -19 -68t-32 -73t-46.5 -69.5t-63.5 -49.5t-83 -20zM356 27q104 0 174 146t70 353v15q0 207 -70 353t-174 146
q-72 0 -128 -68t-85.5 -181.5t-29.5 -249.5v-15q0 -136 29.5 -249.5t85.5 -181.5t128 -68zM387 1196q-82 0 -130 51.5t-60 141.5h36q9 -67 46 -111.5t108 -44.5q127 0 154 156h37q-12 -90 -60.5 -141.5t-130.5 -51.5z" />
    <glyph glyph-name="acircumflex.alt" horiz-adv-x="749" 
d="M354 -14q-125 0 -205.5 153.5t-80.5 386.5v15q0 233 80.5 386.5t205.5 153.5q45 0 83 -20t63.5 -49.5t46.5 -69.5t32 -73t19 -68v266h43v-1067h-43v266q-8 -35 -19 -68t-32 -73t-46.5 -69.5t-63.5 -49.5t-83 -20zM356 27q104 0 174 146t70 353v15q0 207 -70 353t-174 146
q-72 0 -128 -68t-85.5 -181.5t-29.5 -249.5v-15q0 -136 29.5 -249.5t85.5 -181.5t128 -68zM233 1200l142 250h28l142 -250h-31l-125 201l-125 -201h-31z" />
    <glyph glyph-name="adieresis.alt" horiz-adv-x="749" 
d="M354 -14q-125 0 -205.5 153.5t-80.5 386.5v15q0 233 80.5 386.5t205.5 153.5q45 0 83 -20t63.5 -49.5t46.5 -69.5t32 -73t19 -68v266h43v-1067h-43v266q-8 -35 -19 -68t-32 -73t-46.5 -69.5t-63.5 -49.5t-83 -20zM356 27q104 0 174 146t70 353v15q0 207 -70 353t-174 146
q-72 0 -128 -68t-85.5 -181.5t-29.5 -249.5v-15q0 -136 29.5 -249.5t85.5 -181.5t128 -68zM440 1210v76h54v-76h-54zM281 1210v76h53v-76h-53z" />
    <glyph glyph-name="agrave.alt" horiz-adv-x="749" 
d="M354 -14q-125 0 -205.5 153.5t-80.5 386.5v15q0 233 80.5 386.5t205.5 153.5q45 0 83 -20t63.5 -49.5t46.5 -69.5t32 -73t19 -68v266h43v-1067h-43v266q-8 -35 -19 -68t-32 -73t-46.5 -69.5t-63.5 -49.5t-83 -20zM356 27q104 0 174 146t70 353v15q0 207 -70 353t-174 146
q-72 0 -128 -68t-85.5 -181.5t-29.5 -249.5v-15q0 -136 29.5 -249.5t85.5 -181.5t128 -68zM381 1190l-162 219l45 23l137 -242h-20z" />
    <glyph glyph-name="amacron.alt" horiz-adv-x="749" 
d="M354 -14q-125 0 -205.5 153.5t-80.5 386.5v15q0 233 80.5 386.5t205.5 153.5q45 0 83 -20t63.5 -49.5t46.5 -69.5t32 -73t19 -68v266h43v-1067h-43v266q-8 -35 -19 -68t-32 -73t-46.5 -69.5t-63.5 -49.5t-83 -20zM356 27q104 0 174 146t70 353v15q0 207 -70 353t-174 146
q-72 0 -128 -68t-85.5 -181.5t-29.5 -249.5v-15q0 -136 29.5 -249.5t85.5 -181.5t128 -68zM223 1214v37h328v-37h-328z" />
    <glyph glyph-name="aogonek.alt" horiz-adv-x="749" 
d="M666 -190v-31q-16 -2 -35 -2q-101 0 -101 76q0 59 76 147h-8v266q-8 -35 -19 -68t-32 -73t-46.5 -69.5t-63.5 -49.5t-83 -20q-125 0 -205.5 153.5t-80.5 386.5v15q0 233 80.5 386.5t205.5 153.5q45 0 83 -20t63.5 -49.5t46.5 -69.5t32 -73t19 -68v266h43v-1067h-8
q-62 -90 -62 -139q0 -28 19 -40t76 -11zM356 27q104 0 174 146t70 353v15q0 207 -70 353t-174 146q-72 0 -128 -68t-85.5 -181.5t-29.5 -249.5v-15q0 -136 29.5 -249.5t85.5 -181.5t128 -68z" />
    <glyph glyph-name="aring.alt" horiz-adv-x="749" 
d="M354 -14q-125 0 -205.5 153.5t-80.5 386.5v15q0 233 80.5 386.5t205.5 153.5q45 0 83 -20t63.5 -49.5t46.5 -69.5t32 -73t19 -68v266h43v-1067h-43v266q-8 -35 -19 -68t-32 -73t-46.5 -69.5t-63.5 -49.5t-83 -20zM356 27q104 0 174 146t70 353v15q0 207 -70 353t-174 146
q-72 0 -128 -68t-85.5 -181.5t-29.5 -249.5v-15q0 -136 29.5 -249.5t85.5 -181.5t128 -68zM387 1210q-62 0 -101.5 42t-39.5 104t39.5 103.5t101.5 41.5t101.5 -41.5t39.5 -103.5t-39.5 -104t-101.5 -42zM387 1237q50 0 81.5 33.5t31.5 85.5t-31.5 85.5t-81.5 33.5
t-81.5 -33.5t-31.5 -85.5t31.5 -85.5t81.5 -33.5z" />
    <glyph glyph-name="aring.alt2" horiz-adv-x="673" 
d="M293 -14q-111 0 -173.5 86t-62.5 239v6q0 159 71.5 249.5t209.5 90.5q107 0 194 -53v176q0 122 -58 189t-167 67q-93 0 -188 -53v47q69 37 145 45q-59 41 -59 121q0 62 39.5 103.5t101.5 41.5t101.5 -41.5t39.5 -103.5q0 -96 -81 -133q56 -20 94 -55q75 -75 75 -220v-788
h-43v193q-31 -89 -91.5 -148t-147.5 -59zM297 27q96 0 165.5 101.5t69.5 227.5v203q-93 57 -196 57q-119 0 -176.5 -78.5t-57.5 -220.5v-6q0 -132 50 -208t145 -76zM233 1196q0 -52 31.5 -85.5t81.5 -33.5t81.5 33.5t31.5 85.5t-31.5 85.5t-81.5 33.5t-81.5 -33.5
t-31.5 -85.5z" />
    <glyph glyph-name="aringacute.alt" horiz-adv-x="749" 
d="M373 1559l116 161l46 -22l-142 -139h-20zM354 -14q-125 0 -205.5 153.5t-80.5 386.5v15q0 233 80.5 386.5t205.5 153.5q45 0 83 -20t63.5 -49.5t46.5 -69.5t32 -73t19 -68v266h43v-1067h-43v266q-8 -35 -19 -68t-32 -73t-46.5 -69.5t-63.5 -49.5t-83 -20zM356 27
q104 0 174 146t70 353v15q0 207 -70 353t-174 146q-72 0 -128 -68t-85.5 -181.5t-29.5 -249.5v-15q0 -136 29.5 -249.5t85.5 -181.5t128 -68zM385 1200q-62 0 -101.5 42t-39.5 104t39.5 103.5t101.5 41.5t101.5 -41.5t39.5 -103.5t-39.5 -104t-101.5 -42zM385 1227
q50 0 81.5 33.5t31.5 85.5t-31.5 85t-81.5 33t-81.5 -33t-31.5 -85t31.5 -85.5t81.5 -33.5z" />
    <glyph glyph-name="aringacute.alt2" horiz-adv-x="673" 
d="M334 1409l117 162l45 -23l-142 -139h-20zM293 -14q-111 0 -173.5 86t-62.5 239v6q0 159 71.5 249.5t209.5 90.5q107 0 194 -53v176q0 122 -58 189t-167 67q-93 0 -188 -53v47q69 37 145 45q-59 41 -59 121q0 62 39.5 103.5t101.5 41.5t101.5 -41.5t39.5 -103.5
q0 -96 -81 -133q56 -20 94 -55q75 -75 75 -220v-788h-43v193q-31 -89 -91.5 -148t-147.5 -59zM297 27q96 0 165.5 101.5t69.5 227.5v203q-93 57 -196 57q-119 0 -176.5 -78.5t-57.5 -220.5v-6q0 -132 50 -208t145 -76zM233 1196q0 -52 31.5 -85.5t81.5 -33.5t81.5 33.5
t31.5 85.5t-31.5 85.5t-81.5 33.5t-81.5 -33.5t-31.5 -85.5z" />
    <glyph glyph-name="atilde.alt" horiz-adv-x="749" 
d="M354 -14q-125 0 -205.5 153.5t-80.5 386.5v15q0 233 80.5 386.5t205.5 153.5q45 0 83 -20t63.5 -49.5t46.5 -69.5t32 -73t19 -68v266h43v-1067h-43v266q-8 -35 -19 -68t-32 -73t-46.5 -69.5t-63.5 -49.5t-83 -20zM356 27q104 0 174 146t70 353v15q0 207 -70 353t-174 146
q-72 0 -128 -68t-85.5 -181.5t-29.5 -249.5v-15q0 -136 29.5 -249.5t85.5 -181.5t128 -68zM469 1212q-34 0 -86 52q-32 32 -48 43.5t-32 11.5q-45 0 -72 -109l-32 9q33 137 106 137q24 0 42.5 -13.5t51.5 -46.5q47 -47 72 -47q45 0 72 109l32 -8q-34 -138 -106 -138z" />
    <glyph glyph-name="i.dot" horiz-adv-x="276" 
d="M113 1331v117h51v-117h-51zM117 0v1067h43v-1067h-43z" />
    <glyph glyph-name="uni0386.calt" horiz-adv-x="786" 
d="M55 0l316 1444h45l315 -1444h-47l-94 434h-395l-93 -434h-47zM205 475h377l-189 879z" />
    <glyph glyph-name="uni0388.calt" horiz-adv-x="641" 
d="M115 0v1434h463v-41h-418v-650h383v-41h-383v-661h424v-41h-469z" />
    <glyph glyph-name="uni0389.calt" horiz-adv-x="827" 
d="M115 0v1434h45v-691h508v691h45v-1434h-45v702h-508v-702h-45z" />
    <glyph glyph-name="uni038A.calt" horiz-adv-x="294" 
d="M125 0v1434h45v-1434h-45z" />
    <glyph glyph-name="uni038C.calt" horiz-adv-x="811" 
d="M406 -14q-145 0 -237.5 189t-92.5 530v24q0 341 92.5 530t237.5 189t237 -189t92 -530v-24q0 -341 -92 -530t-237 -189zM406 27q123 0 203.5 181.5t80.5 496.5v24q0 315 -80.5 496.5t-203.5 181.5q-124 0 -204.5 -181.5t-80.5 -496.5v-24q0 -315 80.5 -496.5
t204.5 -181.5z" />
    <glyph glyph-name="uni038E.calt" horiz-adv-x="675" 
d="M315 0v618l-299 816h50l272 -758l272 758h49l-299 -816v-618h-45z" />
    <glyph glyph-name="uni038F.calt" horiz-adv-x="839" 
d="M420 1450q161 0 247.5 -143.5t86.5 -413.5v-8q0 -380 -234 -844h244v-41h-289v35q105 208 169.5 429.5t64.5 420.5v8q0 253 -74 384.5t-215 131.5t-215 -131.5t-74 -384.5v-8q0 -199 64.5 -420.5t169.5 -429.5v-35h-289v41h241q-231 459 -231 844v8q0 270 86.5 413.5
t247.5 143.5z" />
    <glyph glyph-name="uni0399.calt" horiz-adv-x="294" 
d="M125 0v1434h45v-1434h-45zM203 1536v76h53v-76h-53zM43 1536v76h53v-76h-53z" />
    <glyph glyph-name="uni03A5.calt" horiz-adv-x="675" 
d="M315 0v618l-299 816h50l272 -758l272 758h49l-299 -816v-618h-45zM393 1528v76h53v-76h-53zM233 1528v76h54v-76h-54z" />
    <glyph glyph-name="uni0431.srb" horiz-adv-x="729" 
d="M365 -14q-141 0 -219 137t-78 379v12q0 224 83.5 357t213.5 133q37 0 69 -13l-180 199q-56 59 -74 89t-18 67q0 46 30 74t93 28h319v-39h-323q-76 0 -76 -63q0 -28 16 -53t66 -79l221 -247q154 -168 154 -453v-12q0 -242 -78 -379t-219 -137zM365 27q122 0 186.5 127.5
t64.5 347.5v12q0 196 -68 322.5t-183 126.5q-112 0 -182 -121.5t-70 -327.5v-12q0 -220 65 -347.5t187 -127.5z" />
    <glyph glyph-name="three.alt" horiz-adv-x="589" 
d="M205 -8q-80 0 -170 37v43q95 -39 172 -39q119 0 197.5 98.5t78.5 261.5v4q0 144 -85.5 237t-235.5 93v37h2q72 2 132.5 34t99 82.5t60 110.5t21.5 121v4q0 131 -63.5 208t-177.5 77q-100 0 -177 -49v43q88 47 179 47q131 0 207.5 -92.5t76.5 -227.5v-8q0 -130 -74.5 -232
t-183.5 -132q120 -27 192 -118.5t72 -236.5v-4q0 -177 -92.5 -288t-230.5 -111z" />
    <glyph glyph-name="registered.alt" horiz-adv-x="1050" 
d="M524 -20q-143 0 -252.5 95.5t-166 254t-56.5 352.5v72q0 195 56.5 353.5t165.5 253.5t253 95t254 -95t166.5 -253.5t56.5 -353.5v-72q0 -194 -56.5 -352.5t-166.5 -254t-254 -95.5zM524 12q103 0 187.5 53t140 144.5t85.5 213t30 259.5v72q0 186 -51 336t-153.5 241.5
t-238.5 91.5q-135 0 -236.5 -92.5t-152.5 -243t-51 -333.5v-72q0 -186 51 -336.5t152.5 -242t236.5 -91.5zM383 336v788h90q127 0 189 -80q45 -57 45 -155v-6q0 -73 -34 -127t-91 -78l141 -342h-45l-135 326q-21 -9 -78 -9h-41v-317h-41zM424 690h41q97 0 149 52t52 141v6
q0 101 -51.5 148.5t-141.5 47.5h-49v-395z" />
    <glyph glyph-name="hcoslug" horiz-adv-x="1421" 
d="M506 37h53q3 45 -39 45q-19 0 -30 -11.5t-11 -31.5q3 -41 43 -41q31 0 37 29h-14q-3 -15 -19 -15q-20 0 -20 25zM520 72q15 0 15 -25h-29q0 25 14 25zM399 160q-16 0 -16 33q0 30 16 30q17 0 17 -30q0 -33 -17 -33zM430 8q-16 0 -16 33q0 31 16 31t16 -31q0 -33 -16 -33z
M430 -2q19 0 31 12t12 31t-12 30t-31 11t-31 -11t-12 -30q0 -20 12 -31.5t31 -11.5zM1118 8q-16 0 -16 33q0 31 16 31q17 0 17 -31q0 -33 -17 -33zM1118 -2q19 0 31 12t12 31t-12 30t-31 11t-31 -11t-12 -30q0 -20 12 -31.5t31 -11.5zM256 166v-14h61v14h-20v33h8
q9 0 12 -17h15v47h-15q-3 -16 -12 -16h-8v37h25q10 0 13.5 -4.5t8.5 -22.5h16v41h-104v-14h14v-84h-14zM399 150q19 0 31 12t12 31q0 18 -12 29t-31 11t-31 -11t-12 -29q0 -20 12 -31.5t31 -11.5zM1319 1434v-1639h-1217v1639h1217zM1020 -2q46 0 49 47h-16q-3 -33 -29 -33
q-33 0 -33 45t29 45q23 0 31 -32h16v45h-16l-2 -13q-15 15 -33 15q-24 0 -39.5 -16.5t-15.5 -45.5q0 -57 59 -57zM762 164q-17 0 -17 26q0 27 17 27q14 0 14 -27q0 -26 -14 -26zM565 14v-14h47v14h-10v52h29v-52h-10v-14h47v14h-13v107l-20 -4q-12 4 -19 4q-38 0 -38 -39v-2
h-15v-14h15v-52h-13zM754 14v-14h53v14h-16v33q9 19 14 19v-3q0 -12 12 -12q14 0 14 15q0 16 -16 16q-14 0 -24 -23v21h-37v-14h12v-52h-12zM721 256v-106h12l8 16q10 -16 29 -16q17 0 25 13.5t8 29.5q0 40 -31 40q-21 0 -27 -18v55h-36v-14h12zM819 154q-14 0 -14 -15
q0 -18 22 -18q26 0 37 33l27 63h10v14h-35v-14h11l-17 -41l-18 41h12v14h-51v-14h10q5 -16 12 -27l21 -40q-3 -17 -17 -17q5 5 2.5 13t-12.5 8zM506 877q0 26 15 42.5t40 16.5q26 0 43 -21.5t17 -56.5q0 -46 -37 -102l-10 10q-26 26 -37.5 38.5t-21 32t-9.5 40.5zM618 180
v-28h15l2 8q10 -10 27 -10q28 0 28 26q0 19 -24.5 25t-24.5 12q0 8 10 8q13 0 21 -14h14v26h-12l-4 -10q-7 10 -23 10q-29 0 -29 -24q0 -19 25 -26t25 -13q0 -8 -11 -8q-12 0 -24 18h-15zM535 449q-47 0 -77 31t-30 79q0 49 33 82q62 -56 151 -168q-30 -24 -77 -24zM586 254
l-25 -4v-19h-14v-14h14v-41q0 -26 25 -26q22 0 28 26l-10 4q-3 -14 -10 -14q-8 0 -8 10v41h26v14h-26v23zM877 627q30 -52 88 -52q43 0 72.5 32t29.5 79t-29.5 77t-72.5 30q-69 0 -123 -78q-9 79 -101 76q19 32 19 69q0 60 -52.5 106t-142.5 46q-99 0 -161 -51.5t-62 -122.5
q0 -42 15 -73.5t49 -68.5q-168 -58 -168 -186q0 -81 65 -136t158 -55q129 0 213 93q50 -53 88 -73t86 -20q68 0 114 52t50 141l-15 4q-20 -30 -39 -44.5t-49 -14.5t-59 19.5t-68 64.5q42 55 95 86zM449 166v-14h45v14h-9v31q0 20 15 20q12 0 12 -14v-37h-8v-14h45v14h-12v39
q0 28 -25 28q-20 0 -29 -22v20h-34v-14h12v-51h-12zM950 68h-37v-15h13q-2 -7 -13 -18l-24 26q22 9 22 25q0 25 -28 25q-17 0 -26 -8t-9 -21t12 -25q-26 -9 -26 -30q0 -29 36 -29q19 0 31 12q9 -12 25 -12q20 0 26 25l-10 2q-4 -11 -8 -11q-5 0 -12 11q10 11 18 28h10v15z
M879 12q-21 0 -21 21q0 10 8 18q19 -19 29 -33q-9 -6 -16 -6zM602 80v6q0 25 12 25q5 0 7 -2q-3 -3 -3 -9q0 -10 13 -10v-10h-29zM870 88q0 10 11 10q12 0 12 -12q0 -11 -10 -18q-13 13 -13 20zM639 700q57 38 86 70q23 -23 29 -49t-2 -52.5t-29 -62.5q-68 78 -84 94z
M696 37h54q3 45 -39 45q-17 0 -29 -12t-12 -31q0 -41 43 -41q27 0 37 29h-15q-3 -15 -18 -15q-21 0 -21 25zM711 72q14 0 14 -25h-29q0 25 15 25zM254 14v-14h59v14h-16v37h45v-37h-16v-14h59v14h-16v84h16v15h-59v-15h16v-32h-45v32h16v15h-59v-15h16v-84h-16zM1180 27
q-15 0 -15 -15q0 -14 15 -14q14 0 14 14q0 15 -14 15z" />
    <glyph glyph-name="caron.alt" 
d="M430 1145l16 303h41v-4l-41 -299h-16z" />
    <glyph glyph-name="descendercyrillic" 
d="M492 -213v223h43v-223h-43z" />
    <glyph glyph-name="descendercyrillic.cap" 
d="M489 -229v241h46v-241h-46z" />
    <glyph glyph-name="straightdescendercyrillic" 
d="M489 -213v213h-69v39h112v-252h-43z" />
    <glyph glyph-name="straightdescendercyrillic.cap" 
d="M489 -229v229h-86v41h132v-270h-46z" />
    <glyph glyph-name="acute.cap" 
d="M412 1516l127 202l45 -22l-152 -180h-20z" />
    <glyph glyph-name="hungarumlaut.cap" 
d="M338 1516l127 204l45 -24l-152 -180h-20zM479 1516l121 204l45 -24l-145 -180h-21z" />
    <glyph glyph-name="grave.cap" 
d="M612 1516h-20l-152 180l45 22z" />
    <glyph glyph-name="circumflex.cap" 
d="M356 1526l142 198h28l142 -198h-31l-125 151l-125 -151h-31z" />
    <glyph glyph-name="caron.cap" 
d="M668 1724l-142 -198h-28l-142 198h31l125 -151l125 151h31z" />
    <glyph glyph-name="breve.cap" 
d="M512 1522q-76 0 -127.5 40t-62.5 121h36q11 -58 49.5 -91t104.5 -33t104.5 33t49.5 91h36q-11 -81 -62.5 -121t-127.5 -40z" />
    <glyph glyph-name="tilde.cap" 
d="M606 1534q-41 0 -100 47q-33 25 -49.5 34t-32.5 9q-22 0 -36.5 -20.5t-33.5 -69.5l-32 8q37 119 104 119q41 0 100 -47q33 -25 49.5 -34t32.5 -9q22 0 36.5 20.5t33.5 69.5l33 -8q-37 -119 -105 -119z" />
    <glyph glyph-name="macron.cap" 
d="M348 1540v37h328v-37h-328z" />
    <glyph glyph-name="dieresis.cap" 
d="M565 1536v76h53v-76h-53zM406 1536v76h53v-76h-53z" />
    <glyph glyph-name="dotaccent.cap" 
d="M483 1536v76h54v-76h-54z" />
    <glyph glyph-name="ring.cap" 
d="M512 1530q-64 0 -104.5 41t-40.5 98t40.5 98t104.5 41t104.5 -41t40.5 -98t-40.5 -98t-104.5 -41zM512 1559q52 0 83.5 32t31.5 78t-31.5 78.5t-83.5 32.5t-83.5 -32.5t-31.5 -78.5t31.5 -78t83.5 -32z" />
    <glyph glyph-name="uni0384.cap" 
d="M479 1135l17 299h49l-41 -299h-25z" />
    <glyph glyph-name="commaaccent.rot" 
d="M549 1425l14 -26q-26 -14 -37 -35t-10 -61h23v-103h-58v109q0 47 17 71.5t51 44.5z" />
    </font>
</defs>
</svg>
