<svg width="224" height="80" viewBox="0 0 224 80" fill="none" xmlns="http://www.w3.org/2000/svg">
<g clip-path="url(#clip0_544_3303)">
<path d="M45.7778 45.3795C44.6826 46.5933 43.2538 47.4539 41.6717 47.8526C40.0897 48.2512 38.4255 48.17 36.8894 47.6191C35.3533 47.0683 34.0143 46.0726 33.0416 44.7578C32.0689 43.4431 31.5061 41.8683 31.4244 40.2324C31.3427 38.5966 31.7457 36.9731 32.5826 35.5672C33.4194 34.1613 34.6524 33.0361 36.1259 32.3337C37.5994 31.6313 39.2472 31.3832 40.861 31.6209C42.4748 31.8586 43.9823 32.5713 45.1928 33.669C45.9992 34.398 46.6541 35.2797 47.1202 36.2636C47.5862 37.2474 47.854 38.3141 47.9084 39.4022C47.9627 40.4903 47.8025 41.5785 47.4369 42.6043C47.0712 43.63 46.5074 44.5732 45.7778 45.3795Z" fill="url(#paint0_radial_544_3303)"/>
<path d="M41.8127 11.4351C42.4951 12.1204 43.141 12.8179 43.7137 13.5154C45.7066 15.9027 47.3481 18.5648 48.5881 21.4203C50.5438 21.7866 52.5351 21.9262 54.5226 21.8363H54.8759H55.1928C60.6222 21.3381 65.6897 18.8872 69.4624 14.9348L69.962 14.4209C69.2065 13.5154 68.4388 12.6343 67.598 11.79C60.8865 5.07438 51.9928 1.00801 42.5419 0.333982C33.0911 -0.340043 23.7143 2.42329 16.125 8.119C28.189 2.22092 36.5606 6.2835 41.8127 11.4351Z" fill="url(#paint1_linear_544_3303)"/>
<path d="M13.8836 51.6453C14.1273 50.7031 14.4076 49.7975 14.7123 48.9532C15.7808 46.0294 17.2579 43.2731 19.0992 40.7669C18.4401 38.8847 17.5649 37.0861 16.4914 35.4072L16.2964 35.1013L16.1136 34.8443C12.987 30.4152 8.38236 27.2588 3.13572 25.9483L2.44113 25.7402C2.039 26.8415 1.67342 27.9551 1.35659 29.1053C-1.085 38.2965 -0.152163 48.063 3.98468 56.6206C8.12153 65.1782 15.1862 71.9556 23.8882 75.7148C12.7382 68.1281 12.0436 58.7793 13.8836 51.6453Z" fill="url(#paint2_linear_544_3303)"/>
<path d="M62.6398 55.891C61.7015 56.148 60.7754 56.356 59.8858 56.5151C56.8313 57.0462 53.7168 57.1368 50.6368 56.7843C49.3479 58.2822 48.2356 59.9247 47.3222 61.679C47.3222 61.7891 47.2126 61.887 47.1638 61.9971C47.1141 62.0927 47.0694 62.1907 47.0298 62.2908C44.7496 67.2264 44.317 72.8218 45.8112 78.0517C45.8112 78.2842 45.9452 78.5167 46.0183 78.7492C47.1638 78.5411 48.3215 78.3209 49.4669 78.015C58.5981 75.5338 66.5387 69.843 71.8436 61.9783C77.1485 54.1135 79.4651 44.5975 78.3717 35.1621C77.3969 48.6592 69.6832 53.9209 62.6398 55.891Z" fill="url(#paint3_linear_544_3303)"/>
<path d="M16.0657 8.11885C10.2886 12.1721 5.77218 17.7849 3.03906 24.308C7.10275 25.1696 10.8673 27.0948 13.9512 29.8885C17.035 32.6822 19.3284 36.245 20.5988 40.2157C21.6834 39.5182 25.0223 36.8628 27.2645 29.5697C29.9819 20.7471 35.1244 14.2372 41.8144 11.3983C41.8144 11.435 33.3452 -0.667086 16.0657 8.11885Z" fill="url(#paint4_linear_544_3303)"/>
<path d="M43.1877 71.6393C43.1829 65.7272 45.3877 60.0286 49.3659 55.6704L49.4268 55.5847C48.6104 54.7159 45.7711 52.5868 38.4596 54.2509C29.5517 56.2945 19.6568 56.062 13.8808 51.6445C13.8808 51.6445 7.66599 65.1049 23.8853 75.6896C30.2595 78.6881 37.349 79.8124 44.3332 78.9323C43.5554 76.5809 43.1684 74.1169 43.1877 71.6393Z" fill="url(#paint5_linear_544_3303)"/>
<path d="M70.9313 15.7422C68.7494 18.2324 66.0652 20.2282 63.0567 21.5974C60.0482 22.9666 56.7842 23.6778 53.4811 23.6838C51.7407 23.6776 50.0054 23.4931 48.3022 23.1331H48.2169C47.8757 24.3568 47.6076 27.8443 52.5428 33.1795C58.7942 39.9586 63.5101 48.6711 62.6449 55.903C62.6449 55.903 77.2679 54.5936 78.3768 35.174C77.7729 28.1205 75.1914 21.3831 70.9313 15.7422Z" fill="url(#paint6_linear_544_3303)"/>
<path d="M96.5597 49.8586H92.4531V30.6348H99.0457C103.92 30.6348 106.893 32.6416 106.893 37.059C106.893 41.4765 103.774 43.8504 98.7045 43.8504H96.5597V49.8586ZM96.4744 40.2161H98.7045C101.142 40.2161 102.64 39.2616 102.64 37.2303C102.64 35.199 101.263 34.2691 98.7045 34.2691H96.4744V40.2161Z" fill="#1A1A1A"/>
<path d="M109.883 40.2531C109.883 33.7921 113.794 30.3047 119.071 30.3047C124.981 30.3047 128.405 34.0736 128.405 40.2531C128.405 47.0934 124.433 50.1893 119.181 50.1893C113.636 50.1893 109.883 46.7508 109.883 40.2531ZM124.055 40.2531C124.055 35.8846 122.056 33.939 119.071 33.939C116.366 33.939 114.197 35.9703 114.197 40.2531C114.197 44.5359 116.414 46.5672 119.29 46.5672C122.166 46.5672 124.055 44.5604 124.055 40.2531Z" fill="#1A1A1A"/>
<path d="M146.662 49.0873C145.063 49.908 143.276 50.288 141.483 50.1886C135.634 50.1886 131.734 46.8113 131.734 40.4972C131.734 33.8772 135.585 30.304 141.849 30.304C143.518 30.2652 145.178 30.5735 146.723 31.2096L145.821 34.6725C144.742 34.3192 143.617 34.1254 142.482 34.0974C138.705 34.0974 136.133 35.9941 136.133 40.2158C136.133 44.2783 138.571 46.3341 142.458 46.3341C143.622 46.2964 144.77 46.0476 145.846 45.5999L146.662 49.0873Z" fill="#1A1A1A"/>
<path d="M161.667 44.7314H153.539L151.687 49.8586H149.25L156.561 30.6348H158.999L166.164 49.8586H163.593L161.667 44.7314ZM154.283 42.4799H160.851L157.658 33.437H157.549L154.283 42.4799Z" fill="#1A1A1A"/>
<path d="M174.627 49.8586H172.19V32.9475H166.523V30.6348H180.306V32.9475H174.627V49.8586Z" fill="#1A1A1A"/>
<path d="M182.883 40.2525C182.883 34.1341 186.417 30.3652 191.413 30.3652C197.104 30.3652 200.162 34.4278 200.162 40.2525C200.162 46.7869 196.507 50.1397 191.498 50.1397C186.246 50.1397 182.883 46.3463 182.883 40.2525ZM197.603 40.2525C197.603 34.9785 195.251 32.6657 191.51 32.6657C188.147 32.6657 185.552 35.1131 185.552 40.2525C185.552 45.3919 188.062 47.827 191.839 47.827C195.385 47.827 197.603 45.2206 197.603 40.2525Z" fill="#1A1A1A"/>
<path d="M224.011 49.8586H221.574L220.356 34.8442L215.481 49.8586H212.91L208.109 34.8931L206.89 49.8586H204.453L206.086 30.6348H209.096L214.263 47.1665L219.356 30.6348H222.366L224.011 49.8586Z" fill="#1A1A1A"/>
</g>
<defs>
<radialGradient id="paint0_radial_544_3303" cx="0" cy="0" r="1" gradientUnits="userSpaceOnUse" gradientTransform="translate(37.0878 33.972) scale(11.5859 11.6343)">
<stop stop-color="#4495D1"/>
<stop offset="1" stop-color="#15256D"/>
</radialGradient>
<linearGradient id="paint1_linear_544_3303" x1="28.3597" y1="2.91494" x2="63.0734" y2="16.8321" gradientUnits="userSpaceOnUse">
<stop stop-color="#4495D1"/>
<stop offset="1" stop-color="#15256D"/>
</linearGradient>
<linearGradient id="paint2_linear_544_3303" x1="13.2913" y1="67.6489" x2="8.01226" y2="30.4961" gradientUnits="userSpaceOnUse">
<stop stop-color="#4495D1"/>
<stop offset="1" stop-color="#15256D"/>
</linearGradient>
<linearGradient id="paint3_linear_544_3303" x1="76.7448" y1="48.4197" x2="47.2261" y2="71.4452" gradientUnits="userSpaceOnUse">
<stop stop-color="#4495D1"/>
<stop offset="1" stop-color="#15256D"/>
</linearGradient>
<linearGradient id="paint4_linear_544_3303" x1="14.4816" y1="29.5575" x2="30.1585" y2="5.59662" gradientUnits="userSpaceOnUse">
<stop stop-color="#4495D1"/>
<stop offset="1" stop-color="#15256D"/>
</linearGradient>
<linearGradient id="paint5_linear_544_3303" x1="43.9676" y1="63.7956" x2="16.0109" y2="66.6354" gradientUnits="userSpaceOnUse">
<stop stop-color="#4495D1"/>
<stop offset="1" stop-color="#15256D"/>
</linearGradient>
<linearGradient id="paint6_linear_544_3303" x1="61.9747" y1="23.1943" x2="67.7112" y2="52.076" gradientUnits="userSpaceOnUse">
<stop stop-color="#4495D1"/>
<stop offset="1" stop-color="#15256D"/>
</linearGradient>
<clipPath id="clip0_544_3303">
<rect width="224" height="79" fill="white" transform="translate(0 0.25)"/>
</clipPath>
</defs>
</svg>
