<svg width="244" height="58" viewBox="0 0 244 58" fill="none" xmlns="http://www.w3.org/2000/svg">
<path d="M137.148 1.10547L107.086 5.04047V13.9542L137.148 11.2662V1.10547Z" fill="#E4003A"/>
<path d="M20.5798 19.0043C15.6717 19.0043 11.6826 22.0382 10.6936 23.2942V19.6536H1.98438V56.8945H10.639V43.6484C11.655 44.9318 15.6166 47.9111 20.5523 47.9111C28.7427 47.9111 33.2533 43.4573 33.2533 33.4365C33.2533 23.4152 28.7488 19.0043 20.5798 19.0043ZM17.4794 40.6968C12.3227 40.6968 10.6997 38.8189 10.6997 33.4154C10.6997 28.0119 12.3105 26.1339 17.4794 26.1339C22.6482 26.1339 24.2288 27.9846 24.2288 33.4154C24.2288 38.8461 22.6725 40.6847 17.4794 40.6847V40.6968Z" fill="#00274F"/>
<path d="M45.3012 33.5713C45.3012 38.9808 46.9121 40.8528 52.0809 40.8528C57.2498 40.8528 58.8336 38.9718 58.8336 33.5713C58.8336 28.1709 57.274 26.2898 52.0809 26.2898C46.8872 26.2898 45.3012 28.1345 45.3012 33.5713ZM36.2188 33.4924C36.2188 23.5805 41.7156 19.0449 52.0809 19.0449C62.4462 19.0449 67.9673 23.5806 67.9673 33.4924C67.9673 43.4043 62.5068 48.0974 52.0809 48.0974C41.655 48.0974 36.2188 43.4039 36.2188 33.4924Z" fill="#00274F"/>
<path d="M93.2398 36.9254C92.5601 39.7863 90.7403 40.8542 86.7964 40.8542C81.6396 40.8542 80.0194 38.9732 80.0194 33.5727C80.0194 28.1723 81.6396 26.2913 86.7964 26.2913C90.7403 26.2913 92.5601 27.3562 93.2426 30.2354L102.325 29.5467C100.969 22.3867 95.6511 19.0586 86.7964 19.0586C76.4311 19.0586 70.9375 23.5943 70.9375 33.5061C70.9375 43.4179 76.3974 48.1111 86.7964 48.1111C95.6451 48.1111 100.908 44.7131 102.297 37.623L93.2398 36.9254Z" fill="#00274F"/>
<path d="M131.468 21.5338L107.098 5.05078V13.943L114.697 19.1006L116.192 19.9744C113.462 20.0078 112.154 20.563 110.841 21.3579C107.088 23.6242 105.141 27.6108 105.141 33.4937C105.141 43.4056 110.601 48.0987 121.003 48.0987C131.405 48.0987 136.893 43.4052 136.893 33.4937C136.893 27.7567 135.036 23.8334 131.468 21.5338ZM121.003 40.8506C115.846 40.8506 114.223 38.9696 114.223 33.5691C114.223 28.1686 115.834 26.2876 121.003 26.2876C126.172 26.2876 127.755 28.1322 127.755 33.5691C127.755 39.006 126.199 40.8506 121.003 40.8506Z" fill="#00274F"/>
<path d="M139.883 33.4364C139.883 43.4483 144.388 47.911 152.584 47.911C157.517 47.911 161.478 44.9317 162.494 43.6483V47.0342H171.152V19.635H162.443V23.2757C161.448 22.0379 157.459 19.0039 152.554 19.0039C144.385 19.0039 139.883 23.4424 139.883 33.4364ZM148.905 33.397C148.905 27.9602 150.461 26.1155 155.657 26.1155C160.854 26.1155 162.434 27.9661 162.434 33.397C162.434 38.8276 160.823 40.6784 155.657 40.6784C150.491 40.6784 148.901 38.8065 148.901 33.397H148.905Z" fill="#00274F"/>
<path d="M196.434 19.6699V29.7818H184.944V19.6699H176.234V47.036H184.944V36.7843H196.434V47.036H205.147V19.6699H196.434Z" fill="#00274F"/>
<path d="M242.023 47.0327L228.239 32.6641L241.283 19.6699H230.508L218.82 31.5566V19.6699H210.266V47.0327H218.82V34.4329L230.826 47.0327H242.023Z" fill="#00274F"/>
</svg>
