<svg width="234" height="80" viewBox="0 0 234 80" fill="none" xmlns="http://www.w3.org/2000/svg">
<path d="M115.616 32.4251C115.616 31.6429 115.488 30.9627 115.231 30.3837C114.972 29.8039 114.581 29.3319 114.055 28.9655C113.599 28.6524 113.066 28.4263 112.461 28.2945C111.851 28.1624 111.095 28.0981 110.191 28.0981H107.799V37.1672H109.769C110.936 37.1672 111.878 37.0686 112.597 36.8707C113.317 36.6715 113.914 36.32 114.392 35.8098C114.818 35.353 115.13 34.8555 115.324 34.3174C115.52 33.7772 115.616 33.1498 115.616 32.4251ZM118.621 32.3502C118.621 33.3359 118.454 34.2683 118.116 35.1466C117.781 36.0267 117.318 36.7764 116.725 37.3944C115.975 38.1668 115.096 38.754 114.085 39.15C113.073 39.5454 111.795 39.7443 110.25 39.7443H107.799V48.2046H104.914V25.5059H110.367C111.649 25.5059 112.743 25.6165 113.647 25.8404C114.552 26.0648 115.348 26.4266 116.04 26.9241C116.845 27.502 117.479 28.2355 117.936 29.1255C118.391 30.0155 118.621 31.0903 118.621 32.3502Z" fill="#231F20"/>
<path d="M115.616 32.4251C115.616 31.6429 115.488 30.9627 115.231 30.3837C114.972 29.8039 114.581 29.3319 114.055 28.9655C113.599 28.6524 113.066 28.4263 112.461 28.2945C111.851 28.1624 111.095 28.0981 110.191 28.0981H107.799V37.1672H109.769C110.936 37.1672 111.878 37.0686 112.597 36.8707C113.317 36.6715 113.914 36.32 114.392 35.8098C114.818 35.353 115.13 34.8555 115.324 34.3174C115.52 33.7772 115.616 33.1498 115.616 32.4251ZM118.621 32.3502C118.621 33.3359 118.454 34.2683 118.116 35.1466C117.781 36.0267 117.318 36.7764 116.725 37.3944C115.975 38.1668 115.096 38.754 114.085 39.15C113.073 39.5454 111.795 39.7443 110.25 39.7443H107.799V48.2046H104.914V25.5059H110.367C111.649 25.5059 112.743 25.6165 113.647 25.8404C114.552 26.0648 115.348 26.4266 116.04 26.9241C116.845 27.502 117.479 28.2355 117.936 29.1255C118.391 30.0155 118.621 31.0903 118.621 32.3502Z" stroke="#231F20" stroke-width="0.904565" stroke-miterlimit="10"/>
<path d="M135.926 33.3984L127.164 53.6661H124.232L127.148 47.4884L121.227 33.3984H124.187L128.636 44.3606L133.068 33.3984H135.926Z" fill="#231F20"/>
<path d="M135.926 33.3984L127.164 53.6661H124.232L127.148 47.4884L121.227 33.3984H124.187L128.636 44.3606L133.068 33.3984H135.926Z" stroke="#231F20" stroke-width="0.904565" stroke-miterlimit="10"/>
<path d="M145.223 48.5364C144.107 48.5364 143.08 48.3781 142.145 48.0672C141.214 47.7531 140.411 47.2766 139.741 46.6416C139.071 46.005 138.549 45.2019 138.181 44.2349C137.81 43.2661 137.625 42.1285 137.625 40.8233C137.625 39.5224 137.818 38.3999 138.203 37.4549C138.587 36.5098 139.099 35.7148 139.741 35.069C140.381 34.426 141.182 33.9267 142.141 33.5794C143.097 33.2282 144.124 33.0547 145.223 33.0547C146.119 33.0547 146.982 33.1678 147.813 33.3992C148.643 33.6289 149.383 33.8942 150.034 34.1941V36.9928H149.875C149.682 36.8408 149.433 36.6681 149.125 36.4737C148.818 36.2801 148.446 36.0819 148.011 35.8776C147.632 35.701 147.183 35.5473 146.667 35.4135C146.151 35.2817 145.656 35.2156 145.179 35.2156C143.762 35.2156 142.622 35.7039 141.759 36.6797C140.9 37.6566 140.469 39.037 140.469 40.8233C140.469 42.5733 140.888 43.9356 141.717 44.9115C142.547 45.8873 143.702 46.376 145.179 46.376C146.075 46.376 146.924 46.2095 147.733 45.8728C148.539 45.5382 149.254 45.1051 149.875 44.5723H150.034V47.3698C149.764 47.4847 149.423 47.6239 149.015 47.7878C148.609 47.9531 148.237 48.0726 147.905 48.152C147.442 48.2761 147.023 48.3718 146.653 48.4389C146.283 48.5022 145.807 48.5364 145.223 48.5364Z" fill="#231F20"/>
<path d="M145.223 48.5364C144.107 48.5364 143.08 48.3781 142.145 48.0672C141.214 47.7531 140.411 47.2766 139.741 46.6416C139.071 46.005 138.549 45.2019 138.181 44.2349C137.81 43.2661 137.625 42.1285 137.625 40.8233C137.625 39.5224 137.818 38.3999 138.203 37.4549C138.587 36.5098 139.099 35.7148 139.741 35.069C140.381 34.426 141.182 33.9267 142.141 33.5794C143.097 33.2282 144.124 33.0547 145.223 33.0547C146.119 33.0547 146.982 33.1678 147.813 33.3992C148.643 33.6289 149.383 33.8942 150.034 34.1941V36.9928H149.875C149.682 36.8408 149.433 36.6681 149.125 36.4737C148.818 36.2801 148.446 36.0819 148.011 35.8776C147.632 35.701 147.183 35.5473 146.667 35.4135C146.151 35.2817 145.656 35.2156 145.179 35.2156C143.762 35.2156 142.622 35.7039 141.759 36.6797C140.9 37.6566 140.469 39.037 140.469 40.8233C140.469 42.5733 140.888 43.9356 141.717 44.9115C142.547 45.8873 143.702 46.376 145.179 46.376C146.075 46.376 146.924 46.2095 147.733 45.8728C148.539 45.5382 149.254 45.1051 149.875 44.5723H150.034V47.3698C149.764 47.4847 149.423 47.6239 149.015 47.7878C148.609 47.9531 148.237 48.0726 147.905 48.152C147.442 48.2761 147.023 48.3718 146.653 48.4389C146.283 48.5022 145.807 48.5364 145.223 48.5364Z" stroke="#231F20" stroke-width="0.904565" stroke-miterlimit="10"/>
<path d="M167.04 28.1896H157.051V48.2046H154.164V25.5059H167.04V28.1896Z" fill="#231F20"/>
<path d="M167.04 28.1896H157.051V48.2046H154.164V25.5059H167.04V28.1896Z" stroke="#231F20" stroke-width="0.904565" stroke-miterlimit="10"/>
<path d="M178.958 48.2057H176.243V37.1629L168.574 48.2057H166.094V33.3984H168.807V44.2677L176.39 33.3984H178.958V48.2057Z" fill="#231F20"/>
<path d="M178.958 48.2057H176.243V37.1629L168.574 48.2057H166.094V33.3984H168.807V44.2677L176.39 33.3984H178.958V48.2057Z" stroke="#231F20" stroke-width="0.904565" stroke-miterlimit="10"/>
<path d="M193.782 46.083V35.4932H189.115C188.989 37.7021 188.657 39.7181 188.116 41.545C187.577 43.3678 186.899 44.8817 186.081 46.083H193.782ZM198.142 51.7568H195.589V48.1651H184.857V51.7568H182.305V46.083H183.385C184.308 44.7054 185.063 42.9046 185.651 40.683C186.241 38.4589 186.534 36.0324 186.534 33.3984H196.523V46.083H198.142V51.7568Z" fill="#231F20"/>
<path d="M193.782 46.083V35.4932H189.115C188.989 37.7021 188.657 39.7181 188.116 41.545C187.577 43.3678 186.899 44.8817 186.081 46.083H193.782ZM198.142 51.7568H195.589V48.1651H184.857V51.7568H182.305V46.083H183.385C184.308 44.7054 185.063 42.9046 185.651 40.683C186.241 38.4589 186.534 36.0324 186.534 33.3984H196.523V46.083H198.142V51.7568Z" stroke="#231F20" stroke-width="0.904565" stroke-miterlimit="10"/>
<path d="M204.921 35.6688V45.7085C205.641 46.0275 206.258 45.9699 206.767 46.0829C207.276 46.1967 207.863 46.2575 208.522 46.2575C209.943 46.2575 211.048 45.7826 211.834 44.8376C212.621 43.8914 213.015 42.5085 213.015 40.6886C213.015 39.0015 212.72 38.2401 212.126 37.3078C211.534 36.375 210.57 35.9094 209.237 35.9094L204.921 35.6688ZM209.908 33.5359C211.775 33.5359 213.232 34.2061 214.276 35.5512C215.321 36.8944 215.843 38.1487 215.843 40.4109C215.843 42.8763 215.195 44.8393 213.897 46.3034C212.6 47.7644 210.959 48.4968 208.976 48.4968C208.17 48.4968 207.454 48.6876 206.834 48.5187C206.211 48.3512 205.574 48.6406 204.921 48.2863V53.6661H202.18V33.3984H204.921L209.908 33.5359Z" fill="#231F20"/>
<path d="M204.921 35.6688V45.7085C205.641 46.0275 206.258 45.9699 206.767 46.0829C207.276 46.1967 207.863 46.2575 208.522 46.2575C209.943 46.2575 211.048 45.7826 211.834 44.8376C212.621 43.8914 213.015 42.5085 213.015 40.6886C213.015 39.0015 212.72 38.2401 212.126 37.3078C211.534 36.375 210.57 35.9094 209.237 35.9094L204.921 35.6688ZM209.908 33.5359C211.775 33.5359 213.232 34.2061 214.276 35.5512C215.321 36.8944 215.843 38.1487 215.843 40.4109C215.843 42.8763 215.195 44.8393 213.897 46.3035C212.6 47.7644 210.959 48.4968 208.976 48.4968C208.17 48.4968 207.454 48.6876 206.834 48.5187C206.211 48.3512 205.574 48.6406 204.921 48.2863V53.6661H202.18V33.3984H204.921L209.908 33.5359Z" stroke="#231F20" stroke-width="0.904565" stroke-miterlimit="10"/>
<path d="M230.715 40.809C230.715 38.8898 230.334 37.4664 229.565 36.5336C228.796 35.6002 227.704 35.1363 226.283 35.1363C224.854 35.1363 223.755 35.6002 222.981 36.5336C222.207 37.4664 221.822 38.8898 221.822 40.809C221.822 42.6625 222.207 44.0707 222.981 45.0286C223.755 45.9899 224.854 46.4683 226.283 46.4683C227.692 46.4683 228.784 45.9981 229.558 45.0565C230.33 44.116 230.715 42.6985 230.715 40.809ZM233.545 40.809C233.545 43.3002 232.885 45.224 231.562 46.5825C230.24 47.9381 228.482 48.6147 226.283 48.6147C224.017 48.6147 222.237 47.9155 220.94 46.5146C219.641 45.1134 218.992 43.2122 218.992 40.809C218.992 38.3338 219.662 36.4135 220.997 35.0423C222.334 33.6711 224.097 32.9863 226.283 32.9863C228.482 32.9863 230.24 33.6693 231.562 35.0341C232.885 36.3997 233.545 38.3256 233.545 40.809Z" fill="#231F20"/>
<path d="M230.715 40.809C230.715 38.8898 230.334 37.4664 229.565 36.5336C228.796 35.6002 227.704 35.1363 226.283 35.1363C224.854 35.1363 223.755 35.6002 222.981 36.5336C222.207 37.4664 221.822 38.8898 221.822 40.809C221.822 42.6625 222.207 44.0707 222.981 45.0286C223.755 45.9899 224.854 46.4683 226.283 46.4683C227.692 46.4683 228.784 45.9981 229.558 45.0565C230.33 44.116 230.715 42.6985 230.715 40.809ZM233.545 40.809C233.545 43.3002 232.885 45.224 231.562 46.5825C230.24 47.9381 228.482 48.6147 226.283 48.6147C224.017 48.6147 222.237 47.9155 220.94 46.5146C219.641 45.1134 218.992 43.2122 218.992 40.809C218.992 38.3338 219.662 36.4135 220.997 35.0423C222.334 33.6711 224.097 32.9863 226.283 32.9863C228.482 32.9863 230.24 33.6693 231.562 35.0341C232.885 36.3997 233.545 38.3256 233.545 40.809Z" stroke="#231F20" stroke-width="0.904565" stroke-miterlimit="10"/>
<mask id="mask0_544_3320" style="mask-type:luminance" maskUnits="userSpaceOnUse" x="14" y="61" width="31" height="19">
<path d="M14.5 66.3485L19.2178 61.5392C19.2178 61.5392 26.9985 67.4826 32.2407 69.4046C37.4869 71.3273 41.2454 77.27 41.2454 77.27C41.2454 77.27 50.072 79.2814 37.048 79.5429C24.0258 79.8061 16.8586 73.4267 16.8586 73.4267L14.5 66.3485Z" fill="white"/>
</mask>
<g mask="url(#mask0_544_3320)">
<path d="M14.5 66.3485L19.2178 61.5392C19.2178 61.5392 26.9985 67.4826 32.2407 69.4046C37.4869 71.3273 41.2454 77.27 41.2454 77.27C41.2454 77.27 50.072 79.2814 37.048 79.5429C24.0258 79.8061 16.8586 73.4267 16.8586 73.4267L14.5 66.3485Z" fill="url(#paint0_radial_544_3320)"/>
</g>
<mask id="mask1_544_3320" style="mask-type:luminance" maskUnits="userSpaceOnUse" x="1" y="12" width="77" height="60">
<path d="M7.17855 38.3786C7.17855 38.3786 -5.58323 29.2903 6.74182 20.1117L18.54 12.8589C18.54 12.8589 19.7647 19.8506 48.5218 31.123C77.2774 42.3972 76.4021 46.4178 76.9283 47.73C77.454 49.0408 77.8894 54.7206 73.1708 60.6633C68.449 66.6073 59.7104 71.1523 59.7104 71.1523C59.7104 71.1523 61.7207 66.0827 54.9891 61.6247C48.2603 57.169 33.7498 50.6155 28.9447 48.5178C24.1335 46.4178 7.17855 38.3786 7.17855 38.3786Z" fill="white"/>
</mask>
<g mask="url(#mask1_544_3320)">
<path d="M7.17855 38.3786C7.17855 38.3786 -5.58323 29.2903 6.74182 20.1117L18.54 12.8589C18.54 12.8589 19.7647 19.8506 48.5218 31.123C77.2774 42.3972 76.4021 46.4178 76.9283 47.73C77.454 49.0408 77.8894 54.7206 73.1708 60.6633C68.449 66.6073 59.7104 71.1523 59.7104 71.1523C59.7104 71.1523 61.7207 66.0827 54.9891 61.6247C48.2603 57.169 33.7498 50.6155 28.9447 48.5178C24.1335 46.4178 7.17855 38.3786 7.17855 38.3786Z" fill="url(#paint1_radial_544_3320)"/>
</g>
<mask id="mask2_544_3320" style="mask-type:luminance" maskUnits="userSpaceOnUse" x="36" y="0" width="30" height="16">
<path d="M39.8528 0.270418C39.8528 0.270418 55.4123 0.708091 62.0553 7.17445C68.6979 13.6432 62.2302 13.381 61.4443 14.3424C60.6567 15.3031 57.072 15.916 57.072 15.916C57.072 15.916 45.0109 11.1958 37.055 3.41799C35.5703 1.0583 39.8528 0.270418 39.8528 0.270418Z" fill="white"/>
</mask>
<g mask="url(#mask2_544_3320)">
<path d="M39.8528 0.270418C39.8528 0.270418 55.4123 0.708091 62.0553 7.17445C68.6979 13.6432 62.2302 13.381 61.4443 14.3424C60.6567 15.3031 57.072 15.916 57.072 15.916C57.072 15.916 45.0109 11.1958 37.055 3.41799C35.5703 1.0583 39.8528 0.270418 39.8528 0.270418Z" fill="url(#paint2_radial_544_3320)"/>
</g>
<mask id="mask3_544_3320" style="mask-type:luminance" maskUnits="userSpaceOnUse" x="0" y="5" width="79" height="69">
<path d="M60.8921 5.98954C60.8921 5.98954 64.6481 10.4387 58.5614 14.2609C36.8839 28.2424 16.957 28.5046 0 45.2854C0 56.7341 12.2378 71.0654 17.0454 73.6895C17.0454 73.6895 13.6349 69.3208 20.3661 64.9496C27.0956 60.5799 44.1399 53.326 49.7348 51.2285C55.3287 49.1294 68.0013 43.4503 71.2359 40.915C74.4704 38.3814 76.305 37.5928 78.2275 33.3986C76.2188 20.7254 69.7487 11.7231 60.8921 5.98954Z" fill="white"/>
</mask>
<g mask="url(#mask3_544_3320)">
<path d="M60.8921 5.98954C60.8921 5.98954 64.6481 10.4387 58.5614 14.2609C36.8839 28.2424 16.957 28.5046 0 45.2854C0 56.7341 12.2378 71.0654 17.0454 73.6895C17.0454 73.6895 13.6349 69.3208 20.3661 64.9496C27.0956 60.5799 44.1399 53.326 49.7348 51.2285C55.3287 49.1294 68.0013 43.4503 71.2359 40.915C74.4704 38.3814 76.305 37.5928 78.2275 33.3986C76.2188 20.7254 69.7487 11.7231 60.8921 5.98954Z" fill="url(#paint3_radial_544_3320)"/>
</g>
<mask id="mask4_544_3320" style="mask-type:luminance" maskUnits="userSpaceOnUse" x="37" y="55" width="40" height="25">
<path d="M76.145 55.4248C76.145 55.4248 66.6171 64.3409 53.6796 70.108C41.2468 75.6504 38.8201 77.7109 37.4219 79.3697C37.5971 80.1575 38.472 79.9837 39.4334 79.9837C40.3945 79.9837 50.0102 79.1979 58.312 74.9144C66.6171 70.6326 72.2109 64.6882 76.145 55.4248Z" fill="white"/>
</mask>
<g mask="url(#mask4_544_3320)">
<path d="M76.145 55.4248C76.145 55.4248 66.6171 64.3409 53.6796 70.108C41.2468 75.6504 38.8201 77.7109 37.4219 79.3697C37.5971 80.1575 38.472 79.9837 39.4334 79.9837C40.3945 79.9837 50.0102 79.1979 58.312 74.9144C66.6171 70.6326 72.2109 64.6882 76.145 55.4248Z" fill="url(#paint4_radial_544_3320)"/>
</g>
<mask id="mask5_544_3320" style="mask-type:luminance" maskUnits="userSpaceOnUse" x="1" y="0" width="41" height="26">
<path d="M41.2549 0.0140133C37.8466 -0.0729065 12.0618 -0.423748 1.92188 25.7969C1.92188 25.7969 10.0372 16.7531 21.063 11.8146C32.776 6.56974 44.6629 0.102743 41.2549 0.0140133Z" fill="white"/>
</mask>
<g mask="url(#mask5_544_3320)">
<path d="M41.2549 0.0140133C37.8466 -0.0729065 12.0618 -0.423748 1.92188 25.7969C1.92188 25.7969 10.0372 16.7531 21.063 11.8146C32.776 6.56974 44.6629 0.102743 41.2549 0.0140133Z" fill="url(#paint5_radial_544_3320)"/>
</g>
<defs>
<radialGradient id="paint0_radial_544_3320" cx="0" cy="0" r="1" gradientUnits="userSpaceOnUse" gradientTransform="translate(2.43356 79.0517) scale(1.22715 1.22703)">
<stop stop-color="#F57D14"/>
<stop offset="1" stop-color="#F2521B"/>
</radialGradient>
<radialGradient id="paint1_radial_544_3320" cx="0" cy="0" r="1" gradientUnits="userSpaceOnUse" gradientTransform="translate(3.45058 76.1964) scale(3.38276 3.38242)">
<stop stop-color="#F57D14"/>
<stop offset="1" stop-color="#F2521B"/>
</radialGradient>
<radialGradient id="paint2_radial_544_3320" cx="0" cy="0" r="1" gradientUnits="userSpaceOnUse" gradientTransform="translate(4.59475 72.8044) scale(1.14273 1.14261)">
<stop stop-color="#F57D14"/>
<stop offset="1" stop-color="#F2521B"/>
</radialGradient>
<radialGradient id="paint3_radial_544_3320" cx="0" cy="0" r="1" gradientUnits="userSpaceOnUse" gradientTransform="translate(4.65427 74.5836) scale(5.70901 5.70844)">
<stop stop-color="#576EBE"/>
<stop offset="0.563636" stop-color="#293D9B"/>
<stop offset="0.678788" stop-color="#2B2F7F"/>
<stop offset="0.90303" stop-color="#293D9B"/>
<stop offset="1" stop-color="#576EBE"/>
</radialGradient>
<radialGradient id="paint4_radial_544_3320" cx="0" cy="0" r="1" gradientUnits="userSpaceOnUse" gradientTransform="translate(4.32227 78.357) scale(1.99936 1.99916)">
<stop stop-color="#2B2F7F"/>
<stop offset="0.661236" stop-color="#293D9B"/>
<stop offset="1" stop-color="#576EBE"/>
</radialGradient>
<radialGradient id="paint5_radial_544_3320" cx="0" cy="0" r="1" gradientUnits="userSpaceOnUse" gradientTransform="translate(4.65293 74.5858) scale(5.70912 5.70855)">
<stop stop-color="#576EBE"/>
<stop offset="0.563636" stop-color="#293D9B"/>
<stop offset="0.678788" stop-color="#2B2F7F"/>
<stop offset="0.90303" stop-color="#293D9B"/>
<stop offset="1" stop-color="#576EBE"/>
</radialGradient>
</defs>
</svg>
