<svg width="248" height="66" viewBox="0 0 248 66" fill="none" xmlns="http://www.w3.org/2000/svg">
<g clip-path="url(#clip0_544_3387)">
<mask id="mask0_544_3387" style="mask-type:luminance" maskUnits="userSpaceOnUse" x="0" y="0" width="248" height="66">
<path d="M247.5 0H0V66H247.5V0Z" fill="white"/>
</mask>
<g mask="url(#mask0_544_3387)">
<path d="M104.174 24.6797C100.923 24.6797 98.4916 25.8827 97.2887 27.8726H97.0286V25.291H91.0859V52.6352H97.0286V43.967H97.2887C98.4852 45.9569 100.923 47.1599 104.174 47.1599C110.273 47.1599 115.11 42.1788 115.11 35.9166C115.11 29.6608 110.273 24.6797 104.174 24.6797ZM102.972 41.7496C99.6554 41.7496 97.0286 39.1679 97.0286 35.9166C97.0286 32.6327 99.6554 30.0836 102.972 30.0836C106.385 30.0836 108.979 32.6327 108.979 35.9166C108.979 39.2005 106.352 41.7496 102.972 41.7496Z" fill="#3B175C"/>
<path d="M237.097 26.2806C233.698 26.2806 231.038 27.5683 229.418 29.8052H229.152C229.594 25.7605 231.883 23.7966 236.812 23.0943L245.44 21.8459V16.377L236.239 17.684C227.742 18.8675 223.664 23.3674 223.664 31.4765C223.664 37.3418 224.042 39.1952 225.089 41.4126C226.733 44.9696 230.811 47.1546 235.738 47.1546C242.377 47.1546 247.5 42.4465 247.5 36.2819C247.494 30.3514 243.262 26.2806 237.097 26.2806ZM235.674 41.7182C232.294 41.7182 229.796 39.4097 229.796 36.2819C229.796 33.1215 232.261 30.8132 235.674 30.8132C239.021 30.8132 241.492 33.1215 241.492 36.2819C241.492 39.4097 238.99 41.7182 235.674 41.7182Z" fill="#3B175C"/>
<path d="M84.8656 18.8659L78.1751 32.3526L69.0595 18.8659H61.9531L75.1843 38.3873L74.8202 39.1285C74.2481 40.312 73.4938 40.9493 71.7514 40.9493H67.07V46.5678H72.4145C76.4913 46.5678 78.1361 45.5338 79.8397 42.1328L91.5366 18.8594H84.8656V18.8659Z" fill="#3B175C"/>
<path d="M149.444 25.3164L148.43 38.5302C148.274 40.5981 147.578 41.3523 145.933 41.3523H144.477V46.7301H148.02C152.006 46.7301 153.774 44.9093 154.06 41.1116L154.841 30.8439H162.149V46.548H168.156V25.3164H149.444Z" fill="#3B175C"/>
<path d="M183.647 30.1479C186.079 30.1479 188.01 31.5135 188.927 33.3408L194.239 31.3379C192.756 27.2996 188.549 24.6855 183.524 24.6855C176.788 24.6855 171.703 29.5431 171.703 35.9289C171.703 42.3082 176.794 47.1722 183.524 47.1722C188.549 47.1722 192.756 44.5579 194.239 40.5198L188.927 38.5169C188.01 40.3377 186.079 41.7098 183.647 41.7098C180.266 41.7098 177.828 39.3103 177.828 35.9352C177.828 32.5474 180.266 30.1479 183.647 30.1479Z" fill="#3B175C"/>
<path d="M213.013 25.2793L203.786 38.7792V25.2793H197.844V46.5435H204.417L213.584 33.1411V46.5435H219.528V25.2793H213.013Z" fill="#3B175C"/>
<path d="M135.527 27.8648H135.267C134.071 25.8749 131.632 24.6719 128.381 24.6719C122.283 24.6719 117.445 29.653 117.445 35.9152C117.445 42.171 122.283 47.1585 128.381 47.1585C131.632 47.1585 134.064 45.9556 135.267 43.9657H135.527V46.5474H141.47V25.2832H135.527V27.8648ZM129.591 41.7481C126.21 41.7481 123.583 39.1991 123.583 35.9152C123.583 32.6313 126.177 30.0822 129.591 30.0822C132.907 30.0822 135.533 32.6313 135.533 35.9152C135.527 39.1667 132.907 41.7481 129.591 41.7481Z" fill="#3B175C"/>
<path d="M45.1997 33.3346C45.1997 25.6353 41.006 18.8658 34.7057 15.0097L34.7902 20.2379C38.5353 23.4569 40.9084 28.1388 40.9084 33.3346C40.9084 35.7081 40.4013 37.9711 39.5105 40.039C36.7993 37.4637 34.8682 34.4335 33.6654 30.8569C32.2154 26.5261 31.8774 21.7856 31.8254 15.9916L31.8318 13.501C30.5314 12.9418 29.1726 12.4996 27.7812 12.1875L27.7876 15.9851C27.9242 35.9876 31.3898 44.2333 36.5456 50.4303C41.8186 46.4507 45.1997 40.2731 45.1997 33.3346C45.1997 33.341 45.1997 33.341 45.1997 33.3346Z" fill="#3B175C"/>
<path d="M17.4185 15.9929L17.425 12.1953C16.0336 12.5075 14.6747 12.9496 13.3743 13.5089L13.3808 15.9994C13.3223 21.7869 12.9907 26.534 11.5408 30.8648C10.3445 34.4412 8.40691 37.465 5.69563 40.0467C4.80488 37.9788 4.29773 35.7158 4.29773 33.3423C4.29773 28.1401 6.66441 23.4646 10.416 20.2457L10.5005 15.0175C4.1937 18.8671 0 25.6366 0 33.3359V33.3423C0 40.2808 3.38747 46.4584 8.65398 50.4382C13.823 44.2476 17.282 35.9955 17.4185 15.9929Z" fill="#3B175C"/>
<path d="M24.6317 8.33454C23.897 8.27601 23.2339 8.25 22.6096 8.25C21.9855 8.25 21.3222 8.27601 20.5811 8.33454V12.8279C20.5811 32.5184 19.8203 41.0759 16.875 54.3677C20.6071 55.3107 24.5733 55.3107 28.3118 54.3741C25.3859 41.1801 24.6317 32.6224 24.6317 12.8279V8.33454Z" fill="#3B175C"/>
</g>
</g>
<defs>
<clipPath id="clip0_544_3387">
<rect width="247.5" height="66" fill="white"/>
</clipPath>
</defs>
</svg>
