<?xml version="1.0" standalone="no"?>
<!DOCTYPE svg PUBLIC "-//W3C//DTD SVG 1.1//EN" "http://www.w3.org/Graphics/SVG/1.1/DTD/svg11.dtd" >
<svg xmlns="http://www.w3.org/2000/svg" xmlns:xlink="http://www.w3.org/1999/xlink" version="1.1">
<metadata>
Created by FontForge 20201107 at Tue May 31 19:32:07 2016
 By 
(URW)++,Copyright 2014 by (URW)++ Design &#38; Development
</metadata>
<defs>
<font id="C059-Italic" horiz-adv-x="2048" >
  <font-face 
    font-family="C059"
    font-weight="400"
    font-style="italic"
    font-stretch="normal"
    units-per-em="2048"
    panose-1="0 0 0 0 0 0 0 0 0 0"
    ascent="1634"
    descent="-414"
    x-height="963"
    cap-height="1479"
    bbox="-340 -674 2458 2233"
    underline-thickness="125"
    underline-position="-273"
    slope="-15"
    unicode-range="U+0020-FB04"
  />
<missing-glyph horiz-adv-x="569" 
d="M57 0v1479h455v-1479h-455zM455 57v1365h-341v-1365h341z" />
    <glyph glyph-name=".notdef" horiz-adv-x="569" 
d="M57 0v1479h455v-1479h-455zM455 57v1365h-341v-1365h341z" />
    <glyph glyph-name="glyph1" horiz-adv-x="0" 
 />
    <glyph glyph-name="glyph2" horiz-adv-x="569" 
 />
    <glyph glyph-name="space" unicode=" " horiz-adv-x="569" 
 />
    <glyph glyph-name="exclam" unicode="!" horiz-adv-x="682" 
d="M286 374l-73 19q70 256 105 450.5t56 439.5q9 107 49 167t102 60q55 0 88.5 -32.5t33.5 -86.5q0 -45 -13.5 -81.5t-88.5 -196.5q-120 -257 -259 -739zM188 223q53 0 90 -37t37 -90t-37 -90t-91 -37q-52 0 -89 37.5t-37 89.5q0 53 37 90t90 37z" />
    <glyph glyph-name="quotedbl" unicode="&#x22;" horiz-adv-x="819" 
d="M205 1065l114 359q13 41 32.5 58.5t52.5 17.5q38 0 65.5 -26t27.5 -62q0 -30 -26 -65l-225 -302zM517 1065l114 359q13 41 32.5 58.5t52.5 17.5q38 0 65.5 -26t27.5 -62q0 -30 -26 -65l-225 -302z" />
    <glyph glyph-name="numbersign" unicode="#" horiz-adv-x="1139" 
d="M274 450h-206v115h223l44 303h-212v115h228l61 422h133l-61 -422h252l60 422h133l-60 -422h205v-115h-222l-43 -303h209v-115h-226l-65 -450h-133l65 450h-252l-64 -450h-134zM468 868l-44 -303h252l43 303h-251z" />
    <glyph glyph-name="dollar" unicode="$" horiz-adv-x="1139" 
d="M780 1325l-142 -530q16 -7 25 -10q150 -60 228 -155.5t78 -221.5q0 -197 -172 -325q-81 -60 -162 -84t-218 -28l-66 -247h-88l68 254q-72 11 -128 38q-87 42 -139 109q-58 74 -58 169q0 82 44 133.5t114 51.5q56 0 91.5 -33.5t35.5 -86.5q0 -90 -101 -117
q-41 -11 -41 -37q0 -42 61 -85.5t143 -58.5l151 563q-9 3 -25 10q-124 51 -197 144q-71 90 -71 215q0 183 144.5 305t361.5 121l54 203h88l-56 -212q80 -15 138 -48q74 -41 115.5 -108.5t41.5 -146.5q0 -73 -37 -115t-100 -42q-52 0 -86 31.5t-34 79.5q0 71 70 106
q35 18 35 44q0 34 -48.5 67t-117.5 47zM694 1334q-95 0 -170 -32q-69 -29 -109 -91.5t-40 -140.5q0 -134 133 -219q14 -9 50 -24zM439 54q78 1 140 20q101 31 157 108q53 72 53 153q0 64 -31.5 123t-82.5 91q-21 13 -92 42z" />
    <glyph glyph-name="percent" unicode="%" horiz-adv-x="1706" 
d="M1333 1479l-848 -1479h-103l743 1301q-107 -61 -200 -61q-58 0 -132 25q8 -45 8 -75q0 -94 -39.5 -195.5t-106.5 -181.5q-130 -155 -299 -155q-132 0 -204 88q-58 71 -58 165q0 135 98 291q90 144 215 207q82 41 164 41q62 0 104.5 -22t82.5 -75q81 -43 148 -43
q100 0 185.5 43.5t147.5 125.5h94zM588 1378q-46 -15 -68.5 -29.5t-48.5 -45.5q-51 -60 -136 -226q-41 -80 -55.5 -125.5t-14.5 -92.5q0 -56 33.5 -91.5t87.5 -35.5q122 0 237 153q108 143 108 317q0 44 -13 89q-78 29 -130 87zM1382 821q108 0 174 -68q29 -30 47.5 -79
t18.5 -97q0 -91 -42.5 -199t-112.5 -196q-57 -72 -133 -111.5t-157 -39.5q-115 0 -188 65q-79 69 -79 182q0 87 38.5 185.5t103.5 178.5q144 179 330 179zM1416 745q-93 0 -185 -152q-82 -134 -117.5 -218.5t-35.5 -146.5q0 -51 35 -87t85 -36q73 0 143.5 50.5t123.5 140.5
q85 142 85 277q0 72 -39 122t-95 50z" />
    <glyph glyph-name="ampersand" unicode="&#x26;" horiz-adv-x="1745" 
d="M1583 813l-11 -89q-103 -9 -178 -74q-36 -30 -151 -192q-95 -133 -204 -238q51 -58 93 -82t92 -24q70 0 122 39t127 146l69 -44q-93 -147 -193 -216.5t-219 -69.5q-82 0 -143.5 27t-122.5 91q-211 -118 -409 -118q-95 0 -178 31.5t-134 87.5q-43 47 -68.5 117t-25.5 142
q0 205 191 360q93 76 298 162q-16 119 -16 188q0 201 100 323q106 130 283 130q130 0 217 -69q94 -74 94 -200q0 -172 -181 -283q-82 -50 -272 -106q85 -365 215 -553q105 97 165.5 184t60.5 142q0 44 -41 71.5t-108 27.5h-16l11 89h533zM745 941q107 33 175 77
q150 98 150 230q0 71 -46 119t-115 48q-67 0 -111 -42q-73 -71 -73 -217q0 -81 20 -215zM555 776q-107 -55 -156 -104q-52 -51 -83 -125t-31 -147q0 -124 77 -223q71 -93 198 -93q115 0 243 79q-169 268 -248 613z" />
    <glyph glyph-name="quotesingle" unicode="'" horiz-adv-x="569" 
d="M233 1065l118 359q13 41 33.5 58.5t54.5 17.5q39 0 68 -25.5t29 -59.5q0 -31 -28 -68l-233 -302z" />
    <glyph glyph-name="parenleft" unicode="(" horiz-adv-x="682" 
d="M796 1509l21 -47q-117 -62 -184 -119q-175 -150 -281 -465q-108 -318 -108 -628q0 -135 25.5 -236.5t92.5 -233.5l-42 -31q-238 296 -238 688q0 269 131 530q133 263 371 429q102 72 212 113z" />
    <glyph glyph-name="parenright" unicode=")" horiz-adv-x="682" 
d="M-169 -251l-21 47q118 63 184 119q174 150 280 465q107 317 107 627q0 136 -25 237t-91 234l43 31q235 -296 235 -688q0 -270 -131 -530q-132 -264 -369 -430q-102 -71 -212 -112z" />
    <glyph glyph-name="asterisk" unicode="*" horiz-adv-x="1024" 
d="M456 1027l-49 48q-33 33 -63.5 51t-99.5 45q-81 31 -81 96q0 36 23.5 59.5t59.5 23.5q67 0 96 -81q26 -69 42.5 -97.5t53.5 -65.5l49 -48l17 66q12 44 12 86q0 35 -11 103q-4 25 -4 39q0 36 27 63.5t63 27.5q35 0 59 -26t24 -64q0 -36 -34 -76q-48 -56 -63.5 -83.5
t-29.5 -80.5l-18 -66l67 17q45 13 76.5 31t87.5 63q42 34 76 34q37 0 63.5 -24.5t26.5 -58.5q0 -35 -27.5 -62.5t-63.5 -27.5q-16 0 -39 4q-71 13 -97 13q-40 0 -92 -14l-66 -18l48 -49q54 -54 163 -95q81 -31 81 -96q0 -36 -23.5 -59.5t-59.5 -23.5q-68 0 -96 80
q-24 69 -40.5 96.5t-55.5 66.5l-49 49l-18 -67q-12 -46 -12 -85q0 -31 11 -104q4 -23 4 -39q0 -36 -26.5 -63.5t-62.5 -27.5q-35 0 -59 26t-24 64q0 35 34 76q48 57 63.5 85t29.5 80l18 66l-67 -17q-44 -12 -75 -30t-89 -64q-42 -34 -77 -34q-37 0 -63 24.5t-26 58.5
q0 35 27.5 62.5t63.5 27.5q14 0 39 -4q71 -13 101 -13q36 0 88 14z" />
    <glyph glyph-name="plus" unicode="+" horiz-adv-x="1241" 
d="M509 436h-433v164h433v433h164v-433h433v-164h-433v-433h-164v433z" />
    <glyph glyph-name="comma" unicode="," horiz-adv-x="569" 
d="M-53 -341l-27 63q227 109 260 267q-21 -1 -34 -1q-53 0 -84 29.5t-31 78.5q0 54 39.5 90.5t97.5 36.5q56 0 95 -39q46 -46 46 -124q0 -152 -152 -278q-93 -78 -210 -123z" />
    <glyph glyph-name="hyphen" unicode="-" horiz-adv-x="682" 
d="M112 569h419l-46 -170h-419z" />
    <glyph glyph-name="period" unicode="." horiz-adv-x="569" 
d="M162 223q53 0 90 -37t37 -90t-37 -90t-91 -37q-52 0 -89 37.5t-37 89.5q0 53 37 90t90 37z" />
    <glyph glyph-name="slash" unicode="/" horiz-adv-x="1241" 
d="M836 1479h119l-550 -1700h-118z" />
    <glyph glyph-name="zero" unicode="0" horiz-adv-x="1139" 
d="M720 1442q177 0 277 -169q83 -141 83 -342q0 -277 -121 -532q-103 -216 -263 -332q-135 -98 -280 -98q-158 0 -258 143q-98 142 -98 363q0 289 133 559q114 228 276 332q119 76 251 76zM716 1360q-139 0 -237 -176q-119 -216 -181 -505q-43 -204 -43 -356q0 -112 34 -183
q43 -89 137 -89q103 0 190 114q57 74 114 212.5t95 294.5q55 227 55 418q0 108 -28 173q-42 97 -136 97z" />
    <glyph glyph-name="one" unicode="1" horiz-adv-x="1139" 
d="M941 1450l-321 -1199q-19 -70 -19 -100q0 -34 31 -44.5t130 -10.5h111l-12 -96h-758l11 96h88q141 0 171 28q13 12 19.5 30t27.5 97l220 820q20 73 20 92q0 28 -22.5 34.5t-115.5 6.5h-142l24 90q120 4 248 45q133 43 229 111h60z" />
    <glyph glyph-name="two" unicode="2" horiz-adv-x="1139" 
d="M891 425l74 -31l-159 -394h-878q13 57 40.5 101.5t89.5 107.5q134 136 516 465q161 140 208 241q43 95 43 186q0 112 -72 179q-65 60 -168 60q-118 0 -213 -72q-77 -57 -77 -114q0 -19 10.5 -30t46.5 -31q94 -50 94 -124q0 -56 -38 -93.5t-94 -37.5q-73 0 -116 51
q-43 53 -43 137q0 168 141 287q154 130 349 130q168 0 276 -90q119 -100 119 -269q0 -122 -54.5 -218t-176.5 -192q-58 -45 -347 -244q-215 -149 -302 -256h474q77 0 111 26t92 129z" />
    <glyph glyph-name="three" unicode="3" horiz-adv-x="1139" 
d="M696 746q68 -22 105.5 -44.5t71.5 -61.5q66 -79 66 -189q0 -208 -160 -347q-153 -135 -386 -135q-181 0 -285 81q-52 41 -82 105.5t-30 137.5q0 80 39.5 128t105.5 48q55 0 93.5 -37t38.5 -90q0 -80 -85 -119q-40 -18 -40 -45q0 -49 64 -86t150 -37q197 0 289 165
q67 119 67 269q0 97 -46 154q-47 59 -116 59q-31 0 -78 -8q-25 -4 -42 -4q-59 0 -59 53q0 58 69 58q11 0 72 -6q37 -3 47 -3q60 0 123 46t103 132.5t40 176.5q0 95 -58 149t-161 54q-72 0 -135 -32t-63 -69q0 -20 28 -48q44 -43 44 -92q0 -50 -33 -83t-83 -33q-58 0 -94 39
t-36 103q0 120 115 211q123 96 296 96q154 0 264 -77q121 -86 121 -248q0 -121 -76 -218q-42 -53 -98 -85.5t-166 -67.5z" />
    <glyph glyph-name="four" unicode="4" horiz-adv-x="1139" 
d="M1049 1450l-257 -962h234l-30 -111h-234l-34 -126q-21 -78 -21 -100q0 -34 31.5 -44.5t131.5 -10.5h38l-11 -96h-636l11 96h39q140 0 170 28q13 12 19.5 30t27.5 97l34 126h-577l-1 86l954 987h111zM592 488l174 652l-633 -652h459z" />
    <glyph glyph-name="five" unicode="5" horiz-adv-x="1139" 
d="M416 1442q232 -58 420 -58q126 0 233 51q16 7 22 7q15 0 15 -25q0 -40 -56 -101q-51 -54 -136.5 -84.5t-186.5 -30.5q-109 0 -268 32l-116 -387q137 68 259 68q171 0 283 -107q98 -94 98 -246q0 -180 -108 -337q-96 -140 -251 -206q-113 -49 -242 -49q-175 0 -275 94
q-99 93 -99 218q0 83 54 133q45 41 104 41q53 0 88 -33t35 -83q0 -65 -53 -104q-12 -9 -67 -35q-12 -6 -12 -22q0 -51 64.5 -88t155.5 -37q176 0 290 169q93 139 93 314q0 140 -68 204q-63 61 -168 61q-120 0 -213 -74q-9 -115 -89 -115q-31 0 -52.5 20t-21.5 49
q0 30 17.5 52t63.5 52z" />
    <glyph glyph-name="six" unicode="6" horiz-adv-x="1139" 
d="M323 687q127 192 339 192q158 0 255 -103q91 -97 91 -251q0 -140 -69 -274q-72 -137 -198 -211q-120 -71 -268 -71q-186 0 -285 118q-114 137 -114 365q0 225 101 459q112 258 273 392q165 139 360 139q117 0 204 -54q109 -68 109 -188q0 -68 -39 -110.5t-103 -42.5
q-53 0 -86 30.5t-33 80.5q0 42 28 90q18 32 18 49q0 29 -27.5 46t-74.5 17q-188 0 -326 -243q-106 -187 -155 -430zM596 760q-139 0 -236 -126q-95 -125 -95 -321q0 -126 56 -192q58 -68 153 -68q140 0 231 139q88 135 88 319q0 117 -43 175q-56 74 -154 74z" />
    <glyph glyph-name="seven" unicode="7" horiz-adv-x="1139" 
d="M1148 1442l1 -62l-194 -299q-267 -431 -338 -626q-49 -128 -111 -352q-20 -73 -51.5 -103.5t-87.5 -30.5q-57 0 -86 31q-32 33 -32 87q0 72 58 186q55 108 128.5 219.5t303.5 435.5l224 319h-347q-102 0 -144.5 -6.5t-79.5 -26.5q-58 -34 -126 -147l-49 -82l-76 25
l198 432q46 -1 257 -14q108 -7 197 -7q184 0 355 21z" />
    <glyph glyph-name="eight" unicode="8" horiz-adv-x="1139" 
d="M769 759q103 -66 144 -121q70 -94 70 -209q0 -164 -113 -292q-149 -168 -428 -168q-154 0 -265 56q-76 38 -121 114q-40 68 -40 153q0 181 166 315q79 64 204 112q-83 61 -118 126t-35 158q0 142 87 258q136 182 382 182q154 0 260 -82q117 -92 117 -237
q0 -162 -135 -268q-48 -38 -175 -97zM681 806q88 36 139 88q106 106 106 241q0 97 -67 158.5t-173 61.5q-123 0 -205 -73q-84 -75 -84 -180q0 -119 124 -205q63 -44 160 -91zM465 664q-92 -37 -149 -84q-134 -109 -134 -265q0 -98 55 -167q33 -41 94.5 -65t133.5 -24
q139 0 238 75q47 35 74.5 90t27.5 111q0 142 -157 236q-63 37 -183 93z" />
    <glyph glyph-name="nine" unicode="9" horiz-adv-x="1139" 
d="M805 701q-137 -174 -334 -174q-139 0 -238 87q-111 99 -111 255q0 100 38 202t107 186q77 95 189 144q94 41 198 41q152 0 254 -86q74 -63 114.5 -173.5t40.5 -251.5q0 -251 -132 -508q-235 -454 -604 -454q-138 0 -225 67q-88 68 -88 174q0 67 39 109t100 42
q53 0 88 -34t35 -84q0 -42 -30 -82q-21 -28 -21 -44q0 -28 26.5 -45t71.5 -17q108 0 192 65t159 207q81 153 131 374zM653 1356q-139 0 -229 -146q-85 -139 -85 -320q0 -119 51 -178q56 -64 149 -64q111 0 201 84q59 55 93.5 151t34.5 205q0 118 -52 188q-59 80 -163 80z
" />
    <glyph glyph-name="colon" unicode=":" horiz-adv-x="569" 
d="M213 223q53 0 90 -37t37 -90t-37 -90t-91 -37q-52 0 -89 37.5t-37 89.5t37.5 89.5t89.5 37.5zM393 949q53 0 90 -37t37 -90t-37 -90t-91 -37q-52 0 -89 37.5t-37 89.5q0 53 37 90t90 37z" />
    <glyph glyph-name="semicolon" unicode=";" horiz-adv-x="569" 
d="M-1 -341l-28 64q232 107 260 266q-22 -1 -34 -1q-53 0 -84 29.5t-31 78.5q0 53 39.5 90t97.5 37q56 0 95 -39q46 -47 46 -124q0 -152 -152 -278q-91 -76 -209 -123zM407 949q53 0 90 -37t37 -90q0 -54 -37 -90.5t-91 -36.5q-52 0 -89 37.5t-37 89.5q0 53 37 90t90 37z
" />
    <glyph glyph-name="less" unicode="&#x3c;" horiz-adv-x="1241" 
d="M1226 1005l-916 -378l713 -379l-46 -174l-915 475l41 155l1170 475z" />
    <glyph glyph-name="equal" unicode="=" horiz-adv-x="1241" 
d="M1106 393v-164h-1032v164h1032zM1106 807v-164h-1032v164h1032z" />
    <glyph glyph-name="greater" unicode="&#x3e;" horiz-adv-x="1241" 
d="M191 1005l47 174l915 -475l-41 -155l-1170 -475l47 174l916 379z" />
    <glyph glyph-name="question" unicode="?" horiz-adv-x="909" 
d="M594 634l74 -12q-18 -96 -83 -155.5t-153 -59.5q-77 0 -128 46q-64 57 -64 158q0 109 73 209.5t252 237.5q88 67 124 119t36 113q0 58 -44 97t-109 39q-113 0 -187 -84q-75 -84 -75 -221q0 -16 1 -44h-78q-2 34 -2 50q0 149 84 259q95 124 260 124q120 0 195 -74
q84 -82 84 -212q0 -123 -79 -221q-48 -61 -99.5 -102t-195.5 -136q-74 -48 -105.5 -90t-31.5 -90q0 -47 24.5 -73.5t68.5 -26.5q79 0 121 62q17 25 37 87zM336 223q53 0 90 -37t37 -90t-37 -90t-91 -37q-52 0 -89 37.5t-37 89.5q0 53 37 90t90 37z" />
    <glyph glyph-name="at" unicode="@" horiz-adv-x="1530" 
d="M1313 385h124q-57 -134 -188 -249q-187 -165 -444 -165q-218 0 -402 115q-188 118 -279 316q-67 146 -67 326q0 231 108 417q108 187 307 284q160 79 333 79q186 0 355 -90q166 -89 255 -241q76 -133 76 -286q0 -175 -97 -328q-71 -114 -187 -188t-222 -74
q-64 0 -103 36.5t-39 97.5q0 18 2 40q-60 -89 -110 -125.5t-111 -36.5q-50 0 -102 25t-86 67q-68 80 -68 213q0 198 132 346q60 68 136.5 108.5t143.5 40.5q59 0 100.5 -35t59.5 -100l33 116h180l-149 -592q-10 -40 -10 -61q0 -50 56 -50q44 0 101.5 39t109.5 103
q56 70 90 164.5t34 181.5q0 151 -95 286q-167 239 -473 239q-270 0 -452 -178q-193 -189 -193 -486q0 -291 184 -476q186 -188 466 -188q199 0 347 130q85 76 144 179zM809 1029q-75 0 -130 -86q-57 -88 -91.5 -195t-34.5 -194q0 -159 98 -159q47 0 93 46.5t83 130.5
q32 74 52.5 161t20.5 149q0 68 -24.5 107.5t-66.5 39.5z" />
    <glyph glyph-name="A" unicode="A" horiz-adv-x="1442" 
d="M905 1509l256 -1288q16 -81 43 -103t112 -22h52l-11 -96h-616l11 96h32q88 0 118 15t30 58q0 24 -8 67l-47 252h-522l-113 -197q-37 -64 -37 -113q0 -46 31 -64t110 -18h49l-11 -96h-552l11 96q93 4 163 66t140 183l676 1164h83zM859 584l-115 589l-335 -589h450z" />
    <glyph glyph-name="B" unicode="B" horiz-adv-x="1479" 
d="M970 761q148 -47 217 -111q104 -97 104 -228q0 -160 -112 -272q-78 -79 -196 -114.5t-303 -35.5h-743l11 96h29q120 0 150 28q13 12 19.5 29.5t28.5 98.5l261 975q19 72 19 100q0 34 -31 45t-130 11h-53l11 96h616q219 0 334 -63q81 -45 123 -119q43 -74 43 -160
q0 -93 -44 -170.5t-125 -126.5q-94 -56 -229 -79zM552 807h169q178 0 274 74q59 46 94 123.5t35 162.5q0 112 -58 164t-183 52h-59q-86 0 -111 -30q-21 -25 -44 -110zM527 711l-131 -487q-12 -46 -12 -73q0 -32 29.5 -43.5t114.5 -11.5h101q190 0 285 82q59 51 93 127
t34 156q0 158 -147 219q-76 31 -237 31h-130z" />
    <glyph glyph-name="C" unicode="C" horiz-adv-x="1479" 
d="M1265 1346l122 118h73l-115 -573h-84q-8 217 -52 324q-85 206 -286 206q-150 0 -276 -112q-132 -118 -223 -365q-86 -232 -86 -452q0 -184 94 -303q95 -120 287 -120q229 0 379 186q48 59 116 201l84 -37q-76 -176 -162 -266q-178 -184 -453 -184q-281 0 -450 178
q-151 161 -151 426q0 346 228 626q253 311 595 311q116 0 200 -38t160 -126z" />
    <glyph glyph-name="D" unicode="D" horiz-adv-x="1593" 
d="M-78 0l11 96h9q140 0 170 28q13 12 19.5 29.5t28.5 98.5l261 975q19 72 19 100q0 34 -31 45t-130 11h-53l11 96h594q162 0 262 -21q208 -43 317 -212q95 -146 95 -355q0 -225 -116 -439q-129 -238 -326 -350q-179 -102 -522 -102h-619zM465 96h65q198 0 315 53
q170 76 276 302q136 292 136 552q0 88 -27 166.5t-72 123.5q-92 90 -285 90h-63q-79 0 -104.5 -22t-49.5 -111l-274 -1024q-12 -44 -12 -71q0 -59 95 -59z" />
    <glyph glyph-name="E" unicode="E" horiz-adv-x="1479" 
d="M1435 1479l-79 -494h-93q1 55 1 70q0 109 -16.5 165t-59.5 95q-77 68 -209 68h-120q-115 0 -146 -22t-57 -120l-113 -420h47q165 0 247 69q76 64 117 188l93 -14l-183 -683l-93 16q19 83 19 140q0 186 -226 188h-46l-121 -450q-23 -87 -23 -113q0 -37 32 -51.5t112 -14.5
h111q159 0 265 46q169 73 292 296q36 66 45 80l84 -16l-161 -502h-1230l11 96h9q140 0 170 28q13 12 20 30.5t27 96.5l262 977q19 71 19 100q0 34 -31 44.5t-130 10.5h-53l11 96h1196z" />
    <glyph glyph-name="F" unicode="F" horiz-adv-x="1366" 
d="M1429 1479l-80 -494h-92q1 55 1 71q0 108 -16.5 164.5t-60.5 94.5q-76 68 -209 68h-107q-115 0 -146 -22t-57 -120l-113 -420h47q165 0 247 69q76 64 117 188l93 -14l-183 -682l-93 15q19 83 19 141q0 186 -226 187h-46l-127 -473q-21 -77 -21 -101q0 -34 31.5 -44.5
t131.5 -10.5h53l-11 -96h-651l11 96h9q140 0 170 28q13 12 20 30.5t27 97.5l262 976q19 71 19 100q0 34 -31 44.5t-130 10.5h-53l11 96h1184z" />
    <glyph glyph-name="G" unicode="G" horiz-adv-x="1593" 
d="M1513 1464l-111 -574l-86 12q-4 197 -49 302q-46 104 -129 160q-84 57 -190 57q-278 0 -461 -346q-72 -138 -114.5 -305t-42.5 -315q0 -186 91 -287q45 -52 117.5 -81t155.5 -29q148 0 246 78t139 228l18 65q19 70 19 100q0 34 -31 44.5t-130 10.5h-68l11 96h665l-12 -96
h-8q-140 0 -171 -28q-13 -12 -19 -29t-28 -98l-123 -458h-89l-25 165q-66 -63 -124 -94q-130 -73 -321 -73q-261 0 -405 147q-158 161 -158 442q0 254 128 476q143 248 361 376q170 100 362 100q125 0 215.5 -40.5t171.5 -133.5l126 128h69z" />
    <glyph glyph-name="H" unicode="H" horiz-adv-x="1706" 
d="M1174 725h-659l-126 -473q-21 -77 -21 -101q0 -34 31.5 -44.5t131.5 -10.5h53l-11 -96h-651l11 96h9q140 0 170 28q13 12 19.5 30t27.5 98l262 975q19 72 19 101q0 34 -31 44.5t-130 10.5h-53l11 96h651l-11 -96h-9q-140 0 -171 -28q-12 -12 -18.5 -29t-28.5 -99
l-109 -406h659l109 406q20 75 20 100q0 35 -31 45.5t-131 10.5h-53l11 96h650l-10 -96h-9q-140 0 -171 -28q-12 -12 -18 -28.5t-29 -99.5l-261 -975q-20 -74 -20 -100q0 -34 31 -45t131 -11h53l-11 -96h-651l11 96h9q140 0 170 28q13 12 19.5 30t27.5 98z" />
    <glyph glyph-name="I" unicode="I" horiz-adv-x="833" 
d="M578 96l-11 -96h-635l11 96q91 2 122.5 7.5t49.5 20.5q12 12 19 30t28 97l261 976q21 78 21 101q0 34 -31 44.5t-132 10.5h-45l11 96h635l-11 -96q-92 -3 -123 -8t-48 -20q-13 -12 -19 -29t-29 -99l-261 -976q-21 -78 -21 -98q0 -35 31 -46t132 -11h45z" />
    <glyph glyph-name="J" unicode="J" horiz-adv-x="1251" 
d="M668 1383l11 96h644l-11 -96h-9q-126 0 -156 -28q-13 -12 -19.5 -29t-28.5 -99l-223 -834q-49 -183 -139 -280q-135 -144 -373 -144q-180 0 -283 80q-108 85 -108 244q0 132 79 219q71 78 169 78q72 0 117 -40.5t45 -105.5q0 -64 -37.5 -103.5t-98.5 -39.5q-28 0 -45 5
t-49 23q-11 7 -27 7q-24 0 -39 -18.5t-15 -47.5q0 -91 71.5 -152t178.5 -61q128 0 205.5 89t134.5 303l208 778q21 78 21 100q0 34 -31 45t-132 11h-60z" />
    <glyph glyph-name="K" unicode="K" horiz-adv-x="1517" 
d="M505 701l591 490q110 91 110 141q0 28 -26 39.5t-94 11.5h-45l11 96h615l-11 -96q-120 -8 -201 -47.5t-210 -153.5l-386 -321l312 -645q41 -85 64 -101q18 -12 39.5 -15.5t89.5 -3.5h63l-11 -96h-671l11 96h68q81 0 109.5 8t28.5 29q0 13 -31 81l-242 503l-231 -191
l-73 -274q-21 -77 -21 -101q0 -34 31.5 -44.5t131.5 -10.5h53l-11 -96h-651l11 96h9q140 0 170 28q13 12 19.5 30t27.5 98l262 975q19 72 19 100q0 34 -31 45t-130 11h-53l11 96h651l-11 -96h-9q-140 0 -171 -28q-12 -12 -18.5 -29t-28.5 -99z" />
    <glyph glyph-name="L" unicode="L" horiz-adv-x="1366" 
d="M1206 518l84 -16l-161 -502h-1205l11 96h9q140 0 170 28q13 12 20 30.5t27 96.5l262 976q19 72 19 100q0 34 -31 45t-130 11h-53l11 96h688l-11 -96h-46q-140 0 -171 -28q-12 -12 -18.5 -29.5t-28.5 -98.5l-255 -952q-4 -16 -11 -41q-12 -42 -12 -72q0 -37 31.5 -51.5
t112.5 -14.5h87q240 0 382 120q99 83 219 302z" />
    <glyph glyph-name="M" unicode="M" horiz-adv-x="1933" 
d="M744 1479l109 -1106l698 1106h442l-11 -96h-8q-141 0 -171 -28q-13 -12 -19 -28.5t-28 -99.5l-262 -975q-19 -73 -19 -100q0 -34 31 -45t131 -11h52l-11 -96h-650l11 96h8q141 0 171 28q13 12 19 29t28 99l271 1009l-791 -1261h-74l-126 1233l-211 -789
q-48 -189 -48 -235q0 -113 184 -113l-11 -96h-512l11 96q92 1 140 48q35 34 61 96t64 204l210 783q20 76 20 100q0 34 -31 45t-131 11h-53l11 96h495z" />
    <glyph glyph-name="N" unicode="N" horiz-adv-x="1669" 
d="M646 1479l518 -1129l183 685q49 189 49 235q0 113 -185 113l11 96h537l-10 -96q-111 -3 -161 -48q-40 -34 -65 -92.5t-65 -207.5l-285 -1064h-79l-570 1233l-203 -758q-49 -188 -49 -235q0 -113 185 -113h22l-11 -96h-566l11 96q69 2 104 12t63 36q40 35 65 93.5
t65 206.5l233 872q-12 42 -36 53.5t-98 11.5h-106l11 96h432z" />
    <glyph glyph-name="O" unicode="O" horiz-adv-x="1593" 
d="M936 1510q242 0 406 -162q163 -161 163 -425q0 -294 -162 -544q-145 -222 -358 -330q-159 -80 -346 -80q-251 0 -399 153q-158 165 -158 441q0 265 131 493q128 220 341 348q176 106 382 106zM942 1422q-210 0 -367 -204q-97 -125 -172 -357q-80 -243 -80 -436
q0 -152 73 -254q81 -114 246 -114q159 0 290 109q135 112 235 382q98 264 98 469q0 72 -20 153.5t-49 129.5q-35 58 -108 90q-71 32 -146 32z" />
    <glyph glyph-name="P" unicode="P" horiz-adv-x="1366" 
d="M506 651l-107 -399q-21 -77 -21 -100q0 -34 31.5 -45t131.5 -11h53l-11 -96h-651l11 96h9q140 0 170 28q13 12 19.5 29.5t28.5 98.5l261 975q19 72 19 100q0 34 -31 45t-130 11h-53l11 96h605q244 0 353 -74q152 -102 152 -296q0 -177 -114 -293q-56 -56 -140.5 -97
t-177.5 -55q-83 -13 -382 -13h-37zM532 747h39l184 -1q145 0 237 70q64 48 100 132.5t36 183.5q0 176 -120 226q-59 25 -176 25h-26q-63 0 -89 -19.5t-42 -79.5z" />
    <glyph glyph-name="Q" unicode="Q" horiz-adv-x="1593" 
d="M1019 56q1 -30 1 -45q1 -103 11.5 -146t41.5 -73q20 -19 50 -19q82 0 153 148l72 -44q-57 -105 -109 -162q-41 -46 -99 -73t-114 -27q-57 0 -109 28.5t-81 75.5q-46 74 -46 176q0 32 6 89q-67 -15 -135 -15q-283 0 -439 176q-140 156 -140 424q0 353 236 634
q259 307 606 307q245 0 409 -151q172 -158 172 -442q0 -305 -186 -575q-100 -144 -300 -286zM993 238q75 103 130 220q136 298 136 577q0 186 -72 277q-38 49 -107.5 78.5t-146.5 29.5q-157 0 -287 -127q-137 -133 -226 -378q-98 -267 -98 -504q0 -92 17.5 -151t60.5 -112
q-19 57 -19 104q0 122 77 204q85 91 224 91q134 0 215 -80.5t96 -228.5zM812 92q18 95 18 147q0 115 -65 168q-49 40 -113 40q-91 0 -151 -70q-45 -52 -45 -135q0 -92 55 -137q56 -46 146 -46q71 0 155 33z" />
    <glyph glyph-name="R" unicode="R" horiz-adv-x="1517" 
d="M507 717l-124 -465q-21 -77 -21 -101q0 -34 31.5 -44.5t131.5 -10.5h53l-11 -96h-651l11 96h9q140 0 170 28q13 12 20 30.5t27 97.5l262 975q19 72 19 101q0 34 -31 44.5t-130 10.5h-53l11 96h655q242 0 353 -57q176 -91 176 -278q0 -101 -56.5 -188.5t-152.5 -135.5
q-100 -50 -313 -74q82 -31 127 -79q48 -52 65 -107q19 -59 19 -146q0 -36 -2 -74q-3 -88 -3 -106q0 -124 61 -124q43 0 74 40.5t71 151.5l74 -32q-41 -110 -83 -175q-80 -126 -211 -126q-110 0 -174 89q-43 61 -43 158q0 42 13 205q6 71 6 112q0 100 -54 142t-183 42h-143z
M533 813h159q128 0 191 11.5t119 44.5q168 99 168 289q0 105 -68 163q-72 62 -203 62h-100q-72 0 -98.5 -22t-47.5 -100z" />
    <glyph glyph-name="S" unicode="S" horiz-adv-x="1366" 
d="M1294 1464l-111 -535l-85 16q1 24 1 40q0 186 -82 304q-43 62 -114 97t-156 35q-122 0 -208 -61q-52 -36 -81.5 -91.5t-29.5 -115.5q0 -66 39 -119q49 -67 195 -125l174 -70q151 -59 226 -128q104 -95 104 -272q0 -206 -163 -342q-153 -128 -388 -128q-252 0 -422 160
l-121 -129h-72l112 584l82 -15q-1 -36 -1 -58q0 -198 109 -322q116 -132 310 -132q152 0 245 70q52 40 82 99.5t30 124.5q0 113 -90 177q-28 20 -160 75l-176 73q-148 61 -205 125q-96 105 -96 250q0 94 41.5 184.5t113.5 154.5q136 120 336 120q218 0 374 -153l109 107h78z
" />
    <glyph glyph-name="T" unicode="T" horiz-adv-x="1403" 
d="M1487 1479l-85 -564l-87 12q4 92 4 142q0 90 -20 159t-56 103q-55 52 -173 52h-30q-49 0 -64.5 -17.5t-36.5 -97.5l-272 -1017q-20 -73 -20 -100q0 -34 31 -44.5t131 -10.5h75l-11 -96h-710l11 96h45q141 0 171 28q13 12 20 30.5t27 96.5l281 1046q9 35 9 50q0 36 -67 36
h-30q-165 0 -289 -158q-62 -79 -174 -287l-85 12l180 529h1225z" />
    <glyph glyph-name="U" unicode="U" horiz-adv-x="1669" 
d="M203 1383l11 96h651l-11 -96h-9q-140 0 -170 -28q-13 -12 -19.5 -30t-28.5 -98l-182 -681q-30 -111 -30 -212q0 -66 27 -124t73 -93q81 -60 229 -60q238 0 357 172q37 52 63 123t71 241l119 442q47 190 47 235q0 114 -191 113l11 96h540l-11 -96q-132 -4 -177 -59
t-108 -289l-117 -434q-54 -208 -82 -279q-65 -166 -166 -244q-143 -109 -399 -109q-210 0 -346 76q-79 44 -120 122q-45 86 -45 193q0 90 41 241l167 626q19 71 19 100q0 34 -31 45t-130 11h-53z" />
    <glyph glyph-name="V" unicode="V" horiz-adv-x="1442" 
d="M685 318l457 821q61 109 61 159q0 45 -35.5 65t-115.5 20h-38l11 96h556l-11 -96q-111 -13 -178 -75.5t-177 -257.5l-609 -1081h-76l-239 1212q-25 128 -54.5 165t-105.5 37h-57l15 96h604l-11 -96h-69q-76 0 -99.5 -12.5t-23.5 -52.5q0 -32 15 -107z" />
    <glyph glyph-name="W" unicode="W" horiz-adv-x="1896" 
d="M1291 401l332 771q48 111 48 147q0 64 -130 64h-37l11 96h477l-11 -96q-103 -24 -154.5 -78.5t-121.5 -215.5l-486 -1120h-79l-143 1035l-464 -1035h-72l-162 1234q-16 123 -39 147q-29 33 -99 33h-53l11 96h546l-11 -96h-37q-67 0 -93 -13.5t-26 -47.5q0 -8 11 -94
l111 -827l343 785l-14 102q-9 66 -32.5 80.5t-120.5 14.5h-27l11 96h569l-11 -96h-38q-75 0 -100.5 -11.5t-25.5 -44.5q0 -18 5 -55z" />
    <glyph glyph-name="X" unicode="X" horiz-adv-x="1442" 
d="M831 802l238 -557q44 -103 75 -125q33 -24 134 -24h53l-11 -96h-656l11 96h63q75 0 100 9.5t25 37.5q0 23 -12 51l-183 438l-311 -325q-80 -84 -80 -139q0 -72 141 -72h30l-11 -96h-587l11 96q109 17 176.5 58t180.5 159l401 424l-213 502q-41 98 -74.5 121t-134.5 23
h-50l10 96h646l-11 -96h-37q-71 0 -104 -14t-33 -44q0 -16 21 -66l146 -351l250 256q99 102 99 159q0 60 -106 60h-42l11 96h579l-11 -96q-102 -5 -159 -33q-77 -38 -202 -166z" />
    <glyph glyph-name="Y" unicode="Y" horiz-adv-x="1403" 
d="M742 746l349 446q53 67 53 111q0 37 -35.5 58.5t-96.5 21.5h-47l11 96h577l-11 -96q-122 -9 -194 -63q-60 -45 -155 -166l-411 -524l-101 -379q-21 -76 -21 -100q0 -34 31.5 -44.5t131.5 -10.5h75l-11 -96h-710l11 96h45q141 0 171 28q13 12 19.5 30.5t27.5 96.5l102 379
l-246 612q-35 87 -74 114t-132 27h-35l11 96h631l-11 -96h-57q-68 0 -96.5 -11.5t-28.5 -37.5t21 -79z" />
    <glyph glyph-name="Z" unicode="Z" horiz-adv-x="1366" 
d="M1366 1479l-13 -80l-1093 -1303h276q152 0 252 34.5t180 114.5q53 53 92.5 113t104.5 190l87 -23l-168 -525h-1135l12 78l1092 1305h-198q-150 0 -244 -28.5t-159 -93.5q-49 -49 -60.5 -65.5t-138.5 -228.5l-84 22l168 490h1029z" />
    <glyph glyph-name="bracketleft" unicode="[" horiz-adv-x="682" 
d="M125 -155h298l-18 -66h-473l456 1700h451l-18 -68h-276z" />
    <glyph glyph-name="backslash" unicode="\" horiz-adv-x="1241" 
d="M293 1450l776 -1450h-111l-776 1450h111z" />
    <glyph glyph-name="bracketright" unicode="]" horiz-adv-x="682" 
d="M543 1413h-299l18 66h473l-456 -1700h-449l18 68h275z" />
    <glyph glyph-name="asciicircum" unicode="^" horiz-adv-x="1241" 
d="M1134 651h-177l-336 637l-338 -637h-177l429 828h172z" />
    <glyph glyph-name="underscore" unicode="_" horiz-adv-x="1024" 
d="M-54 -149h1024v-125h-1024v125z" />
    <glyph glyph-name="grave" unicode="`" horiz-adv-x="682" 
d="M720 1063h-83l-275 219q-31 25 -31 52q0 32 24 56.5t55 24.5q23 0 37 -10t43 -46z" />
    <glyph glyph-name="a" unicode="a" horiz-adv-x="1175" 
d="M812 932h177l-204 -687q-23 -79 -23 -112q0 -21 12.5 -36t31.5 -15q81 0 203 241l62 -35q-37 -80 -100 -169q-107 -150 -240 -150q-56 0 -90.5 37t-34.5 96q0 28 10 65q-62 -88 -110 -128q-87 -70 -201 -70q-137 0 -220 91.5t-83 242.5q0 258 166 472q146 188 337 188
q100 0 170 -60t82 -156zM541 850q-94 0 -163 -71q-88 -90 -142 -245q-47 -136 -47 -259q0 -95 44 -148.5t121 -53.5q146 0 238 185q48 97 76.5 208.5t28.5 200.5q0 66 -24 110q-40 73 -132 73z" />
    <glyph glyph-name="b" unicode="b" horiz-adv-x="1139" 
d="M377 777q90 106 156 142q82 44 165 44q152 0 240 -119q62 -84 62 -229q0 -288 -207 -488q-162 -158 -394 -158q-165 0 -253 89q-80 82 -80 203q0 65 29 163l245 828q18 60 18 88q0 36 -26.5 50.5t-89.5 14.5h-48l7 74l393 31zM630 838q-152 0 -269 -187q-55 -89 -88 -200
t-33 -206q0 -94 46.5 -146t129.5 -52q158 0 270 188q111 184 111 389q0 93 -35 145q-48 69 -132 69z" />
    <glyph glyph-name="c" unicode="c" horiz-adv-x="909" 
d="M697 270l60 -45q-163 -256 -394 -256q-166 0 -264 107q-89 98 -89 263q0 168 85 322q87 156 231 239q112 63 228 63q112 0 189.5 -64.5t77.5 -157.5q0 -66 -36.5 -109.5t-92.5 -43.5q-48 0 -78.5 28t-30.5 72q0 67 77 98q32 13 32 32q0 26 -40.5 46.5t-90.5 20.5
q-132 0 -236 -152q-58 -86 -92 -199t-34 -223q0 -118 51 -182q49 -62 139 -62q152 0 308 203z" />
    <glyph glyph-name="d" unicode="d" horiz-adv-x="1251" 
d="M1094 323l62 -37q-169 -317 -358 -317q-140 0 -140 146q0 18 1 44q-130 -190 -332 -190q-164 0 -253 117q-68 90 -68 222q0 172 88 334q89 163 248 254q118 67 232 67q117 0 187 -75q28 -29 50 -92l135 456q18 60 18 89q0 35 -26.5 49.5t-89.5 14.5h-63l7 74l408 31
l-364 -1229q-31 -106 -31 -147q0 -57 51 -57q50 0 99.5 51t138.5 195zM581 871q-151 0 -268 -203q-49 -86 -78.5 -189.5t-29.5 -190.5q0 -90 41 -151q49 -71 141 -71q149 0 252 198q49 94 83 217t34 205q0 74 -39 122q-53 63 -136 63z" />
    <glyph glyph-name="e" unicode="e" horiz-adv-x="909" 
d="M694 237l50 -55q-166 -213 -402 -213q-158 0 -254 90q-100 92 -100 265q0 276 199 472q71 70 156 113q108 54 214 54q109 0 176.5 -58.5t67.5 -152.5q0 -185 -245 -293q-71 -31 -132 -49t-241 -62q-4 -43 -4 -69q0 -97 53 -157q50 -57 145 -57q81 0 153.5 39.5
t163.5 132.5zM193 428q168 36 261 88q175 97 175 248q0 53 -30.5 85t-81.5 32q-150 0 -248 -204q-53 -112 -76 -249z" />
    <glyph glyph-name="f" unicode="f" horiz-adv-x="682" 
d="M449 932h263l-27 -96h-260l-126 -505q-34 -137 -101 -359t-112 -350l-225 -36q195 432 302 893l85 357h-183l27 96h179q66 246 142 372q125 204 322 204q99 0 160 -49q68 -54 68 -135q0 -47 -31.5 -78t-78.5 -31q-45 0 -76 26.5t-31 64.5q0 27 19 59q14 25 14 37
q0 15 -14.5 24.5t-35.5 9.5q-56 0 -99 -42t-81 -134q-46 -110 -100 -328z" />
    <glyph glyph-name="g" unicode="g" horiz-adv-x="1100" 
d="M781 885q122 -86 122 -227q0 -70 -36 -141.5t-96 -119.5q-107 -86 -278 -86q-56 0 -147 14q-43 7 -85 7q-54 0 -88 -22.5t-34 -58.5q0 -55 75 -72q31 -7 225 -19q106 -6 164.5 -18.5t106.5 -39.5q107 -59 107 -184q0 -151 -140 -242q-75 -49 -171 -69.5t-248 -20.5
q-128 0 -206.5 18.5t-139.5 62.5q-74 54 -74 148q0 110 100 170q55 34 162 58q-113 54 -113 151q0 83 67 138q62 52 186 67q-65 36 -92 80q-36 61 -36 133q0 165 158 271q119 80 262 80q89 0 177 -39q80 64 129.5 87.5t103.5 23.5t91.5 -31.5t37.5 -75.5q0 -38 -23.5 -64
t-57.5 -26q-26 0 -40.5 9.5t-38.5 43.5q-23 33 -54 33t-76 -39zM546 885q-104 0 -166 -71q-82 -94 -82 -244q0 -85 48.5 -134.5t132.5 -49.5q101 0 158 70q38 48 61 120.5t23 145.5t-40 113q-50 50 -135 50zM296 6q-131 0 -207 -41q-39 -21 -62 -58t-23 -78
q0 -80 70.5 -118.5t219.5 -38.5q211 0 299 65q66 49 66 121q0 77 -76 108q-35 15 -126 27.5t-161 12.5z" />
    <glyph glyph-name="h" unicode="h" horiz-adv-x="1251" 
d="M625 1510l-244 -824q201 277 386 277q110 0 169 -82q37 -52 37 -118q0 -89 -49 -231l-97 -281q-39 -113 -39 -139q0 -39 36 -39q96 0 253 243l60 -43q-83 -146 -180.5 -225t-193.5 -79q-64 0 -103 45q-40 44 -40 108q0 58 38 171l108 320q31 93 31 142q0 38 -24.5 61.5
t-65.5 23.5q-149 0 -293 -211q-55 -80 -83.5 -145t-68.5 -199l-85 -285h-177l371 1252q17 59 17 89q0 35 -26.5 49.5t-88.5 14.5h-64l7 74z" />
    <glyph glyph-name="i" unicode="i" horiz-adv-x="682" 
d="M473 963l-217 -732q-25 -84 -25 -116q0 -42 34 -42q42 0 106.5 65t142.5 185l63 -36q-80 -122 -126 -174q-123 -142 -256 -142q-60 0 -100 36.5t-40 91.5q0 53 45 207l119 399q18 62 18 89q0 35 -26.5 49.5t-89.5 14.5h-49l7 74zM436 1463q45 0 77.5 -32.5t32.5 -77.5
q0 -47 -32.5 -79t-79.5 -32q-45 0 -77 32.5t-32 78.5q0 45 32.5 77.5t78.5 32.5z" />
    <glyph glyph-name="j" unicode="j" horiz-adv-x="645" 
d="M571 963l-243 -820q-58 -197 -79 -252q-34 -90 -76 -146.5t-105 -97.5q-93 -61 -200 -61q-95 0 -151.5 44.5t-56.5 119.5q0 55 32 89t82 34q44 0 71.5 -26.5t27.5 -69.5q0 -24 -17 -55q-10 -17 -10 -29q0 -15 13 -26t30 -11q37 0 77.5 32t64.5 80q45 91 79 222
q33 127 51 187l156 528q18 61 18 88q0 35 -26.5 50t-89.5 15h-71l7 74zM539 1463q45 0 77.5 -32t32.5 -78q0 -47 -32.5 -79t-79.5 -32q-44 0 -76.5 32.5t-32.5 78.5q0 45 32.5 77.5t78.5 32.5z" />
    <glyph glyph-name="k" unicode="k" horiz-adv-x="1139" 
d="M615 1510l-254 -857q200 310 403 310q100 0 157 -69q44 -53 44 -118q0 -102 -96.5 -190t-278.5 -152q50 -42 67 -85q22 -56 31 -164q4 -62 12.5 -81.5t31.5 -19.5q37 0 81 48.5t132 183.5l63 -40q-96 -162 -177 -234.5t-165 -72.5q-152 0 -152 203q0 13 2 103v77
q0 54 -33 54q-14 0 -41 -4q-18 -3 -26 -3q-20 0 -34 13.5t-14 32.5q0 55 62 55q29 0 58 -9q18 -6 27 -7q18 -1 85 32q106 53 152.5 104.5t46.5 115.5q0 54 -34 81q-28 23 -60 23q-75 0 -173 -83q-106 -89 -178 -227q-69 -133 -108 -264l-79 -266h-177l371 1252q17 59 17 89
q0 35 -26.5 49.5t-88.5 14.5h-64l7 74z" />
    <glyph glyph-name="l" unicode="l" horiz-adv-x="682" 
d="M602 1510l-378 -1280q-27 -90 -27 -115q0 -42 36 -42q91 0 253 249l62 -36q-187 -317 -381 -317q-62 0 -98 38.5t-36 105.5q0 48 9.5 91.5t46.5 169.5l260 878q17 59 17 89q0 35 -26.5 49.5t-88.5 14.5h-64l7 74z" />
    <glyph glyph-name="m" unicode="m" horiz-adv-x="1821" 
d="M471 963l-60 -276q85 121 146 178q106 98 220 98q104 0 159 -73q40 -54 40 -118q0 -38 -11 -98q178 290 395 290q77 0 130 -45q61 -52 61 -141q0 -77 -25 -154l-129 -397q-24 -75 -24 -101q0 -21 13 -36t30 -15q77 0 236 238l62 -44q-104 -151 -155 -199
q-105 -101 -203 -101q-90 0 -131 57q-28 40 -28 88q0 44 8 76.5t48 152.5l95 291q30 91 30 131q0 76 -81 76q-78 0 -177 -85q-150 -129 -247 -458l-89 -298h-177l164 555q40 135 40 206q0 79 -87 79q-105 0 -221 -137q-62 -74 -118.5 -185t-90.5 -228l-86 -288h-177l208 703
q18 61 18 89q0 35 -26.5 49.5t-89.5 14.5h-49l7 74z" />
    <glyph glyph-name="n" unicode="n" horiz-adv-x="1251" 
d="M469 963l-59 -276q200 276 380 276q99 0 159 -82q37 -51 37 -118q0 -87 -49 -231l-98 -281q-38 -112 -38 -139q0 -39 36 -39q98 0 254 247l60 -43q-49 -87 -124 -173q-117 -135 -252 -135q-63 0 -102 45q-40 44 -40 108q0 60 37 171l108 320q32 94 32 143
q0 36 -23.5 60.5t-58.5 24.5q-66 0 -142 -56.5t-143 -154.5q-55 -82 -84 -146.5t-68 -197.5l-85 -286h-177l209 705q18 62 18 89q0 35 -26.5 49.5t-89.5 14.5h-49l7 74z" />
    <glyph glyph-name="o" unicode="o" horiz-adv-x="1024" 
d="M558 963q152 0 258 -116q105 -114 105 -270q0 -116 -46 -232t-128 -208q-149 -168 -373 -168q-174 0 -273 113q-91 103 -91 271q0 258 171 433q172 177 377 177zM549 885q-115 0 -200 -111q-59 -78 -105 -219q-49 -154 -49 -292q0 -216 182 -216q102 0 175 81
q72 80 122 231q53 157 53 273q0 90 -28 157q-19 43 -60 69.5t-90 26.5z" />
    <glyph glyph-name="p" unicode="p" horiz-adv-x="1175" 
d="M478 963l-29 -174q143 174 304 174q130 0 215 -106q68 -85 68 -227q0 -266 -163 -471q-151 -190 -369 -190q-102 0 -152.5 37.5t-91.5 142.5l-100 -334q-23 -77 -23 -103q0 -29 28.5 -40.5t103.5 -11.5h23l-7 -74h-492l8 74q103 4 131 28q12 11 19 28t32 99l263 890
q17 56 17 89q0 35 -26.5 49.5t-88.5 14.5h-49l7 74zM690 854q-130 0 -235 -160q-59 -89 -100.5 -217t-41.5 -218q0 -82 48.5 -135t122.5 -53q158 0 264 223q95 202 95 380q0 86 -41 129q-48 51 -112 51z" />
    <glyph glyph-name="q" unicode="q" horiz-adv-x="1139" 
d="M1022 963l-341 -1148q-22 -75 -22 -103q0 -29 28.5 -40.5t102.5 -11.5h17l-8 -74h-504l8 74q121 2 150 28q13 11 20 28.5t31 98.5l88 298q-65 -69 -119 -99q-80 -43 -163 -43q-62 0 -124 24t-101 63q-85 86 -85 239q0 172 88 341q84 162 227 251q120 74 240 74
q160 0 262 -142l125 142h80zM565 883q-94 0 -186 -99q-94 -100 -142 -255q-43 -139 -43 -247q0 -86 39 -147q41 -66 120 -66q83 0 157.5 63.5t128.5 179.5q38 82 64 191t26 184q0 82 -38 134q-46 62 -126 62z" />
    <glyph glyph-name="r" unicode="r" horiz-adv-x="909" 
d="M458 963l-46 -237q81 127 153.5 182t158.5 55q71 0 116.5 -42.5t45.5 -108.5q0 -58 -34 -95t-86 -37q-60 0 -88 44q-6 12 -9 65q-2 49 -37 49q-40 0 -102 -62q-61 -62 -131.5 -196t-106.5 -256l-96 -324h-178l209 705q20 68 20 96q0 57 -118 57h-49l7 74z" />
    <glyph glyph-name="s" unicode="s" horiz-adv-x="909" 
d="M499 963q131 0 221 -60q83 -56 83 -153q0 -56 -32.5 -90.5t-85.5 -34.5q-46 0 -76 26.5t-30 67.5q0 35 33 82q11 16 11 28q0 25 -37 40.5t-96 15.5q-90 0 -149.5 -46.5t-59.5 -116.5q0 -60 33.5 -92.5t133.5 -68.5q129 -46 180 -81q101 -68 101 -195q0 -140 -110.5 -228
t-286.5 -88q-146 0 -236 56q-45 28 -71.5 75.5t-26.5 100.5q0 59 34 98t85 39q45 0 74.5 -29.5t29.5 -73.5q0 -27 -7.5 -41.5t-36.5 -45.5q-13 -14 -13 -32q0 -20 15 -31q49 -38 163 -38q113 0 176 54q57 49 57 126q0 54 -29 83t-116 65q-114 46 -160 69q-141 73 -141 209
q0 135 104.5 222.5t265.5 87.5z" />
    <glyph glyph-name="t" unicode="t" horiz-adv-x="721" 
d="M550 1272l-100 -340h224l-29 -96h-224l-193 -653q-8 -27 -8 -48q0 -57 47 -57q51 0 105 53t150 197l61 -41q-66 -110 -102 -158q-51 -68 -130 -115q-76 -45 -153 -45q-62 0 -104.5 45.5t-42.5 111.5q0 58 40 193l153 517h-193l29 96h192l101 340h177z" />
    <glyph glyph-name="u" unicode="u" horiz-adv-x="1251" 
d="M1042 932l-201 -680q-27 -90 -27 -122q0 -19 11.5 -33.5t25.5 -14.5q68 0 227 231l61 -37q-70 -107 -130 -176q-114 -131 -242 -131q-55 0 -91 34q-40 39 -40 100q0 51 25 142q-173 -274 -380 -274q-81 0 -130 42q-65 54 -65 146q0 49 8 82.5t55 185.5l82 278
q17 58 17 87q0 36 -26 51t-89 15h-49l7 74l394 31l-199 -673q-24 -79 -24 -117q0 -37 25.5 -62.5t62.5 -25.5q94 0 201 118q145 158 217 401l97 328h177z" />
    <glyph glyph-name="v" unicode="v" horiz-adv-x="1063" 
d="M455 963l-141 -474q-47 -161 -47 -254q0 -71 39 -114q41 -45 96 -45q79 0 159.5 72t140.5 196q90 186 90 306q0 33 -10 53.5t-47 61.5q-44 49 -44 95q0 43 27 73t66 30q53 0 90 -47t37 -116q0 -119 -51 -280t-128 -285q-165 -267 -379 -267q-132 0 -206 101
q-55 76 -55 167q0 101 39 233l70 236q19 64 19 94q0 59 -117 59h-34l7 74z" />
    <glyph glyph-name="w" unicode="w" horiz-adv-x="1593" 
d="M460 963l-178 -601q-40 -136 -40 -187q0 -41 30.5 -69t74.5 -28q104 0 215 153q122 171 178 358l101 343h177l-131 -443q-48 -163 -48 -265q0 -86 43 -121q31 -25 69 -25q146 0 284 263q41 78 67 165t26 145q0 32 -10.5 53t-45.5 62q-44 49 -44 94q0 43 27.5 73t65.5 30
q55 0 91.5 -46.5t36.5 -116.5q0 -126 -55.5 -294t-138.5 -297q-75 -114 -150 -171q-92 -69 -206 -69q-110 0 -167 66q-54 62 -54 155q0 37 4 84q-92 -135 -156 -199q-105 -106 -243 -106q-113 0 -171 65q-47 53 -47 133q0 61 34 176l107 362q17 56 17 88q0 35 -26 50t-89 15
h-34l7 74z" />
    <glyph glyph-name="x" unicode="x" horiz-adv-x="1024" 
d="M411 317l-61 -110q-133 -238 -284 -238q-61 0 -97.5 34.5t-36.5 92.5q0 53 29 86t74 33q75 0 89 -80q8 -41 31 -41q52 0 142 161l91 165l-24 119q-31 152 -38.5 181.5t-20.5 54.5q-16 30 -44 30q-26 0 -57 -33.5t-111 -146.5l-58 43q111 163 154 211q74 84 140 84
q64 0 101 -55.5t63 -188.5l23 -112l58 106q53 95 68 118.5t45 55.5q72 76 160 76q60 0 92 -45q25 -36 25 -81q0 -51 -27.5 -80.5t-74.5 -29.5q-28 0 -42 10t-28 41q-12 27 -34 27q-56 0 -130 -137l-91 -166l41 -194q26 -127 47 -170.5t57 -43.5t83 52q53 60 106 144l63 -35
q-60 -103 -96 -147q-71 -85 -111 -112t-96 -27q-98 0 -147 87q-22 41 -42 125z" />
    <glyph glyph-name="y" unicode="y" horiz-adv-x="1024" 
d="M541 213q99 158 156 293.5t57 213.5q0 33 -14 106q-3 18 -3 34q0 42 29.5 72.5t70.5 30.5q42 0 67.5 -29t25.5 -76q0 -53 -27 -121.5t-113 -236.5q-252 -491 -414 -693q-176 -221 -350 -221q-74 0 -129 40q-59 43 -59 112q0 47 30.5 78.5t75.5 31.5q64 0 89 -64
q6 -16 6 -80q0 -32 38 -32q89 0 217 158q41 50 116 172q-59 351 -144 665q-35 130 -78 130q-26 0 -51 -36.5t-83 -160.5l-63 29q130 334 268 334q58 0 95 -50q57 -79 96 -267z" />
    <glyph glyph-name="z" unicode="z" horiz-adv-x="948" 
d="M722 310l73 -26q-48 -144 -138 -229.5t-195 -85.5q-104 0 -243 66q-95 45 -117.5 54t-41.5 9t-18 -16l1 -18q2 -42 -15.5 -68.5t-46.5 -26.5q-49 0 -49 49q0 98 148 262q87 96 162.5 153.5t302.5 198.5q87 54 150 122q-64 -17 -103 -17q-47 0 -76 6t-113 34
q-88 30 -122 30q-76 0 -168 -163l-68 34q145 285 337 285q36 0 69.5 -11.5t104.5 -46.5q93 -47 146 -47q22 0 33 11t20 43q15 52 50 52q22 0 35.5 -13.5t13.5 -33.5q0 -41 -45 -117t-117 -159q-75 -85 -148 -143t-194 -128q-121 -69 -165.5 -101.5t-82.5 -79.5q64 18 100 18
q65 0 207 -50q90 -32 138 -32q97 0 175 185z" />
    <glyph glyph-name="braceleft" unicode="{" horiz-adv-x="682" 
d="M129 658q65 18 105 47q44 33 64 72.5t50 152.5l65 241q51 191 140 254q66 50 207 54h20l-16 -59q-84 -12 -123 -58q-55 -64 -96 -214l-70 -264q-32 -117 -79 -171.5t-142 -82.5q106 -42 106 -134q0 -40 -26 -137l-61 -228q-30 -112 -30 -171q0 -55 27 -87t76 -35l-16 -59
h-44q-62 0 -107 27q-73 46 -73 151q0 69 34 195l48 179q27 98 27 142q0 92 -101 127z" />
    <glyph glyph-name="bar" unicode="|" horiz-adv-x="1241" 
d="M690 1479v-1979h-139v1979h139z" />
    <glyph glyph-name="braceright" unicode="}" horiz-adv-x="682" 
d="M449 600q-64 -16 -106 -48q-44 -32 -64.5 -71.5t-50.5 -152.5l-64 -241q-52 -192 -141 -254q-67 -51 -207 -54h-17l16 59q83 12 122 58q54 63 94 214l71 263q31 118 78 172.5t142 82.5q-105 42 -105 133q0 44 25 138l61 228q30 111 30 173q0 53 -27 85t-75 35l16 59h43
q63 0 108 -28q75 -47 75 -142q0 -67 -37 -203l-47 -179q-27 -99 -27 -142q0 -97 103 -127z" />
    <glyph glyph-name="asciitilde" unicode="~" horiz-adv-x="1241" 
d="M192 373l-108 77q57 100 135 159.5t152 59.5q67 0 202 -64l95 -46q83 -40 107.5 -48.5t56.5 -8.5q88 0 176 132l108 -77q-56 -100 -134.5 -159.5t-152.5 -59.5q-69 0 -201 64l-95 46q-83 39 -108.5 48t-56.5 9q-88 0 -176 -132z" />
    <glyph glyph-name="nonbreakingspace" unicode="&#xa0;" horiz-adv-x="569" 
 />
    <glyph glyph-name="exclamdown" unicode="&#xa1;" horiz-adv-x="682" 
d="M347 720l73 -20q-70 -255 -105 -450t-56 -439q-9 -107 -49 -167t-102 -60q-55 0 -88.5 33t-33.5 85q0 46 13.5 82.5t88.5 196.5q121 257 259 739zM448 1124q52 0 89 -37.5t37 -89.5q0 -53 -37 -90t-90 -37t-90 37t-37 90t37 90t91 37z" />
    <glyph glyph-name="cent" unicode="&#xa2;" horiz-adv-x="1139" 
d="M455 -29l-110 -247h-88l115 260q-77 23 -135 77q-112 105 -112 282q0 173 91 330q78 134 209 213q126 75 254 75q53 0 116 -24l112 253h88l-131 -297q72 -64 72 -150q0 -66 -38 -108.5t-96 -42.5q-37 0 -64 19l-239 -540q87 3 159 50t154 156l64 -46q-86 -128 -189 -194
t-215 -66h-17zM421 94l284 638q23 51 69 61q21 4 26 8.5t5 18.5q0 25 -40 45t-92 20q-111 0 -196 -110q-70 -92 -113.5 -218t-43.5 -236q0 -166 101 -227z" />
    <glyph glyph-name="sterling" unicode="&#xa3;" horiz-adv-x="1139" 
d="M840 754l-10 -88h-270q-1 -222 -106 -450q142 -75 263 -75q91 0 157 39.5t123 126.5l72 -29q-39 -97 -86 -159q-113 -150 -298 -150q-79 0 -141.5 25.5t-162.5 97.5q-62 -70 -110.5 -96.5t-113.5 -26.5q-76 0 -124.5 46t-48.5 118q0 79 57 129q50 45 120 45q77 0 185 -43
q32 92 32 191q0 82 -18 211h-257l10 88h239q-4 77 -4 114q0 237 103 382q58 82 145 132q105 60 222 60q144 0 233 -85q65 -62 65 -159q0 -81 -40.5 -130.5t-105.5 -49.5q-50 0 -82 30.5t-32 78.5q0 62 62 108q31 23 38 31.5t7 24.5q0 33 -33.5 53t-88.5 20q-92 0 -160 -61.5
t-96 -169.5q-26 -100 -26 -284q0 -29 3 -95h278zM305 154q-82 69 -148 69q-40 0 -66.5 -26t-26.5 -64q0 -40 26.5 -64t69.5 -24q95 0 145 109z" />
    <glyph glyph-name="currency" unicode="&#xa4;" horiz-adv-x="1139" 
d="M871 1116l109 109l105 -106l-108 -108q106 -138 106 -310q0 -166 -102 -301l104 -104l-105 -106l-104 105q-136 -102 -301 -102q-169 0 -310 106l-108 -109l-106 106l109 109q-107 142 -107 309q0 170 102 301l-104 104l106 106l104 -104q136 102 300 102q168 0 310 -107
zM569 1055q-143 0 -245 -101q-101 -101 -101 -246q0 -144 101 -245q102 -102 241 -102q147 0 249 102q101 101 101 246q0 146 -101 245q-104 101 -245 101z" />
    <glyph glyph-name="yen" unicode="&#xa5;" horiz-adv-x="1139" 
d="M724 754h244l-10 -88h-298l-3 -4l-42 -160h299l-10 -88h-313l-43 -162q-20 -74 -20 -100q0 -34 31.5 -45t130.5 -11h56l-11 -96h-650l11 96h27q140 0 170 29q13 12 20 30t28 97l43 162h-302l10 88h316l43 160l-2 4h-300l10 88h258l-162 451q-27 74 -66 107.5t-99 33.5h-8
l11 96h524l-11 -96h-29q-69 0 -97.5 -11.5t-28.5 -37.5q0 -19 22 -79l156 -441l262 378q54 77 54 113t-36 57t-97 21h-19l11 96h472l-11 -96q-88 -16 -140 -58t-143 -170z" />
    <glyph glyph-name="brokenbar" unicode="&#xa6;" horiz-adv-x="1241" 
d="M690 1479v-660h-139v660h139zM690 659v-659h-139v659h139z" />
    <glyph glyph-name="section" unicode="&#xa7;" horiz-adv-x="1024" 
d="M518 269q59 -100 81.5 -160.5t22.5 -122.5q0 -89 -52 -163q-91 -130 -279 -130q-175 0 -263 106q-51 61 -51 137q0 56 33.5 92t85.5 36q50 0 81 -31t31 -80q0 -52 -44 -95q-18 -17 -18 -30q0 -28 41.5 -49t95.5 -21q75 0 121 47.5t46 125.5q0 68 -30 129.5t-120 178.5
l-124 161q-113 148 -113 279q0 138 108 215q77 55 174 55q45 0 101 -19q-65 94 -89 154.5t-24 131.5q0 148 102 223q95 71 238 71q120 0 207 -57q103 -68 103 -183q0 -58 -32 -94.5t-84 -36.5q-51 0 -84.5 31.5t-33.5 80.5q0 34 13 56t53 54q11 9 11 19q0 25 -43 45t-98 20
q-85 0 -135.5 -47.5t-50.5 -127.5q0 -60 35.5 -129t130.5 -193l118 -154q110 -144 110 -266q0 -126 -96 -210q-73 -64 -181 -64q-43 0 -98 15zM273 594l99 -136q60 -84 98 -110.5t97 -26.5q77 0 125 49q45 45 45 100q0 83 -78 187l-86 115q-39 51 -91 80t-106 29
q-69 0 -112.5 -41t-43.5 -106q0 -67 53 -140z" />
    <glyph glyph-name="dieresis" unicode="&#xa8;" horiz-adv-x="682" 
d="M451 1319q41 0 70.5 -29.5t29.5 -70.5q0 -42 -29.5 -71.5t-71.5 -29.5q-41 0 -70.5 29.5t-29.5 71.5q0 41 29.5 70.5t71.5 29.5zM865 1319q41 0 70.5 -29.5t29.5 -70.5q0 -42 -29.5 -71.5t-71.5 -29.5q-41 0 -70.5 30t-29.5 71t29.5 70.5t71.5 29.5z" />
    <glyph glyph-name="copyright" unicode="&#xa9;" horiz-adv-x="1530" 
d="M1059 1108l17 -346h-72q-26 103 -64 171q-60 105 -174 105q-105 0 -159 -91.5t-54 -269.5q0 -335 225 -335q195 0 238 247l77 -14q-16 -119 -67 -189q-89 -122 -260 -122q-166 0 -274 117q-111 119 -111 300q0 171 107 298q114 137 277 137q56 0 94.5 -13.5t97.5 -54.5
l40 60h62zM766 1403q201 0 375 -106q173 -106 264 -285q78 -154 78 -324q0 -204 -105 -377q-106 -172 -286 -264q-154 -78 -335 -78q-192 0 -365 106q-173 105 -265 286q-78 153 -78 325q0 201 105 375q103 170 287 264q152 78 325 78zM766 1315q-258 0 -440 -184
q-87 -87 -135 -205q-48 -116 -48 -241q0 -176 92 -328q92 -151 248 -231q134 -69 275 -69q266 0 449 184q182 184 182 446q0 175 -91 328q-89 149 -249 231q-133 69 -283 69z" />
    <glyph glyph-name="ordfeminine" unicode="&#xaa;" horiz-adv-x="864" 
d="M696 1479h115l-132 -409q-16 -49 -16 -66q0 -31 28 -31q47 0 134 143l39 -20q-94 -191 -220 -191q-36 0 -58.5 22t-22.5 57q0 16 6 40q-50 -66 -94.5 -92t-107.5 -26q-89 0 -143 54.5t-54 144.5q0 153 108 281q95 111 215 111q68 0 113.5 -35t53.5 -93zM520 1429
q-62 0 -107 -42q-53 -50 -87.5 -135t-34.5 -165q0 -56 28.5 -88t78.5 -32q95 0 154 110q69 127 69 244q0 50 -27 79t-74 29z" />
    <glyph glyph-name="guillemotleft" unicode="&#xab;" horiz-adv-x="872" 
d="M375 498q317 243 381 295q38 30 50 30q17 0 17 -26q0 -14 -15.5 -32.5t-108.5 -115.5l-161 -173l125 -243q5 -11 5 -25q0 -34 -32 -34q-16 0 -37 30q-22 31 -132 174q-67 88 -92 120zM-31 498l51 40l106 81q197 151 225 174q38 30 50 30q17 0 17 -26q0 -14 -15.5 -32.5
t-108.5 -115.5l-162 -173l125 -243q5 -10 5 -25q0 -34 -32 -34q-16 0 -37 30t-131 174q-67 88 -93 120z" />
    <glyph glyph-name="logicalnot" unicode="&#xac;" horiz-adv-x="1241" 
d="M84 600h1032v-600h-164v436h-868v164z" />
    <glyph glyph-name="uni00AD" unicode="&#xad;" horiz-adv-x="682" 
d="M112 569h419l-46 -170h-419z" />
    <glyph glyph-name="registered" unicode="&#xae;" horiz-adv-x="1530" 
d="M658 694v-237q0 -56 8.5 -63t76.5 -7h33v-78h-387v78h34q69 0 77 6.5t8 63.5v524q0 57 -8 63.5t-77 6.5h-34v77h394q123 0 200 -40q102 -54 102 -168q0 -80 -45.5 -127t-149.5 -75q50 -26 74 -60t40 -101l17 -70q16 -57 22.5 -70t20.5 -13q31 0 33 108h72v-23
q0 -196 -148 -196q-71 0 -107 43.5t-47 143.5l-6 56q-11 97 -50 129q-37 29 -103 29h-50zM658 772h107q81 0 119.5 35.5t38.5 110.5q0 71 -33 102t-111 31h-59h-27q-26 0 -30.5 -7t-4.5 -43v-229zM764 1403q201 0 375 -106q173 -106 264 -285q78 -154 78 -324
q0 -204 -105 -377q-106 -172 -286 -264q-154 -78 -335 -78q-192 0 -365 106q-173 105 -265 286q-78 153 -78 325q0 201 105 375q103 170 287 264q152 78 325 78zM764 1315q-257 0 -440 -184q-88 -88 -135 -204q-48 -116 -48 -241q0 -177 92 -328t249 -232q133 -69 275 -69
q265 0 448 184q182 185 182 447q0 176 -91 327q-90 149 -249 231q-133 69 -283 69z" />
    <glyph glyph-name="macron" unicode="&#xaf;" horiz-adv-x="682" 
d="M371 1249h617l-22 -104h-617z" />
    <glyph glyph-name="degree" unicode="&#xb0;" horiz-adv-x="819" 
d="M457 1405q132 0 220 -97q80 -87 80 -216q0 -131 -86 -220q-90 -93 -222 -93q-142 0 -233 108q-73 87 -73 206q0 143 104 232q92 80 210 80zM454 1288q-80 0 -136 -54q-60 -59 -60 -143q0 -80 56.5 -137.5t135.5 -57.5t132 53q58 58 58 143q0 78 -51 135q-56 61 -135 61z
" />
    <glyph glyph-name="plusminus" unicode="&#xb1;" horiz-adv-x="1241" 
d="M509 590h-433v164h433v436h164v-436h433v-164h-433v-359h-164v359zM76 0v164h1030v-164h-1030z" />
    <glyph glyph-name="twosuperior" unicode="&#xb2;" horiz-adv-x="682" 
d="M0 589q9 41 26.5 68t61.5 68q97 91 328 275q101 81 130 140q27 54 27 107q0 60 -41 97t-108 37q-72 0 -131 -41q-45 -33 -45 -62q0 -14 32 -30q62 -32 62 -80q0 -37 -26 -61t-65 -24q-48 0 -77 32t-29 87q0 102 92 175q98 78 224 78q108 0 182 -55q80 -59 80 -164
q0 -73 -35.5 -131t-114.5 -116q-35 -25 -221 -145q-129 -82 -181 -138h289q47 0 67 14.5t55 73.5l37 62l60 -23l-105 -244h-574z" />
    <glyph glyph-name="threesuperior" unicode="&#xb3;" horiz-adv-x="682" 
d="M473 1037q143 -45 143 -174q0 -126 -105 -210q-100 -81 -251 -81q-116 0 -185 49q-73 52 -73 149q0 49 27 79t72 30q37 0 63.5 -23.5t26.5 -57.5q0 -52 -58 -76q-22 -9 -22 -20q0 -26 39 -45.5t91 -19.5q122 0 179 93q42 69 42 156q0 53 -28 85.5t-73 32.5q-17 0 -47 -4
q-16 -2 -28 -2q-44 0 -44 37q0 41 50 41q4 0 46 -3q23 -2 29 -2q64 0 115.5 62t51.5 139q0 55 -35.5 85t-99.5 30q-43 0 -81.5 -17t-38.5 -36q0 -8 15 -23q30 -28 30 -59q0 -33 -22.5 -54.5t-57.5 -21.5q-39 0 -63.5 25t-24.5 66q0 74 76 130q79 58 191 58q100 0 173 -47
q82 -53 82 -152q0 -155 -205 -219z" />
    <glyph glyph-name="acute" unicode="&#xb4;" horiz-adv-x="682" 
d="M382 1063l283 286q62 62 103 62q30 0 50.5 -20.5t20.5 -50.5q0 -48 -52 -79l-326 -198h-79z" />
    <glyph glyph-name="mu" unicode="&#xb5;" horiz-adv-x="1251" 
d="M84 858l7 74l394 31l-199 -673q-24 -80 -24 -118q0 -36 25.5 -61.5t62.5 -25.5q94 0 201 118q145 158 217 401l97 328h178l-202 -680q-27 -91 -27 -122q0 -19 11.5 -33.5t25.5 -14.5q68 0 227 231l61 -37q-69 -106 -130 -176q-114 -131 -242 -131q-55 0 -91 34
q-40 39 -40 100q0 48 25 142q-173 -274 -377 -274q-108 0 -161 94q-16 -55 -20 -80.5t-5 -83.5q-2 -108 -8 -149t-26 -88q-21 -49 -60.5 -81t-78.5 -32q-29 0 -48.5 22.5t-19.5 57.5q0 46 19 91.5t87 162.5q53 93 72 157l196 663q17 57 17 87q0 36 -26 51t-89 15h-49z" />
    <glyph glyph-name="paragraph" unicode="&#xb6;" horiz-adv-x="1331" 
d="M572 664h-68q-309 0 -309 267q0 157 86 307q99 174 271 219q58 16 93 19t156 3h520l-7 -74q-102 -6 -127 -28q-13 -12 -19.5 -30t-32.5 -119l-340 -1271q-31 -116 -31 -133q0 -23 22.5 -31.5t93.5 -12.5l-6 -75h-694l6 75h10q103 0 133 28q14 12 20 29.5t33 119.5z
M770 1405q-63 0 -101 -16q-56 -23 -91.5 -77.5t-63.5 -158.5l-45 -169q-19 -70 -19 -133q0 -56 26.5 -88t72.5 -32h41zM1049 1405h-146l-435 -1624h147z" />
    <glyph glyph-name="glyph121" unicode="&#xb7;" horiz-adv-x="569" 
d="M284 629q53 0 90 -37t37 -90t-37 -90t-91 -37q-52 0 -89 37.5t-37 89.5q0 53 37 90t90 37z" />
    <glyph glyph-name="cedilla" unicode="&#xb8;" horiz-adv-x="682" 
d="M291 0l-78 -132q36 7 60 7q75 0 121 -38.5t46 -101.5q0 -79 -69 -130q-65 -48 -184 -48q-96 0 -181 34l37 69q70 -25 127 -25q52 0 83 22.5t31 59.5q0 36 -27 58t-71 22q-28 0 -68 -12l-17 11l118 204h72z" />
    <glyph glyph-name="onesuperior" unicode="&#xb9;" horiz-adv-x="682" 
d="M633 1458l-205 -716q-12 -48 -12 -57q0 -16 17.5 -21t77.5 -5h78l-9 -70h-492l9 70h62q82 0 96.5 10t34.5 77l138 484q13 42 13 53q0 12 -12.5 14.5t-68.5 2.5h-98l19 66q175 6 303 92h49z" />
    <glyph glyph-name="ordmasculine" unicode="&#xba;" horiz-adv-x="762" 
d="M527 1498q98 0 167 -69q68 -68 68 -161q0 -148 -113 -262q-98 -100 -248 -100q-114 0 -173 65q-58 63 -58 165q0 152 111 257q112 105 246 105zM520 1451q-74 0 -129 -66q-42 -49 -71.5 -138.5t-29.5 -165.5q0 -129 119 -129q113 0 179 151q47 106 47 204q0 144 -115 144
z" />
    <glyph glyph-name="guillemotright" unicode="&#xbb;" horiz-adv-x="872" 
d="M414 498l-52 -39l-106 -81q-194 -149 -224 -174q-38 -30 -50 -30q-17 0 -17 25q0 15 15.5 33.5t108.5 115.5l161 173l-125 244q-5 10 -5 24q0 34 32 34q16 0 37 -30q25 -35 132 -174q67 -88 93 -121zM819 498q-298 -226 -381 -294q-38 -30 -50 -30q-17 0 -17 25
q0 15 15.5 33.5t107.5 115.5l161 173l-124 244q-5 9 -5 24q0 34 32 34q16 0 37 -30q72 -103 224 -295z" />
    <glyph glyph-name="onequarter" unicode="&#xbc;" horiz-adv-x="1708" 
d="M1240 1450h110l-784 -1450h-110zM1705 868l-162 -565h146l-21 -80h-147l-20 -69q-13 -46 -13 -57q0 -17 18 -21.5t78 -4.5h32l-9 -71h-414l9 71h30q81 0 96 9.5t34 77.5l19 65h-361l-1 61l605 584h81zM1404 303l101 353l-368 -353h267zM612 1458l-205 -716
q-12 -48 -12 -57q0 -16 17.5 -21t77.5 -5h78l-9 -70h-492l9 70h62q82 0 96.5 10t34.5 77l138 484q13 42 13 53q0 12 -12.5 14.5t-68.5 2.5h-98l19 66q175 6 303 92h49z" />
    <glyph glyph-name="onehalf" unicode="&#xbd;" horiz-adv-x="1708" 
d="M1227 1450h111l-784 -1450h-111zM613 1458l-205 -716q-12 -48 -12 -57q0 -16 17.5 -21t77.5 -5h78l-9 -70h-492l9 70h62q82 0 96.5 10t34.5 77l138 484q13 42 13 53q0 12 -12.5 14.5t-68.5 2.5h-98l19 66q175 6 303 92h49zM1006 0q9 41 26.5 68t61.5 68q98 92 328 275
q101 80 130 139q27 55 27 107q0 60 -41 97t-108 37q-73 0 -131 -41q-45 -32 -45 -62q0 -14 32 -30q62 -31 62 -80q0 -36 -26 -60t-65 -24q-48 0 -77 32t-29 86q0 102 92 175q98 78 224 78q108 0 182 -55q80 -58 80 -164q0 -73 -35 -131t-115 -115q-32 -24 -221 -145
q-130 -83 -181 -138h289q47 0 67 14.5t55 73.5l37 61l60 -22l-105 -244h-574z" />
    <glyph glyph-name="threequarters" unicode="&#xbe;" horiz-adv-x="1708" 
d="M1265 1450h111l-784 -1450h-111zM1706 868l-162 -565h146l-21 -80h-148l-20 -69q-12 -48 -12 -57q0 -17 18 -21.5t77 -4.5h32l-9 -71h-413l8 71h30q82 0 97 9.5t34 77.5l19 65h-362v61l604 584h82zM1404 303l101 353l-368 -353h267zM473 1037q143 -45 143 -174
q0 -126 -105 -210q-100 -81 -251 -81q-116 0 -185 49q-73 52 -73 149q0 49 27 79t72 30q37 0 63.5 -23.5t26.5 -57.5q0 -52 -58 -76q-22 -9 -22 -20q0 -26 39 -45.5t91 -19.5q122 0 179 93q42 69 42 156q0 53 -28 85.5t-73 32.5q-17 0 -47 -4q-16 -2 -28 -2q-44 0 -44 37
q0 41 50 41q4 0 46 -3q23 -2 29 -2q64 0 115.5 62t51.5 139q0 55 -35.5 85t-99.5 30q-43 0 -81.5 -17t-38.5 -36q0 -8 15 -23q30 -28 30 -59q0 -33 -22.5 -54.5t-57.5 -21.5q-39 0 -63.5 25t-24.5 66q0 74 76 130q79 58 191 58q100 0 173 -47q82 -53 82 -152
q0 -155 -205 -219z" />
    <glyph glyph-name="questiondown" unicode="&#xbf;" horiz-adv-x="909" 
d="M274 457l-74 12q18 96 83.5 155.5t153.5 59.5q77 0 128 -46q64 -57 64 -158q0 -110 -73.5 -211t-251.5 -237q-89 -68 -125 -119.5t-36 -111.5q0 -58 44 -97t109 -39q116 0 189 85t73 220q0 17 -1 44h78q2 -33 2 -49q0 -151 -84 -258q-97 -124 -260 -124q-120 0 -195 73
q-84 82 -84 211q0 123 79 221q49 61 100.5 102.5t195.5 135.5q74 48 105.5 89.5t31.5 90.5q0 47 -24.5 73.5t-68.5 26.5q-80 0 -121 -62q-18 -25 -38 -87zM535 1124q52 0 89 -37.5t37 -89.5q0 -53 -37 -90t-90 -37t-90 37t-37 90t37 90t91 37z" />
    <glyph glyph-name="Agrave" unicode="&#xc0;" horiz-adv-x="1442" 
d="M905 1509l256 -1288q16 -81 43 -103t112 -22h52l-11 -96h-616l11 96h32q88 0 118 15t30 58q0 24 -8 67l-47 252h-522l-113 -197q-37 -64 -37 -113q0 -46 31 -64t110 -18h49l-11 -96h-552l11 96q93 4 163 66t140 183l676 1164h83zM859 584l-115 589l-335 -589h450z
M946 1585h-83l-275 219q-31 25 -31 52q0 32 24 56.5t55 24.5q23 0 37 -10t43 -46z" />
    <glyph glyph-name="Aacute" unicode="&#xc1;" horiz-adv-x="1442" 
d="M905 1509l256 -1288q16 -81 43 -103t112 -22h52l-11 -96h-616l11 96h32q88 0 118 15t30 58q0 24 -8 67l-47 252h-522l-113 -197q-37 -64 -37 -113q0 -46 31 -64t110 -18h49l-11 -96h-552l11 96q93 4 163 66t140 183l676 1164h83zM859 584l-115 589l-335 -589h450z
M781 1585l283 293q60 61 102 61q30 0 50.5 -20.5t20.5 -50.5q0 -46 -51 -79l-326 -204h-79z" />
    <glyph glyph-name="Acircumflex" unicode="&#xc2;" horiz-adv-x="1442" 
d="M905 1509l256 -1288q16 -81 43 -103t112 -22h52l-11 -96h-616l11 96h32q88 0 118 15t30 58q0 24 -8 67l-47 252h-522l-113 -197q-37 -64 -37 -113q0 -46 31 -64t110 -18h49l-11 -96h-552l11 96q93 4 163 66t140 183l676 1164h83zM859 584l-115 589l-335 -589h450z
M972 1925l187 -340h-73l-176 207l-280 -207h-73l314 340h101z" />
    <glyph glyph-name="Atilde" unicode="&#xc3;" horiz-adv-x="1442" 
d="M905 1509l256 -1288q16 -81 43 -103t112 -22h52l-11 -96h-616l11 96h32q88 0 118 15t30 58q0 24 -8 67l-47 252h-522l-113 -197q-37 -64 -37 -113q0 -46 31 -64t110 -18h49l-11 -96h-552l11 96q93 4 163 66t140 183l676 1164h83zM859 584l-115 589l-335 -589h450z
M1163 1879h62q-9 -87 -66 -150t-124 -63q-52 0 -177 46q-114 42 -152 42q-65 0 -91 -90h-62q14 74 44 124q54 89 140 89q48 0 205 -54q87 -30 121 -30q66 0 100 86z" />
    <glyph glyph-name="Adieresis" unicode="&#xc4;" horiz-adv-x="1442" 
d="M905 1509l256 -1288q16 -81 43 -103t112 -22h52l-11 -96h-616l11 96h32q88 0 118 15t30 58q0 24 -8 67l-47 252h-522l-113 -197q-37 -64 -37 -113q0 -46 31 -64t110 -18h49l-11 -96h-552l11 96q93 4 163 66t140 183l676 1164h83zM859 584l-115 589l-335 -589h450z
M656 1863q41 0 70.5 -29.5t29.5 -70.5q0 -42 -29.5 -71.5t-72.5 -29.5q-40 0 -69.5 29.5t-29.5 70.5q0 42 29.5 71.5t71.5 29.5zM1070 1863q41 0 70.5 -29.5t29.5 -70.5q0 -42 -29.5 -71.5t-72.5 -29.5q-40 0 -69.5 29.5t-29.5 70.5q0 42 29.5 71.5t71.5 29.5z" />
    <glyph glyph-name="Aring" unicode="&#xc5;" horiz-adv-x="1442" 
d="M905 1509l256 -1288q16 -81 43 -103t112 -22h52l-11 -96h-616l11 96h32q88 0 118 15t30 58q0 24 -8 67l-47 252h-522l-113 -197q-37 -64 -37 -113q0 -46 31 -64t110 -18h49l-11 -96h-552l11 96q93 4 163 66t140 183l676 1164h83zM859 584l-115 589l-335 -589h450z
M883 1978q84 0 144 -60q60 -59 60 -143q0 -85 -60 -144q-60 -60 -146 -60q-82 0 -141 60q-60 59 -60 144t60 143q61 60 143 60zM883 1904q-53 0 -91 -38t-38 -91t38 -91.5t90 -38.5q55 0 93 38t38 92q0 53 -38 91t-92 38z" />
    <glyph glyph-name="AE" unicode="&#xc6;" horiz-adv-x="1782" 
d="M1703 985h-93q0 27 1 41q1 74 1 104q0 253 -242 253h-54q-81 0 -107.5 -23.5t-51.5 -119.5l-113 -419h15q126 0 201.5 60.5t120.5 196.5l93 -14l-183 -682l-93 16q19 80 19 143q0 184 -184 184h-14l-121 -450q-6 -24 -11 -41q-13 -44 -13 -74q0 -64 131 -64h44
q178 0 290 76.5t208 265.5q27 53 44 81l84 -16l-161 -503h-1089l11 96h8q141 0 171 28q13 12 19.5 29.5t28.5 98.5l85 318h-391l-195 -282q-51 -73 -51 -118q0 -44 54 -63q27 -10 103 -11l-11 -96h-445l11 96q71 1 140 95l655 941q44 62 60.5 98t16.5 66q0 48 -36.5 67.5
t-128.5 19.5h-55l11 96h1296zM773 666l170 634q12 51 12 59q0 22 -19 22q-15 0 -44 -41l-471 -674h352z" />
    <glyph glyph-name="Ccedilla" unicode="&#xc7;" horiz-adv-x="1479" 
d="M657 -30l-60 -102q36 7 60 7q75 0 121.5 -38.5t46.5 -102.5q0 -78 -69 -129q-66 -48 -185 -48q-96 0 -181 34l38 69q70 -25 127 -25q52 0 83 22.5t31 59.5q0 36 -27 58t-71 22q-27 0 -68 -12l-18 11l104 179q-167 24 -283 109q-224 163 -224 490q0 345 228 625
q253 311 595 311q116 0 200 -38t160 -126l122 118h73l-115 -573h-84q-8 217 -52 324q-85 206 -286 206q-149 0 -276 -112q-132 -118 -223 -365q-86 -232 -86 -451q0 -185 94 -303q95 -120 287 -120q229 0 379 185q47 58 116 201l84 -37q-76 -177 -162 -266
q-178 -184 -443 -184q-12 0 -36 1z" />
    <glyph glyph-name="Egrave" unicode="&#xc8;" horiz-adv-x="1479" 
d="M1435 1479l-79 -494h-93q1 55 1 70q0 109 -16.5 165t-59.5 95q-77 68 -209 68h-120q-115 0 -146 -22t-57 -120l-113 -420h47q165 0 247 69q76 64 117 188l93 -14l-183 -683l-93 16q19 83 19 140q0 186 -226 188h-46l-121 -450q-23 -87 -23 -113q0 -37 32 -51.5t112 -14.5
h111q159 0 265 46q169 73 292 296q36 66 45 80l84 -16l-161 -502h-1230l11 96h9q140 0 170 28q13 12 20 30.5t27 96.5l262 977q19 71 19 100q0 34 -31 44.5t-130 10.5h-53l11 96h1196zM1038 1585h-83l-275 219q-30 24 -30 52q0 32 24 56.5t55 24.5q23 0 36.5 -9.5
t41.5 -46.5z" />
    <glyph glyph-name="Eacute" unicode="&#xc9;" horiz-adv-x="1479" 
d="M1435 1479l-79 -494h-93q1 55 1 70q0 109 -16.5 165t-59.5 95q-77 68 -209 68h-120q-115 0 -146 -22t-57 -120l-113 -420h47q165 0 247 69q76 64 117 188l93 -14l-183 -683l-93 16q19 83 19 140q0 186 -226 188h-46l-121 -450q-23 -87 -23 -113q0 -37 32 -51.5t112 -14.5
h111q159 0 265 46q169 73 292 296q36 66 45 80l84 -16l-161 -502h-1230l11 96h9q140 0 170 28q13 12 20 30.5t27 96.5l262 977q19 71 19 100q0 34 -31 44.5t-130 10.5h-53l11 96h1196zM797 1585l283 293q60 61 103 61q30 0 51 -20.5t21 -49.5q0 -46 -53 -80l-326 -204h-79z
" />
    <glyph glyph-name="Ecircumflex" unicode="&#xca;" horiz-adv-x="1479" 
d="M1435 1479l-79 -494h-93q1 55 1 70q0 109 -16.5 165t-59.5 95q-77 68 -209 68h-120q-115 0 -146 -22t-57 -120l-113 -420h47q165 0 247 69q76 64 117 188l93 -14l-183 -683l-93 16q19 83 19 140q0 186 -226 188h-46l-121 -450q-23 -87 -23 -113q0 -37 32 -51.5t112 -14.5
h111q159 0 265 46q169 73 292 296q36 66 45 80l84 -16l-161 -502h-1230l11 96h9q140 0 170 28q13 12 20 30.5t27 96.5l262 977q19 71 19 100q0 34 -31 44.5t-130 10.5h-53l11 96h1196zM1031 1925l187 -340h-73l-176 207l-280 -207h-73l314 340h101z" />
    <glyph glyph-name="Edieresis" unicode="&#xcb;" horiz-adv-x="1479" 
d="M1435 1479l-79 -494h-93q1 55 1 70q0 109 -16.5 165t-59.5 95q-77 68 -209 68h-120q-115 0 -146 -22t-57 -120l-113 -420h47q165 0 247 69q76 64 117 188l93 -14l-183 -683l-93 16q19 83 19 140q0 186 -226 188h-46l-121 -450q-23 -87 -23 -113q0 -37 32 -51.5t112 -14.5
h111q159 0 265 46q169 73 292 296q36 66 45 80l84 -16l-161 -502h-1230l11 96h9q140 0 170 28q13 12 20 30.5t27 96.5l262 977q19 71 19 100q0 34 -31 44.5t-130 10.5h-53l11 96h1196zM729 1863q41 0 70.5 -29.5t29.5 -70.5q0 -42 -29.5 -71.5t-72.5 -29.5q-40 0 -69.5 29.5
t-29.5 70.5q0 42 29.5 71.5t71.5 29.5zM1143 1863q41 0 70.5 -29.5t29.5 -70.5q0 -42 -29.5 -71.5t-72.5 -29.5q-40 0 -69.5 29.5t-29.5 70.5q0 42 29.5 71.5t71.5 29.5z" />
    <glyph glyph-name="Igrave" unicode="&#xcc;" horiz-adv-x="833" 
d="M578 96l-11 -96h-635l11 96q91 2 122.5 7.5t49.5 20.5q12 12 19 30t28 97l261 976q21 78 21 101q0 34 -31 44.5t-132 10.5h-45l11 96h635l-11 -96q-92 -3 -123 -8t-48 -20q-13 -12 -19 -29t-29 -99l-261 -976q-21 -78 -21 -98q0 -35 31 -46t132 -11h45zM756 1585h-83
l-275 219q-31 25 -31 52q0 32 24 56.5t55 24.5q23 0 37 -10t43 -46z" />
    <glyph glyph-name="Iacute" unicode="&#xcd;" horiz-adv-x="833" 
d="M578 96l-11 -96h-635l11 96q91 2 122.5 7.5t49.5 20.5q12 12 19 30t28 97l261 976q21 78 21 101q0 34 -31 44.5t-132 10.5h-45l11 96h635l-11 -96q-92 -3 -123 -8t-48 -20q-13 -12 -19 -29t-29 -99l-261 -976q-21 -78 -21 -98q0 -35 31 -46t132 -11h45zM379 1585l283 293
q59 61 102 61q30 0 50.5 -20.5t20.5 -49.5q0 -47 -52 -80l-325 -204h-79z" />
    <glyph glyph-name="Icircumflex" unicode="&#xce;" horiz-adv-x="833" 
d="M578 96l-11 -96h-635l11 96q91 2 122.5 7.5t49.5 20.5q12 12 19 30t28 97l261 976q21 78 21 101q0 34 -31 44.5t-132 10.5h-45l11 96h635l-11 -96q-92 -3 -123 -8t-48 -20q-13 -12 -19 -29t-29 -99l-261 -976q-21 -78 -21 -98q0 -35 31 -46t132 -11h45zM696 1925
l186 -340h-73l-176 207l-280 -207h-73l314 340h102z" />
    <glyph glyph-name="Idieresis" unicode="&#xcf;" horiz-adv-x="833" 
d="M578 96l-11 -96h-635l11 96q91 2 122.5 7.5t49.5 20.5q12 12 19 30t28 97l261 976q21 78 21 101q0 34 -31 44.5t-132 10.5h-45l11 96h635l-11 -96q-92 -3 -123 -8t-48 -20q-13 -12 -19 -29t-29 -99l-261 -976q-21 -78 -21 -98q0 -35 31 -46t132 -11h45zM399 1863
q42 0 71.5 -29.5t29.5 -70.5q0 -42 -29.5 -71.5t-72.5 -29.5q-40 0 -69.5 29.5t-29.5 70.5q0 42 29.5 71.5t70.5 29.5zM813 1863q41 0 70.5 -29.5t29.5 -70.5q0 -42 -29.5 -71.5t-72.5 -29.5q-40 0 -69.5 29.5t-29.5 70.5q0 42 29.5 71.5t71.5 29.5z" />
    <glyph glyph-name="Eth" unicode="&#xd0;" horiz-adv-x="1593" 
d="M283 725h-210l25 96h211l112 406q19 70 19 100q0 34 -31 45t-130 11h-53l11 96h594q172 0 278.5 -24.5t182.5 -81.5q213 -159 213 -483q0 -224 -116 -438q-129 -238 -326 -350q-179 -102 -509 -102h-632l11 96h9q140 0 170 28q13 12 19.5 29.5t28.5 98.5zM512 725
l-130 -499q-12 -45 -12 -73q0 -57 95 -57h65q197 0 315 53q109 48 185 151q113 155 178 377q48 163 48 307q0 98 -26.5 180.5t-72.5 127.5q-91 91 -284 91h-63q-80 0 -104.5 -21.5t-49.5 -111.5l-118 -429h407l-26 -96h-407z" />
    <glyph glyph-name="Ntilde" unicode="&#xd1;" horiz-adv-x="1669" 
d="M646 1479l518 -1129l183 685q49 189 49 235q0 113 -185 113l11 96h537l-10 -96q-111 -3 -161 -48q-40 -34 -65 -92.5t-65 -207.5l-285 -1064h-79l-570 1233l-203 -758q-49 -188 -49 -235q0 -113 185 -113h22l-11 -96h-566l11 96q69 2 104 12t63 36q40 35 65 93.5
t65 206.5l233 872q-12 42 -36 53.5t-98 11.5h-106l11 96h432zM1324 1879h63q-5 -39 -19 -73q-27 -65 -74 -102.5t-100 -37.5q-49 0 -175 46q-114 42 -151 42q-65 0 -92 -90h-61q13 73 44 124q54 89 140 89q48 0 205 -54q87 -30 120 -30q67 0 100 86z" />
    <glyph glyph-name="Ograve" unicode="&#xd2;" horiz-adv-x="1593" 
d="M936 1510q242 0 406 -162q163 -161 163 -425q0 -294 -162 -544q-145 -222 -358 -330q-159 -80 -346 -80q-251 0 -399 153q-158 165 -158 441q0 265 131 493q128 220 341 348q176 106 382 106zM942 1422q-210 0 -367 -204q-97 -125 -172 -357q-80 -243 -80 -436
q0 -152 73 -254q81 -114 246 -114q159 0 290 109q135 112 235 382q98 264 98 469q0 72 -20 153.5t-49 129.5q-35 58 -108 90q-71 32 -146 32zM1137 1585h-83l-276 219q-30 24 -30 52q0 32 24 56.5t55 24.5q23 0 36.5 -9.5t42.5 -46.5z" />
    <glyph glyph-name="Oacute" unicode="&#xd3;" horiz-adv-x="1593" 
d="M936 1510q242 0 406 -162q163 -161 163 -425q0 -294 -162 -544q-145 -222 -358 -330q-159 -80 -346 -80q-251 0 -399 153q-158 165 -158 441q0 265 131 493q128 220 341 348q176 106 382 106zM942 1422q-210 0 -367 -204q-97 -125 -172 -357q-80 -243 -80 -436
q0 -152 73 -254q81 -114 246 -114q159 0 290 109q135 112 235 382q98 264 98 469q0 72 -20 153.5t-49 129.5q-35 58 -108 90q-71 32 -146 32zM882 1585l283 293q60 61 102 61q30 0 51 -20.5t21 -49.5q0 -47 -52 -80l-326 -204h-79z" />
    <glyph glyph-name="Ocircumflex" unicode="&#xd4;" horiz-adv-x="1593" 
d="M936 1510q242 0 406 -162q163 -161 163 -425q0 -294 -162 -544q-145 -222 -358 -330q-159 -80 -346 -80q-251 0 -399 153q-158 165 -158 441q0 265 131 493q128 220 341 348q176 106 382 106zM942 1422q-210 0 -367 -204q-97 -125 -172 -357q-80 -243 -80 -436
q0 -152 73 -254q81 -114 246 -114q159 0 290 109q135 112 235 382q98 264 98 469q0 72 -20 153.5t-49 129.5q-35 58 -108 90q-71 32 -146 32zM1103 1925l187 -340h-74l-176 207l-279 -207h-73l313 340h102z" />
    <glyph glyph-name="Otilde" unicode="&#xd5;" horiz-adv-x="1593" 
d="M936 1510q242 0 406 -162q163 -161 163 -425q0 -294 -162 -544q-145 -222 -358 -330q-159 -80 -346 -80q-251 0 -399 153q-158 165 -158 441q0 265 131 493q128 220 341 348q176 106 382 106zM942 1422q-210 0 -367 -204q-97 -125 -172 -357q-80 -243 -80 -436
q0 -152 73 -254q81 -114 246 -114q159 0 290 109q135 112 235 382q98 264 98 469q0 72 -20 153.5t-49 129.5q-35 58 -108 90q-71 32 -146 32zM1327 1879h63q-10 -87 -66.5 -150t-124.5 -63q-52 0 -177 46q-113 42 -151 42q-65 0 -92 -90h-61q13 74 44 124q53 89 140 89
q48 0 205 -54q87 -30 120 -30q66 0 100 86z" />
    <glyph glyph-name="Odieresis" unicode="&#xd6;" horiz-adv-x="1593" 
d="M936 1510q242 0 406 -162q163 -161 163 -425q0 -294 -162 -544q-145 -222 -358 -330q-159 -80 -346 -80q-251 0 -399 153q-158 165 -158 441q0 265 131 493q128 220 341 348q176 106 382 106zM942 1422q-210 0 -367 -204q-97 -125 -172 -357q-80 -243 -80 -436
q0 -152 73 -254q81 -114 246 -114q159 0 290 109q135 112 235 382q98 264 98 469q0 72 -20 153.5t-49 129.5q-35 58 -108 90q-71 32 -146 32zM828 1863q41 0 70.5 -29.5t29.5 -70.5q0 -42 -29.5 -71.5t-72.5 -29.5q-40 0 -69.5 29.5t-29.5 70.5q0 42 29.5 71.5t71.5 29.5z
M1242 1863q41 0 70.5 -29.5t29.5 -70.5q0 -42 -29.5 -71.5t-72.5 -29.5q-40 0 -69.5 29.5t-29.5 70.5q0 42 29.5 71.5t71.5 29.5z" />
    <glyph glyph-name="multiply" unicode="&#xd7;" horiz-adv-x="1241" 
d="M590 401l-399 -399l-115 117l398 398l-398 398l115 117l399 -399l399 399l117 -115l-400 -400l400 -400l-117 -115z" />
    <glyph glyph-name="Oslash" unicode="&#xd8;" horiz-adv-x="1593" 
d="M1279 1402l108 134h118l-157 -194q157 -162 157 -418q0 -294 -162 -545q-144 -222 -358 -330q-159 -80 -343 -80q-194 0 -329 91l-193 -238h-118l241 298q-161 159 -161 446q0 380 263 667q253 277 583 277q206 0 351 -108zM1195 1299q-38 58 -106 89.5t-154 31.5
q-203 0 -360 -203q-97 -126 -173 -357q-79 -241 -79 -433q0 -90 29 -172zM1238 1205l-838 -1037q84 -109 244 -109q158 0 288 109q140 118 236 381q91 251 91 493q0 92 -21 163z" />
    <glyph glyph-name="Ugrave" unicode="&#xd9;" horiz-adv-x="1669" 
d="M203 1383l11 96h651l-11 -96h-9q-140 0 -170 -28q-13 -12 -19.5 -30t-28.5 -98l-182 -681q-30 -111 -30 -212q0 -66 27 -124t73 -93q81 -60 229 -60q238 0 357 172q37 52 63 123t71 241l119 442q47 190 47 235q0 114 -191 113l11 96h540l-11 -96q-132 -4 -177 -59
t-108 -289l-117 -434q-54 -208 -82 -279q-65 -166 -166 -244q-143 -109 -399 -109q-210 0 -346 76q-79 44 -120 122q-45 86 -45 193q0 90 41 241l167 626q19 71 19 100q0 34 -31 45t-130 11h-53zM1106 1585h-83l-275 219q-32 25 -32 52q0 32 24 56.5t56 24.5q23 0 37 -10
t42 -46z" />
    <glyph glyph-name="Uacute" unicode="&#xda;" horiz-adv-x="1669" 
d="M203 1383l11 96h651l-11 -96h-9q-140 0 -170 -28q-13 -12 -19.5 -30t-28.5 -98l-182 -681q-30 -111 -30 -212q0 -66 27 -124t73 -93q81 -60 229 -60q238 0 357 172q37 52 63 123t71 241l119 442q47 190 47 235q0 114 -191 113l11 96h540l-11 -96q-132 -4 -177 -59
t-108 -289l-117 -434q-54 -208 -82 -279q-65 -166 -166 -244q-143 -109 -399 -109q-210 0 -346 76q-79 44 -120 122q-45 86 -45 193q0 90 41 241l167 626q19 71 19 100q0 34 -31 45t-130 11h-53zM974 1585l283 293q59 61 102 61q29 0 50 -20.5t21 -49.5q0 -47 -51 -80
l-326 -204h-79z" />
    <glyph glyph-name="Ucircumflex" unicode="&#xdb;" horiz-adv-x="1669" 
d="M203 1383l11 96h651l-11 -96h-9q-140 0 -170 -28q-13 -12 -19.5 -30t-28.5 -98l-182 -681q-30 -111 -30 -212q0 -66 27 -124t73 -93q81 -60 229 -60q238 0 357 172q37 52 63 123t71 241l119 442q47 190 47 235q0 114 -191 113l11 96h540l-11 -96q-132 -4 -177 -59
t-108 -289l-117 -434q-54 -208 -82 -279q-65 -166 -166 -244q-143 -109 -399 -109q-210 0 -346 76q-79 44 -120 122q-45 86 -45 193q0 90 41 241l167 626q19 71 19 100q0 34 -31 45t-130 11h-53zM1154 1925l186 -340h-73l-176 207l-280 -207h-73l314 340h102z" />
    <glyph glyph-name="Udieresis" unicode="&#xdc;" horiz-adv-x="1669" 
d="M203 1383l11 96h651l-11 -96h-9q-140 0 -170 -28q-13 -12 -19.5 -30t-28.5 -98l-182 -681q-30 -111 -30 -212q0 -66 27 -124t73 -93q81 -60 229 -60q238 0 357 172q37 52 63 123t71 241l119 442q47 190 47 235q0 114 -191 113l11 96h540l-11 -96q-132 -4 -177 -59
t-108 -289l-117 -434q-54 -208 -82 -279q-65 -166 -166 -244q-143 -109 -399 -109q-210 0 -346 76q-79 44 -120 122q-45 86 -45 193q0 90 41 241l167 626q19 71 19 100q0 34 -31 45t-130 11h-53zM852 1863q41 0 70.5 -29.5t29.5 -70.5q0 -42 -29.5 -71.5t-72.5 -29.5
q-40 0 -69.5 29.5t-29.5 70.5q0 42 29.5 71.5t71.5 29.5zM1266 1863q41 0 70.5 -29t29.5 -71t-29.5 -71.5t-71.5 -29.5q-41 0 -70.5 29.5t-29.5 70.5q0 42 29.5 71.5t71.5 29.5z" />
    <glyph glyph-name="Yacute" unicode="&#xdd;" horiz-adv-x="1403" 
d="M742 746l349 446q53 67 53 111q0 37 -35.5 58.5t-96.5 21.5h-47l11 96h577l-11 -96q-122 -9 -194 -63q-60 -45 -155 -166l-411 -524l-101 -379q-21 -76 -21 -100q0 -34 31.5 -44.5t131.5 -10.5h75l-11 -96h-710l11 96h45q141 0 171 28q13 12 19.5 30.5t27.5 96.5l102 379
l-246 612q-35 87 -74 114t-132 27h-35l11 96h631l-11 -96h-57q-68 0 -96.5 -11.5t-28.5 -37.5t21 -79zM746 1585l284 293q59 61 102 61q29 0 50 -20.5t21 -49.5q0 -47 -52 -80l-326 -204h-79z" />
    <glyph glyph-name="Thorn" unicode="&#xde;" horiz-adv-x="1366" 
d="M648 1209h124q245 0 354 -74q152 -102 152 -296q0 -177 -115 -293q-55 -56 -140 -96.5t-178 -54.5q-83 -14 -382 -14h-37l-35 -130q-21 -79 -21 -98q0 -35 31 -46t132 -11h45l-11 -96h-635l11 96q91 2 122.5 7.5t49.5 20.5q12 12 19 30t28 97l261 976q21 77 21 100
q0 34 -31 45t-132 11h-45l11 96h635l-11 -96q-93 -3 -123.5 -8t-47.5 -21q-13 -11 -19.5 -28.5t-28.5 -98.5zM452 477h40h183q145 0 238 70q63 48 99.5 132t36.5 183q0 136 -68 193.5t-229 57.5h-26q-63 0 -88.5 -19.5t-42.5 -79.5z" />
    <glyph glyph-name="germandbls" unicode="&#xdf;" horiz-adv-x="1139" 
d="M772 833q80 -53 117 -104q71 -97 71 -224q0 -213 -122 -380q-65 -90 -167 -130q-59 -24 -122 -24q-101 0 -165 56q-53 46 -53 120q0 53 30 86t78 33q43 0 72 -24.5t29 -61.5q0 -31 -19 -70q-10 -22 -10 -34t12.5 -20.5t29.5 -8.5q68 0 137 152q40 86 65 202t25 210
q0 133 -90 183q-29 16 -108 30q-59 10 -59 46q0 15 11.5 26.5t26.5 11.5q10 0 65 -10q42 -7 66 -7q49 0 98 45q52 46 82.5 131.5t30.5 183.5q0 93 -43 137q-47 48 -120 48q-78 0 -134 -53.5t-100 -170.5q-26 -68 -140 -508l-72 -292q-99 -432 -233 -789l-217 -37
q93 147 264 775l90 358q65 261 114.5 393.5t114.5 220.5q128 175 322 175q148 0 241 -84q85 -76 85 -210q0 -275 -303 -381z" />
    <glyph glyph-name="agrave" unicode="&#xe0;" horiz-adv-x="1175" 
d="M812 932h177l-204 -687q-23 -79 -23 -112q0 -21 12.5 -36t31.5 -15q81 0 203 241l62 -35q-37 -80 -100 -169q-107 -150 -240 -150q-56 0 -90.5 37t-34.5 96q0 28 10 65q-62 -88 -110 -128q-87 -70 -201 -70q-137 0 -220 91.5t-83 242.5q0 258 166 472q146 188 337 188
q100 0 170 -60t82 -156zM541 850q-94 0 -163 -71q-88 -90 -142 -245q-47 -136 -47 -259q0 -95 44 -148.5t121 -53.5q146 0 238 185q48 97 76.5 208.5t28.5 200.5q0 66 -24 110q-40 73 -132 73zM758 1063h-83l-275 219q-30 24 -30 52q0 32 24 56.5t55 24.5q23 0 36.5 -9.5
t42.5 -46.5z" />
    <glyph glyph-name="aacute" unicode="&#xe1;" horiz-adv-x="1175" 
d="M812 932h177l-204 -687q-23 -79 -23 -112q0 -21 12.5 -36t31.5 -15q81 0 203 241l62 -35q-37 -80 -100 -169q-107 -150 -240 -150q-56 0 -90.5 37t-34.5 96q0 28 10 65q-62 -88 -110 -128q-87 -70 -201 -70q-137 0 -220 91.5t-83 242.5q0 258 166 472q146 188 337 188
q100 0 170 -60t82 -156zM541 850q-94 0 -163 -71q-88 -90 -142 -245q-47 -136 -47 -259q0 -95 44 -148.5t121 -53.5q146 0 238 185q48 97 76.5 208.5t28.5 200.5q0 66 -24 110q-40 73 -132 73zM517 1063l284 286q61 62 103 62q29 0 50 -20.5t21 -49.5q0 -48 -53 -80
l-326 -198h-79z" />
    <glyph glyph-name="acircumflex" unicode="&#xe2;" horiz-adv-x="1175" 
d="M812 932h177l-204 -687q-23 -79 -23 -112q0 -21 12.5 -36t31.5 -15q81 0 203 241l62 -35q-37 -80 -100 -169q-107 -150 -240 -150q-56 0 -90.5 37t-34.5 96q0 28 10 65q-62 -88 -110 -128q-87 -70 -201 -70q-137 0 -220 91.5t-83 242.5q0 258 166 472q146 188 337 188
q100 0 170 -60t82 -156zM541 850q-94 0 -163 -71q-88 -90 -142 -245q-47 -136 -47 -259q0 -95 44 -148.5t121 -53.5q146 0 238 185q48 97 76.5 208.5t28.5 200.5q0 66 -24 110q-40 73 -132 73zM752 1409l186 -346h-73l-176 213l-279 -213h-73l313 346h102z" />
    <glyph glyph-name="atilde" unicode="&#xe3;" horiz-adv-x="1175" 
d="M812 932h177l-204 -687q-23 -79 -23 -112q0 -21 12.5 -36t31.5 -15q81 0 203 241l62 -35q-37 -80 -100 -169q-107 -150 -240 -150q-56 0 -90.5 37t-34.5 96q0 28 10 65q-62 -88 -110 -128q-87 -70 -201 -70q-137 0 -220 91.5t-83 242.5q0 258 166 472q146 188 337 188
q100 0 170 -60t82 -156zM541 850q-94 0 -163 -71q-88 -90 -142 -245q-47 -136 -47 -259q0 -95 44 -148.5t121 -53.5q146 0 238 185q48 97 76.5 208.5t28.5 200.5q0 66 -24 110q-40 73 -132 73zM976 1331h63q-11 -89 -67 -152t-124 -63q-51 0 -177 47q-113 43 -151 43
q-66 0 -91 -92h-62q13 75 44 125q53 90 140 90q47 0 205 -54q87 -30 120 -30q66 0 100 86z" />
    <glyph glyph-name="adieresis" unicode="&#xe4;" horiz-adv-x="1175" 
d="M812 932h177l-204 -687q-23 -79 -23 -112q0 -21 12.5 -36t31.5 -15q81 0 203 241l62 -35q-37 -80 -100 -169q-107 -150 -240 -150q-56 0 -90.5 37t-34.5 96q0 28 10 65q-62 -88 -110 -128q-87 -70 -201 -70q-137 0 -220 91.5t-83 242.5q0 258 166 472q146 188 337 188
q100 0 170 -60t82 -156zM541 850q-94 0 -163 -71q-88 -90 -142 -245q-47 -136 -47 -259q0 -95 44 -148.5t121 -53.5q146 0 238 185q48 97 76.5 208.5t28.5 200.5q0 66 -24 110q-40 73 -132 73zM469 1319q42 0 71 -29.5t29 -70.5q0 -43 -29.5 -72t-71.5 -29q-40 0 -69.5 30
t-29.5 71t29.5 70.5t70.5 29.5zM883 1319q41 0 70.5 -29.5t29.5 -70.5q0 -43 -29.5 -72t-72.5 -29q-40 0 -69.5 30t-29.5 71t29.5 70.5t71.5 29.5z" />
    <glyph glyph-name="aring" unicode="&#xe5;" horiz-adv-x="1175" 
d="M812 932h177l-204 -687q-23 -79 -23 -112q0 -21 12.5 -36t31.5 -15q81 0 203 241l62 -35q-37 -80 -100 -169q-107 -150 -240 -150q-56 0 -90.5 37t-34.5 96q0 28 10 65q-62 -88 -110 -128q-87 -70 -201 -70q-137 0 -220 91.5t-83 242.5q0 258 166 472q146 188 337 188
q100 0 170 -60t82 -156zM541 850q-94 0 -163 -71q-88 -90 -142 -245q-47 -136 -47 -259q0 -95 44 -148.5t121 -53.5q146 0 238 185q48 97 76.5 208.5t28.5 200.5q0 66 -24 110q-40 73 -132 73zM675 1459q85 0 144 -60q60 -59 60 -144t-60 -144q-59 -60 -146 -60
q-82 0 -141 60q-60 60 -60 144t59.5 144t143.5 60zM676 1385q-54 0 -92 -38t-38 -92q0 -53 38 -91.5t90 -38.5q55 0 93 38t38 92t-38 92t-91 38z" />
    <glyph glyph-name="ae" unicode="&#xe6;" horiz-adv-x="1479" 
d="M757 394q-18 -66 -18 -113q0 -101 51 -157.5t143 -56.5q171 0 317 173l56 -54q-182 -217 -426 -217q-249 0 -289 217q-50 -72 -93 -112q-114 -105 -293 -105q-117 0 -182 59q-60 54 -60 145q0 133 117 207q97 61 209 92.5t332 59.5q30 125 30 181q0 89 -71 135
q-56 35 -134 35q-58 0 -101.5 -19t-43.5 -44q0 -8 16 -22q35 -28 35 -82q0 -47 -29.5 -75t-79.5 -28t-80 31t-30 84q0 110 108 175q99 60 223 60q194 0 312 -150q161 150 354 150q105 0 171 -55q65 -54 65 -153q0 -91 -66 -163.5t-192 -118.5q-98 -37 -351 -79zM774 476
q158 23 251 64q82 36 124 101q40 61 40 128q0 49 -28.5 77.5t-76.5 28.5q-120 0 -203 -138q-55 -89 -107 -261zM599 450q-209 -28 -298 -71q-148 -70 -148 -185q0 -55 34.5 -89t89.5 -34q63 0 124.5 34.5t99.5 90.5q32 48 52 99.5t46 154.5z" />
    <glyph glyph-name="ccedilla" unicode="&#xe7;" horiz-adv-x="909" 
d="M379 -30l-56 -101q36 6 60 6q75 0 121 -38.5t46 -101.5q0 -79 -69 -130q-66 -48 -184 -48q-96 0 -181 35l37 68q70 -25 128 -25q51 0 82 22.5t31 59.5q0 36 -26.5 58t-71.5 22q-27 0 -68 -11l-17 11l97 175q-101 16 -172 70q-126 97 -126 297q0 169 85 322
q87 156 231 239q112 63 228 63q112 0 189.5 -64.5t77.5 -157.5q0 -66 -36.5 -109.5t-92.5 -43.5q-48 0 -78.5 28t-30.5 72q0 67 77 98q32 13 32 32q0 26 -40.5 46.5t-90.5 20.5q-138 0 -237 -151q-53 -80 -89 -206.5t-36 -230.5q0 -101 49 -163q54 -67 146 -67
q147 0 303 203l60 -45q-145 -233 -378 -255z" />
    <glyph glyph-name="egrave" unicode="&#xe8;" horiz-adv-x="909" 
d="M694 237l50 -55q-166 -213 -402 -213q-158 0 -254 90q-100 92 -100 265q0 276 199 472q71 70 156 113q108 54 214 54q109 0 176.5 -58.5t67.5 -152.5q0 -185 -245 -293q-71 -31 -132 -49t-241 -62q-4 -43 -4 -69q0 -97 53 -157q50 -57 145 -57q81 0 153.5 39.5
t163.5 132.5zM193 428q168 36 261 88q175 97 175 248q0 53 -30.5 85t-81.5 32q-150 0 -248 -204q-53 -112 -76 -249zM652 1063h-83l-275 219q-30 24 -30 52q0 32 24 56.5t55 24.5q23 0 36.5 -9.5t42.5 -46.5z" />
    <glyph glyph-name="eacute" unicode="&#xe9;" horiz-adv-x="909" 
d="M695 237l50 -55q-167 -213 -403 -213q-158 0 -254 90q-100 92 -100 265q0 277 199 472q170 167 370 167q109 0 176.5 -58.5t67.5 -153.5q0 -184 -245 -292q-71 -31 -132 -49t-241 -62q-4 -43 -4 -69q0 -97 53 -157q50 -57 145 -57q81 0 153.5 39.5t164.5 132.5zM193 428
q168 36 261 88q175 97 175 248q0 53 -30.5 85t-80.5 32q-151 0 -249 -204q-53 -112 -76 -249zM386 1063l283 286q62 62 102 62q30 0 50.5 -20.5t20.5 -50.5q0 -48 -51 -79l-326 -198h-79z" />
    <glyph glyph-name="ecircumflex" unicode="&#xea;" horiz-adv-x="909" 
d="M694 237l50 -55q-166 -213 -402 -213q-158 0 -254 90q-100 92 -100 265q0 276 199 472q71 70 156 113q108 54 214 54q109 0 176.5 -58.5t67.5 -152.5q0 -185 -245 -293q-71 -31 -132 -49t-241 -62q-4 -43 -4 -69q0 -97 53 -157q50 -57 145 -57q81 0 153.5 39.5
t163.5 132.5zM193 428q168 36 261 88q175 97 175 248q0 53 -30.5 85t-81.5 32q-150 0 -248 -204q-53 -112 -76 -249zM614 1409l187 -346h-74l-176 213l-279 -213h-73l314 346h101z" />
    <glyph glyph-name="edieresis" unicode="&#xeb;" horiz-adv-x="909" 
d="M695 237l50 -55q-167 -213 -403 -213q-158 0 -254 90q-100 92 -100 265q0 277 199 472q170 167 370 167q109 0 176.5 -58.5t67.5 -153.5q0 -184 -245 -292q-71 -31 -132 -49t-241 -62q-4 -43 -4 -69q0 -97 53 -157q50 -57 145 -57q81 0 153.5 39.5t164.5 132.5zM193 428
q168 36 261 88q175 97 175 248q0 53 -30.5 85t-80.5 32q-151 0 -249 -204q-53 -112 -76 -249zM316 1319q41 0 70.5 -29.5t29.5 -70.5q0 -42 -29.5 -71.5t-71.5 -29.5q-41 0 -70.5 29.5t-29.5 71.5q0 41 29.5 70.5t71.5 29.5zM730 1319q41 0 70.5 -29.5t29.5 -70.5
q0 -42 -29.5 -71.5t-71.5 -29.5q-41 0 -70.5 29.5t-29.5 71.5q0 41 29.5 70.5t71.5 29.5z" />
    <glyph glyph-name="igrave" unicode="&#xec;" horiz-adv-x="682" 
d="M473 963l-216 -732q-25 -83 -25 -116q0 -42 34 -42q42 0 106.5 65t142.5 185l62 -36q-186 -316 -382 -316q-59 0 -99 37t-40 91t45 207l119 399q17 59 17 89q0 35 -26.5 49.5t-89.5 14.5h-48l7 74zM444 1063h-83l-275 219q-31 25 -31 52q0 32 24 56.5t55 24.5
q23 0 37 -10t43 -46z" />
    <glyph glyph-name="iacute" unicode="&#xed;" horiz-adv-x="682" 
d="M473 963l-217 -732q-25 -84 -25 -116q0 -42 34 -42q42 0 106.5 65t142.5 185l62 -36q-186 -316 -381 -316q-60 0 -100 37t-40 91q0 53 45 207l119 399q18 62 18 89q0 35 -26.5 49.5t-89.5 14.5h-49l7 74zM271 1063l283 286q62 62 102 62q30 0 50.5 -20.5t20.5 -50.5
q0 -48 -51 -79l-326 -198h-79z" />
    <glyph glyph-name="icircumflex" unicode="&#xee;" horiz-adv-x="682" 
d="M409 1409l187 -346h-73l-176 213l-280 -213h-73l314 346h101zM473 963l-217 -732q-25 -85 -25 -116q0 -42 34 -42q42 0 107 65.5t142 184.5l64 -36q-80 -122 -126 -174q-124 -142 -257 -142q-60 0 -100 36.5t-40 91.5q0 52 46 207l118 399q18 61 18 89q0 35 -26.5 49.5
t-89.5 14.5h-49l7 74z" />
    <glyph glyph-name="idieresis" unicode="&#xef;" horiz-adv-x="682" 
d="M473 963l-217 -732q-25 -84 -25 -116q0 -42 34 -42q42 0 106.5 65t142.5 185l62 -36q-186 -316 -381 -316q-60 0 -100 37t-40 91q0 53 45 207l119 399q18 62 18 89q0 35 -26.5 49.5t-89.5 14.5h-49l7 74zM201 1319q41 0 70.5 -29.5t29.5 -70.5q0 -42 -29.5 -71.5
t-71.5 -29.5q-41 0 -70.5 29.5t-29.5 71.5q0 41 29.5 70.5t71.5 29.5zM615 1319q41 0 70.5 -29.5t29.5 -70.5q0 -42 -29.5 -71.5t-71.5 -29.5q-41 0 -70.5 29.5t-29.5 71.5q0 41 29.5 70.5t71.5 29.5z" />
    <glyph glyph-name="eth" unicode="&#xf0;" horiz-adv-x="1024" 
d="M699 933l-39 78q-47 95 -138 183l-276 -138l-36 72l249 125q-48 43 -150 123l78 80q114 -62 207 -135l291 145l36 -72l-257 -129q136 -135 197 -303q60 -166 60 -363q0 -220 -121 -395q-163 -235 -426 -235q-174 0 -273 113q-91 103 -91 271q0 255 171 433
q169 177 379 177q70 0 139 -30zM548 885q-115 0 -200 -111q-59 -78 -104 -219q-50 -155 -50 -292q0 -216 182 -216q130 0 214 131q57 90 97 221.5t40 231.5q0 90 -29 158q-18 43 -59 69.5t-91 26.5z" />
    <glyph glyph-name="ntilde" unicode="&#xf1;" horiz-adv-x="1251" 
d="M974 1331h62q-10 -88 -66.5 -151.5t-124.5 -63.5q-51 0 -177 47q-113 43 -151 43q-66 0 -92 -92h-61q13 75 43 125q54 90 141 90q47 0 205 -54q87 -30 120 -30q66 0 101 86zM469 963l-59 -276q200 276 380 276q99 0 159 -82q37 -51 37 -118q0 -87 -49 -231l-98 -281
q-38 -112 -38 -139q0 -39 36 -39q98 0 254 247l60 -43q-49 -87 -124 -173q-117 -135 -252 -135q-63 0 -102 45q-40 44 -40 108q0 60 37 171l108 320q32 94 32 143q0 36 -23.5 60.5t-58.5 24.5q-66 0 -142 -56.5t-143 -154.5q-55 -82 -84 -146.5t-68 -197.5l-85 -286h-177
l209 705q18 62 18 89q0 35 -26.5 49.5t-89.5 14.5h-49l7 74z" />
    <glyph glyph-name="ograve" unicode="&#xf2;" horiz-adv-x="1024" 
d="M713 1063h-83l-275 219q-31 25 -31 53q0 31 24 55.5t55 24.5q23 0 37 -10t43 -46zM558 963q152 0 258 -116q105 -114 105 -270q0 -116 -46 -232t-128 -208q-149 -168 -373 -168q-174 0 -273 113q-91 103 -91 271q0 258 171 433q172 177 377 177zM549 885
q-115 0 -200 -111q-59 -78 -105 -219q-49 -154 -49 -292q0 -216 182 -216q102 0 175 81q72 80 122 231q53 157 53 273q0 90 -28 157q-19 43 -60 69.5t-90 26.5z" />
    <glyph glyph-name="oacute" unicode="&#xf3;" horiz-adv-x="1024" 
d="M465 1063l284 286q61 62 101 62q30 0 50.5 -20.5t20.5 -50.5q0 -49 -51 -79l-326 -198h-79zM558 963q152 0 258 -116q105 -114 105 -270q0 -116 -46 -232t-128 -208q-149 -168 -373 -168q-174 0 -273 113q-91 103 -91 271q0 258 171 433q172 177 377 177zM549 885
q-115 0 -200 -111q-59 -78 -105 -219q-49 -154 -49 -292q0 -216 182 -216q102 0 175 81q72 80 122 231q53 157 53 273q0 90 -28 157q-19 43 -60 69.5t-90 26.5z" />
    <glyph glyph-name="ocircumflex" unicode="&#xf4;" horiz-adv-x="1024" 
d="M703 1409l187 -346h-73l-176 213l-280 -213h-73l314 346h101zM558 963q152 0 258 -116q105 -114 105 -270q0 -116 -46 -232t-128 -208q-149 -168 -373 -168q-174 0 -273 113q-91 103 -91 271q0 258 171 433q172 177 377 177zM549 885q-115 0 -200 -111q-59 -78 -105 -219
q-49 -154 -49 -292q0 -216 182 -216q102 0 175 81q72 80 122 231q53 157 53 273q0 90 -28 157q-19 43 -60 69.5t-90 26.5z" />
    <glyph glyph-name="otilde" unicode="&#xf5;" horiz-adv-x="1024" 
d="M559 963q152 0 258 -116q105 -114 105 -270q0 -115 -46 -231.5t-128 -208.5q-150 -168 -374 -168q-174 0 -273 113q-91 103 -91 271q0 258 171 433q172 177 378 177zM549 885q-116 0 -200 -111q-60 -78 -105 -219q-50 -155 -50 -292q0 -216 182 -216q103 0 176 80
q72 80 123 232q53 157 53 273q0 89 -29 157q-18 43 -59.5 69.5t-90.5 26.5zM867 1331h62q-9 -87 -65.5 -151t-124.5 -64q-52 0 -177 47q-113 43 -151 43q-66 0 -92 -92h-61q13 75 43 125q54 90 141 90q47 0 205 -54q86 -30 120 -30q65 0 100 86z" />
    <glyph glyph-name="odieresis" unicode="&#xf6;" horiz-adv-x="1024" 
d="M408 1319q41 0 70.5 -29.5t29.5 -70.5q0 -42 -29.5 -71.5t-72.5 -29.5q-40 0 -69.5 30t-29.5 71t29.5 70.5t71.5 29.5zM822 1319q41 0 70.5 -29.5t29.5 -70.5q0 -42 -29.5 -71.5t-71.5 -29.5q-41 0 -70.5 29.5t-29.5 71.5q0 41 29.5 70.5t71.5 29.5zM558 963
q152 0 258 -116q105 -114 105 -270q0 -116 -46 -232t-128 -208q-149 -168 -373 -168q-174 0 -273 113q-91 103 -91 271q0 258 171 433q172 177 377 177zM549 885q-115 0 -200 -111q-59 -78 -105 -219q-49 -154 -49 -292q0 -216 182 -216q102 0 175 81q72 80 122 231
q53 157 53 273q0 90 -28 157q-19 43 -60 69.5t-90 26.5z" />
    <glyph glyph-name="divide" unicode="&#xf7;" horiz-adv-x="1241" 
d="M594 236q50 0 87 -37.5t37 -89.5t-37 -89t-89 -37q-53 0 -90 37t-37 90t37.5 89.5t91.5 36.5zM594 1054q50 0 87 -37.5t37 -88.5q0 -53 -37 -90t-89 -37q-53 0 -90 37t-37 90t37.5 89.5t91.5 36.5zM76 436v164h1030v-164h-1030z" />
    <glyph glyph-name="oslash" unicode="&#xf8;" horiz-adv-x="1024" 
d="M669 937l104 185h89l-126 -222q34 -24 60 -53q105 -116 105 -270q0 -116 -46 -232t-128 -208q-150 -168 -377 -168q-70 0 -131 17l-131 -232h-89l149 263q-158 101 -158 337q0 254 171 433q169 176 375 176q69 0 133 -26zM623 856q-44 29 -96 29q-113 0 -198 -111
q-57 -75 -104 -219q-51 -158 -51 -290q0 -81 33 -144zM677 795l-412 -728q43 -20 92 -20q102 0 175 81q72 80 122 231q52 155 52 280q0 89 -29 156z" />
    <glyph glyph-name="ugrave" unicode="&#xf9;" horiz-adv-x="1251" 
d="M1042 932l-201 -680q-27 -90 -27 -122q0 -19 11.5 -33.5t25.5 -14.5q68 0 227 231l61 -37q-70 -107 -130 -176q-114 -131 -242 -131q-55 0 -91 34q-40 39 -40 100q0 51 25 142q-173 -274 -380 -274q-81 0 -130 42q-65 54 -65 146q0 49 8 82.5t55 185.5l82 278
q17 58 17 87q0 36 -26 51t-89 15h-49l7 74l394 31l-199 -673q-24 -79 -24 -117q0 -37 25.5 -62.5t62.5 -25.5q94 0 201 118q145 158 217 401l97 328h177zM809 1063h-83l-275 219q-32 25 -32 53q0 31 24 55.5t56 24.5q23 0 37 -10t43 -46z" />
    <glyph glyph-name="uacute" unicode="&#xfa;" horiz-adv-x="1251" 
d="M1042 932l-201 -680q-27 -90 -27 -122q0 -19 11.5 -33.5t25.5 -14.5q68 0 227 231l61 -37q-70 -107 -130 -176q-114 -131 -242 -131q-55 0 -91 34q-40 39 -40 100q0 51 25 142q-173 -274 -380 -274q-81 0 -130 42q-65 54 -65 146q0 49 8 82.5t55 185.5l82 278
q17 58 17 87q0 36 -26 51t-89 15h-49l7 74l394 31l-199 -673q-24 -79 -24 -117q0 -37 25.5 -62.5t62.5 -25.5q94 0 201 118q145 158 217 401l97 328h177zM593 1063l283 286q61 62 103 62q30 0 50.5 -20.5t20.5 -50.5q0 -48 -52 -79l-326 -198h-79z" />
    <glyph glyph-name="ucircumflex" unicode="&#xfb;" horiz-adv-x="1251" 
d="M1042 932l-201 -680q-27 -90 -27 -122q0 -19 11.5 -33.5t25.5 -14.5q68 0 227 231l61 -37q-70 -107 -130 -176q-114 -131 -242 -131q-55 0 -91 34q-40 39 -40 100q0 51 25 142q-173 -274 -380 -274q-81 0 -130 42q-65 54 -65 146q0 49 8 82.5t55 185.5l82 278
q17 58 17 87q0 36 -26 51t-89 15h-49l7 74l394 31l-199 -673q-24 -79 -24 -117q0 -37 25.5 -62.5t62.5 -25.5q94 0 201 118q145 158 217 401l97 328h177zM803 1409l186 -346h-73l-176 213l-280 -213h-73l314 346h102z" />
    <glyph glyph-name="udieresis" unicode="&#xfc;" horiz-adv-x="1251" 
d="M1042 932l-201 -680q-27 -90 -27 -122q0 -19 11.5 -33.5t25.5 -14.5q68 0 227 231l61 -37q-70 -107 -130 -176q-114 -131 -242 -131q-55 0 -91 34q-40 39 -40 100q0 51 25 142q-173 -274 -380 -274q-81 0 -130 42q-65 54 -65 146q0 49 8 82.5t55 185.5l82 278
q17 58 17 87q0 36 -26 51t-89 15h-49l7 74l394 31l-199 -673q-24 -79 -24 -117q0 -37 25.5 -62.5t62.5 -25.5q94 0 201 118q145 158 217 401l97 328h177zM506 1319q41 0 70.5 -29.5t29.5 -70.5q0 -43 -29.5 -72t-71.5 -29q-41 0 -70.5 29.5t-29.5 71.5q0 41 29.5 70.5
t71.5 29.5zM920 1319q41 0 70.5 -29.5t29.5 -70.5q0 -42 -29.5 -71.5t-72.5 -29.5q-40 0 -69.5 30t-29.5 71t29.5 70.5t71.5 29.5z" />
    <glyph glyph-name="yacute" unicode="&#xfd;" horiz-adv-x="1024" 
d="M541 213q99 158 156 293.5t57 213.5q0 33 -14 106q-3 18 -3 34q0 42 29.5 72.5t70.5 30.5q42 0 67.5 -29t25.5 -76q0 -53 -27 -121.5t-113 -236.5q-252 -491 -414 -693q-176 -221 -350 -221q-74 0 -129 40q-59 43 -59 112q0 47 30.5 78.5t75.5 31.5q64 0 89 -64
q6 -16 6 -80q0 -32 38 -32q89 0 217 158q41 50 116 172q-59 351 -144 665q-35 130 -78 130q-26 0 -51 -36.5t-83 -160.5l-63 29q130 334 268 334q58 0 95 -50q57 -79 96 -267zM472 1063l284 286q61 62 102 62q30 0 50.5 -20.5t20.5 -50.5q0 -48 -52 -79l-326 -198h-79z" />
    <glyph glyph-name="thorn" unicode="&#xfe;" horiz-adv-x="1175" 
d="M662 1510l-213 -722q143 175 304 175q130 0 215 -107q68 -84 68 -227q0 -265 -163 -470q-151 -190 -369 -190q-101 0 -151.5 37t-94.5 143l-98 -334q-23 -76 -23 -103q0 -29 28.5 -40.5t102.5 -11.5h24l-7 -74h-492l7 74q104 4 131 28q13 11 20 28t31 99l426 1437
q19 63 19 89q0 35 -26.5 49.5t-90.5 14.5h-64l7 74zM689 854q-130 0 -235 -160q-59 -90 -100.5 -217.5t-41.5 -217.5q0 -82 48.5 -135t123.5 -53q158 0 264 223q95 201 95 380q0 86 -41 129q-47 51 -113 51z" />
    <glyph glyph-name="ydieresis" unicode="&#xff;" horiz-adv-x="1024" 
d="M541 213q99 158 156 293.5t57 213.5q0 33 -14 106q-3 18 -3 34q0 42 29.5 72.5t70.5 30.5q42 0 67.5 -29t25.5 -76q0 -53 -27 -121.5t-113 -236.5q-252 -491 -414 -693q-176 -221 -350 -221q-74 0 -129 40q-59 43 -59 112q0 47 30.5 78.5t75.5 31.5q64 0 89 -64
q6 -16 6 -80q0 -32 38 -32q89 0 217 158q41 50 116 172q-59 351 -144 665q-35 130 -78 130q-26 0 -51 -36.5t-83 -160.5l-63 29q130 334 268 334q58 0 95 -50q57 -79 96 -267zM407 1319q41 0 70.5 -29.5t29.5 -70.5q0 -43 -29.5 -72t-71.5 -29q-41 0 -70.5 30t-29.5 71
t29.5 70.5t71.5 29.5zM821 1319q41 0 70.5 -29.5t29.5 -70.5q0 -42 -29.5 -71.5t-71.5 -29.5q-41 0 -70.5 29.5t-29.5 71.5q0 41 29.5 70.5t71.5 29.5z" />
    <glyph glyph-name="Amacron" unicode="&#x100;" horiz-adv-x="1442" 
d="M905 1509l256 -1288q16 -81 43 -103t112 -22h52l-11 -96h-616l11 96h32q88 0 118 15t30 58q0 24 -8 67l-47 252h-522l-113 -197q-37 -64 -37 -113q0 -46 31 -64t110 -18h49l-11 -96h-552l11 96q93 4 163 66t140 183l676 1164h83zM859 584l-115 589l-335 -589h450z
M599 1797h617l-22 -110h-617z" />
    <glyph glyph-name="amacron" unicode="&#x101;" horiz-adv-x="1175" 
d="M812 932h177l-204 -687q-23 -79 -23 -112q0 -21 12.5 -36t31.5 -15q81 0 203 241l62 -35q-37 -80 -100 -169q-107 -150 -240 -150q-56 0 -90.5 37t-34.5 96q0 28 10 65q-62 -88 -110 -128q-87 -70 -201 -70q-137 0 -220 91.5t-83 242.5q0 258 166 472q146 188 337 188
q100 0 170 -60t82 -156zM541 850q-94 0 -163 -71q-88 -90 -142 -245q-47 -136 -47 -259q0 -95 44 -148.5t121 -53.5q146 0 238 185q48 97 76.5 208.5t28.5 200.5q0 66 -24 110q-40 73 -132 73zM374 1249h616l-22 -104h-617z" />
    <glyph glyph-name="Abreve" unicode="&#x102;" horiz-adv-x="1442" 
d="M905 1509l256 -1288q16 -81 43 -103t112 -22h52l-11 -96h-616l11 96h32q88 0 118 15t30 58q0 24 -8 67l-47 252h-522l-113 -197q-37 -64 -37 -113q0 -46 31 -64t110 -18h49l-11 -96h-552l11 96q93 4 163 66t140 183l676 1164h83zM859 584l-115 589l-335 -589h450z
M597 1915h60q3 -63 31 -108q58 -93 188 -93q116 0 198 84q47 47 75 117h63q-18 -94 -56 -156q-104 -174 -288 -174q-154 0 -227 116q-47 73 -47 170q0 12 3 44z" />
    <glyph glyph-name="abreve" unicode="&#x103;" horiz-adv-x="1175" 
d="M812 932h177l-204 -687q-23 -79 -23 -112q0 -21 12.5 -36t31.5 -15q81 0 203 241l62 -35q-37 -80 -100 -169q-107 -150 -240 -150q-56 0 -90.5 37t-34.5 96q0 28 10 65q-62 -88 -110 -128q-87 -70 -201 -70q-137 0 -220 91.5t-83 242.5q0 258 166 472q146 188 337 188
q100 0 170 -60t82 -156zM541 850q-94 0 -163 -71q-88 -90 -142 -245q-47 -136 -47 -259q0 -95 44 -148.5t121 -53.5q146 0 238 185q48 97 76.5 208.5t28.5 200.5q0 66 -24 110q-40 73 -132 73zM390 1386h61q3 -62 31 -105q58 -91 188 -91q93 0 162.5 50.5t109.5 145.5h63
q-17 -90 -56 -153q-104 -172 -287 -172q-153 0 -227 114q-47 73 -47 162q0 17 2 49z" />
    <glyph glyph-name="Aogonek" unicode="&#x104;" horiz-adv-x="1442" 
d="M1368 96l-11 -96q-78 -91 -78 -152q0 -32 25 -56.5t58 -24.5q62 0 146 75l33 -44q-114 -115 -220 -115q-60 0 -98 34q-44 39 -44 104q0 93 105 179h-543l11 96h32q88 0 118 15t30 58q0 24 -8 67l-47 252h-522l-113 -197q-37 -64 -37 -113q0 -46 31 -64t110 -18h49
l-11 -96h-552l11 96q93 4 163 66t140 183l676 1164h83l256 -1288q16 -81 43 -103t112 -22h52zM859 584l-115 589l-335 -589h450z" />
    <glyph glyph-name="aogonek" unicode="&#x105;" horiz-adv-x="1175" 
d="M1009 323l62 -35q-51 -109 -197 -293q-65 -84 -65 -150q0 -30 25.5 -54t57.5 -24q61 0 146 75l33 -44q-113 -115 -220 -115q-61 0 -99 34q-44 39 -44 103q0 80 77 156q-31 -7 -51 -7q-58 0 -93 36.5t-35 96.5q0 27 10 65q-62 -88 -110 -128q-87 -70 -201 -70
q-137 0 -220 91.5t-83 242.5q0 258 166 472q146 188 337 188q100 0 170 -60t82 -156l55 185h177l-204 -687q-23 -79 -23 -112q0 -21 12.5 -36t31.5 -15q81 0 203 241zM541 850q-94 0 -163 -71q-88 -90 -142 -245q-47 -136 -47 -259q0 -95 44 -148.5t121 -53.5q146 0 238 185
q48 97 76.5 208.5t28.5 200.5q0 66 -24 110q-40 73 -132 73z" />
    <glyph glyph-name="Cacute" unicode="&#x106;" horiz-adv-x="1479" 
d="M1265 1346l122 118h73l-115 -573h-84q-8 217 -52 324q-85 206 -286 206q-150 0 -276 -112q-132 -118 -223 -365q-86 -232 -86 -452q0 -184 94 -303q95 -120 287 -120q229 0 379 186q48 59 116 201l84 -37q-76 -176 -162 -266q-178 -184 -453 -184q-281 0 -450 178
q-151 161 -151 426q0 346 228 626q253 311 595 311q116 0 200 -38t160 -126zM838 1585l284 293q59 61 102 61q29 0 50 -20.5t21 -49.5q0 -47 -52 -80l-326 -204h-79z" />
    <glyph glyph-name="cacute" unicode="&#x107;" horiz-adv-x="909" 
d="M697 270l60 -45q-163 -256 -394 -256q-166 0 -264 107q-89 98 -89 263q0 168 85 322q87 156 231 239q112 63 228 63q112 0 189.5 -64.5t77.5 -157.5q0 -66 -36.5 -109.5t-92.5 -43.5q-48 0 -78.5 28t-30.5 72q0 67 77 98q32 13 32 32q0 26 -40.5 46.5t-90.5 20.5
q-132 0 -236 -152q-58 -86 -92 -199t-34 -223q0 -118 51 -182q49 -62 139 -62q152 0 308 203zM453 1063l283 286q61 62 102 62q30 0 50.5 -20.5t20.5 -50.5q0 -48 -52 -79l-326 -198h-78z" />
    <glyph glyph-name="Ccircumflex" unicode="&#x108;" horiz-adv-x="1479" 
d="M1265 1346l122 118h73l-115 -573h-84q-8 217 -52 324q-85 206 -286 206q-150 0 -276 -112q-132 -118 -223 -365q-86 -232 -86 -452q0 -184 94 -303q95 -120 287 -120q229 0 379 186q48 59 116 201l84 -37q-76 -176 -162 -266q-178 -184 -453 -184q-281 0 -450 178
q-151 161 -151 426q0 346 228 626q253 311 595 311q116 0 200 -38t160 -126zM1055 1925l187 -340h-73l-176 207l-280 -207h-73l314 340h101z" />
    <glyph glyph-name="ccircumflex" unicode="&#x109;" horiz-adv-x="909" 
d="M697 270l60 -45q-163 -256 -394 -256q-166 0 -264 107q-89 98 -89 263q0 168 85 322q87 156 231 239q112 63 228 63q112 0 189.5 -64.5t77.5 -157.5q0 -66 -36.5 -109.5t-92.5 -43.5q-48 0 -78.5 28t-30.5 72q0 67 77 98q32 13 32 32q0 26 -40.5 46.5t-90.5 20.5
q-132 0 -236 -152q-58 -86 -92 -199t-34 -223q0 -118 51 -182q49 -62 139 -62q152 0 308 203zM612 1409l187 -346h-74l-176 213l-279 -213h-73l313 346h102z" />
    <glyph glyph-name="Cdotaccent" unicode="&#x10a;" horiz-adv-x="1479" 
d="M1265 1346l122 118h73l-115 -573h-84q-8 217 -52 324q-85 206 -286 206q-150 0 -276 -112q-132 -118 -223 -365q-86 -232 -86 -452q0 -184 94 -303q95 -120 287 -120q229 0 379 186q48 59 116 201l84 -37q-76 -176 -162 -266q-178 -184 -453 -184q-281 0 -450 178
q-151 161 -151 426q0 346 228 626q253 311 595 311q116 0 200 -38t160 -126zM938 1863q41 0 70.5 -29.5t29.5 -70.5q0 -42 -29.5 -71.5t-72.5 -29.5q-40 0 -69.5 29.5t-29.5 70.5q0 42 29.5 71.5t71.5 29.5z" />
    <glyph glyph-name="cdotaccent" unicode="&#x10b;" horiz-adv-x="909" 
d="M697 270l60 -45q-163 -256 -394 -256q-166 0 -264 107q-89 98 -89 263q0 168 85 322q87 156 231 239q112 63 228 63q112 0 189.5 -64.5t77.5 -157.5q0 -66 -36.5 -109.5t-92.5 -43.5q-48 0 -78.5 28t-30.5 72q0 67 77 98q32 13 32 32q0 26 -40.5 46.5t-90.5 20.5
q-132 0 -236 -152q-58 -86 -92 -199t-34 -223q0 -118 51 -182q49 -62 139 -62q152 0 308 203zM620 1319q41 0 70.5 -29.5t29.5 -70.5q0 -42 -29.5 -71.5t-71.5 -29.5q-41 0 -70.5 29.5t-29.5 71.5q0 41 29.5 70.5t71.5 29.5z" />
    <glyph glyph-name="Ccaron" unicode="&#x10c;" horiz-adv-x="1479" 
d="M1265 1346l122 118h73l-115 -573h-84q-8 217 -52 324q-85 206 -286 206q-150 0 -276 -112q-132 -118 -223 -365q-86 -232 -86 -452q0 -184 94 -303q95 -120 287 -120q229 0 379 186q48 59 116 201l84 -37q-76 -176 -162 -266q-178 -184 -453 -184q-281 0 -450 178
q-151 161 -151 426q0 346 228 626q253 311 595 311q116 0 200 -38t160 -126zM899 1585l-187 340h73l176 -207l280 207h73l-314 -340h-101z" />
    <glyph glyph-name="ccaron" unicode="&#x10d;" horiz-adv-x="909" 
d="M697 270l60 -45q-163 -256 -394 -256q-166 0 -264 107q-89 98 -89 263q0 168 85 322q87 156 231 239q112 63 228 63q112 0 189.5 -64.5t77.5 -157.5q0 -66 -36.5 -109.5t-92.5 -43.5q-48 0 -78.5 28t-30.5 72q0 67 77 98q32 13 32 32q0 26 -40.5 46.5t-90.5 20.5
q-132 0 -236 -152q-58 -86 -92 -199t-34 -223q0 -118 51 -182q49 -62 139 -62q152 0 308 203zM540 1065l-194 334h76l183 -201l290 201h76l-326 -334h-105z" />
    <glyph glyph-name="Dcaron" unicode="&#x10e;" horiz-adv-x="1593" 
d="M-78 0l11 96h9q140 0 170 28q13 12 19.5 29.5t28.5 98.5l261 975q19 72 19 100q0 34 -31 45t-130 11h-53l11 96h594q162 0 262 -21q208 -43 317 -212q95 -146 95 -355q0 -225 -116 -439q-129 -238 -326 -350q-179 -102 -522 -102h-619zM465 96h65q198 0 315 53
q170 76 276 302q136 292 136 552q0 88 -27 166.5t-72 123.5q-92 90 -285 90h-63q-79 0 -104.5 -22t-49.5 -111l-274 -1024q-12 -44 -12 -71q0 -59 95 -59zM860 1585l-186 340h73l176 -207l279 207h74l-314 -340h-102z" />
    <glyph glyph-name="dcaron" unicode="&#x10f;" horiz-adv-x="1251" 
d="M1098 323l62 -37q-169 -317 -358 -317q-140 0 -140 146q0 18 1 44q-130 -190 -332 -190q-164 0 -253 117q-68 90 -68 222q0 172 88 334q89 163 248 254q118 67 232 67q117 0 187 -75q28 -29 50 -92l135 456q18 60 18 89q0 35 -26.5 49.5t-89.5 14.5h-63l7 74l408 31
l-364 -1229q-31 -106 -31 -147q0 -57 51 -57q50 0 99.5 51t138.5 195zM585 871q-151 0 -268 -203q-49 -86 -78.5 -189.5t-29.5 -190.5q0 -90 41 -151q49 -71 141 -71q149 0 252 198q49 94 83 217t34 205q0 74 -39 122q-53 63 -136 63zM1133 944l-25 57q204 97 233 241
q-17 -1 -30 -1q-48 0 -76 26.5t-28 71.5q0 48 35.5 81t88.5 33q51 0 86 -35q43 -42 43 -112q0 -107 -89.5 -205.5t-237.5 -156.5z" />
    <glyph glyph-name="Dcroat" unicode="&#x110;" horiz-adv-x="1593" 
d="M283 725h-210l25 96h211l112 406q19 70 19 100q0 34 -31 45t-130 11h-53l11 96h594q172 0 278.5 -24.5t182.5 -81.5q213 -159 213 -483q0 -224 -116 -438q-129 -238 -326 -350q-179 -102 -509 -102h-632l11 96h9q140 0 170 28q13 12 19.5 29.5t28.5 98.5zM512 725
l-130 -499q-12 -45 -12 -73q0 -57 95 -57h65q197 0 315 53q109 48 185 151q113 155 178 377q48 163 48 307q0 98 -26.5 180.5t-72.5 127.5q-91 91 -284 91h-63q-80 0 -104.5 -21.5t-49.5 -111.5l-118 -429h407l-26 -96h-407z" />
    <glyph glyph-name="dcroat" unicode="&#x111;" horiz-adv-x="1251" 
d="M917 1153h-254l21 96h262q18 65 18 91q0 35 -26.5 50t-89.5 15h-63l7 74l408 31l-77 -261h177l-21 -96h-184l-259 -872q-31 -106 -31 -147q0 -57 51 -57q50 0 99.5 51t138.5 195l62 -37q-169 -317 -358 -317q-140 0 -140 146q0 18 1 44q-130 -190 -332 -190
q-164 0 -253 117q-68 90 -68 222q0 172 88 334q89 163 248 254q118 67 232 67q117 0 187 -75q28 -29 50 -92zM581 871q-151 0 -268 -203q-49 -86 -78.5 -189.5t-29.5 -190.5q0 -90 41 -151q49 -71 141 -71q149 0 252 198q49 94 83 217t34 205q0 74 -39 122q-53 63 -136 63z
" />
    <glyph glyph-name="Emacron" unicode="&#x112;" horiz-adv-x="1479" 
d="M1435 1479l-79 -494h-93q1 55 1 70q0 109 -16.5 165t-59.5 95q-77 68 -209 68h-120q-115 0 -146 -22t-57 -120l-113 -420h47q165 0 247 69q76 64 117 188l93 -14l-183 -683l-93 16q19 83 19 140q0 186 -226 188h-46l-121 -450q-23 -87 -23 -113q0 -37 32 -51.5t112 -14.5
h111q159 0 265 46q169 73 292 296q36 66 45 80l84 -16l-161 -502h-1230l11 96h9q140 0 170 28q13 12 20 30.5t27 96.5l262 977q19 71 19 100q0 34 -31 44.5t-130 10.5h-53l11 96h1196zM618 1797h616l-22 -110h-617z" />
    <glyph glyph-name="emacron" unicode="&#x113;" horiz-adv-x="909" 
d="M693 237l50 -55q-166 -213 -402 -213q-158 0 -254 90q-100 92 -100 265q0 276 199 472q71 70 156 113q108 54 214 54q109 0 176.5 -58.5t67.5 -152.5q0 -185 -245 -293q-71 -31 -132 -49t-241 -62q-4 -43 -4 -69q0 -97 53 -157q50 -57 145 -57q81 0 153.5 39.5
t163.5 132.5zM192 428q168 36 261 88q175 97 175 248q0 53 -30.5 85t-81.5 32q-150 0 -248 -204q-53 -112 -76 -249zM240 1249h616l-22 -104h-617z" />
    <glyph glyph-name="Ebreve" unicode="&#x114;" horiz-adv-x="1479" 
d="M1435 1479l-79 -494h-93q1 55 1 70q0 109 -16.5 165t-59.5 95q-77 68 -209 68h-120q-115 0 -146 -22t-57 -120l-113 -420h47q165 0 247 69q76 64 117 188l93 -14l-183 -683l-93 16q19 83 19 140q0 186 -226 188h-46l-121 -450q-23 -87 -23 -113q0 -37 32 -51.5t112 -14.5
h111q159 0 265 46q169 73 292 296q36 66 45 80l84 -16l-161 -502h-1230l11 96h9q140 0 170 28q13 12 20 30.5t27 96.5l262 977q19 71 19 100q0 34 -31 44.5t-130 10.5h-53l11 96h1196zM627 1915h60q4 -63 31 -108q58 -93 188 -93q116 0 198 84q47 47 75 117h63
q-17 -92 -56 -156q-104 -174 -288 -174q-154 0 -227 116q-47 73 -47 170q0 12 3 44z" />
    <glyph glyph-name="ebreve" unicode="&#x115;" horiz-adv-x="909" 
d="M694 237l50 -55q-166 -213 -402 -213q-158 0 -254 90q-100 92 -100 265q0 276 199 472q71 70 156 113q108 54 214 54q109 0 176.5 -58.5t67.5 -152.5q0 -185 -245 -293q-71 -31 -132 -49t-241 -62q-4 -43 -4 -69q0 -97 53 -157q50 -57 145 -57q81 0 153.5 39.5
t163.5 132.5zM193 428q168 36 261 88q175 97 175 248q0 53 -30.5 85t-81.5 32q-150 0 -248 -204q-53 -112 -76 -249zM270 1386h60q4 -62 32 -105q58 -91 187 -91q93 0 163 50.5t109 145.5h63q-17 -90 -55 -153q-105 -172 -288 -172q-153 0 -227 114q-47 74 -47 162
q0 16 3 49z" />
    <glyph glyph-name="Edotaccent" unicode="&#x116;" horiz-adv-x="1479" 
d="M1435 1479l-79 -494h-93q1 55 1 70q0 109 -16.5 165t-59.5 95q-77 68 -209 68h-120q-115 0 -146 -22t-57 -120l-113 -420h47q165 0 247 69q76 64 117 188l93 -14l-183 -683l-93 16q19 83 19 140q0 186 -226 188h-46l-121 -450q-23 -87 -23 -113q0 -37 32 -51.5t112 -14.5
h111q159 0 265 46q169 73 292 296q36 66 45 80l84 -16l-161 -502h-1230l11 96h9q140 0 170 28q13 12 20 30.5t27 96.5l262 977q19 71 19 100q0 34 -31 44.5t-130 10.5h-53l11 96h1196zM919 1863q41 0 70.5 -29.5t29.5 -70.5q0 -42 -29.5 -71.5t-72.5 -29.5q-40 0 -69.5 29.5
t-29.5 70.5q0 42 29.5 71.5t71.5 29.5z" />
    <glyph glyph-name="edotaccent" unicode="&#x117;" horiz-adv-x="909" 
d="M694 237l50 -55q-166 -213 -402 -213q-158 0 -254 90q-100 92 -100 265q0 276 199 472q71 70 156 113q108 54 214 54q109 0 176.5 -58.5t67.5 -152.5q0 -185 -245 -293q-71 -31 -132 -49t-241 -62q-4 -43 -4 -69q0 -97 53 -157q50 -57 145 -57q81 0 153.5 39.5
t163.5 132.5zM193 428q168 36 261 88q175 97 175 248q0 53 -30.5 85t-81.5 32q-150 0 -248 -204q-53 -112 -76 -249zM539 1319q42 0 71 -29t29 -71q0 -43 -29.5 -72t-71.5 -29q-41 0 -70.5 29.5t-29.5 71.5q0 41 29.5 70.5t71.5 29.5z" />
    <glyph glyph-name="Eogonek" unicode="&#x118;" horiz-adv-x="1479" 
d="M518 725l-121 -450q-23 -87 -23 -113q0 -37 32 -51.5t112 -14.5h111q159 0 265 46q169 73 292 296q36 66 45 80l84 -16l-161 -502q-78 -89 -78 -153q0 -31 25 -55.5t58 -24.5q63 0 146 75l33 -44q-115 -115 -220 -115q-63 0 -102.5 38.5t-39.5 99.5q0 92 105 179h-1157
l11 96h9q140 0 170 28q13 12 20 30.5t27 96.5l262 977q19 71 19 100q0 34 -31 44.5t-130 10.5h-53l11 96h1196l-79 -494h-93q1 55 1 70q0 109 -16.5 165t-59.5 95q-77 68 -209 68h-120q-115 0 -146 -22t-57 -120l-113 -420h47q165 0 247 69q76 64 117 188l93 -14l-183 -683
l-93 16q19 83 19 140q0 186 -226 188h-46z" />
    <glyph glyph-name="eogonek" unicode="&#x119;" horiz-adv-x="909" 
d="M694 237l50 -55q-40 -51 -114 -114q-87 -73 -117 -120q-36 -55 -36 -102q0 -31 25.5 -55t57.5 -24q63 0 147 75l33 -44q-114 -115 -221 -115q-60 0 -98 34q-44 39 -44 103q0 88 85 163q-63 -14 -120 -14q-158 0 -254 90q-100 92 -100 265q0 276 199 472q71 70 156 113
q108 54 214 54q109 0 176.5 -58.5t67.5 -152.5q0 -185 -245 -293q-71 -31 -132 -49t-241 -62q-4 -43 -4 -69q0 -97 53 -157q50 -57 145 -57q81 0 153.5 39.5t163.5 132.5zM193 428q168 36 261 88q175 97 175 248q0 53 -30.5 85t-81.5 32q-150 0 -248 -204q-53 -112 -76 -249
z" />
    <glyph glyph-name="Ecaron" unicode="&#x11a;" horiz-adv-x="1479" 
d="M1435 1479l-79 -494h-93q1 55 1 70q0 109 -16.5 165t-59.5 95q-77 68 -209 68h-120q-115 0 -146 -22t-57 -120l-113 -420h47q165 0 247 69q76 64 117 188l93 -14l-183 -683l-93 16q19 83 19 140q0 186 -226 188h-46l-121 -450q-23 -87 -23 -113q0 -37 32 -51.5t112 -14.5
h111q159 0 265 46q169 73 292 296q36 66 45 80l84 -16l-161 -502h-1230l11 96h9q140 0 170 28q13 12 20 30.5t27 96.5l262 977q19 71 19 100q0 34 -31 44.5t-130 10.5h-53l11 96h1196zM844 1585l-187 340h73l176 -207l280 207h73l-314 -340h-101z" />
    <glyph glyph-name="ecaron" unicode="&#x11b;" horiz-adv-x="909" 
d="M693 237l50 -55q-166 -213 -402 -213q-158 0 -254 90q-100 92 -100 265q0 276 199 472q71 70 156 113q108 54 214 54q109 0 176.5 -58.5t67.5 -152.5q0 -185 -245 -293q-71 -31 -132 -49t-241 -62q-4 -43 -4 -69q0 -97 53 -157q50 -57 145 -57q81 0 153.5 39.5
t163.5 132.5zM192 428q168 36 261 88q175 97 175 248q0 53 -30.5 85t-81.5 32q-150 0 -248 -204q-53 -112 -76 -249zM456 1065l-193 334h75l183 -201l290 201h76l-326 -334h-105z" />
    <glyph glyph-name="Gcircumflex" unicode="&#x11c;" horiz-adv-x="1593" 
d="M1513 1464l-111 -574l-86 12q-4 197 -49 302q-46 104 -129 160q-84 57 -190 57q-278 0 -461 -346q-72 -138 -114.5 -305t-42.5 -315q0 -186 91 -287q45 -52 117.5 -81t155.5 -29q148 0 246 78t139 228l18 65q19 70 19 100q0 34 -31 44.5t-130 10.5h-68l11 96h665l-12 -96
h-8q-140 0 -171 -28q-13 -12 -19 -29t-28 -98l-123 -458h-89l-25 165q-66 -63 -124 -94q-130 -73 -321 -73q-261 0 -405 147q-158 161 -158 442q0 254 128 476q143 248 361 376q170 100 362 100q125 0 215.5 -40.5t171.5 -133.5l126 128h69zM1053 1925l187 -340h-73
l-176 207l-280 -207h-73l314 340h101z" />
    <glyph glyph-name="gcircumflex" unicode="&#x11d;" horiz-adv-x="1100" 
d="M781 885q122 -86 122 -227q0 -70 -36 -141.5t-96 -119.5q-107 -86 -278 -86q-56 0 -147 14q-43 7 -85 7q-54 0 -88 -22.5t-34 -58.5q0 -55 75 -72q31 -7 225 -19q106 -6 164.5 -18.5t106.5 -39.5q107 -59 107 -184q0 -151 -140 -242q-75 -49 -171 -69.5t-248 -20.5
q-128 0 -206.5 18.5t-139.5 62.5q-74 54 -74 148q0 110 100 170q55 34 162 58q-113 54 -113 151q0 83 67 138q62 52 186 67q-65 36 -92 80q-36 61 -36 133q0 165 158 271q119 80 262 80q89 0 177 -39q80 64 129.5 87.5t103.5 23.5t91.5 -31.5t37.5 -75.5q0 -38 -23.5 -64
t-57.5 -26q-26 0 -40.5 9.5t-38.5 43.5q-23 33 -54 33t-76 -39zM546 885q-104 0 -166 -71q-82 -94 -82 -244q0 -85 48.5 -134.5t132.5 -49.5q101 0 158 70q38 48 61 120.5t23 145.5t-40 113q-50 50 -135 50zM296 6q-131 0 -207 -41q-39 -21 -62 -58t-23 -78
q0 -80 70.5 -118.5t219.5 -38.5q211 0 299 65q66 49 66 121q0 77 -76 108q-35 15 -126 27.5t-161 12.5zM665 1409l187 -346h-73l-177 213l-279 -213h-73l314 346h101z" />
    <glyph glyph-name="Gbreve" unicode="&#x11e;" horiz-adv-x="1593" 
d="M1513 1464l-111 -574l-86 12q-4 197 -49 302q-46 104 -129 160q-84 57 -190 57q-278 0 -461 -346q-72 -138 -114.5 -305t-42.5 -315q0 -186 91 -287q45 -52 117.5 -81t155.5 -29q148 0 246 78t139 228l18 65q19 70 19 100q0 34 -31 44.5t-130 10.5h-68l11 96h665l-12 -96
h-8q-140 0 -171 -28q-13 -12 -19 -29t-28 -98l-123 -458h-89l-25 165q-66 -63 -124 -94q-130 -73 -321 -73q-261 0 -405 147q-158 161 -158 442q0 254 128 476q143 248 361 376q170 100 362 100q125 0 215.5 -40.5t171.5 -133.5l126 128h69zM714 1915h60q3 -63 31 -108
q58 -93 188 -93q116 0 198 84q47 47 75 117h62q-17 -92 -55 -156q-104 -174 -288 -174q-154 0 -227 116q-47 74 -47 170q0 12 3 44z" />
    <glyph glyph-name="gbreve" unicode="&#x11f;" horiz-adv-x="1100" 
d="M781 885q122 -86 122 -227q0 -70 -36 -141.5t-96 -119.5q-107 -86 -278 -86q-56 0 -147 14q-43 7 -85 7q-54 0 -88 -22.5t-34 -58.5q0 -55 75 -72q31 -7 225 -19q106 -6 164.5 -18.5t106.5 -39.5q107 -59 107 -184q0 -151 -140 -242q-75 -49 -171 -69.5t-248 -20.5
q-128 0 -206.5 18.5t-139.5 62.5q-74 54 -74 148q0 110 100 170q55 34 162 58q-113 54 -113 151q0 83 67 138q62 52 186 67q-65 36 -92 80q-36 61 -36 133q0 165 158 271q119 80 262 80q89 0 177 -39q80 64 129.5 87.5t103.5 23.5t91.5 -31.5t37.5 -75.5q0 -38 -23.5 -64
t-57.5 -26q-26 0 -40.5 9.5t-38.5 43.5q-23 33 -54 33t-76 -39zM546 885q-104 0 -166 -71q-82 -94 -82 -244q0 -85 48.5 -134.5t132.5 -49.5q101 0 158 70q38 48 61 120.5t23 145.5t-40 113q-50 50 -135 50zM296 6q-131 0 -207 -41q-39 -21 -62 -58t-23 -78
q0 -80 70.5 -118.5t219.5 -38.5q211 0 299 65q66 49 66 121q0 77 -76 108q-35 15 -126 27.5t-161 12.5zM352 1386h61q3 -62 31 -105q58 -91 188 -91q93 0 162.5 50.5t109.5 145.5h62q-17 -90 -55 -153q-104 -172 -287 -172q-153 0 -227 114q-47 73 -47 162q0 17 2 49z" />
    <glyph glyph-name="Gdotaccent" unicode="&#x120;" horiz-adv-x="1593" 
d="M1513 1464l-111 -574l-86 12q-4 197 -49 302q-46 104 -129 160q-84 57 -190 57q-278 0 -461 -346q-72 -138 -114.5 -305t-42.5 -315q0 -186 91 -287q45 -52 117.5 -81t155.5 -29q148 0 246 78t139 228l18 65q19 70 19 100q0 34 -31 44.5t-130 10.5h-68l11 96h665l-12 -96
h-8q-140 0 -171 -28q-13 -12 -19 -29t-28 -98l-123 -458h-89l-25 165q-66 -63 -124 -94q-130 -73 -321 -73q-261 0 -405 147q-158 161 -158 442q0 254 128 476q143 248 361 376q170 100 362 100q125 0 215.5 -40.5t171.5 -133.5l126 128h69zM957 1863q41 0 70.5 -29.5
t29.5 -70.5q0 -42 -29.5 -71.5t-72.5 -29.5q-40 0 -69.5 29.5t-29.5 70.5q0 42 29.5 71.5t71.5 29.5z" />
    <glyph glyph-name="gdotaccent" unicode="&#x121;" horiz-adv-x="1100" 
d="M781 885q122 -86 122 -227q0 -70 -36 -141.5t-96 -119.5q-107 -86 -278 -86q-56 0 -147 14q-43 7 -85 7q-54 0 -88 -22.5t-34 -58.5q0 -55 75 -72q31 -7 225 -19q106 -6 164.5 -18.5t106.5 -39.5q107 -59 107 -184q0 -151 -140 -242q-75 -49 -171 -69.5t-248 -20.5
q-128 0 -206.5 18.5t-139.5 62.5q-74 54 -74 148q0 110 100 170q55 34 162 58q-113 54 -113 151q0 83 67 138q62 52 186 67q-65 36 -92 80q-36 61 -36 133q0 165 158 271q119 80 262 80q89 0 177 -39q80 64 129.5 87.5t103.5 23.5t91.5 -31.5t37.5 -75.5q0 -38 -23.5 -64
t-57.5 -26q-26 0 -40.5 9.5t-38.5 43.5q-23 33 -54 33t-76 -39zM546 885q-104 0 -166 -71q-82 -94 -82 -244q0 -85 48.5 -134.5t132.5 -49.5q101 0 158 70q38 48 61 120.5t23 145.5t-40 113q-50 50 -135 50zM296 6q-131 0 -207 -41q-39 -21 -62 -58t-23 -78
q0 -80 70.5 -118.5t219.5 -38.5q211 0 299 65q66 49 66 121q0 77 -76 108q-35 15 -126 27.5t-161 12.5zM539 1319q41 0 70.5 -29.5t29.5 -70.5q0 -42 -29.5 -71.5t-71.5 -29.5q-41 0 -70.5 29.5t-29.5 71.5q0 41 29.5 70.5t71.5 29.5z" />
    <glyph glyph-name="Gcommaaccent" unicode="&#x122;" horiz-adv-x="1593" 
d="M1513 1464l-111 -574l-86 12q-4 197 -49 302q-46 104 -129 160q-84 57 -190 57q-278 0 -461 -346q-72 -138 -114.5 -305t-42.5 -315q0 -186 91 -287q45 -52 117.5 -81t155.5 -29q148 0 246 78t139 228l18 65q19 70 19 100q0 34 -31 44.5t-130 10.5h-68l11 96h665l-12 -96
h-8q-140 0 -171 -28q-13 -12 -19 -29t-28 -98l-123 -458h-89l-25 165q-66 -63 -124 -94q-130 -73 -321 -73q-261 0 -405 147q-158 161 -158 442q0 254 128 476q143 248 361 376q170 100 362 100q125 0 215.5 -40.5t171.5 -133.5l126 128h69zM352 -590l-24 57q203 97 233 241
q-19 -2 -31 -2q-47 0 -75 26.5t-28 71.5q0 48 35.5 81t87.5 33t87 -35q43 -42 43 -112q0 -107 -89 -205t-239 -156z" />
    <glyph glyph-name="gcommaaccent" unicode="&#x123;" horiz-adv-x="1100" 
d="M781 885q122 -86 122 -227q0 -70 -36 -141.5t-96 -119.5q-107 -86 -278 -86q-56 0 -147 14q-43 7 -85 7q-54 0 -88 -22.5t-34 -58.5q0 -55 75 -72q31 -7 225 -19q106 -6 164.5 -18.5t106.5 -39.5q107 -59 107 -184q0 -151 -140 -242q-75 -49 -171 -69.5t-248 -20.5
q-128 0 -206.5 18.5t-139.5 62.5q-74 54 -74 148q0 110 100 170q55 34 162 58q-113 54 -113 151q0 83 67 138q62 52 186 67q-65 36 -92 80q-36 61 -36 133q0 165 158 271q119 80 262 80q89 0 177 -39q80 64 129.5 87.5t103.5 23.5t91.5 -31.5t37.5 -75.5q0 -38 -23.5 -64
t-57.5 -26q-26 0 -40.5 9.5t-38.5 43.5q-23 33 -54 33t-76 -39zM546 885q-104 0 -166 -71q-82 -94 -82 -244q0 -85 48.5 -134.5t132.5 -49.5q101 0 158 70q38 48 61 120.5t23 145.5t-40 113q-50 50 -135 50zM296 6q-131 0 -207 -41q-39 -21 -62 -58t-23 -78
q0 -80 70.5 -118.5t219.5 -38.5q211 0 299 65q66 49 66 121q0 77 -76 108q-35 15 -126 27.5t-161 12.5zM809 1554l24 -57q-204 -98 -233 -240q19 1 30 1q48 0 76 -26.5t28 -71.5q0 -48 -35.5 -81t-87.5 -33t-87 35q-43 42 -43 112q0 107 89.5 206t238.5 155z" />
    <glyph glyph-name="Hcircumflex" unicode="&#x124;" horiz-adv-x="1706" 
d="M1174 725h-659l-126 -473q-21 -77 -21 -101q0 -34 31.5 -44.5t131.5 -10.5h53l-11 -96h-651l11 96h9q140 0 170 28q13 12 19.5 30t27.5 98l262 975q19 72 19 101q0 34 -31 44.5t-130 10.5h-53l11 96h651l-11 -96h-9q-140 0 -171 -28q-12 -12 -18.5 -29t-28.5 -99
l-109 -406h659l109 406q20 75 20 100q0 35 -31 45.5t-131 10.5h-53l11 96h650l-10 -96h-9q-140 0 -171 -28q-12 -12 -18 -28.5t-29 -99.5l-261 -975q-20 -74 -20 -100q0 -34 31 -45t131 -11h53l-11 -96h-651l11 96h9q140 0 170 28q13 12 19.5 30t27.5 98zM1123 1925
l187 -340h-74l-176 207l-279 -207h-73l314 340h101z" />
    <glyph glyph-name="hcircumflex" unicode="&#x125;" horiz-adv-x="1251" 
d="M625 1510l-244 -824q201 277 386 277q110 0 169 -82q37 -52 37 -118q0 -89 -49 -231l-97 -281q-39 -113 -39 -139q0 -39 36 -39q96 0 253 243l60 -43q-83 -146 -180.5 -225t-193.5 -79q-64 0 -103 45q-40 44 -40 108q0 58 38 171l108 320q31 93 31 142q0 38 -24.5 61.5
t-65.5 23.5q-149 0 -293 -211q-55 -80 -83.5 -145t-68.5 -199l-85 -285h-177l371 1252q17 59 17 89q0 35 -26.5 49.5t-88.5 14.5h-64l7 74zM900 1925l187 -340h-73l-176 207l-280 -207h-73l314 340h101z" />
    <glyph glyph-name="Hbar" unicode="&#x126;" horiz-adv-x="1706" 
d="M363 1011h-141l45 170h141l13 46q19 72 19 101q0 34 -31 44.5t-130 10.5h-53l11 96h651l-11 -96h-9q-140 0 -171 -28q-12 -12 -18.5 -29t-28.5 -99l-12 -46h658l13 46q20 75 20 100q0 35 -31 45.5t-131 10.5h-53l11 96h650l-10 -96h-9q-140 0 -171 -28
q-12 -12 -18.5 -28.5t-28.5 -99.5l-12 -46h153l-45 -170h-154l-203 -759q-20 -74 -20 -100q0 -34 31 -45t131 -11h53l-11 -96h-651l11 96h9q140 0 170 28q13 12 19.5 30t27.5 98l127 473h-659l-126 -473q-21 -77 -21 -101q0 -34 31.5 -44.5t131.5 -10.5h53l-11 -96h-651
l11 96h9q140 0 170 28q13 12 19.5 30t27.5 98zM592 1011l-51 -190h659l51 190h-659z" />
    <glyph glyph-name="hbar" unicode="&#x127;" horiz-adv-x="1251" 
d="M560 1292h295l-46 -170h-299l-129 -436q201 277 385 277q111 0 170 -82q37 -52 37 -118q0 -89 -49 -231l-97 -281q-39 -113 -39 -139q0 -39 36 -39q96 0 253 243l60 -43q-83 -146 -180.5 -225t-193.5 -79q-64 0 -103 45q-40 44 -40 108q0 58 38 171l108 320q31 93 31 141
q0 40 -24.5 63.5t-65.5 23.5q-148 0 -293 -211q-55 -81 -83.5 -145.5t-68.5 -199.5l-85 -285h-177l332 1122h-136l46 170h139q7 30 7 49q0 35 -26.5 49.5t-88.5 14.5h-64l7 74l409 31z" />
    <glyph glyph-name="Itilde" unicode="&#x128;" horiz-adv-x="833" 
d="M578 96l-11 -96h-635l11 96q91 2 122.5 7.5t49.5 20.5q12 12 19 30t28 97l261 976q21 78 21 101q0 34 -31 44.5t-132 10.5h-45l11 96h635l-11 -96q-92 -3 -123 -8t-48 -20q-13 -12 -19 -29t-29 -99l-261 -976q-21 -78 -21 -98q0 -35 31 -46t132 -11h45zM863 1879h62
q-10 -87 -66.5 -150t-124.5 -63q-51 0 -177 46q-113 42 -151 42q-65 0 -91 -90h-62q13 74 44 124q54 89 139 89q49 0 206 -54q87 -30 121 -30q65 0 100 86z" />
    <glyph glyph-name="itilde" unicode="&#x129;" horiz-adv-x="682" 
d="M473 963l-217 -732q-25 -85 -25 -116q0 -42 34 -42q42 0 107 65t142 185l64 -36q-81 -122 -126 -174q-124 -142 -257 -142q-59 0 -99.5 37t-40.5 91q0 52 46 207l118 399q18 61 18 89q0 35 -26.5 49.5t-89.5 14.5h-49l7 74zM638 1331h63q-11 -89 -67 -152t-124 -63
q-52 0 -177 47q-113 43 -151 43q-66 0 -92 -92h-61q13 75 43 125q54 90 141 90q47 0 205 -54q86 -30 120 -30q66 0 100 86z" />
    <glyph glyph-name="Imacron" unicode="&#x12a;" horiz-adv-x="833" 
d="M578 96l-11 -96h-635l11 96q91 2 122.5 7.5t49.5 20.5q12 12 19 30t28 97l261 976q21 78 21 101q0 34 -31 44.5t-132 10.5h-45l11 96h635l-11 -96q-92 -3 -123 -8t-48 -20q-13 -12 -19 -29t-29 -99l-261 -976q-21 -78 -21 -98q0 -35 31 -46t132 -11h45zM335 1797h617
l-22 -110h-617z" />
    <glyph glyph-name="imacron" unicode="&#x12b;" horiz-adv-x="682" 
d="M473 963l-217 -732q-25 -84 -25 -116q0 -42 34 -42q42 0 106.5 65t142.5 185l63 -36q-80 -122 -126 -174q-123 -142 -256 -142q-60 0 -100 36.5t-40 91.5q0 53 45 207l119 399q18 62 18 89q0 35 -26.5 49.5t-89.5 14.5h-49l7 74zM126 1249h617l-22 -104h-617z" />
    <glyph glyph-name="Ibreve" unicode="&#x12c;" horiz-adv-x="833" 
d="M578 96l-11 -96h-635l11 96q91 2 122.5 7.5t49.5 20.5q12 12 19 30t28 97l261 976q21 78 21 101q0 34 -31 44.5t-132 10.5h-45l11 96h635l-11 -96q-92 -3 -123 -8t-48 -20q-13 -12 -19 -29t-29 -99l-261 -976q-21 -78 -21 -98q0 -35 31 -46t132 -11h45zM357 1915h61
q3 -63 31 -108q58 -93 188 -93q116 0 198 84q46 47 74 117h63q-17 -91 -55 -156q-105 -174 -289 -174q-153 0 -226 116q-47 73 -47 170q0 13 2 44z" />
    <glyph glyph-name="ibreve" unicode="&#x12d;" horiz-adv-x="682" 
d="M472 963l-216 -732q-25 -83 -25 -116q0 -42 34 -42q42 0 106.5 65t142.5 185l63 -36q-86 -129 -126 -174q-123 -142 -256 -142q-60 0 -100 36.5t-40 91.5q0 54 45 207l119 399q18 62 18 89q0 35 -27 49.5t-90 14.5h-48l7 74zM55 1386h61q3 -62 31 -105q58 -91 188 -91
q93 0 162.5 50.5t109.5 145.5h62q-17 -90 -55 -153q-104 -172 -287 -172q-153 0 -227 114q-47 73 -47 162q0 17 2 49z" />
    <glyph glyph-name="Iogonek" unicode="&#x12e;" horiz-adv-x="833" 
d="M247 1479h635l-11 -96q-92 -3 -123 -8t-48 -20q-13 -12 -19 -29t-29 -99l-261 -976q-21 -78 -21 -98q0 -35 31 -46t132 -11h45l-11 -96q-78 -90 -78 -153q0 -31 25 -55.5t58 -24.5q63 0 147 75l33 -44q-116 -115 -221 -115q-60 0 -98 34q-44 39 -44 104q0 92 105 179
h-562l11 96q91 2 122.5 7.5t49.5 20.5q12 12 19 30t28 97l261 976q21 78 21 101q0 34 -31 44.5t-132 10.5h-45z" />
    <glyph glyph-name="iogonek" unicode="&#x12f;" horiz-adv-x="682" 
d="M514 323l63 -36q-88 -134 -159 -209q-101 -107 -118 -133q-34 -54 -34 -98q0 -31 25.5 -55.5t57.5 -24.5q63 0 147 75l33 -44q-114 -115 -221 -115q-60 0 -98 34q-44 39 -44 103q0 81 76 156q-27 -5 -45 -5q-61 0 -101.5 36.5t-40.5 91.5q0 53 45 207l119 399
q18 62 18 89q0 35 -26.5 49.5t-89.5 14.5h-49l7 74l394 31l-217 -732q-25 -84 -25 -116q0 -42 34 -42q42 0 106.5 65t142.5 185zM436 1463q45 0 77.5 -32.5t32.5 -77.5q0 -47 -32.5 -79t-79.5 -32q-45 0 -77 32.5t-32 78.5q0 45 32.5 77.5t78.5 32.5z" />
    <glyph glyph-name="Idotaccent" unicode="&#x130;" horiz-adv-x="833" 
d="M578 96l-11 -96h-635l11 96q91 2 122.5 7.5t49.5 20.5q12 12 19 30t28 97l261 976q21 78 21 101q0 34 -31 44.5t-132 10.5h-45l11 96h635l-11 -96q-92 -3 -123 -8t-48 -20q-13 -12 -19 -29t-29 -99l-261 -976q-21 -78 -21 -98q0 -35 31 -46t132 -11h45zM637 1863
q41 0 70.5 -29.5t29.5 -70.5q0 -42 -29.5 -71.5t-72.5 -29.5q-40 0 -69.5 29.5t-29.5 70.5q0 42 29.5 71.5t71.5 29.5z" />
    <glyph glyph-name="dotlessi" unicode="&#x131;" horiz-adv-x="682" 
d="M473 963l-217 -732q-25 -84 -25 -116q0 -42 34 -42q42 0 106.5 65t142.5 185l63 -36q-80 -122 -126 -174q-123 -142 -256 -142q-60 0 -100 36.5t-40 91.5q0 53 45 207l119 399q18 62 18 89q0 35 -26.5 49.5t-89.5 14.5h-49l7 74z" />
    <glyph glyph-name="IJ" unicode="&#x132;" horiz-adv-x="2085" 
d="M578 96l-11 -96h-635l11 96q91 2 122.5 7.5t49.5 20.5q12 12 19 30t28 97l261 976q21 78 21 101q0 34 -31 44.5t-132 10.5h-45l11 96h635l-11 -96q-92 -3 -123 -8t-48 -20q-13 -12 -19 -29t-29 -99l-261 -976q-21 -78 -21 -98q0 -35 31 -46t132 -11h45zM1502 1383l11 96
h643l-11 -96h-8q-126 0 -157 -28q-13 -12 -19 -28.5t-28 -99.5l-223 -834q-50 -183 -140 -280q-135 -144 -373 -144q-180 0 -283 80q-108 85 -108 244q0 132 79 219q71 78 169 78q72 0 117 -40.5t45 -105.5q0 -64 -37.5 -103.5t-98.5 -39.5q-28 0 -45 5t-49 23q-12 7 -27 7
q-24 0 -39 -18.5t-15 -47.5q0 -91 72 -152t178 -61q128 0 205.5 89t134.5 303l209 778q20 76 20 100q0 34 -31 45t-131 11h-60z" />
    <glyph glyph-name="ij" unicode="&#x133;" horiz-adv-x="1227" 
d="M475 963l-217 -732q-25 -84 -25 -116q0 -42 34 -42q42 0 106.5 65t142.5 185l63 -36q-80 -122 -126 -174q-123 -142 -256 -142q-60 0 -100 36.5t-40 91.5q0 53 45 207l119 399q18 62 18 89q0 35 -26.5 49.5t-89.5 14.5h-49l7 74zM438 1463q45 0 77.5 -32.5t32.5 -77.5
q0 -47 -32.5 -79t-79.5 -32q-45 0 -77 32.5t-32 78.5q0 45 32.5 77.5t78.5 32.5zM1255 963l-243 -820q-58 -197 -79 -252q-34 -90 -76 -146.5t-105 -97.5q-93 -61 -200 -61q-95 0 -151.5 44.5t-56.5 119.5q0 55 32 89t83 34q43 0 70.5 -26.5t27.5 -69.5q0 -24 -17 -55
q-10 -17 -10 -29q0 -15 13 -26t30 -11q36 0 77 32t65 80q45 91 79 222q33 128 51 187l156 528q18 62 18 88q0 35 -26.5 50t-90.5 15h-70l7 74zM1223 1463q45 0 77.5 -32.5t32.5 -77.5q0 -47 -32.5 -79t-79.5 -32q-44 0 -76.5 32.5t-32.5 78.5q0 45 32.5 77.5t78.5 32.5z" />
    <glyph glyph-name="Jcircumflex" unicode="&#x134;" horiz-adv-x="1251" 
d="M668 1383l11 96h644l-11 -96h-9q-126 0 -156 -28q-13 -12 -19.5 -29t-28.5 -99l-223 -834q-49 -183 -139 -280q-135 -144 -373 -144q-180 0 -283 80q-108 85 -108 244q0 132 79 219q71 78 169 78q72 0 117 -40.5t45 -105.5q0 -64 -37.5 -103.5t-98.5 -39.5q-28 0 -45 5
t-49 23q-11 7 -27 7q-24 0 -39 -18.5t-15 -47.5q0 -91 71.5 -152t178.5 -61q128 0 205.5 89t134.5 303l208 778q21 78 21 100q0 34 -31 45t-132 11h-60zM1123 1925l187 -340h-73l-177 207l-279 -207h-73l314 340h101z" />
    <glyph glyph-name="jcircumflex" unicode="&#x135;" horiz-adv-x="645" 
d="M571 963l-243 -820q-58 -197 -79 -252q-34 -90 -76 -146.5t-105 -97.5q-93 -61 -200 -61q-95 0 -151.5 44.5t-56.5 119.5q0 55 32 89t82 34q44 0 71.5 -26.5t27.5 -69.5q0 -24 -17 -55q-10 -17 -10 -29q0 -15 13 -26t30 -11q37 0 77.5 32t64.5 80q45 91 79 222
q33 127 51 187l156 528q18 61 18 88q0 35 -26.5 50t-89.5 15h-71l7 74zM532 1409l187 -346h-73l-176 213l-280 -213h-73l314 346h101z" />
    <glyph glyph-name="Kcommaaccent" unicode="&#x136;" horiz-adv-x="1517" 
d="M505 701l591 490q110 91 110 141q0 28 -26 39.5t-94 11.5h-45l11 96h615l-11 -96q-120 -8 -201 -47.5t-210 -153.5l-386 -321l312 -645q41 -85 64 -101q18 -12 39.5 -15.5t89.5 -3.5h63l-11 -96h-671l11 96h68q81 0 109.5 8t28.5 29q0 13 -31 81l-242 503l-231 -191
l-73 -274q-21 -77 -21 -101q0 -34 31.5 -44.5t131.5 -10.5h53l-11 -96h-651l11 96h9q140 0 170 28q13 12 19.5 30t27.5 98l262 975q19 72 19 100q0 34 -31 45t-130 11h-53l11 96h651l-11 -96h-9q-140 0 -171 -28q-12 -12 -18.5 -29t-28.5 -99zM396 -590l-25 57
q204 97 234 241q-20 -2 -31 -2q-47 0 -75 26.5t-28 71.5q0 48 35.5 81t87.5 33q51 0 87 -35q42 -42 42 -112q0 -107 -89 -205t-238 -156z" />
    <glyph glyph-name="kcommaaccent" unicode="&#x137;" horiz-adv-x="1139" 
d="M615 1510l-254 -857q200 310 403 310q100 0 157 -69q44 -53 44 -118q0 -102 -96.5 -190t-278.5 -152q50 -42 67 -85q22 -56 31 -164q4 -62 12.5 -81.5t31.5 -19.5q37 0 81 48.5t132 183.5l63 -40q-96 -162 -177 -234.5t-165 -72.5q-152 0 -152 203q0 13 2 103v77
q0 54 -33 54q-14 0 -41 -4q-18 -3 -26 -3q-20 0 -34 13.5t-14 32.5q0 55 62 55q29 0 58 -9q18 -6 27 -7q18 -1 85 32q106 53 152.5 104.5t46.5 115.5q0 54 -34 81q-28 23 -60 23q-75 0 -173 -83q-106 -89 -178 -227q-69 -133 -108 -264l-79 -266h-177l371 1252q17 59 17 89
q0 35 -26.5 49.5t-88.5 14.5h-64l7 74zM102 -590l-25 57q204 97 234 241q-20 -2 -31 -2q-47 0 -75 26.5t-28 71.5q0 48 35.5 81t87.5 33q51 0 87 -35q42 -42 42 -112q0 -107 -89 -205t-238 -156z" />
    <glyph glyph-name="kgreenlandic" unicode="&#x138;" horiz-adv-x="1249" 
d="M497 334l-22 -82q-31 -116 -31 -130q0 -25 23 -35q29 -13 116 -13h8l-20 -74h-518l20 74h8q118 0 148 28q13 13 19 29.5t34 120.5l121 450q31 117 31 131q0 27 -25 35.5t-120 12.5l20 73h518l-20 -73q-85 -4 -113 -9t-45 -20q-14 -12 -20 -29.5t-34 -120.5l-65 -242
l393 303q71 55 71 86q0 32 -86 32h-39l20 73h513l-20 -73q-50 -8 -80 -14q-137 -26 -314 -164l-116 -91l-46 -33l170 -364q36 -77 76 -105t126 -36l-20 -74h-541l20 74h38q55 0 78.5 10t23.5 35q0 10 -7 26l-136 308z" />
    <glyph glyph-name="Lacute" unicode="&#x139;" horiz-adv-x="1366" 
d="M1206 518l84 -16l-161 -502h-1205l11 96h9q140 0 170 28q13 12 20 30.5t27 96.5l262 976q19 72 19 100q0 34 -31 45t-130 11h-53l11 96h688l-11 -96h-46q-140 0 -171 -28q-12 -12 -18.5 -29.5t-28.5 -98.5l-255 -952q-4 -16 -11 -41q-12 -42 -12 -72q0 -37 31.5 -51.5
t112.5 -14.5h87q240 0 382 120q99 83 219 302zM645 1585l283 293q60 61 103 61q29 0 50 -20.5t21 -49.5q0 -47 -52 -80l-326 -204h-79z" />
    <glyph glyph-name="lacute" unicode="&#x13a;" horiz-adv-x="682" 
d="M602 1510l-378 -1280q-27 -90 -27 -115q0 -42 36 -42q91 0 253 249l62 -36q-187 -317 -381 -317q-62 0 -98 38.5t-36 105.5q0 48 9.5 91.5t46.5 169.5l260 878q17 59 17 89q0 35 -26.5 49.5t-88.5 14.5h-64l7 74zM303 1585l284 293q59 61 102 61q29 0 50 -20.5t21 -49.5
q0 -47 -52 -80l-325 -204h-80z" />
    <glyph glyph-name="Lcommaaccent" unicode="&#x13b;" horiz-adv-x="1366" 
d="M1206 518l84 -16l-161 -502h-1205l11 96h9q140 0 170 28q13 12 20 30.5t27 96.5l262 976q19 72 19 100q0 34 -31 45t-130 11h-53l11 96h688l-11 -96h-46q-140 0 -171 -28q-12 -12 -18.5 -29.5t-28.5 -98.5l-255 -952q-4 -16 -11 -41q-12 -42 -12 -72q0 -37 31.5 -51.5
t112.5 -14.5h87q240 0 382 120q99 83 219 302zM238 -590l-25 57q205 97 234 241q-20 -2 -31 -2q-47 0 -75 26.5t-28 71.5q0 48 35.5 81t88.5 33q51 0 86 -35q43 -42 43 -112q0 -107 -89 -205t-239 -156z" />
    <glyph glyph-name="lcommaaccent" unicode="&#x13c;" horiz-adv-x="682" 
d="M602 1510l-379 -1280q-27 -90 -27 -115q0 -42 36 -42q91 0 253 249l63 -36q-188 -317 -382 -317q-62 0 -98 38.5t-36 105.5q0 48 9 89.5t47 171.5l260 878q18 60 18 89q0 35 -26.5 49.5t-89.5 14.5h-63l7 74zM-45 -590l-25 57q204 97 234 241q-20 -2 -31 -2
q-47 0 -75 26.5t-28 71.5q0 48 35.5 81t87.5 33q51 0 87 -35q42 -42 42 -112q0 -107 -89 -205t-238 -156z" />
    <glyph glyph-name="Lcaron" unicode="&#x13d;" horiz-adv-x="1366" 
d="M1206 518l84 -16l-161 -502h-1205l11 96h9q140 0 170 28q13 12 20 30.5t27 96.5l262 976q19 72 19 100q0 34 -31 45t-130 11h-53l11 96h688l-11 -96h-46q-140 0 -171 -28q-12 -12 -18.5 -29.5t-28.5 -98.5l-255 -952q-4 -16 -11 -41q-12 -42 -12 -72q0 -37 31.5 -51.5
t112.5 -14.5h87q240 0 382 120q99 83 219 302zM1120 1002l-24 57q203 97 233 240q-19 -1 -31 -1q-47 0 -75 26.5t-28 71.5q0 48 35.5 81t88.5 33q51 0 86 -35q43 -42 43 -112q0 -107 -89.5 -205.5t-238.5 -155.5z" />
    <glyph glyph-name="lcaron" unicode="&#x13e;" horiz-adv-x="889" 
d="M606 1510l-378 -1280q-27 -90 -27 -115q0 -42 36 -42q91 0 253 249l62 -36q-187 -317 -381 -317q-62 0 -98 38.5t-36 105.5q0 48 9.5 91.5t46.5 169.5l260 878q17 59 17 89q0 35 -26.5 49.5t-88.5 14.5h-64l7 74zM641 944l-25 57q204 98 234 241q-18 -1 -31 -1
q-48 0 -76 26.5t-28 70.5q0 49 35.5 82t88.5 33q51 0 86 -35q43 -42 43 -112q0 -107 -89.5 -205.5t-237.5 -156.5z" />
    <glyph glyph-name="Ldot" unicode="&#x13f;" horiz-adv-x="1366" 
d="M1206 518l84 -16l-161 -502h-1205l11 96h9q140 0 170 28q13 12 20 30.5t27 96.5l262 976q19 72 19 100q0 34 -31 45t-130 11h-53l11 96h688l-11 -96h-46q-140 0 -171 -28q-12 -12 -18.5 -29.5t-28.5 -98.5l-255 -952q-4 -16 -11 -41q-12 -42 -12 -72q0 -37 31.5 -51.5
t112.5 -14.5h87q240 0 382 120q99 83 219 302zM1031 782q53 0 90 -37t37 -90t-37 -90t-91 -37q-52 0 -89 37.5t-37 89.5q0 53 37.5 90t89.5 37z" />
    <glyph glyph-name="ldot" unicode="&#x140;" horiz-adv-x="682" 
d="M603 1510l-378 -1280q-27 -90 -27 -115q0 -42 36 -42q91 0 253 249l62 -36q-187 -317 -381 -317q-62 0 -98 38.5t-36 105.5q0 48 9.5 91.5t46.5 169.5l260 878q17 59 17 89q0 35 -26.5 49.5t-88.5 14.5h-64l7 74zM617 782q53 0 90 -37t37 -90t-37 -90t-91 -37
q-52 0 -89 37.5t-37 89.5q0 53 37.5 90t89.5 37z" />
    <glyph glyph-name="Lslash" unicode="&#x141;" horiz-adv-x="1366" 
d="M236 528l-245 -140l37 131l244 141l151 567q19 72 19 100q0 34 -31 45t-130 11h-53l11 96h688l-11 -96h-46q-140 0 -171 -28q-12 -12 -18.5 -29.5t-28.5 -98.5l-117 -438l405 234l-39 -133l-402 -232l-102 -383q-5 -17 -11 -41q-12 -42 -12 -72q0 -37 31.5 -51.5
t112.5 -14.5h87q158 0 264 46q169 74 292 295q36 67 45 81l84 -16l-161 -502h-1205l11 96h9q140 0 170 28q13 12 20 30.5t27 96.5z" />
    <glyph glyph-name="lslash" unicode="&#x142;" horiz-adv-x="682" 
d="M470 875l231 98l-34 -112l-230 -98l-155 -522q-27 -90 -27 -116q0 -42 36 -42q91 0 253 250l63 -36q-188 -318 -383 -318q-62 0 -97.5 38.5t-35.5 104.5q0 49 9 92t47 170l97 327l-211 -92l34 112l210 92l130 439q23 82 23 97q0 56 -121 56h-64l7 74l409 31z" />
    <glyph glyph-name="Nacute" unicode="&#x143;" horiz-adv-x="1669" 
d="M646 1479l518 -1129l183 685q49 189 49 235q0 113 -185 113l11 96h537l-10 -96q-111 -3 -161 -48q-40 -34 -65 -92.5t-65 -207.5l-285 -1064h-79l-570 1233l-203 -758q-49 -188 -49 -235q0 -113 185 -113h22l-11 -96h-566l11 96q69 2 104 12t63 36q40 35 65 93.5
t65 206.5l233 872q-12 42 -36 53.5t-98 11.5h-106l11 96h432zM961 1585l283 293q60 61 102 61q30 0 51 -20.5t21 -49.5q0 -47 -52 -80l-326 -204h-79z" />
    <glyph glyph-name="nacute" unicode="&#x144;" horiz-adv-x="1251" 
d="M469 963l-59 -276q200 276 380 276q99 0 159 -82q37 -51 37 -118q0 -87 -49 -231l-98 -281q-38 -112 -38 -139q0 -39 36 -39q98 0 254 247l60 -43q-49 -87 -124 -173q-117 -135 -252 -135q-63 0 -102 45q-40 44 -40 108q0 60 37 171l108 320q32 94 32 143
q0 36 -23.5 60.5t-58.5 24.5q-66 0 -142 -56.5t-143 -154.5q-55 -82 -84 -146.5t-68 -197.5l-85 -286h-177l209 705q18 62 18 89q0 35 -26.5 49.5t-89.5 14.5h-49l7 74zM555 1063l284 286q61 62 102 62q30 0 50.5 -20.5t20.5 -50.5q0 -48 -52 -79l-326 -198h-79z" />
    <glyph glyph-name="Ncommaaccent" unicode="&#x145;" horiz-adv-x="1669" 
d="M646 1479l518 -1129l183 685q49 189 49 235q0 113 -185 113l11 96h537l-10 -96q-111 -3 -161 -48q-40 -34 -65 -92.5t-65 -207.5l-285 -1064h-79l-570 1233l-203 -758q-49 -188 -49 -235q0 -113 185 -113h22l-11 -96h-566l11 96q69 2 104 12t63 36q40 35 65 93.5
t65 206.5l233 872q-12 42 -36 53.5t-98 11.5h-106l11 96h432zM390 -590l-24 57q203 97 233 241q-19 -2 -31 -2q-47 0 -75 26.5t-28 71.5q0 48 35.5 81t87.5 33t87 -35q43 -42 43 -112q0 -107 -89 -205t-239 -156z" />
    <glyph glyph-name="ncommaaccent" unicode="&#x146;" horiz-adv-x="1251" 
d="M469 963l-59 -276q200 276 380 276q99 0 159 -82q37 -51 37 -118q0 -87 -49 -231l-98 -281q-38 -112 -38 -139q0 -39 36 -39q98 0 254 247l60 -43q-49 -87 -124 -173q-117 -135 -252 -135q-63 0 -102 45q-40 44 -40 108q0 60 37 171l108 320q32 94 32 143
q0 36 -23.5 60.5t-58.5 24.5q-66 0 -142 -56.5t-143 -154.5q-55 -82 -84 -146.5t-68 -197.5l-85 -286h-177l209 705q18 62 18 89q0 35 -26.5 49.5t-89.5 14.5h-49l7 74zM240 -590l-25 57q204 97 234 241q-20 -2 -31 -2q-47 0 -75 26.5t-28 71.5q0 48 35.5 81t87.5 33
q51 0 87 -35q42 -42 42 -112q0 -107 -89 -205.5t-238 -155.5z" />
    <glyph glyph-name="Ncaron" unicode="&#x147;" horiz-adv-x="1669" 
d="M646 1479l518 -1129l183 685q49 189 49 235q0 113 -185 113l11 96h537l-10 -96q-111 -3 -161 -48q-40 -34 -65 -92.5t-65 -207.5l-285 -1064h-79l-570 1233l-203 -758q-49 -188 -49 -235q0 -113 185 -113h22l-11 -96h-566l11 96q69 2 104 12t63 36q40 35 65 93.5
t65 206.5l233 872q-12 42 -36 53.5t-98 11.5h-106l11 96h432zM953 1585l-186 340h73l176 -207l279 207h74l-315 -340h-101z" />
    <glyph glyph-name="ncaron" unicode="&#x148;" horiz-adv-x="1251" 
d="M469 963l-59 -276q200 276 380 276q99 0 159 -82q37 -51 37 -118q0 -87 -49 -231l-98 -281q-38 -112 -38 -139q0 -39 36 -39q98 0 254 247l60 -43q-49 -87 -124 -173q-117 -135 -252 -135q-63 0 -102 45q-40 44 -40 108q0 60 37 171l108 320q32 94 32 143
q0 36 -23.5 60.5t-58.5 24.5q-66 0 -142 -56.5t-143 -154.5q-55 -82 -84 -146.5t-68 -197.5l-85 -286h-177l209 705q18 62 18 89q0 35 -26.5 49.5t-89.5 14.5h-49l7 74zM628 1065l-193 334h75l183 -201l290 201h76l-326 -334h-105z" />
    <glyph glyph-name="napostrophe" unicode="&#x149;" horiz-adv-x="1460" 
d="M199 888l-27 64q227 108 260 267q-22 -2 -34 -2q-53 0 -84 29.5t-31 79.5q0 53 39.5 90t97.5 37q57 0 96 -39q47 -47 47 -125q0 -151 -152 -278q-94 -78 -212 -123zM777 963l-60 -276q200 276 380 276q99 0 158 -82q38 -51 38 -117q0 -89 -49 -232l-97 -281
q-39 -112 -39 -140q0 -38 36 -38q98 0 254 247l60 -43q-51 -90 -124 -173q-117 -135 -252 -135q-63 0 -102 45q-40 45 -40 108q0 59 38 171l108 320q31 93 31 142q0 37 -24 61.5t-59 24.5q-65 0 -141 -56.5t-143 -154.5q-56 -82 -84 -145.5t-68 -198.5l-84 -286h-178
l209 705q18 61 18 89q0 35 -27 49.5t-89 14.5h-49l7 74z" />
    <glyph glyph-name="Eng" unicode="&#x14a;" horiz-adv-x="1669" 
d="M1031 107l-507 1097l-203 -758q-49 -188 -49 -235q0 -113 185 -113h22l-11 -96h-566l11 96q69 2 104 12t63 36q40 35 65 93.5t65 206.5l233 872q-12 42 -36 53.5t-98 11.5h-106l11 96h432l518 -1129l183 685q49 189 49 235q0 113 -185 113l11 96h537l-10 -96
q-110 -3 -161 -48q-39 -34 -64.5 -93t-65.5 -207l-265 -996l-45 -121q-29 -77 -52 -112t-73 -78q-111 -94 -244 -94q-95 0 -151.5 44.5t-56.5 119.5q0 55 31.5 89t82.5 34q44 0 71.5 -26.5t27.5 -68.5q0 -25 -18 -56q-9 -17 -9 -29q0 -15 13 -26t31 -11q53 0 110 68
q86 104 113 291q6 38 7 44z" />
    <glyph glyph-name="eng" unicode="&#x14b;" horiz-adv-x="1069" 
d="M196 0h-177l209 705q18 62 18 90q0 35 -26.5 49t-89.5 14h-49l7 74l371 31l-59 -276q200 276 380 276q82 0 139 -59t57 -144q0 -84 -49 -228l-127 -369q-65 -193 -90 -248q-131 -290 -381 -290q-97 0 -155.5 45t-58.5 119q0 56 31.5 90.5t82.5 34.5q44 0 71.5 -26.5
t27.5 -67.5q0 -27 -19 -58q-10 -18 -10 -29q0 -16 13 -27t31 -11q36 0 77 30.5t66 75.5q49 89 87 218q37 124 58 186l135 402q34 100 34 152q0 35 -24.5 58.5t-62.5 23.5q-62 0 -138.5 -57.5t-141.5 -153.5q-56 -82 -84 -146t-68 -198z" />
    <glyph glyph-name="Omacron" unicode="&#x14c;" horiz-adv-x="1593" 
d="M936 1510q242 0 406 -162q163 -161 163 -425q0 -294 -162 -544q-145 -222 -358 -330q-159 -80 -346 -80q-251 0 -399 153q-158 165 -158 441q0 265 131 493q128 220 341 348q176 106 382 106zM942 1422q-210 0 -367 -204q-97 -125 -172 -357q-80 -243 -80 -436
q0 -152 73 -254q81 -114 246 -114q159 0 290 109q135 112 235 382q98 264 98 469q0 72 -20 153.5t-49 129.5q-35 58 -108 90q-71 32 -146 32zM757 1797h617l-22 -110h-617z" />
    <glyph glyph-name="omacron" unicode="&#x14d;" horiz-adv-x="1024" 
d="M558 963q152 0 258 -116q105 -114 105 -270q0 -116 -46 -232t-128 -208q-149 -168 -373 -168q-174 0 -273 113q-91 103 -91 271q0 258 171 433q172 177 377 177zM549 885q-115 0 -200 -111q-59 -78 -105 -219q-49 -154 -49 -292q0 -216 182 -216q102 0 175 81
q72 80 122 231q53 157 53 273q0 90 -28 157q-19 43 -60 69.5t-90 26.5zM298 1249h616l-22 -104h-617z" />
    <glyph glyph-name="Obreve" unicode="&#x14e;" horiz-adv-x="1593" 
d="M936 1510q242 0 406 -162q163 -161 163 -425q0 -294 -162 -544q-145 -222 -358 -330q-159 -80 -346 -80q-251 0 -399 153q-158 165 -158 441q0 265 131 493q128 220 341 348q176 106 382 106zM942 1422q-210 0 -367 -204q-97 -125 -172 -357q-80 -243 -80 -436
q0 -152 73 -254q81 -114 246 -114q159 0 290 109q135 112 235 382q98 264 98 469q0 72 -20 153.5t-49 129.5q-35 58 -108 90q-71 32 -146 32zM698 1915h61q3 -63 31 -108q58 -93 188 -93q116 0 198 84q47 47 74 117h63q-17 -91 -55 -156q-104 -174 -288 -174
q-154 0 -227 116q-47 73 -47 170q0 13 2 44z" />
    <glyph glyph-name="obreve" unicode="&#x14f;" horiz-adv-x="1024" 
d="M558 963q152 0 258 -116q105 -114 105 -270q0 -116 -46 -232t-128 -208q-149 -168 -373 -168q-174 0 -273 113q-91 103 -91 271q0 258 171 433q172 177 377 177zM549 885q-115 0 -200 -111q-59 -78 -105 -219q-49 -154 -49 -292q0 -216 182 -216q102 0 175 81
q72 80 122 231q53 157 53 273q0 90 -28 157q-19 43 -60 69.5t-90 26.5zM320 1386h60q4 -62 32 -105q58 -91 188 -91q92 0 162 50.5t109 145.5h63q-17 -90 -55 -153q-105 -172 -288 -172q-153 0 -227 114q-47 73 -47 162q0 16 3 49z" />
    <glyph glyph-name="Ohungarumlaut" unicode="&#x150;" horiz-adv-x="1593" 
d="M936 1510q242 0 406 -162q163 -161 163 -425q0 -294 -162 -544q-145 -222 -358 -330q-159 -80 -346 -80q-251 0 -399 153q-158 165 -158 441q0 265 131 493q128 220 341 348q176 106 382 106zM942 1422q-210 0 -367 -204q-97 -125 -172 -357q-80 -243 -80 -436
q0 -152 73 -254q81 -114 246 -114q159 0 290 109q135 112 235 382q98 264 98 469q0 72 -20 153.5t-49 129.5q-35 58 -108 90q-71 32 -146 32zM762 1585l287 293q61 61 103 61q29 0 50 -20.5t21 -49.5q0 -47 -52 -80l-326 -204h-83zM1092 1585l287 293q60 61 102 61
q30 0 51 -20.5t21 -49.5q0 -47 -52 -80l-326 -204h-83z" />
    <glyph glyph-name="ohungarumlaut" unicode="&#x151;" horiz-adv-x="1024" 
d="M558 963q152 0 258 -116q105 -114 105 -270q0 -116 -46 -232t-128 -208q-149 -168 -373 -168q-174 0 -273 113q-91 103 -91 271q0 258 171 433q172 177 377 177zM549 885q-115 0 -200 -111q-59 -78 -105 -219q-49 -154 -49 -292q0 -216 182 -216q102 0 175 81
q72 80 122 231q53 157 53 273q0 90 -28 157q-19 43 -60 69.5t-90 26.5zM356 1063l288 284q38 38 58 50t44 12q30 0 50.5 -20.5t20.5 -50.5q0 -48 -52 -80l-326 -195h-83zM686 1063l287 284q39 38 58.5 50t44.5 12q29 0 50 -20.5t21 -49.5q0 -49 -52 -81l-326 -195h-83z" />
    <glyph glyph-name="OE" unicode="&#x152;" horiz-adv-x="2009" 
d="M1893 985h-93q1 27 1 41q2 76 2 104q0 253 -243 253h-56q-81 0 -107 -23.5t-52 -118.5l-112 -420h14q126 0 201 60t121 197l93 -14l-183 -682l-92 15q18 84 18 146q0 182 -183 182h-15l-121 -450q-8 -30 -11 -41q-13 -45 -13 -74q0 -64 131 -64h44q178 0 290 77t208 265
q28 53 44 81l84 -16l-161 -503h-1042q-260 0 -399 118q-187 157 -187 463q0 298 173 543q139 196 333 284q158 71 448 71h944zM874 338l208 775q26 98 26 141q0 133 -193 133q-244 0 -417 -294q-72 -122 -121 -296q-51 -183 -51 -341q0 -173 94 -270q89 -92 221 -92
q55 0 101.5 21.5t70.5 57.5q29 44 61 165z" />
    <glyph glyph-name="oe" unicode="&#x153;" horiz-adv-x="1593" 
d="M851 783q176 180 381 180q108 0 175.5 -59t67.5 -152q0 -185 -245 -293q-71 -31 -132.5 -49t-241.5 -62q-3 -42 -3 -69q0 -97 53 -157q50 -57 145 -57q81 0 153 39t164 133l50 -55q-57 -73 -114 -117q-125 -96 -293 -96q-106 0 -173.5 34t-118.5 112q-142 -146 -362 -146
q-176 0 -267 110q-90 108 -90 283q0 245 173 424q170 177 375 177q76 0 146 -31t114 -85q17 -21 43 -64zM541 881q-115 0 -200 -110q-59 -78 -105 -218q-49 -153 -49 -291q0 -219 182 -219q103 0 176 81q75 83 123.5 234t48.5 301q0 76 -26 128q-46 94 -150 94zM869 428
q114 27 158.5 42t99.5 45q176 98 176 249q0 51 -30.5 82t-81.5 31q-150 0 -248 -203q-56 -114 -74 -246z" />
    <glyph glyph-name="Racute" unicode="&#x154;" horiz-adv-x="1517" 
d="M507 717l-124 -465q-21 -77 -21 -101q0 -34 31.5 -44.5t131.5 -10.5h53l-11 -96h-651l11 96h9q140 0 170 28q13 12 20 30.5t27 97.5l262 975q19 72 19 101q0 34 -31 44.5t-130 10.5h-53l11 96h655q242 0 353 -57q176 -91 176 -278q0 -101 -56.5 -188.5t-152.5 -135.5
q-100 -50 -313 -74q82 -31 127 -79q48 -52 65 -107q19 -59 19 -146q0 -36 -2 -74q-3 -88 -3 -106q0 -124 61 -124q43 0 74 40.5t71 151.5l74 -32q-41 -110 -83 -175q-80 -126 -211 -126q-110 0 -174 89q-43 61 -43 158q0 42 13 205q6 71 6 112q0 100 -54 142t-183 42h-143z
M533 813h159q128 0 191 11.5t119 44.5q168 99 168 289q0 105 -68 163q-72 62 -203 62h-100q-72 0 -98.5 -22t-47.5 -100zM721 1585l283 293q60 61 102 61q30 0 51 -20.5t21 -49.5q0 -47 -52 -80l-326 -204h-79z" />
    <glyph glyph-name="racute" unicode="&#x155;" horiz-adv-x="909" 
d="M458 963l-46 -237q81 127 153.5 182t158.5 55q71 0 116.5 -42.5t45.5 -108.5q0 -58 -34 -95t-86 -37q-60 0 -88 44q-6 12 -9 65q-2 49 -37 49q-40 0 -102 -62q-61 -62 -131.5 -196t-106.5 -256l-96 -324h-178l209 705q20 68 20 96q0 57 -118 57h-49l7 74zM464 1063
l284 286q61 62 102 62q30 0 50.5 -20.5t20.5 -50.5q0 -48 -52 -79l-325 -198h-80z" />
    <glyph glyph-name="Rcommaaccent" unicode="&#x156;" horiz-adv-x="1517" 
d="M507 717l-124 -465q-21 -77 -21 -101q0 -34 31.5 -44.5t131.5 -10.5h53l-11 -96h-651l11 96h9q140 0 170 28q13 12 20 30.5t27 97.5l262 975q19 72 19 101q0 34 -31 44.5t-130 10.5h-53l11 96h655q242 0 353 -57q176 -91 176 -278q0 -101 -56.5 -188.5t-152.5 -135.5
q-100 -50 -313 -74q82 -31 127 -79q48 -52 65 -107q19 -59 19 -146q0 -36 -2 -74q-3 -88 -3 -106q0 -124 61 -124q43 0 74 40.5t71 151.5l74 -32q-41 -110 -83 -175q-80 -126 -211 -126q-110 0 -174 89q-43 61 -43 158q0 42 13 205q6 71 6 112q0 100 -54 142t-183 42h-143z
M533 813h159q128 0 191 11.5t119 44.5q168 99 168 289q0 105 -68 163q-72 62 -203 62h-100q-72 0 -98.5 -22t-47.5 -100zM314 -590l-25 57q204 97 234 241q-20 -2 -31 -2q-47 0 -75 26.5t-28 71.5q0 48 35.5 81t88.5 33q51 0 86 -35q43 -42 43 -112q0 -107 -89 -205
t-239 -156z" />
    <glyph glyph-name="rcommaaccent" unicode="&#x157;" horiz-adv-x="909" 
d="M458 963l-46 -237q81 127 153.5 182t158.5 55q71 0 116.5 -42.5t45.5 -108.5q0 -58 -34 -95t-86 -37q-60 0 -88 44q-6 12 -9 65q-2 49 -37 49q-40 0 -102 -62q-61 -62 -131.5 -196t-106.5 -256l-96 -324h-178l209 705q20 68 20 96q0 57 -118 57h-49l7 74zM68 -590l-24 57
q203 97 233 241q-19 -2 -31 -2q-47 0 -75 26.5t-28 71.5q0 48 35.5 81t87.5 33t87 -35q43 -42 43 -112q0 -107 -89 -205t-239 -156z" />
    <glyph glyph-name="Rcaron" unicode="&#x158;" horiz-adv-x="1517" 
d="M507 717l-124 -465q-21 -77 -21 -101q0 -34 31.5 -44.5t131.5 -10.5h53l-11 -96h-651l11 96h9q140 0 170 28q13 12 20 30.5t27 97.5l262 975q19 72 19 101q0 34 -31 44.5t-130 10.5h-53l11 96h655q242 0 353 -57q176 -91 176 -278q0 -101 -56.5 -188.5t-152.5 -135.5
q-100 -50 -313 -74q82 -31 127 -79q48 -52 65 -107q19 -59 19 -146q0 -36 -2 -74q-3 -88 -3 -106q0 -124 61 -124q43 0 74 40.5t71 151.5l74 -32q-41 -110 -83 -175q-80 -126 -211 -126q-110 0 -174 89q-43 61 -43 158q0 42 13 205q6 71 6 112q0 100 -54 142t-183 42h-143z
M533 813h159q128 0 191 11.5t119 44.5q168 99 168 289q0 105 -68 163q-72 62 -203 62h-100q-72 0 -98.5 -22t-47.5 -100zM877 1585l-187 340h73l177 -207l279 207h73l-314 -340h-101z" />
    <glyph glyph-name="rcaron" unicode="&#x159;" horiz-adv-x="909" 
d="M458 963l-46 -237q81 127 153.5 182t158.5 55q71 0 116.5 -42.5t45.5 -108.5q0 -58 -34 -95t-86 -37q-60 0 -88 44q-6 12 -9 65q-2 49 -37 49q-40 0 -102 -62q-61 -62 -131.5 -196t-106.5 -256l-96 -324h-178l209 705q20 68 20 96q0 57 -118 57h-49l7 74zM456 1065
l-193 334h76l183 -201l290 201h75l-325 -334h-106z" />
    <glyph glyph-name="Sacute" unicode="&#x15a;" horiz-adv-x="1366" 
d="M1294 1464l-111 -535l-85 16q1 24 1 40q0 186 -82 304q-43 62 -114 97t-156 35q-122 0 -208 -61q-52 -36 -81.5 -91.5t-29.5 -115.5q0 -66 39 -119q49 -67 195 -125l174 -70q151 -59 226 -128q104 -95 104 -272q0 -206 -163 -342q-153 -128 -388 -128q-252 0 -422 160
l-121 -129h-72l112 584l82 -15q-1 -36 -1 -58q0 -198 109 -322q116 -132 310 -132q152 0 245 70q52 40 82 99.5t30 124.5q0 113 -90 177q-28 20 -160 75l-176 73q-148 61 -205 125q-96 105 -96 250q0 94 41.5 184.5t113.5 154.5q136 120 336 120q218 0 374 -153l109 107h78z
M645 1585l284 293q59 61 102 61q29 0 50 -20.5t21 -49.5q0 -47 -52 -80l-326 -204h-79z" />
    <glyph glyph-name="sacute" unicode="&#x15b;" horiz-adv-x="909" 
d="M499 963q131 0 221 -60q83 -56 83 -153q0 -56 -32.5 -90.5t-85.5 -34.5q-46 0 -76 26.5t-30 67.5q0 35 33 82q11 16 11 28q0 25 -37 40.5t-96 15.5q-90 0 -149.5 -46.5t-59.5 -116.5q0 -60 33.5 -92.5t133.5 -68.5q129 -46 180 -81q101 -68 101 -195q0 -140 -110.5 -228
t-286.5 -88q-146 0 -236 56q-45 28 -71.5 75.5t-26.5 100.5q0 59 34 98t85 39q45 0 74.5 -29.5t29.5 -73.5q0 -27 -7.5 -41.5t-36.5 -45.5q-13 -14 -13 -32q0 -20 15 -31q49 -38 163 -38q113 0 176 54q57 49 57 126q0 54 -29 83t-116 65q-114 46 -160 69q-141 73 -141 209
q0 135 104.5 222.5t265.5 87.5zM412 1063l283 286q62 62 103 62q30 0 50.5 -20.5t20.5 -50.5q0 -48 -52 -79l-326 -198h-79z" />
    <glyph glyph-name="Scircumflex" unicode="&#x15c;" horiz-adv-x="1366" 
d="M1294 1464l-111 -535l-85 16q1 24 1 40q0 186 -82 304q-43 62 -114 97t-156 35q-122 0 -208 -61q-52 -36 -81.5 -91.5t-29.5 -115.5q0 -66 39 -119q49 -67 195 -125l174 -70q151 -59 226 -128q104 -95 104 -272q0 -206 -163 -342q-153 -128 -388 -128q-252 0 -422 160
l-121 -129h-72l112 584l82 -15q-1 -36 -1 -58q0 -198 109 -322q116 -132 310 -132q152 0 245 70q52 40 82 99.5t30 124.5q0 113 -90 177q-28 20 -160 75l-176 73q-148 61 -205 125q-96 105 -96 250q0 94 41.5 184.5t113.5 154.5q136 120 336 120q218 0 374 -153l109 107h78z
M853 1925l186 -340h-73l-176 207l-280 -207h-73l314 340h102z" />
    <glyph glyph-name="scircumflex" unicode="&#x15d;" horiz-adv-x="909" 
d="M499 963q131 0 221 -60q83 -56 83 -153q0 -56 -32.5 -90.5t-85.5 -34.5q-46 0 -76 26.5t-30 67.5q0 35 33 82q11 16 11 28q0 25 -37 40.5t-96 15.5q-90 0 -149.5 -46.5t-59.5 -116.5q0 -60 33.5 -92.5t133.5 -68.5q129 -46 180 -81q101 -68 101 -195q0 -140 -110.5 -228
t-286.5 -88q-146 0 -236 56q-45 28 -71.5 75.5t-26.5 100.5q0 59 34 98t85 39q45 0 74.5 -29.5t29.5 -73.5q0 -27 -7.5 -41.5t-36.5 -45.5q-13 -14 -13 -32q0 -20 15 -31q49 -38 163 -38q113 0 176 54q57 49 57 126q0 54 -29 83t-116 65q-114 46 -160 69q-141 73 -141 209
q0 135 104.5 222.5t265.5 87.5zM605 1409l187 -346h-74l-176 213l-279 -213h-73l313 346h102z" />
    <glyph glyph-name="Scedilla" unicode="&#x15e;" horiz-adv-x="1366" 
d="M615 -31l-60 -101q36 7 60 7q75 0 121 -38.5t46 -101.5q0 -79 -69 -130q-65 -48 -185 -48q-95 0 -180 34l37 69q71 -25 127 -25q52 0 83 22.5t31 59.5q0 36 -27 58t-71 22q-28 0 -68 -12l-17 11l102 177q-206 19 -352 156l-121 -129h-72l112 584l82 -15q-1 -36 -1 -58
q0 -198 109 -322q116 -132 310 -132q152 0 245 70q52 40 82 99.5t30 124.5q0 113 -90 177q-28 20 -160 75l-176 73q-148 61 -205 125q-96 105 -96 250q0 94 41.5 184.5t113.5 154.5q136 120 336 120q218 0 374 -153l109 107h78l-111 -535l-85 16q1 24 1 40q0 186 -82 304
q-43 62 -114 97t-156 35q-122 0 -208 -61q-52 -36 -81.5 -91.5t-29.5 -115.5q0 -66 39 -119q49 -67 195 -125l174 -70q151 -59 226 -128q104 -95 104 -272q0 -204 -154.5 -336t-396.5 -134z" />
    <glyph glyph-name="scedilla" unicode="&#x15f;" horiz-adv-x="909" 
d="M346 -31l-60 -101q35 7 60 7q75 0 121 -38.5t46 -101.5q0 -79 -69 -130q-66 -48 -184 -48q-96 0 -181 34l37 69q70 -25 127 -25q52 0 83 22.5t31 59.5t-26.5 58.5t-71.5 21.5q-28 0 -68 -12l-17 11l101 175q-82 9 -136 32q-68 29 -104 81q-37 53 -37 117q0 59 34 98
t85 39q45 0 74.5 -29.5t29.5 -73.5q0 -27 -7.5 -41.5t-36.5 -45.5q-13 -14 -13 -32q0 -20 15 -31q49 -38 163 -38q113 0 176 54q57 49 57 126q0 54 -29 83t-116 65q-114 46 -160 69q-141 73 -141 211q0 132 104.5 220t260.5 88q137 0 226 -60q83 -57 83 -153
q0 -56 -32.5 -90.5t-85.5 -34.5q-46 0 -76 26.5t-30 67.5q0 35 33 82q11 16 11 28q0 25 -37 40.5t-96 15.5q-90 0 -149.5 -46.5t-59.5 -116.5q0 -61 33.5 -93t133.5 -68q128 -46 180 -81q101 -68 101 -195q0 -138 -105 -224.5t-278 -91.5z" />
    <glyph glyph-name="Scaron" unicode="&#x160;" horiz-adv-x="1366" 
d="M1294 1464l-111 -535l-85 16q1 24 1 40q0 186 -82 304q-43 62 -114 97t-156 35q-122 0 -208 -61q-52 -36 -81.5 -91.5t-29.5 -115.5q0 -66 39 -119q49 -67 195 -125l174 -70q151 -59 226 -128q104 -95 104 -272q0 -206 -163 -342q-153 -128 -388 -128q-252 0 -422 160
l-121 -129h-72l112 584l82 -15q-1 -36 -1 -58q0 -198 109 -322q116 -132 310 -132q152 0 245 70q52 40 82 99.5t30 124.5q0 113 -90 177q-28 20 -160 75l-176 73q-148 61 -205 125q-96 105 -96 250q0 94 41.5 184.5t113.5 154.5q136 120 336 120q218 0 374 -153l109 107h78z
M760 1585l-186 340h73l176 -207l280 207h73l-314 -340h-102z" />
    <glyph glyph-name="scaron" unicode="&#x161;" horiz-adv-x="909" 
d="M499 963q131 0 221 -60q83 -56 83 -153q0 -56 -32.5 -90.5t-85.5 -34.5q-46 0 -76 26.5t-30 67.5q0 35 33 82q11 16 11 28q0 25 -37 40.5t-96 15.5q-90 0 -149.5 -46.5t-59.5 -116.5q0 -60 33.5 -92.5t133.5 -68.5q129 -46 180 -81q101 -68 101 -195q0 -140 -110.5 -228
t-286.5 -88q-146 0 -236 56q-45 28 -71.5 75.5t-26.5 100.5q0 59 34 98t85 39q45 0 74.5 -29.5t29.5 -73.5q0 -27 -7.5 -41.5t-36.5 -45.5q-13 -14 -13 -32q0 -20 15 -31q49 -38 163 -38q113 0 176 54q57 49 57 126q0 53 -29 82.5t-116 65.5q-115 46 -160 69
q-141 73 -141 209q0 135 104.5 222.5t265.5 87.5zM458 1065l-194 334h76l183 -201l290 201h76l-326 -334h-105z" />
    <glyph glyph-name="Tcommaaccent" unicode="&#x162;" horiz-adv-x="1403" 
d="M1487 1479l-85 -564l-87 12q4 92 4 142q0 90 -20 159t-56 103q-55 52 -173 52h-30q-49 0 -64.5 -17.5t-36.5 -97.5l-272 -1017q-20 -73 -20 -100q0 -34 31 -44.5t131 -10.5h75l-11 -96h-710l11 96h45q141 0 171 28q13 12 20 30.5t27 96.5l281 1046q9 35 9 50q0 36 -67 36
h-30q-165 0 -289 -158q-62 -79 -174 -287l-85 12l180 529h1225zM257 -590l-25 57q204 97 234 241q-20 -2 -31 -2q-47 0 -75 26.5t-28 71.5q0 48 35.5 81t87.5 33q51 0 86 -35q43 -42 43 -112q0 -107 -89 -205t-238 -156z" />
    <glyph glyph-name="tcommaaccent" unicode="&#x163;" horiz-adv-x="721" 
d="M551 1272l-101 -340h224l-28 -96h-224l-194 -653q-8 -28 -8 -48q0 -57 47 -57q52 0 105 52t151 198l61 -41q-66 -110 -103 -158q-51 -68 -130 -115q-76 -45 -153 -45q-62 0 -104.5 45.5t-42.5 111.5q0 57 40 193l153 517h-193l29 96h193l101 340h177zM16 -590l-25 57
q204 97 234 241q-20 -2 -31 -2q-47 0 -75 26.5t-28 71.5q0 48 35.5 81t87.5 33q51 0 87 -35q42 -42 42 -112q0 -107 -89 -205t-238 -156z" />
    <glyph glyph-name="Tcaron" unicode="&#x164;" horiz-adv-x="1403" 
d="M1487 1479l-85 -564l-87 12q4 92 4 142q0 90 -20 159t-56 103q-55 52 -173 52h-30q-49 0 -64.5 -17.5t-36.5 -97.5l-272 -1017q-20 -73 -20 -100q0 -34 31 -44.5t131 -10.5h75l-11 -96h-710l11 96h45q141 0 171 28q13 12 20 30.5t27 96.5l281 1046q9 35 9 50q0 36 -67 36
h-30q-165 0 -289 -158q-62 -79 -174 -287l-85 12l180 529h1225zM820 1585l-187 340h73l176 -207l280 207h73l-314 -340h-101z" />
    <glyph glyph-name="tcaron" unicode="&#x165;" horiz-adv-x="721" 
d="M549 1272l-100 -340h224l-29 -96h-224l-193 -653q-8 -27 -8 -48q0 -57 47 -57q51 0 105 53t150 197l61 -41q-66 -110 -102 -158q-51 -68 -130 -115q-76 -45 -153 -45q-62 0 -104.5 45.5t-42.5 111.5q0 58 40 193l153 517h-193l29 96h192l101 340h177zM548 944l-25 57
q205 98 233 241q-17 -1 -30 -1q-48 0 -76 26.5t-28 71.5q0 48 35.5 81t88.5 33q51 0 86 -35q43 -42 43 -112q0 -107 -89 -205.5t-238 -156.5z" />
    <glyph glyph-name="Tbar" unicode="&#x166;" horiz-adv-x="1403" 
d="M819 821h299l-25 -96h-300l-126 -474q-20 -73 -20 -100q0 -34 31 -44.5t131 -10.5h75l-11 -96h-710l11 96h45q141 0 171 28q13 12 20 30.5t27 96.5l127 474h-294l26 96h294l128 476q9 35 9 52q0 34 -67 34h-30q-165 0 -289 -158q-61 -79 -174 -287l-85 12l180 529h1225
l-85 -564l-87 12q4 88 4 145q0 167 -58 239t-191 72h-30q-49 0 -64.5 -17.5t-36.5 -97.5z" />
    <glyph glyph-name="tbar" unicode="&#x167;" horiz-adv-x="721" 
d="M383 707h233l-27 -91h-233l-128 -433q-8 -26 -8 -48q0 -57 49 -57q50 0 103 52.5t150 197.5l61 -41q-66 -110 -102 -158q-51 -68 -130 -115q-75 -45 -150 -45q-64 0 -106.5 45t-42.5 114q0 60 39 191l88 297h-184l27 91h184l38 129h-193l28 96h193l101 340h177l-100 -340
h223l-28 -96h-224z" />
    <glyph glyph-name="Utilde" unicode="&#x168;" horiz-adv-x="1669" 
d="M203 1383l11 96h651l-11 -96h-9q-140 0 -170 -28q-13 -12 -19.5 -30t-28.5 -98l-182 -681q-30 -111 -30 -212q0 -66 27 -124t73 -93q81 -60 229 -60q238 0 357 172q37 52 63 123t71 241l119 442q47 190 47 235q0 114 -191 113l11 96h540l-11 -96q-132 -4 -177 -59
t-108 -289l-117 -434q-54 -208 -82 -279q-65 -166 -166 -244q-143 -109 -399 -109q-210 0 -346 76q-79 44 -120 122q-45 86 -45 193q0 90 41 241l167 626q19 71 19 100q0 34 -31 45t-130 11h-53zM1383 1879h63q-10 -87 -66.5 -150t-124.5 -63q-52 0 -177 46q-114 42 -152 42
q-64 0 -91 -90h-61q13 74 43 124q54 89 140 89q49 0 206 -54q86 -30 120 -30q66 0 100 86z" />
    <glyph glyph-name="utilde" unicode="&#x169;" horiz-adv-x="1251" 
d="M1042 932l-201 -680q-27 -90 -27 -122q0 -19 11.5 -33.5t25.5 -14.5q68 0 227 231l61 -37q-70 -107 -130 -176q-114 -131 -242 -131q-55 0 -91 34q-40 39 -40 100q0 51 25 142q-173 -274 -380 -274q-81 0 -130 42q-65 54 -65 146q0 49 8 82.5t55 185.5l82 278
q17 58 17 87q0 36 -26 51t-89 15h-49l7 74l394 31l-199 -673q-24 -79 -24 -117q0 -37 25.5 -62.5t62.5 -25.5q94 0 201 118q145 158 217 401l97 328h177zM986 1331h63q-11 -88 -67 -151.5t-124 -63.5q-52 0 -177 47q-113 43 -151 43q-66 0 -92 -92h-61q13 75 43 125
q54 90 141 90q47 0 205 -54q86 -30 120 -30q65 0 100 86z" />
    <glyph glyph-name="Umacron" unicode="&#x16a;" horiz-adv-x="1669" 
d="M203 1383l11 96h651l-11 -96h-9q-140 0 -170 -28q-13 -12 -19.5 -30t-28.5 -98l-182 -681q-30 -111 -30 -212q0 -66 27 -124t73 -93q81 -60 229 -60q238 0 357 172q37 52 63 123t71 241l119 442q47 190 47 235q0 114 -191 113l11 96h540l-11 -96q-132 -4 -177 -59
t-108 -289l-117 -434q-54 -208 -82 -279q-65 -166 -166 -244q-143 -109 -399 -109q-210 0 -346 76q-79 44 -120 122q-45 86 -45 193q0 90 41 241l167 626q19 71 19 100q0 34 -31 45t-130 11h-53zM836 1797h616l-22 -110h-617z" />
    <glyph glyph-name="umacron" unicode="&#x16b;" horiz-adv-x="1251" 
d="M1042 932l-201 -680q-27 -90 -27 -122q0 -19 11.5 -33.5t25.5 -14.5q68 0 227 231l61 -37q-70 -107 -130 -176q-114 -131 -242 -131q-55 0 -91 34q-40 39 -40 100q0 51 25 142q-173 -274 -380 -274q-81 0 -130 42q-65 54 -65 146q0 49 8 82.5t55 185.5l82 278
q17 58 17 87q0 36 -26 51t-89 15h-49l7 74l394 31l-199 -673q-24 -79 -24 -117q0 -37 25.5 -62.5t62.5 -25.5q94 0 201 118q145 158 217 401l97 328h177zM411 1249h617l-22 -104h-617z" />
    <glyph glyph-name="Ubreve" unicode="&#x16c;" horiz-adv-x="1669" 
d="M203 1383l11 96h651l-11 -96h-9q-140 0 -170 -28q-13 -12 -19.5 -30t-28.5 -98l-182 -681q-30 -111 -30 -212q0 -66 27 -124t73 -93q81 -60 229 -60q238 0 357 172q37 52 63 123t71 241l119 442q47 190 47 235q0 114 -191 113l11 96h540l-11 -96q-132 -4 -177 -59
t-108 -289l-117 -434q-54 -208 -82 -279q-65 -166 -166 -244q-143 -109 -399 -109q-210 0 -346 76q-79 44 -120 122q-45 86 -45 193q0 90 41 241l167 626q19 71 19 100q0 34 -31 45t-130 11h-53zM810 1915h61q3 -63 31 -108q58 -93 188 -93q116 0 198 84q46 47 74 117h63
q-17 -92 -55 -156q-104 -174 -288 -174q-154 0 -227 116q-47 73 -47 170q0 13 2 44z" />
    <glyph glyph-name="ubreve" unicode="&#x16d;" horiz-adv-x="1251" 
d="M1042 932l-201 -680q-27 -90 -27 -122q0 -19 11.5 -33.5t25.5 -14.5q68 0 227 231l61 -37q-70 -107 -130 -176q-114 -131 -242 -131q-55 0 -91 34q-40 39 -40 100q0 51 25 142q-173 -274 -380 -274q-81 0 -130 42q-65 54 -65 146q0 49 8 82.5t55 185.5l82 278
q17 58 17 87q0 36 -26 51t-89 15h-49l7 74l394 31l-199 -673q-24 -79 -24 -117q0 -37 25.5 -62.5t62.5 -25.5q94 0 201 118q145 158 217 401l97 328h177zM459 1386h61q3 -62 31 -105q58 -91 188 -91q92 0 162 50.5t109 145.5h63q-16 -88 -55 -153q-104 -172 -287 -172
q-153 0 -227 114q-47 73 -47 162q0 18 2 49z" />
    <glyph glyph-name="Uring" unicode="&#x16e;" horiz-adv-x="1669" 
d="M203 1383l11 96h651l-11 -96h-9q-140 0 -170 -28q-13 -12 -19.5 -30t-28.5 -98l-182 -681q-30 -111 -30 -212q0 -66 27 -124t73 -93q81 -60 229 -60q238 0 357 172q37 52 63 123t71 241l119 442q47 190 47 235q0 114 -191 113l11 96h540l-11 -96q-132 -4 -177 -59
t-108 -289l-117 -434q-54 -208 -82 -279q-65 -166 -166 -244q-143 -109 -399 -109q-210 0 -346 76q-79 44 -120 122q-45 86 -45 193q0 90 41 241l167 626q19 71 19 100q0 34 -31 45t-130 11h-53zM1119 1978q84 0 144 -60q60 -59 60 -143q0 -85 -60 -144q-60 -60 -147 -60
q-81 0 -141 60t-60 144q0 85 60 143q62 60 144 60zM1119 1904q-54 0 -92 -38t-38 -91t38 -91.5t91 -38.5q54 0 92.5 38t38.5 92q0 53 -38 91t-92 38z" />
    <glyph glyph-name="uring" unicode="&#x16f;" horiz-adv-x="1251" 
d="M1042 932l-201 -680q-27 -90 -27 -122q0 -19 11.5 -33.5t25.5 -14.5q68 0 227 231l61 -37q-70 -107 -130 -176q-114 -131 -242 -131q-55 0 -91 34q-40 39 -40 100q0 51 25 142q-173 -274 -380 -274q-81 0 -130 42q-65 54 -65 146q0 49 8 82.5t55 185.5l82 278
q17 58 17 87q0 36 -26 51t-89 15h-49l7 74l394 31l-199 -673q-24 -79 -24 -117q0 -37 25.5 -62.5t62.5 -25.5q94 0 201 118q145 158 217 401l97 328h177zM754 1459q85 0 144 -60q60 -59 60 -144t-60 -144q-59 -60 -146 -60q-81 0 -141 60t-60 144q0 86 60 144q61 60 143 60z
M755 1385q-54 0 -92 -38t-38 -92q0 -53 38 -91.5t90 -38.5q55 0 93 38t38 92t-38 92t-91 38z" />
    <glyph glyph-name="Uhungarumlaut" unicode="&#x170;" horiz-adv-x="1669" 
d="M203 1383l11 96h651l-11 -96h-9q-140 0 -170 -28q-13 -12 -19.5 -30t-28.5 -98l-182 -681q-30 -111 -30 -212q0 -66 27 -124t73 -93q81 -60 229 -60q238 0 357 172q37 52 63 123t71 241l119 442q47 190 47 235q0 114 -191 113l11 96h540l-11 -96q-132 -4 -177 -59
t-108 -289l-117 -434q-54 -208 -82 -279q-65 -166 -166 -244q-143 -109 -399 -109q-210 0 -346 76q-79 44 -120 122q-45 86 -45 193q0 90 41 241l167 626q19 71 19 100q0 34 -31 45t-130 11h-53zM800 1585l288 293q60 61 102 61q29 0 50 -20.5t21 -49.5q0 -47 -51 -80
l-326 -204h-84zM1130 1585l288 293q60 61 102 61q29 0 50 -20.5t21 -49.5q0 -47 -52 -80l-326 -204h-83z" />
    <glyph glyph-name="uhungarumlaut" unicode="&#x171;" horiz-adv-x="1251" 
d="M1042 932l-201 -680q-27 -90 -27 -122q0 -19 11.5 -33.5t25.5 -14.5q68 0 227 231l61 -37q-70 -107 -130 -176q-114 -131 -242 -131q-55 0 -91 34q-40 39 -40 100q0 51 25 142q-173 -274 -380 -274q-81 0 -130 42q-65 54 -65 146q0 49 8 82.5t55 185.5l82 278
q17 58 17 87q0 36 -26 51t-89 15h-49l7 74l394 31l-199 -673q-24 -79 -24 -117q0 -37 25.5 -62.5t62.5 -25.5q94 0 201 118q145 158 217 401l97 328h177zM461 1063l287 284q39 38 58.5 50t43.5 12q30 0 50.5 -20.5t20.5 -50.5q0 -49 -51 -80l-326 -195h-83zM791 1063
l287 284q39 38 58.5 50t43.5 12q30 0 50.5 -20.5t20.5 -49.5q0 -50 -52 -81l-325 -195h-83z" />
    <glyph glyph-name="Uogonek" unicode="&#x172;" horiz-adv-x="1669" 
d="M1221 1479h540l-11 -96q-132 -4 -177 -59t-108 -289l-117 -434q-63 -239 -105 -335q-53 -122 -184 -215q-90 -65 -115 -105q-34 -55 -34 -101q0 -30 25.5 -54t57.5 -24q63 0 146 75l33 -44q-114 -115 -220 -115q-63 0 -102.5 38.5t-39.5 99.5q0 91 93 170
q-101 -22 -201 -22q-211 0 -347 76q-79 44 -120 122q-45 86 -45 193q0 90 41 241l167 626q19 71 19 100q0 34 -31 45t-130 11h-53l11 96h651l-11 -96h-9q-140 0 -170 -28q-13 -12 -19.5 -30t-28.5 -98l-182 -681q-30 -111 -30 -212q0 -66 27 -124t73 -93q81 -60 229 -60
q238 0 357 172q37 52 63 123t71 241l119 442q47 190 47 235q0 114 -191 113z" />
    <glyph glyph-name="uogonek" unicode="&#x173;" horiz-adv-x="1251" 
d="M1078 313l61 -37q-60 -92 -96 -136.5t-96 -98.5q-69 -64 -89 -96q-34 -53 -34 -99q0 -31 25.5 -55t57.5 -24q63 0 147 75l33 -44q-114 -115 -221 -115q-60 0 -98 34q-44 39 -44 103q0 79 71 151q-19 -2 -30 -2q-56 0 -92.5 38t-36.5 96q0 51 25 142q-173 -274 -380 -274
q-81 0 -130 42q-65 54 -65 146q0 49 8 82.5t55 185.5l82 278q17 58 17 87q0 36 -26 51t-89 15h-49l7 74l394 31l-199 -673q-24 -79 -24 -117q0 -37 25.5 -62.5t62.5 -25.5q94 0 201 118q145 158 217 401l97 328h177l-201 -680q-27 -90 -27 -122q0 -19 11.5 -33.5t25.5 -14.5
q68 0 227 231z" />
    <glyph glyph-name="Wcircumflex" unicode="&#x174;" horiz-adv-x="1896" 
d="M1291 401l332 771q48 111 48 147q0 64 -130 64h-37l11 96h477l-11 -96q-103 -24 -154.5 -78.5t-121.5 -215.5l-486 -1120h-79l-143 1035l-464 -1035h-72l-162 1234q-16 123 -39 147q-29 33 -99 33h-53l11 96h546l-11 -96h-37q-67 0 -93 -13.5t-26 -47.5q0 -8 11 -94
l111 -827l343 785l-14 102q-9 66 -32.5 80.5t-120.5 14.5h-27l11 96h569l-11 -96h-38q-75 0 -100.5 -11.5t-25.5 -44.5q0 -18 5 -55zM1198 1925l186 -340h-73l-176 207l-280 -207h-73l314 340h102z" />
    <glyph glyph-name="wcircumflex" unicode="&#x175;" horiz-adv-x="1593" 
d="M460 963l-178 -601q-40 -136 -40 -187q0 -41 30.5 -69t74.5 -28q104 0 215 153q122 171 178 358l101 343h177l-131 -443q-48 -163 -48 -265q0 -86 43 -121q31 -25 69 -25q146 0 284 263q41 78 67 165t26 145q0 32 -10.5 53t-45.5 62q-44 49 -44 94q0 43 27.5 73t65.5 30
q55 0 91.5 -46.5t36.5 -116.5q0 -126 -55.5 -294t-138.5 -297q-75 -114 -150 -171q-92 -69 -206 -69q-110 0 -167 66q-54 62 -54 155q0 37 4 84q-92 -135 -156 -199q-105 -106 -243 -106q-113 0 -171 65q-47 53 -47 133q0 61 34 176l107 362q17 56 17 88q0 35 -26 50t-89 15
h-34l7 74zM1062 1409l187 -346h-74l-176 213l-279 -213h-74l314 346h102z" />
    <glyph glyph-name="Ycircumflex" unicode="&#x176;" horiz-adv-x="1403" 
d="M742 746l349 446q53 67 53 111q0 37 -35.5 58.5t-96.5 21.5h-47l11 96h577l-11 -96q-122 -9 -194 -63q-60 -45 -155 -166l-411 -524l-101 -379q-21 -76 -21 -100q0 -34 31.5 -44.5t131.5 -10.5h75l-11 -96h-710l11 96h45q141 0 171 28q13 12 19.5 30.5t27.5 96.5l102 379
l-246 612q-35 87 -74 114t-132 27h-35l11 96h631l-11 -96h-57q-68 0 -96.5 -11.5t-28.5 -37.5t21 -79zM972 1925l187 -340h-73l-177 207l-279 -207h-73l314 340h101z" />
    <glyph glyph-name="ycircumflex" unicode="&#x177;" horiz-adv-x="1024" 
d="M541 213q99 158 156 293.5t57 213.5q0 33 -14 106q-3 18 -3 34q0 42 29.5 72.5t70.5 30.5q42 0 67.5 -29t25.5 -76q0 -53 -27 -121.5t-113 -236.5q-252 -491 -414 -693q-176 -221 -350 -221q-74 0 -129 40q-59 43 -59 112q0 47 30.5 78.5t75.5 31.5q64 0 89 -64
q6 -16 6 -80q0 -32 38 -32q89 0 217 158q41 50 116 172q-59 351 -144 665q-35 130 -78 130q-26 0 -51 -36.5t-83 -160.5l-63 29q130 334 268 334q58 0 95 -50q57 -79 96 -267zM715 1409l187 -346h-73l-176 213l-280 -213h-73l314 346h101z" />
    <glyph glyph-name="Ydieresis" unicode="&#x178;" horiz-adv-x="1403" 
d="M742 746l349 446q53 67 53 111q0 37 -35.5 58.5t-96.5 21.5h-47l11 96h577l-11 -96q-122 -9 -194 -63q-60 -45 -155 -166l-411 -524l-101 -379q-21 -76 -21 -100q0 -34 31.5 -44.5t131.5 -10.5h75l-11 -96h-710l11 96h45q141 0 171 28q13 12 19.5 30.5t27.5 96.5l102 379
l-246 612q-35 87 -74 114t-132 27h-35l11 96h631l-11 -96h-57q-68 0 -96.5 -11.5t-28.5 -37.5t21 -79zM671 1863q41 0 70.5 -29.5t29.5 -70.5q0 -42 -29.5 -71.5t-72.5 -29.5q-40 0 -69.5 29.5t-29.5 70.5q0 42 29.5 71.5t71.5 29.5zM1085 1863q41 0 70.5 -29.5t29.5 -70.5
q0 -42 -29.5 -71.5t-72.5 -29.5q-40 0 -69.5 29.5t-29.5 70.5q0 42 29.5 71.5t71.5 29.5z" />
    <glyph glyph-name="Zacute" unicode="&#x179;" horiz-adv-x="1366" 
d="M1366 1479l-13 -80l-1093 -1303h276q152 0 252 34.5t180 114.5q53 53 92.5 113t104.5 190l87 -23l-168 -525h-1135l12 78l1092 1305h-198q-150 0 -244 -28.5t-159 -93.5q-49 -49 -60.5 -65.5t-138.5 -228.5l-84 22l168 490h1029zM727 1585l284 293q59 61 102 61
q29 0 50 -20.5t21 -49.5q0 -47 -52 -80l-326 -204h-79z" />
    <glyph glyph-name="zacute" unicode="&#x17a;" horiz-adv-x="948" 
d="M722 310l73 -26q-48 -144 -138 -229.5t-195 -85.5q-104 0 -243 66q-95 45 -117.5 54t-41.5 9t-18 -16l1 -18q2 -42 -15.5 -68.5t-46.5 -26.5q-49 0 -49 49q0 98 148 262q87 96 162.5 153.5t302.5 198.5q87 54 150 122q-64 -17 -103 -17q-47 0 -76 6t-113 34
q-88 30 -122 30q-76 0 -168 -163l-68 34q145 285 337 285q36 0 69.5 -11.5t104.5 -46.5q93 -47 146 -47q22 0 33 11t20 43q15 52 50 52q22 0 35.5 -13.5t13.5 -33.5q0 -41 -45 -117t-117 -159q-75 -85 -148 -143t-194 -128q-121 -69 -165.5 -101.5t-82.5 -79.5q64 18 100 18
q65 0 207 -50q90 -32 138 -32q97 0 175 185zM403 1063l283 286q62 62 103 62q30 0 50.5 -20.5t20.5 -50.5q0 -48 -52 -79l-326 -198h-79z" />
    <glyph glyph-name="Zdotaccent" unicode="&#x17b;" horiz-adv-x="1366" 
d="M1366 1479l-13 -80l-1093 -1303h276q152 0 252 34.5t180 114.5q53 53 92.5 113t104.5 190l87 -23l-168 -525h-1135l12 78l1092 1305h-198q-150 0 -244 -28.5t-159 -93.5q-49 -49 -60.5 -65.5t-138.5 -228.5l-84 22l168 490h1029zM904 1863q41 0 70.5 -29.5t29.5 -70.5
q0 -42 -29.5 -71.5t-72.5 -29.5q-40 0 -69.5 29.5t-29.5 70.5q0 42 29.5 71.5t71.5 29.5z" />
    <glyph glyph-name="zdotaccent" unicode="&#x17c;" horiz-adv-x="948" 
d="M722 310l73 -26q-48 -144 -138 -229.5t-195 -85.5q-104 0 -243 66q-95 45 -117.5 54t-41.5 9t-18 -16l1 -18q2 -42 -15.5 -68.5t-46.5 -26.5q-49 0 -49 49q0 98 148 262q87 96 162.5 153.5t302.5 198.5q87 54 150 122q-64 -17 -103 -17q-47 0 -76 6t-113 34
q-88 30 -122 30q-76 0 -168 -163l-68 34q145 285 337 285q36 0 69.5 -11.5t104.5 -46.5q93 -47 146 -47q22 0 33 11t20 43q15 52 50 52q22 0 35.5 -13.5t13.5 -33.5q0 -41 -45 -117t-117 -159q-75 -85 -148 -143t-194 -128q-121 -69 -165.5 -101.5t-82.5 -79.5q64 18 100 18
q65 0 207 -50q90 -32 138 -32q97 0 175 185zM557 1319q41 0 70.5 -29.5t29.5 -70.5q0 -42 -29.5 -71.5t-71.5 -29.5q-41 0 -70.5 29.5t-29.5 71.5q0 41 29.5 70.5t71.5 29.5z" />
    <glyph glyph-name="Zcaron" unicode="&#x17d;" horiz-adv-x="1366" 
d="M1366 1479l-13 -80l-1093 -1303h276q152 0 252 34.5t180 114.5q53 53 92.5 113t104.5 190l87 -23l-168 -525h-1135l12 78l1092 1305h-198q-150 0 -244 -28.5t-159 -93.5q-49 -49 -60.5 -65.5t-138.5 -228.5l-84 22l168 490h1029zM802 1585l-187 340h73l176 -207l280 207
h73l-314 -340h-101z" />
    <glyph glyph-name="zcaron" unicode="&#x17e;" horiz-adv-x="948" 
d="M722 310l73 -26q-48 -144 -138 -229.5t-195 -85.5q-104 0 -243 66q-95 45 -117.5 54t-41.5 9t-18 -16l1 -18q2 -42 -15.5 -68.5t-46.5 -26.5q-49 0 -49 49q0 98 148 262q87 96 162.5 153.5t302.5 198.5q87 54 150 122q-64 -17 -103 -17q-47 0 -76 6t-113 34
q-88 30 -122 30q-76 0 -168 -163l-68 34q145 285 337 285q36 0 69.5 -11.5t104.5 -46.5q93 -47 146 -47q22 0 33 11t20 43q15 52 50 52q22 0 35.5 -13.5t13.5 -33.5q0 -41 -45 -117t-117 -159q-75 -85 -148 -143t-194 -128q-121 -69 -165.5 -101.5t-82.5 -79.5q64 18 100 18
q65 0 207 -50q90 -32 138 -32q97 0 175 185zM476 1065l-194 334h76l183 -201l290 201h76l-326 -334h-105z" />
    <glyph glyph-name="longs" unicode="&#x17f;" horiz-adv-x="682" 
d="M449 932l-150 -601q-34 -138 -101 -359t-112 -350l-225 -36q195 432 302 893l85 357h-183l27 96h179q66 246 142 372q125 204 322 204q99 0 160 -49q68 -54 68 -135q0 -47 -31.5 -78t-78.5 -31q-45 0 -76 26.5t-31 64.5q0 27 19 59q14 25 14 37q0 15 -14.5 24.5
t-35.5 9.5q-56 0 -99 -42t-81 -134q-46 -110 -100 -328z" />
    <glyph glyph-name="florin" unicode="&#x192;" horiz-adv-x="1139" 
d="M949 887l-10 -88h-284l-97 -518q-40 -213 -76 -313q-71 -200 -183 -294q-104 -88 -229 -88q-91 0 -142 49q-44 43 -44 106q0 57 35.5 93.5t90.5 36.5q44 0 71.5 -26t27.5 -66q0 -33 -35 -72q-8 -9 -8 -19q0 -20 29 -20q56 0 108 52q51 50 80.5 143.5t77.5 351.5l108 584
h-246l10 88h251l20 88q22 105 65.5 209t88.5 164q121 160 308 160q87 0 136 -42q52 -43 52 -114q0 -57 -35 -94t-89 -37q-45 0 -73.5 25t-28.5 63q0 34 31 75q13 16 13 25q1 20 -32 20q-64 0 -120 -68q-39 -47 -67 -131t-64 -256l-18 -87h278z" />
    <glyph glyph-name="Aringacute" unicode="&#x1fa;" horiz-adv-x="1442" 
d="M905 1509l256 -1288q16 -81 43 -103t112 -22h52l-11 -96h-616l11 96h32q88 0 118 15t30 58q0 24 -8 67l-47 252h-522l-113 -197q-37 -64 -37 -113q0 -46 31 -64t110 -18h49l-11 -96h-552l11 96q93 4 163 66t140 183l676 1164h83zM859 584l-115 589l-335 -589h450z
M883 1978q84 0 144 -60q60 -59 60 -143q0 -85 -60 -144q-60 -60 -146 -60q-82 0 -141 60q-60 59 -60 144q0 86 60 143q61 60 143 60zM883 1904q-53 0 -91 -37.5t-38 -91.5q0 -53 38 -91.5t90 -38.5q55 0 93 38t38 92t-38 91.5t-92 37.5zM534 1879l283 293q59 61 102 61
q30 0 50.5 -20.5t20.5 -49.5q0 -47 -51 -80l-326 -204h-79z" />
    <glyph glyph-name="aringacute" unicode="&#x1fb;" horiz-adv-x="1175" 
d="M812 932h177l-204 -687q-23 -79 -23 -112q0 -21 12.5 -36t31.5 -15q81 0 203 241l62 -35q-37 -80 -100 -169q-107 -150 -240 -150q-56 0 -90.5 37t-34.5 96q0 28 10 65q-62 -88 -110 -128q-87 -70 -201 -70q-137 0 -220 91.5t-83 242.5q0 258 166 472q146 188 337 188
q100 0 170 -60t82 -156zM541 850q-94 0 -163 -71q-88 -90 -142 -245q-47 -136 -47 -259q0 -95 44 -148.5t121 -53.5q146 0 238 185q48 97 76.5 208.5t28.5 200.5q0 66 -24 110q-40 73 -132 73zM598 1459q85 0 144 -60q60 -59 60 -144t-60 -144q-59 -60 -146 -60
q-82 0 -142 60t-60 144q0 86 60 144q61 60 144 60zM598 1385q-54 0 -92 -38t-38 -92q0 -53 38 -91.5t90 -38.5q56 0 94 38t38 92t-38 92t-92 38zM349 1463l283 286q61 62 102 62q30 0 50.5 -20.5t20.5 -50.5q0 -48 -52 -79l-325 -198h-79z" />
    <glyph glyph-name="AEacute" unicode="&#x1fc;" horiz-adv-x="1782" 
d="M1703 985h-93q0 27 1 41q1 74 1 104q0 253 -242 253h-54q-81 0 -107.5 -23.5t-51.5 -119.5l-113 -419h15q126 0 201.5 60.5t120.5 196.5l93 -14l-183 -682l-93 16q19 80 19 143q0 184 -184 184h-14l-121 -450q-6 -24 -11 -41q-13 -44 -13 -74q0 -64 131 -64h44
q178 0 290 76.5t208 265.5q27 53 44 81l84 -16l-161 -503h-1089l11 96h8q141 0 171 28q13 12 19.5 29.5t28.5 98.5l85 318h-391l-195 -282q-51 -73 -51 -118q0 -44 54 -63q27 -10 103 -11l-11 -96h-445l11 96q71 1 140 95l655 941q44 62 60.5 98t16.5 66q0 48 -36.5 67.5
t-128.5 19.5h-55l11 96h1296zM773 666l170 634q12 51 12 59q0 22 -19 22q-15 0 -44 -41l-471 -674h352zM1017 1585l284 293q59 61 101 61q30 0 51 -20.5t21 -49.5q0 -47 -52 -80l-326 -204h-79z" />
    <glyph glyph-name="aeacute" unicode="&#x1fd;" horiz-adv-x="1479" 
d="M757 394q-18 -66 -18 -113q0 -101 51 -157.5t143 -56.5q171 0 317 173l56 -54q-182 -217 -426 -217q-249 0 -289 217q-50 -72 -93 -112q-114 -105 -293 -105q-117 0 -182 59q-60 54 -60 145q0 133 117 207q97 61 209 92.5t332 59.5q30 125 30 181q0 89 -71 135
q-56 35 -134 35q-58 0 -101.5 -19t-43.5 -44q0 -8 16 -22q35 -28 35 -82q0 -47 -29.5 -75t-79.5 -28q-51 0 -80.5 31t-29.5 85q0 109 108 174q98 60 222 60q195 0 313 -150q161 150 354 150q105 0 171 -55q65 -54 65 -153q0 -91 -66 -163.5t-192 -118.5q-98 -37 -351 -79z
M774 476q158 23 251 64q82 36 124 101q40 61 40 128q0 49 -28.5 77.5t-76.5 28.5q-120 0 -203 -138q-55 -89 -107 -261zM599 450q-209 -28 -298 -71q-148 -70 -148 -185q0 -55 34.5 -89t89.5 -34q63 0 124.5 34.5t99.5 90.5q32 48 52 99.5t46 154.5zM780 1063l284 286
q61 62 102 62q30 0 50.5 -20.5t20.5 -50.5q0 -48 -52 -79l-326 -198h-79z" />
    <glyph glyph-name="Oslashacute" unicode="&#x1fe;" horiz-adv-x="1593" 
d="M1279 1402l108 134h118l-157 -194q157 -162 157 -418q0 -294 -162 -545q-144 -222 -358 -330q-159 -80 -343 -80q-194 0 -329 91l-193 -238h-118l241 298q-161 159 -161 446q0 380 263 667q253 277 583 277q206 0 351 -108zM1195 1299q-37 57 -105.5 89t-154.5 32
q-203 0 -360 -203q-97 -126 -173 -357q-79 -241 -79 -433q0 -90 29 -172zM1238 1205l-838 -1037q84 -109 244 -109q158 0 288 109q140 118 236 381q91 251 91 493q0 92 -21 163zM759 1585l283 293q59 61 102 61q30 0 51 -20.5t21 -49.5q0 -47 -52 -80l-326 -204h-79z" />
    <glyph glyph-name="oslashacute" unicode="&#x1ff;" horiz-adv-x="1024" 
d="M669 937l104 185h89l-126 -222q34 -24 60 -53q105 -116 105 -270q0 -115 -46 -231t-128 -209q-149 -168 -377 -168q-70 0 -131 17l-131 -232h-89l149 263q-158 101 -158 338q0 253 171 432q168 176 376 176q68 0 132 -26zM623 856q-44 29 -96 29q-113 0 -198 -111
q-57 -75 -104 -219q-51 -158 -51 -290q0 -81 33 -144zM677 795l-412 -728q43 -20 92 -20q102 0 175 81q72 80 122 231q52 155 52 280q0 89 -29 156zM423 1063l284 286q61 62 102 62q30 0 50.5 -20.5t20.5 -50.5q0 -48 -52 -79l-326 -198h-79z" />
    <glyph glyph-name="Scommaaccent" unicode="&#x218;" horiz-adv-x="1366" 
d="M1294 1464l-111 -535l-85 16q1 24 1 40q0 186 -82 304q-43 62 -114 97t-156 35q-122 0 -208 -61q-52 -36 -81.5 -91.5t-29.5 -115.5q0 -66 39 -119q49 -67 195 -125l174 -70q151 -59 226 -128q104 -95 104 -272q0 -206 -163 -342q-153 -128 -388 -128q-252 0 -422 160
l-121 -129h-72l112 584l82 -15q-1 -36 -1 -58q0 -198 109 -322q116 -132 310 -132q152 0 245 70q52 40 82 99.5t30 124.5q0 113 -90 177q-28 20 -160 75l-176 73q-148 61 -205 125q-96 105 -96 250q0 94 41.5 184.5t113.5 154.5q136 120 336 120q218 0 374 -153l109 107h78z
M222 -674l-28 64q232 108 260 267q-22 -2 -31 -2q-55 0 -86.5 29t-31.5 80q0 53 39.5 90t97.5 37q57 0 96 -39q47 -47 47 -125q0 -151 -152 -277q-94 -78 -211 -124z" />
    <glyph glyph-name="scommaaccent" unicode="&#x219;" horiz-adv-x="909" 
d="M499 963q131 0 221 -60q83 -56 83 -153q0 -56 -32.5 -90.5t-85.5 -34.5q-46 0 -76 26.5t-30 67.5q0 35 33 82q11 16 11 28q0 25 -37 40.5t-96 15.5q-90 0 -149.5 -46.5t-59.5 -116.5q0 -60 33.5 -92.5t133.5 -68.5q129 -46 180 -81q101 -68 101 -195q0 -140 -110.5 -228
t-286.5 -88q-146 0 -236 56q-45 28 -71.5 75.5t-26.5 100.5q0 59 34 98t85 39q45 0 74.5 -29.5t29.5 -73.5q0 -27 -7.5 -41.5t-36.5 -45.5q-13 -14 -13 -32q0 -20 15 -31q49 -38 163 -38q113 0 176 54q57 49 57 126q0 54 -29 83t-116 65q-114 46 -160 69q-141 73 -141 209
q0 135 104.5 222.5t265.5 87.5zM69 -590l-25 57q204 97 234 241q-20 -2 -31 -2q-47 0 -75 26.5t-28 71.5q0 48 35.5 81t87.5 33q51 0 86 -35q43 -42 43 -112q0 -107 -89 -205t-238 -156z" />
    <glyph glyph-name="uni021A" unicode="&#x21a;" horiz-adv-x="1403" 
d="M1487 1479l-85 -564l-87 12q4 92 4 142q0 90 -20 159t-56 103q-55 52 -173 52h-30q-49 0 -64.5 -17.5t-36.5 -97.5l-272 -1017q-20 -73 -20 -100q0 -34 31 -44.5t131 -10.5h75l-11 -96h-710l11 96h45q141 0 171 28q13 12 20 30.5t27 96.5l281 1046q9 35 9 50q0 36 -67 36
h-30q-165 0 -289 -158q-62 -79 -174 -287l-85 12l180 529h1225zM257 -590l-25 57q204 97 234 241q-20 -2 -31 -2q-47 0 -75 26.5t-28 71.5q0 48 35.5 81t87.5 33q51 0 86 -35q43 -42 43 -112q0 -107 -89 -205t-238 -156z" />
    <glyph glyph-name="uni021B" unicode="&#x21b;" horiz-adv-x="721" 
d="M551 1272l-101 -340h224l-28 -96h-224l-194 -653q-8 -28 -8 -48q0 -57 47 -57q52 0 105 52t151 198l61 -41q-66 -110 -103 -158q-51 -68 -130 -115q-76 -45 -153 -45q-62 0 -104.5 45.5t-42.5 111.5q0 57 40 193l153 517h-193l29 96h193l101 340h177zM16 -590l-25 57
q204 97 234 241q-20 -2 -31 -2q-47 0 -75 26.5t-28 71.5q0 48 35.5 81t87.5 33q51 0 87 -35q42 -42 42 -112q0 -107 -89 -205t-238 -156z" />
    <glyph glyph-name="circumflex" unicode="&#x2c6;" horiz-adv-x="682" 
d="M726 1409l187 -346h-73l-176 213l-280 -213h-73l314 346h101z" />
    <glyph glyph-name="caron" unicode="&#x2c7;" horiz-adv-x="682" 
d="M567 1065l-194 334h76l183 -201l290 201h76l-326 -334h-105z" />
    <glyph glyph-name="uni02C9" unicode="&#x2c9;" horiz-adv-x="682" 
d="M371 1249h617l-22 -104h-617z" />
    <glyph glyph-name="breve" unicode="&#x2d8;" horiz-adv-x="682" 
d="M391 1386h61q3 -62 31 -105q58 -91 188 -91q93 0 162.5 50.5t109.5 145.5h62q-17 -90 -55 -153q-104 -172 -287 -172q-153 0 -227 114q-47 73 -47 162q0 17 2 49z" />
    <glyph glyph-name="dotaccent" unicode="&#x2d9;" horiz-adv-x="682" 
d="M343 1319q41 0 70.5 -29.5t29.5 -70.5q0 -42 -29.5 -71.5t-71.5 -29.5q-41 0 -70.5 29.5t-29.5 71.5q0 41 29.5 70.5t71.5 29.5z" />
    <glyph glyph-name="ring" unicode="&#x2da;" horiz-adv-x="682" 
d="M675 1459q84 0 144 -60q60 -59 60 -144t-60 -144q-59 -60 -146 -60q-82 0 -142 60t-60 144q0 86 60 144q61 60 144 60zM675 1385q-54 0 -92 -38t-38 -92q0 -53 38 -91.5t90 -38.5q56 0 94 38t38 92t-38 92t-92 38z" />
    <glyph glyph-name="ogonek" unicode="&#x2db;" horiz-adv-x="682" 
d="M244 0h73q-78 -90 -78 -153q0 -31 25 -55.5t58 -24.5q63 0 146 75l33 -44q-114 -115 -220 -115q-60 0 -98 34q-44 39 -44 104q0 94 105 179z" />
    <glyph glyph-name="tilde" unicode="&#x2dc;" horiz-adv-x="682" 
d="M933 1331h63q-11 -89 -67 -152t-124 -63q-52 0 -177 47q-113 43 -151 43q-66 0 -92 -92h-61q13 75 43 125q54 90 141 90q47 0 205 -54q86 -30 120 -30q66 0 100 86z" />
    <glyph glyph-name="hungarumlaut" unicode="&#x2dd;" horiz-adv-x="682" 
d="M274 1063l288 284q38 38 58 50t44 12q30 0 50.5 -20.5t20.5 -50.5q0 -48 -52 -80l-326 -195h-83zM604 1063l287 284q39 38 58.5 50t44.5 12q29 0 50 -20.5t21 -49.5q0 -49 -52 -81l-326 -195h-83z" />
    <glyph glyph-name="tonos" unicode="&#x384;" horiz-adv-x="505" 
d="M273 1098l49 375q12 92 90 92q39 0 66.5 -23.5t27.5 -56.5q0 -26 -16 -59l-172 -340z" />
    <glyph glyph-name="dieresistonos" unicode="&#x385;" horiz-adv-x="569" 
d="M351 1106l118 359q14 41 34 58.5t55 17.5q38 0 67.5 -25.5t29.5 -58.5q0 -31 -29 -69l-233 -302zM212 1319q41 0 70.5 -29.5t29.5 -70.5q0 -42 -29.5 -71.5t-71.5 -29.5q-41 0 -70.5 29.5t-29.5 71.5q0 41 29.5 70.5t71.5 29.5zM690 1319q42 0 71 -29.5t29 -70.5
q0 -43 -29.5 -72t-71.5 -29q-41 0 -70.5 29.5t-29.5 71.5q0 41 29.5 70.5t71.5 29.5z" />
    <glyph glyph-name="Alphatonos" unicode="&#x386;" horiz-adv-x="1501" 
d="M964 1509l256 -1288q16 -81 43 -103t112 -22h52l-11 -96h-616l11 96h32q88 0 118 15t30 58q0 24 -8 67l-47 252h-522l-113 -197q-37 -64 -37 -113q0 -46 31 -64t110 -18h49l-11 -96h-552l11 96q93 4 163 66t140 183l676 1164h83zM918 584l-115 589l-335 -589h450z
M339 1098l49 375q12 92 91 92q39 0 66.5 -23.5t27.5 -56.5q0 -25 -17 -59l-172 -340z" />
    <glyph glyph-name="uni0387" unicode="&#x387;" horiz-adv-x="569" 
d="M284 629q53 0 90 -37t37 -90t-37 -90t-91 -37q-52 0 -89 37.5t-37 89.5q0 53 37 90t90 37z" />
    <glyph glyph-name="Epsilontonos" unicode="&#x388;" horiz-adv-x="1623" 
d="M1579 1479l-79 -494h-93q1 55 1 70q0 109 -16.5 165t-59.5 95q-77 68 -209 68h-120q-115 0 -146 -22t-57 -120l-113 -420h47q165 0 247 69q76 64 117 188l93 -14l-183 -683l-93 16q19 83 19 141q0 185 -226 187h-46l-121 -450q-23 -87 -23 -113q0 -37 32 -51.5t112 -14.5
h111q159 0 265 46q169 73 292 296q36 66 45 80l84 -16l-161 -502h-1230l11 96h9q140 0 170 28q13 12 20 30.5t27 96.5l262 977q19 71 19 100q0 34 -31 44.5t-130 10.5h-53l11 96h1196zM104 1098l48 375q12 92 91 92q39 0 66.5 -23.5t27.5 -56.5q0 -26 -17 -59l-171 -340z
" />
    <glyph glyph-name="Etatonos" unicode="&#x389;" horiz-adv-x="1852" 
d="M1320 725h-659l-126 -473q-21 -77 -21 -101q0 -34 31.5 -44.5t131.5 -10.5h53l-11 -96h-651l11 96h9q140 0 170 28q13 12 19.5 30t27.5 98l262 975q19 72 19 101q0 34 -31 44.5t-130 10.5h-53l11 96h651l-11 -96h-9q-140 0 -171 -28q-12 -12 -18.5 -29t-28.5 -99
l-109 -406h659l109 406q20 75 20 100q0 35 -31 45.5t-131 10.5h-53l11 96h650l-10 -96h-9q-140 0 -171 -28q-12 -12 -18 -28.5t-29 -99.5l-261 -975q-20 -74 -20 -100q0 -34 31 -45t131 -11h53l-11 -96h-651l11 96h9q140 0 170 28q13 12 19.5 30t27.5 98zM109 1098l49 375
q12 92 90 92q39 0 66.5 -23.5t27.5 -56.5q0 -27 -16 -59l-172 -340z" />
    <glyph glyph-name="Iotatonos" unicode="&#x38a;" horiz-adv-x="969" 
d="M714 96l-11 -96h-635l11 96q91 2 122.5 7.5t49.5 20.5q12 12 19 30t28 97l261 976q21 78 21 101q0 34 -31 44.5t-132 10.5h-45l11 96h635l-11 -96q-92 -3 -123 -8t-48 -20q-13 -12 -19 -29t-29 -99l-261 -976q-21 -78 -21 -98q0 -35 31 -46t132 -11h45zM102 1098l49 375
q12 92 91 92q39 0 66.5 -23.5t27.5 -56.5q0 -25 -17 -59l-172 -340z" />
    <glyph glyph-name="Omicrontonos" unicode="&#x38c;" horiz-adv-x="1648" 
d="M991 1510q242 0 406 -162q163 -161 163 -425q0 -294 -162 -544q-145 -222 -358 -330q-159 -80 -346 -80q-251 0 -399 153q-158 165 -158 441q0 265 131 493q128 220 341 348q176 106 382 106zM997 1422q-210 0 -367 -204q-97 -125 -172 -357q-80 -243 -80 -436
q0 -152 73 -254q81 -114 246 -114q159 0 290 109q135 112 235 382q98 264 98 469q0 72 -20 153.5t-49 129.5q-35 58 -108 90q-71 32 -146 32zM160 1098l48 375q12 92 91 92q39 0 66.5 -23.5t27.5 -56.5q0 -25 -17 -59l-172 -340z" />
    <glyph glyph-name="Upsilontonos" unicode="&#x38e;" horiz-adv-x="1671" 
d="M1010 746l349 446q52 66 52 111q0 33 -22 50q-38 30 -110 30h-46l11 96h576l-10 -96q-122 -9 -194 -63q-61 -45 -155 -166l-411 -524l-102 -379q-20 -75 -20 -100q0 -34 31 -44.5t131 -10.5h75l-11 -96h-709l11 96h45q141 0 171 28q12 12 19 30.5t28 96.5l101 379
l-245 612q-35 87 -74 114t-132 27h-35l11 96h630l-11 -96h-56q-68 0 -97 -11.5t-29 -38.5q0 -23 22 -78zM68 1098l49 375q12 92 90 92q39 0 66.5 -23.5t27.5 -56.5q0 -26 -16 -59l-172 -340z" />
    <glyph glyph-name="Omegatonos" unicode="&#x38f;" horiz-adv-x="1725" 
d="M481 212q-68 35 -129 100q-132 141 -132 381q0 215 103 404q121 220 367 332q177 81 377 81q280 0 438 -148q139 -131 139 -337q0 -247 -132 -468q-158 -266 -470 -355l-10 -25h110q196 0 297 111q97 105 148 230l83 -16l-160 -502h-679l57 214q164 55 273 176
q116 128 183 336q61 191 61 343q0 158 -92 261q-84 92 -254 92q-163 0 -294 -93q-156 -110 -233 -327q-71 -201 -71 -396q0 -138 41.5 -231.5t132.5 -160.5l-57 -214h-578l32 502l93 16q-1 -27 -1 -38q0 -156 65 -229.5t202 -73.5h81zM177 1098l49 375q12 92 90 92
q39 0 66.5 -23.5t27.5 -56.5q0 -26 -16 -59l-172 -340z" />
    <glyph glyph-name="iotadieresistonos" unicode="&#x390;" horiz-adv-x="682" 
d="M473 963l-217 -732q-25 -84 -25 -116q0 -42 34 -42q42 0 106.5 65t142.5 185l63 -36q-80 -122 -126 -174q-123 -142 -256 -142q-60 0 -100 36.5t-40 91.5q0 53 45 207l119 399q18 62 18 89q0 35 -26.5 49.5t-89.5 14.5h-49l7 74zM357 1106l118 359q13 41 33.5 58.5
t54.5 17.5q39 0 68 -25.5t29 -58.5q0 -32 -29 -69l-232 -302zM217 1319q41 0 70.5 -29.5t29.5 -70.5q0 -42 -29.5 -71.5t-71.5 -29.5q-41 0 -70.5 29.5t-29.5 71.5q0 41 29.5 70.5t71.5 29.5zM695 1319q41 0 70.5 -29.5t29.5 -70.5q0 -42 -29.5 -71.5t-71.5 -29.5
q-41 0 -70.5 29.5t-29.5 71.5q0 41 29.5 70.5t71.5 29.5z" />
    <glyph glyph-name="Alpha" unicode="&#x391;" horiz-adv-x="1442" 
d="M905 1509l256 -1288q16 -81 43 -103t112 -22h52l-11 -96h-616l11 96h32q88 0 118 15t30 58q0 24 -8 67l-47 252h-522l-113 -197q-37 -64 -37 -113q0 -46 31 -64t110 -18h49l-11 -96h-552l11 96q93 4 163 66t140 183l676 1164h83zM859 584l-115 589l-335 -589h450z" />
    <glyph glyph-name="Beta" unicode="&#x392;" horiz-adv-x="1479" 
d="M970 761q148 -47 217 -111q104 -97 104 -228q0 -160 -112 -272q-78 -79 -196 -114.5t-303 -35.5h-743l11 96h29q120 0 150 28q13 12 19.5 29.5t28.5 98.5l261 975q19 72 19 100q0 34 -31 45t-130 11h-53l11 96h616q219 0 334 -63q81 -45 123 -119q43 -74 43 -160
q0 -93 -44 -170.5t-125 -126.5q-95 -57 -229 -79zM552 807h169q178 0 274 74q59 46 94 123.5t35 162.5q0 112 -58 164t-183 52h-59q-86 0 -111 -30q-21 -25 -44 -110zM527 711l-131 -487q-12 -46 -12 -73q0 -32 29.5 -43.5t114.5 -11.5h101q190 0 285 82q59 51 93 127
t34 156q0 158 -147 219q-76 31 -237 31h-130z" />
    <glyph glyph-name="Gamma" unicode="&#x393;" horiz-adv-x="1366" 
d="M578 96l-11 -96h-643l11 96h9q140 0 170 28q13 12 20 30.5t27 97.5l262 976q19 71 19 100q0 34 -31 44.5t-130 10.5h-53l11 96h1196l-79 -494h-93q1 55 1 70q0 109 -16.5 165t-59.5 95q-77 68 -209 68h-120q-115 0 -146 -22t-57 -120l-265 -990q-21 -76 -21 -98
q0 -35 31 -46t132 -11h45z" />
    <glyph glyph-name="uni0394" unicode="&#x394;" horiz-adv-x="1259" 
d="M-150 0l876 1509h84l299 -1509h-1259zM82 177h616q68 0 95 16t27 57q0 27 -8 66l-164 856z" />
    <glyph glyph-name="Epsilon" unicode="&#x395;" horiz-adv-x="1479" 
d="M1435 1479l-79 -494h-93q1 55 1 70q0 109 -16.5 165t-59.5 95q-77 68 -209 68h-120q-115 0 -146 -22t-57 -120l-113 -420h47q165 0 247 69q76 64 117 188l93 -14l-183 -683l-93 16q19 83 19 141q0 185 -226 187h-46l-121 -450q-23 -87 -23 -113q0 -37 32 -51.5t112 -14.5
h111q159 0 265 46q169 73 292 296q36 66 45 80l84 -16l-161 -502h-1230l11 96h9q140 0 170 28q13 12 20 30.5t27 96.5l262 977q19 71 19 100q0 34 -31 44.5t-130 10.5h-53l11 96h1196z" />
    <glyph glyph-name="Zeta" unicode="&#x396;" horiz-adv-x="1366" 
d="M1366 1479l-13 -80l-1093 -1303h276q152 0 252 34.5t180 114.5q53 53 92.5 113t104.5 190l87 -23l-168 -525h-1135l12 78l1092 1305h-198q-150 0 -244 -28.5t-159 -93.5q-49 -49 -60.5 -65.5t-138.5 -228.5l-84 22l168 490h1029z" />
    <glyph glyph-name="Eta" unicode="&#x397;" horiz-adv-x="1706" 
d="M1174 725h-659l-126 -473q-21 -77 -21 -101q0 -34 31.5 -44.5t131.5 -10.5h53l-11 -96h-651l11 96h9q140 0 170 28q13 12 19.5 30t27.5 98l262 975q19 72 19 101q0 34 -31 44.5t-130 10.5h-53l11 96h651l-11 -96h-9q-140 0 -171 -28q-12 -12 -18.5 -29t-28.5 -99
l-109 -406h659l109 406q20 75 20 100q0 35 -31 45.5t-131 10.5h-53l11 96h650l-10 -96h-9q-140 0 -171 -28q-12 -12 -18 -28.5t-29 -99.5l-261 -975q-20 -74 -20 -100q0 -34 31 -45t131 -11h53l-11 -96h-651l11 96h9q140 0 170 28q13 12 19.5 30t27.5 98z" />
    <glyph glyph-name="Theta" unicode="&#x398;" horiz-adv-x="1593" 
d="M936 1510q242 0 406 -162q163 -161 163 -425q0 -294 -162 -544q-145 -222 -358 -330q-159 -80 -346 -80q-251 0 -399 153q-158 165 -158 441q0 265 131 493q128 220 341 348q176 106 382 106zM942 1422q-210 0 -367 -204q-97 -125 -172 -357q-80 -243 -80 -436
q0 -152 73 -254q81 -114 246 -114q159 0 290 109q135 112 235 382q98 264 98 469q0 72 -20 153.5t-49 129.5q-35 58 -108 90q-71 32 -146 32zM925 513q4 29 4 47q0 61 -42.5 96.5t-116.5 35.5q-164 0 -214 -179h-96l121 452h96q-4 -29 -4 -44q0 -60 44.5 -96.5t116.5 -36.5
q83 0 138 46t74 131h96l-121 -452h-96z" />
    <glyph glyph-name="Iota" unicode="&#x399;" horiz-adv-x="833" 
d="M578 96l-11 -96h-635l11 96q91 2 122.5 7.5t49.5 20.5q12 12 19 30t28 97l261 976q21 78 21 101q0 34 -31 44.5t-132 10.5h-45l11 96h635l-11 -96q-92 -3 -123 -8t-48 -20q-13 -12 -19 -29t-29 -99l-261 -976q-21 -78 -21 -98q0 -35 31 -46t132 -11h45z" />
    <glyph glyph-name="Kappa" unicode="&#x39a;" horiz-adv-x="1517" 
d="M505 701l591 490q110 91 110 141q0 28 -26 39.5t-94 11.5h-45l11 96h615l-11 -96q-121 -8 -201.5 -47.5t-209.5 -153.5l-386 -321l312 -645q41 -85 64 -101q18 -12 39.5 -15.5t89.5 -3.5h63l-11 -96h-671l11 96h68q81 0 109.5 8t28.5 29q0 13 -31 81l-242 503l-231 -191
l-73 -274q-21 -77 -21 -101q0 -34 31.5 -44.5t131.5 -10.5h53l-11 -96h-651l11 96h9q140 0 170 28q13 12 19.5 30t27.5 98l262 975q19 72 19 100q0 34 -31 45t-130 11h-53l11 96h651l-11 -96h-9q-140 0 -171 -28q-12 -12 -19 -30t-28 -98z" />
    <glyph glyph-name="Lambda" unicode="&#x39b;" horiz-adv-x="1468" 
d="M896 1509l256 -1288q16 -81 43 -103t112 -22h52l-11 -96h-616l11 96h32q88 0 118 14.5t30 57.5q0 26 -8 68l-180 937l-502 -882q-37 -65 -37 -113q0 -46 31 -64t110 -18h49l-11 -96h-552l11 96q93 4 163 65q69 62 140 184l676 1164h83z" />
    <glyph glyph-name="Mu" unicode="&#x39c;" horiz-adv-x="1933" 
d="M744 1479l109 -1106l698 1106h442l-11 -96h-8q-141 0 -171 -28q-13 -12 -19 -28.5t-28 -99.5l-262 -975q-19 -73 -19 -100q0 -34 31 -45t131 -11h52l-11 -96h-650l11 96h8q141 0 171 28q13 12 19 29t28 99l271 1009l-791 -1261h-74l-126 1233l-211 -789
q-48 -189 -48 -235q0 -113 184 -113l-11 -96h-512l11 96q92 1 140 48q35 34 61 96t64 204l210 783q20 76 20 100q0 34 -31 45t-131 11h-53l11 96h495z" />
    <glyph glyph-name="Nu" unicode="&#x39d;" horiz-adv-x="1669" 
d="M646 1479l518 -1129l183 685q49 189 49 235q0 113 -185 113l11 96h537l-10 -96q-111 -3 -161 -48q-40 -34 -65 -92.5t-65 -207.5l-285 -1064h-79l-570 1233l-203 -758q-49 -188 -49 -235q0 -113 185 -113h22l-11 -96h-566l11 96q69 2 104 12t63 36q40 35 65 93.5
t65 206.5l233 872q-12 42 -36 53.5t-98 11.5h-106l11 96h432z" />
    <glyph glyph-name="Xi" unicode="&#x39e;" horiz-adv-x="1478" 
d="M329 1479h1163l-67 -494h-92q4 46 4 93q0 92 -22 137.5t-77 66.5q-52 20 -174 20h-339q-106 0 -167.5 -15t-110.5 -53q-77 -60 -163 -249h-89zM-27 0l67 492l95 26q-1 -52 -1 -76q0 -89 12.5 -136.5t43.5 -76.5q56 -52 200 -52h407q144 0 229 52q54 34 97 93.5t111 195.5
l84 -16l-151 -502h-1194zM894 459q11 41 11 67q0 79 -54 122.5t-153 43.5q-205 0 -255 -233h-96l151 561h96q-8 -50 -8 -73q0 -74 53.5 -117t143.5 -43q201 0 262 233h96l-151 -561h-96z" />
    <glyph glyph-name="Omicron" unicode="&#x39f;" horiz-adv-x="1593" 
d="M936 1510q242 0 406 -162q163 -161 163 -425q0 -294 -162 -544q-145 -222 -358 -330q-159 -80 -346 -80q-251 0 -399 153q-158 165 -158 441q0 265 131 493q128 220 341 348q176 106 382 106zM942 1422q-210 0 -367 -204q-97 -125 -172 -357q-80 -243 -80 -436
q0 -152 73 -254q81 -114 246 -114q159 0 290 109q135 112 235 382q98 264 98 469q0 72 -20 153.5t-49 129.5q-35 58 -108 90q-71 32 -146 32z" />
    <glyph glyph-name="Pi" unicode="&#x3a0;" horiz-adv-x="1706" 
d="M237 1479h1538l-10 -96h-9q-140 0 -171 -28q-12 -12 -18.5 -28.5t-28.5 -98.5l-261 -976q-20 -74 -20 -100q0 -34 31 -45t131 -11h53l-11 -96h-651l11 96h9q140 0 170 28q13 12 19.5 30t27.5 98l262 976q20 75 20 100q0 33 -30.5 44t-125.5 11h-310q-135 0 -166 -28
q-12 -12 -18.5 -29t-28.5 -98l-261 -976q-21 -77 -21 -101q0 -34 31.5 -44.5t131.5 -10.5h53l-11 -96h-651l11 96h9q140 0 170 28q13 12 19.5 30t27.5 98l262 976q19 71 19 100q0 34 -31 44.5t-130 10.5h-53z" />
    <glyph glyph-name="Rho" unicode="&#x3a1;" horiz-adv-x="1366" 
d="M506 651l-107 -399q-21 -77 -21 -100q0 -34 31.5 -45t131.5 -11h53l-11 -96h-651l11 96h9q140 0 170 28q13 12 19.5 29.5t28.5 98.5l261 975q19 72 19 100q0 34 -31 45t-130 11h-53l11 96h605q244 0 353 -74q152 -102 152 -296q0 -177 -114 -293q-56 -56 -140.5 -97
t-177.5 -55q-83 -13 -382 -13h-37zM532 747h39l184 -1q145 0 237 70q64 48 100 132.5t36 183.5q0 176 -120 226q-59 25 -176 25h-26q-63 0 -89 -19.5t-42 -79.5z" />
    <glyph glyph-name="Sigma" unicode="&#x3a3;" horiz-adv-x="1324" 
d="M-116 74l653 623l-238 708l20 74h1033l-80 -494h-93q3 81 3 110q0 180 -74 236q-67 52 -237 52h-306l185 -607l-625 -599h462q206 0 301 87q91 84 177 284l87 -24l-168 -524h-1120z" />
    <glyph glyph-name="Tau" unicode="&#x3a4;" horiz-adv-x="1403" 
d="M1487 1479l-85 -564l-87 12q4 92 4 142q0 90 -20 159t-56 103q-55 52 -173 52h-30q-49 0 -64.5 -17.5t-36.5 -97.5l-272 -1017q-20 -73 -20 -100q0 -34 31 -44.5t131 -10.5h75l-11 -96h-710l11 96h45q141 0 171 28q13 12 20 30.5t27 96.5l281 1046q9 35 9 50q0 36 -67 36
h-30q-165 0 -289 -158q-62 -79 -174 -287l-85 12l180 529h1225z" />
    <glyph glyph-name="Upsilon" unicode="&#x3a5;" horiz-adv-x="1403" 
d="M742 746l349 446q53 67 53 111q0 37 -35.5 58.5t-96.5 21.5h-47l11 96h577l-11 -96q-122 -9 -194 -63q-60 -45 -155 -166l-411 -524l-101 -379q-21 -76 -21 -100q0 -34 31.5 -44.5t131.5 -10.5h75l-11 -96h-710l11 96h45q141 0 171 28q13 12 19.5 30.5t27.5 96.5l102 379
l-246 612q-35 87 -74 114t-132 27h-35l11 96h631l-11 -96h-57q-68 0 -96.5 -11.5t-28.5 -37.5t21 -79z" />
    <glyph glyph-name="Phi" unicode="&#x3a6;" horiz-adv-x="1565" 
d="M554 308l232 868q-191 -5 -313 -53q-153 -60 -231 -182q-74 -115 -74 -267q0 -196 157 -292q101 -62 229 -74zM1000 1168l-232 -864q232 2 377 78q133 70 197 206q46 98 46 212q0 168 -93 256.5t-295 111.5zM530 221q-221 27 -368 109q-230 130 -230 386q0 235 180 377
q110 87 271 126.5t426 44.5l2 7q10 40 10 58q0 33 -31.5 43.5t-131.5 10.5h-45l11 96h621l-11 -96q-126 -3 -155.5 -17.5t-47.5 -80.5q-4 -15 -9 -32q131 -15 206.5 -34.5t151.5 -57.5q146 -72 206 -212q35 -83 35 -182q0 -186 -122 -314q-225 -236 -754 -238
q-12 -38 -12 -63q0 -35 31 -45.5t132 -10.5h46l-12 -96h-621l11 96q104 2 136.5 10t47.5 35q8 13 26 80z" />
    <glyph glyph-name="Chi" unicode="&#x3a7;" horiz-adv-x="1442" 
d="M832 802l238 -557q44 -103 75 -125q33 -24 134 -24h53l-11 -96h-656l11 96h63q75 0 100 9.5t25 37.5q0 23 -12 51l-183 438l-311 -325q-80 -84 -80 -139q0 -72 141 -72h30l-11 -96h-587l11 96q109 17 176.5 58t180.5 159l401 424l-213 502q-41 98 -74.5 121t-134.5 23
h-50l10 96h646l-11 -96h-37q-71 0 -104 -14t-33 -44q0 -16 21 -66l146 -351l250 256q99 102 99 159q0 60 -106 60h-42l11 96h579l-11 -96q-102 -5 -159 -33q-77 -38 -202 -166z" />
    <glyph glyph-name="Psi" unicode="&#x3a8;" horiz-adv-x="1887" 
d="M751 469q-493 20 -493 391q0 92 40 241l34 126q19 72 19 100q0 34 -31 45t-130 11h-53l11 96h143q146 0 211 -41t65 -122q0 -41 -13 -89l-48 -182q-30 -110 -30 -212q0 -87 41.5 -151.5t117.5 -93.5q69 -27 140 -29l179 668q21 78 21 101q0 34 -31 44.5t-132 10.5h-45
l11 96h622l-11 -96q-93 -3 -124 -8t-48 -20q-12 -12 -18.5 -29t-28.5 -99l-180 -670q210 5 330 96q90 68 143 196q11 26 49 169l56 209q36 134 131 193t274 59h78l-26 -96h-24q-93 0 -140.5 -35.5t-69.5 -120.5l-49 -180q-37 -141 -55 -192.5t-47 -103.5
q-152 -268 -673 -282l-59 -218q-20 -76 -20 -98q0 -35 31 -46t132 -11h45l-11 -96h-622l11 96q91 2 122.5 7.5t49.5 20.5q12 12 19 30t28 97z" />
    <glyph glyph-name="uni03A9" unicode="&#x3a9;" horiz-adv-x="1636" 
d="M392 212q-68 35 -129 100q-132 141 -132 381q0 215 103 404q121 220 367 332q177 81 377 81q280 0 438 -148q139 -131 139 -337q0 -247 -132 -468q-158 -266 -470 -355l-10 -25h110q196 0 297 111q97 105 148 230l83 -16l-160 -502h-679l57 214q164 55 273 176
q116 128 183 336q61 191 61 343q0 158 -92 261q-84 92 -254 92q-163 0 -294 -93q-156 -110 -233 -327q-71 -201 -71 -396q0 -138 41.5 -231.5t132.5 -160.5l-57 -214h-578l32 502l93 16q-1 -27 -1 -38q0 -156 65 -229.5t202 -73.5h81z" />
    <glyph glyph-name="Iotadieresis" unicode="&#x3aa;" horiz-adv-x="833" 
d="M578 96l-11 -96h-635l11 96q91 2 122.5 7.5t49.5 20.5q12 12 19 30t28 97l261 976q21 78 21 101q0 34 -31 44.5t-132 10.5h-45l11 96h635l-11 -96q-92 -3 -123 -8t-48 -20q-13 -12 -19 -29t-29 -99l-261 -976q-21 -78 -21 -98q0 -35 31 -46t132 -11h45zM399 1863
q42 0 71.5 -29.5t29.5 -70.5q0 -42 -29.5 -71.5t-72.5 -29.5q-40 0 -69.5 29.5t-29.5 70.5q0 42 29.5 71.5t70.5 29.5zM813 1863q41 0 70.5 -29.5t29.5 -70.5q0 -42 -29.5 -71.5t-72.5 -29.5q-40 0 -69.5 29.5t-29.5 70.5q0 42 29.5 71.5t71.5 29.5z" />
    <glyph glyph-name="Upsilondieresis" unicode="&#x3ab;" horiz-adv-x="1403" 
d="M742 746l349 446q53 67 53 111q0 37 -35.5 58.5t-96.5 21.5h-47l11 96h577l-11 -96q-122 -9 -194 -63q-60 -45 -155 -166l-411 -524l-101 -379q-21 -76 -21 -100q0 -34 31.5 -44.5t131.5 -10.5h75l-11 -96h-710l11 96h45q141 0 171 28q13 12 19.5 30.5t27.5 96.5l102 379
l-246 612q-35 87 -74 114t-132 27h-35l11 96h631l-11 -96h-57q-68 0 -96.5 -11.5t-28.5 -37.5t21 -79zM671 1863q41 0 70.5 -29.5t29.5 -70.5q0 -42 -29.5 -71.5t-72.5 -29.5q-40 0 -69.5 29.5t-29.5 70.5q0 42 29.5 71.5t71.5 29.5zM1085 1863q41 0 70.5 -29.5t29.5 -70.5
q0 -42 -29.5 -71.5t-72.5 -29.5q-40 0 -69.5 29.5t-29.5 70.5q0 42 29.5 71.5t71.5 29.5z" />
    <glyph glyph-name="alphatonos" unicode="&#x3ac;" horiz-adv-x="1234" 
d="M858 710l142 222h193l-327 -472l-11 -242v-33q0 -77 35 -77q68 0 174 216l62 -35q-37 -81 -100 -170q-107 -150 -240 -150q-95 0 -110 107q-4 27 -8 146q-36 -54 -70 -96q-128 -157 -294 -157q-146 0 -222 107q-72 100 -72 260q0 265 176 453q165 174 379 174
q131 0 211 -69t82 -184zM687 466q10 112 10 174q0 118 -35.5 181.5t-100.5 63.5q-119 0 -215 -136q-65 -92 -107 -234t-42 -270q0 -95 35 -146.5t98 -51.5q81 0 154 86t203 333zM618 1106l118 359q14 41 34 58.5t54 17.5q39 0 68 -25.5t29 -58.5q0 -32 -28 -69l-233 -302z
" />
    <glyph glyph-name="epsilontonos" unicode="&#x3ad;" horiz-adv-x="909" 
d="M531 515l-29 -96h-100q-93 0 -148 -51.5t-55 -139.5q0 -68 41 -109q51 -52 142 -52q158 0 316 203l60 -45q-85 -132 -188.5 -194t-239.5 -62q-120 0 -204 46q-114 63 -114 194q0 149 124 220q63 36 181 48q-91 13 -143.5 68t-52.5 135q0 131 121 211q111 72 274 72
q164 0 248 -82q58 -58 58 -140q0 -66 -36.5 -109.5t-92.5 -43.5q-48 0 -78.5 28t-30.5 72q0 67 77 98q32 13 32 32q0 27 -44.5 47t-104.5 20q-88 0 -149 -41q-87 -58 -87 -170q0 -74 43 -116.5t117 -42.5h63zM522 1106l118 359q14 41 34 58.5t54 17.5q39 0 68 -25.5
t29 -58.5q0 -32 -28 -69l-233 -302z" />
    <glyph glyph-name="etatonos" unicode="&#x3ae;" horiz-adv-x="1177" 
d="M410 687q200 276 380 276q99 0 159 -82q37 -51 37 -116q0 -86 -49 -233l-122 -361q-68 -201 -117.5 -301t-116.5 -173q-44 -47 -96 -79.5t-83 -32.5q-21 0 -21 19q0 13 22 34q69 65 172 371l203 604q32 94 32 143q0 36 -23.5 60.5t-57.5 24.5q-66 0 -142.5 -56.5
t-143.5 -154.5q-55 -82 -84 -146.5t-68 -197.5l-85 -286h-177l196 661q18 62 18 110q0 68 -83 68q-16 0 -33 -3q-14 -2 -20 -2q-26 0 -26 15q0 34 78 74t146 40q63 0 98.5 -31.5t35.5 -86.5q0 -43 -29 -158zM681 1106l118 359q14 41 34 58.5t54 17.5q39 0 68 -25.5t29 -59.5
q0 -31 -28 -68l-233 -302z" />
    <glyph glyph-name="iotatonos" unicode="&#x3af;" horiz-adv-x="682" 
d="M473 963l-217 -732q-25 -84 -25 -116q0 -42 34 -42q42 0 106.5 65t142.5 185l63 -36q-80 -122 -126 -174q-123 -142 -256 -142q-60 0 -100 36.5t-40 91.5q0 53 45 207l119 399q18 62 18 89q0 35 -26.5 49.5t-89.5 14.5h-49l7 74zM389 1106l118 359q13 41 33.5 58.5
t54.5 17.5q38 0 67.5 -25.5t29.5 -58.5q0 -31 -29 -69l-233 -302z" />
    <glyph glyph-name="upsilondieresistonos" unicode="&#x3b0;" horiz-adv-x="1103" 
d="M456 963l-141 -474q-47 -161 -47 -254q0 -71 44 -115t104 -44q88 0 177 71.5t155 196.5q44 84 71.5 168.5t27.5 138.5q0 33 -10 53t-47 61q-43 49 -43 95q0 43 27 73t65 30q53 0 90 -47t37 -115q0 -119 -54.5 -280.5t-137.5 -285.5q-177 -267 -406 -267q-139 0 -217 101
q-58 76 -58 167q0 101 39 233l70 236q19 64 19 94q0 59 -117 59h-34l7 74zM648 1106l118 359q13 41 33.5 58.5t54.5 17.5q38 0 67.5 -25.5t29.5 -58.5q0 -31 -29 -69l-233 -302zM508 1319q41 0 70.5 -29.5t29.5 -70.5q0 -42 -29.5 -71.5t-72.5 -29.5q-40 0 -69.5 30
t-29.5 71t29.5 70.5t71.5 29.5zM986 1319q41 0 70.5 -29.5t29.5 -70.5q0 -42 -29.5 -71.5t-71.5 -29.5q-41 0 -70.5 29.5t-29.5 71.5q0 41 29.5 70.5t71.5 29.5z" />
    <glyph glyph-name="alpha" unicode="&#x3b1;" horiz-adv-x="1234" 
d="M858 710l142 222h193l-327 -472l-11 -242v-33q0 -77 35 -77q68 0 174 216l62 -35q-37 -81 -100 -170q-107 -150 -240 -150q-95 0 -110 107q-4 27 -8 146q-36 -54 -70 -96q-128 -157 -294 -157q-146 0 -222 107q-72 100 -72 260q0 265 176 453q165 174 379 174
q131 0 211 -69t82 -184zM687 466q10 112 10 174q0 118 -35.5 181.5t-100.5 63.5q-119 0 -215 -136q-65 -92 -107 -234t-42 -270q0 -95 35 -146.5t98 -51.5q81 0 154 86t203 333z" />
    <glyph glyph-name="beta" unicode="&#x3b2;" horiz-adv-x="1146" 
d="M75 -378l-225 -36q30 63 50 124.5t87 302.5l276 1032q36 133 65.5 198.5t78.5 119.5q130 145 342 145q183 0 287 -95q83 -75 83 -211q0 -165 -89.5 -272.5t-254.5 -139.5q101 -27 150 -75q72 -68 72 -198q0 -96 -42 -198.5t-115 -183.5q-150 -167 -369 -167
q-106 0 -167 39.5t-92 127.5zM550 827h47q132 0 215 85q51 51 83.5 140t32.5 175q0 77 -31 129q-43 72 -146 72q-134 0 -206 -120q-34 -56 -81 -231l-159 -596q-33 -121 -33 -209q0 -91 41 -142q48 -60 133 -60q160 0 269 173q90 141 90 280q0 114 -56 168t-173 54l-48 -1z
" />
    <glyph glyph-name="gamma" unicode="&#x3b3;" horiz-adv-x="1024" 
d="M466 91l38 61q109 176 147 255q103 213 103 312q0 32 -14 107q-3 18 -3 34q0 42 29.5 72.5t70.5 30.5q42 0 67.5 -28.5t25.5 -76.5q0 -53 -26.5 -120t-113.5 -238q-126 -245 -231 -416q-52 -85 -65.5 -126t-36.5 -178q-14 -82 -57 -138t-93 -56q-33 0 -54.5 22t-21.5 56
q0 36 17 85t79 190q7 134 7 202q0 265 -68 526q-33 130 -77 130q-27 0 -52 -36.5t-82 -160.5l-64 29q130 334 268 334q80 0 127 -104q90 -203 90 -506q0 -102 -8 -234z" />
    <glyph glyph-name="delta" unicode="&#x3b4;" horiz-adv-x="1024" 
d="M488 958l-27 28q-112 119 -112 212q0 65 34.5 126t93.5 100q127 84 330 84q153 0 225 -57q54 -44 54 -116q0 -54 -30.5 -87t-79.5 -33q-45 0 -76 26.5t-31 66.5q0 26 18 57q15 25 15 36q0 30 -119 30q-118 0 -180 -61q-46 -44 -46 -99q0 -50 79 -152l170 -218
q53 -68 84 -153.5t31 -163.5q0 -120 -45.5 -237.5t-128.5 -209.5q-151 -168 -373 -168q-174 0 -273 113q-91 103 -91 271q0 212 118 371q146 195 360 234zM556 885h-11q-111 0 -196 -111q-59 -78 -104 -219q-50 -155 -50 -293q0 -215 182 -215q181 0 276 254q43 113 43 247
q0 104 -29.5 175t-110.5 162z" />
    <glyph glyph-name="epsilon" unicode="&#x3b5;" horiz-adv-x="909" 
d="M531 515l-29 -96h-100q-93 0 -148 -51.5t-55 -139.5q0 -68 41 -109q51 -52 142 -52q158 0 316 203l60 -45q-85 -132 -188.5 -194t-239.5 -62q-120 0 -204 46q-114 63 -114 194q0 149 124 220q63 36 181 48q-91 13 -143.5 68t-52.5 135q0 131 121 211q111 72 274 72
q164 0 248 -82q58 -58 58 -140q0 -66 -36.5 -109.5t-92.5 -43.5q-48 0 -78.5 28t-30.5 72q0 67 77 98q32 13 32 32q0 27 -44.5 47t-104.5 20q-88 0 -149 -41q-87 -58 -87 -170q0 -74 43 -116.5t117 -42.5h63z" />
    <glyph glyph-name="zeta" unicode="&#x3b6;" horiz-adv-x="842" 
d="M809 1349h-72q-134 0 -238 14q-50 7 -82 7t-51.5 -21t-61.5 -100l-29 -54l-66 11l104 307q132 -17 311 -30.5t268 -13.5q81 0 151 26q34 13 46 13q26 0 26 -20q0 -40 -50 -70q-357 -217 -597 -493q-265 -304 -265 -612q0 -100 36 -148q39 -53 114 -75l84 -25
q96 -29 135 -64.5t39 -94.5q0 -94 -97 -182q-68 -62 -129 -90q-109 -49 -197 -49q-65 0 -108 30.5t-43 76.5q0 37 29 62.5t72 25.5q29 0 44 -8.5t50 -43.5q34 -34 74 -34q58 0 107 53t49 117q0 59 -88 85l-91 29q-83 25 -114 42t-66 56q-89 100 -89 271q0 312 296 611
q90 91 190.5 170t308.5 221z" />
    <glyph glyph-name="eta" unicode="&#x3b7;" horiz-adv-x="1177" 
d="M410 687q200 276 380 276q99 0 159 -82q37 -51 37 -116q0 -86 -49 -233l-122 -361q-68 -201 -117.5 -301t-116.5 -173q-44 -47 -96 -79.5t-83 -32.5q-21 0 -21 19q0 13 22 34q69 65 172 371l203 604q32 94 32 143q0 36 -23.5 60.5t-57.5 24.5q-66 0 -142.5 -56.5
t-143.5 -154.5q-55 -82 -84 -146.5t-68 -197.5l-85 -286h-177l196 661q18 62 18 110q0 68 -83 68q-16 0 -33 -3q-14 -2 -20 -2q-26 0 -26 15q0 34 78 74t146 40q63 0 98.5 -31.5t35.5 -86.5q0 -43 -29 -158z" />
    <glyph glyph-name="theta" unicode="&#x3b8;" horiz-adv-x="1009" 
d="M756 786q47 212 47 368q0 168 -63 240q-30 35 -78 35q-75 0 -135 -66q-145 -158 -256 -577h485zM732 690h-484q-55 -243 -55 -402q0 -241 148 -241q58 0 102.5 31.5t92.5 105.5q102 157 196 506zM666 1508q109 0 188 -90q59 -67 93 -179.5t34 -240.5q0 -154 -47.5 -330
t-131.5 -332q-197 -367 -463 -367q-175 0 -255 174q-57 125 -57 292q0 187 46 369.5t130 329.5q88 153 205 257q132 117 258 117z" />
    <glyph glyph-name="iota" unicode="&#x3b9;" horiz-adv-x="682" 
d="M473 963l-217 -732q-25 -84 -25 -116q0 -42 34 -42q42 0 106.5 65t142.5 185l63 -36q-80 -122 -126 -174q-123 -142 -256 -142q-60 0 -100 36.5t-40 91.5q0 53 45 207l119 399q18 62 18 89q0 35 -26.5 49.5t-89.5 14.5h-49l7 74z" />
    <glyph glyph-name="kappa" unicode="&#x3ba;" horiz-adv-x="1194" 
d="M339 446l-133 -446h-177l209 705q17 58 17 87q0 36 -26 51t-89 15h-49l7 74l394 31l-125 -421h77q131 0 207 140l55 100q53 97 109.5 139t132.5 42q70 0 110.5 -34.5t40.5 -94.5q0 -59 -38 -97q-35 -35 -82 -35q-81 0 -94 81q-6 38 -27 38q-15 0 -29 -17.5t-52 -82.5
l-62 -106q-30 -51 -56.5 -71.5t-97.5 -46.5q63 -15 93.5 -37.5t46.5 -64.5q14 -37 20 -149q8 -124 18 -142q11 -20 33 -20q37 0 82 48.5t132 183.5l63 -41q-61 -103 -130 -185q-56 -66 -106.5 -93.5t-116.5 -27.5q-152 0 -152 166q0 49 7 124q4 45 4 64q0 68 -30.5 95.5
t-105.5 27.5h-80z" />
    <glyph glyph-name="lambda" unicode="&#x3bb;" horiz-adv-x="918" 
d="M841 353l64 -30q-130 -333 -268 -333q-79 0 -128 103q-51 107 -83 305.5t-32 408.5l-2 -5q-250 -392 -250 -570q0 -32 14 -105q3 -18 3 -34q0 -42 -29.5 -72.5t-70.5 -30.5q-43 0 -68 29.5t-25 78.5q0 47 21.5 107.5t74.5 164.5q58 114 97.5 184t217.5 376
q49 86 80 187.5t31 178.5q0 57 -18.5 91.5t-48.5 34.5q-22 0 -27.5 -13t-5.5 -64q0 -42 -27.5 -71t-67.5 -29q-45 0 -75.5 32t-30.5 78q0 65 54.5 109t135.5 44q126 0 178 -104q39 -79 39 -196q0 -43 -8 -144q-14 -165 -14 -261q0 -117 19 -271t45 -249q16 -58 35 -92.5
t35 -34.5q27 0 53.5 38.5t81.5 158.5z" />
    <glyph glyph-name="uni03BC" unicode="&#x3bc;" horiz-adv-x="1251" 
d="M146 16q-9 -45 -10.5 -65.5t-4.5 -134.5q-3 -120 -64 -188q-37 -42 -77 -42q-55 0 -55 72q0 69 84 283q41 106 67 258q10 55 14 70.5t48 157.5l82 278q18 59 18 87q0 36 -26 51t-90 15h-48l7 74l393 31l-199 -673q-24 -81 -24 -117q0 -37 25.5 -62.5t62.5 -25.5
q94 0 201 118q145 158 217 401l98 328h177l-202 -680q-26 -89 -26 -122q0 -19 11.5 -33.5t25.5 -14.5q68 0 227 231l60 -37q-69 -107 -130 -176q-114 -131 -241 -131q-56 0 -91 34q-40 39 -40 100q0 49 25 142q-173 -274 -380 -274q-83 0 -135 45z" />
    <glyph glyph-name="nu" unicode="&#x3bd;" horiz-adv-x="1024" 
d="M489 198q125 166 195 304.5t70 218.5q0 30 -14 105q-3 19 -3 34q0 42 29.5 72.5t70.5 30.5q42 0 67.5 -28.5t25.5 -76.5q0 -52 -28 -116t-130 -244q-122 -216 -337 -529h-78q-45 386 -110 698q-27 130 -59 130q-26 0 -51 -37t-82 -160l-64 29q130 334 266 334
q86 0 127 -135q26 -87 45 -199.5t60 -430.5z" />
    <glyph glyph-name="xi" unicode="&#x3be;" horiz-adv-x="907" 
d="M670 1351q-100 2 -175 12q-51 7 -83 7q-31 0 -50.5 -21t-61.5 -100l-29 -54l-66 11l104 307q132 -17 311 -30.5t268 -13.5q81 0 151 26q34 13 46 13q26 0 26 -20q0 -46 -50 -70q-46 -22 -196 -59q-196 -49 -308 -154t-112 -240q0 -105 62.5 -160.5t179.5 -55.5h63
l-27 -96h-75q-205 0 -322 -79q-127 -85 -127 -262t150 -222l84 -25q96 -28 135 -64t39 -95q0 -94 -97 -182q-68 -62 -129 -90q-109 -49 -193 -49q-68 0 -111.5 30t-43.5 77q0 37 29 62.5t72 25.5q29 0 44 -8.5t50 -43.5q34 -34 74 -34q58 0 107 53t49 116q0 60 -88 86
l-91 29q-76 23 -112.5 42.5t-72.5 56.5q-84 87 -84 220q0 110 51.5 200t147.5 145q90 52 236 74q-75 21 -117 62q-72 71 -72 180q0 138 105 238t309 155z" />
    <glyph glyph-name="omicron" unicode="&#x3bf;" horiz-adv-x="1024" 
d="M558 963q153 0 258 -116q105 -114 105 -270q0 -116 -46 -232t-128 -208q-149 -168 -373 -168q-174 0 -273 113q-91 103 -91 271q0 258 171 434q172 176 377 176zM549 885q-115 0 -200 -111q-59 -78 -105 -219q-49 -154 -49 -292q0 -216 182 -216q102 0 175 81
q72 80 122 231q53 157 53 273q0 90 -28 157q-19 43 -60 69.5t-90 26.5z" />
    <glyph glyph-name="pi" unicode="&#x3c0;" horiz-adv-x="1370" 
d="M519 772q-60 -292 -172 -513q-82 -160 -187 -236q-68 -48 -109 -48q-20 0 -20 18q0 14 22 35q103 97 246 629l31 115h-66q-96 0 -179 -80q-43 -41 -62 -41q-23 0 -23 20q0 16 42.5 74.5t79.5 94.5q58 55 122.5 73.5t197.5 18.5h613q105 0 161.5 10.5t102.5 38.5
q20 13 29 13q22 0 22 -23q0 -12 -32 -50l-125 -149h-205l-161 -542q-25 -84 -25 -115q0 -17 10 -29.5t24 -12.5q42 0 107 65t143 184l63 -36q-79 -118 -127 -173q-123 -142 -256 -142q-59 0 -99.5 36.5t-40.5 90.5q0 52 46 207l138 467h-311z" />
    <glyph glyph-name="rho" unicode="&#x3c1;" horiz-adv-x="1087" 
d="M171 149l-20 -65q-100 -334 -145 -462l-225 -36q120 254 228 618l69 232q56 190 111 280q73 119 181 183t236 64q165 0 258 -103q83 -91 83 -242q0 -118 -43.5 -241t-119.5 -218q-151 -190 -369 -190q-101 0 -152 37.5t-92 142.5zM601 885q-128 0 -233 -167
q-59 -93 -101.5 -228t-42.5 -231q0 -82 48.5 -135t122.5 -53q158 0 264 224q95 201 95 378q0 97 -41 152q-44 60 -112 60z" />
    <glyph glyph-name="uni03C2" unicode="&#x3c2;" horiz-adv-x="903" 
d="M349 90l84 -25q96 -28 135 -64t39 -95q0 -44 -26 -92.5t-71 -89.5q-69 -63 -129 -90q-109 -49 -193 -49q-68 0 -111.5 30t-43.5 77q0 37 29 62.5t72 25.5q29 0 44 -8.5t50 -43.5q34 -34 74 -34q58 0 107 53t49 116q0 60 -88 86l-91 29q-84 25 -114.5 42t-65.5 56
q-89 100 -89 263q0 168 85 322q87 156 231 239q112 63 228 63q112 0 189.5 -64.5t77.5 -157.5q0 -66 -36.5 -109.5t-92.5 -43.5q-48 0 -78.5 28t-30.5 72q0 67 77 98q32 13 32 32q0 26 -40.5 46.5t-90.5 20.5q-132 0 -236 -152q-126 -185 -126 -426q0 -94 36 -142
q39 -53 114 -75z" />
    <glyph glyph-name="sigma" unicode="&#x3c3;" horiz-adv-x="1086" 
d="M844 814q77 -108 77 -237q0 -116 -46 -232t-128 -208q-149 -168 -373 -168q-174 0 -273 113q-91 103 -91 271q0 213 118 371q179 239 454 239q94 0 258 -36q46 -10 97 -10q48 0 104 13q10 2 17 2q14 0 14 -26q0 -33 -29 -55q-53 -39 -156 -39q-13 0 -43 2zM573 852
q-120 0 -211 -104q-65 -75 -114 -208q-53 -147 -53 -279q0 -214 182 -214q102 0 175 81q72 80 122 231q53 158 53 273q0 220 -154 220z" />
    <glyph glyph-name="tau" unicode="&#x3c4;" horiz-adv-x="987" 
d="M527 772l-161 -542q-25 -84 -25 -114q0 -43 34 -43q42 0 107 65t142 184l64 -36q-80 -120 -126 -173q-124 -142 -257 -142q-60 0 -100 36.5t-40 91.5q0 51 46 206l138 467h-194q-96 0 -179 -80q-43 -41 -62 -41q-23 0 -23 20q0 13 35 64t71 88q56 59 122 84t169 25h45
h340q105 0 160.5 10.5t103.5 38.5q21 13 29 13q22 0 22 -23q0 -11 -32 -51l-125 -148h-304z" />
    <glyph glyph-name="upsilon" unicode="&#x3c5;" horiz-adv-x="1103" 
d="M456 963l-141 -474q-47 -161 -47 -254q0 -71 44 -115t104 -44q88 0 177 71.5t155 196.5q44 84 71.5 168.5t27.5 138.5q0 33 -10 53t-47 61q-43 49 -43 95q0 43 27 73t65 30q53 0 90 -47t37 -115q0 -119 -54.5 -280.5t-137.5 -285.5q-177 -267 -406 -267q-139 0 -217 101
q-58 76 -58 167q0 101 39 233l70 236q19 64 19 94q0 59 -117 59h-34l7 74z" />
    </font>
</defs>
</svg>
