<?xml version="1.0" standalone="no"?>
<!DOCTYPE svg PUBLIC "-//W3C//DTD SVG 1.1//EN" "http://www.w3.org/Graphics/SVG/1.1/DTD/svg11.dtd" >
<svg xmlns="http://www.w3.org/2000/svg" xmlns:xlink="http://www.w3.org/1999/xlink" version="1.1">
<metadata>
Created by FontForge 20200314 at Wed May 27 18:55:32 2015
 By Unknown
Copyright (c) ParaType, Inc., 2008. All rights reserved.
</metadata>
<defs>
<font id="KudryashevW08-Regular" horiz-adv-x="548" >
  <font-face 
    font-family="KudryashevW08-Regular"
    font-weight="400"
    font-stretch="normal"
    units-per-em="1000"
    panose-1="2 4 5 3 6 5 6 2 3 3"
    ascent="800"
    descent="-200"
    x-height="481"
    cap-height="723"
    bbox="-316 -327 1154 986"
    underline-thickness="50"
    underline-position="-125"
    unicode-range="U+0020-FB02"
  />
<missing-glyph horiz-adv-x="250" 
 />
    <glyph glyph-name="uniF460" unicode="&#x410;`" horiz-adv-x="725" 
d="M446 0v33h41q6 0 13 0.5t13.5 3t11 7t4.5 13.5q0 11 -6.5 31t-17.5 50l-50 146h-237l-25 -64q-5 -14 -12.5 -33t-14.5 -38.5t-11.5 -38.5t-4.5 -33q0 -23 6.5 -31t19.5 -13h45v-33h-211v33h33q12 8 23.5 20.5t28.5 43.5t42 88t63 153q28 70 65 167t79 218h44l231 -631
q9 -25 22.5 -42t48.5 -17h24v-33h-268zM337 609l-109 -296h215zM522 905q0 -12 -13 -23t-33 -23l-145 -90h-41l139 140q11 11 19.5 18t15 10.5t12.5 4.5t13 1q15 0 24 -10.5t9 -27.5z" />
    <glyph glyph-name="uniF461" unicode="&#x415;`" horiz-adv-x="680" 
d="M634 723l7 -162h-35l-15 65q-8 14 -29.5 25.5t-52.5 20t-68 13.5t-76 5q-31 0 -50.5 -2t-30.5 -7t-15 -14.5t-4 -24.5v-246h48q68 0 105 6t54 15t20 19t3 19v26h31v-200h-31v27q0 9 -3 19t-20 18.5t-54 14.5t-105 6h-48v-286q0 -31 16 -38.5t39 -7.5q68 0 121.5 4
t96.5 21q40 15 62.5 32.5t32.5 42.5l6 31h35l-33 -165h-571v33h43q35 0 45.5 10t10.5 36v567q0 31 -15.5 38.5t-40.5 7.5h-43v31h564zM522 905q0 -12 -13 -23t-33 -23l-145 -90h-41l139 140q11 11 19.5 18t15 10.5t12.5 4.5t13 1q15 0 24 -10.5t9 -27.5z" />
    <glyph glyph-name="uniF462" unicode="&#x418;`" horiz-adv-x="881" 
d="M537 0v31h44q32 0 43.5 9.5t11.5 36.5v521l-371 -523q0 -25 9 -34.5t45 -9.5h45v-31h-294v31h43q37 0 46.5 10.5t9.5 35.5v571q0 22 -10 33t-46 11h-43v31h294v-31h-45q-18 0 -29 -2t-16.5 -7t-7 -13.5t-1.5 -21.5v-520l371 520q0 25 -11.5 34.5t-43.5 9.5h-44v31h294
v-31h-43q-32 0 -44 -9t-12 -35v-571q0 -27 11 -36.5t45 -9.5h43v-31h-294zM630 905q0 -12 -13 -23t-33 -23l-145 -90h-41l139 140q11 11 19.5 18t15 10.5t12.5 4.5t13 1q15 0 24 -10.5t9 -27.5z" />
    <glyph glyph-name="uniF463" unicode="&#x41e;`" horiz-adv-x="883" 
d="M826 363q0 -37 -8.5 -79.5t-26.5 -84.5t-47.5 -80.5t-71.5 -68t-97.5 -47t-125.5 -17.5q-71 0 -126.5 17.5t-97 47t-71 68t-47.5 80.5t-26.5 84.5t-8.5 79.5q0 60 21 126t66.5 121.5t117 92t172.5 36.5q102 0 173.5 -34.5t117 -89t66 -121.5t20.5 -131zM712 363
q0 75 -17 138t-50.5 108.5t-82.5 71t-113 25.5t-113 -24t-82.5 -68t-50.5 -108t-17 -143q0 -68 16.5 -130t49 -109.5t82 -76t115.5 -28.5t115.5 28.5t82.5 76t49 109.5t16 130zM598 905q0 -12 -13 -23t-33 -23l-145 -90h-41l139 140q11 11 19.5 18t15 10.5t12.5 4.5t13 1
q15 0 24 -10.5t9 -27.5z" />
    <glyph glyph-name="uniF464" unicode="&#x423;`" horiz-adv-x="793" 
d="M731 694q-19 -8 -33 -21.5t-28 -39.5q-12 -22 -21.5 -40t-20 -39t-23 -47.5t-30.5 -64.5q-14 -29 -26.5 -55t-24.5 -50t-23.5 -48.5t-24.5 -50.5q-25 -51 -48.5 -95.5t-57.5 -89.5q-23 -29 -55.5 -48t-75.5 -19q-19 0 -41 5.5t-41 16.5t-31.5 29t-12.5 44q0 30 16.5 45
t42.5 15q22 0 38.5 -13t16.5 -40q0 -18 -3.5 -25t-3.5 -15q0 -13 12 -20.5t26 -7.5q12 0 26.5 4t31.5 18t37 40.5t43 71.5l-258 488q-10 19 -20.5 29.5t-21 15.5t-20.5 6t-19 1h-21v29h276v-29h-44q-17 0 -23.5 -5t-6.5 -12q0 -11 5 -19l206 -397l74 151q50 101 74.5 168.5
t24.5 88.5q0 9 -3.5 14.5t-8.5 7.5t-10 2.5t-9 0.5h-55v29h227v-29h-32zM601 905q0 -12 -13 -23t-33 -23l-145 -90h-41l139 140q11 11 19.5 18t15 10.5t12.5 4.5t13 1q15 0 24 -10.5t9 -27.5z" />
    <glyph glyph-name="uniF465" unicode="&#x42b;`" horiz-adv-x="1050" 
d="M706 0v31h44q28 0 41.5 8.5t13.5 37.5v569q0 24 -11.5 35t-43.5 11h-44v31h294v-31h-44q-19 0 -30 -3t-16.5 -8.5t-7 -14t-1.5 -20.5v-569q0 -26 10 -36t45 -10h44v-31h-294zM265 432q11 4 27.5 8t36 7.5t40 5.5t39.5 2q81 0 134.5 -19t85.5 -50.5t45 -71t13 -81.5
q0 -40 -14.5 -82t-48.5 -76.5t-90.5 -57t-140.5 -22.5q-16 0 -36 1t-40 1.5t-39.5 1.5t-33.5 1h-173v31h43q29 0 42.5 10t13.5 36v569q0 25 -12 35.5t-44 10.5h-43v31h294v-31h-45q-32 0 -43 -11t-11 -35v-214zM581 229q0 98 -56 144t-150 46q-13 0 -28.5 -1.5t-30.5 -4
t-28.5 -6t-22.5 -7.5v-348q30 -14 61 -18.5t62 -4.5q41 0 76.5 13t61.5 38.5t40.5 63t14.5 85.5zM717 905q0 -12 -13 -23t-33 -23l-145 -90h-41l139 140q11 11 19.5 18t15 10.5t12.5 4.5t13 1q15 0 24 -10.5t9 -27.5z" />
    <glyph glyph-name="uniF466" unicode="&#x42d;`" horiz-adv-x="763" 
d="M709 402q0 -107 -34 -185t-89 -129.5t-123 -76.5t-135 -25q-57 0 -104.5 12.5t-81.5 33.5t-53 47.5t-19 55.5q0 39 20.5 54t43.5 15q29 0 42.5 -17.5t13.5 -36.5q0 -13 -3 -22t-6 -16.5t-6 -13.5t-3 -13q0 -15 16 -27.5t39.5 -22t50.5 -14.5t50 -5q82 0 134 34.5t81.5 86
t40.5 111.5t11 110v4h-101q-32 0 -60.5 -0.5t-59.5 -2t-65.5 -5t-78.5 -10.5v68q41 -6 75 -10t64.5 -6.5t60.5 -3.5t64 -1h101v15q0 24 -3 56t-11.5 66t-24 66.5t-40 58t-60 41t-83.5 15.5q-38 0 -73 -10t-65 -28.5t-52 -43.5t-32 -55l-2 -29h-40l15 196h39l-1 -42
q57 25 114 33.5t97 8.5q84 0 147 -27.5t105 -73.5t63 -107.5t21 -128.5zM523 905q0 -12 -13 -23t-33 -23l-145 -90h-41l139 140q11 11 19.5 18t15 10.5t12.5 4.5t13 1q15 0 24 -10.5t9 -27.5z" />
    <glyph glyph-name="uniF467" unicode="&#x42e;`" horiz-adv-x="1207" 
d="M1154 363q0 -37 -8.5 -79.5t-26.5 -84.5t-47.5 -80.5t-71.5 -68t-97.5 -47t-125.5 -17.5t-125.5 17.5t-97 46.5t-71 67t-48 79.5t-27 84t-8.5 79.5h-135v-283q0 -29 12 -37.5t42 -8.5h45v-31h-294v31h43q32 0 44 9t12 37v569q0 26 -12 36t-44 10h-43v31h294v-31h-45
q-30 0 -42 -8.5t-12 -37.5v-257h136q4 58 27.5 120t69 113t114.5 84t165 33q102 0 173.5 -34.5t117 -89t66 -121.5t20.5 -131zM1040 363q0 75 -17 138t-50.5 108.5t-82.5 71t-113 25.5t-113 -24t-82.5 -68t-50.5 -108t-17 -143q0 -68 16.5 -130t49 -109.5t82 -76
t115.5 -28.5t115.5 28.5t82.5 76t49 109.5t16 130zM745 905q0 -12 -13 -23t-33 -23l-145 -90h-41l139 140q11 11 19.5 18t15 10.5t12.5 4.5t13 1q15 0 24 -10.5t9 -27.5z" />
    <glyph glyph-name="uniF468" unicode="&#x42f;`" horiz-adv-x="762" 
d="M419 0v31h44q37 0 46 10t9 36v277q-56 -3 -97.5 -18.5t-73.5 -57.5q-19 -23 -30 -46.5t-26 -54.5l-5 -11q-18 -36 -35 -69t-37.5 -57.5t-46.5 -39t-60 -14.5q-30 0 -47.5 11.5t-25.5 27.5t-10 32t-2 25h28q0 -15 5 -32.5t22 -17.5q14 0 25.5 15t24.5 41q14 29 25.5 54
t26.5 51q12 20 30 42t43 43t57 40t73 32v4q-6 0 -12.5 -0.5t-12.5 -0.5q-47 0 -91.5 10.5t-79 33.5t-55.5 60t-21 90q0 27 10 60t38 61t78.5 47t130.5 19q25 0 53.5 -1.5t56.5 -4t54 -4t47 -1.5h135v-31h-45q-33 0 -43.5 -10.5t-10.5 -35.5v-569q0 -23 10.5 -34.5
t43.5 -11.5h45v-31h-294zM518 681q-27 12 -57 17t-60 5q-38 0 -72.5 -9t-60.5 -28t-41.5 -49.5t-15.5 -72.5q0 -81 47 -125t135 -44q20 0 38 0.5t43 2.5q13 1 24 2t20 3v298zM575 905q0 -12 -13 -23t-33 -23l-145 -90h-41l139 140q11 11 19.5 18t15 10.5t12.5 4.5t13 1
q15 0 24 -10.5t9 -27.5z" />
    <glyph glyph-name="uniF469" unicode="&#x401;`" horiz-adv-x="680" 
d="M634 723l7 -162h-35l-15 65q-8 14 -29.5 25.5t-52.5 20t-68 13.5t-76 5q-31 0 -50.5 -2t-30.5 -7t-15 -14.5t-4 -24.5v-246h48q68 0 105 6t54 15t20 19t3 19v26h31v-200h-31v27q0 9 -3 19t-20 18.5t-54 14.5t-105 6h-48v-286q0 -31 16 -38.5t39 -7.5q68 0 121.5 4
t96.5 21q40 15 62.5 32.5t32.5 42.5l6 31h35l-33 -165h-571v33h43q35 0 45.5 10t10.5 36v567q0 31 -15.5 38.5t-40.5 7.5h-43v31h564zM588 825q0 -23 -15.5 -39t-39.5 -16t-40 16t-16 39q0 24 17 39.5t39 15.5t38.5 -15.5t16.5 -39.5zM272 828q0 -23 -16 -39t-40 -16t-40 16
t-16 39q0 24 17 39.5t39 15.5t39 -15.5t17 -39.5zM497 905q0 -12 -13 -23t-33 -23l-145 -90h-41l139 140q11 11 19.5 18t15 10.5t12.5 4.5t13 1q15 0 24 -10.5t9 -27.5z" />
    <glyph glyph-name="uniF46A" unicode="&#x430;`" horiz-adv-x="509" 
d="M498 60q-14 -35 -36 -53t-58 -18q-19 0 -32.5 7.5t-21.5 19.5t-12 28t-4 34q-28 -30 -52.5 -47.5t-46.5 -26.5t-41 -12t-35 -3q-24 0 -45.5 8.5t-37 23t-24.5 33.5t-9 41q0 48 24.5 79t63.5 51.5t87.5 33.5t96.5 24l19 4v44q0 30 -5 55t-18.5 42t-36.5 26.5t-59 9.5
q-7 0 -17.5 -2t-20.5 -6t-17 -11.5t-7 -17.5q0 -9 3 -17t3 -19q0 -20 -12.5 -33.5t-36.5 -13.5q-20 0 -30.5 14.5t-10.5 36.5q0 18 12 36t33 31.5t50 22t64 8.5q36 0 69.5 -7t59.5 -25.5t41.5 -50t15.5 -79.5v-261q0 -11 3.5 -26t16.5 -15q12 0 22 8t19 33zM334 263
q-40 -8 -76 -19t-63.5 -29t-44 -43.5t-16.5 -62.5q0 -38 21 -57t49 -19q19 0 38.5 8.5t36.5 20.5t31.5 26t23.5 25v150zM396 699q0 -14 -15 -27t-31 -23l-145 -90h-41l139 140q11 11 19 18t15 10.5t12.5 5t12.5 1.5q15 0 24.5 -9.5t9.5 -25.5z" />
    <glyph glyph-name="uniF46B" unicode="&#x435;`" horiz-adv-x="477" 
d="M128 272q0 -80 14.5 -128.5t36 -74.5t48 -34.5t50.5 -8.5q41 0 79.5 25.5t64.5 71.5l22 -11q-28 -53 -75.5 -88t-118.5 -35q-34 0 -71 12t-68.5 40.5t-52 76.5t-20.5 120q0 58 15 105t43.5 80.5t69 51.5t91.5 18q49 0 84.5 -19t59 -49t34.5 -68t11 -77v-8h-317zM358 302
q0 32 -6.5 61t-19.5 51.5t-34 36t-49 13.5q-53 0 -84 -38t-37 -124h230zM411 699q0 -14 -15 -27t-31 -23l-145 -90h-41l139 140q11 11 19 18t15 10.5t12.5 5t12.5 1.5q15 0 24.5 -9.5t9.5 -25.5z" />
    <glyph glyph-name="uniF46C" unicode="&#x438;`" horiz-adv-x="602" 
d="M347 0v24h27q24 0 31.5 7.5t7.5 27.5v311l-223 -292v-19q0 -17 6.5 -26t31.5 -9h28v-24h-225v24h40q23 0 31 7.5t8 27.5v363q0 20 -7 27.5t-32 7.5h-40v24h225v-24h-28q-25 0 -31.5 -8t-6.5 -27v-305l223 292v13q0 19 -6.5 27t-31.5 8h-28v24h225v-24h-40q-25 0 -32 -7.5
t-7 -27.5v-363q0 -19 7 -27t31 -8h41v-24h-225zM443 699q0 -14 -15 -27t-31 -23l-145 -90h-41l139 140q11 11 19 18t15 10.5t12.5 5t12.5 1.5q15 0 24.5 -9.5t9.5 -25.5z" />
    <glyph glyph-name="uniF46D" unicode="&#x43e;`" horiz-adv-x="543" 
d="M505 240q0 -57 -17.5 -103t-49 -79t-74 -51t-93.5 -18q-50 0 -93 17.5t-74.5 50.5t-49 79.5t-17.5 103.5q0 63 17.5 110.5t49 79t74.5 47.5t93 16q51 0 93.5 -15t74 -45.5t49 -78.5t17.5 -114zM414 240q0 65 -12 108t-32 69t-46 36.5t-53 10.5t-53 -10.5t-46 -36.5
t-32 -69t-12 -108t12 -107.5t32 -68t46 -36t53 -10.5t53 10.5t46 36t32 68t12 107.5zM437 699q0 -14 -15 -27t-31 -23l-145 -90h-41l139 140q11 11 19 18t15 10.5t12.5 5t12.5 1.5q15 0 24.5 -9.5t9.5 -25.5z" />
    <glyph glyph-name="uniF46E" unicode="&#x443;`" horiz-adv-x="563" 
d="M520 457q-17 0 -25.5 -8t-16.5 -22q-10 -19 -17.5 -36t-14 -34.5t-13.5 -37t-16 -43.5q-12 -31 -24.5 -63t-24.5 -65q-16 -42 -32.5 -85.5t-34.5 -85.5q-16 -39 -33.5 -75.5t-39 -64.5t-49.5 -45t-66 -17t-61 18.5t-23 50.5q0 23 13 35t30 14q16 1 31.5 -7t17.5 -31
q2 -24 8 -33t19 -9q29 0 63 48.5t60 130.5l-181 428q-6 14 -15.5 25.5t-39.5 11.5h-21v24h218v-24h-37q-26 0 -26 -18q0 -5 1 -9.5t3 -9.5l142 -335q36 97 56.5 160t31 100t13 54t2.5 23v9t-2.5 11.5t-8.5 10t-17 4.5h-33v24h180v-24h-17zM458 699q0 -14 -15 -27t-31 -23
l-145 -90h-41l139 140q11 11 19 18t15 10.5t12.5 5t12.5 1.5q15 0 24.5 -9.5t9.5 -25.5z" />
    <glyph glyph-name="uniF46F" unicode="&#x44b;`" horiz-adv-x="760" 
d="M493 0v24h41q23 0 30.5 7.5t7.5 26.5v364q0 20 -7.5 27.5t-30.5 7.5h-41v24h238v-24h-41q-24 0 -31 -8.5t-7 -26.5v-364q0 -18 7 -26t31 -8h41v-24h-238zM190 303q29 6 50 8t47 2q53 0 89.5 -15t59 -38t32.5 -50.5t10 -52.5q0 -29 -10 -58.5t-33 -53t-60 -38.5t-91 -15
q-28 0 -67.5 4t-90.5 4h-95v24h40q20 0 29.5 7t9.5 28v363q0 20 -8.5 27.5t-30.5 7.5h-40v24h238v-24h-40q-23 0 -31 -7.5t-8 -27.5v-119zM387 157q0 18 -4.5 40t-18.5 41.5t-41.5 33t-72.5 13.5q-19 0 -34 -3t-26 -6v-240q6 -6 29.5 -11.5t48.5 -5.5q58 0 88.5 37t30.5 101
zM522 699q0 -14 -15 -27t-31 -23l-145 -90h-41l139 140q11 11 19 18t15 10.5t12.5 5t12.5 1.5q15 0 24.5 -9.5t9.5 -25.5z" />
    <glyph glyph-name="uniF470" unicode="&#x44d;`" horiz-adv-x="478" 
d="M441 258q0 -66 -20.5 -116.5t-55 -84t-79 -51t-92.5 -17.5q-74 0 -118 26.5t-44 74.5q0 26 14 38t32 12q20 0 33 -12.5t13 -37.5q0 -11 -3 -20t-3 -17q0 -12 7.5 -20t19 -13t25 -7t25.5 -2q44 1 73.5 22.5t47.5 56t26 76.5t8 83q-12 0 -23.5 0.5t-22.5 0.5q-78 0 -123 -6
t-58 -9v53q17 -4 55 -8.5t101 -4.5q11 0 26.5 0.5t44.5 1.5q0 36 -5 71t-18.5 62t-39 44t-65.5 17q-32 0 -58 -13.5t-44 -31t-27.5 -35.5t-9.5 -27v-14h-28l5 131h26l1 -19q6 4 20 9.5t32 10.5t39 8t43 3q51 0 91.5 -16.5t69 -47.5t44 -74t15.5 -97zM381 699q0 -14 -15 -27
t-31 -23l-145 -90h-41l139 140q11 11 19 18t15 10.5t12.5 5t12.5 1.5q15 0 24.5 -9.5t9.5 -25.5z" />
    <glyph glyph-name="uniF471" unicode="&#x44e;`" horiz-adv-x="785" 
d="M747 240q0 -59 -17.5 -106t-49 -79t-74 -49t-93.5 -17q-65 0 -109.5 23.5t-72 61t-39.5 83t-12 90.5v9h-90v-197q0 -20 7 -27.5t32 -7.5h40v-24h-238v24h40q25 0 32 7.5t7 27.5v363q0 25 -7 30t-32 5h-40v24h238v-24h-40q-25 0 -32 -5t-7 -30v-142h92q4 40 20 78t44.5 68
t70 48.5t96.5 18.5q51 0 93.5 -17.5t74 -50t49 -79.5t17.5 -106zM656 240q0 65 -12 109t-32 71t-46 38.5t-53 11.5t-52.5 -11.5t-45.5 -38.5t-32 -71t-12 -109t12 -108.5t32 -70.5t45.5 -38.5t52.5 -11.5t53 11.5t46 38.5t32 70.5t12 108.5zM534 699q0 -14 -15 -27t-31 -23
l-145 -90h-41l139 140q11 11 19 18t15 10.5t12.5 5t12.5 1.5q15 0 24.5 -9.5t9.5 -25.5z" />
    <glyph glyph-name="uniF472" unicode="&#x44f;`" horiz-adv-x="560" 
d="M291 0v24h42q21 0 29 7.5t8 27.5v166h-16q-31 0 -52 -6t-36.5 -19t-28 -33.5t-27.5 -48.5q-15 -30 -29 -52.5t-29 -38t-33 -23.5t-43 -8q-35 0 -49.5 20.5t-14.5 50.5v9.5t1 9.5h22q2 -28 7.5 -34.5t11.5 -6.5q5 0 11.5 2.5t14.5 16.5q11 18 19.5 33t16 28t15.5 24t19 22
q14 13 24.5 21.5t20 14.5t20.5 10.5t26 9.5v4q-81 5 -122 39.5t-41 84.5q0 24 9.5 47t31.5 41t56.5 29.5t85.5 11.5q28 0 58 -1.5t54 -1.5h156v-23h-40q-24 0 -31.5 -7.5t-7.5 -27.5v-364q0 -19 6.5 -27t32.5 -8h40v-24h-238zM370 435q-6 7 -17 11.5t-23 7t-23 3.5t-17 1
q-53 0 -87 -26.5t-34 -80.5q0 -12 3.5 -29.5t16.5 -34t37 -28t66 -11.5q24 0 42.5 2t35.5 10v175zM495 699q0 -14 -15 -27t-31 -23l-145 -90h-41l139 140q11 11 19 18t15 10.5t12.5 5t12.5 1.5q15 0 24.5 -9.5t9.5 -25.5z" />
    <glyph glyph-name="uniF473" unicode="&#x451;`" horiz-adv-x="477" 
d="M128 272q0 -80 14.5 -128.5t36 -74.5t48 -34.5t50.5 -8.5q41 0 79.5 25.5t64.5 71.5l22 -11q-28 -53 -75.5 -88t-118.5 -35q-34 0 -71 12t-68.5 40.5t-52 76.5t-20.5 120q0 58 15 105t43.5 80.5t69 51.5t91.5 18q49 0 84.5 -19t59 -49t34.5 -68t11 -77v-8h-317zM358 302
q0 32 -6.5 61t-19.5 51.5t-34 36t-49 13.5q-53 0 -84 -38t-37 -124h230zM462 638q0 -23 -15.5 -39t-39.5 -16t-40 16t-16 39q0 24 17 39.5t39 15.5t38.5 -15.5t16.5 -39.5zM178 638q0 -23 -16 -39t-40 -16t-40 16t-16 39q0 24 17 39.5t39 15.5t39 -15.5t17 -39.5zM368 699
q0 -14 -15 -27t-31 -23l-145 -90h-41l139 140q11 11 19 18t15 10.5t12.5 5t12.5 1.5q15 0 24.5 -9.5t9.5 -25.5z" />
    <glyph glyph-name="uniFB01" unicode="fi" horiz-adv-x="593" 
d="M328 0v24h34q24 0 31.5 7.5t7.5 27.5v336q0 13 -1.5 22.5t-8.5 16t-21.5 9.5t-41.5 3h-127v-387q0 -20 7 -27.5t31 -7.5h33v-24h-230v24h41q24 0 31 7.5t7 27.5v387h-79v35h79q0 91 22.5 149t57 92t75.5 47t78 13q42 0 70 -11t45 -28t24 -37.5t7 -38.5q0 -30 -15.5 -47.5
t-40.5 -17.5q-29 0 -42 17t-13 38q0 12 4.5 27t30.5 28q-11 23 -37 30.5t-52 7.5q-33 0 -58 -14t-42 -46t-25.5 -83.5t-8.5 -125.5h114h42t46 1.5t43.5 3.5t34.5 7v-434q0 -19 7 -27t31 -8h41v-24h-232z" />
    <glyph glyph-name="uniFB02" unicode="fl" horiz-adv-x="619" 
d="M335 753q-34 0 -59 -9t-41.5 -35t-25 -73.5t-8.5 -124.5v-30h134v-35h-134v-387q0 -20 7 -27.5t31 -7.5h41v-24h-238v24h41q24 0 31 7.5t7 27.5v387h-79v35h79q0 78 16 135t44 94t65.5 54.5t81.5 17.5q15 0 39.5 -1t51.5 -1q25 0 49 1.5t41 6.5v-729q0 -19 6.5 -27
t30.5 -8h42v-24h-238v24h41q21 0 29.5 7.5t8.5 27.5v634q0 13 -3 24t-12.5 19t-28.5 12.5t-50 4.5z" />
    <glyph glyph-name=".notdef" horiz-adv-x="250" 
 />
    <glyph glyph-name=".null" horiz-adv-x="0" 
 />
    <glyph glyph-name="nonmarkingreturn" horiz-adv-x="333" 
 />
    <glyph glyph-name="space" unicode=" " horiz-adv-x="250" 
 />
    <glyph glyph-name="exclam" unicode="!" horiz-adv-x="305" 
d="M225 708q-4 -41 -8.5 -72t-9 -65.5t-10 -79.5t-10.5 -112q-5 -70 -8 -126t-5 -93h-13q-2 37 -5 93.5t-9 125.5q-6 68 -10.5 113.5t-8.5 81t-8.5 66t-9.5 68.5q3 11 17 21t40 10q24 0 39 -10t19 -21zM222 40q0 -22 -15 -38t-40 -16q-22 0 -38.5 15t-16.5 39t16.5 40
t38.5 16q25 0 40 -16.5t15 -39.5z" />
    <glyph glyph-name="quotedbl" unicode="&#x22;" horiz-adv-x="309" 
d="M232 539h-18l-37 184q8 6 19 11t27 5q14 0 25 -5t19 -11zM98 539h-18l-37 184q8 6 19 11t27 5q14 0 25 -5t19 -11z" />
    <glyph glyph-name="numbersign" unicode="#" horiz-adv-x="733" 
d="M682 470h-167l-36 -209h167l-15 -79h-166l-32 -182h-52l34 182h-183l-32 -182h-52l34 182h-168l15 79h166l38 209h-168l14 77h167l32 182h52l-34 -182h183l34 182h50l-32 -182h166zM283 470l-36 -209h181l37 209h-182z" />
    <glyph glyph-name="dollar" unicode="$" 
d="M509 170q0 -24 -11.5 -55.5t-37 -59.5t-67 -47.5t-101.5 -19.5v-60h-44v60q-64 2 -105 17.5t-64.5 37t-32.5 45.5t-9 43q0 38 17.5 52t34.5 14q18 0 34 -13t16 -39q0 -12 -4.5 -20.5t-10.5 -15t-10.5 -13.5t-4.5 -16q0 -11 13 -22t33 -19.5t44.5 -13.5t48.5 -5v292
q-21 10 -54.5 24t-65.5 35t-55 52t-23 75q0 42 15 76t41 58.5t62.5 39t79.5 17.5v64h44v-64q54 0 89.5 -11.5t57 -29.5t30.5 -39.5t9 -41.5q0 -9 -4 -19.5t-10.5 -19.5t-16.5 -14.5t-22 -5.5q-25 0 -38 14t-13 27q0 8 2 19t7 20q2 5 5.5 9.5t3.5 12.5q0 7 -4 16t-15 16.5
t-30.5 13t-50.5 5.5v-274l48 -19q51 -20 84 -42.5t52 -47t26 -51.5t7 -57zM248 657q-57 -3 -87 -35t-30 -89q0 -26 5.5 -44t19 -32.5t36 -27.5t56.5 -28v256zM421 153q0 50 -30 85t-99 62v-280q34 0 58.5 10.5t40 28.5t23 42.5t7.5 51.5z" />
    <glyph glyph-name="percent" unicode="%" horiz-adv-x="817" 
d="M368 585q0 -35 -11 -63t-30 -48t-45.5 -31t-56.5 -11q-31 0 -58 11t-46.5 31t-30.5 48t-11 63q0 33 11 61.5t30.5 49t46 32t58.5 11.5q31 0 57.5 -11.5t45.5 -32t29.5 -49t10.5 -61.5zM95 -89l-26 17l640 877l24 -16zM741 138q0 -35 -11 -63.5t-30.5 -48.5t-46 -30.5
t-57.5 -10.5q-30 0 -56.5 10.5t-46 30.5t-30.5 48.5t-11 63.5q0 33 10.5 61t30 49t45.5 32.5t58 11.5q33 0 59.5 -11.5t45.5 -32.5t29.5 -49t10.5 -61zM291 585q0 42 -7.5 67.5t-18 40t-22.5 19t-21 4.5t-20.5 -4.5t-21.5 -19t-17 -40t-7 -67.5t7 -67.5t17 -39.5t21.5 -18.5
t20.5 -4.5t21 4.5t22.5 18.5t18 39.5t7.5 67.5zM664 138q0 42 -7.5 67.5t-18 39.5t-22.5 19t-21 5t-20.5 -5t-21.5 -19t-17 -39.5t-7 -67.5t7 -67.5t17 -39.5t21.5 -18.5t20.5 -4.5t21 4.5t22.5 18.5t18 39.5t7.5 67.5z" />
    <glyph glyph-name="ampersand" unicode="&#x26;" horiz-adv-x="757" 
d="M678 299q-21 0 -34 -8.5t-21 -35.5q-7 -23 -14 -44t-16.5 -41.5t-24 -41.5t-35.5 -45q20 -33 42.5 -42t37.5 -9q12 0 35.5 7t47.5 30l15 -20q-51 -40 -85.5 -53.5t-62.5 -13.5t-55 11.5t-49 40.5q-13 -8 -29.5 -17t-39 -16.5t-50.5 -13t-63 -5.5q-53 0 -95.5 13
t-73.5 38.5t-47.5 62.5t-16.5 84q0 38 14.5 68t39 54.5t58 44.5t72.5 37q-32 51 -42 86t-10 64t9.5 55t29 46t48 32t67.5 12q64 0 96 -33.5t32 -83.5q0 -45 -38 -88.5t-103 -72.5l196 -288q10 9 21 23.5t20 33.5t15 40.5t6 44.5q0 26 -13.5 35t-42.5 9h-33v31h227v-31h-35z
M405 576q0 35 -18 54t-50 19q-38 0 -59.5 -24.5t-21.5 -70.5q0 -32 9.5 -61.5t34.5 -67.5q29 11 49 30t32.5 40.5t18 43t5.5 37.5zM243 360q-12 -7 -29 -19t-32.5 -30.5t-27 -44t-11.5 -59.5t9 -66.5t29.5 -58.5t54 -42t82.5 -16q42 0 70 11.5t49 25.5z" />
    <glyph glyph-name="quotesingle" unicode="'" horiz-adv-x="214" 
d="M120 539h-18l-37 184q8 6 19 11t27 5q14 0 25 -5t19 -11z" />
    <glyph glyph-name="parenleft" unicode="(" horiz-adv-x="377" 
d="M340 -102q-59 35 -114.5 84.5t-98.5 110t-69 130t-26 146.5q0 76 26 146.5t69 131t98.5 109.5t114.5 84l12 -20q-45 -32 -78.5 -72.5t-56.5 -84.5t-37 -88t-22 -83.5t-10.5 -71.5t-2.5 -51q0 -20 2.5 -52t10.5 -71.5t22 -83.5t37 -87.5t56 -83.5t79 -72z" />
    <glyph glyph-name="parenright" unicode=")" horiz-adv-x="377" 
d="M347 369q0 -77 -26 -146.5t-69.5 -130t-99 -110t-113.5 -84.5l-12 21q45 32 78.5 72t56.5 83.5t37 87.5t22 83.5t10.5 71.5t2.5 52q0 29 -7 85t-28.5 121t-62.5 131t-109 114l12 20q58 -35 113.5 -84t99 -109.5t69.5 -131t26 -146.5z" />
    <glyph glyph-name="asterisk" unicode="*" horiz-adv-x="534" 
d="M438 501q0 -23 -12 -42t-34 -27l-101 93q-3 -2 -5.5 -4t-7.5 -2l32 -134q-8 -5 -18 -10t-25 -5q-16 0 -27 5t-19 10l32 134q-6 0 -11 7l-101 -94q-21 9 -33.5 27.5t-12.5 40.5q0 2 0.5 4.5t0.5 4.5l133 39q0 2 -0.5 3t-0.5 3q0 3 2 7l-133 39q0 2 -0.5 5t-0.5 5
q0 23 12 41t33 28l102 -96q4 6 12 6l-33 134q8 6 19 11t27 5q14 0 25 -5t19 -11l-31 -134q5 0 10 -7l102 95q20 -10 33 -28.5t13 -40.5q0 -2 -0.5 -4.5t-0.5 -4.5l-133 -39q0 -2 0.5 -3.5t0.5 -3.5t-0.5 -3t-0.5 -3l133 -39v-7z" />
    <glyph glyph-name="plus" unicode="+" horiz-adv-x="701" 
d="M371 319v-248h-46v248h-247v46h247v247h46v-247h246v-46h-246z" />
    <glyph glyph-name="comma" unicode="," horiz-adv-x="221" 
d="M173 39q0 -27 -9 -54.5t-23.5 -53.5t-33.5 -49.5t-38 -41.5l-17 15q32 32 49.5 64.5t17.5 55.5q0 20 -12 28t-23 15q-11 8 -19.5 18.5t-8.5 30.5q0 21 15 35.5t41 14.5q24 0 42.5 -19t18.5 -59z" />
    <glyph glyph-name="hyphen" unicode="-" horiz-adv-x="348" 
d="M44 312h257v-67h-257v67z" />
    <glyph glyph-name="period" unicode="." horiz-adv-x="230" 
d="M175 40q0 -22 -15.5 -38t-39.5 -16q-22 0 -39 15t-17 39t17 40t39 16q24 0 39.5 -16.5t15.5 -39.5z" />
    <glyph glyph-name="slash" unicode="/" horiz-adv-x="714" 
d="M53 -93l-24 19l639 877l25 -18z" />
    <glyph glyph-name="zero" unicode="0" 
d="M502 362q0 -59 -12.5 -125t-40 -122t-71 -92.5t-104.5 -36.5q-62 0 -105 36.5t-70.5 92.5t-40 122t-12.5 125q0 39 5.5 82t17 85t30 80t43.5 67t58 46t74 17t74 -17t58 -46.5t43.5 -67.5t30 -80t17 -85t5.5 -81zM400 362q0 45 -3.5 104t-16 112.5t-38 90.5t-68.5 37
q-29 0 -49.5 -17.5t-34.5 -46t-22.5 -65t-12.5 -75t-5.5 -75t-1.5 -65.5q0 -98 11 -164t28.5 -105.5t40 -56.5t46.5 -17t46.5 17t40 57t28.5 106t11 163z" />
    <glyph glyph-name="one" unicode="1" 
d="M166 0v31h27q9 0 18.5 1t17.5 5.5t13 14t5 25.5v498q-29 -26 -55.5 -45.5t-61.5 -42.5l-14 21q28 21 54 48t49.5 57t43.5 61t36 61h34v-658q0 -29 17.5 -37.5t37.5 -8.5h29v-31h-251z" />
    <glyph glyph-name="two" unicode="2" 
d="M467 0h-424v25l175 192q35 39 65.5 74t53 71.5t35.5 76.5t13 87q0 51 -13.5 86.5t-34.5 57.5t-46 32t-48 10q-14 0 -27 -2.5t-23.5 -9t-17 -18.5t-6.5 -31q0 -8 2 -16.5t2 -17.5q0 -26 -15.5 -37.5t-36.5 -11.5q-18 0 -34 13.5t-16 44.5q0 19 11 39.5t33 36.5t55.5 26.5
t78.5 10.5q51 0 93.5 -16.5t73 -45.5t47.5 -69t17 -88q0 -21 -4.5 -46.5t-18.5 -55.5t-39.5 -64.5t-67.5 -73.5l-227 -208h211q64 0 87.5 10.5t28.5 33.5l6 26h25z" />
    <glyph glyph-name="three" unicode="3" 
d="M501 209q0 -47 -18 -88t-52 -71t-81.5 -47t-106.5 -17q-55 0 -94 13t-64 33t-37 44t-12 47q0 30 17.5 42t34.5 12q18 0 33.5 -12t15.5 -40q0 -15 -4.5 -26t-4.5 -31q0 -25 30 -37t69 -12q54 0 88 20t52.5 50.5t25 66t6.5 67.5q0 61 -18 96t-43.5 53t-54.5 23t-51 5
q-41 0 -76 -11v49q24 -8 46 -11t41 -3q28 0 56 10t49.5 29t35 45.5t13.5 59.5q0 66 -39.5 102t-105.5 36q-45 0 -62.5 -9.5t-23.5 -25.5q-3 -9 -3 -16t1 -13t1 -14q0 -30 -18.5 -39.5t-36.5 -9.5q-17 0 -31 12.5t-14 44.5q0 15 9.5 33t31.5 33.5t58 26t88 10.5
q68 0 114.5 -16t74.5 -40.5t40 -54t12 -57.5q0 -29 -13 -55.5t-36.5 -47.5t-57 -35t-74.5 -17v-3q39 -6 73.5 -21.5t60 -41t40.5 -60.5t15 -81z" />
    <glyph glyph-name="four" unicode="4" 
d="M225 0v31h39q10 0 20 1.5t17.5 6t12.5 13.5t5 25v75h-290v38q31 42 89.5 136t146.5 249q11 19 23 41.5t24 44t22 42t18 36.5l86 -48l-381 -508h262v272l85 71v-343h95v-31h-95v-75q0 -29 14 -37.5t40 -8.5h40v-31h-273z" />
    <glyph glyph-name="five" unicode="5" 
d="M493 235q0 -58 -22 -104t-58.5 -78.5t-83.5 -49.5t-96 -17q-38 0 -72.5 9.5t-60.5 26t-41.5 38t-15.5 45.5q0 32 16.5 45t35.5 13q26 0 37.5 -14.5t11.5 -33.5q0 -17 -5 -28.5t-5 -25.5t8.5 -22.5t22 -13t29.5 -5.5t31 -1q43 0 74 17.5t51 47.5t30 69t10 83q0 18 -3 41.5
t-13 48t-28 48t-48.5 42t-75 30t-106.5 11.5h-10l31 266h217q42 0 59 6t22 20l3 9h24l-24 -110h-279l-19 -161h23q99 0 163 -23t101 -59.5t51.5 -81.5t14.5 -88z" />
    <glyph glyph-name="six" unicode="6" 
d="M512 226q0 -51 -16 -95t-45.5 -76t-70.5 -50.5t-92 -18.5q-56 0 -95 18.5t-65.5 48t-42 67t-23.5 75t-10 71.5t-2 57q0 85 22 161t62.5 132.5t97 89.5t125.5 33q31 0 55.5 -8t42 -21t26.5 -29.5t9 -33.5q0 -29 -15 -41.5t-35 -12.5q-22 0 -37.5 12.5t-15.5 41.5
q0 11 2 19t2 17q0 12 -12 17.5t-22 5.5q-41 0 -76.5 -18t-61.5 -55.5t-41.5 -94.5t-17.5 -134q31 20 66.5 32t78.5 12q40 0 77.5 -15.5t66 -44t46 -70t17.5 -92.5zM411 226q0 60 -15 95.5t-37 55t-47.5 25.5t-46.5 6q-29 0 -58 -10.5t-49 -33.5q-2 -11 -4.5 -47.5
t-2.5 -86.5q0 -106 38 -158.5t99 -52.5q42 0 66.5 21.5t37 53.5t16 67.5t3.5 64.5z" />
    <glyph glyph-name="seven" unicode="7" 
d="M414 553q-8 -18 -21.5 -48.5t-31 -76t-37.5 -107t-39 -141.5q-6 -26 -12.5 -55.5t-11.5 -57.5q-2 -12 -6 -26t-12.5 -26t-21.5 -20.5t-34 -8.5q-18 0 -35.5 13t-17.5 48q0 10 3 23.5t11 35t23 54t39 80.5q15 30 31.5 61t32.5 62q30 60 52 102t37.5 73l27.5 55t23 49h-192
q-28 0 -52 -1.5t-42.5 -8.5t-31 -22t-17.5 -41h-24l24 154h369l10 16h35z" />
    <glyph glyph-name="eight" unicode="8" 
d="M506 194q0 -37 -15 -74t-44 -67t-71.5 -48.5t-98.5 -18.5q-60 0 -105 16t-74 43.5t-43.5 63.5t-14.5 77q0 74 42 124t113 79q-68 38 -94.5 82t-26.5 92q0 32 12 63.5t37.5 56.5t64.5 40.5t94 15.5q49 0 86.5 -13.5t63 -35t38.5 -50t13 -58.5q0 -26 -11.5 -52t-31.5 -48
t-48 -39t-62 -26q36 -18 68 -37.5t56 -45t38 -59t14 -81.5zM413 582q0 63 -36.5 93.5t-99.5 30.5q-72 0 -102 -31.5t-30 -85.5q0 -30 16.5 -54.5t40.5 -43.5t52 -33t51 -23q38 13 60 34.5t32.5 43.5t13 41t2.5 28zM428 170q0 42 -18.5 72t-54.5 56q-16 11 -32.5 20.5
t-34.5 19.5l-34 18t-34 17q-28 -14 -48 -35.5t-33 -46.5t-19 -52.5t-6 -54.5q0 -42 14 -73t37 -51.5t53 -30.5t62 -10q39 0 67 12.5t46 33.5t26.5 48t8.5 57z" />
    <glyph glyph-name="nine" unicode="9" 
d="M505 388q0 -87 -25 -160.5t-67.5 -127.5t-98.5 -84t-117 -30q-33 0 -57.5 8.5t-41 23t-25 33t-8.5 38.5q0 22 14.5 35.5t34.5 13.5q23 0 37.5 -14.5t14.5 -39.5q0 -12 -2 -18t-2 -16q0 -20 11 -25.5t24 -5.5q38 0 73.5 18t63 54.5t44.5 92.5t19 133q-48 -30 -84.5 -36.5
t-62.5 -6.5q-41 0 -78.5 15.5t-66 44.5t-45.5 69.5t-17 91.5t16 95t45.5 76.5t70.5 51t92 18.5q55 0 94 -18t65.5 -47t42 -66t23.5 -75.5t10.5 -75.5t2.5 -66zM402 443q0 37 -3.5 82t-17 84.5t-40.5 66.5t-74 27q-39 0 -63.5 -19.5t-38 -48.5t-18 -62.5t-4.5 -62.5
q0 -60 15.5 -98t38 -60t49 -30.5t49.5 -8.5q35 0 62 14t41 26q1 8 2.5 32.5t1.5 57.5z" />
    <glyph glyph-name="colon" unicode=":" horiz-adv-x="280" 
d="M196 449q0 -22 -15.5 -39t-39.5 -17q-22 0 -39 16t-17 40t17 40t39 16q24 0 39.5 -17t15.5 -39zM196 40q0 -22 -15.5 -38t-39.5 -16q-22 0 -39 15t-17 39t17 40t39 16q24 0 39.5 -16.5t15.5 -39.5z" />
    <glyph glyph-name="semicolon" unicode=";" horiz-adv-x="282" 
d="M189 449q0 -22 -15.5 -39t-39.5 -17q-22 0 -39 16t-17 40t17 40t39 16q24 0 39.5 -17t15.5 -39zM193 39q0 -27 -9 -54.5t-23.5 -53.5t-33.5 -49.5t-38 -41.5l-17 15q32 32 49.5 64.5t17.5 55.5q0 20 -12 28t-23 15q-11 8 -19.5 18.5t-8.5 30.5q0 21 15 35.5t41 14.5
q24 0 42.5 -19t18.5 -59z" />
    <glyph glyph-name="less" unicode="&#x3c;" horiz-adv-x="744" 
d="M672 75l-626 266l626 265l25 -42l-529 -223l529 -222z" />
    <glyph glyph-name="equal" unicode="=" horiz-adv-x="701" 
d="M85 408v48h541v-48h-541zM85 230v47h541v-47h-541z" />
    <glyph glyph-name="greater" unicode="&#x3e;" horiz-adv-x="744" 
d="M45 119l529 222l-529 223l25 42l626 -265l-626 -266z" />
    <glyph glyph-name="question" unicode="?" horiz-adv-x="495" 
d="M443 494q0 -41 -13 -74.5t-37 -63.5t-57.5 -58.5t-74.5 -58.5q-18 -14 -31.5 -27t-13.5 -36v-41h-25v129q0 23 8 35t24 24q20 16 46 37t48.5 49t38 62.5t15.5 76.5q0 31 -10 60.5t-30 52t-50 36.5t-71 14q-24 0 -38 -6.5t-20.5 -14.5t-8 -16.5t-1.5 -11.5q0 -9 1.5 -15.5
t1.5 -15.5q0 -22 -13.5 -36t-37.5 -14q-20 0 -35.5 12.5t-15.5 39.5q0 19 10 38t30.5 34t51.5 24.5t73 9.5q51 0 94.5 -18.5t74.5 -51.5t48.5 -78t17.5 -97zM258 40q0 -22 -15.5 -38t-40.5 -16q-22 0 -38 15t-16 39t16 40t38 16q25 0 40.5 -16.5t15.5 -39.5z" />
    <glyph glyph-name="at" unicode="@" horiz-adv-x="922" 
d="M899 384q0 -62 -19 -112.5t-49 -89.5t-68.5 -67t-77 -46.5t-74.5 -27t-61 -8.5q-27 0 -43.5 12.5t-16.5 41.5q0 6 1.5 14.5t3 18t3.5 18t3 13.5l10 37q-5 -8 -14 -20t-17 -22q-43 -61 -79.5 -83.5t-73.5 -22.5q-45 0 -69.5 30.5t-24.5 85.5q0 50 21.5 108.5t59.5 109.5
q45 60 104.5 95t122.5 35q20 0 35.5 -4t26.5 -9l9 25h72l-101 -323q-8 -24 -13 -45.5t-5 -35.5q0 -19 8.5 -30t37.5 -11q27 0 66.5 21t76 59.5t62.5 93.5t26 124q0 24 -5.5 57t-20 69t-40 70.5t-65.5 62.5t-96.5 45t-132.5 17q-81 0 -153 -25.5t-126 -79t-85 -137
t-31 -199.5q0 -86 27 -161t75 -131t114 -88t144 -32q82 0 149 17t119 42t90 54t61 53l13 -16q-26 -28 -66 -60t-95 -59.5t-124.5 -45.5t-153.5 -18q-83 0 -159.5 30.5t-136 88t-95 141t-35.5 188.5t37 192t101 148.5t149.5 95.5t181.5 34q97 0 174.5 -26.5t131 -72.5
t82 -107.5t28.5 -131.5zM590 448q-2 11 -12 24t-40 13q-20 0 -42 -13t-44.5 -34.5t-44 -50.5t-39.5 -60q-31 -54 -48 -108.5t-17 -91.5q0 -35 12.5 -46.5t29.5 -11.5t37 12t40 31.5t39 44.5t35 50.5t28 49t18 41.5l46 141z" />
    <glyph glyph-name="A" unicode="A" horiz-adv-x="725" 
d="M446 0v33h41q6 0 13 0.5t13.5 3t11 7t4.5 13.5q0 11 -6.5 31t-17.5 50l-50 146h-237l-25 -64q-5 -14 -12.5 -33t-14.5 -38.5t-11.5 -38.5t-4.5 -33q0 -23 6.5 -31t19.5 -13h45v-33h-211v33h33q12 8 23.5 20.5t28.5 43.5t42 88t63 153q28 70 65 167t79 218h44l231 -631
q9 -25 22.5 -42t48.5 -17h24v-33h-268zM337 609l-109 -296h215z" />
    <glyph glyph-name="B" unicode="B" horiz-adv-x="745" 
d="M555 554q0 49 -20 77.5t-47.5 42.5t-56 17.5t-46.5 3.5q-32 0 -65 -5.5t-55 -16.5v-259h132q7 0 32.5 2.5t53.5 16t50 41.5t22 80zM581 217q0 21 -6 49.5t-27 54.5t-62 44t-111 18h-110v-322q12 -9 28.5 -15t34.5 -10t36 -5.5t33 -1.5q23 0 55 7.5t60.5 28t48.5 57
t20 95.5zM169 646q0 26 -16 36t-40 10h-43v31h171q44 0 90.5 2.5t81.5 2.5q69 0 116.5 -12.5t77.5 -34t43 -50.5t13 -61q0 -37 -14.5 -65t-39 -48t-57 -33.5t-69.5 -20.5v-4q33 -5 70.5 -16.5t68.5 -33t51.5 -54t20.5 -78.5q0 -52 -19.5 -93.5t-54.5 -70t-83.5 -43.5
t-105.5 -15q-33 0 -60.5 1t-53 1.5t-49.5 1.5t-50 1h-148v33h43q35 0 45.5 10t10.5 36v567z" />
    <glyph glyph-name="C" unicode="C" horiz-adv-x="772" 
d="M735 194q-27 -58 -63 -97.5t-76.5 -64t-84 -35.5t-86.5 -11q-86 0 -152 27.5t-110.5 76.5t-67.5 117t-23 148q0 63 20.5 130.5t66 124t117.5 93t174 36.5q22 0 44 -2.5t46 -8t51.5 -14.5t60.5 -21l-1 30h33l13 -193h-34l-2 46q-13 27 -34 50.5t-50 41t-66 28t-82 10.5
q-66 0 -112 -27.5t-75 -75t-42.5 -110t-13.5 -132.5q0 -93 21.5 -157.5t58 -104.5t84 -58t100.5 -18q45 0 84.5 15.5t72.5 41.5t58.5 59t43.5 68l26 -13v0z" />
    <glyph glyph-name="D" unicode="D" horiz-adv-x="864" 
d="M700 379q0 29 -5 64t-17 70.5t-32.5 68.5t-51.5 58t-73.5 40.5t-99.5 15.5q-44 0 -79.5 -4.5t-76.5 -23.5v-609q20 -11 58.5 -21.5t94.5 -10.5q72 0 125 29.5t88 78t52 112t17 132.5zM169 648q0 27 -13.5 36.5t-42.5 9.5h-43v29h160q19 0 43.5 1t51 1.5t51.5 1.5t45 1
q88 0 151 -19t107 -49.5t70.5 -69t41 -76t19 -71.5t4.5 -56q0 -32 -6 -73.5t-22 -85.5t-44 -85.5t-72 -74.5t-105 -53t-144 -20q-39 0 -78 2.5t-75 2.5h-198v33h43q35 0 45.5 10t10.5 36v569z" />
    <glyph glyph-name="E" unicode="E" horiz-adv-x="680" 
d="M634 723l7 -162h-35l-15 65q-8 14 -29.5 25.5t-52.5 20t-68 13.5t-76 5q-31 0 -50.5 -2t-30.5 -7t-15 -14.5t-4 -24.5v-246h48q68 0 105 6t54 15t20 19t3 19v26h31v-200h-31v27q0 9 -3 19t-20 18.5t-54 14.5t-105 6h-48v-286q0 -31 16 -38.5t39 -7.5q68 0 121.5 4
t96.5 21q40 15 62.5 32.5t32.5 42.5l6 31h35l-33 -165h-571v33h43q35 0 45.5 10t10.5 36v567q0 31 -15.5 38.5t-40.5 7.5h-43v31h564z" />
    <glyph glyph-name="F" unicode="F" horiz-adv-x="664" 
d="M365 690q-31 0 -50.5 -2t-30.5 -7t-15 -14.5t-4 -24.5v-246h48q68 0 105 6t54 15t20 19t3 19v26h31v-200h-31v27q0 9 -3 19t-20 18.5t-54 14.5t-105 6h-48v-287q0 -12 1.5 -21t7 -14.5t16.5 -8t29 -2.5h45v-33h-294v33h43q35 0 45.5 10t10.5 36v567q0 31 -14.5 38.5
t-41.5 7.5h-43v31h564l7 -162h-35l-15 65q-8 14 -29.5 25.5t-52.5 20t-68 13.5t-76 5z" />
    <glyph glyph-name="G" unicode="G" horiz-adv-x="829" 
d="M791 323q-11 0 -21 -1t-18 -5t-12.5 -12.5t-4.5 -24.5v-185q-25 -25 -58 -45t-70.5 -34.5t-77.5 -22.5t-79 -8q-99 0 -170.5 32.5t-117.5 86t-68 121t-22 137.5q0 82 29.5 151t81 119.5t121.5 78.5t151 28q43 0 97.5 -10.5t105.5 -34.5v40h35l9 -188h-32l-2 33
q-10 22 -29.5 45t-47 41t-62.5 29.5t-77 11.5q-57 0 -105.5 -22.5t-84.5 -66.5t-56 -109t-20 -150q0 -97 25 -162.5t63.5 -105.5t85 -57t89.5 -17q59 0 96 15.5t58 37t28.5 43.5t7.5 36v132q0 29 -15 36t-39 7h-31v32h270v-32h-33z" />
    <glyph glyph-name="H" unicode="H" horiz-adv-x="878" 
d="M534 0v31h43q32 0 44 9t12 37v283h-368v-283q0 -29 12 -37.5t42 -8.5h45v-31h-294v31h43q32 0 44 9t12 37v569q0 26 -12 36t-44 10h-43v31h294v-31h-45q-30 0 -42 -8.5t-12 -37.5v-257h368v257q0 28 -12 37t-44 9h-43v31h294v-31h-45q-30 0 -42 -8.5t-12 -37.5v-569
q0 -29 12 -37.5t42 -8.5h45v-31h-294z" />
    <glyph glyph-name="I" unicode="I" horiz-adv-x="413" 
d="M70 0v31h43q34 0 45 10t11 36v569q0 28 -12 37t-44 9h-43v31h294v-31h-45q-32 0 -43 -10t-11 -36v-569q0 -24 9.5 -35t44.5 -11h45v-31h-294z" />
    <glyph glyph-name="J" unicode="J" horiz-adv-x="513" 
d="M421 692q-34 0 -45 -11t-11 -35v-417q0 -104 -25.5 -170.5t-64 -105.5t-83 -54t-82.5 -15q-33 0 -56.5 9t-38.5 23t-22 31t-7 34q0 21 13 36t43 15q23 0 38.5 -15t15.5 -39q0 -6 -0.5 -11.5t-0.5 -10.5q0 -17 7.5 -29t35.5 -12q45 0 71 30.5t39.5 77t17 101.5t3.5 105
v417q0 26 -11 36t-45 10h-43v31h294v-31h-43z" />
    <glyph glyph-name="K" unicode="K" horiz-adv-x="809" 
d="M617 0l-341 382l155 151q37 36 60 59t36 38t18 24.5t5 18.5q0 7 -4 11t-9.5 5.5t-11.5 2t-10 0.5h-44v31h273v-31h-26q-9 0 -20.5 -2.5t-28.5 -11.5t-40.5 -26t-57.5 -46l-212 -182l307 -340q9 -10 18.5 -19.5t23 -17.5t32 -13t45.5 -5v-29h-168zM70 0v31h43
q35 0 45.5 11.5t10.5 34.5v569q0 28 -12 37t-44 9h-43v31h294v-31h-45q-32 0 -43 -10.5t-11 -35.5v-569q0 -24 11.5 -35t42.5 -11h45v-31h-294z" />
    <glyph glyph-name="L" unicode="L" horiz-adv-x="681" 
d="M365 33q45 0 87.5 6t85.5 17q42 11 63.5 30.5t31.5 44.5l6 31h35l-33 -162h-571v31h43q35 0 45.5 14t10.5 32v569q0 28 -12 37t-44 9h-43v31h294v-31h-45q-32 0 -43 -10t-11 -36v-567q0 -12 3.5 -21t14 -14.5t30 -8t52.5 -2.5z" />
    <glyph glyph-name="M" unicode="M" horiz-adv-x="1021" 
d="M678 0v31h43q32 0 44 9t12 37v571l-271 -523h-28l-275 527v-406q0 -56 4 -93.5t9.5 -61.5t12.5 -38t13 -22h49v-31h-221v31h51q4 7 11 22t14 45t12 78.5t5 122.5v352q0 24 -9 32.5t-24 8.5h-60v31h197l256 -493l259 493h189v-31h-43q-12 0 -22 -0.5t-17.5 -5t-11.5 -13.5
t-4 -25v-571q0 -26 9.5 -36t44.5 -10h45v-31h-294z" />
    <glyph glyph-name="N" unicode="N" horiz-adv-x="844" 
d="M740 692q-9 -8 -17.5 -23.5t-14.5 -42.5t-10 -67t-5 -97l-5 -476h-33l-454 577l3 -330q0 -56 2 -91.5t5 -57.5t8.5 -33.5t13.5 -19.5h57v-31h-219v31h53q13 11 21.5 36.5t13 56t6 60.5t1.5 49l3 374l-99 116h131l454 -588v380q0 90 -13.5 129.5t-30.5 47.5h-53v31h237
v-31h-55z" />
    <glyph glyph-name="O" unicode="O" horiz-adv-x="883" 
d="M826 363q0 -37 -8.5 -79.5t-26.5 -84.5t-47.5 -80.5t-71.5 -68t-97.5 -47t-125.5 -17.5q-71 0 -126.5 17.5t-97 47t-71 68t-47.5 80.5t-26.5 84.5t-8.5 79.5q0 60 21 126t66.5 121.5t117 92t172.5 36.5q102 0 173.5 -34.5t117 -89t66 -121.5t20.5 -131zM712 363
q0 75 -17 138t-50.5 108.5t-82.5 71t-113 25.5t-113 -24t-82.5 -68t-50.5 -108t-17 -143q0 -68 16.5 -130t49 -109.5t82 -76t115.5 -28.5t115.5 28.5t82.5 76t49 109.5t16 130z" />
    <glyph glyph-name="P" unicode="P" horiz-adv-x="696" 
d="M659 517q0 -45 -19 -87.5t-55.5 -74.5t-89.5 -51.5t-121 -19.5q-27 0 -54 3t-55 8v-218q0 -27 10.5 -36.5t43.5 -9.5h45v-31h-294v31h43q34 0 45 10t11 36v569q0 27 -11.5 36.5t-44.5 9.5h-43v31h111q26 0 56 1.5t57.5 4t51.5 4t38 1.5q79 0 131.5 -19.5t84.5 -50.5
t45.5 -70t13.5 -77zM547 517q0 94 -46 139.5t-133 45.5q-55 0 -103 -24v-353q29 -5 53 -6.5t47 -1.5q81 0 131.5 49.5t50.5 150.5z" />
    <glyph glyph-name="Q" unicode="Q" horiz-adv-x="883" 
d="M712 363q0 75 -17 138t-50.5 108.5t-82.5 71t-113 25.5t-113 -24t-82.5 -68t-50.5 -108t-17 -143q0 -68 16.5 -130t49 -109.5t82 -76t115.5 -28.5t115.5 28.5t82.5 76t49 109.5t16 130zM476 -13q-23 -21 -47.5 -42.5t-53.5 -43.5q7 1 12.5 1h11.5q29 0 54 -7t59 -22
q17 -8 31.5 -13t27.5 -5q16 0 31.5 10t27.5 25l9 11l19 -18q-21 -32 -55 -56.5t-69 -24.5q-34 0 -58 7t-53 24q-12 7 -24 16t-25 17t-27.5 13t-31.5 5q-9 0 -16.5 -0.5t-17.5 -0.5v18q86 21 147 85q-67 3 -119 22t-92 49t-67.5 68t-44.5 78.5t-25 82t-8 77.5q0 60 21 126
t66.5 121.5t117 92t172.5 36.5q102 0 173.5 -34.5t117 -89t66 -121.5t20.5 -131q0 -54 -18 -117.5t-59 -119t-108 -95t-165 -44.5z" />
    <glyph glyph-name="R" unicode="R" horiz-adv-x="772" 
d="M761 82q0 -10 -1.5 -26t-10 -31.5t-27.5 -27t-53 -11.5q-32 0 -57 15.5t-46 41.5t-39 61t-36 73q-14 29 -25.5 53.5t-29.5 47.5q-33 42 -73.5 62t-97.5 20v-283q0 -24 12.5 -35t41.5 -11h45v-31h-294v31h43q30 0 43 11t13 35v569q0 31 -13.5 38.5t-42.5 7.5h-43v31h120
q45 0 100.5 5.5t106.5 5.5q85 0 138.5 -17t83 -43.5t40 -59t10.5 -63.5q0 -48 -20.5 -84t-54 -60t-77.5 -36t-91 -12q-5 0 -10 0.5t-10 0.5v-4q40 -15 71.5 -35t55.5 -42t41.5 -44.5t29.5 -41.5q15 -26 28 -52.5t24 -52.5q4 -9 9 -18.5t11.5 -18t14 -14t15.5 -5.5
q17 0 21.5 17.5t4.5 32.5h29zM564 544q0 82 -48 120t-130 38q-29 0 -62 -6t-59 -17v-283l47 -5q20 -2 37 -3t37 -1q39 0 72 11t56.5 31.5t36.5 49.5t13 65z" />
    <glyph glyph-name="S" unicode="S" horiz-adv-x="611" 
d="M561 200q0 -44 -15 -82.5t-44 -67.5t-73 -46t-101 -18q-11 0 -31.5 1t-47.5 6t-60.5 14.5t-71.5 27.5l2 -35h-37l-12 187h36l3 -35q16 -27 40.5 -51.5t53.5 -43t61 -29t63 -10.5q37 0 66 11t49 30t31 43t11 50q0 45 -20.5 71t-50.5 45l-187 116q-22 14 -47.5 31t-47 39
t-35.5 49t-14 61t10.5 65.5t36 56t67.5 39t106 14.5q60 0 106.5 -14.5t78.5 -31.5l-2 30h37l6 -185h-36l-2 33q-2 18 -18 41.5t-41 45t-57.5 36.5t-68.5 15q-41 0 -67.5 -9.5t-42.5 -25t-22.5 -35t-6.5 -39.5q0 -17 6.5 -31.5t15.5 -25.5t19.5 -19t18.5 -13l216 -131
q17 -11 38 -25t39 -35t30 -50.5t12 -69.5z" />
    <glyph glyph-name="T" unicode="T" horiz-adv-x="672" 
d="M644 723l9 -162h-35l-9 45q-23 44 -65 64t-110 20q-32 0 -40 -8t-8 -18v-587q0 -25 9.5 -35.5t46.5 -10.5h43v-31h-294v31h44q35 0 45 10t10 36v587q0 10 -8 18t-40 8q-68 0 -110 -20t-65 -64l-9 -45h-35l9 162h612z" />
    <glyph glyph-name="U" unicode="U" horiz-adv-x="881" 
d="M777 692q-9 -6 -17 -16t-14 -31t-10 -55.5t-4 -90.5v-175q0 -70 -12 -131.5t-42.5 -107.5t-83 -72.5t-132.5 -26.5q-73 0 -122.5 14.5t-82 38t-50.5 53t-26.5 58t-10 54t-1.5 41.5v401q0 25 -13.5 35.5t-42.5 10.5h-43v31h294v-31h-45q-26 0 -40 -10t-14 -36v-418
q0 -68 22 -109.5t53.5 -64t65 -29.5t57.5 -7q69 0 114.5 24.5t72 66.5t37 97.5t10.5 117.5v175q0 63 -5 100t-12 57t-14 27t-11 9h-56v31h232v-31h-54z" />
    <glyph glyph-name="V" unicode="V" horiz-adv-x="782" 
d="M736 692q-3 -2 -9.5 -8t-15.5 -19t-21.5 -34.5t-27.5 -54.5q-11 -25 -21 -47t-24.5 -55.5t-37.5 -86t-60 -137.5l-115 -264h-31l-261 655q-4 10 -9 19.5t-14 16.5t-25 11t-42 4v31h259v-31h-43q-16 0 -25 -3.5t-9 -17.5q0 -7 3 -16t5 -14l212 -529l155 366q13 31 24 60.5
t19.5 54.5t13 44t4.5 29q0 17 -10 21.5t-20 4.5h-50v31h215v-31h-39z" />
    <glyph glyph-name="W" unicode="W" horiz-adv-x="1118" 
d="M1061 692q-14 -14 -27 -30t-29 -44.5t-36 -74.5t-48 -118l-171 -439h-29l-160 469l-185 -469h-29l-226 655q-6 19 -15 29t-18.5 15t-20.5 6t-21 1h-24v31h278v-31h-51q-21 0 -28.5 -6t-7.5 -17q0 -8 1.5 -15.5t3.5 -12.5l178 -517l148 377l-45 140q-6 18 -15 28t-19.5 15
t-20.5 6.5t-16 1.5h-32v31h285v-31h-60q-20 0 -26 -6t-6 -17q0 -5 2 -15.5t5 -19.5l174 -510l124 324q13 33 23.5 66t18.5 61.5t12.5 52t4.5 37.5q0 19 -11 23t-23 4h-51v31h242v-31h-49z" />
    <glyph glyph-name="X" unicode="X" horiz-adv-x="815" 
d="M488 0v31h48q11 0 23 3t12 15q0 5 -4.5 12.5t-9.5 15.5l-164 240q-87 -114 -133 -178.5t-46 -87.5q0 -14 9.5 -17t14.5 -3h57v-31h-246v31h43q7 4 23 15.5t48 44t83.5 92.5t128.5 162l-174 262q-17 25 -29.5 41t-26.5 26t-31 14t-42 4v31h288v-31h-64q-8 0 -15 -2t-7 -13
q0 -8 5 -16.5t12 -18.5l145 -217q8 10 27 36t40.5 57t41.5 61t31 47q13 20 16 30.5t3 17.5q0 14 -10 16t-28 2h-49v31h258v-31h-43q-26 -12 -47 -29t-40 -37t-37 -43.5t-39 -48.5q-30 -38 -56.5 -72t-48.5 -64l172 -257q10 -14 22 -33t28.5 -36t38 -29t50.5 -12h19v-31h-297
z" />
    <glyph glyph-name="Y" unicode="Y" horiz-adv-x="772" 
d="M721 692q-21 0 -40.5 -18.5t-48.5 -63.5l-200 -310v-223q0 -24 12.5 -35t43.5 -11h43v-31h-294v31h44q31 0 43 11.5t12 34.5v214l-202 342q-6 10 -13.5 20.5t-19.5 19t-31 14t-48 5.5v31h281v-31h-53q-11 0 -20 -3t-9 -12q0 -5 3 -12t6 -12l188 -320l83 133
q19 30 35.5 60.5t29.5 55.5t20 47t7 42q0 21 -40 21h-39v31h240v-31h-33z" />
    <glyph glyph-name="Z" unicode="Z" horiz-adv-x="674" 
d="M233 33q30 0 65.5 1.5t71 4t69.5 7t61 10.5q42 9 63.5 29.5t31.5 45.5l6 31h35l-33 -162h-533v29l419 661h-103q-68 0 -114 -9t-74.5 -21t-42.5 -24t-18 -18l-5 -45h-33l13 150h491v-32l-420 -658h50z" />
    <glyph glyph-name="bracketleft" unicode="[" horiz-adv-x="411" 
d="M70 -166v924h230v-23h-88q-17 0 -26 -4.5t-13.5 -10.5t-5.5 -13t-1 -13v-791q0 -6 1 -14t5.5 -14.5t13.5 -11.5t26 -5h88v-24h-230z" />
    <glyph glyph-name="backslash" unicode="\" horiz-adv-x="708" 
d="M634 0l-620 729h58l621 -729h-59z" />
    <glyph glyph-name="bracketright" unicode="]" horiz-adv-x="411" 
d="M110 -166v24h88q18 0 27.5 4.5t14 10.5t5 13t0.5 12v792q0 6 -0.5 14t-5 14.5t-14 11.5t-27.5 5h-88v23h231v-924h-231z" />
    <glyph glyph-name="asciicircum" unicode="^" horiz-adv-x="379" 
d="M274 557l-84 85l-85 -85h-87l172 172l172 -172h-88z" />
    <glyph glyph-name="underscore" unicode="_" horiz-adv-x="604" 
d="M0 -204v50h604v-50h-604z" />
    <glyph glyph-name="grave" unicode="`" horiz-adv-x="352" 
d="M249 559l-145 90q-26 17 -36 27t-10 23q0 17 9 26.5t24 9.5q14 0 25.5 -6.5t34.5 -29.5l139 -140h-41z" />
    <glyph glyph-name="a" unicode="a" horiz-adv-x="509" 
d="M498 60q-14 -35 -36 -53t-58 -18q-19 0 -32.5 7.5t-21.5 19.5t-12 28t-4 34q-28 -30 -52.5 -47.5t-46.5 -26.5t-41 -12t-35 -3q-24 0 -45.5 8.5t-37 23t-24.5 33.5t-9 41q0 48 24.5 79t63.5 51.5t87.5 33.5t96.5 24l19 4v44q0 30 -5 55t-18.5 42t-36.5 26.5t-59 9.5
q-7 0 -17.5 -2t-20.5 -6t-17 -11.5t-7 -17.5q0 -9 3 -17t3 -19q0 -20 -12.5 -33.5t-36.5 -13.5q-20 0 -30.5 14.5t-10.5 36.5q0 18 12 36t33 31.5t50 22t64 8.5q36 0 69.5 -7t59.5 -25.5t41.5 -50t15.5 -79.5v-261q0 -11 3.5 -26t16.5 -15q12 0 22 8t19 33zM334 263
q-40 -8 -76 -19t-63.5 -29t-44 -43.5t-16.5 -62.5q0 -38 21 -57t49 -19q19 0 38.5 8.5t36.5 20.5t31.5 26t23.5 25v150z" />
    <glyph glyph-name="b" unicode="b" horiz-adv-x="587" 
d="M550 255q0 -71 -21.5 -121.5t-56.5 -82.5t-79.5 -47t-89.5 -15q-32 0 -72 12.5t-72 38.5l-26 -51h-23v704q0 11 -1.5 17.5t-8.5 9.5t-21.5 4.5t-41.5 1.5v20q45 5 80 15t73 27v-334q15 11 32.5 18.5t35.5 12t34 6.5t28 2q46 0 88 -14.5t73.5 -44.5t50 -74.5t18.5 -104.5z
M459 246q0 39 -9.5 76.5t-29.5 66.5t-51.5 47t-75.5 18q-35 0 -60.5 -11t-42.5 -25v-301q0 -27 10.5 -45.5t27 -30.5t37 -17.5t40.5 -5.5q29 0 57 13.5t49.5 41.5t34.5 71t13 102z" />
    <glyph glyph-name="c" unicode="c" horiz-adv-x="470" 
d="M448 135q-6 -19 -19.5 -44.5t-37 -48t-57.5 -38t-81 -15.5q-46 0 -85.5 16.5t-68.5 48t-45.5 77t-16.5 104.5q0 51 15.5 98t46 82.5t75.5 56.5t104 21q72 0 108.5 -26.5t36.5 -62.5q0 -29 -12.5 -41t-31.5 -12q-20 0 -35.5 10.5t-15.5 41.5q0 7 1.5 15t1.5 15
q0 12 -13.5 21.5t-43.5 9.5q-27 0 -53 -11t-47 -37.5t-33.5 -70.5t-12.5 -110q0 -55 12 -94.5t32.5 -65t48 -37.5t57.5 -12q24 0 47 9.5t42.5 25.5t33.5 37t22 44l25 -7v0z" />
    <glyph glyph-name="d" unicode="d" horiz-adv-x="591" 
d="M403 410q-13 29 -43.5 41.5t-63.5 12.5q-79 0 -120.5 -55.5t-41.5 -164.5q0 -68 15.5 -110.5t39.5 -66.5t52.5 -32.5t54.5 -8.5q29 0 49.5 7.5t33 18t18.5 21t6 16.5v321zM483 119q0 -50 20.5 -72t50.5 -22h4v-25h-120q-7 8 -14.5 16t-13.5 24q-25 -18 -58.5 -34.5
t-85.5 -16.5q-30 0 -69 11t-73 38.5t-57.5 75.5t-23.5 122q0 58 19.5 105.5t53 81t79 51.5t96.5 19q53 0 112 -20v216q0 9 -2 15.5t-9.5 11t-22 6.5t-39.5 2v21q49 8 89.5 20t63.5 23v-669z" />
    <glyph glyph-name="e" unicode="e" horiz-adv-x="477" 
d="M128 272q0 -80 14.5 -128.5t36 -74.5t48 -34.5t50.5 -8.5q41 0 79.5 25.5t64.5 71.5l22 -11q-28 -53 -75.5 -88t-118.5 -35q-34 0 -71 12t-68.5 40.5t-52 76.5t-20.5 120q0 58 15 105t43.5 80.5t69 51.5t91.5 18q49 0 84.5 -19t59 -49t34.5 -68t11 -77v-8h-317zM358 302
q0 32 -6.5 61t-19.5 51.5t-34 36t-49 13.5q-53 0 -84 -38t-37 -124h230z" />
    <glyph glyph-name="f" unicode="f" horiz-adv-x="378" 
d="M378 724q0 -18 -10 -32.5t-33 -14.5q-42 0 -48 46q-2 10 -4 18.5t-16 8.5q-23 0 -35.5 -24t-19.5 -59.5t-8.5 -76.5t-1.5 -75v-34h133v-35h-133v-387q0 -20 7 -27.5t31 -7.5h41v-24h-238v24h41q24 0 31 7.5t7 27.5v387h-79v35h79q0 78 15 135t40.5 94t58.5 54.5t70 17.5
q33 0 52.5 -17.5t19.5 -40.5z" />
    <glyph glyph-name="g" unicode="g" horiz-adv-x="554" 
d="M510 507q0 -20 -12 -29t-27 -9q-11 0 -17 3.5t-14 11.5q-6 6 -8.5 10.5t-13.5 4.5q-8 0 -17 -11t-15 -22q40 -18 65.5 -54.5t25.5 -87.5t-22 -85t-55 -54.5t-70.5 -29t-68.5 -8.5q-9 0 -20 0.5t-22 0.5q-23 0 -37.5 -3t-22 -8t-10 -11t-2.5 -12q0 -13 7.5 -21.5
t19.5 -13.5t26 -8t28 -5q1 0 3 -0.5t10.5 -2t26.5 -4.5t51 -9q32 -6 65 -14t59.5 -22.5t43.5 -37t17 -56.5q0 -25 -10.5 -50.5t-37.5 -46.5t-74 -34.5t-121 -13.5q-77 0 -125 11.5t-75 29.5t-36.5 40t-9.5 43q0 43 31.5 72.5t100.5 43.5q-8 4 -18.5 10t-19.5 15t-15.5 20.5
t-6.5 26.5q0 32 26.5 51.5t61.5 24.5q-63 20 -94.5 60.5t-31.5 100.5q0 37 15 68.5t43 53.5t67.5 34.5t88.5 12.5q38 0 59 -5t43 -13l2 4q6 10 14 22t19 22.5t27 17t38 6.5q14 0 29.5 -9.5t15.5 -30.5zM389 322q0 40 -11 67.5t-29 44t-41.5 23.5t-48.5 7q-38 0 -61.5 -14.5
t-37 -36.5t-18.5 -48t-5 -50q0 -12 4 -35.5t17 -46.5t37 -40t65 -17q33 0 57 12.5t40 33t24 47t8 53.5zM437 -107q0 12 -5.5 24t-19 23.5t-37.5 21.5t-60 17l-138 25q-18 -4 -35.5 -12.5t-31.5 -21t-22.5 -28.5t-8.5 -36q0 -21 8.5 -40t29.5 -33.5t57 -23.5t91 -9
q91 0 131.5 28t40.5 65z" />
    <glyph glyph-name="h" unicode="h" horiz-adv-x="592" 
d="M110 689q0 9 -2 15.5t-9.5 11t-22 6.5t-39.5 2v21q49 8 89.5 20t63.5 23v-338q45 26 76 34.5t59 8.5q55 0 87 -18.5t47.5 -46.5t19.5 -60.5t4 -60.5v-248q0 -19 7 -27t31 -8h41v-24h-237v24h40q24 0 31 8t7 27v263q0 49 -11.5 75.5t-29.5 39t-38.5 15t-38.5 2.5
t-43.5 -7.5t-51.5 -26.5v-361q0 -21 6.5 -28t31.5 -7h37v-24h-234v24h40q23 0 31 7t8 28v630v0z" />
    <glyph glyph-name="i" unicode="i" horiz-adv-x="300" 
d="M209 657q0 -21 -15.5 -38t-40.5 -17t-40 17t-15 38q0 22 15 39t40 17t40.5 -17t15.5 -39zM31 0v24h41q24 0 31 7.5t7 27.5v336q0 10 -2 16.5t-9.5 10.5t-22 5.5t-39.5 1.5v21q49 8 89.5 20t63.5 23v-434q0 -19 7 -27t31 -8h41v-24h-238z" />
    <glyph glyph-name="j" unicode="j" horiz-adv-x="378" 
d="M261 657q0 -21 -15.5 -38t-40.5 -17t-40 17t-15 38q0 22 15 39t40 17t40.5 -17t15.5 -39zM180 395q0 10 -2 16.5t-9.5 10.5t-22 5.5t-39.5 1.5v21q49 8 89.5 20t63.5 23v-493q0 -61 -17 -104t-43.5 -70t-59 -39t-62.5 -12q-38 0 -58 20.5t-20 49.5q0 17 11.5 32.5
t34.5 15.5q21 0 32 -12t11 -29q0 -8 -1.5 -15t-1.5 -12q0 -14 6.5 -18t14.5 -4t20.5 2t24 16t20 44t8.5 87v443z" />
    <glyph glyph-name="k" unicode="k" horiz-adv-x="573" 
d="M110 689q0 9 -2 15.5t-9.5 11t-22 6.5t-39.5 2v21q49 8 89.5 20t63.5 23v-593q31 36 54.5 63.5t41 49t30.5 38.5t24 32q18 25 22.5 35t4.5 22q0 22 -44 22h-20v24h210v-24h-21q-9 0 -19.5 -3.5t-30 -20t-52.5 -50t-87 -93.5l177 -230q20 -25 34.5 -30.5t31.5 -5.5h14v-24
h-237v24h38q14 0 23.5 3t9.5 12q0 6 -2 10.5t-7 10.5l-127 172l-68 -74v-99q0 -21 7 -28t31 -7h41v-24h-238v24h41q24 0 31 6.5t7 28.5v630v0z" />
    <glyph glyph-name="l" unicode="l" horiz-adv-x="304" 
d="M110 689q0 9 -2 15.5t-9.5 11t-22 6.5t-39.5 2v21q49 8 89.5 20t63.5 23v-729q0 -19 6.5 -27t30.5 -8h42v-24h-238v24h41q21 0 29.5 7.5t8.5 27.5v630v0z" />
    <glyph glyph-name="m" unicode="m" horiz-adv-x="848" 
d="M309 493q29 0 50 -6.5t36 -15.5t23.5 -18t13.5 -15q28 23 65.5 39t82.5 16q55 0 86.5 -20.5t48 -49.5t21 -61t4.5 -56v-247q0 -18 6.5 -26.5t31.5 -8.5h28v-24h-224v24h40q23 0 30.5 8t7.5 27v247q0 17 -3 42.5t-14.5 49.5t-35 41t-64.5 17q-22 0 -48 -8t-49 -28
q7 -12 13 -31t6 -56v-274q0 -18 6.5 -26.5t31.5 -8.5h28v-24h-224v24h40q23 0 30.5 8t7.5 27v274q0 37 -10 60.5t-25.5 37.5t-34.5 19.5t-37 5.5q-24 0 -45 -8t-43 -23v-366q0 -18 6.5 -26.5t31.5 -8.5h28v-24h-225v24h40q23 0 31 8t8 27v336q0 10 -2 16.5t-9.5 10.5
t-22 5.5t-39.5 1.5v21q49 8 89.5 20t63.5 23v-41q36 26 68.5 33.5t50.5 7.5z" />
    <glyph glyph-name="n" unicode="n" horiz-adv-x="592" 
d="M325 0v24h40q24 0 31 8t7 27v263q0 48 -11.5 74.5t-28.5 39.5t-36 15.5t-35 2.5q-27 0 -52 -8.5t-50 -25.5v-361q0 -21 6.5 -28t31.5 -7h37v-24h-234v24h40q23 0 31 7t8 28v336q0 10 -2 16.5t-9.5 10.5t-22 5.5t-39.5 1.5v21q49 8 89.5 20t63.5 23v-43q45 26 76 34.5
t59 8.5q55 0 87 -18.5t47.5 -46.5t19.5 -60.5t4 -60.5v-248q0 -19 7 -27t31 -8h41v-24h-237z" />
    <glyph glyph-name="o" unicode="o" horiz-adv-x="543" 
d="M505 240q0 -57 -17.5 -103t-49 -79t-74 -51t-93.5 -18q-50 0 -93 17.5t-74.5 50.5t-49 79.5t-17.5 103.5q0 63 17.5 110.5t49 79t74.5 47.5t93 16q51 0 93.5 -15t74 -45.5t49 -78.5t17.5 -114zM414 240q0 65 -12 108t-32 69t-46 36.5t-53 10.5t-53 -10.5t-46 -36.5
t-32 -69t-12 -108t12 -107.5t32 -68t46 -36t53 -10.5t53 10.5t46 36t32 68t12 107.5z" />
    <glyph glyph-name="p" unicode="p" horiz-adv-x="586" 
d="M452 239q0 57 -12 97.5t-34 67t-51.5 39t-64.5 12.5q-17 0 -33.5 -5t-30 -12t-23 -14.5t-13.5 -11.5v-329q20 -38 46.5 -51.5t63.5 -13.5q69 0 110.5 57.5t41.5 163.5zM110 395q0 10 -2 16.5t-9.5 10.5t-22 5.5t-39.5 1.5v21q49 8 89.5 20t63.5 23v-50q7 8 21 16.5t32 16
t38.5 12.5t41.5 5q36 0 75 -12t71 -41t53 -77.5t21 -120.5q0 -51 -15.5 -97t-44.5 -80.5t-72.5 -54.5t-98.5 -21q-32 0 -61 6t-61 24v-186q0 -21 6.5 -28t31.5 -7h37v-23h-234v23h40q23 0 31 7t8 28v562z" />
    <glyph glyph-name="q" unicode="q" horiz-adv-x="577" 
d="M318 -225v23h40q23 0 31 7t8 28v185q-4 -3 -14.5 -7.5t-26 -9.5t-36 -8.5t-45.5 -3.5q-36 0 -77 10.5t-75.5 37.5t-57 74t-22.5 120q0 64 19 113t52 82t77 50t93 17q51 0 81.5 -12.5t59.5 -37.5l28 50h24v-660q0 -21 6.5 -28t31.5 -7h37v-23h-234zM397 366q0 7 -2 23.5
t-12.5 33t-33.5 29t-65 12.5q-39 0 -67.5 -17.5t-47 -48.5t-27 -72t-8.5 -88q0 -59 14.5 -100t38.5 -66.5t54.5 -37t62.5 -11.5q23 0 46.5 5.5t46.5 19.5v318z" />
    <glyph glyph-name="r" unicode="r" horiz-adv-x="415" 
d="M110 395q0 10 -2 16.5t-9.5 10.5t-22 5.5t-39.5 1.5v21q49 8 89.5 20t63.5 23v-93q9 17 20.5 34t26.5 30t34 21t42 8q42 0 60.5 -20.5t18.5 -44.5q0 -27 -15.5 -38.5t-31.5 -11.5q-17 0 -29.5 10t-12.5 27q0 5 1 9.5t1 7.5q0 12 -6.5 16.5t-20.5 4.5q-19 0 -35 -16.5
t-28 -40.5t-18.5 -51t-6.5 -48v-238q0 -20 7 -27.5t32 -7.5h40v-24h-238v24h40q25 0 32 7.5t7 27.5v336v0z" />
    <glyph glyph-name="s" unicode="s" horiz-adv-x="413" 
d="M372 131q0 -29 -11.5 -55t-32.5 -45.5t-51.5 -30.5t-69.5 -11q-32 0 -69 8.5t-71 25.5v-23h-24l-5 141h28q4 -24 18.5 -46t35 -39t44.5 -27.5t48 -10.5q42 0 65 25.5t23 58.5q0 19 -7 33.5t-18.5 25.5t-25 19.5t-26.5 15.5q-17 9 -33.5 19t-33.5 18q-56 29 -79 59t-23 74
q0 32 13.5 56t34.5 39.5t46 23.5t49 8q35 0 63 -7t59 -24v19h25l5 -141h-27l-3 24q-5 12 -13.5 29.5t-22.5 33t-35 26.5t-49 11q-36 0 -53 -19.5t-17 -44.5q0 -29 12 -43.5t28 -24.5q32 -22 66 -38q31 -15 56.5 -30t43.5 -33t27.5 -42t9.5 -58z" />
    <glyph glyph-name="t" unicode="t" horiz-adv-x="406" 
d="M382 113q-6 -21 -17.5 -43t-29.5 -40t-43 -29.5t-57 -11.5q-69 0 -104.5 39t-35.5 110v317h-77v28q37 2 62.5 23t40.5 52t21.5 67.5t6.5 69.5v8h26v-220h18q59 0 95.5 6t45.5 8l4 -42h-163v-334q0 -28 6.5 -46.5t17 -29t24.5 -15t29 -4.5q12 0 26.5 3.5t29.5 13.5t28 29
t22 49l24 -8v0z" />
    <glyph glyph-name="u" unicode="u" horiz-adv-x="586" 
d="M397 0v44q-26 -20 -49.5 -31t-43 -16.5t-34 -6.5t-21.5 -1q-43 0 -70.5 14t-43.5 36.5t-22 49t-6 52.5v253q0 9 -2 15.5t-9.5 11t-22 6.5t-39.5 2v21q49 8 89.5 20t63.5 23v-352q0 -39 10.5 -61.5t26 -33t34 -13t33.5 -2.5q29 0 57 13t49 34v316q0 9 -2 15.5t-9.5 11
t-22 6.5t-39.5 2v21q49 8 89.5 20t63.5 23v-435q0 -17 7 -26t32 -9h40v-23h-159z" />
    <glyph glyph-name="v" unicode="v" horiz-adv-x="565" 
d="M503 457q-10 -10 -19.5 -21t-20.5 -31t-26 -52.5t-36 -84.5l-113 -279h-20l-175 426q-7 17 -17.5 29.5t-32.5 12.5h-25v24h229v-24h-36q-21 0 -28 -7.5t-7 -16.5q0 -12 10 -35l119 -292l64 162q22 56 32 96.5t10 59.5q0 23 -9.5 28t-29.5 5h-24v24h192v-24h-37z" />
    <glyph glyph-name="w" unicode="w" horiz-adv-x="785" 
d="M735 457q-8 -6 -16.5 -17t-20.5 -33t-28 -59t-38 -95l-101 -264h-21l-119 316l-117 -316h-25l-169 434q-8 22 -23 28t-27 6h-17v24h196v-24h-9q-16 0 -28.5 -2.5t-12.5 -16.5q0 -6 3 -15l125 -323l91 237l-32 86q-9 24 -23 29t-30 5h-12v24h194v-24h-20q-20 0 -27 -3
t-7 -11q0 -5 1.5 -10t3.5 -10l120 -323l65 175q25 66 36 105t11 58q0 11 -4.5 15t-21.5 4h-33v24h170v-24h-34z" />
    <glyph glyph-name="x" unicode="x" horiz-adv-x="577" 
d="M315 0v24h43q13 0 21.5 4t8.5 14q0 11 -9 23l-102 146q-28 -35 -48 -65.5t-33 -49.5q-21 -32 -21 -49q0 -8 5 -12.5t12 -7t15 -3t14 -0.5h22v-24h-211v24h30q17 0 33.5 14t47.5 48q22 24 44.5 51t44.5 55l31 40l-135 175q-17 23 -34.5 36.5t-52.5 13.5v24h224v-24h-44
q-19 0 -19 -10q0 -9 10 -22l98 -135q18 23 34 45.5t28.5 42t20 35.5t7.5 28q0 11 -6.5 13.5t-14.5 2.5h-38v24h195v-24h-21q-11 0 -21 -4t-22 -13.5t-27 -25.5t-36 -41q-6 -7 -14 -17t-17 -21t-18.5 -23t-18.5 -22l-17 -20l144 -205q11 -15 32.5 -28t56.5 -13v-24h-242z" />
    <glyph glyph-name="y" unicode="y" horiz-adv-x="563" 
d="M520 457q-17 0 -25.5 -8t-16.5 -22q-10 -19 -17.5 -36t-14 -34.5t-13.5 -37t-16 -43.5q-12 -31 -24.5 -63t-24.5 -65q-16 -42 -32.5 -85.5t-34.5 -85.5q-16 -39 -33.5 -75.5t-39 -64.5t-49.5 -45t-66 -17t-61 18.5t-23 50.5q0 23 13 35t30 14q16 1 31.5 -7t17.5 -31
q2 -24 8 -33t19 -9q29 0 63 48.5t60 130.5l-181 428q-6 14 -15.5 25.5t-39.5 11.5h-21v24h218v-24h-37q-26 0 -26 -18q0 -5 1 -9.5t3 -9.5l142 -335q36 97 56.5 160t31 100t13 54t2.5 23v9t-2.5 11.5t-8.5 10t-17 4.5h-33v24h180v-24h-17z" />
    <glyph glyph-name="z" unicode="z" horiz-adv-x="446" 
d="M406 0h-374v23l288 432q-43 0 -80.5 -2t-67.5 -8t-51 -17t-31 -30l-5 -46h-28l7 129h349v-21l-285 -434h49q31 0 65.5 3.5t64.5 11.5t50.5 21.5t25.5 33.5l3 32h28z" />
    <glyph glyph-name="braceleft" unicode="{" horiz-adv-x="370" 
d="M308 -208q-60 8 -93 32.5t-48 53t-17.5 55t-2.5 38.5q0 11 1 26.5t2.5 32t2.5 32t1 26.5q0 17 -2 47.5t-11.5 60t-29.5 51.5t-57 22v24q36 0 56 22t30 51.5t12 60t2 47.5q0 11 -1 26.5t-2.5 32t-2.5 32t-1 26.5q0 12 2.5 38.5t17.5 55t48 53t93 32.5l4 -21
q-16 -4 -31 -11t-26.5 -19.5t-18.5 -31.5t-7 -46q0 -39 5.5 -78.5t5.5 -81.5q0 -41 -7 -71t-22.5 -52.5t-40 -41t-60.5 -36.5q36 -18 60.5 -35.5t40 -40t22.5 -52.5t7 -71q0 -42 -5.5 -81.5t-5.5 -78.5q0 -27 7 -46t18.5 -31.5t26.5 -19.5t31 -11z" />
    <glyph glyph-name="bar" unicode="|" horiz-adv-x="166" 
d="M58 -204v1097h49v-1097h-49z" />
    <glyph glyph-name="braceright" unicode="}" horiz-adv-x="370" 
d="M54 -187q16 4 31 11t26.5 19.5t18.5 31.5t7 46q0 39 -5.5 78.5t-5.5 81.5q0 41 7 71t22.5 52.5t40 40t60.5 35.5q-36 18 -60.5 36.5t-40 41t-22.5 52.5t-7 71q0 42 5.5 81.5t5.5 78.5q0 27 -7 46t-18.5 31.5t-26.5 19.5t-31 11l4 21q60 -8 93 -32.5t48 -53t17.5 -55
t2.5 -38.5q0 -11 -1 -26.5t-2.5 -32t-2.5 -32t-1 -26.5q0 -17 2 -47.5t12 -60t30 -51.5t56 -22v-24q-37 0 -57 -22t-29.5 -51.5t-11.5 -60t-2 -47.5q0 -11 1 -26.5t2.5 -32t2.5 -32t1 -26.5q0 -12 -2.5 -38.5t-17.5 -55t-48 -53t-93 -32.5z" />
    <glyph glyph-name="asciitilde" unicode="~" horiz-adv-x="551" 
d="M513 725q-7 -22 -20 -43.5t-31 -38t-41 -26.5t-49 -10q-29 0 -54 9t-48 17q-26 9 -42 15.5t-26.5 10.5t-19 6t-18.5 2q-29 0 -48.5 -10t-38.5 -43h-22q7 22 20 43.5t31 38t41 26.5t49 10q29 0 54 -9t48 -17q32 -11 58.5 -22.5t47.5 -11.5q29 0 48.5 10t38.5 43h22v0z" />
    <glyph glyph-name="uni00A0" unicode="&#xa0;" horiz-adv-x="250" 
 />
    <glyph glyph-name="exclamdown" unicode="&#xa1;" horiz-adv-x="296" 
d="M93 -203q4 41 8.5 72t9 65.5t10 79t10.5 112.5q3 35 5 69.5t4 66t3 58.5t2 45h11l2.5 -45t3 -58.5t4 -66.5t5.5 -69q6 -68 10.5 -113.5t8.5 -81t8.5 -66t9.5 -68.5q-3 -11 -17 -21t-40 -10q-24 0 -39 10t-19 21zM96 465q0 22 15 38t40 16q22 0 38.5 -15t16.5 -39
t-16.5 -40t-38.5 -16q-25 0 -40 16.5t-15 39.5z" />
    <glyph glyph-name="cent" unicode="&#xa2;" 
d="M486 135q-6 -19 -18 -44.5t-34.5 -48t-57 -38t-85.5 -15.5q-34 0 -64 9l-20 -83l-30 7l21 87q-56 26 -89.5 83t-33.5 143q0 46 14 92.5t44 83t76 59.5t110 23l23 94l27 -7l-22 -88q53 -8 83.5 -32t30.5 -56q0 -19 -12 -36t-38 -17q-16 0 -30.5 12t-14.5 40q0 7 1.5 15
t1.5 15q0 13 -4.5 20t-23.5 12q-29 -116 -51 -208q-10 -39 -18.5 -76.5t-16.5 -66.5q-9 -34 -16 -65q35 -26 81 -26q27 0 51 10t42.5 26.5t32 38t20.5 43.5zM313 470q-66 0 -106.5 -59t-40.5 -176q0 -56 13 -96.5t35 -66.5q7 29 15 62q7 28 15.5 63.5t18.5 73.5
q22 87 50 199z" />
    <glyph glyph-name="sterling" unicode="&#xa3;" 
d="M511 151q0 -29 -5.5 -52t-14 -40t-18 -28.5t-18.5 -18.5q-19 -14 -40.5 -19t-56.5 -5q-41 0 -83 13.5t-94 22.5q-11 2 -22 3t-22 1q-28 0 -59 -6.5t-66 -21.5v32q12 2 26 9.5t28 22.5t26.5 38.5t20.5 56.5q6 23 10 45.5t7 46.5t5 51.5t4 59.5h-107v32h110l11 105
q6 55 21.5 99.5t39.5 75.5t56.5 48t71.5 17q57 0 91.5 -27t34.5 -70q0 -23 -12.5 -42t-38.5 -19q-24 0 -34 13.5t-10 27.5q0 24 16 36q8 5 15.5 10t7.5 10q0 13 -12.5 22.5t-45.5 9.5q-44 0 -74 -48t-39 -138l-13 -130h150v-31h-154l-8 -75q-3 -28 -14.5 -61.5t-29 -66
t-40.5 -61t-50 -46.5l2 -3l30 11q20 7 34.5 11.5t27 7.5t24 4.5t24.5 1.5q40 0 69 -8t51 -17t40.5 -17t37.5 -8q7 0 18 5.5t21.5 18.5t18.5 35.5t8 55.5h23v0z" />
    <glyph glyph-name="currency" unicode="&#xa4;" horiz-adv-x="622" 
d="M541 55l-84 86q-37 -30 -76.5 -42.5t-73.5 -12.5t-73.5 12.5t-76.5 42.5l-84 -86l-33 34l85 84q-30 37 -42.5 76.5t-12.5 73.5t12.5 73.5t42.5 76.5l-85 84l33 34l84 -86q37 30 76.5 42.5t73.5 12.5t73.5 -12.5t76.5 -42.5l84 86l34 -34l-86 -84q30 -37 42.5 -76.5
t12.5 -73.5t-12.5 -73.5t-42.5 -76.5l86 -84zM496 323q0 40 -15 75.5t-40.5 61.5t-60 41.5t-73.5 15.5t-73.5 -15.5t-60 -41.5t-40.5 -61.5t-15 -75.5t15 -75.5t40.5 -61.5t60 -41.5t73.5 -15.5t73.5 15.5t60 41.5t40.5 61.5t15 75.5z" />
    <glyph glyph-name="yen" unicode="&#xa5;" 
d="M519 692q-9 0 -18 -6t-21.5 -24t-29.5 -51.5t-41 -88.5l-96 -222v-18h107v-32h-107v-54h107v-32h-107v-87q0 -24 12.5 -35t43.5 -11h33v-31h-275v31h34q31 0 43 11.5t12 34.5v87h-103v32h103v54h-103v32h103v9l-140 348q-5 11 -9.5 20.5t-11.5 17t-18 11.5t-28 4v31h214
v-31h-29q-11 0 -18 -3t-7 -12q0 -11 5.5 -29t15.5 -43l104 -272l67 177q24 64 36 97.5t12 55.5q0 11 -10 20t-30 9h-39v31h210v-31h-21z" />
    <glyph glyph-name="brokenbar" unicode="&#xa6;" horiz-adv-x="190" 
d="M71 399v349h49v-349h-49zM71 -105v349h49v-349h-49z" />
    <glyph glyph-name="section" unicode="&#xa7;" horiz-adv-x="560" 
d="M502 242q0 -34 -11 -62t-28 -50.5t-36.5 -40t-37.5 -29.5q14 -17 22 -32.5t11.5 -28.5t4.5 -22.5t1 -15.5q0 -26 -11 -54t-33.5 -50.5t-56 -37t-77.5 -14.5q-61 0 -100.5 25t-39.5 65q0 29 15 41.5t35 12.5q16 0 26 -5t15.5 -12.5t7.5 -15t2 -13.5q0 -8 -0.5 -13.5
t-0.5 -13.5q0 -7 2 -14.5t8.5 -14t20 -10.5t37.5 -4q32 0 57.5 24t25.5 67q0 24 -9.5 46t-29.5 38l-178 139q-17 13 -32.5 28t-27.5 33.5t-19.5 42t-7.5 53.5q0 58 31 102t75 78q-20 22 -26.5 43t-6.5 56q0 26 11 54t33.5 50.5t56 37t77.5 14.5q61 0 100.5 -25t39.5 -65
q0 -29 -15 -41.5t-35 -12.5q-16 0 -26 5t-15.5 12.5t-7.5 15t-2 13.5q0 8 0.5 13.5t0.5 13.5q0 7 -2 14.5t-8.5 14t-20 10.5t-37.5 4q-32 0 -57.5 -24t-25.5 -67q0 -13 1.5 -25.5t7.5 -25.5t18 -27t33 -29l154 -115q31 -23 49 -44.5t27.5 -41.5t12 -37.5t2.5 -32.5zM439 201
q0 29 -16 62.5t-60 66.5l-181 137q-34 -24 -51.5 -58t-17.5 -69q0 -36 22.5 -66.5t64.5 -62.5l173 -133q35 24 50.5 58t15.5 65z" />
    <glyph glyph-name="dieresis" unicode="&#xa8;" horiz-adv-x="372" 
d="M338 650q0 -23 -15.5 -39t-39.5 -16t-40 16t-16 39q0 24 17 39.5t39 15.5t38.5 -15.5t16.5 -39.5zM149 650q0 -23 -16 -39t-40 -16t-40 16t-16 39q0 24 17 39.5t39 15.5t39 -15.5t17 -39.5z" />
    <glyph glyph-name="copyright" unicode="&#xa9;" horiz-adv-x="774" 
d="M751 350q0 -72 -27 -137.5t-76 -116t-116 -80.5t-146 -30t-146 30t-115.5 80.5t-75.5 116t-27 137.5t27 138t75.5 116.5t115.5 80.5t146 30t146 -30t116 -80.5t76 -116.5t27 -138zM708 350q0 70 -26.5 129t-71.5 101.5t-103 66.5t-121 24q-70 0 -129 -26.5t-101.5 -71
t-66.5 -102.5t-24 -121t24 -121t66.5 -102.5t101.5 -71t129 -26.5q63 0 121 24t103 66.5t71.5 101.5t26.5 129zM549 291q-1 -9 -6.5 -32.5t-22.5 -49t-50 -45t-88 -19.5q-45 0 -80.5 15.5t-60 42.5t-37.5 63.5t-13 78.5q0 40 12.5 77.5t36 66.5t58 47t78.5 18q39 0 70 -11
t59 -31l20 34h23v-149h-30q-3 27 -14 50.5t-28.5 41t-39.5 27t-47 9.5q-30 0 -54 -13.5t-40.5 -37.5t-25 -56.5t-8.5 -69.5q0 -28 7 -58.5t23 -56t40.5 -42t60.5 -16.5q34 0 58 11t39 28t23 37.5t10 39.5h27z" />
    <glyph glyph-name="ordfeminine" unicode="&#xaa;" horiz-adv-x="333" 
d="M319 455q-8 -26 -22.5 -37t-34.5 -11q-23 0 -35 14.5t-13 33.5q-32 -33 -57 -41t-45 -8q-31 0 -51.5 20t-20.5 48q0 30 16 49.5t41 32.5t56 21t61 15v23q0 9 -1.5 22.5t-9 26.5t-22.5 22.5t-42 9.5q-12 0 -18 -4.5t-6 -9.5q0 -7 2.5 -12.5t2.5 -11.5q0 -16 -9 -25t-24 -9
q-14 0 -22 10t-8 24q0 23 22.5 40t66.5 17q19 0 40.5 -4t40 -15.5t30.5 -31t12 -49.5v-156q0 -6 2.5 -14t10.5 -8q6 0 10 4t11 21zM214 572q-23 -5 -43 -11.5t-36 -17t-25 -25.5t-9 -36q0 -22 11.5 -33.5t26.5 -11.5q23 0 44.5 16t30.5 30v89z" />
    <glyph glyph-name="guillemotleft" unicode="&#xab;" horiz-adv-x="543" 
d="M438 68q-16 17 -32 31.5t-30 27.5q-55 51 -91.5 77t-48.5 34q12 8 48.5 34t91.5 77q14 13 30 27.5t32 31.5l17 -15q-6 -9 -16 -21.5t-21 -26.5l-22 -28t-20 -24q-14 -17 -24.5 -30.5t-21.5 -24.5q11 -11 21.5 -24.5t24.5 -30.5q9 -11 20 -24.5t22 -27.5t21 -26.5
t16 -21.5zM367 -11q-17 14 -30.5 25.5t-27.5 23.5q-31 26 -66 54t-70 55t-69.5 50.5t-64.5 40.5q30 17 64.5 40.5t69.5 50.5t70 55t66 54q14 12 27.5 23.5t30.5 25.5l13 -16q-14 -17 -33.5 -39.5t-38.5 -43.5q-16 -19 -31.5 -36.5t-31.5 -34.5q-19 -20 -39 -40.5t-37 -38.5
q17 -18 37 -38.5t39 -40.5q16 -17 31.5 -34.5t31.5 -36.5q19 -21 38.5 -43.5t33.5 -39.5z" />
    <glyph glyph-name="logicalnot" unicode="&#xac;" horiz-adv-x="648" 
d="M525 184v109h-448v44h494v-153h-46z" />
    <glyph glyph-name="uni00AD" unicode="&#xad;" horiz-adv-x="348" 
d="M44 312h257v-67h-257v67z" />
    <glyph glyph-name="registered" unicode="&#xae;" horiz-adv-x="799" 
d="M751 350q0 -72 -27 -137.5t-76 -116t-116 -80.5t-146 -30t-146 30t-115.5 80.5t-75.5 116t-27 137.5t27 138t75.5 116.5t115.5 80.5t146 30t146 -30t116 -80.5t76 -116.5t27 -138zM708 350q0 70 -26.5 129t-71.5 101.5t-103 66.5t-121 24q-70 0 -129 -26.5t-101.5 -71
t-66.5 -102.5t-24 -121t24 -121t66.5 -102.5t101.5 -71t129 -26.5q63 0 121 24t103 66.5t71.5 101.5t26.5 129zM570 226q0 -7 -2.5 -17t-8.5 -19.5t-16 -16t-25 -6.5q-32 0 -51 30.5t-37 73.5q-5 13 -12 30t-18 29t-25.5 15t-45.5 3v-122q0 -26 20 -26h28v-23h-157v23h26
q23 0 23 26v269q0 14 -6 18.5t-17 4.5h-26v23h65q21 0 48.5 2t52.5 2q39 0 65.5 -8t43.5 -21.5t24.5 -30.5t7.5 -34q0 -22 -9 -38.5t-24 -28.5t-34 -20t-39 -11v-4q28 -12 45.5 -32.5t26.5 -37.5q8 -13 14 -25.5t11 -25.5q8 -24 19 -24q6 0 12 5t6 17h15zM465 451
q0 21 -6.5 35t-17.5 22.5t-25 12t-30 3.5q-14 0 -28.5 -2t-28.5 -7v-145q7 -1 16 -2q7 -1 16 -1h17q38 0 62.5 22t24.5 62z" />
    <glyph glyph-name="macron" unicode="&#xaf;" horiz-adv-x="441" 
d="M75 582v36h291v-36h-291z" />
    <glyph glyph-name="degree" unicode="&#xb0;" horiz-adv-x="338" 
d="M280 627q0 -24 -9 -44.5t-24.5 -35t-35.5 -23t-42 -8.5t-42 8.5t-35.5 23t-24.5 35t-9 44.5q0 22 8.5 42.5t23 36t35 24.5t44.5 9q22 0 42 -8t35.5 -23t24.5 -35.5t9 -45.5zM239 627q0 27 -19.5 48.5t-50.5 21.5t-50.5 -21.5t-19.5 -48.5t19.5 -48.5t50.5 -21.5
t50.5 21.5t19.5 48.5z" />
    <glyph glyph-name="plusminus" unicode="&#xb1;" horiz-adv-x="701" 
d="M377 327v-208h-46v208h-247v46h247v207h46v-207h246v-46h-246zM84 70h539v-46h-539v46z" />
    <glyph glyph-name="uni00B2" unicode="&#xb2;" horiz-adv-x="370" 
d="M309 592q0 -12 -2.5 -27.5t-11 -34t-24 -39.5t-41.5 -45l-132 -120h121q37 0 50 5.5t17 19.5l5 17l17 -1l-8 -88h-257l-1 17l37 42l68 75q21 23 38.5 43.5t31 42t21 45t7.5 51.5q0 30 -7.5 51t-19.5 34t-26.5 19t-27.5 6q-15 0 -28 -6t-13 -28q0 -5 1 -10t1 -10
q0 -17 -10 -25t-24 -8q-11 0 -21.5 9t-10.5 29q0 12 6.5 24.5t20 22.5t34 16.5t48.5 6.5q31 0 57 -10t45 -28t29 -42.5t10 -53.5z" />
    <glyph glyph-name="uni00B3" unicode="&#xb3;" horiz-adv-x="370" 
d="M330 416q0 -29 -11 -54t-32 -43.5t-50 -29t-65 -10.5q-34 0 -58 8t-39 20.5t-22 27.5t-7 29q0 20 11 27.5t22 7.5t21.5 -7.5t10.5 -26.5q0 -9 -2.5 -14.5t-2.5 -19.5t17 -22.5t39 -8.5q32 0 51.5 12.5t30.5 31t15 40.5t4 40q0 36 -10.5 55.5t-25.5 28.5t-32 10.5t-30 1.5
t-24.5 -0.5t-21.5 -3.5v31q14 -5 28 -6t25 -1q16 0 32.5 6t29 16.5t20.5 26t8 35.5q0 38 -20.5 61.5t-63.5 23.5q-26 0 -37 -8t-13 -16q-2 -6 -0.5 -11.5t-0.5 -13.5q-2 -17 -13 -25t-22 -6q-11 1 -20.5 9.5t-8.5 26.5q1 10 7 21t19 20.5t34.5 16t53.5 6.5q43 0 71.5 -10
t45.5 -25t24 -33t7 -35q0 -35 -29 -60.5t-80 -29.5v-3q48 -8 81 -35t33 -82z" />
    <glyph glyph-name="acute" unicode="&#xb4;" horiz-adv-x="352" 
d="M318 699q0 -14 -15 -27t-31 -23l-145 -90h-41l139 140q11 11 19 18t15 10.5t12.5 5t12.5 1.5q15 0 24.5 -9.5t9.5 -25.5z" />
    <glyph glyph-name="uni00B5" unicode="&#xb5;" horiz-adv-x="645" 
d="M610 129q-2 -15 -7 -39t-16 -46.5t-29.5 -39t-47.5 -16.5q-24 0 -41.5 14t-28 36.5t-15.5 50t-5 53.5h-8q-11 -76 -46.5 -119t-100.5 -43q-45 0 -78 36t-47 106h-6q0 -54 4.5 -93.5t10.5 -69t10.5 -52t4.5 -43.5q0 -19 -5 -31t-11.5 -18.5t-14 -8.5t-13.5 -2
q-20 0 -32.5 14.5t-12.5 45.5q0 16 5.5 40t12 60t12 87t5.5 123v307h80v-257q0 -33 4.5 -64t16 -54.5t31.5 -37.5t50 -14q24 0 42.5 11t31 29t19 42.5t6.5 51.5v293h80v-322q0 -44 14.5 -74.5t45.5 -30.5q29 0 41 21.5t19 53.5h19v0z" />
    <glyph glyph-name="paragraph" unicode="&#xb6;" horiz-adv-x="536" 
d="M389 -263v992h60v-992h-60zM190 -263v730h-15q-64 0 -105 33.5t-41 97.5q0 63 41 97t105 34h75v-992h-60z" />
    <glyph glyph-name="periodcentered" unicode="&#xb7;" horiz-adv-x="221" 
d="M169 283q0 -23 -15.5 -38.5t-38.5 -15.5t-38.5 15.5t-15.5 38.5t15.5 38.5t38.5 15.5t38.5 -15.5t15.5 -38.5z" />
    <glyph glyph-name="cedilla" unicode="&#xb8;" horiz-adv-x="333" 
d="M273 -126q0 -22 -10.5 -38.5t-28.5 -28t-41.5 -17t-48.5 -5.5q-20 0 -41.5 4.5t-38.5 11.5l7 15q13 -5 31 -8.5t30 -3.5q40 0 55 20t15 42q0 23 -12 32.5t-35 9.5q-8 0 -16 -1.5t-19 -4.5l-7 5l42 103h24l-30 -75q7 2 16.5 3.5t21.5 1.5q16 0 31.5 -3.5t27.5 -11.5
t19.5 -20.5t7.5 -30.5z" />
    <glyph glyph-name="uni00B9" unicode="&#xb9;" horiz-adv-x="332" 
d="M98 279v21h19q9 0 19 3.5t10 20.5v304q-16 -14 -31 -25t-37 -25l-11 11q34 26 63 64t48 74h27v-403q0 -15 9 -19.5t20 -4.5h21v-21h-157z" />
    <glyph glyph-name="ordmasculine" unicode="&#xba;" horiz-adv-x="370" 
d="M350 563q0 -39 -14 -70t-37 -52t-54 -32t-64 -11q-32 0 -61 9.5t-51.5 29t-36 48.5t-13.5 67q0 31 12 60t34 51.5t54 35.5t73 13q70 0 114 -38.5t44 -110.5zM276 561q0 57 -23 91t-70 34q-37 0 -63.5 -31t-26.5 -100q0 -58 25 -94.5t73 -36.5q43 0 64 39t21 98z" />
    <glyph glyph-name="guillemotright" unicode="&#xbb;" horiz-adv-x="543" 
d="M314 238q-12 -8 -48.5 -34t-91.5 -77q-14 -13 -30 -27.5t-32 -31.5l-17 15q6 9 16 21.5t21 26.5t22 27.5t20 24.5q14 17 24.5 30.5t21.5 24.5q-11 11 -21.5 24.5t-24.5 30.5q-9 10 -20 24l-22 28t-21 26.5t-16 21.5l17 15q16 -17 32 -31.5t30 -27.5q55 -51 91.5 -77
t48.5 -34zM170 5q14 17 33.5 39.5t38.5 43.5q16 19 31.5 36.5t31.5 34.5q19 20 39 40.5t37 38.5q-17 18 -37 38.5t-39 40.5q-16 17 -31.5 34.5t-31.5 36.5q-19 21 -38.5 43.5t-33.5 39.5l13 16q17 -14 30.5 -25.5t27.5 -23.5q31 -26 65.5 -54t70 -55t70 -50.5t64.5 -40.5
q-30 -17 -64.5 -40.5t-70 -50.5t-70 -55t-65.5 -54q-14 -12 -27.5 -23.5t-30.5 -25.5z" />
    <glyph glyph-name="onequarter" unicode="&#xbc;" horiz-adv-x="852" 
d="M586 0v21h27q20 0 25 5.5t5 19.5v45h-174v28q18 25 53.5 82t87.5 150q14 23 28.5 51.5t25.5 49.5l59 -31l-228 -304h148v162l59 49v-211h57v-26h-57v-45q0 -15 7.5 -20t21.5 -5h28v-21h-173zM227 0h-40l452 700h39zM98 279v21h19q9 0 19 3.5t10 20.5v304q-16 -14 -31 -25
t-37 -25l-11 11q34 26 63 64t48 74h27v-403q0 -15 9 -19.5t20 -4.5h21v-21h-157z" />
    <glyph glyph-name="onehalf" unicode="&#xbd;" horiz-adv-x="852" 
d="M786 312q0 -12 -2.5 -27.5t-11 -34t-24 -39.5t-41.5 -45l-132 -120h121q37 0 50 5.5t17 19.5l5 17l17 -1l-8 -88h-257l-1 17l37 42l68 75q21 23 38.5 43.5t31 42t21 45t7.5 51.5q0 30 -7.5 51t-19.5 34t-26.5 19t-27.5 6q-15 0 -28 -6t-13 -28q0 -5 1 -10t1 -10
q0 -17 -10 -25t-24 -8q-11 0 -21.5 9t-10.5 29q0 12 6.5 24.5t20 22.5t34 16.5t48.5 6.5q31 0 57 -10t45 -28t29 -42.5t10 -53.5zM213 0h-40l452 700h39zM98 279v21h19q9 0 19 3.5t10 20.5v304q-16 -14 -31 -25t-37 -25l-11 11q34 26 63 64t48 74h27v-403q0 -15 9 -19.5
t20 -4.5h21v-21h-157z" />
    <glyph glyph-name="threequarters" unicode="&#xbe;" horiz-adv-x="852" 
d="M586 0v21h27q20 0 25 5.5t5 19.5v45h-174v28q18 25 53.5 82t87.5 150q14 23 28.5 51.5t25.5 49.5l59 -31l-228 -304h148v162l58 49v-211h57v-26h-57v-45q0 -15 7.5 -20t21.5 -5h28v-21h-172zM233 0h-40l452 700h39zM330 416q0 -29 -11 -54t-32 -43.5t-50 -29t-65 -10.5
q-34 0 -58 8t-39 20.5t-22 27.5t-7 29q0 20 11 27.5t22 7.5t21.5 -7.5t10.5 -26.5q0 -9 -2.5 -14.5t-2.5 -19.5t17 -22.5t39 -8.5q32 0 51.5 12.5t30.5 31t15 40.5t4 40q0 34 -10.5 53t-26 28.5t-32.5 12t-29 2.5h-21t-25 -2v26q17 -2 29.5 -3t23.5 -1q16 0 32.5 6t29 16.5
t20.5 26t8 35.5q0 38 -22.5 61.5t-61.5 23.5q-26 0 -37 -8t-13 -16q-2 -6 -1.5 -11.5t0.5 -13.5q0 -17 -9.5 -24t-23.5 -7t-22.5 8t-8.5 28q0 10 6 21t19.5 20.5t35 16t53.5 6.5q43 0 71.5 -10t45.5 -25t24 -33t7 -35q0 -35 -30.5 -60.5t-78.5 -29.5v-3q48 -8 81 -35t33 -82
z" />
    <glyph glyph-name="questiondown" unicode="&#xbf;" horiz-adv-x="463" 
d="M86 0q0 41 13 74.5t37 63.5t57.5 58.5t74.5 58.5q17 13 31 26t14 37v41h25v-129q0 -23 -8 -35t-24 -24q-20 -16 -46 -37t-48.5 -49t-38 -62.5t-15.5 -76.5q0 -31 10 -60.5t30 -52t50 -36.5t71 -14q24 0 38 6.5t20.5 14.5t8 16.5t1.5 11.5q0 9 -1.5 15.5t-1.5 15.5
q0 22 13.5 36t37.5 14q20 0 35.5 -12.5t15.5 -39.5q0 -19 -10 -38t-30.5 -34t-51.5 -24.5t-73 -9.5q-51 0 -94.5 18.5t-74.5 51.5t-48.5 78t-17.5 97zM271 454q0 22 15.5 38t40.5 16q22 0 38 -15t16 -39t-16 -40t-38 -16q-25 0 -40.5 16.5t-15.5 39.5z" />
    <glyph glyph-name="Agrave" unicode="&#xc0;" horiz-adv-x="725" 
d="M446 0v33h41q6 0 13 0.5t13.5 3t11 7t4.5 13.5q0 11 -6.5 31t-17.5 50l-50 146h-237l-25 -64q-5 -14 -12.5 -33t-14.5 -38.5t-11.5 -38.5t-4.5 -33q0 -23 6.5 -31t19.5 -13h45v-33h-211v33h33q12 8 23.5 20.5t28.5 43.5t42 88t63 153q28 70 65 167t79 218h44l231 -631
q9 -25 22.5 -42t48.5 -17h24v-33h-268zM337 609l-109 -296h215zM397 769l-145 90q-26 17 -36 27t-10 23q0 17 9 26.5t24 9.5q14 0 25.5 -6.5t34.5 -29.5l139 -140h-41z" />
    <glyph glyph-name="Aacute" unicode="&#xc1;" horiz-adv-x="725" 
d="M446 0v33h41q6 0 13 0.5t13.5 3t11 7t4.5 13.5q0 11 -6.5 31t-17.5 50l-50 146h-237l-25 -64q-5 -14 -12.5 -33t-14.5 -38.5t-11.5 -38.5t-4.5 -33q0 -23 6.5 -31t19.5 -13h45v-33h-211v33h33q12 8 23.5 20.5t28.5 43.5t42 88t63 153q28 70 65 167t79 218h44l231 -631
q9 -25 22.5 -42t48.5 -17h24v-33h-268zM337 609l-109 -296h215zM520 905q0 -12 -13 -23t-33 -23l-145 -90h-41l139 140q11 11 19.5 18t15 10.5t12.5 4.5t13 1q15 0 24 -10.5t9 -27.5z" />
    <glyph glyph-name="Acircumflex" unicode="&#xc2;" horiz-adv-x="725" 
d="M446 0v33h41q6 0 13 0.5t13.5 3t11 7t4.5 13.5q0 11 -6.5 31t-17.5 50l-50 146h-237l-25 -64q-5 -14 -12.5 -33t-14.5 -38.5t-11.5 -38.5t-4.5 -33q0 -23 6.5 -31t19.5 -13h45v-33h-211v33h33q12 8 23.5 20.5t28.5 43.5t42 88t63 153q28 70 65 167t79 218h44l231 -631
q9 -25 22.5 -42t48.5 -17h24v-33h-268zM337 609l-109 -296h215zM500 762q-13 8 -25 16q-11 7 -23 15t-22 16t-21 16t-21 16q-11 9 -22 17q-11 -8 -22 -17q-10 -8 -21 -16t-21 -16t-22 -16t-23 -15q-12 -8 -25 -16h-25q7 7 13.5 14t14.5 15t18 19.5t25 29.5q11 13 19 22.5
t15.5 19.5t15.5 21t20 26h36q12 -15 20 -26t15.5 -21t15.5 -19.5t19 -22.5q15 -18 25 -29.5t18 -19.5t14 -15t14 -14h-25z" />
    <glyph glyph-name="Atilde" unicode="&#xc3;" horiz-adv-x="725" 
d="M446 0v33h41q6 0 13 0.5t13.5 3t11 7t4.5 13.5q0 11 -6.5 31t-17.5 50l-50 146h-237l-25 -64q-5 -14 -12.5 -33t-14.5 -38.5t-11.5 -38.5t-4.5 -33q0 -23 6.5 -31t19.5 -13h45v-33h-211v33h33q12 8 23.5 20.5t28.5 43.5t42 88t63 153q28 70 65 167t79 218h44l231 -631
q9 -25 22.5 -42t48.5 -17h24v-33h-268zM337 609l-109 -296h215zM560 871q-10 -18 -22 -35t-26.5 -30.5t-33 -21.5t-40.5 -8q-18 0 -34 9.5t-33 21t-35.5 21t-39.5 9.5q-23 0 -43.5 -9.5t-42.5 -41.5l-17 12q10 18 21.5 35t26.5 30.5t33 21.5t41 8q21 0 40 -9.5t36.5 -21
t33.5 -21t32 -9.5q23 0 44 9.5t43 41.5z" />
    <glyph glyph-name="Adieresis" unicode="&#xc4;" horiz-adv-x="725" 
d="M446 0v33h41q6 0 13 0.5t13.5 3t11 7t4.5 13.5q0 11 -6.5 31t-17.5 50l-50 146h-237l-25 -64q-5 -14 -12.5 -33t-14.5 -38.5t-11.5 -38.5t-4.5 -33q0 -23 6.5 -31t19.5 -13h45v-33h-211v33h33q12 8 23.5 20.5t28.5 43.5t42 88t63 153q28 70 65 167t79 218h44l231 -631
q9 -25 22.5 -42t48.5 -17h24v-33h-268zM337 609l-109 -296h215zM510 827q0 -23 -15.5 -39t-39.5 -16t-40 16t-16 39q0 24 17 39.5t39 15.5t38.5 -15.5t16.5 -39.5zM321 827q0 -23 -16 -39t-40 -16t-40 16t-16 39q0 24 17 39.5t39 15.5t39 -15.5t17 -39.5z" />
    <glyph glyph-name="Aring" unicode="&#xc5;" horiz-adv-x="725" 
d="M424 816q0 23 -17.5 42t-42.5 19q-24 0 -42.5 -18.5t-18.5 -42.5t19 -42t42 -18q24 0 42 18.5t18 41.5zM337 609l-109 -296h215zM343 719q-33 8 -56 35t-23 62q0 20 8 38t21.5 32t32 22t38.5 8t38 -8t31.5 -21.5t21.5 -32t8 -38.5q0 -34 -21 -60.5t-53 -35.5l230 -628
q8 -22 23.5 -40.5t47.5 -18.5h24v-33h-268v33h41q6 0 13 0.5t13.5 3t11 7t4.5 13.5q0 11 -6.5 31t-17.5 50l-50 146h-237l-25 -64q-5 -14 -12.5 -33t-14.5 -38.5t-11.5 -38.5t-4.5 -33q0 -23 6.5 -31t19.5 -13h45v-33h-211v33h33q12 8 23.5 20.5t28.5 43.5t42 88t63 153
q28 69 64.5 165.5t78.5 215.5z" />
    <glyph glyph-name="AE" unicode="&#xc6;" horiz-adv-x="1008" 
d="M490 680l-216 -367h216v367zM391 0v33h43q32 0 44 8t12 34v209h-232l-40 -71q-8 -13 -19.5 -35.5t-23 -46.5t-19.5 -45.5t-8 -31.5q0 -16 9 -18.5t17 -2.5h45v-33h-211v33h33q13 8 32 31t48.5 67.5t71.5 114t102 170.5q15 26 30 51t31 51.5t34 56t39 64.5q6 10 9.5 20.5
t3.5 15.5q0 11 -5.5 13t-17.5 2h-44v33h580l7 -162h-35l-15 65q-8 14 -29.5 25.5t-52.5 20t-68 13.5t-76 5q-31 0 -50.5 -2t-30.5 -7t-15 -14.5t-4 -24.5v-246h48q68 0 105 6t54 15t20 19t3 19v26h31v-200h-31v27q0 9 -3 19t-20 18.5t-54 14.5t-105 6h-48v-286
q0 -31 16 -38.5t39 -7.5q68 0 121.5 4t96.5 21q40 15 62.5 32.5t32.5 42.5l6 31h35l-32 -165h-572z" />
    <glyph glyph-name="Ccedilla" unicode="&#xc7;" horiz-adv-x="777" 
d="M735 194q-26 -56 -59 -94.5t-69.5 -63t-76.5 -36.5t-81 -14l-22 -55q7 2 16.5 3.5t21.5 1.5q16 0 31.5 -3.5t27.5 -11.5t19.5 -20.5t7.5 -30.5q0 -22 -10.5 -38.5t-28.5 -28t-41.5 -17t-48.5 -5.5q-20 0 -41.5 4.5t-38.5 11.5l7 15q13 -5 31 -8.5t30 -3.5q40 0 55 20
t15 42q0 23 -12 32.5t-35 9.5q-8 0 -16 -1.5t-19 -4.5l-7 5l34 83q-84 1 -149.5 29.5t-111 77.5t-69 116t-23.5 146q0 63 20.5 130.5t66 124t117.5 93t174 36.5q22 0 44 -2.5t46 -8t51.5 -14.5t60.5 -21l-1 30h33l13 -193h-34l-2 46q-13 27 -34 50.5t-50 41t-66 28t-82 10.5
q-66 0 -112 -27.5t-75 -75t-42.5 -110t-13.5 -132.5q0 -93 22.5 -157.5t60 -104.5t86 -58t101.5 -18q45 0 83.5 15.5t70.5 41.5t56.5 59t42.5 68l26 -13v0z" />
    <glyph glyph-name="Egrave" unicode="&#xc8;" horiz-adv-x="680" 
d="M634 723l7 -162h-35l-15 65q-8 14 -29.5 25.5t-52.5 20t-68 13.5t-76 5q-31 0 -50.5 -2t-30.5 -7t-15 -14.5t-4 -24.5v-246h48q68 0 105 6t54 15t20 19t3 19v26h31v-200h-31v27q0 9 -3 19t-20 18.5t-54 14.5t-105 6h-48v-286q0 -31 16 -38.5t39 -7.5q68 0 121.5 4
t96.5 21q40 15 62.5 32.5t32.5 42.5l6 31h35l-33 -165h-571v33h43q35 0 45.5 10t10.5 36v567q0 31 -15.5 38.5t-40.5 7.5h-43v31h564zM393 769l-145 90q-26 17 -36 27t-10 23q0 17 9 26.5t24 9.5q14 0 25.5 -6.5t34.5 -29.5l139 -140h-41z" />
    <glyph glyph-name="Eacute" unicode="&#xc9;" horiz-adv-x="680" 
d="M634 723l7 -162h-35l-15 65q-8 14 -29.5 25.5t-52.5 20t-68 13.5t-76 5q-31 0 -50.5 -2t-30.5 -7t-15 -14.5t-4 -24.5v-246h48q68 0 105 6t54 15t20 19t3 19v26h31v-200h-31v27q0 9 -3 19t-20 18.5t-54 14.5t-105 6h-48v-286q0 -31 16 -38.5t39 -7.5q68 0 121.5 4
t96.5 21q40 15 62.5 32.5t32.5 42.5l6 31h35l-33 -165h-571v33h43q35 0 45.5 10t10.5 36v567q0 31 -15.5 38.5t-40.5 7.5h-43v31h564zM547 905q0 -12 -13 -23t-33 -23l-145 -90h-41l139 140q11 11 19.5 18t15 10.5t12.5 4.5t13 1q15 0 24 -10.5t9 -27.5z" />
    <glyph glyph-name="Ecircumflex" unicode="&#xca;" horiz-adv-x="680" 
d="M634 723l7 -162h-35l-15 65q-8 14 -29.5 25.5t-52.5 20t-68 13.5t-76 5q-31 0 -50.5 -2t-30.5 -7t-15 -14.5t-4 -24.5v-246h48q68 0 105 6t54 15t20 19t3 19v26h31v-200h-31v27q0 9 -3 19t-20 18.5t-54 14.5t-105 6h-48v-286q0 -31 16 -38.5t39 -7.5q68 0 121.5 4
t96.5 21q40 15 62.5 32.5t32.5 42.5l6 31h35l-33 -165h-571v33h43q35 0 45.5 10t10.5 36v567q0 31 -15.5 38.5t-40.5 7.5h-43v31h564zM511 762q-13 8 -25 16q-11 7 -23 15t-22 16t-21 16t-21 16q-11 9 -22 17q-11 -8 -22 -17q-10 -8 -21 -16t-21 -16t-22 -16t-23 -15
q-12 -8 -25 -16h-25q7 7 13.5 14t14.5 15t18 19.5t25 29.5q11 13 19 22.5t15.5 19.5t15.5 21t20 26h36q12 -15 20 -26t15.5 -21t15.5 -19.5t19 -22.5q15 -18 25 -29.5t18 -19.5t14 -15t14 -14h-25z" />
    <glyph glyph-name="Edieresis" unicode="&#xcb;" horiz-adv-x="680" 
d="M634 723l7 -162h-35l-15 65q-8 14 -29.5 25.5t-52.5 20t-68 13.5t-76 5q-31 0 -50.5 -2t-30.5 -7t-15 -14.5t-4 -24.5v-246h48q68 0 105 6t54 15t20 19t3 19v26h31v-200h-31v27q0 9 -3 19t-20 18.5t-54 14.5t-105 6h-48v-286q0 -31 16 -38.5t39 -7.5q68 0 121.5 4
t96.5 21q40 15 62.5 32.5t32.5 42.5l6 31h35l-33 -165h-571v33h43q35 0 45.5 10t10.5 36v567q0 31 -15.5 38.5t-40.5 7.5h-43v31h564zM538 827q0 -23 -15.5 -39t-39.5 -16t-40 16t-16 39q0 24 17 39.5t39 15.5t38.5 -15.5t16.5 -39.5zM349 827q0 -23 -16 -39t-40 -16t-40 16
t-16 39q0 24 17 39.5t39 15.5t39 -15.5t17 -39.5z" />
    <glyph glyph-name="Igrave" unicode="&#xcc;" horiz-adv-x="413" 
d="M70 0v31h43q34 0 45 10t11 36v569q0 28 -12 37t-44 9h-43v31h294v-31h-45q-32 0 -43 -10t-11 -36v-569q0 -24 9.5 -35t44.5 -11h45v-31h-294zM249 769l-145 90q-26 17 -36 27t-10 23q0 17 9 26.5t24 9.5q14 0 25.5 -6.5t34.5 -29.5l139 -140h-41z" />
    <glyph glyph-name="Iacute" unicode="&#xcd;" horiz-adv-x="413" 
d="M70 0v31h43q34 0 45 10t11 36v569q0 28 -12 37t-44 9h-43v31h294v-31h-45q-32 0 -43 -10t-11 -36v-569q0 -24 9.5 -35t44.5 -11h45v-31h-294zM383 905q0 -12 -13 -23t-33 -23l-145 -90h-41l139 140q11 11 19.5 18t15 10.5t12.5 4.5t13 1q15 0 24 -10.5t9 -27.5z" />
    <glyph glyph-name="Icircumflex" unicode="&#xce;" horiz-adv-x="413" 
d="M70 0v31h43q34 0 45 10t11 36v569q0 28 -12 37t-44 9h-43v31h294v-31h-45q-32 0 -43 -10t-11 -36v-569q0 -24 9.5 -35t44.5 -11h45v-31h-294zM348 762q-13 8 -25 16q-11 7 -23 15t-22 16t-21 16t-21 16q-11 9 -22 17q-11 -8 -22 -17q-10 -8 -21 -16t-21 -16t-22 -16
t-23 -15q-12 -8 -25 -16h-25q7 7 13.5 14t14.5 15t18 19.5t25 29.5q11 13 19 22.5t15.5 19.5t15.5 21t20 26h36q12 -15 20 -26t15.5 -21t15.5 -19.5t19 -22.5q15 -18 25 -29.5t18 -19.5t14 -15t14 -14h-25z" />
    <glyph glyph-name="Idieresis" unicode="&#xcf;" horiz-adv-x="413" 
d="M70 0v31h43q34 0 45 10t11 36v569q0 28 -12 37t-44 9h-43v31h294v-31h-45q-32 0 -43 -10t-11 -36v-569q0 -24 9.5 -35t44.5 -11h45v-31h-294zM369 827q0 -23 -15.5 -39t-39.5 -16t-40 16t-16 39q0 24 17 39.5t39 15.5t38.5 -15.5t16.5 -39.5zM180 827q0 -23 -16 -39
t-40 -16t-40 16t-16 39q0 24 17 39.5t39 15.5t39 -15.5t17 -39.5z" />
    <glyph glyph-name="Eth" unicode="&#xd0;" horiz-adv-x="864" 
d="M814 387q0 -32 -6 -73.5t-22 -85.5t-44 -85.5t-72 -74.5t-105 -53t-144 -20q-39 0 -78 2.5t-75 2.5h-198v33h43q35 0 45.5 10t10.5 36v285h-115v32h115v250q0 27 -13.5 36.5t-42.5 9.5h-43v31h160q19 0 43.5 1t51 1.5t51.5 1.5t45 1q88 0 151 -19t107 -49.5t70.5 -69
t41 -76t19 -71.5t4.5 -56zM700 379q0 29 -5 64t-17 70.5t-32.5 68.5t-51.5 58t-73.5 40.5t-99.5 15.5q-44 0 -79.5 -4.5t-76.5 -23.5v-272h126v-32h-126v-305q20 -11 58.5 -21.5t94.5 -10.5q72 0 125 29.5t88 78t52 112t17 132.5z" />
    <glyph glyph-name="Ntilde" unicode="&#xd1;" horiz-adv-x="844" 
d="M740 692q-9 -8 -17.5 -23.5t-14.5 -42.5t-10 -67t-5 -97l-5 -476h-33l-454 577l3 -330q0 -56 2 -91.5t5 -57.5t8.5 -33.5t13.5 -19.5h57v-31h-219v31h53q13 11 21.5 36.5t13 56t6 60.5t1.5 49l3 374l-99 116h131l454 -588v380q0 90 -13.5 129.5t-30.5 47.5h-53v31h237
v-31h-55zM616 871q-10 -18 -22 -35t-26.5 -30.5t-33 -21.5t-40.5 -8q-18 0 -34 9.5t-33 21t-35.5 21t-39.5 9.5q-23 0 -43.5 -9.5t-42.5 -41.5l-17 12q10 18 21.5 35t26.5 30.5t33 21.5t41 8q21 0 40 -9.5t36.5 -21t33.5 -21t32 -9.5q23 0 44 9.5t43 41.5z" />
    <glyph glyph-name="Ograve" unicode="&#xd2;" horiz-adv-x="883" 
d="M826 363q0 -37 -8.5 -79.5t-26.5 -84.5t-47.5 -80.5t-71.5 -68t-97.5 -47t-125.5 -17.5q-71 0 -126.5 17.5t-97 47t-71 68t-47.5 80.5t-26.5 84.5t-8.5 79.5q0 60 21 126t66.5 121.5t117 92t172.5 36.5q102 0 173.5 -34.5t117 -89t66 -121.5t20.5 -131zM712 363
q0 75 -17 138t-50.5 108.5t-82.5 71t-113 25.5t-113 -24t-82.5 -68t-50.5 -108t-17 -143q0 -68 16.5 -130t49 -109.5t82 -76t115.5 -28.5t115.5 28.5t82.5 76t49 109.5t16 130zM469 769l-145 90q-26 17 -36 27t-10 23q0 17 9 26.5t24 9.5q14 0 25.5 -6.5t34.5 -29.5
l139 -140h-41z" />
    <glyph glyph-name="Oacute" unicode="&#xd3;" horiz-adv-x="883" 
d="M826 363q0 -37 -8.5 -79.5t-26.5 -84.5t-47.5 -80.5t-71.5 -68t-97.5 -47t-125.5 -17.5q-71 0 -126.5 17.5t-97 47t-71 68t-47.5 80.5t-26.5 84.5t-8.5 79.5q0 60 21 126t66.5 121.5t117 92t172.5 36.5q102 0 173.5 -34.5t117 -89t66 -121.5t20.5 -131zM712 363
q0 75 -17 138t-50.5 108.5t-82.5 71t-113 25.5t-113 -24t-82.5 -68t-50.5 -108t-17 -143q0 -68 16.5 -130t49 -109.5t82 -76t115.5 -28.5t115.5 28.5t82.5 76t49 109.5t16 130zM634 905q0 -12 -13 -23t-33 -23l-145 -90h-41l139 140q11 11 19.5 18t15 10.5t12.5 4.5t13 1
q15 0 24 -10.5t9 -27.5z" />
    <glyph glyph-name="Ocircumflex" unicode="&#xd4;" horiz-adv-x="883" 
d="M826 363q0 -37 -8.5 -79.5t-26.5 -84.5t-47.5 -80.5t-71.5 -68t-97.5 -47t-125.5 -17.5q-71 0 -126.5 17.5t-97 47t-71 68t-47.5 80.5t-26.5 84.5t-8.5 79.5q0 60 21 126t66.5 121.5t117 92t172.5 36.5q102 0 173.5 -34.5t117 -89t66 -121.5t20.5 -131zM712 363
q0 75 -17 138t-50.5 108.5t-82.5 71t-113 25.5t-113 -24t-82.5 -68t-50.5 -108t-17 -143q0 -68 16.5 -130t49 -109.5t82 -76t115.5 -28.5t115.5 28.5t82.5 76t49 109.5t16 130zM581 762q-13 8 -25 16q-11 7 -23 15t-22 16t-21 16t-21 16q-11 9 -22 17q-11 -8 -22 -17
q-10 -8 -21 -16t-21 -16t-22 -16t-23 -15q-12 -8 -25 -16h-25q7 7 13.5 14t14.5 15t18 19.5t25 29.5q11 13 19 22.5t15.5 19.5t15.5 21t20 26h36q12 -15 20 -26t15.5 -21t15.5 -19.5t19 -22.5q15 -18 25 -29.5t18 -19.5t14 -15t14 -14h-25z" />
    <glyph glyph-name="Otilde" unicode="&#xd5;" horiz-adv-x="883" 
d="M826 363q0 -37 -8.5 -79.5t-26.5 -84.5t-47.5 -80.5t-71.5 -68t-97.5 -47t-125.5 -17.5q-71 0 -126.5 17.5t-97 47t-71 68t-47.5 80.5t-26.5 84.5t-8.5 79.5q0 60 21 126t66.5 121.5t117 92t172.5 36.5q102 0 173.5 -34.5t117 -89t66 -121.5t20.5 -131zM712 363
q0 75 -17 138t-50.5 108.5t-82.5 71t-113 25.5t-113 -24t-82.5 -68t-50.5 -108t-17 -143q0 -68 16.5 -130t49 -109.5t82 -76t115.5 -28.5t115.5 28.5t82.5 76t49 109.5t16 130zM630 871q-10 -18 -22 -35t-26.5 -30.5t-33 -21.5t-40.5 -8q-18 0 -34 9.5t-33 21t-35.5 21
t-39.5 9.5q-23 0 -43.5 -9.5t-42.5 -41.5l-17 12q10 18 21.5 35t26.5 30.5t33 21.5t41 8q21 0 40 -9.5t36.5 -21t33.5 -21t32 -9.5q23 0 44 9.5t43 41.5z" />
    <glyph glyph-name="Odieresis" unicode="&#xd6;" horiz-adv-x="883" 
d="M826 363q0 -37 -8.5 -79.5t-26.5 -84.5t-47.5 -80.5t-71.5 -68t-97.5 -47t-125.5 -17.5q-71 0 -126.5 17.5t-97 47t-71 68t-47.5 80.5t-26.5 84.5t-8.5 79.5q0 60 21 126t66.5 121.5t117 92t172.5 36.5q102 0 173.5 -34.5t117 -89t66 -121.5t20.5 -131zM712 363
q0 75 -17 138t-50.5 108.5t-82.5 71t-113 25.5t-113 -24t-82.5 -68t-50.5 -108t-17 -143q0 -68 16.5 -130t49 -109.5t82 -76t115.5 -28.5t115.5 28.5t82.5 76t49 109.5t16 130zM599 827q0 -23 -15.5 -39t-39.5 -16t-40 16t-16 39q0 24 17 39.5t39 15.5t38.5 -15.5
t16.5 -39.5zM410 827q0 -23 -16 -39t-40 -16t-40 16t-16 39q0 24 17 39.5t39 15.5t39 -15.5t17 -39.5z" />
    <glyph glyph-name="multiply" unicode="&#xd7;" horiz-adv-x="574" 
d="M455 58l-170 170l-170 -170l-29 28l167 170l-167 170l29 28l170 -170l170 170l29 -28l-167 -170l167 -170z" />
    <glyph glyph-name="Oslash" unicode="&#xd8;" horiz-adv-x="882" 
d="M826 363q0 -37 -8.5 -79.5t-26.5 -84.5t-47.5 -80.5t-71.5 -68t-97.5 -47t-125.5 -17.5q-80 0 -139.5 22t-103.5 57l-69 -79l-32 29l70 79q-28 30 -47.5 64t-32 69.5t-18 70t-5.5 65.5q0 60 21 126t66.5 121.5t117 92t172.5 36.5q73 0 130 -18t100 -50l72 82l35 -24
l-74 -85q60 -57 87 -132t27 -149zM636 622q-67 84 -187 84q-64 0 -113 -24t-82.5 -68t-50.5 -108t-17 -143q0 -56 11 -108t33 -97zM712 363q0 66 -12.5 122t-38.5 101l-408 -467q33 -47 81.5 -73.5t114.5 -26.5t115.5 28.5t82.5 76t49 109.5t16 130z" />
    <glyph glyph-name="Ugrave" unicode="&#xd9;" horiz-adv-x="881" 
d="M777 692q-9 -6 -17 -16t-14 -31t-10 -55.5t-4 -90.5v-175q0 -70 -12 -131.5t-42.5 -107.5t-83 -72.5t-132.5 -26.5q-73 0 -122.5 14.5t-82 38t-50.5 53t-26.5 58t-10 54t-1.5 41.5v401q0 25 -13.5 35.5t-42.5 10.5h-43v31h294v-31h-45q-26 0 -40 -10t-14 -36v-418
q0 -68 22 -109.5t53.5 -64t65 -29.5t57.5 -7q69 0 114.5 24.5t72 66.5t37 97.5t10.5 117.5v175q0 63 -5 100t-12 57t-14 27t-11 9h-56v31h232v-31h-54zM476 769l-145 90q-26 17 -36 27t-10 23q0 17 9 26.5t24 9.5q14 0 25.5 -6.5t34.5 -29.5l139 -140h-41z" />
    <glyph glyph-name="Uacute" unicode="&#xda;" horiz-adv-x="881" 
d="M777 692q-9 -6 -17 -16t-14 -31t-10 -55.5t-4 -90.5v-175q0 -70 -12 -131.5t-42.5 -107.5t-83 -72.5t-132.5 -26.5q-73 0 -122.5 14.5t-82 38t-50.5 53t-26.5 58t-10 54t-1.5 41.5v401q0 25 -13.5 35.5t-42.5 10.5h-43v31h294v-31h-45q-26 0 -40 -10t-14 -36v-418
q0 -68 22 -109.5t53.5 -64t65 -29.5t57.5 -7q69 0 114.5 24.5t72 66.5t37 97.5t10.5 117.5v175q0 63 -5 100t-12 57t-14 27t-11 9h-56v31h232v-31h-54zM660 905q0 -12 -13 -23t-33 -23l-145 -90h-41l139 140q11 11 19.5 18t15 10.5t12.5 4.5t13 1q15 0 24 -10.5t9 -27.5z
" />
    <glyph glyph-name="Ucircumflex" unicode="&#xdb;" horiz-adv-x="881" 
d="M777 692q-9 -6 -17 -16t-14 -31t-10 -55.5t-4 -90.5v-175q0 -70 -12 -131.5t-42.5 -107.5t-83 -72.5t-132.5 -26.5q-73 0 -122.5 14.5t-82 38t-50.5 53t-26.5 58t-10 54t-1.5 41.5v401q0 25 -13.5 35.5t-42.5 10.5h-43v31h294v-31h-45q-26 0 -40 -10t-14 -36v-418
q0 -68 22 -109.5t53.5 -64t65 -29.5t57.5 -7q69 0 114.5 24.5t72 66.5t37 97.5t10.5 117.5v175q0 63 -5 100t-12 57t-14 27t-11 9h-56v31h232v-31h-54zM610 762q-13 8 -25 16q-11 7 -23 15t-22 16t-21 16t-21 16q-11 9 -22 17q-11 -8 -22 -17q-10 -8 -21 -16t-21 -16
t-22 -16t-23 -15q-12 -8 -25 -16h-25q7 7 13.5 14t14.5 15t18 19.5t25 29.5q11 13 19 22.5t15.5 19.5t15.5 21t20 26h36q12 -15 20 -26t15.5 -21t15.5 -19.5t19 -22.5q15 -18 25 -29.5t18 -19.5t14 -15t14 -14h-25z" />
    <glyph glyph-name="Udieresis" unicode="&#xdc;" horiz-adv-x="881" 
d="M777 692q-9 -6 -17 -16t-14 -31t-10 -55.5t-4 -90.5v-175q0 -70 -12 -131.5t-42.5 -107.5t-83 -72.5t-132.5 -26.5q-73 0 -122.5 14.5t-82 38t-50.5 53t-26.5 58t-10 54t-1.5 41.5v401q0 25 -13.5 35.5t-42.5 10.5h-43v31h294v-31h-45q-26 0 -40 -10t-14 -36v-418
q0 -68 22 -109.5t53.5 -64t65 -29.5t57.5 -7q69 0 114.5 24.5t72 66.5t37 97.5t10.5 117.5v175q0 63 -5 100t-12 57t-14 27t-11 9h-56v31h232v-31h-54zM619 827q0 -23 -15.5 -39t-39.5 -16t-40 16t-16 39q0 24 17 39.5t39 15.5t38.5 -15.5t16.5 -39.5zM430 827
q0 -23 -16 -39t-40 -16t-40 16t-16 39q0 24 17 39.5t39 15.5t39 -15.5t17 -39.5z" />
    <glyph glyph-name="Yacute" unicode="&#xdd;" horiz-adv-x="772" 
d="M721 692q-21 0 -40.5 -18.5t-48.5 -63.5l-200 -310v-223q0 -24 12.5 -35t43.5 -11h43v-31h-294v31h44q31 0 43 11.5t12 34.5v214l-202 342q-6 10 -13.5 20.5t-19.5 19t-31 14t-48 5.5v31h281v-31h-53q-11 0 -20 -3t-9 -12q0 -5 3 -12t6 -12l188 -320l83 133
q19 30 35.5 60.5t29.5 55.5t20 47t7 42q0 21 -40 21h-39v31h240v-31h-33zM594 905q0 -12 -13 -23t-33 -23l-145 -90h-41l139 140q11 11 19.5 18t15 10.5t12.5 4.5t13 1q15 0 24 -10.5t9 -27.5z" />
    <glyph glyph-name="Thorn" unicode="&#xde;" horiz-adv-x="634" 
d="M587 387q0 -24 -10.5 -61t-41.5 -71.5t-88 -59t-150 -24.5q-21 0 -38 1t-37 3v-96q0 -29 10 -38.5t48 -9.5h43v-31h-298v31h43q36 0 47 11t11 37v569q0 24 -10.5 34t-47.5 10h-43v31h298v-31h-43q-37 0 -47.5 -10t-10.5 -34v-63q20 3 42 4t39 1q90 0 145.5 -20.5
t86.5 -51t41.5 -66t10.5 -65.5zM480 393q0 38 -11 69t-36 52.5t-65.5 33.5t-98.5 12q-15 0 -24.5 -0.5t-22.5 -2.5v-354q11 -2 26.5 -2.5t28.5 -0.5q43 0 80 12t64.5 36.5t43 60.5t15.5 84z" />
    <glyph glyph-name="germandbls" unicode="&#xdf;" horiz-adv-x="577" 
d="M550 157q0 -30 -13.5 -60t-36.5 -54t-54.5 -39t-68.5 -15q-55 0 -81 20.5t-26 49.5q0 23 12.5 35.5t29.5 12.5q23 0 35 -11.5t12 -29.5q0 -8 -1.5 -15t-1.5 -12q0 -8 9.5 -15t27.5 -7q42 0 63.5 26.5t21.5 76.5q0 33 -21.5 69.5t-70.5 68.5q-33 22 -57 37t-39.5 27
t-23 23.5t-7.5 26.5q0 36 18.5 58.5t40.5 44t40.5 48.5t18.5 71q0 31 -9 52t-23 34.5t-32 19.5t-36 6q-12 0 -27 -3.5t-28.5 -20t-22.5 -50t-9 -92.5v-481q0 -19 7 -27t31 -8h20v-24h-217v24h41q21 0 29.5 7.5t8.5 27.5v374h-51v18l51 20v57q0 44 12 82t37.5 65.5t66.5 43.5
t99 16q19 0 43 -6t45 -20.5t35.5 -38.5t14.5 -60q0 -41 -21.5 -69t-47.5 -49t-47.5 -39t-21.5 -40q0 -11 11 -21.5t30 -22t44 -26.5t53 -35q30 -22 47.5 -43t26 -40t11 -36.5t2.5 -31.5z" />
    <glyph glyph-name="agrave" unicode="&#xe0;" horiz-adv-x="509" 
d="M498 60q-14 -35 -36 -53t-58 -18q-19 0 -32.5 7.5t-21.5 19.5t-12 28t-4 34q-28 -30 -52.5 -47.5t-46.5 -26.5t-41 -12t-35 -3q-24 0 -45.5 8.5t-37 23t-24.5 33.5t-9 41q0 48 24.5 79t63.5 51.5t87.5 33.5t96.5 24l19 4v44q0 30 -5 55t-18.5 42t-36.5 26.5t-59 9.5
q-7 0 -17.5 -2t-20.5 -6t-17 -11.5t-7 -17.5q0 -9 3 -17t3 -19q0 -20 -12.5 -33.5t-36.5 -13.5q-20 0 -30.5 14.5t-10.5 36.5q0 18 12 36t33 31.5t50 22t64 8.5q36 0 69.5 -7t59.5 -25.5t41.5 -50t15.5 -79.5v-261q0 -11 3.5 -26t16.5 -15q12 0 22 8t19 33zM334 263
q-40 -8 -76 -19t-63.5 -29t-44 -43.5t-16.5 -62.5q0 -38 21 -57t49 -19q19 0 38.5 8.5t36.5 20.5t31.5 26t23.5 25v150zM298 559l-145 90q-26 17 -36 27t-10 23q0 17 9 26.5t24 9.5q14 0 25.5 -6.5t34.5 -29.5l139 -140h-41z" />
    <glyph glyph-name="aacute" unicode="&#xe1;" horiz-adv-x="509" 
d="M498 60q-14 -35 -36 -53t-58 -18q-19 0 -32.5 7.5t-21.5 19.5t-12 28t-4 34q-28 -30 -52.5 -47.5t-46.5 -26.5t-41 -12t-35 -3q-24 0 -45.5 8.5t-37 23t-24.5 33.5t-9 41q0 48 24.5 79t63.5 51.5t87.5 33.5t96.5 24l19 4v44q0 30 -5 55t-18.5 42t-36.5 26.5t-59 9.5
q-7 0 -17.5 -2t-20.5 -6t-17 -11.5t-7 -17.5q0 -9 3 -17t3 -19q0 -20 -12.5 -33.5t-36.5 -13.5q-20 0 -30.5 14.5t-10.5 36.5q0 18 12 36t33 31.5t50 22t64 8.5q36 0 69.5 -7t59.5 -25.5t41.5 -50t15.5 -79.5v-261q0 -11 3.5 -26t16.5 -15q12 0 22 8t19 33zM334 263
q-40 -8 -76 -19t-63.5 -29t-44 -43.5t-16.5 -62.5q0 -38 21 -57t49 -19q19 0 38.5 8.5t36.5 20.5t31.5 26t23.5 25v150zM397 699q0 -14 -15 -27t-31 -23l-145 -90h-41l139 140q11 11 19 18t15 10.5t12.5 5t12.5 1.5q15 0 24.5 -9.5t9.5 -25.5z" />
    <glyph glyph-name="acircumflex" unicode="&#xe2;" horiz-adv-x="509" 
d="M498 60q-14 -35 -36 -53t-58 -18q-19 0 -32.5 7.5t-21.5 19.5t-12 28t-4 34q-28 -30 -52.5 -47.5t-46.5 -26.5t-41 -12t-35 -3q-24 0 -45.5 8.5t-37 23t-24.5 33.5t-9 41q0 48 24.5 79t63.5 51.5t87.5 33.5t96.5 24l19 4v44q0 30 -5 55t-18.5 42t-36.5 26.5t-59 9.5
q-7 0 -17.5 -2t-20.5 -6t-17 -11.5t-7 -17.5q0 -9 3 -17t3 -19q0 -20 -12.5 -33.5t-36.5 -13.5q-20 0 -30.5 14.5t-10.5 36.5q0 18 12 36t33 31.5t50 22t64 8.5q36 0 69.5 -7t59.5 -25.5t41.5 -50t15.5 -79.5v-261q0 -11 3.5 -26t16.5 -15q12 0 22 8t19 33zM334 263
q-40 -8 -76 -19t-63.5 -29t-44 -43.5t-16.5 -62.5q0 -38 21 -57t49 -19q19 0 38.5 8.5t36.5 20.5t31.5 26t23.5 25v150zM376 562q-13 8 -25 16q-11 7 -23 15t-22 16t-21 16t-21 16q-11 9 -22 17q-11 -8 -22 -17q-10 -8 -21 -16t-21 -16t-22 -16t-23 -15q-12 -8 -25 -16h-25
q7 7 13.5 14t14.5 15t18 19.5t25 29.5q11 13 19 22.5t15.5 19.5t15.5 21t20 26h36q12 -15 20 -26t15.5 -21t15.5 -19.5t19 -22.5q15 -18 25 -29.5t18 -19.5t14 -15t14 -14h-25z" />
    <glyph glyph-name="atilde" unicode="&#xe3;" horiz-adv-x="509" 
d="M498 60q-14 -35 -36 -53t-58 -18q-19 0 -32.5 7.5t-21.5 19.5t-12 28t-4 34q-28 -30 -52.5 -47.5t-46.5 -26.5t-41 -12t-35 -3q-24 0 -45.5 8.5t-37 23t-24.5 33.5t-9 41q0 48 24.5 79t63.5 51.5t87.5 33.5t96.5 24l19 4v44q0 30 -5 55t-18.5 42t-36.5 26.5t-59 9.5
q-7 0 -17.5 -2t-20.5 -6t-17 -11.5t-7 -17.5q0 -9 3 -17t3 -19q0 -20 -12.5 -33.5t-36.5 -13.5q-20 0 -30.5 14.5t-10.5 36.5q0 18 12 36t33 31.5t50 22t64 8.5q36 0 69.5 -7t59.5 -25.5t41.5 -50t15.5 -79.5v-261q0 -11 3.5 -26t16.5 -15q12 0 22 8t19 33zM334 263
q-40 -8 -76 -19t-63.5 -29t-44 -43.5t-16.5 -62.5q0 -38 21 -57t49 -19q19 0 38.5 8.5t36.5 20.5t31.5 26t23.5 25v150zM431 667q-10 -18 -22 -35t-26.5 -30.5t-33 -21.5t-40.5 -8q-18 0 -34 9.5t-33 21t-35.5 21t-39.5 9.5q-23 0 -43.5 -9.5t-42.5 -41.5l-17 12
q10 18 21.5 35t26.5 30.5t33 21.5t41 8q21 0 40 -9.5t36.5 -21t33.5 -21t32 -9.5q23 0 44 9.5t43 41.5z" />
    <glyph glyph-name="adieresis" unicode="&#xe4;" horiz-adv-x="509" 
d="M498 60q-14 -35 -36 -53t-58 -18q-19 0 -32.5 7.5t-21.5 19.5t-12 28t-4 34q-28 -30 -52.5 -47.5t-46.5 -26.5t-41 -12t-35 -3q-24 0 -45.5 8.5t-37 23t-24.5 33.5t-9 41q0 48 24.5 79t63.5 51.5t87.5 33.5t96.5 24l19 4v44q0 30 -5 55t-18.5 42t-36.5 26.5t-59 9.5
q-7 0 -17.5 -2t-20.5 -6t-17 -11.5t-7 -17.5q0 -9 3 -17t3 -19q0 -20 -12.5 -33.5t-36.5 -13.5q-20 0 -30.5 14.5t-10.5 36.5q0 18 12 36t33 31.5t50 22t64 8.5q36 0 69.5 -7t59.5 -25.5t41.5 -50t15.5 -79.5v-261q0 -11 3.5 -26t16.5 -15q12 0 22 8t19 33zM334 263
q-40 -8 -76 -19t-63.5 -29t-44 -43.5t-16.5 -62.5q0 -38 21 -57t49 -19q19 0 38.5 8.5t36.5 20.5t31.5 26t23.5 25v150zM392 650q0 -23 -15.5 -39t-39.5 -16t-40 16t-16 39q0 24 17 39.5t39 15.5t38.5 -15.5t16.5 -39.5zM203 650q0 -23 -16 -39t-40 -16t-40 16t-16 39
q0 24 17 39.5t39 15.5t39 -15.5t17 -39.5z" />
    <glyph glyph-name="aring" unicode="&#xe5;" horiz-adv-x="509" 
d="M498 60q-14 -35 -36 -53t-58 -18q-19 0 -32.5 7.5t-21.5 19.5t-12 28t-4 34q-28 -30 -52.5 -47.5t-46.5 -26.5t-41 -12t-35 -3q-24 0 -45.5 8.5t-37 23t-24.5 33.5t-9 41q0 48 24.5 79t63.5 51.5t87.5 33.5t96.5 24l19 4v44q0 30 -5 55t-18.5 42t-36.5 26.5t-59 9.5
q-7 0 -17.5 -2t-20.5 -6t-17 -11.5t-7 -17.5q0 -9 3 -17t3 -19q0 -20 -12.5 -33.5t-36.5 -13.5q-20 0 -30.5 14.5t-10.5 36.5q0 18 12 36t33 31.5t50 22t64 8.5q36 0 69.5 -7t59.5 -25.5t41.5 -50t15.5 -79.5v-261q0 -11 3.5 -26t16.5 -15q12 0 22 8t19 33zM334 263
q-40 -8 -76 -19t-63.5 -29t-44 -43.5t-16.5 -62.5q0 -38 21 -57t49 -19q19 0 38.5 8.5t36.5 20.5t31.5 26t23.5 25v150zM344 651q0 -20 -8 -38t-21.5 -31.5t-31.5 -21.5t-38 -8t-38.5 8t-32 21.5t-21.5 31.5t-8 38t8 38t21.5 32t32 22t38.5 8t38 -8t31.5 -21.5t21.5 -32
t8 -38.5zM305 651q0 23 -17.5 42t-42.5 19q-24 0 -42.5 -18.5t-18.5 -42.5t19 -42t42 -18q24 0 42 18.5t18 41.5z" />
    <glyph glyph-name="ae" unicode="&#xe6;" horiz-adv-x="766" 
d="M420 275q-1 -7 -1 -17.5v-19.5q0 -68 14.5 -109.5t36.5 -64.5t48 -30.5t50 -7.5q46 0 82 25.5t62 71.5l20 -11q-28 -53 -74.5 -88t-117.5 -35q-24 0 -48.5 5t-48 17.5t-44.5 33t-37 50.5q-26 -38 -54 -59.5t-55 -32t-51.5 -12.5t-42.5 -2q-24 0 -45.5 8t-37 22
t-24.5 33.5t-9 42.5q0 47 22.5 77.5t60 50.5t84.5 33t97 25l27 6v44q0 15 -3 39t-16 47t-39 39.5t-72 16.5q-14 0 -29.5 -7.5t-15.5 -26.5q0 -10 3 -19.5t3 -20.5q0 -21 -13 -34t-36 -13q-20 0 -32.5 13t-12.5 38q0 17 9.5 33.5t28 29t45 20t61.5 7.5q22 0 46.5 -3.5
t47.5 -12t44 -23t35 -35.5q28 35 66.5 54.5t92.5 19.5q48 0 84 -18.5t59 -48.5t34.5 -67.5t11.5 -76.5v-7h-316zM649 299q-1 30 -5 60t-15.5 55t-31.5 40.5t-53 15.5q-53 0 -85 -42.5t-38 -128.5h228zM334 265q-40 -8 -76 -19.5t-63.5 -29.5t-44 -44t-16.5 -63q0 -38 21 -59
t49 -21q24 0 47.5 8t42 22.5t29.5 33.5t11 40v132z" />
    <glyph glyph-name="ccedilla" unicode="&#xe7;" horiz-adv-x="480" 
d="M250 -11q-45 0 -84 17t-67.5 48.5t-45 77t-16.5 103.5q0 51 15.5 98t46 82.5t75.5 56.5t104 21q72 0 108.5 -26.5t36.5 -62.5q0 -29 -12 -41t-32 -12q-8 0 -17 2.5t-16.5 8.5t-12.5 16t-5 25q0 7 1.5 15t1.5 15q0 12 -13.5 21.5t-43.5 9.5q-27 0 -53 -11t-47 -37.5
t-33.5 -70.5t-12.5 -110q0 -55 12 -94.5t32.5 -65t48 -37.5t57.5 -12q24 0 47 9.5t42.5 25.5t33.5 37t22 44l25 -7q-6 -18 -18 -41.5t-33 -45.5t-52 -38.5t-73 -19.5l-22 -55q7 2 18 3.5t23 1.5q16 0 31.5 -3.5t27.5 -11.5t19.5 -20.5t7.5 -30.5q0 -22 -10.5 -38.5
t-28.5 -28t-41.5 -17t-48.5 -5.5q-20 0 -41.5 4.5t-38.5 11.5l7 15q13 -5 31 -8.5t30 -3.5q36 0 53 20t17 42q0 23 -12 32.5t-35 9.5q-13 0 -19.5 -1t-15.5 -5l-7 5l33 82v0z" />
    <glyph glyph-name="egrave" unicode="&#xe8;" horiz-adv-x="477" 
d="M128 272q0 -80 14.5 -128.5t36 -74.5t48 -34.5t50.5 -8.5q41 0 79.5 25.5t64.5 71.5l22 -11q-28 -53 -75.5 -88t-118.5 -35q-34 0 -71 12t-68.5 40.5t-52 76.5t-20.5 120q0 58 15 105t43.5 80.5t69 51.5t91.5 18q49 0 84.5 -19t59 -49t34.5 -68t11 -77v-8h-317zM358 302
q0 32 -6.5 61t-19.5 51.5t-34 36t-49 13.5q-53 0 -84 -38t-37 -124h230zM289 559l-145 90q-26 17 -36 27t-10 23q0 17 9 26.5t24 9.5q14 0 25.5 -6.5t34.5 -29.5l139 -140h-41z" />
    <glyph glyph-name="eacute" unicode="&#xe9;" horiz-adv-x="477" 
d="M128 272q0 -80 14.5 -128.5t36 -74.5t48 -34.5t50.5 -8.5q41 0 79.5 25.5t64.5 71.5l22 -11q-28 -53 -75.5 -88t-118.5 -35q-34 0 -71 12t-68.5 40.5t-52 76.5t-20.5 120q0 58 15 105t43.5 80.5t69 51.5t91.5 18q49 0 84.5 -19t59 -49t34.5 -68t11 -77v-8h-317zM358 302
q0 32 -6.5 61t-19.5 51.5t-34 36t-49 13.5q-53 0 -84 -38t-37 -124h230zM402 699q0 -14 -15 -27t-31 -23l-145 -90h-41l139 140q11 11 19 18t15 10.5t12.5 5t12.5 1.5q15 0 24.5 -9.5t9.5 -25.5z" />
    <glyph glyph-name="ecircumflex" unicode="&#xea;" horiz-adv-x="477" 
d="M128 272q0 -80 14.5 -128.5t36 -74.5t48 -34.5t50.5 -8.5q41 0 79.5 25.5t64.5 71.5l22 -11q-28 -53 -75.5 -88t-118.5 -35q-34 0 -71 12t-68.5 40.5t-52 76.5t-20.5 120q0 58 15 105t43.5 80.5t69 51.5t91.5 18q49 0 84.5 -19t59 -49t34.5 -68t11 -77v-8h-317zM358 302
q0 32 -6.5 61t-19.5 51.5t-34 36t-49 13.5q-53 0 -84 -38t-37 -124h230zM381 562q-13 8 -25 16q-11 7 -23 15t-22 16t-21 16t-21 16q-11 9 -22 17q-11 -8 -22 -17q-10 -8 -21 -16t-21 -16t-22 -16t-23 -15q-12 -8 -25 -16h-25q7 7 13.5 14t14.5 15t18 19.5t25 29.5
q11 13 19 22.5t15.5 19.5t15.5 21t20 26h36q12 -15 20 -26t15.5 -21t15.5 -19.5t19 -22.5q15 -18 25 -29.5t18 -19.5t14 -15t14 -14h-25z" />
    <glyph glyph-name="edieresis" unicode="&#xeb;" horiz-adv-x="477" 
d="M128 272q0 -80 14.5 -128.5t36 -74.5t48 -34.5t50.5 -8.5q41 0 79.5 25.5t64.5 71.5l22 -11q-28 -53 -75.5 -88t-118.5 -35q-34 0 -71 12t-68.5 40.5t-52 76.5t-20.5 120q0 58 15 105t43.5 80.5t69 51.5t91.5 18q49 0 84.5 -19t59 -49t34.5 -68t11 -77v-8h-317zM358 302
q0 32 -6.5 61t-19.5 51.5t-34 36t-49 13.5q-53 0 -84 -38t-37 -124h230zM409 650q0 -23 -15.5 -39t-39.5 -16t-40 16t-16 39q0 24 17 39.5t39 15.5t38.5 -15.5t16.5 -39.5zM220 650q0 -23 -16 -39t-40 -16t-40 16t-16 39q0 24 17 39.5t39 15.5t39 -15.5t17 -39.5z" />
    <glyph glyph-name="igrave" unicode="&#xec;" horiz-adv-x="300" 
d="M31 0v24h41q24 0 31 7.5t7 27.5v336q0 10 -2 16.5t-9.5 10.5t-22 5.5t-39.5 1.5v21q49 8 89.5 20t63.5 23v-434q0 -19 7 -27t31 -8h41v-24h-238zM170 559l-145 90q-26 17 -36 27t-10 23q0 17 9 26.5t24 9.5q14 0 25.5 -6.5t34.5 -29.5l139 -140h-41z" />
    <glyph glyph-name="iacute" unicode="&#xed;" horiz-adv-x="300" 
d="M31 0v24h41q24 0 31 7.5t7 27.5v336q0 10 -2 16.5t-9.5 10.5t-22 5.5t-39.5 1.5v21q49 8 89.5 20t63.5 23v-434q0 -19 7 -27t31 -8h41v-24h-238zM297 699q0 -14 -15 -27t-31 -23l-145 -90h-41l139 140q11 11 19 18t15 10.5t12.5 5t12.5 1.5q15 0 24.5 -9.5t9.5 -25.5z
" />
    <glyph glyph-name="icircumflex" unicode="&#xee;" horiz-adv-x="300" 
d="M31 0v24h41q24 0 31 7.5t7 27.5v336q0 10 -2 16.5t-9.5 10.5t-22 5.5t-39.5 1.5v21q49 8 89.5 20t63.5 23v-434q0 -19 7 -27t31 -8h41v-24h-238zM278 562q-13 8 -25 16q-11 7 -23 15t-22 16t-21 16t-21 16q-11 9 -22 17q-11 -8 -22 -17q-10 -8 -21 -16t-21 -16t-22 -16
t-23 -15q-12 -8 -25 -16h-25q7 7 13.5 14t14.5 15t18 19.5t25 29.5q11 13 19 22.5t15.5 19.5t15.5 21t20 26h36q12 -15 20 -26t15.5 -21t15.5 -19.5t19 -22.5q15 -18 25 -29.5t18 -19.5t14 -15t14 -14h-25z" />
    <glyph glyph-name="idieresis" unicode="&#xef;" horiz-adv-x="300" 
d="M279 650q0 -23 -15.5 -39t-39.5 -16t-40 16t-16 39q0 24 17 39.5t39 15.5t38.5 -15.5t16.5 -39.5zM120 650q0 -23 -16 -39t-40 -16t-40 16t-16 39q0 24 17 39.5t39 15.5t39 -15.5t17 -39.5zM31 0v24h41q24 0 31 7.5t7 27.5v336q0 10 -2 16.5t-9.5 10.5t-22 5.5t-39.5 1.5
v21q49 8 89.5 20t63.5 23v-434q0 -19 7 -27t31 -8h41v-24h-238z" />
    <glyph glyph-name="eth" unicode="&#xf0;" horiz-adv-x="549" 
d="M505 271q0 -61 -17.5 -112.5t-49 -89t-74 -59t-93.5 -21.5q-50 0 -93 17.5t-74.5 50.5t-49 79.5t-17.5 103.5q0 63 17.5 110.5t49 79t74.5 47.5t93 16q35 0 64 -9t55 -23q-15 47 -36.5 82.5t-47.5 61.5l-66 -54l-23 18l68 56q-38 32 -81 50t-86 27l5 18q14 0 36.5 -3.5
t49.5 -11.5t56.5 -20.5t56.5 -29.5l57 47l23 -18l-56 -46q42 -30 72 -70t49.5 -87.5t28.5 -101t9 -108.5zM414 252q0 61 -12 102t-32 65.5t-46 34.5t-53 10t-53 -10.5t-46 -36.5t-32 -69t-12 -108t12 -107.5t32 -68t46 -36t53 -10.5t53 13t46 41.5t32 73t12 106.5z" />
    <glyph glyph-name="ntilde" unicode="&#xf1;" horiz-adv-x="592" 
d="M325 0v24h40q24 0 31 8t7 27v263q0 48 -11.5 74.5t-28.5 39.5t-36 15.5t-35 2.5q-27 0 -52 -8.5t-50 -25.5v-361q0 -21 6.5 -28t31.5 -7h37v-24h-234v24h40q23 0 31 7t8 28v336q0 10 -2 16.5t-9.5 10.5t-22 5.5t-39.5 1.5v21q49 8 89.5 20t63.5 23v-43q45 26 76 34.5
t59 8.5q55 0 87 -18.5t47.5 -46.5t19.5 -60.5t4 -60.5v-248q0 -19 7 -27t31 -8h41v-24h-237zM463 667q-10 -18 -22 -35t-26.5 -30.5t-33 -21.5t-40.5 -8q-18 0 -34 9.5t-33 21t-35.5 21t-39.5 9.5q-23 0 -43.5 -9.5t-42.5 -41.5l-17 12q10 18 21.5 35t26.5 30.5t33 21.5
t41 8q21 0 40 -9.5t36.5 -21t33.5 -21t32 -9.5q23 0 44 9.5t43 41.5z" />
    <glyph glyph-name="ograve" unicode="&#xf2;" horiz-adv-x="543" 
d="M505 240q0 -57 -17.5 -103t-49 -79t-74 -51t-93.5 -18q-50 0 -93 17.5t-74.5 50.5t-49 79.5t-17.5 103.5q0 63 17.5 110.5t49 79t74.5 47.5t93 16q51 0 93.5 -15t74 -45.5t49 -78.5t17.5 -114zM414 240q0 65 -12 108t-32 69t-46 36.5t-53 10.5t-53 -10.5t-46 -36.5
t-32 -69t-12 -108t12 -107.5t32 -68t46 -36t53 -10.5t53 10.5t46 36t32 68t12 107.5zM319 559l-145 90q-26 17 -36 27t-10 23q0 17 9 26.5t24 9.5q14 0 25.5 -6.5t34.5 -29.5l139 -140h-41z" />
    <glyph glyph-name="oacute" unicode="&#xf3;" horiz-adv-x="543" 
d="M505 240q0 -57 -17.5 -103t-49 -79t-74 -51t-93.5 -18q-50 0 -93 17.5t-74.5 50.5t-49 79.5t-17.5 103.5q0 63 17.5 110.5t49 79t74.5 47.5t93 16q51 0 93.5 -15t74 -45.5t49 -78.5t17.5 -114zM414 240q0 65 -12 108t-32 69t-46 36.5t-53 10.5t-53 -10.5t-46 -36.5
t-32 -69t-12 -108t12 -107.5t32 -68t46 -36t53 -10.5t53 10.5t46 36t32 68t12 107.5zM401 699q0 -14 -15 -27t-31 -23l-145 -90h-41l139 140q11 11 19 18t15 10.5t12.5 5t12.5 1.5q15 0 24.5 -9.5t9.5 -25.5z" />
    <glyph glyph-name="ocircumflex" unicode="&#xf4;" horiz-adv-x="543" 
d="M505 240q0 -57 -17.5 -103t-49 -79t-74 -51t-93.5 -18q-50 0 -93 17.5t-74.5 50.5t-49 79.5t-17.5 103.5q0 63 17.5 110.5t49 79t74.5 47.5t93 16q51 0 93.5 -15t74 -45.5t49 -78.5t17.5 -114zM414 240q0 65 -12 108t-32 69t-46 36.5t-53 10.5t-53 -10.5t-46 -36.5
t-32 -69t-12 -108t12 -107.5t32 -68t46 -36t53 -10.5t53 10.5t46 36t32 68t12 107.5zM399 562q-13 8 -25 16q-11 7 -23 15t-22 16t-21 16t-21 16q-11 9 -22 17q-11 -8 -22 -17q-10 -8 -21 -16t-21 -16t-22 -16t-23 -15q-12 -8 -25 -16h-25q7 7 13.5 14t14.5 15t18 19.5
t25 29.5q11 13 19 22.5t15.5 19.5t15.5 21t20 26h36q12 -15 20 -26t15.5 -21t15.5 -19.5t19 -22.5q15 -18 25 -29.5t18 -19.5t14 -15t14 -14h-25z" />
    <glyph glyph-name="otilde" unicode="&#xf5;" horiz-adv-x="543" 
d="M505 240q0 -57 -17.5 -103t-49 -79t-74 -51t-93.5 -18q-50 0 -93 17.5t-74.5 50.5t-49 79.5t-17.5 103.5q0 63 17.5 110.5t49 79t74.5 47.5t93 16q51 0 93.5 -15t74 -45.5t49 -78.5t17.5 -114zM414 240q0 65 -12 108t-32 69t-46 36.5t-53 10.5t-53 -10.5t-46 -36.5
t-32 -69t-12 -108t12 -107.5t32 -68t46 -36t53 -10.5t53 10.5t46 36t32 68t12 107.5zM450 667q-10 -18 -22 -35t-26.5 -30.5t-33 -21.5t-40.5 -8q-18 0 -34 9.5t-33 21t-35.5 21t-39.5 9.5q-23 0 -43.5 -9.5t-42.5 -41.5l-17 12q10 18 21.5 35t26.5 30.5t33 21.5t41 8
q21 0 40 -9.5t36.5 -21t33.5 -21t32 -9.5q23 0 44 9.5t43 41.5z" />
    <glyph glyph-name="odieresis" unicode="&#xf6;" horiz-adv-x="543" 
d="M505 240q0 -57 -17.5 -103t-49 -79t-74 -51t-93.5 -18q-50 0 -93 17.5t-74.5 50.5t-49 79.5t-17.5 103.5q0 63 17.5 110.5t49 79t74.5 47.5t93 16q51 0 93.5 -15t74 -45.5t49 -78.5t17.5 -114zM414 240q0 65 -12 108t-32 69t-46 36.5t-53 10.5t-53 -10.5t-46 -36.5
t-32 -69t-12 -108t12 -107.5t32 -68t46 -36t53 -10.5t53 10.5t46 36t32 68t12 107.5zM426 650q0 -23 -15.5 -39t-39.5 -16t-40 16t-16 39q0 24 17 39.5t39 15.5t38.5 -15.5t16.5 -39.5zM237 650q0 -23 -16 -39t-40 -16t-40 16t-16 39q0 24 17 39.5t39 15.5t39 -15.5
t17 -39.5z" />
    <glyph glyph-name="divide" unicode="&#xf7;" horiz-adv-x="574" 
d="M350 424q0 -25 -19 -44.5t-44 -19.5q-26 0 -45.5 19t-19.5 45t19 45t45 19t45 -19t19 -45zM35 230v46h504v-46h-504zM350 82q0 -25 -19 -44.5t-44 -19.5q-26 0 -45.5 19t-19.5 45t19 45t45 19t45 -19t19 -45z" />
    <glyph glyph-name="oslash" unicode="&#xf8;" horiz-adv-x="543" 
d="M505 240q0 -57 -17.5 -103t-49 -79t-74 -51t-93.5 -18q-48 0 -89.5 16.5t-72.5 46.5l-60 -67l-21 22l60 68q-24 32 -37.5 73.5t-13.5 91.5q0 63 17.5 110.5t49 79t74.5 47.5t93 16q44 0 81.5 -10.5t66.5 -33.5l32 36l32 36l21 -22l-62 -70q30 -31 46.5 -77.5t16.5 -111.5
zM380 404q-20 36 -49 51t-60 15q-27 0 -53 -11.5t-46 -38.5t-32 -71t-12 -109q0 -62 12 -107zM414 240q0 83 -20 135l-243 -275q17 -50 50.5 -69.5t69.5 -19.5q27 0 53 11.5t46 38.5t32 70.5t12 108.5z" />
    <glyph glyph-name="ugrave" unicode="&#xf9;" horiz-adv-x="586" 
d="M397 0v44q-26 -20 -49.5 -31t-43 -16.5t-34 -6.5t-21.5 -1q-43 0 -70.5 14t-43.5 36.5t-22 49t-6 52.5v253q0 9 -2 15.5t-9.5 11t-22 6.5t-39.5 2v21q49 8 89.5 20t63.5 23v-352q0 -39 10.5 -61.5t26 -33t34 -13t33.5 -2.5q29 0 57 13t49 34v316q0 9 -2 15.5t-9.5 11
t-22 6.5t-39.5 2v21q49 8 89.5 20t63.5 23v-435q0 -17 7 -26t32 -9h40v-23h-159zM306 559l-145 90q-26 17 -36 27t-10 23q0 17 9 26.5t24 9.5q14 0 25.5 -6.5t34.5 -29.5l139 -140h-41z" />
    <glyph glyph-name="uacute" unicode="&#xfa;" horiz-adv-x="586" 
d="M397 0v44q-26 -20 -49.5 -31t-43 -16.5t-34 -6.5t-21.5 -1q-43 0 -70.5 14t-43.5 36.5t-22 49t-6 52.5v253q0 9 -2 15.5t-9.5 11t-22 6.5t-39.5 2v21q49 8 89.5 20t63.5 23v-352q0 -39 10.5 -61.5t26 -33t34 -13t33.5 -2.5q29 0 57 13t49 34v316q0 9 -2 15.5t-9.5 11
t-22 6.5t-39.5 2v21q49 8 89.5 20t63.5 23v-435q0 -17 7 -26t32 -9h40v-23h-159zM459 699q0 -14 -15 -27t-31 -23l-145 -90h-41l139 140q11 11 19 18t15 10.5t12.5 5t12.5 1.5q15 0 24.5 -9.5t9.5 -25.5z" />
    <glyph glyph-name="ucircumflex" unicode="&#xfb;" horiz-adv-x="586" 
d="M397 0v44q-26 -20 -49.5 -31t-43 -16.5t-34 -6.5t-21.5 -1q-43 0 -70.5 14t-43.5 36.5t-22 49t-6 52.5v253q0 9 -2 15.5t-9.5 11t-22 6.5t-39.5 2v21q49 8 89.5 20t63.5 23v-352q0 -39 10.5 -61.5t26 -33t34 -13t33.5 -2.5q29 0 57 13t49 34v316q0 9 -2 15.5t-9.5 11
t-22 6.5t-39.5 2v21q49 8 89.5 20t63.5 23v-435q0 -17 7 -26t32 -9h40v-23h-159zM429 562q-13 8 -25 16q-11 7 -23 15t-22 16t-21 16t-21 16q-11 9 -22 17q-11 -8 -22 -17q-10 -8 -21 -16t-21 -16t-22 -16t-23 -15q-12 -8 -25 -16h-25q7 7 13.5 14t14.5 15t18 19.5t25 29.5
q11 13 19 22.5t15.5 19.5t15.5 21t20 26h36q12 -15 20 -26t15.5 -21t15.5 -19.5t19 -22.5q15 -18 25 -29.5t18 -19.5t14 -15t14 -14h-25z" />
    <glyph glyph-name="udieresis" unicode="&#xfc;" horiz-adv-x="586" 
d="M397 0v44q-26 -20 -49.5 -31t-43 -16.5t-34 -6.5t-21.5 -1q-43 0 -70.5 14t-43.5 36.5t-22 49t-6 52.5v253q0 9 -2 15.5t-9.5 11t-22 6.5t-39.5 2v21q49 8 89.5 20t63.5 23v-352q0 -39 10.5 -61.5t26 -33t34 -13t33.5 -2.5q29 0 57 13t49 34v316q0 9 -2 15.5t-9.5 11
t-22 6.5t-39.5 2v21q49 8 89.5 20t63.5 23v-435q0 -17 7 -26t32 -9h40v-23h-159zM426 650q0 -23 -15.5 -39t-39.5 -16t-40 16t-16 39q0 24 17 39.5t39 15.5t38.5 -15.5t16.5 -39.5zM237 650q0 -23 -16 -39t-40 -16t-40 16t-16 39q0 24 17 39.5t39 15.5t39 -15.5t17 -39.5z
" />
    <glyph glyph-name="yacute" unicode="&#xfd;" horiz-adv-x="563" 
d="M520 457q-17 0 -25.5 -8t-16.5 -22q-10 -19 -17.5 -36t-14 -34.5t-13.5 -37t-16 -43.5q-12 -31 -24.5 -63t-24.5 -65q-16 -42 -32.5 -85.5t-34.5 -85.5q-16 -39 -33.5 -75.5t-39 -64.5t-49.5 -45t-66 -17t-61 18.5t-23 50.5q0 23 13 35t30 14q16 1 31.5 -7t17.5 -31
q2 -24 8 -33t19 -9q29 0 63 48.5t60 130.5l-181 428q-6 14 -15.5 25.5t-39.5 11.5h-21v24h218v-24h-37q-26 0 -26 -18q0 -5 1 -9.5t3 -9.5l142 -335q36 97 56.5 160t31 100t13 54t2.5 23v9t-2.5 11.5t-8.5 10t-17 4.5h-33v24h180v-24h-17zM450 699q0 -14 -15 -27t-31 -23
l-145 -90h-41l139 140q11 11 19 18t15 10.5t12.5 5t12.5 1.5q15 0 24.5 -9.5t9.5 -25.5z" />
    <glyph glyph-name="thorn" unicode="&#xfe;" horiz-adv-x="586" 
d="M543 242q0 -51 -15.5 -97t-44.5 -80.5t-72.5 -54.5t-98.5 -21q-32 0 -61 6t-61 24v-186q0 -20 5 -27.5t30 -7.5h44v-23h-238v23h40q23 0 31 7t8 28v860q0 11 -1.5 17.5t-8.5 9.5t-21.5 4.5t-41.5 1.5v20q45 5 79.5 15t73.5 27v-345q7 8 21 16.5t32 16t38.5 12.5t41.5 5
q36 0 75 -12t71 -41t53 -77.5t21 -120.5zM452 239q0 57 -12 98t-34 68t-51.5 40t-64.5 13q-17 0 -33.5 -5t-30 -12t-23 -14.5t-13.5 -11.5v-339q7 -21 20.5 -34t29.5 -20t32 -9t28 -2q33 0 61 16t48.5 45.5t31.5 71.5t11 95z" />
    <glyph glyph-name="ydieresis" unicode="&#xff;" horiz-adv-x="563" 
d="M520 457q-17 0 -25.5 -8t-16.5 -22q-10 -19 -17.5 -36t-14 -34.5t-13.5 -37t-16 -43.5q-12 -31 -24.5 -63t-24.5 -65q-16 -42 -32.5 -85.5t-34.5 -85.5q-16 -39 -33.5 -75.5t-39 -64.5t-49.5 -45t-66 -17t-61 18.5t-23 50.5q0 23 13 35t30 14q16 1 31.5 -7t17.5 -31
q2 -24 8 -33t19 -9q29 0 63 48.5t60 130.5l-181 428q-6 14 -15.5 25.5t-39.5 11.5h-21v24h218v-24h-37q-26 0 -26 -18q0 -5 1 -9.5t3 -9.5l142 -335q36 97 56.5 160t31 100t13 54t2.5 23v9t-2.5 11.5t-8.5 10t-17 4.5h-33v24h180v-24h-17zM437 650q0 -23 -15.5 -39
t-39.5 -16t-40 16t-16 39q0 24 17 39.5t39 15.5t38.5 -15.5t16.5 -39.5zM248 650q0 -23 -16 -39t-40 -16t-40 16t-16 39q0 24 17 39.5t39 15.5t39 -15.5t17 -39.5z" />
    <glyph glyph-name="Amacron" unicode="&#x100;" horiz-adv-x="725" 
d="M446 0v33h41q6 0 13 0.5t13.5 3t11 7t4.5 13.5q0 11 -6.5 31t-17.5 50l-50 146h-237l-25 -64q-5 -14 -12.5 -33t-14.5 -38.5t-11.5 -38.5t-4.5 -33q0 -23 6.5 -31t19.5 -13h45v-33h-211v33h33q12 8 23.5 20.5t28.5 43.5t42 88t63 153q28 70 65 167t79 218h44l231 -631
q9 -25 22.5 -42t48.5 -17h24v-33h-268zM337 609l-109 -296h215zM225 794v36h291v-36h-291z" />
    <glyph glyph-name="amacron" unicode="&#x101;" horiz-adv-x="509" 
d="M498 60q-14 -35 -36 -53t-58 -18q-19 0 -32.5 7.5t-21.5 19.5t-12 28t-4 34q-28 -30 -52.5 -47.5t-46.5 -26.5t-41 -12t-35 -3q-24 0 -45.5 8.5t-37 23t-24.5 33.5t-9 41q0 48 24.5 79t63.5 51.5t87.5 33.5t96.5 24l19 4v44q0 30 -5 55t-18.5 42t-36.5 26.5t-59 9.5
q-7 0 -17.5 -2t-20.5 -6t-17 -11.5t-7 -17.5q0 -9 3 -17t3 -19q0 -20 -12.5 -33.5t-36.5 -13.5q-20 0 -30.5 14.5t-10.5 36.5q0 18 12 36t33 31.5t50 22t64 8.5q36 0 69.5 -7t59.5 -25.5t41.5 -50t15.5 -79.5v-261q0 -11 3.5 -26t16.5 -15q12 0 22 8t19 33zM334 263
q-40 -8 -76 -19t-63.5 -29t-44 -43.5t-16.5 -62.5q0 -38 21 -57t49 -19q19 0 38.5 8.5t36.5 20.5t31.5 26t23.5 25v150zM109 582v36h291v-36h-291z" />
    <glyph glyph-name="Abreve" unicode="&#x102;" horiz-adv-x="725" 
d="M446 0v33h41q6 0 13 0.5t13.5 3t11 7t4.5 13.5q0 11 -6.5 31t-17.5 50l-50 146h-237l-25 -64q-5 -14 -12.5 -33t-14.5 -38.5t-11.5 -38.5t-4.5 -33q0 -23 6.5 -31t19.5 -13h45v-33h-211v33h33q12 8 23.5 20.5t28.5 43.5t42 88t63 153q28 70 65 167t79 218h44l231 -631
q9 -25 22.5 -42t48.5 -17h24v-33h-268zM337 609l-109 -296h215zM512 920q-7 -61 -50 -96.5t-106 -35.5q-29 0 -56 8.5t-48 25.5t-34 41.5t-15 56.5h29q5 -20 18 -34t31 -22.5t39 -12t41 -3.5q19 0 38 3.5t36 12t29.5 22t18.5 34.5h29z" />
    <glyph glyph-name="abreve" unicode="&#x103;" horiz-adv-x="509" 
d="M498 60q-14 -35 -36 -53t-58 -18q-19 0 -32.5 7.5t-21.5 19.5t-12 28t-4 34q-28 -30 -52.5 -47.5t-46.5 -26.5t-41 -12t-35 -3q-24 0 -45.5 8.5t-37 23t-24.5 33.5t-9 41q0 48 24.5 79t63.5 51.5t87.5 33.5t96.5 24l19 4v44q0 30 -5 55t-18.5 42t-36.5 26.5t-59 9.5
q-7 0 -17.5 -2t-20.5 -6t-17 -11.5t-7 -17.5q0 -9 3 -17t3 -19q0 -20 -12.5 -33.5t-36.5 -13.5q-20 0 -30.5 14.5t-10.5 36.5q0 18 12 36t33 31.5t50 22t64 8.5q36 0 69.5 -7t59.5 -25.5t41.5 -50t15.5 -79.5v-261q0 -11 3.5 -26t16.5 -15q12 0 22 8t19 33zM334 263
q-40 -8 -76 -19t-63.5 -29t-44 -43.5t-16.5 -62.5q0 -38 21 -57t49 -19q19 0 38.5 8.5t36.5 20.5t31.5 26t23.5 25v150zM399 720q-2 -32 -13 -61t-30.5 -50.5t-48 -34t-65.5 -12.5q-35 0 -62.5 12.5t-46.5 34.5t-30 50.5t-13 60.5h30q10 -41 44 -69t85 -28q27 0 47 7.5
t34.5 20.5t24 30.5t14.5 38.5h30z" />
    <glyph glyph-name="Aogonek" unicode="&#x104;" horiz-adv-x="725" 
d="M634 0q-14 -18 -25 -40t-11 -48q0 -17 11.5 -27.5t29.5 -10.5t38 11t34 25l16 -21q-25 -23 -53 -39.5t-62 -16.5q-29 0 -46.5 18t-17.5 46q0 26 15 53t41 50h-158v33h41q6 0 13 0.5t13.5 3t11 7t4.5 13.5q0 11 -6.5 31t-17.5 50l-50 146h-237l-25 -64q-5 -14 -12.5 -33
t-14.5 -38.5t-11.5 -38.5t-4.5 -33q0 -23 6.5 -31t19.5 -13h45v-33h-211v33h33q12 8 23.5 20.5t28.5 43.5t42 88t63 153q28 70 65 167t79 218h44l231 -631q4 -11 8.5 -21.5t12.5 -18.5t20 -13.5t30 -5.5h24v-33h-80zM337 609l-109 -296h215z" />
    <glyph glyph-name="aogonek" unicode="&#x105;" horiz-adv-x="509" 
d="M540 -111q-25 -23 -53 -39.5t-62 -16.5q-29 0 -46.5 17t-17.5 43t12.5 48.5t38.5 48.5q-42 0 -60 26.5t-18 61.5q-28 -30 -52.5 -47.5t-46.5 -26.5t-41 -12t-35 -3q-24 0 -45.5 8.5t-37 23t-24.5 33.5t-9 41q0 48 24.5 79t63.5 51.5t87.5 33.5t96.5 24l19 4v44
q0 30 -5 55t-18.5 42t-36.5 26.5t-59 9.5q-31 0 -46.5 -11t-15.5 -23q0 -11 3 -19t3 -20q0 -20 -12.5 -33.5t-36.5 -13.5q-20 0 -30.5 14.5t-10.5 36.5q0 18 12 36t33 31.5t50 22t64 8.5q36 0 69.5 -7t59.5 -25.5t41.5 -50t15.5 -79.5v-261q0 -11 3.5 -26t16.5 -15
q12 0 22 8t19 33l23 -10q-16 -49 -53 -63q-14 -18 -24 -39t-10 -46q0 -17 11.5 -27.5t29.5 -10.5t38 11t34 25zM334 263q-40 -8 -76 -19t-63.5 -29t-44 -43.5t-16.5 -62.5q0 -38 21 -57t49 -19q19 0 38.5 8.5t36.5 20.5t31.5 26t23.5 25v150z" />
    <glyph glyph-name="Cacute" unicode="&#x106;" horiz-adv-x="772" 
d="M735 194q-27 -58 -63 -97.5t-76.5 -64t-84 -35.5t-86.5 -11q-86 0 -152 27.5t-110.5 76.5t-67.5 117t-23 148q0 63 20.5 130.5t66 124t117.5 93t174 36.5q22 0 44 -2.5t46 -8t51.5 -14.5t60.5 -21l-1 30h33l13 -193h-34l-2 46q-13 27 -34 50.5t-50 41t-66 28t-82 10.5
q-66 0 -112 -27.5t-75 -75t-42.5 -110t-13.5 -132.5q0 -93 21.5 -157.5t58 -104.5t84 -58t100.5 -18q45 0 84.5 15.5t72.5 41.5t58.5 59t43.5 68zM592 905q0 -12 -13 -23t-33 -23l-145 -90h-41l139 140q11 11 19.5 18t15 10.5t12.5 4.5t13 1q15 0 24 -10.5t9 -27.5z" />
    <glyph glyph-name="cacute" unicode="&#x107;" horiz-adv-x="470" 
d="M448 135q-6 -19 -19.5 -44.5t-37 -48t-57.5 -38t-81 -15.5q-46 0 -85.5 16.5t-68.5 48t-45.5 77t-16.5 104.5q0 51 15.5 98t46 82.5t75.5 56.5t104 21q72 0 108.5 -26.5t36.5 -62.5q0 -29 -12.5 -41t-31.5 -12q-20 0 -35.5 10.5t-15.5 41.5q0 7 1.5 15t1.5 15
q0 12 -13.5 21.5t-43.5 9.5q-27 0 -53 -11t-47 -37.5t-33.5 -70.5t-12.5 -110q0 -55 12 -94.5t32.5 -65t48 -37.5t57.5 -12q24 0 47 9.5t42.5 25.5t33.5 37t22 44zM412 699q0 -14 -15 -27t-31 -23l-145 -90h-41l139 140q11 11 19 18t15 10.5t12.5 5t12.5 1.5q15 0 24.5 -9.5
t9.5 -25.5z" />
    <glyph glyph-name="Cdotaccent" unicode="&#x10a;" horiz-adv-x="772" 
d="M735 194q-27 -58 -63 -97.5t-76.5 -64t-84 -35.5t-86.5 -11q-86 0 -152 27.5t-110.5 76.5t-67.5 117t-23 148q0 63 20.5 130.5t66 124t117.5 93t174 36.5q22 0 44 -2.5t46 -8t51.5 -14.5t60.5 -21l-1 30h33l13 -193h-34l-2 46q-13 27 -34 50.5t-50 41t-66 28t-82 10.5
q-66 0 -112 -27.5t-75 -75t-42.5 -110t-13.5 -132.5q0 -93 21.5 -157.5t58 -104.5t84 -58t100.5 -18q45 0 84.5 15.5t72.5 41.5t58.5 59t43.5 68zM480 854q0 -21 -15.5 -38t-40.5 -17t-40 17t-15 38q0 22 15 39t40 17t40.5 -17t15.5 -39z" />
    <glyph glyph-name="cdotaccent" unicode="&#x10b;" horiz-adv-x="470" 
d="M448 135q-6 -19 -19.5 -44.5t-37 -48t-57.5 -38t-81 -15.5q-46 0 -85.5 16.5t-68.5 48t-45.5 77t-16.5 104.5q0 51 15.5 98t46 82.5t75.5 56.5t104 21q72 0 108.5 -26.5t36.5 -62.5q0 -29 -12.5 -41t-31.5 -12q-20 0 -35.5 10.5t-15.5 41.5q0 7 1.5 15t1.5 15
q0 12 -13.5 21.5t-43.5 9.5q-27 0 -53 -11t-47 -37.5t-33.5 -70.5t-12.5 -110q0 -55 12 -94.5t32.5 -65t48 -37.5t57.5 -12q24 0 47 9.5t42.5 25.5t33.5 37t22 44zM312 657q0 -21 -15.5 -38t-40.5 -17t-40 17t-15 38q0 22 15 39t40 17t40.5 -17t15.5 -39z" />
    <glyph glyph-name="Ccaron" unicode="&#x10c;" horiz-adv-x="772" 
d="M735 194q-27 -58 -63 -97.5t-76.5 -64t-84 -35.5t-86.5 -11q-86 0 -152 27.5t-110.5 76.5t-67.5 117t-23 148q0 63 20.5 130.5t66 124t117.5 93t174 36.5q22 0 44 -2.5t46 -8t51.5 -14.5t60.5 -21l-1 30h33l13 -193h-34l-2 46q-13 27 -34 50.5t-50 41t-66 28t-82 10.5
q-66 0 -112 -27.5t-75 -75t-42.5 -110t-13.5 -132.5q0 -93 21.5 -157.5t58 -104.5t84 -58t100.5 -18q45 0 84.5 15.5t72.5 41.5t58.5 59t43.5 68zM587 939q-8 -8 -14 -14.5t-14 -14.5t-18 -19.5t-25 -29.5q-11 -13 -19 -22.5t-15.5 -19.5t-15.5 -21t-20 -26h-36
q-12 15 -20 26t-15.5 21t-15.5 19.5t-19 22.5q-15 18 -25 29.5t-18 19.5l-14.5 14.5t-13.5 14.5h25q13 -8 25 -16q11 -7 22.5 -15t22.5 -16q10 -8 21 -16t21 -16l22 -18q11 8 22 17q10 8 21 16.5t21 16.5t22 16t23 15q12 8 25 16h25z" />
    <glyph glyph-name="ccaron" unicode="&#x10d;" horiz-adv-x="470" 
d="M448 135q-6 -19 -19.5 -44.5t-37 -48t-57.5 -38t-81 -15.5q-46 0 -85.5 16.5t-68.5 48t-45.5 77t-16.5 104.5q0 51 15.5 98t46 82.5t75.5 56.5t104 21q72 0 108.5 -26.5t36.5 -62.5q0 -29 -12.5 -41t-31.5 -12q-20 0 -35.5 10.5t-15.5 41.5q0 7 1.5 15t1.5 15
q0 12 -13.5 21.5t-43.5 9.5q-27 0 -53 -11t-47 -37.5t-33.5 -70.5t-12.5 -110q0 -55 12 -94.5t32.5 -65t48 -37.5t57.5 -12q24 0 47 9.5t42.5 25.5t33.5 37t22 44zM407 739q-8 -8 -14 -14.5t-14 -14.5t-18 -19.5t-25 -29.5q-11 -13 -19 -22.5t-15.5 -19.5t-15.5 -21t-20 -26
h-36q-12 15 -20 26t-15.5 21t-15.5 19.5t-19 22.5q-15 18 -25 29.5t-18 19.5l-14.5 14.5t-13.5 14.5h25q13 -8 25 -16q11 -7 22.5 -15t22.5 -16q10 -8 21 -16t21 -16l22 -18q11 8 22 17q10 8 21 16.5t21 16.5t22 16t23 15q12 8 25 16h25z" />
    <glyph glyph-name="Dcaron" unicode="&#x10e;" horiz-adv-x="864" 
d="M700 379q0 29 -5 64t-17 70.5t-32.5 68.5t-51.5 58t-73.5 40.5t-99.5 15.5q-44 0 -79.5 -4.5t-76.5 -23.5v-609q20 -11 58.5 -21.5t94.5 -10.5q72 0 125 29.5t88 78t52 112t17 132.5zM169 648q0 27 -13.5 36.5t-42.5 9.5h-43v29h160q19 0 43.5 1t51 1.5t51.5 1.5t45 1
q88 0 151 -19t107 -49.5t70.5 -69t41 -76t19 -71.5t4.5 -56q0 -32 -6 -73.5t-22 -85.5t-44 -85.5t-72 -74.5t-105 -53t-144 -20q-39 0 -78 2.5t-75 2.5h-198v33h43q35 0 45.5 10t10.5 36v569zM556 939q-8 -8 -14 -14.5t-14 -14.5t-18 -19.5t-25 -29.5q-11 -13 -19 -22.5
t-15.5 -19.5t-15.5 -21t-20 -26h-36q-12 15 -20 26t-15.5 21t-15.5 19.5t-19 22.5q-15 18 -25 29.5t-18 19.5l-14.5 14.5t-13.5 14.5h25q13 -8 25 -16q11 -7 22.5 -15t22.5 -16q10 -8 21 -16t21 -16l22 -18q11 8 22 17q10 8 21 16.5t21 16.5t22 16t23 15q12 8 25 16h25z" />
    <glyph glyph-name="dcaron" unicode="&#x10f;" horiz-adv-x="591" 
d="M403 410q-13 29 -43.5 41.5t-63.5 12.5q-79 0 -120.5 -55.5t-41.5 -164.5q0 -68 15.5 -110.5t39.5 -66.5t52.5 -32.5t54.5 -8.5q29 0 49.5 7.5t33 18t18.5 21t6 16.5v321zM483 119q0 -50 20.5 -72t50.5 -22h4v-25h-120q-7 8 -14.5 16t-13.5 24q-25 -18 -58.5 -34.5
t-85.5 -16.5q-30 0 -69 11t-73 38.5t-57.5 75.5t-23.5 122q0 58 19.5 105.5t53 81t79 51.5t96.5 19q53 0 112 -20v216q0 9 -2 15.5t-9.5 11t-22 6.5t-39.5 2v21q49 8 89.5 20t63.5 23v-669zM520 515q13 20 26.5 52t13.5 67q0 30 -9.5 48.5t-20.5 30.5l12 24h70
q5 -17 6.5 -31.5t1.5 -26.5q0 -54 -22 -96.5t-54 -81.5z" />
    <glyph glyph-name="Dcroat" unicode="&#x110;" horiz-adv-x="864" 
d="M814 387q0 -32 -6 -73.5t-22 -85.5t-44 -85.5t-72 -74.5t-105 -53t-144 -20q-39 0 -78 2.5t-75 2.5h-198v33h43q35 0 45.5 10t10.5 36v285h-115v32h115v250q0 27 -13.5 36.5t-42.5 9.5h-43v31h160q19 0 43.5 1t51 1.5t51.5 1.5t45 1q88 0 151 -19t107 -49.5t70.5 -69
t41 -76t19 -71.5t4.5 -56zM700 379q0 29 -5 64t-17 70.5t-32.5 68.5t-51.5 58t-73.5 40.5t-99.5 15.5q-44 0 -79.5 -4.5t-76.5 -23.5v-272h126v-32h-126v-305q20 -11 58.5 -21.5t94.5 -10.5q72 0 125 29.5t88 78t52 112t17 132.5z" />
    <glyph glyph-name="dcroat" unicode="&#x111;" horiz-adv-x="591" 
d="M273 650h130v39q0 9 -2 15.5t-9.5 11t-22 6.5t-39.5 2v21q49 8 89.5 20t63.5 23v-138h59v-35h-59v-496q0 -51 20.5 -72.5t54.5 -21.5v-25h-120q-8 9 -14 17.5t-14 22.5q-25 -18 -58.5 -34.5t-85.5 -16.5q-30 0 -69 10.5t-73 38t-57.5 75.5t-23.5 123q0 59 19.5 106
t53 80.5t79 51.5t96.5 19q53 0 112 -20v142h-130v35zM403 410q-13 29 -43 41.5t-64 12.5q-78 0 -120 -55.5t-42 -164.5q0 -68 15.5 -110.5t39.5 -66.5t52.5 -32.5t54.5 -8.5q29 0 49.5 7.5t33 18t18.5 21t6 16.5v321z" />
    <glyph glyph-name="Emacron" unicode="&#x112;" horiz-adv-x="680" 
d="M634 723l7 -162h-35l-15 65q-8 14 -29.5 25.5t-52.5 20t-68 13.5t-76 5q-31 0 -50.5 -2t-30.5 -7t-15 -14.5t-4 -24.5v-246h48q68 0 105 6t54 15t20 19t3 19v26h31v-200h-31v27q0 9 -3 19t-20 18.5t-54 14.5t-105 6h-48v-286q0 -31 16 -38.5t39 -7.5q68 0 121.5 4
t96.5 21q40 15 62.5 32.5t32.5 42.5l6 31h35l-33 -165h-571v33h43q35 0 45.5 10t10.5 36v567q0 31 -15.5 38.5t-40.5 7.5h-43v31h564zM223 793v36h291v-36h-291z" />
    <glyph glyph-name="emacron" unicode="&#x113;" horiz-adv-x="477" 
d="M128 272q0 -80 14.5 -128.5t36 -74.5t48 -34.5t50.5 -8.5q41 0 79.5 25.5t64.5 71.5l22 -11q-28 -53 -75.5 -88t-118.5 -35q-34 0 -71 12t-68.5 40.5t-52 76.5t-20.5 120q0 58 15 105t43.5 80.5t69 51.5t91.5 18q49 0 84.5 -19t59 -49t34.5 -68t11 -77v-8h-317zM358 302
q0 32 -6.5 61t-19.5 51.5t-34 36t-49 13.5q-53 0 -84 -38t-37 -124h230zM93 582v36h291v-36h-291z" />
    <glyph glyph-name="Edotaccent" unicode="&#x116;" horiz-adv-x="680" 
d="M634 723l7 -162h-35l-15 65q-8 14 -29.5 25.5t-52.5 20t-68 13.5t-76 5q-31 0 -50.5 -2t-30.5 -7t-15 -14.5t-4 -24.5v-246h48q68 0 105 6t54 15t20 19t3 19v26h31v-200h-31v27q0 9 -3 19t-20 18.5t-54 14.5t-105 6h-48v-286q0 -31 16 -38.5t39 -7.5q68 0 121.5 4
t96.5 21q40 15 62.5 32.5t32.5 42.5l6 31h35l-33 -165h-571v33h43q35 0 45.5 10t10.5 36v567q0 31 -15.5 38.5t-40.5 7.5h-43v31h564zM422 854q0 -21 -15.5 -38t-40.5 -17t-40 17t-15 38q0 22 15 39t40 17t40.5 -17t15.5 -39z" />
    <glyph glyph-name="edotaccent" unicode="&#x117;" horiz-adv-x="477" 
d="M128 272q0 -80 14.5 -128.5t36 -74.5t48 -34.5t50.5 -8.5q41 0 79.5 25.5t64.5 71.5l22 -11q-28 -53 -75.5 -88t-118.5 -35q-34 0 -71 12t-68.5 40.5t-52 76.5t-20.5 120q0 58 15 105t43.5 80.5t69 51.5t91.5 18q49 0 84.5 -19t59 -49t34.5 -68t11 -77v-8h-317zM358 302
q0 32 -6.5 61t-19.5 51.5t-34 36t-49 13.5q-53 0 -84 -38t-37 -124h230zM294 657q0 -21 -15.5 -38t-40.5 -17t-40 17t-15 38q0 22 15 39t40 17t40.5 -17t15.5 -39z" />
    <glyph glyph-name="Eogonek" unicode="&#x118;" horiz-adv-x="680" 
d="M634 723l7 -162h-35l-15 65q-8 14 -29.5 25.5t-52.5 20t-68 13.5t-76 5q-31 0 -50.5 -2t-30.5 -7t-15 -14.5t-4 -24.5v-246h48q68 0 105 6t54 15t20 19t3 19v26h31v-200h-31v27q0 9 -3 19t-20 18.5t-54 14.5t-105 6h-48v-286q0 -31 16 -38.5t39 -7.5q68 0 121.5 4
t96.5 21q40 15 62.5 32.5t32.5 42.5l6 31h35l-33 -165h-63q-14 -18 -25 -41.5t-11 -46.5q0 -17 11.5 -27.5t29.5 -10.5t38 11t34 25l16 -21q-25 -23 -53 -39.5t-62 -16.5q-29 0 -46.5 18t-17.5 46q0 25 15.5 53t38.5 50h-476v33h43q35 0 45.5 10t10.5 36v567
q0 31 -15.5 38.5t-40.5 7.5h-43v31h564z" />
    <glyph glyph-name="eogonek" unicode="&#x119;" horiz-adv-x="477" 
d="M442 -111q-25 -23 -48.5 -39.5t-57.5 -16.5q-36 0 -54.5 18.5t-18.5 46.5q0 29 18 56t41 47q-17 -5 -35 -8.5t-38 -3.5q-34 0 -71 12t-68.5 40.5t-52 76.5t-20.5 120q0 58 15 105t43.5 80.5t69 51.5t91.5 18q49 0 84.5 -19t59 -49t34.5 -68t11 -77v-8h-317
q0 -80 14.5 -128.5t36 -74.5t48 -34.5t50.5 -8.5q41 0 79.5 25.5t64.5 71.5l22 -11q-16 -29 -37 -53.5t-50 -41.5q-17 -21 -30 -47.5t-13 -54.5q0 -17 11.5 -29t29.5 -12t38 11t34 25zM358 302q0 32 -6.5 61t-19.5 51.5t-34 36t-49 13.5q-53 0 -84 -38t-37 -124h230z" />
    <glyph glyph-name="Ecaron" unicode="&#x11a;" horiz-adv-x="680" 
d="M634 723l7 -162h-35l-15 65q-8 14 -29.5 25.5t-52.5 20t-68 13.5t-76 5q-31 0 -50.5 -2t-30.5 -7t-15 -14.5t-4 -24.5v-246h48q68 0 105 6t54 15t20 19t3 19v26h31v-200h-31v27q0 9 -3 19t-20 18.5t-54 14.5t-105 6h-48v-286q0 -31 16 -38.5t39 -7.5q68 0 121.5 4
t96.5 21q40 15 62.5 32.5t32.5 42.5l6 31h35l-33 -165h-571v33h43q35 0 45.5 10t10.5 36v567q0 31 -15.5 38.5t-40.5 7.5h-43v31h564zM534 939q-8 -8 -14 -14.5t-14 -14.5t-18 -19.5t-25 -29.5q-11 -13 -19 -22.5t-15.5 -19.5t-15.5 -21t-20 -26h-36q-12 15 -20 26t-15.5 21
t-15.5 19.5t-19 22.5q-15 18 -25 29.5t-18 19.5l-14.5 14.5t-13.5 14.5h25q13 -8 25 -16q11 -7 22.5 -15t22.5 -16q10 -8 21 -16t21 -16l22 -18q11 8 22 17q10 8 21 16.5t21 16.5t22 16t23 15q12 8 25 16h25z" />
    <glyph glyph-name="ecaron" unicode="&#x11b;" horiz-adv-x="477" 
d="M128 272q0 -80 14.5 -128.5t36 -74.5t48 -34.5t50.5 -8.5q41 0 79.5 25.5t64.5 71.5l22 -11q-28 -53 -75.5 -88t-118.5 -35q-34 0 -71 12t-68.5 40.5t-52 76.5t-20.5 120q0 58 15 105t43.5 80.5t69 51.5t91.5 18q49 0 84.5 -19t59 -49t34.5 -68t11 -77v-8h-317zM358 302
q0 32 -6.5 61t-19.5 51.5t-34 36t-49 13.5q-53 0 -84 -38t-37 -124h230zM397 739q-8 -8 -14 -14.5t-14 -14.5t-18 -19.5t-25 -29.5q-11 -13 -19 -22.5t-15.5 -19.5t-15.5 -21t-20 -26h-36q-12 15 -20 26t-15.5 21t-15.5 19.5t-19 22.5q-15 18 -25 29.5t-18 19.5l-14.5 14.5
t-13.5 14.5h25q13 -8 25 -16q11 -7 22.5 -15t22.5 -16q10 -8 21 -16t21 -16l22 -18q11 8 22 17q10 8 21 16.5t21 16.5t22 16t23 15q12 8 25 16h25z" />
    <glyph glyph-name="Gbreve" unicode="&#x11e;" horiz-adv-x="829" 
d="M791 323q-11 0 -21 -1t-18 -5t-12.5 -12.5t-4.5 -24.5v-185q-25 -25 -58 -45t-70.5 -34.5t-77.5 -22.5t-79 -8q-99 0 -170.5 32.5t-117.5 86t-68 121t-22 137.5q0 82 29.5 151t81 119.5t121.5 78.5t151 28q43 0 97.5 -10.5t105.5 -34.5v40h35l9 -188h-32l-2 33
q-10 22 -29.5 45t-47 41t-62.5 29.5t-77 11.5q-57 0 -105.5 -22.5t-84.5 -66.5t-56 -109t-20 -150q0 -97 25 -162.5t63.5 -105.5t85 -57t89.5 -17q59 0 96 15.5t58 37t28.5 43.5t7.5 36v132q0 29 -15 36t-39 7h-31v32h270v-32h-33zM594 920q-7 -61 -50 -96.5t-106 -35.5
q-29 0 -56 8.5t-48 25.5t-34 41.5t-15 56.5h29q5 -20 18 -34t31 -22.5t39 -12t41 -3.5q19 0 38 3.5t36 12t29.5 22t18.5 34.5h29z" />
    <glyph glyph-name="gbreve" unicode="&#x11f;" horiz-adv-x="554" 
d="M510 507q0 -20 -12 -29t-27 -9q-11 0 -17 3.5t-14 11.5q-6 6 -8.5 10.5t-13.5 4.5q-8 0 -17 -11t-15 -22q40 -18 65.5 -54.5t25.5 -87.5t-22 -85t-55 -54.5t-70.5 -29t-68.5 -8.5q-9 0 -20 0.5t-22 0.5q-23 0 -37.5 -3t-22 -8t-10 -11t-2.5 -12q0 -13 7.5 -21.5
t19.5 -13.5t26 -8t28 -5q1 0 3 -0.5t10.5 -2t26.5 -4.5t51 -9q32 -6 65 -14t59.5 -22.5t43.5 -37t17 -56.5q0 -25 -10.5 -50.5t-37.5 -46.5t-74 -34.5t-121 -13.5q-77 0 -125 11.5t-75 29.5t-36.5 40t-9.5 43q0 43 31.5 72.5t100.5 43.5q-8 4 -18.5 10t-19.5 15t-15.5 20.5
t-6.5 26.5q0 32 26.5 51.5t61.5 24.5q-63 20 -94.5 60.5t-31.5 100.5q0 37 15 68.5t43 53.5t67.5 34.5t88.5 12.5q38 0 59 -5t43 -13l2 4q6 10 14 22t19 22.5t27 17t38 6.5q14 0 29.5 -9.5t15.5 -30.5zM389 322q0 40 -11 67.5t-29 44t-41.5 23.5t-48.5 7q-38 0 -61.5 -14.5
t-37 -36.5t-18.5 -48t-5 -50q0 -12 4 -35.5t17 -46.5t37 -40t65 -17q33 0 57 12.5t40 33t24 47t8 53.5zM437 -107q0 12 -5.5 24t-19 23.5t-37.5 21.5t-60 17l-138 25q-18 -4 -35.5 -12.5t-31.5 -21t-22.5 -28.5t-8.5 -36q0 -21 8.5 -40t29.5 -33.5t57 -23.5t91 -9
q91 0 131.5 28t40.5 65zM431 720q-2 -32 -13 -61t-30.5 -50.5t-48 -34t-65.5 -12.5q-35 0 -62.5 12.5t-46.5 34.5t-30 50.5t-13 60.5h30q10 -41 44 -69t85 -28q27 0 47 7.5t34.5 20.5t24 30.5t14.5 38.5h30z" />
    <glyph glyph-name="Gdotaccent" unicode="&#x120;" horiz-adv-x="829" 
d="M791 323q-11 0 -21 -1t-18 -5t-12.5 -12.5t-4.5 -24.5v-185q-25 -25 -58 -45t-70.5 -34.5t-77.5 -22.5t-79 -8q-99 0 -170.5 32.5t-117.5 86t-68 121t-22 137.5q0 82 29.5 151t81 119.5t121.5 78.5t151 28q43 0 97.5 -10.5t105.5 -34.5v40h35l9 -188h-32l-2 33
q-10 22 -29.5 45t-47 41t-62.5 29.5t-77 11.5q-57 0 -105.5 -22.5t-84.5 -66.5t-56 -109t-20 -150q0 -97 25 -162.5t63.5 -105.5t85 -57t89.5 -17q59 0 96 15.5t58 37t28.5 43.5t7.5 36v132q0 29 -15 36t-39 7h-31v32h270v-32h-33zM502 854q0 -21 -15.5 -38t-40.5 -17
t-40 17t-15 38q0 22 15 39t40 17t40.5 -17t15.5 -39z" />
    <glyph glyph-name="gdotaccent" unicode="&#x121;" horiz-adv-x="554" 
d="M510 507q0 -20 -12 -29t-27 -9q-11 0 -17 3.5t-14 11.5q-6 6 -8.5 10.5t-13.5 4.5q-8 0 -17 -11t-15 -22q40 -18 65.5 -54.5t25.5 -87.5t-22 -85t-55 -54.5t-70.5 -29t-68.5 -8.5q-9 0 -20 0.5t-22 0.5q-23 0 -37.5 -3t-22 -8t-10 -11t-2.5 -12q0 -13 7.5 -21.5
t19.5 -13.5t26 -8t28 -5q1 0 3 -0.5t10.5 -2t26.5 -4.5t51 -9q32 -6 65 -14t59.5 -22.5t43.5 -37t17 -56.5q0 -25 -10.5 -50.5t-37.5 -46.5t-74 -34.5t-121 -13.5q-77 0 -125 11.5t-75 29.5t-36.5 40t-9.5 43q0 43 31.5 72.5t100.5 43.5q-8 4 -18.5 10t-19.5 15t-15.5 20.5
t-6.5 26.5q0 32 26.5 51.5t61.5 24.5q-63 20 -94.5 60.5t-31.5 100.5q0 37 15 68.5t43 53.5t67.5 34.5t88.5 12.5q38 0 59 -5t43 -13l2 4q6 10 14 22t19 22.5t27 17t38 6.5q14 0 29.5 -9.5t15.5 -30.5zM389 322q0 40 -11 67.5t-29 44t-41.5 23.5t-48.5 7q-38 0 -61.5 -14.5
t-37 -36.5t-18.5 -48t-5 -50q0 -12 4 -35.5t17 -46.5t37 -40t65 -17q33 0 57 12.5t40 33t24 47t8 53.5zM437 -107q0 12 -5.5 24t-19 23.5t-37.5 21.5t-60 17l-138 25q-18 -4 -35.5 -12.5t-31.5 -21t-22.5 -28.5t-8.5 -36q0 -21 8.5 -40t29.5 -33.5t57 -23.5t91 -9
q91 0 131.5 28t40.5 65zM326 657q0 -21 -15.5 -38t-40.5 -17t-40 17t-15 38q0 22 15 39t40 17t40.5 -17t15.5 -39z" />
    <glyph glyph-name="Gcommaaccent" unicode="&#x122;" horiz-adv-x="829" 
d="M791 323q-11 0 -21 -1t-18 -5t-12.5 -12.5t-4.5 -24.5v-185q-25 -25 -58 -45t-70.5 -34.5t-77.5 -22.5t-79 -8q-99 0 -170.5 32.5t-117.5 86t-68 121t-22 137.5q0 82 29.5 151t81 119.5t121.5 78.5t151 28q43 0 97.5 -10.5t105.5 -34.5v40h35l9 -188h-32l-2 33
q-10 22 -29.5 45t-47 41t-62.5 29.5t-77 11.5q-57 0 -105.5 -22.5t-84.5 -66.5t-56 -109t-20 -150q0 -97 25 -162.5t63.5 -105.5t85 -57t89.5 -17q59 0 96 15.5t58 37t28.5 43.5t7.5 36v132q0 29 -15 36t-39 7h-31v32h270v-32h-33zM400 -266q18 24 26 51t8 45q0 15 -6 36
t-28 40l12 24h90q3 -12 5.5 -26.5t2.5 -28.5q0 -48 -25 -85.5t-61 -69.5z" />
    <glyph glyph-name="gcommaaccent" unicode="&#x123;" horiz-adv-x="554" 
d="M510 507q0 -20 -12 -29t-27 -9q-11 0 -17 3.5t-14 11.5q-6 6 -8.5 10.5t-13.5 4.5q-8 0 -17 -11t-15 -22q40 -18 65.5 -54.5t25.5 -87.5t-22 -85t-55 -54.5t-70.5 -29t-68.5 -8.5q-9 0 -20 0.5t-22 0.5q-23 0 -37.5 -3t-22 -8t-10 -11t-2.5 -12q0 -13 7.5 -21.5
t19.5 -13.5t26 -8t28 -5q1 0 3 -0.5t10.5 -2t26.5 -4.5t51 -9q32 -6 65 -14t59.5 -22.5t43.5 -37t17 -56.5q0 -25 -10.5 -50.5t-37.5 -46.5t-74 -34.5t-121 -13.5q-77 0 -125 11.5t-75 29.5t-36.5 40t-9.5 43q0 43 31.5 72.5t100.5 43.5q-8 4 -18.5 10t-19.5 15t-15.5 20.5
t-6.5 26.5q0 32 26.5 51.5t61.5 24.5q-63 20 -94.5 60.5t-31.5 100.5q0 37 15 68.5t43 53.5t67.5 34.5t88.5 12.5q38 0 59 -5t43 -13l2 4q6 10 14 22t19 22.5t27 17t38 6.5q14 0 29.5 -9.5t15.5 -30.5zM389 322q0 40 -11 67.5t-29 44t-41.5 23.5t-48.5 7q-38 0 -61.5 -14.5
t-37 -36.5t-18.5 -48t-5 -50q0 -12 4 -35.5t17 -46.5t37 -40t65 -17q33 0 57 12.5t40 33t24 47t8 53.5zM437 -107q0 12 -5.5 24t-19 23.5t-37.5 21.5t-60 17l-138 25q-18 -4 -35.5 -12.5t-31.5 -21t-22.5 -28.5t-8.5 -36q0 -21 8.5 -40t29.5 -33.5t57 -23.5t91 -9
q91 0 131.5 28t40.5 65zM319 754q-14 -15 -27 -40t-13 -56t11 -49.5t19 -26.5l-12 -24h-70q-8 30 -8 56q0 48 22 84t54 70z" />
    <glyph glyph-name="Hbar" unicode="&#x126;" horiz-adv-x="878" 
d="M534 0v31h43q32 0 44 9t12 37v283h-368v-283q0 -29 12 -37.5t42 -8.5h45v-31h-294v31h43q32 0 44 9t12 37v443h-76v28h76v98q0 26 -12 36t-44 10h-43v31h294v-31h-45q-30 0 -42 -8.5t-12 -37.5v-98h368v98q0 28 -12 37t-44 9h-43v31h294v-31h-45q-30 0 -42 -8.5
t-12 -37.5v-98h58v-28h-58v-443q0 -29 12 -37.5t42 -8.5h45v-31h-294zM633 389v131h-368v-131h368z" />
    <glyph glyph-name="hbar" unicode="&#x127;" horiz-adv-x="592" 
d="M110 689q0 9 -2 15.5t-9.5 11t-22 6.5t-39.5 2v21q49 8 89.5 20t63.5 23v-175h228v-32h-228v-141q45 26 76 34.5t59 8.5q55 0 87 -18.5t47.5 -46.5t19.5 -60.5t4 -60.5v-238q0 -19 7 -27t31 -8h41v-24h-238v24h42q24 0 30.5 8t6.5 27v253q0 49 -12.5 76t-30.5 39.5
t-38.5 14.5t-36.5 2q-18 0 -43.5 -7.5t-51.5 -26.5v-351q0 -21 7 -28t32 -7h40v-24h-238v24h40q25 0 32 7.5t7 27.5v522h-68v32h68v76v0z" />
    <glyph glyph-name="Imacron" unicode="&#x12a;" horiz-adv-x="413" 
d="M70 0v31h43q34 0 45 10t11 36v569q0 28 -12 37t-44 9h-43v31h294v-31h-45q-32 0 -43 -10t-11 -36v-569q0 -24 9.5 -35t44.5 -11h45v-31h-294zM73 793v36h291v-36h-291z" />
    <glyph glyph-name="imacron" unicode="&#x12b;" horiz-adv-x="300" 
d="M31 0v24h41q24 0 31 7.5t7 27.5v336q0 10 -2 16.5t-9.5 10.5t-22 5.5t-39.5 1.5v21q49 8 89.5 20t63.5 23v-434q0 -19 7 -27t31 -8h41v-24h-238zM4 582v36h291v-36h-291z" />
    <glyph glyph-name="Iogonek" unicode="&#x12e;" horiz-adv-x="413" 
d="M365 -111q-25 -23 -53 -39.5t-62 -16.5q-29 0 -46.5 18t-17.5 46q0 26 15 53t41 50h-172v31h43q34 0 45 10t11 36v569q0 28 -12 37t-44 9h-43v31h295v-31h-45q-32 0 -43.5 -10t-11.5 -36v-569q0 -24 9.5 -35t44.5 -11h45v-31h-92q-14 -18 -25 -40t-11 -48
q0 -17 11.5 -27.5t29.5 -10.5t38 11t34 25l16 -21v0z" />
    <glyph glyph-name="iogonek" unicode="&#x12f;" horiz-adv-x="300" 
d="M185 0q-14 -18 -25 -40t-11 -48q0 -17 11.5 -27.5t29.5 -10.5t38 11t34 25l16 -21q-25 -23 -53 -39.5t-62 -16.5q-29 0 -46.5 18t-17.5 46q0 26 15 53t41 50h-124v24h41q24 0 31 7.5t7 27.5v336q0 10 -2 16.5t-9.5 10.5t-22 5.5t-39.5 1.5v21q49 8 89.5 20t63.5 23v-434
q0 -19 7 -27t31 -8h41v-24h-84zM209 657q0 -21 -15.5 -38t-40.5 -17t-40 17t-15 38q0 22 15 39t40 17t40.5 -17t15.5 -39z" />
    <glyph glyph-name="Idotaccent" unicode="&#x130;" horiz-adv-x="413" 
d="M70 0v31h43q34 0 45 10t11 36v569q0 28 -12 37t-44 9h-43v31h294v-31h-45q-32 0 -43 -10t-11 -36v-569q0 -24 9.5 -35t44.5 -11h45v-31h-294zM271 854q0 -21 -15.5 -38t-40.5 -17t-40 17t-15 38q0 22 15 39t40 17t40.5 -17t15.5 -39z" />
    <glyph glyph-name="dotlessi" unicode="&#x131;" horiz-adv-x="300" 
d="M31 0v24h41q24 0 31 7.5t7 27.5v336q0 10 -2 16.5t-9.5 10.5t-22 5.5t-39.5 1.5v21q49 8 89.5 20t63.5 23v-434q0 -19 7 -27t31 -8h41v-24h-238z" />
    <glyph glyph-name="Kcommaaccent" unicode="&#x136;" horiz-adv-x="809" 
d="M617 0l-341 382l155 151q37 36 60 59t36 38t18 24.5t5 18.5q0 7 -4 11t-9.5 5.5t-11.5 2t-10 0.5h-44v31h273v-31h-26q-9 0 -20.5 -2.5t-28.5 -11.5t-40.5 -26t-57.5 -46l-212 -182l307 -340q9 -10 18.5 -19.5t23 -17.5t32 -13t45.5 -5v-29h-168zM70 0v31h43
q35 0 45.5 11.5t10.5 34.5v569q0 28 -12 37t-44 9h-43v31h294v-31h-45q-32 0 -43 -10.5t-11 -35.5v-569q0 -24 11.5 -35t42.5 -11h45v-31h-294zM400 -266q18 24 26 51t8 45q0 15 -6 36t-28 40l12 24h90q3 -12 5.5 -26.5t2.5 -28.5q0 -48 -25 -85.5t-61 -69.5z" />
    <glyph glyph-name="kcommaaccent" unicode="&#x137;" horiz-adv-x="573" 
d="M110 689q0 9 -2 15.5t-9.5 11t-22 6.5t-39.5 2v21q49 8 89.5 20t63.5 23v-593q31 36 54.5 63.5t41 49t30.5 38.5t24 32q18 25 22.5 35t4.5 22q0 22 -44 22h-20v24h210v-24h-21q-9 0 -19.5 -3.5t-30 -20t-52.5 -50t-87 -93.5l177 -230q20 -25 34.5 -30.5t31.5 -5.5h14v-24
h-237v24h38q14 0 23.5 3t9.5 12q0 6 -2 10.5t-7 10.5l-127 172l-68 -74v-99q0 -21 7 -28t31 -7h41v-24h-238v24h41q24 0 31 6.5t7 28.5v630zM231 -266q14 15 27 40t13 56t-11 49.5t-19 26.5l12 24h70q8 -30 8 -56q0 -48 -22 -84t-54 -70z" />
    <glyph glyph-name="Lacute" unicode="&#x139;" horiz-adv-x="681" 
d="M365 33q45 0 87.5 6t85.5 17q42 11 63.5 30.5t31.5 44.5l6 31h35l-33 -162h-571v31h43q35 0 45.5 14t10.5 32v569q0 28 -12 37t-44 9h-43v31h294v-31h-45q-32 0 -43 -10t-11 -36v-567q0 -12 3.5 -21t14 -14.5t30 -8t52.5 -2.5zM413 899q0 -14 -15 -27t-31 -23l-145 -90
h-41l139 140q11 11 19 18t15 10.5t12.5 5t12.5 1.5q15 0 24.5 -9.5t9.5 -25.5z" />
    <glyph glyph-name="lacute" unicode="&#x13a;" horiz-adv-x="304" 
d="M110 689q0 9 -2 15.5t-9.5 11t-22 6.5t-39.5 2v21q49 8 89.5 20t63.5 23v-729q0 -19 6.5 -27t30.5 -8h42v-24h-238v24h41q21 0 29.5 7.5t8.5 27.5v630zM321 941q0 -14 -15 -27t-31 -23l-145 -90h-41l139 140q11 11 19 18t15 10.5t12.5 5t12.5 1.5q15 0 24.5 -9.5
t9.5 -25.5z" />
    <glyph glyph-name="Lcommaaccent" unicode="&#x13b;" horiz-adv-x="681" 
d="M365 33q45 0 87.5 6t85.5 17q42 11 63.5 30.5t31.5 44.5l6 31h35l-33 -162h-571v31h43q35 0 45.5 14t10.5 32v569q0 28 -12 37t-44 9h-43v31h294v-31h-45q-32 0 -43 -10t-11 -36v-567q0 -12 3.5 -21t14 -14.5t30 -8t52.5 -2.5zM330 -266q18 24 26 51t8 45q0 15 -6 36
t-28 40l12 24h90q3 -12 5.5 -26.5t2.5 -28.5q0 -48 -25 -85.5t-61 -69.5z" />
    <glyph glyph-name="lcommaaccent" unicode="&#x13c;" horiz-adv-x="304" 
d="M110 689q0 9 -2 15.5t-9.5 11t-22 6.5t-39.5 2v21q49 8 89.5 20t63.5 23v-729q0 -19 6.5 -27t30.5 -8h42v-24h-238v24h41q21 0 29.5 7.5t8.5 27.5v630zM97 -266q14 15 27 40t13 56t-11 49.5t-19 26.5l12 24h70q8 -30 8 -56q0 -48 -22 -84t-54 -70z" />
    <glyph glyph-name="Lcaron" unicode="&#x13d;" horiz-adv-x="681" 
d="M365 33q45 0 87.5 6t85.5 17q42 11 63.5 30.5t31.5 44.5l6 31h35l-33 -162h-571v31h43q35 0 45.5 14t10.5 32v569q0 28 -12 37t-44 9h-43v31h294v-31h-45q-32 0 -43 -10t-11 -36v-567q0 -12 3.5 -21t14 -14.5t30 -8t52.5 -2.5zM558 650q0 -27 -9 -56.5t-24 -56.5
t-33.5 -50t-37.5 -38l-18 16q13 13 26 28.5t23 31.5t16 31.5t6 27.5q0 19 -19 32q-24 16 -35.5 28.5t-11.5 32.5t15 35.5t40 15.5q21 0 41.5 -18.5t20.5 -59.5z" />
    <glyph glyph-name="lcaron" unicode="&#x13e;" horiz-adv-x="300" 
d="M110 689q0 9 -2 15.5t-9.5 11t-22 6.5t-39.5 2v21q49 8 89.5 20t63.5 23v-729q0 -19 6.5 -27t30.5 -8h42v-24h-238v24h41q21 0 29.5 7.5t8.5 27.5v630zM229 520q13 20 26.5 52t13.5 67q0 30 -9.5 48.5t-20.5 30.5l12 24h70q5 -17 6.5 -31.5t1.5 -26.5q0 -54 -22 -96.5
t-54 -81.5z" />
    <glyph glyph-name="Ldot" unicode="&#x13f;" horiz-adv-x="681" 
d="M365 33q45 0 87.5 6t85.5 17q42 11 63.5 30.5t31.5 44.5l6 31h35l-33 -162h-571v31h43q35 0 45.5 14t10.5 32v569q0 28 -12 37t-44 9h-43v31h294v-31h-45q-32 0 -43 -10t-11 -36v-567q0 -12 3.5 -21t14 -14.5t30 -8t52.5 -2.5zM528 387q0 -21 -15.5 -38t-40.5 -17t-40 17
t-15 38q0 22 15 39t40 17t40.5 -17t15.5 -39z" />
    <glyph glyph-name="ldot" unicode="&#x140;" horiz-adv-x="378" 
d="M110 689q0 9 -2 15.5t-9.5 11t-22 6.5t-39.5 2v21q49 8 89.5 20t63.5 23v-729q0 -19 6.5 -27t30.5 -8h42v-24h-238v24h41q21 0 29.5 7.5t8.5 27.5v630zM351 402q0 -21 -15.5 -38t-40.5 -17t-40 17t-15 38q0 22 15 39t40 17t40.5 -17t15.5 -39z" />
    <glyph glyph-name="Lslash" unicode="&#x141;" horiz-adv-x="681" 
d="M365 33q45 0 87.5 6t85.5 17q42 11 63.5 30.5t31.5 44.5l6 31h35l-33 -162h-571v31h43q35 0 45.5 14t10.5 32v226l-108 -94l-19 31l127 110v296q0 28 -12 37t-44 9h-43v31h295v-31h-45q-32 0 -43.5 -10t-11.5 -36v-212l116 101l18 -31l-134 -117v-308q0 -12 3.5 -21
t14 -14.5t30 -8t52.5 -2.5z" />
    <glyph glyph-name="lslash" unicode="&#x142;" horiz-adv-x="304" 
d="M110 689q0 9 -2 15.5t-9.5 11t-22 6.5t-39.5 2v21q49 8 89.5 20t63.5 23v-405l84 72l18 -31l-102 -88v-277q0 -19 6.5 -27t30.5 -8h42v-24h-238v24h41q21 0 29.5 7.5t8.5 27.5v208l-74 -63l-19 31l93 79v375v0z" />
    <glyph glyph-name="Nacute" unicode="&#x143;" horiz-adv-x="844" 
d="M740 692q-9 -8 -17.5 -23.5t-14.5 -42.5t-10 -67t-5 -97l-5 -476h-33l-454 577l3 -330q0 -56 2 -91.5t5 -57.5t8.5 -33.5t13.5 -19.5h57v-31h-219v31h53q13 11 21.5 36.5t13 56t6 60.5t1.5 49l3 374l-99 116h131l454 -588v380q0 90 -13.5 129.5t-30.5 47.5h-53v31h237
v-31h-55zM596 905q0 -12 -13 -23t-33 -23l-145 -90h-41l139 140q11 11 19.5 18t15 10.5t12.5 4.5t13 1q15 0 24 -10.5t9 -27.5z" />
    <glyph glyph-name="nacute" unicode="&#x144;" horiz-adv-x="592" 
d="M325 0v24h40q24 0 31 8t7 27v263q0 48 -11.5 74.5t-28.5 39.5t-36 15.5t-35 2.5q-27 0 -52 -8.5t-50 -25.5v-361q0 -21 6.5 -28t31.5 -7h37v-24h-234v24h40q23 0 31 7t8 28v336q0 10 -2 16.5t-9.5 10.5t-22 5.5t-39.5 1.5v21q49 8 89.5 20t63.5 23v-43q45 26 76 34.5
t59 8.5q55 0 87 -18.5t47.5 -46.5t19.5 -60.5t4 -60.5v-248q0 -19 7 -27t31 -8h41v-24h-237zM462 699q0 -14 -15 -27t-31 -23l-145 -90h-41l139 140q11 11 19 18t15 10.5t12.5 5t12.5 1.5q15 0 24.5 -9.5t9.5 -25.5z" />
    <glyph glyph-name="Ncommaaccent" unicode="&#x145;" horiz-adv-x="844" 
d="M740 692q-9 -8 -17.5 -23.5t-14.5 -42.5t-10 -67t-5 -97l-5 -476h-33l-454 577l3 -330q0 -56 2 -91.5t5 -57.5t8.5 -33.5t13.5 -19.5h57v-31h-219v31h53q13 11 21.5 36.5t13 56t6 60.5t1.5 49l3 374l-99 116h131l454 -588v380q0 90 -13.5 129.5t-30.5 47.5h-53v31h237
v-31h-55zM377 -266q18 24 26 51t8 45q0 15 -6 36t-28 40l12 24h90q3 -12 5.5 -26.5t2.5 -28.5q0 -48 -25 -85.5t-61 -69.5z" />
    <glyph glyph-name="ncommaaccent" unicode="&#x146;" horiz-adv-x="592" 
d="M325 0v24h40q24 0 31 8t7 27v263q0 48 -11.5 74.5t-28.5 39.5t-36 15.5t-35 2.5q-27 0 -52 -8.5t-50 -25.5v-361q0 -21 6.5 -28t31.5 -7h37v-24h-234v24h40q23 0 31 7t8 28v336q0 10 -2 16.5t-9.5 10.5t-22 5.5t-39.5 1.5v21q49 8 89.5 20t63.5 23v-43q45 26 76 34.5
t59 8.5q55 0 87 -18.5t47.5 -46.5t19.5 -60.5t4 -60.5v-248q0 -19 7 -27t31 -8h41v-24h-237zM241 -266q14 15 27 40t13 56t-11 49.5t-19 26.5l12 24h70q8 -30 8 -56q0 -48 -22 -84t-54 -70z" />
    <glyph glyph-name="Ncaron" unicode="&#x147;" horiz-adv-x="844" 
d="M740 692q-9 -8 -17.5 -23.5t-14.5 -42.5t-10 -67t-5 -97l-5 -476h-33l-454 577l3 -330q0 -56 2 -91.5t5 -57.5t8.5 -33.5t13.5 -19.5h57v-31h-219v31h53q13 11 21.5 36.5t13 56t6 60.5t1.5 49l3 374l-99 116h131l454 -588v380q0 90 -13.5 129.5t-30.5 47.5h-53v31h237
v-31h-55zM585 939q-8 -8 -14 -14.5t-14 -14.5t-18 -19.5t-25 -29.5q-11 -13 -19 -22.5t-15.5 -19.5t-15.5 -21t-20 -26h-36q-12 15 -20 26t-15.5 21t-15.5 19.5t-19 22.5q-15 18 -25 29.5t-18 19.5l-14.5 14.5t-13.5 14.5h25q13 -8 25 -16q11 -7 22.5 -15t22.5 -16
q10 -8 21 -16t21 -16l22 -18q11 8 22 17q10 8 21 16.5t21 16.5t22 16t23 15q12 8 25 16h25z" />
    <glyph glyph-name="ncaron" unicode="&#x148;" horiz-adv-x="592" 
d="M325 0v24h40q24 0 31 8t7 27v263q0 48 -11.5 74.5t-28.5 39.5t-36 15.5t-35 2.5q-27 0 -52 -8.5t-50 -25.5v-361q0 -21 6.5 -28t31.5 -7h37v-24h-234v24h40q23 0 31 7t8 28v336q0 10 -2 16.5t-9.5 10.5t-22 5.5t-39.5 1.5v21q49 8 89.5 20t63.5 23v-43q45 26 76 34.5
t59 8.5q55 0 87 -18.5t47.5 -46.5t19.5 -60.5t4 -60.5v-248q0 -19 7 -27t31 -8h41v-24h-237zM447 739q-8 -8 -14 -14.5t-14 -14.5t-18 -19.5t-25 -29.5q-11 -13 -19 -22.5t-15.5 -19.5t-15.5 -21t-20 -26h-36q-12 15 -20 26t-15.5 21t-15.5 19.5t-19 22.5q-15 18 -25 29.5
t-18 19.5l-14.5 14.5t-13.5 14.5h25q13 -8 25 -16q11 -7 22.5 -15t22.5 -16q10 -8 21 -16t21 -16l22 -18q11 8 22 17q10 8 21 16.5t21 16.5t22 16t23 15q12 8 25 16h25z" />
    <glyph glyph-name="Omacron" unicode="&#x14c;" horiz-adv-x="883" 
d="M826 363q0 -37 -8.5 -79.5t-26.5 -84.5t-47.5 -80.5t-71.5 -68t-97.5 -47t-125.5 -17.5q-71 0 -126.5 17.5t-97 47t-71 68t-47.5 80.5t-26.5 84.5t-8.5 79.5q0 60 21 126t66.5 121.5t117 92t172.5 36.5q102 0 173.5 -34.5t117 -89t66 -121.5t20.5 -131zM712 363
q0 75 -17 138t-50.5 108.5t-82.5 71t-113 25.5t-113 -24t-82.5 -68t-50.5 -108t-17 -143q0 -68 16.5 -130t49 -109.5t82 -76t115.5 -28.5t115.5 28.5t82.5 76t49 109.5t16 130zM295 793v36h291v-36h-291z" />
    <glyph glyph-name="omacron" unicode="&#x14d;" horiz-adv-x="543" 
d="M505 240q0 -57 -17.5 -103t-49 -79t-74 -51t-93.5 -18q-50 0 -93 17.5t-74.5 50.5t-49 79.5t-17.5 103.5q0 63 17.5 110.5t49 79t74.5 47.5t93 16q51 0 93.5 -15t74 -45.5t49 -78.5t17.5 -114zM414 240q0 65 -12 108t-32 69t-46 36.5t-53 10.5t-53 -10.5t-46 -36.5
t-32 -69t-12 -108t12 -107.5t32 -68t46 -36t53 -10.5t53 10.5t46 36t32 68t12 107.5zM133 582v36h291v-36h-291z" />
    <glyph glyph-name="Ohungarumlaut" unicode="&#x150;" horiz-adv-x="883" 
d="M826 363q0 -37 -8.5 -79.5t-26.5 -84.5t-47.5 -80.5t-71.5 -68t-97.5 -47t-125.5 -17.5q-71 0 -126.5 17.5t-97 47t-71 68t-47.5 80.5t-26.5 84.5t-8.5 79.5q0 60 21 126t66.5 121.5t117 92t172.5 36.5q102 0 173.5 -34.5t117 -89t66 -121.5t20.5 -131zM712 363
q0 75 -17 138t-50.5 108.5t-82.5 71t-113 25.5t-113 -24t-82.5 -68t-50.5 -108t-17 -143q0 -68 16.5 -130t49 -109.5t82 -76t115.5 -28.5t115.5 28.5t82.5 76t49 109.5t16 130zM694 898q0 -15 -13 -27.5t-30 -23.5l-145 -90h-41l139 140q20 20 30.5 27t24.5 7q15 0 25 -11
t10 -22zM529 898q0 -15 -11.5 -27t-31.5 -24l-145 -90h-41l139 140q17 17 28.5 25.5t28.5 8.5q14 0 23.5 -11t9.5 -22z" />
    <glyph glyph-name="ohungarumlaut" unicode="&#x151;" horiz-adv-x="543" 
d="M505 240q0 -57 -17.5 -103t-49 -79t-74 -51t-93.5 -18q-50 0 -93 17.5t-74.5 50.5t-49 79.5t-17.5 103.5q0 63 17.5 110.5t49 79t74.5 47.5t93 16q51 0 93.5 -15t74 -45.5t49 -78.5t17.5 -114zM414 240q0 65 -12 108t-32 69t-46 36.5t-53 10.5t-53 -10.5t-46 -36.5
t-32 -69t-12 -108t12 -107.5t32 -68t46 -36t53 -10.5t53 10.5t46 36t32 68t12 107.5zM505 701q0 -15 -13 -27.5t-30 -23.5l-145 -90h-41l139 140q20 20 30.5 27t24.5 7q15 0 25 -11t10 -22zM340 701q0 -15 -11.5 -27t-31.5 -24l-145 -90h-41l139 140q17 17 28.5 25.5
t28.5 8.5q14 0 23.5 -11t9.5 -22z" />
    <glyph glyph-name="OE" unicode="&#x152;" horiz-adv-x="1150" 
d="M640 668q-32 17 -77.5 27.5t-105.5 10.5q-65 0 -115.5 -24t-85 -68t-52.5 -108t-18 -143q0 -68 16.5 -130t49 -109.5t82 -76t115.5 -28.5q28 0 56 2t53 6.5t46 12.5t36 19v609zM682 0q-16 0 -47 -2t-66 -5t-68 -5t-52 -2q-106 0 -178 35t-116.5 90t-63.5 122t-19 130
q0 60 19.5 126t63.5 121.5t114.5 92t171.5 36.5q87 0 157.5 -8t130.5 -8h376l7 -162h-35l-15 65q-8 14 -29.5 25.5t-52.5 20t-68 13.5t-76 5q-31 0 -50.5 -2t-30.5 -7t-15 -14.5t-4 -24.5v-246h48q68 0 105 6t54 15t20 19t3 19v26h31v-200h-31v27q0 9 -3 19t-20 18.5
t-54 14.5t-105 6h-48v-286q0 -31 16 -38.5t39 -7.5q68 0 121.5 4t96.5 21q40 15 62.5 32.5t32.5 42.5l6 31h35l-33 -165h-430z" />
    <glyph glyph-name="oe" unicode="&#x153;" horiz-adv-x="854" 
d="M505 272q0 -80 14.5 -128.5t36 -74.5t48 -34.5t50.5 -8.5q41 0 79.5 25.5t64.5 71.5l22 -11q-28 -53 -75.5 -88t-118.5 -35q-21 0 -44.5 5.5t-46 17t-43.5 29t-37 42.5q-38 -43 -82 -68.5t-102 -25.5q-54 0 -97 17.5t-73.5 50.5t-47 79.5t-16.5 103.5q0 63 17.5 110.5
t49 79t74.5 47.5t93 16q60 0 110 -22.5t79 -73.5q26 44 71 70t102 26q50 0 86 -20t59 -51.5t33.5 -71t10.5 -78.5h-317zM735 302q0 32 -6.5 61t-19.5 51.5t-34 36t-49 13.5q-53 0 -84 -38t-37 -124h230zM414 240q0 65 -12 108t-32 69t-46 36.5t-53 10.5t-53 -10.5t-46 -36.5
t-32 -69t-12 -108t12 -107.5t32 -68t46 -36t53 -10.5t53 10.5t46 36t32 68t12 107.5z" />
    <glyph glyph-name="Racute" unicode="&#x154;" horiz-adv-x="772" 
d="M761 82q0 -10 -1.5 -26t-10 -31.5t-27.5 -27t-53 -11.5q-32 0 -57 15.5t-46 41.5t-39 61t-36 73q-14 29 -25.5 53.5t-29.5 47.5q-33 42 -73.5 62t-97.5 20v-283q0 -24 12.5 -35t41.5 -11h45v-31h-294v31h43q30 0 43 11t13 35v569q0 31 -13.5 38.5t-42.5 7.5h-43v31h120
q45 0 100.5 5.5t106.5 5.5q85 0 138.5 -17t83 -43.5t40 -59t10.5 -63.5q0 -48 -20.5 -84t-54 -60t-77.5 -36t-91 -12q-5 0 -10 0.5t-10 0.5v-4q40 -15 71.5 -35t55.5 -42t41.5 -44.5t29.5 -41.5q15 -26 28 -52.5t24 -52.5q4 -9 9 -18.5t11.5 -18t14 -14t15.5 -5.5
q17 0 21.5 17.5t4.5 32.5h29zM564 544q0 82 -48 120t-130 38q-29 0 -62 -6t-59 -17v-283l47 -5q20 -2 37 -3t37 -1q39 0 72 11t56.5 31.5t36.5 49.5t13 65zM558 905q0 -12 -13 -23t-33 -23l-145 -90h-41l139 140q11 11 19.5 18t15 10.5t12.5 4.5t13 1q15 0 24 -10.5t9 -27.5
z" />
    <glyph glyph-name="racute" unicode="&#x155;" horiz-adv-x="415" 
d="M110 395q0 10 -2 16.5t-9.5 10.5t-22 5.5t-39.5 1.5v21q49 8 89.5 20t63.5 23v-93q9 17 20.5 34t26.5 30t34 21t42 8q42 0 60.5 -20.5t18.5 -44.5q0 -27 -15.5 -38.5t-31.5 -11.5q-17 0 -29.5 10t-12.5 27q0 5 1 9.5t1 7.5q0 12 -6.5 16.5t-20.5 4.5q-19 0 -35 -16.5
t-28 -40.5t-18.5 -51t-6.5 -48v-238q0 -20 7 -27.5t32 -7.5h40v-24h-238v24h40q25 0 32 7.5t7 27.5v336zM384 699q0 -14 -15 -27t-31 -23l-145 -90h-41l139 140q11 11 19 18t15 10.5t12.5 5t12.5 1.5q15 0 24.5 -9.5t9.5 -25.5z" />
    <glyph glyph-name="Rcommaaccent" unicode="&#x156;" horiz-adv-x="772" 
d="M761 82q0 -10 -1.5 -26t-10 -31.5t-27.5 -27t-53 -11.5q-32 0 -57 15.5t-46 41.5t-39 61t-36 73q-14 29 -25.5 53.5t-29.5 47.5q-33 42 -73.5 62t-97.5 20v-283q0 -24 12.5 -35t41.5 -11h45v-31h-294v31h43q30 0 43 11t13 35v569q0 31 -13.5 38.5t-42.5 7.5h-43v31h120
q45 0 100.5 5.5t106.5 5.5q85 0 138.5 -17t83 -43.5t40 -59t10.5 -63.5q0 -48 -20.5 -84t-54 -60t-77.5 -36t-91 -12q-5 0 -10 0.5t-10 0.5v-4q40 -15 71.5 -35t55.5 -42t41.5 -44.5t29.5 -41.5q15 -26 28 -52.5t24 -52.5q4 -9 9 -18.5t11.5 -18t14 -14t15.5 -5.5
q17 0 21.5 17.5t4.5 32.5h29zM564 544q0 82 -48 120t-130 38q-29 0 -62 -6t-59 -17v-283l47 -5q20 -2 37 -3t37 -1q39 0 72 11t56.5 31.5t36.5 49.5t13 65zM380 -266q18 24 26 51t8 45q0 15 -6 36t-28 40l12 24h90q3 -12 5.5 -26.5t2.5 -28.5q0 -48 -25 -85.5t-61 -69.5z
" />
    <glyph glyph-name="rcommaaccent" unicode="&#x157;" horiz-adv-x="415" 
d="M110 395q0 10 -2 16.5t-9.5 10.5t-22 5.5t-39.5 1.5v21q49 8 89.5 20t63.5 23v-93q9 17 20.5 34t26.5 30t34 21t42 8q42 0 60.5 -20.5t18.5 -44.5q0 -27 -15.5 -38.5t-31.5 -11.5q-17 0 -29.5 10t-12.5 27q0 5 1 9.5t1 7.5q0 12 -6.5 16.5t-20.5 4.5q-19 0 -35 -16.5
t-28 -40.5t-18.5 -51t-6.5 -48v-238q0 -20 7 -27.5t32 -7.5h40v-24h-238v24h40q25 0 32 7.5t7 27.5v336zM100 -266q14 15 27 40t13 56t-11 49.5t-19 26.5l12 24h70q8 -30 8 -56q0 -48 -22 -84t-54 -70z" />
    <glyph glyph-name="Rcaron" unicode="&#x158;" horiz-adv-x="772" 
d="M761 82q0 -10 -1.5 -26t-10 -31.5t-27.5 -27t-53 -11.5q-32 0 -57 15.5t-46 41.5t-39 61t-36 73q-14 29 -25.5 53.5t-29.5 47.5q-33 42 -73.5 62t-97.5 20v-283q0 -24 12.5 -35t41.5 -11h45v-31h-294v31h43q30 0 43 11t13 35v569q0 31 -13.5 38.5t-42.5 7.5h-43v31h120
q45 0 100.5 5.5t106.5 5.5q85 0 138.5 -17t83 -43.5t40 -59t10.5 -63.5q0 -48 -20.5 -84t-54 -60t-77.5 -36t-91 -12q-5 0 -10 0.5t-10 0.5v-4q40 -15 71.5 -35t55.5 -42t41.5 -44.5t29.5 -41.5q15 -26 28 -52.5t24 -52.5q4 -9 9 -18.5t11.5 -18t14 -14t15.5 -5.5
q17 0 21.5 17.5t4.5 32.5h29zM564 544q0 82 -48 120t-130 38q-29 0 -62 -6t-59 -17v-283l47 -5q20 -2 37 -3t37 -1q39 0 72 11t56.5 31.5t36.5 49.5t13 65zM524 939q-8 -8 -14 -14.5t-14 -14.5t-18 -19.5t-25 -29.5q-11 -13 -19 -22.5t-15.5 -19.5t-15.5 -21t-20 -26h-36
q-12 15 -20 26t-15.5 21t-15.5 19.5t-19 22.5q-15 18 -25 29.5t-18 19.5l-14.5 14.5t-13.5 14.5h25q13 -8 25 -16q11 -7 22.5 -15t22.5 -16q10 -8 21 -16t21 -16l22 -18q11 8 22 17q10 8 21 16.5t21 16.5t22 16t23 15q12 8 25 16h25z" />
    <glyph glyph-name="rcaron" unicode="&#x159;" horiz-adv-x="415" 
d="M110 395q0 10 -2 16.5t-9.5 10.5t-22 5.5t-39.5 1.5v21q49 8 89.5 20t63.5 23v-93q9 17 20.5 34t26.5 30t34 21t42 8q42 0 60.5 -20.5t18.5 -44.5q0 -27 -15.5 -38.5t-31.5 -11.5q-17 0 -29.5 10t-12.5 27q0 5 1 9.5t1 7.5q0 12 -6.5 16.5t-20.5 4.5q-19 0 -35 -16.5
t-28 -40.5t-18.5 -51t-6.5 -48v-238q0 -20 7 -27.5t32 -7.5h40v-24h-238v24h40q25 0 32 7.5t7 27.5v336zM367 739q-8 -8 -14 -14.5t-14 -14.5t-18 -19.5t-25 -29.5q-11 -13 -19 -22.5t-15.5 -19.5t-15.5 -21t-20 -26h-36q-12 15 -20 26t-15.5 21t-15.5 19.5t-19 22.5
q-15 18 -25 29.5t-18 19.5l-14.5 14.5t-13.5 14.5h25q13 -8 25 -16q11 -7 22.5 -15t22.5 -16q10 -8 21 -16t21 -16l22 -18q11 8 22 17q10 8 21 16.5t21 16.5t22 16t23 15q12 8 25 16h25z" />
    <glyph glyph-name="Sacute" unicode="&#x15a;" horiz-adv-x="611" 
d="M561 200q0 -44 -15 -82.5t-44 -67.5t-73 -46t-101 -18q-11 0 -31.5 1t-47.5 6t-60.5 14.5t-71.5 27.5l2 -35h-37l-12 187h36l3 -35q16 -27 40.5 -51.5t53.5 -43t61 -29t63 -10.5q37 0 66 11t49 30t31 43t11 50q0 45 -20.5 71t-50.5 45l-187 116q-22 14 -47.5 31t-47 39
t-35.5 49t-14 61t10.5 65.5t36 56t67.5 39t106 14.5q60 0 106.5 -14.5t78.5 -31.5l-2 30h37l6 -185h-36l-2 33q-2 18 -18 41.5t-41 45t-57.5 36.5t-68.5 15q-41 0 -67.5 -9.5t-42.5 -25t-22.5 -35t-6.5 -39.5q0 -17 6.5 -31.5t15.5 -25.5t19.5 -19t18.5 -13l216 -131
q17 -11 38 -25t39 -35t30 -50.5t12 -69.5zM474 905q0 -12 -13 -23t-33 -23l-145 -90h-41l139 140q11 11 19.5 18t15 10.5t12.5 4.5t13 1q15 0 24 -10.5t9 -27.5z" />
    <glyph glyph-name="sacute" unicode="&#x15b;" horiz-adv-x="413" 
d="M372 131q0 -29 -11.5 -55t-32.5 -45.5t-51.5 -30.5t-69.5 -11q-32 0 -69 8.5t-71 25.5v-23h-24l-5 141h28q4 -24 18.5 -46t35 -39t44.5 -27.5t48 -10.5q42 0 65 25.5t23 58.5q0 19 -7 33.5t-18.5 25.5t-25 19.5t-26.5 15.5q-17 9 -33.5 19t-33.5 18q-56 29 -79 59t-23 74
q0 32 13.5 56t34.5 39.5t46 23.5t49 8q35 0 63 -7t59 -24v19h25l5 -141h-27l-3 24q-5 12 -13.5 29.5t-22.5 33t-35 26.5t-49 11q-36 0 -53 -19.5t-17 -44.5q0 -29 12 -43.5t28 -24.5q32 -22 66 -38q31 -15 56.5 -30t43.5 -33t27.5 -42t9.5 -58zM381 699q0 -14 -15 -27
t-31 -23l-145 -90h-41l139 140q11 11 19 18t15 10.5t12.5 5t12.5 1.5q15 0 24.5 -9.5t9.5 -25.5z" />
    <glyph glyph-name="Scedilla" unicode="&#x15e;" horiz-adv-x="611" 
d="M431 -126q0 -22 -10.5 -38.5t-28.5 -28t-41.5 -17t-48.5 -5.5q-20 0 -41.5 4.5t-38.5 11.5l7 15q13 -5 31 -8.5t30 -3.5q40 0 55 20t15 42q0 23 -12 32.5t-35 9.5q-8 0 -16 -1.5t-19 -4.5l-7 5l32 80q-29 2 -77.5 11t-108.5 37l2 -35h-37l-12 187h36l3 -35
q16 -27 40.5 -51.5t53.5 -43t61 -29t63 -10.5q37 0 66 11t49 30t31 43t11 50q0 45 -20.5 71t-50.5 45l-187 116q-22 14 -47.5 31t-47 39t-35.5 49t-14 61t10.5 65.5t36 56t67.5 39t106 14.5q60 0 106.5 -14.5t78.5 -31.5l-2 30h37l6 -185h-36l-2 33q-2 18 -18 41.5t-41 45
t-57.5 36.5t-68.5 15q-41 0 -67.5 -9.5t-42.5 -25t-22.5 -35t-6.5 -39.5q0 -17 6.5 -31.5t15.5 -25.5t19.5 -19t18.5 -13l216 -131q17 -11 38 -25t39 -35t30 -50.5t12 -69.5q0 -44 -15 -82.5t-44.5 -67.5t-73 -46t-101.5 -18l-20 -51q7 2 16.5 3.5t21.5 1.5q16 0 31.5 -3.5
t27.5 -11.5t19.5 -20.5t7.5 -30.5z" />
    <glyph glyph-name="scedilla" unicode="&#x15f;" horiz-adv-x="413" 
d="M372 131q0 -54 -38 -94t-105 -47l-22 -55q7 2 18 3.5t23 1.5q16 0 31.5 -3.5t27.5 -11.5t19.5 -20.5t7.5 -30.5q0 -22 -10.5 -38.5t-28.5 -28t-41.5 -17t-48.5 -5.5q-20 0 -41.5 4.5t-38.5 11.5l7 15q13 -5 31 -8.5t30 -3.5q36 0 53 20t17 42q0 23 -12 32.5t-35 9.5
q-13 0 -19.5 -1t-15.5 -5l-7 5l33 82q-32 0 -69 8.5t-71 25.5v-23h-24l-5 141h28q4 -24 18.5 -46t35 -39t44.5 -27.5t48 -10.5q42 0 65 25.5t23 58.5q0 19 -7 33.5t-18.5 25.5t-25 19.5t-26.5 15.5q-17 9 -33.5 19t-33.5 18q-56 29 -79 59t-23 74q0 32 13.5 56t34.5 39.5
t46 23.5t49 8q35 0 63 -7t59 -24v19h25l5 -141h-27l-3 24q-5 12 -13.5 29.5t-22.5 33t-35 26.5t-49 11q-36 0 -53 -19.5t-17 -44.5q0 -29 12 -43.5t28 -24.5q32 -22 66 -38q31 -15 56.5 -30t43.5 -33t27.5 -42t9.5 -58z" />
    <glyph glyph-name="Scaron" unicode="&#x160;" horiz-adv-x="611" 
d="M561 200q0 -44 -15 -82.5t-44 -67.5t-73 -46t-101 -18q-11 0 -31.5 1t-47.5 6t-60.5 14.5t-71.5 27.5l2 -35h-37l-12 187h36l3 -35q16 -27 40.5 -51.5t53.5 -43t61 -29t63 -10.5q37 0 66 11t49 30t31 43t11 50q0 45 -20.5 71t-50.5 45l-187 116q-22 14 -47.5 31t-47 39
t-35.5 49t-14 61t10.5 65.5t36 56t67.5 39t106 14.5q60 0 106.5 -14.5t78.5 -31.5l-2 30h37l6 -185h-36l-2 33q-2 18 -18 41.5t-41 45t-57.5 36.5t-68.5 15q-41 0 -67.5 -9.5t-42.5 -25t-22.5 -35t-6.5 -39.5q0 -17 6.5 -31.5t15.5 -25.5t19.5 -19t18.5 -13l216 -131
q17 -11 38 -25t39 -35t30 -50.5t12 -69.5zM466 939q-8 -8 -14 -14.5t-14 -14.5t-18 -19.5t-25 -29.5q-11 -13 -19 -22.5t-15.5 -19.5t-15.5 -21t-20 -26h-36q-12 15 -20 26t-15.5 21t-15.5 19.5t-19 22.5q-15 18 -25 29.5t-18 19.5l-14.5 14.5t-13.5 14.5h25q13 -8 25 -16
q11 -7 22.5 -15t22.5 -16q10 -8 21 -16t21 -16l22 -18q11 8 22 17q10 8 21 16.5t21 16.5t22 16t23 15q12 8 25 16h25z" />
    <glyph glyph-name="scaron" unicode="&#x161;" horiz-adv-x="413" 
d="M372 131q0 -29 -11.5 -55t-32.5 -45.5t-51.5 -30.5t-69.5 -11q-32 0 -69 8.5t-71 25.5v-23h-24l-5 141h28q4 -24 18.5 -46t35 -39t44.5 -27.5t48 -10.5q42 0 65 25.5t23 58.5q0 19 -7 33.5t-18.5 25.5t-25 19.5t-26.5 15.5q-17 9 -33.5 19t-33.5 18q-56 29 -79 59t-23 74
q0 32 13.5 56t34.5 39.5t46 23.5t49 8q35 0 63 -7t59 -24v19h25l5 -141h-27l-3 24q-5 12 -13.5 29.5t-22.5 33t-35 26.5t-49 11q-36 0 -53 -19.5t-17 -44.5q0 -29 12 -43.5t28 -24.5q32 -22 66 -38q31 -15 56.5 -30t43.5 -33t27.5 -42t9.5 -58zM362 739q-8 -8 -14 -14.5
t-14 -14.5t-18 -19.5t-25 -29.5q-11 -13 -19 -22.5t-15.5 -19.5t-15.5 -21t-20 -26h-36q-12 15 -20 26t-15.5 21t-15.5 19.5t-19 22.5q-15 18 -25 29.5t-18 19.5l-14.5 14.5t-13.5 14.5h25q13 -8 25 -16q11 -7 22.5 -15t22.5 -16q10 -8 21 -16t21 -16l22 -18q11 8 22 17
q10 8 21 16.5t21 16.5t22 16t23 15q12 8 25 16h25z" />
    <glyph glyph-name="Tcommaaccent" unicode="&#x162;" horiz-adv-x="672" 
d="M644 723l9 -162h-35l-9 45q-23 44 -65 64t-110 20q-32 0 -40 -8t-8 -18v-587q0 -25 9.5 -35.5t46.5 -10.5h43v-31h-294v31h44q35 0 45 10t10 36v587q0 10 -8 18t-40 8q-68 0 -110 -20t-65 -64l-9 -45h-35l9 162h612zM280 -266q18 24 26 51t8 45q0 15 -6 36t-28 40l12 24
h90q3 -12 5.5 -26.5t2.5 -28.5q0 -48 -25 -85.5t-61 -69.5z" />
    <glyph glyph-name="tcommaaccent" unicode="&#x163;" horiz-adv-x="406" 
d="M382 113q-6 -21 -17.5 -43t-29.5 -40t-43 -29.5t-57 -11.5q-69 0 -104.5 39t-35.5 110v317h-77v28q37 2 62.5 23t40.5 52t21.5 67.5t6.5 69.5v8h26v-220h18q59 0 95.5 6t45.5 8l4 -42h-163v-334q0 -28 6.5 -46.5t17 -29t24.5 -15t29 -4.5q12 0 26.5 3.5t29.5 13.5t28 29
t22 49zM170 -266q14 15 27 40t13 56t-11 49.5t-19 26.5l12 24h70q8 -30 8 -56q0 -48 -22 -84t-54 -70z" />
    <glyph glyph-name="Tcaron" unicode="&#x164;" horiz-adv-x="672" 
d="M644 723l9 -162h-35l-9 45q-23 44 -65 64t-110 20q-32 0 -40 -8t-8 -18v-587q0 -25 9.5 -35.5t46.5 -10.5h43v-31h-294v31h44q35 0 45 10t10 36v587q0 10 -8 18t-40 8q-68 0 -110 -20t-65 -64l-9 -45h-35l9 162h612zM495 939q-8 -8 -14 -14.5t-14 -14.5t-18 -19.5
t-25 -29.5q-11 -13 -19 -22.5t-15.5 -19.5t-15.5 -21t-20 -26h-36q-12 15 -20 26t-15.5 21t-15.5 19.5t-19 22.5q-15 18 -25 29.5t-18 19.5l-14.5 14.5t-13.5 14.5h25q13 -8 25 -16q11 -7 22.5 -15t22.5 -16q10 -8 21 -16t21 -16l22 -18q11 8 22 17q10 8 21 16.5t21 16.5
t22 16t23 15q12 8 25 16h25z" />
    <glyph glyph-name="tcaron" unicode="&#x165;" horiz-adv-x="406" 
d="M382 113q-6 -21 -17.5 -43t-29.5 -40t-43 -29.5t-57 -11.5q-69 0 -104.5 39t-35.5 110v317h-77v28q37 2 62.5 23t40.5 52t21.5 67.5t6.5 69.5v8h26v-220h18q59 0 95.5 6t45.5 8l4 -42h-163v-334q0 -28 6.5 -46.5t17 -29t24.5 -15t29 -4.5q12 0 26.5 3.5t29.5 13.5t28 29
t22 49zM220 555q13 20 26.5 52t13.5 67q0 30 -9.5 48.5t-20.5 30.5l12 24h70q5 -17 6.5 -31.5t1.5 -26.5q0 -54 -22 -96.5t-54 -81.5z" />
    <glyph glyph-name="Umacron" unicode="&#x16a;" horiz-adv-x="881" 
d="M777 692q-9 -6 -17 -16t-14 -31t-10 -55.5t-4 -90.5v-175q0 -70 -12 -131.5t-42.5 -107.5t-83 -72.5t-132.5 -26.5q-73 0 -122.5 14.5t-82 38t-50.5 53t-26.5 58t-10 54t-1.5 41.5v401q0 25 -13.5 35.5t-42.5 10.5h-43v31h294v-31h-45q-26 0 -40 -10t-14 -36v-418
q0 -68 22 -109.5t53.5 -64t65 -29.5t57.5 -7q69 0 114.5 24.5t72 66.5t37 97.5t10.5 117.5v175q0 63 -5 100t-12 57t-14 27t-11 9h-56v31h232v-31h-54zM324 793v36h291v-36h-291z" />
    <glyph glyph-name="umacron" unicode="&#x16b;" horiz-adv-x="586" 
d="M397 0v44q-26 -20 -49.5 -31t-43 -16.5t-34 -6.5t-21.5 -1q-43 0 -70.5 14t-43.5 36.5t-22 49t-6 52.5v253q0 9 -2 15.5t-9.5 11t-22 6.5t-39.5 2v21q49 8 89.5 20t63.5 23v-352q0 -39 10.5 -61.5t26 -33t34 -13t33.5 -2.5q29 0 57 13t49 34v316q0 9 -2 15.5t-9.5 11
t-22 6.5t-39.5 2v21q49 8 89.5 20t63.5 23v-435q0 -17 7 -26t32 -9h40v-23h-159zM147 582v36h291v-36h-291z" />
    <glyph glyph-name="Uring" unicode="&#x16e;" horiz-adv-x="881" 
d="M777 692q-9 -6 -17 -16t-14 -31t-10 -55.5t-4 -90.5v-175q0 -70 -12 -131.5t-42.5 -107.5t-83 -72.5t-132.5 -26.5q-73 0 -122.5 14.5t-82 38t-50.5 53t-26.5 58t-10 54t-1.5 41.5v401q0 25 -13.5 35.5t-42.5 10.5h-43v31h294v-31h-45q-26 0 -40 -10t-14 -36v-418
q0 -68 22 -109.5t53.5 -64t65 -29.5t57.5 -7q69 0 114.5 24.5t72 66.5t37 97.5t10.5 117.5v175q0 63 -5 100t-12 57t-14 27t-11 9h-56v31h232v-31h-54zM583 854q0 -20 -8 -38t-21.5 -31.5t-31.5 -21.5t-38 -8t-38.5 8t-32 21.5t-21.5 31.5t-8 38t8 38t21.5 32t32 22t38.5 8
t38 -8t31.5 -21.5t21.5 -32t8 -38.5zM544 854q0 23 -17.5 42t-42.5 19q-24 0 -42.5 -18.5t-18.5 -42.5t19 -42t42 -18q24 0 42 18.5t18 41.5z" />
    <glyph glyph-name="uring" unicode="&#x16f;" horiz-adv-x="586" 
d="M397 0v44q-26 -20 -49.5 -31t-43 -16.5t-34 -6.5t-21.5 -1q-43 0 -70.5 14t-43.5 36.5t-22 49t-6 52.5v253q0 9 -2 15.5t-9.5 11t-22 6.5t-39.5 2v21q49 8 89.5 20t63.5 23v-352q0 -39 10.5 -61.5t26 -33t34 -13t33.5 -2.5q29 0 57 13t49 34v316q0 9 -2 15.5t-9.5 11
t-22 6.5t-39.5 2v21q49 8 89.5 20t63.5 23v-435q0 -17 7 -26t32 -9h40v-23h-159zM392 651q0 -20 -8 -38t-21.5 -31.5t-31.5 -21.5t-38 -8t-38.5 8t-32 21.5t-21.5 31.5t-8 38t8 38t21.5 32t32 22t38.5 8t38 -8t31.5 -21.5t21.5 -32t8 -38.5zM353 651q0 23 -17.5 42t-42.5 19
q-24 0 -42.5 -18.5t-18.5 -42.5t19 -42t42 -18q24 0 42 18.5t18 41.5z" />
    <glyph glyph-name="Uhungarumlaut" unicode="&#x170;" horiz-adv-x="881" 
d="M777 692q-9 -6 -17 -16t-14 -31t-10 -55.5t-4 -90.5v-175q0 -70 -12 -131.5t-42.5 -107.5t-83 -72.5t-132.5 -26.5q-73 0 -122.5 14.5t-82 38t-50.5 53t-26.5 58t-10 54t-1.5 41.5v401q0 25 -13.5 35.5t-42.5 10.5h-43v31h294v-31h-45q-26 0 -40 -10t-14 -36v-418
q0 -68 22 -109.5t53.5 -64t65 -29.5t57.5 -7q69 0 114.5 24.5t72 66.5t37 97.5t10.5 117.5v175q0 63 -5 100t-12 57t-14 27t-11 9h-56v31h232v-31h-54zM744 898q0 -15 -13 -27.5t-30 -23.5l-145 -90h-41l139 140q20 20 30.5 27t24.5 7q15 0 25 -11t10 -22zM579 898
q0 -15 -11.5 -27t-31.5 -24l-145 -90h-41l139 140q17 17 28.5 25.5t28.5 8.5q14 0 23.5 -11t9.5 -22z" />
    <glyph glyph-name="uhungarumlaut" unicode="&#x171;" horiz-adv-x="586" 
d="M397 0v44q-26 -20 -49.5 -31t-43 -16.5t-34 -6.5t-21.5 -1q-43 0 -70.5 14t-43.5 36.5t-22 49t-6 52.5v253q0 9 -2 15.5t-9.5 11t-22 6.5t-39.5 2v21q49 8 89.5 20t63.5 23v-352q0 -39 10.5 -61.5t26 -33t34 -13t33.5 -2.5q29 0 57 13t49 34v316q0 9 -2 15.5t-9.5 11
t-22 6.5t-39.5 2v21q49 8 89.5 20t63.5 23v-435q0 -17 7 -26t32 -9h40v-23h-159zM543 701q0 -15 -13 -27.5t-30 -23.5l-145 -90h-41l139 140q20 20 30.5 27t24.5 7q15 0 25 -11t10 -22zM378 701q0 -15 -11.5 -27t-31.5 -24l-145 -90h-41l139 140q17 17 28.5 25.5t28.5 8.5
q14 0 23.5 -11t9.5 -22z" />
    <glyph glyph-name="Uogonek" unicode="&#x172;" horiz-adv-x="881" 
d="M623 -111q-25 -23 -53 -39.5t-62 -16.5q-29 0 -46.5 18t-17.5 46q0 23 11.5 46t31.5 44q-6 0 -12.5 -0.5t-12.5 -0.5q-73 0 -122.5 14.5t-82 38t-50.5 53t-26.5 58t-10 54t-1.5 41.5v401q0 25 -13.5 35.5t-42.5 10.5h-43v31h294v-31h-45q-26 0 -40 -10t-14 -36v-418
q0 -68 22 -109.5t53.5 -64t65 -29.5t57.5 -7q69 0 114.5 24.5t72 66.5t37 97.5t10.5 117.5v175q0 63 -5 100t-12 57t-14 27t-11 9h-56v31h232v-31h-54q-9 -6 -17 -16t-14 -31t-10 -55.5t-4 -90.5v-175q0 -63 -9.5 -119t-33.5 -100.5t-64.5 -74t-101.5 -39.5
q-12 -17 -20.5 -36.5t-8.5 -42.5q0 -17 11.5 -27.5t29.5 -10.5t38 11t34 25l16 -21v0z" />
    <glyph glyph-name="uogonek" unicode="&#x173;" horiz-adv-x="586" 
d="M590 -111q-25 -23 -53 -39.5t-62 -16.5q-29 0 -46.5 18t-17.5 46q0 26 15 53t41 50h-70v44q-26 -20 -49.5 -31t-43 -16.5t-34 -6.5t-21.5 -1q-43 0 -70.5 14t-43.5 36.5t-22 49t-6 52.5v253q0 9 -2 15.5t-9.5 11t-22 6.5t-39.5 2v21q49 8 89.5 20t63.5 23v-352
q0 -39 10.5 -61.5t26 -33t34 -13t33.5 -2.5q29 0 57 13t49 34v316q0 9 -2 15.5t-9.5 11t-22 6.5t-39.5 2v21q49 8 89.5 20t63.5 23v-435q0 -17 6.5 -26t31.5 -9h40v-23h-58q-14 -18 -25 -40t-11 -48q0 -17 11.5 -27.5t29.5 -10.5t38 11t34 25l16 -21v0z" />
    <glyph glyph-name="Ydieresis" unicode="&#x178;" horiz-adv-x="772" 
d="M721 692q-21 0 -40.5 -18.5t-48.5 -63.5l-200 -310v-223q0 -24 12.5 -35t43.5 -11h43v-31h-294v31h44q31 0 43 11.5t12 34.5v214l-202 342q-6 10 -13.5 20.5t-19.5 19t-31 14t-48 5.5v31h281v-31h-53q-11 0 -20 -3t-9 -12q0 -5 3 -12t6 -12l188 -320l83 133
q19 30 35.5 60.5t29.5 55.5t20 47t7 42q0 21 -40 21h-39v31h240v-31h-33zM560 827q0 -23 -15.5 -39t-39.5 -16t-40 16t-16 39q0 24 17 39.5t39 15.5t38.5 -15.5t16.5 -39.5zM371 827q0 -23 -16 -39t-40 -16t-40 16t-16 39q0 24 17 39.5t39 15.5t39 -15.5t17 -39.5z" />
    <glyph glyph-name="Zacute" unicode="&#x179;" horiz-adv-x="674" 
d="M233 33q30 0 65.5 1.5t71 4t69.5 7t61 10.5q42 9 63.5 29.5t31.5 45.5l6 31h35l-33 -162h-533v29l419 661h-103q-68 0 -114 -9t-74.5 -21t-42.5 -24t-18 -18l-5 -45h-33l13 150h491v-32l-420 -658h50zM546 905q0 -12 -13 -23t-33 -23l-145 -90h-41l139 140q11 11 19.5 18
t15 10.5t12.5 4.5t13 1q15 0 24 -10.5t9 -27.5z" />
    <glyph glyph-name="zacute" unicode="&#x17a;" horiz-adv-x="446" 
d="M406 0h-374v23l288 432q-43 0 -80.5 -2t-67.5 -8t-51 -17t-31 -30l-5 -46h-28l7 129h349v-21l-285 -434h49q31 0 65.5 3.5t64.5 11.5t50.5 21.5t25.5 33.5l3 32h28zM401 699q0 -14 -15 -27t-31 -23l-145 -90h-41l139 140q11 11 19 18t15 10.5t12.5 5t12.5 1.5
q15 0 24.5 -9.5t9.5 -25.5z" />
    <glyph glyph-name="Zdotaccent" unicode="&#x17b;" horiz-adv-x="674" 
d="M233 33q30 0 65.5 1.5t71 4t69.5 7t61 10.5q42 9 63.5 29.5t31.5 45.5l6 31h35l-33 -162h-533v29l419 661h-103q-68 0 -114 -9t-74.5 -21t-42.5 -24t-18 -18l-5 -45h-33l13 150h491v-32l-420 -658h50zM422 854q0 -21 -15.5 -38t-40.5 -17t-40 17t-15 38q0 22 15 39t40 17
t40.5 -17t15.5 -39z" />
    <glyph glyph-name="zdotaccent" unicode="&#x17c;" horiz-adv-x="446" 
d="M406 0h-374v23l288 432q-43 0 -80.5 -2t-67.5 -8t-51 -17t-31 -30l-5 -46h-28l7 129h349v-21l-285 -434h49q31 0 65.5 3.5t64.5 11.5t50.5 21.5t25.5 33.5l3 32h28zM289 657q0 -21 -15.5 -38t-40.5 -17t-40 17t-15 38q0 22 15 39t40 17t40.5 -17t15.5 -39z" />
    <glyph glyph-name="Zcaron" unicode="&#x17d;" horiz-adv-x="674" 
d="M233 33q30 0 65.5 1.5t71 4t69.5 7t61 10.5q42 9 63.5 29.5t31.5 45.5l6 31h35l-33 -162h-533v29l419 661h-103q-68 0 -114 -9t-74.5 -21t-42.5 -24t-18 -18l-5 -45h-33l13 150h491v-32l-420 -658h50zM509 939q-8 -8 -14 -14.5t-14 -14.5t-18 -19.5t-25 -29.5
q-11 -13 -19 -22.5t-15.5 -19.5t-15.5 -21t-20 -26h-36q-12 15 -20 26t-15.5 21t-15.5 19.5t-19 22.5q-15 18 -25 29.5t-18 19.5l-14.5 14.5t-13.5 14.5h25q13 -8 25 -16q11 -7 22.5 -15t22.5 -16q10 -8 21 -16t21 -16l22 -18q11 8 22 17q10 8 21 16.5t21 16.5t22 16t23 15
q12 8 25 16h25z" />
    <glyph glyph-name="zcaron" unicode="&#x17e;" horiz-adv-x="446" 
d="M406 0h-374v23l288 432q-43 0 -80.5 -2t-67.5 -8t-51 -17t-31 -30l-5 -46h-28l7 129h349v-21l-285 -434h49q31 0 65.5 3.5t64.5 11.5t50.5 21.5t25.5 33.5l3 32h28zM398 739q-8 -8 -14 -14.5t-14 -14.5t-18 -19.5t-25 -29.5q-11 -13 -19 -22.5t-15.5 -19.5t-15.5 -21
t-20 -26h-36q-12 15 -20 26t-15.5 21t-15.5 19.5t-19 22.5q-15 18 -25 29.5t-18 19.5l-14.5 14.5t-13.5 14.5h25q13 -8 25 -16q11 -7 22.5 -15t22.5 -16q10 -8 21 -16t21 -16l22 -18q11 8 22 17q10 8 21 16.5t21 16.5t22 16t23 15q12 8 25 16h25z" />
    <glyph glyph-name="uni018F" unicode="&#x18f;" horiz-adv-x="811" 
d="M72 387h568q-3 70 -17 129t-42.5 102t-73 67t-108.5 24q-38 0 -75.5 -14t-70.5 -36.5t-57.5 -51t-34.5 -58.5l-2 -29h-40l15 196h39l-1 -42q27 19 60 31.5t65.5 20t61.5 10.5t49 3q102 0 169 -31.5t106 -82.5t55 -114.5t16 -127.5q0 -63 -16 -132.5t-56.5 -128.5
t-109.5 -97.5t-175 -38.5q-69 0 -120 16.5t-87 45t-59 65.5t-36 77.5t-18 82t-5 78.5v36zM397 19q65 0 110.5 27.5t74.5 73t42.5 105.5t15.5 126h-467q1 -66 12 -126t36.5 -105.5t68 -73t107.5 -27.5z" />
    <glyph glyph-name="florin" unicode="&#x192;" 
d="M562 740q0 -20 -12 -33t-33 -13t-31 14t-13 28q-4 22 -18 22q-9 0 -19.5 -3.5t-22.5 -17t-24.5 -42t-25.5 -77.5l-33 -128h103l-10 -32h-102l-190 -683h-81l191 683h-103l12 32h100q21 83 48.5 141.5t59 95t66.5 53t71 16.5q35 0 51 -16.5t16 -39.5z" />
    <glyph glyph-name="uni01DD" unicode="&#x1dd;" horiz-adv-x="477" 
d="M226 493q38 0 77 -10.5t70.5 -37.5t51.5 -73.5t20 -118.5q0 -58 -15 -106.5t-43.5 -83.5t-69 -54.5t-91.5 -19.5q-49 0 -84.5 18.5t-59 51.5t-34.5 78.5t-11 100.5v8h317q0 80 -14 124t-34 65t-42 25t-38 4q-29 0 -52.5 -11.5t-42 -27.5t-30.5 -34t-16 -30l-3 -24h-27
l5 141h25v-19q31 17 68.5 25.5t72.5 8.5zM124 216q0 -43 6.5 -79.5t19.5 -62.5t33.5 -41t49.5 -15q26 0 47 15t36.5 41.5t25 62.5t12.5 79h-230z" />
    <glyph glyph-name="Scommaaccent" unicode="&#x218;" horiz-adv-x="611" 
d="M561 200q0 -44 -15 -82.5t-44 -67.5t-73 -46t-101 -18q-11 0 -31.5 1t-47.5 6t-60.5 14.5t-71.5 27.5l2 -35h-37l-12 187h36l3 -35q16 -27 40.5 -51.5t53.5 -43t61 -29t63 -10.5q37 0 66 11t49 30t31 43t11 50q0 45 -20.5 71t-50.5 45l-187 116q-22 14 -47.5 31t-47 39
t-35.5 49t-14 61t10.5 65.5t36 56t67.5 39t106 14.5q60 0 106.5 -14.5t78.5 -31.5l-2 30h37l6 -185h-36l-2 33q-2 18 -18 41.5t-41 45t-57.5 36.5t-68.5 15q-41 0 -67.5 -9.5t-42.5 -25t-22.5 -35t-6.5 -39.5q0 -17 6.5 -31.5t15.5 -25.5t19.5 -19t18.5 -13l216 -131
q17 -11 38 -25t39 -35t30 -50.5t12 -69.5zM280 -266q18 24 26 51t8 45q0 15 -6 36t-28 40l12 24h90q3 -12 5.5 -26.5t2.5 -28.5q0 -48 -25 -85.5t-61 -69.5z" />
    <glyph glyph-name="scommaaccent" unicode="&#x219;" horiz-adv-x="413" 
d="M372 131q0 -29 -11.5 -55t-32.5 -45.5t-51.5 -30.5t-69.5 -11q-32 0 -69 8.5t-71 25.5v-23h-24l-5 141h28q4 -24 18.5 -46t35 -39t44.5 -27.5t48 -10.5q42 0 65 25.5t23 58.5q0 19 -7 33.5t-18.5 25.5t-25 19.5t-26.5 15.5q-17 9 -33.5 19t-33.5 18q-56 29 -79 59t-23 74
q0 32 13.5 56t34.5 39.5t46 23.5t49 8q35 0 63 -7t59 -24v19h25l5 -141h-27l-3 24q-5 12 -13.5 29.5t-22.5 33t-35 26.5t-49 11q-36 0 -53 -19.5t-17 -44.5q0 -29 12 -43.5t28 -24.5q32 -22 66 -38q31 -15 56.5 -30t43.5 -33t27.5 -42t9.5 -58zM151 -266q14 15 27 40t13 56
t-11 49.5t-19 26.5l12 24h70q8 -30 8 -56q0 -48 -22 -84t-54 -70z" />
    <glyph glyph-name="uni0259" unicode="&#x259;" horiz-adv-x="477" 
d="M226 493q38 0 77 -10.5t70.5 -37.5t51.5 -73.5t20 -118.5q0 -58 -15 -106.5t-43.5 -83.5t-69 -54.5t-91.5 -19.5q-49 0 -84.5 18.5t-59 51.5t-34.5 78.5t-11 100.5v8h317q0 80 -14 124t-34 65t-42 25t-38 4q-29 0 -52.5 -11.5t-42 -27.5t-30.5 -34t-16 -30l-3 -24h-27
l5 141h25v-19q31 17 68.5 25.5t72.5 8.5zM124 216q0 -43 6.5 -79.5t19.5 -62.5t33.5 -41t49.5 -15q26 0 47 15t36.5 41.5t25 62.5t12.5 79h-230z" />
    <glyph glyph-name="afii57929" unicode="&#x2bc;" horiz-adv-x="250" 
d="M70 515q13 20 26.5 52t13.5 67q0 30 -9.5 48.5t-20.5 30.5l12 24h70q5 -17 6.5 -31.5t1.5 -26.5q0 -54 -22 -96.5t-54 -81.5z" />
    <glyph glyph-name="circumflex" unicode="&#x2c6;" horiz-adv-x="444" 
d="M355 562q-13 8 -25 16q-11 7 -23 15t-22 16t-21 16t-21 16q-11 9 -22 17q-11 -8 -22 -17q-10 -8 -21 -16t-21 -16t-22 -16t-23 -15q-12 -8 -25 -16h-25q7 7 13.5 14t14.5 15t18 19.5t25 29.5q11 13 19 22.5t15.5 19.5t15.5 21t20 26h36q12 -15 20 -26t15.5 -21
t15.5 -19.5t19 -22.5q15 -18 25 -29.5t18 -19.5t14 -15t14 -14h-25z" />
    <glyph glyph-name="caron" unicode="&#x2c7;" horiz-adv-x="444" 
d="M380 739q-8 -8 -14 -14.5t-14 -14.5t-18 -19.5t-25 -29.5q-11 -13 -19 -22.5t-15.5 -19.5t-15.5 -21t-20 -26h-36q-12 15 -20 26t-15.5 21t-15.5 19.5t-19 22.5q-15 18 -25 29.5t-18 19.5l-14.5 14.5t-13.5 14.5h25q13 -8 25 -16q11 -7 22.5 -15t22.5 -16q10 -8 21 -16
t21 -16l22 -18q11 8 22 17q10 8 21 16.5t21 16.5t22 16t23 15q12 8 25 16h25v0z" />
    <glyph glyph-name="breve" unicode="&#x2d8;" horiz-adv-x="441" 
d="M375 720q-2 -32 -13 -61t-30.5 -50.5t-48 -34t-65.5 -12.5q-35 0 -62.5 12.5t-46.5 34.5t-30 50.5t-13 60.5h30q10 -41 44 -69t85 -28q27 0 47 7.5t34.5 20.5t24 30.5t14.5 38.5h30v0z" />
    <glyph glyph-name="dotaccent" unicode="&#x2d9;" horiz-adv-x="222" 
d="M169 657q0 -21 -15.5 -38t-40.5 -17t-40 17t-15 38q0 22 15 39t40 17t40.5 -17t15.5 -39z" />
    <glyph glyph-name="ring" unicode="&#x2da;" horiz-adv-x="333" 
d="M266 651q0 -20 -8 -38t-21.5 -31.5t-31.5 -21.5t-38 -8t-38.5 8t-32 21.5t-21.5 31.5t-8 38t8 38t21.5 32t32 22t38.5 8t38 -8t31.5 -21.5t21.5 -32t8 -38.5zM227 651q0 23 -17.5 42t-42.5 19q-24 0 -42.5 -18.5t-18.5 -42.5t19 -42t42 -18q24 0 42 18.5t18 41.5z" />
    <glyph glyph-name="ogonek" unicode="&#x2db;" horiz-adv-x="293" 
d="M244 -111q-25 -23 -53 -39.5t-62 -16.5q-29 0 -46.5 18t-17.5 46q0 29 18.5 58t47.5 53l29 2q-17 -20 -31 -44.5t-14 -53.5q0 -17 11.5 -27.5t29.5 -10.5t38 11t34 25l16 -21v0z" />
    <glyph glyph-name="tilde" unicode="&#x2dc;" horiz-adv-x="428" 
d="M406 565q-10 -18 -22 -35t-26.5 -30.5t-33 -21.5t-40.5 -8q-18 0 -34 9.5t-33 21t-35.5 21t-39.5 9.5q-23 0 -43.5 -9.5t-42.5 -41.5l-17 12q10 18 21.5 35t26.5 30.5t33 21.5t41 8q21 0 40 -9.5t36.5 -21t33.5 -21t32 -9.5q23 0 44 9.5t43 41.5l16 -12v0z" />
    <glyph glyph-name="hungarumlaut" unicode="&#x2dd;" horiz-adv-x="519" 
d="M456 701q0 -15 -13 -27.5t-30 -23.5l-145 -90h-41l139 140q20 20 30.5 27t24.5 7q15 0 25 -11t10 -22zM291 701q0 -15 -11.5 -27t-31.5 -24l-145 -90h-41l139 140q17 17 28.5 25.5t28.5 8.5q14 0 23.5 -11t9.5 -22z" />
    <glyph glyph-name="uni037E" unicode="&#x37e;" horiz-adv-x="282" 
d="M189 449q0 -22 -15.5 -39t-39.5 -17q-22 0 -39 16t-17 40t17 40t39 16q24 0 39.5 -17t15.5 -39zM193 39q0 -27 -9 -54.5t-23.5 -53.5t-33.5 -49.5t-38 -41.5l-17 15q32 32 49.5 64.5t17.5 55.5q0 20 -12 28t-23 15q-11 8 -19.5 18.5t-8.5 30.5q0 21 15 35.5t41 14.5
q24 0 42.5 -19t18.5 -59z" />
    <glyph glyph-name="Omega" unicode="&#x3a9;" horiz-adv-x="703" 
d="M27 0l-12 182h30l2 -24q1 -11 11 -24t27 -24t39.5 -18.5t49.5 -7.5h49l-3 37q-52 19 -88 51.5t-58.5 73t-32.5 85.5t-10 89q0 75 25.5 133.5t69.5 99.5t101.5 62.5t122.5 21.5q64 0 122 -18t102 -56.5t69.5 -98.5t25.5 -144q0 -44 -10.5 -89t-33.5 -85.5t-58.5 -73
t-86.5 -51.5l-3 -37h47q27 0 49.5 7.5t39.5 18.5t27 24t11 24l2 24h30l-12 -182h-233l10 145q42 20 66 50t37 67.5t16.5 80.5t3.5 88q0 54 -13.5 103.5t-41 87.5t-69 60.5t-98.5 22.5q-60 0 -102 -23t-68 -61.5t-38 -88t-12 -101.5q0 -45 5 -88t18.5 -80.5t37.5 -68
t62 -49.5l10 -145h-235z" />
    <glyph glyph-name="mu" unicode="&#x3bc;" horiz-adv-x="645" 
d="M610 129q-2 -15 -7 -39t-16 -46.5t-29.5 -39t-47.5 -16.5q-24 0 -41.5 14t-28 36.5t-15.5 50t-5 53.5h-8q-8 -35 -20 -64.5t-29.5 -51.5t-41.5 -34t-56 -12q-45 0 -78 36t-47 106h-6q0 -54 4.5 -93.5t10.5 -69t10.5 -52t4.5 -43.5q0 -19 -5 -31t-11.5 -18.5t-14 -8.5
t-13.5 -2q-20 0 -32.5 14.5t-12.5 45.5q0 16 5.5 40t12 60t12 87t5.5 123v307h80v-257q0 -33 4.5 -64t16 -54.5t31.5 -37.5t50 -14q49 0 74 32.5t25 82.5v312h80v-322q0 -44 14.5 -74.5t45.5 -30.5q29 0 41 21.5t19 53.5h19v0z" />
    <glyph glyph-name="pi" unicode="&#x3c0;" horiz-adv-x="603" 
d="M572 406h-147q-5 -36 -9 -64.5t-6.5 -53.5t-3.5 -48t-1 -48q0 -26 6.5 -47.5t17.5 -37t25 -24.5t29 -9q27 0 41.5 19t16.5 45l31 -2q-3 -23 -9.5 -49.5t-18.5 -49t-31.5 -37t-48.5 -14.5q-33 0 -53 17.5t-31.5 45t-15 60t-3.5 62.5q0 16 1 36t4 48t8 64.5t12 86.5h-135
q-5 -102 -14.5 -174t-27.5 -128q-6 -17 -16 -40.5t-25 -44.5t-35 -35.5t-47 -14.5q-26 0 -40.5 13.5t-14.5 37.5q0 14 6 28t32 22q18 5 35.5 8t33 13t29 31.5t24.5 63.5q19 70 22 220h-51q-21 0 -39 -9t-32.5 -22.5t-25 -29.5t-16.5 -31l-26 4q10 38 21 68.5t31 56.5
q6 7 14.5 14t22 12.5t33.5 8.5t49 3h378v-75z" />
    <glyph glyph-name="afii10023" unicode="&#x401;" horiz-adv-x="680" 
d="M634 723l7 -162h-35l-15 65q-8 14 -29.5 25.5t-52.5 20t-68 13.5t-76 5q-31 0 -50.5 -2t-30.5 -7t-15 -14.5t-4 -24.5v-246h48q68 0 105 6t54 15t20 19t3 19v26h31v-200h-31v27q0 9 -3 19t-20 18.5t-54 14.5t-105 6h-48v-286q0 -31 16 -38.5t39 -7.5q68 0 121.5 4
t96.5 21q40 15 62.5 32.5t32.5 42.5l6 31h35l-33 -165h-571v33h43q35 0 45.5 10t10.5 36v567q0 31 -15.5 38.5t-40.5 7.5h-43v31h564zM538 827q0 -23 -15.5 -39t-39.5 -16t-40 16t-16 39q0 24 17 39.5t39 15.5t38.5 -15.5t16.5 -39.5zM349 827q0 -23 -16 -39t-40 -16t-40 16
t-16 39q0 24 17 39.5t39 15.5t39 -15.5t17 -39.5z" />
    <glyph glyph-name="afii10051" unicode="&#x402;" horiz-adv-x="781" 
d="M345 428q25 6 55 10t62 4q52 0 104.5 -10t94.5 -36t68.5 -71t26.5 -114q0 -38 -13.5 -76t-40 -69.5t-65.5 -51t-91 -19.5q-57 0 -83 19.5t-26 47.5q0 17 11 35t38 18q24 0 36 -12t12 -32q0 -7 -2.5 -16t-2.5 -13q0 -5 3.5 -13.5t19.5 -8.5q22 0 39.5 10t30.5 31.5t20 57
t7 86.5q0 66 -19.5 106t-49.5 62.5t-65.5 30t-67.5 7.5q-25 0 -43.5 -2.5t-31.5 -5.5q-15 -4 -27 -8v-318q0 -25 9 -35.5t24 -10.5h16v-31h-244v31h44q35 0 45 10t10 36v587q0 10 -8 18t-40 8q-30 0 -51 -7.5t-35.5 -19.5t-22.5 -27t-12 -30l-9 -45h-35l9 162h593l9 -162
h-35l-9 45q-23 43 -71.5 63.5t-138.5 20.5q-32 0 -40 -8t-8 -18v-236z" />
    <glyph glyph-name="afii10052" unicode="&#x403;" horiz-adv-x="592" 
d="M576 723l7 -162h-35l-15 65q-8 14 -29.5 25.5t-52.5 20t-68 13.5t-76 5q-22 0 -32 -9t-10 -33v-571q0 -29 12.5 -37.5t42.5 -8.5h50v-31h-300v31h43q32 0 44 9t12 37v569q0 25 -11.5 35.5t-44.5 10.5h-43v31h506zM502 905q0 -12 -13 -23t-33 -23l-145 -90h-41l139 140
q11 11 19.5 18t15 10.5t12.5 4.5t13 1q15 0 24 -10.5t9 -27.5z" />
    <glyph glyph-name="afii10053" unicode="&#x404;" horiz-adv-x="764" 
d="M72 355q0 63 20.5 130.5t66 124t117.5 93t174 36.5q22 0 44 -2.5t46 -8t51.5 -14.5t60.5 -21l-1 30h33l13 -193h-34l-2 46q-13 27 -34 50.5t-50 41t-66 28t-82 10.5q-62 0 -106 -25t-73.5 -68t-44.5 -100t-18 -120h88q37 0 66 1t58.5 3.5t62 6t77.5 9.5v-71q-46 6 -79 10
t-61.5 6t-57 3t-67.5 1h-88v-7q0 -92 23 -155t60.5 -102.5t84.5 -57t96 -17.5q45 0 84.5 15.5t72.5 41.5t58.5 59t43.5 68l26 -13q-27 -58 -63 -97.5t-76.5 -64t-84 -35.5t-86.5 -11q-83 0 -148.5 27.5t-111 76.5t-69.5 117t-24 148z" />
    <glyph glyph-name="afii10054" unicode="&#x405;" horiz-adv-x="611" 
d="M561 200q0 -44 -15 -82.5t-44 -67.5t-73 -46t-101 -18q-11 0 -31.5 1t-47.5 6t-60.5 14.5t-71.5 27.5l2 -35h-37l-12 187h36l3 -35q16 -27 40.5 -51.5t53.5 -43t61 -29t63 -10.5q37 0 66 11t49 30t31 43t11 50q0 45 -20.5 71t-50.5 45l-187 116q-22 14 -47.5 31t-47 39
t-35.5 49t-14 61t10.5 65.5t36 56t67.5 39t106 14.5q60 0 106.5 -14.5t78.5 -31.5l-2 30h37l6 -185h-36l-2 33q-2 18 -18 41.5t-41 45t-57.5 36.5t-68.5 15q-41 0 -67.5 -9.5t-42.5 -25t-22.5 -35t-6.5 -39.5q0 -17 6.5 -31.5t15.5 -25.5t19.5 -19t18.5 -13l216 -131
q17 -11 38 -25t39 -35t30 -50.5t12 -69.5z" />
    <glyph glyph-name="afii10055" unicode="&#x406;" horiz-adv-x="413" 
d="M70 0v31h43q34 0 45 10t11 36v569q0 28 -12 37t-44 9h-43v31h294v-31h-45q-32 0 -43 -10t-11 -36v-569q0 -24 9.5 -35t44.5 -11h45v-31h-294z" />
    <glyph glyph-name="afii10056" unicode="&#x407;" horiz-adv-x="413" 
d="M70 0v31h43q34 0 45 10t11 36v569q0 28 -12 37t-44 9h-43v31h294v-31h-45q-32 0 -43 -10t-11 -36v-569q0 -24 9.5 -35t44.5 -11h45v-31h-294zM365 827q0 -23 -15.5 -39t-39.5 -16t-40 16t-16 39q0 24 17 39.5t39 15.5t38.5 -15.5t16.5 -39.5zM176 827q0 -23 -16 -39
t-40 -16t-40 16t-16 39q0 24 17 39.5t39 15.5t39 -15.5t17 -39.5z" />
    <glyph glyph-name="afii10057" unicode="&#x408;" horiz-adv-x="513" 
d="M421 692q-34 0 -45 -11t-11 -35v-417q0 -104 -25.5 -170.5t-64 -105.5t-83 -54t-82.5 -15q-33 0 -56.5 9t-38.5 23t-22 31t-7 34q0 21 13 36t43 15q23 0 38.5 -15t15.5 -39q0 -6 -0.5 -11.5t-0.5 -10.5q0 -17 7.5 -29t35.5 -12q45 0 71 30.5t39.5 77t17 101.5t3.5 105
v417q0 26 -11 36t-45 10h-43v31h294v-31h-43z" />
    <glyph glyph-name="afii10058" unicode="&#x409;" horiz-adv-x="1110" 
d="M550 648q0 30 -13.5 36t-43.5 6h-44q-28 0 -46 -4.5t-28.5 -12.5t-15.5 -20.5t-8 -28.5q-5 -29 -10 -57t-10 -63q-5 -33 -9.5 -61t-8.5 -54t-9 -53.5t-12 -59.5q-11 -51 -23.5 -102.5t-32.5 -93.5t-51 -68t-78 -26q-43 0 -68 25.5t-25 58.5q0 10 2.5 21.5t9 21t17.5 15.5
t28 6q29 0 43 -15.5t14 -38.5q0 -8 -3 -18.5t-3 -15.5t4.5 -11t15.5 -6q21 0 38 22t30 56t22.5 74t17.5 75q11 51 20 105t17 111q5 35 9 77t4 71q0 11 -3 23.5t-9.5 23.5t-18 18t-28.5 7h-50v31h554v-31h-46q-27 0 -40 -9t-13 -35v-216q11 4 27.5 8t36 7.5t40 5.5t39.5 2
q81 0 134.5 -19t85.5 -50.5t45 -71t13 -81.5q0 -40 -14.5 -82t-48.5 -76.5t-90.5 -57t-140.5 -22.5q-16 0 -36 1t-40 1.5t-39.5 1.5t-33.5 1h-173v31h43q29 0 42.5 9t13.5 35v573zM962 229q0 98 -56 144t-150 46q-13 0 -28.5 -1.5t-30.5 -4t-28.5 -6t-22.5 -7.5v-348
q30 -14 61 -18.5t62 -4.5q41 0 76.5 13t61.5 38.5t40.5 63t14.5 85.5z" />
    <glyph glyph-name="afii10059" unicode="&#x40a;" horiz-adv-x="1193" 
d="M1045 233q0 46 -16.5 80.5t-45 58t-66 35.5t-78.5 12q-13 0 -28.5 -1.5t-30.5 -4t-28.5 -6t-22.5 -7.5v-348q30 -14 61 -18.5t62 -4.5q41 0 76.5 13.5t61.5 40t40.5 64.5t14.5 86zM633 646q0 26 -12 36t-44 10h-43v31h294v-31h-45q-30 0 -42 -8.5t-12 -37.5v-214
q29 11 61.5 17t72.5 6q82 0 137.5 -19.5t88.5 -51t47 -71t14 -80.5q0 -40 -14.5 -82t-48.5 -76.5t-90.5 -57t-140.5 -22.5q-16 0 -37 1t-43 1.5t-42.5 1.5t-34.5 1h-165v31h43q26 0 41 9.5t15 36.5v283h-368v-283q0 -16 5.5 -25.5t13.5 -14t17.5 -5.5t17.5 -1h45v-31h-294
v31h43q10 0 20 1t18 5.5t13 14t5 25.5v569q0 26 -12 36t-44 10h-43v31h294v-31h-45q-30 0 -42 -10t-12 -34v-259h368v257z" />
    <glyph glyph-name="afii10060" unicode="&#x40b;" horiz-adv-x="864" 
d="M345 379q37 32 93.5 53t127.5 21q53 0 86.5 -15.5t52 -38.5t25 -49t6.5 -48v-225q0 -28 10.5 -37t45.5 -9h43v-31h-287v31h37q34 0 44.5 10.5t10.5 35.5v225q0 21 -7 40t-22 33.5t-38.5 23t-55.5 8.5q-56 0 -99.5 -18t-72.5 -41v-271q0 -21 9 -33.5t46 -12.5h37v-31h-287
v31h44q36 0 45.5 10t9.5 36v587q0 10 -8 18t-40 8q-30 0 -51 -7.5t-35.5 -19.5t-22.5 -27t-12 -30l-9 -45h-35l9 162h593l9 -162h-35l-9 45q-23 43 -71.5 63.5t-138.5 20.5q-32 0 -40 -8t-8 -18v-285z" />
    <glyph glyph-name="afii10061" unicode="&#x40c;" horiz-adv-x="797" 
d="M788 75q-5 -39 -24 -64t-60 -25q-34 0 -59.5 16t-45 41.5t-34.5 56.5t-28 60l-8 19q-11 25 -22.5 49.5t-23.5 48.5q-29 56 -53.5 78.5t-61.5 22.5h-103v-301q0 -26 11 -36t43 -10h45v-31h-294v31h43q34 0 45 10t11 36v569q0 28 -12.5 37t-43.5 9h-43v31h294v-31h-45
q-33 0 -43.5 -11.5t-10.5 -34.5v-236h103q9 0 22 2t29 12.5t34.5 32.5t39.5 63q14 28 27.5 54.5t27.5 52.5q29 54 56.5 83t71.5 29q39 0 56.5 -21t17.5 -45q0 -21 -12.5 -38t-41.5 -17q-26 0 -38 14.5t-12 32.5q0 7 1.5 14.5t1.5 11.5q0 9 -5 9q-2 0 -6 -1t-12 -9
q-16 -17 -26 -40.5t-18 -46.5q-5 -16 -16.5 -46.5t-32 -62.5t-51.5 -59.5t-74 -36.5v-4q32 -6 55.5 -14.5t42.5 -19.5t34 -25.5t30 -32.5q32 -38 53 -79.5t47 -102.5q6 -15 12.5 -31t13.5 -29t15 -21.5t17 -8.5q8 0 13.5 5t9.5 12t6 14.5t3 13.5h28zM661 899q0 -14 -15 -27
t-31 -23l-145 -90h-41l139 140q11 11 19 18t15 10.5t12.5 5t12.5 1.5q15 0 24.5 -9.5t9.5 -25.5z" />
    <glyph glyph-name="afii10062" unicode="&#x40e;" horiz-adv-x="793" 
d="M731 694q-19 -8 -33 -21.5t-28 -39.5q-12 -22 -21.5 -40t-20 -39t-23 -47.5t-30.5 -64.5q-14 -29 -26.5 -55t-24.5 -50t-23.5 -48.5t-24.5 -50.5q-25 -51 -48.5 -95.5t-57.5 -89.5q-23 -29 -55.5 -48t-75.5 -19q-19 0 -41 5.5t-41 16.5t-31.5 29t-12.5 44q0 30 16.5 45
t42.5 15q22 0 38.5 -13t16.5 -40q0 -18 -3.5 -25t-3.5 -15q0 -13 12 -20.5t26 -7.5q12 0 26.5 4t31.5 18t37 40.5t43 71.5l-258 488q-10 19 -20.5 29.5t-21 15.5t-20.5 6t-19 1h-21v29h276v-29h-44q-17 0 -23.5 -5t-6.5 -12q0 -11 5 -19l206 -397l74 151q50 101 74.5 168.5
t24.5 88.5q0 9 -3.5 14.5t-8.5 7.5t-10 2.5t-9 0.5h-55v29h227v-29h-32zM602 884q0 -17 -10 -36.5t-32 -36.5t-56 -28.5t-82 -11.5t-82.5 11.5t-56 28.5t-31.5 36.5t-10 36.5q0 26 16.5 38.5t32.5 12.5q17 0 32 -8.5t15 -33.5q0 -9 -3.5 -16t-7.5 -14t-7.5 -13.5t-3.5 -14.5
q0 -5 4.5 -11.5t16 -13.5t32 -11.5t53.5 -4.5t53.5 4.5t32 11.5t16 13.5t4.5 11.5q0 8 -3.5 14.5t-7.5 13.5t-7.5 14t-3.5 16q0 25 15 33.5t32 8.5q16 0 32.5 -12.5t16.5 -38.5z" />
    <glyph glyph-name="afii10145" unicode="&#x40f;" horiz-adv-x="818" 
d="M511 0q-27 -8 -47 -55t-20 -123h-31q0 76 -20 123t-47 55h-276v31h43q32 0 44 8.5t12 37.5v569q0 22 -10.5 34t-45.5 12h-43v31h294v-31h-45q-32 0 -43 -10t-11 -36v-567q0 -20 10 -33t45 -13h217q31 0 43 9.5t12 36.5v567q0 26 -11 36t-43 10h-45v31h294v-31h-43
q-35 0 -45.5 -12t-10.5 -34v-569q0 -24 10.5 -35t45.5 -11h43v-31h-276z" />
    <glyph glyph-name="afii10017" unicode="&#x410;" horiz-adv-x="725" 
d="M446 0v33h41q6 0 13 0.5t13.5 3t11 7t4.5 13.5q0 11 -6.5 31t-17.5 50l-50 146h-237l-25 -64q-5 -14 -12.5 -33t-14.5 -38.5t-11.5 -38.5t-4.5 -33q0 -23 6.5 -31t19.5 -13h45v-33h-211v33h33q12 8 23.5 20.5t28.5 43.5t42 88t63 153q28 70 65 167t79 218h44l231 -631
q9 -25 22.5 -42t48.5 -17h24v-33h-268zM337 609l-109 -296h215z" />
    <glyph glyph-name="afii10018" unicode="&#x411;" horiz-adv-x="741" 
d="M640 561h-35l-15 65q-8 14 -34 25.5t-63.5 20t-82.5 13.5t-89 5q-30 0 -43 -7.5t-13 -34.5v-216q29 11 61.5 17t72.5 6q82 0 137.5 -19.5t88.5 -51t47 -71t14 -80.5q0 -40 -14.5 -82t-48.5 -76.5t-90.5 -57t-140.5 -22.5q-16 0 -36.5 1t-41.5 1.5t-40.5 1.5t-33.5 1h-170
v31h43q29 0 42.5 9t13.5 35v571q0 29 -16 37.5t-40 8.5h-43v31h563zM581 233q0 46 -16.5 80.5t-45 58t-66 35.5t-78.5 12q-13 0 -28.5 -1.5t-30.5 -4t-28.5 -6t-22.5 -7.5v-348q30 -14 61 -18.5t62 -4.5q41 0 76.5 13.5t61.5 40t40.5 64.5t14.5 86z" />
    <glyph glyph-name="afii10019" unicode="&#x412;" horiz-adv-x="745" 
d="M555 554q0 49 -20 77.5t-47.5 42.5t-56 17.5t-46.5 3.5q-32 0 -65 -5.5t-55 -16.5v-259h132q7 0 32.5 2.5t53.5 16t50 41.5t22 80zM581 217q0 21 -6 49.5t-27 54.5t-62 44t-111 18h-110v-322q12 -9 28.5 -15t34.5 -10t36 -5.5t33 -1.5q23 0 55 7.5t60.5 28t48.5 57
t20 95.5zM169 646q0 26 -16 36t-40 10h-43v31h171q44 0 90.5 2.5t81.5 2.5q69 0 116.5 -12.5t77.5 -34t43 -50.5t13 -61q0 -37 -14.5 -65t-39 -48t-57 -33.5t-69.5 -20.5v-4q33 -5 70.5 -16.5t68.5 -33t51.5 -54t20.5 -78.5q0 -52 -19.5 -93.5t-54.5 -70t-83.5 -43.5
t-105.5 -15q-33 0 -60.5 1t-53 1.5t-49.5 1.5t-50 1h-148v33h43q35 0 45.5 10t10.5 36v567z" />
    <glyph glyph-name="afii10020" unicode="&#x413;" horiz-adv-x="592" 
d="M576 723l7 -162h-35l-15 65q-8 14 -29.5 25.5t-52.5 20t-68 13.5t-76 5q-22 0 -32 -9t-10 -33v-571q0 -29 12.5 -37.5t42.5 -8.5h50v-31h-300v31h43q32 0 44 9t12 37v569q0 25 -11.5 35.5t-44.5 10.5h-43v31h506z" />
    <glyph glyph-name="afii10021" unicode="&#x414;" horiz-adv-x="756" 
d="M697 -163l-4 50q-2 25 -21.5 45.5t-48.5 35.5t-63.5 23.5t-66.5 8.5h-219q-38 0 -73 -9t-62.5 -25t-44.5 -38.5t-20 -48.5l-4 -42h-35l12 181l33 5q20 5 39.5 27.5t42.5 75.5q19 43 37 103.5t38 132.5q10 39 19 79t15.5 75t10 62.5t3.5 41.5q0 33 -17.5 52.5t-47.5 19.5
h-34v31h529v-31h-47q-23 0 -33.5 -8.5t-10.5 -35.5v-573q0 -27 11 -36.5t32 -9.5h56l9 -192h-35zM529 644q0 21 -8.5 33.5t-37.5 12.5h-85q-30 0 -42 -16.5t-18 -41.5q-6 -23 -11.5 -48t-10.5 -48q-8 -35 -15.5 -68.5t-18.5 -75.5q-9 -33 -17.5 -67t-17 -64.5t-15.5 -56
t-12 -42.5q-8 -26 -17 -57t-9 -48q0 -18 11 -21t25 -3h254q24 0 34 11t10 44z" />
    <glyph glyph-name="afii10022" unicode="&#x415;" horiz-adv-x="680" 
d="M634 723l7 -162h-35l-15 65q-8 14 -29.5 25.5t-52.5 20t-68 13.5t-76 5q-31 0 -50.5 -2t-30.5 -7t-15 -14.5t-4 -24.5v-246h48q68 0 105 6t54 15t20 19t3 19v26h31v-200h-31v27q0 9 -3 19t-20 18.5t-54 14.5t-105 6h-48v-286q0 -31 16 -38.5t39 -7.5q68 0 121.5 4
t96.5 21q40 15 62.5 32.5t32.5 42.5l6 31h35l-33 -165h-571v33h43q35 0 45.5 10t10.5 36v567q0 31 -15.5 38.5t-40.5 7.5h-43v31h564z" />
    <glyph glyph-name="afii10024" unicode="&#x416;" horiz-adv-x="1071" 
d="M1061 75q-5 -39 -24 -64t-60 -25q-35 0 -61.5 18.5t-46.5 47t-36 62.5t-31 65q-12 25 -23 49.5t-23 48.5q-29 56 -53.5 78.5t-61.5 22.5h-51v-301q0 -26 10.5 -36t45.5 -10h43v-31h-294v31h44q33 0 44 10t11 36v301h-51q-18 0 -33 -5t-28.5 -17t-26.5 -31.5t-27 -47.5
q-12 -24 -23.5 -48t-22.5 -50q-13 -30 -29 -63.5t-37 -62.5t-48 -48t-61 -19q-41 0 -60 25t-24 64h28q1 -6 3 -13.5t6 -14.5t9.5 -12t13.5 -5q13 0 20 10t12 22q7 15 12 30t11 31q40 103 103 179q31 38 69.5 59.5t92.5 35.5q-43 10 -73.5 38t-51.5 60t-32.5 62t-16.5 46
q-8 23 -18 46.5t-26 40.5q-8 8 -12 9t-6 1q-5 0 -5 -9q0 -4 1.5 -11.5t1.5 -14.5q0 -18 -12 -32.5t-38 -14.5q-27 0 -40.5 17.5t-13.5 37.5q0 24 17.5 45t56.5 21q44 0 71.5 -29t56.5 -83q14 -26 27.5 -52.5t27.5 -54.5q21 -41 39.5 -63t34.5 -32.5t29 -12.5t22 -2h51v236
q0 26 -11 36t-44 10h-44v31h294v-31h-43q-35 0 -45.5 -9.5t-10.5 -36.5v-236h51q9 0 22 2t29 12.5t34.5 32.5t39.5 63q14 28 27.5 54.5t27.5 52.5q29 54 56.5 83t71.5 29q39 0 56.5 -21t17.5 -45q0 -20 -13.5 -37.5t-40.5 -17.5q-26 0 -38 14.5t-12 32.5q0 7 1.5 14.5
t1.5 11.5q0 9 -5 9q-2 0 -6 -1t-12 -9q-16 -17 -26 -40.5t-18 -46.5q-5 -16 -16.5 -46t-32.5 -62t-51.5 -60t-73.5 -38q54 -14 92.5 -35.5t69.5 -59.5q63 -76 103 -179q6 -16 11 -31t12 -30q5 -12 12 -22t20 -10q8 0 13.5 5t9.5 12t6 14.5t3 13.5h28v0z" />
    <glyph glyph-name="afii10025" unicode="&#x417;" horiz-adv-x="686" 
d="M169 723v-29q56 27 109 36t88 9q70 0 118.5 -15.5t78.5 -40.5t43.5 -56t13.5 -62q0 -32 -12.5 -59t-35 -48.5t-53.5 -35.5t-67 -20v-4q40 -7 74 -23t58.5 -40.5t38 -56.5t13.5 -70q0 -47 -22.5 -87.5t-62.5 -70.5t-95 -47t-120 -17t-110 10t-74.5 25t-46 33.5t-24.5 35.5
t-9.5 30.5t-1.5 19.5q0 32 18.5 48t43.5 16q31 0 44 -16.5t13 -41.5q0 -11 -3 -19t-6.5 -14.5t-6.5 -12.5t-3 -13q0 -26 42 -47t119 -21q39 0 74 13.5t61 38.5t41 61t15 82q0 80 -51 123t-136 43q-20 0 -45.5 -4t-42.5 -8v51q21 -4 41 -6t48 -2q92 0 134.5 42.5t42.5 111.5
q0 72 -40.5 106.5t-107.5 34.5q-31 0 -61 -7t-56 -22t-47 -37.5t-35 -53.5l-9 -45h-35l13 182h34z" />
    <glyph glyph-name="afii10026" unicode="&#x418;" horiz-adv-x="881" 
d="M537 0v31h44q32 0 43.5 9.5t11.5 36.5v521l-371 -523q0 -25 9 -34.5t45 -9.5h45v-31h-294v31h43q37 0 46.5 10.5t9.5 35.5v571q0 22 -10 33t-46 11h-43v31h294v-31h-45q-18 0 -29 -2t-16.5 -7t-7 -13.5t-1.5 -21.5v-520l371 520q0 25 -11.5 34.5t-43.5 9.5h-44v31h294
v-31h-43q-32 0 -44 -9t-12 -35v-571q0 -27 11 -36.5t45 -9.5h43v-31h-294z" />
    <glyph glyph-name="afii10027" unicode="&#x419;" horiz-adv-x="881" 
d="M537 0v31h44q32 0 43.5 9.5t11.5 36.5v521l-371 -523q0 -25 9 -34.5t45 -9.5h45v-31h-294v31h43q37 0 46.5 10.5t9.5 35.5v571q0 22 -10 33t-46 11h-43v31h294v-31h-45q-18 0 -29 -2t-16.5 -7t-7 -13.5t-1.5 -21.5v-520l371 520q0 25 -11.5 34.5t-43.5 9.5h-44v31h294
v-31h-43q-32 0 -44 -9t-12 -35v-571q0 -27 11 -36.5t45 -9.5h43v-31h-294zM629 884q0 -17 -10 -36.5t-32 -36.5t-56 -28.5t-82 -11.5t-82.5 11.5t-56 28.5t-31.5 36.5t-10 36.5q0 26 16.5 38.5t32.5 12.5q17 0 32 -8.5t15 -33.5q0 -9 -3.5 -16t-7.5 -14t-7.5 -13.5
t-3.5 -14.5q0 -5 4.5 -11.5t16 -13.5t32 -11.5t53.5 -4.5t53.5 4.5t32 11.5t16 13.5t4.5 11.5q0 8 -3.5 14.5t-7.5 13.5t-7.5 14t-3.5 16q0 25 15 33.5t32 8.5q16 0 32.5 -12.5t16.5 -38.5z" />
    <glyph glyph-name="afii10028" unicode="&#x41a;" horiz-adv-x="797" 
d="M788 75q-5 -39 -24 -64t-60 -25q-34 0 -59.5 16t-45 41.5t-34.5 56.5t-28 60l-8 19q-11 25 -22.5 49.5t-23.5 48.5q-29 56 -53.5 78.5t-61.5 22.5h-103v-301q0 -26 11 -36t43 -10h45v-31h-294v31h43q34 0 45 10t11 36v569q0 28 -12.5 37t-43.5 9h-43v31h294v-31h-45
q-33 0 -43.5 -11.5t-10.5 -34.5v-236h103q9 0 22 2t29 12.5t34.5 32.5t39.5 63q14 28 27.5 54.5t27.5 52.5q29 54 56.5 83t71.5 29q39 0 56.5 -21t17.5 -45q0 -21 -12.5 -38t-41.5 -17q-26 0 -38 14.5t-12 32.5q0 7 1.5 14.5t1.5 11.5q0 9 -5 9q-2 0 -6 -1t-12 -9
q-16 -17 -26 -40.5t-18 -46.5q-5 -16 -16.5 -46.5t-32 -62.5t-51.5 -59.5t-74 -36.5v-4q32 -6 55.5 -14.5t42.5 -19.5t34 -25.5t30 -32.5q32 -38 53 -79.5t47 -102.5q6 -15 12.5 -31t13.5 -29t15 -21.5t17 -8.5q8 0 13.5 5t9.5 12t6 14.5t3 13.5h28v0z" />
    <glyph glyph-name="afii10029" unicode="&#x41b;" horiz-adv-x="794" 
d="M451 0v31h44q30 0 42.5 11.5t12.5 34.5v571q0 30 -13.5 36t-43.5 6h-44q-28 0 -46 -4.5t-28.5 -12.5t-15.5 -20.5t-8 -28.5q-5 -29 -10 -57t-10 -63q-5 -33 -9.5 -61t-9 -54t-9.5 -53.5t-11 -59.5l-4 -21q-3 -16 -9.5 -45t-16.5 -62t-23.5 -64t-29.5 -52
q-19 -23 -42 -34.5t-60 -11.5q-43 0 -68 25.5t-25 58.5q0 10 2.5 21.5t9 21t17.5 15.5t28 6q29 0 43 -15.5t14 -38.5q0 -8 -3 -18.5t-3 -15.5t4.5 -11t15.5 -6q22 0 38.5 21.5t29.5 54.5t22.5 73t17.5 78q12 56 20.5 107.5t16.5 108.5q5 35 9 77t4 71q0 11 -3 23.5
t-9.5 23.5t-18 18t-28.5 7h-50v31h554v-31h-46q-27 0 -40 -9t-13 -35v-571q0 -24 9 -35t44 -11h46v-31h-294z" />
    <glyph glyph-name="afii10030" unicode="&#x41c;" horiz-adv-x="1021" 
d="M678 0v31h43q32 0 44 9t12 37v571l-271 -523h-28l-275 527v-406q0 -56 4 -93.5t9.5 -61.5t12.5 -38t13 -22h49v-31h-221v31h51q4 7 11 22t14 45t12 78.5t5 122.5v352q0 24 -9 32.5t-24 8.5h-60v31h197l256 -493l259 493h189v-31h-43q-12 0 -22 -0.5t-17.5 -5t-11.5 -13.5
t-4 -25v-571q0 -26 9.5 -36t44.5 -10h45v-31h-294z" />
    <glyph glyph-name="afii10031" unicode="&#x41d;" horiz-adv-x="878" 
d="M534 0v31h43q32 0 44 9t12 37v283h-368v-283q0 -29 12 -37.5t42 -8.5h45v-31h-294v31h43q32 0 44 9t12 37v569q0 26 -12 36t-44 10h-43v31h294v-31h-45q-30 0 -42 -8.5t-12 -37.5v-257h368v257q0 28 -12 37t-44 9h-43v31h294v-31h-45q-30 0 -42 -8.5t-12 -37.5v-569
q0 -29 12 -37.5t42 -8.5h45v-31h-294z" />
    <glyph glyph-name="afii10032" unicode="&#x41e;" horiz-adv-x="883" 
d="M826 363q0 -37 -8.5 -79.5t-26.5 -84.5t-47.5 -80.5t-71.5 -68t-97.5 -47t-125.5 -17.5q-71 0 -126.5 17.5t-97 47t-71 68t-47.5 80.5t-26.5 84.5t-8.5 79.5q0 60 21 126t66.5 121.5t117 92t172.5 36.5q102 0 173.5 -34.5t117 -89t66 -121.5t20.5 -131zM712 363
q0 75 -17 138t-50.5 108.5t-82.5 71t-113 25.5t-113 -24t-82.5 -68t-50.5 -108t-17 -143q0 -68 16.5 -130t49 -109.5t82 -76t115.5 -28.5t115.5 28.5t82.5 76t49 109.5t16 130z" />
    <glyph glyph-name="afii10033" unicode="&#x41f;" horiz-adv-x="837" 
d="M493 0v31h44q33 0 44 11t11 35v567q0 29 -12 37.5t-43 8.5h-217q-29 0 -42 -8t-13 -38v-567q0 -24 10 -35t44 -11h45v-31h-294v31h43q33 0 44.5 11t11.5 35v569q0 25 -9.5 35.5t-46.5 10.5h-43v31h717v-31h-44q-28 0 -41.5 -7.5t-13.5 -36.5v-571q0 -24 11.5 -35
t43.5 -11h44v-31h-294z" />
    <glyph glyph-name="afii10034" unicode="&#x420;" horiz-adv-x="696" 
d="M659 517q0 -45 -19 -87.5t-55.5 -74.5t-89.5 -51.5t-121 -19.5q-27 0 -54 3t-55 8v-218q0 -27 10.5 -36.5t43.5 -9.5h45v-31h-294v31h43q34 0 45 10t11 36v569q0 27 -11.5 36.5t-44.5 9.5h-43v31h111q26 0 56 1.5t57.5 4t51.5 4t38 1.5q79 0 131.5 -19.5t84.5 -50.5
t45.5 -70t13.5 -77zM547 517q0 94 -46 139.5t-133 45.5q-55 0 -103 -24v-353q29 -5 53 -6.5t47 -1.5q81 0 131.5 49.5t50.5 150.5z" />
    <glyph glyph-name="afii10035" unicode="&#x421;" horiz-adv-x="772" 
d="M734 194q-27 -58 -63 -97.5t-76.5 -64t-84 -35.5t-86.5 -11q-86 0 -152 27.5t-110.5 76.5t-67.5 117t-23 148q0 63 20.5 130.5t66 124t117.5 93t174 36.5q22 0 44 -2.5t46 -8t51.5 -14.5t60.5 -21l-1 30h33l13 -193h-34l-2 46q-13 27 -34 50.5t-50 41t-66 28t-82 10.5
q-66 0 -112 -27.5t-75 -75t-42.5 -110t-13.5 -132.5q0 -93 21.5 -157.5t58 -104.5t84 -58t100.5 -18q45 0 84.5 15.5t72.5 41.5t58.5 59t43.5 68l26 -13v0z" />
    <glyph glyph-name="afii10036" unicode="&#x422;" horiz-adv-x="672" 
d="M644 723l9 -162h-35l-9 45q-23 44 -65 64t-110 20q-32 0 -40 -8t-8 -18v-587q0 -25 9.5 -35.5t46.5 -10.5h43v-31h-294v31h44q35 0 45 10t10 36v587q0 10 -8 18t-40 8q-68 0 -110 -20t-65 -64l-9 -45h-35l9 162h612z" />
    <glyph glyph-name="afii10037" unicode="&#x423;" horiz-adv-x="793" 
d="M731 694q-19 -8 -33 -21.5t-28 -39.5q-12 -22 -21.5 -40t-20 -39t-23 -47.5t-30.5 -64.5q-14 -29 -26.5 -55t-24.5 -50t-23.5 -48.5t-24.5 -50.5q-25 -51 -48.5 -95.5t-57.5 -89.5q-23 -29 -55.5 -48t-75.5 -19q-19 0 -41 5.5t-41 16.5t-31.5 29t-12.5 44q0 30 16.5 45
t42.5 15q22 0 38.5 -13t16.5 -40q0 -18 -3.5 -25t-3.5 -15q0 -13 12 -20.5t26 -7.5q12 0 26.5 4t31.5 18t37 40.5t43 71.5l-258 488q-10 19 -20.5 29.5t-21 15.5t-20.5 6t-19 1h-21v29h276v-29h-44q-17 0 -23.5 -5t-6.5 -12q0 -11 5 -19l206 -397l74 151q50 101 74.5 168.5
t24.5 88.5q0 9 -3.5 14.5t-8.5 7.5t-10 2.5t-9 0.5h-55v29h227v-29h-32z" />
    <glyph glyph-name="afii10038" unicode="&#x424;" horiz-adv-x="990" 
d="M949 358q0 -45 -14.5 -91.5t-51 -85t-98 -63t-154.5 -24.5q-21 0 -38 1t-37 3v-19q0 -15 1.5 -24t7.5 -14.5t17 -7.5t30 -2h43v-31h-294v31h43q36 0 46 11t10 37v19q-20 -2 -37 -3t-38 -1q-93 0 -154.5 24.5t-98 63t-51 85t-14.5 91.5q0 48 15 96t51 86.5t96 63t150 24.5
q17 0 39 -1t42 -4v25q0 26 -10.5 35t-45.5 9h-43v31h294v-31h-43q-33 0 -44.5 -10.5t-11.5 -33.5v-25q20 3 42 4t39 1q90 0 150 -24.5t96 -63t51 -86.5t15 -96zM842 360q0 121 -55.5 179.5t-183.5 58.5q-15 0 -24.5 -0.5t-22.5 -2.5v-469q11 -2 20.5 -2.5t22.5 -0.5
q47 0 91 11.5t77.5 38.5t54 72.5t20.5 114.5zM460 595q-13 2 -22.5 2.5t-24.5 0.5q-128 0 -183.5 -58.5t-55.5 -179.5q0 -69 20 -114.5t54 -72.5t78 -38.5t91 -11.5q13 0 22.5 0.5t20.5 2.5v469z" />
    <glyph glyph-name="afii10039" unicode="&#x425;" horiz-adv-x="815" 
d="M488 0v31h48q11 0 23 3t12 15q0 5 -4.5 12.5t-9.5 15.5l-164 240q-87 -114 -133 -178.5t-46 -87.5q0 -14 9.5 -17t14.5 -3h57v-31h-246v31h43q7 4 23 15.5t48 44t83.5 92.5t128.5 162l-174 262q-17 25 -29.5 41t-26.5 26t-31 14t-42 4v31h288v-31h-64q-8 0 -15 -2t-7 -13
q0 -8 5 -16.5t12 -18.5l145 -217q8 10 27 36t40.5 57t41.5 61t31 47q13 20 16 30.5t3 17.5q0 14 -10 16t-28 2h-49v31h258v-31h-43q-26 -12 -47 -29t-40 -37t-37 -43.5t-39 -48.5q-30 -38 -56.5 -72t-48.5 -64l172 -257q10 -14 22 -33t28.5 -36t38 -29t50.5 -12h19v-31h-297
z" />
    <glyph glyph-name="afii10040" unicode="&#x426;" horiz-adv-x="818" 
d="M789 -160v32q0 21 -16 44t-46 41.5t-72.5 30.5t-94.5 12h-490v31h43q30 0 43 11t13 35v569q0 22 -10.5 34t-45.5 12h-43v31h294v-31h-45q-32 0 -43 -10t-11 -36v-567q0 -25 9.5 -35.5t45.5 -10.5h217q37 0 46 13t9 33v567q0 27 -12 36.5t-43 9.5h-44v31h294v-31h-44
q-33 0 -44 -10t-11 -36v-571q0 -16 4.5 -27.5t18.5 -19.5t41 -12t71 -4v-172h-34z" />
    <glyph glyph-name="afii10041" unicode="&#x427;" horiz-adv-x="770" 
d="M421 0v31h49q35 0 45 12t10 34v267q-32 -18 -60 -32t-54.5 -23.5t-54.5 -14t-60 -4.5q-53 0 -85 17t-49 40.5t-22.5 49.5t-5.5 44v225q0 28 -10.5 37t-45.5 9h-43v31h287v-31h-37q-34 0 -44.5 -10.5t-10.5 -35.5v-229q0 -18 4 -36.5t16 -32.5t33.5 -23t55.5 -9
q54 0 96 14.5t90 44.5v271q0 26 -11.5 36t-43.5 10h-37v31h287v-31h-44q-34 0 -44.5 -10t-10.5 -36v-569q0 -23 9.5 -34.5t45.5 -11.5h44v-31h-299z" />
    <glyph glyph-name="afii10042" unicode="&#x428;" horiz-adv-x="1182" 
d="M70 0v31h43q32 0 44 10t12 38v567q0 29 -12 37.5t-44 8.5h-43v31h287v-31h-37q-35 0 -45 -10t-10 -36v-567q0 -26 13.5 -36t41.5 -10h177q33 0 44.5 10.5t11.5 35.5v567q0 26 -12.5 36t-42.5 10h-37v31h280v-31h-36q-33 0 -44.5 -10t-11.5 -36v-567q0 -26 10 -36t46 -10
h178q32 0 43 13t11 33v567q0 46 -55 46h-37v31h287v-31h-43q-32 0 -44 -11t-12 -35v-569q0 -29 11 -37.5t45 -8.5h43v-31h-1062z" />
    <glyph glyph-name="afii10043" unicode="&#x429;" horiz-adv-x="1148" 
d="M1033 75q0 -17 2 -29t13.5 -19.5t36 -11t68.5 -3.5v-172h-34v32q0 21 -16 44t-45.5 41.5t-72 30.5t-94.5 12h-821v31h43q32 0 44 10t12 38v567q0 29 -12 37.5t-44 8.5h-43v31h287v-31h-37q-35 0 -45 -10t-10 -36v-567q0 -26 13.5 -36t41.5 -10h177q33 0 44.5 10.5
t11.5 35.5v567q0 26 -12.5 36t-42.5 10h-37v31h280v-31h-36q-33 0 -44.5 -10t-11.5 -36v-567q0 -26 10 -36t46 -10h178q31 0 42.5 10.5t11.5 35.5v567q0 46 -55 46h-37v31h287v-31h-43q-32 0 -44 -11t-12 -35v-571v0z" />
    <glyph glyph-name="afii10044" unicode="&#x42a;" horiz-adv-x="858" 
d="M301 664q0 10 -11 18t-43 8q-71 0 -117 -20t-69 -64l-9 -45h-35l9 162h470v-31h-45q-31 0 -42.5 -11t-11.5 -35v-214q23 8 53.5 15.5t68.5 7.5q88 0 145.5 -19t91.5 -50.5t48 -71t14 -81.5q0 -40 -14.5 -82t-48.5 -76.5t-90.5 -57t-140.5 -22.5q-16 0 -36 1t-40 1.5
t-39.5 1.5t-33.5 1h-173v31h43q32 0 44 9.5t12 36.5v587zM713 233q0 46 -16.5 80.5t-45 58t-66 35.5t-78.5 12q-13 0 -28.5 -1.5t-30.5 -4t-28.5 -6t-22.5 -7.5v-348q30 -14 61 -18.5t62 -4.5q41 0 76.5 13.5t61.5 40t40.5 64.5t14.5 86z" />
    <glyph glyph-name="afii10045" unicode="&#x42b;" horiz-adv-x="1050" 
d="M706 0v31h44q28 0 41.5 8.5t13.5 37.5v569q0 24 -11.5 35t-43.5 11h-44v31h294v-31h-44q-19 0 -30 -3t-16.5 -8.5t-7 -14t-1.5 -20.5v-569q0 -26 10 -36t45 -10h44v-31h-294zM265 432q11 4 27.5 8t36 7.5t40 5.5t39.5 2q81 0 134.5 -19t85.5 -50.5t45 -71t13 -81.5
q0 -40 -14.5 -82t-48.5 -76.5t-90.5 -57t-140.5 -22.5q-16 0 -36 1t-40 1.5t-39.5 1.5t-33.5 1h-173v31h43q29 0 42.5 10t13.5 36v569q0 25 -12 35.5t-44 10.5h-43v31h294v-31h-45q-32 0 -43 -11t-11 -35v-214zM581 229q0 98 -56 144t-150 46q-13 0 -28.5 -1.5t-30.5 -4
t-28.5 -6t-22.5 -7.5v-348q30 -14 61 -18.5t62 -4.5q41 0 76.5 13t61.5 38.5t40.5 63t14.5 85.5z" />
    <glyph glyph-name="afii10046" unicode="&#x42c;" horiz-adv-x="729" 
d="M265 432q11 4 27.5 8t36 7.5t40 5.5t39.5 2q81 0 134.5 -19t85.5 -50.5t45 -71t13 -81.5q0 -40 -14.5 -82t-48.5 -76.5t-90.5 -57t-140.5 -22.5q-16 0 -36 1t-40 1.5t-39.5 1.5t-33.5 1h-173v31h43q29 0 42.5 10t13.5 36v569q0 25 -12 35.5t-44 10.5h-43v31h294v-31h-45
q-32 0 -43 -11t-11 -35v-214zM581 229q0 98 -56 144t-150 46q-13 0 -28.5 -1.5t-30.5 -4t-28.5 -6t-22.5 -7.5v-348q30 -14 61 -18.5t62 -4.5q41 0 76.5 13t61.5 38.5t40.5 63t14.5 85.5z" />
    <glyph glyph-name="afii10047" unicode="&#x42d;" horiz-adv-x="763" 
d="M709 402q0 -107 -34 -185t-89 -129.5t-123 -76.5t-135 -25q-57 0 -104.5 12.5t-81.5 33.5t-53 47.5t-19 55.5q0 39 20.5 54t43.5 15q29 0 42.5 -17.5t13.5 -36.5q0 -13 -3 -22t-6 -16.5t-6 -13.5t-3 -13q0 -15 16 -27.5t39.5 -22t50.5 -14.5t50 -5q82 0 134 34.5t81.5 86
t40.5 111.5t11 110v4h-101q-32 0 -60.5 -0.5t-59.5 -2t-65.5 -5t-78.5 -10.5v68q41 -6 75 -10t64.5 -6.5t60.5 -3.5t64 -1h101v15q0 24 -3 56t-11.5 66t-24 66.5t-40 58t-60 41t-83.5 15.5q-38 0 -73 -10t-65 -28.5t-52 -43.5t-32 -55l-2 -29h-40l15 196h39l-1 -42
q57 25 114 33.5t97 8.5q84 0 147 -27.5t105 -73.5t63 -107.5t21 -128.5z" />
    <glyph glyph-name="afii10048" unicode="&#x42e;" horiz-adv-x="1207" 
d="M1154 363q0 -37 -8.5 -79.5t-26.5 -84.5t-47.5 -80.5t-71.5 -68t-97.5 -47t-125.5 -17.5t-125.5 17.5t-97 46.5t-71 67t-48 79.5t-27 84t-8.5 79.5h-135v-283q0 -29 12 -37.5t42 -8.5h45v-31h-294v31h43q32 0 44 9t12 37v569q0 26 -12 36t-44 10h-43v31h294v-31h-45
q-30 0 -42 -8.5t-12 -37.5v-257h136q4 58 27.5 120t69 113t114.5 84t165 33q102 0 173.5 -34.5t117 -89t66 -121.5t20.5 -131zM1040 363q0 75 -17 138t-50.5 108.5t-82.5 71t-113 25.5t-113 -24t-82.5 -68t-50.5 -108t-17 -143q0 -68 16.5 -130t49 -109.5t82 -76
t115.5 -28.5t115.5 28.5t82.5 76t49 109.5t16 130z" />
    <glyph glyph-name="afii10049" unicode="&#x42f;" horiz-adv-x="762" 
d="M419 0v31h44q37 0 46 10t9 36v277q-56 -3 -97.5 -18.5t-73.5 -57.5q-19 -23 -30 -46.5t-26 -54.5l-5 -11q-18 -36 -35 -69t-37.5 -57.5t-46.5 -39t-60 -14.5q-30 0 -47.5 11.5t-25.5 27.5t-10 32t-2 25h28q0 -15 5 -32.5t22 -17.5q14 0 25.5 15t24.5 41q14 29 25.5 54
t26.5 51q12 20 30 42t43 43t57 40t73 32v4q-6 0 -12.5 -0.5t-12.5 -0.5q-47 0 -91.5 10.5t-79 33.5t-55.5 60t-21 90q0 27 10 60t38 61t78.5 47t130.5 19q25 0 53.5 -1.5t56.5 -4t54 -4t47 -1.5h135v-31h-45q-33 0 -43.5 -10.5t-10.5 -35.5v-569q0 -23 10.5 -34.5
t43.5 -11.5h45v-31h-294zM518 681q-27 12 -57 17t-60 5q-38 0 -72.5 -9t-60.5 -28t-41.5 -49.5t-15.5 -72.5q0 -81 47 -125t135 -44q20 0 38 0.5t43 2.5q13 1 24 2t20 3v298z" />
    <glyph glyph-name="afii10065" unicode="&#x430;" horiz-adv-x="509" 
d="M498 60q-14 -35 -36 -53t-58 -18q-19 0 -32.5 7.5t-21.5 19.5t-12 28t-4 34q-28 -30 -52.5 -47.5t-46.5 -26.5t-41 -12t-35 -3q-24 0 -45.5 8.5t-37 23t-24.5 33.5t-9 41q0 48 24.5 79t63.5 51.5t87.5 33.5t96.5 24l19 4v44q0 30 -5 55t-18.5 42t-36.5 26.5t-59 9.5
q-7 0 -17.5 -2t-20.5 -6t-17 -11.5t-7 -17.5q0 -9 3 -17t3 -19q0 -20 -12.5 -33.5t-36.5 -13.5q-20 0 -30.5 14.5t-10.5 36.5q0 18 12 36t33 31.5t50 22t64 8.5q36 0 69.5 -7t59.5 -25.5t41.5 -50t15.5 -79.5v-261q0 -11 3.5 -26t16.5 -15q12 0 22 8t19 33zM334 263
q-40 -8 -76 -19t-63.5 -29t-44 -43.5t-16.5 -62.5q0 -38 21 -57t49 -19q19 0 38.5 8.5t36.5 20.5t31.5 26t23.5 25v150z" />
    <glyph glyph-name="afii10066" unicode="&#x431;" horiz-adv-x="544" 
d="M506 252q0 -68 -23.5 -118t-58.5 -82t-77.5 -47.5t-79.5 -15.5q-35 0 -75 14t-74.5 46t-57.5 83.5t-23 126.5q0 106 23.5 177.5t64.5 120.5q24 30 54 54t59 42.5t53.5 31t38.5 18.5q7 3 19 8t25 10t25.5 10.5t22.5 9.5q13 5 21.5 12.5t10.5 30.5h21q4 -27 0 -47
t-14.5 -36t-26.5 -29.5t-37 -26.5q-12 -8 -29.5 -15.5t-36 -15.5t-36.5 -15t-30 -13q-43 -21 -75.5 -40.5t-56 -46.5t-38.5 -66t-24 -98h11q16 54 43 85t55.5 47.5t54 21t38.5 4.5q60 0 103.5 -18.5t72.5 -51t43 -76.5t14 -95zM415 252q0 78 -17.5 120.5t-41 63t-47.5 24.5
t-36 4q-44 0 -72 -23t-44 -57t-21.5 -73t-5.5 -71q0 -10 0.5 -30.5t5 -45t13 -50.5t24.5 -47.5t40 -35t60 -13.5q52 0 80.5 28t42 66.5t16.5 77.5t3 62z" />
    <glyph glyph-name="afii10067" unicode="&#x432;" horiz-adv-x="539" 
d="M337 259q31 -2 57.5 -10t46.5 -23t31.5 -37.5t11.5 -53.5q0 -27 -12 -51t-34.5 -43t-56 -30t-75.5 -11h-275v23h40q25 0 32 5t7 30v365q0 20 -7 27.5t-32 7.5h-40v23h260q48 0 81 -7.5t54 -21.5t30.5 -33.5t9.5 -42.5q0 -29 -14 -49.5t-34.5 -34t-42.5 -21t-38 -8.5v-4z
M380 372q0 29 -13.5 45t-32.5 24t-38.5 9.5t-31.5 1.5q-35 0 -54.5 -8.5t-19.5 -28.5v-144h81q57 0 83 24.5t26 76.5zM393 138q0 39 -14 61t-33.5 32.5t-41 13t-37.5 2.5h-77v-184q0 -24 15.5 -29t43.5 -5q16 0 40.5 1.5t47.5 12t39.5 32.5t16.5 63z" />
    <glyph glyph-name="afii10068" unicode="&#x433;" horiz-adv-x="443" 
d="M224 452q-11 0 -22.5 -4t-11.5 -25v-365q0 -20 8 -27.5t31 -7.5h40v-23h-238v23h41q24 0 31 7.5t7 27.5v365q0 21 -7 28t-31 7h-41v23h384l6 -127h-28l-13 48q-12 16 -31 26t-40.5 15.5t-43.5 7t-41 1.5z" />
    <glyph glyph-name="afii10069" unicode="&#x434;" horiz-adv-x="569" 
d="M505 -128v29q0 22 -13 40.5t-34 31.5t-48.5 20t-56.5 7h-140q-39 0 -69.5 -7.5t-52.5 -21t-33.5 -31t-11.5 -36.5v-31h-32v153h32q26 0 42.5 24t36.5 75q17 42 30 83.5t21.5 78t13 66t4.5 46.5q0 9 -1.5 19t-6 18.5t-14.5 14.5t-26 6h-29v24h414v-24h-40q-24 0 -31.5 -7
t-7.5 -27v-363q0 -17 8 -25.5t30 -8.5h47v-154h-32zM372 428q0 15 -10.5 21t-28.5 6h-35q-13 0 -23 -2t-18 -10t-14.5 -23t-12.5 -41q-5 -23 -10 -42.5t-9.5 -37.5t-9.5 -36t-11 -38q-7 -25 -13 -46.5t-14 -42.5q-5 -20 -13 -41t-8 -41q0 -17 17 -22.5t38 -5.5h142
q16 0 24.5 3.5t8.5 24.5v374z" />
    <glyph glyph-name="afii10070" unicode="&#x435;" horiz-adv-x="477" 
d="M128 272q0 -80 14.5 -128.5t36 -74.5t48 -34.5t50.5 -8.5q41 0 79.5 25.5t64.5 71.5l22 -11q-28 -53 -75.5 -88t-118.5 -35q-34 0 -71 12t-68.5 40.5t-52 76.5t-20.5 120q0 58 15 105t43.5 80.5t69 51.5t91.5 18q49 0 84.5 -19t59 -49t34.5 -68t11 -77v-8h-317zM358 302
q0 32 -6.5 61t-19.5 51.5t-34 36t-49 13.5q-53 0 -84 -38t-37 -124h230z" />
    <glyph glyph-name="afii10072" unicode="&#x436;" horiz-adv-x="814" 
d="M527 481v-24h-42q-24 0 -30.5 -7t-6.5 -28v-151h45q17 0 34 9t32 37t25.5 58.5t26.5 59.5q5 9 12 19.5t17 19t24.5 14t35.5 5.5q28 0 42 -15.5t14 -34.5q0 -20 -10.5 -31.5t-31.5 -11.5q-20 0 -30.5 12t-10.5 29q0 5 1 9t1 8q-1 1 -1.5 2.5t-3.5 1.5q-8 0 -13 -10.5
t-7 -15.5q-5 -12 -8.5 -24.5t-8.5 -26.5q-18 -53 -43 -84.5t-67 -43.5q40 -11 67 -28t45 -38t30 -43t21 -42l24 -51q13 -26 27 -26q21 0 25 45h22q0 -24 -6 -40.5t-16 -26.5t-22.5 -14t-25.5 -4q-23 0 -41 10.5t-33 27t-27.5 38t-22.5 42.5q-8 18 -15 35.5t-15 34.5
q-6 13 -12 25t-15.5 21.5t-23.5 15.5t-34 7l-27 1v-188q0 -25 6.5 -30t30.5 -5h42v-24h-238v24h42q24 0 30.5 5t6.5 30v188l-27 -1q-20 -1 -34 -7t-23.5 -15.5t-15.5 -21.5t-12 -25q-8 -17 -15 -34.5t-15 -35.5q-10 -21 -22.5 -42.5t-27.5 -38t-33.5 -27t-40.5 -10.5
q-13 0 -25.5 4t-22.5 14t-16 26.5t-6 40.5h22q4 -45 25 -45q14 0 27 26l24 51q9 20 21 42t30 43t45 38t67 28q-42 12 -67 43.5t-43 84.5q-5 14 -8.5 26.5t-8.5 24.5q-2 5 -7 15.5t-13 10.5q-3 0 -3.5 -1.5t-1.5 -2.5q0 -4 1 -8t1 -9q0 -17 -10.5 -29t-30.5 -12
q-21 0 -31.5 11.5t-10.5 31.5q0 19 14 34.5t42 15.5q21 0 35.5 -5.5t24.5 -14t17 -19t12 -19.5q16 -29 26.5 -59.5t25.5 -58.5t32 -37t34 -9h45v151q0 21 -6.5 28t-30.5 7h-42v24h238z" />
    <glyph glyph-name="afii10073" unicode="&#x437;" horiz-adv-x="471" 
d="M413 376q0 -27 -10 -46.5t-27 -32.5t-39 -20.5t-46 -10.5v-4q23 -4 47.5 -11t44 -20.5t32 -35t12.5 -54.5q0 -35 -12.5 -59.5t-31.5 -41.5t-42.5 -27t-45.5 -15.5t-40.5 -7t-26.5 -1.5q-52 0 -88.5 8.5t-59.5 23t-33.5 32.5t-10.5 37q0 54 47 54q26 0 36.5 -14t10.5 -34
q0 -11 -4.5 -21t-4.5 -21q0 -14 21.5 -25t71.5 -11q34 0 57.5 11t38 29t21 40.5t6.5 45.5q0 34 -10.5 54.5t-27 32t-36.5 15t-40 3.5q-5 0 -13 -0.5t-16.5 -1.5t-16 -2.5t-11.5 -2.5v38q11 -2 29 -3.5t38 -1.5q30 0 48 10t27.5 25t12.5 32t3 30q0 28 -8.5 46t-21.5 28
t-29.5 14t-31.5 4q-28 0 -51.5 -9.5t-41 -24.5t-28.5 -32.5t-14 -33.5v-14h-28l5 131h26l1 -19q30 14 64.5 22.5t66.5 8.5q90 0 135 -33.5t45 -83.5z" />
    <glyph glyph-name="afii10074" unicode="&#x438;" horiz-adv-x="602" 
d="M347 0v24h27q24 0 31.5 7.5t7.5 27.5v311l-223 -292v-19q0 -17 6.5 -26t31.5 -9h28v-24h-225v24h40q23 0 31 7.5t8 27.5v363q0 20 -7 27.5t-32 7.5h-40v24h225v-24h-28q-25 0 -31.5 -8t-6.5 -27v-305l223 292v13q0 19 -6.5 27t-31.5 8h-28v24h225v-24h-40q-25 0 -32 -7.5
t-7 -27.5v-363q0 -19 7 -27t31 -8h41v-24h-225z" />
    <glyph glyph-name="afii10075" unicode="&#x439;" horiz-adv-x="602" 
d="M347 0v24h27q24 0 31.5 7.5t7.5 27.5v311l-223 -292v-19q0 -17 6.5 -26t31.5 -9h28v-24h-225v24h40q23 0 31 7.5t8 27.5v363q0 20 -7 27.5t-32 7.5h-40v24h225v-24h-28q-25 0 -31.5 -8t-6.5 -27v-305l223 292v13q0 19 -6.5 27t-31.5 8h-28v24h225v-24h-40q-25 0 -32 -7.5
t-7 -27.5v-363q0 -19 7 -27t31 -8h41v-24h-225zM449 677q0 -20 -10 -41.5t-29.5 -39t-48.5 -28.5t-67 -11t-67 11t-48.5 28.5t-29.5 39t-10 41.5q0 26 15 39t36 13q19 0 30 -11.5t11 -28.5q0 -21 -17 -41q-4 -5 -6 -9t-2 -10q0 -20 22.5 -33.5t65.5 -13.5t65.5 13.5
t22.5 33.5q0 6 -2 10t-6 9q-6 8 -11.5 17.5t-5.5 23.5q0 17 11 28.5t30 11.5q21 0 36 -13t15 -39z" />
    <glyph glyph-name="afii10076" unicode="&#x43a;" horiz-adv-x="563" 
d="M540 74q0 -23 -6.5 -39.5t-16.5 -26.5t-22.5 -14.5t-24.5 -4.5q-45 0 -73.5 30.5t-51.5 87.5l-29 70q-5 12 -12 24.5t-17 22.5t-24 16.5t-33 6.5h-40v-188q0 -17 7 -26t32 -9h40v-24h-238v24h40q25 0 32 8t7 27v363q0 25 -7 30t-32 5h-40v24h238v-24h-40q-25 0 -32 -5
t-7 -30v-151h57q18 0 34.5 9t31.5 37q16 28 28 60t27 58q11 20 32 39t55 19q27 0 42 -14t15 -34q0 -17 -11 -31t-31 -14q-21 0 -31.5 10t-10.5 21q0 6 1.5 14t1.5 13q0 8 -7 8q-6 0 -10 -10l-8 -20q-5 -12 -8.5 -24.5t-8.5 -26.5q-18 -51 -43.5 -82t-67.5 -42v-4
q40 -9 67.5 -26t46.5 -38.5t30.5 -44.5t19.5 -42q6 -14 11.5 -27.5t11 -24.5t12 -18t14.5 -7q23 0 27 45h22v0z" />
    <glyph glyph-name="afii10077" unicode="&#x43b;" horiz-adv-x="575" 
d="M307 0v24h40q24 0 31.5 7t7.5 27v367q0 20 -7.5 25t-19.5 5h-48q-25 0 -38.5 -16t-19.5 -46q-9 -44 -15 -81q-9 -56 -15 -101t-14 -81q-9 -40 -21 -66.5t-27 -42.5t-33 -22.5t-39 -6.5q-20 0 -34 6t-23 15.5t-13 21t-4 22.5q0 23 13 36.5t34 13.5q28 0 40 -27
q2 -6 3.5 -15.5t1.5 -17.5q0 -14 16 -14q17 0 33 29.5t27 87.5q8 41 12.5 76t6.5 68q3 39 5 63t2 48q0 23 -12 37.5t-40 14.5h-23v24h406v-24h-37q-24 0 -30.5 -7t-6.5 -27v-364q0 -19 7 -27t31 -8h41v-24h-238z" />
    </font>
</defs>
</svg>
