<svg width="300" height="60" viewBox="0 0 300 60" fill="none" xmlns="http://www.w3.org/2000/svg">
<g clip-path="url(#clip0_544_2712)">
<path d="M0 6.252L34.944 0C34.956 19.956 34.944 39.912 34.944 59.868C23.304 57.804 11.664 55.704 0 53.64V6.252ZM11.64 19.764C10.212 21.456 9.768 23.796 10.032 25.944C10.248 27.816 11.292 29.532 12.708 30.72C14.004 31.824 15.66 32.496 16.824 33.792C17.7 34.764 17.916 36.384 17.04 37.428C16.344 38.268 15.144 38.328 14.16 38.16C12.504 37.92 11.1 36.9 10.008 35.664L10.02 40.836C11.628 42.06 13.704 42.492 15.684 42.48C17.088 42.444 18.516 42.12 19.656 41.268C21.084 40.224 21.912 38.52 22.116 36.792C22.404 34.776 22.068 32.604 20.82 30.948C19.728 29.568 18.264 28.56 16.776 27.672C15.972 27.18 15.168 26.652 14.628 25.86C13.992 24.78 14.016 23.244 14.952 22.356C15.732 21.6 16.92 21.54 17.94 21.66C19.188 21.792 20.364 22.356 21.336 23.124V17.988C19.716 17.328 17.916 17.256 16.2 17.388C14.46 17.616 12.756 18.408 11.64 19.764ZM38.328 10.032C39.528 8.856 41.196 8.136 42.888 8.292C45.3 8.424 47.424 10.308 48.024 12.624C48.264 13.5 48.276 14.412 48.132 15.3C52.02 16.908 55.188 20.184 56.688 24.12C58.392 23.796 60.24 24.288 61.524 25.464C63.552 27.204 64.104 30.36 62.868 32.736C61.764 34.968 59.124 36.3 56.676 35.796C55.176 39.72 52.044 42.996 48.156 44.592C48.492 46.524 47.904 48.6 46.5 49.992C45.048 51.492 42.708 52.044 40.728 51.372C39.828 51.06 38.988 50.556 38.352 49.836V41.592C39.48 40.416 41.088 39.696 42.72 39.78C44.268 39.816 45.708 40.596 46.752 41.688C50.028 40.392 52.656 37.644 53.856 34.332C52.884 33.324 52.188 32.028 52.044 30.624C51.804 28.764 52.56 26.88 53.856 25.572C52.656 22.248 50.016 19.476 46.716 18.18C45.78 19.26 44.424 19.968 43.008 20.112C41.28 20.304 39.54 19.56 38.328 18.336V10.032ZM102.972 10.008H107.124V26.604C108.42 24.468 110.388 22.644 112.86 22.032C115.068 21.48 117.468 21.552 119.58 22.428C121.428 23.196 122.784 24.852 123.432 26.724C124.092 28.536 124.236 30.48 124.248 32.388V47.952H120.12V33.732C120.084 31.86 120.012 29.928 119.196 28.2C118.632 26.976 117.576 25.932 116.256 25.536C114.24 24.9 111.888 25.212 110.196 26.508C108.204 28.032 107.124 30.552 107.088 33.024V47.928H102.96C102.972 35.304 102.984 22.656 102.972 10.008ZM250.668 10.596C252.192 10.044 254.064 11.088 254.232 12.744C254.52 14.172 253.392 15.66 251.94 15.816C250.644 16.032 249.18 15.216 248.904 13.884C248.544 12.564 249.336 11.016 250.668 10.596ZM83.856 12.396C86.112 11.472 88.584 11.352 90.972 11.496C92.784 11.616 94.644 11.856 96.264 12.708V17.484C94.008 15.72 91.044 15.132 88.236 15.3C86.364 15.408 84.432 16.152 83.256 17.64C82.032 19.212 82.032 21.444 82.692 23.244C83.592 25.176 85.56 26.244 87.3 27.336C90.12 28.992 93.108 30.492 95.388 32.904C96.96 34.524 97.86 36.756 97.776 39.036C97.812 41.448 96.924 43.92 95.112 45.552C92.964 47.58 89.952 48.42 87.072 48.552C84.756 48.744 82.416 48.276 80.196 47.592C79.344 47.316 78.492 47.016 77.76 46.512L77.772 41.472C79.74 43.2 82.284 44.172 84.828 44.592C86.736 44.868 88.74 44.748 90.552 44.016C91.728 43.524 92.7 42.516 93.06 41.268C93.588 39.492 93.372 37.428 92.208 35.94C91.272 34.764 89.988 33.912 88.74 33.072C86.568 31.62 84.18 30.516 82.116 28.908C80.616 27.744 79.164 26.376 78.468 24.576C77.664 22.524 77.616 20.208 78.264 18.108C79.068 15.444 81.312 13.416 83.856 12.396ZM196.344 12.048H203.124C205.68 12.06 208.308 11.892 210.828 12.6C213.264 13.236 215.556 14.712 216.876 16.896C218.328 19.32 218.568 22.296 218.136 25.02C217.704 27.756 216.12 30.24 213.888 31.848C212.28 33.048 210.36 33.78 208.392 34.104C205.812 34.536 203.184 34.272 200.568 34.344V47.916H196.332C196.344 35.988 196.368 24.024 196.344 12.048ZM200.58 15.888V30.564C203.376 30.48 206.268 30.84 208.992 29.988C210.6 29.472 212.1 28.452 212.94 26.964C213.876 25.272 214.044 23.244 213.756 21.36C213.516 19.86 212.784 18.384 211.536 17.472C209.916 16.26 207.828 15.948 205.872 15.888H200.58ZM289.404 16.044C290.784 15.612 292.152 15.156 293.532 14.712C293.544 17.244 293.532 19.764 293.532 22.296H299.988V25.848H293.556V40.728C293.592 41.736 293.712 42.816 294.276 43.68C294.792 44.496 295.776 44.88 296.7 44.94C297.864 45.096 299.052 44.784 300.012 44.136V47.7C298.524 48.456 296.808 48.6 295.164 48.468C293.748 48.348 292.284 47.868 291.276 46.824C289.944 45.492 289.5 43.548 289.416 41.736V25.824H284.976V22.296H289.416C289.404 20.208 289.38 18.132 289.404 16.044ZM135.216 22.344C137.976 21.576 141 21.348 143.748 22.308C145.716 22.992 147.3 24.6 147.984 26.544C148.8 28.656 148.74 30.984 148.716 33.216V47.928H144.588V43.86C143.58 45.624 142.092 47.172 140.172 47.904C138.084 48.72 135.732 48.72 133.596 48.144C131.28 47.496 129.276 45.636 128.712 43.26C128.268 41.388 128.376 39.336 129.144 37.536C129.72 36.12 130.836 34.98 132.144 34.224C133.596 33.384 135.228 32.964 136.884 32.724C139.464 32.364 142.02 32.004 144.6 31.632C144.564 29.928 144.348 28.068 143.196 26.712C142.26 25.584 140.724 25.14 139.284 25.188C136.248 25.14 133.272 26.364 130.968 28.308V24.024C132.252 23.22 133.752 22.776 135.216 22.344ZM137.316 36.048C135.888 36.372 134.244 36.744 133.368 38.04C132.684 39.132 132.6 40.5 132.792 41.724C133.08 43.212 134.34 44.34 135.768 44.748C137.376 45.204 139.164 45.036 140.664 44.316C142.452 43.392 143.82 41.652 144.3 39.708C144.732 38.172 144.516 36.552 144.576 34.98C142.164 35.376 139.74 35.664 137.316 36.048ZM173.7 24.072C175.644 22.524 178.116 21.648 180.612 21.696C182.904 21.648 185.268 22.224 187.104 23.64C188.952 25.068 190.176 27.204 190.728 29.448C191.304 31.632 191.256 33.9 191.256 36.156C185.232 36.156 179.184 36.144 173.148 36.156C173.256 38.172 173.604 40.272 174.804 41.94C175.968 43.632 177.912 44.676 179.928 44.916C183.312 45.408 186.804 44.316 189.468 42.18C189.456 43.476 189.468 44.796 189.468 46.092C187.128 47.82 184.176 48.468 181.32 48.564C178.908 48.672 176.424 48.288 174.324 47.028C172.224 45.78 170.688 43.716 169.872 41.448C168.972 38.988 168.792 36.312 168.948 33.72C169.2 30.06 170.796 26.388 173.7 24.072ZM176.448 26.652C174.6 28.104 173.544 30.372 173.22 32.664H186.996C186.984 30.732 186.564 28.692 185.292 27.18C184.212 25.86 182.472 25.212 180.804 25.236C179.22 25.164 177.636 25.68 176.448 26.652ZM230.148 21.804C233.184 21.48 236.448 21.756 239.088 23.412C241.92 25.152 243.66 28.272 244.212 31.5C244.728 34.584 244.644 37.848 243.552 40.8C242.376 44.004 239.796 46.704 236.532 47.82C233.772 48.756 230.712 48.828 227.892 48.108C224.892 47.34 222.288 45.228 220.86 42.492C219.36 39.732 219.084 36.48 219.36 33.396C219.612 30.576 220.584 27.768 222.516 25.632C224.424 23.4 227.244 22.128 230.148 21.804ZM230.544 25.32C228.396 25.596 226.392 26.82 225.204 28.632C223.632 31.02 223.344 34.008 223.56 36.804C223.764 39.396 224.88 42.06 227.076 43.584C228.78 44.808 230.964 45.168 233.028 44.988C234.696 44.856 236.376 44.232 237.564 43.056C238.86 41.844 239.592 40.14 239.94 38.412C240.312 36.48 240.312 34.5 240.06 32.556C239.736 30.18 238.644 27.744 236.556 26.412C234.804 25.26 232.584 25.08 230.544 25.32ZM266.748 23.928C268.128 22.68 269.94 21.912 271.788 21.72C273.816 21.528 275.976 21.72 277.728 22.812C279.696 24.012 280.872 26.172 281.352 28.356C281.868 30.564 281.724 32.832 281.748 35.052V47.904H277.62V33.18C277.572 31.308 277.38 29.34 276.42 27.684C275.76 26.508 274.572 25.632 273.24 25.368C271.692 25.032 270 25.176 268.584 25.92C266.076 27.24 264.624 30.048 264.588 32.832C264.576 37.872 264.588 42.888 264.588 47.928H260.46V22.272H264.588V26.592C265.212 25.644 265.872 24.696 266.748 23.928ZM162.36 22.992C164.088 21.696 166.44 21.588 168.456 22.176V26.508C167.208 25.656 165.588 25.5 164.136 25.788C162.396 26.16 161.112 27.612 160.344 29.148C159.372 31.14 159.132 33.396 159.204 35.604V47.928H155.076V22.296H159.228V27.66C159.804 25.86 160.776 24.108 162.36 22.992ZM249.432 22.296H253.584V47.94H249.456L249.432 22.296Z" fill="#0072C6"/>
</g>
<defs>
<clipPath id="clip0_544_2712">
<rect width="300" height="59.868" fill="white"/>
</clipPath>
</defs>
</svg>
