<svg width="122" height="60" viewBox="0 0 122 60" fill="none" xmlns="http://www.w3.org/2000/svg">
<g clip-path="url(#clip0_544_2644)">
<path d="M121.333 0H0V60H61.3333" fill="url(#paint0_linear_544_2644)"/>
<path d="M59.9937 11.9992V40.2659L49.5937 11.9992H39.1937L30.3937 35.4659C29.3271 29.5992 23.1937 27.4659 18.3937 25.8659C15.1937 24.7992 11.7271 23.4659 11.7271 21.5992C11.7271 20.2659 13.5937 18.9326 17.0604 19.1992C19.4604 19.4659 21.5937 19.4659 25.8604 21.5992L30.1271 14.3992C26.1271 12.2659 20.7937 11.1992 16.5271 11.1992C11.4604 11.1992 7.19375 12.7992 4.52708 15.4659C2.66042 17.3326 1.86042 19.7326 1.59375 22.3992C1.59375 26.1326 2.92708 28.7992 5.86042 30.9326C8.26042 32.5326 11.1937 33.5992 13.8604 34.3992C17.3271 35.4659 19.9937 36.5326 19.9937 38.3992C19.7271 40.7992 17.0604 41.3326 15.1937 41.3326C11.9937 41.5992 9.32708 41.0659 5.32708 38.6659L1.59375 45.8659C5.59375 48.2659 9.86042 49.3326 14.9271 49.3326C18.3937 49.3326 23.7271 48.2659 26.6604 45.5992L26.1271 47.9992H36.2604L38.1271 43.4659C42.1271 44.5326 46.6604 44.7992 50.6604 43.4659L51.9937 47.9992H70.1271V37.3326H73.8604C83.1937 37.3326 88.7937 32.7992 88.7937 24.7992C88.7937 15.7326 83.4604 11.9992 71.9937 11.9992H59.9937ZM40.5271 35.4659L44.2604 23.4659H44.5271L48.2604 35.4659C45.5937 36.2659 42.9271 36.2659 40.5271 35.4659ZM70.1271 29.3326V19.7326H72.7937C76.2604 19.7326 78.9271 20.7992 78.9271 24.2659C78.9271 27.9992 76.2604 29.3326 72.7937 29.3326H70.1271Z" fill="white"/>
</g>
<defs>
<linearGradient id="paint0_linear_544_2644" x1="0" y1="0" x2="0" y2="60" gradientUnits="userSpaceOnUse">
<stop stop-color="#00AAEE"/>
<stop offset="1" stop-color="#0055AA"/>
</linearGradient>
<clipPath id="clip0_544_2644">
<rect width="121.333" height="60" fill="white"/>
</clipPath>
</defs>
</svg>
