<svg width="124" height="60" viewBox="0 0 124 60" fill="none" xmlns="http://www.w3.org/2000/svg">
<g clip-path="url(#clip0_544_2649)">
<mask id="mask0_544_2649" style="mask-type:luminance" maskUnits="userSpaceOnUse" x="-517" y="-139" width="1165" height="1166">
<path d="M-516.984 1026.21H647.901V-138.677H-516.984V1026.21Z" fill="white"/>
</mask>
<g mask="url(#mask0_544_2649)">
<path d="M63.8375 52.0179C61.4598 51.8594 58.7183 51.4425 56.5559 50.8163C56.1508 50.6989 54.4738 50.0825 54.0472 49.8868C46.519 46.3997 41.2746 38.7874 41.2746 29.956C41.2746 17.8429 51.1295 7.97625 63.2504 7.97625C75.2637 7.97625 85.052 17.6746 85.2203 29.6507H93.1594C92.9911 13.299 79.6432 0.0469589 63.2504 0.0469589C46.7597 0.0469589 33.3375 13.4614 33.3375 29.956C33.3375 41.3274 39.7326 51.2175 49.0963 56.2702C50.787 57.1645 53.2135 58.0862 54.0374 58.3386C56.7066 59.1331 59.9824 59.6615 62.8982 59.8826C63.8883 59.9569 67.3461 59.9961 68.3539 60H123.025V52.0922H68.4459C67.7199 52.0922 64.5478 52.0648 63.8375 52.0179ZM68.4459 39.6014C67.8686 39.6014 64.8492 39.5819 64.2915 39.5349C63.3463 39.4547 61.9765 39.3138 61.0959 39.1122C60.1018 38.8461 59.1683 38.4939 58.7476 38.2629C55.7986 36.6681 53.7889 33.5488 53.7889 29.956C53.7889 24.7291 58.0216 20.4905 63.2504 20.4905C68.3696 20.4905 72.5319 24.5628 72.6982 29.6507H80.3262C80.1657 20.3555 72.5886 12.8645 63.2504 12.8645C53.8084 12.8645 46.1551 20.516 46.1551 29.956C46.1551 36.6133 49.971 42.3626 55.5285 45.1786C56.3837 45.6795 57.9922 46.204 58.4502 46.3233C60.0196 46.7362 62.1271 47.018 63.8375 47.1433C64.4695 47.1961 67.5653 47.2196 68.2189 47.2235V47.2352H123.023V39.6014H68.4459ZM28.4453 59.9706H20.4534V7.99387H8.77467V-3.8147e-06H28.4453V59.9706ZM0 11.9879V19.6745H8.77467V59.9706H16.4535V11.9879H0Z" fill="#D91920"/>
<path d="M108.907 0.558067C106.028 0.558067 103.641 2.85349 103.641 5.73402C103.641 8.61456 106.028 11.002 108.907 11.002C111.873 11.002 114.169 8.61456 114.169 5.73402C114.169 2.85349 111.873 0.558067 108.907 0.558067ZM108.907 10.1527C106.529 10.1527 104.48 8.28384 104.48 5.73402C104.48 3.31336 106.529 1.39757 108.907 1.39757C111.282 1.39757 113.321 3.31336 113.321 5.73402C113.321 8.28384 111.282 10.1527 108.907 10.1527Z" fill="#D91920"/>
<path d="M110.906 7.15205C110.906 6.57086 110.82 6.03076 110.154 5.81746C110.988 5.52784 111.07 4.98187 111.07 4.65116C111.07 3.3146 109.857 3.14436 109.358 3.14436H107.062V8.32031H108.019V6.19709H108.773C109.857 6.19709 109.947 6.6961 109.947 7.15205C109.947 8.03461 109.947 8.20094 110.154 8.32031H111.113C110.906 8.11093 110.988 7.9485 110.906 7.15205ZM109.149 5.44174H108.019V3.81165H108.986C109.655 3.81165 110.109 4.023 110.109 4.65116C110.109 4.98187 109.947 5.44174 109.149 5.44174Z" fill="#D91920"/>
</g>
</g>
<defs>
<clipPath id="clip0_544_2649">
<rect width="123.025" height="60" fill="white"/>
</clipPath>
</defs>
</svg>
