<svg width="300" height="105" viewBox="0 0 300 105" fill="none" xmlns="http://www.w3.org/2000/svg">
<path d="M135.706 36.1403V4.92188C127.05 5.00392 118.599 6.23461 110.641 8.28575L118.804 38.3965C124.178 37.0428 129.962 36.2633 135.706 36.1403Z" fill="#0060CC"/>
<path d="M63.4219 34.8679L85.4922 56.9382C89.5534 52.959 94.148 49.4721 99.0297 46.6005L83.318 19.5664C76.0569 23.9148 69.4112 29.0837 63.4219 34.8679Z" fill="#0060CC"/>
<path d="M85.3281 18.5408L100.958 45.3697C105.84 42.6622 111.09 40.6111 116.67 38.8881L108.506 8.77734C100.425 11.1156 92.4661 14.3975 85.3281 18.5408Z" fill="#0060CC"/>
<path d="M198.261 25.5146C188.498 17.7613 177.093 12.3053 164.951 8.90039L156.992 38.9291C163.843 40.8982 168.93 43.6057 174.878 47.667L198.261 25.5146Z" fill="#0060CC"/>
<path d="M44.9609 58.9083H83.5224L83.9326 58.416L61.8623 36.4277C55.1756 43.2375 49.5965 50.6627 44.9609 58.9083Z" fill="#0060CC"/>
<path d="M137.922 36.1402C143.788 36.2223 149.367 37.0427 154.823 38.4375L162.864 8.32675C154.905 6.23458 146.537 5.04492 137.922 5.04492V36.1402Z" fill="#0060CC"/>
<path d="M240.107 58.5387V49.5547H232.969V58.5387H234.774V51.0725H238.343V58.5387H240.107Z" fill="#0060CC"/>
<path d="M221.935 57.4311C222.714 56.6517 223.125 55.421 223.125 54.0672C223.125 52.5904 222.714 51.4828 221.935 50.7034C221.155 49.8009 220.171 49.3906 218.735 49.3906C218.038 49.3906 217.422 49.4727 216.848 49.8009C216.438 50.006 216.069 50.2111 215.658 50.5803C215.371 50.9905 215.043 51.3597 214.879 51.7699C214.592 52.3443 214.469 53.1647 214.469 54.0672C214.469 55.5441 214.879 56.6517 215.658 57.4311C216.438 58.2105 217.463 58.6208 218.858 58.6208C220.13 58.6208 221.238 58.2105 221.935 57.4311ZM216.274 54.0262C216.274 52.9186 216.561 52.2212 216.971 51.6469C217.463 51.1546 218.079 50.9495 218.858 50.9495C219.556 50.9495 220.171 51.1546 220.663 51.6469C221.073 52.1392 221.279 52.9186 221.279 53.9442C221.279 55.0518 221.073 55.8312 220.581 56.3235C220.171 56.8158 219.597 57.1029 218.899 57.1029C218.12 57.1029 217.504 56.8158 217.094 56.3235C216.561 55.8312 216.274 55.0518 216.274 54.0262Z" fill="#0060CC"/>
<path d="M207.203 49.5547V58.4977H209.008V54.5595C209.295 54.5595 209.5 54.6415 209.706 54.7646C209.788 54.8466 209.993 55.1748 210.321 55.544C210.403 55.8312 210.526 55.9543 210.526 56.0363C210.526 56.1184 210.608 56.1184 210.608 56.2414L211.716 58.5387H213.808L212.618 56.0363C212.331 55.462 212.003 54.9287 211.716 54.5595C211.428 54.2723 211.1 54.0672 210.731 53.8621C211.018 53.78 211.346 53.5749 211.428 53.3698C211.511 53.0827 211.634 52.8775 211.716 52.5904C212.003 52.0161 212.126 51.6058 212.208 51.4007C212.29 51.1956 212.495 51.1136 212.618 50.9905C212.823 50.9085 213.11 50.9084 213.521 50.9084H213.726V49.5137C213.644 49.5137 213.521 49.5137 213.521 49.5137C212.618 49.5137 212.044 49.5957 211.634 49.9239C211.223 50.129 210.936 50.7033 210.526 51.7289C210.239 52.5083 210.034 52.9186 209.829 53.1237C209.747 53.3288 209.418 53.4108 209.049 53.4108V49.6367L207.203 49.5547Z" fill="#0060CC"/>
<path d="M227.588 55.1338C228.368 55.1338 228.983 55.0517 229.475 55.0517C229.763 54.9697 230.091 54.7646 230.378 54.5595C230.665 54.3544 230.993 54.0672 231.157 53.657C231.363 53.3698 231.445 52.8775 231.445 52.2622C231.445 51.5648 231.239 50.9495 230.952 50.5803C230.542 50.088 230.173 49.8008 229.64 49.6777C229.229 49.5957 228.532 49.5957 227.465 49.5957H224.594V58.5387H226.399V55.1748L227.588 55.1338ZM226.399 51.0725H227.301C227.917 51.0725 228.409 51.0725 228.614 51.1546C228.901 51.1546 229.106 51.2366 229.311 51.5648C229.516 51.7699 229.599 51.975 229.599 52.3442C229.599 52.5493 229.516 52.8365 229.393 53.0416C229.311 53.2467 229.106 53.3288 228.778 53.4519C228.573 53.5339 228.081 53.657 227.383 53.657H226.399V51.0725Z" fill="#0060CC"/>
<path d="M277.312 49.5547V58.5387H279.118L282.686 52.6314V58.5387H284.368V49.5547H282.563L278.994 55.544V49.5547H277.312Z" fill="#0060CC"/>
<path d="M287.575 55.3389C287.287 55.544 286.959 56.0363 286.467 56.7337L285.359 58.5387H287.534L288.846 56.5286C289.462 55.7491 289.831 55.2569 290.036 55.0517C290.323 54.8466 290.733 54.7646 291.226 54.7646H291.636V58.5387H293.441V49.5957H289.626C288.723 49.5957 288.026 49.5957 287.657 49.8008C287.164 49.8829 286.754 50.211 286.549 50.5803C286.262 51.0725 286.057 51.5648 286.057 52.0571C286.057 52.6314 286.262 53.2467 286.672 53.657C287.082 54.1492 287.657 54.4364 288.477 54.5595C288.067 54.7236 287.739 55.0517 287.575 55.3389ZM288.272 52.9596C288.067 52.7545 287.985 52.4673 287.985 52.1801C287.985 51.893 288.067 51.6879 288.272 51.4828C288.354 51.2776 288.559 51.1956 288.887 51.0725C289.092 51.0725 289.585 51.0725 290.282 51.0725H291.677V53.3698H290.364C289.585 53.3698 289.051 53.3698 288.887 53.2878C288.559 53.2467 288.354 53.1647 288.272 52.9596Z" fill="#0060CC"/>
<path d="M268.047 49.5547V58.5387H274.528V60.4257H276.005V57.0208H275.226V49.5547H273.421V57.0208H269.975V49.5547H268.047Z" fill="#0060CC"/>
<path d="M256.843 49.6777C256.432 49.5957 255.735 49.5957 254.668 49.5957H251.797V58.5387H253.602V55.1748H254.792C255.571 55.1748 256.268 55.0928 256.679 55.0928C256.966 55.0107 257.294 54.8056 257.581 54.6005C257.868 54.3954 258.196 54.1082 258.361 53.698C258.566 53.4108 258.648 52.9186 258.648 52.3032C258.648 51.6058 258.443 50.9905 258.155 50.6213C257.704 50.047 257.335 49.7598 256.843 49.6777ZM256.515 53.0416C256.432 53.2467 256.227 53.3288 255.899 53.4519C255.694 53.5339 255.202 53.657 254.504 53.657H253.52V51.0725H254.422C255.038 51.0725 255.53 51.0725 255.735 51.1546C256.022 51.1546 256.227 51.2366 256.432 51.5648C256.638 51.7699 256.72 51.975 256.72 52.3442C256.72 52.5493 256.72 52.8365 256.515 53.0416Z" fill="#0060CC"/>
<path d="M259.998 58.5387L260.778 56.4465H264.347L265.126 58.5387H267.013L263.444 49.5957H261.557L258.07 58.5387H259.998ZM262.501 51.6468L263.814 54.9287H261.352L262.501 51.6468Z" fill="#0060CC"/>
<path d="M249.173 57.4311C249.953 56.6517 250.363 55.421 250.363 54.0672C250.363 52.5904 249.953 51.4828 249.173 50.7034C248.394 49.8009 247.286 49.3906 245.973 49.3906C245.194 49.3906 244.579 49.4727 244.004 49.8009C243.594 50.006 243.225 50.2111 242.815 50.5803C242.528 50.9905 242.199 51.3597 242.035 51.7699C241.748 52.3443 241.625 53.1647 241.625 54.0672C241.625 55.5441 242.035 56.6517 242.815 57.4311C243.594 58.2105 244.62 58.6208 246.014 58.6208C247.286 58.6208 248.394 58.2105 249.173 57.4311ZM243.512 54.0262C243.512 52.9186 243.717 52.2212 244.209 51.6469C244.62 51.1546 245.194 50.9495 246.014 50.9495C246.712 50.9495 247.327 51.1546 247.819 51.6469C248.23 52.1392 248.517 52.9186 248.517 53.9442C248.517 55.0518 248.23 55.8312 247.819 56.3235C247.327 56.8158 246.712 57.1029 246.014 57.1029C245.317 57.1029 244.702 56.8158 244.209 56.3235C243.717 55.8312 243.512 55.0518 243.512 54.0262Z" fill="#0060CC"/>
<path d="M6.5625 61.1232V93.8184H17.1054V69.4508H34.7862L34.7452 61.1232H6.5625Z" fill="#0060CC"/>
<path d="M284.283 81.0195C283.586 80.2401 282.806 79.7478 281.904 79.5427C281.124 79.2555 279.73 79.1324 277.72 79.1324C272.961 79.1324 269.761 79.2145 268.079 79.6247C266.315 79.8298 264.879 80.4041 263.813 81.4297C262.5 82.7014 261.844 84.6295 261.844 87.296C261.844 89.7984 262.459 91.5624 263.526 92.5469C264.305 93.2443 265.413 93.7366 266.602 93.9417C267.915 94.2288 269.679 94.434 271.976 94.434C274.971 94.434 277.145 94.3519 278.458 94.2288C279.771 94.1468 280.837 93.8186 281.535 93.6545C282.929 93.0392 284.037 92.0546 284.611 90.7829H285.022V93.8596H293.472V79.9529C293.472 77.8607 293.185 76.1788 292.98 75.1942C292.775 74.0866 292.201 73.1841 291.503 72.3226C290.396 71.4201 289.206 70.8458 287.934 70.4356C286.54 70.2305 283.873 70.1484 279.976 70.1484C274.807 70.1484 271.033 70.3536 268.818 70.8458C266.643 71.4201 265.044 72.3226 264.059 73.9225C263.28 74.825 262.951 76.2198 262.869 77.9838H271.566C271.648 76.8762 272.182 76.1788 272.879 76.0147C273.576 75.8096 275.545 75.6045 278.622 75.6045C281.207 75.6045 283.012 75.8916 283.586 76.3839C284.283 76.7941 284.693 77.9838 284.693 79.7478V81.0195H284.283ZM282.888 88.4446C281.699 88.7318 279.689 88.8549 276.612 88.8549C274.233 88.8549 272.715 88.7728 271.853 88.4446C271.074 88.0344 270.541 87.4601 270.541 86.5576C270.541 85.6551 271.033 84.9577 271.853 84.6705C272.551 84.2603 274.356 84.0962 277.309 84.0962C280.796 84.0962 282.683 84.1782 282.971 84.3834C283.955 84.7936 284.365 85.3679 284.365 86.2704C284.365 87.378 283.955 88.0754 282.888 88.4446Z" fill="#0060CC"/>
<path d="M231.281 70.6406V93.8185H240.019V84.5884H241.701L251.054 93.8185H262.582L248.88 81.5117L261.105 70.6406H249.249L241.332 78.3119H240.019V70.6406H231.281Z" fill="#0060CC"/>
<path d="M120.607 81.0195C119.992 80.2401 119.213 79.7478 118.433 79.5427C117.531 79.2555 116.054 79.1324 114.044 79.1324C109.367 79.1324 106.208 79.2145 104.403 79.6247C102.804 79.8298 101.327 80.4041 100.342 81.4297C99.0294 82.7014 98.25 84.6295 98.25 87.296C98.25 89.7984 98.8243 91.5624 99.9319 92.5469C100.711 93.2443 101.737 93.7366 103.009 93.9417C104.28 94.2288 106.085 94.434 108.465 94.434C111.336 94.434 113.428 94.3519 114.823 94.2288C116.095 94.1468 117.203 93.8186 117.9 93.6545C119.295 93.0392 120.402 92.0546 120.977 90.7829H121.264V93.8596H129.715V79.9529C129.715 77.8607 129.632 76.1788 129.304 75.1942C129.017 74.0866 128.525 73.1841 127.704 72.3226C126.72 71.4201 125.53 70.8458 124.135 70.4356C122.741 70.2305 120.156 70.1484 116.3 70.1484C111.131 70.1484 107.357 70.3536 105.265 70.8458C102.968 71.4201 101.286 72.3226 100.383 73.9225C99.6858 74.825 99.2756 76.2198 99.1935 77.9838H107.849C108.054 76.8762 108.465 76.1788 109.244 76.0147C109.942 75.8096 111.829 75.6045 115.028 75.6045C117.695 75.6045 119.295 75.8916 119.992 76.3839C120.689 76.7941 121.1 77.9838 121.1 79.7478V81.0195H120.607ZM119.213 88.4446C118.105 88.7318 116.013 88.8549 113.059 88.8549C110.68 88.8549 109.08 88.7728 108.178 88.4446C107.398 88.0344 106.988 87.4601 106.988 86.5576C106.988 85.6551 107.398 84.9577 108.383 84.6705C109.08 84.2603 110.885 84.0962 113.757 84.0962C117.121 84.0962 119.049 84.1782 119.418 84.3834C120.402 84.7936 120.895 85.3679 120.895 86.2704C120.895 87.378 120.402 87.9524 119.213 88.4446Z" fill="#0060CC"/>
<path d="M62.7223 93.8186V79.9119C62.7223 77.8197 62.6403 76.1378 62.4352 75.1532C62.0249 74.0456 61.5327 73.1431 60.8353 72.2816C59.8507 71.3791 58.6611 70.8048 57.1432 70.3946C55.8715 70.1895 53.164 70.1074 49.3899 70.1074C44.221 70.1074 40.3239 70.3125 38.2317 70.8048C35.9344 71.3791 34.4576 72.2816 33.35 73.8815C32.6526 74.784 32.2424 76.1788 32.1603 77.9428H40.8982C41.1033 76.8352 41.3905 76.1378 42.2109 75.9737C42.9903 75.7686 44.9184 75.5635 48.0772 75.5635C50.6616 75.5635 52.3436 75.8506 53.0409 76.3429C53.7383 76.7531 54.0255 77.9428 54.0255 79.7068V80.9785H53.6153C53.0409 80.199 52.1384 79.7068 51.318 79.5017C50.5385 79.2145 49.0207 79.0914 47.0516 79.0914C42.375 79.0914 39.2162 79.1735 37.4112 79.5837C35.7293 79.7888 34.3345 80.3631 33.2269 81.3887C31.9142 82.6604 31.2578 84.5885 31.2578 87.255C31.2578 89.7574 31.8732 91.5213 32.8577 92.5059C33.7602 93.2033 34.6627 93.6956 35.9344 93.9007C37.2471 94.1878 39.0111 94.3929 41.3905 94.3929C44.3851 94.3929 46.4773 94.3109 47.749 94.1878C49.0617 94.1058 50.1283 93.7776 50.8257 93.6135C52.3025 92.9982 53.3281 92.0136 53.9024 90.7419H54.3947V93.8186H62.7223ZM52.1795 88.4446C51.1949 88.7318 49.1027 88.8549 46.1081 88.8549C43.7288 88.8549 42.0468 88.7728 41.2264 88.4446C40.3239 88.0344 40.0367 87.4601 40.0367 86.5576C40.0367 85.6551 40.3239 84.9577 41.3494 84.6705C42.0468 84.2603 43.8518 84.0962 46.8055 84.0962C50.0873 84.0962 52.0564 84.1783 52.4666 84.3834C53.3691 84.7936 53.8614 85.3679 53.8614 86.2704C53.9024 87.378 53.4101 87.9524 52.1795 88.4446Z" fill="#0060CC"/>
<path d="M195.883 70.6405V81.1833C195.883 84.3831 195.965 86.6394 196.375 87.9521C196.785 89.2238 197.483 90.5365 198.467 91.6442C199.575 92.6287 200.847 93.3261 202.446 93.8184C204.046 94.2286 206.221 94.3927 208.928 94.3927C211.923 94.3927 214.097 94.1055 215.574 93.6133C217.051 92.9979 218.158 91.9313 218.856 90.4135H219.348V93.7773H227.511V70.5994H218.856V79.8296C218.856 82.1269 218.774 83.6037 218.568 84.5062C218.281 85.2856 217.953 85.983 217.379 86.5984C216.271 87.3778 214.384 87.8701 211.513 87.8701C209.913 87.8701 208.641 87.788 207.82 87.6649C207.041 87.3778 206.344 87.0906 205.851 86.5573C205.359 86.0651 205.072 85.4497 204.949 84.7523C204.662 84.0549 204.662 82.8653 204.662 81.0603V70.5174L195.883 70.6405Z" fill="#0060CC"/>
<path d="M183.452 93.8185V77.4094H193.175V70.6406H165.156V77.4094H174.797V93.8185H183.452Z" fill="#0060CC"/>
<path d="M75.6465 70.6406L64.2422 93.8185H74.1697L81.3487 77.3273L88.6097 93.8185H98.5373L86.8868 70.6406H75.6465Z" fill="#0060CC"/>
<path d="M133.531 70.6406V93.8185H142.269V84.5884H143.992L153.427 93.8185H164.873L151.13 81.5117L163.355 70.6406H151.622L143.582 78.3119H142.269V70.6406H133.531Z" fill="#0060CC"/>
</svg>
