<svg width="300" height="39" viewBox="0 0 300 39" fill="none" xmlns="http://www.w3.org/2000/svg">
<g clip-path="url(#clip0_544_2701)">
<path d="M129.338 25.3506H149.13L138.676 8.46744L119.455 38.9609H110.715L134.091 2.37653C134.601 1.6465 135.278 1.04923 136.066 0.634746C136.854 0.220262 137.73 0.000641909 138.62 -0.00571723C139.51 -0.0120764 140.389 0.195011 141.183 0.598197C141.977 1.00138 142.662 1.58892 143.182 2.3116L166.624 38.9609H157.884L153.767 32.1428H133.741L129.377 25.3506M220.195 32.1428V0.363548H212.767V35.2726C212.765 35.7578 212.863 36.2381 213.052 36.6846C213.242 37.131 213.521 37.5343 213.871 37.87C214.222 38.2298 214.643 38.5152 215.107 38.7093C215.571 38.9034 216.069 39.0022 216.572 38.9999H250.338L254.741 32.1817H220.156M97.3772 26.4674C100.839 26.4674 104.159 25.0923 106.606 22.6446C109.054 20.1969 110.429 16.8771 110.429 13.4155C110.429 9.9539 109.054 6.63409 106.606 4.18637C104.159 1.73866 100.839 0.363548 97.3772 0.363548H64.9097V38.9609H72.3253V7.19472H96.9227C98.5794 7.19472 100.168 7.85285 101.34 9.02435C102.511 10.1958 103.169 11.7847 103.169 13.4415C103.169 15.0982 102.511 16.6871 101.34 17.8586C100.168 19.0301 98.5794 19.6882 96.9227 19.6882H76.0006L98.1564 38.9609H108.923L94.0396 26.4674H97.3772ZM19.2993 38.9609H41.7279C46.7578 38.8304 51.5379 36.7406 55.0494 33.1368C58.5608 29.5331 60.526 24.7004 60.526 19.6687C60.526 14.6371 58.5608 9.80441 55.0494 6.20065C51.5379 2.59689 46.7578 0.507051 41.7279 0.376535H19.2993C16.7237 0.309703 14.1608 0.759283 11.7617 1.69876C9.3626 2.63824 7.17593 4.04859 5.33061 5.84665C3.48529 7.64471 2.01869 9.79406 1.0173 12.168C0.0159074 14.5419 -0.5 17.0923 -0.5 19.6687C-0.5 22.2452 0.0159074 24.7956 1.0173 27.1695C2.01869 29.5434 3.48529 31.6928 5.33061 33.4908C7.17593 35.2889 9.3626 36.6992 11.7617 37.6387C14.1608 38.5782 16.7237 39.0278 19.2993 38.9609ZM41.2214 32.1687H19.7928C16.5507 32.0642 13.4764 30.7028 11.22 28.3724C8.96364 26.0421 7.70205 22.9255 7.70205 19.6817C7.70205 16.438 8.96364 13.3214 11.22 10.991C13.4764 8.6607 16.5507 7.29929 19.7928 7.19472H41.2214C42.8951 7.14073 44.5625 7.42377 46.1247 8.02701C47.6868 8.63024 49.1118 9.54136 50.3148 10.7062C51.5178 11.8711 52.4744 13.2659 53.1277 14.8078C53.781 16.3497 54.1176 18.0072 54.1176 19.6817C54.1176 21.3563 53.781 23.0138 53.1277 24.5557C52.4744 26.0976 51.5178 27.4924 50.3148 28.6572C49.1118 29.8221 47.6868 30.7332 46.1247 31.3365C44.5625 31.9397 42.8951 32.2227 41.2214 32.1687ZM182.117 38.9609H205.014L209.351 32.1687H182.624C180.95 32.2227 179.283 31.9397 177.721 31.3365C176.158 30.7332 174.734 29.8221 173.531 28.6572C172.327 27.4924 171.371 26.0976 170.718 24.5557C170.064 23.0138 169.728 21.3563 169.728 19.6817C169.728 18.0072 170.064 16.3497 170.718 14.8078C171.371 13.2659 172.327 11.8711 173.531 10.7062C174.734 9.54136 176.158 8.63024 177.721 8.02701C179.283 7.42377 180.95 7.14073 182.624 7.19472H204.377L208.767 0.376535H182.117C179.542 0.309703 176.979 0.759283 174.58 1.69876C172.181 2.63824 169.994 4.04859 168.149 5.84665C166.303 7.64471 164.837 9.79406 163.835 12.168C162.834 14.5419 162.318 17.0923 162.318 19.6687C162.318 22.2452 162.834 24.7956 163.835 27.1695C164.837 29.5434 166.303 31.6928 168.149 33.4908C169.994 35.2889 172.181 36.6992 174.58 37.6387C176.979 38.5782 179.542 39.0278 182.117 38.9609ZM272.858 32.1687C270.137 32.1698 267.49 31.2824 265.319 29.6416C263.148 28.0007 261.573 25.696 260.832 23.0778H292.546L296.91 16.2726H260.832C261.571 13.6534 263.146 11.3475 265.317 9.70628C267.488 8.06509 270.136 7.17855 272.858 7.18173H294.624L298.975 0.363548H272.351C267.321 0.494064 262.541 2.5839 259.03 6.18766C255.518 9.79142 253.553 14.6241 253.553 19.6558C253.553 24.6874 255.518 29.5201 259.03 33.1238C262.541 36.7276 267.321 38.8174 272.351 38.948H295.247L299.598 32.1558H272.845" fill="#C74634"/>
</g>
<defs>
<clipPath id="clip0_544_2701">
<rect width="300" height="38.961" fill="white"/>
</clipPath>
</defs>
</svg>
