<svg width="300" height="64" viewBox="0 0 300 64" fill="none" xmlns="http://www.w3.org/2000/svg">
<g clip-path="url(#clip0_544_2693)">
<path d="M124.764 12.7967V51.1853H118.1V21.0609H118.011L106.103 51.1853H101.66L89.486 21.0609H89.3971V51.1853H83.2656V12.7967H92.8628L103.882 41.2327H104.059L115.7 12.7967H124.764ZM130.274 15.7292C130.274 14.6628 130.629 13.7742 131.429 13.0633C132.229 12.3524 133.118 11.997 134.184 11.997C135.339 11.997 136.317 12.3524 137.027 13.0633C137.738 13.7742 138.183 14.6628 138.183 15.7292C138.183 16.7955 137.827 17.6842 137.027 18.3951C136.228 19.106 135.339 19.4614 134.184 19.4614C133.029 19.4614 132.14 19.106 131.429 18.3951C130.718 17.5953 130.274 16.7067 130.274 15.7292ZM137.472 23.638V51.1853H130.985V23.638H137.472ZM157.11 46.4756C158.088 46.4756 159.154 46.2979 160.309 45.7647C161.465 45.3204 162.531 44.6984 163.509 43.9875V50.0301C162.442 50.6522 161.287 51.0965 159.954 51.3631C158.621 51.6297 157.199 51.8074 155.6 51.8074C151.512 51.8074 148.224 50.5633 145.736 47.9863C143.159 45.4093 141.915 42.1214 141.915 38.2114C141.915 33.7683 143.248 30.1249 145.825 27.2813C148.402 24.4377 152.045 23.0159 156.844 23.0159C158.088 23.0159 159.332 23.1936 160.487 23.4602C161.731 23.7268 162.709 24.1711 163.42 24.5266V30.747C162.442 30.0361 161.376 29.414 160.398 29.0586C159.332 28.7031 158.266 28.4365 157.199 28.4365C154.622 28.4365 152.578 29.2363 150.979 30.9247C149.379 32.6131 148.668 34.8346 148.668 37.6782C148.668 40.433 149.468 42.6545 150.979 44.1652C152.49 45.6759 154.533 46.4756 157.11 46.4756ZM181.903 23.1936C182.436 23.1936 182.881 23.1936 183.325 23.2825C183.769 23.3714 184.125 23.4602 184.391 23.5491V30.1249C184.036 29.8583 183.591 29.5917 182.881 29.414C182.17 29.2363 181.459 29.0586 180.481 29.0586C178.882 29.0586 177.549 29.7695 176.482 31.1024C175.416 32.4354 174.794 34.4792 174.794 37.3228V51.1853H168.307V23.638H174.794V27.9922H174.883C175.505 26.4816 176.394 25.3263 177.549 24.4377C178.793 23.638 180.215 23.1936 181.903 23.1936ZM184.747 37.856C184.747 33.324 186.08 29.6806 188.568 27.0147C191.145 24.3489 194.699 23.0159 199.231 23.0159C203.497 23.0159 206.873 24.26 209.273 26.837C211.672 29.414 212.916 32.8797 212.916 37.2339C212.916 41.6771 211.583 45.2316 209.095 47.8974C206.518 50.5633 203.052 51.8963 198.609 51.8963C194.344 51.8963 190.967 50.6522 188.479 48.164C185.991 45.587 184.747 42.1214 184.747 37.856ZM191.5 37.5894C191.5 40.433 192.122 42.6545 193.455 44.1652C194.788 45.6759 196.654 46.4756 199.054 46.4756C201.364 46.4756 203.23 45.7647 204.474 44.1652C205.718 42.6545 206.34 40.433 206.34 37.4117C206.34 34.4792 205.718 32.2576 204.474 30.6581C203.23 29.1474 201.364 28.3477 199.142 28.3477C196.743 28.3477 194.966 29.1474 193.633 30.747C192.122 32.4354 191.5 34.6569 191.5 37.5894ZM222.602 30.9247C222.602 31.8133 222.869 32.6131 223.491 33.1463C224.113 33.6794 225.357 34.3015 227.401 35.1012C229.978 36.1676 231.844 37.3228 232.821 38.5669C233.888 39.8998 234.421 41.4105 234.421 43.2766C234.421 45.8536 233.443 47.8974 231.4 49.497C229.445 51.0965 226.69 51.8074 223.313 51.8074C222.158 51.8074 220.914 51.6297 219.492 51.3631C218.07 51.0965 216.915 50.741 215.937 50.2967V43.8986C217.093 44.6984 218.426 45.4093 219.759 45.8536C221.091 46.2979 222.336 46.5645 223.491 46.5645C224.913 46.5645 226.068 46.3868 226.69 45.9425C227.401 45.4981 227.756 44.8761 227.756 43.8986C227.756 43.01 227.401 42.2991 226.69 41.5882C225.979 40.9662 224.557 40.2553 222.602 39.4555C220.203 38.478 218.514 37.3228 217.537 36.0787C216.559 34.8346 216.026 33.2351 216.026 31.2801C216.026 28.792 217.004 26.7481 218.959 25.1486C220.914 23.5491 223.491 22.7493 226.601 22.7493C227.578 22.7493 228.645 22.8382 229.8 23.1048C230.955 23.3714 232.022 23.638 232.821 23.9045V30.2138C231.933 29.6806 230.955 29.1474 229.8 28.7031C228.645 28.2588 227.49 28.0811 226.423 28.0811C225.179 28.0811 224.202 28.3477 223.58 28.792C222.958 29.414 222.602 30.0361 222.602 30.9247ZM237.176 37.856C237.176 33.324 238.509 29.6806 240.997 27.0147C243.574 24.3489 247.128 23.0159 251.66 23.0159C255.926 23.0159 259.302 24.26 261.702 26.837C264.101 29.414 265.345 32.8797 265.345 37.2339C265.345 41.6771 264.012 45.2316 261.524 47.8974C258.947 50.5633 255.481 51.8963 251.038 51.8963C246.773 51.8963 243.396 50.6522 240.908 48.164C238.509 45.587 237.176 42.1214 237.176 37.856ZM243.929 37.5894C243.929 40.433 244.551 42.6545 245.884 44.1652C247.217 45.6759 249.083 46.4756 251.482 46.4756C253.793 46.4756 255.659 45.7647 256.903 44.1652C258.147 42.6545 258.769 40.433 258.769 37.4117C258.769 34.4792 258.147 32.2576 256.903 30.6581C255.659 29.1474 253.793 28.3477 251.571 28.3477C249.172 28.3477 247.395 29.1474 246.062 30.747C244.64 32.4354 243.929 34.6569 243.929 37.5894ZM286.939 28.9697H277.253V51.1853H270.677V28.9697H266.056V23.638H270.677V19.8169C270.677 16.9733 271.654 14.574 273.52 12.7079C275.386 10.8418 277.786 9.95312 280.718 9.95312C281.518 9.95312 282.229 10.042 282.851 10.042C283.473 10.042 284.006 10.2197 284.45 10.3974V15.9958C284.273 15.9069 283.828 15.7292 283.295 15.5515C282.762 15.3737 282.14 15.2849 281.429 15.2849C280.096 15.2849 279.03 15.7292 278.319 16.529C277.608 17.3287 277.253 18.6617 277.253 20.2612V23.5491H286.939V17.3287L293.426 15.3737V23.5491H300.001V28.8808H293.426V41.7659C293.426 43.4543 293.781 44.6095 294.314 45.3204C294.936 46.0313 295.914 46.3868 297.247 46.3868C297.602 46.3868 298.046 46.2979 298.58 46.1202C299.113 45.9425 299.557 45.7647 299.913 45.4981V50.8299C299.468 51.0965 298.846 51.2742 297.869 51.4519C296.891 51.6297 296.003 51.7185 295.025 51.7185C292.27 51.7185 290.227 51.0076 288.894 49.5858C287.561 48.164 286.85 45.9425 286.85 43.01L286.939 28.9697Z" fill="#737373"/>
<path d="M30.391 0H0V30.391H30.391V0Z" fill="#F25022"/>
<path d="M63.9847 0H33.5938V30.391H63.9847V0Z" fill="#7FBA00"/>
<path d="M30.391 33.5898H0V63.9808H30.391V33.5898Z" fill="#00A4EF"/>
<path d="M63.9847 33.5898H33.5938V63.9808H63.9847V33.5898Z" fill="#FFB900"/>
</g>
<defs>
<clipPath id="clip0_544_2693">
<rect width="300" height="63.981" fill="white"/>
</clipPath>
</defs>
</svg>
