<svg width="300" height="68" viewBox="0 0 300 68" fill="none" xmlns="http://www.w3.org/2000/svg">
<path fill-rule="evenodd" clip-rule="evenodd" d="M0.0559328 0V39.2744C-0.00821404 40.6879 -0.0171895 42.1033 0.0290269 43.5175L10.0353 34.3265C10.8492 31.9143 12.2106 29.7256 14.1398 27.7978C17.5044 24.4278 21.4555 22.7919 26.2178 22.7919C30.9142 22.7919 34.9797 24.4735 38.2972 27.7978C41.0147 30.5126 42.6142 33.7345 43.1133 37.3803L50.9658 30.1695C49.6703 26.8574 47.6739 23.8318 44.9671 21.1238C40.381 16.5444 34.8949 13.9803 28.642 13.4691L28.5842 13.465C27.8185 13.4018 27.0506 13.3699 26.2824 13.3695H26.2178C25.4537 13.3695 24.703 13.4031 23.9604 13.461L23.9201 13.465C18.4945 13.8955 13.6528 15.8691 9.46356 19.3466V0H0.0559328Z" fill="#046DB5"/>
<path fill-rule="evenodd" clip-rule="evenodd" d="M42.6603 44.663C41.9016 47.3737 40.4594 49.7859 38.2935 51.9531C34.9774 55.276 30.9119 56.9536 26.2168 56.9536C21.4505 56.9536 17.5007 55.3177 14.1375 51.9531C11.2639 49.085 9.66169 45.7809 9.25137 41.9146L1.34375 49.1737C2.63119 52.6352 4.67066 55.7939 7.47828 58.6096C12.6388 63.7634 18.9442 66.3787 26.2182 66.3787C32.7294 66.3787 38.4644 64.28 43.2953 60.1352V66.3787H52.7218L52.6962 66.2576H52.7218V39.8172C52.7218 38.406 52.6195 37.0352 52.4258 35.698L42.659 44.663H42.6603ZM71.5976 31.0446V41.063H67.3061V15.3047H71.5976V22.798C73.2523 21.6168 75.1586 21.0302 77.3191 21.0302C80.0931 21.0302 82.4554 22.0042 84.4088 23.9576C86.3608 25.911 87.3375 28.2733 87.3375 31.0446V41.063H83.0447V31.0446C83.0447 29.4666 82.4837 28.1172 81.3684 26.998C80.2518 25.8814 78.8998 25.3231 77.3191 25.3231C75.7384 25.3231 74.3904 25.8814 73.2751 26.998C72.1572 28.1172 71.5976 29.4666 71.5976 31.0446ZM129.921 31.0446C129.921 29.4666 129.363 28.1172 128.244 26.998C127.126 25.8814 125.776 25.3231 124.197 25.3231C122.615 25.3231 121.267 25.8814 120.149 26.998C119.033 28.1172 118.474 29.4666 118.474 31.0446V41.063H114.181V31.0446C114.181 28.2733 115.157 25.911 117.111 23.9576C119.061 22.0042 121.426 21.0302 124.197 21.0302C126.972 21.0302 129.332 22.0042 131.281 23.9576C131.565 24.2415 131.829 24.5334 132.066 24.8307C132.302 24.5334 132.568 24.2415 132.849 23.9576C134.799 22.0042 137.167 21.0302 139.936 21.0302C142.711 21.0302 145.072 22.0042 147.024 23.9576C148.979 25.911 149.953 28.2733 149.953 31.0446V41.063H145.661V31.0446C145.661 29.4666 145.103 28.1172 143.984 26.998C142.866 25.8814 141.518 25.3231 139.936 25.3231C138.356 25.3231 137.008 25.8814 135.893 26.998C134.775 28.1172 134.213 29.4666 134.213 31.0446V41.063H129.921V31.0446ZM153.71 41.063H158.003V21.0289H153.711L153.71 41.063ZM155.859 19.5975C155.259 19.5975 154.754 19.3903 154.337 18.972C154.134 18.7747 153.974 18.5381 153.866 18.2767C153.759 18.0152 153.705 17.7345 153.71 17.4518C153.71 16.8545 153.92 16.3486 154.337 15.9316C154.754 15.5146 155.259 15.306 155.859 15.306C156.453 15.306 156.96 15.5146 157.376 15.9302C157.793 16.3486 158.003 16.8545 158.003 17.4504C158.003 18.0464 157.793 18.5563 157.376 18.9706C157.18 19.1736 156.944 19.3341 156.683 19.4419C156.421 19.5498 156.141 19.6027 155.859 19.5975ZM161.889 41.063H166.181V15.306H161.889V41.063ZM174.103 25.3231V31.0446C174.103 32.624 174.663 33.976 175.781 35.0939C176.9 36.2105 178.251 36.7688 179.83 36.7688V41.063C177.059 41.063 174.693 40.0876 172.741 38.1302C170.785 36.1809 169.808 33.8199 169.808 31.0446V15.3047H174.103V21.0289H179.83V25.3231H174.103ZM208.992 41.063H204.698V31.0446C204.698 28.2733 205.675 25.911 207.627 23.9576C209.581 22.0042 211.94 21.0289 214.715 21.0289C217.49 21.0289 219.847 22.0042 221.805 23.9576C223.755 25.911 224.732 28.2733 224.732 31.0446V41.063H220.438V31.0446C220.438 29.4666 219.878 28.1172 218.764 26.9966C217.644 25.88 216.294 25.3231 214.715 25.3231C213.133 25.3231 211.785 25.88 210.668 26.9966C209.552 28.1172 208.992 29.4666 208.992 31.0446V41.063ZM196.25 35.0939C195.133 36.2105 193.782 36.7688 192.2 36.7688C190.618 36.7688 189.273 36.2119 188.151 35.0939C187.034 33.9746 186.475 32.6253 186.475 31.0446C186.475 29.4666 187.033 28.1172 188.151 26.998C189.273 25.88 190.618 25.3217 192.2 25.3217C193.782 25.3217 195.133 25.88 196.25 26.998C197.369 28.1172 197.93 29.4666 197.93 31.0446C197.93 32.6253 197.369 33.9746 196.248 35.0939M199.29 23.9563C197.337 22.0042 194.974 21.0289 192.2 21.0289C189.429 21.0289 187.065 22.0042 185.111 23.9563C183.157 25.9123 182.182 28.2746 182.182 31.0446C182.182 33.8186 183.157 36.1809 185.109 38.1302C187.065 40.0876 189.428 41.063 192.2 41.063C194.974 41.063 197.337 40.0876 199.29 38.1302C201.243 36.1796 202.22 33.8186 202.22 31.0446C202.22 28.2733 201.243 25.9123 199.29 23.9563ZM107.624 23.9576C105.67 22.0029 103.306 21.0289 100.535 21.0289C97.7635 21.0289 95.3985 22.0029 93.4451 23.9576C91.4917 25.911 90.5164 28.2733 90.5164 31.0446C90.5164 33.8186 91.4917 36.1796 93.4451 38.1343C95.3985 40.085 97.7635 41.063 100.535 41.063C101.89 41.071 103.232 40.8032 104.481 40.276V35.1868C103.381 36.2401 102.068 36.7688 100.536 36.7688C98.9527 36.7688 97.6061 36.2105 96.4868 35.0939C95.3675 33.976 94.8092 32.6253 94.8092 31.0446C94.8092 29.4666 95.3675 28.1172 96.4855 26.998C97.6061 25.8814 98.9527 25.3231 100.535 25.3231C102.113 25.3231 103.465 25.88 104.583 26.998C105.635 28.0513 106.196 29.3105 106.26 30.7675V41.063H110.556V31.0446C110.556 28.2733 109.578 25.911 107.624 23.9576ZM126.932 45.906H133.755V49.3163H127.446C126.237 49.3298 125.651 49.5666 125.688 50.0294C125.688 50.7155 126.95 51.3746 129.473 52.0002C131.32 52.463 132.612 53.0374 133.34 53.7249C134.066 54.411 134.433 55.4025 134.433 56.6939C134.433 58.389 133.94 59.667 132.958 60.532C131.973 61.3971 130.536 61.8289 128.637 61.8289H122.381L122.363 58.4159H128.55C130.04 58.3567 130.816 57.9679 130.878 57.2455C130.878 56.6267 130.391 56.1962 129.418 55.9473C126.136 55.1267 124.147 54.3141 123.438 53.5042C122.733 52.693 122.382 51.7123 122.382 50.5607C122.382 47.4356 123.897 45.8818 126.932 45.906ZM80.9016 48.2347C79.3464 46.6809 77.4698 45.906 75.2675 45.906C73.0612 45.906 71.1846 46.6809 69.6334 48.2347C68.081 49.7872 67.3047 51.6639 67.3047 53.8688C67.3047 56.0737 68.081 57.9491 69.6321 59.5015C71.1846 61.0513 73.0626 61.8302 75.2675 61.8302C76.3976 61.8302 77.4334 61.615 78.394 61.2047V57.1607C77.9817 57.5662 77.4931 57.8859 76.9564 58.1013C76.4198 58.3168 75.8457 58.4237 75.2675 58.4159C74.6683 58.426 74.0735 58.313 73.5197 58.0839C72.966 57.8548 72.4651 57.5145 72.0482 57.0841C71.6186 56.6674 71.2788 56.1672 71.0497 55.6142C70.8207 55.0612 70.7073 54.4673 70.7164 53.8688C70.7164 52.611 71.1603 51.5415 72.0482 50.6509C72.4654 50.2205 72.9662 49.8801 73.5198 49.6506C74.0735 49.4211 74.6682 49.3073 75.2675 49.3163C76.5213 49.3163 77.5949 49.763 78.4828 50.6509C79.3209 51.4863 79.7662 52.4885 79.8146 53.6509V61.8302H83.229V53.8688C83.229 51.6625 82.4514 49.7872 80.9016 48.2347ZM100.05 48.2347C98.4953 46.6809 96.6186 45.906 94.4137 45.906C92.2088 45.906 90.3334 46.6809 88.7796 48.2347C87.2272 49.7872 86.4523 51.6639 86.4523 53.8688V66.3773H89.8639L89.8693 61.8302H89.8639V55.2545H89.8747V53.6495C89.9095 52.5158 90.3838 51.4401 91.1971 50.6495C91.6138 50.2193 92.1141 49.8789 92.6673 49.6494C93.2205 49.4199 93.8148 49.3061 94.4137 49.315C95.6689 49.315 96.7438 49.7616 97.633 50.6495C98.5222 51.5401 98.9662 52.6096 98.9662 53.8675C98.9662 55.1199 98.5222 56.1948 97.6343 57.0827C97.217 57.513 96.7159 57.8532 96.162 58.0823C95.6081 58.3114 95.0131 58.4244 94.4137 58.4146C93.8352 58.423 93.2607 58.3162 92.7239 58.1002C92.1871 57.8843 91.6987 57.5635 91.2873 57.1567V61.206C92.2424 61.6123 93.2823 61.8289 94.4137 61.8289C96.6186 61.8289 98.4953 61.05 100.05 59.5015C101.604 57.9477 102.378 56.0724 102.378 53.8675C102.378 51.6612 101.604 49.7872 100.05 48.2347ZM118.212 48.2347C116.661 46.6809 114.781 45.906 112.579 45.906C110.374 45.906 108.498 46.6809 106.944 48.2347C105.394 49.7872 104.616 51.6639 104.616 53.8688V66.3773H108.031L108.036 61.8302H108.028V55.2545H108.042V53.6495C108.076 52.5158 108.551 51.4401 109.364 50.6495C109.78 50.2193 110.28 49.879 110.833 49.6495C111.386 49.42 111.981 49.3061 112.579 49.315C113.837 49.315 114.907 49.7616 115.798 50.6495C116.685 51.5401 117.13 52.6096 117.13 53.8675C117.13 55.1199 116.685 56.1948 115.798 57.0827C115.381 57.5129 114.88 57.853 114.327 58.082C113.773 58.3111 113.178 58.4243 112.579 58.4146C112.001 58.4227 111.427 58.3158 110.89 58.1001C110.353 57.8844 109.865 57.5642 109.453 57.1581V61.2033C110.441 61.6234 111.505 61.8363 112.579 61.8289C114.78 61.8289 116.661 61.05 118.212 59.5015C119.767 57.9477 120.539 56.0724 120.539 53.8675C120.539 51.6612 119.767 49.7872 118.212 48.2347ZM156.144 58.6204C156.144 56.9657 155.579 55.8585 154.169 55.8585C153.534 55.8585 152.875 56.2069 152.164 56.8809V60.8092C152.824 61.3782 153.496 61.5881 153.99 61.5881C155.23 61.5881 156.144 60.4715 156.144 58.6204ZM152.07 61.6957H152.03L151.91 62.4693H150.897V51.485H152.164V54.489L152.124 55.8343C152.809 55.2424 153.643 54.7903 154.477 54.7903C156.414 54.7903 157.454 56.293 157.454 58.6042C157.454 61.163 155.92 62.6549 154.209 62.6549C153.511 62.6549 152.735 62.2957 152.07 61.6957ZM158.614 65.5459L158.863 64.5343C159.011 64.5854 159.239 64.6473 159.433 64.6473C160.281 64.6473 160.813 63.9679 161.123 63.0383L161.295 62.4854L158.287 54.976H159.593L161.123 59.1235C161.357 59.776 161.61 60.5415 161.855 61.2356H161.915C162.129 60.5549 162.34 59.7868 162.546 59.1235L163.881 54.976H165.124L162.298 63.0881C161.77 64.5746 160.996 65.7007 159.494 65.7007C159.144 65.7007 158.856 65.6388 158.614 65.5459ZM293.678 54.3491H289.271C288.429 54.302 287.775 54.4984 287.311 54.9383L286.617 56.9859H294.668L294.265 58.2706H286.315L285.582 60.7352L285.572 60.7877C285.58 60.8463 285.594 60.904 285.613 60.9598C285.701 61.1576 286.01 61.2437 286.544 61.2208H296.887L296.292 62.4706H286.749C284.701 62.4706 283.415 62.1235 282.888 61.4294C282.672 61.1509 282.578 60.8859 282.605 60.6302L284.191 54.8697C284.63 54.0841 285.465 53.5392 286.699 53.2392C287.449 53.1452 288.205 53.0984 288.962 53.0993H298.575L298.017 54.3491H293.678ZM274.586 58.2706H270.561L269.828 60.7352L269.815 60.7877C269.824 60.8462 269.838 60.9038 269.857 60.9598L269.431 62.4706H266.412L266.849 60.6302L268.938 53.0993H278.724C279.077 53.1128 279.409 53.1316 279.724 53.1598C280.036 53.1894 280.33 53.2271 280.606 53.2729C281.346 53.4814 281.889 53.8755 282.237 54.454L282.468 54.9733L281.978 57.4029C281.794 57.9814 281.175 58.2814 280.122 58.3042H278.942L280.781 62.4706H277.794L275.941 58.2706H274.587H274.586ZM277.922 54.3491H271.743L271.555 54.9383L270.859 56.9859H277.87C278.564 56.9859 278.984 56.7329 279.13 56.2231L279.446 54.9733C279.086 54.6276 278.577 54.419 277.922 54.3491ZM262.124 60.6989L262.085 60.7688L261.588 62.4706H264.816L265.279 60.7688L265.454 60.1459L266.711 54.9733L266.482 54.454C266.133 53.8755 265.589 53.4814 264.849 53.2729C264.556 53.2248 264.262 53.1871 263.966 53.1598C263.653 53.1316 263.32 53.1114 262.968 53.0993H257.45C256.693 53.101 255.937 53.1477 255.185 53.2392C253.961 53.5285 253.123 54.072 252.678 54.8697L251.093 60.6302L250.414 62.4706H253.572L254.103 60.9598L254.061 60.7877L254.073 60.7338L254.806 58.272H262.754L262.124 60.6989ZM262.165 54.3491C262.823 54.419 263.33 54.6276 263.693 54.9733L263.156 56.9859H255.105L255.799 54.9383C256.275 54.4984 256.929 54.302 257.759 54.3491H262.166H262.165ZM239.012 60.6652H239.985L241.901 53.1356H244.572L242.938 59.7276L242.9 60.6652H246.406L248.132 54.8697C248.142 54.7931 248.132 54.7151 248.102 54.6437L248.6 53.1356H251.686L251.111 54.9733L249.448 60.8737C249.187 61.9607 248.474 62.4935 247.306 62.4706H235.403C233.984 62.2957 233.111 61.6823 232.786 60.6302L234.717 53.1356H237.876L236.304 58.7724L236.041 59.7114C235.871 60.3477 236.411 60.6666 237.659 60.6666H239.014L239.012 60.6652Z" fill="#27224B"/>
<path fill-rule="evenodd" clip-rule="evenodd" d="M228.417 54.3494H224.008C223.167 54.3023 222.514 54.4987 222.049 54.9386L221.355 56.9862H229.407L229.003 58.2709H221.054L220.322 60.7355L220.309 60.788C220.318 60.8466 220.332 60.9042 220.352 60.9602C220.439 61.1579 220.749 61.244 221.281 61.2212H231.624L231.032 62.4709H221.487C219.441 62.4709 218.152 62.1238 217.626 61.4297C217.411 61.1512 217.317 60.8862 217.344 60.6306L218.93 54.87C219.368 54.0844 220.204 53.5395 221.436 53.2395C222.187 53.1452 222.943 53.0985 223.7 53.0996H233.314L232.754 54.3494H228.417ZM212.661 54.3494H208.253C207.411 54.3023 206.758 54.4987 206.293 54.9386L205.599 56.9862H213.651L213.247 58.2709H205.298L204.565 60.7355L204.554 60.788L204.134 62.4696H201.08L201.588 60.6306L203.174 54.87C203.612 54.0844 204.448 53.5395 205.68 53.2395C206.431 53.1454 207.187 53.0986 207.944 53.0996H217.558L216.998 54.3494H212.661ZM196.863 60.6992L196.825 60.7691L196.325 62.4709H199.553L200.016 60.7691L200.191 60.1463L201.449 54.9736L201.22 54.4543C200.871 53.8759 200.327 53.4817 199.587 53.2732C199.295 53.2251 199.001 53.1874 198.706 53.1602C198.373 53.1308 198.04 53.1106 197.706 53.0996H192.188C191.432 53.1014 190.676 53.1481 189.925 53.2395C188.698 53.5288 187.863 54.0723 187.416 54.87L185.832 60.6306L185.151 62.4709H188.31L188.84 60.9602L188.799 60.788L188.809 60.7342L189.543 58.2723H197.491L196.863 60.6992ZM196.906 54.3494C197.56 54.4194 198.07 54.6279 198.43 54.9736L197.895 56.9862H189.843L190.537 54.9386C191.012 54.4987 191.667 54.3023 192.497 54.3494H196.906ZM181.107 60.6992L181.735 58.2709H172.122C171.161 58.2709 170.784 57.8889 170.992 57.1261L171.66 54.87C171.983 53.9216 172.82 53.3781 174.169 53.2395C174.92 53.1455 175.676 53.0987 176.433 53.0996H186.079L185.624 54.3494H176.74C175.899 54.3023 175.245 54.4987 174.781 54.9386L174.087 56.9862H183.701C184.742 56.9862 185.162 57.3561 184.954 58.0974L184.436 60.1463L184.262 60.7691C184.149 61.9032 182.674 62.4709 179.842 62.4709H169.672L170.301 61.2212L179.834 61.2373C180.53 61.2144 180.941 61.0584 181.068 60.7691L181.107 60.6992Z" fill="#E4242B"/>
</svg>
